<svg width="453" height="345" fill="none" xmlns="http://www.w3.org/2000/svg"><path fill="#FFF8BA" d="M397 106V34H15v72z"/><path fill="#FFC79F" d="M397 106V19h-70v87z"/><path fill="#FFF8BA" d="M441 266V100H15v166z"/><path d="M437.713 148H415v22.104h22.713V148Z" fill="#fff" stroke="#5A5A5A" stroke-width=".5"/><path d="M416.841 148.842h17.677c.671 0 1.028.357 1.028 1.056v18.308c0 .714-.343 1.056-1.028 1.056h-17.677c-.684.014-1.027-.342-1.027-1.042v-18.308c-.014-.713.343-1.07 1.027-1.07Z" fill="#fff" stroke="#5A5A5A" stroke-width=".5"/><path d="M418.467 154.75c.015 1.627 1.299 2.954 2.882 2.954 1.598 0 2.882-1.327 2.882-2.954 0-1.641-1.284-2.954-2.882-2.954s-2.882 1.313-2.882 2.954Zm.028 8.747c.014 1.627 1.298 2.954 2.882 2.954 1.598 0 2.882-1.327 2.882-2.954 0-1.641-1.284-2.954-2.882-2.954-1.598-.014-2.897 1.313-2.882 2.954Zm8.191 0c0 1.641 1.284 2.954 2.882 2.954 1.597 0 2.881-1.327 2.881-2.954-.014-1.627-1.298-2.954-2.881-2.954-1.584 0-2.882 1.327-2.882 2.954Zm0-8.747c0 1.641 1.284 2.954 2.882 2.954 1.597 0 2.881-1.327 2.881-2.954-.014-1.627-1.298-2.954-2.881-2.954-1.584 0-2.882 1.327-2.882 2.954Z" stroke="#5A5A5A" stroke-width=".5"/><path d="M420.535 107.014v21.889H399V107l21.535.014Z" fill="#fff" stroke="#5A5A5A" stroke-width=".5"/><path d="M418.897 113.017v12.101c0 .675-.33 1.005-1.019 1.005h-16c-.661 0-1.005-.33-1.019-.991l.014-12.115c-.014-.661.33-.991 1.005-.991h16c.675-.028 1.019.316 1.019.991Z" fill="#fff" stroke="#5A5A5A" stroke-width=".5"/><path d="M409.878 108.694c-.84.013-1.515.647-1.515 1.445l.592 6.347.014.013c0 .482.399.868.909.868a.905.905 0 0 0 .922-.881l.593-6.347c0-.785-.675-1.432-1.515-1.445Z" stroke="#5A5A5A" stroke-width=".5"/><mask id="a" fill="#fff"><path fill-rule="evenodd" clip-rule="evenodd" d="m408.625 109.314.33 3.455a.899.899 0 0 0 .937.868.89.89 0 0 0 .908-.868l.331-3.455"/></mask><path fill-rule="evenodd" clip-rule="evenodd" d="m408.625 109.314.33 3.455a.899.899 0 0 0 .937.868.89.89 0 0 0 .908-.868l.331-3.455" fill="#fff"/><path d="m408.955 112.769.5-.014v-.017l-.002-.016-.498.047Zm.937.868v-.501l-.014.001.014.5Zm.908-.868-.497-.047-.002.016v.017l.499.014Zm-2.673-3.408.331 3.456.995-.095-.33-3.456-.996.095Zm.328 3.422c.022.757.65 1.374 1.45 1.353l-.027-.999a.399.399 0 0 1-.423-.382l-1 .028Zm1.437 1.354a1.39 1.39 0 0 0 1.408-1.354l-.999-.028a.392.392 0 0 1-.409.382v1Zm1.406-1.32.331-3.456-.996-.095-.33 3.456.995.095Z" fill="#5A5A5A" mask="url(#a)"/><circle cx="227.781" cy="173.781" r="35.781" fill="#5A5A5A"/><path d="M200.18 172.034v-1.98h8.55v1.98l-5.04 10.62h-2.25l4.95-10.44v-.18h-6.21Zm9.448 10.62v-1.98l4.302-3.042c.936-.672 1.608-1.296 2.016-1.872.408-.576.612-1.188.612-1.836 0-.684-.21-1.23-.63-1.638-.42-.408-.99-.612-1.71-.612-.888 0-1.554.36-1.998 1.08a3.633 3.633 0 0 0-.432 1.08h-2.16a5.567 5.567 0 0 1 .702-2.07c.852-1.38 2.148-2.07 3.888-2.07 1.332 0 2.412.396 3.24 1.188.84.78 1.26 1.764 1.26 2.952 0 1.032-.264 1.962-.792 2.79-.528.816-1.374 1.626-2.538 2.43l-1.8 1.26-.81.36v.09l1.08-.09h4.86v1.98h-9.09Zm10.533-.99c0-.36.114-.66.342-.9a1.2 1.2 0 0 1 .882-.36c.396 0 .708.144.936.432.24.288.36.714.36 1.278 0 .924-.222 1.632-.666 2.124-.432.504-1.02.756-1.764.756v-.9c.36 0 .642-.102.846-.306.216-.192.324-.45.324-.774v-.108c-.012-.012-.018-.036-.018-.072v-.054l-.108.036a.932.932 0 0 1-.234.018c-.24 0-.45-.108-.63-.324-.18-.216-.27-.498-.27-.846Zm3.955-2.52h2.16c.096.372.258.69.486.954.528.624 1.296.936 2.304.936.804 0 1.44-.216 1.908-.648.468-.432.702-.996.702-1.692 0-.732-.234-1.32-.702-1.764-.468-.444-1.104-.666-1.908-.666-.744 0-1.374.198-1.89.594a2.481 2.481 0 0 0-.54.576h-1.98l.54-7.38h7.65v1.98h-5.94l-.27 3.24h.09c.192-.192.414-.354.666-.486.564-.336 1.242-.504 2.034-.504 1.26 0 2.31.42 3.15 1.26.84.84 1.26 1.89 1.26 3.15 0 1.236-.444 2.268-1.332 3.096-.876.816-2.022 1.224-3.438 1.224-1.848 0-3.222-.642-4.122-1.926a5.672 5.672 0 0 1-.828-1.944Zm10.985-.63c0-.576.126-1.176.378-1.8.264-.636.516-1.134.756-1.494.252-.372.594-.834 1.026-1.386l2.88-3.78h2.43l-2.718 3.546-.792.684v.09l.36-.126a4.53 4.53 0 0 1 1.17-.144c1.176 0 2.172.426 2.988 1.278.828.84 1.242 1.884 1.242 3.132 0 1.272-.456 2.34-1.368 3.204-.912.864-2.076 1.296-3.492 1.296s-2.58-.432-3.492-1.296c-.912-.864-1.368-1.932-1.368-3.204Zm2.898-1.872c-.492.48-.738 1.104-.738 1.872s.246 1.398.738 1.89c.492.48 1.146.72 1.962.72.816 0 1.47-.24 1.962-.72.492-.492.738-1.122.738-1.89 0-.768-.246-1.392-.738-1.872-.492-.492-1.146-.738-1.962-.738-.816 0-1.47.246-1.962.738Z" fill="#fff"/><path d="M258.21 235.04v-1.54l3.29-6.3h1.75l-3.29 6.3h3.22v-2.38h1.61v2.38h1.4v1.54h-1.4V237h-1.61v-1.96h-4.97Zm8.613 0v-1.54l3.29-6.3h1.75l-3.29 6.3h3.22v-2.38h1.61v2.38h1.4v1.54h-1.4V237h-1.61v-1.96h-4.97Zm8.54 1.19c0-.28.088-.513.266-.7a.93.93 0 0 1 .686-.28c.308 0 .55.112.728.336.186.224.28.555.28.994 0 .719-.173 1.269-.518 1.652-.336.392-.794.588-1.372.588v-.7c.28 0 .499-.079.658-.238a.765.765 0 0 0 .252-.602v-.084c-.01-.009-.014-.028-.014-.056v-.042l-.084.028a.743.743 0 0 1-.182.014c-.187 0-.35-.084-.49-.252-.14-.168-.21-.387-.21-.658Zm2.866-5.81v-1.82l1.82-1.4h1.47v9.8h-1.61v-7.84l-1.68 1.26Zm4.691 6.58v-1.54l3.346-2.366c.728-.523 1.251-1.008 1.568-1.456.317-.448.476-.924.476-1.428 0-.532-.163-.957-.49-1.274-.327-.317-.77-.476-1.33-.476-.691 0-1.209.28-1.554.84a2.851 2.851 0 0 0-.336.84h-1.68a4.332 4.332 0 0 1 .546-1.61c.663-1.073 1.671-1.61 3.024-1.61 1.036 0 1.876.308 2.52.924.653.607.98 1.372.98 2.296 0 .803-.205 1.526-.616 2.17-.411.635-1.069 1.265-1.974 1.89l-1.4.98-.63.28v.07l.84-.07h3.78V237h-7.07Zm-71.5 84.2h1.68c.065.289.191.546.378.77.42.513 1.017.77 1.792.77.644 0 1.153-.159 1.526-.476.383-.327.574-.728.574-1.204 0-.541-.173-.966-.518-1.274-.336-.317-.817-.476-1.442-.476h-2.38v-1.4l2.94-2.1v-.07h-4.06v-1.54h6.44v1.526l-2.52 1.834-.7.28v.07l.224-.028c.308-.028.49-.042.546-.042.877 0 1.61.303 2.198.91.588.607.882 1.377.882 2.31 0 .896-.345 1.657-1.036 2.282-.691.625-1.582.938-2.674.938-1.447 0-2.515-.513-3.206-1.54a4.406 4.406 0 0 1-.644-1.54Zm8.617 2.03c0-.28.088-.513.266-.7a.93.93 0 0 1 .686-.28c.308 0 .55.112.728.336.186.224.28.555.28.994 0 .719-.173 1.269-.518 1.652-.336.392-.794.588-1.372.588v-.7c.28 0 .499-.079.658-.238a.765.765 0 0 0 .252-.602v-.084c-.01-.009-.014-.028-.014-.056v-.042l-.084.028a.743.743 0 0 1-.182.014c-.187 0-.35-.084-.49-.252-.14-.168-.21-.387-.21-.658Zm3.006-2.45c0-.448.098-.915.294-1.4.205-.495.401-.882.588-1.162.196-.289.462-.649.798-1.078l2.24-2.94h1.89l-2.114 2.758-.616.532v.07l.28-.098c.28-.075.583-.112.91-.112.914 0 1.689.331 2.324.994.644.653.966 1.465.966 2.436 0 .989-.355 1.82-1.064 2.492-.71.672-1.615 1.008-2.716 1.008-1.102 0-2.007-.336-2.716-1.008-.71-.672-1.064-1.503-1.064-2.492Zm2.254-1.456c-.383.373-.574.859-.574 1.456s.191 1.087.574 1.47c.382.373.891.56 1.526.56.634 0 1.143-.187 1.526-.56.382-.383.574-.873.574-1.47s-.192-1.083-.574-1.456c-.383-.383-.892-.574-1.526-.574-.635 0-1.144.191-1.526.574Zm6.359 1.456c0-.448.098-.915.294-1.4.205-.495.401-.882.588-1.162.196-.289.462-.649.798-1.078l2.24-2.94h1.89l-2.114 2.758-.616.532v.07l.28-.098c.28-.075.583-.112.91-.112.915 0 1.689.331 2.324.994.644.653.966 1.465.966 2.436 0 .989-.355 1.82-1.064 2.492-.709.672-1.615 1.008-2.716 1.008-1.101 0-2.007-.336-2.716-1.008-.709-.672-1.064-1.503-1.064-2.492Zm2.254-1.456c-.383.373-.574.859-.574 1.456s.191 1.087.574 1.47c.383.373.891.56 1.526.56s1.143-.187 1.526-.56c.383-.383.574-.873.574-1.47s-.191-1.083-.574-1.456c-.383-.383-.891-.574-1.526-.574s-1.143.191-1.526.574Zm153.65-89.984c0-.849.327-1.526.98-2.03a3.16 3.16 0 0 1 .98-.448v-.084a2.568 2.568 0 0 1-.77-.462c-.513-.439-.77-1.017-.77-1.736 0-.737.313-1.363.938-1.876.635-.523 1.489-.784 2.562-.784 1.073 0 1.923.261 2.548.784.635.513.952 1.139.952 1.876 0 .7-.257 1.279-.77 1.736-.243.196-.499.35-.77.462v.084c.355.093.681.247.98.462.653.504.98 1.176.98 2.016 0 .812-.355 1.507-1.064 2.086-.7.569-1.652.854-2.856.854s-2.161-.285-2.87-.854c-.7-.579-1.05-1.274-1.05-2.086Zm2.1-4.62c0 .411.159.747.476 1.008.317.261.765.392 1.344.392.579 0 1.027-.131 1.344-.392.317-.261.476-.597.476-1.008 0-.373-.163-.686-.49-.938-.317-.261-.761-.392-1.33-.392-.569 0-1.017.131-1.344.392-.317.252-.476.565-.476.938Zm.168 3.346c-.392.308-.588.686-.588 1.134 0 .448.196.831.588 1.148.401.308.952.462 1.652.462s1.246-.154 1.638-.462c.401-.317.602-.7.602-1.148 0-.448-.201-.826-.602-1.134-.392-.317-.938-.476-1.638-.476s-1.251.159-1.652.476Zm6.687 3.164c0-.28.089-.513.266-.7a.932.932 0 0 1 .686-.28c.308 0 .551.112.728.336.187.224.28.555.28.994 0 .719-.173 1.269-.518 1.652-.336.392-.793.588-1.372.588v-.7c.28 0 .499-.079.658-.238a.765.765 0 0 0 .252-.602v-.084c-.009-.009-.014-.028-.014-.056v-.042l-.084.028a.743.743 0 0 1-.182.014c-.187 0-.35-.084-.49-.252-.14-.168-.21-.387-.21-.658Zm3.076-5.81c0-.989.355-1.82 1.064-2.492.71-.672 1.615-1.008 2.716-1.008 1.102 0 2.007.336 2.716 1.008.71.672 1.064 1.503 1.064 2.492 0 .887-.368 1.843-1.106 2.87-.074.103-.177.243-.308.42-.13.168-.219.285-.266.35l-2.24 2.94h-1.89l2.114-2.758.616-.532v-.07a6.87 6.87 0 0 1-.28.112 3.578 3.578 0 0 1-.91.098 3.164 3.164 0 0 1-2.338-.98c-.634-.663-.952-1.479-.952-2.45Zm2.254-1.456c-.382.373-.574.859-.574 1.456s.192 1.087.574 1.47c.383.373.892.56 1.526.56.635 0 1.144-.187 1.526-.56.383-.383.574-.873.574-1.47s-.191-1.083-.574-1.456c-.382-.383-.891-.574-1.526-.574-.634 0-1.143.191-1.526.574Zm6.36 5.306h1.68c.074.289.2.537.378.742.41.485 1.008.728 1.792.728.625 0 1.12-.168 1.484-.504.364-.336.546-.775.546-1.316 0-.569-.182-1.027-.546-1.372-.364-.345-.859-.518-1.484-.518-.579 0-1.069.154-1.47.462a1.916 1.916 0 0 0-.42.448h-1.54l.42-5.74h5.95v1.54h-4.62l-.21 2.52h.07c.149-.149.322-.275.518-.378.438-.261.966-.392 1.582-.392.98 0 1.796.327 2.45.98.653.653.98 1.47.98 2.45 0 .961-.346 1.764-1.036 2.408-.682.635-1.573.952-2.674.952-1.438 0-2.506-.499-3.206-1.498a4.397 4.397 0 0 1-.644-1.512ZM334.42 69.2h1.68a1.8 1.8 0 0 0 .378.77c.42.513 1.017.77 1.792.77.644 0 1.153-.159 1.526-.476.383-.327.574-.728.574-1.204 0-.541-.173-.966-.518-1.274-.336-.317-.817-.476-1.442-.476h-2.38v-1.4l2.94-2.1v-.07h-4.06V62.2h6.44v1.526l-2.52 1.834-.7.28v.07l.224-.028c.308-.028.49-.042.546-.042.877 0 1.61.303 2.198.91.588.607.882 1.377.882 2.31 0 .896-.345 1.657-1.036 2.282-.691.625-1.582.938-2.674.938-1.447 0-2.515-.513-3.206-1.54a4.404 4.404 0 0 1-.644-1.54Zm8.617 2.03c0-.28.088-.513.266-.7a.931.931 0 0 1 .686-.28c.308 0 .55.112.728.336.186.224.28.555.28.994 0 .719-.173 1.27-.518 1.652-.336.392-.794.588-1.372.588v-.7c.28 0 .499-.08.658-.238a.765.765 0 0 0 .252-.602v-.084c-.01-.01-.014-.028-.014-.056v-.042l-.084.028a.728.728 0 0 1-.182.014c-.187 0-.35-.084-.49-.252-.14-.168-.21-.387-.21-.658Zm2.936.77v-1.54l3.346-2.366c.728-.523 1.25-1.008 1.568-1.456.317-.448.476-.924.476-1.428 0-.532-.164-.957-.49-1.274-.327-.317-.77-.476-1.33-.476-.691 0-1.209.28-1.554.84-.15.243-.262.523-.336.84h-1.68a4.33 4.33 0 0 1 .546-1.61c.662-1.073 1.67-1.61 3.024-1.61 1.036 0 1.876.308 2.52.924.653.607.98 1.372.98 2.296 0 .803-.206 1.526-.616 2.17-.411.635-1.069 1.265-1.974 1.89l-1.4.98-.63.28v.07l.84-.07h3.78V72h-7.07Zm7.842-1.96V68.5l3.29-6.3h1.75l-3.29 6.3h3.22v-2.38h1.61v2.38h1.4v1.54h-1.4V72h-1.61v-1.96h-4.97ZM194.35 65.42V63.6l1.82-1.4h1.47V72h-1.61v-7.84l-1.68 1.26Zm4.621 0V63.6l1.82-1.4h1.47V72h-1.61v-7.84l-1.68 1.26Zm4.831 5.81c0-.28.089-.513.266-.7a.934.934 0 0 1 .686-.28c.308 0 .551.112.728.336.187.224.28.555.28.994 0 .719-.172 1.27-.518 1.652-.336.392-.793.588-1.372.588v-.7c.28 0 .5-.08.658-.238a.765.765 0 0 0 .252-.602v-.084c-.009-.01-.014-.028-.014-.056v-.042l-.084.028a.722.722 0 0 1-.182.014c-.186 0-.35-.084-.49-.252-.14-.168-.21-.387-.21-.658Zm4.476-.406c-.886-.97-1.33-2.212-1.33-3.724s.444-2.753 1.33-3.724c.887-.97 1.96-1.456 3.22-1.456 1.26 0 2.334.485 3.22 1.456.887.97 1.33 2.212 1.33 3.724s-.443 2.753-1.33 3.724c-.886.97-1.96 1.456-3.22 1.456-1.26 0-2.333-.485-3.22-1.456Zm1.148-6.412c-.532.635-.798 1.53-.798 2.688 0 1.157.266 2.053.798 2.688.542.635 1.232.952 2.072.952.84 0 1.526-.317 2.058-.952.542-.635.812-1.53.812-2.688 0-1.157-.27-2.053-.812-2.688-.532-.635-1.218-.952-2.058-.952-.84 0-1.53.317-2.072.952Zm7.466 5.628V68.5l3.29-6.3h1.75l-3.29 6.3h3.22v-2.38h1.61v2.38h1.4v1.54h-1.4V72h-1.61v-1.96h-4.97Z" fill="#333"/><path fill="#FFC79F" d="M103 110V32H15v78z"/><path fill="#5A5A5A" d="M52 293v-27H14v27z"/><path d="m151.246 292.75-113.95-.137-.045-10.163h113.995v10.3Zm264 0-113.95-.136-.045-10.164h113.995v10.3Zm-264-16.2-113.95-.137-.045-10.163h113.995v10.3Zm264 0-113.95-.136-.045-10.164h113.995v10.3Z" stroke="#5A5A5A" stroke-width=".5" stroke-miterlimit="10"/><path d="M58.56 70.27h1.68c.075.29.2.537.378.742.41.485 1.008.728 1.792.728.625 0 1.12-.168 1.484-.504.364-.336.546-.775.546-1.316 0-.57-.182-1.027-.546-1.372-.364-.345-.859-.518-1.484-.518-.579 0-1.069.154-1.47.462-.159.121-.299.27-.42.448h-1.54l.42-5.74h5.95v1.54h-4.62l-.21 2.52h.07c.15-.15.322-.275.518-.378.439-.261.966-.392 1.582-.392.98 0 1.797.327 2.45.98.653.653.98 1.47.98 2.45 0 .961-.345 1.764-1.036 2.408-.681.635-1.573.952-2.674.952-1.437 0-2.506-.5-3.206-1.498a4.412 4.412 0 0 1-.644-1.512Zm8.613 1.96c0-.28.089-.513.266-.7a.933.933 0 0 1 .686-.28c.308 0 .55.112.728.336.187.224.28.555.28.994 0 .719-.172 1.27-.518 1.652-.336.392-.793.588-1.372.588v-.7c.28 0 .5-.08.658-.238a.765.765 0 0 0 .252-.602v-.084c-.01-.01-.014-.028-.014-.056v-.042l-.084.028a.726.726 0 0 1-.182.014c-.186 0-.35-.084-.49-.252-.14-.168-.21-.387-.21-.658Zm2.936.77v-1.54l3.347-2.366c.727-.523 1.25-1.008 1.567-1.456.318-.448.477-.924.477-1.428 0-.532-.164-.957-.49-1.274-.327-.317-.77-.476-1.33-.476-.691 0-1.21.28-1.555.84a2.85 2.85 0 0 0-.335.84h-1.68a4.33 4.33 0 0 1 .546-1.61c.662-1.073 1.67-1.61 3.023-1.61 1.037 0 1.876.308 2.52.924.654.607.98 1.372.98 2.296 0 .803-.205 1.526-.615 2.17-.411.635-1.07 1.265-1.974 1.89l-1.4.98-.63.28v.07l.84-.07h3.78V73h-7.07Zm7.983-6.58V64.6l1.82-1.4h1.47V73h-1.61v-7.84l-1.68 1.26Z" fill="#333"/><path fill="#5A5A5A" d="M15 22H0v271h15z"/><path fill="#5A5A5A" d="M13 110v7h95v-7zm90.34-9.994.005 7 56.657-.039-.005-7zm160 0 .005 7 178.315-.123-.005-7zM110 30h-7v36h7zm217-9h-7v28h7z"/><path fill="#5A5A5A" d="M110 91h-7v26h7z"/><path stroke="#5A5A5A" d="m120.454 67.211-13 28m215-49-13.001 28M263.274.418l-32 21"/><path fill="#5A5A5A" d="M327 77h-7v26h7zm-95-43V19H0v15z"/><path d="m89.112 50.643-.015-1.072.015-2.786v-6.899h-9.048v10.757c0 2.742 2.038 4.977 4.539 4.977 2.47 0 4.509-2.235 4.509-4.977Z" fill="#fff" stroke="#5A5A5A" stroke-width=".5"/><path d="M88.07 50.584v-7.718h-6.98v6.869l.016.849c0 2.16 1.547 3.918 3.482 3.918 1.92-.015 3.482-1.773 3.482-3.918Zm-9.643-16.478v4.782c0 .552.446.998.997.998h10.253a.997.997 0 0 0 .997-.998v-4.782a.998.998 0 0 0-.997-.998H79.44a1 1 0 0 0-1.012.998Z" fill="#fff" stroke="#5A5A5A" stroke-width=".5"/><path d="M83.963 36.49c0 .372.268.655.58.655.328.015.595-.283.595-.656 0-.372-.267-.655-.58-.655a.62.62 0 0 0-.595.655ZM48.56 34.442v11.184c0 .778.621 1.4 1.398 1.4h16.829c.776 0 1.398-.622 1.398-1.4V34.443c0-.778-.622-1.4-1.398-1.4H49.958c-.764 0-1.398.622-1.398 1.4Z" fill="#fff" stroke="#5A5A5A" stroke-width=".5"/><path d="M50.307 38.706v1.724a4.107 4.107 0 0 0 4.104 4.108h7.922a4.107 4.107 0 0 0 4.104-4.108v-1.724a4.107 4.107 0 0 0-4.104-4.108h-7.922a4.107 4.107 0 0 0-4.104 4.108Z" fill="#fff" stroke="#5A5A5A" stroke-width=".5"/><path d="M57.505 36.788c0 .494.388.894.867.894s.867-.4.867-.894a.881.881 0 0 0-.867-.894.88.88 0 0 0-.867.894Zm31.607 13.855-.015-1.072.015-2.786v-6.899h-9.048v10.757c0 2.742 2.038 4.977 4.539 4.977 2.47 0 4.509-2.235 4.509-4.977Z" fill="#fff" stroke="#5A5A5A" stroke-width=".5"/><path d="M88.07 50.584v-7.718h-6.98v6.869l.016.849c0 2.16 1.547 3.918 3.482 3.918 1.92-.015 3.482-1.773 3.482-3.918Zm-9.643-16.478v4.782c0 .552.446.998.997.998h10.253a.997.997 0 0 0 .997-.998v-4.782a.998.998 0 0 0-.997-.998H79.44a1 1 0 0 0-1.012.998Z" fill="#fff" stroke="#5A5A5A" stroke-width=".5"/><path d="M83.963 36.49c0 .372.268.655.58.655.328.015.595-.283.595-.656 0-.372-.267-.655-.58-.655a.62.62 0 0 0-.595.655ZM48.56 34.442v11.184c0 .778.621 1.4 1.398 1.4h16.829c.776 0 1.398-.622 1.398-1.4V34.443c0-.778-.622-1.4-1.398-1.4H49.958c-.764 0-1.398.622-1.398 1.4Z" fill="#fff" stroke="#5A5A5A" stroke-width=".5"/><path d="M50.307 38.706v1.724a4.107 4.107 0 0 0 4.104 4.108h7.922a4.107 4.107 0 0 0 4.104-4.108v-1.724a4.107 4.107 0 0 0-4.104-4.108h-7.922a4.107 4.107 0 0 0-4.104 4.108Z" fill="#fff" stroke="#5A5A5A" stroke-width=".5"/><path d="M57.505 36.788c0 .494.388.894.867.894s.867-.4.867-.894a.881.881 0 0 0-.867-.894.88.88 0 0 0-.867.894ZM44 34.509v65.458c0 .838-.67 1.509-1.507 1.509H16.507A1.502 1.502 0 0 1 15 99.966V34.51c0-.838.67-1.509 1.507-1.509h25.986c.837 0 1.507.686 1.507 1.509Z" fill="#fff" stroke="#5A5A5A" stroke-width=".5"/><path d="M33.024 97.452H25.96c-4.095 0-7.398-3.323-7.398-7.407V38.5c0-1.005.807-1.813 1.811-1.813h18.268c1.005 0 1.812.807 1.812 1.813v51.53c-.016 4.1-3.334 7.422-7.43 7.422Z" fill="#fff" stroke="#5A5A5A" stroke-width=".5"/><path d="M30.01 42.8c.816 0 1.477-.69 1.477-1.54 0-.85-.661-1.54-1.477-1.54-.815 0-1.476.69-1.476 1.54 0 .85.66 1.54 1.476 1.54ZM84 110.617h19.001l.012-18.637-19 .012L84 110.617Z" fill="#fff" stroke="#5A5A5A" stroke-width=".5"/><path d="M93.513 96.519c2.688 0 4.858 2.136 4.858 4.779 0 2.644-2.17 4.78-4.87 4.78-2.69 0-4.883-2.136-4.883-4.78.012-2.643 2.206-4.78 4.895-4.78Z" stroke="#5A5A5A" stroke-width=".5"/><path d="M89.956 101.298a3.344 3.344 0 0 1 1.037-2.462A3.683 3.683 0 0 1 93.5 97.81m3.57 3.476a3.48 3.48 0 0 0-1.038-2.462 3.613 3.613 0 0 0-2.52-1.026l3.557 3.488Zm-7.114.012c0 .954.398 1.823 1.037 2.463a3.628 3.628 0 0 0 2.52 1.014l-3.557-3.477Zm7.113-.012c0 .978-.398 1.847-1.037 2.463l-.012.012a3.6 3.6 0 0 1-2.495 1.014l3.544-3.489Z" stroke="#5A5A5A" stroke-width=".5"/><path fill="#5A5A5A" d="M397 34V19H264v15z"/><path fill="#5A5A5A" d="M389 105h15V18h-15z"/><path fill="#5A5A5A" d="M453 105V90h-64v15z"/><path fill="#5A5A5A" d="M438 291h15V89h-15zm-248 2v-27h-82v27z"/><path d="m258.75 344.75-81.468-.063-.03-4.437h81.498v4.5Z" stroke="#5A5A5A" stroke-width=".5" stroke-miterlimit="10"/><path fill="#5A5A5A" d="M265 345h5v-74h-5zm-99 0h5v-74h-5z"/><path fill="#5A5A5A" d="M183 345v-5h-15v5zm87 0v-5h-12v5z"/><path d="m276.75 278.25-60.476.063-.023 4.437h60.499v-4.5Zm0 10-60.476.063-.023 4.437h60.499v-4.5Z" stroke="#5A5A5A" stroke-width=".5" stroke-miterlimit="10"/><path stroke="#5A5A5A" d="m188.745 281.57 27-16"/><path fill="#5A5A5A" d="M328 293v-27h-82v27zm125 0v-27h-63v27z"/><path d="m370.976 47.563 1.073.015 2.786-.015h6.898v9.048h-10.757c-2.741 0-4.976-2.039-4.976-4.539 0-2.47 2.235-4.51 4.976-4.51Z" fill="#fff" stroke="#5A5A5A" stroke-width=".5"/><path d="M371.036 48.605h7.717v6.98h-6.868l-.849-.016c-2.161 0-3.919-1.547-3.919-3.482.015-1.92 1.773-3.483 3.919-3.483Zm16.478 9.643h-4.783a.998.998 0 0 1-.998-.997V46.997c0-.55.447-.997.998-.997h4.783c.551 0 .998.447.998.997v10.239a1 1 0 0 1-.998 1.012Z" fill="#fff" stroke="#5A5A5A" stroke-width=".5"/><path d="M385.13 52.712c-.372 0-.655-.268-.655-.58-.015-.328.283-.596.655-.596.373 0 .656.268.656.58a.621.621 0 0 1-.656.596Zm2.047 35.403h-11.184c-.777 0-1.4-.622-1.4-1.398V69.888c0-.777.623-1.398 1.4-1.398h11.184c.778 0 1.4.621 1.4 1.398v16.829c0 .763-.622 1.398-1.4 1.398Z" fill="#fff" stroke="#5A5A5A" stroke-width=".5"/><path d="M382.914 86.367h-1.724a4.107 4.107 0 0 1-4.108-4.103V74.34a4.107 4.107 0 0 1 4.108-4.103h1.724a4.107 4.107 0 0 1 4.108 4.103v7.923a4.107 4.107 0 0 1-4.108 4.103Z" fill="#fff" stroke="#5A5A5A" stroke-width=".5"/><path d="M384.832 79.17a.88.88 0 0 1-.894-.867c0-.48.4-.867.894-.867a.88.88 0 0 1 .894.867.88.88 0 0 1-.894.867Z" fill="#fff" stroke="#5A5A5A" stroke-width=".5"/><path d="m156.25 106.75 41.041-.025.012-1.475H156.25v1.5Zm68.444 0 41.041-.025.013-1.475h-41.054v1.5Zm-34.222 2 41.041-.025.013-1.475h-41.054v1.5Z" stroke="#5A5A5A" stroke-width=".5" stroke-miterlimit="10"/><path fill="#5A5A5A" d="M367.202 104.705h1.812v5.435h-1.812zm0 9.964h1.812v9.964h-1.812zm0 15.399h1.812v9.964h-1.812zm0 15.399h1.812v9.964h-1.812zm0 15.399h1.812v9.964h-1.812zm0 15.4h1.812v9.964h-1.812zm0 18.116h1.812v9.964h-1.812zm0 16.588h1.812v9.964h-1.812zm0 16h1.812v9.964h-1.812zm0 16h1.812v9.964h-1.812zM367 259h2v7h-2z"/></svg>