<svg width="276" height="692" fill="none" xmlns="http://www.w3.org/2000/svg"><path d="M129 603V30h138v573H129Z" fill="#E7FFD5"/><path d="M35 332V30h138v302H35Z" fill="#E7FFD5"/><path d="M23 247V30h150v217H23Z" fill="#E7FFD5"/><path d="M184 233h78v179h-78V233Z" fill="#FDFF9F"/><path fill="#5A5A5A" d="M245 633v-30h30v30z"/><path d="M173.35 513.42v-1.82l1.82-1.4h1.47v9.8h-1.61v-7.84l-1.68 1.26Zm4.831 3.85h1.68c.075.289.201.537.378.742.411.485 1.008.728 1.792.728.625 0 1.12-.168 1.484-.504.364-.336.546-.775.546-1.316 0-.569-.182-1.027-.546-1.372-.364-.345-.859-.518-1.484-.518-.579 0-1.069.154-1.47.462a1.916 1.916 0 0 0-.42.448h-1.54l.42-5.74h5.95v1.54h-4.62l-.21 2.52h.07c.149-.149.322-.275.518-.378.439-.261.966-.392 1.582-.392.98 0 1.797.327 2.45.98.653.653.98 1.47.98 2.45 0 .961-.345 1.764-1.036 2.408-.681.635-1.573.952-2.674.952-1.437 0-2.506-.499-3.206-1.498a4.417 4.417 0 0 1-.644-1.512Zm8.613 1.96c0-.28.089-.513.266-.7a.933.933 0 0 1 .686-.28c.308 0 .551.112.728.336.187.224.28.555.28.994 0 .719-.172 1.269-.518 1.652-.336.392-.793.588-1.372.588v-.7c.28 0 .5-.079.658-.238a.765.765 0 0 0 .252-.602v-.084c-.009-.009-.014-.028-.014-.056v-.042l-.084.028a.738.738 0 0 1-.182.014c-.186 0-.35-.084-.49-.252-.14-.168-.21-.387-.21-.658Zm4.477-.406c-.887-.971-1.33-2.212-1.33-3.724s.443-2.753 1.33-3.724c.886-.971 1.96-1.456 3.22-1.456 1.26 0 2.333.485 3.22 1.456.886.971 1.33 2.212 1.33 3.724s-.444 2.753-1.33 3.724c-.887.971-1.96 1.456-3.22 1.456-1.26 0-2.334-.485-3.22-1.456Zm1.148-6.412c-.532.635-.798 1.531-.798 2.688 0 1.157.266 2.053.798 2.688.541.635 1.232.952 2.072.952.84 0 1.526-.317 2.058-.952.541-.635.812-1.531.812-2.688 0-1.157-.271-2.053-.812-2.688-.532-.635-1.218-.952-2.058-.952-.84 0-1.531.317-2.072.952Zm7.745 4.368c0-.448.098-.915.294-1.4.205-.495.401-.882.588-1.162.196-.289.462-.649.798-1.078l2.24-2.94h1.89l-2.114 2.758-.616.532v.07l.28-.098c.28-.075.583-.112.91-.112.914 0 1.689.331 2.324.994.644.653.966 1.465.966 2.436 0 .989-.355 1.82-1.064 2.492-.71.672-1.615 1.008-2.716 1.008-1.102 0-2.007-.336-2.716-1.008-.71-.672-1.064-1.503-1.064-2.492Zm2.254-1.456c-.383.373-.574.859-.574 1.456s.191 1.087.574 1.47c.382.373.891.56 1.526.56.634 0 1.143-.187 1.526-.56.382-.383.574-.873.574-1.47s-.192-1.083-.574-1.456c-.383-.383-.892-.574-1.526-.574-.635 0-1.144.191-1.526.574ZM199.42 664.2h1.68c.065.289.191.546.378.77.42.513 1.017.77 1.792.77.644 0 1.153-.159 1.526-.476.383-.327.574-.728.574-1.204 0-.541-.173-.966-.518-1.274-.336-.317-.817-.476-1.442-.476h-2.38v-1.4l2.94-2.1v-.07h-4.06v-1.54h6.44v1.526l-2.52 1.834-.7.28v.07l.224-.028c.308-.028.49-.042.546-.042.877 0 1.61.303 2.198.91.588.607.882 1.377.882 2.31 0 .896-.345 1.657-1.036 2.282-.691.625-1.582.938-2.674.938-1.447 0-2.515-.513-3.206-1.54a4.406 4.406 0 0 1-.644-1.54Zm8.617 2.03c0-.28.088-.513.266-.7a.93.93 0 0 1 .686-.28c.308 0 .55.112.728.336.186.224.28.555.28.994 0 .719-.173 1.269-.518 1.652-.336.392-.794.588-1.372.588v-.7c.28 0 .499-.079.658-.238a.765.765 0 0 0 .252-.602v-.084c-.01-.009-.014-.028-.014-.056v-.042l-.084.028a.743.743 0 0 1-.182.014c-.187 0-.35-.084-.49-.252-.14-.168-.21-.387-.21-.658Zm3.006-2.45c0-.448.098-.915.294-1.4.205-.495.401-.882.588-1.162.196-.289.462-.649.798-1.078l2.24-2.94h1.89l-2.114 2.758-.616.532v.07l.28-.098c.28-.075.583-.112.91-.112.914 0 1.689.331 2.324.994.644.653.966 1.465.966 2.436 0 .989-.355 1.82-1.064 2.492-.71.672-1.615 1.008-2.716 1.008-1.102 0-2.007-.336-2.716-1.008-.71-.672-1.064-1.503-1.064-2.492Zm2.254-1.456c-.383.373-.574.859-.574 1.456s.191 1.087.574 1.47c.382.373.891.56 1.526.56.634 0 1.143-.187 1.526-.56.382-.383.574-.873.574-1.47s-.192-1.083-.574-1.456c-.383-.383-.892-.574-1.526-.574-.635 0-1.144.191-1.526.574Zm6.359 1.456c0-.448.098-.915.294-1.4.205-.495.401-.882.588-1.162.196-.289.462-.649.798-1.078l2.24-2.94h1.89l-2.114 2.758-.616.532v.07l.28-.098c.28-.075.583-.112.91-.112.915 0 1.689.331 2.324.994.644.653.966 1.465.966 2.436 0 .989-.355 1.82-1.064 2.492-.709.672-1.615 1.008-2.716 1.008-1.101 0-2.007-.336-2.716-1.008-.709-.672-1.064-1.503-1.064-2.492Zm2.254-1.456c-.383.373-.574.859-.574 1.456s.191 1.087.574 1.47c.383.373.891.56 1.526.56s1.143-.187 1.526-.56c.383-.383.574-.873.574-1.47s-.191-1.083-.574-1.456c-.383-.383-.891-.574-1.526-.574s-1.143.191-1.526.574ZM141.35 325.42v-1.82l1.82-1.4h1.47v9.8h-1.61v-7.84l-1.68 1.26Zm4.691 6.58v-1.54l3.346-2.366c.728-.523 1.251-1.008 1.568-1.456.317-.448.476-.924.476-1.428 0-.532-.163-.957-.49-1.274-.327-.317-.77-.476-1.33-.476-.691 0-1.209.28-1.554.84a2.851 2.851 0 0 0-.336.84h-1.68a4.332 4.332 0 0 1 .546-1.61c.663-1.073 1.671-1.61 3.024-1.61 1.036 0 1.876.308 2.52.924.653.607.98 1.372.98 2.296 0 .803-.205 1.526-.616 2.17-.411.635-1.069 1.265-1.974 1.89l-1.4.98-.63.28v.07l.84-.07h3.78V332h-7.07Zm8.193-.77c0-.28.088-.513.266-.7a.93.93 0 0 1 .686-.28c.308 0 .55.112.728.336.186.224.28.555.28.994 0 .719-.173 1.269-.518 1.652-.336.392-.794.588-1.372.588v-.7c.28 0 .499-.079.658-.238a.765.765 0 0 0 .252-.602v-.084c-.01-.009-.014-.028-.014-.056v-.042l-.084.028a.743.743 0 0 1-.182.014c-.187 0-.35-.084-.49-.252-.14-.168-.21-.387-.21-.658Zm4.476-.406c-.887-.971-1.33-2.212-1.33-3.724s.443-2.753 1.33-3.724c.887-.971 1.96-1.456 3.22-1.456 1.26 0 2.333.485 3.22 1.456s1.33 2.212 1.33 3.724-.443 2.753-1.33 3.724c-.887.971-1.96 1.456-3.22 1.456-1.26 0-2.333-.485-3.22-1.456Zm1.148-6.412c-.532.635-.798 1.531-.798 2.688 0 1.157.266 2.053.798 2.688.541.635 1.232.952 2.072.952.84 0 1.526-.317 2.058-.952.541-.635.812-1.531.812-2.688 0-1.157-.271-2.053-.812-2.688-.532-.635-1.218-.952-2.058-.952-.84 0-1.531.317-2.072.952Zm7.395-.672v-1.54h6.65v1.54l-3.92 8.26h-1.75l3.85-8.12v-.14h-4.83Zm33.307 26.53h1.68c.075.289.201.537.378.742.411.485 1.008.728 1.792.728.625 0 1.12-.168 1.484-.504.364-.336.546-.775.546-1.316 0-.569-.182-1.027-.546-1.372-.364-.345-.859-.518-1.484-.518-.579 0-1.069.154-1.47.462a1.916 1.916 0 0 0-.42.448h-1.54l.42-5.74h5.95v1.54h-4.62l-.21 2.52h.07c.149-.149.322-.275.518-.378.439-.261.966-.392 1.582-.392.98 0 1.797.327 2.45.98.653.653.98 1.47.98 2.45 0 .961-.345 1.764-1.036 2.408-.681.635-1.573.952-2.674.952-1.437 0-2.506-.499-3.206-1.498a4.417 4.417 0 0 1-.644-1.512Zm8.613 1.96c0-.28.089-.513.266-.7a.933.933 0 0 1 .686-.28c.308 0 .551.112.728.336.187.224.28.555.28.994 0 .719-.172 1.269-.518 1.652-.336.392-.793.588-1.372.588v-.7c.28 0 .5-.079.658-.238a.765.765 0 0 0 .252-.602v-.084c-.009-.009-.014-.028-.014-.056v-.042l-.084.028a.738.738 0 0 1-.182.014c-.186 0-.35-.084-.49-.252-.14-.168-.21-.387-.21-.658Zm4.476-.406c-.886-.971-1.33-2.212-1.33-3.724s.444-2.753 1.33-3.724c.887-.971 1.96-1.456 3.22-1.456 1.26 0 2.334.485 3.22 1.456.887.971 1.33 2.212 1.33 3.724s-.443 2.753-1.33 3.724c-.886.971-1.96 1.456-3.22 1.456-1.26 0-2.333-.485-3.22-1.456Zm1.148-6.412c-.532.635-.798 1.531-.798 2.688 0 1.157.266 2.053.798 2.688.542.635 1.232.952 2.072.952.84 0 1.526-.317 2.058-.952.542-.635.812-1.531.812-2.688 0-1.157-.27-2.053-.812-2.688-.532-.635-1.218-.952-2.058-.952-.84 0-1.53.317-2.072.952Zm7.676 4.788h1.68c.065.289.191.546.378.77.42.513 1.017.77 1.792.77.644 0 1.152-.159 1.526-.476.382-.327.574-.728.574-1.204 0-.541-.173-.966-.518-1.274-.336-.317-.817-.476-1.442-.476h-2.38v-1.4l2.94-2.1v-.07h-4.06v-1.54h6.44v1.526l-2.52 1.834-.7.28v.07l.224-.028c.308-.028.49-.042.546-.042.877 0 1.61.303 2.198.91.588.607.882 1.377.882 2.31 0 .896-.346 1.657-1.036 2.282-.691.625-1.582.938-2.674.938-1.447 0-2.516-.513-3.206-1.54a4.388 4.388 0 0 1-.644-1.54Zm-22.053-77h1.68c.065.289.191.546.378.77.42.513 1.017.77 1.792.77.644 0 1.153-.159 1.526-.476.383-.327.574-.728.574-1.204 0-.541-.173-.966-.518-1.274-.336-.317-.817-.476-1.442-.476h-2.38v-1.4l2.94-2.1v-.07h-4.06v-1.54h6.44v1.526l-2.52 1.834-.7.28v.07l.224-.028c.308-.028.49-.042.546-.042.877 0 1.61.303 2.198.91.588.607.882 1.377.882 2.31 0 .896-.345 1.657-1.036 2.282-.691.625-1.582.938-2.674.938-1.447 0-2.515-.513-3.206-1.54a4.406 4.406 0 0 1-.644-1.54Zm8.617 2.03c0-.28.088-.513.266-.7a.93.93 0 0 1 .686-.28c.308 0 .55.112.728.336.186.224.28.555.28.994 0 .719-.173 1.269-.518 1.652-.336.392-.794.588-1.372.588v-.7c.28 0 .499-.079.658-.238a.765.765 0 0 0 .252-.602v-.084c-.01-.009-.014-.028-.014-.056v-.042l-.084.028a.743.743 0 0 1-.182.014c-.187 0-.35-.084-.49-.252-.14-.168-.21-.387-.21-.658Zm2.936-2.03h1.68c.065.289.191.546.378.77.42.513 1.017.77 1.792.77.644 0 1.152-.159 1.526-.476.382-.327.574-.728.574-1.204 0-.541-.173-.966-.518-1.274-.336-.317-.817-.476-1.442-.476h-2.38v-1.4l2.94-2.1v-.07h-4.06v-1.54h6.44v1.526l-2.52 1.834-.7.28v.07l.224-.028c.308-.028.49-.042.546-.042.877 0 1.61.303 2.198.91.588.607.882 1.377.882 2.31 0 .896-.346 1.657-1.036 2.282-.691.625-1.582.938-2.674.938-1.447 0-2.516-.513-3.206-1.54a4.388 4.388 0 0 1-.644-1.54Zm8.266.84v-1.54l3.29-6.3h1.75l-3.29 6.3h3.22v-2.38h1.61v2.38h1.4v1.54h-1.4V276h-1.61v-1.96h-4.97ZM170.42 184v-1.54l3.346-2.366c.728-.523 1.251-1.008 1.568-1.456.317-.448.476-.924.476-1.428 0-.532-.163-.957-.49-1.274-.327-.317-.77-.476-1.33-.476-.691 0-1.209.28-1.554.84a2.851 2.851 0 0 0-.336.84h-1.68a4.332 4.332 0 0 1 .546-1.61c.663-1.073 1.671-1.61 3.024-1.61 1.036 0 1.876.308 2.52.924.653.607.98 1.372.98 2.296 0 .803-.205 1.526-.616 2.17-.411.635-1.069 1.265-1.974 1.89l-1.4.98-.63.28v.07l.84-.07h3.78V184h-7.07Zm8.053 0v-1.54l3.346-2.366c.728-.523 1.25-1.008 1.568-1.456.317-.448.476-.924.476-1.428 0-.532-.164-.957-.49-1.274-.327-.317-.77-.476-1.33-.476-.691 0-1.209.28-1.554.84-.15.243-.262.523-.336.84h-1.68a4.332 4.332 0 0 1 .546-1.61c.662-1.073 1.67-1.61 3.024-1.61 1.036 0 1.876.308 2.52.924.653.607.98 1.372.98 2.296 0 .803-.206 1.526-.616 2.17-.411.635-1.069 1.265-1.974 1.89l-1.4.98-.63.28v.07l.84-.07h3.78V184h-7.07Zm8.192-.77c0-.28.089-.513.266-.7a.933.933 0 0 1 .686-.28c.308 0 .551.112.728.336.187.224.28.555.28.994 0 .719-.172 1.269-.518 1.652-.336.392-.793.588-1.372.588v-.7c.28 0 .5-.079.658-.238a.765.765 0 0 0 .252-.602v-.084c-.009-.009-.014-.028-.014-.056v-.042l-.084.028a.738.738 0 0 1-.182.014c-.186 0-.35-.084-.49-.252-.14-.168-.21-.387-.21-.658Zm2.867-5.81v-1.82l1.82-1.4h1.47v9.8h-1.61v-7.84l-1.68 1.26Zm4.481 4.62v-1.54l3.29-6.3h1.75l-3.29 6.3h3.22v-2.38h1.61v2.38h1.4v1.54h-1.4V184h-1.61v-1.96h-4.97Z" fill="#333"/><path fill="#5A5A5A" d="M207 30V0h68v30z"/><path fill="#5A5A5A" d="M275 614h-16V22h16z"/><path fill="#5A5A5A" d="M173 427v-16h89v16zm-53 0v-16h16v16z"/><path d="m239.517 321.307 1.181.017 3.066-.017h7.591v9.957h-11.838c-3.017 0-5.476-2.243-5.476-4.995 0-2.718 2.459-4.962 5.476-4.962Z" fill="#fff" stroke="#5A5A5A" stroke-width=".5"/><path d="M239.583 322.453h8.493v7.681h-7.559l-.934-.016c-2.378 0-4.312-1.703-4.312-3.832.016-2.113 1.951-3.833 4.312-3.833Zm18.134 10.613h-5.263a1.099 1.099 0 0 1-1.099-1.097v-11.284c0-.606.492-1.098 1.099-1.098h5.263c.607 0 1.099.492 1.099 1.098v11.267c0 .622-.492 1.114-1.099 1.114Z" fill="#fff" stroke="#5A5A5A" stroke-width=".5"/><path d="M255.093 326.973c-.41 0-.721-.294-.721-.638-.017-.361.311-.655.721-.655s.721.294.721.638a.682.682 0 0 1-.721.655Zm2.253 44.759h-12.308c-.855 0-1.54-.684-1.54-1.538v-18.52c0-.854.685-1.538 1.54-1.538h12.308c.856 0 1.541.684 1.541 1.538v18.52c0 .84-.685 1.538-1.541 1.538Z" fill="#fff" stroke="#5A5A5A" stroke-width=".5"/><path d="M252.655 369.809h-1.897a4.52 4.52 0 0 1-4.521-4.516v-8.718a4.52 4.52 0 0 1 4.521-4.516h1.897a4.52 4.52 0 0 1 4.521 4.516v8.718a4.52 4.52 0 0 1-4.521 4.516Z" fill="#fff" stroke="#5A5A5A" stroke-width=".5"/><path d="M254.765 361.889c-.543 0-.984-.428-.984-.955 0-.527.441-.954.984-.954.543 0 .984.427.984.954 0 .527-.441.955-.984.955Zm2.628 19.559h-66.852c-.856 0-1.541.685-1.541 1.54v26.539c0 .855.685 1.539 1.541 1.539h66.852c.856 0 1.541-.684 1.541-1.539v-26.539c0-.855-.701-1.54-1.541-1.54Z" fill="#fff" stroke="#5A5A5A" stroke-width=".5"/><path d="M193.109 392.659v7.213c0 4.183 3.393 7.556 7.565 7.556h52.641a1.846 1.846 0 0 0 1.852-1.85v-18.656a1.846 1.846 0 0 0-1.852-1.851h-52.626c-4.187.016-7.58 3.405-7.58 7.588Z" fill="#fff" stroke="#5A5A5A" stroke-width=".5"/><path d="M248.925 395.736c0-.833.704-1.508 1.572-1.508.869 0 1.572.675 1.572 1.508s-.703 1.508-1.572 1.508c-.868 0-1.572-.675-1.572-1.508Zm-59.926-63.712v-22.01l21.588-.014-.014 22.01-21.574.014Z" fill="#fff" stroke="#5A5A5A" stroke-width=".5"/><path d="M205.33 321.005c0-3.114-2.475-5.628-5.537-5.628s-5.536 2.514-5.536 5.642c0 3.114 2.474 5.656 5.536 5.656 3.062-.014 5.537-2.556 5.537-5.67Z" stroke="#5A5A5A" stroke-width=".5"/><path d="M199.793 325.125a3.872 3.872 0 0 0 2.852-1.201 4.267 4.267 0 0 0 1.189-2.905m-4.027-4.134c1.105 0 2.111.461 2.852 1.201a4.187 4.187 0 0 1 1.189 2.919l-4.041-4.12Zm-.014 8.24a4.031 4.031 0 0 1-2.852-1.201 4.2 4.2 0 0 1-1.175-2.919l4.027 4.12Zm.014-8.24a3.934 3.934 0 0 0-2.852 1.201l-.014.014a4.168 4.168 0 0 0-1.175 2.891l4.041-4.106Z" stroke="#5A5A5A" stroke-width=".5"/><path fill="#5A5A5A" d="M181 375h8v52h-8zm85-73v8h-85v-8z"/><path fill="#5A5A5A" d="M189 348h-8v-65h8zm-.01-96.155-8-.006.015-20.842 8 .006zM19 348v-16h107v16z"/><path fill="#5A5A5A" d="M113 332h16v301h-16zm68-98v-16h81v16zM19 0h16v269H19z"/><path fill="#5A5A5A" d="M70 218v16H19v-16zm-51 84h16v46H19z"/><circle cx="177.5" cy="91.5" r="39.5" fill="#5A5A5A"/><path d="M154.63 94.86c0-.576.126-1.176.378-1.8.264-.636.516-1.134.756-1.494.252-.372.594-.834 1.026-1.386l2.88-3.78h2.43l-2.718 3.546-.792.684v.09l.36-.126a4.53 4.53 0 0 1 1.17-.144c1.176 0 2.172.426 2.988 1.278.828.84 1.242 1.884 1.242 3.132 0 1.272-.456 2.34-1.368 3.204-.912.864-2.076 1.296-3.492 1.296s-2.58-.432-3.492-1.296c-.912-.864-1.368-1.932-1.368-3.204Zm2.898-1.872c-.492.48-.738 1.104-.738 1.872s.246 1.398.738 1.89c.492.48 1.146.72 1.962.72.816 0 1.47-.24 1.962-.72.492-.492.738-1.122.738-1.89 0-.768-.246-1.392-.738-1.872-.492-.492-1.146-.738-1.962-.738-.816 0-1.47.246-1.962.738Zm8.086 2.412h2.16c.084.372.246.702.486.99.54.66 1.308.99 2.304.99.828 0 1.482-.204 1.962-.612.492-.42.738-.936.738-1.548 0-.696-.222-1.242-.666-1.638-.432-.408-1.05-.612-1.854-.612h-3.06v-1.8l3.78-2.7v-.09h-5.22V86.4h8.28v1.962l-3.24 2.358-.9.36v.09l.288-.036c.396-.036.63-.054.702-.054 1.128 0 2.07.39 2.826 1.17.756.78 1.134 1.77 1.134 2.97 0 1.152-.444 2.13-1.332 2.934-.888.804-2.034 1.206-3.438 1.206-1.86 0-3.234-.66-4.122-1.98-.384-.564-.66-1.224-.828-1.98Zm11.079 2.61c0-.36.114-.66.342-.9a1.2 1.2 0 0 1 .882-.36c.396 0 .708.144.936.432.24.288.36.714.36 1.278 0 .924-.222 1.632-.666 2.124-.432.504-1.02.756-1.764.756v-.9c.36 0 .642-.102.846-.306.216-.192.324-.45.324-.774v-.108c-.012-.012-.018-.036-.018-.072v-.054l-.108.036a.932.932 0 0 1-.234.018c-.24 0-.45-.108-.63-.324-.18-.216-.27-.498-.27-.846Zm3.685-7.47V88.2l2.34-1.8h1.89V99h-2.07V88.92l-2.16 1.62Zm6.031 8.46v-1.98l4.302-3.042c.936-.672 1.608-1.296 2.016-1.872.408-.576.612-1.188.612-1.836 0-.684-.21-1.23-.63-1.638-.42-.408-.99-.612-1.71-.612-.888 0-1.554.36-1.998 1.08a3.633 3.633 0 0 0-.432 1.08h-2.16a5.567 5.567 0 0 1 .702-2.07c.852-1.38 2.148-2.07 3.888-2.07 1.332 0 2.412.396 3.24 1.188.84.78 1.26 1.764 1.26 2.952 0 1.032-.264 1.962-.792 2.79-.528.816-1.374 1.626-2.538 2.43l-1.8 1.26-.81.36v.09l1.08-.09h4.86V99h-9.09Z" fill="#fff"/><path fill="#5A5A5A" d="M115 234v-16h26v16zm3-204V0h29v30zm-99 0V0h39v30zm102 603v-30h62v30z"/><path d="m257.75 690.753-81.468-.063-.03-4.437h81.498v4.5Z" stroke="#5A5A5A" stroke-width=".5" stroke-miterlimit="10"/><path fill="#5A5A5A" d="M264 691.003h5v-74h-5zm-99 0h5v-74h-5z"/><path fill="#5A5A5A" d="M177 691.003v-5h-8v5zm92 0v-5h-12v5z"/><path d="m275.75 618.253-60.476.063-.023 4.437h60.499v-4.5Zm0 10-60.476.063-.023 4.437h60.499v-4.5Z" stroke="#5A5A5A" stroke-width=".5" stroke-miterlimit="10"/><path stroke="#5A5A5A" d="m181.745 619.573 27-16"/><path d="m32.25 29.75 195.421-.152.077-11.348H32.25v11.5Zm0-18 195.421-.152.077-11.348H32.25v11.5Z" stroke="#5A5A5A" stroke-width=".5" stroke-miterlimit="10"/><path stroke="#5A5A5A" d="m178.45 250.217-14 29m6.994 69.553 14 27m-50.699 35.8 32-19m5.527-160.15-34 22m-72.518-22.985 39 22m-83.329 12.828-21 34"/><path d="m239.702 256.241 1.18.017 3.066-.017h7.592v9.957h-11.838c-3.017 0-5.476-2.243-5.476-4.995 0-2.718 2.459-4.962 5.476-4.962Z" fill="#fff" stroke="#5A5A5A" stroke-width=".5"/><path d="M239.767 257.387h8.493v7.681h-7.558l-.935-.016c-2.377 0-4.312-1.703-4.312-3.832.016-2.113 1.951-3.833 4.312-3.833ZM257.902 268h-5.263a1.098 1.098 0 0 1-1.099-1.097v-11.284c0-.606.492-1.098 1.099-1.098h5.263c.606 0 1.098.492 1.098 1.098v11.267c0 .623-.492 1.114-1.098 1.114Z" fill="#fff" stroke="#5A5A5A" stroke-width=".5"/><path d="M255.278 261.908c-.41 0-.722-.295-.722-.639-.016-.36.312-.655.722-.655.409 0 .721.295.721.638a.684.684 0 0 1-.721.656Zm-51.423 38.552v-12.308c0-.856.684-1.541 1.538-1.541h18.52c.854 0 1.538.685 1.538 1.541v12.308c0 .855-.684 1.54-1.538 1.54h-18.52c-.84 0-1.538-.685-1.538-1.54Z" fill="#fff" stroke="#5A5A5A" stroke-width=".5"/><path d="M205.778 295.768v-1.897a4.52 4.52 0 0 1 4.516-4.521h8.718a4.52 4.52 0 0 1 4.516 4.521v1.897a4.52 4.52 0 0 1-4.516 4.521h-8.718a4.52 4.52 0 0 1-4.516-4.521Z" fill="#fff" stroke="#5A5A5A" stroke-width=".5"/><path d="M213.699 297.878c0-.543.427-.984.954-.984.527 0 .954.441.954.984 0 .544-.427.984-.954.984-.527 0-.954-.44-.954-.984ZM35 170.325h24.995V146H35v24.325Z" fill="#fff" stroke="#5A5A5A" stroke-width=".5"/><path d="M57.969 169.398H38.516c-.738 0-1.13-.392-1.13-1.162v-20.147c0-.786.376-1.163 1.13-1.163h19.453c.753-.015 1.13.377 1.13 1.147v20.147c.016.786-.377 1.178-1.13 1.178Z" fill="#fff" stroke="#5A5A5A" stroke-width=".5"/><path d="M56.18 162.897c-.016-1.79-1.43-3.251-3.172-3.251-1.758 0-3.171 1.461-3.171 3.251 0 1.806 1.413 3.25 3.171 3.25 1.759 0 3.172-1.444 3.172-3.25Zm-.03-9.626c-.016-1.79-1.43-3.251-3.172-3.251-1.759 0-3.172 1.461-3.172 3.251 0 1.806 1.413 3.251 3.172 3.251 1.758.015 3.187-1.445 3.171-3.251Zm-9.014 0c0-1.806-1.413-3.251-3.172-3.251-1.758 0-3.171 1.461-3.171 3.251.015 1.79 1.428 3.251 3.171 3.251 1.743 0 3.172-1.461 3.172-3.251Zm0 9.626c0-1.806-1.413-3.251-3.172-3.251-1.758 0-3.171 1.461-3.171 3.251.015 1.79 1.428 3.25 3.171 3.25 1.743 0 3.172-1.46 3.172-3.25Z" stroke="#5A5A5A" stroke-width=".5"/><path d="M59.088 208.699H35V185h24.103l-.015 23.699Z" fill="#fff" stroke="#5A5A5A" stroke-width=".5"/><path d="M52.482 206.896H39.165c-.742 0-1.106-.364-1.106-1.122v-17.607c0-.727.364-1.106 1.09-1.121l13.333.015c.727-.015 1.09.363 1.09 1.106v17.607c.03.743-.348 1.122-1.09 1.122Z" fill="#fff" stroke="#5A5A5A" stroke-width=".5"/><path d="M57.24 196.971c-.015-.925-.712-1.667-1.59-1.667l-6.985.651-.015.016c-.53 0-.954.439-.954 1 0 .56.424 1 .97 1.015l6.984.651c.863 0 1.575-.742 1.59-1.666Z" stroke="#5A5A5A" stroke-width=".5"/><mask id="a" fill="#fff"><path fill-rule="evenodd" clip-rule="evenodd" d="m56.558 195.592-3.803.363a.988.988 0 0 0-.955 1.031c0 .56.425.985.955 1l3.803.363"/></mask><path fill-rule="evenodd" clip-rule="evenodd" d="m56.558 195.592-3.803.363a.988.988 0 0 0-.955 1.031c0 .56.425.985.955 1l3.803.363" fill="#fff"/><path d="m52.755 195.955.014.5h.017l.017-.002-.048-.498Zm-.955 1.031h.5v-.014l-.5.014Zm.955 1 .048-.498-.017-.002h-.017l-.014.5Zm3.755-2.892-3.803.363.096.996 3.802-.364-.095-.995Zm-3.77.361a1.489 1.489 0 0 0-1.44 1.544l1-.027a.488.488 0 0 1 .47-.517l-.03-1Zm-1.44 1.531a1.48 1.48 0 0 0 1.44 1.499l.03-.999a.48.48 0 0 1-.47-.5h-1Zm1.407 1.497 3.803.364.095-.995-3.802-.364-.096.995Z" fill="#5A5A5A" mask="url(#a)"/></svg>