<svg width="339" height="427" fill="none" xmlns="http://www.w3.org/2000/svg"><path d="M257 413H138V0h119v413Z" fill="#FFF8BA"/><path d="M257 412H32V105h225v307Z" fill="#FFF8BA"/><path d="M257 237H105v176h152V237Z" fill="#FFF8BA"/><path d="M169.35 131.42v-1.82l1.82-1.4h1.47v9.8h-1.61v-7.84l-1.68 1.26Zm4.481 4.62v-1.54l3.29-6.3h1.75l-3.29 6.3h3.22v-2.38h1.61v2.38h1.4v1.54h-1.4V138h-1.61v-1.96h-4.97Zm8.54 1.19c0-.28.088-.513.266-.7a.93.93 0 0 1 .686-.28c.308 0 .55.112.728.336.186.224.28.555.28.994 0 .719-.173 1.269-.518 1.652-.336.392-.794.588-1.372.588v-.7c.28 0 .499-.079.658-.238a.765.765 0 0 0 .252-.602v-.084c-.01-.009-.014-.028-.014-.056v-.042l-.084.028a.743.743 0 0 1-.182.014c-.187 0-.35-.084-.49-.252-.14-.168-.21-.387-.21-.658Zm2.936.77v-1.54l3.346-2.366c.728-.523 1.25-1.008 1.568-1.456.317-.448.476-.924.476-1.428 0-.532-.164-.957-.49-1.274-.327-.317-.77-.476-1.33-.476-.691 0-1.209.28-1.554.84-.15.243-.262.523-.336.84h-1.68a4.332 4.332 0 0 1 .546-1.61c.662-1.073 1.67-1.61 3.024-1.61 1.036 0 1.876.308 2.52.924.653.607.98 1.372.98 2.296 0 .803-.206 1.526-.616 2.17-.411.635-1.069 1.265-1.974 1.89l-1.4.98-.63.28v.07l.84-.07h3.78V138h-7.07Zm8.192-6.58c0-.989.355-1.82 1.064-2.492.71-.672 1.615-1.008 2.716-1.008 1.102 0 2.007.336 2.716 1.008.71.672 1.064 1.503 1.064 2.492 0 .887-.368 1.843-1.106 2.87-.074.103-.177.243-.308.42-.13.168-.219.285-.266.35l-2.24 2.94h-1.89l2.114-2.758.616-.532v-.07a6.87 6.87 0 0 1-.28.112 3.578 3.578 0 0 1-.91.098 3.164 3.164 0 0 1-2.338-.98c-.634-.663-.952-1.479-.952-2.45Zm2.254-1.456c-.382.373-.574.859-.574 1.456s.192 1.087.574 1.47c.383.373.892.56 1.526.56.635 0 1.144-.187 1.526-.56.383-.383.574-.873.574-1.47s-.191-1.083-.574-1.456c-.382-.383-.891-.574-1.526-.574-.634 0-1.143.191-1.526.574ZM298.42 258.2h1.68c.065.289.191.546.378.77.42.513 1.017.77 1.792.77.644 0 1.153-.159 1.526-.476.383-.327.574-.728.574-1.204 0-.541-.173-.966-.518-1.274-.336-.317-.817-.476-1.442-.476h-2.38v-1.4l2.94-2.1v-.07h-4.06v-1.54h6.44v1.526l-2.52 1.834-.7.28v.07l.224-.028c.308-.028.49-.042.546-.042.877 0 1.61.303 2.198.91.588.607.882 1.377.882 2.31 0 .896-.345 1.657-1.036 2.282-.691.625-1.582.938-2.674.938-1.447 0-2.515-.513-3.206-1.54a4.406 4.406 0 0 1-.644-1.54Zm8.617 2.03c0-.28.088-.513.266-.7a.93.93 0 0 1 .686-.28c.308 0 .55.112.728.336.186.224.28.555.28.994 0 .719-.173 1.269-.518 1.652-.336.392-.794.588-1.372.588v-.7c.28 0 .499-.079.658-.238a.765.765 0 0 0 .252-.602v-.084c-.01-.009-.014-.028-.014-.056v-.042l-.084.028a.743.743 0 0 1-.182.014c-.187 0-.35-.084-.49-.252-.14-.168-.21-.387-.21-.658Zm3.006-2.45c0-.448.098-.915.294-1.4.205-.495.401-.882.588-1.162.196-.289.462-.649.798-1.078l2.24-2.94h1.89l-2.114 2.758-.616.532v.07l.28-.098c.28-.075.583-.112.91-.112.914 0 1.689.331 2.324.994.644.653.966 1.465.966 2.436 0 .989-.355 1.82-1.064 2.492-.71.672-1.615 1.008-2.716 1.008-1.102 0-2.007-.336-2.716-1.008-.71-.672-1.064-1.503-1.064-2.492Zm2.254-1.456c-.383.373-.574.859-.574 1.456s.191 1.087.574 1.47c.382.373.891.56 1.526.56.634 0 1.143-.187 1.526-.56.382-.383.574-.873.574-1.47s-.192-1.083-.574-1.456c-.383-.383-.892-.574-1.526-.574-.635 0-1.144.191-1.526.574Zm6.359 1.456c0-.448.098-.915.294-1.4.205-.495.401-.882.588-1.162.196-.289.462-.649.798-1.078l2.24-2.94h1.89l-2.114 2.758-.616.532v.07l.28-.098c.28-.075.583-.112.91-.112.915 0 1.689.331 2.324.994.644.653.966 1.465.966 2.436 0 .989-.355 1.82-1.064 2.492-.709.672-1.615 1.008-2.716 1.008-1.101 0-2.007-.336-2.716-1.008-.709-.672-1.064-1.503-1.064-2.492Zm2.254-1.456c-.383.373-.574.859-.574 1.456s.191 1.087.574 1.47c.383.373.891.56 1.526.56s1.143-.187 1.526-.56c.383-.383.574-.873.574-1.47s-.191-1.083-.574-1.456c-.383-.383-.891-.574-1.526-.574s-1.143.191-1.526.574ZM48.56 241.42c0-.989.355-1.82 1.064-2.492.71-.672 1.615-1.008 2.716-1.008 1.101 0 2.007.336 2.716 1.008.71.672 1.064 1.503 1.064 2.492 0 .887-.369 1.843-1.106 2.87l-.308.42c-.13.168-.22.285-.266.35L52.2 248h-1.89l2.114-2.758.616-.532v-.07a7.398 7.398 0 0 1-.28.112 3.581 3.581 0 0 1-.91.098 3.163 3.163 0 0 1-2.338-.98c-.635-.663-.952-1.479-.952-2.45Zm2.254-1.456c-.383.373-.574.859-.574 1.456s.191 1.087.574 1.47c.383.373.891.56 1.526.56s1.143-.187 1.526-.56c.383-.383.574-.873.574-1.47s-.191-1.083-.574-1.456c-.383-.383-.891-.574-1.526-.574s-1.143.191-1.526.574Zm6.36 7.266c0-.28.088-.513.265-.7a.931.931 0 0 1 .686-.28c.308 0 .55.112.728.336.187.224.28.555.28.994 0 .719-.172 1.269-.518 1.652-.336.392-.793.588-1.372.588v-.7c.28 0 .5-.079.658-.238a.765.765 0 0 0 .252-.602v-.084c-.01-.009-.014-.028-.014-.056v-.042l-.084.028a.742.742 0 0 1-.182.014c-.186 0-.35-.084-.49-.252-.14-.168-.21-.387-.21-.658Zm4.476-.406c-.887-.971-1.33-2.212-1.33-3.724s.443-2.753 1.33-3.724c.886-.971 1.96-1.456 3.22-1.456 1.26 0 2.333.485 3.22 1.456.886.971 1.33 2.212 1.33 3.724s-.444 2.753-1.33 3.724c-.887.971-1.96 1.456-3.22 1.456-1.26 0-2.334-.485-3.22-1.456Zm1.148-6.412c-.532.635-.799 1.531-.799 2.688 0 1.157.267 2.053.798 2.688.542.635 1.233.952 2.073.952.84 0 1.525-.317 2.057-.952.542-.635.813-1.531.813-2.688 0-1.157-.271-2.053-.813-2.688-.532-.635-1.218-.952-2.058-.952-.84 0-1.53.317-2.072.952ZM70.472 248v-1.54l3.346-2.366c.728-.523 1.25-1.008 1.568-1.456.317-.448.476-.924.476-1.428 0-.532-.164-.957-.49-1.274-.327-.317-.77-.476-1.33-.476-.69 0-1.209.28-1.554.84-.15.243-.262.523-.336.84h-1.68a4.332 4.332 0 0 1 .546-1.61c.662-1.073 1.67-1.61 3.024-1.61 1.036 0 1.876.308 2.52.924.653.607.98 1.372.98 2.296a3.95 3.95 0 0 1-.616 2.17c-.41.635-1.069 1.265-1.974 1.89l-1.4.98-.63.28v.07l.84-.07h3.78V248h-7.07ZM178.42 350.2h1.68c.065.289.191.546.378.77.42.513 1.017.77 1.792.77.644 0 1.153-.159 1.526-.476.383-.327.574-.728.574-1.204 0-.541-.173-.966-.518-1.274-.336-.317-.817-.476-1.442-.476h-2.38v-1.4l2.94-2.1v-.07h-4.06v-1.54h6.44v1.526l-2.52 1.834-.7.28v.07l.224-.028c.308-.028.49-.042.546-.042.877 0 1.61.303 2.198.91.588.607.882 1.377.882 2.31 0 .896-.345 1.657-1.036 2.282-.691.625-1.582.938-2.674.938-1.447 0-2.515-.513-3.206-1.54a4.406 4.406 0 0 1-.644-1.54Zm10.017 1.624c-.887-.971-1.33-2.212-1.33-3.724s.443-2.753 1.33-3.724c.886-.971 1.96-1.456 3.22-1.456 1.26 0 2.333.485 3.22 1.456.886.971 1.33 2.212 1.33 3.724s-.444 2.753-1.33 3.724c-.887.971-1.96 1.456-3.22 1.456-1.26 0-2.334-.485-3.22-1.456Zm1.148-6.412c-.532.635-.798 1.531-.798 2.688 0 1.157.266 2.053.798 2.688.541.635 1.232.952 2.072.952.84 0 1.526-.317 2.058-.952.541-.635.812-1.531.812-2.688 0-1.157-.271-2.053-.812-2.688-.532-.635-1.218-.952-2.058-.952-.84 0-1.531.317-2.072.952Zm7.815 6.818c0-.28.089-.513.266-.7a.932.932 0 0 1 .686-.28c.308 0 .551.112.728.336.187.224.28.555.28.994 0 .719-.173 1.269-.518 1.652-.336.392-.793.588-1.372.588v-.7c.28 0 .499-.079.658-.238a.765.765 0 0 0 .252-.602v-.084c-.009-.009-.014-.028-.014-.056v-.042l-.084.028a.743.743 0 0 1-.182.014c-.187 0-.35-.084-.49-.252-.14-.168-.21-.387-.21-.658Zm3.076-5.81c0-.989.355-1.82 1.064-2.492.709-.672 1.615-1.008 2.716-1.008 1.101 0 2.007.336 2.716 1.008.709.672 1.064 1.503 1.064 2.492 0 .887-.369 1.843-1.106 2.87l-.308.42a13.42 13.42 0 0 0-.266.35l-2.24 2.94h-1.89l2.114-2.758.616-.532v-.07a7.65 7.65 0 0 1-.28.112 3.583 3.583 0 0 1-.91.098 3.163 3.163 0 0 1-2.338-.98c-.635-.663-.952-1.479-.952-2.45Zm2.254-1.456c-.383.373-.574.859-.574 1.456s.191 1.087.574 1.47c.383.373.891.56 1.526.56s1.143-.187 1.526-.56c.383-.383.574-.873.574-1.47s-.191-1.083-.574-1.456c-.383-.383-.891-.574-1.526-.574s-1.143.191-1.526.574Zm7.759 6.86c-.886-.971-1.33-2.212-1.33-3.724s.444-2.753 1.33-3.724c.887-.971 1.96-1.456 3.22-1.456 1.26 0 2.334.485 3.22 1.456.887.971 1.33 2.212 1.33 3.724s-.443 2.753-1.33 3.724c-.886.971-1.96 1.456-3.22 1.456-1.26 0-2.333-.485-3.22-1.456Zm1.148-6.412c-.532.635-.798 1.531-.798 2.688 0 1.157.266 2.053.798 2.688.542.635 1.232.952 2.072.952.84 0 1.526-.317 2.058-.952.542-.635.812-1.531.812-2.688 0-1.157-.27-2.053-.812-2.688-.532-.635-1.218-.952-2.058-.952-.84 0-1.53.317-2.072.952Z" fill="#333"/><circle cx="163.5" cy="252.5" r="39.5" fill="#5A5A5A"/><path d="M140.63 255.86c0-.576.126-1.176.378-1.8.264-.636.516-1.134.756-1.494.252-.372.594-.834 1.026-1.386l2.88-3.78h2.43l-2.718 3.546-.792.684v.09l.36-.126a4.53 4.53 0 0 1 1.17-.144c1.176 0 2.172.426 2.988 1.278.828.84 1.242 1.884 1.242 3.132 0 1.272-.456 2.34-1.368 3.204-.912.864-2.076 1.296-3.492 1.296s-2.58-.432-3.492-1.296c-.912-.864-1.368-1.932-1.368-3.204Zm2.898-1.872c-.492.48-.738 1.104-.738 1.872s.246 1.398.738 1.89c.492.48 1.146.72 1.962.72.816 0 1.47-.24 1.962-.72.492-.492.738-1.122.738-1.89 0-.768-.246-1.392-.738-1.872-.492-.492-1.146-.738-1.962-.738-.816 0-1.47.246-1.962.738Zm7.996-2.448v-2.34l2.34-1.8h1.89V260h-2.07v-10.08l-2.16 1.62Zm6.212 7.47c0-.36.114-.66.342-.9a1.2 1.2 0 0 1 .882-.36c.396 0 .708.144.936.432.24.288.36.714.36 1.278 0 .924-.222 1.632-.666 2.124-.432.504-1.02.756-1.764.756v-.9c.36 0 .642-.102.846-.306.216-.192.324-.45.324-.774v-.108c-.012-.012-.018-.036-.018-.072v-.054l-.108.036a.932.932 0 0 1-.234.018c-.24 0-.45-.108-.63-.324-.18-.216-.27-.498-.27-.846Zm3.775.99v-1.98l4.302-3.042c.936-.672 1.608-1.296 2.016-1.872.408-.576.612-1.188.612-1.836 0-.684-.21-1.23-.63-1.638-.42-.408-.99-.612-1.71-.612-.888 0-1.554.36-1.998 1.08a3.633 3.633 0 0 0-.432 1.08h-2.16a5.567 5.567 0 0 1 .702-2.07c.852-1.38 2.148-2.07 3.888-2.07 1.332 0 2.412.396 3.24 1.188.84.78 1.26 1.764 1.26 2.952 0 1.032-.264 1.962-.792 2.79-.528.816-1.374 1.626-2.538 2.43l-1.8 1.26-.81.36v.09l1.08-.09h4.86V260h-9.09Zm10.263-8.46v-2.34l2.34-1.8h1.89V260h-2.07v-10.08l-2.16 1.62Z" fill="#fff"/><path fill="#FFC79F" d="M30 348h107v63H30zm0-243h62v41H30z"/><path d="M37.42 143v-1.54l3.346-2.366c.728-.523 1.25-1.008 1.568-1.456.317-.448.476-.924.476-1.428 0-.532-.163-.957-.49-1.274-.327-.317-.77-.476-1.33-.476-.69 0-1.209.28-1.554.84-.15.243-.261.523-.336.84h-1.68a4.332 4.332 0 0 1 .546-1.61c.663-1.073 1.67-1.61 3.024-1.61 1.036 0 1.876.308 2.52.924.653.607.98 1.372.98 2.296a3.95 3.95 0 0 1-.616 2.17c-.41.635-1.069 1.265-1.974 1.89l-1.4.98-.63.28v.07l.84-.07h3.78V143h-7.07Zm8.193-.77c0-.28.088-.513.266-.7a.932.932 0 0 1 .686-.28c.308 0 .55.112.728.336.186.224.28.555.28.994 0 .719-.173 1.269-.518 1.652-.336.392-.794.588-1.372.588v-.7c.28 0 .5-.079.658-.238a.765.765 0 0 0 .252-.602v-.084c-.01-.009-.014-.028-.014-.056v-.042l-.084.028a.741.741 0 0 1-.182.014c-.187 0-.35-.084-.49-.252-.14-.168-.21-.387-.21-.658Zm4.476-.406c-.887-.971-1.33-2.212-1.33-3.724s.443-2.753 1.33-3.724c.887-.971 1.96-1.456 3.22-1.456 1.26 0 2.333.485 3.22 1.456s1.33 2.212 1.33 3.724-.443 2.753-1.33 3.724c-.887.971-1.96 1.456-3.22 1.456-1.26 0-2.333-.485-3.22-1.456Zm1.148-6.412c-.532.635-.798 1.531-.798 2.688 0 1.157.266 2.053.798 2.688.541.635 1.232.952 2.072.952.84 0 1.526-.317 2.058-.952.541-.635.812-1.531.812-2.688 0-1.157-.27-2.053-.812-2.688-.532-.635-1.218-.952-2.058-.952-.84 0-1.53.317-2.072.952Zm9.215 6.412c-.886-.971-1.33-2.212-1.33-3.724s.444-2.753 1.33-3.724c.887-.971 1.96-1.456 3.22-1.456 1.26 0 2.334.485 3.22 1.456.887.971 1.33 2.212 1.33 3.724s-.443 2.753-1.33 3.724c-.886.971-1.96 1.456-3.22 1.456-1.26 0-2.333-.485-3.22-1.456Zm1.148-6.412c-.532.635-.798 1.531-.798 2.688 0 1.157.266 2.053.798 2.688.541.635 1.232.952 2.072.952.84 0 1.526-.317 2.058-.952.541-.635.812-1.531.812-2.688 0-1.157-.27-2.053-.812-2.688-.532-.635-1.218-.952-2.058-.952-.84 0-1.53.317-2.072.952Z" fill="#333"/><path d="m51.724 117.758-1.206.016-3.134-.016h-7.759v10.177h12.1c3.083 0 5.597-2.293 5.597-5.105 0-2.779-2.514-5.072-5.598-5.072Z" fill="#fff" stroke="#5A5A5A" stroke-width=".5"/><path d="M51.658 118.929h-8.681v7.851h7.725l.956-.017c2.43 0 4.407-1.741 4.407-3.917-.017-2.159-1.994-3.917-4.407-3.917Zm-18.535 10.847h5.38c.62 0 1.122-.502 1.122-1.121v-11.533c0-.62-.503-1.122-1.123-1.122h-5.38c-.62 0-1.122.502-1.122 1.122v11.516c0 .636.503 1.138 1.123 1.138Z" fill="#fff" stroke="#5A5A5A" stroke-width=".5"/><path d="M35.804 123.549c.42 0 .738-.301.738-.653.016-.368-.319-.669-.738-.669s-.737.301-.737.653a.698.698 0 0 0 .737.669Zm52.35 13.525h-12.58A1.567 1.567 0 0 1 74 135.501v-18.928c0-.874.7-1.573 1.574-1.573h12.58c.875 0 1.575.699 1.575 1.573v18.928c0 .859-.7 1.573-1.575 1.573Z" fill="#fff" stroke="#5A5A5A" stroke-width=".5"/><path d="M83.359 135.108H81.42a4.62 4.62 0 0 1-4.62-4.615v-8.911a4.62 4.62 0 0 1 4.62-4.616h1.939a4.62 4.62 0 0 1 4.62 4.616v8.911a4.62 4.62 0 0 1-4.62 4.615Z" fill="#fff" stroke="#5A5A5A" stroke-width=".5"/><path d="M85.516 127.013c-.556 0-1.006-.437-1.006-.976 0-.538.45-.975 1.006-.975.555 0 1.006.437 1.006.975 0 .539-.45.976-1.006.976Z" fill="#fff" stroke="#5A5A5A" stroke-width=".5"/><path d="M58.56 372.27h1.68c.075.289.2.537.378.742.41.485 1.008.728 1.792.728.625 0 1.12-.168 1.484-.504.364-.336.546-.775.546-1.316 0-.569-.182-1.027-.546-1.372-.364-.345-.859-.518-1.484-.518-.579 0-1.069.154-1.47.462a1.928 1.928 0 0 0-.42.448h-1.54l.42-5.74h5.95v1.54h-4.62l-.21 2.52h.07a2.13 2.13 0 0 1 .518-.378c.439-.261.966-.392 1.582-.392.98 0 1.797.327 2.45.98.653.653.98 1.47.98 2.45 0 .961-.345 1.764-1.036 2.408-.681.635-1.573.952-2.674.952-1.437 0-2.506-.499-3.206-1.498a4.417 4.417 0 0 1-.644-1.512Zm8.613 1.96c0-.28.089-.513.266-.7a.931.931 0 0 1 .686-.28c.308 0 .55.112.728.336.187.224.28.555.28.994 0 .719-.172 1.269-.518 1.652-.336.392-.793.588-1.372.588v-.7c.28 0 .5-.079.658-.238a.765.765 0 0 0 .252-.602v-.084c-.01-.009-.014-.028-.014-.056v-.042l-.084.028a.742.742 0 0 1-.182.014c-.186 0-.35-.084-.49-.252-.14-.168-.21-.387-.21-.658Zm4.477-.406c-.887-.971-1.33-2.212-1.33-3.724s.443-2.753 1.33-3.724c.886-.971 1.96-1.456 3.22-1.456 1.26 0 2.333.485 3.22 1.456.886.971 1.33 2.212 1.33 3.724s-.444 2.753-1.33 3.724c-.887.971-1.96 1.456-3.22 1.456-1.26 0-2.334-.485-3.22-1.456Zm1.147-6.412c-.531.635-.797 1.531-.797 2.688 0 1.157.266 2.053.797 2.688.542.635 1.233.952 2.073.952.84 0 1.525-.317 2.057-.952.542-.635.813-1.531.813-2.688 0-1.157-.271-2.053-.813-2.688-.532-.635-1.218-.952-2.058-.952-.84 0-1.53.317-2.072.952Zm9.216 6.412c-.887-.971-1.33-2.212-1.33-3.724s.443-2.753 1.33-3.724c.886-.971 1.96-1.456 3.22-1.456 1.26 0 2.333.485 3.22 1.456.886.971 1.33 2.212 1.33 3.724s-.444 2.753-1.33 3.724c-.887.971-1.96 1.456-3.22 1.456-1.26 0-2.334-.485-3.22-1.456Zm1.148-6.412c-.532.635-.798 1.531-.798 2.688 0 1.157.266 2.053.798 2.688.541.635 1.232.952 2.072.952.84 0 1.526-.317 2.058-.952.541-.635.812-1.531.812-2.688 0-1.157-.27-2.053-.812-2.688-.532-.635-1.218-.952-2.058-.952-.84 0-1.53.317-2.072.952Z" fill="#333"/><path fill="#5A5A5A" d="M287 61h-30V0h30z"/><path d="m338.75 284.75-.063-86.466-4.437-.032v86.498h4.5Z" stroke="#5A5A5A" stroke-width=".5" stroke-miterlimit="10"/><path fill="#5A5A5A" d="M339 293v5h-74v-5zm0-98v5h-74v-5z"/><path fill="#5A5A5A" d="M339 221h-5v-26h5zm0 72h-5v-21h5z"/><path d="m272.25 307.75.063-60.476 4.437-.023v60.499h-4.5Zm10 0 .063-60.476 4.437-.023v60.499h-4.5Z" stroke="#5A5A5A" stroke-width=".5" stroke-miterlimit="10"/><path stroke="#5A5A5A" d="m273.57 217.745-16 27"/><path fill="#5A5A5A" d="M287 220h-30v-96h30zm0 95h-30v-42h30z"/><path d="m286.75 285.25-.152 94.462-11.348.037V285.25h11.5Zm0-235-.152 129.448-11.348.051V50.25h11.5Zm-18 235-.152 94.462-11.348.037V285.25h11.5Zm0-235-.152 129.448-11.348.051V50.25h11.5Z" stroke="#5A5A5A" stroke-width=".5" stroke-miterlimit="10"/><path fill="#5A5A5A" d="M287 427h-30v-58h30zm0-427v16H126V0z"/><path fill="#5A5A5A" d="M142 106h-16V3h16z"/><path fill="#5A5A5A" d="M16 106V90h126v16z"/><path fill="#5A5A5A" d="M16 90h16v141H16zm0 174h16v157H16z"/><path fill="#5A5A5A" d="M16 427v-16h244v16z"/><path d="M142 346h-8v68h8v-68Z" fill="#5A5A5A"/><path d="m43.758 391.646.017 1.207-.017 3.133v7.759h10.177v-12.099c0-3.084-2.293-5.597-5.105-5.597-2.779 0-5.072 2.513-5.072 5.597Z" fill="#fff" stroke="#5A5A5A" stroke-width=".5"/><path d="M44.93 391.713v8.681h7.85v-7.726l-.017-.955c0-2.43-1.74-4.407-3.917-4.407-2.16.016-3.917 1.994-3.917 4.407Zm10.846 18.535v-5.38c0-.62-.502-1.123-1.121-1.123H43.12c-.619 0-1.121.503-1.121 1.123v5.38c0 .62.502 1.122 1.121 1.122h11.517c.636 0 1.138-.502 1.138-1.122Z" fill="#fff" stroke="#5A5A5A" stroke-width=".5"/><path d="M49.55 407.566c0-.419-.302-.737-.653-.737-.369-.017-.67.318-.67.737s.301.737.653.737a.698.698 0 0 0 .67-.737Zm43.143 2.23v-12.58c0-.875-.7-1.574-1.573-1.574H72.191c-.873 0-1.572.699-1.572 1.574v12.58c0 .875.699 1.574 1.572 1.574h18.93c.858 0 1.572-.699 1.572-1.574Z" fill="#fff" stroke="#5A5A5A" stroke-width=".5"/><path d="M90.727 405v-1.938a4.62 4.62 0 0 0-4.615-4.621H77.2a4.62 4.62 0 0 0-4.615 4.621V405a4.62 4.62 0 0 0 4.615 4.621h8.912A4.62 4.62 0 0 0 90.727 405Z" fill="#fff" stroke="#5A5A5A" stroke-width=".5"/><path d="M82.632 407.158c0-.556-.437-1.006-.976-1.006-.539 0-.975.45-.975 1.006 0 .555.436 1.006.975 1.006.539 0 .976-.451.976-1.006Zm25.008 2.816v-60.578c0-.775.62-1.396 1.395-1.396h24.049a1.39 1.39 0 0 1 1.395 1.396v60.578a1.39 1.39 0 0 1-1.395 1.396h-24.049a1.398 1.398 0 0 1-1.395-1.396Z" fill="#fff" stroke="#5A5A5A" stroke-width=".5"/><path d="M117.798 351.724h6.537a6.85 6.85 0 0 1 6.847 6.854v47.701c0 .931-.747 1.679-1.676 1.679H112.6c-.93 0-1.677-.748-1.677-1.679v-47.686c.014-3.794 3.086-6.869 6.875-6.869Z" fill="#fff" stroke="#5A5A5A" stroke-width=".5"/><path d="M120.588 402.302c-.755 0-1.367.637-1.367 1.424 0 .787.612 1.425 1.367 1.425.754 0 1.366-.638 1.366-1.425s-.612-1.424-1.366-1.424Z" fill="#fff" stroke="#5A5A5A" stroke-width=".5"/><path d="M142 348v-8H69v8h73Zm-100 0v-8H31v8h11Zm9-194v-8H31v8h20Zm47 0v-8H78v8h20Z" fill="#5A5A5A"/><path d="M90 198h8v-92h-8v92Zm0 149h8v-50h-8v50Z" fill="#5A5A5A"/><path d="m96.75 301.75-.025-41.041-1.475-.012v41.053h1.5Zm0-68.444-.025-41.041-1.475-.013v41.054h1.5Zm2 34.222-.025-41.041-1.475-.013v41.054h1.5Z" stroke="#5A5A5A" stroke-width=".5" stroke-miterlimit="10"/><path d="M160 16v24.995h24.325V16H160Z" fill="#fff" stroke="#5A5A5A" stroke-width=".5"/><path d="M160.927 38.969V19.516c0-.738.392-1.13 1.162-1.13h20.147c.785 0 1.162.376 1.162 1.13v19.453c.016.753-.377 1.13-1.146 1.13h-20.148c-.785.016-1.177-.377-1.177-1.13Z" fill="#fff" stroke="#5A5A5A" stroke-width=".5"/><path d="M167.428 37.18c1.79-.016 3.251-1.43 3.251-3.172 0-1.758-1.461-3.172-3.251-3.172-1.806 0-3.251 1.414-3.251 3.172 0 1.758 1.445 3.172 3.251 3.172Zm9.626-.03c1.79-.016 3.251-1.43 3.251-3.172 0-1.759-1.461-3.172-3.251-3.172-1.806 0-3.251 1.413-3.251 3.172-.015 1.758 1.445 3.187 3.251 3.171Zm0-9.014c1.806 0 3.25-1.413 3.25-3.172 0-1.758-1.46-3.171-3.25-3.171-1.79.015-3.251 1.429-3.251 3.171 0 1.743 1.461 3.172 3.251 3.172Zm-9.626 0c1.806 0 3.251-1.413 3.251-3.172 0-1.758-1.461-3.171-3.251-3.171-1.79.015-3.251 1.429-3.251 3.171 0 1.743 1.461 3.172 3.251 3.172Z" stroke="#5A5A5A" stroke-width=".5"/><path d="M142.015 60h24.089v23.699H142L142.015 60Z" fill="#fff" stroke="#5A5A5A" stroke-width=".5"/><path d="M148.621 61.803h13.317c.742 0 1.106.364 1.106 1.121v17.608c0 .727-.364 1.106-1.091 1.121l-13.332-.015c-.727.015-1.091-.364-1.091-1.106V62.924c-.03-.742.349-1.12 1.091-1.12Z" fill="#fff" stroke="#5A5A5A" stroke-width=".5"/><path d="M143.864 71.728c.015.925.712 1.667 1.59 1.667l6.984-.651.016-.016c.53 0 .954-.44.954-1s-.424-1-.97-1.015l-6.984-.652c-.863 0-1.575.743-1.59 1.667Z" stroke="#5A5A5A" stroke-width=".5"/><mask id="a" fill="#fff"><path fill-rule="evenodd" clip-rule="evenodd" d="m144.546 73.107 3.803-.363a.988.988 0 0 0 .954-1.03.98.98 0 0 0-.954-1l-3.803-.364"/></mask><path fill-rule="evenodd" clip-rule="evenodd" d="m144.546 73.107 3.803-.363a.988.988 0 0 0 .954-1.03.98.98 0 0 0-.954-1l-3.803-.364" fill="#fff"/><path d="m148.349 72.744-.014-.5h-.017l-.017.002.048.498Zm.954-1.03h-.5v.012l.5-.013Zm-.954-1-.048.497.017.002h.017l.014-.5Zm-3.755 2.891 3.802-.364-.095-.995-3.802.364.095.995Zm3.769-.362a1.488 1.488 0 0 0 1.44-1.543l-1 .026c.008.3-.213.51-.468.518l.028 1Zm1.44-1.53a1.48 1.48 0 0 0-1.44-1.5l-.028 1a.48.48 0 0 1 .468.5h1Zm-1.407-1.498-3.802-.363-.095.995 3.802.364.095-.996Z" fill="#5A5A5A" mask="url(#a)"/><path stroke="#000" d="m20.424 229.265-20 32"/><path stroke="#5A5A5A" d="m68.762 343.44-24-13m34.439-176.982-25 11"/><path fill="#5A5A5A" d="M253 150v2h-11v-2zm-17 0v2h-11v-2zm-17 0v2h-11v-2zm-17 0v2h-11v-2zm-17 0v2h-11v-2zm-17 0v2h-11v-2zm-17 0v2h-11v-2zm-17 0v2h-11v-2zm-18 0v2h-11v-2z"/></svg>