<svg width="481" height="467" fill="none" xmlns="http://www.w3.org/2000/svg"><path fill="#E7FFD5" d="M154 435V81h111v354z"/><path fill="#E7FFD5" d="M154 183V81h113v102z"/><path fill="#FDFF9F" d="M154 354v-64h44v64zm111 76V292h44v94l-44 44Z"/><path fill="#FDFF9F" d="m324.672 378.784-58.671-58.671L297.113 289l58.672 58.671z"/><path d="M283 286V81h116v257l-116-52Z" fill="#E7FFD5"/><path d="M292.07 283.5V182.683l110 133-40 34-70-66.183ZM16 285V156h267v129z" fill="#E7FFD5"/><path fill="#5A5A5A" d="M123.999 81V51h68v30z"/><path fill="#5A5A5A" d="M153.999 95h-30V51h30zM79 156v-31h75v31zm-79 0v-31h25v31z"/><path fill="#5A5A5A" d="M16 291H0V136h16z"/><path fill="#5A5A5A" d="M3 291v-16h203v16zm135-163h16v110h-16z"/><path fill="#5A5A5A" d="M138 271h16v180h-16zM267 58h16v180h-16zm-18 217h16v55h-16z"/><path fill="#5A5A5A" d="M259 275h24v13h-24z"/><path fill="#5A5A5A" d="M283 267v24h-16v-24zm131 5v2h-11v-2zm-17 0v2h-11v-2zm-17 0v2h-11v-2zm-17 0v2h-11v-2zm-17 0v2h-11v-2zm-17 0v2h-11v-2zm-17 0v2h-11v-2zm-17 0v2h-11v-2z"/><path fill="#5A5A5A" d="M278 272v2h-6v-2zm-29 85h16v91h-16z"/><path fill="#5A5A5A" d="m367.144 326.203 11.314 11.314L265.314 450.66l-11.313-11.314z"/><path fill="#5A5A5A" d="M265 435v16h-76v-16zm164-109v16h-62v-16zm-134-35.343 5.657-5.657 61.177 61.178-5.656 5.656L295 290.657Z"/><path d="M259 293v-8h42v8h-42Zm-105 67v-8h51v8h-51Z" fill="#5A5A5A"/><path d="M197 333h8v27h-8v-27Zm1-52h8v27h-8v-27Zm46-200V51h78v30z" fill="#5A5A5A"/><path d="m287.25 80.75 103.458-.152.041-11.348H287.25v11.5Zm-279 75 103.458-.152.041-11.348H8.25v11.5Zm115-98.5.152 84.466 11.348.033V57.25h-11.5Z" stroke="#5A5A5A" stroke-width=".5" stroke-miterlimit="10"/><path d="m16.25 155.75 103.458-.152.041-11.348H16.25v11.5Zm271-93 103.458-.152.041-11.348H287.25v11.5Zm-279 74 103.458-.152.041-11.348H8.25v11.5Zm134-79.5.152 84.466 11.348.033V57.25h-11.5Z" stroke="#5A5A5A" stroke-width=".5" stroke-miterlimit="10"/><path d="m16.25 136.75 103.458-.152.041-11.348H16.25v11.5ZM260.75.25l-81.468.063-.03 4.437h81.498V.25Z" stroke="#5A5A5A" stroke-width=".5" stroke-miterlimit="10"/><path fill="#5A5A5A" d="M267 0h5v74h-5zm-99 0h5v74h-5z"/><path fill="#5A5A5A" d="M180 0v5h-8V0zm92 0v5h-12V0z"/><path d="m278.75 66.75-60.476-.063-.023-4.437h60.499v4.5Zm0-10-60.476-.063-.023-4.437h60.499v4.5Z" stroke="#5A5A5A" stroke-width=".5" stroke-miterlimit="10"/><path stroke="#5A5A5A" d="m192.745 67.43 27 16"/><path d="m480.75 219.75-.063-81.468-4.437-.03v81.498h4.5Z" stroke="#5A5A5A" stroke-width=".5" stroke-miterlimit="10"/><path fill="#5A5A5A" d="M481 226v5h-74v-5zm0-97v5h-74v-5z"/><path fill="#5A5A5A" d="M481 141h-5v-8h5z"/><path fill="#5A5A5A" d="M481 231h-5v-93h5z"/><path d="m414.25 240.75.063-60.476 4.437-.023v60.499h-4.5Zm10 0 .063-60.476 4.437-.023v60.499h-4.5Z" stroke="#5A5A5A" stroke-width=".5" stroke-miterlimit="10"/><path stroke="#5A5A5A" d="m413.57 151.745-16 27"/><path fill="#5A5A5A" d="M374 81V51h55v30z"/><path fill="#5A5A5A" d="M399 75h30v77h-30zm0 132h30v133h-30z"/><path d="M374 293h24.995v24.325H374V293Z" fill="#fff" stroke="#5A5A5A" stroke-width=".5"/><path d="M396.969 293.926h-19.453c-.738 0-1.131.393-1.131 1.162v20.148c0 .785.377 1.162 1.131 1.162h19.453c.753.016 1.13-.377 1.13-1.146v-20.148c.016-.785-.377-1.178-1.13-1.178Z" fill="#fff" stroke="#5A5A5A" stroke-width=".5"/><path d="M395.18 300.428c-.016 1.79-1.429 3.25-3.172 3.25-1.758 0-3.171-1.46-3.171-3.25 0-1.806 1.413-3.251 3.171-3.251 1.759 0 3.172 1.445 3.172 3.251Zm-.031 9.626c-.015 1.79-1.428 3.25-3.171 3.25-1.759 0-3.172-1.46-3.172-3.25 0-1.806 1.413-3.251 3.172-3.251 1.758-.016 3.187 1.445 3.171 3.251Zm-9.013 0c0 1.806-1.413 3.25-3.172 3.25-1.758 0-3.171-1.46-3.171-3.25.015-1.791 1.428-3.251 3.171-3.251 1.743 0 3.172 1.46 3.172 3.251Zm0-9.626c0 1.806-1.413 3.25-3.172 3.25-1.758 0-3.171-1.46-3.171-3.25.015-1.79 1.428-3.251 3.171-3.251 1.743 0 3.172 1.461 3.172 3.251Z" stroke="#5A5A5A" stroke-width=".5"/><path d="M322.011 307.033 339.044 290l16.758 16.758-17.044 17.044-16.747-16.769Z" fill="#fff" stroke="#5A5A5A" stroke-width=".5"/><path d="m327.957 303.637 9.417-9.417c.524-.525 1.039-.524 1.574.011l12.451 12.451c.514.514.525 1.039.021 1.564l-9.437 9.416c-.504.525-1.029.514-1.554-.011l-12.45-12.45c-.547-.504-.547-1.039-.022-1.564Z" fill="#fff" stroke="#5A5A5A" stroke-width=".5"/><path d="M331.611 314.019c.665.643 1.682.675 2.304.054l4.477-5.399v-.022c.375-.375.365-.985-.032-1.382a.996.996 0 0 0-1.403-.032l-5.4 4.478c-.61.61-.589 1.639.054 2.303Z" stroke="#5A5A5A" stroke-width=".5"/><mask id="a" fill="#fff"><path fill-rule="evenodd" clip-rule="evenodd" d="m333.068 314.512 2.432-2.946a.989.989 0 0 0-.054-1.404.98.98 0 0 0-1.382-.032l-2.946 2.432"/></mask><path fill-rule="evenodd" clip-rule="evenodd" d="m333.068 314.512 2.432-2.946a.989.989 0 0 0-.054-1.404.98.98 0 0 0-1.382-.032l-2.946 2.432" fill="#fff"/><path d="m335.5 311.566-.364-.344-.011.013-.011.012.386.319Zm-.054-1.404-.353.354.009.009.344-.363Zm-1.382-.032.318.386.013-.011.013-.012-.344-.363Zm-.61 4.7 2.432-2.946-.772-.637-2.431 2.946.771.637Zm2.409-2.921a1.488 1.488 0 0 0-.073-2.11l-.688.726c.217.206.21.512.034.697l.727.687Zm-.063-2.1a1.48 1.48 0 0 0-2.079-.043l.687.727a.48.48 0 0 1 .685.023l.707-.707Zm-2.054-.065-2.946 2.432.636.771 2.946-2.431-.636-.772Z" fill="#5A5A5A" mask="url(#a)"/><path stroke="#5A5A5A" d="m149.432 235.749 18 31m104.991-31.483-17 27m-53.177 25.299 23 13m26.017-12.14-21 13m-26.828 4.329 13 23m34.118 30.47-13-26m-46.306 116.211-30 17"/><path d="m173.298 315.759-1.18-.017-3.066.017h-7.592v-9.958h11.838c3.017 0 5.476 2.244 5.476 4.995 0 2.719-2.459 4.963-5.476 4.963Z" fill="#fff" stroke="#5A5A5A" stroke-width=".5"/><path d="M173.233 314.612h-8.493v-7.68h7.558l.935.016c2.377 0 4.312 1.703 4.312 3.832-.016 2.113-1.951 3.832-4.312 3.832ZM155.098 304h5.263c.607 0 1.099.491 1.099 1.097v11.284c0 .606-.492 1.097-1.099 1.097h-5.263a1.098 1.098 0 0 1-1.098-1.097v-11.267c0-.623.492-1.114 1.098-1.114Z" fill="#fff" stroke="#5A5A5A" stroke-width=".5"/><path d="M157.722 310.092c.41 0 .722.295.722.639.016.36-.312.655-.722.655-.409 0-.721-.295-.721-.639a.684.684 0 0 1 .721-.655ZM169 350.938V338.63c0-.856.684-1.54 1.539-1.54h18.519c.855 0 1.539.684 1.539 1.54v12.308c0 .856-.684 1.54-1.539 1.54h-18.519a1.542 1.542 0 0 1-1.539-1.54Z" fill="#fff" stroke="#5A5A5A" stroke-width=".5"/><path d="M170.924 346.246v-1.897a4.52 4.52 0 0 1 4.516-4.521h8.718a4.52 4.52 0 0 1 4.516 4.521v1.897a4.52 4.52 0 0 1-4.516 4.521h-8.718a4.52 4.52 0 0 1-4.516-4.521Z" fill="#fff" stroke="#5A5A5A" stroke-width=".5"/><path d="M178.844 348.357c0-.544.427-.984.955-.984.527 0 .954.44.954.984 0 .543-.427.984-.954.984-.528 0-.955-.441-.955-.984Zm151.648 14.103-40.557-40.557a1.316 1.316 0 0 1-.001-1.869l16.1-16.1a1.315 1.315 0 0 1 1.869.001l40.557 40.557c.519.519.52 1.349.001 1.868l-16.101 16.101a1.325 1.325 0 0 1-1.868-.001Z" fill="#fff" stroke="#5A5A5A" stroke-width=".5"/><path d="m298.294 316.66 4.376-4.376a6.485 6.485 0 0 1 9.173.005l31.936 31.936c.623.623.623 1.623.001 2.246l-11.318 11.318a1.584 1.584 0 0 1-2.247-.001l-31.926-31.926c-2.53-2.55-2.533-6.664.005-9.202Z" fill="#fff" stroke="#5A5A5A" stroke-width=".5"/><path d="M334.023 348.655c-.506.505-.488 1.342.038 1.868.527.527 1.364.544 1.869.039.505-.505.488-1.342-.039-1.868-.527-.527-1.363-.544-1.868-.039Zm-47.876 31.409.83.839 2.199 2.137 5.416 5.32-6.978 7.103-8.445-8.295c-2.152-2.114-2.334-5.439-.406-7.401 1.905-1.94 5.232-1.817 7.384.297Z" fill="#fff" stroke="#5A5A5A" stroke-width=".5"/><path d="m285.391 380.928.666.655 5.392 5.297-5.382 5.479-5.392-5.297-.656-.666c-1.696-1.666-1.882-4.237-.39-5.756 1.492-1.496 4.077-1.366 5.762.288Zm5.499 20.279-3.755-3.689a1.098 1.098 0 0 1-.015-1.552l7.908-8.05a1.099 1.099 0 0 1 1.553-.013l3.754 3.689c.433.425.439 1.12.015 1.552l-7.896 8.038a1.102 1.102 0 0 1-1.564.025Z" fill="#fff" stroke="#5A5A5A" stroke-width=".5"/><path d="M293.287 395.022c-.292-.287-.308-.716-.067-.961.241-.269.681-.249.974.038.292.287.308.716.067.961a.682.682 0 0 1-.974-.038Zm19.073-33.933 8.703 8.703c.605.605.606 1.573.001 2.177l-13.095 13.095a1.532 1.532 0 0 1-2.177-.001l-8.703-8.703a1.533 1.533 0 0 1-.001-2.177l13.095-13.095a1.542 1.542 0 0 1 2.177.001Z" fill="#fff" stroke="#5A5A5A" stroke-width=".5"/><path d="m314.318 365.767 1.342 1.341a4.52 4.52 0 0 1 .003 6.39l-6.165 6.165a4.52 4.52 0 0 1-6.39-.004l-1.341-1.341a4.52 4.52 0 0 1-.003-6.39l6.164-6.165a4.52 4.52 0 0 1 6.39.004Z" fill="#fff" stroke="#5A5A5A" stroke-width=".5"/><path d="M307.225 369.875c.384.384.394.998.021 1.37-.373.373-.986.364-1.371-.021-.384-.384-.393-.997-.02-1.37.372-.373.986-.364 1.37.021Z" fill="#fff" stroke="#5A5A5A" stroke-width=".5"/><circle cx="211.5" cy="173.5" r="39.5" fill="#5A5A5A"/><path d="M192.18 170.38v-1.98h8.55v1.98L195.69 181h-2.25l4.95-10.44v-.18h-6.21Zm9.358 2.16v-2.34l2.34-1.8h1.89V181h-2.07v-10.08l-2.16 1.62Zm6.211 7.47c0-.36.114-.66.342-.9a1.2 1.2 0 0 1 .882-.36c.396 0 .708.144.936.432.24.288.36.714.36 1.278 0 .924-.222 1.632-.666 2.124-.432.504-1.02.756-1.764.756v-.9c.36 0 .642-.102.846-.306.216-.192.324-.45.324-.774v-.108c-.012-.012-.018-.036-.018-.072v-.054l-.108.036a.932.932 0 0 1-.234.018c-.24 0-.45-.108-.63-.324-.18-.216-.27-.498-.27-.846Zm3.685-7.47v-2.34l2.34-1.8h1.89V181h-2.07v-10.08l-2.16 1.62Zm6.212 5.04c0-1.092.42-1.962 1.26-2.61.36-.252.78-.444 1.26-.576v-.108a3.296 3.296 0 0 1-.99-.594c-.66-.564-.99-1.308-.99-2.232 0-.948.402-1.752 1.206-2.412.816-.672 1.914-1.008 3.294-1.008 1.38 0 2.472.336 3.276 1.008.816.66 1.224 1.464 1.224 2.412 0 .9-.33 1.644-.99 2.232-.312.252-.642.45-.99.594v.108c.456.12.876.318 1.26.594.84.648 1.26 1.512 1.26 2.592 0 1.044-.456 1.938-1.368 2.682-.9.732-2.124 1.098-3.672 1.098s-2.778-.366-3.69-1.098c-.9-.744-1.35-1.638-1.35-2.682Zm2.7-5.94c0 .528.204.96.612 1.296.408.336.984.504 1.728.504s1.32-.168 1.728-.504c.408-.336.612-.768.612-1.296 0-.48-.21-.882-.63-1.206-.408-.336-.978-.504-1.71-.504s-1.308.168-1.728.504c-.408.324-.612.726-.612 1.206Zm.216 4.302c-.504.396-.756.882-.756 1.458s.252 1.068.756 1.476c.516.396 1.224.594 2.124.594.9 0 1.602-.198 2.106-.594.516-.408.774-.9.774-1.476s-.258-1.062-.774-1.458c-.504-.408-1.206-.612-2.106-.612-.9 0-1.608.204-2.124.612Z" fill="#fff"/><path d="M60.35 213.42v-1.82l1.82-1.4h1.47v9.8h-1.61v-7.84l-1.68 1.26Zm4.691 6.58v-1.54l3.346-2.366c.728-.523 1.25-1.008 1.568-1.456.317-.448.476-.924.476-1.428 0-.532-.163-.957-.49-1.274-.327-.317-.77-.476-1.33-.476-.69 0-1.209.28-1.554.84-.15.243-.261.523-.336.84h-1.68a4.332 4.332 0 0 1 .546-1.61c.663-1.073 1.67-1.61 3.024-1.61 1.036 0 1.876.308 2.52.924.653.607.98 1.372.98 2.296a3.95 3.95 0 0 1-.616 2.17c-.41.635-1.069 1.265-1.974 1.89l-1.4.98-.63.28v.07l.84-.07h3.78V220h-7.07Zm8.193-.77c0-.28.089-.513.266-.7a.932.932 0 0 1 .686-.28c.308 0 .55.112.728.336.186.224.28.555.28.994 0 .719-.173 1.269-.518 1.652-.336.392-.794.588-1.372.588v-.7c.28 0 .5-.079.658-.238a.765.765 0 0 0 .252-.602v-.084c-.01-.009-.014-.028-.014-.056v-.042l-.084.028a.741.741 0 0 1-.182.014c-.187 0-.35-.084-.49-.252-.14-.168-.21-.387-.21-.658Zm3.006-2.45c0-.448.098-.915.294-1.4.205-.495.401-.882.588-1.162.196-.289.462-.649.798-1.078l2.24-2.94h1.89l-2.114 2.758-.616.532v.07l.28-.098c.28-.075.583-.112.91-.112.915 0 1.69.331 2.324.994.644.653.966 1.465.966 2.436 0 .989-.355 1.82-1.064 2.492-.71.672-1.615 1.008-2.716 1.008-1.101 0-2.007-.336-2.716-1.008-.71-.672-1.064-1.503-1.064-2.492Zm2.254-1.456c-.383.373-.574.859-.574 1.456s.191 1.087.574 1.47c.383.373.891.56 1.526.56s1.143-.187 1.526-.56c.383-.383.574-.873.574-1.47s-.191-1.083-.574-1.456c-.383-.383-.891-.574-1.526-.574s-1.143.191-1.526.574Zm5.312-3.584v-1.54h6.65v1.54l-3.92 8.26h-1.75l3.85-8.12v-.14h-4.83Zm105.544 36.68v-1.82l1.82-1.4h1.47v9.8h-1.61v-7.84l-1.68 1.26Zm4.831 3.92c0-.849.327-1.526.98-2.03a3.16 3.16 0 0 1 .98-.448v-.084a2.568 2.568 0 0 1-.77-.462c-.513-.439-.77-1.017-.77-1.736 0-.737.313-1.363.938-1.876.635-.523 1.489-.784 2.562-.784 1.073 0 1.923.261 2.548.784.635.513.952 1.139.952 1.876 0 .7-.257 1.279-.77 1.736-.243.196-.499.35-.77.462v.084c.355.093.681.247.98.462.653.504.98 1.176.98 2.016 0 .812-.355 1.507-1.064 2.086-.7.569-1.652.854-2.856.854s-2.161-.285-2.87-.854c-.7-.579-1.05-1.274-1.05-2.086Zm2.1-4.62c0 .411.159.747.476 1.008.317.261.765.392 1.344.392.579 0 1.027-.131 1.344-.392.317-.261.476-.597.476-1.008 0-.373-.163-.686-.49-.938-.317-.261-.761-.392-1.33-.392-.569 0-1.017.131-1.344.392-.317.252-.476.565-.476.938Zm.168 3.346c-.392.308-.588.686-.588 1.134 0 .448.196.831.588 1.148.401.308.952.462 1.652.462s1.246-.154 1.638-.462c.401-.317.602-.7.602-1.148 0-.448-.201-.826-.602-1.134-.392-.317-.938-.476-1.638-.476s-1.251.159-1.652.476Zm6.687 3.164c0-.28.089-.513.266-.7a.933.933 0 0 1 .686-.28c.308 0 .551.112.728.336.187.224.28.555.28.994 0 .719-.172 1.269-.518 1.652-.336.392-.793.588-1.372.588v-.7c.28 0 .5-.079.658-.238a.765.765 0 0 0 .252-.602v-.084c-.009-.009-.014-.028-.014-.056v-.042l-.084.028a.738.738 0 0 1-.182.014c-.186 0-.35-.084-.49-.252-.14-.168-.21-.387-.21-.658Zm3.076-1.96h1.68c.075.289.201.537.378.742.411.485 1.008.728 1.792.728.626 0 1.12-.168 1.484-.504.364-.336.546-.775.546-1.316 0-.569-.182-1.027-.546-1.372-.364-.345-.858-.518-1.484-.518-.578 0-1.068.154-1.47.462a1.958 1.958 0 0 0-.42.448h-1.54l.42-5.74h5.95v1.54h-4.62l-.21 2.52h.07c.15-.149.322-.275.518-.378.439-.261.966-.392 1.582-.392.98 0 1.797.327 2.45.98.654.653.98 1.47.98 2.45 0 .961-.345 1.764-1.036 2.408-.681.635-1.572.952-2.674.952-1.437 0-2.506-.499-3.206-1.498a4.436 4.436 0 0 1-.644-1.512Zm8.404-3.85v-1.82l1.82-1.4h1.47v9.8h-1.61v-7.84l-1.68 1.26ZM163.42 330v-1.54l3.346-2.366c.728-.523 1.251-1.008 1.568-1.456.317-.448.476-.924.476-1.428 0-.532-.163-.957-.49-1.274-.327-.317-.77-.476-1.33-.476-.691 0-1.209.28-1.554.84a2.851 2.851 0 0 0-.336.84h-1.68a4.332 4.332 0 0 1 .546-1.61c.663-1.073 1.671-1.61 3.024-1.61 1.036 0 1.876.308 2.52.924.653.607.98 1.372.98 2.296 0 .803-.205 1.526-.616 2.17-.411.635-1.069 1.265-1.974 1.89l-1.4.98-.63.28v.07l.84-.07h3.78V330h-7.07Zm8.193-.77c0-.28.088-.513.266-.7a.93.93 0 0 1 .686-.28c.308 0 .55.112.728.336.186.224.28.555.28.994 0 .719-.173 1.269-.518 1.652-.336.392-.794.588-1.372.588v-.7c.28 0 .499-.079.658-.238a.765.765 0 0 0 .252-.602v-.084c-.01-.009-.014-.028-.014-.056v-.042l-.084.028a.743.743 0 0 1-.182.014c-.187 0-.35-.084-.49-.252-.14-.168-.21-.387-.21-.658Zm2.726-1.19v-1.54l3.29-6.3h1.75l-3.29 6.3h3.22v-2.38h1.61v2.38h1.4v1.54h-1.4V330h-1.61v-1.96h-4.97Zm9.939.784c-.886-.971-1.33-2.212-1.33-3.724s.444-2.753 1.33-3.724c.887-.971 1.96-1.456 3.22-1.456 1.26 0 2.334.485 3.22 1.456.887.971 1.33 2.212 1.33 3.724s-.443 2.753-1.33 3.724c-.886.971-1.96 1.456-3.22 1.456-1.26 0-2.333-.485-3.22-1.456Zm1.148-6.412c-.532.635-.798 1.531-.798 2.688 0 1.157.266 2.053.798 2.688.542.635 1.232.952 2.072.952.84 0 1.526-.317 2.058-.952.542-.635.812-1.531.812-2.688 0-1.157-.27-2.053-.812-2.688-.532-.635-1.218-.952-2.058-.952-.84 0-1.53.317-2.072.952Zm86.134 30.858h1.68c.075.289.201.537.378.742.411.485 1.008.728 1.792.728.625 0 1.12-.168 1.484-.504.364-.336.546-.775.546-1.316 0-.569-.182-1.027-.546-1.372-.364-.345-.859-.518-1.484-.518-.579 0-1.069.154-1.47.462a1.916 1.916 0 0 0-.42.448h-1.54l.42-5.74h5.95v1.54h-4.62l-.21 2.52h.07c.149-.149.322-.275.518-.378.439-.261.966-.392 1.582-.392.98 0 1.797.327 2.45.98.653.653.98 1.47.98 2.45 0 .961-.345 1.764-1.036 2.408-.681.635-1.573.952-2.674.952-1.437 0-2.506-.499-3.206-1.498a4.417 4.417 0 0 1-.644-1.512Zm8.613 1.96c0-.28.089-.513.266-.7a.933.933 0 0 1 .686-.28c.308 0 .551.112.728.336.187.224.28.555.28.994 0 .719-.172 1.269-.518 1.652-.336.392-.793.588-1.372.588v-.7c.28 0 .5-.079.658-.238a.765.765 0 0 0 .252-.602v-.084c-.009-.009-.014-.028-.014-.056v-.042l-.084.028a.738.738 0 0 1-.182.014c-.186 0-.35-.084-.49-.252-.14-.168-.21-.387-.21-.658Zm3.006-2.45c0-.448.098-.915.294-1.4.206-.495.402-.882.588-1.162.196-.289.462-.649.798-1.078l2.24-2.94h1.89l-2.114 2.758-.616.532v.07l.28-.098c.28-.075.584-.112.91-.112.915 0 1.69.331 2.324.994.644.653.966 1.465.966 2.436 0 .989-.354 1.82-1.064 2.492-.709.672-1.614 1.008-2.716 1.008-1.101 0-2.006-.336-2.716-1.008-.709-.672-1.064-1.503-1.064-2.492Zm2.254-1.456c-.382.373-.574.859-.574 1.456s.192 1.087.574 1.47c.383.373.892.56 1.526.56.635 0 1.144-.187 1.526-.56.383-.383.574-.873.574-1.47s-.191-1.083-.574-1.456c-.382-.383-.891-.574-1.526-.574-.634 0-1.143.191-1.526.574Zm6.36 1.456c0-.448.098-.915.294-1.4.205-.495.401-.882.588-1.162.196-.289.462-.649.798-1.078l2.24-2.94h1.89l-2.114 2.758-.616.532v.07l.28-.098c.28-.075.583-.112.91-.112.914 0 1.689.331 2.324.994.644.653.966 1.465.966 2.436 0 .989-.355 1.82-1.064 2.492-.71.672-1.615 1.008-2.716 1.008-1.102 0-2.007-.336-2.716-1.008-.71-.672-1.064-1.503-1.064-2.492Zm2.254-1.456c-.383.373-.574.859-.574 1.456s.191 1.087.574 1.47c.382.373.891.56 1.526.56.634 0 1.143-.187 1.526-.56.382-.383.574-.873.574-1.47s-.192-1.083-.574-1.456c-.383-.383-.892-.574-1.526-.574-.635 0-1.144.191-1.526.574Zm23.163-64.284v-1.54l3.29-6.3h1.75l-3.29 6.3h3.22v-2.38h1.61v2.38h1.4v1.54h-1.4V289h-1.61v-1.96h-4.97Zm8.539 1.19c0-.28.089-.513.266-.7a.933.933 0 0 1 .686-.28c.308 0 .551.112.728.336.187.224.28.555.28.994 0 .719-.172 1.269-.518 1.652-.336.392-.793.588-1.372.588v-.7c.28 0 .5-.079.658-.238a.765.765 0 0 0 .252-.602v-.084c-.009-.009-.014-.028-.014-.056v-.042l-.084.028a.738.738 0 0 1-.182.014c-.186 0-.35-.084-.49-.252-.14-.168-.21-.387-.21-.658Zm2.937-2.03h1.68c.065.289.191.546.378.77.42.513 1.017.77 1.792.77.644 0 1.152-.159 1.526-.476.382-.327.574-.728.574-1.204 0-.541-.173-.966-.518-1.274-.336-.317-.817-.476-1.442-.476h-2.38v-1.4l2.94-2.1v-.07h-4.06v-1.54h6.44v1.526l-2.52 1.834-.7.28v.07l.224-.028c.308-.028.49-.042.546-.042.877 0 1.61.303 2.198.91.588.607.882 1.377.882 2.31 0 .896-.346 1.657-1.036 2.282-.691.625-1.582.938-2.674.938-1.447 0-2.516-.513-3.206-1.54a4.388 4.388 0 0 1-.644-1.54Zm10.016 1.624c-.886-.971-1.33-2.212-1.33-3.724s.444-2.753 1.33-3.724c.887-.971 1.96-1.456 3.22-1.456 1.26 0 2.334.485 3.22 1.456.887.971 1.33 2.212 1.33 3.724s-.443 2.753-1.33 3.724c-.886.971-1.96 1.456-3.22 1.456-1.26 0-2.333-.485-3.22-1.456Zm1.148-6.412c-.532.635-.798 1.531-.798 2.688 0 1.157.266 2.053.798 2.688.542.635 1.232.952 2.072.952.84 0 1.526-.317 2.058-.952.542-.635.812-1.531.812-2.688 0-1.157-.27-2.053-.812-2.688-.532-.635-1.218-.952-2.058-.952-.84 0-1.53.317-2.072.952Zm-9.5-116.992v-1.82l1.82-1.4h1.47v9.8h-1.61v-7.84l-1.68 1.26Zm4.831 3.92c0-.849.327-1.526.98-2.03a3.16 3.16 0 0 1 .98-.448v-.084a2.568 2.568 0 0 1-.77-.462c-.513-.439-.77-1.017-.77-1.736 0-.737.313-1.363.938-1.876.635-.523 1.489-.784 2.562-.784 1.073 0 1.923.261 2.548.784.635.513.952 1.139.952 1.876 0 .7-.257 1.279-.77 1.736-.243.196-.499.35-.77.462v.084c.355.093.681.247.98.462.653.504.98 1.176.98 2.016 0 .812-.355 1.507-1.064 2.086-.7.569-1.652.854-2.856.854s-2.161-.285-2.87-.854c-.7-.579-1.05-1.274-1.05-2.086Zm2.1-4.62c0 .411.159.747.476 1.008.317.261.765.392 1.344.392.579 0 1.027-.131 1.344-.392.317-.261.476-.597.476-1.008 0-.373-.163-.686-.49-.938-.317-.261-.761-.392-1.33-.392-.569 0-1.017.131-1.344.392-.317.252-.476.565-.476.938Zm.168 3.346c-.392.308-.588.686-.588 1.134 0 .448.196.831.588 1.148.401.308.952.462 1.652.462s1.246-.154 1.638-.462c.401-.317.602-.7.602-1.148 0-.448-.201-.826-.602-1.134-.392-.317-.938-.476-1.638-.476s-1.251.159-1.652.476Zm6.687 3.164c0-.28.089-.513.266-.7a.933.933 0 0 1 .686-.28c.308 0 .551.112.728.336.187.224.28.555.28.994 0 .719-.172 1.269-.518 1.652-.336.392-.793.588-1.372.588v-.7c.28 0 .5-.079.658-.238a.765.765 0 0 0 .252-.602v-.084c-.009-.009-.014-.028-.014-.056v-.042l-.084.028a.738.738 0 0 1-.182.014c-.186 0-.35-.084-.49-.252-.14-.168-.21-.387-.21-.658Zm2.656-7.49v-1.54h6.65v1.54l-3.92 8.26h-1.75l3.85-8.12v-.14h-4.83Zm6.865 6.3v-1.54l3.29-6.3h1.75l-3.29 6.3h3.22v-2.38h1.61v2.38h1.4v1.54h-1.4V171h-1.61v-1.96h-4.97ZM206.42 34.2h1.68a1.8 1.8 0 0 0 .378.77c.42.513 1.017.77 1.792.77.644 0 1.153-.159 1.526-.476.383-.327.574-.728.574-1.204 0-.541-.173-.966-.518-1.274-.336-.317-.817-.476-1.442-.476h-2.38v-1.4l2.94-2.1v-.07h-4.06V27.2h6.44v1.526l-2.52 1.834-.7.28v.07l.224-.028c.308-.028.49-.042.546-.042.877 0 1.61.303 2.198.91.588.607.882 1.377.882 2.31 0 .896-.345 1.657-1.036 2.282-.691.625-1.582.938-2.674.938-1.447 0-2.515-.513-3.206-1.54a4.404 4.404 0 0 1-.644-1.54Zm8.617 2.03c0-.28.088-.513.266-.7a.931.931 0 0 1 .686-.28c.308 0 .55.112.728.336.186.224.28.555.28.994 0 .719-.173 1.27-.518 1.652-.336.392-.794.588-1.372.588v-.7c.28 0 .499-.08.658-.238a.765.765 0 0 0 .252-.602v-.084c-.01-.01-.014-.028-.014-.056v-.042l-.084.028a.728.728 0 0 1-.182.014c-.187 0-.35-.084-.49-.252-.14-.168-.21-.387-.21-.658Zm3.006-2.45c0-.448.098-.915.294-1.4.205-.495.401-.882.588-1.162.196-.29.462-.649.798-1.078l2.24-2.94h1.89l-2.114 2.758-.616.532v.07l.28-.098a3.52 3.52 0 0 1 .91-.112c.914 0 1.689.331 2.324.994.644.653.966 1.465.966 2.436 0 .99-.355 1.82-1.064 2.492-.71.672-1.615 1.008-2.716 1.008-1.102 0-2.007-.336-2.716-1.008-.71-.672-1.064-1.503-1.064-2.492Zm2.254-1.456c-.383.373-.574.859-.574 1.456s.191 1.087.574 1.47c.382.373.891.56 1.526.56.634 0 1.143-.187 1.526-.56.382-.383.574-.873.574-1.47s-.192-1.083-.574-1.456c-.383-.383-.892-.574-1.526-.574-.635 0-1.144.191-1.526.574Zm6.359 1.456c0-.448.098-.915.294-1.4.205-.495.401-.882.588-1.162.196-.29.462-.649.798-1.078l2.24-2.94h1.89l-2.114 2.758-.616.532v.07l.28-.098a3.52 3.52 0 0 1 .91-.112c.915 0 1.689.331 2.324.994.644.653.966 1.465.966 2.436 0 .99-.355 1.82-1.064 2.492-.709.672-1.615 1.008-2.716 1.008-1.101 0-2.007-.336-2.716-1.008-.709-.672-1.064-1.503-1.064-2.492Zm2.254-1.456c-.383.373-.574.859-.574 1.456s.191 1.087.574 1.47c.383.373.891.56 1.526.56s1.143-.187 1.526-.56c.383-.383.574-.873.574-1.47s-.191-1.083-.574-1.456c-.383-.383-.891-.574-1.526-.574s-1.143.191-1.526.574ZM439.42 181.2h1.68c.065.289.191.546.378.77.42.513 1.017.77 1.792.77.644 0 1.153-.159 1.526-.476.383-.327.574-.728.574-1.204 0-.541-.173-.966-.518-1.274-.336-.317-.817-.476-1.442-.476h-2.38v-1.4l2.94-2.1v-.07h-4.06v-1.54h6.44v1.526l-2.52 1.834-.7.28v.07l.224-.028c.308-.028.49-.042.546-.042.877 0 1.61.303 2.198.91.588.607.882 1.377.882 2.31 0 .896-.345 1.657-1.036 2.282-.691.625-1.582.938-2.674.938-1.447 0-2.515-.513-3.206-1.54a4.406 4.406 0 0 1-.644-1.54Zm8.617 2.03c0-.28.088-.513.266-.7a.93.93 0 0 1 .686-.28c.308 0 .55.112.728.336.186.224.28.555.28.994 0 .719-.173 1.269-.518 1.652-.336.392-.794.588-1.372.588v-.7c.28 0 .499-.079.658-.238a.765.765 0 0 0 .252-.602v-.084c-.01-.009-.014-.028-.014-.056v-.042l-.084.028a.743.743 0 0 1-.182.014c-.187 0-.35-.084-.49-.252-.14-.168-.21-.387-.21-.658Zm3.006-2.45c0-.448.098-.915.294-1.4.205-.495.401-.882.588-1.162.196-.289.462-.649.798-1.078l2.24-2.94h1.89l-2.114 2.758-.616.532v.07l.28-.098c.28-.075.583-.112.91-.112.914 0 1.689.331 2.324.994.644.653.966 1.465.966 2.436 0 .989-.355 1.82-1.064 2.492-.71.672-1.615 1.008-2.716 1.008-1.102 0-2.007-.336-2.716-1.008-.71-.672-1.064-1.503-1.064-2.492Zm2.254-1.456c-.383.373-.574.859-.574 1.456s.191 1.087.574 1.47c.382.373.891.56 1.526.56.634 0 1.143-.187 1.526-.56.382-.383.574-.873.574-1.47s-.192-1.083-.574-1.456c-.383-.383-.892-.574-1.526-.574-.635 0-1.144.191-1.526.574Zm6.359 1.456c0-.448.098-.915.294-1.4.205-.495.401-.882.588-1.162.196-.289.462-.649.798-1.078l2.24-2.94h1.89l-2.114 2.758-.616.532v.07l.28-.098c.28-.075.583-.112.91-.112.915 0 1.689.331 2.324.994.644.653.966 1.465.966 2.436 0 .989-.355 1.82-1.064 2.492-.709.672-1.615 1.008-2.716 1.008-1.101 0-2.007-.336-2.716-1.008-.709-.672-1.064-1.503-1.064-2.492Zm2.254-1.456c-.383.373-.574.859-.574 1.456s.191 1.087.574 1.47c.383.373.891.56 1.526.56s1.143-.187 1.526-.56c.383-.383.574-.873.574-1.47s-.191-1.083-.574-1.456c-.383-.383-.891-.574-1.526-.574s-1.143.191-1.526.574ZM191.56 400.34c0-.849.327-1.526.98-2.03a3.16 3.16 0 0 1 .98-.448v-.084a2.568 2.568 0 0 1-.77-.462c-.513-.439-.77-1.017-.77-1.736 0-.737.313-1.363.938-1.876.635-.523 1.489-.784 2.562-.784 1.073 0 1.923.261 2.548.784.635.513.952 1.139.952 1.876 0 .7-.257 1.279-.77 1.736-.243.196-.499.35-.77.462v.084c.355.093.681.247.98.462.653.504.98 1.176.98 2.016 0 .812-.355 1.507-1.064 2.086-.7.569-1.652.854-2.856.854s-2.161-.285-2.87-.854c-.7-.579-1.05-1.274-1.05-2.086Zm2.1-4.62c0 .411.159.747.476 1.008.317.261.765.392 1.344.392.579 0 1.027-.131 1.344-.392.317-.261.476-.597.476-1.008 0-.373-.163-.686-.49-.938-.317-.261-.761-.392-1.33-.392-.569 0-1.017.131-1.344.392-.317.252-.476.565-.476.938Zm.168 3.346c-.392.308-.588.686-.588 1.134 0 .448.196.831.588 1.148.401.308.952.462 1.652.462s1.246-.154 1.638-.462c.401-.317.602-.7.602-1.148 0-.448-.201-.826-.602-1.134-.392-.317-.938-.476-1.638-.476s-1.251.159-1.652.476Zm6.687 3.164c0-.28.089-.513.266-.7a.932.932 0 0 1 .686-.28c.308 0 .551.112.728.336.187.224.28.555.28.994 0 .719-.173 1.269-.518 1.652-.336.392-.793.588-1.372.588v-.7c.28 0 .499-.079.658-.238a.765.765 0 0 0 .252-.602v-.084c-.009-.009-.014-.028-.014-.056v-.042l-.084.028a.743.743 0 0 1-.182.014c-.187 0-.35-.084-.49-.252-.14-.168-.21-.387-.21-.658Zm3.076-5.81c0-.989.355-1.82 1.064-2.492.71-.672 1.615-1.008 2.716-1.008 1.102 0 2.007.336 2.716 1.008.71.672 1.064 1.503 1.064 2.492 0 .887-.368 1.843-1.106 2.87-.074.103-.177.243-.308.42-.13.168-.219.285-.266.35l-2.24 2.94h-1.89l2.114-2.758.616-.532v-.07a6.87 6.87 0 0 1-.28.112 3.578 3.578 0 0 1-.91.098 3.164 3.164 0 0 1-2.338-.98c-.634-.663-.952-1.479-.952-2.45Zm2.254-1.456c-.382.373-.574.859-.574 1.456s.192 1.087.574 1.47c.383.373.892.56 1.526.56.635 0 1.144-.187 1.526-.56.383-.383.574-.873.574-1.47s-.191-1.083-.574-1.456c-.382-.383-.891-.574-1.526-.574-.634 0-1.143.191-1.526.574Zm7.76 6.86c-.887-.971-1.33-2.212-1.33-3.724s.443-2.753 1.33-3.724c.886-.971 1.96-1.456 3.22-1.456 1.26 0 2.333.485 3.22 1.456.886.971 1.33 2.212 1.33 3.724s-.444 2.753-1.33 3.724c-.887.971-1.96 1.456-3.22 1.456-1.26 0-2.334-.485-3.22-1.456Zm1.148-6.412c-.532.635-.798 1.531-.798 2.688 0 1.157.266 2.053.798 2.688.541.635 1.232.952 2.072.952.84 0 1.526-.317 2.058-.952.541-.635.812-1.531.812-2.688 0-1.157-.271-2.053-.812-2.688-.532-.635-1.218-.952-2.058-.952-.84 0-1.531.317-2.072.952Z" fill="#333"/></svg>