<svg width="350" height="416" fill="none" xmlns="http://www.w3.org/2000/svg"><path d="M46 13v373h222V13H46Z" fill="#FFF8BA"/><path d="M12 256v130h256V256H12Z" fill="#FFF8BA"/><path d="M8 94v49h68V94H8Z" fill="#FFC79F"/><path fill="#5A5A5A" d="M82 416v-30H15v30zm109 0v-30h-51v30zm107 0v-30h-49v30z"/><path fill="#5A5A5A" d="M268 401h30v-93h-30zm0-145h30V127h-30z"/><path d="m349.75 139.75-.063-81.468-4.437-.03v81.498h4.5Z" stroke="#5A5A5A" stroke-width=".5" stroke-miterlimit="10"/><path fill="#5A5A5A" d="M350 146v5h-74v-5zm0-99v5h-74v-5z"/><path fill="#5A5A5A" d="M350 143h-5V49h5z"/><path fill="#5A5A5A" d="M350 151h-5v-12h5z"/><path d="m283.25 167.75.063-60.476 4.437-.023v60.499h-4.5Zm10 0 .063-60.476 4.437-.023v60.499h-4.5Z" stroke="#5A5A5A" stroke-width=".5" stroke-miterlimit="10"/><path stroke="#5A5A5A" d="m284.57 77.745-16 27"/><path fill="#5A5A5A" d="M268 80h30V0h-30zM16 78H0v338h16zm128 0h-16v126h16z"/><path fill="#5A5A5A" d="M272 204v-16H140v16zM84 94V78H12v16z"/><path d="m34.898 116.807-1.181-.006-3.066.044-7.59.067-.09-9.957 11.838-.105c3.017-.027 5.496 2.195 5.52 4.946.024 2.719-2.415 4.984-5.431 5.011Z" fill="#fff" stroke="#5A5A5A" stroke-width=".5"/><path d="m34.822 115.661-.935.009-7.558.067-.068-7.681 7.558-.067.934.008c2.378-.021 4.328 1.665 4.346 3.794.003 2.113-1.916 3.849-4.277 3.87Zm-18.228-10.45 5.263-.047a1.097 1.097 0 0 1 1.108 1.087l.1 11.284a1.098 1.098 0 0 1-1.088 1.107l-5.263.047a1.099 1.099 0 0 1-1.108-1.088l-.1-11.267a1.101 1.101 0 0 1 1.088-1.123Z" fill="#fff" stroke="#5A5A5A" stroke-width=".5"/><path d="M19.272 111.279c.41-.003.724.289.727.633.02.36-.306.657-.716.661-.41.004-.724-.288-.727-.632a.684.684 0 0 1 .716-.662ZM46 133.848V121.54c0-.855.684-1.54 1.538-1.54h18.52c.855 0 1.538.685 1.538 1.54v12.308c0 .856-.683 1.541-1.538 1.541h-18.52c-.84 0-1.538-.685-1.538-1.541Z" fill="#fff" stroke="#5A5A5A" stroke-width=".5"/><path d="M47.923 129.156v-1.897a4.52 4.52 0 0 1 4.516-4.521h8.718a4.52 4.52 0 0 1 4.516 4.521v1.897a4.52 4.52 0 0 1-4.516 4.521H52.44a4.52 4.52 0 0 1-4.516-4.521Z" fill="#fff" stroke="#5A5A5A" stroke-width=".5"/><path d="M55.843 131.267c0-.543.428-.984.955-.984.527 0 .954.441.954.984 0 .543-.427.984-.954.984-.527 0-.955-.441-.955-.984Z" fill="#fff" stroke="#5A5A5A" stroke-width=".5"/><path fill="#5A5A5A" d="M84 257v-16H12v16zm60 0v-16h-25v16zM30 40h16V0H30zm0 50h16V73H30z"/><path fill="#5A5A5A" d="M291 16V0H30v16zM8 135v8h76v-8H8Z"/><path d="M84 129h-8v36h8v-36Zm0-51h-8v24h8V78Zm52-74h-8v36h8V4ZM84 193h-8v64h8v-64Z" fill="#5A5A5A"/><path d="M211.967 16v24.995h24.324V16h-24.324Z" fill="#fff" stroke="#5A5A5A" stroke-width=".5"/><path d="M212.893 38.969V19.516c0-.738.393-1.13 1.162-1.13h20.148c.785 0 1.162.376 1.162 1.13v19.453c.016.753-.377 1.13-1.146 1.13h-20.148c-.785.016-1.178-.377-1.178-1.13Z" fill="#fff" stroke="#5A5A5A" stroke-width=".5"/><path d="M219.395 37.18c1.79-.016 3.25-1.43 3.25-3.172 0-1.758-1.46-3.172-3.25-3.172-1.806 0-3.251 1.414-3.251 3.172 0 1.758 1.445 3.171 3.251 3.171Zm9.626-.03c1.79-.016 3.25-1.43 3.25-3.172 0-1.759-1.46-3.172-3.25-3.172-1.806 0-3.251 1.413-3.251 3.172-.016 1.758 1.445 3.187 3.251 3.171Zm-.001-9.014c1.806 0 3.251-1.413 3.251-3.172 0-1.758-1.46-3.171-3.251-3.171-1.79.015-3.25 1.428-3.25 3.171 0 1.743 1.46 3.172 3.25 3.172Zm-9.625 0c1.805 0 3.25-1.413 3.25-3.172 0-1.758-1.46-3.171-3.25-3.171-1.791.015-3.251 1.428-3.251 3.171 0 1.743 1.46 3.172 3.251 3.172Z" stroke="#5A5A5A" stroke-width=".5"/><path d="M187.699 16.015v24.089H164V16l23.699.015Z" fill="#fff" stroke="#5A5A5A" stroke-width=".5"/><path d="M185.896 22.622v13.316c0 .743-.364 1.106-1.121 1.106h-17.608c-.727 0-1.106-.363-1.121-1.09l.015-13.332c-.015-.728.364-1.091 1.106-1.091h17.608c.742-.03 1.121.348 1.121 1.09Z" fill="#fff" stroke="#5A5A5A" stroke-width=".5"/><path d="M175.971 17.864c-.924.015-1.667.712-1.667 1.59l.652 6.985.015.015c0 .53.439.954 1 .954.561 0 1-.424 1.015-.97l.652-6.984c0-.863-.743-1.575-1.667-1.59Z" stroke="#5A5A5A" stroke-width=".5"/><mask id="a" fill="#fff"><path fill-rule="evenodd" clip-rule="evenodd" d="m174.592 18.546.363 3.803c.016.53.455.97 1.031.954a.98.98 0 0 0 1-.954l.364-3.803"/></mask><path fill-rule="evenodd" clip-rule="evenodd" d="m174.592 18.546.363 3.803c.016.53.455.97 1.031.954a.98.98 0 0 0 1-.954l.364-3.803" fill="#fff"/><path d="m174.955 22.349.5-.014v-.017l-.002-.017-.498.048Zm1.031.954v-.5h-.013l.013.5Zm1-.954-.498-.048-.001.017-.001.017.5.014Zm-2.892-3.755.364 3.802.995-.095-.363-3.802-.996.095Zm.362 3.77a1.488 1.488 0 0 0 1.543 1.44l-.026-1a.489.489 0 0 1-.518-.47l-.999.03Zm1.53 1.44a1.48 1.48 0 0 0 1.5-1.44l-1-.03a.48.48 0 0 1-.5.47v1Zm1.498-1.408.363-3.802-.995-.095-.364 3.802.996.095Z" fill="#5A5A5A" mask="url(#a)"/><path d="M16 143v98l60-.567V143H16Z" fill="#FFC79F"/><path d="M16.344 215.801h58.312c.747 0 1.344.597 1.344 1.343v23.149c0 .746-.597 1.342-1.344 1.342H16.344A1.337 1.337 0 0 1 15 240.293v-23.149c0-.746.61-1.343 1.344-1.343Z" fill="#fff" stroke="#5A5A5A" stroke-width=".5"/><path d="M72.415 225.579v6.293a6.593 6.593 0 0 1-6.598 6.591H19.901a1.61 1.61 0 0 1-1.616-1.614v-16.274c0-.895.72-1.613 1.616-1.613h45.903c3.652.013 6.611 2.969 6.611 6.617Z" fill="#fff" stroke="#5A5A5A" stroke-width=".5"/><path d="M23.73 228.264c0-.726-.614-1.315-1.372-1.315-.757 0-1.37.589-1.37 1.315s.613 1.315 1.37 1.315c.758 0 1.372-.589 1.372-1.315Zm11.779-57.457-1.18-.006-3.067.044-7.59.067-.09-9.957 11.838-.105c3.017-.027 5.496 2.195 5.52 4.946.025 2.719-2.414 4.984-5.431 5.011Z" fill="#fff" stroke="#5A5A5A" stroke-width=".5"/><path d="m35.433 169.661-.935.009-7.558.067-.068-7.681 7.558-.067.935.008c2.377-.021 4.327 1.665 4.346 3.794.002 2.113-1.917 3.849-4.278 3.87Zm-18.228-10.45 5.263-.047a1.097 1.097 0 0 1 1.108 1.087l.1 11.284a1.098 1.098 0 0 1-1.088 1.107l-5.263.046a1.097 1.097 0 0 1-1.108-1.087l-.1-11.267a1.101 1.101 0 0 1 1.088-1.123Z" fill="#fff" stroke="#5A5A5A" stroke-width=".5"/><path d="M19.883 165.279c.41-.003.724.289.727.633.02.36-.306.657-.716.661-.41.004-.723-.288-.727-.632a.684.684 0 0 1 .716-.662ZM17.152 180H29.46c.855 0 1.54.684 1.54 1.539v18.519c0 .855-.685 1.538-1.54 1.538H17.152c-.856 0-1.54-.683-1.54-1.538v-18.519c0-.841.684-1.539 1.54-1.539Z" fill="#fff" stroke="#5A5A5A" stroke-width=".5"/><path d="M21.844 181.923h1.896a4.52 4.52 0 0 1 4.522 4.516v8.718a4.52 4.52 0 0 1-4.521 4.516h-1.897a4.52 4.52 0 0 1-4.521-4.516v-8.718a4.52 4.52 0 0 1 4.52-4.516Z" fill="#fff" stroke="#5A5A5A" stroke-width=".5"/><path d="M19.733 189.843c.543 0 .984.428.984.955 0 .527-.44.954-.984.954s-.984-.427-.984-.954c0-.527.44-.955.984-.955Z" fill="#fff" stroke="#5A5A5A" stroke-width=".5"/><path d="m49.25 386.25 221.411.152.087 11.348H49.25v-11.5Zm248.5-199-.152 221.411-11.348.087V187.25h11.5Zm-248.5 217 221.411.152.087 11.348H49.25v-11.5Z" stroke="#5A5A5A" stroke-width=".5" stroke-miterlimit="10"/><path d="m279.75 187.25-.152 221.411-11.348.087V187.25h11.5Z" stroke="#5A5A5A" stroke-width=".5" stroke-miterlimit="10"/><path d="M45.42 113v-1.54l3.346-2.366c.728-.523 1.25-1.008 1.568-1.456.317-.448.476-.924.476-1.428 0-.532-.163-.957-.49-1.274-.327-.317-.77-.476-1.33-.476-.69 0-1.209.28-1.554.84-.15.243-.261.523-.336.84h-1.68a4.332 4.332 0 0 1 .546-1.61c.663-1.073 1.67-1.61 3.024-1.61 1.036 0 1.876.308 2.52.924.653.607.98 1.372.98 2.296a3.95 3.95 0 0 1-.616 2.17c-.41.635-1.069 1.265-1.974 1.89l-1.4.98-.63.28v.07l.84-.07h3.78V113h-7.07Zm8.193-.77c0-.28.088-.513.266-.7a.932.932 0 0 1 .686-.28c.308 0 .55.112.728.336.186.224.28.555.28.994 0 .719-.173 1.269-.518 1.652-.336.392-.794.588-1.372.588v-.7c.28 0 .5-.079.658-.238a.765.765 0 0 0 .252-.602v-.084c-.01-.009-.014-.028-.014-.056v-.042l-.084.028a.741.741 0 0 1-.182.014c-.187 0-.35-.084-.49-.252-.14-.168-.21-.387-.21-.658Zm2.936.77v-1.54l3.346-2.366c.728-.523 1.25-1.008 1.568-1.456.317-.448.476-.924.476-1.428 0-.532-.163-.957-.49-1.274-.327-.317-.77-.476-1.33-.476-.69 0-1.209.28-1.554.84-.15.243-.261.523-.336.84h-1.68a4.332 4.332 0 0 1 .546-1.61c.663-1.073 1.67-1.61 3.024-1.61 1.036 0 1.876.308 2.52.924.653.607.98 1.372.98 2.296a3.95 3.95 0 0 1-.616 2.17c-.41.635-1.069 1.265-1.974 1.89l-1.4.98-.63.28v.07l.84-.07h3.78V113h-7.07Zm8.053-2.8h1.68c.065.289.191.546.378.77.42.513 1.017.77 1.792.77.644 0 1.152-.159 1.526-.476.382-.327.574-.728.574-1.204 0-.541-.173-.966-.518-1.274-.336-.317-.817-.476-1.442-.476h-2.38v-1.4l2.94-2.1v-.07h-4.06v-1.54h6.44v1.526l-2.52 1.834-.7.28v.07l.224-.028c.308-.028.49-.042.546-.042.877 0 1.61.303 2.198.91.588.607.882 1.377.882 2.31 0 .896-.346 1.657-1.036 2.282-.691.625-1.582.938-2.674.938-1.447 0-2.516-.513-3.206-1.54a4.408 4.408 0 0 1-.644-1.54ZM39.56 185.27h1.68c.075.289.2.537.378.742.41.485 1.008.728 1.792.728.625 0 1.12-.168 1.484-.504.364-.336.546-.775.546-1.316 0-.569-.182-1.027-.546-1.372-.364-.345-.859-.518-1.484-.518-.579 0-1.069.154-1.47.462a1.928 1.928 0 0 0-.42.448h-1.54l.42-5.74h5.95v1.54h-4.62l-.21 2.52h.07a2.13 2.13 0 0 1 .518-.378c.439-.261.966-.392 1.582-.392.98 0 1.797.327 2.45.98.653.653.98 1.47.98 2.45 0 .961-.345 1.764-1.036 2.408-.681.635-1.573.952-2.674.952-1.437 0-2.506-.499-3.206-1.498a4.417 4.417 0 0 1-.644-1.512Zm8.613 1.96c0-.28.089-.513.266-.7a.931.931 0 0 1 .686-.28c.308 0 .55.112.728.336.187.224.28.555.28.994 0 .719-.172 1.269-.518 1.652-.336.392-.793.588-1.372.588v-.7c.28 0 .5-.079.658-.238a.765.765 0 0 0 .252-.602v-.084c-.01-.009-.014-.028-.014-.056v-.042l-.084.028a.742.742 0 0 1-.182.014c-.186 0-.35-.084-.49-.252-.14-.168-.21-.387-.21-.658Zm4.477-.406c-.887-.971-1.33-2.212-1.33-3.724s.443-2.753 1.33-3.724c.886-.971 1.96-1.456 3.22-1.456 1.26 0 2.333.485 3.22 1.456.886.971 1.33 2.212 1.33 3.724s-.444 2.753-1.33 3.724c-.887.971-1.96 1.456-3.22 1.456-1.26 0-2.334-.485-3.22-1.456Zm1.148-6.412c-.532.635-.799 1.531-.799 2.688 0 1.157.267 2.053.798 2.688.542.635 1.233.952 2.073.952.84 0 1.526-.317 2.058-.952.54-.635.812-1.531.812-2.688 0-1.157-.271-2.053-.813-2.688-.532-.635-1.218-.952-2.057-.952-.84 0-1.531.317-2.072.952Zm7.815 4.928c0-.849.326-1.526.98-2.03a3.15 3.15 0 0 1 .98-.448v-.084a2.564 2.564 0 0 1-.77-.462c-.514-.439-.77-1.017-.77-1.736 0-.737.312-1.363.938-1.876.634-.523 1.488-.784 2.562-.784 1.073 0 1.922.261 2.548.784.634.513.952 1.139.952 1.876 0 .7-.257 1.279-.77 1.736-.243.196-.5.35-.77.462v.084c.354.093.681.247.98.462.653.504.98 1.176.98 2.016 0 .812-.355 1.507-1.064 2.086-.7.569-1.652.854-2.856.854s-2.16-.285-2.87-.854c-.7-.579-1.05-1.274-1.05-2.086Zm2.1-4.62c0 .411.158.747.476 1.008.317.261.765.392 1.344.392.578 0 1.026-.131 1.344-.392.317-.261.476-.597.476-1.008 0-.373-.164-.686-.49-.938-.318-.261-.76-.392-1.33-.392-.57 0-1.018.131-1.344.392-.318.252-.476.565-.476.938Zm.168 3.346c-.392.308-.588.686-.588 1.134 0 .448.196.831.588 1.148.401.308.952.462 1.652.462s1.246-.154 1.638-.462c.401-.317.602-.7.602-1.148 0-.448-.2-.826-.602-1.134-.392-.317-.938-.476-1.638-.476s-1.25.159-1.652.476ZM200.35 124.42v-1.82l1.82-1.4h1.47v9.8h-1.61v-7.84l-1.68 1.26Zm4.411-1.68v-1.54h6.65v1.54l-3.92 8.26h-1.75l3.85-8.12v-.14h-4.83Zm6.094 7.49c0-.28.089-.513.266-.7a.932.932 0 0 1 .686-.28c.308 0 .551.112.728.336.187.224.28.555.28.994 0 .719-.173 1.269-.518 1.652-.336.392-.793.588-1.372.588v-.7c.28 0 .499-.079.658-.238a.765.765 0 0 0 .252-.602v-.084c-.009-.009-.014-.028-.014-.056v-.042l-.084.028a.743.743 0 0 1-.182.014c-.187 0-.35-.084-.49-.252-.14-.168-.21-.387-.21-.658Zm2.656-7.49v-1.54h6.65v1.54l-3.92 8.26h-1.75l3.85-8.12v-.14h-4.83Zm7.278 1.68v-1.82l1.82-1.4h1.47v9.8h-1.61v-7.84l-1.68 1.26Zm89.631-12.22h1.68c.065.289.191.546.378.77.42.513 1.017.77 1.792.77.644 0 1.153-.159 1.526-.476.383-.327.574-.728.574-1.204 0-.541-.173-.966-.518-1.274-.336-.317-.817-.476-1.442-.476h-2.38v-1.4l2.94-2.1v-.07h-4.06v-1.54h6.44v1.526l-2.52 1.834-.7.28v.07l.224-.028c.308-.028.49-.042.546-.042.877 0 1.61.303 2.198.91.588.607.882 1.377.882 2.31 0 .896-.345 1.657-1.036 2.282-.691.625-1.582.938-2.674.938-1.447 0-2.515-.513-3.206-1.54a4.406 4.406 0 0 1-.644-1.54Zm8.617 2.03c0-.28.088-.513.266-.7a.93.93 0 0 1 .686-.28c.308 0 .55.112.728.336.186.224.28.555.28.994 0 .719-.173 1.269-.518 1.652-.336.392-.794.588-1.372.588v-.7c.28 0 .499-.079.658-.238a.765.765 0 0 0 .252-.602v-.084c-.01-.009-.014-.028-.014-.056v-.042l-.084.028a.743.743 0 0 1-.182.014c-.187 0-.35-.084-.49-.252-.14-.168-.21-.387-.21-.658Zm3.006-2.45c0-.448.098-.915.294-1.4.205-.495.401-.882.588-1.162.196-.289.462-.649.798-1.078l2.24-2.94h1.89l-2.114 2.758-.616.532v.07l.28-.098c.28-.075.583-.112.91-.112.914 0 1.689.331 2.324.994.644.653.966 1.465.966 2.436 0 .989-.355 1.82-1.064 2.492-.71.672-1.615 1.008-2.716 1.008-1.102 0-2.007-.336-2.716-1.008-.71-.672-1.064-1.503-1.064-2.492Zm2.254-1.456c-.383.373-.574.859-.574 1.456s.191 1.087.574 1.47c.382.373.891.56 1.526.56.634 0 1.143-.187 1.526-.56.382-.383.574-.873.574-1.47s-.192-1.083-.574-1.456c-.383-.383-.892-.574-1.526-.574-.635 0-1.144.191-1.526.574Zm6.359 1.456c0-.448.098-.915.294-1.4.205-.495.401-.882.588-1.162.196-.289.462-.649.798-1.078l2.24-2.94h1.89l-2.114 2.758-.616.532v.07l.28-.098c.28-.075.583-.112.91-.112.915 0 1.689.331 2.324.994.644.653.966 1.465.966 2.436 0 .989-.355 1.82-1.064 2.492-.709.672-1.615 1.008-2.716 1.008-1.101 0-2.007-.336-2.716-1.008-.709-.672-1.064-1.503-1.064-2.492Zm2.254-1.456c-.383.373-.574.859-.574 1.456s.191 1.087.574 1.47c.383.373.891.56 1.526.56s1.143-.187 1.526-.56c.383-.383.574-.873.574-1.47s-.191-1.083-.574-1.456c-.383-.383-.891-.574-1.526-.574s-1.143.191-1.526.574ZM67.42 349.2h1.68c.065.289.191.546.378.77.42.513 1.017.77 1.792.77.644 0 1.153-.159 1.526-.476.383-.327.574-.728.574-1.204 0-.541-.173-.966-.518-1.274-.336-.317-.817-.476-1.442-.476h-2.38v-1.4l2.94-2.1v-.07h-4.06v-1.54h6.44v1.526l-2.52 1.834-.7.28v.07l.224-.028c.308-.028.49-.042.546-.042.877 0 1.61.303 2.198.91.588.607.882 1.377.882 2.31 0 .896-.345 1.657-1.036 2.282-.69.625-1.582.938-2.674.938-1.447 0-2.515-.513-3.206-1.54a4.406 4.406 0 0 1-.644-1.54Zm8.407-3.78v-1.82l1.82-1.4h1.47v9.8h-1.61v-7.84l-1.68 1.26Zm4.83 5.81c0-.28.09-.513.267-.7a.931.931 0 0 1 .686-.28c.308 0 .55.112.728.336.186.224.28.555.28.994 0 .719-.173 1.269-.518 1.652-.336.392-.794.588-1.372.588v-.7c.28 0 .499-.079.658-.238a.765.765 0 0 0 .252-.602v-.084c-.01-.009-.014-.028-.014-.056v-.042l-.084.028a.742.742 0 0 1-.182.014c-.187 0-.35-.084-.49-.252-.14-.168-.21-.387-.21-.658Zm2.867-5.81v-1.82l1.82-1.4h1.47v9.8h-1.61v-7.84l-1.68 1.26Zm4.69 3.78h1.68c.066.289.192.546.379.77.42.513 1.017.77 1.792.77.644 0 1.153-.159 1.526-.476.383-.327.574-.728.574-1.204 0-.541-.173-.966-.518-1.274-.336-.317-.817-.476-1.442-.476h-2.38v-1.4l2.94-2.1v-.07h-4.06v-1.54h6.44v1.526l-2.52 1.834-.7.28v.07l.224-.028c.308-.028.49-.042.546-.042.877 0 1.61.303 2.198.91.588.607.882 1.377.882 2.31 0 .896-.345 1.657-1.036 2.282-.69.625-1.582.938-2.674.938-1.447 0-2.515-.513-3.206-1.54a4.408 4.408 0 0 1-.644-1.54ZM66.35 40.42V38.6l1.82-1.4h1.47V47h-1.61v-7.84l-1.68 1.26Zm6.231 5.404c-.887-.97-1.33-2.212-1.33-3.724s.443-2.753 1.33-3.724c.887-.97 1.96-1.456 3.22-1.456 1.26 0 2.333.485 3.22 1.456.887.97 1.33 2.212 1.33 3.724s-.443 2.753-1.33 3.724c-.887.97-1.96 1.456-3.22 1.456-1.26 0-2.333-.485-3.22-1.456Zm1.148-6.412c-.532.635-.798 1.53-.798 2.688 0 1.157.266 2.053.798 2.688.541.635 1.232.952 2.072.952.84 0 1.526-.317 2.058-.952.541-.635.812-1.53.812-2.688 0-1.157-.27-2.053-.812-2.688-.532-.635-1.218-.952-2.058-.952-.84 0-1.53.317-2.072.952Zm7.815 6.818c0-.28.089-.513.266-.7a.933.933 0 0 1 .686-.28c.308 0 .551.112.728.336.187.224.28.555.28.994 0 .719-.172 1.27-.518 1.652-.336.392-.793.588-1.372.588v-.7c.28 0 .5-.08.658-.238a.765.765 0 0 0 .252-.602v-.084c-.009-.01-.014-.028-.014-.056v-.042l-.084.028a.726.726 0 0 1-.182.014c-.186 0-.35-.084-.49-.252-.14-.168-.21-.387-.21-.658Zm2.867-5.81V38.6l1.82-1.4h1.47V47h-1.61v-7.84l-1.68 1.26Zm6.23 5.404c-.886-.97-1.33-2.212-1.33-3.724s.444-2.753 1.33-3.724c.887-.97 1.96-1.456 3.22-1.456 1.26 0 2.334.485 3.22 1.456.887.97 1.33 2.212 1.33 3.724s-.443 2.753-1.33 3.724c-.886.97-1.96 1.456-3.22 1.456-1.26 0-2.333-.485-3.22-1.456Zm1.149-6.412c-.532.635-.798 1.53-.798 2.688 0 1.157.266 2.053.798 2.688.541.635 1.232.952 2.072.952.84 0 1.526-.317 2.058-.952.541-.635.812-1.53.812-2.688 0-1.157-.271-2.053-.812-2.688-.532-.635-1.218-.952-2.058-.952-.84 0-1.531.317-2.072.952Z" fill="#333"/><circle cx="184.5" cy="300.5" r="39.5" fill="#5A5A5A"/><path d="M158.63 303.86c0-.576.126-1.176.378-1.8.264-.636.516-1.134.756-1.494.252-.372.594-.834 1.026-1.386l2.88-3.78h2.43l-2.718 3.546-.792.684v.09l.36-.126a4.53 4.53 0 0 1 1.17-.144c1.176 0 2.172.426 2.988 1.278.828.84 1.242 1.884 1.242 3.132 0 1.272-.456 2.34-1.368 3.204-.912.864-2.076 1.296-3.492 1.296s-2.58-.432-3.492-1.296c-.912-.864-1.368-1.932-1.368-3.204Zm2.898-1.872c-.492.48-.738 1.104-.738 1.872s.246 1.398.738 1.89c.492.48 1.146.72 1.962.72.816 0 1.47-.24 1.962-.72.492-.492.738-1.122.738-1.89 0-.768-.246-1.392-.738-1.872-.492-.492-1.146-.738-1.962-.738-.816 0-1.47.246-1.962.738Zm8.176 1.872c0-.576.126-1.176.378-1.8.264-.636.516-1.134.756-1.494.252-.372.594-.834 1.026-1.386l2.88-3.78h2.43l-2.718 3.546-.792.684v.09l.36-.126a4.53 4.53 0 0 1 1.17-.144c1.176 0 2.172.426 2.988 1.278.828.84 1.242 1.884 1.242 3.132 0 1.272-.456 2.34-1.368 3.204-.912.864-2.076 1.296-3.492 1.296s-2.58-.432-3.492-1.296c-.912-.864-1.368-1.932-1.368-3.204Zm2.898-1.872c-.492.48-.738 1.104-.738 1.872s.246 1.398.738 1.89c.492.48 1.146.72 1.962.72.816 0 1.47-.24 1.962-.72.492-.492.738-1.122.738-1.89 0-.768-.246-1.392-.738-1.872-.492-.492-1.146-.738-1.962-.738-.816 0-1.47.246-1.962.738Zm8.266 5.022c0-.36.114-.66.342-.9a1.2 1.2 0 0 1 .882-.36c.396 0 .708.144.936.432.24.288.36.714.36 1.278 0 .924-.222 1.632-.666 2.124-.432.504-1.02.756-1.764.756v-.9c.36 0 .642-.102.846-.306.216-.192.324-.45.324-.774v-.108c-.012-.012-.018-.036-.018-.072v-.054l-.108.036a.932.932 0 0 1-.234.018c-.24 0-.45-.108-.63-.324-.18-.216-.27-.498-.27-.846Zm3.776.99v-1.98l4.302-3.042c.936-.672 1.608-1.296 2.016-1.872.408-.576.612-1.188.612-1.836 0-.684-.21-1.23-.63-1.638-.42-.408-.99-.612-1.71-.612-.888 0-1.554.36-1.998 1.08a3.633 3.633 0 0 0-.432 1.08h-2.16a5.567 5.567 0 0 1 .702-2.07c.852-1.38 2.148-2.07 3.888-2.07 1.332 0 2.412.396 3.24 1.188.84.78 1.26 1.764 1.26 2.952 0 1.032-.264 1.962-.792 2.79-.528.816-1.374 1.626-2.538 2.43l-1.8 1.26-.81.36v.09l1.08-.09h4.86V308h-9.09Zm10.533-3.51h2.16c.096.372.258.69.486.954.528.624 1.296.936 2.304.936.804 0 1.44-.216 1.908-.648.468-.432.702-.996.702-1.692 0-.732-.234-1.32-.702-1.764-.468-.444-1.104-.666-1.908-.666-.744 0-1.374.198-1.89.594a2.481 2.481 0 0 0-.54.576h-1.98l.54-7.38h7.65v1.98h-5.94l-.27 3.24h.09c.192-.192.414-.354.666-.486.564-.336 1.242-.504 2.034-.504 1.26 0 2.31.42 3.15 1.26.84.84 1.26 1.89 1.26 3.15 0 1.236-.444 2.268-1.332 3.096-.876.816-2.022 1.224-3.438 1.224-1.848 0-3.222-.642-4.122-1.926a5.672 5.672 0 0 1-.828-1.944Z" fill="#fff"/><path fill="#5A5A5A" d="M141 80v-2h10.746v2zm49.823 0v-2h10.746v2zm-16.608 0v-2h10.746v2zm-16.607 0v-2h10.746v2zm49.823 0v-2h10.746v2zm16.607 0v-2h10.746v2zm16.608 0v-2h10.746v2zm16.608 0v-2H268v2z"/><path stroke="#5A5A5A" d="m130.433 38.249-19 33m-29.859 59.489 16-26m-16.012 91.02 16-29m-16.81 77.808 35-20m18.671-21.833 24 38M32.586 74.28l-21-31"/></svg>