<svg width="505" height="385" fill="none" xmlns="http://www.w3.org/2000/svg"><path fill="#FFF8BA" d="M442.572 118.565V38.3H16.722v80.265z"/><path fill="#FFC79F" d="M442.572 118.565V21.578h-78.035v96.987z"/><path fill="#FFF8BA" d="M491.623 296.932V111.877H16.722v185.055z"/><path d="M487.958 165.386h-25.32v24.642h25.32v-24.642Z" fill="#fff" stroke="#5A5A5A" stroke-width=".5"/><path d="M464.691 166.325h19.706c.748 0 1.145.398 1.145 1.177v20.41c0 .796-.382 1.177-1.145 1.177h-19.706c-.764.016-1.145-.381-1.145-1.161v-20.41c-.016-.795.381-1.193 1.145-1.193Z" fill="#fff" stroke="#5A5A5A" stroke-width=".5"/><path d="M466.503 172.911c.016 1.814 1.448 3.293 3.213 3.293 1.782 0 3.213-1.479 3.213-3.293 0-1.829-1.431-3.293-3.213-3.293-1.781 0-3.213 1.464-3.213 3.293Zm.031 9.751c.016 1.814 1.447 3.293 3.213 3.293 1.781 0 3.212-1.479 3.212-3.293 0-1.829-1.431-3.293-3.212-3.293-1.782-.016-3.229 1.464-3.213 3.293Zm9.131 0c0 1.829 1.431 3.293 3.213 3.293 1.781 0 3.212-1.479 3.212-3.293-.015-1.813-1.447-3.293-3.212-3.293-1.766 0-3.213 1.48-3.213 3.293Zm0-9.751c0 1.829 1.431 3.293 3.213 3.293 1.781 0 3.212-1.479 3.212-3.293-.015-1.813-1.447-3.293-3.212-3.293-1.766 0-3.213 1.48-3.213 3.293Z" stroke="#5A5A5A" stroke-width=".5"/><path d="M468.809 119.696v24.401h-24.008V119.68l24.008.016Z" fill="#fff" stroke="#5A5A5A" stroke-width=".5"/><path d="M466.982 126.388v13.49c0 .752-.368 1.12-1.136 1.12H448.01c-.737 0-1.121-.368-1.136-1.105l.015-13.505c-.015-.737.369-1.105 1.121-1.105h17.836c.753-.031 1.136.353 1.136 1.105Z" fill="#fff" stroke="#5A5A5A" stroke-width=".5"/><path d="M456.928 121.568c-.936.016-1.689.722-1.689 1.612l.661 7.075.015.015c0 .537.445.967 1.013.967.568 0 1.013-.43 1.028-.982l.66-7.075c0-.875-.752-1.596-1.688-1.612Z" stroke="#5A5A5A" stroke-width=".5"/><mask id="a" fill="#fff"><path fill-rule="evenodd" clip-rule="evenodd" d="m455.531 122.259.368 3.852a1 1 0 0 0 1.044.967.992.992 0 0 0 1.013-.967l.369-3.852"/></mask><path fill-rule="evenodd" clip-rule="evenodd" d="m455.531 122.259.368 3.852a1 1 0 0 0 1.044.967.992.992 0 0 0 1.013-.967l.369-3.852" fill="#fff"/><path d="m455.899 126.111.5-.014v-.017l-.002-.016-.498.047Zm1.044.967v-.5h-.013l.013.5Zm1.013-.967-.497-.047-.002.016v.017l.499.014Zm-2.923-3.804.369 3.852.995-.095-.368-3.852-.996.095Zm.367 3.819a1.5 1.5 0 0 0 1.556 1.452l-.026-1a.5.5 0 0 1-.531-.481l-.999.029Zm1.543 1.452c.837 0 1.49-.643 1.513-1.452l-.999-.029a.494.494 0 0 1-.514.481v1Zm1.511-1.419.368-3.852-.995-.095-.368 3.852.995.095Z" fill="#5A5A5A" mask="url(#a)"/><circle cx="253.928" cy="194.126" r="39.888" fill="#5A5A5A"/><path d="M223.138 191.446v-1.98h8.55v1.98l-5.04 10.62h-2.25l4.95-10.44v-.18h-6.21Zm9.448 10.62v-1.98l4.302-3.042c.936-.672 1.608-1.296 2.016-1.872.408-.576.612-1.188.612-1.836 0-.684-.21-1.23-.63-1.638-.42-.408-.99-.612-1.71-.612-.888 0-1.554.36-1.998 1.08a3.633 3.633 0 0 0-.432 1.08h-2.16a5.567 5.567 0 0 1 .702-2.07c.852-1.38 2.148-2.07 3.888-2.07 1.332 0 2.412.396 3.24 1.188.84.78 1.26 1.764 1.26 2.952 0 1.032-.264 1.962-.792 2.79-.528.816-1.374 1.626-2.538 2.43l-1.8 1.26-.81.36v.09l1.08-.09h4.86v1.98h-9.09Zm10.533-.99c0-.36.114-.66.342-.9a1.2 1.2 0 0 1 .882-.36c.396 0 .708.144.936.432.24.288.36.714.36 1.278 0 .924-.222 1.632-.666 2.124-.432.504-1.02.756-1.764.756v-.9c.36 0 .642-.102.846-.306.216-.192.324-.45.324-.774v-.108c-.012-.012-.018-.036-.018-.072v-.054l-.108.036a.932.932 0 0 1-.234.018c-.24 0-.45-.108-.63-.324-.18-.216-.27-.498-.27-.846Zm3.955-2.52h2.16c.096.372.258.69.486.954.528.624 1.296.936 2.304.936.804 0 1.44-.216 1.908-.648.468-.432.702-.996.702-1.692 0-.732-.234-1.32-.702-1.764-.468-.444-1.104-.666-1.908-.666-.744 0-1.374.198-1.89.594a2.481 2.481 0 0 0-.54.576h-1.98l.54-7.38h7.65v1.98h-5.94l-.27 3.24h.09c.192-.192.414-.354.666-.486.564-.336 1.242-.504 2.034-.504 1.26 0 2.31.42 3.15 1.26.84.84 1.26 1.89 1.26 3.15 0 1.236-.444 2.268-1.332 3.096-.876.816-2.022 1.224-3.438 1.224-1.848 0-3.222-.642-4.122-1.926a5.672 5.672 0 0 1-.828-1.944Zm10.985-.63c0-.576.126-1.176.378-1.8.264-.636.516-1.134.756-1.494.252-.372.594-.834 1.026-1.386l2.88-3.78h2.43l-2.718 3.546-.792.684v.09l.36-.126a4.53 4.53 0 0 1 1.17-.144c1.176 0 2.172.426 2.988 1.278.828.84 1.242 1.884 1.242 3.132 0 1.272-.456 2.34-1.368 3.204-.912.864-2.076 1.296-3.492 1.296s-2.58-.432-3.492-1.296c-.912-.864-1.368-1.932-1.368-3.204Zm2.898-1.872c-.492.48-.738 1.104-.738 1.872s.246 1.398.738 1.89c.492.48 1.146.72 1.962.72.816 0 1.47-.24 1.962-.72.492-.492.738-1.122.738-1.89 0-.768-.246-1.392-.738-1.872-.492-.492-1.146-.738-1.962-.738-.816 0-1.47.246-1.962.738Z" fill="#fff"/><path d="M287.826 261.15v-1.54l3.29-6.3h1.75l-3.29 6.3h3.22v-2.38h1.61v2.38h1.4v1.54h-1.4v1.96h-1.61v-1.96h-4.97Zm8.613 0v-1.54l3.29-6.3h1.75l-3.29 6.3h3.22v-2.38h1.61v2.38h1.4v1.54h-1.4v1.96h-1.61v-1.96h-4.97Zm8.54 1.19c0-.28.088-.513.266-.7a.934.934 0 0 1 .686-.28c.308 0 .55.112.728.336.186.224.28.556.28.994 0 .719-.173 1.27-.518 1.652-.336.392-.794.588-1.372.588v-.7c.28 0 .499-.079.658-.238a.765.765 0 0 0 .252-.602v-.084c-.01-.009-.014-.028-.014-.056v-.042l-.084.028a.694.694 0 0 1-.182.014c-.187 0-.35-.084-.49-.252-.14-.168-.21-.387-.21-.658Zm2.866-5.81v-1.82l1.82-1.4h1.47v9.8h-1.61v-7.84l-1.68 1.26Zm4.691 6.58v-1.54l3.346-2.366c.728-.522 1.251-1.008 1.568-1.456.317-.448.476-.924.476-1.428 0-.532-.163-.956-.49-1.274-.327-.317-.77-.476-1.33-.476-.691 0-1.209.28-1.554.84a2.851 2.851 0 0 0-.336.84h-1.68a4.332 4.332 0 0 1 .546-1.61c.663-1.073 1.671-1.61 3.024-1.61 1.036 0 1.876.308 2.52.924.653.607.98 1.372.98 2.296 0 .803-.205 1.526-.616 2.17-.411.635-1.069 1.265-1.974 1.89l-1.4.98-.63.28v.07l.84-.07h3.78v1.54h-7.07ZM100.21 355.04v-1.54l3.29-6.3h1.75l-3.29 6.3h3.22v-2.38h1.61v2.38h1.4v1.54h-1.4V357h-1.61v-1.96h-4.97Zm8.539 1.19c0-.28.089-.513.266-.7a.933.933 0 0 1 .686-.28c.308 0 .551.112.728.336.187.224.28.555.28.994 0 .719-.172 1.269-.518 1.652-.336.392-.793.588-1.372.588v-.7c.28 0 .5-.079.658-.238a.765.765 0 0 0 .252-.602v-.084c-.009-.009-.014-.028-.014-.056v-.042l-.084.028a.738.738 0 0 1-.182.014c-.186 0-.35-.084-.49-.252-.14-.168-.21-.387-.21-.658Zm2.657-7.49v-1.54h6.65v1.54l-3.92 8.26h-1.75l3.85-8.12v-.14h-4.83Zm7.145 5.04c0-.448.098-.915.294-1.4.205-.495.401-.882.588-1.162.196-.289.462-.649.798-1.078l2.24-2.94h1.89l-2.114 2.758-.616.532v.07l.28-.098c.28-.075.583-.112.91-.112.914 0 1.689.331 2.324.994.644.653.966 1.465.966 2.436 0 .989-.355 1.82-1.064 2.492-.71.672-1.615 1.008-2.716 1.008-1.102 0-2.007-.336-2.716-1.008-.71-.672-1.064-1.503-1.064-2.492Zm2.254-1.456c-.383.373-.574.859-.574 1.456s.191 1.087.574 1.47c.382.373.891.56 1.526.56.634 0 1.143-.187 1.526-.56.382-.383.574-.873.574-1.47s-.192-1.083-.574-1.456c-.383-.383-.892-.574-1.526-.574-.635 0-1.144.191-1.526.574Zm249.405 2.716v-1.54l3.29-6.3h1.75l-3.29 6.3h3.22v-2.38h1.61v2.38h1.4v1.54h-1.4V357h-1.61v-1.96h-4.97Zm8.539 1.19c0-.28.089-.513.266-.7a.933.933 0 0 1 .686-.28c.308 0 .551.112.728.336.187.224.28.555.28.994 0 .719-.172 1.269-.518 1.652-.336.392-.793.588-1.372.588v-.7c.28 0 .5-.079.658-.238a.765.765 0 0 0 .252-.602v-.084c-.009-.009-.014-.028-.014-.056v-.042l-.084.028a.738.738 0 0 1-.182.014c-.186 0-.35-.084-.49-.252-.14-.168-.21-.387-.21-.658Zm2.657-7.49v-1.54h6.65v1.54l-3.92 8.26h-1.75l3.85-8.12v-.14h-4.83Zm7.145 5.04c0-.448.098-.915.294-1.4.205-.495.401-.882.588-1.162.196-.289.462-.649.798-1.078l2.24-2.94h1.89l-2.114 2.758-.616.532v.07l.28-.098c.28-.075.583-.112.91-.112.914 0 1.689.331 2.324.994.644.653.966 1.465.966 2.436 0 .989-.355 1.82-1.064 2.492-.71.672-1.615 1.008-2.716 1.008-1.102 0-2.007-.336-2.716-1.008-.71-.672-1.064-1.503-1.064-2.492Zm2.254-1.456c-.383.373-.574.859-.574 1.456s.191 1.087.574 1.47c.382.373.891.56 1.526.56.634 0 1.143-.187 1.526-.56.382-.383.574-.873.574-1.47s-.192-1.083-.574-1.456c-.383-.383-.892-.574-1.526-.574-.635 0-1.144.191-1.526.574Zm41.179-97.447c0-.85.326-1.526.98-2.03.28-.196.606-.346.98-.448v-.084a2.556 2.556 0 0 1-.77-.462c-.514-.439-.77-1.018-.77-1.736 0-.738.312-1.363.938-1.876.634-.523 1.488-.784 2.562-.784 1.073 0 1.922.261 2.548.784.634.513.952 1.138.952 1.876 0 .7-.257 1.278-.77 1.736-.243.196-.5.35-.77.462v.084c.354.093.681.247.98.462.653.504.98 1.176.98 2.016 0 .812-.355 1.507-1.064 2.086-.7.569-1.652.854-2.856.854s-2.161-.285-2.87-.854c-.7-.579-1.05-1.274-1.05-2.086Zm2.1-4.62c0 .41.158.746.476 1.008.317.261.765.392 1.344.392.578 0 1.026-.131 1.344-.392a1.25 1.25 0 0 0 .476-1.008c0-.374-.164-.686-.49-.938-.318-.262-.761-.392-1.33-.392-.57 0-1.018.13-1.344.392-.318.252-.476.564-.476.938Zm.168 3.346c-.392.308-.588.686-.588 1.134 0 .448.196.83.588 1.148.401.308.952.462 1.652.462s1.246-.154 1.638-.462c.401-.318.602-.7.602-1.148 0-.448-.201-.826-.602-1.134-.392-.318-.938-.476-1.638-.476s-1.251.158-1.652.476Zm6.687 3.164c0-.28.089-.514.266-.7a.932.932 0 0 1 .686-.28c.308 0 .551.112.728.336.187.224.28.555.28.994 0 .718-.173 1.269-.518 1.652-.336.392-.793.588-1.372.588v-.7c.28 0 .499-.08.658-.238a.766.766 0 0 0 .252-.602v-.084c-.009-.01-.014-.028-.014-.056v-.042l-.084.028a.743.743 0 0 1-.182.014c-.187 0-.35-.084-.49-.252-.14-.168-.21-.388-.21-.658Zm3.076-5.81c0-.99.355-1.82 1.064-2.492.709-.672 1.615-1.008 2.716-1.008 1.101 0 2.007.336 2.716 1.008.709.672 1.064 1.502 1.064 2.492 0 .886-.369 1.843-1.106 2.87l-.308.42c-.131.168-.219.284-.266.35l-2.24 2.94h-1.89l2.114-2.758.616-.532v-.07c-.019.009-.112.046-.28.112a3.583 3.583 0 0 1-.91.098 3.163 3.163 0 0 1-2.338-.98c-.635-.663-.952-1.48-.952-2.45Zm2.254-1.456c-.383.373-.574.858-.574 1.456 0 .597.191 1.087.574 1.47.383.373.891.56 1.526.56s1.143-.187 1.526-.56c.383-.383.574-.873.574-1.47 0-.598-.191-1.083-.574-1.456-.383-.383-.891-.574-1.526-.574s-1.143.191-1.526.574Zm6.359 5.306h1.68c.075.289.201.536.378.742.411.485 1.008.728 1.792.728.626 0 1.12-.168 1.484-.504.364-.336.546-.775.546-1.316 0-.57-.182-1.027-.546-1.372-.364-.346-.858-.518-1.484-.518-.578 0-1.068.154-1.47.462-.158.121-.298.27-.42.448h-1.54l.42-5.74h5.95v1.54h-4.62l-.21 2.52h.07c.15-.15.322-.276.518-.378.439-.262.966-.392 1.582-.392.98 0 1.797.326 2.45.98.654.653.98 1.47.98 2.45 0 .961-.345 1.764-1.036 2.408-.681.634-1.572.952-2.674.952-1.437 0-2.506-.5-3.206-1.498a4.436 4.436 0 0 1-.644-1.512ZM372.76 76.37h1.68c.065.29.191.546.378.77.42.513 1.017.77 1.792.77.644 0 1.153-.159 1.526-.476.383-.327.574-.728.574-1.204 0-.541-.173-.966-.518-1.274-.336-.317-.817-.476-1.442-.476h-2.38v-1.4l2.94-2.1v-.07h-4.06v-1.54h6.44v1.526l-2.52 1.834-.7.28v.07l.224-.028c.308-.028.49-.042.546-.042.877 0 1.61.303 2.198.91.588.607.882 1.377.882 2.31 0 .896-.345 1.657-1.036 2.282-.691.625-1.582.938-2.674.938-1.447 0-2.515-.513-3.206-1.54a4.403 4.403 0 0 1-.644-1.54Zm8.617 2.03c0-.28.088-.513.266-.7a.932.932 0 0 1 .686-.28c.308 0 .55.112.728.336.186.224.28.555.28.994 0 .719-.173 1.27-.518 1.652-.336.392-.794.588-1.372.588v-.7c.28 0 .499-.08.658-.238a.765.765 0 0 0 .252-.602v-.084c-.01-.01-.014-.028-.014-.056v-.042l-.084.028a.723.723 0 0 1-.182.014c-.187 0-.35-.084-.49-.252-.14-.168-.21-.387-.21-.658Zm2.936.77v-1.54l3.346-2.366c.728-.523 1.25-1.008 1.568-1.456.317-.448.476-.924.476-1.428 0-.532-.164-.957-.49-1.274-.327-.317-.77-.476-1.33-.476-.691 0-1.209.28-1.554.84-.15.243-.262.523-.336.84h-1.68a4.33 4.33 0 0 1 .546-1.61c.662-1.073 1.67-1.61 3.024-1.61 1.036 0 1.876.308 2.52.924.653.607.98 1.372.98 2.296 0 .803-.206 1.526-.616 2.17-.411.635-1.069 1.265-1.974 1.89l-1.4.98-.63.28v.07l.84-.07h3.78v1.54h-7.07Zm7.842-1.96v-1.54l3.29-6.3h1.75l-3.29 6.3h3.22v-2.38h1.61v2.38h1.4v1.54h-1.4v1.96h-1.61v-1.96h-4.97Zm-175.536-4.62v-1.82l1.82-1.4h1.47v9.8h-1.61v-7.84l-1.68 1.26Zm4.621 0v-1.82l1.82-1.4h1.47v9.8h-1.61v-7.84l-1.68 1.26Zm4.831 5.81c0-.28.089-.513.266-.7a.935.935 0 0 1 .686-.28c.308 0 .551.112.728.336.187.224.28.555.28.994 0 .719-.172 1.27-.518 1.652-.336.392-.793.588-1.372.588v-.7c.28 0 .5-.08.658-.238a.765.765 0 0 0 .252-.602v-.084c-.009-.01-.014-.028-.014-.056v-.042l-.084.028a.718.718 0 0 1-.182.014c-.186 0-.35-.084-.49-.252-.14-.168-.21-.387-.21-.658Zm4.477-.406c-.887-.97-1.33-2.212-1.33-3.724s.443-2.753 1.33-3.724c.886-.97 1.96-1.456 3.22-1.456 1.26 0 2.333.485 3.22 1.456.886.97 1.33 2.212 1.33 3.724s-.444 2.753-1.33 3.724c-.887.97-1.96 1.456-3.22 1.456-1.26 0-2.334-.485-3.22-1.456Zm1.148-6.412c-.532.635-.798 1.53-.798 2.688 0 1.157.266 2.053.798 2.688.541.635 1.232.952 2.072.952.84 0 1.526-.317 2.058-.952.541-.635.812-1.53.812-2.688 0-1.157-.271-2.053-.812-2.688-.532-.635-1.218-.952-2.058-.952-.84 0-1.531.317-2.072.952Zm7.465 5.628v-1.54l3.29-6.3h1.75l-3.29 6.3h3.22v-2.38h1.61v2.38h1.4v1.54h-1.4v1.96h-1.61v-1.96h-4.97Z" fill="#333"/><path fill="#FFC79F" d="M114.823 123.024V36.07H16.721v86.954z"/><path fill="#5A5A5A" d="M57.97 327.031v-30.099H15.606v30.099z"/><path d="M65.218 77.555h1.68c.075.289.2.536.378.742.41.485 1.008.728 1.792.728.625 0 1.12-.168 1.484-.504.364-.336.546-.775.546-1.316 0-.57-.182-1.027-.546-1.372-.364-.346-.859-.518-1.484-.518-.579 0-1.069.154-1.47.462a1.93 1.93 0 0 0-.42.448h-1.54l.42-5.74h5.95v1.54h-4.62l-.21 2.52h.07c.15-.15.322-.276.518-.378.438-.262.966-.392 1.582-.392.98 0 1.796.326 2.45.98.653.653.98 1.47.98 2.45 0 .961-.346 1.764-1.036 2.408-.681.634-1.573.952-2.674.952-1.438 0-2.506-.5-3.206-1.498a4.414 4.414 0 0 1-.644-1.512Zm8.613 1.96c0-.28.089-.514.266-.7a.933.933 0 0 1 .686-.28c.308 0 .55.112.728.336.187.224.28.555.28.994 0 .718-.172 1.269-.518 1.652-.336.392-.793.588-1.372.588v-.7c.28 0 .5-.08.658-.238a.765.765 0 0 0 .252-.602v-.084c-.01-.01-.014-.028-.014-.056v-.042l-.084.028a.726.726 0 0 1-.182.014c-.187 0-.35-.084-.49-.252-.14-.168-.21-.388-.21-.658Zm2.936.77v-1.54l3.346-2.366c.728-.523 1.251-1.008 1.568-1.456.318-.448.476-.924.476-1.428 0-.532-.163-.957-.49-1.274-.326-.318-.77-.476-1.33-.476-.69 0-1.208.28-1.554.84a2.83 2.83 0 0 0-.336.84h-1.68a4.33 4.33 0 0 1 .546-1.61c.663-1.074 1.671-1.61 3.024-1.61 1.036 0 1.876.308 2.52.924.654.606.98 1.372.98 2.296a3.95 3.95 0 0 1-.616 2.17c-.41.634-1.068 1.264-1.974 1.89l-1.4.98-.63.28v.07l.84-.07h3.78v1.54h-7.07Zm7.983-6.58v-1.82l1.82-1.4h1.47v9.8h-1.61v-7.84l-1.68 1.26Z" fill="#333"/><path fill="#5A5A5A" d="M16.722 24.923H0V327.03h16.722z"/><path fill="#5A5A5A" d="M14.492 123.024v7.804h105.905v-7.804zm100.711-11.14.005 7.804 63.161-.043-.005-7.804zm178.366 0 .005 7.804 198.784-.137-.005-7.804zM122.627 33.841h-7.804v40.133h7.804zm241.909-10.033h-7.804v31.214h7.804z"/><path fill="#5A5A5A" d="M122.627 101.843h-7.804v28.985h7.804z"/><path stroke="#5A5A5A" d="m134.228 75.299-14.492 31.214m239.68-54.625-14.492 31.214M293.464.815l-35.673 23.411"/><path fill="#5A5A5A" d="M364.536 86.236h-7.804v28.985h7.804zM258.631 38.3V21.578H0V38.3z"/><path d="m99.341 56.854-.016-1.195.016-3.106v-7.69H89.254v11.991c0 3.056 2.273 5.548 5.06 5.548 2.754 0 5.027-2.492 5.027-5.548Z" fill="#fff" stroke="#5A5A5A" stroke-width=".5"/><path d="M98.18 56.788v-8.604h-7.781v7.657l.017.947c0 2.408 1.725 4.368 3.882 4.368 2.14-.016 3.882-1.976 3.882-4.368Zm-10.75-18.37v5.331c0 .615.497 1.113 1.11 1.113h11.431c.614 0 1.112-.498 1.112-1.113v-5.331c0-.615-.498-1.113-1.111-1.113H88.556c-.63 0-1.128.498-1.128 1.113Z" fill="#fff" stroke="#5A5A5A" stroke-width=".5"/><path d="M93.6 41.076c0 .415.3.73.648.73.365.017.663-.315.663-.73s-.298-.731-.647-.731a.692.692 0 0 0-.663.73Zm-39.466-2.283v12.468c0 .867.693 1.56 1.559 1.56h18.76c.866 0 1.559-.693 1.559-1.56V38.793c0-.867-.693-1.56-1.559-1.56h-18.76c-.852 0-1.559.693-1.559 1.56Z" fill="#fff" stroke="#5A5A5A" stroke-width=".5"/><path d="M56.082 43.546v1.922a4.58 4.58 0 0 0 4.575 4.58h8.832a4.579 4.579 0 0 0 4.574-4.58v-1.922a4.579 4.579 0 0 0-4.574-4.58h-8.832a4.579 4.579 0 0 0-4.575 4.58Z" fill="#fff" stroke="#5A5A5A" stroke-width=".5"/><path d="M64.106 41.408c0 .55.433.997.967.997s.966-.447.966-.997-.432-.997-.966-.997-.967.446-.967.997Zm35.235 15.446-.016-1.195.016-3.106v-7.69H89.254v11.991c0 3.056 2.273 5.548 5.06 5.548 2.754 0 5.027-2.492 5.027-5.548Z" fill="#fff" stroke="#5A5A5A" stroke-width=".5"/><path d="M98.18 56.788v-8.604h-7.781v7.657l.017.947c0 2.408 1.725 4.368 3.882 4.368 2.14-.016 3.882-1.976 3.882-4.368Zm-10.75-18.37v5.331c0 .615.497 1.113 1.11 1.113h11.431c.614 0 1.112-.498 1.112-1.113v-5.331c0-.615-.498-1.113-1.111-1.113H88.556c-.63 0-1.128.498-1.128 1.113Z" fill="#fff" stroke="#5A5A5A" stroke-width=".5"/><path d="M93.6 41.076c0 .415.3.73.648.73.365.017.663-.315.663-.73s-.298-.731-.647-.731a.692.692 0 0 0-.663.73Zm-39.466-2.283v12.468c0 .867.693 1.56 1.559 1.56h18.76c.866 0 1.559-.693 1.559-1.56V38.793c0-.867-.693-1.56-1.559-1.56h-18.76c-.852 0-1.559.693-1.559 1.56Z" fill="#fff" stroke="#5A5A5A" stroke-width=".5"/><path d="M56.082 43.546v1.922a4.58 4.58 0 0 0 4.575 4.58h8.832a4.579 4.579 0 0 0 4.574-4.58v-1.922a4.579 4.579 0 0 0-4.574-4.58h-8.832a4.579 4.579 0 0 0-4.575 4.58Z" fill="#fff" stroke="#5A5A5A" stroke-width=".5"/><path d="M64.106 41.408c0 .55.433.997.967.997s.966-.447.966-.997-.432-.997-.966-.997-.967.446-.967.997Zm-15.056-2.54v72.972c0 .934-.746 1.682-1.68 1.682H18.403c-.934 0-1.68-.748-1.68-1.682V38.868c0-.935.746-1.683 1.68-1.683H47.37c.933 0 1.68.765 1.68 1.683Z" fill="#fff" stroke="#5A5A5A" stroke-width=".5"/><path d="M36.815 109.036H28.94c-4.565 0-8.247-3.704-8.247-8.257v-57.46c0-1.122.899-2.022 2.02-2.022h20.364c1.12 0 2.02.9 2.02 2.022v57.443c-.018 4.57-3.717 8.274-8.282 8.274Z" fill="#fff" stroke="#5A5A5A" stroke-width=".5"/><path d="M33.455 48.11c.91 0 1.646-.768 1.646-1.716 0-.947-.737-1.716-1.646-1.716-.909 0-1.646.769-1.646 1.716 0 .948.737 1.716 1.646 1.716Zm60.187 75.602h21.182l.014-20.775-21.182.013-.014 20.762Z" fill="#fff" stroke="#5A5A5A" stroke-width=".5"/><path d="M104.247 107.996c2.997 0 5.416 2.381 5.416 5.328 0 2.947-2.419 5.329-5.429 5.329-2.998 0-5.444-2.382-5.444-5.329.014-2.947 2.46-5.328 5.457-5.328Z" stroke="#5A5A5A" stroke-width=".5"/><path d="M100.282 113.324a3.73 3.73 0 0 1 1.156-2.745c.726-.7 1.72-1.13 2.795-1.144m3.979 3.876a3.882 3.882 0 0 0-1.156-2.745 4.028 4.028 0 0 0-2.809-1.144l3.965 3.889Zm-7.93.013c0 1.063.444 2.032 1.156 2.745a4.04 4.04 0 0 0 2.809 1.13l-3.965-3.875Zm7.93-.013a3.791 3.791 0 0 1-1.156 2.745l-.014.013a4.01 4.01 0 0 1-2.782 1.13l3.952-3.888Z" stroke="#5A5A5A" stroke-width=".5"/><path fill="#5A5A5A" d="M442.572 38.3V21.578H294.305V38.3z"/><path fill="#5A5A5A" d="M433.653 117.45h16.722V20.463h-16.722z"/><path fill="#5A5A5A" d="M505 117.45v-16.722h-71.347v16.722z"/><path fill="#5A5A5A" d="M488 325h17V102h-17zm-276.19 2.031v-30.099h-91.413v30.099z"/><path d="m173.75 384.75-121.134-.07-.046-5.004h121.18v5.074Z" stroke="#5A5A5A" stroke-width=".5" stroke-miterlimit="10"/><path fill="#5A5A5A" d="M178.419 385h5.574v-82.495h-5.574zm-138.364 0h5.574v-82.495h-5.574z"/><path fill="#5A5A5A" d="M59.007 385v-5.574H42.285V385zm123.986 0v-5.574h-13.377V385z"/><path d="m163.547 310.559-67.476.07-.025 5.004h67.501v-5.074Zm0 11.148-67.476.07-.025 5.004h67.501v-5.074Z" stroke="#5A5A5A" stroke-width=".5" stroke-miterlimit="10"/><path stroke="#5A5A5A" d="m65.441 314.338 30.099-17.837"/><path d="m467.75 384.75-121.134-.07-.046-5.004h121.18v5.074Z" stroke="#5A5A5A" stroke-width=".5" stroke-miterlimit="10"/><path fill="#5A5A5A" d="M472.419 385h5.574v-82.495h-5.574zm-138.364 0h5.574v-82.495h-5.574z"/><path fill="#5A5A5A" d="M353.007 385v-5.574h-16.722V385zm123.986 0v-5.574h-13.377V385z"/><path d="m457.547 310.559-67.476.07-.025 5.004h67.501v-5.074Zm0 11.148-67.476.07-.025 5.004h67.501v-5.074Z" stroke="#5A5A5A" stroke-width=".5" stroke-miterlimit="10"/><path stroke="#5A5A5A" d="m359.441 314.338 30.099-17.837"/><path fill="#5A5A5A" d="M365.651 327.031v-30.099h-91.413v30.099z"/><path d="m298.246 326.75-113.95-.152-.045-11.348h113.995v11.5Zm0-18-113.95-.152-.045-11.348h113.995v11.5Z" stroke="#5A5A5A" stroke-width=".5" stroke-miterlimit="10"/><path fill="#5A5A5A" d="M505 327.031v-30.099h-70.232v30.099z"/><path d="m413.561 53.42 1.196.017 3.106-.017h7.69v10.087h-11.992c-3.056 0-5.548-2.273-5.548-5.06 0-2.754 2.492-5.027 5.548-5.027Z" fill="#fff" stroke="#5A5A5A" stroke-width=".5"/><path d="M413.627 54.581h8.604v7.78h-7.657l-.947-.016c-2.408 0-4.368-1.725-4.368-3.882.017-2.14 1.977-3.882 4.368-3.882Zm18.37 10.751h-5.332a1.112 1.112 0 0 1-1.112-1.112V52.79c0-.615.498-1.112 1.112-1.112h5.332c.615 0 1.113.497 1.113 1.111v11.414c0 .63-.498 1.129-1.113 1.129Z" fill="#fff" stroke="#5A5A5A" stroke-width=".5"/><path d="M429.339 59.16c-.415 0-.73-.299-.73-.647-.017-.365.315-.664.73-.664.416 0 .731.299.731.647a.692.692 0 0 1-.731.664Zm2.283 39.467h-12.468a1.553 1.553 0 0 1-1.561-1.559v-18.76c0-.866.694-1.559 1.561-1.559h12.468c.867 0 1.56.693 1.56 1.56v18.76c0 .85-.693 1.558-1.56 1.558Z" fill="#fff" stroke="#5A5A5A" stroke-width=".5"/><path d="M426.869 96.679h-1.922a4.579 4.579 0 0 1-4.58-4.575v-8.832a4.579 4.579 0 0 1 4.58-4.574h1.922a4.578 4.578 0 0 1 4.579 4.574v8.832a4.578 4.578 0 0 1-4.579 4.575Z" fill="#fff" stroke="#5A5A5A" stroke-width=".5"/><path d="M429.007 88.655c-.551 0-.997-.433-.997-.966 0-.534.446-.967.997-.967.55 0 .997.433.997.967s-.447.966-.997.966Z" fill="#fff" stroke="#5A5A5A" stroke-width=".5"/><path d="m174.157 119.43 45.809-.028.015-1.701h-45.824v1.729Zm76.302 0 45.808-.028.015-1.701h-45.823v1.729Zm-38.151 2.23 45.809-.028.015-1.702h-45.824v1.73Z" stroke="#5A5A5A" stroke-width=".5" stroke-miterlimit="10"/><path fill="#5A5A5A" d="M409.354 117.121h2.02v6.059h-2.02zm-.001 11.108h2.02v11.108h-2.02zm0 17.167h2.02v11.108h-2.02zm0 17.167h2.02v11.108h-2.02zm0 17.166h2.02v11.108h-2.02zm0 17.167h2.02v11.108h-2.02zm0 20.197h2.02v11.108h-2.02zm0 18.491h2.02v11.108h-2.02zm0 17.837h2.02v11.108h-2.02zm0 17.837h2.02v11.108h-2.02zm-.225 17.87h2.23v7.804h-2.23z"/></svg>