<svg width="328" height="687" fill="none" xmlns="http://www.w3.org/2000/svg"><path fill="#5A5A5A" d="M53 637v-28H0v28z"/><path d="m250.802 609.398 3.635-161.749H13.631v161.749h237.171Zm61.792-304.415V84.169H14.539v220.814h298.055Z" fill="#FFF8BA"/><path d="m250.802 455.828-1.818-345.307H14.539v345.307h236.263Z" fill="#FFF8BA"/><path d="M173.562 465.824V184.126H5.452v281.698h168.11Z" fill="#FFF8BA"/><path d="M105.42 525.199h1.68c.065.289.191.546.378.77.42.513 1.017.77 1.792.77.644 0 1.153-.159 1.526-.476.383-.327.574-.728.574-1.204 0-.541-.173-.966-.518-1.274-.336-.317-.817-.476-1.442-.476h-2.38v-1.4l2.94-2.1v-.07h-4.06v-1.54h6.44v1.526l-2.52 1.834-.7.28v.07l.224-.028c.308-.028.49-.042.546-.042.877 0 1.61.303 2.198.91.588.607.882 1.377.882 2.31 0 .896-.345 1.657-1.036 2.282-.691.625-1.582.938-2.674.938-1.447 0-2.515-.513-3.206-1.54a4.406 4.406 0 0 1-.644-1.54Zm8.267.84v-1.54l3.29-6.3h1.75l-3.29 6.3h3.22v-2.38h1.61v2.38h1.4v1.54h-1.4v1.96h-1.61v-1.96h-4.97Zm8.539 1.19c0-.28.089-.513.266-.7a.932.932 0 0 1 .686-.28c.308 0 .551.112.728.336.187.224.28.555.28.994 0 .719-.173 1.269-.518 1.652-.336.392-.793.588-1.372.588v-.7c.28 0 .499-.079.658-.238a.765.765 0 0 0 .252-.602v-.084c-.009-.009-.014-.028-.014-.056v-.042l-.084.028a.743.743 0 0 1-.182.014c-.187 0-.35-.084-.49-.252-.14-.168-.21-.387-.21-.658Zm3.076-1.96h1.68c.075.289.201.537.378.742.411.485 1.008.728 1.792.728.626 0 1.12-.168 1.484-.504.364-.336.546-.775.546-1.316 0-.569-.182-1.027-.546-1.372-.364-.345-.858-.518-1.484-.518-.578 0-1.068.154-1.47.462a1.958 1.958 0 0 0-.42.448h-1.54l.42-5.74h5.95v1.54h-4.62l-.21 2.52h.07c.15-.149.322-.275.518-.378.439-.261.966-.392 1.582-.392.98 0 1.797.327 2.45.98.654.653.98 1.47.98 2.45 0 .961-.345 1.764-1.036 2.408-.681.635-1.572.952-2.674.952-1.437 0-2.506-.499-3.206-1.498a4.436 4.436 0 0 1-.644-1.512Zm8.263.77v-1.54l3.29-6.3h1.75l-3.29 6.3h3.22v-2.38h1.61v2.38h1.4v1.54h-1.4v1.96h-1.61v-1.96h-4.97ZM43.42 669.2h1.68c.065.289.191.546.378.77.42.513 1.017.77 1.792.77.644 0 1.153-.159 1.526-.476.383-.327.574-.728.574-1.204 0-.541-.173-.966-.518-1.274-.336-.317-.817-.476-1.442-.476h-2.38v-1.4l2.94-2.1v-.07h-4.06v-1.54h6.44v1.526l-2.52 1.834-.7.28v.07l.224-.028c.308-.028.49-.042.546-.042.877 0 1.61.303 2.198.91.588.607.882 1.377.882 2.31 0 .896-.345 1.657-1.036 2.282-.69.625-1.582.938-2.674.938-1.447 0-2.515-.513-3.206-1.54a4.406 4.406 0 0 1-.644-1.54Zm8.617 2.03c0-.28.088-.513.266-.7a.931.931 0 0 1 .686-.28c.308 0 .55.112.728.336.186.224.28.555.28.994 0 .719-.173 1.269-.518 1.652-.336.392-.794.588-1.372.588v-.7c.28 0 .499-.079.658-.238a.765.765 0 0 0 .252-.602v-.084c-.01-.009-.014-.028-.014-.056v-.042l-.084.028a.742.742 0 0 1-.182.014c-.187 0-.35-.084-.49-.252-.14-.168-.21-.387-.21-.658Zm3.006-2.45c0-.448.098-.915.294-1.4.205-.495.401-.882.588-1.162.196-.289.462-.649.798-1.078l2.24-2.94h1.89l-2.114 2.758-.616.532v.07l.28-.098c.28-.075.583-.112.91-.112.914 0 1.69.331 2.324.994.644.653.966 1.465.966 2.436 0 .989-.355 1.82-1.064 2.492-.71.672-1.615 1.008-2.716 1.008-1.102 0-2.007-.336-2.716-1.008-.71-.672-1.064-1.503-1.064-2.492Zm2.254-1.456c-.383.373-.574.859-.574 1.456s.191 1.087.574 1.47c.382.373.891.56 1.526.56.634 0 1.143-.187 1.526-.56.382-.383.574-.873.574-1.47s-.192-1.083-.574-1.456c-.383-.383-.892-.574-1.526-.574-.635 0-1.144.191-1.526.574Zm6.359 1.456c0-.448.098-.915.294-1.4.205-.495.401-.882.588-1.162.196-.289.462-.649.798-1.078l2.24-2.94h1.89l-2.114 2.758-.616.532v.07l.28-.098c.28-.075.583-.112.91-.112.915 0 1.69.331 2.324.994.644.653.966 1.465.966 2.436 0 .989-.355 1.82-1.064 2.492-.71.672-1.615 1.008-2.716 1.008-1.101 0-2.007-.336-2.716-1.008-.71-.672-1.064-1.503-1.064-2.492Zm2.254-1.456c-.383.373-.574.859-.574 1.456s.191 1.087.574 1.47c.383.373.891.56 1.526.56s1.143-.187 1.526-.56c.383-.383.574-.873.574-1.47s-.191-1.083-.574-1.456c-.383-.383-.891-.574-1.526-.574s-1.143.191-1.526.574Z" fill="#333"/><path d="M90.87 408.576H14.54v-97.231h76.33v97.231Z" fill="#FFC79F"/><path d="M35.49 362.779c0-.448.098-.914.294-1.4.205-.494.401-.882.588-1.162.196-.289.462-.648.798-1.078l2.24-2.94h1.89l-2.114 2.758-.616.532v.07l.28-.098a3.55 3.55 0 0 1 .91-.112c.915 0 1.69.332 2.324.994.644.654.966 1.466.966 2.436 0 .99-.355 1.82-1.064 2.492-.71.672-1.615 1.008-2.716 1.008-1.101 0-2.007-.336-2.716-1.008-.71-.672-1.064-1.502-1.064-2.492Zm2.254-1.456c-.383.374-.574.859-.574 1.456 0 .598.191 1.088.574 1.47.383.374.891.56 1.526.56s1.143-.186 1.526-.56c.383-.382.574-.872.574-1.47 0-.597-.191-1.082-.574-1.456-.383-.382-.891-.574-1.526-.574s-1.143.192-1.526.574Zm6.43 3.906c0-.28.088-.513.265-.7a.935.935 0 0 1 .686-.28c.308 0 .55.112.728.336.187.224.28.556.28.994 0 .719-.172 1.27-.518 1.652-.336.392-.793.588-1.372.588v-.7c.28 0 .5-.079.658-.238a.765.765 0 0 0 .252-.602v-.084c-.01-.009-.014-.028-.014-.056v-.042l-.084.028a.693.693 0 0 1-.182.014c-.186 0-.35-.084-.49-.252-.14-.168-.21-.387-.21-.658Zm4.476-.406c-.887-.97-1.33-2.212-1.33-3.724s.443-2.753 1.33-3.724c.886-.97 1.96-1.456 3.22-1.456 1.26 0 2.333.486 3.22 1.456.886.971 1.33 2.212 1.33 3.724s-.444 2.754-1.33 3.724c-.887.971-1.96 1.456-3.22 1.456-1.26 0-2.334-.485-3.22-1.456Zm1.148-6.412c-.532.635-.799 1.531-.799 2.688 0 1.158.267 2.054.798 2.688.542.635 1.233.952 2.073.952.84 0 1.526-.317 2.058-.952.54-.634.812-1.53.812-2.688 0-1.157-.271-2.053-.813-2.688-.532-.634-1.218-.952-2.057-.952-.84 0-1.531.318-2.072.952Zm7.465 5.628v-1.54l3.29-6.3h1.75l-3.29 6.3h3.22v-2.38h1.61v2.38h1.4v1.54h-1.4v1.96h-1.61v-1.96h-4.97Z" fill="#333"/><path d="M90.87 304.984H14.54v-57.249h76.33v57.249ZM312 294h-76v-73h76v73Z" fill="#FFC79F"/><path d="M50.42 279.999v-1.54l3.346-2.366c.728-.522 1.25-1.008 1.568-1.456.317-.448.476-.924.476-1.428 0-.532-.163-.956-.49-1.274-.327-.317-.77-.476-1.33-.476-.69 0-1.209.28-1.554.84-.15.243-.261.523-.336.84h-1.68a4.332 4.332 0 0 1 .546-1.61c.663-1.073 1.67-1.61 3.024-1.61 1.036 0 1.876.308 2.52.924.653.607.98 1.372.98 2.296a3.95 3.95 0 0 1-.616 2.17c-.41.635-1.069 1.265-1.974 1.89l-1.4.98-.63.28v.07l.84-.07h3.78v1.54h-7.07Zm8.193-.77c0-.28.088-.513.266-.7a.936.936 0 0 1 .686-.28c.308 0 .55.112.728.336.186.224.28.556.28.994 0 .719-.173 1.27-.518 1.652-.336.392-.794.588-1.372.588v-.7c.28 0 .5-.079.658-.238a.765.765 0 0 0 .252-.602v-.084c-.01-.009-.014-.028-.014-.056v-.042l-.084.028a.692.692 0 0 1-.182.014c-.187 0-.35-.084-.49-.252-.14-.168-.21-.387-.21-.658Zm3.076-5.81c0-.989.355-1.82 1.064-2.492.71-.672 1.615-1.008 2.716-1.008 1.101 0 2.007.336 2.716 1.008.71.672 1.064 1.503 1.064 2.492 0 .887-.369 1.844-1.106 2.87l-.308.42c-.13.168-.22.285-.266.35l-2.24 2.94h-1.89l2.114-2.758.616-.532v-.07c-.019.01-.112.047-.28.112a3.536 3.536 0 0 1-.91.098 3.16 3.16 0 0 1-2.338-.98c-.635-.662-.952-1.479-.952-2.45Zm2.254-1.456c-.383.374-.574.859-.574 1.456 0 .598.191 1.088.574 1.47.383.374.891.56 1.526.56s1.143-.186 1.526-.56c.383-.382.574-.872.574-1.47 0-.597-.191-1.082-.574-1.456-.383-.382-.891-.574-1.526-.574s-1.143.192-1.526.574Zm5.94-.224v-1.54h6.65v1.54l-3.92 8.26h-1.75l3.85-8.12v-.14h-4.83ZM130.42 202v-1.54l3.346-2.366c.728-.523 1.251-1.008 1.568-1.456.317-.448.476-.924.476-1.428 0-.532-.163-.957-.49-1.274-.327-.318-.77-.476-1.33-.476-.691 0-1.209.28-1.554.84a2.83 2.83 0 0 0-.336.84h-1.68a4.326 4.326 0 0 1 .546-1.61c.663-1.074 1.671-1.61 3.024-1.61 1.036 0 1.876.308 2.52.924.653.606.98 1.372.98 2.296a3.95 3.95 0 0 1-.616 2.17c-.411.634-1.069 1.264-1.974 1.89l-1.4.98-.63.28v.07l.84-.07h3.78V202h-7.07Zm7.773-8.26v-1.54h6.65v1.54l-3.92 8.26h-1.75l3.85-8.12v-.14h-4.83Zm6.094 7.49c0-.28.088-.514.266-.7a.93.93 0 0 1 .686-.28c.308 0 .55.112.728.336.186.224.28.555.28.994 0 .718-.173 1.269-.518 1.652-.336.392-.794.588-1.372.588v-.7c.28 0 .499-.08.658-.238a.766.766 0 0 0 .252-.602v-.084c-.01-.01-.014-.028-.014-.056v-.042l-.084.028a.743.743 0 0 1-.182.014c-.187 0-.35-.084-.49-.252-.14-.168-.21-.388-.21-.658Zm3.076-5.81c0-.99.354-1.82 1.064-2.492.709-.672 1.614-1.008 2.716-1.008 1.101 0 2.006.336 2.716 1.008.709.672 1.064 1.502 1.064 2.492 0 .886-.369 1.843-1.106 2.87l-.308.42c-.131.168-.22.284-.266.35l-2.24 2.94h-1.89l2.114-2.758.616-.532v-.07c-.019.009-.112.046-.28.112a3.583 3.583 0 0 1-.91.098 3.163 3.163 0 0 1-2.338-.98c-.635-.663-.952-1.48-.952-2.45Zm2.254-1.456c-.383.373-.574.858-.574 1.456 0 .597.191 1.087.574 1.47.382.373.891.56 1.526.56.634 0 1.143-.187 1.526-.56.382-.383.574-.873.574-1.47 0-.598-.192-1.083-.574-1.456-.383-.383-.892-.574-1.526-.574-.635 0-1.144.191-1.526.574Zm6.359 5.306h1.68c.075.289.201.536.378.742.411.485 1.008.728 1.792.728.625 0 1.12-.168 1.484-.504.364-.336.546-.775.546-1.316 0-.57-.182-1.027-.546-1.372-.364-.346-.859-.518-1.484-.518-.579 0-1.069.154-1.47.462-.159.121-.299.27-.42.448h-1.54l.42-5.74h5.95v1.54h-4.62l-.21 2.52h.07c.149-.15.322-.276.518-.378.439-.262.966-.392 1.582-.392.98 0 1.797.326 2.45.98.653.653.98 1.47.98 2.45 0 .961-.345 1.764-1.036 2.408-.681.634-1.573.952-2.674.952-1.437 0-2.506-.5-3.206-1.498a4.417 4.417 0 0 1-.644-1.512Zm35.374 191.149v-1.82l1.82-1.4h1.47v9.8h-1.61v-7.84l-1.68 1.26Zm4.411-1.68v-1.54h6.65v1.54l-3.92 8.26h-1.75l3.85-8.12v-.14h-4.83Zm6.094 7.49c0-.28.089-.513.266-.7a.935.935 0 0 1 .686-.28c.308 0 .551.112.728.336.187.224.28.556.28.994 0 .719-.173 1.27-.518 1.652-.336.392-.793.588-1.372.588v-.7c.28 0 .499-.079.658-.238a.765.765 0 0 0 .252-.602v-.084c-.009-.009-.014-.028-.014-.056v-.042l-.084.028a.694.694 0 0 1-.182.014c-.187 0-.35-.084-.49-.252-.14-.168-.21-.387-.21-.658Zm3.076-1.89c0-.849.327-1.526.98-2.03a3.16 3.16 0 0 1 .98-.448v-.084a2.568 2.568 0 0 1-.77-.462c-.513-.438-.77-1.017-.77-1.736 0-.737.313-1.362.938-1.876.635-.522 1.489-.784 2.562-.784 1.073 0 1.923.262 2.548.784.635.514.952 1.139.952 1.876 0 .7-.257 1.279-.77 1.736-.243.196-.499.35-.77.462v.084c.355.094.681.248.98.462.653.504.98 1.176.98 2.016 0 .812-.355 1.508-1.064 2.086-.7.57-1.652.854-2.856.854s-2.161-.284-2.87-.854c-.7-.578-1.05-1.274-1.05-2.086Zm2.1-4.62c0 .411.159.747.476 1.008.317.262.765.392 1.344.392.579 0 1.027-.13 1.344-.392.317-.261.476-.597.476-1.008 0-.373-.163-.686-.49-.938-.317-.261-.761-.392-1.33-.392-.569 0-1.017.131-1.344.392-.317.252-.476.565-.476.938Zm.168 3.346c-.392.308-.588.686-.588 1.134 0 .448.196.831.588 1.148.401.308.952.462 1.652.462s1.246-.154 1.638-.462c.401-.317.602-.7.602-1.148 0-.448-.201-.826-.602-1.134-.392-.317-.938-.476-1.638-.476s-1.251.159-1.652.476Zm6.547 1.134h1.68c.066.29.192.546.378.77.42.514 1.018.77 1.792.77.644 0 1.153-.158 1.526-.476.383-.326.574-.728.574-1.204 0-.541-.172-.966-.518-1.274-.336-.317-.816-.476-1.442-.476h-2.38v-1.4l2.94-2.1v-.07h-4.06v-1.54h6.44v1.526l-2.52 1.834-.7.28v.07l.224-.028c.308-.028.49-.042.546-.042.878 0 1.61.304 2.198.91.588.607.882 1.377.882 2.31 0 .896-.345 1.657-1.036 2.282-.69.626-1.582.938-2.674.938-1.446 0-2.515-.513-3.206-1.54a4.417 4.417 0 0 1-.644-1.54ZM253.14 177.74v-1.54h6.65v1.54l-3.92 8.26h-1.75l3.85-8.12v-.14h-4.83Zm6.094 7.49c0-.28.088-.513.266-.7a.93.93 0 0 1 .686-.28c.308 0 .55.112.728.336.186.224.28.555.28.994 0 .719-.173 1.269-.518 1.652-.336.392-.794.588-1.372.588v-.7c.28 0 .499-.079.658-.238a.765.765 0 0 0 .252-.602v-.084c-.01-.009-.014-.028-.014-.056v-.042l-.084.028a.743.743 0 0 1-.182.014c-.187 0-.35-.084-.49-.252-.14-.168-.21-.387-.21-.658Zm2.866-5.81v-1.82l1.82-1.4h1.47v9.8h-1.61v-7.84l-1.68 1.26Zm4.761 3.36c0-.448.098-.915.294-1.4.205-.495.401-.882.588-1.162.196-.289.462-.649.798-1.078l2.24-2.94h1.89l-2.114 2.758-.616.532v.07l.28-.098c.28-.075.583-.112.91-.112.915 0 1.689.331 2.324.994.644.653.966 1.465.966 2.436 0 .989-.355 1.82-1.064 2.492-.709.672-1.615 1.008-2.716 1.008-1.101 0-2.007-.336-2.716-1.008-.709-.672-1.064-1.503-1.064-2.492Zm2.254-1.456c-.383.373-.574.859-.574 1.456s.191 1.087.574 1.47c.383.373.891.56 1.526.56s1.143-.187 1.526-.56c.383-.383.574-.873.574-1.47s-.191-1.083-.574-1.456c-.383-.383-.891-.574-1.526-.574s-1.143.191-1.526.574Zm-17.905 89.715v-1.54l3.29-6.3h1.75l-3.29 6.3h3.22v-2.38h1.61v2.38h1.4v1.54h-1.4v1.96h-1.61v-1.96h-4.97Zm8.539 1.19c0-.28.089-.513.266-.7a.937.937 0 0 1 .686-.28c.308 0 .551.112.728.336.187.224.28.556.28.994 0 .719-.172 1.27-.518 1.652-.336.392-.793.588-1.372.588v-.7c.28 0 .5-.079.658-.238a.765.765 0 0 0 .252-.602v-.084c-.009-.009-.014-.028-.014-.056v-.042l-.084.028a.69.69 0 0 1-.182.014c-.186 0-.35-.084-.49-.252-.14-.168-.21-.387-.21-.658Zm2.867-5.81v-1.82l1.82-1.4h1.47v9.8h-1.61v-7.84l-1.68 1.26Zm4.761 3.36c0-.448.098-.914.294-1.4.205-.494.401-.882.588-1.162.196-.289.462-.648.798-1.078l2.24-2.94h1.89l-2.114 2.758-.616.532v.07l.28-.098a3.55 3.55 0 0 1 .91-.112 3.1 3.1 0 0 1 2.324.994c.644.654.966 1.466.966 2.436 0 .99-.355 1.82-1.064 2.492-.71.672-1.615 1.008-2.716 1.008-1.102 0-2.007-.336-2.716-1.008-.71-.672-1.064-1.502-1.064-2.492Zm2.254-1.456c-.383.374-.574.859-.574 1.456 0 .598.191 1.088.574 1.47.382.374.891.56 1.526.56.634 0 1.143-.186 1.526-.56.382-.382.574-.872.574-1.47 0-.597-.192-1.082-.574-1.456-.383-.382-.892-.574-1.526-.574-.635 0-1.144.192-1.526.574Z" fill="#333"/><path fill="#5A5A5A" d="M48.161 83.261v-27.26H.001v27.26z"/><path fill="#5A5A5A" d="M0 613.942h14.54V75.991H0zm101.775-190.827v-14.539H14.54v14.539z"/><path d="m32.243 332.524-1.073.015-2.786-.015h-6.898v9.048h10.757c2.741 0 4.976-2.039 4.976-4.539 0-2.471-2.235-4.509-4.976-4.509Z" fill="#fff" stroke="#5A5A5A" stroke-width=".5"/><path d="M32.183 333.565h-7.717v6.98h6.868l.85-.015c2.16 0 3.918-1.548 3.918-3.482-.015-1.92-1.773-3.483-3.919-3.483Zm-16.478 9.644h4.782a.998.998 0 0 0 .999-.997v-10.254a.997.997 0 0 0-.999-.997h-4.782a.997.997 0 0 0-.998.997v10.239c0 .565.447 1.012.998 1.012Z" fill="#fff" stroke="#5A5A5A" stroke-width=".5"/><path d="M18.089 337.673c.372 0 .655-.268.655-.581.015-.327-.283-.595-.655-.595-.373 0-.656.268-.656.58a.621.621 0 0 0 .656.596Zm-2.048 33.403h11.185c.777 0 1.4-.622 1.4-1.398v-16.829c0-.777-.623-1.398-1.4-1.398H16.04c-.777 0-1.4.621-1.4 1.398v16.829c0 .763.623 1.398 1.4 1.398Z" fill="#fff" stroke="#5A5A5A" stroke-width=".5"/><path d="M20.305 369.328h1.724a4.107 4.107 0 0 0 4.108-4.103v-7.923a4.107 4.107 0 0 0-4.108-4.103h-1.724a4.107 4.107 0 0 0-4.108 4.103v7.923a4.107 4.107 0 0 0 4.108 4.103Z" fill="#fff" stroke="#5A5A5A" stroke-width=".5"/><path d="M18.387 362.131a.88.88 0 0 0 .894-.867c0-.479-.4-.868-.894-.868a.882.882 0 0 0-.894.868c0 .479.4.867.894.867Zm-2.528 22.301H70.49c.7 0 1.26.559 1.26 1.258v21.688c0 .699-.56 1.258-1.26 1.258H15.86c-.7 0-1.26-.559-1.26-1.258V385.69c0-.699.573-1.258 1.26-1.258Z" fill="#fff" stroke="#5A5A5A" stroke-width=".5"/><path d="M68.391 393.593v5.895a6.177 6.177 0 0 1-6.182 6.175H19.191c-.84 0-1.514-.674-1.514-1.512v-15.247c0-.838.674-1.511 1.514-1.511h43.006c3.421.012 6.194 2.782 6.194 6.2Z" fill="#fff" stroke="#5A5A5A" stroke-width=".5"/><path d="M22.778 396.108c0-.681-.575-1.232-1.285-1.232s-1.284.551-1.284 1.232c0 .681.575 1.232 1.284 1.232.71 0 1.285-.551 1.285-1.232Zm52.269-64.751v-20l-19.616-.013.013 20.001 19.603.012Z" fill="#fff" stroke="#5A5A5A" stroke-width=".5"/><path d="M60.208 321.345c0-2.83 2.249-5.115 5.031-5.115 2.783 0 5.031 2.285 5.031 5.127 0 2.83-2.248 5.14-5.03 5.14-2.783-.013-5.032-2.323-5.032-5.152Z" stroke="#5A5A5A" stroke-width=".5"/><path d="M65.24 325.088a3.52 3.52 0 0 1-2.593-1.091 3.878 3.878 0 0 1-1.08-2.64m3.66-3.756a3.666 3.666 0 0 0-2.592 1.091 3.806 3.806 0 0 0-1.08 2.653l3.671-3.744Zm.012 7.487a3.666 3.666 0 0 0 2.592-1.091 3.816 3.816 0 0 0 1.067-2.652l-3.659 3.743Zm-.013-7.487c1.03 0 1.944.419 2.592 1.091l.013.013a3.788 3.788 0 0 1 1.067 2.627l-3.672-3.731Z" stroke="#5A5A5A" stroke-width=".5"/><path d="m295.424 278.109 1.073-.015 2.786.015h6.898v-9.048h-10.757c-2.742 0-4.976 2.039-4.976 4.539 0 2.47 2.234 4.509 4.976 4.509Z" fill="#fff" stroke="#5A5A5A" stroke-width=".5"/><path d="M295.483 277.068h7.718v-6.98h-6.868l-.85.015c-2.16 0-3.918 1.548-3.918 3.482.015 1.92 1.773 3.483 3.918 3.483Zm16.479-9.644h-4.783a.998.998 0 0 0-.998.997v10.254c0 .55.447.997.998.997h4.783a.998.998 0 0 0 .998-.997v-10.239a1 1 0 0 0-.998-1.012Z" fill="#fff" stroke="#5A5A5A" stroke-width=".5"/><path d="M309.578 272.96c-.373 0-.656.268-.656.581-.015.327.283.595.656.595.372 0 .655-.268.655-.58a.62.62 0 0 0-.655-.596Zm2.047-33.403h-11.184c-.778 0-1.4.622-1.4 1.398v16.829c0 .777.622 1.398 1.4 1.398h11.184c.778 0 1.4-.621 1.4-1.398v-16.829c0-.763-.622-1.398-1.4-1.398Z" fill="#fff" stroke="#5A5A5A" stroke-width=".5"/><path d="M307.361 241.305h-1.723a4.108 4.108 0 0 0-4.109 4.103v7.923a4.108 4.108 0 0 0 4.109 4.103h1.723a4.108 4.108 0 0 0 4.109-4.103v-7.923a4.108 4.108 0 0 0-4.109-4.103Z" fill="#fff" stroke="#5A5A5A" stroke-width=".5"/><path d="M309.279 248.502a.881.881 0 0 0-.894.867c0 .479.401.868.894.868a.882.882 0 0 0 .895-.868c0-.479-.401-.867-.895-.867Zm-71.199-24.393v20.001l19.616.012-.012-20-19.604-.013Z" fill="#fff" stroke="#5A5A5A" stroke-width=".5"/><path d="M252.919 234.122c0 2.83-2.248 5.115-5.031 5.115-2.782 0-5.031-2.285-5.031-5.127 0-2.83 2.249-5.14 5.031-5.14 2.783.013 5.031 2.322 5.031 5.152Z" stroke="#5A5A5A" stroke-width=".5"/><path d="M247.888 230.379a3.52 3.52 0 0 1 2.592 1.091 3.875 3.875 0 0 1 1.08 2.64m-3.659 3.756a3.667 3.667 0 0 0 2.592-1.091 3.809 3.809 0 0 0 1.08-2.653l-3.672 3.744Zm-.013-7.487a3.663 3.663 0 0 0-2.592 1.091 3.817 3.817 0 0 0-1.067 2.652l3.659-3.743Zm.013 7.487a3.578 3.578 0 0 1-2.592-1.091l-.013-.013a3.787 3.787 0 0 1-1.067-2.627l3.672 3.731Z" stroke="#5A5A5A" stroke-width=".5"/><path fill="#5A5A5A" d="M98.14 378.588h-7.27v44.526h7.27zm-87.235-73.604v7.27h87.234v-7.27zM238.08 216.84h-7.27v39.983h7.27zm26.352 83.6h-14.539v14.539h14.539z"/><path fill="#5A5A5A" d="M312.594 224.109v-7.27h-81.783v7.27zM90.87 353.145h7.27v-59.066h-7.27zm0-86.327h7.27v-12.722h-7.27zm161.749 156.297v-14.539h-83.601v14.539zm-109.953 0v-14.539h-16.357v14.539zm121.766 9.996h-14.539V636.66h14.539z"/><path fill="#5A5A5A" d="M107.227 256.823v-14.539H14.539v14.539zm130.853 0v-14.539h-51.796v14.539zm89.053 49.069v-14.539H217.18v14.539zm-62.701 39.075h-14.539v99.049h14.539z"/><ellipse cx="166.747" cy="338.151" rx="40.253" ry="40.152" fill="#5A5A5A"/><path d="M136.08 337.572v-2.34l2.34-1.8h1.89v12.6h-2.07v-10.08l-2.16 1.62Zm8.011 6.948c-1.14-1.248-1.71-2.844-1.71-4.788 0-1.944.57-3.54 1.71-4.788 1.14-1.248 2.52-1.872 4.14-1.872 1.62 0 3 .624 4.14 1.872 1.14 1.248 1.71 2.844 1.71 4.788 0 1.944-.57 3.54-1.71 4.788-1.14 1.248-2.52 1.872-4.14 1.872-1.62 0-3-.624-4.14-1.872Zm1.476-8.244c-.684.816-1.026 1.968-1.026 3.456s.342 2.64 1.026 3.456c.696.816 1.584 1.224 2.664 1.224s1.962-.408 2.646-1.224c.696-.816 1.044-1.968 1.044-3.456s-.348-2.64-1.044-3.456c-.684-.816-1.566-1.224-2.646-1.224-1.08 0-1.968.408-2.664 1.224Zm11.849 8.244c-1.14-1.248-1.71-2.844-1.71-4.788 0-1.944.57-3.54 1.71-4.788 1.14-1.248 2.52-1.872 4.14-1.872 1.62 0 3 .624 4.14 1.872 1.14 1.248 1.71 2.844 1.71 4.788 0 1.944-.57 3.54-1.71 4.788-1.14 1.248-2.52 1.872-4.14 1.872-1.62 0-3-.624-4.14-1.872Zm1.476-8.244c-.684.816-1.026 1.968-1.026 3.456s.342 2.64 1.026 3.456c.696.816 1.584 1.224 2.664 1.224s1.962-.408 2.646-1.224c.696-.816 1.044-1.968 1.044-3.456s-.348-2.64-1.044-3.456c-.684-.816-1.566-1.224-2.646-1.224-1.08 0-1.968.408-2.664 1.224Zm10.048 8.766c0-.36.114-.66.342-.9a1.2 1.2 0 0 1 .882-.36c.396 0 .708.144.936.432.24.288.36.714.36 1.278 0 .924-.222 1.632-.666 2.124-.432.504-1.02.756-1.764.756v-.9c.36 0 .642-.102.846-.306.216-.192.324-.45.324-.774v-.108c-.012-.012-.018-.036-.018-.072v-.054l-.108.036a.932.932 0 0 1-.234.018c-.24 0-.45-.108-.63-.324-.18-.216-.27-.498-.27-.846Zm3.865-3.15c0-.576.126-1.176.378-1.8.264-.636.516-1.134.756-1.494.252-.372.594-.834 1.026-1.386l2.88-3.78h2.43l-2.718 3.546-.792.684v.09l.36-.126a4.53 4.53 0 0 1 1.17-.144c1.176 0 2.172.426 2.988 1.278.828.84 1.242 1.884 1.242 3.132 0 1.272-.456 2.34-1.368 3.204-.912.864-2.076 1.296-3.492 1.296s-2.58-.432-3.492-1.296c-.912-.864-1.368-1.932-1.368-3.204Zm2.898-1.872c-.492.48-.738 1.104-.738 1.872s.246 1.398.738 1.89c.492.48 1.146.72 1.962.72.816 0 1.47-.24 1.962-.72.492-.492.738-1.122.738-1.89 0-.768-.246-1.392-.738-1.872-.492-.492-1.146-.738-1.962-.738-.816 0-1.47.246-1.962.738Zm8.266 2.502h2.16c.096.372.258.69.486.954.528.624 1.296.936 2.304.936.804 0 1.44-.216 1.908-.648.468-.432.702-.996.702-1.692 0-.732-.234-1.32-.702-1.764-.468-.444-1.104-.666-1.908-.666-.744 0-1.374.198-1.89.594a2.481 2.481 0 0 0-.54.576h-1.98l.54-7.38h7.65v1.98h-5.94l-.27 3.24h.09c.192-.192.414-.354.666-.486.564-.336 1.242-.504 2.034-.504 1.26 0 2.31.42 3.15 1.26.84.84 1.26 1.89 1.26 3.15 0 1.236-.444 2.268-1.332 3.096-.876.816-2.022 1.224-3.438 1.224-1.848 0-3.222-.642-4.122-1.926a5.672 5.672 0 0 1-.828-1.944Z" fill="#fff"/><path fill="#5A5A5A" d="M153.571 256.823v-14.539h-15.448v14.539zM327 56h-14v250h14zM202.641 83.261v-27.26h-96.322v27.26z"/><path fill="#5A5A5A" d="M327.133 83.261v-27.26h-61.792v27.26zM171.745 636.66v-27.261h-69.97v27.261zm79.057 0v-27.261h-21.809v27.261z"/><path d="m173.75 83.011-128.013-.138-.05-10.266H173.75V83.01Zm85.036 553.398-113.951-.137-.045-10.267h113.996v10.404ZM173.75 66.654l-128.013-.138-.05-10.266H173.75v10.404Zm85.036 553.398-113.951-.137-.045-10.267h113.996v10.404Z" stroke="#5A5A5A" stroke-width=".5" stroke-miterlimit="10"/><path stroke="#5A5A5A" d="m97.692 380.6 9.995-23.626m-7.078 52.99 22.717-13.63m47.767 13.63-22.717-13.63M97.692 265.715l9.995 23.626m99.061-3.685 16.357-29.079m-119.759-2.046 35.44 19.992m54.104-19.991-35.439 19.991m103.813 34.328 17.265 32.714"/><path d="m32.075 272.49-1.072.014-2.787-.014h-6.898v9.048h10.757c2.742 0 4.977-2.039 4.977-4.539 0-2.471-2.235-4.509-4.977-4.509Z" fill="#fff" stroke="#5A5A5A" stroke-width=".5"/><path d="M32.016 273.531h-7.718v6.98h6.869l.849-.015c2.16 0 3.918-1.548 3.918-3.483-.015-1.919-1.773-3.482-3.918-3.482Zm-16.479 9.644h4.783a.998.998 0 0 0 .998-.998v-10.253a.997.997 0 0 0-.998-.997h-4.783a.997.997 0 0 0-.998.997v10.239c0 .565.447 1.012.998 1.012Z" fill="#fff" stroke="#5A5A5A" stroke-width=".5"/><path d="M17.921 277.639c.373 0 .656-.268.656-.581.015-.327-.283-.595-.656-.595-.372 0-.655.268-.655.58.015.343.298.61.655.596Zm58.542 25.945V292.4c0-.778-.621-1.4-1.398-1.4H58.236c-.776 0-1.398.622-1.398 1.4v11.184c0 .778.621 1.4 1.398 1.4h16.829c.764 0 1.398-.622 1.398-1.4Z" fill="#fff" stroke="#5A5A5A" stroke-width=".5"/><path d="M74.715 299.32v-1.723a4.108 4.108 0 0 0-4.103-4.109h-7.923a4.108 4.108 0 0 0-4.103 4.109v1.723a4.107 4.107 0 0 0 4.103 4.108h7.923a4.107 4.107 0 0 0 4.103-4.108Z" fill="#fff" stroke="#5A5A5A" stroke-width=".5"/><path d="M67.518 301.238a.88.88 0 0 0-.867-.894.88.88 0 0 0-.867.894.88.88 0 0 0 .867.894.88.88 0 0 0 .867-.894Zm245.165-142.259H289.97v-22.104h22.713v22.104Z" fill="#fff" stroke="#5A5A5A" stroke-width=".5"/><path d="M291.812 158.136h17.677c.67 0 1.027-.356 1.027-1.055v-18.309c0-.713-.343-1.056-1.027-1.056h-17.677c-.685-.014-1.028.343-1.028 1.042v18.308c-.014.714.343 1.07 1.028 1.07Z" fill="#fff" stroke="#5A5A5A" stroke-width=".5"/><path d="M293.438 152.229c.014-1.627 1.298-2.954 2.881-2.954 1.598 0 2.882 1.327 2.882 2.954 0 1.641-1.284 2.954-2.882 2.954-1.597 0-2.881-1.313-2.881-2.954Zm.027-8.747c.014-1.627 1.298-2.954 2.882-2.954 1.598 0 2.882 1.327 2.882 2.954 0 1.641-1.284 2.953-2.882 2.953-1.598.015-2.896-1.312-2.882-2.953Zm8.191 0c0-1.641 1.284-2.954 2.882-2.954s2.882 1.327 2.882 2.954c-.015 1.626-1.299 2.954-2.882 2.954-1.584 0-2.882-1.328-2.882-2.954Zm0 8.747c0-1.641 1.284-2.954 2.882-2.954s2.882 1.327 2.882 2.954c-.015 1.627-1.299 2.954-2.882 2.954-1.584 0-2.882-1.327-2.882-2.954Z" stroke="#5A5A5A" stroke-width=".5"/><path d="M312.674 194.691h-21.889v21.535h21.903l-.014-21.535Z" fill="#fff" stroke="#5A5A5A" stroke-width=".5"/><path d="M306.671 196.329H294.57c-.675 0-1.005.331-1.005 1.019v16c0 .661.33 1.006.991 1.019l12.115-.013c.661.013.991-.331.991-1.006v-16c.027-.674-.317-1.019-.991-1.019Z" fill="#fff" stroke="#5A5A5A" stroke-width=".5"/><path d="M310.994 205.348c-.014.84-.647 1.515-1.445 1.515l-6.347-.592-.014-.014c-.481 0-.867-.399-.867-.909 0-.509.386-.908.881-.922l6.347-.592c.784 0 1.431.674 1.445 1.514Z" stroke="#5A5A5A" stroke-width=".5"/><mask id="a" fill="#fff"><path fill-rule="evenodd" clip-rule="evenodd" d="m310.374 206.601-3.456-.33a.898.898 0 0 1-.867-.936c0-.51.386-.895.867-.909l3.456-.331"/></mask><path fill-rule="evenodd" clip-rule="evenodd" d="m310.374 206.601-3.456-.33a.898.898 0 0 1-.867-.936c0-.51.386-.895.867-.909l3.456-.331" fill="#fff"/><path d="m306.918 206.271.015-.5.016.001.017.001-.048.498Zm-.867-.936h.5v.013l-.5-.013Zm.867-.909.048.498-.017.001-.016.001-.015-.5Zm3.408 2.673-3.455-.33.095-.996 3.456.331-.096.995Zm-3.422-.328a1.399 1.399 0 0 1-1.353-1.449l1 .026a.398.398 0 0 0 .382.423l-.029 1Zm-1.353-1.436c0-.778.599-1.387 1.353-1.409l.029 1a.391.391 0 0 0-.382.409h-1Zm1.32-1.407 3.455-.33.096.995-3.456.331-.095-.996Z" fill="#5A5A5A" mask="url(#a)"/><path fill="#5A5A5A" d="M232.628 145.053h-1.817v9.996h1.817zm0-15.448h-1.817v9.996h1.817zm0-15.448h-1.817v9.996h1.817zm0-15.447h-1.817v9.995h1.817zm0-15.449h-1.817v9.996h1.817zm0 77.24h-1.817v9.996h1.817zm0 15.448h-1.817v9.996h1.817zm0 15.448h-1.817v9.996h1.817zm0 15.448h-1.817v9.996h1.817z"/><path d="m118.75 686.75-81.468-.063-.03-4.437h81.498v4.5Z" stroke="#5A5A5A" stroke-width=".5" stroke-miterlimit="10"/><path fill="#5A5A5A" d="M125 687h5v-74h-5zm-99 0h5v-74h-5z"/><path fill="#5A5A5A" d="M43 687v-5H28v5zm87 0v-5h-12v5z"/><path d="m136.75 620.25-60.476.063-.023 4.437h60.499v-4.5Zm0 10-60.476.063-.023 4.437h60.499v-4.5Z" stroke="#5A5A5A" stroke-width=".5" stroke-miterlimit="10"/><path stroke="#5A5A5A" d="m52.745 623.57 27-16"/><path d="M218.21 37.04V35.5l3.29-6.3h1.75l-3.29 6.3h3.22v-2.38h1.61v2.38h1.4v1.54h-1.4V39h-1.61v-1.96h-4.97Zm8.539 1.19c0-.28.089-.513.266-.7a.934.934 0 0 1 .686-.28c.308 0 .551.112.728.336.187.224.28.555.28.994 0 .719-.172 1.27-.518 1.652-.336.392-.793.588-1.372.588v-.7c.28 0 .5-.08.658-.238a.765.765 0 0 0 .252-.602v-.084c-.009-.01-.014-.028-.014-.056v-.042l-.084.028a.722.722 0 0 1-.182.014c-.186 0-.35-.084-.49-.252-.14-.168-.21-.387-.21-.658Zm2.657-7.49V29.2h6.65v1.54l-3.92 8.26h-1.75l3.85-8.12v-.14h-4.83Zm7.145 5.04c0-.448.098-.915.294-1.4.205-.495.401-.882.588-1.162.196-.29.462-.649.798-1.078l2.24-2.94h1.89l-2.114 2.758-.616.532v.07l.28-.098a3.52 3.52 0 0 1 .91-.112c.914 0 1.689.331 2.324.994.644.653.966 1.465.966 2.436 0 .99-.355 1.82-1.064 2.492-.71.672-1.615 1.008-2.716 1.008-1.102 0-2.007-.336-2.716-1.008-.71-.672-1.064-1.503-1.064-2.492Zm2.254-1.456c-.383.373-.574.859-.574 1.456s.191 1.087.574 1.47c.382.373.891.56 1.526.56.634 0 1.143-.187 1.526-.56.382-.383.574-.873.574-1.47s-.192-1.083-.574-1.456c-.383-.383-.892-.574-1.526-.574-.635 0-1.144.191-1.526.574Z" fill="#333"/><path d="m248.115 56.59-54.909.057-.02 3.986h54.929V56.59Zm0 9.087-54.909.057-.02 3.986h54.929v-4.043Z" stroke="#5A5A5A" stroke-width=".5" stroke-miterlimit="10"/><path fill="#5A5A5A" d="M167.569 0h-4.544v67.244h4.544zm128.049 0h-4.544v67.244h4.544z"/><path fill="#5A5A5A" d="M166 0v5h129V0z"/><path stroke="#5A5A5A" d="m149.975 70.399-22.718 13.63"/></svg>