<svg width="341" height="543" fill="none" xmlns="http://www.w3.org/2000/svg"><path fill="#E7FFD5" d="M82 513h223V16H82z"/><path d="M305 14v72H201V14h104Zm.497 297H250V207.129h55.497V311Z" fill="#FDFF9F"/><path stroke="#5A5A5A" d="m340.433 166.75-20-34.604m-41.215-26.596-26-12.604m27 95.9-26 12.604"/><path d="m244.25 190.75.025-33.488 1.475-.01v33.498h-1.5Zm0-56 .025-33.488 1.475-.01v33.498h-1.5Zm-2 28 .025-33.488 1.475-.01v33.498h-1.5Zm41.5 380-183.426-.152-.072-11.348H283.75v11.5Zm0-18-183.426-.152-.072-11.348H283.75v11.5Z" stroke="#5A5A5A" stroke-width=".5" stroke-miterlimit="10"/><path fill="#5A5A5A" d="M52 543h30v-69H52z"/><path fill="#5A5A5A" d="M104 543v-30H74v30zm103 0v-30h-45v30zm114 0v-30h-50v30zM82 0v16h239V0z"/><path fill="#5A5A5A" d="M305 543h16V169h-16zm0-410h16V0h-16zm0-39v-8h-22v8zm-61 14h8V86h-8z"/><path fill="#5A5A5A" d="M254 94v-8h-55v8zm60 225v-8h-68v8zm4-112v-8h-35v8zm-60 0v-8h-8v8z"/><path fill="#5A5A5A" d="M252 186h-8v133h8z"/><path stroke="#5A5A5A" d="m82.438 250.242-16 29"/><path d="m.25 178.25.063 107.458 4.437.04V178.25H.25Zm54 8 .063 59.477 4.437.022V186.25h-4.5Zm10 0 .063 59.477 4.437.022V186.25h-4.5Z" stroke="#5A5A5A" stroke-width=".5" stroke-miterlimit="10"/><path fill="#5A5A5A" d="M0 172v-5h74v5zm0 127v-5h74v5z"/><path fill="#5A5A5A" d="M0 281h5v17H0zm0-114h5v19H0z"/><path stroke="#5A5A5A" d="m82.438 420.758-16-29"/><path d="m.25 378.25.063 107.458 4.437.04V378.25H.25Zm54 106.5.063-59.477 4.437-.022v59.499h-4.5Zm10 0 .063-59.477 4.437-.022v59.499h-4.5Z" stroke="#5A5A5A" stroke-width=".5" stroke-miterlimit="10"/><path fill="#5A5A5A" d="M0 372v-5h74v5zm0 127v-5h74v5z"/><path fill="#5A5A5A" d="M0 481h5v17H0zm0-114h5v19H0zM201 14h-8v80h8zM52 393h30V276H52zm0-199h30v-75H52zm0-133h30V0H52z"/><path d="m52.25 145.75.152-92.463 11.348-.036v92.499h-11.5Zm18 0 .152-92.463 11.348-.036v92.499h-11.5Z" stroke="#5A5A5A" stroke-width=".5" stroke-miterlimit="10"/><path fill="#5A5A5A" d="M306 434v-2h-11v2zm-17 0v-2h-11v2zm-17 0v-2h-11v2zm-17 0v-2h-11v2zm-11-7h2v-11h-2zm0-17h2v-11h-2zm0-17h2v-11h-2zm0-17h2v-11h-2zm0-17h2v-11h-2zm0-17h2v-11h-2zm0-17h2v-6h-2z"/><path d="M304.993 354.863h-24.995v24.325h24.995v-24.325Z" fill="#fff" stroke="#5A5A5A" stroke-width=".5"/><path d="M282.025 355.79h19.453c.738 0 1.131.392 1.131 1.162v20.147c0 .785-.377 1.162-1.131 1.162h-19.453c-.753.016-1.13-.377-1.13-1.146v-20.148c-.016-.785.377-1.177 1.13-1.177Z" fill="#fff" stroke="#5A5A5A" stroke-width=".5"/><path d="M283.814 362.291c.016 1.79 1.429 3.251 3.172 3.251 1.758 0 3.171-1.461 3.171-3.251 0-1.806-1.413-3.251-3.171-3.251-1.758 0-3.172 1.445-3.172 3.251Zm.03 9.626c.016 1.79 1.429 3.251 3.171 3.251 1.759 0 3.172-1.461 3.172-3.251 0-1.806-1.413-3.251-3.172-3.251-1.758-.015-3.187 1.445-3.171 3.251Zm9.013 0c0 1.806 1.413 3.25 3.172 3.25 1.758 0 3.171-1.46 3.171-3.25-.015-1.79-1.428-3.251-3.171-3.251-1.743 0-3.172 1.461-3.172 3.251Zm0-9.626c0 1.806 1.413 3.251 3.172 3.251 1.758 0 3.171-1.461 3.171-3.251-.015-1.79-1.428-3.251-3.171-3.251-1.743 0-3.172 1.461-3.172 3.251Z" stroke="#5A5A5A" stroke-width=".5"/><path d="M283.699 318.912V343H260v-24.104l23.699.016Z" fill="#fff" stroke="#5A5A5A" stroke-width=".5"/><path d="M281.896 325.518v13.317c0 .742-.363 1.106-1.121 1.106h-17.607c-.728 0-1.107-.364-1.122-1.091l.015-13.332c-.015-.727.364-1.091 1.107-1.091h17.607c.743-.03 1.121.348 1.121 1.091Z" fill="#fff" stroke="#5A5A5A" stroke-width=".5"/><path d="M271.972 320.76c-.924.015-1.667.712-1.667 1.591l.652 6.984.015.015c0 .53.439.955 1 .955.561 0 1-.425 1.015-.97l.652-6.984c0-.864-.743-1.576-1.667-1.591Z" stroke="#5A5A5A" stroke-width=".5"/><mask id="a" fill="#fff"><path fill-rule="evenodd" clip-rule="evenodd" d="m270.592 321.443.363 3.802a.99.99 0 0 0 1.031.955.98.98 0 0 0 1-.955l.364-3.802"/></mask><path fill-rule="evenodd" clip-rule="evenodd" d="m270.592 321.443.363 3.802a.99.99 0 0 0 1.031.955.98.98 0 0 0 1-.955l.364-3.802" fill="#fff"/><path d="m270.955 325.245.5-.014v-.017l-.002-.016-.498.047Zm1.031.955v-.501l-.013.001.013.5Zm1-.955-.498-.047-.001.016-.001.017.5.014Zm-2.892-3.755.364 3.803.995-.095-.363-3.803-.996.095Zm.362 3.769a1.487 1.487 0 0 0 1.543 1.44l-.026-.999a.49.49 0 0 1-.518-.469l-.999.028Zm1.53 1.441c.829 0 1.477-.638 1.5-1.441l-1-.028a.48.48 0 0 1-.5.469v1Zm1.498-1.407.363-3.803-.995-.095-.364 3.803.996.095Z" fill="#5A5A5A" mask="url(#a)"/><path d="m283.76 291.702-.017 1.181.017 3.066v7.591h-9.958v-11.838c0-3.017 2.244-5.476 4.996-5.476 2.718 0 4.962 2.459 4.962 5.476Z" fill="#fff" stroke="#5A5A5A" stroke-width=".5"/><path d="M282.613 291.768v8.493h-7.681v-7.559l.017-.934c0-2.378 1.703-4.312 3.832-4.312 2.113.016 3.832 1.951 3.832 4.312ZM272 309.902v-5.263c0-.607.491-1.099 1.097-1.099h11.284c.606 0 1.098.492 1.098 1.099v5.263c0 .606-.492 1.098-1.098 1.098h-11.267a1.101 1.101 0 0 1-1.114-1.098Z" fill="#fff" stroke="#5A5A5A" stroke-width=".5"/><path d="M278.093 307.278c0-.41.295-.721.639-.721.36-.017.655.311.655.721s-.295.722-.639.722a.684.684 0 0 1-.655-.722Zm25.755-69.874H291.54c-.855 0-1.54.683-1.54 1.538v18.52c0 .854.685 1.538 1.54 1.538h12.308c.856 0 1.541-.684 1.541-1.538v-18.52c0-.84-.685-1.538-1.541-1.538Z" fill="#fff" stroke="#5A5A5A" stroke-width=".5"/><path d="M299.157 239.327h-1.897a4.52 4.52 0 0 0-4.521 4.516v8.718a4.52 4.52 0 0 0 4.521 4.516h1.897a4.52 4.52 0 0 0 4.521-4.516v-8.718a4.52 4.52 0 0 0-4.521-4.516Z" fill="#fff" stroke="#5A5A5A" stroke-width=".5"/><path d="M301.268 247.247c-.543 0-.984.427-.984.954 0 .528.441.955.984.955.543 0 .984-.427.984-.955 0-.527-.441-.954-.984-.954ZM284.76 35.524l-.017-1.18.017-3.067v-7.59h-9.958v11.837c0 3.017 2.244 5.476 4.996 5.476 2.718 0 4.962-2.46 4.962-5.476Z" fill="#fff" stroke="#5A5A5A" stroke-width=".5"/><path d="M283.613 35.458v-8.493h-7.681v7.559l.017.934c0 2.378 1.703 4.312 3.832 4.312 2.113-.016 3.832-1.95 3.832-4.312ZM273 17.325v5.263c0 .606.491 1.098 1.097 1.098h11.284c.606 0 1.098-.492 1.098-1.098v-5.263c0-.607-.492-1.099-1.098-1.099h-11.267c-.623 0-1.114.492-1.114 1.099Z" fill="#fff" stroke="#5A5A5A" stroke-width=".5"/><path d="M279.093 19.948c0 .41.295.721.639.721.36.017.655-.311.655-.721s-.295-.721-.639-.721a.683.683 0 0 0-.655.721Zm-36.76-2.253v12.308c0 .856.684 1.54 1.539 1.54h18.519c.855 0 1.539-.684 1.539-1.54V17.695c0-.856-.684-1.54-1.539-1.54h-18.519c-.841 0-1.539.684-1.539 1.54Z" fill="#fff" stroke="#5A5A5A" stroke-width=".5"/><path d="M244.256 22.387v1.897a4.52 4.52 0 0 0 4.516 4.52h8.718a4.52 4.52 0 0 0 4.516-4.52v-1.897a4.52 4.52 0 0 0-4.516-4.521h-8.718a4.52 4.52 0 0 0-4.516 4.521Z" fill="#fff" stroke="#5A5A5A" stroke-width=".5"/><path d="M252.177 20.276c0 .544.427.984.955.984.527 0 .954-.44.954-.984 0-.543-.427-.984-.954-.984-.528 0-.955.44-.955.984Zm-24.542-2.782v60.12A1.38 1.38 0 0 1 226.251 79h-23.867A1.38 1.38 0 0 1 201 77.614v-60.12c0-.77.615-1.386 1.384-1.386h23.867c.769 0 1.384.63 1.384 1.386Z" fill="#fff" stroke="#5A5A5A" stroke-width=".5"/><path d="M217.554 75.305h-6.487a6.798 6.798 0 0 1-6.796-6.804v-47.34a1.66 1.66 0 0 1 1.664-1.666h16.779a1.66 1.66 0 0 1 1.663 1.666v47.326c-.014 3.766-3.062 6.818-6.823 6.818Z" fill="#fff" stroke="#5A5A5A" stroke-width=".5"/><path d="M214.786 25.108c.749 0 1.356-.633 1.356-1.413 0-.781-.607-1.414-1.356-1.414-.749 0-1.356.633-1.356 1.414 0 .78.607 1.413 1.356 1.413ZM283 86h22.009l.014-21.587-22.009.014L283 86Z" fill="#fff" stroke="#5A5A5A" stroke-width=".5"/><path d="M294.018 69.67c3.115 0 5.628 2.474 5.628 5.536 0 3.062-2.513 5.537-5.642 5.537-3.114 0-5.656-2.475-5.656-5.537.014-3.062 2.556-5.536 5.67-5.536Z" stroke="#5A5A5A" stroke-width=".5"/><path d="M289.899 75.206a3.874 3.874 0 0 1 1.201-2.852 4.266 4.266 0 0 1 2.905-1.188m4.134 4.026a4.033 4.033 0 0 0-1.201-2.852 4.188 4.188 0 0 0-2.919-1.188l4.12 4.04Zm-8.24.014c0 1.105.461 2.112 1.201 2.853a4.2 4.2 0 0 0 2.919 1.174l-4.12-4.027Zm8.24-.014c0 1.133-.461 2.14-1.201 2.853l-.014.014a4.17 4.17 0 0 1-2.891 1.174l4.106-4.04Z" stroke="#5A5A5A" stroke-width=".5"/><circle cx="177.5" cy="286.5" r="39.5" fill="#5A5A5A"/><path d="M154.72 290.58c0-1.092.42-1.962 1.26-2.61.36-.252.78-.444 1.26-.576v-.108a3.296 3.296 0 0 1-.99-.594c-.66-.564-.99-1.308-.99-2.232 0-.948.402-1.752 1.206-2.412.816-.672 1.914-1.008 3.294-1.008 1.38 0 2.472.336 3.276 1.008.816.66 1.224 1.464 1.224 2.412 0 .9-.33 1.644-.99 2.232-.312.252-.642.45-.99.594v.108c.456.12.876.318 1.26.594.84.648 1.26 1.512 1.26 2.592 0 1.044-.456 1.938-1.368 2.682-.9.732-2.124 1.098-3.672 1.098s-2.778-.366-3.69-1.098c-.9-.744-1.35-1.638-1.35-2.682Zm2.7-5.94c0 .528.204.96.612 1.296.408.336.984.504 1.728.504s1.32-.168 1.728-.504c.408-.336.612-.768.612-1.296 0-.48-.21-.882-.63-1.206-.408-.336-.978-.504-1.71-.504s-1.308.168-1.728.504c-.408.324-.612.726-.612 1.206Zm.216 4.302c-.504.396-.756.882-.756 1.458s.252 1.068.756 1.476c.516.396 1.224.594 2.124.594.9 0 1.602-.198 2.106-.594.516-.408.774-.9.774-1.476s-.258-1.062-.774-1.458c-.504-.408-1.206-.612-2.106-.612-.9 0-1.608.204-2.124.612Zm8.058-5.562v-1.98h8.55v1.98l-5.04 10.62h-2.25l4.95-10.44v-.18h-6.21Zm7.835 9.63c0-.36.114-.66.342-.9a1.2 1.2 0 0 1 .882-.36c.396 0 .708.144.936.432.24.288.36.714.36 1.278 0 .924-.222 1.632-.666 2.124-.432.504-1.02.756-1.764.756v-.9c.36 0 .642-.102.846-.306.216-.192.324-.45.324-.774v-.108c-.012-.012-.018-.036-.018-.072v-.054l-.108.036a.932.932 0 0 1-.234.018c-.24 0-.45-.108-.63-.324-.18-.216-.27-.498-.27-.846Zm3.505-1.53v-1.98l4.23-8.1h2.25l-4.23 8.1h4.14v-3.06h2.07v3.06h1.8v1.98h-1.8V294h-2.07v-2.52h-6.39Zm9.894-8.1v-1.98h8.55v1.98l-5.04 10.62h-2.25l4.95-10.44v-.18h-6.21Z" fill="#fff"/><path d="M162.49 460.78c0-.448.098-.915.294-1.4.205-.495.401-.882.588-1.162.196-.289.462-.649.798-1.078l2.24-2.94h1.89l-2.114 2.758-.616.532v.07l.28-.098c.28-.075.583-.112.91-.112.915 0 1.689.331 2.324.994.644.653.966 1.465.966 2.436 0 .989-.355 1.82-1.064 2.492-.709.672-1.615 1.008-2.716 1.008-1.101 0-2.007-.336-2.716-1.008-.709-.672-1.064-1.503-1.064-2.492Zm2.254-1.456c-.383.373-.574.859-.574 1.456s.191 1.087.574 1.47c.383.373.891.56 1.526.56s1.143-.187 1.526-.56c.383-.383.574-.873.574-1.47s-.191-1.083-.574-1.456c-.383-.383-.891-.574-1.526-.574s-1.143.191-1.526.574Zm6.359 1.456c0-.448.098-.915.294-1.4.206-.495.402-.882.588-1.162.196-.289.462-.649.798-1.078l2.24-2.94h1.89l-2.114 2.758-.616.532v.07l.28-.098c.28-.075.584-.112.91-.112.915 0 1.69.331 2.324.994.644.653.966 1.465.966 2.436 0 .989-.354 1.82-1.064 2.492-.709.672-1.614 1.008-2.716 1.008-1.101 0-2.006-.336-2.716-1.008-.709-.672-1.064-1.503-1.064-2.492Zm2.254-1.456c-.382.373-.574.859-.574 1.456s.192 1.087.574 1.47c.383.373.892.56 1.526.56.635 0 1.144-.187 1.526-.56.383-.383.574-.873.574-1.47s-.191-1.083-.574-1.456c-.382-.383-.891-.574-1.526-.574-.634 0-1.143.191-1.526.574Zm6.43 3.906c0-.28.088-.513.266-.7a.93.93 0 0 1 .686-.28c.308 0 .55.112.728.336.186.224.28.555.28.994 0 .719-.173 1.269-.518 1.652-.336.392-.794.588-1.372.588v-.7c.28 0 .499-.079.658-.238a.765.765 0 0 0 .252-.602v-.084c-.01-.009-.014-.028-.014-.056v-.042l-.084.028a.743.743 0 0 1-.182.014c-.187 0-.35-.084-.49-.252-.14-.168-.21-.387-.21-.658Zm4.476-.406c-.887-.971-1.33-2.212-1.33-3.724s.443-2.753 1.33-3.724c.886-.971 1.96-1.456 3.22-1.456 1.26 0 2.333.485 3.22 1.456.886.971 1.33 2.212 1.33 3.724s-.444 2.753-1.33 3.724c-.887.971-1.96 1.456-3.22 1.456-1.26 0-2.334-.485-3.22-1.456Zm1.148-6.412c-.532.635-.798 1.531-.798 2.688 0 1.157.266 2.053.798 2.688.541.635 1.232.952 2.072.952.84 0 1.526-.317 2.058-.952.541-.635.812-1.531.812-2.688 0-1.157-.271-2.053-.812-2.688-.532-.635-1.218-.952-2.058-.952-.84 0-1.531.317-2.072.952Zm7.815 4.858h1.68c.075.289.201.537.378.742.411.485 1.008.728 1.792.728.625 0 1.12-.168 1.484-.504.364-.336.546-.775.546-1.316 0-.569-.182-1.027-.546-1.372-.364-.345-.859-.518-1.484-.518-.579 0-1.069.154-1.47.462a1.916 1.916 0 0 0-.42.448h-1.54l.42-5.74h5.95v1.54h-4.62l-.21 2.52h.07c.149-.149.322-.275.518-.378.439-.261.966-.392 1.582-.392.98 0 1.797.327 2.45.98.653.653.98 1.47.98 2.45 0 .961-.345 1.764-1.036 2.408-.681.635-1.573.952-2.674.952-1.437 0-2.506-.499-3.206-1.498a4.417 4.417 0 0 1-.644-1.512Zm66.984-214.23v-1.54l3.29-6.3h1.75l-3.29 6.3h3.22v-2.38h1.61v2.38h1.4v1.54h-1.4V249h-1.61v-1.96h-4.97Zm8.539 1.19c0-.28.089-.513.266-.7a.933.933 0 0 1 .686-.28c.308 0 .551.112.728.336.187.224.28.555.28.994 0 .719-.172 1.269-.518 1.652-.336.392-.793.588-1.372.588v-.7c.28 0 .5-.079.658-.238a.765.765 0 0 0 .252-.602v-.084c-.009-.009-.014-.028-.014-.056v-.042l-.084.028a.738.738 0 0 1-.182.014c-.186 0-.35-.084-.49-.252-.14-.168-.21-.387-.21-.658Zm3.007-2.45c0-.448.098-.915.294-1.4.205-.495.401-.882.588-1.162.196-.289.462-.649.798-1.078l2.24-2.94h1.89l-2.114 2.758-.616.532v.07l.28-.098c.28-.075.583-.112.91-.112.914 0 1.689.331 2.324.994.644.653.966 1.465.966 2.436 0 .989-.355 1.82-1.064 2.492-.71.672-1.615 1.008-2.716 1.008-1.102 0-2.007-.336-2.716-1.008-.71-.672-1.064-1.503-1.064-2.492Zm2.254-1.456c-.383.373-.574.859-.574 1.456s.191 1.087.574 1.47c.382.373.891.56 1.526.56.634 0 1.143-.187 1.526-.56.382-.383.574-.873.574-1.47s-.192-1.083-.574-1.456c-.383-.383-.892-.574-1.526-.574-.635 0-1.144.191-1.526.574Zm6.359 1.456c0-.448.098-.915.294-1.4.205-.495.401-.882.588-1.162.196-.289.462-.649.798-1.078l2.24-2.94h1.89l-2.114 2.758-.616.532v.07l.28-.098c.28-.075.583-.112.91-.112.915 0 1.689.331 2.324.994.644.653.966 1.465.966 2.436 0 .989-.355 1.82-1.064 2.492-.709.672-1.615 1.008-2.716 1.008-1.101 0-2.007-.336-2.716-1.008-.709-.672-1.064-1.503-1.064-2.492Zm2.254-1.456c-.383.373-.574.859-.574 1.456s.191 1.087.574 1.47c.383.373.891.56 1.526.56s1.143-.187 1.526-.56c.383-.383.574-.873.574-1.47s-.191-1.083-.574-1.456c-.383-.383-.891-.574-1.526-.574s-1.143.191-1.526.574ZM259.49 399.78c0-.448.098-.915.294-1.4.205-.495.401-.882.588-1.162.196-.289.462-.649.798-1.078l2.24-2.94h1.89l-2.114 2.758-.616.532v.07l.28-.098c.28-.075.583-.112.91-.112.915 0 1.689.331 2.324.994.644.653.966 1.465.966 2.436 0 .989-.355 1.82-1.064 2.492-.709.672-1.615 1.008-2.716 1.008-1.101 0-2.007-.336-2.716-1.008-.709-.672-1.064-1.503-1.064-2.492Zm2.254-1.456c-.383.373-.574.859-.574 1.456s.191 1.087.574 1.47c.383.373.891.56 1.526.56s1.143-.187 1.526-.56c.383-.383.574-.873.574-1.47s-.191-1.083-.574-1.456c-.383-.383-.891-.574-1.526-.574s-1.143.191-1.526.574Zm6.429 3.906c0-.28.089-.513.266-.7a.933.933 0 0 1 .686-.28c.308 0 .551.112.728.336.187.224.28.555.28.994 0 .719-.172 1.269-.518 1.652-.336.392-.793.588-1.372.588v-.7c.28 0 .5-.079.658-.238a.765.765 0 0 0 .252-.602v-.084c-.009-.009-.014-.028-.014-.056v-.042l-.084.028a.738.738 0 0 1-.182.014c-.186 0-.35-.084-.49-.252-.14-.168-.21-.387-.21-.658Zm4.476-.406c-.886-.971-1.33-2.212-1.33-3.724s.444-2.753 1.33-3.724c.887-.971 1.96-1.456 3.22-1.456 1.26 0 2.334.485 3.22 1.456.887.971 1.33 2.212 1.33 3.724s-.443 2.753-1.33 3.724c-.886.971-1.96 1.456-3.22 1.456-1.26 0-2.333-.485-3.22-1.456Zm1.148-6.412c-.532.635-.798 1.531-.798 2.688 0 1.157.266 2.053.798 2.688.542.635 1.232.952 2.072.952.84 0 1.526-.317 2.058-.952.542-.635.812-1.531.812-2.688 0-1.157-.27-2.053-.812-2.688-.532-.635-1.218-.952-2.058-.952-.84 0-1.53.317-2.072.952Zm9.216 6.412c-.887-.971-1.33-2.212-1.33-3.724s.443-2.753 1.33-3.724c.886-.971 1.96-1.456 3.22-1.456 1.26 0 2.333.485 3.22 1.456.886.971 1.33 2.212 1.33 3.724s-.444 2.753-1.33 3.724c-.887.971-1.96 1.456-3.22 1.456-1.26 0-2.334-.485-3.22-1.456Zm1.148-6.412c-.532.635-.798 1.531-.798 2.688 0 1.157.266 2.053.798 2.688.541.635 1.232.952 2.072.952.84 0 1.526-.317 2.058-.952.541-.635.812-1.531.812-2.688 0-1.157-.271-2.053-.812-2.688-.532-.635-1.218-.952-2.058-.952-.84 0-1.531.317-2.072.952ZM9.42 89.2h1.68c.065.29.191.546.378.77.42.513 1.017.77 1.792.77.644 0 1.153-.159 1.526-.476.383-.327.574-.728.574-1.204 0-.541-.173-.966-.518-1.274-.336-.317-.817-.476-1.442-.476h-2.38v-1.4l2.94-2.1v-.07H9.91V82.2h6.44v1.526l-2.52 1.834-.7.28v.07l.224-.028c.308-.028.49-.042.546-.042.877 0 1.61.303 2.198.91.588.607.882 1.377.882 2.31 0 .896-.345 1.657-1.036 2.282-.69.625-1.582.938-2.674.938-1.447 0-2.515-.513-3.206-1.54a4.404 4.404 0 0 1-.644-1.54Zm8.617 2.03c0-.28.088-.513.266-.7a.933.933 0 0 1 .686-.28c.308 0 .55.112.728.336.186.224.28.555.28.994 0 .719-.173 1.27-.518 1.652-.336.392-.794.588-1.372.588v-.7c.28 0 .499-.08.658-.238a.765.765 0 0 0 .252-.602v-.084c-.01-.01-.014-.028-.014-.056v-.042l-.084.028a.726.726 0 0 1-.182.014c-.187 0-.35-.084-.49-.252-.14-.168-.21-.387-.21-.658Zm3.006-2.45c0-.448.098-.915.294-1.4.205-.495.401-.882.588-1.162.196-.29.462-.649.798-1.078l2.24-2.94h1.89l-2.114 2.758-.616.532v.07l.28-.098c.28-.075.583-.112.91-.112.914 0 1.69.331 2.324.994.644.653.966 1.465.966 2.436 0 .99-.355 1.82-1.064 2.492-.71.672-1.615 1.008-2.716 1.008-1.102 0-2.007-.336-2.716-1.008-.71-.672-1.064-1.503-1.064-2.492Zm2.254-1.456c-.383.373-.574.859-.574 1.456s.191 1.087.574 1.47c.382.373.891.56 1.526.56.634 0 1.143-.187 1.526-.56.382-.383.574-.873.574-1.47s-.192-1.083-.574-1.456c-.383-.383-.892-.574-1.526-.574-.635 0-1.144.191-1.526.574Zm6.359 1.456c0-.448.098-.915.294-1.4.205-.495.401-.882.588-1.162.196-.29.462-.649.798-1.078l2.24-2.94h1.89l-2.114 2.758-.616.532v.07l.28-.098c.28-.075.583-.112.91-.112.915 0 1.69.331 2.324.994.644.653.966 1.465.966 2.436 0 .99-.355 1.82-1.064 2.492-.71.672-1.615 1.008-2.716 1.008-1.101 0-2.007-.336-2.716-1.008-.71-.672-1.064-1.503-1.064-2.492Zm2.254-1.456c-.383.373-.574.859-.574 1.456s.191 1.087.574 1.47c.383.373.891.56 1.526.56s1.143-.187 1.526-.56c.383-.383.574-.873.574-1.47s-.191-1.083-.574-1.456c-.383-.383-.891-.574-1.526-.574s-1.143.191-1.526.574Zm235.3 64.716v-1.54l3.29-6.3h1.75l-3.29 6.3h3.22v-2.38h1.61v2.38h1.4v1.54h-1.4V154h-1.61v-1.96h-4.97Zm8.539 1.19c0-.28.089-.513.266-.7a.933.933 0 0 1 .686-.28c.308 0 .551.112.728.336.187.224.28.555.28.994 0 .719-.172 1.269-.518 1.652-.336.392-.793.588-1.372.588v-.7c.28 0 .5-.079.658-.238a.765.765 0 0 0 .252-.602v-.084c-.009-.009-.014-.028-.014-.056v-.042l-.084.028a.738.738 0 0 1-.182.014c-.186 0-.35-.084-.49-.252-.14-.168-.21-.387-.21-.658Zm2.657-7.49v-1.54h6.65v1.54l-3.92 8.26h-1.75l3.85-8.12v-.14h-4.83Zm6.865 6.3v-1.54l3.29-6.3h1.75l-3.29 6.3h3.22v-2.38h1.61v2.38h1.4v1.54h-1.4V154h-1.61v-1.96h-4.97ZM237.49 52.78c0-.448.098-.915.294-1.4.205-.495.401-.882.588-1.162.196-.29.462-.649.798-1.078l2.24-2.94h1.89l-2.114 2.758-.616.532v.07l.28-.098a3.52 3.52 0 0 1 .91-.112c.915 0 1.689.331 2.324.994.644.653.966 1.465.966 2.436 0 .99-.355 1.82-1.064 2.492-.709.672-1.615 1.008-2.716 1.008-1.101 0-2.007-.336-2.716-1.008-.709-.672-1.064-1.503-1.064-2.492Zm2.254-1.456c-.383.373-.574.859-.574 1.456s.191 1.087.574 1.47c.383.373.891.56 1.526.56s1.143-.187 1.526-.56c.383-.383.574-.873.574-1.47s-.191-1.083-.574-1.456c-.383-.383-.891-.574-1.526-.574s-1.143.191-1.526.574Zm6.429 3.906c0-.28.089-.513.266-.7a.934.934 0 0 1 .686-.28c.308 0 .551.112.728.336.187.224.28.555.28.994 0 .719-.172 1.27-.518 1.652-.336.392-.793.588-1.372.588v-.7c.28 0 .5-.08.658-.238a.765.765 0 0 0 .252-.602v-.084c-.009-.01-.014-.028-.014-.056v-.042l-.084.028a.722.722 0 0 1-.182.014c-.186 0-.35-.084-.49-.252-.14-.168-.21-.387-.21-.658Zm4.476-.406c-.886-.97-1.33-2.212-1.33-3.724s.444-2.753 1.33-3.724c.887-.97 1.96-1.456 3.22-1.456 1.26 0 2.334.485 3.22 1.456.887.97 1.33 2.212 1.33 3.724s-.443 2.753-1.33 3.724c-.886.97-1.96 1.456-3.22 1.456-1.26 0-2.333-.485-3.22-1.456Zm1.148-6.412c-.532.635-.798 1.53-.798 2.688 0 1.157.266 2.053.798 2.688.542.635 1.232.952 2.072.952.84 0 1.526-.317 2.058-.952.542-.635.812-1.53.812-2.688 0-1.157-.27-2.053-.812-2.688-.532-.635-1.218-.952-2.058-.952-.84 0-1.53.317-2.072.952ZM259.473 56v-1.54l3.346-2.366c.728-.523 1.25-1.008 1.568-1.456.317-.448.476-.924.476-1.428 0-.532-.164-.957-.49-1.274-.327-.317-.77-.476-1.33-.476-.691 0-1.209.28-1.554.84-.15.243-.262.523-.336.84h-1.68a4.33 4.33 0 0 1 .546-1.61c.662-1.073 1.67-1.61 3.024-1.61 1.036 0 1.876.308 2.52.924.653.607.98 1.372.98 2.296 0 .803-.206 1.526-.616 2.17-.411.635-1.069 1.265-1.974 1.89l-1.4.98-.63.28v.07l.84-.07h3.78V56h-7.07Z" fill="#333"/></svg>