<svg width="370" height="639" fill="none" xmlns="http://www.w3.org/2000/svg"><path d="M16 84h338v253H16V84Z" fill="#FFF8BA"/><path d="M112.871 334.497V279H9v55.497h103.871ZM118 84h236v324H118V84Z" fill="#FFF8BA"/><path d="M227 84h135v525H227V84Z" fill="#FFF8BA"/><path d="M13 342h100v-62H13v62Z" fill="#FFC79F"/><path d="M353.995 231.325H329V207h24.995v24.325Z" fill="#fff" stroke="#5A5A5A" stroke-width=".5"/><path d="M331.027 230.398h19.453c.738 0 1.13-.392 1.13-1.162v-20.147c0-.785-.377-1.162-1.13-1.162h-19.453c-.754-.016-1.131.377-1.131 1.146v20.148c-.016.785.377 1.177 1.131 1.177Z" fill="#fff" stroke="#5A5A5A" stroke-width=".5"/><path d="M332.816 223.897c.015-1.79 1.429-3.251 3.171-3.251 1.759 0 3.172 1.461 3.172 3.251 0 1.806-1.413 3.251-3.172 3.251-1.758 0-3.171-1.445-3.171-3.251Zm.03-9.626c.016-1.79 1.429-3.251 3.171-3.251 1.759 0 3.172 1.461 3.172 3.251 0 1.806-1.413 3.251-3.172 3.251-1.758.015-3.187-1.445-3.171-3.251Zm9.014 0c0-1.806 1.413-3.251 3.171-3.251 1.759 0 3.172 1.461 3.172 3.251-.016 1.79-1.429 3.251-3.172 3.251s-3.171-1.461-3.171-3.251Zm0 9.626c0-1.806 1.413-3.251 3.171-3.251 1.759 0 3.172 1.461 3.172 3.251-.016 1.79-1.429 3.251-3.172 3.251s-3.171-1.461-3.171-3.251Z" stroke="#5A5A5A" stroke-width=".5"/><path d="M354.088 256H330v23.699h24.104L354.088 256Z" fill="#fff" stroke="#5A5A5A" stroke-width=".5"/><path d="M347.482 257.803h-13.317c-.742 0-1.106.364-1.106 1.121v17.608c0 .727.364 1.106 1.091 1.121l13.332-.015c.727.015 1.091-.363 1.091-1.106v-17.608c.03-.742-.348-1.121-1.091-1.121Z" fill="#fff" stroke="#5A5A5A" stroke-width=".5"/><path d="M352.24 267.728c-.015.925-.712 1.667-1.591 1.667l-6.984-.652-.015-.015c-.53 0-.954-.439-.954-1 0-.56.424-1 .969-1.015l6.984-.652c.864 0 1.576.743 1.591 1.667Z" stroke="#5A5A5A" stroke-width=".5"/><mask id="a" fill="#fff"><path fill-rule="evenodd" clip-rule="evenodd" d="m351.558 269.107-3.803-.363a.989.989 0 0 1-.955-1.031c0-.56.425-.985.955-1l3.803-.363"/></mask><path fill-rule="evenodd" clip-rule="evenodd" d="m351.558 269.107-3.803-.363a.989.989 0 0 1-.955-1.031c0-.56.425-.985.955-1l3.803-.363" fill="#fff"/><path d="m347.755 268.744.014-.5h.017l.016.002-.047.498Zm-.955-1.031h.501l-.001.013-.5-.013Zm.955-1 .047.498-.016.002h-.017l-.014-.5Zm3.755 2.892-3.803-.364.095-.995 3.803.364-.095.995Zm-3.769-.362a1.487 1.487 0 0 1-1.44-1.543l.999.026c-.008.3.214.511.469.518l-.028.999Zm-1.441-1.53c0-.829.638-1.477 1.441-1.5l.028 1a.48.48 0 0 0-.469.5h-1Zm1.407-1.498 3.803-.363.095.995-3.803.364-.095-.996Z" fill="#5A5A5A" mask="url(#a)"/><circle cx="68.5" cy="156.5" r="39.5" fill="#5A5A5A"/><path d="M44.72 155.54c0-1.272.456-2.34 1.368-3.204.912-.864 2.076-1.296 3.492-1.296s2.58.432 3.492 1.296c.912.864 1.368 1.932 1.368 3.204 0 1.14-.474 2.37-1.422 3.69l-.396.54c-.168.216-.282.366-.342.45L49.4 164h-2.43l2.718-3.546.792-.684v-.09c-.024.012-.144.06-.36.144-.312.084-.702.126-1.17.126-1.176 0-2.178-.42-3.006-1.26-.816-.852-1.224-1.902-1.224-3.15Zm2.898-1.872c-.492.48-.738 1.104-.738 1.872s.246 1.398.738 1.89c.492.48 1.146.72 1.962.72.816 0 1.47-.24 1.962-.72.492-.492.738-1.122.738-1.89 0-.768-.246-1.392-.738-1.872-.492-.492-1.146-.738-1.962-.738-.816 0-1.47.246-1.962.738Zm9.976 8.82c-1.14-1.248-1.71-2.844-1.71-4.788 0-1.944.57-3.54 1.71-4.788 1.14-1.248 2.52-1.872 4.14-1.872 1.62 0 3 .624 4.14 1.872 1.14 1.248 1.71 2.844 1.71 4.788 0 1.944-.57 3.54-1.71 4.788-1.14 1.248-2.52 1.872-4.14 1.872-1.62 0-3-.624-4.14-1.872Zm1.476-8.244c-.684.816-1.026 1.968-1.026 3.456s.342 2.64 1.026 3.456c.696.816 1.584 1.224 2.664 1.224s1.962-.408 2.646-1.224c.696-.816 1.044-1.968 1.044-3.456s-.348-2.64-1.044-3.456c-.684-.816-1.566-1.224-2.646-1.224-1.08 0-1.968.408-2.664 1.224Zm10.048 8.766c0-.36.114-.66.342-.9a1.2 1.2 0 0 1 .882-.36c.396 0 .708.144.936.432.24.288.36.714.36 1.278 0 .924-.222 1.632-.666 2.124-.432.504-1.02.756-1.764.756v-.9c.36 0 .642-.102.846-.306.216-.192.324-.45.324-.774v-.108c-.012-.012-.018-.036-.018-.072v-.054l-.108.036a.932.932 0 0 1-.234.018c-.24 0-.45-.108-.63-.324-.18-.216-.27-.498-.27-.846Zm3.686-7.47v-2.34l2.34-1.8h1.89V164h-2.07v-10.08l-2.16 1.62Zm6.03 8.46v-1.98l4.303-3.042c.936-.672 1.608-1.296 2.016-1.872.408-.576.612-1.188.612-1.836 0-.684-.21-1.23-.63-1.638-.42-.408-.99-.612-1.71-.612-.888 0-1.554.36-1.998 1.08a3.633 3.633 0 0 0-.432 1.08h-2.16a5.567 5.567 0 0 1 .702-2.07c.852-1.38 2.148-2.07 3.888-2.07 1.332 0 2.412.396 3.24 1.188.84.78 1.26 1.764 1.26 2.952 0 1.032-.264 1.962-.792 2.79-.528.816-1.374 1.626-2.538 2.43l-1.8 1.26-.81.36v.09l1.08-.09h4.86V164h-9.09Z" fill="#fff"/><path d="M291 422h65V311h-65v111Z" fill="#FFC79F"/><path fill="#5A5A5A" d="M34 54v30H0V54zm113 0v30H90V54zm116 0v30h-60V54zm91 555v30h-26v-30zm-81 0v30h-48v-30zm97-555v30h-41V54z"/><path fill="#5A5A5A" d="M1 55h16v290H1zm353 0h16v584h-16zM225 366h16v273h-16zm0-311h16v207h-16z"/><path d="m216.75 257.25-33.488.025-.01 1.475h33.498v-1.5Zm-56 0-33.488.025-.01 1.475h33.498v-1.5Zm28-2-33.488.025-.01 1.475h33.498v-1.5Z" stroke="#5A5A5A" stroke-width=".5" stroke-miterlimit="10"/><path fill="#5A5A5A" d="M121 333v16H9v-16zm104-37h16v23h-16zm-120 89h16v23h-16z"/><path fill="#5A5A5A" d="M362 304v8H225v-8z"/><path fill="#5A5A5A" d="M291 366h-8v-62h8zm0 71h-8v-43h8z"/><path fill="#5A5A5A" d="M287 437v-8h69v8zM121 272v8H13v-8z"/><path fill="#5A5A5A" d="M121 288h-8v-33h8z"/><path fill="#5A5A5A" d="M113 263v-8h21v8zm97 0v-8h31v8zm-89 78h-8v-25h8zm113 61v16H105v-16zM109 84h2v6h-2zm0 11h2v11h-2zm0 17h2v11h-2zm0 17h2v11h-2zm0 17h2v11h-2zm0 17h2v11h-2zm0 17h2v11h-2zm0 17h2v11h-2zm0 17h2v11h-2zm0 17h2v11h-2zm0 17h2v11h-2zm0 17h2v11h-2z"/><path stroke="#5A5A5A" d="m227.433 258.25-20 34.604m62.997 77.891 14 23.603M133.57 293.745l-14 23.603m-14.134 31.897-18 32"/><path d="m365.75 54.25-257.396.152-.102 11.348H365.75v-11.5Z" stroke="#5A5A5A" stroke-width=".5" stroke-miterlimit="10"/><path d="M48.42 34.2h1.68c.065.29.191.546.378.77.42.513 1.017.77 1.792.77.644 0 1.153-.159 1.526-.476.383-.327.574-.728.574-1.204 0-.541-.173-.966-.518-1.274-.336-.317-.817-.476-1.442-.476h-2.38v-1.4l2.94-2.1v-.07h-4.06V27.2h6.44v1.526l-2.52 1.834-.7.28v.07l.224-.028c.308-.028.49-.042.546-.042.877 0 1.61.303 2.198.91.588.607.882 1.377.882 2.31 0 .896-.345 1.657-1.036 2.282-.69.625-1.582.938-2.674.938-1.447 0-2.515-.513-3.206-1.54a4.404 4.404 0 0 1-.644-1.54Zm8.617 2.03c0-.28.088-.513.266-.7a.933.933 0 0 1 .686-.28c.308 0 .55.112.728.336.186.224.28.555.28.994 0 .719-.173 1.27-.518 1.652-.336.392-.794.588-1.372.588v-.7c.28 0 .499-.08.658-.238a.765.765 0 0 0 .252-.602v-.084c-.01-.01-.014-.028-.014-.056v-.042l-.084.028a.726.726 0 0 1-.182.014c-.187 0-.35-.084-.49-.252-.14-.168-.21-.387-.21-.658Zm3.006-2.45c0-.448.098-.915.294-1.4.205-.495.401-.882.588-1.162.196-.29.462-.649.798-1.078l2.24-2.94h1.89l-2.114 2.758-.616.532v.07l.28-.098c.28-.075.583-.112.91-.112.914 0 1.69.331 2.324.994.644.653.966 1.465.966 2.436 0 .99-.355 1.82-1.064 2.492-.71.672-1.615 1.008-2.716 1.008-1.102 0-2.007-.336-2.716-1.008-.71-.672-1.064-1.503-1.064-2.492Zm2.254-1.456c-.383.373-.574.859-.574 1.456s.191 1.087.574 1.47c.382.373.891.56 1.526.56.634 0 1.143-.187 1.526-.56.382-.383.574-.873.574-1.47s-.192-1.083-.574-1.456c-.383-.383-.892-.574-1.526-.574-.635 0-1.144.191-1.526.574Zm6.359 1.456c0-.448.098-.915.294-1.4.205-.495.401-.882.588-1.162.196-.29.462-.649.798-1.078l2.24-2.94h1.89l-2.114 2.758-.616.532v.07l.28-.098c.28-.075.583-.112.91-.112.915 0 1.69.331 2.324.994.644.653.966 1.465.966 2.436 0 .99-.355 1.82-1.064 2.492-.71.672-1.615 1.008-2.716 1.008-1.101 0-2.007-.336-2.716-1.008-.71-.672-1.064-1.503-1.064-2.492Zm2.254-1.456c-.383.373-.574.859-.574 1.456s.191 1.087.574 1.47c.383.373.891.56 1.526.56s1.143-.187 1.526-.56c.383-.383.574-.873.574-1.47s-.191-1.083-.574-1.456c-.383-.383-.891-.574-1.526-.574s-1.143.191-1.526.574Z" fill="#333"/><path d="m346.75 609.25-105.457.152-.042 11.348H346.75v-11.5Zm19-537-257.396.152-.102 11.348H365.75v-11.5Zm-19 555-105.457.152-.042 11.348H346.75v-11.5Z" stroke="#5A5A5A" stroke-width=".5" stroke-miterlimit="10"/><path stroke="#5A5A5A" d="m91.257 67.429-25 15"/><path d="M96.75.25 15.282.313l-.03 4.437H96.75V.25Z" stroke="#5A5A5A" stroke-width=".5" stroke-miterlimit="10"/><path fill="#5A5A5A" d="M113 0h5v74h-5zM10 0h5v74h-5z"/><path fill="#5A5A5A" d="M29 0v5H10V0zm86 0v5H96V0z"/><path d="m63.75 54.25-60.476.063-.023 4.437H63.75v-4.5Zm0 10-60.476.063-.023 4.437H63.75v-4.5Z" stroke="#5A5A5A" stroke-width=".5" stroke-miterlimit="10"/><path d="m334.476 329.265 1.181.016 3.066-.016h7.591v9.957h-11.838c-3.017 0-5.476-2.243-5.476-4.995 0-2.718 2.459-4.962 5.476-4.962Z" fill="#fff" stroke="#5A5A5A" stroke-width=".5"/><path d="M334.542 330.411h8.493v7.681h-7.559l-.934-.016c-2.378 0-4.312-1.704-4.312-3.833.016-2.112 1.951-3.832 4.312-3.832Zm18.134 10.613h-5.263a1.099 1.099 0 0 1-1.099-1.098v-11.283c0-.606.492-1.098 1.099-1.098h5.263c.606 0 1.098.492 1.098 1.098v11.267c0 .622-.492 1.114-1.098 1.114Z" fill="#fff" stroke="#5A5A5A" stroke-width=".5"/><path d="M350.052 334.931c-.41 0-.721-.294-.721-.638-.017-.361.311-.655.721-.655s.722.294.722.638a.683.683 0 0 1-.722.655Zm2.253 55.759h-12.308c-.856 0-1.54-.683-1.54-1.538v-18.519c0-.855.684-1.539 1.54-1.539h12.308c.856 0 1.54.684 1.54 1.539v18.519c0 .84-.684 1.538-1.54 1.538Z" fill="#fff" stroke="#5A5A5A" stroke-width=".5"/><path d="M347.613 388.767h-1.897a4.52 4.52 0 0 1-4.521-4.516v-8.718a4.52 4.52 0 0 1 4.521-4.516h1.897a4.52 4.52 0 0 1 4.521 4.516v8.718a4.52 4.52 0 0 1-4.521 4.516Z" fill="#fff" stroke="#5A5A5A" stroke-width=".5"/><path d="M349.724 380.847c-.544 0-.984-.427-.984-.954 0-.527.44-.955.984-.955.543 0 .984.428.984.955 0 .527-.441.954-.984.954Zm2.782 21.542h-60.12a1.38 1.38 0 0 0-1.386 1.384v23.867a1.38 1.38 0 0 0 1.386 1.384h60.12a1.38 1.38 0 0 0 1.386-1.384v-23.867c0-.769-.63-1.384-1.386-1.384Z" fill="#fff" stroke="#5A5A5A" stroke-width=".5"/><path d="M294.696 412.47v6.488a6.797 6.797 0 0 0 6.803 6.795h47.34a1.66 1.66 0 0 0 1.666-1.664v-16.778a1.66 1.66 0 0 0-1.666-1.664h-47.326c-3.766.014-6.817 3.062-6.817 6.823Z" fill="#fff" stroke="#5A5A5A" stroke-width=".5"/><path d="M344.892 415.238c0-.749.633-1.356 1.414-1.356.78 0 1.413.607 1.413 1.356 0 .749-.633 1.356-1.413 1.356-.781 0-1.414-.607-1.414-1.356ZM291 334.024v-22.01l21.587-.014-.014 22.01-21.573.014Z" fill="#fff" stroke="#5A5A5A" stroke-width=".5"/><path d="M307.33 323.005c0-3.114-2.474-5.628-5.536-5.628-3.062 0-5.537 2.514-5.537 5.642 0 3.114 2.475 5.656 5.537 5.656 3.062-.014 5.536-2.556 5.536-5.67Z" stroke="#5A5A5A" stroke-width=".5"/><path d="M301.794 327.125a3.874 3.874 0 0 0 2.852-1.201 4.267 4.267 0 0 0 1.188-2.905m-4.026-4.134c1.104 0 2.111.461 2.852 1.201a4.186 4.186 0 0 1 1.188 2.919l-4.04-4.12Zm-.014 8.24a4.034 4.034 0 0 1-2.853-1.201 4.2 4.2 0 0 1-1.174-2.919l4.027 4.12Zm.014-8.24c-1.133 0-2.14.461-2.853 1.201l-.014.014a4.167 4.167 0 0 0-1.174 2.891l4.041-4.106Z" stroke="#5A5A5A" stroke-width=".5"/><path d="m36.298 307.759-1.18-.017-3.067.017h-7.59v-9.958h11.837c3.017 0 5.476 2.244 5.476 4.995 0 2.719-2.46 4.963-5.476 4.963Z" fill="#fff" stroke="#5A5A5A" stroke-width=".5"/><path d="M36.232 306.612H27.74v-7.68h7.559l.934.016c2.378 0 4.312 1.703 4.312 3.832-.016 2.113-1.95 3.832-4.312 3.832ZM18.099 296h5.263c.606 0 1.098.491 1.098 1.097v11.284c0 .606-.492 1.097-1.098 1.097h-5.263A1.098 1.098 0 0 1 17 308.381v-11.267c0-.623.492-1.114 1.099-1.114Z" fill="#fff" stroke="#5A5A5A" stroke-width=".5"/><path d="M20.722 302.092c.41 0 .721.295.721.639.017.36-.311.655-.721.655s-.722-.295-.722-.639a.684.684 0 0 1 .722-.655Zm52.874 29.756V319.54c0-.855-.683-1.54-1.538-1.54h-18.52c-.854 0-1.538.685-1.538 1.54v12.308c0 .856.684 1.541 1.538 1.541h18.52c.84 0 1.538-.685 1.538-1.541Z" fill="#fff" stroke="#5A5A5A" stroke-width=".5"/><path d="M71.673 327.156v-1.897a4.52 4.52 0 0 0-4.516-4.521H58.44a4.52 4.52 0 0 0-4.516 4.521v1.897a4.52 4.52 0 0 0 4.516 4.521h8.718a4.52 4.52 0 0 0 4.516-4.521Z" fill="#fff" stroke="#5A5A5A" stroke-width=".5"/><path d="M63.753 329.267c0-.543-.427-.984-.954-.984-.527 0-.955.441-.955.984 0 .543.428.984.955.984.527 0 .954-.441.954-.984Z" fill="#fff" stroke="#5A5A5A" stroke-width=".5"/><path d="M153.42 187v-1.54l3.346-2.366c.728-.523 1.251-1.008 1.568-1.456.317-.448.476-.924.476-1.428 0-.532-.163-.957-.49-1.274-.327-.317-.77-.476-1.33-.476-.691 0-1.209.28-1.554.84a2.851 2.851 0 0 0-.336.84h-1.68a4.332 4.332 0 0 1 .546-1.61c.663-1.073 1.671-1.61 3.024-1.61 1.036 0 1.876.308 2.52.924.653.607.98 1.372.98 2.296 0 .803-.205 1.526-.616 2.17-.411.635-1.069 1.265-1.974 1.89l-1.4.98-.63.28v.07l.84-.07h3.78V187h-7.07Zm8.193-6.58c0-.989.354-1.82 1.064-2.492.709-.672 1.614-1.008 2.716-1.008 1.101 0 2.006.336 2.716 1.008.709.672 1.064 1.503 1.064 2.492 0 .887-.369 1.843-1.106 2.87l-.308.42c-.131.168-.22.285-.266.35l-2.24 2.94h-1.89l2.114-2.758.616-.532v-.07a7.65 7.65 0 0 1-.28.112 3.583 3.583 0 0 1-.91.098 3.163 3.163 0 0 1-2.338-.98c-.635-.663-.952-1.479-.952-2.45Zm2.254-1.456c-.383.373-.574.859-.574 1.456s.191 1.087.574 1.47c.382.373.891.56 1.526.56.634 0 1.143-.187 1.526-.56.382-.383.574-.873.574-1.47s-.192-1.083-.574-1.456c-.383-.383-.892-.574-1.526-.574-.635 0-1.144.191-1.526.574Zm6.359 7.266c0-.28.089-.513.266-.7a.932.932 0 0 1 .686-.28c.308 0 .551.112.728.336.187.224.28.555.28.994 0 .719-.173 1.269-.518 1.652-.336.392-.793.588-1.372.588v-.7c.28 0 .499-.079.658-.238a.765.765 0 0 0 .252-.602v-.084c-.009-.009-.014-.028-.014-.056v-.042l-.084.028a.743.743 0 0 1-.182.014c-.187 0-.35-.084-.49-.252-.14-.168-.21-.387-.21-.658Zm2.866-5.81v-1.82l1.82-1.4h1.47v9.8h-1.61v-7.84l-1.68 1.26Zm4.481 4.62v-1.54l3.29-6.3h1.75l-3.29 6.3h3.22v-2.38h1.61v2.38h1.4v1.54h-1.4V187h-1.61v-1.96h-4.97Zm96.777-13.62v-1.82l1.82-1.4h1.47v9.8h-1.61v-7.84l-1.68 1.26Zm4.831 0c0-.989.355-1.82 1.064-2.492.709-.672 1.615-1.008 2.716-1.008 1.101 0 2.007.336 2.716 1.008.709.672 1.064 1.503 1.064 2.492 0 .887-.369 1.843-1.106 2.87l-.308.42a13.42 13.42 0 0 0-.266.35l-2.24 2.94h-1.89l2.114-2.758.616-.532v-.07a7.65 7.65 0 0 1-.28.112 3.583 3.583 0 0 1-.91.098 3.163 3.163 0 0 1-2.338-.98c-.635-.663-.952-1.479-.952-2.45Zm2.254-1.456c-.383.373-.574.859-.574 1.456s.191 1.087.574 1.47c.383.373.891.56 1.526.56s1.143-.187 1.526-.56c.383-.383.574-.873.574-1.47s-.191-1.083-.574-1.456c-.383-.383-.891-.574-1.526-.574s-1.143.191-1.526.574Zm6.359 7.266c0-.28.089-.513.266-.7a.933.933 0 0 1 .686-.28c.308 0 .551.112.728.336.187.224.28.555.28.994 0 .719-.172 1.269-.518 1.652-.336.392-.793.588-1.372.588v-.7c.28 0 .5-.079.658-.238a.765.765 0 0 0 .252-.602v-.084c-.009-.009-.014-.028-.014-.056v-.042l-.084.028a.738.738 0 0 1-.182.014c-.186 0-.35-.084-.49-.252-.14-.168-.21-.387-.21-.658Zm3.007-2.45c0-.448.098-.915.294-1.4.205-.495.401-.882.588-1.162.196-.289.462-.649.798-1.078l2.24-2.94h1.89l-2.114 2.758-.616.532v.07l.28-.098c.28-.075.583-.112.91-.112.914 0 1.689.331 2.324.994.644.653.966 1.465.966 2.436 0 .989-.355 1.82-1.064 2.492-.71.672-1.615 1.008-2.716 1.008-1.102 0-2.007-.336-2.716-1.008-.71-.672-1.064-1.503-1.064-2.492Zm2.254-1.456c-.383.373-.574.859-.574 1.456s.191 1.087.574 1.47c.382.373.891.56 1.526.56.634 0 1.143-.187 1.526-.56.382-.383.574-.873.574-1.47s-.192-1.083-.574-1.456c-.383-.383-.892-.574-1.526-.574-.635 0-1.144.191-1.526.574Zm6.429 2.016c0-.849.326-1.526.98-2.03a3.15 3.15 0 0 1 .98-.448v-.084a2.556 2.556 0 0 1-.77-.462c-.514-.439-.77-1.017-.77-1.736 0-.737.312-1.363.938-1.876.634-.523 1.488-.784 2.562-.784 1.073 0 1.922.261 2.548.784.634.513.952 1.139.952 1.876 0 .7-.257 1.279-.77 1.736-.243.196-.5.35-.77.462v.084c.354.093.681.247.98.462.653.504.98 1.176.98 2.016 0 .812-.355 1.507-1.064 2.086-.7.569-1.652.854-2.856.854s-2.161-.285-2.87-.854c-.7-.579-1.05-1.274-1.05-2.086Zm2.1-4.62c0 .411.158.747.476 1.008.317.261.765.392 1.344.392.578 0 1.026-.131 1.344-.392.317-.261.476-.597.476-1.008 0-.373-.164-.686-.49-.938-.318-.261-.761-.392-1.33-.392-.57 0-1.018.131-1.344.392-.318.252-.476.565-.476.938Zm.168 3.346c-.392.308-.588.686-.588 1.134 0 .448.196.831.588 1.148.401.308.952.462 1.652.462s1.246-.154 1.638-.462c.401-.317.602-.7.602-1.148 0-.448-.201-.826-.602-1.134-.392-.317-.938-.476-1.638-.476s-1.251.159-1.652.476ZM278.35 498.42v-1.82l1.82-1.4h1.47v9.8h-1.61v-7.84l-1.68 1.26Zm4.831 3.85h1.68c.075.289.201.537.378.742.411.485 1.008.728 1.792.728.625 0 1.12-.168 1.484-.504.364-.336.546-.775.546-1.316 0-.569-.182-1.027-.546-1.372-.364-.345-.859-.518-1.484-.518-.579 0-1.069.154-1.47.462a1.916 1.916 0 0 0-.42.448h-1.54l.42-5.74h5.95v1.54h-4.62l-.21 2.52h.07c.149-.149.322-.275.518-.378.439-.261.966-.392 1.582-.392.98 0 1.797.327 2.45.98.653.653.98 1.47.98 2.45 0 .961-.345 1.764-1.036 2.408-.681.635-1.573.952-2.674.952-1.437 0-2.506-.499-3.206-1.498a4.417 4.417 0 0 1-.644-1.512Zm8.613 1.96c0-.28.089-.513.266-.7a.933.933 0 0 1 .686-.28c.308 0 .551.112.728.336.187.224.28.555.28.994 0 .719-.172 1.269-.518 1.652-.336.392-.793.588-1.372.588v-.7c.28 0 .5-.079.658-.238a.765.765 0 0 0 .252-.602v-.084c-.009-.009-.014-.028-.014-.056v-.042l-.084.028a.738.738 0 0 1-.182.014c-.186 0-.35-.084-.49-.252-.14-.168-.21-.387-.21-.658Zm2.937.77v-1.54l3.346-2.366c.728-.523 1.25-1.008 1.568-1.456.317-.448.476-.924.476-1.428 0-.532-.164-.957-.49-1.274-.327-.317-.77-.476-1.33-.476-.691 0-1.209.28-1.554.84-.15.243-.262.523-.336.84h-1.68a4.332 4.332 0 0 1 .546-1.61c.662-1.073 1.67-1.61 3.024-1.61 1.036 0 1.876.308 2.52.924.653.607.98 1.372.98 2.296 0 .803-.206 1.526-.616 2.17-.411.635-1.069 1.265-1.974 1.89l-1.4.98-.63.28v.07l.84-.07h3.78V505h-7.07Zm8.192-2.73h1.68c.075.289.201.537.378.742.411.485 1.008.728 1.792.728.626 0 1.12-.168 1.484-.504.364-.336.546-.775.546-1.316 0-.569-.182-1.027-.546-1.372-.364-.345-.858-.518-1.484-.518-.578 0-1.068.154-1.47.462a1.958 1.958 0 0 0-.42.448h-1.54l.42-5.74h5.95v1.54h-4.62l-.21 2.52h.07c.15-.149.322-.275.518-.378.439-.261.966-.392 1.582-.392.98 0 1.797.327 2.45.98.654.653.98 1.47.98 2.45 0 .961-.345 1.764-1.036 2.408-.681.635-1.572.952-2.674.952-1.437 0-2.506-.499-3.206-1.498a4.436 4.436 0 0 1-.644-1.512ZM161.35 353.42v-1.82l1.82-1.4h1.47v9.8h-1.61v-7.84l-1.68 1.26Zm4.621 0v-1.82l1.82-1.4h1.47v9.8h-1.61v-7.84l-1.68 1.26Zm4.831 5.81c0-.28.089-.513.266-.7a.933.933 0 0 1 .686-.28c.308 0 .551.112.728.336.187.224.28.555.28.994 0 .719-.172 1.269-.518 1.652-.336.392-.793.588-1.372.588v-.7c.28 0 .5-.079.658-.238a.765.765 0 0 0 .252-.602v-.084c-.009-.009-.014-.028-.014-.056v-.042l-.084.028a.738.738 0 0 1-.182.014c-.186 0-.35-.084-.49-.252-.14-.168-.21-.387-.21-.658Zm2.726-1.19v-1.54l3.29-6.3h1.75l-3.29 6.3h3.22v-2.38h1.61v2.38h1.4v1.54h-1.4V360h-1.61v-1.96h-4.97Zm8.54-.77h1.68c.074.289.2.537.378.742.41.485 1.008.728 1.792.728.625 0 1.12-.168 1.484-.504.364-.336.546-.775.546-1.316 0-.569-.182-1.027-.546-1.372-.364-.345-.859-.518-1.484-.518-.579 0-1.069.154-1.47.462a1.916 1.916 0 0 0-.42.448h-1.54l.42-5.74h5.95v1.54h-4.62l-.21 2.52h.07c.149-.149.322-.275.518-.378.438-.261.966-.392 1.582-.392.98 0 1.796.327 2.45.98.653.653.98 1.47.98 2.45 0 .961-.346 1.764-1.036 2.408-.682.635-1.573.952-2.674.952-1.438 0-2.506-.499-3.206-1.498a4.397 4.397 0 0 1-.644-1.512ZM67.21 296.04v-1.54l3.29-6.3h1.75l-3.29 6.3h3.22v-2.38h1.61v2.38h1.4v1.54h-1.4V298h-1.61v-1.96h-4.97Zm8.54 1.19c0-.28.088-.513.266-.7a.931.931 0 0 1 .685-.28c.309 0 .551.112.729.336.186.224.28.555.28.994 0 .719-.173 1.269-.518 1.652-.336.392-.794.588-1.372.588v-.7c.28 0 .499-.079.658-.238a.765.765 0 0 0 .252-.602v-.084c-.01-.009-.014-.028-.014-.056v-.042l-.084.028a.742.742 0 0 1-.183.014c-.186 0-.35-.084-.49-.252-.14-.168-.21-.387-.21-.658Zm2.936.77v-1.54l3.346-2.366c.728-.523 1.25-1.008 1.568-1.456.317-.448.476-.924.476-1.428 0-.532-.164-.957-.49-1.274-.327-.317-.77-.476-1.33-.476-.691 0-1.209.28-1.554.84-.15.243-.262.523-.336.84h-1.68a4.332 4.332 0 0 1 .546-1.61c.662-1.073 1.67-1.61 3.024-1.61 1.036 0 1.876.308 2.52.924.653.607.98 1.372.98 2.296a3.95 3.95 0 0 1-.616 2.17c-.411.635-1.069 1.265-1.974 1.89l-1.4.98-.63.28v.07l.84-.07h3.78V298h-7.07Zm8.122-3.22c0-.448.098-.915.294-1.4.206-.495.402-.882.588-1.162.196-.289.462-.649.798-1.078l2.24-2.94h1.89l-2.114 2.758-.616.532v.07l.28-.098c.28-.075.584-.112.91-.112.915 0 1.69.331 2.324.994.644.653.966 1.465.966 2.436 0 .989-.354 1.82-1.064 2.492-.709.672-1.614 1.008-2.716 1.008-1.101 0-2.006-.336-2.716-1.008-.709-.672-1.064-1.503-1.064-2.492Zm2.254-1.456c-.382.373-.574.859-.574 1.456s.192 1.087.574 1.47c.383.373.892.56 1.526.56.635 0 1.144-.187 1.526-.56.383-.383.574-.873.574-1.47s-.191-1.083-.574-1.456c-.382-.383-.891-.574-1.526-.574-.634 0-1.143.191-1.526.574ZM308.49 359.78c0-.448.098-.915.294-1.4.205-.495.401-.882.588-1.162.196-.289.462-.649.798-1.078l2.24-2.94h1.89l-2.114 2.758-.616.532v.07l.28-.098c.28-.075.583-.112.91-.112.915 0 1.689.331 2.324.994.644.653.966 1.465.966 2.436 0 .989-.355 1.82-1.064 2.492-.709.672-1.615 1.008-2.716 1.008-1.101 0-2.007-.336-2.716-1.008-.709-.672-1.064-1.503-1.064-2.492Zm2.254-1.456c-.383.373-.574.859-.574 1.456s.191 1.087.574 1.47c.383.373.891.56 1.526.56s1.143-.187 1.526-.56c.383-.383.574-.873.574-1.47s-.191-1.083-.574-1.456c-.383-.383-.891-.574-1.526-.574s-1.143.191-1.526.574Zm6.429 3.906c0-.28.089-.513.266-.7a.933.933 0 0 1 .686-.28c.308 0 .551.112.728.336.187.224.28.555.28.994 0 .719-.172 1.269-.518 1.652-.336.392-.793.588-1.372.588v-.7c.28 0 .5-.079.658-.238a.765.765 0 0 0 .252-.602v-.084c-.009-.009-.014-.028-.014-.056v-.042l-.084.028a.738.738 0 0 1-.182.014c-.186 0-.35-.084-.49-.252-.14-.168-.21-.387-.21-.658Zm2.866-5.81v-1.82l1.82-1.4h1.47v9.8h-1.61v-7.84l-1.68 1.26Zm4.832 0c0-.989.354-1.82 1.064-2.492.709-.672 1.614-1.008 2.716-1.008 1.101 0 2.006.336 2.716 1.008.709.672 1.064 1.503 1.064 2.492 0 .887-.369 1.843-1.106 2.87l-.308.42c-.131.168-.22.285-.266.35l-2.24 2.94h-1.89l2.114-2.758.616-.532v-.07a7.65 7.65 0 0 1-.28.112 3.583 3.583 0 0 1-.91.098 3.163 3.163 0 0 1-2.338-.98c-.635-.663-.952-1.479-.952-2.45Zm2.254-1.456c-.383.373-.574.859-.574 1.456s.191 1.087.574 1.47c.382.373.891.56 1.526.56.634 0 1.143-.187 1.526-.56.382-.383.574-.873.574-1.47s-.192-1.083-.574-1.456c-.383-.383-.892-.574-1.526-.574-.635 0-1.144.191-1.526.574Z" fill="#333"/></svg>