<svg width="343" height="605" fill="none" xmlns="http://www.w3.org/2000/svg"><path fill="#FFF8BA" d="M82 82h225v507H82z"/><path d="M307 591v-72H203v72h104Zm.497-297H252v103.871h55.497V294Z" fill="#FFC79F"/><path stroke="#5A5A5A" d="m342.433 438.25-20 34.604m-61.215 26.596-26 12.603m53-93.899-26-12.604"/><path d="m197.25 414.25.025 33.488 1.475.01V414.25h-1.5Zm0 56 .025 33.488 1.475.01V470.25h-1.5Zm-2-28 .025 33.488 1.475.01V442.25h-1.5Zm90.5-390-183.426.152-.072 11.348H285.75v-11.5Zm-202 406.5-.152-319.371-11.348-.126V458.75h11.5Zm202-388.5-183.426.152-.072 11.348H285.75v-11.5Zm-220 388.5-.152-319.371-11.348-.126V458.75h11.5Zm1.362 117.21-3.028.04v-97h3.067l-.039 96.96Z" stroke="#5A5A5A" stroke-width=".5" stroke-miterlimit="10"/><path d="m64.084 576-2.989-.04-.039-96.96h3.028v97Z" stroke="#5A5A5A" stroke-width=".5" stroke-miterlimit="10"/><path fill="#5A5A5A" d="M54 52h30v99H54z"/><path fill="#5A5A5A" d="M106 52v30H76V52zm103 0v30h-45V52zm114 0v30h-50V52zM84 605v-16h239v16z"/><path fill="#5A5A5A" d="M307 53h16v381h-16zm0 419h16v133h-16zm0 39v8h-44v-8zm-71 0v8h-35v-8zm27-113v8h-68v-8z"/><path fill="#5A5A5A" d="M316 286v8h-68v-8zm4 112v8h-30v-8zm-117 20h-8v-20h8z"/><path fill="#5A5A5A" d="M254 400h-8V286h8z"/><path stroke="#5A5A5A" d="m82.438 514.758-16-29"/><path d="m.25 563.75.063-85.466 4.437-.032v85.498H.25Zm54 9 .063-59.477 4.437-.022v59.499h-4.5Zm10 0 .063-59.477 4.437-.022v59.499h-4.5Z" stroke="#5A5A5A" stroke-width=".5" stroke-miterlimit="10"/><path fill="#5A5A5A" d="M0 562v5h74v-5zm0-101v5h74v-5z"/><path fill="#5A5A5A" d="M0 549h5v-88H0z"/><path fill="#5A5A5A" d="M0 564h5v-19H0z"/><path stroke="#5A5A5A" d="m134.242 82.438 29-16"/><path d="m85.25.25 85.466.063.032 4.437H85.25V.25Zm-9 54 59.477.063.022 4.437H76.25v-4.5Zm0 10 59.477.063.022 4.437H76.25v-4.5Z" stroke="#5A5A5A" stroke-width=".5" stroke-miterlimit="10"/><path fill="#5A5A5A" d="M87 0h-5v74h5zm101 0h-5v74h5z"/><path fill="#5A5A5A" d="M169 0v5h19V0zM85 0v5h19V0zm118 591h-8v-92h8zM54 205h30v138H54zm0 201h30v80H54zm0 138h30v61H54zM246 82h2v6h-2zm0 11h2v11h-2zm0 17h2v11h-2zm0 17h2v11h-2zm0 17h2v11h-2zm0 17h2v11h-2zm0 17h2v11h-2zm0 17h2v11h-2zm0 17h2v11h-2zm0 17h2v11h-2zm0 17h2v11h-2zm0 17h2v11h-2zm0 17h2v6h-2z"/><path d="M306.995 244.137H282v-24.325h24.995v24.325Z" fill="#fff" stroke="#5A5A5A" stroke-width=".5"/><path d="M284.027 243.211h19.453c.737 0 1.13-.393 1.13-1.162v-20.148c0-.785-.377-1.162-1.13-1.162h-19.453c-.754-.016-1.131.377-1.131 1.146v20.148c-.016.785.377 1.178 1.131 1.178Z" fill="#fff" stroke="#5A5A5A" stroke-width=".5"/><path d="M285.816 236.709c.015-1.79 1.428-3.25 3.171-3.25 1.759 0 3.172 1.46 3.172 3.25 0 1.806-1.413 3.251-3.172 3.251-1.758 0-3.171-1.445-3.171-3.251Zm.03-9.626c.016-1.79 1.429-3.25 3.171-3.25 1.759 0 3.172 1.46 3.172 3.25 0 1.806-1.413 3.251-3.172 3.251-1.758.016-3.187-1.445-3.171-3.251Zm9.013 0c0-1.806 1.414-3.25 3.172-3.25 1.758 0 3.172 1.46 3.172 3.25-.016 1.791-1.429 3.251-3.172 3.251s-3.172-1.46-3.172-3.251Zm0 9.626c0-1.806 1.414-3.25 3.172-3.25 1.758 0 3.172 1.46 3.172 3.25-.016 1.79-1.429 3.251-3.172 3.251s-3.172-1.461-3.172-3.251Z" stroke="#5A5A5A" stroke-width=".5"/><path d="M275.699 286.089V262H252v24.104l23.699-.015Z" fill="#fff" stroke="#5A5A5A" stroke-width=".5"/><path d="M273.896 279.482v-13.316c0-.743-.364-1.106-1.121-1.106h-17.608c-.727 0-1.106.363-1.121 1.09l.015 13.332c-.015.728.364 1.091 1.106 1.091h17.608c.742.03 1.121-.348 1.121-1.091Z" fill="#fff" stroke="#5A5A5A" stroke-width=".5"/><path d="M263.971 284.24c-.924-.015-1.667-.712-1.667-1.591l.652-6.984.015-.015c0-.53.439-.954 1-.954.561 0 1 .424 1.015.969l.652 6.984c0 .864-.743 1.576-1.667 1.591Z" stroke="#5A5A5A" stroke-width=".5"/><mask id="a" fill="#fff"><path fill-rule="evenodd" clip-rule="evenodd" d="m262.592 283.558.363-3.803a.988.988 0 0 1 1.031-.954.98.98 0 0 1 1 .954l.364 3.803"/></mask><path fill-rule="evenodd" clip-rule="evenodd" d="m262.592 283.558.363-3.803a.988.988 0 0 1 1.031-.954.98.98 0 0 1 1 .954l.364 3.803" fill="#fff"/><path d="m262.955 279.755.5.014v.017l-.002.017-.498-.048Zm1.031-.954v.5l-.013-.001.013-.499Zm1 .954-.498.048-.001-.017-.001-.017.5-.014Zm-2.892 3.755.364-3.803.995.096-.363 3.802-.996-.095Zm.362-3.769a1.487 1.487 0 0 1 1.543-1.44l-.026.999a.49.49 0 0 0-.518.469l-.999-.028Zm1.53-1.44a1.48 1.48 0 0 1 1.5 1.44l-1 .028a.48.48 0 0 0-.5-.468v-1Zm1.498 1.406.363 3.803-.995.095-.364-3.802.996-.096Z" fill="#5A5A5A" mask="url(#a)"/><path d="m285.759 313.298-.017-1.181.017-3.066v-7.591h-9.958v11.838c0 3.017 2.244 5.476 4.995 5.476 2.719 0 4.963-2.459 4.963-5.476Z" fill="#fff" stroke="#5A5A5A" stroke-width=".5"/><path d="M284.612 313.232v-8.493h-7.681v7.559l.017.934c0 2.378 1.703 4.312 3.832 4.312 2.113-.016 3.832-1.951 3.832-4.312ZM274 295.099v5.263c0 .606.491 1.098 1.097 1.098h11.284c.606 0 1.097-.492 1.097-1.098v-5.263c0-.607-.491-1.099-1.097-1.099h-11.267c-.623 0-1.114.492-1.114 1.099Z" fill="#fff" stroke="#5A5A5A" stroke-width=".5"/><path d="M280.092 297.722c0 .41.295.721.639.721.36.017.655-.311.655-.721s-.295-.721-.639-.721a.684.684 0 0 0-.655.721Zm25.756 58.874H293.54c-.856 0-1.54-.683-1.54-1.538v-18.519c0-.855.684-1.539 1.54-1.539h12.308c.856 0 1.541.684 1.541 1.539v18.519c0 .84-.685 1.538-1.541 1.538Z" fill="#fff" stroke="#5A5A5A" stroke-width=".5"/><path d="M301.156 354.673h-1.897a4.52 4.52 0 0 1-4.521-4.516v-8.718a4.52 4.52 0 0 1 4.521-4.516h1.897a4.52 4.52 0 0 1 4.521 4.516v8.718a4.52 4.52 0 0 1-4.521 4.516Z" fill="#fff" stroke="#5A5A5A" stroke-width=".5"/><path d="M303.267 346.753c-.543 0-.984-.427-.984-.954 0-.527.441-.955.984-.955.543 0 .984.428.984.955 0 .527-.441.954-.984.954Zm-16.508 222.723-.017 1.181.017 3.066v7.591h-9.958v-11.838c0-3.017 2.244-5.476 4.995-5.476 2.719 0 4.963 2.459 4.963 5.476Z" fill="#fff" stroke="#5A5A5A" stroke-width=".5"/><path d="M285.612 569.542v8.493h-7.681v-7.559l.017-.934c0-2.378 1.703-4.312 3.832-4.312 2.113.016 3.832 1.951 3.832 4.312ZM275 587.676v-5.264c0-.606.491-1.098 1.097-1.098h11.284c.606 0 1.097.492 1.097 1.098v5.264c0 .606-.491 1.098-1.097 1.098h-11.267a1.101 1.101 0 0 1-1.114-1.098Z" fill="#fff" stroke="#5A5A5A" stroke-width=".5"/><path d="M281.092 585.052c0-.41.295-.721.639-.721.36-.017.655.311.655.721s-.295.722-.639.722a.685.685 0 0 1-.655-.722Zm-36.759 2.253v-12.308c0-.856.684-1.54 1.539-1.54h18.519c.855 0 1.539.684 1.539 1.54v12.308c0 .856-.684 1.54-1.539 1.54h-18.519a1.542 1.542 0 0 1-1.539-1.54Z" fill="#fff" stroke="#5A5A5A" stroke-width=".5"/><path d="M246.256 582.613v-1.897a4.52 4.52 0 0 1 4.516-4.521h8.718a4.52 4.52 0 0 1 4.516 4.521v1.897a4.52 4.52 0 0 1-4.516 4.521h-8.718a4.52 4.52 0 0 1-4.516-4.521Z" fill="#fff" stroke="#5A5A5A" stroke-width=".5"/><path d="M254.177 584.724c0-.544.427-.984.954-.984.527 0 .954.44.954.984 0 .543-.427.984-.954.984-.527 0-.954-.441-.954-.984Zm-24.542 2.782v-60.12a1.38 1.38 0 0 0-1.384-1.386h-23.867a1.38 1.38 0 0 0-1.385 1.386v60.12c0 .77.616 1.386 1.385 1.386h23.867c.769 0 1.384-.63 1.384-1.386Z" fill="#fff" stroke="#5A5A5A" stroke-width=".5"/><path d="M219.554 529.696h-6.488a6.797 6.797 0 0 0-6.795 6.803v47.34a1.66 1.66 0 0 0 1.664 1.666h16.778a1.66 1.66 0 0 0 1.664-1.666v-47.326c-.014-3.766-3.062-6.817-6.823-6.817Z" fill="#fff" stroke="#5A5A5A" stroke-width=".5"/><path d="M216.786 579.892c.749 0 1.356.633 1.356 1.414 0 .78-.607 1.413-1.356 1.413-.749 0-1.357-.633-1.357-1.413 0-.781.608-1.414 1.357-1.414ZM285 519h22.01l.014 21.587-22.01-.014L285 519Z" fill="#fff" stroke="#5A5A5A" stroke-width=".5"/><path d="M296.019 535.33c3.114 0 5.628-2.474 5.628-5.536 0-3.062-2.514-5.537-5.642-5.537-3.115 0-5.656 2.475-5.656 5.537.014 3.062 2.555 5.536 5.67 5.536Z" stroke="#5A5A5A" stroke-width=".5"/><path d="M291.899 529.794a3.874 3.874 0 0 0 1.201 2.852 4.265 4.265 0 0 0 2.905 1.188m4.134-4.026a4.033 4.033 0 0 1-1.201 2.852 4.188 4.188 0 0 1-2.919 1.188l4.12-4.04Zm-8.24-.014c0-1.105.461-2.111 1.201-2.852a4.194 4.194 0 0 1 2.919-1.175l-4.12 4.027Zm8.24.014a3.938 3.938 0 0 0-1.201-2.853l-.014-.013a4.166 4.166 0 0 0-2.891-1.175l4.106 4.041Z" stroke="#5A5A5A" stroke-width=".5"/><circle cx="161.5" cy="218.5" r="39.5" fill="#5A5A5A"/><path d="M138.72 222.58c0-1.092.42-1.962 1.26-2.61.36-.252.78-.444 1.26-.576v-.108a3.296 3.296 0 0 1-.99-.594c-.66-.564-.99-1.308-.99-2.232 0-.948.402-1.752 1.206-2.412.816-.672 1.914-1.008 3.294-1.008 1.38 0 2.472.336 3.276 1.008.816.66 1.224 1.464 1.224 2.412 0 .9-.33 1.644-.99 2.232-.312.252-.642.45-.99.594v.108c.456.12.876.318 1.26.594.84.648 1.26 1.512 1.26 2.592 0 1.044-.456 1.938-1.368 2.682-.9.732-2.124 1.098-3.672 1.098s-2.778-.366-3.69-1.098c-.9-.744-1.35-1.638-1.35-2.682Zm2.7-5.94c0 .528.204.96.612 1.296.408.336.984.504 1.728.504s1.32-.168 1.728-.504c.408-.336.612-.768.612-1.296 0-.48-.21-.882-.63-1.206-.408-.336-.978-.504-1.71-.504s-1.308.168-1.728.504c-.408.324-.612.726-.612 1.206Zm.216 4.302c-.504.396-.756.882-.756 1.458s.252 1.068.756 1.476c.516.396 1.224.594 2.124.594.9 0 1.602-.198 2.106-.594.516-.408.774-.9.774-1.476s-.258-1.062-.774-1.458c-.504-.408-1.206-.612-2.106-.612-.9 0-1.608.204-2.124.612Zm8.058-5.562v-1.98h8.55v1.98l-5.04 10.62h-2.25l4.95-10.44v-.18h-6.21Zm7.835 9.63c0-.36.114-.66.342-.9a1.2 1.2 0 0 1 .882-.36c.396 0 .708.144.936.432.24.288.36.714.36 1.278 0 .924-.222 1.632-.666 2.124-.432.504-1.02.756-1.764.756v-.9c.36 0 .642-.102.846-.306.216-.192.324-.45.324-.774v-.108c-.012-.012-.018-.036-.018-.072v-.054l-.108.036a.932.932 0 0 1-.234.018c-.24 0-.45-.108-.63-.324-.18-.216-.27-.498-.27-.846Zm3.775.99v-1.98l4.302-3.042c.936-.672 1.608-1.296 2.016-1.872.408-.576.612-1.188.612-1.836 0-.684-.21-1.23-.63-1.638-.42-.408-.99-.612-1.71-.612-.888 0-1.554.36-1.998 1.08a3.633 3.633 0 0 0-.432 1.08h-2.16a5.567 5.567 0 0 1 .702-2.07c.852-1.38 2.148-2.07 3.888-2.07 1.332 0 2.412.396 3.24 1.188.84.78 1.26 1.764 1.26 2.952 0 1.032-.264 1.962-.792 2.79-.528.816-1.374 1.626-2.538 2.43l-1.8 1.26-.81.36v.09l1.08-.09h4.86V226h-9.09Zm10.443-4.14c0-.576.126-1.176.378-1.8.264-.636.516-1.134.756-1.494.252-.372.594-.834 1.026-1.386l2.88-3.78h2.43l-2.718 3.546-.792.684v.09l.36-.126a4.53 4.53 0 0 1 1.17-.144c1.176 0 2.172.426 2.988 1.278.828.84 1.242 1.884 1.242 3.132 0 1.272-.456 2.34-1.368 3.204-.912.864-2.076 1.296-3.492 1.296s-2.58-.432-3.492-1.296c-.912-.864-1.368-1.932-1.368-3.204Zm2.898-1.872c-.492.48-.738 1.104-.738 1.872s.246 1.398.738 1.89c.492.48 1.146.72 1.962.72.816 0 1.47-.24 1.962-.72.492-.492.738-1.122.738-1.89 0-.768-.246-1.392-.738-1.872-.492-.492-1.146-.738-1.962-.738-.816 0-1.47.246-1.962.738Z" fill="#fff"/><path d="M136.56 370.27h1.68c.075.289.201.537.378.742.411.485 1.008.728 1.792.728.625 0 1.12-.168 1.484-.504.364-.336.546-.775.546-1.316 0-.569-.182-1.027-.546-1.372-.364-.345-.859-.518-1.484-.518-.579 0-1.069.154-1.47.462a1.916 1.916 0 0 0-.42.448h-1.54l.42-5.74h5.95v1.54h-4.62l-.21 2.52h.07c.149-.149.322-.275.518-.378.439-.261.966-.392 1.582-.392.98 0 1.797.327 2.45.98.653.653.98 1.47.98 2.45 0 .961-.345 1.764-1.036 2.408-.681.635-1.573.952-2.674.952-1.437 0-2.506-.499-3.206-1.498a4.417 4.417 0 0 1-.644-1.512Zm7.769-5.53v-1.54h6.65v1.54l-3.92 8.26h-1.75l3.85-8.12v-.14h-4.83Zm6.094 7.49c0-.28.089-.513.266-.7a.933.933 0 0 1 .686-.28c.308 0 .551.112.728.336.187.224.28.555.28.994 0 .719-.172 1.269-.518 1.652-.336.392-.793.588-1.372.588v-.7c.28 0 .5-.079.658-.238a.765.765 0 0 0 .252-.602v-.084c-.009-.009-.014-.028-.014-.056v-.042l-.084.028a.738.738 0 0 1-.182.014c-.186 0-.35-.084-.49-.252-.14-.168-.21-.387-.21-.658Zm3.076-1.89c0-.849.327-1.526.98-2.03a3.16 3.16 0 0 1 .98-.448v-.084a2.568 2.568 0 0 1-.77-.462c-.513-.439-.77-1.017-.77-1.736 0-.737.313-1.363.938-1.876.635-.523 1.489-.784 2.562-.784 1.074 0 1.923.261 2.548.784.635.513.952 1.139.952 1.876 0 .7-.256 1.279-.77 1.736-.242.196-.499.35-.77.462v.084c.355.093.682.247.98.462.654.504.98 1.176.98 2.016 0 .812-.354 1.507-1.064 2.086-.7.569-1.652.854-2.856.854s-2.16-.285-2.87-.854c-.7-.579-1.05-1.274-1.05-2.086Zm2.1-4.62c0 .411.159.747.476 1.008.318.261.766.392 1.344.392.579 0 1.027-.131 1.344-.392.318-.261.476-.597.476-1.008 0-.373-.163-.686-.49-.938-.317-.261-.76-.392-1.33-.392-.569 0-1.017.131-1.344.392-.317.252-.476.565-.476.938Zm.168 3.346c-.392.308-.588.686-.588 1.134 0 .448.196.831.588 1.148.402.308.952.462 1.652.462s1.246-.154 1.638-.462c.402-.317.602-.7.602-1.148 0-.448-.2-.826-.602-1.134-.392-.317-.938-.476-1.638-.476s-1.25.159-1.652.476Zm6.338 1.974v-1.54l3.29-6.3h1.75l-3.29 6.3h3.22v-2.38h1.61v2.38h1.4v1.54h-1.4V373h-1.61v-1.96h-4.97ZM16.42 522.2h1.68c.065.289.191.546.378.77.42.513 1.017.77 1.792.77.644 0 1.153-.159 1.526-.476.383-.327.574-.728.574-1.204 0-.541-.173-.966-.518-1.274-.336-.317-.817-.476-1.442-.476h-2.38v-1.4l2.94-2.1v-.07h-4.06v-1.54h6.44v1.526l-2.52 1.834-.7.28v.07l.224-.028c.308-.028.49-.042.546-.042.877 0 1.61.303 2.198.91.588.607.882 1.377.882 2.31 0 .896-.345 1.657-1.036 2.282-.69.625-1.582.938-2.674.938-1.447 0-2.515-.513-3.206-1.54a4.406 4.406 0 0 1-.644-1.54Zm8.617 2.03c0-.28.088-.513.266-.7a.931.931 0 0 1 .686-.28c.308 0 .55.112.728.336.186.224.28.555.28.994 0 .719-.173 1.269-.518 1.652-.336.392-.794.588-1.372.588v-.7c.28 0 .499-.079.658-.238a.765.765 0 0 0 .252-.602v-.084c-.01-.009-.014-.028-.014-.056v-.042l-.084.028a.742.742 0 0 1-.182.014c-.187 0-.35-.084-.49-.252-.14-.168-.21-.387-.21-.658Zm3.006-2.45c0-.448.098-.915.294-1.4.205-.495.401-.882.588-1.162.196-.289.462-.649.798-1.078l2.24-2.94h1.89l-2.114 2.758-.616.532v.07l.28-.098c.28-.075.583-.112.91-.112.914 0 1.69.331 2.324.994.644.653.966 1.465.966 2.436 0 .989-.355 1.82-1.064 2.492-.71.672-1.615 1.008-2.716 1.008-1.102 0-2.007-.336-2.716-1.008-.71-.672-1.064-1.503-1.064-2.492Zm2.254-1.456c-.383.373-.574.859-.574 1.456s.191 1.087.574 1.47c.382.373.891.56 1.526.56.634 0 1.143-.187 1.526-.56.382-.383.574-.873.574-1.47s-.192-1.083-.574-1.456c-.383-.383-.892-.574-1.526-.574-.635 0-1.144.191-1.526.574Zm6.359 1.456c0-.448.098-.915.294-1.4.205-.495.401-.882.588-1.162.196-.289.462-.649.798-1.078l2.24-2.94h1.89l-2.114 2.758-.616.532v.07l.28-.098c.28-.075.583-.112.91-.112.915 0 1.69.331 2.324.994.644.653.966 1.465.966 2.436 0 .989-.355 1.82-1.064 2.492-.71.672-1.615 1.008-2.716 1.008-1.101 0-2.007-.336-2.716-1.008-.71-.672-1.064-1.503-1.064-2.492Zm2.254-1.456c-.383.373-.574.859-.574 1.456s.191 1.087.574 1.47c.383.373.891.56 1.526.56s1.143-.187 1.526-.56c.383-.383.574-.873.574-1.47s-.191-1.083-.574-1.456c-.383-.383-.891-.574-1.526-.574s-1.143.191-1.526.574Zm223.3-158.284v-1.54l3.29-6.3h1.75l-3.29 6.3h3.22v-2.38h1.61v2.38h1.4v1.54h-1.4V364h-1.61v-1.96h-4.97Zm8.539 1.19c0-.28.089-.513.266-.7a.933.933 0 0 1 .686-.28c.308 0 .551.112.728.336.187.224.28.555.28.994 0 .719-.172 1.269-.518 1.652-.336.392-.793.588-1.372.588v-.7c.28 0 .5-.079.658-.238a.765.765 0 0 0 .252-.602v-.084c-.009-.009-.014-.028-.014-.056v-.042l-.084.028a.738.738 0 0 1-.182.014c-.186 0-.35-.084-.49-.252-.14-.168-.21-.387-.21-.658Zm3.007-2.45c0-.448.098-.915.294-1.4.205-.495.401-.882.588-1.162.196-.289.462-.649.798-1.078l2.24-2.94h1.89l-2.114 2.758-.616.532v.07l.28-.098c.28-.075.583-.112.91-.112.914 0 1.689.331 2.324.994.644.653.966 1.465.966 2.436 0 .989-.355 1.82-1.064 2.492-.71.672-1.615 1.008-2.716 1.008-1.102 0-2.007-.336-2.716-1.008-.71-.672-1.064-1.503-1.064-2.492Zm2.254-1.456c-.383.373-.574.859-.574 1.456s.191 1.087.574 1.47c.382.373.891.56 1.526.56.634 0 1.143-.187 1.526-.56.382-.383.574-.873.574-1.47s-.192-1.083-.574-1.456c-.383-.383-.892-.574-1.526-.574-.635 0-1.144.191-1.526.574Zm6.359 1.456c0-.448.098-.915.294-1.4.205-.495.401-.882.588-1.162.196-.289.462-.649.798-1.078l2.24-2.94h1.89l-2.114 2.758-.616.532v.07l.28-.098c.28-.075.583-.112.91-.112.915 0 1.689.331 2.324.994.644.653.966 1.465.966 2.436 0 .989-.355 1.82-1.064 2.492-.709.672-1.615 1.008-2.716 1.008-1.101 0-2.007-.336-2.716-1.008-.709-.672-1.064-1.503-1.064-2.492Zm2.254-1.456c-.383.373-.574.859-.574 1.456s.191 1.087.574 1.47c.383.373.891.56 1.526.56s1.143-.187 1.526-.56c.383-.383.574-.873.574-1.47s-.191-1.083-.574-1.456c-.383-.383-.891-.574-1.526-.574s-1.143.191-1.526.574ZM262.56 193.42c0-.989.355-1.82 1.064-2.492.709-.672 1.615-1.008 2.716-1.008 1.101 0 2.007.336 2.716 1.008.709.672 1.064 1.503 1.064 2.492 0 .887-.369 1.843-1.106 2.87l-.308.42a13.42 13.42 0 0 0-.266.35L266.2 200h-1.89l2.114-2.758.616-.532v-.07a7.65 7.65 0 0 1-.28.112 3.583 3.583 0 0 1-.91.098 3.163 3.163 0 0 1-2.338-.98c-.635-.663-.952-1.479-.952-2.45Zm2.254-1.456c-.383.373-.574.859-.574 1.456s.191 1.087.574 1.47c.383.373.891.56 1.526.56s1.143-.187 1.526-.56c.383-.383.574-.873.574-1.47s-.191-1.083-.574-1.456c-.383-.383-.891-.574-1.526-.574s-1.143.191-1.526.574Zm6.359 7.266c0-.28.089-.513.266-.7a.933.933 0 0 1 .686-.28c.308 0 .551.112.728.336.187.224.28.555.28.994 0 .719-.172 1.269-.518 1.652-.336.392-.793.588-1.372.588v-.7c.28 0 .5-.079.658-.238a.765.765 0 0 0 .252-.602v-.084c-.009-.009-.014-.028-.014-.056v-.042l-.084.028a.738.738 0 0 1-.182.014c-.186 0-.35-.084-.49-.252-.14-.168-.21-.387-.21-.658Zm3.006-2.45c0-.448.098-.915.294-1.4.206-.495.402-.882.588-1.162.196-.289.462-.649.798-1.078l2.24-2.94h1.89l-2.114 2.758-.616.532v.07l.28-.098c.28-.075.584-.112.91-.112.915 0 1.69.331 2.324.994.644.653.966 1.465.966 2.436 0 .989-.354 1.82-1.064 2.492-.709.672-1.614 1.008-2.716 1.008-1.101 0-2.006-.336-2.716-1.008-.709-.672-1.064-1.503-1.064-2.492Zm2.254-1.456c-.382.373-.574.859-.574 1.456s.192 1.087.574 1.47c.383.373.892.56 1.526.56.635 0 1.144-.187 1.526-.56.383-.383.574-.873.574-1.47s-.191-1.083-.574-1.456c-.382-.383-.891-.574-1.526-.574-.634 0-1.143.191-1.526.574Zm6.43 2.016c0-.849.326-1.526.98-2.03a3.15 3.15 0 0 1 .98-.448v-.084a2.556 2.556 0 0 1-.77-.462c-.514-.439-.77-1.017-.77-1.736 0-.737.312-1.363.938-1.876.634-.523 1.488-.784 2.562-.784 1.073 0 1.922.261 2.548.784.634.513.952 1.139.952 1.876 0 .7-.257 1.279-.77 1.736-.243.196-.5.35-.77.462v.084c.354.093.681.247.98.462.653.504.98 1.176.98 2.016 0 .812-.355 1.507-1.064 2.086-.7.569-1.652.854-2.856.854s-2.161-.285-2.87-.854c-.7-.579-1.05-1.274-1.05-2.086Zm2.1-4.62c0 .411.158.747.476 1.008.317.261.765.392 1.344.392.578 0 1.026-.131 1.344-.392.317-.261.476-.597.476-1.008 0-.373-.164-.686-.49-.938-.318-.261-.761-.392-1.33-.392-.57 0-1.018.131-1.344.392-.318.252-.476.565-.476.938Zm.168 3.346c-.392.308-.588.686-.588 1.134 0 .448.196.831.588 1.148.401.308.952.462 1.652.462s1.246-.154 1.638-.462c.401-.317.602-.7.602-1.148 0-.448-.201-.826-.602-1.134-.392-.317-.938-.476-1.638-.476s-1.251.159-1.652.476ZM114.42 38.2h1.68a1.8 1.8 0 0 0 .378.77c.42.513 1.017.77 1.792.77.644 0 1.153-.159 1.526-.476.383-.327.574-.728.574-1.204 0-.541-.173-.966-.518-1.274-.336-.317-.817-.476-1.442-.476h-2.38v-1.4l2.94-2.1v-.07h-4.06V31.2h6.44v1.526l-2.52 1.834-.7.28v.07l.224-.028c.308-.028.49-.042.546-.042.877 0 1.61.303 2.198.91.588.607.882 1.377.882 2.31 0 .896-.345 1.657-1.036 2.282-.691.625-1.582.938-2.674.938-1.447 0-2.515-.513-3.206-1.54a4.404 4.404 0 0 1-.644-1.54Zm8.617 2.03c0-.28.088-.513.266-.7a.931.931 0 0 1 .686-.28c.308 0 .55.112.728.336.186.224.28.555.28.994 0 .719-.173 1.27-.518 1.652-.336.392-.794.588-1.372.588v-.7c.28 0 .499-.08.658-.238a.765.765 0 0 0 .252-.602v-.084c-.01-.01-.014-.028-.014-.056v-.042l-.084.028a.728.728 0 0 1-.182.014c-.187 0-.35-.084-.49-.252-.14-.168-.21-.387-.21-.658Zm3.006-2.45c0-.448.098-.915.294-1.4.205-.495.401-.882.588-1.162.196-.29.462-.649.798-1.078l2.24-2.94h1.89l-2.114 2.758-.616.532v.07l.28-.098a3.52 3.52 0 0 1 .91-.112c.914 0 1.689.331 2.324.994.644.653.966 1.465.966 2.436 0 .99-.355 1.82-1.064 2.492-.71.672-1.615 1.008-2.716 1.008-1.102 0-2.007-.336-2.716-1.008-.71-.672-1.064-1.503-1.064-2.492Zm2.254-1.456c-.383.373-.574.859-.574 1.456s.191 1.087.574 1.47c.382.373.891.56 1.526.56.634 0 1.143-.187 1.526-.56.382-.383.574-.873.574-1.47s-.192-1.083-.574-1.456c-.383-.383-.892-.574-1.526-.574-.635 0-1.144.191-1.526.574Zm6.359 1.456c0-.448.098-.915.294-1.4.205-.495.401-.882.588-1.162.196-.29.462-.649.798-1.078l2.24-2.94h1.89l-2.114 2.758-.616.532v.07l.28-.098a3.52 3.52 0 0 1 .91-.112c.915 0 1.689.331 2.324.994.644.653.966 1.465.966 2.436 0 .99-.355 1.82-1.064 2.492-.709.672-1.615 1.008-2.716 1.008-1.101 0-2.007-.336-2.716-1.008-.709-.672-1.064-1.503-1.064-2.492Zm2.254-1.456c-.383.373-.574.859-.574 1.456s.191 1.087.574 1.47c.383.373.891.56 1.526.56s1.143-.187 1.526-.56c.383-.383.574-.873.574-1.47s-.191-1.083-.574-1.456c-.383-.383-.891-.574-1.526-.574s-1.143.191-1.526.574ZM260.56 452.42c0-.989.355-1.82 1.064-2.492.709-.672 1.615-1.008 2.716-1.008 1.101 0 2.007.336 2.716 1.008.709.672 1.064 1.503 1.064 2.492 0 .887-.369 1.843-1.106 2.87l-.308.42a13.42 13.42 0 0 0-.266.35L264.2 459h-1.89l2.114-2.758.616-.532v-.07a7.65 7.65 0 0 1-.28.112 3.583 3.583 0 0 1-.91.098 3.163 3.163 0 0 1-2.338-.98c-.635-.663-.952-1.479-.952-2.45Zm2.254-1.456c-.383.373-.574.859-.574 1.456s.191 1.087.574 1.47c.383.373.891.56 1.526.56s1.143-.187 1.526-.56c.383-.383.574-.873.574-1.47s-.191-1.083-.574-1.456c-.383-.383-.891-.574-1.526-.574s-1.143.191-1.526.574Zm6.359 7.266c0-.28.089-.513.266-.7a.933.933 0 0 1 .686-.28c.308 0 .551.112.728.336.187.224.28.555.28.994 0 .719-.172 1.269-.518 1.652-.336.392-.793.588-1.372.588v-.7c.28 0 .5-.079.658-.238a.765.765 0 0 0 .252-.602v-.084c-.009-.009-.014-.028-.014-.056v-.042l-.084.028a.738.738 0 0 1-.182.014c-.186 0-.35-.084-.49-.252-.14-.168-.21-.387-.21-.658Zm4.476-.406c-.886-.971-1.33-2.212-1.33-3.724s.444-2.753 1.33-3.724c.887-.971 1.96-1.456 3.22-1.456 1.26 0 2.334.485 3.22 1.456.887.971 1.33 2.212 1.33 3.724s-.443 2.753-1.33 3.724c-.886.971-1.96 1.456-3.22 1.456-1.26 0-2.333-.485-3.22-1.456Zm1.148-6.412c-.532.635-.798 1.531-.798 2.688 0 1.157.266 2.053.798 2.688.542.635 1.232.952 2.072.952.84 0 1.526-.317 2.058-.952.542-.635.812-1.531.812-2.688 0-1.157-.27-2.053-.812-2.688-.532-.635-1.218-.952-2.058-.952-.84 0-1.53.317-2.072.952Zm7.746 4.368c0-.448.098-.915.294-1.4.205-.495.401-.882.588-1.162.196-.289.462-.649.798-1.078l2.24-2.94h1.89l-2.114 2.758-.616.532v.07l.28-.098c.28-.075.583-.112.91-.112.914 0 1.689.331 2.324.994.644.653.966 1.465.966 2.436 0 .989-.355 1.82-1.064 2.492-.71.672-1.615 1.008-2.716 1.008-1.102 0-2.007-.336-2.716-1.008-.71-.672-1.064-1.503-1.064-2.492Zm2.254-1.456c-.383.373-.574.859-.574 1.456s.191 1.087.574 1.47c.382.373.891.56 1.526.56.634 0 1.143-.187 1.526-.56.382-.383.574-.873.574-1.47s-.192-1.083-.574-1.456c-.383-.383-.892-.574-1.526-.574-.635 0-1.144.191-1.526.574ZM239.49 553.78c0-.448.098-.915.294-1.4.205-.495.401-.882.588-1.162.196-.289.462-.649.798-1.078l2.24-2.94h1.89l-2.114 2.758-.616.532v.07l.28-.098c.28-.075.583-.112.91-.112.915 0 1.689.331 2.324.994.644.653.966 1.465.966 2.436 0 .989-.355 1.82-1.064 2.492-.709.672-1.615 1.008-2.716 1.008-1.101 0-2.007-.336-2.716-1.008-.709-.672-1.064-1.503-1.064-2.492Zm2.254-1.456c-.383.373-.574.859-.574 1.456s.191 1.087.574 1.47c.383.373.891.56 1.526.56s1.143-.187 1.526-.56c.383-.383.574-.873.574-1.47s-.191-1.083-.574-1.456c-.383-.383-.891-.574-1.526-.574s-1.143.191-1.526.574Zm6.429 3.906c0-.28.089-.513.266-.7a.933.933 0 0 1 .686-.28c.308 0 .551.112.728.336.187.224.28.555.28.994 0 .719-.172 1.269-.518 1.652-.336.392-.793.588-1.372.588v-.7c.28 0 .5-.079.658-.238a.765.765 0 0 0 .252-.602v-.084c-.009-.009-.014-.028-.014-.056v-.042l-.084.028a.738.738 0 0 1-.182.014c-.186 0-.35-.084-.49-.252-.14-.168-.21-.387-.21-.658Zm4.476-.406c-.886-.971-1.33-2.212-1.33-3.724s.444-2.753 1.33-3.724c.887-.971 1.96-1.456 3.22-1.456 1.26 0 2.334.485 3.22 1.456.887.971 1.33 2.212 1.33 3.724s-.443 2.753-1.33 3.724c-.886.971-1.96 1.456-3.22 1.456-1.26 0-2.333-.485-3.22-1.456Zm1.148-6.412c-.532.635-.798 1.531-.798 2.688 0 1.157.266 2.053.798 2.688.542.635 1.232.952 2.072.952.84 0 1.526-.317 2.058-.952.542-.635.812-1.531.812-2.688 0-1.157-.27-2.053-.812-2.688-.532-.635-1.218-.952-2.058-.952-.84 0-1.53.317-2.072.952Zm7.676 7.588v-1.54l3.346-2.366c.728-.523 1.25-1.008 1.568-1.456.317-.448.476-.924.476-1.428 0-.532-.164-.957-.49-1.274-.327-.317-.77-.476-1.33-.476-.691 0-1.209.28-1.554.84-.15.243-.262.523-.336.84h-1.68a4.332 4.332 0 0 1 .546-1.61c.662-1.073 1.67-1.61 3.024-1.61 1.036 0 1.876.308 2.52.924.653.607.98 1.372.98 2.296 0 .803-.206 1.526-.616 2.17-.411.635-1.069 1.265-1.974 1.89l-1.4.98-.63.28v.07l.84-.07h3.78V557h-7.07Z" fill="#333"/></svg>