<svg width="350" height="677" fill="none" xmlns="http://www.w3.org/2000/svg"><path d="M276 590.001v-159H15v159h261Zm59-338v-222H16v222h319Z" fill="#E7FFD5"/><path d="m257 368.001-2-308H16v308h241Z" fill="#E7FFD5"/><path d="M276 451.001v-310H6v310h270Z" fill="#E7FFD5"/><path d="M333.995 99.325H309V75h24.995v24.325Z" fill="#fff" stroke="#5A5A5A" stroke-width=".5"/><path d="M311.027 98.398h19.453c.738 0 1.131-.392 1.131-1.162V77.088c0-.785-.377-1.161-1.131-1.161h-19.453c-.753-.016-1.13.376-1.13 1.146V97.22c-.016.786.377 1.178 1.13 1.178Z" fill="#fff" stroke="#5A5A5A" stroke-width=".5"/><path d="M312.816 91.897c.016-1.79 1.429-3.25 3.172-3.25 1.758 0 3.171 1.46 3.171 3.25 0 1.806-1.413 3.25-3.171 3.25-1.759 0-3.172-1.444-3.172-3.25Zm.03-9.626c.016-1.79 1.429-3.25 3.171-3.25 1.759 0 3.172 1.46 3.172 3.25 0 1.806-1.413 3.25-3.172 3.25-1.758.016-3.187-1.444-3.171-3.25Zm9.013 0c0-1.806 1.413-3.25 3.172-3.25 1.758 0 3.171 1.46 3.171 3.25-.015 1.79-1.428 3.25-3.171 3.25-1.743 0-3.172-1.46-3.172-3.25Zm0 9.626c0-1.806 1.413-3.25 3.172-3.25 1.758 0 3.171 1.46 3.171 3.25-.015 1.79-1.428 3.25-3.171 3.25-1.743 0-3.172-1.46-3.172-3.25Z" stroke="#5A5A5A" stroke-width=".5"/><path d="M334.088 145.699H310V122h24.104l-.016 23.699Z" fill="#fff" stroke="#5A5A5A" stroke-width=".5"/><path d="M327.482 143.896h-13.317c-.742 0-1.106-.364-1.106-1.121v-17.608c0-.727.364-1.106 1.091-1.121l13.332.015c.727-.015 1.091.364 1.091 1.106v17.608c.03.742-.349 1.121-1.091 1.121Z" fill="#fff" stroke="#5A5A5A" stroke-width=".5"/><path d="M332.24 133.971c-.015-.924-.712-1.667-1.591-1.667l-6.984.652-.015.015c-.53 0-.954.439-.954 1 0 .561.424 1 .969 1.015l6.984.652c.864 0 1.576-.743 1.591-1.667Z" stroke="#5A5A5A" stroke-width=".5"/><mask id="a" fill="#fff"><path fill-rule="evenodd" clip-rule="evenodd" d="m331.557 132.592-3.803.363a.988.988 0 0 0-.954 1.031.98.98 0 0 0 .954 1l3.803.364"/></mask><path fill-rule="evenodd" clip-rule="evenodd" d="m331.557 132.592-3.803.363a.988.988 0 0 0-.954 1.031.98.98 0 0 0 .954 1l3.803.364" fill="#fff"/><path d="m327.754 132.955.014.5h.017l.017-.002-.048-.498Zm-.954 1.031h.5l-.001-.013-.499.013Zm.954 1 .048-.498-.017-.001-.017-.001-.014.5Zm3.755-2.892-3.803.364.096.995 3.802-.363-.095-.996Zm-3.769.362a1.487 1.487 0 0 0-1.44 1.543l.999-.026a.49.49 0 0 1 .469-.518l-.028-.999Zm-1.44 1.53a1.48 1.48 0 0 0 1.44 1.5l.028-1a.48.48 0 0 1-.468-.5h-1Zm1.406 1.498 3.803.363.095-.995-3.802-.364-.096.996Z" fill="#5A5A5A" mask="url(#a)"/><path d="M124.42 495.2h1.68c.065.289.191.546.378.77.42.513 1.017.77 1.792.77.644 0 1.153-.159 1.526-.476.383-.327.574-.728.574-1.204 0-.541-.173-.966-.518-1.274-.336-.317-.817-.476-1.442-.476h-2.38v-1.4l2.94-2.1v-.07h-4.06v-1.54h6.44v1.526l-2.52 1.834-.7.28v.07l.224-.028c.308-.028.49-.042.546-.042.877 0 1.61.303 2.198.91.588.607.882 1.377.882 2.31 0 .896-.345 1.657-1.036 2.282-.691.625-1.582.938-2.674.938-1.447 0-2.515-.513-3.206-1.54a4.406 4.406 0 0 1-.644-1.54Zm8.267.84v-1.54l3.29-6.3h1.75l-3.29 6.3h3.22v-2.38h1.61v2.38h1.4v1.54h-1.4V498h-1.61v-1.96h-4.97Zm8.539 1.19c0-.28.089-.513.266-.7a.932.932 0 0 1 .686-.28c.308 0 .551.112.728.336.187.224.28.555.28.994 0 .719-.173 1.269-.518 1.652-.336.392-.793.588-1.372.588v-.7c.28 0 .499-.079.658-.238a.765.765 0 0 0 .252-.602v-.084c-.009-.009-.014-.028-.014-.056v-.042l-.084.028a.743.743 0 0 1-.182.014c-.187 0-.35-.084-.49-.252-.14-.168-.21-.387-.21-.658Zm3.076-1.96h1.68c.075.289.201.537.378.742.411.485 1.008.728 1.792.728.626 0 1.12-.168 1.484-.504.364-.336.546-.775.546-1.316 0-.569-.182-1.027-.546-1.372-.364-.345-.858-.518-1.484-.518-.578 0-1.068.154-1.47.462a1.958 1.958 0 0 0-.42.448h-1.54l.42-5.74h5.95v1.54h-4.62l-.21 2.52h.07c.15-.149.322-.275.518-.378.439-.261.966-.392 1.582-.392.98 0 1.797.327 2.45.98.654.653.98 1.47.98 2.45 0 .961-.345 1.764-1.036 2.408-.681.635-1.572.952-2.674.952-1.437 0-2.506-.499-3.206-1.498a4.436 4.436 0 0 1-.644-1.512Zm8.263.77v-1.54l3.29-6.3h1.75l-3.29 6.3h3.22v-2.38h1.61v2.38h1.4v1.54h-1.4V498h-1.61v-1.96h-4.97ZM67.42 646.2h1.68c.065.289.191.546.378.77.42.513 1.017.77 1.792.77.644 0 1.153-.159 1.526-.476.383-.327.574-.728.574-1.204 0-.541-.173-.966-.518-1.274-.336-.317-.817-.476-1.442-.476h-2.38v-1.4l2.94-2.1v-.07h-4.06v-1.54h6.44v1.526l-2.52 1.834-.7.28v.07l.224-.028c.308-.028.49-.042.546-.042.877 0 1.61.303 2.198.91.588.607.882 1.377.882 2.31 0 .896-.345 1.657-1.036 2.282-.69.625-1.582.938-2.674.938-1.447 0-2.515-.513-3.206-1.54a4.406 4.406 0 0 1-.644-1.54Zm8.617 2.03c0-.28.088-.513.266-.7a.931.931 0 0 1 .686-.28c.308 0 .55.112.728.336.186.224.28.555.28.994 0 .719-.173 1.269-.518 1.652-.336.392-.794.588-1.372.588v-.7c.28 0 .499-.079.658-.238a.765.765 0 0 0 .252-.602v-.084c-.01-.009-.014-.028-.014-.056v-.042l-.084.028a.742.742 0 0 1-.182.014c-.187 0-.35-.084-.49-.252-.14-.168-.21-.387-.21-.658Zm3.006-2.45c0-.448.098-.915.294-1.4.205-.495.401-.882.588-1.162.196-.289.462-.649.798-1.078l2.24-2.94h1.89l-2.114 2.758-.616.532v.07l.28-.098c.28-.075.583-.112.91-.112.914 0 1.69.331 2.324.994.644.653.966 1.465.966 2.436 0 .989-.355 1.82-1.064 2.492-.71.672-1.615 1.008-2.716 1.008-1.102 0-2.007-.336-2.716-1.008-.71-.672-1.064-1.503-1.064-2.492Zm2.254-1.456c-.383.373-.574.859-.574 1.456s.191 1.087.574 1.47c.382.373.891.56 1.526.56.634 0 1.143-.187 1.526-.56.382-.383.574-.873.574-1.47s-.192-1.083-.574-1.456c-.383-.383-.892-.574-1.526-.574-.635 0-1.144.191-1.526.574Zm6.359 1.456c0-.448.098-.915.294-1.4.205-.495.401-.882.588-1.162.196-.289.462-.649.798-1.078l2.24-2.94h1.89l-2.114 2.758-.616.532v.07l.28-.098c.28-.075.583-.112.91-.112.915 0 1.69.331 2.324.994.644.653.966 1.465.966 2.436 0 .989-.355 1.82-1.064 2.492-.71.672-1.615 1.008-2.716 1.008-1.101 0-2.007-.336-2.716-1.008-.71-.672-1.064-1.503-1.064-2.492Zm2.254-1.456c-.383.373-.574.859-.574 1.456s.191 1.087.574 1.47c.383.373.891.56 1.526.56s1.143-.187 1.526-.56c.383-.383.574-.873.574-1.47s-.191-1.083-.574-1.456c-.383-.383-.891-.574-1.526-.574s-1.143.191-1.526.574Z" fill="#333"/><path opacity=".63" d="M100 383.001H16v-107h84v107Z" fill="#FDFF9F"/><path d="M48.49 327.781c0-.448.098-.915.294-1.4.205-.495.401-.882.588-1.162.196-.29.462-.649.798-1.078l2.24-2.94h1.89l-2.114 2.758-.616.532v.07l.28-.098c.28-.075.583-.112.91-.112.915 0 1.69.331 2.324.994.644.653.966 1.465.966 2.436 0 .989-.355 1.82-1.064 2.492-.71.672-1.615 1.008-2.716 1.008-1.101 0-2.007-.336-2.716-1.008-.71-.672-1.064-1.503-1.064-2.492Zm2.254-1.456c-.383.373-.574.858-.574 1.456 0 .597.191 1.087.574 1.47.383.373.891.56 1.526.56s1.143-.187 1.526-.56c.383-.383.574-.873.574-1.47 0-.598-.191-1.083-.574-1.456-.383-.383-.891-.574-1.526-.574s-1.143.191-1.526.574Zm6.43 3.906c0-.28.088-.514.265-.7a.931.931 0 0 1 .686-.28c.308 0 .55.112.728.336.187.224.28.555.28.994 0 .718-.172 1.269-.518 1.652-.336.392-.793.588-1.372.588v-.7c.28 0 .5-.08.658-.238a.766.766 0 0 0 .252-.602v-.084c-.01-.01-.014-.028-.014-.056v-.042l-.084.028a.742.742 0 0 1-.182.014c-.186 0-.35-.084-.49-.252-.14-.168-.21-.388-.21-.658Zm4.476-.406c-.887-.971-1.33-2.212-1.33-3.724s.443-2.754 1.33-3.724c.886-.971 1.96-1.456 3.22-1.456 1.26 0 2.333.485 3.22 1.456.886.97 1.33 2.212 1.33 3.724s-.444 2.753-1.33 3.724c-.887.97-1.96 1.456-3.22 1.456-1.26 0-2.334-.486-3.22-1.456Zm1.148-6.412c-.532.634-.799 1.53-.799 2.688 0 1.157.267 2.053.798 2.688.542.634 1.233.952 2.073.952.84 0 1.525-.318 2.057-.952.542-.635.813-1.531.813-2.688 0-1.158-.271-2.054-.813-2.688-.532-.635-1.218-.952-2.058-.952-.84 0-1.53.317-2.072.952Zm7.465 5.628v-1.54l3.29-6.3h1.75l-3.29 6.3h3.22v-2.38h1.61v2.38h1.4v1.54h-1.4v1.96h-1.61v-1.96h-4.97Z" fill="#333"/><path opacity=".63" d="M100 282H10v-63h90v63Zm247-33h-90v-80h90v80Z" fill="#FDFF9F"/><path d="M59.42 247v-1.54l3.346-2.366c.728-.523 1.25-1.008 1.568-1.456.317-.448.476-.924.476-1.428 0-.532-.163-.957-.49-1.274-.327-.317-.77-.476-1.33-.476-.69 0-1.209.28-1.554.84-.15.243-.261.523-.336.84h-1.68a4.332 4.332 0 0 1 .546-1.61c.663-1.073 1.67-1.61 3.024-1.61 1.036 0 1.876.308 2.52.924.653.607.98 1.372.98 2.296a3.95 3.95 0 0 1-.616 2.17c-.41.635-1.069 1.265-1.974 1.89l-1.4.98-.63.28v.07l.84-.07h3.78V247h-7.07Zm8.193-.77c0-.28.088-.513.266-.7a.932.932 0 0 1 .686-.28c.308 0 .55.112.728.336.186.224.28.555.28.994 0 .719-.173 1.269-.518 1.652-.336.392-.794.588-1.372.588v-.7c.28 0 .5-.079.658-.238a.765.765 0 0 0 .252-.602v-.084c-.01-.009-.014-.028-.014-.056v-.042l-.084.028a.741.741 0 0 1-.182.014c-.187 0-.35-.084-.49-.252-.14-.168-.21-.387-.21-.658Zm3.076-5.81c0-.989.355-1.82 1.064-2.492.71-.672 1.615-1.008 2.716-1.008 1.101 0 2.007.336 2.716 1.008.71.672 1.064 1.503 1.064 2.492 0 .887-.369 1.843-1.106 2.87l-.308.42c-.13.168-.22.285-.266.35l-2.24 2.94h-1.89l2.114-2.758.616-.532v-.07a7.398 7.398 0 0 1-.28.112 3.581 3.581 0 0 1-.91.098 3.163 3.163 0 0 1-2.338-.98c-.635-.663-.952-1.479-.952-2.45Zm2.254-1.456c-.383.373-.574.859-.574 1.456s.191 1.087.574 1.47c.383.373.891.56 1.526.56s1.143-.187 1.526-.56c.383-.383.574-.873.574-1.47s-.191-1.083-.574-1.456c-.383-.383-.891-.574-1.526-.574s-1.143.191-1.526.574Zm5.94-.224v-1.54h6.65v1.54l-3.92 8.26h-1.75l3.85-8.12v-.14h-4.83ZM131.42 134v-1.54l3.346-2.366c.728-.523 1.251-1.008 1.568-1.456.317-.448.476-.924.476-1.428 0-.532-.163-.957-.49-1.274-.327-.317-.77-.476-1.33-.476-.691 0-1.209.28-1.554.84a2.851 2.851 0 0 0-.336.84h-1.68a4.332 4.332 0 0 1 .546-1.61c.663-1.073 1.671-1.61 3.024-1.61 1.036 0 1.876.308 2.52.924.653.607.98 1.372.98 2.296 0 .803-.205 1.526-.616 2.17-.411.635-1.069 1.265-1.974 1.89l-1.4.98-.63.28v.07l.84-.07h3.78V134h-7.07Zm7.773-8.26v-1.54h6.65v1.54l-3.92 8.26h-1.75l3.85-8.12v-.14h-4.83Zm6.094 7.49c0-.28.088-.513.266-.7a.93.93 0 0 1 .686-.28c.308 0 .55.112.728.336.186.224.28.555.28.994 0 .719-.173 1.269-.518 1.652-.336.392-.794.588-1.372.588v-.7c.28 0 .499-.079.658-.238a.765.765 0 0 0 .252-.602v-.084c-.01-.009-.014-.028-.014-.056v-.042l-.084.028a.743.743 0 0 1-.182.014c-.187 0-.35-.084-.49-.252-.14-.168-.21-.387-.21-.658Zm3.076-5.81c0-.989.354-1.82 1.064-2.492.709-.672 1.614-1.008 2.716-1.008 1.101 0 2.006.336 2.716 1.008.709.672 1.064 1.503 1.064 2.492 0 .887-.369 1.843-1.106 2.87l-.308.42c-.131.168-.22.285-.266.35l-2.24 2.94h-1.89l2.114-2.758.616-.532v-.07a7.65 7.65 0 0 1-.28.112 3.583 3.583 0 0 1-.91.098 3.163 3.163 0 0 1-2.338-.98c-.635-.663-.952-1.479-.952-2.45Zm2.254-1.456c-.383.373-.574.859-.574 1.456s.191 1.087.574 1.47c.382.373.891.56 1.526.56.634 0 1.143-.187 1.526-.56.382-.383.574-.873.574-1.47s-.192-1.083-.574-1.456c-.383-.383-.892-.574-1.526-.574-.635 0-1.144.191-1.526.574Zm6.359 5.306h1.68c.075.289.201.537.378.742.411.485 1.008.728 1.792.728.625 0 1.12-.168 1.484-.504.364-.336.546-.775.546-1.316 0-.569-.182-1.027-.546-1.372-.364-.345-.859-.518-1.484-.518-.579 0-1.069.154-1.47.462a1.916 1.916 0 0 0-.42.448h-1.54l.42-5.74h5.95v1.54h-4.62l-.21 2.52h.07c.149-.149.322-.275.518-.378.439-.261.966-.392 1.582-.392.98 0 1.797.327 2.45.98.653.653.98 1.47.98 2.45 0 .961-.345 1.764-1.036 2.408-.681.635-1.573.952-2.674.952-1.437 0-2.506-.499-3.206-1.498a4.417 4.417 0 0 1-.644-1.512Zm118.234 79.77v-1.54l3.29-6.3h1.75l-3.29 6.3h3.22v-2.38h1.61v2.38h1.4v1.54h-1.4V213h-1.61v-1.96h-4.97Zm8.539 1.19c0-.28.089-.513.266-.7a.933.933 0 0 1 .686-.28c.308 0 .551.112.728.336.187.224.28.555.28.994 0 .719-.172 1.269-.518 1.652-.336.392-.793.588-1.372.588v-.7c.28 0 .5-.079.658-.238a.765.765 0 0 0 .252-.602v-.084c-.009-.009-.014-.028-.014-.056v-.042l-.084.028a.738.738 0 0 1-.182.014c-.186 0-.35-.084-.49-.252-.14-.168-.21-.387-.21-.658Zm2.867-5.81v-1.82l1.82-1.4h1.47v9.8h-1.61v-7.84l-1.68 1.26Zm4.761 3.36c0-.448.098-.915.294-1.4.205-.495.401-.882.588-1.162.196-.289.462-.649.798-1.078l2.24-2.94h1.89l-2.114 2.758-.616.532v.07l.28-.098c.28-.075.583-.112.91-.112.914 0 1.689.331 2.324.994.644.653.966 1.465.966 2.436 0 .989-.355 1.82-1.064 2.492-.71.672-1.615 1.008-2.716 1.008-1.102 0-2.007-.336-2.716-1.008-.71-.672-1.064-1.503-1.064-2.492Zm2.254-1.456c-.383.373-.574.859-.574 1.456s.191 1.087.574 1.47c.382.373.891.56 1.526.56.634 0 1.143-.187 1.526-.56.382-.383.574-.873.574-1.47s-.192-1.083-.574-1.456c-.383-.383-.892-.574-1.526-.574-.635 0-1.144.191-1.526.574ZM225.35 354.42v-1.82l1.82-1.4h1.47v9.8h-1.61v-7.84l-1.68 1.26Zm4.411-1.68v-1.54h6.65v1.54l-3.92 8.26h-1.75l3.85-8.12v-.14h-4.83Zm6.094 7.49c0-.28.089-.513.266-.7a.932.932 0 0 1 .686-.28c.308 0 .551.112.728.336.187.224.28.555.28.994 0 .719-.173 1.269-.518 1.652-.336.392-.793.588-1.372.588v-.7c.28 0 .499-.079.658-.238a.765.765 0 0 0 .252-.602v-.084c-.009-.009-.014-.028-.014-.056v-.042l-.084.028a.743.743 0 0 1-.182.014c-.187 0-.35-.084-.49-.252-.14-.168-.21-.387-.21-.658Zm3.076-1.89c0-.849.327-1.526.98-2.03a3.16 3.16 0 0 1 .98-.448v-.084a2.568 2.568 0 0 1-.77-.462c-.513-.439-.77-1.017-.77-1.736 0-.737.313-1.363.938-1.876.635-.523 1.489-.784 2.562-.784 1.073 0 1.923.261 2.548.784.635.513.952 1.139.952 1.876 0 .7-.257 1.279-.77 1.736-.243.196-.499.35-.77.462v.084c.355.093.681.247.98.462.653.504.98 1.176.98 2.016 0 .812-.355 1.507-1.064 2.086-.7.569-1.652.854-2.856.854s-2.161-.285-2.87-.854c-.7-.579-1.05-1.274-1.05-2.086Zm2.1-4.62c0 .411.159.747.476 1.008.317.261.765.392 1.344.392.579 0 1.027-.131 1.344-.392.317-.261.476-.597.476-1.008 0-.373-.163-.686-.49-.938-.317-.261-.761-.392-1.33-.392-.569 0-1.017.131-1.344.392-.317.252-.476.565-.476.938Zm.168 3.346c-.392.308-.588.686-.588 1.134 0 .448.196.831.588 1.148.401.308.952.462 1.652.462s1.246-.154 1.638-.462c.401-.317.602-.7.602-1.148 0-.448-.201-.826-.602-1.134-.392-.317-.938-.476-1.638-.476s-1.251.159-1.652.476Zm6.547 1.134h1.68c.066.289.192.546.378.77.42.513 1.018.77 1.792.77.644 0 1.153-.159 1.526-.476.383-.327.574-.728.574-1.204 0-.541-.172-.966-.518-1.274-.336-.317-.816-.476-1.442-.476h-2.38v-1.4l2.94-2.1v-.07h-4.06v-1.54h6.44v1.526l-2.52 1.834-.7.28v.07l.224-.028c.308-.028.49-.042.546-.042.878 0 1.61.303 2.198.91.588.607.882 1.377.882 2.31 0 .896-.345 1.657-1.036 2.282-.69.625-1.582.938-2.674.938-1.446 0-2.515-.513-3.206-1.54a4.425 4.425 0 0 1-.644-1.54Zm27.394-253.46v-1.54h6.65v1.54l-3.92 8.26h-1.75l3.85-8.12v-.14h-4.83Zm6.094 7.49c0-.28.088-.513.266-.7a.93.93 0 0 1 .686-.28c.308 0 .55.112.728.336.186.224.28.555.28.994 0 .719-.173 1.269-.518 1.652-.336.392-.794.588-1.372.588v-.7c.28 0 .499-.079.658-.238a.765.765 0 0 0 .252-.602v-.084c-.01-.009-.014-.028-.014-.056v-.042l-.084.028a.743.743 0 0 1-.182.014c-.187 0-.35-.084-.49-.252-.14-.168-.21-.387-.21-.658Zm2.866-5.81v-1.82l1.82-1.4h1.47v9.8h-1.61v-7.84l-1.68 1.26Zm4.761 3.36c0-.448.098-.915.294-1.4.205-.495.401-.882.588-1.162.196-.289.462-.649.798-1.078l2.24-2.94h1.89l-2.114 2.758-.616.532v.07l.28-.098c.28-.075.583-.112.91-.112.915 0 1.689.331 2.324.994.644.653.966 1.465.966 2.436 0 .989-.355 1.82-1.064 2.492-.709.672-1.615 1.008-2.716 1.008-1.101 0-2.007-.336-2.716-1.008-.709-.672-1.064-1.503-1.064-2.492Zm2.254-1.456c-.383.373-.574.859-.574 1.456s.191 1.087.574 1.47c.383.373.891.56 1.526.56s1.143-.187 1.526-.56c.383-.383.574-.873.574-1.47s-.191-1.083-.574-1.456c-.383-.383-.891-.574-1.526-.574s-1.143.191-1.526.574Z" fill="#333"/><path fill="#5A5A5A" d="M53 30V0H0v30z"/><path fill="#5A5A5A" d="M0 614.001h16v-592H0zm108-220v-16H16v16z"/><path d="m35.483 299.308-1.18.016-3.067-.016h-7.591v9.957h11.838c3.017 0 5.476-2.244 5.476-4.995 0-2.719-2.46-4.962-5.476-4.962Z" fill="#fff" stroke="#5A5A5A" stroke-width=".5"/><path d="M35.416 300.454h-8.493v7.681h7.559l.934-.017c2.378 0 4.313-1.703 4.313-3.832-.017-2.113-1.952-3.832-4.313-3.832Zm-18.133 10.612h5.263c.607 0 1.099-.491 1.099-1.097v-11.284c0-.606-.492-1.097-1.099-1.097h-5.263c-.607 0-1.099.491-1.099 1.097v11.268c0 .622.492 1.113 1.099 1.113Z" fill="#fff" stroke="#5A5A5A" stroke-width=".5"/><path d="M19.907 304.974c.41 0 .721-.295.721-.639.017-.36-.311-.655-.721-.655s-.721.295-.721.639a.683.683 0 0 0 .721.655Zm-2.253 36.759h12.308c.855 0 1.54-.684 1.54-1.538v-18.52c0-.854-.685-1.538-1.54-1.538H17.654c-.856 0-1.54.684-1.54 1.538v18.52c0 .84.684 1.538 1.54 1.538Z" fill="#fff" stroke="#5A5A5A" stroke-width=".5"/><path d="M22.345 339.81h1.897a4.52 4.52 0 0 0 4.521-4.516v-8.718a4.52 4.52 0 0 0-4.52-4.516h-1.898a4.52 4.52 0 0 0-4.52 4.516v8.718a4.52 4.52 0 0 0 4.52 4.516Z" fill="#fff" stroke="#5A5A5A" stroke-width=".5"/><path d="M20.234 331.89c.543 0 .984-.428.984-.955 0-.527-.44-.954-.984-.954s-.984.427-.984.954c0 .527.44.955.984.955Zm-2.693 16.83h63.984c.82 0 1.475.654 1.475 1.473v25.4c0 .819-.656 1.474-1.475 1.474H17.541c-.82 0-1.475-.655-1.475-1.474v-25.4c0-.819.67-1.473 1.475-1.473Z" fill="#fff" stroke="#5A5A5A" stroke-width=".5"/><path d="M79.067 359.449v6.904c0 4.003-3.247 7.232-7.24 7.232H21.445a1.767 1.767 0 0 1-1.773-1.771v-17.856c0-.982.79-1.771 1.773-1.771h50.367c4.008.015 7.255 3.259 7.255 7.262Z" fill="#fff" stroke="#5A5A5A" stroke-width=".5"/><path d="M25.646 362.394c0-.797-.674-1.443-1.505-1.443-.83 0-1.504.646-1.504 1.443s.673 1.444 1.504 1.444 1.505-.647 1.505-1.444Zm56.942-61.37v-22.009L61 279.001l.014 22.009 21.574.014Z" fill="#fff" stroke="#5A5A5A" stroke-width=".5"/><path d="M66.258 290.006c0-3.115 2.475-5.629 5.537-5.629 3.061 0 5.536 2.514 5.536 5.643 0 3.114-2.475 5.656-5.537 5.656-3.061-.014-5.536-2.556-5.536-5.67Z" stroke="#5A5A5A" stroke-width=".5"/><path d="M71.793 294.125a3.87 3.87 0 0 1-2.852-1.201 4.264 4.264 0 0 1-1.189-2.904m4.027-4.134a4.033 4.033 0 0 0-2.852 1.201 4.184 4.184 0 0 0-1.189 2.919l4.04-4.12Zm.014 8.239c1.104 0 2.111-.46 2.852-1.201a4.197 4.197 0 0 0 1.175-2.918l-4.027 4.119Zm-.014-8.239c1.132 0 2.14.461 2.852 1.201l.014.014a4.166 4.166 0 0 1 1.175 2.891l-4.041-4.106Z" stroke="#5A5A5A" stroke-width=".5"/><path fill="#5A5A5A" d="M108 347.001h-8v47h8zm-96-76v8h96v-8zM257 164h-8v55h8z"/><path fill="#5A5A5A" d="M334 172v-8h-85v8zm-42 138h-16v16h16z"/><path fill="#5A5A5A" d="M292 310h-16v310h16zm0-57h-16v22h16zm-192 63h8v-60h-8zm0-84.999h8v-28h-8z"/><path fill="#5A5A5A" d="M118 219.001v-16H16v16zm56-.001v-16h-25v16zm83 0v-16h-52v16zm93 45v-16h-98v16zm-58 130v-16h-90v16zm-179 0v-16h-11v16zm55 0v-16h-19v16z"/><circle cx="174.5" cy="307.5" r="39.5" fill="#5A5A5A"/><path d="M144.45 306.54v-2.34l2.34-1.8h1.89V315h-2.07v-10.08l-2.16 1.62Zm8.011 6.948c-1.14-1.248-1.71-2.844-1.71-4.788 0-1.944.57-3.54 1.71-4.788 1.14-1.248 2.52-1.872 4.14-1.872 1.62 0 3 .624 4.14 1.872 1.14 1.248 1.71 2.844 1.71 4.788 0 1.944-.57 3.54-1.71 4.788-1.14 1.248-2.52 1.872-4.14 1.872-1.62 0-3-.624-4.14-1.872Zm1.476-8.244c-.684.816-1.026 1.968-1.026 3.456s.342 2.64 1.026 3.456c.696.816 1.584 1.224 2.664 1.224s1.962-.408 2.646-1.224c.696-.816 1.044-1.968 1.044-3.456s-.348-2.64-1.044-3.456c-.684-.816-1.566-1.224-2.646-1.224-1.08 0-1.968.408-2.664 1.224Zm11.849 8.244c-1.14-1.248-1.71-2.844-1.71-4.788 0-1.944.57-3.54 1.71-4.788 1.14-1.248 2.52-1.872 4.14-1.872 1.62 0 3 .624 4.14 1.872 1.14 1.248 1.71 2.844 1.71 4.788 0 1.944-.57 3.54-1.71 4.788-1.14 1.248-2.52 1.872-4.14 1.872-1.62 0-3-.624-4.14-1.872Zm1.476-8.244c-.684.816-1.026 1.968-1.026 3.456s.342 2.64 1.026 3.456c.696.816 1.584 1.224 2.664 1.224s1.962-.408 2.646-1.224c.696-.816 1.044-1.968 1.044-3.456s-.348-2.64-1.044-3.456c-.684-.816-1.566-1.224-2.646-1.224-1.08 0-1.968.408-2.664 1.224Zm10.048 8.766c0-.36.114-.66.342-.9a1.2 1.2 0 0 1 .882-.36c.396 0 .708.144.936.432.24.288.36.714.36 1.278 0 .924-.222 1.632-.666 2.124-.432.504-1.02.756-1.764.756v-.9c.36 0 .642-.102.846-.306.216-.192.324-.45.324-.774v-.108c-.012-.012-.018-.036-.018-.072v-.054l-.108.036a.932.932 0 0 1-.234.018c-.24 0-.45-.108-.63-.324-.18-.216-.27-.498-.27-.846Zm3.865-3.15c0-.576.126-1.176.378-1.8.264-.636.516-1.134.756-1.494.252-.372.594-.834 1.026-1.386l2.88-3.78h2.43l-2.718 3.546-.792.684v.09l.36-.126a4.53 4.53 0 0 1 1.17-.144c1.176 0 2.172.426 2.988 1.278.828.84 1.242 1.884 1.242 3.132 0 1.272-.456 2.34-1.368 3.204-.912.864-2.076 1.296-3.492 1.296s-2.58-.432-3.492-1.296c-.912-.864-1.368-1.932-1.368-3.204Zm2.898-1.872c-.492.48-.738 1.104-.738 1.872s.246 1.398.738 1.89c.492.48 1.146.72 1.962.72.816 0 1.47-.24 1.962-.72.492-.492.738-1.122.738-1.89 0-.768-.246-1.392-.738-1.872-.492-.492-1.146-.738-1.962-.738-.816 0-1.47.246-1.962.738Zm8.266 2.502h2.16c.096.372.258.69.486.954.528.624 1.296.936 2.304.936.804 0 1.44-.216 1.908-.648.468-.432.702-.996.702-1.692 0-.732-.234-1.32-.702-1.764-.468-.444-1.104-.666-1.908-.666-.744 0-1.374.198-1.89.594a2.481 2.481 0 0 0-.54.576h-1.98l.54-7.38h7.65v1.98h-5.94l-.27 3.24h.09c.192-.192.414-.354.666-.486.564-.336 1.242-.504 2.034-.504 1.26 0 2.31.42 3.15 1.26.84.84 1.26 1.89 1.26 3.15 0 1.236-.444 2.268-1.332 3.096-.876.816-2.022 1.224-3.438 1.224-1.848 0-3.222-.642-4.122-1.926a5.672 5.672 0 0 1-.828-1.944Z" fill="#fff"/><path fill="#5A5A5A" d="M350 0h-16v261h16zM214 30V0H113v30z"/><path fill="#5A5A5A" d="M350 30V0h-68v30zM191 620v-30h-71v30zm-140 0v-30H0v30zm239 0v-30h-41v30z"/><path d="m121.75 676.75-81.468-.063-.03-4.437h81.498v4.5Z" stroke="#5A5A5A" stroke-width=".5" stroke-miterlimit="10"/><path fill="#5A5A5A" d="M138 674h5v-76h-5zm-109 3h5v-79h-5z"/><path fill="#5A5A5A" d="M131 677v-5H33v5zm12 0v-5h-12v5z"/><path d="m146.75 605.25-60.476.063-.023 4.437h60.499v-4.5Zm0 10-60.476.063-.023 4.437h60.499v-4.5Z" stroke="#5A5A5A" stroke-width=".5" stroke-miterlimit="10"/><path stroke="#5A5A5A" d="m53.745 604.57 27-16"/><path d="m296.75 29.75-246.4-.15-.098-11.349H296.75v11.5Zm-14 590-136.445-.152-.054-11.348H282.75v11.5Zm14-608-246.4-.15L50.251.25H296.75v11.5Zm-14 590-136.445-.152-.054-11.348H282.75v11.5Z" stroke="#5A5A5A" stroke-width=".5" stroke-miterlimit="10"/><path stroke="#5A5A5A" d="m104.465 354.184 15-38m-8.714 63.383 33-19m61.499 19-33-19m7.002-125.135 36-21m24.31 30.328 17-31m48.983 94.448-16-35m-143.797-37.776-36-21m10.828 38.833-15-24"/><path d="m35.297 236.72-1.18.016-3.066-.016H23.46v9.957h11.837c3.017 0 5.476-2.244 5.476-4.995 0-2.719-2.459-4.962-5.476-4.962Z" fill="#fff" stroke="#5A5A5A" stroke-width=".5"/><path d="M35.23 237.866h-8.491v7.681h7.558l.935-.017c2.377 0 4.312-1.703 4.312-3.832-.016-2.112-1.951-3.832-4.312-3.832Zm-18.133 10.612h5.263c.607 0 1.099-.491 1.099-1.097v-11.284c0-.606-.492-1.097-1.099-1.097h-5.263c-.606 0-1.098.491-1.098 1.097v11.268c0 .622.492 1.113 1.098 1.113Z" fill="#fff" stroke="#5A5A5A" stroke-width=".5"/><path d="M19.721 242.386c.41 0 .722-.295.722-.639.016-.36-.312-.655-.722-.655s-.721.295-.721.639a.683.683 0 0 0 .721.655Zm294.755-18.666 1.181.016 3.066-.016h7.591v9.957h-11.838c-3.017 0-5.476-2.244-5.476-4.995 0-2.719 2.459-4.962 5.476-4.962Z" fill="#fff" stroke="#5A5A5A" stroke-width=".5"/><path d="M314.543 224.866h8.493v7.681h-7.559l-.934-.017c-2.378 0-4.313-1.703-4.313-3.832.017-2.112 1.952-3.832 4.313-3.832Zm18.133 10.612h-5.263a1.098 1.098 0 0 1-1.099-1.097v-11.284c0-.606.492-1.097 1.099-1.097h5.263c.607 0 1.099.491 1.099 1.097v11.268c0 .622-.492 1.113-1.099 1.113Z" fill="#fff" stroke="#5A5A5A" stroke-width=".5"/><path d="M330.052 229.386c-.41 0-.721-.295-.721-.639-.017-.36.311-.655.721-.655s.721.295.721.639a.683.683 0 0 1-.721.655ZM82.596 257.54v12.308c0 .856-.683 1.541-1.538 1.541h-18.52A1.533 1.533 0 0 1 61 269.848V257.54c0-.855.684-1.54 1.538-1.54h18.52c.84 0 1.538.685 1.538 1.54Z" fill="#fff" stroke="#5A5A5A" stroke-width=".5"/><path d="M80.674 262.232v1.897a4.52 4.52 0 0 1-4.516 4.521H67.44a4.52 4.52 0 0 1-4.516-4.521v-1.897a4.52 4.52 0 0 1 4.516-4.521h8.718a4.52 4.52 0 0 1 4.516 4.521Z" fill="#fff" stroke="#5A5A5A" stroke-width=".5"/><path d="M72.753 260.122c0 .543-.428.984-.955.984-.527 0-.954-.441-.954-.984 0-.544.427-.984.954-.984.527 0 .955.44.955.984Zm247.787-54.526h12.308c.856 0 1.541-.683 1.541-1.538v-18.519c0-.855-.685-1.539-1.541-1.539H320.54c-.855 0-1.54.684-1.54 1.539v18.519c0 .84.685 1.538 1.54 1.538Z" fill="#fff" stroke="#5A5A5A" stroke-width=".5"/><path d="M325.232 203.673h1.897a4.519 4.519 0 0 0 4.521-4.515v-8.719a4.52 4.52 0 0 0-4.521-4.516h-1.897a4.52 4.52 0 0 0-4.521 4.516v8.719a4.519 4.519 0 0 0 4.521 4.515Z" fill="#fff" stroke="#5A5A5A" stroke-width=".5"/><path d="M323.121 195.753c.543 0 .984-.427.984-.954 0-.527-.441-.955-.984-.955-.544 0-.984.428-.984.955 0 .527.44.954.984.954Z" fill="#fff" stroke="#5A5A5A" stroke-width=".5"/><path fill="#5A5A5A" d="M255 154h-2v11h2zm0-17h-2v11h2zm0-17h-2v11h2zm0-17h-2v11h2zm0-17h-2v11h2zm0-17h-2v11h2zm0-18h-2v11h2zm0-18h-2v11h2z"/></svg>