<svg width="425" height="636" fill="none" xmlns="http://www.w3.org/2000/svg"><path fill="#5A5A5A" d="M37.14 56.162v27.175H0V56.162z"/><path d="M409.438 82.431V259.68H0V82.431h409.438Z" fill="#FFF8BA"/><path d="M412.155 191.507v177.248H125.911V191.507h286.244Z" fill="#FFF8BA"/><path d="M414.873 300.583v137.253h-200.19V300.583h200.19Z" fill="#FFF8BA"/><path d="M417.59 409.658v199.064H274.468V409.658H417.59Z" fill="#FFF8BA"/><circle cx="218.056" cy="167.127" r="35.781" fill="#5A5A5A"/><path d="M190.996 167.54c0-1.272.456-2.34 1.368-3.204.912-.864 2.076-1.296 3.492-1.296s2.58.432 3.492 1.296c.912.864 1.368 1.932 1.368 3.204 0 1.14-.474 2.37-1.422 3.69l-.396.54c-.168.216-.282.366-.342.45l-2.88 3.78h-2.43l2.718-3.546.792-.684v-.09c-.024.012-.144.06-.36.144-.312.084-.702.126-1.17.126-1.176 0-2.178-.42-3.006-1.26-.816-.852-1.224-1.902-1.224-3.15Zm2.898-1.872c-.492.48-.738 1.104-.738 1.872s.246 1.398.738 1.89c.492.48 1.146.72 1.962.72.816 0 1.47-.24 1.962-.72.492-.492.738-1.122.738-1.89 0-.768-.246-1.392-.738-1.872-.492-.492-1.146-.738-1.962-.738-.816 0-1.47.246-1.962.738Zm8.176 6.912c0-1.092.42-1.962 1.26-2.61.36-.252.78-.444 1.26-.576v-.108a3.296 3.296 0 0 1-.99-.594c-.66-.564-.99-1.308-.99-2.232 0-.948.402-1.752 1.206-2.412.816-.672 1.914-1.008 3.294-1.008 1.38 0 2.472.336 3.276 1.008.816.66 1.224 1.464 1.224 2.412 0 .9-.33 1.644-.99 2.232-.312.252-.642.45-.99.594v.108c.456.12.876.318 1.26.594.84.648 1.26 1.512 1.26 2.592 0 1.044-.456 1.938-1.368 2.682-.9.732-2.124 1.098-3.672 1.098s-2.778-.366-3.69-1.098c-.9-.744-1.35-1.638-1.35-2.682Zm2.7-5.94c0 .528.204.96.612 1.296.408.336.984.504 1.728.504s1.32-.168 1.728-.504c.408-.336.612-.768.612-1.296 0-.48-.21-.882-.63-1.206-.408-.336-.978-.504-1.71-.504s-1.308.168-1.728.504c-.408.324-.612.726-.612 1.206Zm.216 4.302c-.504.396-.756.882-.756 1.458s.252 1.068.756 1.476c.516.396 1.224.594 2.124.594.9 0 1.602-.198 2.106-.594.516-.408.774-.9.774-1.476s-.258-1.062-.774-1.458c-.504-.408-1.206-.612-2.106-.612-.9 0-1.608.204-2.124.612Zm8.598 4.068c0-.36.114-.66.342-.9a1.2 1.2 0 0 1 .882-.36c.396 0 .708.144.936.432.24.288.36.714.36 1.278 0 .924-.222 1.632-.666 2.124-.432.504-1.02.756-1.764.756v-.9c.36 0 .642-.102.846-.306.216-.192.324-.45.324-.774v-.108c-.012-.012-.018-.036-.018-.072v-.054l-.108.036a.932.932 0 0 1-.234.018c-.24 0-.45-.108-.63-.324-.18-.216-.27-.498-.27-.846Zm3.775-2.61h2.16c.084.372.246.702.486.99.54.66 1.308.99 2.304.99.828 0 1.482-.204 1.962-.612.492-.42.738-.936.738-1.548 0-.696-.222-1.242-.666-1.638-.432-.408-1.05-.612-1.854-.612h-3.06v-1.8l3.78-2.7v-.09h-5.22v-1.98h8.28v1.962l-3.24 2.358-.9.36v.09l.288-.036c.396-.036.63-.054.702-.054 1.128 0 2.07.39 2.826 1.17.756.78 1.134 1.77 1.134 2.97 0 1.152-.444 2.13-1.332 2.934-.888.804-2.034 1.206-3.438 1.206-1.86 0-3.234-.66-4.122-1.98-.384-.564-.66-1.224-.828-1.98Zm10.898 0h2.16c.084.372.246.702.486.99.54.66 1.308.99 2.304.99.828 0 1.482-.204 1.962-.612.492-.42.738-.936.738-1.548 0-.696-.222-1.242-.666-1.638-.432-.408-1.05-.612-1.854-.612h-3.06v-1.8l3.78-2.7v-.09h-5.22v-1.98h8.28v1.962l-3.24 2.358-.9.36v.09l.288-.036c.396-.036.63-.054.702-.054 1.128 0 2.07.39 2.826 1.17.756.78 1.134 1.77 1.134 2.97 0 1.152-.444 2.13-1.332 2.934-.888.804-2.034 1.206-3.438 1.206-1.86 0-3.234-.66-4.122-1.98-.384-.564-.66-1.224-.828-1.98Z" fill="#fff"/><path d="M65.766 216.78c0-.448.098-.915.294-1.4.205-.495.401-.882.588-1.162.196-.289.462-.649.798-1.078l2.24-2.94h1.89l-2.114 2.758-.616.532v.07l.28-.098c.28-.075.583-.112.91-.112.915 0 1.69.331 2.324.994.644.653.966 1.465.966 2.436 0 .989-.355 1.82-1.064 2.492-.71.672-1.615 1.008-2.716 1.008-1.102 0-2.007-.336-2.716-1.008-.71-.672-1.064-1.503-1.064-2.492Zm2.254-1.456c-.383.373-.574.859-.574 1.456s.191 1.087.574 1.47c.383.373.891.56 1.526.56.634 0 1.143-.187 1.526-.56.382-.383.574-.873.574-1.47s-.192-1.083-.574-1.456c-.383-.383-.892-.574-1.526-.574-.635 0-1.144.191-1.526.574Zm6.43 3.906c0-.28.088-.513.265-.7a.931.931 0 0 1 .686-.28c.308 0 .55.112.728.336.187.224.28.555.28.994 0 .719-.172 1.269-.518 1.652-.336.392-.793.588-1.372.588v-.7c.28 0 .5-.079.658-.238a.765.765 0 0 0 .252-.602v-.084c-.01-.009-.014-.028-.014-.056v-.042l-.084.028a.742.742 0 0 1-.182.014c-.186 0-.35-.084-.49-.252-.14-.168-.21-.387-.21-.658Zm4.475-.406c-.886-.971-1.33-2.212-1.33-3.724s.444-2.753 1.33-3.724c.887-.971 1.96-1.456 3.22-1.456 1.26 0 2.334.485 3.22 1.456.887.971 1.33 2.212 1.33 3.724s-.443 2.753-1.33 3.724c-.886.971-1.96 1.456-3.22 1.456-1.26 0-2.333-.485-3.22-1.456Zm1.148-6.412c-.532.635-.798 1.531-.798 2.688 0 1.157.266 2.053.798 2.688.542.635 1.232.952 2.072.952.84 0 1.526-.317 2.058-.952.542-.635.812-1.531.812-2.688 0-1.157-.27-2.053-.812-2.688-.532-.635-1.218-.952-2.058-.952-.84 0-1.53.317-2.072.952Zm7.816 4.858h1.68c.074.289.2.537.378.742.41.485 1.008.728 1.792.728.625 0 1.12-.168 1.484-.504.364-.336.546-.775.546-1.316 0-.569-.182-1.027-.546-1.372-.364-.345-.86-.518-1.484-.518-.58 0-1.07.154-1.47.462a1.928 1.928 0 0 0-.42.448h-1.54l.42-5.74h5.95v1.54h-4.62l-.21 2.52h.07a2.13 2.13 0 0 1 .518-.378c.438-.261.966-.392 1.582-.392.98 0 1.796.327 2.45.98.653.653.98 1.47.98 2.45 0 .961-.346 1.764-1.036 2.408-.682.635-1.573.952-2.674.952-1.438 0-2.506-.499-3.206-1.498a4.417 4.417 0 0 1-.644-1.512ZM182.696 39.2h1.68a1.8 1.8 0 0 0 .378.77c.42.513 1.017.77 1.792.77.644 0 1.153-.159 1.526-.476.383-.327.574-.728.574-1.204 0-.541-.173-.966-.518-1.274-.336-.317-.817-.476-1.442-.476h-2.38v-1.4l2.94-2.1v-.07h-4.06V32.2h6.44v1.526l-2.52 1.834-.7.28v.07l.224-.028c.308-.028.49-.042.546-.042.877 0 1.61.303 2.198.91.588.607.882 1.377.882 2.31 0 .896-.345 1.657-1.036 2.282-.691.625-1.582.938-2.674.938-1.447 0-2.515-.513-3.206-1.54a4.404 4.404 0 0 1-.644-1.54Zm8.616 2.03c0-.28.089-.513.266-.7a.934.934 0 0 1 .686-.28c.308 0 .551.112.728.336.187.224.28.555.28.994 0 .719-.172 1.27-.518 1.652-.336.392-.793.588-1.372.588v-.7c.28 0 .5-.08.658-.238a.765.765 0 0 0 .252-.602v-.084c-.009-.01-.014-.028-.014-.056v-.042l-.084.028a.722.722 0 0 1-.182.014c-.186 0-.35-.084-.49-.252-.14-.168-.21-.387-.21-.658Zm3.007-2.45c0-.448.098-.915.294-1.4.205-.495.401-.882.588-1.162.196-.29.462-.649.798-1.078l2.24-2.94h1.89l-2.114 2.758-.616.532v.07l.28-.098a3.52 3.52 0 0 1 .91-.112c.914 0 1.689.331 2.324.994.644.653.966 1.465.966 2.436 0 .99-.355 1.82-1.064 2.492-.71.672-1.615 1.008-2.716 1.008-1.102 0-2.007-.336-2.716-1.008-.71-.672-1.064-1.503-1.064-2.492Zm2.254-1.456c-.383.373-.574.859-.574 1.456s.191 1.087.574 1.47c.382.373.891.56 1.526.56.634 0 1.143-.187 1.526-.56.382-.383.574-.873.574-1.47s-.192-1.083-.574-1.456c-.383-.383-.892-.574-1.526-.574-.635 0-1.144.191-1.526.574Zm6.359 1.456c0-.448.098-.915.294-1.4.205-.495.401-.882.588-1.162.196-.29.462-.649.798-1.078l2.24-2.94h1.89l-2.114 2.758-.616.532v.07l.28-.098a3.52 3.52 0 0 1 .91-.112c.915 0 1.689.331 2.324.994.644.653.966 1.465.966 2.436 0 .99-.355 1.82-1.064 2.492-.709.672-1.615 1.008-2.716 1.008-1.101 0-2.007-.336-2.716-1.008-.709-.672-1.064-1.503-1.064-2.492Zm2.254-1.456c-.383.373-.574.859-.574 1.456s.191 1.087.574 1.47c.383.373.891.56 1.526.56s1.143-.187 1.526-.56c.383-.383.574-.873.574-1.47s-.191-1.083-.574-1.456c-.383-.383-.891-.574-1.526-.574s-1.143.191-1.526.574Zm-53.56 273.096v-1.82l1.82-1.4h1.47v9.8h-1.61v-7.84l-1.68 1.26Zm4.831 3.85h1.68c.075.289.201.537.378.742.411.485 1.008.728 1.792.728.625 0 1.12-.168 1.484-.504.364-.336.546-.775.546-1.316 0-.569-.182-1.027-.546-1.372-.364-.345-.859-.518-1.484-.518-.579 0-1.069.154-1.47.462a1.916 1.916 0 0 0-.42.448h-1.54l.42-5.74h5.95v1.54h-4.62l-.21 2.52h.07c.149-.149.322-.275.518-.378.439-.261.966-.392 1.582-.392.98 0 1.797.327 2.45.98.653.653.98 1.47.98 2.45 0 .961-.345 1.764-1.036 2.408-.681.635-1.573.952-2.674.952-1.437 0-2.506-.499-3.206-1.498a4.417 4.417 0 0 1-.644-1.512Zm8.613 1.96c0-.28.089-.513.266-.7a.933.933 0 0 1 .686-.28c.308 0 .551.112.728.336.187.224.28.555.28.994 0 .719-.172 1.269-.518 1.652-.336.392-.793.588-1.372.588v-.7c.28 0 .5-.079.658-.238a.765.765 0 0 0 .252-.602v-.084c-.009-.009-.014-.028-.014-.056v-.042l-.084.028a.738.738 0 0 1-.182.014c-.186 0-.35-.084-.49-.252-.14-.168-.21-.387-.21-.658Zm2.726-1.19v-1.54l3.29-6.3h1.75l-3.29 6.3h3.22v-2.38h1.61v2.38h1.4v1.54h-1.4V317h-1.61v-1.96h-4.97Zm8.54-.77h1.68c.075.289.201.537.378.742.411.485 1.008.728 1.792.728.625 0 1.12-.168 1.484-.504.364-.336.546-.775.546-1.316 0-.569-.182-1.027-.546-1.372-.364-.345-.859-.518-1.484-.518-.579 0-1.069.154-1.47.462a1.916 1.916 0 0 0-.42.448h-1.54l.42-5.74h5.95v1.54h-4.62l-.21 2.52h.07c.149-.149.322-.275.518-.378.439-.261.966-.392 1.582-.392.98 0 1.797.327 2.45.98.653.653.98 1.47.98 2.45 0 .961-.345 1.764-1.036 2.408-.681.635-1.573.952-2.674.952-1.437 0-2.506-.499-3.206-1.498a4.417 4.417 0 0 1-.644-1.512Z" fill="#333"/><path d="M58.313 232.898v22.642h22.034v-22.642H58.313Z" fill="#fff" stroke="#5A5A5A" stroke-width=".5"/><path d="M59.152 253.704v-17.622c0-.668.355-1.024 1.052-1.024h18.25c.712 0 1.053.342 1.053 1.024v17.622c.015.682-.341 1.024-1.038 1.024h-18.25c-.712.014-1.067-.342-1.067-1.024Z" fill="#fff" stroke="#5A5A5A" stroke-width=".5"/><path d="M65.04 252.083c1.622-.014 2.945-1.294 2.945-2.873 0-1.593-1.323-2.872-2.944-2.872-1.636 0-2.945 1.28-2.945 2.872 0 1.593 1.309 2.873 2.945 2.873Zm8.72-.027c1.622-.015 2.945-1.295 2.945-2.873 0-1.593-1.323-2.873-2.944-2.873-1.636 0-2.945 1.28-2.945 2.873-.014 1.593 1.309 2.887 2.945 2.873Zm0-8.165c1.636 0 2.945-1.28 2.945-2.873 0-1.593-1.323-2.873-2.945-2.873-1.621.014-2.944 1.294-2.944 2.873 0 1.579 1.323 2.873 2.944 2.873Zm-8.72 0c1.637 0 2.945-1.28 2.945-2.873 0-1.593-1.323-2.873-2.944-2.873-1.622.014-2.945 1.294-2.945 2.873 0 1.579 1.323 2.873 2.945 2.873Z" stroke="#5A5A5A" stroke-width=".5"/><path d="M14.507 213.777h21.82v21.468H14.493l.014-21.468Z" fill="#fff" stroke="#5A5A5A" stroke-width=".5"/><path d="M20.491 215.411h12.063c.673 0 1.002.329 1.002 1.015v15.95c0 .659-.33 1.002-.988 1.016l-12.077-.014c-.658.014-.988-.329-.988-1.002v-15.95c-.027-.672.316-1.015.988-1.015Z" fill="#fff" stroke="#5A5A5A" stroke-width=".5"/><path d="M16.182 224.401c.013.838.645 1.51 1.44 1.51l6.327-.59.014-.014c.48 0 .864-.398.864-.906a.901.901 0 0 0-.878-.919l-6.326-.591c-.783 0-1.428.673-1.441 1.51Z" stroke="#5A5A5A" stroke-width=".5"/><mask id="a" fill="#fff"><path fill-rule="evenodd" clip-rule="evenodd" d="m16.8 225.65 3.444-.329a.895.895 0 0 0 .865-.934.887.887 0 0 0-.865-.905l-3.444-.33"/></mask><path fill-rule="evenodd" clip-rule="evenodd" d="m16.8 225.65 3.444-.329a.895.895 0 0 0 .865-.934.887.887 0 0 0-.865-.905l-3.444-.33" fill="#fff"/><path d="m20.244 225.321-.014-.5h-.017l-.016.002.047.498Zm.865-.934h-.5v.014l.5-.014Zm-.865-.905-.047.497.016.002h.017l.014-.499Zm-3.397 2.666 3.445-.329-.095-.996-3.445.33.095.995Zm3.412-.327a1.396 1.396 0 0 0 1.35-1.447l-1 .027a.395.395 0 0 1-.379.42l.029 1Zm1.35-1.434c0-.776-.598-1.384-1.35-1.405l-.029.999a.388.388 0 0 1 .379.406h1Zm-1.317-1.403-3.445-.33-.095.996 3.445.329.095-.995Z" fill="#5A5A5A" mask="url(#a)"/><path d="M281.715 344.218h-62.503v95.112h62.503v-95.112Zm134.064-74.279h-77.902v162.145h77.902V269.939Z" fill="#FFC79F"/><path d="m391.752 287.802 1.07.015 2.777-.015h6.876v9.019h-10.723c-2.732 0-4.96-2.032-4.96-4.524 0-2.463 2.228-4.495 4.96-4.495Z" fill="#fff" stroke="#5A5A5A" stroke-width=".5"/><path d="M391.812 288.84h7.693v6.958h-6.847l-.846-.015c-2.154 0-3.906-1.543-3.906-3.472.015-1.913 1.767-3.471 3.906-3.471Zm16.426 9.613h-4.768a.995.995 0 0 1-.995-.994v-10.221c0-.549.446-.994.995-.994h4.768c.549 0 .995.445.995.994v10.206a.998.998 0 0 1-.995 1.009Z" fill="#fff" stroke="#5A5A5A" stroke-width=".5"/><path d="M405.861 292.935c-.371 0-.653-.267-.653-.579-.015-.326.282-.593.653-.593.372 0 .654.267.654.578a.62.62 0 0 1-.654.594Zm-54.397 25.782v-11.149c0-.775.62-1.396 1.394-1.396h16.775a1.39 1.39 0 0 1 1.394 1.396v11.149c0 .775-.619 1.395-1.394 1.395h-16.775c-.762 0-1.394-.62-1.394-1.395Z" fill="#fff" stroke="#5A5A5A" stroke-width=".5"/><path d="M353.206 314.466v-1.718a4.094 4.094 0 0 1 4.091-4.095h7.897a4.094 4.094 0 0 1 4.091 4.095v1.718a4.094 4.094 0 0 1-4.091 4.096h-7.897a4.095 4.095 0 0 1-4.091-4.096Z" fill="#fff" stroke="#5A5A5A" stroke-width=".5"/><path d="M360.381 316.378c0-.492.387-.891.864-.891.478 0 .865.399.865.891a.878.878 0 0 1-.865.892c-.477 0-.864-.399-.864-.892Z" fill="#fff" stroke="#5A5A5A" stroke-width=".5"/><path fill="#5A5A5A" d="M182.979 56.162v27.175H119.57V56.162z"/><path stroke="#5A5A5A" d="m181.976 68.366 22.645 13.588"/><path d="m248.567.25-68.015.057-.025 3.972h68.04V.25Z" stroke="#5A5A5A" stroke-width=".5" stroke-miterlimit="10"/><path fill="#5A5A5A" d="M263.31 0h4.529v74.278h-4.529zM162.682 2.718h4.529v71.561h-4.529z"/><path fill="#5A5A5A" d="M181.276 0v5h-19V0zm84 0v5h-19V0z"/><path d="m212.658 56.412 57.451.057.022 3.972h-57.473v-4.029Zm0 9.058 57.451.057.022 3.972h-57.473v-4.028Z" stroke="#5A5A5A" stroke-width=".5" stroke-miterlimit="10"/><path fill="#5A5A5A" d="M324.289 56.162v27.175H250.01V56.162zm99.641 0v27.175h-40.762V56.162z"/><path fill="#5A5A5A" d="M409.438 61.597h14.493v549.842h-14.493zM0 56.162h14.493v213.777H0z"/><path fill="#5A5A5A" d="M131.346 255.446v14.493H0v-14.493zM14.493 190.225v-1.812h5.435v1.812zm9.965 0v-1.811h9.964v1.811zm15.399 0v-1.812h9.964v1.812zm15.399 0v-1.812h9.964v1.812zm15.399 0v-1.812h9.964v1.812zm15.399 0v-1.812h9.964v1.812zm18.117 0v-1.812h9.964v1.812zm13.588 0v-1.812h9.964v1.812z"/><path fill="#5A5A5A" d="M131.346 269.939h-1.812v-5.435h1.812zm0-9.964h-1.812v-9.964h1.812zm0-15.399h-1.812v-9.964h1.812zm0-15.399h-1.812v-9.964h1.812zm0-15.4h-1.812v-9.964h1.812zm0-15.399h-1.812v-9.964h1.812zm-4.529 99.642h-14.493v-41.668h14.493zm0 76.996h-14.493v-41.668h14.493z"/><path fill="#5A5A5A" d="M119.57 375.016v-14.493h102.359v14.493z"/><path fill="#5A5A5A" d="M207.436 367.769h14.493v77.902h-14.493zm54.35 64.315h14.493v192.037h-14.493z"/><path fill="#5A5A5A" d="M290.773 431.178v14.493h-76.09v-14.493zm121.382 0v14.493h-85.148v-14.493zm3.624-175.732v14.493h-88.772v-14.493zm-125.006 0v14.493H271.75v-14.493zm-53.444 0v14.493h-70.655v-14.493zM424.276 609v27h-41v-27zm-103.61-.279v27.175h-58.879v-27.175z"/><path d="m390.165 56.412-115.593.137-.045 10.233h115.638v-10.37Zm-250 0-115.593.13-.045 9.705h115.638v-9.835Zm250 553-119.591.137-.047 10.233h119.638v-10.37Zm0-536.695-115.593.137-.045 10.233h115.638v-10.37Zm-250-.802-115.593.13-.045 9.705h115.638v-9.835Zm250 552.802-119.591.137-.047 10.233h119.638v-10.37Z" stroke="#5A5A5A" stroke-width=".5" stroke-miterlimit="10"/><path fill="#5A5A5A" d="M279.903 336.971h7.247v99.642h-7.247zm50.727 45.291h7.247v63.408h-7.247zm0-73.372h7.247v45.292h-7.247zm0-52.538h7.247v23.552h-7.247z"/><path fill="#5A5A5A" d="M412.155 319.76v7.247h-77.902v-7.247z"/><path d="m392.322 343.058 1.07.015 2.777-.015h6.876v9.02h-10.723c-2.732 0-4.96-2.033-4.96-4.525 0-2.463 2.228-4.495 4.96-4.495Z" fill="#fff" stroke="#5A5A5A" stroke-width=".5"/><path d="M392.382 344.096h7.693v6.958h-6.847l-.846-.015c-2.154 0-3.906-1.543-3.906-3.471.015-1.914 1.767-3.472 3.906-3.472Zm16.426 9.613h-4.768a.995.995 0 0 1-.995-.994v-10.221c0-.549.446-.994.995-.994h4.768c.549 0 .995.445.995.994V352.7a.998.998 0 0 1-.995 1.009Z" fill="#fff" stroke="#5A5A5A" stroke-width=".5"/><path d="M406.432 348.19c-.372 0-.654-.267-.654-.578-.015-.326.282-.593.654-.593.371 0 .653.267.653.578a.619.619 0 0 1-.653.593Zm-166.957 44.422-1.069-.015-2.778.015h-6.876v-9.02h10.723c2.733 0 4.961 2.033 4.961 4.525 0 2.463-2.228 4.495-4.961 4.495Z" fill="#fff" stroke="#5A5A5A" stroke-width=".5"/><path d="M239.416 391.574h-7.694v-6.958h6.847l.847.015c2.153 0 3.906 1.543 3.906 3.471-.015 1.914-1.768 3.472-3.906 3.472Zm-16.426-9.613h4.767c.55 0 .995.445.995.994v10.221a.994.994 0 0 1-.995.994h-4.767a.995.995 0 0 1-.996-.994v-10.207a.998.998 0 0 1 .996-1.008Z" fill="#fff" stroke="#5A5A5A" stroke-width=".5"/><path d="M225.366 387.479c.371 0 .653.267.653.579.015.326-.282.593-.653.593-.371 0-.654-.267-.654-.578a.62.62 0 0 1 .654-.594Zm183.106-5.991h-11.149a1.388 1.388 0 0 1-1.395-1.393v-16.776c0-.774.62-1.393 1.395-1.393h11.149c.776 0 1.396.619 1.396 1.393v16.776c0 .761-.62 1.393-1.396 1.393Z" fill="#fff" stroke="#5A5A5A" stroke-width=".5"/><path d="M404.222 379.746h-1.718a4.093 4.093 0 0 1-4.095-4.09v-7.898a4.093 4.093 0 0 1 4.095-4.09h1.718a4.094 4.094 0 0 1 4.096 4.09v7.898a4.094 4.094 0 0 1-4.096 4.09Z" fill="#fff" stroke="#5A5A5A" stroke-width=".5"/><path d="M406.134 372.572a.878.878 0 0 1-.891-.865c0-.477.399-.864.891-.864.493 0 .892.387.892.864a.878.878 0 0 1-.892.865Zm-182.809-18.39h11.149c.775 0 1.395.619 1.395 1.393v16.776c0 .774-.62 1.394-1.395 1.394h-11.149c-.775 0-1.395-.62-1.395-1.394v-16.776c0-.761.62-1.393 1.395-1.393Z" fill="#fff" stroke="#5A5A5A" stroke-width=".5"/><path d="M227.575 355.924h1.718a4.094 4.094 0 0 1 4.096 4.09v7.898a4.094 4.094 0 0 1-4.096 4.09h-1.718a4.093 4.093 0 0 1-4.095-4.09v-7.898a4.093 4.093 0 0 1 4.095-4.09Z" fill="#fff" stroke="#5A5A5A" stroke-width=".5"/><path d="M225.663 363.098c.492 0 .892.387.892.865 0 .477-.4.864-.892.864a.878.878 0 0 1-.891-.864c0-.478.399-.865.891-.865Zm182.086 44.386h-54.46a1.25 1.25 0 0 0-1.255 1.254v21.62a1.25 1.25 0 0 0 1.255 1.254h54.46a1.25 1.25 0 0 0 1.255-1.254v-21.62c0-.696-.57-1.254-1.255-1.254Z" fill="#fff" stroke="#5A5A5A" stroke-width=".5"/><path d="M355.382 416.616v5.877a6.157 6.157 0 0 0 6.162 6.155h42.883c.837 0 1.509-.671 1.509-1.507v-15.198c0-.836-.672-1.507-1.509-1.507h-42.87c-3.411.012-6.175 2.773-6.175 6.18Z" fill="#fff" stroke="#5A5A5A" stroke-width=".5"/><path d="M400.851 419.124c0-.679.574-1.229 1.281-1.229s1.281.55 1.281 1.229c0 .678-.574 1.228-1.281 1.228s-1.281-.55-1.281-1.228Zm-62.974-72.167v-19.938l19.554-.012-.012 19.937-19.542.013Z" fill="#fff" stroke="#5A5A5A" stroke-width=".5"/><path d="M352.669 336.975c0-2.821-2.241-5.098-5.015-5.098-2.774 0-5.015 2.277-5.015 5.111 0 2.821 2.241 5.123 5.015 5.123 2.774-.012 5.015-2.315 5.015-5.136Z" stroke="#5A5A5A" stroke-width=".5"/><path d="M347.654 340.707a3.51 3.51 0 0 0 2.584-1.088 3.863 3.863 0 0 0 1.076-2.631m-3.647-3.745c1 0 1.912.418 2.583 1.088a3.79 3.79 0 0 1 1.077 2.644l-3.66-3.732Zm-.013 7.464c-1 0-1.912-.417-2.584-1.088a3.805 3.805 0 0 1-1.063-2.644l3.647 3.732Zm.013-7.464a3.567 3.567 0 0 0-2.584 1.088l-.013.013a3.773 3.773 0 0 0-1.063 2.619l3.66-3.72Z" stroke="#5A5A5A" stroke-width=".5"/><path fill="#5A5A5A" d="M214.683 336.971h7.247v99.642h-7.247z"/><path fill="#5A5A5A" d="M240.046 336.971v7.247h-25.363v-7.247zm47.104 0v7.247h-19.928v-7.247z"/><path stroke="#5A5A5A" d="m288.724 432.549 35.328-19.023m7.946-28.316-13.588-26.27m-46.871-19.705-28.987-13.587m-116.385-59.762 38.045 22.646m-49.644 6.115L94.64 329.069m238.249-51.66-13.588 27.175m10.664-36.924-36.233 19.928m-19.022-19.929-34.422 19.023"/><path d="M237.486 413.04v-1.54l3.29-6.3h1.75l-3.29 6.3h3.22v-2.38h1.61v2.38h1.4v1.54h-1.4V415h-1.61v-1.96h-4.97Zm8.539 1.19c0-.28.089-.513.266-.7a.933.933 0 0 1 .686-.28c.308 0 .551.112.728.336.187.224.28.555.28.994 0 .719-.172 1.269-.518 1.652-.336.392-.793.588-1.372.588v-.7c.28 0 .5-.079.658-.238a.765.765 0 0 0 .252-.602v-.084c-.009-.009-.014-.028-.014-.056v-.042l-.084.028a.738.738 0 0 1-.182.014c-.186 0-.35-.084-.49-.252-.14-.168-.21-.387-.21-.658Zm2.867-5.81v-1.82l1.82-1.4h1.47v9.8h-1.61v-7.84l-1.68 1.26Zm4.411-1.68v-1.54h6.65v1.54l-3.92 8.26h-1.75l3.85-8.12v-.14h-4.83Zm96.463-30.96c0-.448.098-.915.294-1.4.205-.495.401-.882.588-1.162.196-.289.462-.649.798-1.078l2.24-2.94h1.89l-2.114 2.758-.616.532v.07l.28-.098c.28-.075.583-.112.91-.112.915 0 1.689.331 2.324.994.644.653.966 1.465.966 2.436 0 .989-.355 1.82-1.064 2.492-.709.672-1.615 1.008-2.716 1.008-1.101 0-2.007-.336-2.716-1.008-.709-.672-1.064-1.503-1.064-2.492Zm2.254-1.456c-.383.373-.574.859-.574 1.456s.191 1.087.574 1.47c.383.373.891.56 1.526.56s1.143-.187 1.526-.56c.383-.383.574-.873.574-1.47s-.191-1.083-.574-1.456c-.383-.383-.891-.574-1.526-.574s-1.143.191-1.526.574Zm6.429 3.906c0-.28.089-.513.266-.7a.932.932 0 0 1 .686-.28c.308 0 .551.112.728.336.187.224.28.555.28.994 0 .719-.173 1.269-.518 1.652-.336.392-.793.588-1.372.588v-.7c.28 0 .499-.079.658-.238a.765.765 0 0 0 .252-.602v-.084c-.009-.009-.014-.028-.014-.056v-.042l-.084.028a.743.743 0 0 1-.182.014c-.187 0-.35-.084-.49-.252-.14-.168-.21-.387-.21-.658Zm4.476-.406c-.886-.971-1.33-2.212-1.33-3.724s.444-2.753 1.33-3.724c.887-.971 1.96-1.456 3.22-1.456 1.26 0 2.334.485 3.22 1.456.887.971 1.33 2.212 1.33 3.724s-.443 2.753-1.33 3.724c-.886.971-1.96 1.456-3.22 1.456-1.26 0-2.333-.485-3.22-1.456Zm1.148-6.412c-.532.635-.798 1.531-.798 2.688 0 1.157.266 2.053.798 2.688.542.635 1.232.952 2.072.952.84 0 1.526-.317 2.058-.952.542-.635.812-1.531.812-2.688 0-1.157-.27-2.053-.812-2.688-.532-.635-1.218-.952-2.058-.952-.84 0-1.53.317-2.072.952Zm7.466 5.628v-1.54l3.29-6.3h1.75l-3.29 6.3h3.22v-2.38h1.61v2.38h1.4v1.54h-1.4V379h-1.61v-1.96h-4.97Zm-54.913 149.38v-1.82l1.82-1.4h1.47v9.8h-1.61v-7.84l-1.68 1.26Zm4.761 3.36c0-.448.098-.915.294-1.4.205-.495.401-.882.588-1.162.196-.289.462-.649.798-1.078l2.24-2.94h1.89l-2.114 2.758-.616.532v.07l.28-.098c.28-.075.583-.112.91-.112.915 0 1.689.331 2.324.994.644.653.966 1.465.966 2.436 0 .989-.355 1.82-1.064 2.492-.709.672-1.615 1.008-2.716 1.008-1.101 0-2.007-.336-2.716-1.008-.709-.672-1.064-1.503-1.064-2.492Zm2.254-1.456c-.383.373-.574.859-.574 1.456s.191 1.087.574 1.47c.383.373.891.56 1.526.56s1.143-.187 1.526-.56c.383-.383.574-.873.574-1.47s-.191-1.083-.574-1.456c-.383-.383-.891-.574-1.526-.574s-1.143.191-1.526.574Zm6.429 3.906c0-.28.089-.513.266-.7a.933.933 0 0 1 .686-.28c.308 0 .551.112.728.336.187.224.28.555.28.994 0 .719-.172 1.269-.518 1.652-.336.392-.793.588-1.372.588v-.7c.28 0 .5-.079.658-.238a.765.765 0 0 0 .252-.602v-.084c-.009-.009-.014-.028-.014-.056v-.042l-.084.028a.738.738 0 0 1-.182.014c-.186 0-.35-.084-.49-.252-.14-.168-.21-.387-.21-.658Zm3.006-2.45c0-.448.098-.915.294-1.4.206-.495.402-.882.588-1.162.196-.289.462-.649.798-1.078l2.24-2.94h1.89l-2.114 2.758-.616.532v.07l.28-.098c.28-.075.584-.112.91-.112.915 0 1.69.331 2.324.994.644.653.966 1.465.966 2.436 0 .989-.354 1.82-1.064 2.492-.709.672-1.614 1.008-2.716 1.008-1.101 0-2.006-.336-2.716-1.008-.709-.672-1.064-1.503-1.064-2.492Zm2.254-1.456c-.382.373-.574.859-.574 1.456s.192 1.087.574 1.47c.383.373.892.56 1.526.56.635 0 1.144-.187 1.526-.56.383-.383.574-.873.574-1.47s-.191-1.083-.574-1.456c-.382-.383-.891-.574-1.526-.574-.634 0-1.143.191-1.526.574Zm6.08 2.716v-1.54l3.29-6.3h1.75l-3.29 6.3h3.22v-2.38h1.61v2.38h1.4v1.54h-1.4V533h-1.61v-1.96h-4.97ZM347.696 296v-1.54l3.346-2.366c.728-.523 1.251-1.008 1.568-1.456.317-.448.476-.924.476-1.428 0-.532-.163-.957-.49-1.274-.327-.317-.77-.476-1.33-.476-.691 0-1.209.28-1.554.84a2.851 2.851 0 0 0-.336.84h-1.68a4.332 4.332 0 0 1 .546-1.61c.663-1.073 1.671-1.61 3.024-1.61 1.036 0 1.876.308 2.52.924.653.607.98 1.372.98 2.296 0 .803-.205 1.526-.616 2.17-.411.635-1.069 1.265-1.974 1.89l-1.4.98-.63.28v.07l.84-.07h3.78V296h-7.07Zm8.193-.77c0-.28.088-.513.266-.7a.93.93 0 0 1 .686-.28c.308 0 .55.112.728.336.186.224.28.555.28.994 0 .719-.173 1.269-.518 1.652-.336.392-.794.588-1.372.588v-.7c.28 0 .499-.079.658-.238a.765.765 0 0 0 .252-.602v-.084c-.01-.009-.014-.028-.014-.056v-.042l-.084.028a.743.743 0 0 1-.182.014c-.187 0-.35-.084-.49-.252-.14-.168-.21-.387-.21-.658Zm3.076-5.81c0-.989.354-1.82 1.064-2.492.709-.672 1.614-1.008 2.716-1.008 1.101 0 2.006.336 2.716 1.008.709.672 1.064 1.503 1.064 2.492 0 .887-.369 1.843-1.106 2.87l-.308.42c-.131.168-.22.285-.266.35l-2.24 2.94h-1.89l2.114-2.758.616-.532v-.07a7.65 7.65 0 0 1-.28.112 3.583 3.583 0 0 1-.91.098 3.163 3.163 0 0 1-2.338-.98c-.635-.663-.952-1.479-.952-2.45Zm2.254-1.456c-.383.373-.574.859-.574 1.456s.191 1.087.574 1.47c.382.373.891.56 1.526.56.634 0 1.143-.187 1.526-.56.382-.383.574-.873.574-1.47s-.192-1.083-.574-1.456c-.383-.383-.892-.574-1.526-.574-.635 0-1.144.191-1.526.574Zm6.359 5.376c0-.849.327-1.526.98-2.03a3.16 3.16 0 0 1 .98-.448v-.084a2.568 2.568 0 0 1-.77-.462c-.513-.439-.77-1.017-.77-1.736 0-.737.313-1.363.938-1.876.635-.523 1.489-.784 2.562-.784 1.073 0 1.923.261 2.548.784.635.513.952 1.139.952 1.876 0 .7-.257 1.279-.77 1.736-.243.196-.499.35-.77.462v.084c.355.093.681.247.98.462.653.504.98 1.176.98 2.016 0 .812-.355 1.507-1.064 2.086-.7.569-1.652.854-2.856.854s-2.161-.285-2.87-.854c-.7-.579-1.05-1.274-1.05-2.086Zm2.1-4.62c0 .411.159.747.476 1.008.317.261.765.392 1.344.392.579 0 1.027-.131 1.344-.392.317-.261.476-.597.476-1.008 0-.373-.163-.686-.49-.938-.317-.261-.761-.392-1.33-.392-.569 0-1.017.131-1.344.392-.317.252-.476.565-.476.938Zm.168 3.346c-.392.308-.588.686-.588 1.134 0 .448.196.831.588 1.148.401.308.952.462 1.652.462s1.246-.154 1.638-.462c.401-.317.602-.7.602-1.148 0-.448-.201-.826-.602-1.134-.392-.317-.938-.476-1.638-.476s-1.251.159-1.652.476Z" fill="#333"/></svg>