<svg width="283" height="694" fill="none" xmlns="http://www.w3.org/2000/svg"><path fill="#5A5A5A" d="M252 634v-30h31v30z"/><path d="M120 603V426.845h147V603H120ZM34 339.549V30h232v309.549H34Z" fill="#FFF8BA"/><path d="M34 336.477V29.689h248v306.788H34Z" fill="#FFF8BA"/><path d="M121 446.637V139.85h155v306.787H121Z" fill="#FFF8BA"/><path d="M162.35 525.42v-1.82l1.82-1.4h1.47v9.8h-1.61v-7.84l-1.68 1.26Zm4.831 3.85h1.68c.075.289.201.537.378.742.411.485 1.008.728 1.792.728.625 0 1.12-.168 1.484-.504.364-.336.546-.775.546-1.316 0-.569-.182-1.027-.546-1.372-.364-.345-.859-.518-1.484-.518-.579 0-1.069.154-1.47.462a1.916 1.916 0 0 0-.42.448h-1.54l.42-5.74h5.95v1.54h-4.62l-.21 2.52h.07c.149-.149.322-.275.518-.378.439-.261.966-.392 1.582-.392.98 0 1.797.327 2.45.98.653.653.98 1.47.98 2.45 0 .961-.345 1.764-1.036 2.408-.681.635-1.573.952-2.674.952-1.437 0-2.506-.499-3.206-1.498a4.417 4.417 0 0 1-.644-1.512Zm8.613 1.96c0-.28.089-.513.266-.7a.933.933 0 0 1 .686-.28c.308 0 .551.112.728.336.187.224.28.555.28.994 0 .719-.172 1.269-.518 1.652-.336.392-.793.588-1.372.588v-.7c.28 0 .5-.079.658-.238a.765.765 0 0 0 .252-.602v-.084c-.009-.009-.014-.028-.014-.056v-.042l-.084.028a.738.738 0 0 1-.182.014c-.186 0-.35-.084-.49-.252-.14-.168-.21-.387-.21-.658Zm4.477-.406c-.887-.971-1.33-2.212-1.33-3.724s.443-2.753 1.33-3.724c.886-.971 1.96-1.456 3.22-1.456 1.26 0 2.333.485 3.22 1.456.886.971 1.33 2.212 1.33 3.724s-.444 2.753-1.33 3.724c-.887.971-1.96 1.456-3.22 1.456-1.26 0-2.334-.485-3.22-1.456Zm1.148-6.412c-.532.635-.798 1.531-.798 2.688 0 1.157.266 2.053.798 2.688.541.635 1.232.952 2.072.952.84 0 1.526-.317 2.058-.952.541-.635.812-1.531.812-2.688 0-1.157-.271-2.053-.812-2.688-.532-.635-1.218-.952-2.058-.952-.84 0-1.531.317-2.072.952Zm7.745 4.368c0-.448.098-.915.294-1.4.205-.495.401-.882.588-1.162.196-.289.462-.649.798-1.078l2.24-2.94h1.89l-2.114 2.758-.616.532v.07l.28-.098c.28-.075.583-.112.91-.112.914 0 1.689.331 2.324.994.644.653.966 1.465.966 2.436 0 .989-.355 1.82-1.064 2.492-.71.672-1.615 1.008-2.716 1.008-1.102 0-2.007-.336-2.716-1.008-.71-.672-1.064-1.503-1.064-2.492Zm2.254-1.456c-.383.373-.574.859-.574 1.456s.191 1.087.574 1.47c.382.373.891.56 1.526.56.634 0 1.143-.187 1.526-.56.382-.383.574-.873.574-1.47s-.192-1.083-.574-1.456c-.383-.383-.892-.574-1.526-.574-.635 0-1.144.191-1.526.574Z" fill="#333"/><path d="M196 415h70V308h-70v107Z" fill="#FFC79F"/><path d="M208.21 362.04v-1.54l3.29-6.3h1.75l-3.29 6.3h3.22v-2.38h1.61v2.38h1.4v1.54h-1.4V364h-1.61v-1.96h-4.97Zm8.539 1.19c0-.28.089-.513.266-.7a.933.933 0 0 1 .686-.28c.308 0 .551.112.728.336.187.224.28.555.28.994 0 .719-.172 1.269-.518 1.652-.336.392-.793.588-1.372.588v-.7c.28 0 .5-.079.658-.238a.765.765 0 0 0 .252-.602v-.084c-.009-.009-.014-.028-.014-.056v-.042l-.084.028a.738.738 0 0 1-.182.014c-.186 0-.35-.084-.49-.252-.14-.168-.21-.387-.21-.658Zm2.657-7.49v-1.54h6.65v1.54l-3.92 8.26h-1.75l3.85-8.12v-.14h-4.83Zm7.348 8.26v-1.54l3.346-2.366c.728-.523 1.251-1.008 1.568-1.456.317-.448.476-.924.476-1.428 0-.532-.163-.957-.49-1.274-.327-.317-.77-.476-1.33-.476-.691 0-1.209.28-1.554.84a2.851 2.851 0 0 0-.336.84h-1.68a4.332 4.332 0 0 1 .546-1.61c.663-1.073 1.671-1.61 3.024-1.61 1.036 0 1.876.308 2.52.924.653.607.98 1.372.98 2.296 0 .803-.205 1.526-.616 2.17-.411.635-1.069 1.265-1.974 1.89l-1.4.98-.63.28v.07l.84-.07h3.78V364h-7.07Z" fill="#333"/><path d="M196 301h70v-71h-70v71Z" fill="#FFC79F"/><path d="M210.42 271.2h1.68c.065.289.191.546.378.77.42.513 1.017.77 1.792.77.644 0 1.153-.159 1.526-.476.383-.327.574-.728.574-1.204 0-.541-.173-.966-.518-1.274-.336-.317-.817-.476-1.442-.476h-2.38v-1.4l2.94-2.1v-.07h-4.06v-1.54h6.44v1.526l-2.52 1.834-.7.28v.07l.224-.028c.308-.028.49-.042.546-.042.877 0 1.61.303 2.198.91.588.607.882 1.377.882 2.31 0 .896-.345 1.657-1.036 2.282-.691.625-1.582.938-2.674.938-1.447 0-2.515-.513-3.206-1.54a4.406 4.406 0 0 1-.644-1.54Zm8.617 2.03c0-.28.088-.513.266-.7a.93.93 0 0 1 .686-.28c.308 0 .55.112.728.336.186.224.28.555.28.994 0 .719-.173 1.269-.518 1.652-.336.392-.794.588-1.372.588v-.7c.28 0 .499-.079.658-.238a.765.765 0 0 0 .252-.602v-.084c-.01-.009-.014-.028-.014-.056v-.042l-.084.028a.743.743 0 0 1-.182.014c-.187 0-.35-.084-.49-.252-.14-.168-.21-.387-.21-.658Zm2.866-5.81v-1.82l1.82-1.4h1.47v9.8h-1.61v-7.84l-1.68 1.26Zm4.691 3.78h1.68c.065.289.191.546.378.77.42.513 1.017.77 1.792.77.644 0 1.152-.159 1.526-.476.382-.327.574-.728.574-1.204 0-.541-.173-.966-.518-1.274-.336-.317-.817-.476-1.442-.476h-2.38v-1.4l2.94-2.1v-.07h-4.06v-1.54h6.44v1.526l-2.52 1.834-.7.28v.07l.224-.028c.308-.028.49-.042.546-.042.877 0 1.61.303 2.198.91.588.607.882 1.377.882 2.31 0 .896-.346 1.657-1.036 2.282-.691.625-1.582.938-2.674.938-1.447 0-2.516-.513-3.206-1.54a4.388 4.388 0 0 1-.644-1.54ZM82.49 171.78c0-.448.098-.915.294-1.4.205-.495.401-.882.588-1.162.196-.289.462-.649.798-1.078l2.24-2.94h1.89l-2.114 2.758-.616.532v.07l.28-.098c.28-.075.583-.112.91-.112.915 0 1.69.331 2.324.994.644.653.966 1.465.966 2.436 0 .989-.355 1.82-1.064 2.492-.71.672-1.615 1.008-2.716 1.008-1.101 0-2.007-.336-2.716-1.008-.71-.672-1.064-1.503-1.064-2.492Zm2.254-1.456c-.383.373-.574.859-.574 1.456s.191 1.087.574 1.47c.383.373.891.56 1.526.56s1.143-.187 1.526-.56c.383-.383.574-.873.574-1.47s-.191-1.083-.574-1.456c-.383-.383-.891-.574-1.526-.574s-1.143.191-1.526.574Zm6.43 3.906c0-.28.088-.513.265-.7a.931.931 0 0 1 .686-.28c.308 0 .55.112.728.336.187.224.28.555.28.994 0 .719-.172 1.269-.518 1.652-.336.392-.793.588-1.372.588v-.7c.28 0 .5-.079.658-.238a.765.765 0 0 0 .252-.602v-.084c-.01-.009-.014-.028-.014-.056v-.042l-.084.028a.742.742 0 0 1-.182.014c-.186 0-.35-.084-.49-.252-.14-.168-.21-.387-.21-.658Zm2.725-1.19v-1.54l3.29-6.3h1.75l-3.29 6.3h3.22v-2.38h1.61v2.38h1.4v1.54h-1.4V175h-1.61v-1.96H93.9Zm8.54-.7c0-.849.327-1.526.98-2.03a3.16 3.16 0 0 1 .98-.448v-.084a2.568 2.568 0 0 1-.77-.462c-.513-.439-.77-1.017-.77-1.736 0-.737.313-1.363.938-1.876.635-.523 1.489-.784 2.562-.784 1.073 0 1.923.261 2.548.784.635.513.952 1.139.952 1.876 0 .7-.257 1.279-.77 1.736-.243.196-.499.35-.77.462v.084c.355.093.681.247.98.462.653.504.98 1.176.98 2.016 0 .812-.355 1.507-1.064 2.086-.7.569-1.652.854-2.856.854s-2.161-.285-2.87-.854c-.7-.579-1.05-1.274-1.05-2.086Zm2.1-4.62c0 .411.159.747.476 1.008.317.261.765.392 1.344.392.579 0 1.027-.131 1.344-.392.317-.261.476-.597.476-1.008 0-.373-.163-.686-.49-.938-.317-.261-.761-.392-1.33-.392-.569 0-1.017.131-1.344.392-.317.252-.476.565-.476.938Zm.168 3.346c-.392.308-.588.686-.588 1.134 0 .448.196.831.588 1.148.401.308.952.462 1.652.462s1.246-.154 1.638-.462c.401-.317.602-.7.602-1.148 0-.448-.201-.826-.602-1.134-.392-.317-.938-.476-1.638-.476s-1.251.159-1.652.476ZM196.42 187v-1.54l3.346-2.366c.728-.523 1.251-1.008 1.568-1.456.317-.448.476-.924.476-1.428 0-.532-.163-.957-.49-1.274-.327-.317-.77-.476-1.33-.476-.691 0-1.209.28-1.554.84a2.851 2.851 0 0 0-.336.84h-1.68a4.332 4.332 0 0 1 .546-1.61c.663-1.073 1.671-1.61 3.024-1.61 1.036 0 1.876.308 2.52.924.653.607.98 1.372.98 2.296 0 .803-.205 1.526-.616 2.17-.411.635-1.069 1.265-1.974 1.89l-1.4.98-.63.28v.07l.84-.07h3.78V187h-7.07Zm7.983-6.58v-1.82l1.82-1.4h1.47v9.8h-1.61v-7.84l-1.68 1.26Zm4.831 5.81c0-.28.088-.513.266-.7a.93.93 0 0 1 .686-.28c.308 0 .55.112.728.336.186.224.28.555.28.994 0 .719-.173 1.269-.518 1.652-.336.392-.794.588-1.372.588v-.7c.28 0 .499-.079.658-.238a.765.765 0 0 0 .252-.602v-.084c-.01-.009-.014-.028-.014-.056v-.042l-.084.028a.743.743 0 0 1-.182.014c-.187 0-.35-.084-.49-.252-.14-.168-.21-.387-.21-.658Zm3.006-2.45c0-.448.098-.915.294-1.4.205-.495.401-.882.588-1.162.196-.289.462-.649.798-1.078l2.24-2.94h1.89l-2.114 2.758-.616.532v.07l.28-.098c.28-.075.583-.112.91-.112.915 0 1.689.331 2.324.994.644.653.966 1.465.966 2.436 0 .989-.355 1.82-1.064 2.492-.709.672-1.615 1.008-2.716 1.008-1.101 0-2.007-.336-2.716-1.008-.709-.672-1.064-1.503-1.064-2.492Zm2.254-1.456c-.383.373-.574.859-.574 1.456s.191 1.087.574 1.47c.383.373.891.56 1.526.56s1.143-.187 1.526-.56c.383-.383.574-.873.574-1.47s-.191-1.083-.574-1.456c-.383-.383-.891-.574-1.526-.574s-1.143.191-1.526.574Zm6.359 1.456c0-.448.098-.915.294-1.4.206-.495.402-.882.588-1.162.196-.289.462-.649.798-1.078l2.24-2.94h1.89l-2.114 2.758-.616.532v.07l.28-.098c.28-.075.584-.112.91-.112.915 0 1.69.331 2.324.994.644.653.966 1.465.966 2.436 0 .989-.354 1.82-1.064 2.492-.709.672-1.614 1.008-2.716 1.008-1.101 0-2.006-.336-2.716-1.008-.709-.672-1.064-1.503-1.064-2.492Zm2.254-1.456c-.382.373-.574.859-.574 1.456s.192 1.087.574 1.47c.383.373.892.56 1.526.56.635 0 1.144-.187 1.526-.56.383-.383.574-.873.574-1.47s-.191-1.083-.574-1.456c-.382-.383-.891-.574-1.526-.574-.634 0-1.143.191-1.526.574ZM38.35 313.42v-1.82l1.82-1.4h1.47v9.8h-1.61v-7.84l-1.68 1.26Zm4.691 6.58v-1.54l3.346-2.366c.728-.523 1.25-1.008 1.568-1.456.317-.448.476-.924.476-1.428 0-.532-.163-.957-.49-1.274-.327-.317-.77-.476-1.33-.476-.69 0-1.209.28-1.554.84-.15.243-.261.523-.336.84h-1.68a4.332 4.332 0 0 1 .546-1.61c.663-1.073 1.67-1.61 3.024-1.61 1.036 0 1.876.308 2.52.924.653.607.98 1.372.98 2.296a3.95 3.95 0 0 1-.616 2.17c-.41.635-1.069 1.265-1.974 1.89l-1.4.98-.63.28v.07l.84-.07h3.78V320h-7.07Zm8.193-.77c0-.28.088-.513.266-.7a.932.932 0 0 1 .686-.28c.308 0 .55.112.728.336.186.224.28.555.28.994 0 .719-.173 1.269-.518 1.652-.336.392-.794.588-1.372.588v-.7c.28 0 .5-.079.658-.238a.765.765 0 0 0 .252-.602v-.084c-.01-.009-.014-.028-.014-.056v-.042l-.084.028a.741.741 0 0 1-.182.014c-.187 0-.35-.084-.49-.252-.14-.168-.21-.387-.21-.658Zm4.476-.406c-.887-.971-1.33-2.212-1.33-3.724s.443-2.753 1.33-3.724c.887-.971 1.96-1.456 3.22-1.456 1.26 0 2.333.485 3.22 1.456s1.33 2.212 1.33 3.724-.443 2.753-1.33 3.724c-.887.971-1.96 1.456-3.22 1.456-1.26 0-2.333-.485-3.22-1.456Zm1.148-6.412c-.532.635-.798 1.531-.798 2.688 0 1.157.266 2.053.798 2.688.541.635 1.232.952 2.072.952.84 0 1.526-.317 2.058-.952.541-.635.812-1.531.812-2.688 0-1.157-.27-2.053-.812-2.688-.532-.635-1.218-.952-2.058-.952-.84 0-1.53.317-2.072.952Zm7.395-.672v-1.54h6.65v1.54l-3.92 8.26h-1.75l3.85-8.12v-.14h-4.83Z" fill="#333"/><path fill="#5A5A5A" d="M229 30V0h53v30z"/><path fill="#5A5A5A" d="M282 614h-16V22h16zM178 425v-16h88v16zm-50 0v-16h10v16z"/><path d="m246.476 318.72 1.181.016 3.066-.016h7.591v9.957h-11.838c-3.017 0-5.476-2.244-5.476-4.995 0-2.719 2.459-4.962 5.476-4.962Z" fill="#fff" stroke="#5A5A5A" stroke-width=".5"/><path d="M246.542 319.866h8.493v7.681h-7.559l-.934-.017c-2.378 0-4.312-1.703-4.312-3.832.016-2.113 1.951-3.832 4.312-3.832Zm18.134 10.612h-5.264a1.098 1.098 0 0 1-1.098-1.097v-11.284c0-.606.492-1.097 1.098-1.097h5.264c.606 0 1.098.491 1.098 1.097v11.268c0 .622-.492 1.113-1.098 1.113Z" fill="#fff" stroke="#5A5A5A" stroke-width=".5"/><path d="M262.052 324.386c-.41 0-.721-.295-.721-.639-.016-.36.311-.655.721-.655s.722.295.722.639a.683.683 0 0 1-.722.655Zm2.796 45.21H252.54c-.855 0-1.54-.683-1.54-1.538v-18.519c0-.855.685-1.539 1.54-1.539h12.308c.856 0 1.541.684 1.541 1.539v18.519c0 .84-.685 1.538-1.541 1.538Z" fill="#fff" stroke="#5A5A5A" stroke-width=".5"/><path d="M260.156 367.673h-1.897a4.52 4.52 0 0 1-4.521-4.516v-8.718a4.52 4.52 0 0 1 4.521-4.516h1.897a4.52 4.52 0 0 1 4.521 4.516v8.718a4.52 4.52 0 0 1-4.521 4.516Z" fill="#fff" stroke="#5A5A5A" stroke-width=".5"/><path d="M262.267 359.753c-.543 0-.984-.427-.984-.954 0-.527.441-.955.984-.955.543 0 .984.428.984.955 0 .527-.441.954-.984.954Zm2.281 22.678h-60.12a1.38 1.38 0 0 0-1.386 1.384v23.867a1.38 1.38 0 0 0 1.386 1.384h60.12a1.38 1.38 0 0 0 1.386-1.384v-23.867c0-.769-.63-1.384-1.386-1.384Z" fill="#fff" stroke="#5A5A5A" stroke-width=".5"/><path d="M206.738 392.512V399a6.797 6.797 0 0 0 6.802 6.795h47.341a1.66 1.66 0 0 0 1.666-1.664v-16.778a1.66 1.66 0 0 0-1.666-1.664h-47.327c-3.765.014-6.816 3.062-6.816 6.823Z" fill="#fff" stroke="#5A5A5A" stroke-width=".5"/><path d="M256.934 395.28c0-.749.632-1.356 1.413-1.356s1.414.607 1.414 1.356c0 .749-.633 1.356-1.414 1.356-.781 0-1.413-.607-1.413-1.356ZM201 331.024v-22.01l21.587-.014-.014 22.01-21.573.014Z" fill="#fff" stroke="#5A5A5A" stroke-width=".5"/><path d="M217.33 320.005c0-3.114-2.474-5.628-5.536-5.628-3.062 0-5.537 2.514-5.537 5.642 0 3.114 2.475 5.656 5.537 5.656 3.062-.014 5.536-2.556 5.536-5.67Z" stroke="#5A5A5A" stroke-width=".5"/><path d="M211.794 324.125a3.874 3.874 0 0 0 2.852-1.201 4.267 4.267 0 0 0 1.188-2.905m-4.026-4.134c1.104 0 2.111.461 2.852 1.201a4.186 4.186 0 0 1 1.188 2.919l-4.04-4.12Zm-.014 8.24a4.031 4.031 0 0 1-2.852-1.201 4.196 4.196 0 0 1-1.175-2.919l4.027 4.12Zm.014-8.24a3.938 3.938 0 0 0-2.853 1.201l-.013.014a4.164 4.164 0 0 0-1.175 2.891l4.041-4.106Z" stroke="#5A5A5A" stroke-width=".5"/><path fill="#5A5A5A" d="M188 372h8v51h-8zm82-71v8h-96v-8z"/><path fill="#5A5A5A" d="M196 343h-8v-64h8zm0-94h-8v-19h8zm-10-19v-16h80v16zm-157 0v-16h54v16zM19 347v-16h114v16zm0-46h16v30H19zm98 46h16v280h-16z"/><circle cx="189.5" cy="89.5" r="39.5" fill="#5A5A5A"/><path d="M165.72 93.58c0-1.092.42-1.962 1.26-2.61.36-.252.78-.444 1.26-.576v-.108a3.296 3.296 0 0 1-.99-.594c-.66-.564-.99-1.308-.99-2.232 0-.948.402-1.752 1.206-2.412.816-.672 1.914-1.008 3.294-1.008 1.38 0 2.472.336 3.276 1.008.816.66 1.224 1.464 1.224 2.412 0 .9-.33 1.644-.99 2.232-.312.252-.642.45-.99.594v.108c.456.12.876.318 1.26.594.84.648 1.26 1.512 1.26 2.592 0 1.044-.456 1.938-1.368 2.682-.9.732-2.124 1.098-3.672 1.098s-2.778-.366-3.69-1.098c-.9-.744-1.35-1.638-1.35-2.682Zm2.7-5.94c0 .528.204.96.612 1.296.408.336.984.504 1.728.504s1.32-.168 1.728-.504c.408-.336.612-.768.612-1.296 0-.48-.21-.882-.63-1.206-.408-.336-.978-.504-1.71-.504s-1.308.168-1.728.504c-.408.324-.612.726-.612 1.206Zm.216 4.302c-.504.396-.756.882-.756 1.458s.252 1.068.756 1.476c.516.396 1.224.594 2.124.594.9 0 1.602-.198 2.106-.594.516-.408.774-.9.774-1.476s-.258-1.062-.774-1.458c-.504-.408-1.206-.612-2.106-.612-.9 0-1.608.204-2.124.612Zm8.508.918c0-.576.126-1.176.378-1.8.264-.636.516-1.134.756-1.494.252-.372.594-.834 1.026-1.386l2.88-3.78h2.43l-2.718 3.546-.792.684v.09l.36-.126a4.53 4.53 0 0 1 1.17-.144c1.176 0 2.172.426 2.988 1.278.828.84 1.242 1.884 1.242 3.132 0 1.272-.456 2.34-1.368 3.204-.912.864-2.076 1.296-3.492 1.296s-2.58-.432-3.492-1.296c-.912-.864-1.368-1.932-1.368-3.204Zm2.898-1.872c-.492.48-.738 1.104-.738 1.872s.246 1.398.738 1.89c.492.48 1.146.72 1.962.72.816 0 1.47-.24 1.962-.72.492-.492.738-1.122.738-1.89 0-.768-.246-1.392-.738-1.872-.492-.492-1.146-.738-1.962-.738-.816 0-1.47.246-1.962.738Zm8.266 5.022c0-.36.114-.66.342-.9a1.2 1.2 0 0 1 .882-.36c.396 0 .708.144.936.432.24.288.36.714.36 1.278 0 .924-.222 1.632-.666 2.124-.432.504-1.02.756-1.764.756v-.9c.36 0 .642-.102.846-.306.216-.192.324-.45.324-.774v-.108c-.012-.012-.018-.036-.018-.072v-.054l-.108.036a.932.932 0 0 1-.234.018c-.24 0-.45-.108-.63-.324-.18-.216-.27-.498-.27-.846Zm3.775.99v-1.98l4.302-3.042c.936-.672 1.608-1.296 2.016-1.872.408-.576.612-1.188.612-1.836 0-.684-.21-1.23-.63-1.638-.42-.408-.99-.612-1.71-.612-.888 0-1.554.36-1.998 1.08a3.633 3.633 0 0 0-.432 1.08h-2.16a5.567 5.567 0 0 1 .702-2.07c.852-1.38 2.148-2.07 3.888-2.07 1.332 0 2.412.396 3.24 1.188.84.78 1.26 1.764 1.26 2.952 0 1.032-.264 1.962-.792 2.79-.528.816-1.374 1.626-2.538 2.43l-1.8 1.26-.81.36v.09l1.08-.09h4.86V97h-9.09Zm10.533-3.51h2.16c.096.372.258.69.486.954.528.624 1.296.936 2.304.936.804 0 1.44-.216 1.908-.648.468-.432.702-.996.702-1.692 0-.732-.234-1.32-.702-1.764-.468-.444-1.104-.666-1.908-.666-.744 0-1.374.198-1.89.594a2.481 2.481 0 0 0-.54.576h-1.98l.54-7.38h7.65v1.98h-5.94l-.27 3.24h.09c.192-.192.414-.354.666-.486.564-.336 1.242-.504 2.034-.504 1.26 0 2.31.42 3.15 1.26.84.84 1.26 1.89 1.26 3.15 0 1.236-.444 2.268-1.332 3.096-.876.816-2.022 1.224-3.438 1.224-1.848 0-3.222-.642-4.122-1.926a5.672 5.672 0 0 1-.828-1.944Z" fill="#fff"/><path fill="#5A5A5A" d="M120 230v-16h27v16zM19 0h16v264H19zm77 30V0h69v30z"/><path fill="#5A5A5A" d="M19 30V0h13v30zm99 604v-30h70v30z"/><path d="M207.42 669.2h1.68c.065.289.191.546.378.77.42.513 1.017.77 1.792.77.644 0 1.153-.159 1.526-.476.383-.327.574-.728.574-1.204 0-.541-.173-.966-.518-1.274-.336-.317-.817-.476-1.442-.476h-2.38v-1.4l2.94-2.1v-.07h-4.06v-1.54h6.44v1.526l-2.52 1.834-.7.28v.07l.224-.028c.308-.028.49-.042.546-.042.877 0 1.61.303 2.198.91.588.607.882 1.377.882 2.31 0 .896-.345 1.657-1.036 2.282-.691.625-1.582.938-2.674.938-1.447 0-2.515-.513-3.206-1.54a4.406 4.406 0 0 1-.644-1.54Zm8.617 2.03c0-.28.088-.513.266-.7a.93.93 0 0 1 .686-.28c.308 0 .55.112.728.336.186.224.28.555.28.994 0 .719-.173 1.269-.518 1.652-.336.392-.794.588-1.372.588v-.7c.28 0 .499-.079.658-.238a.765.765 0 0 0 .252-.602v-.084c-.01-.009-.014-.028-.014-.056v-.042l-.084.028a.743.743 0 0 1-.182.014c-.187 0-.35-.084-.49-.252-.14-.168-.21-.387-.21-.658Zm3.006-2.45c0-.448.098-.915.294-1.4.205-.495.401-.882.588-1.162.196-.289.462-.649.798-1.078l2.24-2.94h1.89l-2.114 2.758-.616.532v.07l.28-.098c.28-.075.583-.112.91-.112.914 0 1.689.331 2.324.994.644.653.966 1.465.966 2.436 0 .989-.355 1.82-1.064 2.492-.71.672-1.615 1.008-2.716 1.008-1.102 0-2.007-.336-2.716-1.008-.71-.672-1.064-1.503-1.064-2.492Zm2.254-1.456c-.383.373-.574.859-.574 1.456s.191 1.087.574 1.47c.382.373.891.56 1.526.56.634 0 1.143-.187 1.526-.56.382-.383.574-.873.574-1.47s-.192-1.083-.574-1.456c-.383-.383-.892-.574-1.526-.574-.635 0-1.144.191-1.526.574Zm6.359 1.456c0-.448.098-.915.294-1.4.205-.495.401-.882.588-1.162.196-.289.462-.649.798-1.078l2.24-2.94h1.89l-2.114 2.758-.616.532v.07l.28-.098c.28-.075.583-.112.91-.112.915 0 1.689.331 2.324.994.644.653.966 1.465.966 2.436 0 .989-.355 1.82-1.064 2.492-.709.672-1.615 1.008-2.716 1.008-1.101 0-2.007-.336-2.716-1.008-.709-.672-1.064-1.503-1.064-2.492Zm2.254-1.456c-.383.373-.574.859-.574 1.456s.191 1.087.574 1.47c.383.373.891.56 1.526.56s1.143-.187 1.526-.56c.383-.383.574-.873.574-1.47s-.191-1.083-.574-1.456c-.383-.383-.891-.574-1.526-.574s-1.143.191-1.526.574Z" fill="#333"/><path stroke="#5A5A5A" d="m215.255 606.43-27 16"/><path fill="#5A5A5A" d="M162 694h5v-74h-5z"/><path fill="#5A5A5A" d="M243 694v-5h-81v5z"/><path d="m220.25 633.75 60.476-.063.023-4.437H220.25v4.5Zm0-10 60.476-.063.023-4.437H220.25v4.5Z" stroke="#5A5A5A" stroke-width=".5" stroke-miterlimit="10"/><path fill="#5A5A5A" d="M273 694h5v-74h-5z"/><path fill="#5A5A5A" d="M276 694v-5H162v5z"/><path d="m25.25 29.75 206.417-.152.081-11.348H25.25v11.5Zm0-18 206.417-.152.081-11.348H25.25v11.5Z" stroke="#5A5A5A" stroke-width=".5" stroke-miterlimit="10"/><path stroke="#5A5A5A" d="m189.562 374.242-16-29m-4.303 45.186-33 20m54.185-165.198-15 29m11.802-44.795-39 22m-70.492-24 39 22m-97.312 53.332-19-36"/><path d="m246.702 252.241 1.181.017 3.066-.017h7.591v9.958h-11.838c-3.017 0-5.476-2.244-5.476-4.995 0-2.719 2.459-4.963 5.476-4.963Z" fill="#fff" stroke="#5A5A5A" stroke-width=".5"/><path d="M246.768 253.388h8.493v7.68h-7.559l-.934-.016c-2.378 0-4.312-1.703-4.312-3.832.016-2.113 1.951-3.832 4.312-3.832ZM264.901 264h-5.263a1.098 1.098 0 0 1-1.098-1.097v-11.284c0-.606.492-1.097 1.098-1.097h5.263c.607 0 1.099.491 1.099 1.097v11.267c0 .623-.492 1.114-1.099 1.114Z" fill="#fff" stroke="#5A5A5A" stroke-width=".5"/><path d="M262.278 257.908c-.41 0-.721-.295-.721-.639-.017-.36.311-.655.721-.655s.721.295.721.639a.683.683 0 0 1-.721.655ZM210 231.54v12.308c0 .856.684 1.541 1.539 1.541h18.519c.855 0 1.538-.685 1.538-1.541V231.54c0-.855-.683-1.54-1.538-1.54h-18.519c-.841 0-1.539.685-1.539 1.54Z" fill="#fff" stroke="#5A5A5A" stroke-width=".5"/><path d="M211.923 236.232v1.897a4.52 4.52 0 0 0 4.516 4.521h8.718a4.52 4.52 0 0 0 4.516-4.521v-1.897a4.52 4.52 0 0 0-4.516-4.521h-8.718a4.52 4.52 0 0 0-4.516 4.521Z" fill="#fff" stroke="#5A5A5A" stroke-width=".5"/><path d="M219.843 234.122c0 .543.428.984.955.984.527 0 .954-.441.954-.984 0-.544-.427-.984-.954-.984-.527 0-.955.44-.955.984ZM35.108 156.325h24.996V132H35.108v24.325Z" fill="#fff" stroke="#5A5A5A" stroke-width=".5"/><path d="M58.077 155.398H38.624c-.738 0-1.13-.392-1.13-1.162v-20.147c0-.785.377-1.162 1.13-1.162h19.453c.754-.016 1.13.377 1.13 1.146v20.148c.016.785-.376 1.177-1.13 1.177Z" fill="#fff" stroke="#5A5A5A" stroke-width=".5"/><path d="M56.288 148.897c-.016-1.79-1.429-3.251-3.171-3.251-1.759 0-3.172 1.461-3.172 3.251 0 1.806 1.413 3.251 3.172 3.251 1.758 0 3.171-1.445 3.171-3.251Zm-.03-9.626c-.016-1.79-1.43-3.251-3.172-3.251-1.758 0-3.171 1.461-3.171 3.251 0 1.806 1.413 3.251 3.171 3.251 1.759.015 3.187-1.445 3.172-3.251Zm-9.014 0c0-1.806-1.413-3.251-3.171-3.251-1.759 0-3.172 1.461-3.172 3.251.016 1.79 1.429 3.251 3.172 3.251 1.742 0 3.171-1.461 3.171-3.251Zm0 9.626c0-1.806-1.413-3.251-3.171-3.251-1.759 0-3.172 1.461-3.172 3.251.016 1.79 1.429 3.251 3.172 3.251 1.742 0 3.171-1.461 3.171-3.251Z" stroke="#5A5A5A" stroke-width=".5"/><path d="M35.015 180h24.089v23.699H35L35.015 180Z" fill="#fff" stroke="#5A5A5A" stroke-width=".5"/><path d="M41.621 181.803h13.317c.742 0 1.106.364 1.106 1.122v17.607c0 .727-.363 1.106-1.09 1.121l-13.333-.015c-.727.015-1.09-.363-1.09-1.106v-17.607c-.03-.743.348-1.122 1.09-1.122Z" fill="#fff" stroke="#5A5A5A" stroke-width=".5"/><path d="M36.864 191.728c.015.925.712 1.667 1.59 1.667l6.984-.651.016-.016c.53 0 .954-.439.954-1 0-.56-.424-1-.97-1.015l-6.984-.652c-.863 0-1.575.743-1.59 1.667Z" stroke="#5A5A5A" stroke-width=".5"/><mask id="a" fill="#fff"><path fill-rule="evenodd" clip-rule="evenodd" d="m37.546 193.107 3.803-.363a.988.988 0 0 0 .954-1.031.98.98 0 0 0-.954-1l-3.803-.363"/></mask><path fill-rule="evenodd" clip-rule="evenodd" d="m37.546 193.107 3.803-.363a.988.988 0 0 0 .954-1.031.98.98 0 0 0-.954-1l-3.803-.363" fill="#fff"/><path d="m41.349 192.744-.014-.5h-.017l-.017.002.048.498Zm.954-1.031h-.5v.014l.5-.014Zm-.954-1-.048.498.017.002h.017l.014-.5Zm-3.755 2.892 3.802-.364-.095-.995-3.803.364.096.995Zm3.77-.361a1.489 1.489 0 0 0 1.44-1.544l-1 .027a.488.488 0 0 1-.47.517l.03 1Zm1.44-1.531a1.48 1.48 0 0 0-1.44-1.5l-.03 1a.48.48 0 0 1 .47.5h1Zm-1.408-1.497-3.802-.364-.096.995 3.803.364.095-.995Z" fill="#5A5A5A" mask="url(#a)"/><path fill="#5A5A5A" d="M145 205h2v-11h-2zm0-17h2v-11h-2zm0-17h2v-11h-2zm0-17h2v-11h-2zm0-20h2v-11h-2zm-85-11v2h11v-2zm-18 0v2h11v-2zm-18 0v2h11v-2zm53 0v2h11v-2zm17 0v2h11v-2zm17 0v2h11v-2zm17 0v2h11v-2z"/></svg>