<svg width="198" height="29" fill="none" xmlns="http://www.w3.org/2000/svg"><path d="M197.002 19.249H37.003v1.013h159.999v-1.013Z" fill="#fff"/><path fill-rule="evenodd" clip-rule="evenodd" d="M180.684 16.624v-1.826h.141c.392 0 .716-.085.97-.254.255-.169.385-.475.385-.912 0-.45-.128-.76-.383-.927-.255-.169-.601-.254-1.031-.254h-.082v-1.828h.684c.99 0 1.708.213 2.15.641.441.428.733.9.866 1.415a4.896 4.896 0 0 1 .117 1.027c0 .93-.254 1.651-.759 2.158-.506.508-1.302.761-2.387.761h-.671v-.001Zm6.539-9.419v9.419h-2.179V7.208h.117l2.062-.003Zm7.409 0 .116.002h2.062v9.417h-2.178v-5.94l-3.37 5.94h-2.181V7.208h2.181v5.878l3.37-5.88Zm-2.71-2.309c0 .254.062.446.188.57a.927.927 0 0 0 .424.255 1.285 1.285 0 0 0 .413.077 1.344 1.344 0 0 0 .423-.077c.149-.05.286-.14.412-.266.125-.125.19-.314.19-.56h1.507a2.36 2.36 0 0 1-.065.363c-.033.138-.092.28-.17.424-.14.27-.383.517-.723.736-.342.22-.848.33-1.516.33h-.119c-.847 0-1.465-.189-1.853-.564-.389-.376-.597-.808-.62-1.29h1.509v.002Zm-11.238 5.726-1.495-.002V7.208h-2.182v9.417h3.677v-1.827l-1.495-.002V12.45h1.495v-1.828Zm-38.75 2.767v-1.827h.01c.463 0 .824-.092 1.083-.271.259-.182.392-.524.392-1.024 0-.467-.126-.787-.372-.958-.247-.173-.615-.261-1.102-.261h-.011V7.206h.53l.163.002c.054 0 .113.004.167.012a3.823 3.823 0 0 1 1.983.685c.601.413.901 1.199.901 2.348 0 .931-.185 1.613-.552 2.044-.368.432-.774.725-1.212.875a3.318 3.318 0 0 1-.843.184c-.271.02-.49.033-.655.033h-.482Zm11.463-2.438-.003 1.727h-4.275v2.12h4.971v1.826h-7.152V7.208h7.034v1.826h-4.853v1.92l4.278-.003Zm6.099 1.536-2.641 4.138h-2.602l3.51-5.038-3.404-4.379h2.544l2.592 3.718V7.208h2.18v3.718l2.59-3.718h2.545l-3.406 4.38 3.511 5.037H164.3l-2.626-4.136v4.136h-2.18v-4.138h.002Zm10.411 4.137h-2.18V7.208h2.18v3.54h3.063v-3.54h2.179v9.417h-2.179v-4.048h-3.063v4.047Zm-27.973-9.418-3.546.002h-.12v9.417h2.181V13.39h1.485v-1.828l-1.485-.002V9.047h1.485V7.206Zm-17.262 9.418v-1.725h.006c.407 0 .768-.072 1.077-.216.309-.143.466-.46.466-.95 0-.365-.083-.635-.247-.806a1.227 1.227 0 0 0-.555-.35 1.666 1.666 0 0 0-.388-.075 4.195 4.195 0 0 0-.294-.014h-.065v-1.727h.569c1.007 0 1.734.192 2.18.571.447.38.748.805.898 1.268.069.211.114.42.133.62a4.44 4.44 0 0 1 .003 1.048 2.484 2.484 0 0 1-.126.53c-.14.456-.44.878-.899 1.255-.46.38-1.19.57-2.189.57h-.569Zm0-7.59V7.208h3.185v1.826h-3.185Zm11.691 1.917-.002 1.727h-4.274v2.12h4.969v1.826h-7.15V7.208h7.034v1.826h-4.853v1.92l4.276-.003Zm-11.691-3.743h-3.73v9.417h3.73V14.9l-1.549-.002v-2.409h1.549v-1.728l-1.549-.001V9.035h1.549V7.208Zm-9.664 9.678v-1.822c.595-.016 1.043-.194 1.335-.526.294-.333.502-.706.619-1.11a4.3 4.3 0 0 0 .153-.896c.016-.283.025-.488.025-.614 0-.95-.132-1.643-.395-2.076-.263-.436-.553-.73-.867-.881a1.672 1.672 0 0 0-.465-.153 2.56 2.56 0 0 0-.405-.039V6.941h.057c1.609 0 2.749.508 3.416 1.522.669 1.017 1.002 2.169 1.002 3.455 0 1.284-.333 2.434-1.002 3.443-.668 1.012-1.807 1.518-3.417 1.518l-.056.007Zm0-9.946h-.06c-1.601 0-2.738.508-3.41 1.525-.672 1.015-1.008 2.166-1.008 3.452 0 1.278.336 2.425 1.008 3.44.672 1.014 1.809 1.53 3.41 1.538v-.003l.06-.007v-1.822h-.002c-.651-.015-1.126-.224-1.425-.623a3.216 3.216 0 0 1-.588-1.306 4.847 4.847 0 0 1-.095-.648 8.886 8.886 0 0 1-.023-.57c0-.939.13-1.628.389-2.065.259-.434.547-.728.859-.88.164-.084.324-.14.479-.165a2.56 2.56 0 0 1 .404-.038h.002V6.94Zm-9.482 9.684v-1.725h.446c.054 0 .131-.01.224-.024a1.71 1.71 0 0 0 .296-.09c.148-.067.288-.184.418-.348.13-.165.194-.401.194-.704 0-.405-.128-.689-.383-.844-.254-.157-.596-.236-1.021-.236h-.174v-1.727h.21a1.06 1.06 0 0 0 .39-.063.983.983 0 0 0 .43-.292c.13-.145.195-.352.195-.622 0-.304-.092-.55-.276-.736-.184-.187-.463-.282-.833-.282h-.116V7.205h.755c.831 0 1.436.16 1.812.47.376.313.628.656.754 1.03.045.16.081.319.1.474.021.158.032.3.032.426 0 .465-.101.84-.301 1.118-.2.278-.42.488-.656.623-.085.05-.17.092-.252.126a5.183 5.183 0 0 1-.229.09v.024a3.117 3.117 0 0 1 .494.153c.338.144.651.393.937.749.286.355.43.854.43 1.498 0 .912-.24 1.549-.718 1.91a3.46 3.46 0 0 1-1.592.665c-.18.024-.357.043-.529.05a9.809 9.809 0 0 1-.507.013h-.53Zm0-9.417-3.64.001h-.119v9.417h3.759V14.9l-1.578-.002v-2.245h1.578v-1.727h-1.578V8.933h1.578V7.207Zm-49.277 7.655v-1.6l1.078-.003-1.073-3.4-.005.02V7.206l1.101-.001 3.286 9.419h-2.297l-.566-1.762H56.25v-.001Zm7.38 1.762h-2.182V7.208h2.181v3.54h3.063v-3.54h2.179v9.417h-2.18v-4.048h-3.063v4.047Zm12.19-9.419.117.002h2.427l-3.51 4.303 3.71 5.113h-2.65l-3.004-4.48v4.48h-2.181V7.208h2.181v3.846l2.91-3.849Zm7.043 7.591.117.002c.062.007.12.014.169.018.05.005.103.007.148.007.705-.016 1.15-.33 1.326-.938.175-.61.27-1.339.277-2.183l.058-4.495h6.586v9.416h-2.179V9.034H87.02l-.059 3.288c-.008.246-.02.527-.035.84-.016.312-.06.636-.13.965a4.18 4.18 0 0 1-.866 1.75c-.434.532-1.16.8-2.174.8l-.118.013-.372-.03a9.325 9.325 0 0 0-.404-.035v-1.829Zm17-3.845-.003 1.727h-4.275v2.12h4.97v1.826h-7.15V7.208h7.035v1.826h-4.854v1.92l4.276-.003Zm-52.176-.19h.569c1.007 0 1.733.192 2.18.571.446.38.746.805.897 1.268.07.211.115.42.134.62a4.378 4.378 0 0 1 .001 1.048c-.02.174-.062.352-.125.53-.14.456-.44.878-.9 1.255-.459.38-1.19.57-2.188.57h-.569v-1.725h.006a2.55 2.55 0 0 0 1.077-.215c.31-.144.466-.461.466-.951 0-.365-.084-.635-.246-.806a1.233 1.233 0 0 0-.556-.35 1.657 1.657 0 0 0-.388-.075 4.166 4.166 0 0 0-.294-.013h-.064V10.76Zm0-3.553h3.185v1.826h-3.185V7.208Zm8.563-.001-.983.001h-.12l-3.274 9.417h2.298l.552-1.762h1.526v-1.6h-1.079l1.079-3.385V7.207Zm-10.112 3.552V9.034h1.549V7.208h-3.73v9.417h3.73V14.9l-1.549-.002v-2.409h1.549v-1.728l-1.549-.002Zm111.561 15.679v-1.015c.255-.013.437-.04.546-.082a.783.783 0 0 0 .373-.292.799.799 0 0 0 .135-.46.766.766 0 0 0-.19-.535.832.832 0 0 0-.481-.262 2.822 2.822 0 0 0-.384-.033V22.75c.542.008.906.038 1.09.087.34.088.626.282.854.58.23.299.344.683.344 1.153.001.365-.067.671-.198.918-.133.25-.3.444-.504.586-.203.14-.409.234-.619.28a5.752 5.752 0 0 1-.966.083Zm3.271 2.238V22.75h4.395v1.002h-3.198v1.315h2.975v.997h-2.975v1.614h3.311v.998h-4.508v.001Zm5.544-5.927h1.197v4.933h1.715v-4.933h1.192v4.933h1.772v-4.933h1.192l.009 5.931-7.077-.004V22.75Zm8.301 5.927V22.75h4.395v1.002h-3.198v1.315h2.976v.997h-2.976v1.614h3.311v.998h-4.508v.001Zm5.528 0V22.75h1.198v2.332h2.344v-2.333h1.198v5.927h-1.198v-2.592h-2.344v2.593h-1.198Zm5.992-5.927h1.121v3.945l2.401-3.945h1.192v5.927h-1.119v-3.87l-2.398 3.87h-1.197V22.75Zm5.953 0h1.12v3.945l2.402-3.945h1.192v5.927h-1.119v-3.87l-2.398 3.87h-1.197V22.75Zm3.075-1.476h.552c-.032.365-.16.653-.385.862-.226.21-.518.313-.876.313-.36 0-.65-.104-.876-.313-.225-.209-.353-.497-.387-.863h.555c.018.193.085.336.201.435.117.098.285.148.506.148.221 0 .389-.05.504-.148.118-.099.186-.242.206-.434Zm-37.664 1.478-.332-.002h-1.92v5.927h1.196v-2.235h.781c.095 0 .187-.001.275-.003v-1.014a8 8 0 0 1-.402.009h-.654v-1.682h.578c.186 0 .346.003.478.008V22.75Zm-27.999 4.578v-.998h.809l-.809-2.178v-1.405h.64l2.374 5.927h-1.303l-.518-1.347h-1.193Zm3.668-4.58h1.196v4.933h1.716v-4.933h1.193v4.933h1.771v-4.933h1.192l.009 5.931-7.077-.004V22.75Zm8.317 0h1.12v3.945l2.401-3.945h1.193v5.927h-1.119v-3.87l-2.399 3.87h-1.196V22.75Zm5.335 5.927 2.025-3.093-1.835-2.834h1.398l1.19 1.904 1.164-1.904h1.387l-1.845 2.878 2.027 3.05h-1.444l-1.314-2.05-1.319 2.05h-1.434Zm-17.32-5.927h-.626l-2.308 5.922v.005h1.268l.489-1.347h1.176v-.998h-.808l.8-2.2.008.022V22.75h.001Zm-2.934 4.293v-.168c.002.028.002.056.002.085 0 .028 0 .055-.002.083Zm0-.169v.168c-.012.24-.073.475-.185.703a1.602 1.602 0 0 1-.514.61 1.723 1.723 0 0 1-.804.283 16.8 16.8 0 0 1-1.107.036v-.996c.403-.001.66-.013.772-.036a.741.741 0 0 0 .434-.236c.113-.126.168-.294.168-.504a.77.77 0 0 0-.13-.453.736.736 0 0 0-.373-.272c-.143-.05-.434-.076-.872-.082v-.99c.253-.004.419-.01.497-.019a.792.792 0 0 0 .483-.211.625.625 0 0 0 .176-.464.652.652 0 0 0-.15-.447c-.103-.115-.253-.184-.452-.208a7.22 7.22 0 0 0-.554-.017v-.99h.016c.468 0 .819.02 1.05.06.231.038.436.12.618.244.183.125.333.288.455.495.122.206.182.438.182.694a1.402 1.402 0 0 1-.834 1.285c.361.105.641.284.833.537.181.233.276.503.291.81Zm0 1.797v.006h-.002l.002-.005Zm-2.61-5.921h-2.353v5.927h2.017l.336-.003v-.996h-1.156v-1.585h.967l.19.002v-.99l-.372.001h-.785v-1.37h.688c.178 0 .335 0 .468.002v-.988Zm-8.305 4.58v-.998h.809l-.809-2.178v-1.405h.639l2.374 5.927h-1.303l-.518-1.347h-1.192Zm0-4.58h-.627l-2.307 5.922v.005h1.268l.488-1.347h1.178v-.998h-.81l.801-2.2.009.022V22.75Zm-2.934 4.293v-.168c.002.028.002.056.002.085 0 .028 0 .055-.002.083Zm0-.169v.168a1.77 1.77 0 0 1-.185.703 1.602 1.602 0 0 1-.514.61 1.723 1.723 0 0 1-.804.283 16.8 16.8 0 0 1-1.107.036v-.996c.403-.001.661-.013.772-.036a.741.741 0 0 0 .434-.236.733.733 0 0 0 .169-.504.784.784 0 0 0-.13-.453.738.738 0 0 0-.374-.272c-.143-.05-.434-.076-.872-.082v-.99c.253-.004.418-.01.498-.019a.795.795 0 0 0 .483-.211.628.628 0 0 0 .175-.464.652.652 0 0 0-.15-.447c-.103-.115-.253-.184-.452-.208a7.22 7.22 0 0 0-.554-.017v-.99h.016c.469 0 .82.02 1.05.06.23.038.436.12.618.244.183.125.333.288.455.495.121.206.182.438.182.694a1.397 1.397 0 0 1-.832 1.285c.36.105.638.284.831.537.18.233.276.503.291.81Zm0 1.797v.006h-.002l.002-.005Zm-2.61-5.921h-2.354v5.927h2.017l.337-.003v-.996h-1.156v-1.585h.967l.19.002v-.99l-.373.001h-.784v-1.37h.687c.179 0 .335 0 .469.002v-.988Zm-6.169 6.028v-1.023h.007a1.5 1.5 0 0 0 1.175-.517c.306-.343.458-.858.458-1.545 0-.68-.149-1.186-.446-1.521-.297-.335-.695-.501-1.186-.501h-.007v-1.024c.871.002 1.567.272 2.09.814.525.541.788 1.295.788 2.259 0 .958-.261 1.706-.782 2.248-.52.54-1.215.81-2.086.81h-.011Zm-18.402-6.13c.87.002 1.567.272 2.09.813.525.542.787 1.296.787 2.26 0 .958-.26 1.706-.78 2.247-.521.54-1.217.81-2.086.81h-.01v-1.023h.006c.477 0 .868-.17 1.175-.516.305-.344.458-.858.458-1.546 0-.678-.149-1.185-.445-1.52-.298-.335-.695-.502-1.188-.502h-.006v-1.023h-.001Zm18.402 0h-.006c-.483 0-.908.077-1.278.235a2.326 2.326 0 0 0-.766.533c-.233.24-.417.512-.552.813-.18.41-.27.916-.27 1.52 0 .943.259 1.684.779 2.223.52.534 1.216.804 2.094.806v-1.023a1.519 1.519 0 0 1-1.176-.519c-.308-.346-.464-.856-.464-1.527 0-.683.152-1.192.452-1.531.302-.337.697-.507 1.188-.508v-1.022h-.001Zm-10.798 3.85 1.16.367c-.178.648-.474 1.128-.887 1.444-.413.312-.94.47-1.575.47-.787 0-1.434-.27-1.94-.806-.507-.54-.761-1.274-.761-2.206 0-.987.256-1.753.764-2.3.51-.546 1.18-.818 2.01-.818.726 0 1.315.213 1.768.642.27.253.472.617.607 1.092l-1.185.283a1.245 1.245 0 0 0-.439-.729 1.254 1.254 0 0 0-.81-.266c-.44 0-.797.157-1.07.473-.273.315-.41.826-.41 1.532 0 .75.134 1.284.403 1.6.27.32.62.479 1.051.479.319 0 .593-.101.821-.304.229-.2.393-.52.493-.953Zm2.191 2.18v-5.928h1.198v2.332h2.345v-2.333h1.196v5.927h-1.197v-2.592h-2.344v2.593H95.53Zm-12.668-2.929c0 .943.26 1.684.78 2.223.518.534 1.215.804 2.093.806v-1.023a1.516 1.516 0 0 1-1.175-.519c-.31-.346-.465-.856-.465-1.527 0-.683.151-1.192.452-1.531.301-.337.696-.507 1.188-.508v-1.023h-.006c-.483 0-.908.077-1.279.234a2.342 2.342 0 0 0-.766.533 2.82 2.82 0 0 0-.551.813c-.181.411-.271.918-.271 1.522ZM4.21 29h32.793V13.294l-.508-.206c-3.58-1.447-6.442-1.778-10.236-1.709l-.035.007c-.544.113-1.107.27-1.647.406l-.783.197c-5.053 4.393-8.595 7.474-11.122 9.673 1.653 1.176 4.264 1.749 5.769 2.046a.76.76 0 0 1 .536.271c.267.289.279.67.14 1.013-.06.149-.037.094-.098.199-.03.05-.027.047-.065.1a.832.832 0 0 1-.766.337c-1.78-.121-5.476-.308-9.146-.808C5.745 27.689 6.016 27.45 4.21 29ZM37.003 7.314V.505l-10.52 9.147 10.52-2.338ZM26.74 19.77h-4.898v6.247l2.541.024c1.033-.665-.825-3.573-1.133-4.514h2.091c.308.175 1.591 3.307 1.65 4.315.124.733-.225 2.275-1.267 2.275H19.7V17.721h7.04v2.05Zm.647-1.986 7.558-.041.008 10.334h-2.13v-8.253l-3.024-.009c1.483 3.299 2.627 8.254-2.303 8.246l-.025-2.08c3.314 0 .729-5.105-.083-6.157v-2.04h-.001Z" fill="#fff"/><path fill-rule="evenodd" clip-rule="evenodd" d="M16.329 13.033c-3.249 1.624-6.19 4.033-5.882 6.946.561 2.212 3.194 3.612 7.898 4.537.14 0-.057.336-.057.308C14.62 24.571 1.682 23.9.03 20.904c-.615-2.718 8.599-5.63 16.3-7.871Zm-.196.106c.448-.17 9.634-2.493 9.941-2.55-1.875.112-6.02.616-9.941 2.55Zm20.666-.802c-3.809-1.54-6.75-1.848-10.725-1.764L39.43 7.604l-2.63 4.733Z" fill="#fff"/></svg>