<svg width="28" height="28" fill="none" xmlns="http://www.w3.org/2000/svg"><path d="M14 28c7.732 0 14-6.268 14-14S21.732 0 14 0 0 6.268 0 14s6.268 14 14 14Z" fill="#C51786"/><g clip-path="url(#a)"><path d="m22.332 12.72-8.203-4.375a.273.273 0 0 0-.258 0L5.668 12.72a.273.273 0 0 0 0 .482l2.316 1.235v3.446h.547v-3.154l.82.438v1.66a1.083 1.083 0 0 0-.591 1.717 5.605 5.605 0 0 0-.229 1.57v.777c0 .103.059.198.151.244l.303.151a1.442 1.442 0 0 0 1.28 0l.303-.151a.273.273 0 0 0 .15-.244v-.776c0-.533-.08-1.06-.228-1.57a1.083 1.083 0 0 0-.592-1.717v-1.37l3.973 2.12a.276.276 0 0 0 .258 0l5.34-2.849v3.019a8.857 8.857 0 0 1-5.305 1.775h-.328a8.8 8.8 0 0 1-2.758-.443l-.171.52c.947.312 1.932.47 2.93.47h.327c2.07 0 4.111-.7 5.746-1.971a.274.274 0 0 0 .106-.216v-3.446l2.316-1.235a.273.273 0 0 0 0-.482Zm-12.16 8.002-.151.075a.9.9 0 0 1-.792 0l-.15-.075v-.608c0-.41.05-.818.148-1.215.123.049.257.078.398.078.14 0 .275-.03.398-.078.099.397.149.805.149 1.215v.608Zm0-2.84a.547.547 0 1 1-1.095 0 .547.547 0 0 1 1.095 0ZM14 17.027l-3.913-2.087 3.387-1.807a1.4 1.4 0 0 0 .526.102c.613 0 1.094-.36 1.094-.82 0-.46-.48-.82-1.094-.82-.613 0-1.094.36-1.094.82 0 .125.038.241.102.347L9.506 14.63l-3.128-1.668L14 8.896l7.622 4.065L14 17.026Zm-.547-4.612c0-.112.213-.273.547-.273.334 0 .547.161.547.273 0 .112-.213.273-.547.273-.334 0-.547-.161-.547-.273Z" fill="#fff"/></g><defs><clipPath id="a"><path fill="#fff" transform="translate(5.25 6.125)" d="M0 0h17.5v17.5H0z"/></clipPath></defs></svg>