<svg width="28" height="28" fill="none" xmlns="http://www.w3.org/2000/svg"><path d="M14 28c7.732 0 14-6.268 14-14S21.732 0 14 0 0 6.268 0 14s6.268 14 14 14Z" fill="#C8D660"/><path d="M14 19v2" stroke="#fff" stroke-linecap="round" stroke-linejoin="round"/><path d="M11.5 17c.276 0 .5-.448.5-1s-.224-1-.5-1-.5.448-.5 1 .224 1 .5 1Zm5 0c.276 0 .5-.448.5-1s-.224-1-.5-1-.5.448-.5 1 .224 1 .5 1Z" fill="#fff"/><path d="m15 18-1 1-1-1m3-8.042 3.395-.942a.44.44 0 0 1 .38.07c.056.04.104.091.141.152.037.062.063.13.075.203l1 5.917c.094.555-.547.878-.862.433L16 9.958Zm-4 0-3.394-.942a.44.44 0 0 0-.381.07.515.515 0 0 0-.141.152.575.575 0 0 0-.075.203l-1 5.917c-.094.555.547.878.862.433L12 9.958ZM12 10h4" stroke="#fff" stroke-linecap="round" stroke-linejoin="round"/><path d="M19 15v4.015c0 .526-.21 1.031-.586 1.404A2.008 2.008 0 0 1 17 21h-6c-.53 0-1.04-.21-1.414-.581A1.977 1.977 0 0 1 9 19.015V15" stroke="#fff" stroke-linecap="round" stroke-linejoin="round"/></svg>