<svg width="28" height="28" fill="none" xmlns="http://www.w3.org/2000/svg"><path d="M28 14c0 7.735-6.265 14-14 14S0 21.735 0 14 6.265 0 14 0s14 6.265 14 14Z" fill="#51A5ED"/><g clip-path="url(#a)" fill="#fff"><path d="M19.337 15.924H8.663a2.54 2.54 0 0 0-2.538 2.538A2.54 2.54 0 0 0 8.663 21h10.674a2.54 2.54 0 0 0 2.538-2.538 2.54 2.54 0 0 0-2.538-2.538Zm2.063 2.308h-2.063a2.08 2.08 0 0 1-2.063-1.846h2.063a2.08 2.08 0 0 1 2.063 1.846Zm-4.59-1.846a2.541 2.541 0 0 0 2.527 2.307H21.4a2.063 2.063 0 0 1-.337.922c-3.468-.014-5.174-.672-6.98-1.368-1.696-.654-3.446-1.328-6.73-1.394a2.067 2.067 0 0 1 1.31-.467h8.147Zm-5.62 4.153a2.54 2.54 0 0 0-2.527-2.308.23.23 0 1 0 0 .462 2.08 2.08 0 0 1 2.063 1.846H8.663A2.08 2.08 0 0 1 6.6 18.693h1.14a.23.23 0 1 0 0-.462H6.6c.037-.338.156-.652.337-.922 3.468.015 5.174.672 6.98 1.368 1.696.654 3.446 1.328 6.73 1.395a2.067 2.067 0 0 1-1.31.467H11.19ZM14 15.463a6.96 6.96 0 0 0 6.952-6.952.23.23 0 0 0-.23-.23 6.92 6.92 0 0 0-2.35.408 6.896 6.896 0 0 0-.521-2.327.23.23 0 0 0-.302-.125 6.906 6.906 0 0 0-1.923 1.196 7.107 7.107 0 0 0-1.463-2.115.23.23 0 0 0-.326 0 7.105 7.105 0 0 0-1.463 2.115 6.905 6.905 0 0 0-1.923-1.196.23.23 0 0 0-.302.125 6.895 6.895 0 0 0-.521 2.327 6.92 6.92 0 0 0-2.35-.409.23.23 0 0 0-.23.23A6.96 6.96 0 0 0 14 15.464Zm-.23-6.49a.231.231 0 1 1 .461 0 .231.231 0 0 1-.462 0Zm.465 6.024a6.5 6.5 0 0 1 6.252-6.251 6.5 6.5 0 0 1-6.252 6.251Zm3.276-8.24c.254.68.39 1.39.406 2.114a6.966 6.966 0 0 0-1.683 1.056 7.11 7.11 0 0 0-.423-2.04 6.432 6.432 0 0 1 1.7-1.13ZM14 5.813a6.607 6.607 0 0 1 1.785 4.53 6.974 6.974 0 0 0-1.554 2.399V9.625A.693.693 0 0 0 14 8.28a.693.693 0 0 0-.23 1.345v3.117a6.973 6.973 0 0 0-1.555-2.4A6.607 6.607 0 0 1 14 5.812Zm-3.51.944a6.432 6.432 0 0 1 1.7 1.13 7.11 7.11 0 0 0-.424 2.04 6.966 6.966 0 0 0-1.683-1.056 6.425 6.425 0 0 1 .406-2.114Zm3.275 8.24a6.5 6.5 0 0 1-6.252-6.251 6.5 6.5 0 0 1 6.252 6.251Z"/></g><defs><clipPath id="a"><path fill="#fff" transform="translate(6.125 5.25)" d="M0 0h15.75v15.75H0z"/></clipPath></defs></svg>