<svg width="62" height="62" fill="none" xmlns="http://www.w3.org/2000/svg"><circle cx="31" cy="31" r="31" fill="#fff"/><path d="M30.739 8.92 30.687 5c-1.547 0-3.043.206-4.487.464l.722 3.869a18.806 18.806 0 0 1 3.817-.413Z" fill="#E5E572"/><path d="m38.166 10.055 1.29-3.714a30.253 30.253 0 0 0-4.384-1.083l-.62 3.868c1.29.258 2.528.568 3.715.929Z" fill="#B8D066"/><path d="M26.922 9.281 26.2 5.413c-1.548.31-2.992.722-4.436 1.238l1.392 3.662c1.238-.413 2.476-.774 3.766-1.032Z" fill="#F9EC8A"/><path d="m19.288 12.324-2.064-3.352a25.238 25.238 0 0 0-4.178 3.25l2.734 2.836a18.283 18.283 0 0 1 3.508-2.734Z" fill="#F0DA7B"/><path d="M13.047 12.221a26.422 26.422 0 0 0-4.024 4.952l3.353 2.115a22.312 22.312 0 0 1 3.405-4.178l-2.734-2.889Z" fill="#DFA461"/><path d="m23.157 10.364-1.393-3.662a29.215 29.215 0 0 0-4.59 2.27l2.063 3.353a23.182 23.182 0 0 1 3.92-1.96Z" fill="#F8E47E"/><path d="m42.448 12.066 2.011-3.352c-1.547-.929-3.25-1.702-5.003-2.321l-1.29 3.713a18.89 18.89 0 0 1 4.282 1.96Z" fill="#91C274"/><path d="M30.79 8.92c1.238 0 2.476.052 3.663.258l.619-3.869A29.542 29.542 0 0 0 30.739 5l.051 3.92c-.051 0-.051 0 0 0Z" fill="#D7E067"/><path d="m46.058 14.749 2.631-2.889a25.001 25.001 0 0 0-4.23-3.146l-2.011 3.353c1.29.773 2.476 1.65 3.61 2.682Z" fill="#7DB96C"/><path d="m35.123 52.867.723 3.869c1.547-.31 2.991-.67 4.436-1.238l-1.393-3.663c-1.186.465-2.424.774-3.766 1.032Z" fill="#70A8C7"/><path d="m31.358 53.228.052 3.92a20.88 20.88 0 0 0 4.436-.464l-.723-3.868a17.919 17.919 0 0 1-3.765.412Z" fill="#748EC7"/><path d="m38.889 51.836 1.392 3.662a28.449 28.449 0 0 0 4.54-2.218l-2.064-3.353c-1.186.722-2.476 1.393-3.868 1.909Z" fill="#7BC2DE"/><path d="m27.747 53.022-.619 3.869a28.64 28.64 0 0 0 4.23.309l-.052-3.92c-1.186 0-2.372-.103-3.559-.258Z" fill="#888BC3"/><path d="m12.324 19.236-3.352-2.114a30.386 30.386 0 0 0-2.425 4.848l3.714 1.393c.568-1.444 1.238-2.837 2.063-4.127Z" fill="#E49C6D"/><path d="m23.93 52.093-1.29 3.714c1.445.516 2.94.877 4.488 1.084l.62-3.869a22.916 22.916 0 0 1-3.818-.928Z" fill="#9471AE"/><path d="M46.265 47.245a19.745 19.745 0 0 1-3.508 2.682l2.064 3.353c1.495-.929 2.837-2.012 4.126-3.198l-2.682-2.837Z" fill="#8BC7D3"/><path d="m19.598 50.082-2.012 3.353c1.599.98 3.301 1.753 5.055 2.372l1.29-3.714c-1.548-.515-2.94-1.238-4.333-2.011Z" fill="#B069A5"/><path d="M8.92 31.41 5 31.46a30.5 30.5 0 0 0 .619 5.364l3.869-.876a18.865 18.865 0 0 1-.568-4.54Z" fill="#DD7B73"/><path d="M10.261 23.363 6.547 21.97c-.567 1.548-1.031 3.198-1.29 4.849l3.87.619c.309-1.393.67-2.734 1.134-4.075Z" fill="#E49C75"/><path d="m9.436 35.949-3.869.877c.361 1.547.826 3.043 1.445 4.436l3.61-1.548a29.119 29.119 0 0 1-1.186-3.765Z" fill="#D76D69"/><path d="M8.92 31.358c0-1.341.103-2.63.31-3.92l-3.869-.62C5.103 28.316 5 29.863 5 31.41v.051l3.92-.103c0 .052 0 .052 0 0Z" fill="#DD827E"/><path d="M12.737 43.583 9.487 45.8a24.214 24.214 0 0 0 3.972 4.59l2.63-2.888a26.933 26.933 0 0 1-3.352-3.92Z" fill="#DB7FAF"/><path d="m10.622 39.714-3.61 1.547a25.8 25.8 0 0 0 2.476 4.54l3.25-2.218c-.826-1.238-1.497-2.528-2.116-3.869Z" fill="#D8728F"/><path d="m16.141 47.451-2.63 2.889c1.29 1.134 2.63 2.166 4.126 3.095l2.012-3.353c-1.29-.774-2.424-1.65-3.508-2.63Z" fill="#BA6FA7"/><path d="m30.79 13.047-.05-4.127c-1.29 0-2.58.155-3.817.413l.774 4.075a12.68 12.68 0 0 1 3.095-.361Z" fill="#DCE266"/><path d="M30.842 13.047c1.032 0 2.012.051 2.992.206l.619-4.075c-1.187-.206-2.425-.258-3.663-.258l.052 4.127c-.051 0 0 0 0 0Z" fill="#C8D660"/><path d="m27.696 13.356-.774-4.075c-1.29.258-2.579.62-3.765 1.032L24.6 14.18a22.916 22.916 0 0 1 3.095-.825Z" fill="#F9ED77"/><path d="M19.288 12.325c-1.29.825-2.476 1.702-3.508 2.785l2.837 2.992a20.735 20.735 0 0 1 2.889-2.27l-2.218-3.508Z" fill="#F4D665"/><path d="m12.48 19.34 3.352 2.114a17.488 17.488 0 0 1 2.785-3.404l-2.837-2.992c-1.29 1.238-2.476 2.631-3.404 4.178l.103.104Z" fill="#DFA358"/><path d="m24.652 14.233-1.444-3.869a19.446 19.446 0 0 0-3.869 1.96l2.167 3.508c.928-.67 2.011-1.186 3.146-1.599Z" fill="#F8E670"/><path d="m36.826 13.975 1.34-3.92a21.737 21.737 0 0 0-3.713-.929l-.619 4.075c1.032.207 2.063.465 2.992.774Z" fill="#A9CA5F"/><path d="m40.282 15.574 2.114-3.559c-1.34-.774-2.733-1.444-4.23-1.96l-1.34 3.92c1.238.413 2.372.98 3.456 1.6Z" fill="#87BE6E"/><path d="m15.832 21.454-3.353-2.114-.154-.104c-.826 1.29-1.496 2.683-2.064 4.127l3.869 1.444a18.592 18.592 0 0 1 1.702-3.353Zm-3.507-2.218.155.104-.155-.104Z" fill="#E2915C"/><path d="M40.281 15.574c1.084.62 2.063 1.393 2.94 2.218l2.786-3.043c-1.084-1.032-2.321-1.909-3.61-2.682l-2.116 3.507Z" fill="#71B463"/><path d="m18.927 44.408-2.785 3.043c1.083.98 2.218 1.857 3.507 2.58l2.115-3.56c-1.032-.567-1.96-1.29-2.837-2.063Z" fill="#BA65A2"/><path d="m37.444 47.967 1.445 3.869a22.452 22.452 0 0 0 3.868-1.909l-2.166-3.507a17.807 17.807 0 0 1-3.147 1.547Z" fill="#6EB1D0"/><path d="M42.757 49.927a25.261 25.261 0 0 0 3.508-2.682l-2.837-2.992a16.52 16.52 0 0 1-2.837 2.167l2.166 3.507Z" fill="#7CC1CB"/><path d="m34.401 48.792.774 4.075c1.29-.258 2.58-.567 3.766-1.031l-1.445-3.869c-1.031.361-2.063.67-3.095.825Z" fill="#618BB2"/><path d="m28.366 48.895-.619 4.075a27.62 27.62 0 0 0 3.61.258l-.05-4.126c-1.032.051-2.012-.052-2.941-.206Z" fill="#6D73B1"/><path d="M13.253 28.108c.207-1.134.464-2.27.877-3.3l-3.869-1.445c-.464 1.29-.876 2.682-1.083 4.126l4.075.62Z" fill="#DD7E62"/><path d="m31.306 49.102.052 4.126c1.29 0 2.527-.154 3.765-.36l-.774-4.076c-.98.207-2.011.31-3.043.31Z" fill="#5F74B3"/><path d="m14.44 38.115-3.817 1.599c.567 1.341 1.29 2.63 2.114 3.869l3.405-2.322a20.743 20.743 0 0 1-1.702-3.146Z" fill="#D56073"/><path d="m13.46 35.02-4.024.929c.31 1.29.722 2.579 1.186 3.765l3.817-1.599c-.412-.98-.722-2.012-.98-3.095Z" fill="#D35C56"/><path d="m13.046 31.358-4.126.052c0 1.547.206 3.094.516 4.539l4.023-.929a16.945 16.945 0 0 1-.413-3.662Z" fill="#D46D5D"/><path d="M13.046 31.306c0-1.083.052-2.166.258-3.198l-4.075-.67a24.655 24.655 0 0 0-.31 3.92v.052l4.127-.104c0 .052 0 .052 0 0Z" fill="#D97267"/><path d="m21.764 46.523-2.115 3.559a21.63 21.63 0 0 0 4.281 2.011l1.341-3.92a16.793 16.793 0 0 1-3.507-1.65Z" fill="#9D5E94"/><path d="m25.271 48.173-1.34 3.92c1.237.413 2.527.723 3.816.929l.62-4.075a27.14 27.14 0 0 1-3.096-.774Z" fill="#8266A7"/><path d="m16.142 41.21-3.405 2.321a22.385 22.385 0 0 0 3.405 3.92l2.785-3.043c-1.032-.928-1.96-2.012-2.785-3.198Z" fill="#D76692"/><path d="M24.652 14.233c-1.135.413-2.166.98-3.146 1.599l2.373 3.765c.773-.464 1.547-.877 2.372-1.186l-1.599-4.178Z" fill="#F8E763"/><path d="m28.52 17.74-.825-4.384c-1.083.207-2.063.464-3.094.877l1.599 4.178c.773-.31 1.547-.516 2.32-.67Z" fill="#F4EB69"/><path d="m30.842 17.483-.051-4.436c-1.084 0-2.115.103-3.095.31l.825 4.384c.774-.155 1.547-.207 2.321-.258Z" fill="#D2DD63"/><path d="M30.894 17.483c.774 0 1.547.051 2.27.154l.67-4.384c-.98-.155-1.96-.206-2.992-.206l.052 4.436Z" fill="#B4CA5B"/><path d="m19.598 23.827-3.766-2.373a15.593 15.593 0 0 0-1.65 3.353l4.178 1.548a11.49 11.49 0 0 1 1.238-2.528Zm-3.766-2.373Z" fill="#DF8C51"/><path d="m23.827 19.597-2.373-3.765c-1.031.67-2.011 1.393-2.888 2.27l3.095 3.25c.67-.671 1.392-1.29 2.166-1.755Z" fill="#F4D25A"/><path d="m21.66 21.3-3.094-3.25a22.27 22.27 0 0 0-2.786 3.404l3.766 2.373c.619-.928 1.34-1.754 2.114-2.527Z" fill="#E6A14E"/><path d="m18.308 26.355-4.178-1.548c-.413 1.083-.67 2.167-.877 3.301l4.384.723c.155-.826.413-1.651.67-2.476Z" fill="#D77154"/><path d="m35.433 18.205 1.444-4.23c-.98-.31-2.012-.567-3.043-.722l-.67 4.384c.773.155 1.495.31 2.269.568Z" fill="#A0C65D"/><path d="M35.433 18.205c.928.31 1.805.722 2.579 1.186l2.27-3.817a16.22 16.22 0 0 0-3.457-1.599l-1.392 4.23Z" fill="#7BB763"/><path d="M38.012 19.391c.825.464 1.547 1.032 2.218 1.65l2.991-3.3a24.395 24.395 0 0 0-2.94-2.218l-2.27 3.868Z" fill="#66A45E"/><path d="M40.591 46.42a16.516 16.516 0 0 0 2.837-2.167l-3.095-3.25a15.647 15.647 0 0 1-2.115 1.651l2.373 3.766Z" fill="#73BCCA"/><path d="M37.444 47.967a17.814 17.814 0 0 0 3.147-1.547l-2.373-3.766c-.722.464-1.548.825-2.373 1.135l1.6 4.178Z" fill="#659AC0"/><path d="m33.576 44.408.825 4.384c1.032-.206 2.063-.464 3.043-.877l-1.599-4.178c-.722.31-1.496.568-2.27.67Z" fill="#57779D"/><path d="m13.047 31.358 4.436-.052v-.051c0-.825.051-1.65.206-2.424l-4.384-.723c-.207 1.084-.31 2.115-.258 3.25Z" fill="#D46D5D"/><path d="m31.255 44.666.052 4.436c1.031 0 2.063-.103 3.094-.31l-.825-4.384c-.774.155-1.547.258-2.321.258Z" fill="#5468AA"/><path d="m17.792 34.092-4.333.98c.258 1.031.568 2.063.98 3.043l4.127-1.754a16.79 16.79 0 0 1-.774-2.27Z" fill="#D3564A"/><path d="m19.855 38.734-3.662 2.527c.774 1.187 1.702 2.218 2.785 3.198l2.992-3.3c-.825-.774-1.547-1.548-2.115-2.425Z" fill="#D55B7D"/><path d="m18.566 36.361-4.126 1.754a18.545 18.545 0 0 0 1.702 3.146l3.662-2.527a20.742 20.742 0 0 1-1.238-2.373Z" fill="#D5545D"/><path d="m17.482 31.306-4.436.052c0 1.29.155 2.476.413 3.662l4.333-.98c-.155-.877-.31-1.805-.31-2.734Z" fill="#D56051"/><path d="m29.037 44.511-.67 4.384c.928.155 1.908.207 2.94.207l-.052-4.436c-.774 0-1.496-.052-2.218-.155Z" fill="#626AAD"/><path d="m26.664 43.944-1.444 4.23c.98.36 2.063.618 3.095.773l.67-4.384a19.327 19.327 0 0 1-2.321-.62Z" fill="#796099"/><path d="m21.919 41.107-2.992 3.3c.877.775 1.805 1.497 2.837 2.116l2.27-3.817a12.65 12.65 0 0 1-2.115-1.6Z" fill="#A95A8B"/><path d="m24.033 42.706-2.27 3.817a16.81 16.81 0 0 0 3.508 1.65l1.444-4.23a11.544 11.544 0 0 1-2.682-1.237Z" fill="#7E496D"/><path d="m27.54 21.815-1.289-3.456c-.825.31-1.65.722-2.373 1.187l1.96 3.095c.465-.31 1.084-.568 1.703-.826Z" fill="#F1DE58"/><path d="m28.521 17.74.67 3.611a9.492 9.492 0 0 1 1.703-.155l-.052-3.662c-.774 0-1.547.052-2.321.207Z" fill="#C8D660"/><path d="m26.2 18.411 1.29 3.456a9.192 9.192 0 0 1 1.701-.464l-.67-3.611a9.684 9.684 0 0 0-2.321.619Z" fill="#EDEA65"/><path d="m30.894 17.483.051 3.662h.103c.568 0 1.084.052 1.6.155l.567-3.663a18.134 18.134 0 0 0-2.321-.154Z" fill="#A2BE59"/><path d="m25.787 22.692-1.96-3.095a17.489 17.489 0 0 0-2.166 1.703l2.527 2.63a7.76 7.76 0 0 1 1.6-1.238Z" fill="#F5CD53"/><path d="m22.692 25.787-3.095-1.96 3.095 1.96Z" fill="#C7DC93"/><path d="m22.64 25.787-3.094-1.96a11.49 11.49 0 0 0-1.238 2.528l3.404 1.29c.258-.671.568-1.29.929-1.858Z" fill="#DE824C"/><path d="M22.64 25.787c.052 0 .052 0 0 0l-3.094-1.96 3.095 1.96Z" fill="#DE824C"/><path d="M24.188 23.93 21.66 21.3c-.773.773-1.495 1.599-2.063 2.527l3.095 1.96c.413-.67.928-1.29 1.496-1.857Z" fill="#E2954F"/><path d="M32.596 21.3c.567.103 1.135.206 1.65.412l1.187-3.507c-.722-.258-1.496-.413-2.27-.567l-.567 3.662Z" fill="#98C35A"/><path d="m21.764 27.644-3.404-1.29c-.31.774-.516 1.6-.671 2.476l3.61.568c.052-.568.259-1.187.465-1.754Z" fill="#D7704D"/><path d="M36.103 22.59a12.52 12.52 0 0 1 1.651 1.237l2.476-2.734a13.759 13.759 0 0 0-2.218-1.65l-1.909 3.146Z" fill="#5E955B"/><path d="M34.247 21.712c.67.207 1.29.516 1.856.877l1.909-3.146a16.605 16.605 0 0 0-2.579-1.187l-1.186 3.456Z" fill="#74B55F"/><path d="m31.203 44.666-.051-3.662h-.103c-.516 0-1.032-.052-1.496-.104l-.568 3.611c.774.103 1.496.155 2.218.155Z" fill="#515D94"/><path d="M38.218 42.654a11.084 11.084 0 0 0 2.115-1.65l-2.527-2.683c-.464.465-.98.826-1.548 1.187l1.96 3.146Z" fill="#6BAAC3"/><path d="M35.845 43.789c.825-.31 1.6-.722 2.373-1.135l-1.96-3.095c-.516.31-1.083.62-1.702.826l1.29 3.404Z" fill="#5E8AB7"/><path d="m35.845 43.789-1.29-3.404a8.205 8.205 0 0 1-1.702.464l.671 3.61c.825-.154 1.6-.412 2.321-.67Z" fill="#4C6487"/><path d="M31.255 44.666c.773 0 1.547-.103 2.32-.206l-.67-3.611a9.503 9.503 0 0 1-1.702.155l.052 3.662Z" fill="#4D609B"/><path d="M21.145 31.152c0-.568.051-1.135.154-1.703l-3.61-.567c-.155.774-.207 1.6-.207 2.424v.052l3.663-.052v-.154Z" fill="#D6674F"/><path d="m21.919 41.107 2.476-2.683c-.568-.515-1.084-1.134-1.548-1.753l-2.992 2.063c.568.877 1.29 1.65 2.064 2.373Z" fill="#CB5164"/><path d="m19.855 38.734 2.992-2.063a11.404 11.404 0 0 1-.928-1.754l-3.353 1.444c.361.826.774 1.6 1.29 2.373Z" fill="#C64F56"/><path d="m18.566 36.361 3.353-1.444c-.207-.516-.413-1.083-.516-1.65l-3.56.773c.155.825.413 1.6.723 2.321Z" fill="#C85345"/><path d="M21.351 33.266c-.154-.67-.206-1.34-.258-2.011l-3.662.051c0 .929.103 1.857.31 2.786l3.61-.826Z" fill="#D35B46"/><path d="m29.037 44.511.567-3.61c-.619-.104-1.186-.207-1.754-.413l-1.186 3.456c.774.258 1.547.464 2.373.567Z" fill="#624E79"/><path d="m24.034 42.706 1.857-3.147c-.568-.31-1.032-.722-1.548-1.134l-2.476 2.682c.722.619 1.393 1.135 2.167 1.599Z" fill="#9F4E70"/><path d="m26.664 43.944 1.186-3.456c-.67-.258-1.34-.516-1.96-.929l-1.857 3.147c.825.516 1.702.928 2.63 1.238Z" fill="#6D3D58"/></svg>