<svg width="300" height="631" fill="none" xmlns="http://www.w3.org/2000/svg"><path d="M7 84h137v517H7V84Z" fill="#FFF8BA"/><path d="M0 345h267v55H0v-55Z" fill="#FFF8BA"/><path d="M105.35 209.42v-1.82l1.82-1.4h1.47v9.8h-1.61v-7.84l-1.68 1.26Zm4.691 6.58v-1.54l3.346-2.366c.728-.523 1.251-1.008 1.568-1.456.317-.448.476-.924.476-1.428 0-.532-.163-.957-.49-1.274-.327-.317-.77-.476-1.33-.476-.691 0-1.209.28-1.554.84a2.851 2.851 0 0 0-.336.84h-1.68a4.332 4.332 0 0 1 .546-1.61c.663-1.073 1.671-1.61 3.024-1.61 1.036 0 1.876.308 2.52.924.653.607.98 1.372.98 2.296 0 .803-.205 1.526-.616 2.17-.411.635-1.069 1.265-1.974 1.89l-1.4.98-.63.28v.07l.84-.07h3.78V216h-7.07Zm8.193-.77c0-.28.088-.513.266-.7a.93.93 0 0 1 .686-.28c.308 0 .55.112.728.336.186.224.28.555.28.994 0 .719-.173 1.269-.518 1.652-.336.392-.794.588-1.372.588v-.7c.28 0 .499-.079.658-.238a.765.765 0 0 0 .252-.602v-.084c-.01-.009-.014-.028-.014-.056v-.042l-.084.028a.743.743 0 0 1-.182.014c-.187 0-.35-.084-.49-.252-.14-.168-.21-.387-.21-.658Zm3.076-5.81c0-.989.355-1.82 1.064-2.492.709-.672 1.615-1.008 2.716-1.008 1.101 0 2.007.336 2.716 1.008.709.672 1.064 1.503 1.064 2.492 0 .887-.369 1.843-1.106 2.87l-.308.42a13.42 13.42 0 0 0-.266.35l-2.24 2.94h-1.89l2.114-2.758.616-.532v-.07a7.65 7.65 0 0 1-.28.112 3.583 3.583 0 0 1-.91.098 3.163 3.163 0 0 1-2.338-.98c-.635-.663-.952-1.479-.952-2.45Zm2.254-1.456c-.383.373-.574.859-.574 1.456s.191 1.087.574 1.47c.383.373.891.56 1.526.56s1.143-.187 1.526-.56c.383-.383.574-.873.574-1.47s-.191-1.083-.574-1.456c-.383-.383-.891-.574-1.526-.574s-1.143.191-1.526.574Zm6.219 5.236h1.68c.066.289.192.546.378.77.42.513 1.018.77 1.792.77.644 0 1.153-.159 1.526-.476.383-.327.574-.728.574-1.204 0-.541-.172-.966-.518-1.274-.336-.317-.816-.476-1.442-.476h-2.38v-1.4l2.94-2.1v-.07h-4.06v-1.54h6.44v1.526l-2.52 1.834-.7.28v.07l.224-.028c.308-.028.49-.042.546-.042.878 0 1.61.303 2.198.91.588.607.882 1.377.882 2.31 0 .896-.345 1.657-1.036 2.282-.69.625-1.582.938-2.674.938-1.446 0-2.515-.513-3.206-1.54a4.425 4.425 0 0 1-.644-1.54ZM83.42 37.2h1.68c.065.29.191.546.378.77.42.513 1.017.77 1.792.77.644 0 1.153-.159 1.526-.476.383-.327.574-.728.574-1.204 0-.541-.173-.966-.518-1.274-.336-.317-.817-.476-1.442-.476h-2.38v-1.4l2.94-2.1v-.07h-4.06V30.2h6.44v1.526l-2.52 1.834-.7.28v.07l.224-.028c.308-.028.49-.042.546-.042.877 0 1.61.303 2.198.91.588.607.882 1.377.882 2.31 0 .896-.345 1.657-1.036 2.282-.69.625-1.582.938-2.674.938-1.447 0-2.515-.513-3.206-1.54a4.404 4.404 0 0 1-.644-1.54Zm8.617 2.03c0-.28.088-.513.266-.7a.933.933 0 0 1 .686-.28c.308 0 .55.112.728.336.186.224.28.555.28.994 0 .719-.173 1.27-.518 1.652-.336.392-.794.588-1.372.588v-.7c.28 0 .499-.08.658-.238a.765.765 0 0 0 .252-.602v-.084c-.01-.01-.014-.028-.014-.056v-.042l-.084.028a.726.726 0 0 1-.182.014c-.187 0-.35-.084-.49-.252-.14-.168-.21-.387-.21-.658Zm3.006-2.45c0-.448.098-.915.294-1.4.205-.495.401-.882.588-1.162.196-.29.462-.649.798-1.078l2.24-2.94h1.89l-2.114 2.758-.616.532v.07l.28-.098c.28-.075.583-.112.91-.112.914 0 1.689.331 2.324.994.644.653.966 1.465.966 2.436 0 .99-.355 1.82-1.064 2.492-.71.672-1.615 1.008-2.716 1.008-1.102 0-2.007-.336-2.716-1.008-.71-.672-1.064-1.503-1.064-2.492Zm2.254-1.456c-.383.373-.574.859-.574 1.456s.191 1.087.574 1.47c.382.373.891.56 1.526.56.634 0 1.143-.187 1.526-.56.382-.383.574-.873.574-1.47s-.192-1.083-.574-1.456c-.383-.383-.892-.574-1.526-.574-.635 0-1.144.191-1.526.574Zm6.359 1.456c0-.448.098-.915.294-1.4.205-.495.401-.882.588-1.162.196-.29.462-.649.798-1.078l2.24-2.94h1.89l-2.114 2.758-.616.532v.07l.28-.098a3.52 3.52 0 0 1 .91-.112c.915 0 1.689.331 2.324.994.644.653.966 1.465.966 2.436 0 .99-.355 1.82-1.064 2.492-.709.672-1.615 1.008-2.716 1.008-1.101 0-2.007-.336-2.716-1.008-.709-.672-1.064-1.503-1.064-2.492Zm2.254-1.456c-.383.373-.574.859-.574 1.456s.191 1.087.574 1.47c.383.373.891.56 1.526.56s1.143-.187 1.526-.56c.383-.383.574-.873.574-1.47s-.191-1.083-.574-1.456c-.383-.383-.891-.574-1.526-.574s-1.143.191-1.526.574ZM85.56 288.42c0-.989.355-1.82 1.064-2.492.71-.672 1.615-1.008 2.716-1.008 1.101 0 2.007.336 2.716 1.008.71.672 1.064 1.503 1.064 2.492 0 .887-.369 1.843-1.106 2.87l-.308.42c-.13.168-.22.285-.266.35L89.2 295h-1.89l2.114-2.758.616-.532v-.07a7.398 7.398 0 0 1-.28.112 3.581 3.581 0 0 1-.91.098 3.163 3.163 0 0 1-2.338-.98c-.635-.663-.952-1.479-.952-2.45Zm2.254-1.456c-.383.373-.574.859-.574 1.456s.191 1.087.574 1.47c.383.373.891.56 1.526.56s1.143-.187 1.526-.56c.383-.383.574-.873.574-1.47s-.191-1.083-.574-1.456c-.383-.383-.891-.574-1.526-.574s-1.143.191-1.526.574Zm6.36 7.266c0-.28.088-.513.265-.7a.931.931 0 0 1 .686-.28c.308 0 .55.112.728.336.187.224.28.555.28.994 0 .719-.172 1.269-.518 1.652-.336.392-.793.588-1.372.588v-.7c.28 0 .5-.079.658-.238a.765.765 0 0 0 .252-.602v-.084c-.01-.009-.014-.028-.014-.056v-.042l-.084.028a.742.742 0 0 1-.182.014c-.186 0-.35-.084-.49-.252-.14-.168-.21-.387-.21-.658Zm3.075-1.96h1.68c.075.289.201.537.379.742.41.485 1.007.728 1.791.728.626 0 1.12-.168 1.484-.504.364-.336.546-.775.546-1.316 0-.569-.182-1.027-.546-1.372-.364-.345-.858-.518-1.484-.518-.578 0-1.068.154-1.47.462a1.928 1.928 0 0 0-.42.448h-1.54l.42-5.74h5.95v1.54h-4.62l-.21 2.52h.07a2.13 2.13 0 0 1 .519-.378c.438-.261.965-.392 1.581-.392.98 0 1.797.327 2.45.98.654.653.98 1.47.98 2.45 0 .961-.345 1.764-1.036 2.408-.681.635-1.572.952-2.674.952-1.437 0-2.505-.499-3.206-1.498a4.415 4.415 0 0 1-.644-1.512Zm8.474 2.73v-1.54l3.346-2.366c.728-.523 1.25-1.008 1.568-1.456.317-.448.476-.924.476-1.428 0-.532-.164-.957-.49-1.274-.327-.317-.77-.476-1.33-.476-.691 0-1.209.28-1.554.84-.15.243-.262.523-.336.84h-1.68a4.332 4.332 0 0 1 .546-1.61c.662-1.073 1.67-1.61 3.024-1.61 1.036 0 1.876.308 2.52.924.653.607.98 1.372.98 2.296 0 .803-.206 1.526-.616 2.17-.411.635-1.069 1.265-1.974 1.89l-1.4.98-.63.28v.07l.84-.07h3.78V295h-7.07Zm89.837 83.34c0-.849.327-1.526.98-2.03a3.16 3.16 0 0 1 .98-.448v-.084a2.568 2.568 0 0 1-.77-.462c-.513-.439-.77-1.017-.77-1.736 0-.737.313-1.363.938-1.876.635-.523 1.489-.784 2.562-.784 1.073 0 1.923.261 2.548.784.635.513.952 1.139.952 1.876 0 .7-.257 1.279-.77 1.736-.243.196-.499.35-.77.462v.084c.355.093.681.247.98.462.653.504.98 1.176.98 2.016 0 .812-.355 1.507-1.064 2.086-.7.569-1.652.854-2.856.854s-2.161-.285-2.87-.854c-.7-.579-1.05-1.274-1.05-2.086Zm2.1-4.62c0 .411.159.747.476 1.008.317.261.765.392 1.344.392.579 0 1.027-.131 1.344-.392.317-.261.476-.597.476-1.008 0-.373-.163-.686-.49-.938-.317-.261-.761-.392-1.33-.392-.569 0-1.017.131-1.344.392-.317.252-.476.565-.476.938Zm.168 3.346c-.392.308-.588.686-.588 1.134 0 .448.196.831.588 1.148.401.308.952.462 1.652.462s1.246-.154 1.638-.462c.401-.317.602-.7.602-1.148 0-.448-.201-.826-.602-1.134-.392-.317-.938-.476-1.638-.476s-1.251.159-1.652.476Zm6.687 3.164c0-.28.089-.513.266-.7a.932.932 0 0 1 .686-.28c.308 0 .551.112.728.336.187.224.28.555.28.994 0 .719-.173 1.269-.518 1.652-.336.392-.793.588-1.372.588v-.7c.28 0 .499-.079.658-.238a.765.765 0 0 0 .252-.602v-.084c-.009-.009-.014-.028-.014-.056v-.042l-.084.028a.743.743 0 0 1-.182.014c-.187 0-.35-.084-.49-.252-.14-.168-.21-.387-.21-.658Zm2.656-7.49v-1.54h6.65v1.54l-3.92 8.26h-1.75l3.85-8.12v-.14h-4.83Zm7.069 0v-1.54h6.65v1.54l-3.92 8.26h-1.75l3.85-8.12v-.14h-4.83ZM67.35 527.42v-1.82l1.82-1.4h1.47v9.8h-1.61v-7.84l-1.68 1.26Zm4.481 4.62v-1.54l3.29-6.3h1.75l-3.29 6.3h3.22v-2.38h1.61v2.38h1.4v1.54h-1.4V534h-1.61v-1.96h-4.97Zm8.54 1.19c0-.28.088-.513.266-.7a.932.932 0 0 1 .686-.28c.308 0 .55.112.728.336.186.224.28.555.28.994 0 .719-.173 1.269-.519 1.652-.335.392-.793.588-1.371.588v-.7c.28 0 .499-.079.657-.238a.765.765 0 0 0 .252-.602v-.084c-.009-.009-.013-.028-.013-.056v-.042l-.085.028a.741.741 0 0 1-.181.014c-.187 0-.35-.084-.49-.252-.14-.168-.21-.387-.21-.658Zm2.936-2.03h1.68c.065.289.191.546.378.77.42.513 1.017.77 1.792.77.644 0 1.152-.159 1.526-.476.382-.327.574-.728.574-1.204 0-.541-.173-.966-.518-1.274-.336-.317-.817-.476-1.442-.476h-2.38v-1.4l2.94-2.1v-.07h-4.06v-1.54h6.44v1.526l-2.52 1.834-.7.28v.07l.224-.028c.308-.028.49-.042.546-.042.877 0 1.61.303 2.198.91.588.607.882 1.377.882 2.31 0 .896-.346 1.657-1.036 2.282-.69.625-1.582.938-2.674.938-1.447 0-2.516-.513-3.206-1.54a4.408 4.408 0 0 1-.644-1.54Zm8.476 2.8v-1.54l3.346-2.366c.728-.523 1.25-1.008 1.568-1.456.318-.448.476-.924.476-1.428 0-.532-.163-.957-.49-1.274-.326-.317-.77-.476-1.33-.476-.69 0-1.208.28-1.554.84a2.83 2.83 0 0 0-.336.84h-1.68a4.332 4.332 0 0 1 .546-1.61c.663-1.073 1.67-1.61 3.024-1.61 1.036 0 1.876.308 2.52.924.654.607.98 1.372.98 2.296a3.95 3.95 0 0 1-.616 2.17c-.41.635-1.068 1.265-1.974 1.89l-1.4.98-.63.28v.07l.84-.07h3.78V534h-7.07Z" fill="#333"/><circle cx="87.5" cy="158.5" r="39.5" fill="#5A5A5A"/><path d="M64.72 162.49h2.16c.096.372.258.69.486.954.528.624 1.296.936 2.304.936.804 0 1.44-.216 1.908-.648.468-.432.702-.996.702-1.692 0-.732-.234-1.32-.702-1.764-.468-.444-1.104-.666-1.908-.666-.744 0-1.374.198-1.89.594a2.481 2.481 0 0 0-.54.576h-1.98l.54-7.38h7.65v1.98h-5.94l-.27 3.24h.09c.192-.192.414-.354.666-.486.564-.336 1.242-.504 2.034-.504 1.26 0 2.31.42 3.15 1.26.84.84 1.26 1.89 1.26 3.15 0 1.236-.444 2.268-1.332 3.096-.876.816-2.022 1.224-3.438 1.224-1.848 0-3.222-.642-4.122-1.926a5.672 5.672 0 0 1-.828-1.944Zm12.874 1.998c-1.14-1.248-1.71-2.844-1.71-4.788 0-1.944.57-3.54 1.71-4.788 1.14-1.248 2.52-1.872 4.14-1.872 1.62 0 3 .624 4.14 1.872 1.14 1.248 1.71 2.844 1.71 4.788 0 1.944-.57 3.54-1.71 4.788-1.14 1.248-2.52 1.872-4.14 1.872-1.62 0-3-.624-4.14-1.872Zm1.476-8.244c-.684.816-1.026 1.968-1.026 3.456s.342 2.64 1.026 3.456c.696.816 1.584 1.224 2.664 1.224s1.962-.408 2.646-1.224c.696-.816 1.044-1.968 1.044-3.456s-.348-2.64-1.044-3.456c-.684-.816-1.566-1.224-2.646-1.224-1.08 0-1.968.408-2.664 1.224Zm10.048 8.766c0-.36.114-.66.342-.9a1.2 1.2 0 0 1 .882-.36c.396 0 .708.144.936.432.24.288.36.714.36 1.278 0 .924-.222 1.632-.666 2.124-.432.504-1.02.756-1.764.756v-.9c.36 0 .642-.102.846-.306.216-.192.324-.45.324-.774v-.108c-.012-.012-.018-.036-.018-.072v-.054l-.108.036a.932.932 0 0 1-.234.018c-.24 0-.45-.108-.63-.324-.18-.216-.27-.498-.27-.846Zm3.776-2.61h2.16c.084.372.245.702.486.99.54.66 1.307.99 2.303.99.828 0 1.483-.204 1.962-.612.493-.42.739-.936.739-1.548 0-.696-.222-1.242-.666-1.638-.433-.408-1.05-.612-1.855-.612h-3.06v-1.8l3.78-2.7v-.09h-5.22v-1.98h8.281v1.962l-3.24 2.358-.9.36v.09l.287-.036c.397-.036.63-.054.703-.054 1.127 0 2.07.39 2.826 1.17.756.78 1.134 1.77 1.134 2.97 0 1.152-.444 2.13-1.332 2.934-.888.804-2.034 1.206-3.438 1.206-1.86 0-3.234-.66-4.122-1.98-.384-.564-.66-1.224-.828-1.98Zm10.898 0h2.16c.084.372.246.702.486.99.54.66 1.308.99 2.304.99.828 0 1.482-.204 1.962-.612.492-.42.738-.936.738-1.548 0-.696-.222-1.242-.666-1.638-.432-.408-1.05-.612-1.854-.612h-3.06v-1.8l3.78-2.7v-.09h-5.22v-1.98h8.28v1.962l-3.24 2.358-.9.36v.09l.288-.036c.396-.036.63-.054.702-.054 1.128 0 2.07.39 2.826 1.17.756.78 1.134 1.77 1.134 2.97 0 1.152-.444 2.13-1.332 2.934-.888.804-2.034 1.206-3.438 1.206-1.86 0-3.234-.66-4.122-1.98-.384-.564-.66-1.224-.828-1.98Z" fill="#fff"/><path fill="#FFC79F" d="M7 338h84v99H7z"/><path d="M53.21 385.04v-1.54l3.29-6.3h1.75l-3.29 6.3h3.22v-2.38h1.61v2.38h1.4v1.54h-1.4V387h-1.61v-1.96h-4.97Zm8.54 1.19c0-.28.088-.513.266-.7a.931.931 0 0 1 .686-.28c.308 0 .55.112.727.336.187.224.28.555.28.994 0 .719-.172 1.269-.518 1.652-.336.392-.793.588-1.372.588v-.7c.28 0 .5-.079.658-.238a.765.765 0 0 0 .253-.602v-.084c-.01-.009-.014-.028-.014-.056v-.042l-.084.028a.742.742 0 0 1-.182.014c-.187 0-.35-.084-.49-.252-.14-.168-.21-.387-.21-.658Zm2.656-7.49v-1.54h6.65v1.54l-3.92 8.26h-1.75l3.85-8.12v-.14h-4.83Zm7.488 1.68c0-.989.355-1.82 1.064-2.492.71-.672 1.615-1.008 2.716-1.008 1.101 0 2.007.336 2.716 1.008.71.672 1.064 1.503 1.064 2.492 0 .887-.369 1.843-1.106 2.87l-.308.42c-.13.168-.22.285-.266.35l-2.24 2.94h-1.89l2.114-2.758.616-.532v-.07a7.398 7.398 0 0 1-.28.112 3.581 3.581 0 0 1-.91.098 3.163 3.163 0 0 1-2.338-.98c-.635-.663-.952-1.479-.952-2.45Zm2.254-1.456c-.383.373-.574.859-.574 1.456s.191 1.087.574 1.47c.383.373.891.56 1.526.56s1.143-.187 1.526-.56c.383-.383.574-.873.574-1.47s-.191-1.083-.574-1.456c-.383-.383-.891-.574-1.526-.574s-1.143.191-1.526.574Z" fill="#333"/><path fill="#5A5A5A" d="M0 54h30v577H0z"/><path d="M30 305.967h24.995v24.324H30v-24.324Z" fill="#fff" stroke="#5A5A5A" stroke-width=".5"/><path d="M52.969 306.893H33.516c-.738 0-1.13.393-1.13 1.162v20.148c0 .785.376 1.162 1.13 1.162h19.453c.753.016 1.13-.377 1.13-1.146v-20.148c.016-.785-.377-1.178-1.13-1.178Z" fill="#fff" stroke="#5A5A5A" stroke-width=".5"/><path d="M51.18 313.394c-.016 1.791-1.43 3.251-3.172 3.251-1.759 0-3.172-1.46-3.172-3.251 0-1.805 1.413-3.25 3.172-3.25 1.758 0 3.171 1.445 3.171 3.25Zm-.03 9.626c-.016 1.791-1.43 3.251-3.172 3.251-1.759 0-3.172-1.46-3.172-3.251 0-1.805 1.413-3.25 3.172-3.25 1.758-.016 3.187 1.445 3.171 3.25Zm-9.014 0c0 1.806-1.413 3.251-3.172 3.251-1.758 0-3.171-1.46-3.171-3.251.015-1.79 1.428-3.25 3.171-3.25 1.743 0 3.172 1.46 3.172 3.25Zm0-9.626c0 1.806-1.413 3.251-3.172 3.251-1.758 0-3.171-1.46-3.171-3.251.015-1.79 1.428-3.25 3.171-3.25 1.743 0 3.172 1.46 3.172 3.25Z" stroke="#5A5A5A" stroke-width=".5"/><path d="M30.015 281.699h24.089V258H30l.015 23.699Z" fill="#fff" stroke="#5A5A5A" stroke-width=".5"/><path d="M36.621 279.896h13.317c.743 0 1.106-.364 1.106-1.121v-17.608c0-.727-.363-1.106-1.09-1.121l-13.333.015c-.727-.015-1.09.363-1.09 1.106v17.608c-.03.742.348 1.121 1.09 1.121Z" fill="#fff" stroke="#5A5A5A" stroke-width=".5"/><path d="M31.864 269.971c.015-.925.712-1.667 1.59-1.667l6.984.652.016.015c.53 0 .954.439.954 1 0 .56-.424 1-.97 1.015l-6.984.652c-.863 0-1.575-.743-1.59-1.667Z" stroke="#5A5A5A" stroke-width=".5"/><mask id="a" fill="#fff"><path fill-rule="evenodd" clip-rule="evenodd" d="m32.546 268.592 3.803.363c.53.015.97.455.954 1.031a.98.98 0 0 1-.954 1l-3.803.363"/></mask><path fill-rule="evenodd" clip-rule="evenodd" d="m32.546 268.592 3.803.363c.53.015.97.455.954 1.031a.98.98 0 0 1-.954 1l-3.803.363" fill="#fff"/><path d="m36.349 268.955-.014.5h-.017l-.017-.002.048-.498Zm.954 1.031h-.5v-.013l.5.013Zm-.954 1-.048-.498.017-.002h.017l.014.5Zm-3.755-2.892 3.802.364-.095.995-3.803-.364.096-.995Zm3.77.362a1.488 1.488 0 0 1 1.44 1.543l-1-.026a.488.488 0 0 0-.47-.518l.03-.999Zm1.44 1.53a1.48 1.48 0 0 1-1.44 1.5l-.03-1a.48.48 0 0 0 .47-.5h1Zm-1.408 1.498-3.802.363-.096-.995 3.803-.364.095.996Z" fill="#5A5A5A" mask="url(#a)"/><path fill="#5A5A5A" d="M159 226v2h-11v-2zm-17 0v2h-11v-2zm-17 0v2h-11v-2zm-17 0v2H97v-2zm-17 0v2H80v-2zm-17 0v2H63v-2zm-17 0v2H46v-2zm-17 0v2H29v-2zm-17 0v2h-6v-2zm78 104v8H30v-8zm0 106v8H30v-8zm43 0v8h-9v-8zm0-106v8h-9v-8z"/><path fill="#5A5A5A" d="M98 370h-8v-34h8z"/><path d="m49.298 356.72-1.18.016-3.067-.016h-7.59v9.957h11.837c3.017 0 5.476-2.244 5.476-4.995 0-2.719-2.46-4.962-5.476-4.962Z" fill="#fff" stroke="#5A5A5A" stroke-width=".5"/><path d="M49.232 357.866H40.74v7.681h7.559l.934-.017c2.378 0 4.312-1.703 4.312-3.832-.016-2.113-1.95-3.832-4.312-3.832Zm-18.133 10.612h5.263c.606 0 1.098-.491 1.098-1.097v-11.284c0-.606-.492-1.097-1.098-1.097h-5.263c-.607 0-1.099.491-1.099 1.097v11.268c0 .622.492 1.113 1.099 1.113Z" fill="#fff" stroke="#5A5A5A" stroke-width=".5"/><path d="M33.722 362.386c.41 0 .721-.295.721-.639.017-.36-.311-.655-.721-.655s-.721.295-.721.639a.683.683 0 0 0 .721.655Zm-2.182 39.21h12.308c.856 0 1.54-.683 1.54-1.538v-18.519c0-.855-.684-1.539-1.54-1.539H31.54c-.855 0-1.54.684-1.54 1.539v18.519c0 .84.685 1.538 1.54 1.538Z" fill="#fff" stroke="#5A5A5A" stroke-width=".5"/><path d="M36.232 399.673h1.897a4.52 4.52 0 0 0 4.521-4.516v-8.718a4.52 4.52 0 0 0-4.52-4.516h-1.898a4.52 4.52 0 0 0-4.52 4.516v8.718a4.52 4.52 0 0 0 4.52 4.516Z" fill="#fff" stroke="#5A5A5A" stroke-width=".5"/><path d="M34.122 391.753c.543 0 .984-.427.984-.954 0-.527-.441-.955-.984-.955-.544 0-.984.428-.984.955 0 .527.44.954.984.954Zm-2.736 17.636h60.12c.77 0 1.386.615 1.386 1.384v23.867a1.38 1.38 0 0 1-1.385 1.384H31.386A1.38 1.38 0 0 1 30 434.64v-23.867c0-.769.63-1.384 1.386-1.384Z" fill="#fff" stroke="#5A5A5A" stroke-width=".5"/><path d="M89.197 419.47v6.488c0 3.761-3.052 6.795-6.803 6.795H35.053a1.66 1.66 0 0 1-1.666-1.664v-16.778a1.66 1.66 0 0 1 1.666-1.664H82.38c3.765.014 6.817 3.062 6.817 6.823Z" fill="#fff" stroke="#5A5A5A" stroke-width=".5"/><path d="M39 422.238c0-.749-.633-1.356-1.413-1.356-.781 0-1.414.607-1.414 1.356 0 .749.633 1.356 1.414 1.356.78 0 1.413-.607 1.413-1.356Zm51.588-62.214v-22.01L69 338l.014 22.01 21.574.014Z" fill="#fff" stroke="#5A5A5A" stroke-width=".5"/><path d="M74.257 349.005c0-3.114 2.475-5.628 5.537-5.628s5.536 2.514 5.536 5.642c0 3.114-2.474 5.656-5.536 5.656-3.062-.014-5.537-2.556-5.537-5.67Z" stroke="#5A5A5A" stroke-width=".5"/><path d="M79.794 353.125a3.874 3.874 0 0 1-2.853-1.201 4.267 4.267 0 0 1-1.188-2.905m4.027-4.134a4.033 4.033 0 0 0-2.853 1.201 4.186 4.186 0 0 0-1.188 2.919l4.04-4.12Zm.014 8.24a4.033 4.033 0 0 0 2.852-1.201 4.2 4.2 0 0 0 1.174-2.919l-4.026 4.12Zm-.014-8.24c1.132 0 2.139.461 2.852 1.201l.014.014a4.168 4.168 0 0 1 1.174 2.891l-4.04-4.106Z" stroke="#5A5A5A" stroke-width=".5"/><path fill="#5A5A5A" d="M98 437h-8v-40h8zM70 54v30H0V54z"/><path stroke="#5A5A5A" d="m69.743 67.429 25 15"/><path d="M132.75.25 51.282.313l-.03 4.437h81.498V.25Z" stroke="#5A5A5A" stroke-width=".5" stroke-miterlimit="10"/><path fill="#5A5A5A" d="M149 0h5v74h-5zM46 0h5v74h-5z"/><path fill="#5A5A5A" d="M65 0v5H46V0zm86 0v5H65V0z"/><path d="m97.25 54.25 60.476.063.023 4.437H97.25v-4.5Zm0 10 60.476.063.023 4.437H97.25v-4.5Z" stroke="#5A5A5A" stroke-width=".5" stroke-miterlimit="10"/><path fill="#5A5A5A" d="M160 54v30h-35V54zm0 547v30h-43v-30zm-108 0v30H9v-30z"/><path fill="#5A5A5A" d="M144 396h16v235h-16z"/><path fill="#5A5A5A" d="M283 396v16H144v-16zm0-66v16H144v-16z"/><path fill="#5A5A5A" d="M283 356h-16v-26h16zm0 55h-16v-20h16zm-123-65h-16V80h16z"/><path d="m139.75 601.25-132.447.152-.052 11.348H139.75v-11.5Zm0 18-132.447.152-.052 11.348H139.75v-11.5Z" stroke="#5A5A5A" stroke-width=".5" stroke-miterlimit="10"/><path stroke="#5A5A5A" d="m136.755 337.436-32-18m-8.187 78.312 14-24m-11.323 67.816 32 18m148.335-66.835 20-31"/></svg>