<svg width="300" height="577" fill="none" xmlns="http://www.w3.org/2000/svg"><path d="M293 547H156V30h137v517Z" fill="#E7FFD5"/><path d="M300 286H33v-55h267v55Z" fill="#E7FFD5"/><path d="M219.35 514.42v-1.82l1.82-1.4h1.47v9.8h-1.61v-7.84l-1.68 1.26Zm4.761 3.36c0-.448.098-.915.294-1.4.205-.495.401-.882.588-1.162.196-.289.462-.649.798-1.078l2.24-2.94h1.89l-2.114 2.758-.616.532v.07l.28-.098c.28-.075.583-.112.91-.112.915 0 1.689.331 2.324.994.644.653.966 1.465.966 2.436 0 .989-.355 1.82-1.064 2.492-.709.672-1.615 1.008-2.716 1.008-1.101 0-2.007-.336-2.716-1.008-.709-.672-1.064-1.503-1.064-2.492Zm2.254-1.456c-.383.373-.574.859-.574 1.456s.191 1.087.574 1.47c.383.373.891.56 1.526.56s1.143-.187 1.526-.56c.383-.383.574-.873.574-1.47s-.191-1.083-.574-1.456c-.383-.383-.891-.574-1.526-.574s-1.143.191-1.526.574Zm6.429 3.906c0-.28.089-.513.266-.7a.933.933 0 0 1 .686-.28c.308 0 .551.112.728.336.187.224.28.555.28.994 0 .719-.172 1.269-.518 1.652-.336.392-.793.588-1.372.588v-.7c.28 0 .5-.079.658-.238a.765.765 0 0 0 .252-.602v-.084c-.009-.009-.014-.028-.014-.056v-.042l-.084.028a.738.738 0 0 1-.182.014c-.186 0-.35-.084-.49-.252-.14-.168-.21-.387-.21-.658Zm3.077-5.81c0-.989.354-1.82 1.064-2.492.709-.672 1.614-1.008 2.716-1.008 1.101 0 2.006.336 2.716 1.008.709.672 1.064 1.503 1.064 2.492 0 .887-.369 1.843-1.106 2.87l-.308.42c-.131.168-.22.285-.266.35l-2.24 2.94h-1.89l2.114-2.758.616-.532v-.07a7.65 7.65 0 0 1-.28.112 3.583 3.583 0 0 1-.91.098 3.163 3.163 0 0 1-2.338-.98c-.635-.663-.952-1.479-.952-2.45Zm2.254-1.456c-.383.373-.574.859-.574 1.456s.191 1.087.574 1.47c.382.373.891.56 1.526.56.634 0 1.143-.187 1.526-.56.382-.383.574-.873.574-1.47s-.192-1.083-.574-1.456c-.383-.383-.892-.574-1.526-.574-.635 0-1.144.191-1.526.574Zm6.149 1.456v-1.82l1.82-1.4h1.47v9.8h-1.61v-7.84l-1.68 1.26Zm-165.714-257c0-.989.355-1.82 1.064-2.492.71-.672 1.615-1.008 2.716-1.008 1.101 0 2.007.336 2.716 1.008.71.672 1.064 1.503 1.064 2.492 0 .887-.369 1.843-1.106 2.87l-.308.42c-.13.168-.22.285-.266.35L82.2 264h-1.89l2.114-2.758.616-.532v-.07a7.398 7.398 0 0 1-.28.112 3.581 3.581 0 0 1-.91.098 3.163 3.163 0 0 1-2.338-.98c-.635-.663-.952-1.479-.952-2.45Zm2.254-1.456c-.383.373-.574.859-.574 1.456s.191 1.087.574 1.47c.383.373.891.56 1.526.56s1.143-.187 1.526-.56c.383-.383.574-.873.574-1.47s-.191-1.083-.574-1.456c-.383-.383-.891-.574-1.526-.574s-1.143.191-1.526.574Zm6.36 7.266c0-.28.088-.513.265-.7a.931.931 0 0 1 .686-.28c.308 0 .55.112.728.336.187.224.28.555.28.994 0 .719-.172 1.269-.518 1.652-.336.392-.793.588-1.372.588v-.7c.28 0 .5-.079.658-.238a.765.765 0 0 0 .252-.602v-.084c-.01-.009-.014-.028-.014-.056v-.042l-.084.028a.742.742 0 0 1-.182.014c-.186 0-.35-.084-.49-.252-.14-.168-.21-.387-.21-.658Zm2.935-2.03h1.68c.066.289.192.546.379.77.42.513 1.017.77 1.791.77.644 0 1.153-.159 1.526-.476.383-.327.575-.728.575-1.204 0-.541-.173-.966-.519-1.274-.335-.317-.816-.476-1.441-.476h-2.38v-1.4l2.94-2.1v-.07H90.6v-1.54h6.44v1.526l-2.52 1.834-.7.28v.07l.224-.028c.308-.028.49-.042.546-.042.877 0 1.61.303 2.197.91.588.607.882 1.377.882 2.31 0 .896-.345 1.657-1.035 2.282-.691.625-1.582.938-2.674.938-1.447 0-2.516-.513-3.206-1.54a4.405 4.405 0 0 1-.645-1.54Zm8.267.84v-1.54l3.29-6.3h1.75l-3.29 6.3h3.22v-2.38h1.61v2.38h1.4v1.54h-1.4V264h-1.61v-1.96h-4.97ZM200.35 98.42V96.6l1.82-1.4h1.47v9.8h-1.61v-7.84l-1.68 1.26Zm4.831 3.92c0-.849.327-1.526.98-2.03a3.16 3.16 0 0 1 .98-.448v-.084a2.568 2.568 0 0 1-.77-.462c-.513-.439-.77-1.017-.77-1.736 0-.737.313-1.363.938-1.876.635-.523 1.489-.784 2.562-.784 1.073 0 1.923.261 2.548.784.635.513.952 1.139.952 1.876 0 .7-.257 1.279-.77 1.736-.243.196-.499.35-.77.462v.084c.355.093.681.247.98.462.653.504.98 1.176.98 2.016 0 .812-.355 1.507-1.064 2.086-.7.569-1.652.854-2.856.854s-2.161-.285-2.87-.854c-.7-.579-1.05-1.274-1.05-2.086Zm2.1-4.62c0 .41.159.747.476 1.008.317.261.765.392 1.344.392.579 0 1.027-.13 1.344-.392.317-.261.476-.597.476-1.008 0-.373-.163-.686-.49-.938-.317-.261-.761-.392-1.33-.392-.569 0-1.017.13-1.344.392-.317.252-.476.565-.476.938Zm.168 3.346c-.392.308-.588.686-.588 1.134 0 .448.196.831.588 1.148.401.308.952.462 1.652.462s1.246-.154 1.638-.462c.401-.317.602-.7.602-1.148 0-.448-.201-.826-.602-1.134-.392-.317-.938-.476-1.638-.476s-1.251.159-1.652.476Zm6.687 3.164c0-.28.089-.513.266-.7a.933.933 0 0 1 .686-.28c.308 0 .551.112.728.336.187.224.28.555.28.994 0 .719-.172 1.269-.518 1.652-.336.392-.793.588-1.372.588v-.7c.28 0 .5-.079.658-.238a.765.765 0 0 0 .252-.602v-.084c-.009-.009-.014-.028-.014-.056v-.042l-.084.028a.738.738 0 0 1-.182.014c-.186 0-.35-.084-.49-.252-.14-.168-.21-.387-.21-.658Zm4.476-.406c-.886-.971-1.33-2.212-1.33-3.724s.444-2.753 1.33-3.724c.887-.97 1.96-1.456 3.22-1.456 1.26 0 2.334.485 3.22 1.456.887.97 1.33 2.212 1.33 3.724s-.443 2.753-1.33 3.724c-.886.971-1.96 1.456-3.22 1.456-1.26 0-2.333-.485-3.22-1.456Zm1.148-6.412c-.532.635-.798 1.53-.798 2.688 0 1.157.266 2.053.798 2.688.542.635 1.232.952 2.072.952.84 0 1.526-.317 2.058-.952.542-.635.812-1.531.812-2.688 0-1.157-.27-2.053-.812-2.688-.532-.635-1.218-.952-2.058-.952-.84 0-1.53.317-2.072.952Zm7.676 7.588v-1.54l3.346-2.366c.728-.523 1.25-1.008 1.568-1.456.317-.448.476-.924.476-1.428 0-.532-.164-.957-.49-1.274-.327-.317-.77-.476-1.33-.476-.691 0-1.209.28-1.554.84-.15.243-.262.523-.336.84h-1.68a4.33 4.33 0 0 1 .546-1.61c.662-1.073 1.67-1.61 3.024-1.61 1.036 0 1.876.308 2.52.924.653.607.98 1.372.98 2.296 0 .803-.206 1.526-.616 2.17-.411.635-1.069 1.265-1.974 1.89l-1.4.98-.63.28v.07l.84-.07h3.78V105h-7.07Z" fill="#333"/><circle cx="210.5" cy="428.5" r="39.5" fill="#5A5A5A"/><path d="M187.72 432.49h2.16c.096.372.258.69.486.954.528.624 1.296.936 2.304.936.804 0 1.44-.216 1.908-.648.468-.432.702-.996.702-1.692 0-.732-.234-1.32-.702-1.764-.468-.444-1.104-.666-1.908-.666-.744 0-1.374.198-1.89.594a2.481 2.481 0 0 0-.54.576h-1.98l.54-7.38h7.65v1.98h-5.94l-.27 3.24h.09c.192-.192.414-.354.666-.486.564-.336 1.242-.504 2.034-.504 1.26 0 2.31.42 3.15 1.26.84.84 1.26 1.89 1.26 3.15 0 1.236-.444 2.268-1.332 3.096-.876.816-2.022 1.224-3.438 1.224-1.848 0-3.222-.642-4.122-1.926a5.672 5.672 0 0 1-.828-1.944Zm12.874 1.998c-1.14-1.248-1.71-2.844-1.71-4.788 0-1.944.57-3.54 1.71-4.788 1.14-1.248 2.52-1.872 4.14-1.872 1.62 0 3 .624 4.14 1.872 1.14 1.248 1.71 2.844 1.71 4.788 0 1.944-.57 3.54-1.71 4.788-1.14 1.248-2.52 1.872-4.14 1.872-1.62 0-3-.624-4.14-1.872Zm1.476-8.244c-.684.816-1.026 1.968-1.026 3.456s.342 2.64 1.026 3.456c.696.816 1.584 1.224 2.664 1.224s1.962-.408 2.646-1.224c.696-.816 1.044-1.968 1.044-3.456s-.348-2.64-1.044-3.456c-.684-.816-1.566-1.224-2.646-1.224-1.08 0-1.968.408-2.664 1.224Zm10.048 8.766c0-.36.114-.66.342-.9a1.2 1.2 0 0 1 .882-.36c.396 0 .708.144.936.432.24.288.36.714.36 1.278 0 .924-.222 1.632-.666 2.124-.432.504-1.02.756-1.764.756v-.9c.36 0 .642-.102.846-.306.216-.192.324-.45.324-.774v-.108c-.012-.012-.018-.036-.018-.072v-.054l-.108.036a.932.932 0 0 1-.234.018c-.24 0-.45-.108-.63-.324-.18-.216-.27-.498-.27-.846Zm3.506-1.53v-1.98l4.23-8.1h2.25l-4.23 8.1h4.14v-3.06h2.07v3.06h1.8v1.98h-1.8V436h-2.07v-2.52h-6.39Zm10.889-1.62c0-.576.126-1.176.378-1.8.264-.636.516-1.134.756-1.494.252-.372.594-.834 1.026-1.386l2.88-3.78h2.43l-2.718 3.546-.792.684v.09l.36-.126a4.53 4.53 0 0 1 1.17-.144c1.176 0 2.172.426 2.988 1.278.828.84 1.242 1.884 1.242 3.132 0 1.272-.456 2.34-1.368 3.204-.912.864-2.076 1.296-3.492 1.296s-2.58-.432-3.492-1.296c-.912-.864-1.368-1.932-1.368-3.204Zm2.898-1.872c-.492.48-.738 1.104-.738 1.872s.246 1.398.738 1.89c.492.48 1.146.72 1.962.72.816 0 1.47-.24 1.962-.72.492-.492.738-1.122.738-1.89 0-.768-.246-1.392-.738-1.872-.492-.492-1.146-.738-1.962-.738-.816 0-1.47.246-1.962.738Z" fill="#fff"/><path fill="#FDFF9F" d="M283 351h-84V235h84z"/><path d="M211.49 295.78c0-.448.098-.915.294-1.4.205-.495.401-.882.588-1.162.196-.289.462-.649.798-1.078l2.24-2.94h1.89l-2.114 2.758-.616.532v.07l.28-.098c.28-.075.583-.112.91-.112.915 0 1.689.331 2.324.994.644.653.966 1.465.966 2.436 0 .989-.355 1.82-1.064 2.492-.709.672-1.615 1.008-2.716 1.008-1.101 0-2.007-.336-2.716-1.008-.709-.672-1.064-1.503-1.064-2.492Zm2.254-1.456c-.383.373-.574.859-.574 1.456s.191 1.087.574 1.47c.383.373.891.56 1.526.56s1.143-.187 1.526-.56c.383-.383.574-.873.574-1.47s-.191-1.083-.574-1.456c-.383-.383-.891-.574-1.526-.574s-1.143.191-1.526.574Zm6.429 3.906c0-.28.089-.513.266-.7a.933.933 0 0 1 .686-.28c.308 0 .551.112.728.336.187.224.28.555.28.994 0 .719-.172 1.269-.518 1.652-.336.392-.793.588-1.372.588v-.7c.28 0 .5-.079.658-.238a.765.765 0 0 0 .252-.602v-.084c-.009-.009-.014-.028-.014-.056v-.042l-.084.028a.738.738 0 0 1-.182.014c-.186 0-.35-.084-.49-.252-.14-.168-.21-.387-.21-.658Zm2.866-5.81v-1.82l1.82-1.4h1.47v9.8h-1.61v-7.84l-1.68 1.26Zm4.832 0c0-.989.354-1.82 1.064-2.492.709-.672 1.614-1.008 2.716-1.008 1.101 0 2.006.336 2.716 1.008.709.672 1.064 1.503 1.064 2.492 0 .887-.369 1.843-1.106 2.87l-.308.42c-.131.168-.22.285-.266.35l-2.24 2.94h-1.89l2.114-2.758.616-.532v-.07a7.65 7.65 0 0 1-.28.112 3.583 3.583 0 0 1-.91.098 3.163 3.163 0 0 1-2.338-.98c-.635-.663-.952-1.479-.952-2.45Zm2.254-1.456c-.383.373-.574.859-.574 1.456s.191 1.087.574 1.47c.382.373.891.56 1.526.56.634 0 1.143-.187 1.526-.56.382-.383.574-.873.574-1.47s-.192-1.083-.574-1.456c-.383-.383-.892-.574-1.526-.574-.635 0-1.144.191-1.526.574Z" fill="#333"/><path fill="#5A5A5A" d="M295 577h-30V0h30z"/><path d="M265 180.033h-24.995v-24.324H265v24.324Z" fill="#fff" stroke="#5A5A5A" stroke-width=".5"/><path d="M242.031 179.107h19.453c.738 0 1.131-.393 1.131-1.162v-20.148c0-.785-.377-1.162-1.131-1.162h-19.453c-.753-.016-1.13.377-1.13 1.146v20.148c-.016.785.377 1.178 1.13 1.178Z" fill="#fff" stroke="#5A5A5A" stroke-width=".5"/><path d="M243.82 172.605c.016-1.79 1.429-3.25 3.172-3.25 1.758 0 3.171 1.46 3.171 3.25 0 1.806-1.413 3.251-3.171 3.251-1.759 0-3.172-1.445-3.172-3.251Zm.031-9.626c.015-1.79 1.428-3.25 3.171-3.25 1.759 0 3.172 1.46 3.172 3.25 0 1.806-1.413 3.251-3.172 3.251-1.758.016-3.187-1.445-3.171-3.251Zm9.013.001c0-1.806 1.413-3.251 3.172-3.251 1.758 0 3.171 1.46 3.171 3.251-.015 1.79-1.428 3.25-3.171 3.25-1.743 0-3.172-1.46-3.172-3.25Zm0 9.625c0-1.805 1.413-3.25 3.172-3.25 1.758 0 3.171 1.46 3.171 3.25-.015 1.791-1.428 3.251-3.171 3.251-1.743 0-3.172-1.46-3.172-3.251Z" stroke="#5A5A5A" stroke-width=".5"/><path d="M264.985 204.301h-24.089V228H265l-.015-23.699Z" fill="#fff" stroke="#5A5A5A" stroke-width=".5"/><path d="M258.378 206.104h-13.317c-.742 0-1.106.364-1.106 1.121v17.608c0 .727.364 1.106 1.091 1.121l13.332-.015c.727.015 1.091-.363 1.091-1.106v-17.608c.03-.742-.348-1.121-1.091-1.121Z" fill="#fff" stroke="#5A5A5A" stroke-width=".5"/><path d="M263.137 216.029c-.015.925-.712 1.667-1.591 1.667l-6.984-.652-.015-.015c-.531 0-.955-.439-.955-1 0-.56.424-1 .97-1.015l6.984-.652c.864 0 1.576.743 1.591 1.667Z" stroke="#5A5A5A" stroke-width=".5"/><mask id="a" fill="#fff"><path fill-rule="evenodd" clip-rule="evenodd" d="m262.454 217.408-3.803-.363a.988.988 0 0 1-.954-1.031.98.98 0 0 1 .954-1l3.803-.363"/></mask><path fill-rule="evenodd" clip-rule="evenodd" d="m262.454 217.408-3.803-.363a.988.988 0 0 1-.954-1.031.98.98 0 0 1 .954-1l3.803-.363" fill="#fff"/><path d="m258.651 217.045.015-.5h.016l.017.002-.048.498Zm-.954-1.031h.5v.013l-.5-.013Zm.954-1 .048.498-.017.002h-.016l-.015-.5Zm3.756 2.892-3.803-.364.095-.995 3.803.364-.095.995Zm-3.77-.362a1.488 1.488 0 0 1-1.44-1.543l1 .026c-.008.3.213.511.469.518l-.029.999Zm-1.44-1.53a1.48 1.48 0 0 1 1.44-1.5l.029 1a.48.48 0 0 0-.469.5h-1Zm1.407-1.498 3.803-.363.095.995-3.803.364-.095-.996Z" fill="#5A5A5A" mask="url(#a)"/><path fill="#5A5A5A" d="M192 359v-8h78v8zm0-120v-8h78v8z"/><path fill="#5A5A5A" d="M194 299h8v53h-8z"/><path d="m245.702 335.28 1.18-.016 3.066.016h7.592v-9.957h-11.838c-3.017 0-5.476 2.244-5.476 4.995 0 2.719 2.459 4.962 5.476 4.962Z" fill="#fff" stroke="#5A5A5A" stroke-width=".5"/><path d="M245.767 334.134h8.493v-7.681h-7.558l-.935.017c-2.377 0-4.312 1.703-4.312 3.832.016 2.112 1.951 3.832 4.312 3.832Zm18.135-10.612h-5.263c-.607 0-1.099.491-1.099 1.097v11.284c0 .606.492 1.097 1.099 1.097h5.263c.606 0 1.098-.491 1.098-1.097v-11.268c0-.622-.492-1.113-1.098-1.113Z" fill="#fff" stroke="#5A5A5A" stroke-width=".5"/><path d="M261.278 329.614c-.41 0-.722.295-.722.639-.016.36.312.655.722.655.409 0 .721-.295.721-.639a.682.682 0 0 0-.721-.655Zm2.182-54.21h-12.308c-.856 0-1.541.683-1.541 1.538v18.519c0 .855.685 1.539 1.541 1.539h12.308c.855 0 1.54-.684 1.54-1.539v-18.519c0-.84-.685-1.538-1.54-1.538Z" fill="#fff" stroke="#5A5A5A" stroke-width=".5"/><path d="M258.768 277.327h-1.897a4.52 4.52 0 0 0-4.521 4.516v8.718a4.52 4.52 0 0 0 4.521 4.516h1.897a4.52 4.52 0 0 0 4.521-4.516v-8.718a4.52 4.52 0 0 0-4.521-4.516Z" fill="#fff" stroke="#5A5A5A" stroke-width=".5"/><path d="M260.878 285.247c-.543 0-.984.427-.984.954 0 .527.441.955.984.955.544 0 .984-.428.984-.955 0-.527-.44-.954-.984-.954Zm2.67-18.365h-62.99a1.445 1.445 0 0 1-1.452-1.45v-25.006c0-.806.646-1.45 1.452-1.45h62.99c.807 0 1.452.644 1.452 1.45v25.006c0 .806-.66 1.45-1.452 1.45Z" fill="#fff" stroke="#5A5A5A" stroke-width=".5"/><path d="M202.978 256.32v-6.797c0-3.941 3.198-7.12 7.128-7.12h49.6a1.74 1.74 0 0 1 1.745 1.743v17.579a1.74 1.74 0 0 1-1.745 1.744h-49.585c-3.945-.015-7.143-3.209-7.143-7.149Z" fill="#fff" stroke="#5A5A5A" stroke-width=".5"/><path d="M255.571 253.42c0 .785.663 1.421 1.481 1.421.818 0 1.481-.636 1.481-1.421s-.663-1.421-1.481-1.421c-.818 0-1.481.636-1.481 1.421ZM199 329v22.01l21.588.014-.014-22.01L199 329Z" fill="#fff" stroke="#5A5A5A" stroke-width=".5"/><path d="M215.331 340.019c0 3.114-2.475 5.628-5.537 5.628s-5.536-2.514-5.536-5.642c0-3.115 2.474-5.656 5.536-5.656 3.062.014 5.537 2.555 5.537 5.67Z" stroke="#5A5A5A" stroke-width=".5"/><path d="M209.794 335.899a3.872 3.872 0 0 1 2.852 1.201 4.267 4.267 0 0 1 1.189 2.905m-4.027 4.134a4.031 4.031 0 0 0 2.852-1.201 4.189 4.189 0 0 0 1.189-2.919l-4.041 4.12Zm-.014-8.24a4.031 4.031 0 0 0-2.852 1.201 4.2 4.2 0 0 0-1.175 2.919l4.027-4.12Zm.014 8.24a3.934 3.934 0 0 1-2.852-1.201l-.014-.014a4.17 4.17 0 0 1-1.175-2.891l4.041 4.106Z" stroke="#5A5A5A" stroke-width=".5"/><path fill="#5A5A5A" d="M194 232h8v40h-8zm36 345v-30h65v30zm-90 0v-30h37v30zm0-547V0h48v30zm103 0V0h48v30z"/><path fill="#5A5A5A" d="M156 235h-16V0h16z"/><path fill="#5A5A5A" d="M17 235v-16h139v16zm0 66v-16h139v16z"/><path fill="#5A5A5A" d="M17 275h16v26H17zm0-55h16v20H17zm123 65h16v266h-16z"/><path d="m160.25 29.75 132.447-.152.052-11.348H160.25v11.5Zm0-18 132.447-.152.052-11.348H160.25v11.5Z" stroke="#5A5A5A" stroke-width=".5" stroke-miterlimit="10"/><path stroke="#5A5A5A" d="m195.432 270.252-14 24m10.813-60.816-32 18m31.51 104-32-18M20.42 238.271l-20 31"/><path d="m165.25 576.75 114.454-.152.045-11.348H165.25v11.5Zm0-18 114.454-.152.045-11.348H165.25v11.5Z" stroke="#5A5A5A" stroke-width=".5" stroke-miterlimit="10"/></svg>