<svg width="343" height="467" fill="none" xmlns="http://www.w3.org/2000/svg"><path fill="#E7FFD5" d="M329 369V81H213v288z"/><path fill="#E7FFD5" d="M262 435v-85h-57v85zm67-252V81H214v102z"/><path fill="#FDFF9F" d="M329 370v-98h-59v98zm-164.204 25.493 39.53-39.53L183.366 335l-39.531 39.53z"/><path d="M222 286V81H82v257l140-52Z" fill="#E7FFD5"/><path d="M214 301.817V201L104 334l40 34 70-66.183Z" fill="#E7FFD5"/><path d="M228 321.817V221L118 354l40 34 70-66.183Z" fill="#E7FFD5"/><path d="M205 430v-93h-20l-31 36.5 51 56.5Z" fill="#FDFF9F"/><path fill="#5A5A5A" d="M343 81V51h-60v30z"/><path fill="#5A5A5A" d="M341 76h-12v301h12zm-79 159h2v-11h-2zm0 17h2v-11h-2zm0 17h2v-11h-2zm0-51h2v-11h-2zm0-17h2v-11h-2zm0-17h2v-11h-2zm0-17h2v-11h-2zm11-11v2h11v-2zm17 0v2h11v-2zm17 0v2h11v-2z"/><path fill="#5A5A5A" d="M324 156v2h6v-2zM113.856 326.203l-11.314 11.314L215.686 450.66l11.313-11.314z"/><path fill="#5A5A5A" d="M216 435v16h61v-16z"/><path fill="#5A5A5A" d="M278 417h-16v34h16zm0-48h-16v14h16zM52 326v16h62v-16zm141.191 9.657L187.535 330 145 372.535l5.656 5.657 42.535-42.535ZM213 392h-8v38h8v-38Zm0-62h-8v36h8v-36Z"/><path d="M213 338v-8h-25v8h25Zm57-71h-8v73h8v-73Z" fill="#5A5A5A"/><path d="M335 272v-8h-73v8h73Zm-73 97v8h73v-8h-73ZM229 81V51h-70v30z" fill="#5A5A5A"/><path d="m193.75 80.75-103.458-.152-.041-11.348H193.75v11.5Zm0-18-103.458-.152-.041-11.348H193.75v11.5Zm145-5.5-.152 84.466-11.348.033V57.25h11.5Zm-43-57-81.468.063-.03 4.437h81.498V.25Z" stroke="#5A5A5A" stroke-width=".5" stroke-miterlimit="10"/><path fill="#5A5A5A" d="M302 0h5v74h-5zm-99 0h5v74h-5z"/><path fill="#5A5A5A" d="M296 0v5h-89V0z"/><path fill="#5A5A5A" d="M307 0v5h-12V0z"/><path d="m313.75 65.75-60.476-.063-.023-4.437h60.499v4.5Zm0-10-60.476-.063-.023-4.437h60.499v4.5Z" stroke="#5A5A5A" stroke-width=".5" stroke-miterlimit="10"/><path stroke="#5A5A5A" d="m227.745 67.43 27 16"/><path d="m.25 127.25.063 81.468 4.437.03V127.25H.25Z" stroke="#5A5A5A" stroke-width=".5" stroke-miterlimit="10"/><path fill="#5A5A5A" d="M0 121v-5h74v5zm0 97v-5h74v5z"/><path fill="#5A5A5A" d="M0 206h5v8H0z"/><path fill="#5A5A5A" d="M0 116h5v93H0z"/><path d="m66.75 106.25-.063 60.476-4.437.023V106.25h4.5Zm-10 0-.063 60.476-4.437.023V106.25h4.5Z" stroke="#5A5A5A" stroke-width=".5" stroke-miterlimit="10"/><path stroke="#5A5A5A" d="m67.43 195.255 16-27"/><path fill="#5A5A5A" d="M107 81V51H52v30z"/><path fill="#5A5A5A" d="M82 75H52v63h30zm0 117H52v148h30z"/><path d="M328.995 201H304v24.325h24.995V201Z" fill="#fff" stroke="#5A5A5A" stroke-width=".5"/><path d="M306.026 201.926h19.453c.738 0 1.131.393 1.131 1.162v20.148c0 .785-.377 1.162-1.131 1.162h-19.453c-.753.016-1.13-.377-1.13-1.146v-20.148c-.016-.785.377-1.178 1.13-1.178Z" fill="#fff" stroke="#5A5A5A" stroke-width=".5"/><path d="M307.815 208.428c.016 1.79 1.429 3.25 3.172 3.25 1.758 0 3.171-1.46 3.171-3.25 0-1.806-1.413-3.251-3.171-3.251-1.759 0-3.172 1.445-3.172 3.251Zm.031 9.626c.016 1.79 1.429 3.25 3.171 3.25 1.759 0 3.172-1.46 3.172-3.25 0-1.806-1.413-3.251-3.172-3.251-1.758-.016-3.187 1.445-3.171 3.251Zm9.013 0c0 1.806 1.413 3.25 3.172 3.25 1.758 0 3.171-1.46 3.171-3.25-.015-1.791-1.428-3.251-3.171-3.251-1.743 0-3.172 1.46-3.172 3.251Zm0-9.626c0 1.806 1.413 3.25 3.172 3.25 1.758 0 3.171-1.46 3.171-3.25-.015-1.79-1.428-3.251-3.171-3.251-1.743 0-3.172 1.461-3.172 3.251Z" stroke="#5A5A5A" stroke-width=".5"/><path d="M306.698 264.088V240h-23.699v24.104l23.699-.016Z" fill="#fff" stroke="#5A5A5A" stroke-width=".5"/><path d="M304.896 257.482v-13.317c0-.742-.364-1.106-1.122-1.106h-17.607c-.728 0-1.107.364-1.122 1.091l.015 13.332c-.015.727.364 1.091 1.107 1.091h17.607c.743.03 1.122-.348 1.122-1.091Z" fill="#fff" stroke="#5A5A5A" stroke-width=".5"/><path d="M294.97 262.24c-.924-.015-1.667-.712-1.667-1.591l.652-6.984.015-.015c0-.53.439-.955 1-.955.561 0 1 .425 1.015.97l.652 6.984c0 .864-.743 1.576-1.667 1.591Z" stroke="#5A5A5A" stroke-width=".5"/><mask id="a" fill="#fff"><path fill-rule="evenodd" clip-rule="evenodd" d="m293.591 261.557.363-3.802a.99.99 0 0 1 1.031-.955.98.98 0 0 1 1 .955l.364 3.802"/></mask><path fill-rule="evenodd" clip-rule="evenodd" d="m293.591 261.557.363-3.802a.99.99 0 0 1 1.031-.955.98.98 0 0 1 1 .955l.364 3.802" fill="#fff"/><path d="m293.954 257.755.5.014v.017l-.002.016-.498-.047Zm1.031-.955v.501l-.013-.001.013-.5Zm1 .955-.498.047-.001-.016-.001-.017.5-.014Zm-2.892 3.755.364-3.803.995.095-.363 3.803-.996-.095Zm.362-3.769a1.487 1.487 0 0 1 1.543-1.44l-.026.999a.49.49 0 0 0-.518.469l-.999-.028Zm1.53-1.441c.829 0 1.477.638 1.5 1.441l-1 .028a.48.48 0 0 0-.5-.469v-1Zm1.498 1.407.363 3.803-.995.095-.364-3.803.996-.095Z" fill="#5A5A5A" mask="url(#a)"/><path stroke="#5A5A5A" d="m277.451 343.217-13 27m-55.88 26.526 18-30m69.009 44.528-20-31m14.173 69.164 30 17"/><path d="m309.476 358.759 1.181-.017 3.066.017h7.591v-9.958h-11.838c-3.017 0-5.476 2.244-5.476 4.995 0 2.719 2.459 4.963 5.476 4.963Z" fill="#fff" stroke="#5A5A5A" stroke-width=".5"/><path d="M309.542 357.612h8.493v-7.68h-7.559l-.934.016c-2.378 0-4.313 1.703-4.313 3.832.017 2.113 1.952 3.832 4.313 3.832ZM327.676 347h-5.263c-.607 0-1.099.491-1.099 1.097v11.284c0 .606.492 1.097 1.099 1.097h5.263c.607 0 1.099-.491 1.099-1.097v-11.267c0-.623-.492-1.114-1.099-1.114Z" fill="#fff" stroke="#5A5A5A" stroke-width=".5"/><path d="M325.052 353.092c-.41 0-.721.295-.721.639-.017.36.311.655.721.655s.721-.295.721-.639a.684.684 0 0 0-.721-.655Zm-9.512-12.496h12.308c.856 0 1.541-.683 1.541-1.538v-18.519c0-.855-.685-1.539-1.541-1.539H315.54c-.855 0-1.54.684-1.54 1.539v18.519c0 .84.685 1.538 1.54 1.538Z" fill="#fff" stroke="#5A5A5A" stroke-width=".5"/><path d="M320.232 338.673h1.897a4.52 4.52 0 0 0 4.521-4.516v-8.718a4.52 4.52 0 0 0-4.521-4.516h-1.897a4.52 4.52 0 0 0-4.521 4.516v8.718a4.52 4.52 0 0 0 4.521 4.516Z" fill="#fff" stroke="#5A5A5A" stroke-width=".5"/><path d="M318.122 330.753c.543 0 .984-.427.984-.954 0-.527-.441-.955-.984-.955-.544 0-.984.428-.984.955 0 .527.44.954.984.954ZM327.73 296H271.3c-.722 0-1.3-.577-1.3-1.299v-22.402c0-.722.578-1.299 1.3-1.299h56.43c.722 0 1.3.577 1.3 1.299v22.402c0 .722-.591 1.299-1.3 1.299Z" fill="#fff" stroke="#5A5A5A" stroke-width=".5"/><path d="M273.468 286.538v-6.09a6.38 6.38 0 0 1 6.385-6.377h44.434c.867 0 1.564.695 1.564 1.561v15.748c0 .866-.697 1.562-1.564 1.562h-44.421c-3.534-.013-6.398-2.874-6.398-6.404Z" fill="#fff" stroke="#5A5A5A" stroke-width=".5"/><path d="M320.583 283.94c0 .703.595 1.273 1.327 1.273.733 0 1.327-.57 1.327-1.273s-.594-1.273-1.327-1.273c-.732 0-1.327.57-1.327 1.273Zm-140.612 81.124-.83.839-2.199 2.137-5.415 5.32 6.978 7.103 8.444-8.295c2.152-2.114 2.335-5.439.406-7.401-1.905-1.94-5.232-1.817-7.384.297Z" fill="#fff" stroke="#5A5A5A" stroke-width=".5"/><path d="m180.728 365.928-.667.655-5.392 5.297 5.383 5.479 5.392-5.297.655-.666c1.696-1.666 1.882-4.237.39-5.756-1.492-1.496-4.077-1.366-5.761.288Zm-5.499 20.279 3.754-3.689c.433-.425.439-1.12.015-1.552l-7.908-8.05a1.098 1.098 0 0 0-1.552-.013l-3.755 3.689a1.098 1.098 0 0 0-.015 1.552l7.896 8.038c.437.444 1.132.45 1.565.025Z" fill="#fff" stroke="#5A5A5A" stroke-width=".5"/><path d="M172.831 380.022c.292-.287.308-.716.067-.961-.241-.269-.681-.249-.974.038-.292.287-.308.716-.067.961.276.258.705.25.974-.038Zm32.662-32.087v-8.83a1.1 1.1 0 0 0-1.104-1.105h-13.285a1.1 1.1 0 0 0-1.104 1.105v8.83a1.1 1.1 0 0 0 1.104 1.105h13.285c.603 0 1.104-.492 1.104-1.105Z" fill="#fff" stroke="#5A5A5A" stroke-width=".5"/><path d="M204.113 344.569v-1.361a3.242 3.242 0 0 0-3.239-3.243h-6.255a3.242 3.242 0 0 0-3.239 3.243v1.361a3.242 3.242 0 0 0 3.239 3.243h6.255a3.242 3.242 0 0 0 3.239-3.243Z" fill="#fff" stroke="#5A5A5A" stroke-width=".5"/><path d="M198.431 346.083a.696.696 0 0 0-.685-.706.695.695 0 0 0-.684.706c0 .39.306.706.684.706a.696.696 0 0 0 .685-.706Z" fill="#fff" stroke="#5A5A5A" stroke-width=".5"/><circle cx="180.5" cy="149.5" r="39.5" fill="#5A5A5A"/><path d="M156.72 153.49h2.16c.096.372.258.69.486.954.528.624 1.296.936 2.304.936.804 0 1.44-.216 1.908-.648.468-.432.702-.996.702-1.692 0-.732-.234-1.32-.702-1.764-.468-.444-1.104-.666-1.908-.666-.744 0-1.374.198-1.89.594a2.481 2.481 0 0 0-.54.576h-1.98l.54-7.38h7.65v1.98h-5.94l-.27 3.24h.09c.192-.192.414-.354.666-.486.564-.336 1.242-.504 2.034-.504 1.26 0 2.31.42 3.15 1.26.84.84 1.26 1.89 1.26 3.15 0 1.236-.444 2.268-1.332 3.096-.876.816-2.022 1.224-3.438 1.224-1.848 0-3.222-.642-4.122-1.926a5.672 5.672 0 0 1-.828-1.944Zm11.074-4.95c0-1.272.456-2.34 1.368-3.204.912-.864 2.076-1.296 3.492-1.296s2.58.432 3.492 1.296c.912.864 1.368 1.932 1.368 3.204 0 1.14-.474 2.37-1.422 3.69l-.396.54c-.168.216-.282.366-.342.45l-2.88 3.78h-2.43l2.718-3.546.792-.684v-.09c-.024.012-.144.06-.36.144-.312.084-.702.126-1.17.126-1.176 0-2.178-.42-3.006-1.26-.816-.852-1.224-1.902-1.224-3.15Zm2.898-1.872c-.492.48-.738 1.104-.738 1.872s.246 1.398.738 1.89c.492.48 1.146.72 1.962.72.816 0 1.47-.24 1.962-.72.492-.492.738-1.122.738-1.89 0-.768-.246-1.392-.738-1.872-.492-.492-1.146-.738-1.962-.738-.816 0-1.47.246-1.962.738Zm8.176 9.342c0-.36.114-.66.342-.9a1.2 1.2 0 0 1 .882-.36c.396 0 .708.144.936.432.24.288.36.714.36 1.278 0 .924-.222 1.632-.666 2.124-.432.504-1.02.756-1.764.756v-.9c.36 0 .642-.102.846-.306.216-.192.324-.45.324-.774v-.108c-.012-.012-.018-.036-.018-.072v-.054l-.108.036a.932.932 0 0 1-.234.018c-.24 0-.45-.108-.63-.324-.18-.216-.27-.498-.27-.846Zm3.956-2.52h2.16c.096.372.258.69.486.954.528.624 1.296.936 2.304.936.804 0 1.44-.216 1.908-.648.468-.432.702-.996.702-1.692 0-.732-.234-1.32-.702-1.764-.468-.444-1.104-.666-1.908-.666-.744 0-1.374.198-1.89.594a2.481 2.481 0 0 0-.54.576h-1.98l.54-7.38h7.65v1.98h-5.94l-.27 3.24h.09c.192-.192.414-.354.666-.486.564-.336 1.242-.504 2.034-.504 1.26 0 2.31.42 3.15 1.26.84.84 1.26 1.89 1.26 3.15 0 1.236-.444 2.268-1.332 3.096-.876.816-2.022 1.224-3.438 1.224-1.848 0-3.222-.642-4.122-1.926a5.672 5.672 0 0 1-.828-1.944Zm9.989-7.11v-1.98h8.55v1.98l-5.04 10.62h-2.25l4.95-10.44v-.18h-6.21Z" fill="#fff"/><path d="M279.21 328.04v-1.54l3.29-6.3h1.75l-3.29 6.3h3.22v-2.38h1.61v2.38h1.4v1.54h-1.4V330h-1.61v-1.96h-4.97Zm8.539 1.19c0-.28.089-.513.266-.7a.933.933 0 0 1 .686-.28c.308 0 .551.112.728.336.187.224.28.555.28.994 0 .719-.172 1.269-.518 1.652-.336.392-.793.588-1.372.588v-.7c.28 0 .5-.079.658-.238a.765.765 0 0 0 .252-.602v-.084c-.009-.009-.014-.028-.014-.056v-.042l-.084.028a.738.738 0 0 1-.182.014c-.186 0-.35-.084-.49-.252-.14-.168-.21-.387-.21-.658Zm3.077-5.81c0-.989.354-1.82 1.064-2.492.709-.672 1.614-1.008 2.716-1.008 1.101 0 2.006.336 2.716 1.008.709.672 1.064 1.503 1.064 2.492 0 .887-.369 1.843-1.106 2.87l-.308.42c-.131.168-.22.285-.266.35l-2.24 2.94h-1.89l2.114-2.758.616-.532v-.07a7.65 7.65 0 0 1-.28.112 3.583 3.583 0 0 1-.91.098 3.163 3.163 0 0 1-2.338-.98c-.635-.663-.952-1.479-.952-2.45Zm2.254-1.456c-.383.373-.574.859-.574 1.456s.191 1.087.574 1.47c.382.373.891.56 1.526.56.634 0 1.143-.187 1.526-.56.382-.383.574-.873.574-1.47s-.192-1.083-.574-1.456c-.383-.383-.892-.574-1.526-.574-.635 0-1.144.191-1.526.574Zm6.289 4.816c0-.448.098-.915.294-1.4.205-.495.401-.882.588-1.162.196-.289.462-.649.798-1.078l2.24-2.94h1.89l-2.114 2.758-.616.532v.07l.28-.098c.28-.075.583-.112.91-.112.915 0 1.689.331 2.324.994.644.653.966 1.465.966 2.436 0 .989-.355 1.82-1.064 2.492-.709.672-1.615 1.008-2.716 1.008-1.101 0-2.007-.336-2.716-1.008-.709-.672-1.064-1.503-1.064-2.492Zm2.254-1.456c-.383.373-.574.859-.574 1.456s.191 1.087.574 1.47c.383.373.891.56 1.526.56s1.143-.187 1.526-.56c.383-.383.574-.873.574-1.47s-.191-1.083-.574-1.456c-.383-.383-.891-.574-1.526-.574s-1.143.191-1.526.574ZM150.21 277.04v-1.54l3.29-6.3h1.75l-3.29 6.3h3.22v-2.38h1.61v2.38h1.4v1.54h-1.4V279h-1.61v-1.96h-4.97Zm8.399 1.96v-1.54l3.346-2.366c.728-.523 1.251-1.008 1.568-1.456.318-.448.476-.924.476-1.428 0-.532-.163-.957-.49-1.274-.326-.317-.77-.476-1.33-.476-.69 0-1.208.28-1.554.84a2.851 2.851 0 0 0-.336.84h-1.68a4.332 4.332 0 0 1 .546-1.61c.663-1.073 1.671-1.61 3.024-1.61 1.036 0 1.876.308 2.52.924.654.607.98 1.372.98 2.296 0 .803-.205 1.526-.616 2.17-.41.635-1.068 1.265-1.974 1.89l-1.4.98-.63.28v.07l.84-.07h3.78V279h-7.07Zm8.193-.77c0-.28.089-.513.266-.7a.933.933 0 0 1 .686-.28c.308 0 .551.112.728.336.187.224.28.555.28.994 0 .719-.172 1.269-.518 1.652-.336.392-.793.588-1.372.588v-.7c.28 0 .5-.079.658-.238a.765.765 0 0 0 .252-.602v-.084c-.009-.009-.014-.028-.014-.056v-.042l-.084.028a.738.738 0 0 1-.182.014c-.186 0-.35-.084-.49-.252-.14-.168-.21-.387-.21-.658Zm2.936.77v-1.54l3.346-2.366c.728-.523 1.251-1.008 1.568-1.456.318-.448.476-.924.476-1.428 0-.532-.163-.957-.49-1.274-.326-.317-.77-.476-1.33-.476-.69 0-1.208.28-1.554.84a2.851 2.851 0 0 0-.336.84h-1.68a4.332 4.332 0 0 1 .546-1.61c.663-1.073 1.671-1.61 3.024-1.61 1.036 0 1.876.308 2.52.924.654.607.98 1.372.98 2.296 0 .803-.205 1.526-.616 2.17-.41.635-1.068 1.265-1.974 1.89l-1.4.98-.63.28v.07l.84-.07h3.78V279h-7.07Zm7.983-6.58v-1.82l1.82-1.4h1.47v9.8h-1.61v-7.84l-1.68 1.26ZM237.42 32.2h1.68a1.8 1.8 0 0 0 .378.77c.42.513 1.017.77 1.792.77.644 0 1.153-.159 1.526-.476.383-.327.574-.728.574-1.204 0-.541-.173-.966-.518-1.274-.336-.317-.817-.476-1.442-.476h-2.38v-1.4l2.94-2.1v-.07h-4.06V25.2h6.44v1.526l-2.52 1.834-.7.28v.07l.224-.028c.308-.028.49-.042.546-.042.877 0 1.61.303 2.198.91.588.607.882 1.377.882 2.31 0 .896-.345 1.657-1.036 2.282-.691.625-1.582.938-2.674.938-1.447 0-2.515-.513-3.206-1.54a4.404 4.404 0 0 1-.644-1.54Zm8.617 2.03c0-.28.088-.513.266-.7a.931.931 0 0 1 .686-.28c.308 0 .55.112.728.336.186.224.28.555.28.994 0 .719-.173 1.27-.518 1.652-.336.392-.794.588-1.372.588v-.7c.28 0 .499-.08.658-.238a.765.765 0 0 0 .252-.602v-.084c-.01-.01-.014-.028-.014-.056v-.042l-.084.028a.728.728 0 0 1-.182.014c-.187 0-.35-.084-.49-.252-.14-.168-.21-.387-.21-.658Zm3.006-2.45c0-.448.098-.915.294-1.4.205-.495.401-.882.588-1.162.196-.29.462-.649.798-1.078l2.24-2.94h1.89l-2.114 2.758-.616.532v.07l.28-.098a3.52 3.52 0 0 1 .91-.112c.914 0 1.689.331 2.324.994.644.653.966 1.465.966 2.436 0 .99-.355 1.82-1.064 2.492-.71.672-1.615 1.008-2.716 1.008-1.102 0-2.007-.336-2.716-1.008-.71-.672-1.064-1.503-1.064-2.492Zm2.254-1.456c-.383.373-.574.859-.574 1.456s.191 1.087.574 1.47c.382.373.891.56 1.526.56.634 0 1.143-.187 1.526-.56.382-.383.574-.873.574-1.47s-.192-1.083-.574-1.456c-.383-.383-.892-.574-1.526-.574-.635 0-1.144.191-1.526.574Zm6.359 1.456c0-.448.098-.915.294-1.4.205-.495.401-.882.588-1.162.196-.29.462-.649.798-1.078l2.24-2.94h1.89l-2.114 2.758-.616.532v.07l.28-.098a3.52 3.52 0 0 1 .91-.112c.915 0 1.689.331 2.324.994.644.653.966 1.465.966 2.436 0 .99-.355 1.82-1.064 2.492-.709.672-1.615 1.008-2.716 1.008-1.101 0-2.007-.336-2.716-1.008-.709-.672-1.064-1.503-1.064-2.492Zm2.254-1.456c-.383.373-.574.859-.574 1.456s.191 1.087.574 1.47c.383.373.891.56 1.526.56s1.143-.187 1.526-.56c.383-.383.574-.873.574-1.47s-.191-1.083-.574-1.456c-.383-.383-.891-.574-1.526-.574s-1.143.191-1.526.574ZM15.42 164.2h1.68c.065.289.191.546.378.77.42.513 1.017.77 1.792.77.644 0 1.153-.159 1.526-.476.383-.327.574-.728.574-1.204 0-.541-.173-.966-.518-1.274-.336-.317-.817-.476-1.442-.476h-2.38v-1.4l2.94-2.1v-.07h-4.06v-1.54h6.44v1.526l-2.52 1.834-.7.28v.07l.224-.028c.308-.028.49-.042.546-.042.877 0 1.61.303 2.198.91.588.607.882 1.377.882 2.31 0 .896-.345 1.657-1.036 2.282-.69.625-1.582.938-2.674.938-1.447 0-2.515-.513-3.206-1.54a4.406 4.406 0 0 1-.644-1.54Zm8.617 2.03c0-.28.088-.513.266-.7a.931.931 0 0 1 .686-.28c.308 0 .55.112.728.336.186.224.28.555.28.994 0 .719-.173 1.269-.518 1.652-.336.392-.794.588-1.372.588v-.7c.28 0 .499-.079.658-.238a.765.765 0 0 0 .252-.602v-.084c-.01-.009-.014-.028-.014-.056v-.042l-.084.028a.742.742 0 0 1-.182.014c-.187 0-.35-.084-.49-.252-.14-.168-.21-.387-.21-.658Zm3.006-2.45c0-.448.098-.915.294-1.4.205-.495.401-.882.588-1.162.196-.289.462-.649.798-1.078l2.24-2.94h1.89l-2.114 2.758-.616.532v.07l.28-.098c.28-.075.583-.112.91-.112.914 0 1.69.331 2.324.994.644.653.966 1.465.966 2.436 0 .989-.355 1.82-1.064 2.492-.71.672-1.615 1.008-2.716 1.008-1.102 0-2.007-.336-2.716-1.008-.71-.672-1.064-1.503-1.064-2.492Zm2.254-1.456c-.383.373-.574.859-.574 1.456s.191 1.087.574 1.47c.382.373.891.56 1.526.56.634 0 1.143-.187 1.526-.56.382-.383.574-.873.574-1.47s-.192-1.083-.574-1.456c-.383-.383-.892-.574-1.526-.574-.635 0-1.144.191-1.526.574Zm6.359 1.456c0-.448.098-.915.294-1.4.205-.495.401-.882.588-1.162.196-.289.462-.649.798-1.078l2.24-2.94h1.89l-2.114 2.758-.616.532v.07l.28-.098c.28-.075.583-.112.91-.112.915 0 1.69.331 2.324.994.644.653.966 1.465.966 2.436 0 .989-.355 1.82-1.064 2.492-.71.672-1.615 1.008-2.716 1.008-1.101 0-2.007-.336-2.716-1.008-.71-.672-1.064-1.503-1.064-2.492Zm2.254-1.456c-.383.373-.574.859-.574 1.456s.191 1.087.574 1.47c.383.373.891.56 1.526.56s1.143-.187 1.526-.56c.383-.383.574-.873.574-1.47s-.191-1.083-.574-1.456c-.383-.383-.891-.574-1.526-.574s-1.143.191-1.526.574Zm193.3 240.716v-1.54l3.29-6.3h1.75l-3.29 6.3h3.22v-2.38h1.61v2.38h1.4v1.54h-1.4V405h-1.61v-1.96h-4.97Zm8.539 1.19c0-.28.089-.513.266-.7a.933.933 0 0 1 .686-.28c.308 0 .551.112.728.336.187.224.28.555.28.994 0 .719-.172 1.269-.518 1.652-.336.392-.793.588-1.372.588v-.7c.28 0 .5-.079.658-.238a.765.765 0 0 0 .252-.602v-.084c-.009-.009-.014-.028-.014-.056v-.042l-.084.028a.738.738 0 0 1-.182.014c-.186 0-.35-.084-.49-.252-.14-.168-.21-.387-.21-.658Zm2.937-2.03h1.68c.065.289.191.546.378.77.42.513 1.017.77 1.792.77.644 0 1.152-.159 1.526-.476.382-.327.574-.728.574-1.204 0-.541-.173-.966-.518-1.274-.336-.317-.817-.476-1.442-.476h-2.38v-1.4l2.94-2.1v-.07h-4.06v-1.54h6.44v1.526l-2.52 1.834-.7.28v.07l.224-.028c.308-.028.49-.042.546-.042.877 0 1.61.303 2.198.91.588.607.882 1.377.882 2.31 0 .896-.346 1.657-1.036 2.282-.691.625-1.582.938-2.674.938-1.447 0-2.516-.513-3.206-1.54a4.388 4.388 0 0 1-.644-1.54Zm8.616.14c0-.849.327-1.526.98-2.03a3.16 3.16 0 0 1 .98-.448v-.084a2.568 2.568 0 0 1-.77-.462c-.513-.439-.77-1.017-.77-1.736 0-.737.313-1.363.938-1.876.635-.523 1.489-.784 2.562-.784 1.074 0 1.923.261 2.548.784.635.513.952 1.139.952 1.876 0 .7-.256 1.279-.77 1.736-.242.196-.499.35-.77.462v.084c.355.093.682.247.98.462.654.504.98 1.176.98 2.016 0 .812-.354 1.507-1.064 2.086-.7.569-1.652.854-2.856.854s-2.16-.285-2.87-.854c-.7-.579-1.05-1.274-1.05-2.086Zm2.1-4.62c0 .411.159.747.476 1.008.318.261.766.392 1.344.392.579 0 1.027-.131 1.344-.392.318-.261.476-.597.476-1.008 0-.373-.163-.686-.49-.938-.317-.261-.76-.392-1.33-.392-.569 0-1.017.131-1.344.392-.317.252-.476.565-.476.938Zm.168 3.346c-.392.308-.588.686-.588 1.134 0 .448.196.831.588 1.148.402.308.952.462 1.652.462s1.246-.154 1.638-.462c.402-.317.602-.7.602-1.148 0-.448-.2-.826-.602-1.134-.392-.317-.938-.476-1.638-.476s-1.25.159-1.652.476Z" fill="#333"/></svg>