<svg width="351" height="519" viewBox="0 0 351 519" fill="none" xmlns="http://www.w3.org/2000/svg">
<rect x="84" y="168" width="223" height="335" fill="#E7FFD5"/>
<path d="M306.995 478.675L282 478.675L282 503L306.995 503L306.995 478.675Z" fill="white" stroke="#5A5A5A" stroke-width="0.5"/>
<path d="M284.026 479.602L303.479 479.602C304.217 479.602 304.61 479.994 304.61 480.764L304.61 500.911C304.61 501.696 304.233 502.073 303.479 502.073L284.026 502.073C283.273 502.089 282.896 501.696 282.896 500.927L282.896 480.779C282.88 479.994 283.273 479.602 284.026 479.602Z" fill="white" stroke="#5A5A5A" stroke-width="0.5"/>
<path d="M285.815 486.103C285.831 487.893 287.244 489.354 288.987 489.354C290.745 489.354 292.158 487.893 292.158 486.103C292.158 484.297 290.745 482.852 288.987 482.852C287.228 482.852 285.815 484.297 285.815 486.103Z" stroke="#5A5A5A" stroke-width="0.5"/>
<path d="M285.846 495.729C285.862 497.519 287.275 498.98 289.017 498.98C290.776 498.98 292.189 497.519 292.189 495.729C292.189 493.923 290.776 492.478 289.017 492.478C287.259 492.463 285.83 493.923 285.846 495.729Z" stroke="#5A5A5A" stroke-width="0.5"/>
<path d="M294.859 495.729C294.859 497.535 296.272 498.979 298.031 498.979C299.789 498.979 301.202 497.519 301.202 495.729C301.187 493.939 299.774 492.478 298.031 492.478C296.288 492.478 294.859 493.939 294.859 495.729Z" stroke="#5A5A5A" stroke-width="0.5"/>
<path d="M294.859 486.103C294.859 487.909 296.272 489.354 298.031 489.354C299.789 489.354 301.202 487.893 301.202 486.103C301.187 484.313 299.774 482.852 298.031 482.852C296.288 482.852 294.859 484.313 294.859 486.103Z" stroke="#5A5A5A" stroke-width="0.5"/>
<path d="M283.015 446L307.104 446L307.104 422.301L283 422.301L283.015 446Z" fill="white" stroke="#5A5A5A" stroke-width="0.5"/>
<path d="M289.622 444.197L302.939 444.197C303.681 444.197 304.045 443.833 304.045 443.076L304.045 425.468C304.045 424.741 303.681 424.362 302.954 424.347L289.622 424.362C288.895 424.347 288.531 424.725 288.531 425.468L288.531 443.076C288.501 443.818 288.879 444.197 289.622 444.197Z" fill="white" stroke="#5A5A5A" stroke-width="0.5"/>
<path d="M284.863 434.272C284.878 433.347 285.575 432.605 286.454 432.605L293.438 433.257L293.453 433.272C293.984 433.272 294.408 433.711 294.408 434.272C294.408 434.832 293.984 435.272 293.438 435.287L286.454 435.939C285.59 435.939 284.878 435.196 284.863 434.272Z" stroke="#5A5A5A" stroke-width="0.5"/>
<mask id="path-11-inside-1_55_13734" fill="white">
<path fill-rule="evenodd" clip-rule="evenodd" d="M285.546 432.893L289.349 433.256C289.879 433.272 290.318 433.711 290.303 434.287C290.303 434.847 289.879 435.272 289.349 435.287L285.546 435.651"/>
</mask>
<path fill-rule="evenodd" clip-rule="evenodd" d="M285.546 432.893L289.349 433.256C289.879 433.272 290.318 433.711 290.303 434.287C290.303 434.847 289.879 435.272 289.349 435.287L285.546 435.651" fill="white"/>
<path d="M289.349 433.256L289.334 433.756L289.318 433.756L289.301 433.754L289.349 433.256ZM290.303 434.287L289.803 434.287L289.803 434.274L290.303 434.287ZM289.349 435.287L289.301 434.789L289.318 434.788L289.334 434.787L289.349 435.287ZM285.593 432.395L289.396 432.759L289.301 433.754L285.498 433.39L285.593 432.395ZM289.363 432.757C290.168 432.78 290.825 433.448 290.803 434.3L289.803 434.274C289.811 433.974 289.59 433.763 289.334 433.756L289.363 432.757ZM290.803 434.287C290.803 435.116 290.165 435.764 289.363 435.787L289.334 434.787C289.592 434.78 289.803 434.579 289.803 434.287L290.803 434.287ZM289.396 435.785L285.593 436.148L285.498 435.153L289.301 434.789L289.396 435.785Z" fill="#5A5A5A" mask="url(#path-11-inside-1_55_13734)"/>
<path d="M335 317V165L265 167.413V317H335Z" fill="#FDFF9F"/>
<path d="M315.476 251.735L316.657 251.718L319.723 251.735L327.314 251.735L327.314 241.778L315.476 241.778C312.459 241.778 310 244.021 310 246.773C310 249.491 312.459 251.735 315.476 251.735Z" fill="white" stroke="#5A5A5A" stroke-width="0.5"/>
<path d="M315.542 250.589L316.476 250.589L324.035 250.589L324.035 242.908L316.476 242.908L315.542 242.924C313.164 242.924 311.229 244.627 311.229 246.756C311.246 248.869 313.181 250.589 315.542 250.589Z" fill="white" stroke="#5A5A5A" stroke-width="0.5"/>
<path d="M333.676 239.976L328.413 239.976C327.806 239.976 327.314 240.468 327.314 241.073L327.314 252.357C327.314 252.963 327.806 253.455 328.413 253.455L333.676 253.455C334.283 253.455 334.775 252.963 334.775 252.357L334.775 241.09C334.775 240.468 334.283 239.976 333.676 239.976Z" fill="white" stroke="#5A5A5A" stroke-width="0.5"/>
<path d="M331.052 246.068C330.642 246.068 330.331 246.363 330.331 246.707C330.314 247.067 330.642 247.362 331.052 247.362C331.462 247.362 331.773 247.067 331.773 246.723C331.757 246.347 331.445 246.052 331.052 246.068Z" fill="white" stroke="#5A5A5A" stroke-width="0.5"/>
<path d="M333.305 209.31L320.997 209.31C320.142 209.31 319.457 209.993 319.457 210.848L319.457 229.367C319.457 230.222 320.142 230.906 320.997 230.906L333.305 230.906C334.161 230.906 334.846 230.222 334.846 229.367L334.846 210.848C334.846 210.008 334.161 209.31 333.305 209.31Z" fill="white" stroke="#5A5A5A" stroke-width="0.5"/>
<path d="M328.614 211.233L326.717 211.233C324.221 211.233 322.196 213.256 322.196 215.749L322.196 224.467C322.196 226.96 324.221 228.983 326.717 228.983L328.614 228.983C331.11 228.983 333.135 226.96 333.135 224.467L333.135 215.749C333.135 213.256 331.11 211.233 328.614 211.233Z" fill="white" stroke="#5A5A5A" stroke-width="0.5"/>
<path d="M330.724 219.153C330.181 219.153 329.74 219.58 329.74 220.107C329.74 220.634 330.181 221.062 330.724 221.062C331.267 221.062 331.708 220.634 331.708 220.107C331.708 219.58 331.267 219.153 330.724 219.153Z" fill="white" stroke="#5A5A5A" stroke-width="0.5"/>
<path d="M333.507 194.611L273.386 194.611C272.616 194.611 272 193.996 272 193.227L272 169.36C272 168.591 272.616 167.976 273.386 167.976L333.507 167.976C334.277 167.976 334.893 168.591 334.893 169.36L334.893 193.227C334.893 193.996 334.263 194.611 333.507 194.611Z" fill="white" stroke="#5A5A5A" stroke-width="0.5"/>
<path d="M275.696 184.53L275.696 178.042C275.696 174.281 278.747 171.247 282.498 171.247L329.839 171.247C330.763 171.247 331.505 171.988 331.505 172.911L331.505 189.689C331.505 190.612 330.763 191.353 329.839 191.353L282.512 191.353C278.747 191.339 275.696 188.291 275.696 184.53Z" fill="white" stroke="#5A5A5A" stroke-width="0.5"/>
<path d="M325.892 181.762C325.892 182.511 326.525 183.118 327.306 183.118C328.087 183.118 328.72 182.511 328.72 181.762C328.72 181.013 328.087 180.406 327.306 180.406C326.525 180.406 325.892 181.013 325.892 181.762Z" fill="white" stroke="#5A5A5A" stroke-width="0.5"/>
<path d="M265 244.976L265 266.986L286.588 267L286.574 244.99L265 244.976Z" fill="white" stroke="#5A5A5A" stroke-width="0.5"/>
<path d="M281.331 255.995C281.331 259.109 278.856 261.623 275.794 261.623C272.732 261.623 270.258 259.109 270.258 255.981C270.258 252.867 272.732 250.325 275.794 250.325C278.856 250.339 281.331 252.881 281.331 255.995Z" stroke="#5A5A5A" stroke-width="0.5"/>
<path d="M275.794 251.875C276.913 251.861 277.919 252.322 278.646 253.076C279.373 253.83 279.821 254.864 279.835 255.981M275.808 260.115C276.913 260.115 277.919 259.654 278.66 258.914C279.387 258.16 279.849 257.14 279.849 255.995L275.808 260.115ZM275.794 251.875C274.689 251.875 273.683 252.336 272.942 253.076C272.215 253.83 271.767 254.864 271.767 255.995L275.794 251.875ZM275.808 260.115C274.675 260.115 273.669 259.654 272.956 258.914L272.942 258.9C272.229 258.16 271.767 257.14 271.767 256.009L275.808 260.115Z" stroke="#5A5A5A" stroke-width="0.5"/>
<path d="M316.298 292.241L317.479 292.258L320.545 292.241L328.136 292.241L328.136 302.199L316.298 302.199C313.282 302.199 310.822 299.955 310.822 297.204C310.822 294.485 313.282 292.241 316.298 292.241Z" fill="white" stroke="#5A5A5A" stroke-width="0.5"/>
<path d="M316.364 293.388L317.298 293.388L324.857 293.388L324.857 301.068L317.298 301.068L316.364 301.052C313.986 301.052 312.052 299.349 312.052 297.22C312.068 295.107 314.003 293.388 316.364 293.388Z" fill="white" stroke="#5A5A5A" stroke-width="0.5"/>
<path d="M334.498 304L329.235 304C328.629 304 328.137 303.509 328.137 302.903L328.137 291.619C328.137 291.013 328.629 290.522 329.235 290.522L334.498 290.522C335.105 290.522 335.597 291.013 335.597 291.619L335.597 302.886C335.597 303.509 335.105 304 334.498 304Z" fill="white" stroke="#5A5A5A" stroke-width="0.5"/>
<path d="M331.874 297.908C331.464 297.908 331.153 297.613 331.153 297.269C331.137 296.909 331.464 296.614 331.874 296.614C332.284 296.614 332.596 296.909 332.596 297.253C332.579 297.629 332.268 297.924 331.874 297.908Z" fill="white" stroke="#5A5A5A" stroke-width="0.5"/>
<path d="M306.596 275.152L306.596 287.46C306.596 288.315 305.913 289 305.058 289L286.539 289C285.684 289 285 288.315 285 287.46L285 275.152C285 274.296 285.684 273.611 286.539 273.611L305.058 273.611C305.898 273.611 306.596 274.296 306.596 275.152Z" fill="white" stroke="#5A5A5A" stroke-width="0.5"/>
<path d="M304.673 279.844L304.673 281.74C304.673 284.236 302.65 286.262 300.157 286.262L291.439 286.262C288.946 286.262 286.923 284.236 286.923 281.74L286.923 279.844C286.923 277.348 288.946 275.323 291.439 275.323L300.157 275.323C302.65 275.323 304.673 277.348 304.673 279.844Z" fill="white" stroke="#5A5A5A" stroke-width="0.5"/>
<path d="M296.753 277.733C296.753 278.276 296.325 278.717 295.798 278.717C295.271 278.717 294.844 278.276 294.844 277.733C294.844 277.189 295.271 276.749 295.798 276.749C296.325 276.749 296.753 277.189 296.753 277.733Z" fill="white" stroke="#5A5A5A" stroke-width="0.5"/>
<rect x="84" y="30" width="111" height="473" fill="#E7FFD5"/>
<path d="M113.35 96.42V94.6L115.17 93.2H116.64V103H115.03V95.16L113.35 96.42ZM118.111 99.78C118.111 99.332 118.209 98.8653 118.405 98.38C118.61 97.8853 118.806 97.498 118.993 97.218C119.189 96.9287 119.455 96.5693 119.791 96.14L122.031 93.2H123.921L121.807 95.958L121.191 96.49V96.56L121.471 96.462C121.751 96.3873 122.054 96.35 122.381 96.35C123.296 96.35 124.07 96.6813 124.705 97.344C125.349 97.9973 125.671 98.8093 125.671 99.78C125.671 100.769 125.316 101.6 124.607 102.272C123.898 102.944 122.992 103.28 121.891 103.28C120.79 103.28 119.884 102.944 119.175 102.272C118.466 101.6 118.111 100.769 118.111 99.78ZM120.365 98.324C119.982 98.6973 119.791 99.1827 119.791 99.78C119.791 100.377 119.982 100.867 120.365 101.25C120.748 101.623 121.256 101.81 121.891 101.81C122.526 101.81 123.034 101.623 123.417 101.25C123.8 100.867 123.991 100.377 123.991 99.78C123.991 99.1827 123.8 98.6973 123.417 98.324C123.034 97.9413 122.526 97.75 121.891 97.75C121.256 97.75 120.748 97.9413 120.365 98.324ZM126.794 102.23C126.794 101.95 126.883 101.717 127.06 101.53C127.247 101.343 127.476 101.25 127.746 101.25C128.054 101.25 128.297 101.362 128.474 101.586C128.661 101.81 128.754 102.141 128.754 102.58C128.754 103.299 128.582 103.849 128.236 104.232C127.9 104.624 127.443 104.82 126.864 104.82V104.12C127.144 104.12 127.364 104.041 127.522 103.882C127.69 103.733 127.774 103.532 127.774 103.28V103.196C127.765 103.187 127.76 103.168 127.76 103.14V103.098L127.676 103.126C127.648 103.135 127.588 103.14 127.494 103.14C127.308 103.14 127.144 103.056 127.004 102.888C126.864 102.72 126.794 102.501 126.794 102.23ZM129.801 99.78C129.801 99.332 129.899 98.8653 130.095 98.38C130.3 97.8853 130.496 97.498 130.683 97.218C130.879 96.9287 131.145 96.5693 131.481 96.14L133.721 93.2H135.611L133.497 95.958L132.881 96.49V96.56L133.161 96.462C133.441 96.3873 133.744 96.35 134.071 96.35C134.985 96.35 135.76 96.6813 136.395 97.344C137.039 97.9973 137.361 98.8093 137.361 99.78C137.361 100.769 137.006 101.6 136.297 102.272C135.587 102.944 134.682 103.28 133.581 103.28C132.479 103.28 131.574 102.944 130.865 102.272C130.155 101.6 129.801 100.769 129.801 99.78ZM132.055 98.324C131.672 98.6973 131.481 99.1827 131.481 99.78C131.481 100.377 131.672 100.867 132.055 101.25C132.437 101.623 132.946 101.81 133.581 101.81C134.215 101.81 134.724 101.623 135.107 101.25C135.489 100.867 135.681 100.377 135.681 99.78C135.681 99.1827 135.489 98.6973 135.107 98.324C134.724 97.9413 134.215 97.75 133.581 97.75C132.946 97.75 132.437 97.9413 132.055 98.324ZM137.367 94.74V93.2H144.017V94.74L140.097 103H138.347L142.197 94.88V94.74H137.367Z" fill="#333333"/>
<path d="M121.42 280.2H123.1C123.165 280.489 123.291 280.746 123.478 280.97C123.898 281.483 124.495 281.74 125.27 281.74C125.914 281.74 126.423 281.581 126.796 281.264C127.179 280.937 127.37 280.536 127.37 280.06C127.37 279.519 127.197 279.094 126.852 278.786C126.516 278.469 126.035 278.31 125.41 278.31H123.03V276.91L125.97 274.81V274.74H121.91V273.2H128.35V274.726L125.83 276.56L125.13 276.84V276.91L125.354 276.882C125.662 276.854 125.844 276.84 125.9 276.84C126.777 276.84 127.51 277.143 128.098 277.75C128.686 278.357 128.98 279.127 128.98 280.06C128.98 280.956 128.635 281.717 127.944 282.342C127.253 282.967 126.362 283.28 125.27 283.28C123.823 283.28 122.755 282.767 122.064 281.74C121.765 281.301 121.551 280.788 121.42 280.2ZM131.437 281.824C130.55 280.853 130.107 279.612 130.107 278.1C130.107 276.588 130.55 275.347 131.437 274.376C132.323 273.405 133.397 272.92 134.657 272.92C135.917 272.92 136.99 273.405 137.877 274.376C138.763 275.347 139.207 276.588 139.207 278.1C139.207 279.612 138.763 280.853 137.877 281.824C136.99 282.795 135.917 283.28 134.657 283.28C133.397 283.28 132.323 282.795 131.437 281.824ZM132.585 275.412C132.053 276.047 131.787 276.943 131.787 278.1C131.787 279.257 132.053 280.153 132.585 280.788C133.126 281.423 133.817 281.74 134.657 281.74C135.497 281.74 136.183 281.423 136.715 280.788C137.256 280.153 137.527 279.257 137.527 278.1C137.527 276.943 137.256 276.047 136.715 275.412C136.183 274.777 135.497 274.46 134.657 274.46C133.817 274.46 133.126 274.777 132.585 275.412ZM140.4 282.23C140.4 281.95 140.489 281.717 140.666 281.53C140.853 281.343 141.081 281.25 141.352 281.25C141.66 281.25 141.903 281.362 142.08 281.586C142.267 281.81 142.36 282.141 142.36 282.58C142.36 283.299 142.187 283.849 141.842 284.232C141.506 284.624 141.049 284.82 140.47 284.82V284.12C140.75 284.12 140.969 284.041 141.128 283.882C141.296 283.733 141.38 283.532 141.38 283.28V283.196C141.371 283.187 141.366 283.168 141.366 283.14V283.098L141.282 283.126C141.254 283.135 141.193 283.14 141.1 283.14C140.913 283.14 140.75 283.056 140.61 282.888C140.47 282.72 140.4 282.501 140.4 282.23ZM143.266 276.42V274.6L145.086 273.2H146.556V283H144.946V275.16L143.266 276.42ZM148.097 276.42C148.097 275.431 148.452 274.6 149.161 273.928C149.87 273.256 150.776 272.92 151.877 272.92C152.978 272.92 153.884 273.256 154.593 273.928C155.302 274.6 155.657 275.431 155.657 276.42C155.657 277.307 155.288 278.263 154.551 279.29C154.476 279.393 154.374 279.533 154.243 279.71C154.112 279.878 154.024 279.995 153.977 280.06L151.737 283H149.847L151.961 280.242L152.577 279.71V279.64C152.558 279.649 152.465 279.687 152.297 279.752C152.054 279.817 151.751 279.85 151.387 279.85C150.472 279.85 149.693 279.523 149.049 278.87C148.414 278.207 148.097 277.391 148.097 276.42ZM150.351 274.964C149.968 275.337 149.777 275.823 149.777 276.42C149.777 277.017 149.968 277.507 150.351 277.89C150.734 278.263 151.242 278.45 151.877 278.45C152.512 278.45 153.02 278.263 153.403 277.89C153.786 277.507 153.977 277.017 153.977 276.42C153.977 275.823 153.786 275.337 153.403 274.964C153.02 274.581 152.512 274.39 151.877 274.39C151.242 274.39 150.734 274.581 150.351 274.964Z" fill="#333333"/>
<path d="M18.42 264.2H20.1C20.1653 264.489 20.2913 264.746 20.478 264.97C20.898 265.483 21.4953 265.74 22.27 265.74C22.914 265.74 23.4227 265.581 23.796 265.264C24.1787 264.937 24.37 264.536 24.37 264.06C24.37 263.519 24.1973 263.094 23.852 262.786C23.516 262.469 23.0353 262.31 22.41 262.31H20.03V260.91L22.97 258.81V258.74H18.91V257.2H25.35V258.726L22.83 260.56L22.13 260.84V260.91L22.354 260.882C22.662 260.854 22.844 260.84 22.9 260.84C23.7773 260.84 24.51 261.143 25.098 261.75C25.686 262.357 25.98 263.127 25.98 264.06C25.98 264.956 25.6347 265.717 24.944 266.342C24.2533 266.967 23.362 267.28 22.27 267.28C20.8233 267.28 19.7547 266.767 19.064 265.74C18.7653 265.301 18.5507 264.788 18.42 264.2ZM27.0366 266.23C27.0366 265.95 27.1252 265.717 27.3026 265.53C27.4892 265.343 27.7179 265.25 27.9886 265.25C28.2966 265.25 28.5392 265.362 28.7166 265.586C28.9032 265.81 28.9966 266.141 28.9966 266.58C28.9966 267.299 28.8239 267.849 28.4786 268.232C28.1426 268.624 27.6852 268.82 27.1066 268.82V268.12C27.3866 268.12 27.6059 268.041 27.7646 267.882C27.9326 267.733 28.0166 267.532 28.0166 267.28V267.196C28.0072 267.187 28.0026 267.168 28.0026 267.14V267.098L27.9186 267.126C27.8906 267.135 27.8299 267.14 27.7366 267.14C27.5499 267.14 27.3866 267.056 27.2466 266.888C27.1066 266.72 27.0366 266.501 27.0366 266.23ZM30.0427 263.78C30.0427 263.332 30.1407 262.865 30.3367 262.38C30.5421 261.885 30.7381 261.498 30.9247 261.218C31.1207 260.929 31.3867 260.569 31.7227 260.14L33.9627 257.2H35.8527L33.7387 259.958L33.1227 260.49V260.56L33.4027 260.462C33.6827 260.387 33.9861 260.35 34.3127 260.35C35.2274 260.35 36.0021 260.681 36.6367 261.344C37.2807 261.997 37.6027 262.809 37.6027 263.78C37.6027 264.769 37.2481 265.6 36.5387 266.272C35.8294 266.944 34.9241 267.28 33.8227 267.28C32.7214 267.28 31.8161 266.944 31.1067 266.272C30.3974 265.6 30.0427 264.769 30.0427 263.78ZM32.2967 262.324C31.9141 262.697 31.7227 263.183 31.7227 263.78C31.7227 264.377 31.9141 264.867 32.2967 265.25C32.6794 265.623 33.1881 265.81 33.8227 265.81C34.4574 265.81 34.9661 265.623 35.3487 265.25C35.7314 264.867 35.9227 264.377 35.9227 263.78C35.9227 263.183 35.7314 262.697 35.3487 262.324C34.9661 261.941 34.4574 261.75 33.8227 261.75C33.1881 261.75 32.6794 261.941 32.2967 262.324ZM38.656 263.78C38.656 263.332 38.754 262.865 38.95 262.38C39.1553 261.885 39.3513 261.498 39.538 261.218C39.734 260.929 40 260.569 40.336 260.14L42.576 257.2H44.466L42.352 259.958L41.736 260.49V260.56L42.016 260.462C42.296 260.387 42.5993 260.35 42.926 260.35C43.8407 260.35 44.6153 260.681 45.25 261.344C45.894 261.997 46.216 262.809 46.216 263.78C46.216 264.769 45.8613 265.6 45.152 266.272C44.4427 266.944 43.5373 267.28 42.436 267.28C41.3347 267.28 40.4293 266.944 39.72 266.272C39.0107 265.6 38.656 264.769 38.656 263.78ZM40.91 262.324C40.5273 262.697 40.336 263.183 40.336 263.78C40.336 264.377 40.5273 264.867 40.91 265.25C41.2927 265.623 41.8013 265.81 42.436 265.81C43.0707 265.81 43.5793 265.623 43.962 265.25C44.3447 264.867 44.536 264.377 44.536 263.78C44.536 263.183 44.3447 262.697 43.962 262.324C43.5793 261.941 43.0707 261.75 42.436 261.75C41.8013 261.75 41.2927 261.941 40.91 262.324Z" fill="#333333"/>
<path d="M217.35 257.42V255.6L219.17 254.2H220.64V264H219.03V256.16L217.35 257.42ZM221.971 257.42V255.6L223.791 254.2H225.261V264H223.651V256.16L221.971 257.42ZM226.802 263.23C226.802 262.95 226.891 262.717 227.068 262.53C227.255 262.343 227.484 262.25 227.754 262.25C228.062 262.25 228.305 262.362 228.482 262.586C228.669 262.81 228.762 263.141 228.762 263.58C228.762 264.299 228.59 264.849 228.244 265.232C227.908 265.624 227.451 265.82 226.872 265.82V265.12C227.152 265.12 227.372 265.041 227.53 264.882C227.698 264.733 227.782 264.532 227.782 264.28V264.196C227.773 264.187 227.768 264.168 227.768 264.14V264.098L227.684 264.126C227.656 264.135 227.596 264.14 227.502 264.14C227.316 264.14 227.152 264.056 227.012 263.888C226.872 263.72 226.802 263.501 226.802 263.23ZM229.878 261.34C229.878 260.491 230.205 259.814 230.858 259.31C231.138 259.114 231.465 258.965 231.838 258.862V258.778C231.549 258.666 231.292 258.512 231.068 258.316C230.555 257.877 230.298 257.299 230.298 256.58C230.298 255.843 230.611 255.217 231.236 254.704C231.871 254.181 232.725 253.92 233.798 253.92C234.872 253.92 235.721 254.181 236.346 254.704C236.981 255.217 237.298 255.843 237.298 256.58C237.298 257.28 237.042 257.859 236.528 258.316C236.286 258.512 236.029 258.666 235.758 258.778V258.862C236.113 258.955 236.44 259.109 236.738 259.324C237.392 259.828 237.718 260.5 237.718 261.34C237.718 262.152 237.364 262.847 236.654 263.426C235.954 263.995 235.002 264.28 233.798 264.28C232.594 264.28 231.638 263.995 230.928 263.426C230.228 262.847 229.878 262.152 229.878 261.34ZM231.978 256.72C231.978 257.131 232.137 257.467 232.454 257.728C232.772 257.989 233.22 258.12 233.798 258.12C234.377 258.12 234.825 257.989 235.142 257.728C235.46 257.467 235.618 257.131 235.618 256.72C235.618 256.347 235.455 256.034 235.128 255.782C234.811 255.521 234.368 255.39 233.798 255.39C233.229 255.39 232.781 255.521 232.454 255.782C232.137 256.034 231.978 256.347 231.978 256.72ZM232.146 260.066C231.754 260.374 231.558 260.752 231.558 261.2C231.558 261.648 231.754 262.031 232.146 262.348C232.548 262.656 233.098 262.81 233.798 262.81C234.498 262.81 235.044 262.656 235.436 262.348C235.838 262.031 236.038 261.648 236.038 261.2C236.038 260.752 235.838 260.374 235.436 260.066C235.044 259.749 234.498 259.59 233.798 259.59C233.098 259.59 232.548 259.749 232.146 260.066ZM238.833 261.34C238.833 260.491 239.16 259.814 239.813 259.31C240.093 259.114 240.42 258.965 240.793 258.862V258.778C240.504 258.666 240.247 258.512 240.023 258.316C239.51 257.877 239.253 257.299 239.253 256.58C239.253 255.843 239.566 255.217 240.191 254.704C240.826 254.181 241.68 253.92 242.753 253.92C243.827 253.92 244.676 254.181 245.301 254.704C245.936 255.217 246.253 255.843 246.253 256.58C246.253 257.28 245.997 257.859 245.483 258.316C245.241 258.512 244.984 258.666 244.713 258.778V258.862C245.068 258.955 245.395 259.109 245.693 259.324C246.347 259.828 246.673 260.5 246.673 261.34C246.673 262.152 246.319 262.847 245.609 263.426C244.909 263.995 243.957 264.28 242.753 264.28C241.549 264.28 240.593 263.995 239.883 263.426C239.183 262.847 238.833 262.152 238.833 261.34ZM240.933 256.72C240.933 257.131 241.092 257.467 241.409 257.728C241.727 257.989 242.175 258.12 242.753 258.12C243.332 258.12 243.78 257.989 244.097 257.728C244.415 257.467 244.573 257.131 244.573 256.72C244.573 256.347 244.41 256.034 244.083 255.782C243.766 255.521 243.323 255.39 242.753 255.39C242.184 255.39 241.736 255.521 241.409 255.782C241.092 256.034 240.933 256.347 240.933 256.72ZM241.101 260.066C240.709 260.374 240.513 260.752 240.513 261.2C240.513 261.648 240.709 262.031 241.101 262.348C241.503 262.656 242.053 262.81 242.753 262.81C243.453 262.81 243.999 262.656 244.391 262.348C244.793 262.031 244.993 261.648 244.993 261.2C244.993 260.752 244.793 260.374 244.391 260.066C243.999 259.749 243.453 259.59 242.753 259.59C242.053 259.59 241.503 259.749 241.101 260.066Z" fill="#333333"/>
<path d="M276.56 227.27H278.24C278.315 227.559 278.441 227.807 278.618 228.012C279.029 228.497 279.626 228.74 280.41 228.74C281.035 228.74 281.53 228.572 281.894 228.236C282.258 227.9 282.44 227.461 282.44 226.92C282.44 226.351 282.258 225.893 281.894 225.548C281.53 225.203 281.035 225.03 280.41 225.03C279.831 225.03 279.341 225.184 278.94 225.492C278.781 225.613 278.641 225.763 278.52 225.94H276.98L277.4 220.2H283.35V221.74H278.73L278.52 224.26H278.59C278.739 224.111 278.912 223.985 279.108 223.882C279.547 223.621 280.074 223.49 280.69 223.49C281.67 223.49 282.487 223.817 283.14 224.47C283.793 225.123 284.12 225.94 284.12 226.92C284.12 227.881 283.775 228.684 283.084 229.328C282.403 229.963 281.511 230.28 280.41 230.28C278.973 230.28 277.904 229.781 277.204 228.782C276.905 228.343 276.691 227.839 276.56 227.27ZM285.173 229.23C285.173 228.95 285.262 228.717 285.439 228.53C285.626 228.343 285.855 228.25 286.125 228.25C286.433 228.25 286.676 228.362 286.853 228.586C287.04 228.81 287.133 229.141 287.133 229.58C287.133 230.299 286.961 230.849 286.615 231.232C286.279 231.624 285.822 231.82 285.243 231.82V231.12C285.523 231.12 285.743 231.041 285.901 230.882C286.069 230.733 286.153 230.532 286.153 230.28V230.196C286.144 230.187 286.139 230.168 286.139 230.14V230.098L286.055 230.126C286.027 230.135 285.967 230.14 285.873 230.14C285.687 230.14 285.523 230.056 285.383 229.888C285.243 229.72 285.173 229.501 285.173 229.23ZM288.249 227.34C288.249 226.491 288.576 225.814 289.229 225.31C289.509 225.114 289.836 224.965 290.209 224.862V224.778C289.92 224.666 289.663 224.512 289.439 224.316C288.926 223.877 288.669 223.299 288.669 222.58C288.669 221.843 288.982 221.217 289.607 220.704C290.242 220.181 291.096 219.92 292.169 219.92C293.243 219.92 294.092 220.181 294.717 220.704C295.352 221.217 295.669 221.843 295.669 222.58C295.669 223.28 295.413 223.859 294.899 224.316C294.657 224.512 294.4 224.666 294.129 224.778V224.862C294.484 224.955 294.811 225.109 295.109 225.324C295.763 225.828 296.089 226.5 296.089 227.34C296.089 228.152 295.735 228.847 295.025 229.426C294.325 229.995 293.373 230.28 292.169 230.28C290.965 230.28 290.009 229.995 289.299 229.426C288.599 228.847 288.249 228.152 288.249 227.34ZM290.349 222.72C290.349 223.131 290.508 223.467 290.825 223.728C291.143 223.989 291.591 224.12 292.169 224.12C292.748 224.12 293.196 223.989 293.513 223.728C293.831 223.467 293.989 223.131 293.989 222.72C293.989 222.347 293.826 222.034 293.499 221.782C293.182 221.521 292.739 221.39 292.169 221.39C291.6 221.39 291.152 221.521 290.825 221.782C290.508 222.034 290.349 222.347 290.349 222.72ZM290.517 226.066C290.125 226.374 289.929 226.752 289.929 227.2C289.929 227.648 290.125 228.031 290.517 228.348C290.919 228.656 291.469 228.81 292.169 228.81C292.869 228.81 293.415 228.656 293.807 228.348C294.209 228.031 294.409 227.648 294.409 227.2C294.409 226.752 294.209 226.374 293.807 226.066C293.415 225.749 292.869 225.59 292.169 225.59C291.469 225.59 290.919 225.749 290.517 226.066ZM297.205 223.42C297.205 222.431 297.559 221.6 298.269 220.928C298.978 220.256 299.883 219.92 300.985 219.92C302.086 219.92 302.991 220.256 303.701 220.928C304.41 221.6 304.765 222.431 304.765 223.42C304.765 224.307 304.396 225.263 303.659 226.29C303.584 226.393 303.481 226.533 303.351 226.71C303.22 226.878 303.131 226.995 303.085 227.06L300.845 230H298.955L301.069 227.242L301.685 226.71V226.64C301.666 226.649 301.573 226.687 301.405 226.752C301.162 226.817 300.859 226.85 300.495 226.85C299.58 226.85 298.801 226.523 298.157 225.87C297.522 225.207 297.205 224.391 297.205 223.42ZM299.459 221.964C299.076 222.337 298.885 222.823 298.885 223.42C298.885 224.017 299.076 224.507 299.459 224.89C299.841 225.263 300.35 225.45 300.985 225.45C301.619 225.45 302.128 225.263 302.511 224.89C302.893 224.507 303.085 224.017 303.085 223.42C303.085 222.823 302.893 222.337 302.511 221.964C302.128 221.581 301.619 221.39 300.985 221.39C300.35 221.39 299.841 221.581 299.459 221.964Z" fill="#333333"/>
<path d="M273.42 307V305.46L276.766 303.094C277.494 302.571 278.017 302.086 278.334 301.638C278.651 301.19 278.81 300.714 278.81 300.21C278.81 299.678 278.647 299.253 278.32 298.936C277.993 298.619 277.55 298.46 276.99 298.46C276.299 298.46 275.781 298.74 275.436 299.3C275.287 299.543 275.175 299.823 275.1 300.14H273.42C273.504 299.543 273.686 299.006 273.966 298.53C274.629 297.457 275.637 296.92 276.99 296.92C278.026 296.92 278.866 297.228 279.51 297.844C280.163 298.451 280.49 299.216 280.49 300.14C280.49 300.943 280.285 301.666 279.874 302.31C279.463 302.945 278.805 303.575 277.9 304.2L276.5 305.18L275.87 305.46V305.53L276.71 305.46H280.49V307H273.42ZM281.613 306.23C281.613 305.95 281.701 305.717 281.879 305.53C282.065 305.343 282.294 305.25 282.565 305.25C282.873 305.25 283.115 305.362 283.293 305.586C283.479 305.81 283.573 306.141 283.573 306.58C283.573 307.299 283.4 307.849 283.055 308.232C282.719 308.624 282.261 308.82 281.683 308.82V308.12C281.963 308.12 282.182 308.041 282.341 307.882C282.509 307.733 282.593 307.532 282.593 307.28V307.196C282.583 307.187 282.579 307.168 282.579 307.14V307.098L282.495 307.126C282.467 307.135 282.406 307.14 282.313 307.14C282.126 307.14 281.963 307.056 281.823 306.888C281.683 306.72 281.613 306.501 281.613 306.23ZM284.689 304.27H286.369C286.444 304.559 286.57 304.807 286.747 305.012C287.158 305.497 287.755 305.74 288.539 305.74C289.164 305.74 289.659 305.572 290.023 305.236C290.387 304.9 290.569 304.461 290.569 303.92C290.569 303.351 290.387 302.893 290.023 302.548C289.659 302.203 289.164 302.03 288.539 302.03C287.96 302.03 287.47 302.184 287.069 302.492C286.91 302.613 286.77 302.763 286.649 302.94H285.109L285.529 297.2H291.479V298.74H286.859L286.649 301.26H286.719C286.868 301.111 287.041 300.985 287.237 300.882C287.676 300.621 288.203 300.49 288.819 300.49C289.799 300.49 290.616 300.817 291.269 301.47C291.922 302.123 292.249 302.94 292.249 303.92C292.249 304.881 291.904 305.684 291.213 306.328C290.532 306.963 289.64 307.28 288.539 307.28C287.102 307.28 286.033 306.781 285.333 305.782C285.034 305.343 284.82 304.839 284.689 304.27ZM293.302 300.42C293.302 299.431 293.657 298.6 294.366 297.928C295.076 297.256 295.981 296.92 297.082 296.92C298.184 296.92 299.089 297.256 299.798 297.928C300.508 298.6 300.862 299.431 300.862 300.42C300.862 301.307 300.494 302.263 299.756 303.29C299.682 303.393 299.579 303.533 299.448 303.71C299.318 303.878 299.229 303.995 299.182 304.06L296.942 307H295.052L297.166 304.242L297.782 303.71V303.64C297.764 303.649 297.67 303.687 297.502 303.752C297.26 303.817 296.956 303.85 296.592 303.85C295.678 303.85 294.898 303.523 294.254 302.87C293.62 302.207 293.302 301.391 293.302 300.42ZM295.556 298.964C295.174 299.337 294.982 299.823 294.982 300.42C294.982 301.017 295.174 301.507 295.556 301.89C295.939 302.263 296.448 302.45 297.082 302.45C297.717 302.45 298.226 302.263 298.608 301.89C298.991 301.507 299.182 301.017 299.182 300.42C299.182 299.823 298.991 299.337 298.608 298.964C298.226 298.581 297.717 298.39 297.082 298.39C296.448 298.39 295.939 298.581 295.556 298.964Z" fill="#333333"/>
<path d="M254.21 464.04V462.5L257.5 456.2H259.25L255.96 462.5H259.18V460.12H259.25H260.79V462.5H262.19V464.04H260.79V466H259.18V464.04H254.21ZM262.749 465.23C262.749 464.95 262.838 464.717 263.015 464.53C263.202 464.343 263.431 464.25 263.701 464.25C264.009 464.25 264.252 464.362 264.429 464.586C264.616 464.81 264.709 465.141 264.709 465.58C264.709 466.299 264.537 466.849 264.191 467.232C263.855 467.624 263.398 467.82 262.819 467.82V467.12C263.099 467.12 263.319 467.041 263.477 466.882C263.645 466.733 263.729 466.532 263.729 466.28V466.196C263.72 466.187 263.715 466.168 263.715 466.14V466.098L263.631 466.126C263.603 466.135 263.543 466.14 263.449 466.14C263.263 466.14 263.099 466.056 262.959 465.888C262.819 465.72 262.749 465.501 262.749 465.23ZM265.826 463.27H267.506C267.58 463.559 267.706 463.807 267.884 464.012C268.294 464.497 268.892 464.74 269.676 464.74C270.301 464.74 270.796 464.572 271.16 464.236C271.524 463.9 271.706 463.461 271.706 462.92C271.706 462.351 271.524 461.893 271.16 461.548C270.796 461.203 270.301 461.03 269.676 461.03C269.097 461.03 268.607 461.184 268.206 461.492C268.047 461.613 267.907 461.763 267.786 461.94H266.246L266.666 456.2H272.616V457.74H267.996L267.786 460.26H267.856C268.005 460.111 268.178 459.985 268.374 459.882C268.812 459.621 269.34 459.49 269.956 459.49C270.936 459.49 271.752 459.817 272.406 460.47C273.059 461.123 273.386 461.94 273.386 462.92C273.386 463.881 273.04 464.684 272.35 465.328C271.668 465.963 270.777 466.28 269.676 466.28C268.238 466.28 267.17 465.781 266.47 464.782C266.171 464.343 265.956 463.839 265.826 463.27ZM274.439 463.27H276.119C276.194 463.559 276.32 463.807 276.497 464.012C276.908 464.497 277.505 464.74 278.289 464.74C278.914 464.74 279.409 464.572 279.773 464.236C280.137 463.9 280.319 463.461 280.319 462.92C280.319 462.351 280.137 461.893 279.773 461.548C279.409 461.203 278.914 461.03 278.289 461.03C277.71 461.03 277.22 461.184 276.819 461.492C276.66 461.613 276.52 461.763 276.399 461.94H274.859L275.279 456.2H281.229V457.74H276.609L276.399 460.26H276.469C276.618 460.111 276.791 459.985 276.987 459.882C277.426 459.621 277.953 459.49 278.569 459.49C279.549 459.49 280.366 459.817 281.019 460.47C281.672 461.123 281.999 461.94 281.999 462.92C281.999 463.881 281.654 464.684 280.963 465.328C280.282 465.963 279.39 466.28 278.289 466.28C276.852 466.28 275.783 465.781 275.083 464.782C274.784 464.343 274.57 463.839 274.439 463.27Z" fill="#333333"/>
<circle cx="144.5" cy="390.5" r="39.5" fill="#5A5A5A"/>
<path d="M125.18 387.38V385.4H133.73V387.38L128.69 398H126.44L131.39 387.56V387.38H125.18ZM134.538 389.54V387.2L136.878 385.4H138.768V398H136.698V387.92L134.538 389.54ZM140.749 397.01C140.749 396.65 140.863 396.35 141.091 396.11C141.331 395.87 141.625 395.75 141.973 395.75C142.369 395.75 142.681 395.894 142.909 396.182C143.149 396.47 143.269 396.896 143.269 397.46C143.269 398.384 143.047 399.092 142.603 399.584C142.171 400.088 141.583 400.34 140.839 400.34V399.44C141.199 399.44 141.481 399.338 141.685 399.134C141.901 398.942 142.009 398.684 142.009 398.36V398.252C141.997 398.24 141.991 398.216 141.991 398.18V398.126L141.883 398.162C141.847 398.174 141.769 398.18 141.649 398.18C141.409 398.18 141.199 398.072 141.019 397.856C140.839 397.64 140.749 397.358 140.749 397.01ZM144.164 387.38V385.4H152.714V387.38L147.674 398H145.424L150.374 387.56V387.38H144.164ZM153.792 394.49H155.952C156.048 394.862 156.21 395.18 156.438 395.444C156.966 396.068 157.734 396.38 158.742 396.38C159.546 396.38 160.182 396.164 160.65 395.732C161.118 395.3 161.352 394.736 161.352 394.04C161.352 393.308 161.118 392.72 160.65 392.276C160.182 391.832 159.546 391.61 158.742 391.61C157.998 391.61 157.368 391.808 156.852 392.204C156.648 392.36 156.468 392.552 156.312 392.78H154.332L154.872 385.4H162.522V387.38H156.582L156.312 390.62H156.402C156.594 390.428 156.816 390.266 157.068 390.134C157.632 389.798 158.31 389.63 159.102 389.63C160.362 389.63 161.412 390.05 162.252 390.89C163.092 391.73 163.512 392.78 163.512 394.04C163.512 395.276 163.068 396.308 162.18 397.136C161.304 397.952 160.158 398.36 158.742 398.36C156.894 398.36 155.52 397.718 154.62 396.434C154.236 395.87 153.96 395.222 153.792 394.49Z" fill="white"/>
<rect width="2" height="11" transform="matrix(-1 -8.74228e-08 -8.74228e-08 1 246 424)" fill="#5A5A5A"/>
<rect width="2" height="11" transform="matrix(-1 -8.74228e-08 -8.74228e-08 1 246 441)" fill="#5A5A5A"/>
<rect width="2" height="11" transform="matrix(-1 -8.74228e-08 -8.74228e-08 1 246 458)" fill="#5A5A5A"/>
<rect width="2" height="11" transform="matrix(-1 -8.74228e-08 -8.74228e-08 1 246 475)" fill="#5A5A5A"/>
<rect width="2" height="11" transform="matrix(-1 -8.74228e-08 -8.74228e-08 1 246 492)" fill="#5A5A5A"/>
<rect x="54" y="460" width="30" height="59" fill="#5A5A5A"/>
<rect x="54" y="294" width="30" height="113" fill="#5A5A5A"/>
<path d="M83.7498 509.75L83.5982 355.312L72.25 355.251L72.25 509.75L83.7498 509.75Z" stroke="#5A5A5A" stroke-width="0.5" stroke-miterlimit="10"/>
<path d="M83.7498 199.75L83.5982 45.3123L72.25 45.2513L72.25 199.75L83.7498 199.75Z" stroke="#5A5A5A" stroke-width="0.5" stroke-miterlimit="10"/>
<path d="M183.75 0.25043L97.285 0.401614L97.2508 11.75L183.75 11.75L183.75 0.25043Z" stroke="#5A5A5A" stroke-width="0.5" stroke-miterlimit="10"/>
<path d="M65.7498 509.75L65.5982 355.312L54.25 355.251L54.25 509.75L65.7498 509.75Z" stroke="#5A5A5A" stroke-width="0.5" stroke-miterlimit="10"/>
<path d="M65.7498 199.75L65.5982 45.3123L54.25 45.2513L54.25 199.75L65.7498 199.75Z" stroke="#5A5A5A" stroke-width="0.5" stroke-miterlimit="10"/>
<path d="M183.75 18.2504L97.285 18.4016L97.2508 29.75L183.75 29.75L183.75 18.2504Z" stroke="#5A5A5A" stroke-width="0.5" stroke-miterlimit="10"/>
<rect x="54" y="162" width="30" height="79" fill="#5A5A5A"/>
<rect x="54" width="30" height="110" fill="#5A5A5A"/>
<rect x="74" y="30" width="30" height="37" transform="rotate(-90 74 30)" fill="#5A5A5A"/>
<rect x="168" y="30" width="30" height="41" transform="rotate(-90 168 30)" fill="#5A5A5A"/>
<rect x="209" y="168" width="16" height="166" transform="rotate(-180 209 168)" fill="#5A5A5A"/>
<rect x="351" y="152" width="16" height="153" transform="rotate(90 351 152)" fill="#5A5A5A"/>
<rect x="335" y="152" width="16" height="180" fill="#5A5A5A"/>
<rect x="76" y="229" width="16" height="137" transform="rotate(-90 76 229)" fill="#5A5A5A"/>
<rect x="213" y="317" width="16" height="101" transform="rotate(180 213 317)" fill="#5A5A5A"/>
<rect x="213" y="177" width="16" height="21" transform="rotate(180 213 177)" fill="#5A5A5A"/>
<path d="M244 423L244 415L313 415L313 423L244 423Z" fill="#5A5A5A"/>
<path d="M206 400L206 392L250 392L250 400L206 400Z" fill="#5A5A5A"/>
<path d="M252 423L244 423L244 392L252 392L252 423Z" fill="#5A5A5A"/>
<path d="M214 400L206 400L206 384L214 384L214 400Z" fill="#5A5A5A"/>
<path d="M213 332L205 332L205 316L213 316L213 332Z" fill="#5A5A5A"/>
<path d="M310 316L310 324L257 324L257 316L310 316Z" fill="#5A5A5A"/>
<path d="M257 309H265V317H257L257 309Z" fill="#5A5A5A"/>
<path d="M257 244H265V279H257L257 244Z" fill="#5A5A5A"/>
<path d="M257 165H265V217H257L257 165Z" fill="#5A5A5A"/>
<path d="M261 274L261 266L338 266L338 274L261 274Z" fill="#5A5A5A"/>
<rect x="351" y="316" width="16" height="44" transform="rotate(90 351 316)" fill="#5A5A5A"/>
<rect x="307" y="317" width="16" height="43" fill="#5A5A5A"/>
<rect x="307" y="394" width="16" height="125" fill="#5A5A5A"/>
<rect x="55" y="519" width="16" height="268" transform="rotate(-90 55 519)" fill="#5A5A5A"/>
<path d="M206.25 395.75L206.275 367.549L207.75 367.54L207.75 395.75L206.25 395.75Z" stroke="#5A5A5A" stroke-width="0.5" stroke-miterlimit="10"/>
<path d="M206.25 348.461L206.275 320.26L207.75 320.251L207.75 348.461L206.25 348.461Z" stroke="#5A5A5A" stroke-width="0.5" stroke-miterlimit="10"/>
<path d="M204.25 372.106L204.275 343.905L205.75 343.896L205.75 372.106L204.25 372.106Z" stroke="#5A5A5A" stroke-width="0.5" stroke-miterlimit="10"/>
<line y1="-0.5" x2="38.5876" y2="-0.5" transform="matrix(-0.518302 -0.855198 -0.855198 0.518302 201 215)" stroke="black"/>
<line y1="-0.5" x2="30.8869" y2="-0.5" transform="matrix(-0.485643 0.874157 0.874157 0.485643 259 215)" stroke="black"/>
<line y1="-0.5" x2="30.0167" y2="-0.5" transform="matrix(-0.499722 0.866186 0.866186 0.499722 259 278)" stroke="black"/>
<line x1="82.4378" y1="266.242" x2="66.4378" y2="295.242" stroke="#5A5A5A"/>
<path d="M0.250198 220.25L0.313164 302.718L4.74999 302.748L4.75 220.25L0.250198 220.25Z" stroke="#5A5A5A" stroke-width="0.5" stroke-miterlimit="10"/>
<path d="M54.2503 208.25L54.3131 267.727L58.75 267.749L58.75 208.25L54.2503 208.25Z" stroke="#5A5A5A" stroke-width="0.5" stroke-miterlimit="10"/>
<path d="M64.2503 208.25L64.3131 267.727L68.75 267.749L68.75 208.25L64.2503 208.25Z" stroke="#5A5A5A" stroke-width="0.5" stroke-miterlimit="10"/>
<rect y="220" width="5" height="74" transform="rotate(-90 0 220)" fill="#5A5A5A"/>
<rect y="320" width="5" height="74" transform="rotate(-90 0 320)" fill="#5A5A5A"/>
<rect y="301" width="5" height="19" fill="#5A5A5A"/>
<rect y="218" width="5" height="19" fill="#5A5A5A"/>
<line y1="-0.5" x2="36.3593" y2="-0.5" transform="matrix(0.522562 0.852601 0.852601 -0.522562 321 358)" stroke="black"/>
</svg>
