<svg width="276" height="692" viewBox="0 0 276 692" fill="none" xmlns="http://www.w3.org/2000/svg">
<path d="M129 603L129 30L267 30L267 603H129Z" fill="#E7FFD5"/>
<path d="M35 332L35 30L173 30L173 332L35 332Z" fill="#E7FFD5"/>
<path d="M23 247L23 30L173 30L173 247L23 247Z" fill="#E7FFD5"/>
<path d="M184 233L262 233L262 412L184 412L184 233Z" fill="#FDFF9F"/>
<rect x="245" y="633" width="30" height="30" transform="rotate(-90 245 633)" fill="#5A5A5A"/>
<path d="M173.35 513.42V511.6L175.17 510.2H176.64V520H175.03V512.16L173.35 513.42ZM178.181 517.27H179.861C179.936 517.559 180.062 517.807 180.239 518.012C180.65 518.497 181.247 518.74 182.031 518.74C182.656 518.74 183.151 518.572 183.515 518.236C183.879 517.9 184.061 517.461 184.061 516.92C184.061 516.351 183.879 515.893 183.515 515.548C183.151 515.203 182.656 515.03 182.031 515.03C181.452 515.03 180.962 515.184 180.561 515.492C180.402 515.613 180.262 515.763 180.141 515.94H178.601L179.021 510.2H184.971V511.74H180.351L180.141 514.26H180.211C180.36 514.111 180.533 513.985 180.729 513.882C181.168 513.621 181.695 513.49 182.311 513.49C183.291 513.49 184.108 513.817 184.761 514.47C185.414 515.123 185.741 515.94 185.741 516.92C185.741 517.881 185.396 518.684 184.705 519.328C184.024 519.963 183.132 520.28 182.031 520.28C180.594 520.28 179.525 519.781 178.825 518.782C178.526 518.343 178.312 517.839 178.181 517.27ZM186.794 519.23C186.794 518.95 186.883 518.717 187.06 518.53C187.247 518.343 187.476 518.25 187.746 518.25C188.054 518.25 188.297 518.362 188.474 518.586C188.661 518.81 188.754 519.141 188.754 519.58C188.754 520.299 188.582 520.849 188.236 521.232C187.9 521.624 187.443 521.82 186.864 521.82V521.12C187.144 521.12 187.364 521.041 187.522 520.882C187.69 520.733 187.774 520.532 187.774 520.28V520.196C187.765 520.187 187.76 520.168 187.76 520.14V520.098L187.676 520.126C187.648 520.135 187.588 520.14 187.494 520.14C187.308 520.14 187.144 520.056 187.004 519.888C186.864 519.72 186.794 519.501 186.794 519.23ZM191.271 518.824C190.384 517.853 189.941 516.612 189.941 515.1C189.941 513.588 190.384 512.347 191.271 511.376C192.157 510.405 193.231 509.92 194.491 509.92C195.751 509.92 196.824 510.405 197.711 511.376C198.597 512.347 199.041 513.588 199.041 515.1C199.041 516.612 198.597 517.853 197.711 518.824C196.824 519.795 195.751 520.28 194.491 520.28C193.231 520.28 192.157 519.795 191.271 518.824ZM192.419 512.412C191.887 513.047 191.621 513.943 191.621 515.1C191.621 516.257 191.887 517.153 192.419 517.788C192.96 518.423 193.651 518.74 194.491 518.74C195.331 518.74 196.017 518.423 196.549 517.788C197.09 517.153 197.361 516.257 197.361 515.1C197.361 513.943 197.09 513.047 196.549 512.412C196.017 511.777 195.331 511.46 194.491 511.46C193.651 511.46 192.96 511.777 192.419 512.412ZM200.164 516.78C200.164 516.332 200.262 515.865 200.458 515.38C200.663 514.885 200.859 514.498 201.046 514.218C201.242 513.929 201.508 513.569 201.844 513.14L204.084 510.2H205.974L203.86 512.958L203.244 513.49V513.56L203.524 513.462C203.804 513.387 204.107 513.35 204.434 513.35C205.348 513.35 206.123 513.681 206.758 514.344C207.402 514.997 207.724 515.809 207.724 516.78C207.724 517.769 207.369 518.6 206.66 519.272C205.95 519.944 205.045 520.28 203.944 520.28C202.842 520.28 201.937 519.944 201.228 519.272C200.518 518.6 200.164 517.769 200.164 516.78ZM202.418 515.324C202.035 515.697 201.844 516.183 201.844 516.78C201.844 517.377 202.035 517.867 202.418 518.25C202.8 518.623 203.309 518.81 203.944 518.81C204.578 518.81 205.087 518.623 205.47 518.25C205.852 517.867 206.044 517.377 206.044 516.78C206.044 516.183 205.852 515.697 205.47 515.324C205.087 514.941 204.578 514.75 203.944 514.75C203.309 514.75 202.8 514.941 202.418 515.324Z" fill="#333333"/>
<path d="M199.42 664.2H201.1C201.165 664.489 201.291 664.746 201.478 664.97C201.898 665.483 202.495 665.74 203.27 665.74C203.914 665.74 204.423 665.581 204.796 665.264C205.179 664.937 205.37 664.536 205.37 664.06C205.37 663.519 205.197 663.094 204.852 662.786C204.516 662.469 204.035 662.31 203.41 662.31H201.03V660.91L203.97 658.81V658.74H199.91V657.2H206.35V658.726L203.83 660.56L203.13 660.84V660.91L203.354 660.882C203.662 660.854 203.844 660.84 203.9 660.84C204.777 660.84 205.51 661.143 206.098 661.75C206.686 662.357 206.98 663.127 206.98 664.06C206.98 664.956 206.635 665.717 205.944 666.342C205.253 666.967 204.362 667.28 203.27 667.28C201.823 667.28 200.755 666.767 200.064 665.74C199.765 665.301 199.551 664.788 199.42 664.2ZM208.037 666.23C208.037 665.95 208.125 665.717 208.303 665.53C208.489 665.343 208.718 665.25 208.989 665.25C209.297 665.25 209.539 665.362 209.717 665.586C209.903 665.81 209.997 666.141 209.997 666.58C209.997 667.299 209.824 667.849 209.479 668.232C209.143 668.624 208.685 668.82 208.107 668.82V668.12C208.387 668.12 208.606 668.041 208.765 667.882C208.933 667.733 209.017 667.532 209.017 667.28V667.196C209.007 667.187 209.003 667.168 209.003 667.14V667.098L208.919 667.126C208.891 667.135 208.83 667.14 208.737 667.14C208.55 667.14 208.387 667.056 208.247 666.888C208.107 666.72 208.037 666.501 208.037 666.23ZM211.043 663.78C211.043 663.332 211.141 662.865 211.337 662.38C211.542 661.885 211.738 661.498 211.925 661.218C212.121 660.929 212.387 660.569 212.723 660.14L214.963 657.2H216.853L214.739 659.958L214.123 660.49V660.56L214.403 660.462C214.683 660.387 214.986 660.35 215.313 660.35C216.227 660.35 217.002 660.681 217.637 661.344C218.281 661.997 218.603 662.809 218.603 663.78C218.603 664.769 218.248 665.6 217.539 666.272C216.829 666.944 215.924 667.28 214.823 667.28C213.721 667.28 212.816 666.944 212.107 666.272C211.397 665.6 211.043 664.769 211.043 663.78ZM213.297 662.324C212.914 662.697 212.723 663.183 212.723 663.78C212.723 664.377 212.914 664.867 213.297 665.25C213.679 665.623 214.188 665.81 214.823 665.81C215.457 665.81 215.966 665.623 216.349 665.25C216.731 664.867 216.923 664.377 216.923 663.78C216.923 663.183 216.731 662.697 216.349 662.324C215.966 661.941 215.457 661.75 214.823 661.75C214.188 661.75 213.679 661.941 213.297 662.324ZM219.656 663.78C219.656 663.332 219.754 662.865 219.95 662.38C220.155 661.885 220.351 661.498 220.538 661.218C220.734 660.929 221 660.569 221.336 660.14L223.576 657.2H225.466L223.352 659.958L222.736 660.49V660.56L223.016 660.462C223.296 660.387 223.599 660.35 223.926 660.35C224.841 660.35 225.615 660.681 226.25 661.344C226.894 661.997 227.216 662.809 227.216 663.78C227.216 664.769 226.861 665.6 226.152 666.272C225.443 666.944 224.537 667.28 223.436 667.28C222.335 667.28 221.429 666.944 220.72 666.272C220.011 665.6 219.656 664.769 219.656 663.78ZM221.91 662.324C221.527 662.697 221.336 663.183 221.336 663.78C221.336 664.377 221.527 664.867 221.91 665.25C222.293 665.623 222.801 665.81 223.436 665.81C224.071 665.81 224.579 665.623 224.962 665.25C225.345 664.867 225.536 664.377 225.536 663.78C225.536 663.183 225.345 662.697 224.962 662.324C224.579 661.941 224.071 661.75 223.436 661.75C222.801 661.75 222.293 661.941 221.91 662.324Z" fill="#333333"/>
<path d="M141.35 325.42V323.6L143.17 322.2H144.64V332H143.03V324.16L141.35 325.42ZM146.041 332V330.46L149.387 328.094C150.115 327.571 150.638 327.086 150.955 326.638C151.272 326.19 151.431 325.714 151.431 325.21C151.431 324.678 151.268 324.253 150.941 323.936C150.614 323.619 150.171 323.46 149.611 323.46C148.92 323.46 148.402 323.74 148.057 324.3C147.908 324.543 147.796 324.823 147.721 325.14H146.041C146.125 324.543 146.307 324.006 146.587 323.53C147.25 322.457 148.258 321.92 149.611 321.92C150.647 321.92 151.487 322.228 152.131 322.844C152.784 323.451 153.111 324.216 153.111 325.14C153.111 325.943 152.906 326.666 152.495 327.31C152.084 327.945 151.426 328.575 150.521 329.2L149.121 330.18L148.491 330.46V330.53L149.331 330.46H153.111V332H146.041ZM154.234 331.23C154.234 330.95 154.322 330.717 154.5 330.53C154.686 330.343 154.915 330.25 155.186 330.25C155.494 330.25 155.736 330.362 155.914 330.586C156.1 330.81 156.194 331.141 156.194 331.58C156.194 332.299 156.021 332.849 155.676 333.232C155.34 333.624 154.882 333.82 154.304 333.82V333.12C154.584 333.12 154.803 333.041 154.962 332.882C155.13 332.733 155.214 332.532 155.214 332.28V332.196C155.204 332.187 155.2 332.168 155.2 332.14V332.098L155.116 332.126C155.088 332.135 155.027 332.14 154.934 332.14C154.747 332.14 154.584 332.056 154.444 331.888C154.304 331.72 154.234 331.501 154.234 331.23ZM158.71 330.824C157.823 329.853 157.38 328.612 157.38 327.1C157.38 325.588 157.823 324.347 158.71 323.376C159.597 322.405 160.67 321.92 161.93 321.92C163.19 321.92 164.263 322.405 165.15 323.376C166.037 324.347 166.48 325.588 166.48 327.1C166.48 328.612 166.037 329.853 165.15 330.824C164.263 331.795 163.19 332.28 161.93 332.28C160.67 332.28 159.597 331.795 158.71 330.824ZM159.858 324.412C159.326 325.047 159.06 325.943 159.06 327.1C159.06 328.257 159.326 329.153 159.858 329.788C160.399 330.423 161.09 330.74 161.93 330.74C162.77 330.74 163.456 330.423 163.988 329.788C164.529 329.153 164.8 328.257 164.8 327.1C164.8 325.943 164.529 325.047 163.988 324.412C163.456 323.777 162.77 323.46 161.93 323.46C161.09 323.46 160.399 323.777 159.858 324.412ZM167.253 323.74V322.2H173.903V323.74L169.983 332H168.233L172.083 323.88V323.74H167.253Z" fill="#333333"/>
<path d="M200.56 350.27H202.24C202.315 350.559 202.441 350.807 202.618 351.012C203.029 351.497 203.626 351.74 204.41 351.74C205.035 351.74 205.53 351.572 205.894 351.236C206.258 350.9 206.44 350.461 206.44 349.92C206.44 349.351 206.258 348.893 205.894 348.548C205.53 348.203 205.035 348.03 204.41 348.03C203.831 348.03 203.341 348.184 202.94 348.492C202.781 348.613 202.641 348.763 202.52 348.94H200.98L201.4 343.2H207.35V344.74H202.73L202.52 347.26H202.59C202.739 347.111 202.912 346.985 203.108 346.882C203.547 346.621 204.074 346.49 204.69 346.49C205.67 346.49 206.487 346.817 207.14 347.47C207.793 348.123 208.12 348.94 208.12 349.92C208.12 350.881 207.775 351.684 207.084 352.328C206.403 352.963 205.511 353.28 204.41 353.28C202.973 353.28 201.904 352.781 201.204 351.782C200.905 351.343 200.691 350.839 200.56 350.27ZM209.173 352.23C209.173 351.95 209.262 351.717 209.439 351.53C209.626 351.343 209.855 351.25 210.125 351.25C210.433 351.25 210.676 351.362 210.853 351.586C211.04 351.81 211.133 352.141 211.133 352.58C211.133 353.299 210.961 353.849 210.615 354.232C210.279 354.624 209.822 354.82 209.243 354.82V354.12C209.523 354.12 209.743 354.041 209.901 353.882C210.069 353.733 210.153 353.532 210.153 353.28V353.196C210.144 353.187 210.139 353.168 210.139 353.14V353.098L210.055 353.126C210.027 353.135 209.967 353.14 209.873 353.14C209.687 353.14 209.523 353.056 209.383 352.888C209.243 352.72 209.173 352.501 209.173 352.23ZM213.649 351.824C212.763 350.853 212.319 349.612 212.319 348.1C212.319 346.588 212.763 345.347 213.649 344.376C214.536 343.405 215.609 342.92 216.869 342.92C218.129 342.92 219.203 343.405 220.089 344.376C220.976 345.347 221.419 346.588 221.419 348.1C221.419 349.612 220.976 350.853 220.089 351.824C219.203 352.795 218.129 353.28 216.869 353.28C215.609 353.28 214.536 352.795 213.649 351.824ZM214.797 345.412C214.265 346.047 213.999 346.943 213.999 348.1C213.999 349.257 214.265 350.153 214.797 350.788C215.339 351.423 216.029 351.74 216.869 351.74C217.709 351.74 218.395 351.423 218.927 350.788C219.469 350.153 219.739 349.257 219.739 348.1C219.739 346.943 219.469 346.047 218.927 345.412C218.395 344.777 217.709 344.46 216.869 344.46C216.029 344.46 215.339 344.777 214.797 345.412ZM222.473 350.2H224.153C224.218 350.489 224.344 350.746 224.531 350.97C224.951 351.483 225.548 351.74 226.323 351.74C226.967 351.74 227.475 351.581 227.849 351.264C228.231 350.937 228.423 350.536 228.423 350.06C228.423 349.519 228.25 349.094 227.905 348.786C227.569 348.469 227.088 348.31 226.463 348.31H224.083V346.91L227.023 344.81V344.74H222.963V343.2H229.403V344.726L226.883 346.56L226.183 346.84V346.91L226.407 346.882C226.715 346.854 226.897 346.84 226.953 346.84C227.83 346.84 228.563 347.143 229.151 347.75C229.739 348.357 230.033 349.127 230.033 350.06C230.033 350.956 229.687 351.717 228.997 352.342C228.306 352.967 227.415 353.28 226.323 353.28C224.876 353.28 223.807 352.767 223.117 351.74C222.818 351.301 222.603 350.788 222.473 350.2Z" fill="#333333"/>
<path d="M200.42 273.2H202.1C202.165 273.489 202.291 273.746 202.478 273.97C202.898 274.483 203.495 274.74 204.27 274.74C204.914 274.74 205.423 274.581 205.796 274.264C206.179 273.937 206.37 273.536 206.37 273.06C206.37 272.519 206.197 272.094 205.852 271.786C205.516 271.469 205.035 271.31 204.41 271.31H202.03V269.91L204.97 267.81V267.74H200.91V266.2H207.35V267.726L204.83 269.56L204.13 269.84V269.91L204.354 269.882C204.662 269.854 204.844 269.84 204.9 269.84C205.777 269.84 206.51 270.143 207.098 270.75C207.686 271.357 207.98 272.127 207.98 273.06C207.98 273.956 207.635 274.717 206.944 275.342C206.253 275.967 205.362 276.28 204.27 276.28C202.823 276.28 201.755 275.767 201.064 274.74C200.765 274.301 200.551 273.788 200.42 273.2ZM209.037 275.23C209.037 274.95 209.125 274.717 209.303 274.53C209.489 274.343 209.718 274.25 209.989 274.25C210.297 274.25 210.539 274.362 210.717 274.586C210.903 274.81 210.997 275.141 210.997 275.58C210.997 276.299 210.824 276.849 210.479 277.232C210.143 277.624 209.685 277.82 209.107 277.82V277.12C209.387 277.12 209.606 277.041 209.765 276.882C209.933 276.733 210.017 276.532 210.017 276.28V276.196C210.007 276.187 210.003 276.168 210.003 276.14V276.098L209.919 276.126C209.891 276.135 209.83 276.14 209.737 276.14C209.55 276.14 209.387 276.056 209.247 275.888C209.107 275.72 209.037 275.501 209.037 275.23ZM211.973 273.2H213.653C213.718 273.489 213.844 273.746 214.031 273.97C214.451 274.483 215.048 274.74 215.823 274.74C216.467 274.74 216.975 274.581 217.349 274.264C217.731 273.937 217.923 273.536 217.923 273.06C217.923 272.519 217.75 272.094 217.405 271.786C217.069 271.469 216.588 271.31 215.963 271.31H213.583V269.91L216.523 267.81V267.74H212.463V266.2H218.903V267.726L216.383 269.56L215.683 269.84V269.91L215.907 269.882C216.215 269.854 216.397 269.84 216.453 269.84C217.33 269.84 218.063 270.143 218.651 270.75C219.239 271.357 219.533 272.127 219.533 273.06C219.533 273.956 219.187 274.717 218.497 275.342C217.806 275.967 216.915 276.28 215.823 276.28C214.376 276.28 213.307 275.767 212.617 274.74C212.318 274.301 212.103 273.788 211.973 273.2ZM220.239 274.04V272.5L223.529 266.2H225.279L221.989 272.5H225.209V270.12H225.279H226.819V272.5H228.219V274.04H226.819V276H225.209V274.04H220.239Z" fill="#333333"/>
<path d="M170.42 184V182.46L173.766 180.094C174.494 179.571 175.017 179.086 175.334 178.638C175.651 178.19 175.81 177.714 175.81 177.21C175.81 176.678 175.647 176.253 175.32 175.936C174.993 175.619 174.55 175.46 173.99 175.46C173.299 175.46 172.781 175.74 172.436 176.3C172.287 176.543 172.175 176.823 172.1 177.14H170.42C170.504 176.543 170.686 176.006 170.966 175.53C171.629 174.457 172.637 173.92 173.99 173.92C175.026 173.92 175.866 174.228 176.51 174.844C177.163 175.451 177.49 176.216 177.49 177.14C177.49 177.943 177.285 178.666 176.874 179.31C176.463 179.945 175.805 180.575 174.9 181.2L173.5 182.18L172.87 182.46V182.53L173.71 182.46H177.49V184H170.42ZM178.473 184V182.46L181.819 180.094C182.547 179.571 183.069 179.086 183.387 178.638C183.704 178.19 183.863 177.714 183.863 177.21C183.863 176.678 183.699 176.253 183.373 175.936C183.046 175.619 182.603 175.46 182.043 175.46C181.352 175.46 180.834 175.74 180.489 176.3C180.339 176.543 180.227 176.823 180.153 177.14H178.473C178.557 176.543 178.739 176.006 179.019 175.53C179.681 174.457 180.689 173.92 182.043 173.92C183.079 173.92 183.919 174.228 184.563 174.844C185.216 175.451 185.543 176.216 185.543 177.14C185.543 177.943 185.337 178.666 184.927 179.31C184.516 179.945 183.858 180.575 182.953 181.2L181.553 182.18L180.923 182.46V182.53L181.763 182.46H185.543V184H178.473ZM186.665 183.23C186.665 182.95 186.754 182.717 186.931 182.53C187.118 182.343 187.347 182.25 187.617 182.25C187.925 182.25 188.168 182.362 188.345 182.586C188.532 182.81 188.625 183.141 188.625 183.58C188.625 184.299 188.453 184.849 188.107 185.232C187.771 185.624 187.314 185.82 186.735 185.82V185.12C187.015 185.12 187.235 185.041 187.393 184.882C187.561 184.733 187.645 184.532 187.645 184.28V184.196C187.636 184.187 187.631 184.168 187.631 184.14V184.098L187.547 184.126C187.519 184.135 187.459 184.14 187.365 184.14C187.179 184.14 187.015 184.056 186.875 183.888C186.735 183.72 186.665 183.501 186.665 183.23ZM189.532 177.42V175.6L191.352 174.2H192.822V184H191.212V176.16L189.532 177.42ZM194.013 182.04V180.5L197.303 174.2H199.053L195.763 180.5H198.983V178.12H199.053H200.593V180.5H201.993V182.04H200.593V184H198.983V182.04H194.013Z" fill="#333333"/>
<rect x="207" y="30" width="30" height="68" transform="rotate(-90 207 30)" fill="#5A5A5A"/>
<rect x="275" y="614" width="16" height="592" transform="rotate(-180 275 614)" fill="#5A5A5A"/>
<rect x="173" y="427" width="16" height="89" transform="rotate(-90 173 427)" fill="#5A5A5A"/>
<rect x="120" y="427" width="16" height="16" transform="rotate(-90 120 427)" fill="#5A5A5A"/>
<path d="M239.517 321.307L240.698 321.324L243.764 321.307L251.355 321.307L251.355 331.264L239.517 331.264C236.5 331.264 234.041 329.021 234.041 326.269C234.041 323.551 236.5 321.307 239.517 321.307Z" fill="white" stroke="#5A5A5A" stroke-width="0.5"/>
<path d="M239.583 322.453L240.517 322.453L248.076 322.453L248.076 330.134L240.517 330.134L239.583 330.118C237.205 330.118 235.271 328.415 235.271 326.286C235.287 324.173 237.222 322.453 239.583 322.453Z" fill="white" stroke="#5A5A5A" stroke-width="0.5"/>
<path d="M257.717 333.066L252.454 333.066C251.847 333.066 251.355 332.574 251.355 331.969L251.355 320.685C251.355 320.079 251.847 319.587 252.454 319.587L257.717 319.587C258.324 319.587 258.816 320.079 258.816 320.685L258.816 331.952C258.816 332.574 258.324 333.066 257.717 333.066Z" fill="white" stroke="#5A5A5A" stroke-width="0.5"/>
<path d="M255.093 326.973C254.683 326.973 254.372 326.679 254.372 326.335C254.355 325.974 254.683 325.68 255.093 325.68C255.503 325.68 255.814 325.974 255.814 326.318C255.798 326.695 255.487 326.99 255.093 326.973Z" fill="white" stroke="#5A5A5A" stroke-width="0.5"/>
<path d="M257.346 371.732L245.038 371.732C244.183 371.732 243.498 371.048 243.498 370.194L243.498 351.674C243.498 350.82 244.183 350.136 245.038 350.136L257.346 350.136C258.202 350.136 258.887 350.82 258.887 351.674L258.887 370.194C258.887 371.034 258.202 371.732 257.346 371.732Z" fill="white" stroke="#5A5A5A" stroke-width="0.5"/>
<path d="M252.655 369.809L250.758 369.809C248.262 369.809 246.237 367.786 246.237 365.293L246.237 356.575C246.237 354.082 248.262 352.059 250.758 352.059L252.655 352.059C255.151 352.059 257.176 354.082 257.176 356.575L257.176 365.293C257.176 367.786 255.151 369.809 252.655 369.809Z" fill="white" stroke="#5A5A5A" stroke-width="0.5"/>
<path d="M254.765 361.889C254.222 361.889 253.781 361.461 253.781 360.934C253.781 360.407 254.222 359.98 254.765 359.98C255.308 359.98 255.749 360.407 255.749 360.934C255.749 361.461 255.308 361.889 254.765 361.889Z" fill="white" stroke="#5A5A5A" stroke-width="0.5"/>
<path d="M257.393 381.448L190.541 381.448C189.685 381.448 189 382.133 189 382.988L189 409.527C189 410.382 189.685 411.066 190.541 411.066L257.393 411.066C258.249 411.066 258.934 410.382 258.934 409.527L258.934 382.988C258.934 382.133 258.233 381.448 257.393 381.448Z" fill="white" stroke="#5A5A5A" stroke-width="0.5"/>
<path d="M193.109 392.659L193.109 399.872C193.109 404.055 196.502 407.428 200.674 407.428L253.315 407.428C254.342 407.428 255.167 406.604 255.167 405.578L255.167 386.922C255.167 385.895 254.342 385.071 253.315 385.071L200.689 385.071C196.502 385.087 193.109 388.476 193.109 392.659Z" fill="white" stroke="#5A5A5A" stroke-width="0.5"/>
<path d="M248.925 395.736C248.925 394.903 249.629 394.228 250.497 394.228C251.366 394.228 252.069 394.903 252.069 395.736C252.069 396.569 251.366 397.244 250.497 397.244C249.629 397.244 248.925 396.569 248.925 395.736Z" fill="white" stroke="#5A5A5A" stroke-width="0.5"/>
<path d="M188.999 332.024L188.999 310.014L210.587 310L210.573 332.01L188.999 332.024Z" fill="white" stroke="#5A5A5A" stroke-width="0.5"/>
<path d="M205.33 321.005C205.33 317.891 202.855 315.377 199.793 315.377C196.731 315.377 194.257 317.891 194.257 321.019C194.257 324.133 196.731 326.675 199.793 326.675C202.855 326.661 205.33 324.119 205.33 321.005Z" stroke="#5A5A5A" stroke-width="0.5"/>
<path d="M199.793 325.125C200.912 325.139 201.918 324.678 202.645 323.924C203.372 323.17 203.82 322.136 203.834 321.019M199.807 316.885C200.912 316.885 201.918 317.346 202.659 318.086C203.386 318.84 203.848 319.86 203.848 321.005L199.807 316.885ZM199.793 325.125C198.688 325.125 197.682 324.664 196.941 323.924C196.214 323.17 195.766 322.136 195.766 321.005L199.793 325.125ZM199.807 316.885C198.674 316.885 197.668 317.346 196.955 318.086L196.941 318.1C196.228 318.84 195.766 319.86 195.766 320.991L199.807 316.885Z" stroke="#5A5A5A" stroke-width="0.5"/>
<rect x="181" y="375" width="8" height="52" fill="#5A5A5A"/>
<rect x="266" y="302" width="8" height="85" transform="rotate(90 266 302)" fill="#5A5A5A"/>
<rect x="189" y="348" width="8" height="65" transform="rotate(-180 189 348)" fill="#5A5A5A"/>
<rect x="188.99" y="251.845" width="8" height="20.8424" transform="rotate(-179.96 188.99 251.845)" fill="#5A5A5A"/>
<rect x="19" y="348" width="16" height="107" transform="rotate(-90 19 348)" fill="#5A5A5A"/>
<rect x="113" y="332" width="16" height="301" fill="#5A5A5A"/>
<rect x="181" y="234" width="16" height="81" transform="rotate(-90 181 234)" fill="#5A5A5A"/>
<rect x="19" width="16" height="269" fill="#5A5A5A"/>
<rect x="70" y="218" width="16" height="51" transform="rotate(90 70 218)" fill="#5A5A5A"/>
<rect x="19" y="302" width="16" height="46" fill="#5A5A5A"/>
<circle cx="177.5" cy="91.5" r="39.5" fill="#5A5A5A"/>
<path d="M154.63 94.86C154.63 94.284 154.756 93.684 155.008 93.06C155.272 92.424 155.524 91.926 155.764 91.566C156.016 91.194 156.358 90.732 156.79 90.18L159.67 86.4H162.1L159.382 89.946L158.59 90.63V90.72L158.95 90.594C159.31 90.498 159.7 90.45 160.12 90.45C161.296 90.45 162.292 90.876 163.108 91.728C163.936 92.568 164.35 93.612 164.35 94.86C164.35 96.132 163.894 97.2 162.982 98.064C162.07 98.928 160.906 99.36 159.49 99.36C158.074 99.36 156.91 98.928 155.998 98.064C155.086 97.2 154.63 96.132 154.63 94.86ZM157.528 92.988C157.036 93.468 156.79 94.092 156.79 94.86C156.79 95.628 157.036 96.258 157.528 96.75C158.02 97.23 158.674 97.47 159.49 97.47C160.306 97.47 160.96 97.23 161.452 96.75C161.944 96.258 162.19 95.628 162.19 94.86C162.19 94.092 161.944 93.468 161.452 92.988C160.96 92.496 160.306 92.25 159.49 92.25C158.674 92.25 158.02 92.496 157.528 92.988ZM165.614 95.4H167.774C167.858 95.772 168.02 96.102 168.26 96.39C168.8 97.05 169.568 97.38 170.564 97.38C171.392 97.38 172.046 97.176 172.526 96.768C173.018 96.348 173.264 95.832 173.264 95.22C173.264 94.524 173.042 93.978 172.598 93.582C172.166 93.174 171.548 92.97 170.744 92.97H167.684V91.17L171.464 88.47V88.38H166.244V86.4H174.524V88.362L171.284 90.72L170.384 91.08V91.17L170.672 91.134C171.068 91.098 171.302 91.08 171.374 91.08C172.502 91.08 173.444 91.47 174.2 92.25C174.956 93.03 175.334 94.02 175.334 95.22C175.334 96.372 174.89 97.35 174.002 98.154C173.114 98.958 171.968 99.36 170.564 99.36C168.704 99.36 167.33 98.7 166.442 97.38C166.058 96.816 165.782 96.156 165.614 95.4ZM176.693 98.01C176.693 97.65 176.807 97.35 177.035 97.11C177.275 96.87 177.569 96.75 177.917 96.75C178.313 96.75 178.625 96.894 178.853 97.182C179.093 97.47 179.213 97.896 179.213 98.46C179.213 99.384 178.991 100.092 178.547 100.584C178.115 101.088 177.527 101.34 176.783 101.34V100.44C177.143 100.44 177.425 100.338 177.629 100.134C177.845 99.942 177.953 99.684 177.953 99.36V99.252C177.941 99.24 177.935 99.216 177.935 99.18V99.126L177.827 99.162C177.791 99.174 177.713 99.18 177.593 99.18C177.353 99.18 177.143 99.072 176.963 98.856C176.783 98.64 176.693 98.358 176.693 98.01ZM180.378 90.54V88.2L182.718 86.4H184.608V99H182.538V88.92L180.378 90.54ZM186.409 99V97.02L190.711 93.978C191.647 93.306 192.319 92.682 192.727 92.106C193.135 91.53 193.339 90.918 193.339 90.27C193.339 89.586 193.129 89.04 192.709 88.632C192.289 88.224 191.719 88.02 190.999 88.02C190.111 88.02 189.445 88.38 189.001 89.1C188.809 89.412 188.665 89.772 188.569 90.18H186.409C186.517 89.412 186.751 88.722 187.111 88.11C187.963 86.73 189.259 86.04 190.999 86.04C192.331 86.04 193.411 86.436 194.239 87.228C195.079 88.008 195.499 88.992 195.499 90.18C195.499 91.212 195.235 92.142 194.707 92.97C194.179 93.786 193.333 94.596 192.169 95.4L190.369 96.66L189.559 97.02V97.11L190.639 97.02H195.499V99H186.409Z" fill="white"/>
<rect x="115" y="234" width="16" height="26" transform="rotate(-90 115 234)" fill="#5A5A5A"/>
<rect x="118" y="30" width="30" height="29" transform="rotate(-90 118 30)" fill="#5A5A5A"/>
<rect x="19" y="30" width="30" height="39" transform="rotate(-90 19 30)" fill="#5A5A5A"/>
<rect x="121" y="633" width="30" height="62" transform="rotate(-90 121 633)" fill="#5A5A5A"/>
<path d="M257.75 690.753L176.282 690.69L176.252 686.253L257.75 686.253L257.75 690.753Z" stroke="#5A5A5A" stroke-width="0.5" stroke-miterlimit="10"/>
<rect width="5" height="74" transform="matrix(1 -8.74228e-08 -8.74228e-08 -1 264 691.003)" fill="#5A5A5A"/>
<rect width="5" height="74" transform="matrix(1 -8.74228e-08 -8.74228e-08 -1 165 691.003)" fill="#5A5A5A"/>
<rect width="5" height="8" transform="matrix(-1.31134e-07 -1 -1 1.31134e-07 177 691.003)" fill="#5A5A5A"/>
<rect width="5" height="12" transform="matrix(-1.31134e-07 -1 -1 1.31134e-07 269 691.003)" fill="#5A5A5A"/>
<path d="M275.75 618.253L215.274 618.316L215.251 622.753L275.75 622.753L275.75 618.253Z" stroke="#5A5A5A" stroke-width="0.5" stroke-miterlimit="10"/>
<path d="M275.75 628.253L215.274 628.316L215.251 632.753L275.75 632.753L275.75 628.253Z" stroke="#5A5A5A" stroke-width="0.5" stroke-miterlimit="10"/>
<line x1="181.745" y1="619.573" x2="208.745" y2="603.573" stroke="#5A5A5A"/>
<path d="M32.25 29.7498L227.671 29.5981L227.748 18.25L32.25 18.25L32.25 29.7498Z" stroke="#5A5A5A" stroke-width="0.5" stroke-miterlimit="10"/>
<path d="M32.25 11.7498L227.671 11.5981L227.748 0.250008L32.25 0.249999L32.25 11.7498Z" stroke="#5A5A5A" stroke-width="0.5" stroke-miterlimit="10"/>
<line x1="178.45" y1="250.217" x2="164.45" y2="279.217" stroke="#5A5A5A"/>
<line x1="171.444" y1="348.77" x2="185.444" y2="375.77" stroke="#5A5A5A"/>
<line x1="134.745" y1="411.57" x2="166.745" y2="392.57" stroke="#5A5A5A"/>
<line x1="172.272" y1="232.42" x2="138.272" y2="254.42" stroke="#5A5A5A"/>
<line y1="-0.5" x2="44.7772" y2="-0.5" transform="matrix(0.870978 0.491321 0.491321 -0.870978 66 231)" stroke="#5A5A5A"/>
<line x1="21.4254" y1="266.263" x2="0.425398" y2="300.263" stroke="#5A5A5A"/>
<path d="M239.702 256.241L240.882 256.258L243.948 256.241L251.54 256.241L251.54 266.198L239.702 266.198C236.685 266.198 234.226 263.955 234.226 261.203C234.226 258.485 236.685 256.241 239.702 256.241Z" fill="white" stroke="#5A5A5A" stroke-width="0.5"/>
<path d="M239.767 257.387L240.702 257.387L248.26 257.387L248.26 265.068L240.702 265.068L239.767 265.052C237.39 265.052 235.455 263.349 235.455 261.22C235.471 259.107 237.406 257.387 239.767 257.387Z" fill="white" stroke="#5A5A5A" stroke-width="0.5"/>
<path d="M257.902 268L252.639 268C252.032 268 251.54 267.509 251.54 266.903L251.54 255.619C251.54 255.013 252.032 254.521 252.639 254.521L257.902 254.521C258.508 254.521 259 255.013 259 255.619L259 266.886C259 267.509 258.508 268 257.902 268Z" fill="white" stroke="#5A5A5A" stroke-width="0.5"/>
<path d="M255.278 261.908C254.868 261.908 254.556 261.613 254.556 261.269C254.54 260.909 254.868 260.614 255.278 260.614C255.687 260.614 255.999 260.909 255.999 261.252C255.983 261.629 255.671 261.924 255.278 261.908Z" fill="white" stroke="#5A5A5A" stroke-width="0.5"/>
<path d="M203.855 300.46L203.855 288.152C203.855 287.296 204.539 286.611 205.393 286.611L223.913 286.611C224.767 286.611 225.451 287.296 225.451 288.152L225.451 300.46C225.451 301.315 224.767 302 223.913 302L205.393 302C204.553 302 203.855 301.315 203.855 300.46Z" fill="white" stroke="#5A5A5A" stroke-width="0.5"/>
<path d="M205.778 295.768L205.778 293.871C205.778 291.375 207.801 289.35 210.294 289.35L219.012 289.35C221.505 289.35 223.528 291.375 223.528 293.871L223.528 295.768C223.528 298.263 221.505 300.289 219.012 300.289L210.294 300.289C207.801 300.289 205.778 298.263 205.778 295.768Z" fill="white" stroke="#5A5A5A" stroke-width="0.5"/>
<path d="M213.699 297.878C213.699 297.335 214.126 296.894 214.653 296.894C215.18 296.894 215.607 297.335 215.607 297.878C215.607 298.422 215.18 298.862 214.653 298.862C214.126 298.862 213.699 298.422 213.699 297.878Z" fill="white" stroke="#5A5A5A" stroke-width="0.5"/>
<path d="M34.9998 170.325L59.9951 170.325L59.9951 146L34.9998 146L34.9998 170.325Z" fill="white" stroke="#5A5A5A" stroke-width="0.5"/>
<path d="M57.9687 169.398L38.5157 169.398C37.7778 169.398 37.3853 169.006 37.3853 168.236L37.3853 148.089C37.3853 147.303 37.7621 146.926 38.5157 146.926L57.9687 146.926C58.7223 146.911 59.0992 147.303 59.0992 148.073L59.0992 168.22C59.1149 169.006 58.7223 169.398 57.9687 169.398Z" fill="white" stroke="#5A5A5A" stroke-width="0.5"/>
<path d="M56.1797 162.897C56.164 161.107 54.7509 159.646 53.0082 159.646C51.2497 159.646 49.8367 161.107 49.8367 162.897C49.8367 164.703 51.2497 166.147 53.0082 166.147C54.7666 166.147 56.1797 164.703 56.1797 162.897Z" stroke="#5A5A5A" stroke-width="0.5"/>
<path d="M56.1493 153.271C56.1336 151.481 54.7205 150.02 52.9778 150.02C51.2193 150.02 49.8063 151.481 49.8063 153.271C49.8063 155.077 51.2193 156.522 52.9778 156.522C54.7362 156.537 56.165 155.077 56.1493 153.271Z" stroke="#5A5A5A" stroke-width="0.5"/>
<path d="M47.1357 153.271C47.1357 151.465 45.7227 150.02 43.9642 150.02C42.2058 150.02 40.7927 151.481 40.7927 153.271C40.8084 155.061 42.2215 156.522 43.9642 156.522C45.707 156.522 47.1357 155.061 47.1357 153.271Z" stroke="#5A5A5A" stroke-width="0.5"/>
<path d="M47.1357 162.897C47.1357 161.091 45.7227 159.646 43.9642 159.646C42.2058 159.646 40.7927 161.107 40.7927 162.897C40.8084 164.687 42.2215 166.147 43.9642 166.147C45.707 166.147 47.1357 164.687 47.1357 162.897Z" stroke="#5A5A5A" stroke-width="0.5"/>
<path d="M59.0884 208.699L34.9999 208.699L34.9999 185L59.1035 185L59.0884 208.699Z" fill="white" stroke="#5A5A5A" stroke-width="0.5"/>
<path d="M52.4817 206.896L39.1649 206.896C38.4225 206.896 38.0589 206.532 38.0589 205.774L38.0589 188.167C38.0589 187.44 38.4225 187.061 39.1497 187.046L52.4817 187.061C53.2089 187.046 53.5725 187.424 53.5725 188.167L53.5725 205.774C53.6028 206.517 53.2241 206.896 52.4817 206.896Z" fill="white" stroke="#5A5A5A" stroke-width="0.5"/>
<path d="M57.2402 196.971C57.2251 196.046 56.5282 195.304 55.6495 195.304L48.6653 195.955L48.6502 195.971C48.1199 195.971 47.6957 196.41 47.6957 196.971C47.6957 197.531 48.1199 197.971 48.6653 197.986L55.6495 198.637C56.513 198.637 57.2251 197.895 57.2402 196.971Z" stroke="#5A5A5A" stroke-width="0.5"/>
<mask id="path-75-inside-1_45_12097" fill="white">
<path fill-rule="evenodd" clip-rule="evenodd" d="M56.5576 195.592L52.755 195.955C52.2247 195.97 51.7854 196.41 51.8005 196.986C51.8005 197.546 52.2247 197.971 52.755 197.986L56.5576 198.349"/>
</mask>
<path fill-rule="evenodd" clip-rule="evenodd" d="M56.5576 195.592L52.755 195.955C52.2247 195.97 51.7854 196.41 51.8005 196.986C51.8005 197.546 52.2247 197.971 52.755 197.986L56.5576 198.349" fill="white"/>
<path d="M52.755 195.955L52.7693 196.455L52.7859 196.455L52.8026 196.453L52.755 195.955ZM51.8005 196.986L52.3007 196.986L52.3003 196.972L51.8005 196.986ZM52.755 197.986L52.8026 197.488L52.7859 197.486L52.7693 197.486L52.755 197.986ZM56.51 195.094L52.7074 195.457L52.8026 196.453L56.6052 196.089L56.51 195.094ZM52.7407 195.455C51.9357 195.478 51.2783 196.147 51.3007 196.999L52.3003 196.972C52.2925 196.673 52.5137 196.462 52.7693 196.455L52.7407 195.455ZM51.3005 196.986C51.3005 197.815 51.9381 198.463 52.7407 198.485L52.7693 197.486C52.5113 197.479 52.3005 197.278 52.3005 196.986L51.3005 196.986ZM52.7074 198.483L56.51 198.847L56.6052 197.852L52.8026 197.488L52.7074 198.483Z" fill="#5A5A5A" mask="url(#path-75-inside-1_45_12097)"/>
</svg>
