<svg width="350" height="416" viewBox="0 0 350 416" fill="none" xmlns="http://www.w3.org/2000/svg">
<path d="M46 13L46 386H268L268 13L46 13Z" fill="#FFF8BA"/>
<path d="M12 256L12 386L268 386V256H12Z" fill="#FFF8BA"/>
<path d="M8 94L8 143L76 143L76 94L8 94Z" fill="#FFC79F"/>
<rect width="30" height="67" transform="matrix(-4.37114e-08 -1 -1 4.37114e-08 82 416)" fill="#5A5A5A"/>
<rect width="30" height="51" transform="matrix(-4.37114e-08 -1 -1 4.37114e-08 191 416)" fill="#5A5A5A"/>
<rect width="30" height="49" transform="matrix(-4.37114e-08 -1 -1 4.37114e-08 298 416)" fill="#5A5A5A"/>
<rect width="30" height="93" transform="matrix(1 0 0 -1 268 401)" fill="#5A5A5A"/>
<rect width="30" height="129" transform="matrix(1 0 0 -1 268 256)" fill="#5A5A5A"/>
<path d="M349.75 139.75L349.687 58.282L345.25 58.2517L345.25 139.75L349.75 139.75Z" stroke="#5A5A5A" stroke-width="0.5" stroke-miterlimit="10"/>
<rect x="350" y="146" width="5" height="74" transform="rotate(90 350 146)" fill="#5A5A5A"/>
<rect x="350" y="47" width="5" height="74" transform="rotate(90 350 47)" fill="#5A5A5A"/>
<rect x="350" y="143" width="5.00001" height="94" transform="rotate(-180 350 143)" fill="#5A5A5A"/>
<rect x="350" y="151" width="5" height="12" transform="rotate(-180 350 151)" fill="#5A5A5A"/>
<path d="M283.25 167.75L283.313 107.274L287.75 107.251L287.75 167.75L283.25 167.75Z" stroke="#5A5A5A" stroke-width="0.5" stroke-miterlimit="10"/>
<path d="M293.25 167.75L293.313 107.274L297.75 107.251L297.75 167.75L293.25 167.75Z" stroke="#5A5A5A" stroke-width="0.5" stroke-miterlimit="10"/>
<line y1="-0.5" x2="31.3847" y2="-0.5" transform="matrix(-0.509802 0.860292 0.860292 0.509802 285 78)" stroke="#5A5A5A"/>
<rect width="30" height="80" transform="matrix(1 0 0 -1 268 80)" fill="#5A5A5A"/>
<rect width="16" height="338" transform="matrix(-1 0 0 1 16 78)" fill="#5A5A5A"/>
<rect width="16" height="126" transform="matrix(-1 0 0 1 144 78)" fill="#5A5A5A"/>
<rect width="16" height="132" transform="matrix(1.19249e-08 -1 -1 -1.19249e-08 272 204)" fill="#5A5A5A"/>
<rect width="16" height="72" transform="matrix(1.19249e-08 -1 -1 -1.19249e-08 84 94)" fill="#5A5A5A"/>
<path d="M34.8975 116.807L33.7168 116.801L30.6511 116.845L23.0601 116.912L22.9715 106.955L34.8088 106.85C37.8255 106.823 40.3048 109.045 40.3293 111.796C40.3534 114.515 37.9142 116.78 34.8975 116.807Z" fill="white" stroke="#5A5A5A" stroke-width="0.5"/>
<path d="M34.8216 115.661L33.8871 115.67L26.329 115.737L26.2606 108.056L33.8188 107.989L34.7534 107.997C37.1307 107.976 39.0805 109.662 39.0994 111.791C39.1018 113.904 37.1825 115.64 34.8216 115.661Z" fill="white" stroke="#5A5A5A" stroke-width="0.5"/>
<path d="M16.594 105.211L21.8569 105.164C22.4635 105.158 22.9597 105.645 22.9651 106.251L23.0656 117.535C23.0709 118.141 22.5835 118.636 21.9768 118.642L16.714 118.689C16.1074 118.694 15.6111 118.207 15.6057 117.601L15.5055 106.334C15.4999 105.712 15.9874 105.216 16.594 105.211Z" fill="white" stroke="#5A5A5A" stroke-width="0.5"/>
<path d="M19.2716 111.279C19.6814 111.276 19.9955 111.568 19.9986 111.912C20.0182 112.272 19.6929 112.569 19.2831 112.573C18.8732 112.577 18.5591 112.285 18.5561 111.941C18.5691 111.564 18.878 111.266 19.2716 111.279Z" fill="white" stroke="#5A5A5A" stroke-width="0.5"/>
<path d="M46 133.848L46 121.54C46 120.685 46.6838 120 47.5385 120L66.0579 120C66.9127 120 67.5964 120.685 67.5964 121.54L67.5964 133.848C67.5964 134.704 66.9127 135.389 66.0579 135.389L47.5385 135.389C46.698 135.389 46 134.704 46 133.848Z" fill="white" stroke="#5A5A5A" stroke-width="0.5"/>
<path d="M47.9231 129.156L47.9231 127.259C47.9231 124.764 49.946 122.738 52.439 122.738L61.1574 122.738C63.6503 122.738 65.6732 124.764 65.6732 127.259L65.6732 129.156C65.6732 131.652 63.6503 133.677 61.1574 133.677L52.439 133.677C49.946 133.677 47.9231 131.652 47.9231 129.156Z" fill="white" stroke="#5A5A5A" stroke-width="0.5"/>
<path d="M55.8434 131.267C55.8434 130.724 56.2707 130.283 56.7978 130.283C57.3249 130.283 57.7522 130.724 57.7522 131.267C57.7522 131.81 57.3249 132.251 56.7978 132.251C56.2707 132.251 55.8434 131.81 55.8434 131.267Z" fill="white" stroke="#5A5A5A" stroke-width="0.5"/>
<rect width="16" height="72" transform="matrix(1.19249e-08 -1 -1 -1.19249e-08 84 257)" fill="#5A5A5A"/>
<rect width="16" height="25" transform="matrix(1.19249e-08 -1 -1 -1.19249e-08 144 257)" fill="#5A5A5A"/>
<rect width="16" height="40" transform="matrix(1 0 0 -1 30 40)" fill="#5A5A5A"/>
<rect width="16" height="17" transform="matrix(1 0 0 -1 30 90)" fill="#5A5A5A"/>
<rect width="16" height="261" transform="matrix(1.19249e-08 -1 -1 -1.19249e-08 291 16)" fill="#5A5A5A"/>
<path d="M8 135L8 143L84 143L84 135L8 135Z" fill="#5A5A5A"/>
<path d="M84 129L76 129L76 165L84 165L84 129Z" fill="#5A5A5A"/>
<path d="M84 78L76 78L76 102L84 102L84 78Z" fill="#5A5A5A"/>
<path d="M136 4L128 4L128 40L136 40L136 4Z" fill="#5A5A5A"/>
<path d="M84 193L76 193L76 257L84 257L84 193Z" fill="#5A5A5A"/>
<path d="M211.967 16L211.967 40.9953L236.291 40.9953L236.291 16L211.967 16Z" fill="white" stroke="#5A5A5A" stroke-width="0.5"/>
<path d="M212.893 38.9687L212.893 19.5157C212.893 18.7778 213.286 18.3853 214.055 18.3853L234.203 18.3853C234.988 18.3853 235.365 18.7621 235.365 19.5157L235.365 38.9687C235.381 39.7224 234.988 40.0992 234.219 40.0992L214.071 40.0992C213.286 40.1149 212.893 39.7224 212.893 38.9687Z" fill="white" stroke="#5A5A5A" stroke-width="0.5"/>
<path d="M219.395 37.1795C221.185 37.1638 222.645 35.7508 222.645 34.008C222.645 32.2496 221.185 30.8365 219.395 30.8365C217.589 30.8365 216.144 32.2496 216.144 34.008C216.144 35.7665 217.589 37.1795 219.395 37.1795Z" stroke="#5A5A5A" stroke-width="0.5"/>
<path d="M229.021 37.1493C230.811 37.1336 232.271 35.7206 232.271 33.9778C232.271 32.2194 230.811 30.8063 229.021 30.8063C227.215 30.8063 225.77 32.2194 225.77 33.9778C225.754 35.7363 227.215 37.165 229.021 37.1493Z" stroke="#5A5A5A" stroke-width="0.5"/>
<path d="M229.02 28.1357C230.826 28.1357 232.271 26.7227 232.271 24.9642C232.271 23.2057 230.811 21.7927 229.02 21.7927C227.23 21.8084 225.77 23.2214 225.77 24.9642C225.77 26.707 227.23 28.1357 229.02 28.1357Z" stroke="#5A5A5A" stroke-width="0.5"/>
<path d="M219.395 28.1357C221.2 28.1357 222.645 26.7227 222.645 24.9642C222.645 23.2057 221.185 21.7927 219.395 21.7927C217.604 21.8084 216.144 23.2214 216.144 24.9642C216.144 26.707 217.604 28.1357 219.395 28.1357Z" stroke="#5A5A5A" stroke-width="0.5"/>
<path d="M187.699 16.0152L187.699 40.1037L164 40.1037L164 16.0001L187.699 16.0152Z" fill="white" stroke="#5A5A5A" stroke-width="0.5"/>
<path d="M185.896 22.6215L185.896 35.9383C185.896 36.6807 185.532 37.0443 184.775 37.0443L167.167 37.0442C166.44 37.0442 166.061 36.6806 166.046 35.9535L166.061 22.6215C166.046 21.8943 166.425 21.5307 167.167 21.5307L184.775 21.5307C185.517 21.5004 185.896 21.8791 185.896 22.6215Z" fill="white" stroke="#5A5A5A" stroke-width="0.5"/>
<path d="M175.971 17.8636C175.047 17.8788 174.304 18.5757 174.304 19.4544L174.956 26.4385L174.971 26.4537C174.971 26.9839 175.41 27.4081 175.971 27.4081C176.532 27.4081 176.971 26.9839 176.986 26.4385L177.638 19.4544C177.638 18.5908 176.895 17.8788 175.971 17.8636Z" stroke="#5A5A5A" stroke-width="0.5"/>
<mask id="path-47-inside-1_24_4065" fill="white">
<path fill-rule="evenodd" clip-rule="evenodd" d="M174.592 18.5462L174.955 22.3488C174.971 22.8791 175.41 23.3184 175.986 23.3033C176.547 23.3033 176.971 22.8791 176.986 22.3488L177.35 18.5462"/>
</mask>
<path fill-rule="evenodd" clip-rule="evenodd" d="M174.592 18.5462L174.955 22.3488C174.971 22.8791 175.41 23.3184 175.986 23.3033C176.547 23.3033 176.971 22.8791 176.986 22.3488L177.35 18.5462" fill="white"/>
<path d="M174.955 22.3488L175.455 22.3346L175.455 22.3179L175.453 22.3012L174.955 22.3488ZM175.986 23.3033L175.986 22.8031L175.973 22.8035L175.986 23.3033ZM176.986 22.3488L176.488 22.3012L176.487 22.3179L176.486 22.3346L176.986 22.3488ZM174.094 18.5938L174.458 22.3964L175.453 22.3012L175.09 18.4986L174.094 18.5938ZM174.456 22.3631C174.479 23.1681 175.147 23.8255 175.999 23.8031L175.973 22.8035C175.673 22.8113 175.463 22.5901 175.455 22.3346L174.456 22.3631ZM175.986 23.8033C176.815 23.8033 177.463 23.1657 177.486 22.3631L176.486 22.3346C176.479 22.5925 176.278 22.8033 175.986 22.8033L175.986 23.8033ZM177.484 22.3964L177.847 18.5938L176.852 18.4986L176.488 22.3012L177.484 22.3964Z" fill="#5A5A5A" mask="url(#path-47-inside-1_24_4065)"/>
<path d="M16 143V241L76 240.433V143H16Z" fill="#FFC79F"/>
<path d="M16.3441 215.801L74.6559 215.801C75.4026 215.801 76 216.398 76 217.144L76 240.293C76 241.039 75.4026 241.635 74.6559 241.635L16.3441 241.635C15.5974 241.635 15 241.039 15 240.293L15 217.144C15 216.398 15.6109 215.801 16.3441 215.801Z" fill="white" stroke="#5A5A5A" stroke-width="0.5"/>
<path d="M72.4155 225.579L72.4155 231.872C72.4155 235.52 69.4558 238.463 65.8172 238.463L19.9009 238.463C19.0048 238.463 18.2853 237.744 18.2853 236.849L18.2853 220.575C18.2853 219.68 19.0048 218.962 19.9009 218.962L65.8036 218.962C69.4558 218.975 72.4155 221.931 72.4155 225.579Z" fill="white" stroke="#5A5A5A" stroke-width="0.5"/>
<path d="M23.7297 228.264C23.7297 227.538 23.1158 226.949 22.3585 226.949C21.6012 226.949 20.9873 227.538 20.9873 228.264C20.9873 228.99 21.6012 229.579 22.3585 229.579C23.1158 229.579 23.7297 228.99 23.7297 228.264Z" fill="white" stroke="#5A5A5A" stroke-width="0.5"/>
<path d="M35.5088 170.807L34.3282 170.801L31.2624 170.845L23.6715 170.912L23.5829 160.955L35.4202 160.85C38.4369 160.823 40.9161 163.045 40.9406 165.796C40.9648 168.515 38.5255 170.78 35.5088 170.807Z" fill="white" stroke="#5A5A5A" stroke-width="0.5"/>
<path d="M35.433 169.661L34.4984 169.67L26.9403 169.737L26.8719 162.056L34.4301 161.989L35.3648 161.997C37.7421 161.976 39.6918 163.662 39.7108 165.791C39.7132 167.904 37.7939 169.64 35.433 169.661Z" fill="white" stroke="#5A5A5A" stroke-width="0.5"/>
<path d="M17.2054 159.211L22.4682 159.164C23.0748 159.158 23.5711 159.645 23.5765 160.251L23.6769 171.535C23.6823 172.141 23.1948 172.636 22.5882 172.642L17.3253 172.688C16.7187 172.694 16.2225 172.207 16.2171 171.601L16.1168 160.334C16.1112 159.712 16.5987 159.216 17.2054 159.211Z" fill="white" stroke="#5A5A5A" stroke-width="0.5"/>
<path d="M19.8829 165.279C20.2928 165.276 20.6069 165.568 20.6099 165.912C20.6295 166.272 20.3043 166.569 19.8944 166.573C19.4846 166.577 19.1705 166.285 19.1674 165.941C19.1804 165.564 19.4893 165.266 19.8829 165.279Z" fill="white" stroke="#5A5A5A" stroke-width="0.5"/>
<path d="M17.1516 180L29.4597 180C30.3154 180 31 180.684 31 181.539L31 200.058C31 200.913 30.3154 201.596 29.4597 201.596L17.1516 201.596C16.2959 201.596 15.6113 200.913 15.6113 200.058L15.6113 181.539C15.6113 180.698 16.2959 180 17.1516 180Z" fill="white" stroke="#5A5A5A" stroke-width="0.5"/>
<path d="M21.8437 181.923L23.7405 181.923C26.2363 181.923 28.2615 183.946 28.2615 186.439L28.2615 195.157C28.2615 197.65 26.2363 199.673 23.7405 199.673L21.8437 199.673C19.3478 199.673 17.3226 197.65 17.3226 195.157L17.3226 186.439C17.3226 183.946 19.3478 181.923 21.8437 181.923Z" fill="white" stroke="#5A5A5A" stroke-width="0.5"/>
<path d="M19.7329 189.843C20.2763 189.843 20.7169 190.271 20.7169 190.798C20.7169 191.325 20.2763 191.752 19.7329 191.752C19.1894 191.752 18.7489 191.325 18.7489 190.798C18.7489 190.271 19.1894 189.843 19.7329 189.843Z" fill="white" stroke="#5A5A5A" stroke-width="0.5"/>
<path d="M49.25 386.25L270.661 386.402L270.748 397.75L49.25 397.75L49.25 386.25Z" stroke="#5A5A5A" stroke-width="0.5" stroke-miterlimit="10"/>
<path d="M297.75 187.25L297.598 408.661L286.25 408.748L286.25 187.25L297.75 187.25Z" stroke="#5A5A5A" stroke-width="0.5" stroke-miterlimit="10"/>
<path d="M49.2504 404.25L270.661 404.402L270.748 415.75L49.2504 415.75L49.2504 404.25Z" stroke="#5A5A5A" stroke-width="0.5" stroke-miterlimit="10"/>
<path d="M279.75 187.25L279.598 408.661L268.25 408.748L268.25 187.25L279.75 187.25Z" stroke="#5A5A5A" stroke-width="0.5" stroke-miterlimit="10"/>
<path d="M45.42 113V111.46L48.766 109.094C49.494 108.571 50.0167 108.086 50.334 107.638C50.6513 107.19 50.81 106.714 50.81 106.21C50.81 105.678 50.6467 105.253 50.32 104.936C49.9933 104.619 49.55 104.46 48.99 104.46C48.2993 104.46 47.7813 104.74 47.436 105.3C47.2867 105.543 47.1747 105.823 47.1 106.14H45.42C45.504 105.543 45.686 105.006 45.966 104.53C46.6287 103.457 47.6367 102.92 48.99 102.92C50.026 102.92 50.866 103.228 51.51 103.844C52.1633 104.451 52.49 105.216 52.49 106.14C52.49 106.943 52.2847 107.666 51.874 108.31C51.4633 108.945 50.8053 109.575 49.9 110.2L48.5 111.18L47.87 111.46V111.53L48.71 111.46H52.49V113H45.42ZM53.6127 112.23C53.6127 111.95 53.7014 111.717 53.8787 111.53C54.0654 111.343 54.2941 111.25 54.5647 111.25C54.8727 111.25 55.1154 111.362 55.2927 111.586C55.4794 111.81 55.5727 112.141 55.5727 112.58C55.5727 113.299 55.4001 113.849 55.0547 114.232C54.7187 114.624 54.2614 114.82 53.6827 114.82V114.12C53.9627 114.12 54.1821 114.041 54.3407 113.882C54.5087 113.733 54.5927 113.532 54.5927 113.28V113.196C54.5834 113.187 54.5787 113.168 54.5787 113.14V113.098L54.4947 113.126C54.4667 113.135 54.4061 113.14 54.3127 113.14C54.1261 113.14 53.9627 113.056 53.8227 112.888C53.6827 112.72 53.6127 112.501 53.6127 112.23ZM56.5489 113V111.46L59.8949 109.094C60.6229 108.571 61.1456 108.086 61.4629 107.638C61.7802 107.19 61.9389 106.714 61.9389 106.21C61.9389 105.678 61.7756 105.253 61.4489 104.936C61.1222 104.619 60.6789 104.46 60.1189 104.46C59.4282 104.46 58.9102 104.74 58.5649 105.3C58.4156 105.543 58.3036 105.823 58.2289 106.14H56.5489C56.6329 105.543 56.8149 105.006 57.0949 104.53C57.7576 103.457 58.7656 102.92 60.1189 102.92C61.1549 102.92 61.9949 103.228 62.6389 103.844C63.2922 104.451 63.6189 105.216 63.6189 106.14C63.6189 106.943 63.4136 107.666 63.0029 108.31C62.5922 108.945 61.9342 109.575 61.0289 110.2L59.6289 111.18L58.9989 111.46V111.53L59.8389 111.46H63.6189V113H56.5489ZM64.6016 110.2H66.2816C66.347 110.489 66.473 110.746 66.6596 110.97C67.0796 111.483 67.677 111.74 68.4516 111.74C69.0956 111.74 69.6043 111.581 69.9776 111.264C70.3603 110.937 70.5516 110.536 70.5516 110.06C70.5516 109.519 70.379 109.094 70.0336 108.786C69.6976 108.469 69.217 108.31 68.5916 108.31H66.2116V106.91L69.1516 104.81V104.74H65.0916V103.2H71.5316V104.726L69.0116 106.56L68.3116 106.84V106.91L68.5356 106.882C68.8436 106.854 69.0256 106.84 69.0816 106.84C69.959 106.84 70.6916 107.143 71.2796 107.75C71.8676 108.357 72.1616 109.127 72.1616 110.06C72.1616 110.956 71.8163 111.717 71.1256 112.342C70.435 112.967 69.5436 113.28 68.4516 113.28C67.005 113.28 65.9363 112.767 65.2456 111.74C64.947 111.301 64.7323 110.788 64.6016 110.2Z" fill="#333333"/>
<path d="M39.56 185.27H41.24C41.3147 185.559 41.4407 185.807 41.618 186.012C42.0287 186.497 42.626 186.74 43.41 186.74C44.0353 186.74 44.53 186.572 44.894 186.236C45.258 185.9 45.44 185.461 45.44 184.92C45.44 184.351 45.258 183.893 44.894 183.548C44.53 183.203 44.0353 183.03 43.41 183.03C42.8313 183.03 42.3413 183.184 41.94 183.492C41.7813 183.613 41.6413 183.763 41.52 183.94H39.98L40.4 178.2H46.35V179.74H41.73L41.52 182.26H41.59C41.7393 182.111 41.912 181.985 42.108 181.882C42.5467 181.621 43.074 181.49 43.69 181.49C44.67 181.49 45.4867 181.817 46.14 182.47C46.7933 183.123 47.12 183.94 47.12 184.92C47.12 185.881 46.7747 186.684 46.084 187.328C45.4027 187.963 44.5113 188.28 43.41 188.28C41.9727 188.28 40.904 187.781 40.204 186.782C39.9053 186.343 39.6907 185.839 39.56 185.27ZM48.1733 187.23C48.1733 186.95 48.2619 186.717 48.4393 186.53C48.6259 186.343 48.8546 186.25 49.1253 186.25C49.4333 186.25 49.6759 186.362 49.8533 186.586C50.0399 186.81 50.1333 187.141 50.1333 187.58C50.1333 188.299 49.9606 188.849 49.6153 189.232C49.2793 189.624 48.8219 189.82 48.2433 189.82V189.12C48.5233 189.12 48.7426 189.041 48.9013 188.882C49.0693 188.733 49.1533 188.532 49.1533 188.28V188.196C49.1439 188.187 49.1393 188.168 49.1393 188.14V188.098L49.0553 188.126C49.0273 188.135 48.9666 188.14 48.8733 188.14C48.6866 188.14 48.5233 188.056 48.3833 187.888C48.2433 187.72 48.1733 187.501 48.1733 187.23ZM52.6495 186.824C51.7628 185.853 51.3195 184.612 51.3195 183.1C51.3195 181.588 51.7628 180.347 52.6495 179.376C53.5361 178.405 54.6095 177.92 55.8695 177.92C57.1295 177.92 58.2028 178.405 59.0895 179.376C59.9761 180.347 60.4195 181.588 60.4195 183.1C60.4195 184.612 59.9761 185.853 59.0895 186.824C58.2028 187.795 57.1295 188.28 55.8695 188.28C54.6095 188.28 53.5361 187.795 52.6495 186.824ZM53.7975 180.412C53.2655 181.047 52.9995 181.943 52.9995 183.1C52.9995 184.257 53.2655 185.153 53.7975 185.788C54.3388 186.423 55.0295 186.74 55.8695 186.74C56.7095 186.74 57.3955 186.423 57.9275 185.788C58.4688 185.153 58.7395 184.257 58.7395 183.1C58.7395 181.943 58.4688 181.047 57.9275 180.412C57.3955 179.777 56.7095 179.46 55.8695 179.46C55.0295 179.46 54.3388 179.777 53.7975 180.412ZM61.6127 185.34C61.6127 184.491 61.9394 183.814 62.5927 183.31C62.8727 183.114 63.1994 182.965 63.5727 182.862V182.778C63.2834 182.666 63.0267 182.512 62.8027 182.316C62.2894 181.877 62.0327 181.299 62.0327 180.58C62.0327 179.843 62.3454 179.217 62.9707 178.704C63.6054 178.181 64.4594 177.92 65.5327 177.92C66.6061 177.92 67.4554 178.181 68.0807 178.704C68.7154 179.217 69.0327 179.843 69.0327 180.58C69.0327 181.28 68.7761 181.859 68.2627 182.316C68.0201 182.512 67.7634 182.666 67.4927 182.778V182.862C67.8474 182.955 68.1741 183.109 68.4727 183.324C69.1261 183.828 69.4527 184.5 69.4527 185.34C69.4527 186.152 69.0981 186.847 68.3887 187.426C67.6887 187.995 66.7367 188.28 65.5327 188.28C64.3287 188.28 63.3721 187.995 62.6627 187.426C61.9627 186.847 61.6127 186.152 61.6127 185.34ZM63.7127 180.72C63.7127 181.131 63.8714 181.467 64.1887 181.728C64.5061 181.989 64.9541 182.12 65.5327 182.12C66.1114 182.12 66.5594 181.989 66.8767 181.728C67.1941 181.467 67.3527 181.131 67.3527 180.72C67.3527 180.347 67.1894 180.034 66.8627 179.782C66.5454 179.521 66.1021 179.39 65.5327 179.39C64.9634 179.39 64.5154 179.521 64.1887 179.782C63.8714 180.034 63.7127 180.347 63.7127 180.72ZM63.8807 184.066C63.4887 184.374 63.2927 184.752 63.2927 185.2C63.2927 185.648 63.4887 186.031 63.8807 186.348C64.2821 186.656 64.8327 186.81 65.5327 186.81C66.2327 186.81 66.7787 186.656 67.1707 186.348C67.5721 186.031 67.7727 185.648 67.7727 185.2C67.7727 184.752 67.5721 184.374 67.1707 184.066C66.7787 183.749 66.2327 183.59 65.5327 183.59C64.8327 183.59 64.2821 183.749 63.8807 184.066Z" fill="#333333"/>
<path d="M200.35 124.42V122.6L202.17 121.2H203.64V131H202.03V123.16L200.35 124.42ZM204.761 122.74V121.2H211.411V122.74L207.491 131H205.741L209.591 122.88V122.74H204.761ZM210.855 130.23C210.855 129.95 210.944 129.717 211.121 129.53C211.308 129.343 211.536 129.25 211.807 129.25C212.115 129.25 212.358 129.362 212.535 129.586C212.722 129.81 212.815 130.141 212.815 130.58C212.815 131.299 212.642 131.849 212.297 132.232C211.961 132.624 211.504 132.82 210.925 132.82V132.12C211.205 132.12 211.424 132.041 211.583 131.882C211.751 131.733 211.835 131.532 211.835 131.28V131.196C211.826 131.187 211.821 131.168 211.821 131.14V131.098L211.737 131.126C211.709 131.135 211.648 131.14 211.555 131.14C211.368 131.14 211.205 131.056 211.065 130.888C210.925 130.72 210.855 130.501 210.855 130.23ZM213.511 122.74V121.2H220.161V122.74L216.241 131H214.491L218.341 122.88V122.74H213.511ZM220.789 124.42V122.6L222.609 121.2H224.079V131H222.469V123.16L220.789 124.42Z" fill="#333333"/>
<path d="M310.42 112.2H312.1C312.165 112.489 312.291 112.746 312.478 112.97C312.898 113.483 313.495 113.74 314.27 113.74C314.914 113.74 315.423 113.581 315.796 113.264C316.179 112.937 316.37 112.536 316.37 112.06C316.37 111.519 316.197 111.094 315.852 110.786C315.516 110.469 315.035 110.31 314.41 110.31H312.03V108.91L314.97 106.81V106.74H310.91V105.2H317.35V106.726L314.83 108.56L314.13 108.84V108.91L314.354 108.882C314.662 108.854 314.844 108.84 314.9 108.84C315.777 108.84 316.51 109.143 317.098 109.75C317.686 110.357 317.98 111.127 317.98 112.06C317.98 112.956 317.635 113.717 316.944 114.342C316.253 114.967 315.362 115.28 314.27 115.28C312.823 115.28 311.755 114.767 311.064 113.74C310.765 113.301 310.551 112.788 310.42 112.2ZM319.037 114.23C319.037 113.95 319.125 113.717 319.303 113.53C319.489 113.343 319.718 113.25 319.989 113.25C320.297 113.25 320.539 113.362 320.717 113.586C320.903 113.81 320.997 114.141 320.997 114.58C320.997 115.299 320.824 115.849 320.479 116.232C320.143 116.624 319.685 116.82 319.107 116.82V116.12C319.387 116.12 319.606 116.041 319.765 115.882C319.933 115.733 320.017 115.532 320.017 115.28V115.196C320.007 115.187 320.003 115.168 320.003 115.14V115.098L319.919 115.126C319.891 115.135 319.83 115.14 319.737 115.14C319.55 115.14 319.387 115.056 319.247 114.888C319.107 114.72 319.037 114.501 319.037 114.23ZM322.043 111.78C322.043 111.332 322.141 110.865 322.337 110.38C322.542 109.885 322.738 109.498 322.925 109.218C323.121 108.929 323.387 108.569 323.723 108.14L325.963 105.2H327.853L325.739 107.958L325.123 108.49V108.56L325.403 108.462C325.683 108.387 325.986 108.35 326.313 108.35C327.227 108.35 328.002 108.681 328.637 109.344C329.281 109.997 329.603 110.809 329.603 111.78C329.603 112.769 329.248 113.6 328.539 114.272C327.829 114.944 326.924 115.28 325.823 115.28C324.721 115.28 323.816 114.944 323.107 114.272C322.397 113.6 322.043 112.769 322.043 111.78ZM324.297 110.324C323.914 110.697 323.723 111.183 323.723 111.78C323.723 112.377 323.914 112.867 324.297 113.25C324.679 113.623 325.188 113.81 325.823 113.81C326.457 113.81 326.966 113.623 327.349 113.25C327.731 112.867 327.923 112.377 327.923 111.78C327.923 111.183 327.731 110.697 327.349 110.324C326.966 109.941 326.457 109.75 325.823 109.75C325.188 109.75 324.679 109.941 324.297 110.324ZM330.656 111.78C330.656 111.332 330.754 110.865 330.95 110.38C331.155 109.885 331.351 109.498 331.538 109.218C331.734 108.929 332 108.569 332.336 108.14L334.576 105.2H336.466L334.352 107.958L333.736 108.49V108.56L334.016 108.462C334.296 108.387 334.599 108.35 334.926 108.35C335.841 108.35 336.615 108.681 337.25 109.344C337.894 109.997 338.216 110.809 338.216 111.78C338.216 112.769 337.861 113.6 337.152 114.272C336.443 114.944 335.537 115.28 334.436 115.28C333.335 115.28 332.429 114.944 331.72 114.272C331.011 113.6 330.656 112.769 330.656 111.78ZM332.91 110.324C332.527 110.697 332.336 111.183 332.336 111.78C332.336 112.377 332.527 112.867 332.91 113.25C333.293 113.623 333.801 113.81 334.436 113.81C335.071 113.81 335.579 113.623 335.962 113.25C336.345 112.867 336.536 112.377 336.536 111.78C336.536 111.183 336.345 110.697 335.962 110.324C335.579 109.941 335.071 109.75 334.436 109.75C333.801 109.75 333.293 109.941 332.91 110.324Z" fill="#333333"/>
<path d="M67.42 349.2H69.1C69.1653 349.489 69.2913 349.746 69.478 349.97C69.898 350.483 70.4953 350.74 71.27 350.74C71.914 350.74 72.4227 350.581 72.796 350.264C73.1787 349.937 73.37 349.536 73.37 349.06C73.37 348.519 73.1973 348.094 72.852 347.786C72.516 347.469 72.0353 347.31 71.41 347.31H69.03V345.91L71.97 343.81V343.74H67.91V342.2H74.35V343.726L71.83 345.56L71.13 345.84V345.91L71.354 345.882C71.662 345.854 71.844 345.84 71.9 345.84C72.7773 345.84 73.51 346.143 74.098 346.75C74.686 347.357 74.98 348.127 74.98 349.06C74.98 349.956 74.6347 350.717 73.944 351.342C73.2533 351.967 72.362 352.28 71.27 352.28C69.8233 352.28 68.7547 351.767 68.064 350.74C67.7653 350.301 67.5507 349.788 67.42 349.2ZM75.8266 345.42V343.6L77.6466 342.2H79.1166V352H77.5066V344.16L75.8266 345.42ZM80.6577 351.23C80.6577 350.95 80.7463 350.717 80.9237 350.53C81.1103 350.343 81.339 350.25 81.6097 350.25C81.9177 350.25 82.1603 350.362 82.3377 350.586C82.5243 350.81 82.6177 351.141 82.6177 351.58C82.6177 352.299 82.445 352.849 82.0997 353.232C81.7637 353.624 81.3063 353.82 80.7277 353.82V353.12C81.0077 353.12 81.227 353.041 81.3857 352.882C81.5537 352.733 81.6377 352.532 81.6377 352.28V352.196C81.6283 352.187 81.6237 352.168 81.6237 352.14V352.098L81.5397 352.126C81.5117 352.135 81.451 352.14 81.3577 352.14C81.171 352.14 81.0077 352.056 80.8677 351.888C80.7277 351.72 80.6577 351.501 80.6577 351.23ZM83.5238 345.42V343.6L85.3438 342.2H86.8138V352H85.2038V344.16L83.5238 345.42ZM88.2149 349.2H89.8949C89.9603 349.489 90.0863 349.746 90.2729 349.97C90.6929 350.483 91.2903 350.74 92.0649 350.74C92.7089 350.74 93.2176 350.581 93.5909 350.264C93.9736 349.937 94.1649 349.536 94.1649 349.06C94.1649 348.519 93.9923 348.094 93.6469 347.786C93.3109 347.469 92.8303 347.31 92.2049 347.31H89.8249V345.91L92.7649 343.81V343.74H88.7049V342.2H95.1449V343.726L92.6249 345.56L91.9249 345.84V345.91L92.1489 345.882C92.4569 345.854 92.6389 345.84 92.6949 345.84C93.5723 345.84 94.3049 346.143 94.8929 346.75C95.4809 347.357 95.7749 348.127 95.7749 349.06C95.7749 349.956 95.4296 350.717 94.7389 351.342C94.0483 351.967 93.1569 352.28 92.0649 352.28C90.6183 352.28 89.5496 351.767 88.8589 350.74C88.5603 350.301 88.3456 349.788 88.2149 349.2Z" fill="#333333"/>
<path d="M66.35 40.42V38.6L68.17 37.2H69.64V47H68.03V39.16L66.35 40.42ZM72.5811 45.824C71.6944 44.8533 71.2511 43.612 71.2511 42.1C71.2511 40.588 71.6944 39.3467 72.5811 38.376C73.4678 37.4053 74.5411 36.92 75.8011 36.92C77.0611 36.92 78.1344 37.4053 79.0211 38.376C79.9078 39.3467 80.3511 40.588 80.3511 42.1C80.3511 43.612 79.9078 44.8533 79.0211 45.824C78.1344 46.7947 77.0611 47.28 75.8011 47.28C74.5411 47.28 73.4678 46.7947 72.5811 45.824ZM73.7291 39.412C73.1971 40.0467 72.9311 40.9427 72.9311 42.1C72.9311 43.2573 73.1971 44.1533 73.7291 44.788C74.2704 45.4227 74.9611 45.74 75.8011 45.74C76.6411 45.74 77.3271 45.4227 77.8591 44.788C78.4004 44.1533 78.6711 43.2573 78.6711 42.1C78.6711 40.9427 78.4004 40.0467 77.8591 39.412C77.3271 38.7773 76.6411 38.46 75.8011 38.46C74.9611 38.46 74.2704 38.7773 73.7291 39.412ZM81.5444 46.23C81.5444 45.95 81.633 45.7167 81.8104 45.53C81.997 45.3433 82.2257 45.25 82.4964 45.25C82.8044 45.25 83.047 45.362 83.2244 45.586C83.411 45.81 83.5044 46.1413 83.5044 46.58C83.5044 47.2987 83.3317 47.8493 82.9864 48.232C82.6504 48.624 82.193 48.82 81.6144 48.82V48.12C81.8944 48.12 82.1137 48.0407 82.2724 47.882C82.4404 47.7327 82.5244 47.532 82.5244 47.28V47.196C82.515 47.1867 82.5104 47.168 82.5104 47.14V47.098L82.4264 47.126C82.3984 47.1353 82.3377 47.14 82.2444 47.14C82.0577 47.14 81.8944 47.056 81.7544 46.888C81.6144 46.72 81.5444 46.5007 81.5444 46.23ZM84.4105 40.42V38.6L86.2305 37.2H87.7005V47H86.0905V39.16L84.4105 40.42ZM90.6416 45.824C89.755 44.8533 89.3116 43.612 89.3116 42.1C89.3116 40.588 89.755 39.3467 90.6416 38.376C91.5283 37.4053 92.6016 36.92 93.8616 36.92C95.1216 36.92 96.195 37.4053 97.0816 38.376C97.9683 39.3467 98.4116 40.588 98.4116 42.1C98.4116 43.612 97.9683 44.8533 97.0816 45.824C96.195 46.7947 95.1216 47.28 93.8616 47.28C92.6016 47.28 91.5283 46.7947 90.6416 45.824ZM91.7896 39.412C91.2576 40.0467 90.9916 40.9427 90.9916 42.1C90.9916 43.2573 91.2576 44.1533 91.7896 44.788C92.331 45.4227 93.0216 45.74 93.8616 45.74C94.7016 45.74 95.3876 45.4227 95.9196 44.788C96.461 44.1533 96.7316 43.2573 96.7316 42.1C96.7316 40.9427 96.461 40.0467 95.9196 39.412C95.3876 38.7773 94.7016 38.46 93.8616 38.46C93.0216 38.46 92.331 38.7773 91.7896 39.412Z" fill="#333333"/>
<circle cx="184.5" cy="300.5" r="39.5" fill="#5A5A5A"/>
<path d="M158.63 303.86C158.63 303.284 158.756 302.684 159.008 302.06C159.272 301.424 159.524 300.926 159.764 300.566C160.016 300.194 160.358 299.732 160.79 299.18L163.67 295.4H166.1L163.382 298.946L162.59 299.63V299.72L162.95 299.594C163.31 299.498 163.7 299.45 164.12 299.45C165.296 299.45 166.292 299.876 167.108 300.728C167.936 301.568 168.35 302.612 168.35 303.86C168.35 305.132 167.894 306.2 166.982 307.064C166.07 307.928 164.906 308.36 163.49 308.36C162.074 308.36 160.91 307.928 159.998 307.064C159.086 306.2 158.63 305.132 158.63 303.86ZM161.528 301.988C161.036 302.468 160.79 303.092 160.79 303.86C160.79 304.628 161.036 305.258 161.528 305.75C162.02 306.23 162.674 306.47 163.49 306.47C164.306 306.47 164.96 306.23 165.452 305.75C165.944 305.258 166.19 304.628 166.19 303.86C166.19 303.092 165.944 302.468 165.452 301.988C164.96 301.496 164.306 301.25 163.49 301.25C162.674 301.25 162.02 301.496 161.528 301.988ZM169.704 303.86C169.704 303.284 169.83 302.684 170.082 302.06C170.346 301.424 170.598 300.926 170.838 300.566C171.09 300.194 171.432 299.732 171.864 299.18L174.744 295.4H177.174L174.456 298.946L173.664 299.63V299.72L174.024 299.594C174.384 299.498 174.774 299.45 175.194 299.45C176.37 299.45 177.366 299.876 178.182 300.728C179.01 301.568 179.424 302.612 179.424 303.86C179.424 305.132 178.968 306.2 178.056 307.064C177.144 307.928 175.98 308.36 174.564 308.36C173.148 308.36 171.984 307.928 171.072 307.064C170.16 306.2 169.704 305.132 169.704 303.86ZM172.602 301.988C172.11 302.468 171.864 303.092 171.864 303.86C171.864 304.628 172.11 305.258 172.602 305.75C173.094 306.23 173.748 306.47 174.564 306.47C175.38 306.47 176.034 306.23 176.526 305.75C177.018 305.258 177.264 304.628 177.264 303.86C177.264 303.092 177.018 302.468 176.526 301.988C176.034 301.496 175.38 301.25 174.564 301.25C173.748 301.25 173.094 301.496 172.602 301.988ZM180.868 307.01C180.868 306.65 180.982 306.35 181.21 306.11C181.45 305.87 181.744 305.75 182.092 305.75C182.488 305.75 182.8 305.894 183.028 306.182C183.268 306.47 183.388 306.896 183.388 307.46C183.388 308.384 183.166 309.092 182.722 309.584C182.29 310.088 181.702 310.34 180.958 310.34V309.44C181.318 309.44 181.6 309.338 181.804 309.134C182.02 308.942 182.128 308.684 182.128 308.36V308.252C182.116 308.24 182.11 308.216 182.11 308.18V308.126L182.002 308.162C181.966 308.174 181.888 308.18 181.768 308.18C181.528 308.18 181.318 308.072 181.138 307.856C180.958 307.64 180.868 307.358 180.868 307.01ZM184.644 308V306.02L188.946 302.978C189.882 302.306 190.554 301.682 190.962 301.106C191.37 300.53 191.574 299.918 191.574 299.27C191.574 298.586 191.364 298.04 190.944 297.632C190.524 297.224 189.954 297.02 189.234 297.02C188.346 297.02 187.68 297.38 187.236 298.1C187.044 298.412 186.9 298.772 186.804 299.18H184.644C184.752 298.412 184.986 297.722 185.346 297.11C186.198 295.73 187.494 295.04 189.234 295.04C190.566 295.04 191.646 295.436 192.474 296.228C193.314 297.008 193.734 297.992 193.734 299.18C193.734 300.212 193.47 301.142 192.942 301.97C192.414 302.786 191.568 303.596 190.404 304.4L188.604 305.66L187.794 306.02V306.11L188.874 306.02H193.734V308H184.644ZM195.177 304.49H197.337C197.433 304.862 197.595 305.18 197.823 305.444C198.351 306.068 199.119 306.38 200.127 306.38C200.931 306.38 201.567 306.164 202.035 305.732C202.503 305.3 202.737 304.736 202.737 304.04C202.737 303.308 202.503 302.72 202.035 302.276C201.567 301.832 200.931 301.61 200.127 301.61C199.383 301.61 198.753 301.808 198.237 302.204C198.033 302.36 197.853 302.552 197.697 302.78H195.717L196.257 295.4H203.907V297.38H197.967L197.697 300.62H197.787C197.979 300.428 198.201 300.266 198.453 300.134C199.017 299.798 199.695 299.63 200.487 299.63C201.747 299.63 202.797 300.05 203.637 300.89C204.477 301.73 204.897 302.78 204.897 304.04C204.897 305.276 204.453 306.308 203.565 307.136C202.689 307.952 201.543 308.36 200.127 308.36C198.279 308.36 196.905 307.718 196.005 306.434C195.621 305.87 195.345 305.222 195.177 304.49Z" fill="white"/>
<rect x="141" y="80" width="2" height="10.7462" transform="rotate(-90 141 80)" fill="#5A5A5A"/>
<rect x="190.823" y="80" width="2" height="10.7462" transform="rotate(-90 190.823 80)" fill="#5A5A5A"/>
<rect x="174.215" y="80" width="2" height="10.7462" transform="rotate(-90 174.215 80)" fill="#5A5A5A"/>
<rect x="157.608" y="80" width="2" height="10.7462" transform="rotate(-90 157.608 80)" fill="#5A5A5A"/>
<rect x="207.431" y="80" width="2" height="10.7462" transform="rotate(-90 207.431 80)" fill="#5A5A5A"/>
<rect x="224.038" y="80" width="2" height="10.7462" transform="rotate(-90 224.038 80)" fill="#5A5A5A"/>
<rect x="240.646" y="80" width="2" height="10.7462" transform="rotate(-90 240.646 80)" fill="#5A5A5A"/>
<rect x="257.254" y="80" width="2" height="10.7462" transform="rotate(-90 257.254 80)" fill="#5A5A5A"/>
<line x1="130.433" y1="38.2495" x2="111.433" y2="71.2495" stroke="#5A5A5A"/>
<line x1="81.5742" y1="130.738" x2="97.5742" y2="104.738" stroke="#5A5A5A"/>
<line x1="81.5622" y1="195.758" x2="97.5622" y2="166.758" stroke="#5A5A5A"/>
<line x1="80.7519" y1="244.566" x2="115.752" y2="224.566" stroke="#5A5A5A"/>
<line x1="134.423" y1="202.733" x2="158.423" y2="240.733" stroke="#5A5A5A"/>
<line x1="32.586" y1="74.2804" x2="11.586" y2="43.2804" stroke="#5A5A5A"/>
</svg>
