<svg width="339" height="589" viewBox="0 0 339 589" fill="none" xmlns="http://www.w3.org/2000/svg">
<rect width="259" height="129" transform="matrix(-1.19249e-08 -1 -1 1.19249e-08 328 462)" fill="#E7FFD5"/>
<rect width="96" height="66" transform="matrix(-1.19249e-08 -1 -1 1.19249e-08 257 557)" fill="#E7FFD5"/>
<path d="M327 305L327 81.0001L68 81.0001L68 305L327 305Z" fill="#E7FFD5"/>
<rect width="83" height="63" transform="matrix(-1.19249e-08 -1 -1 1.19249e-08 328 466)" fill="#FDFF9F"/>
<rect width="55.9047" height="29.6454" transform="matrix(0.707107 -0.707107 -0.707107 -0.707107 150.797 517.493)" fill="#FDFF9F"/>
<path d="M208 408L208 203L68 203L68 430L208 408Z" fill="#E7FFD5"/>
<path d="M200 423.817L200 323L70 426L130 490L200 423.817Z" fill="#E7FFD5"/>
<path d="M214 443.817L214 343L104 476L144 510L214 443.817Z" fill="#E7FFD5"/>
<path d="M191 552L191 459L171 459L140 495.5L191 552Z" fill="#E7FFD5"/>
<rect width="30" height="50" transform="matrix(-1.19249e-08 -1 -1 1.19249e-08 329 81.0001)" fill="#5A5A5A"/>
<rect width="12" height="419" transform="matrix(-1 0 0 1 339 51)" fill="#5A5A5A"/>
<rect width="2" height="11" transform="matrix(-4.37114e-08 1 1 4.37114e-08 96 416)" fill="#5A5A5A"/>
<rect width="2" height="11" transform="matrix(-4.37114e-08 1 1 4.37114e-08 79 416)" fill="#5A5A5A"/>
<rect width="2" height="11" transform="matrix(-4.37114e-08 1 1 4.37114e-08 62 416)" fill="#5A5A5A"/>
<rect width="2" height="11" transform="matrix(-4.37114e-08 1 1 4.37114e-08 113 416)" fill="#5A5A5A"/>
<rect width="2" height="11" transform="matrix(-4.37114e-08 1 1 4.37114e-08 130 416)" fill="#5A5A5A"/>
<rect width="2" height="11" transform="matrix(-4.37114e-08 1 1 4.37114e-08 147 416)" fill="#5A5A5A"/>
<rect width="2" height="11" transform="matrix(-4.37114e-08 1 1 4.37114e-08 164 416)" fill="#5A5A5A"/>
<rect width="2" height="11" transform="matrix(-4.37114e-08 1 1 4.37114e-08 181 416)" fill="#5A5A5A"/>
<rect width="2" height="11" transform="matrix(-4.37114e-08 1 1 4.37114e-08 198 416)" fill="#5A5A5A"/>
<rect width="16" height="233.651" transform="matrix(-0.707107 0.707107 0.707107 0.707107 47.7832 396.131)" fill="#5A5A5A"/>
<rect width="16" height="61" transform="matrix(4.37114e-08 1 1 -4.37114e-08 202 557)" fill="#5A5A5A"/>
<rect width="16" height="54" transform="matrix(-1 -8.74228e-08 -8.74228e-08 1 273 519)" fill="#5A5A5A"/>
<rect width="16" height="23" transform="matrix(-1 -8.74228e-08 -8.74228e-08 1 273 461)" fill="#5A5A5A"/>
<path d="M210.961 445.888L205.304 440.232L141.001 504.535L146.657 510.192L210.961 445.888Z" fill="#5A5A5A"/>
<path d="M265 439H257V462H265L265 439Z" fill="#5A5A5A"/>
<path d="M211 416H203V446H211L211 416Z" fill="#5A5A5A"/>
<path d="M330 386L330 378L257 378L257 386L330 386Z" fill="#5A5A5A"/>
<path d="M257 413H265V362H257L257 413Z" fill="#5A5A5A"/>
<path d="M257 332H265V271H257L257 332Z" fill="#5A5A5A"/>
<path d="M257 267L257 275L328 275L328 267L257 267Z" fill="#5A5A5A"/>
<path d="M206 320L206 328L265 328L265 320L206 320Z" fill="#5A5A5A"/>
<path d="M211 320L204 320L204 338L211 338L211 320Z" fill="#5A5A5A"/>
<path d="M257 461L257 469L330 469L330 461L257 461Z" fill="#5A5A5A"/>
<rect width="30" height="71" transform="matrix(-1.19249e-08 -1 -1 1.19249e-08 223 81)" fill="#5A5A5A"/>
<path d="M282.75 80.7496L189.288 80.5984L189.251 69.25L282.75 69.25L282.75 80.7496Z" stroke="#5A5A5A" stroke-width="0.5" stroke-miterlimit="10"/>
<path d="M67.7498 220.25L67.5982 393.68L56.25 393.748L56.25 220.25L67.7498 220.25Z" stroke="#5A5A5A" stroke-width="0.5" stroke-miterlimit="10"/>
<path d="M67.7498 87.25L67.5981 293.667L56.25 293.748L56.25 87.25L67.7498 87.25Z" stroke="#5A5A5A" stroke-width="0.5" stroke-miterlimit="10"/>
<path d="M282.75 62.7496L189.288 62.5984L189.251 51.25L282.75 51.25L282.75 62.7496Z" stroke="#5A5A5A" stroke-width="0.5" stroke-miterlimit="10"/>
<path d="M49.7498 220.25L49.5982 393.68L38.25 393.748L38.25 220.25L49.7498 220.25Z" stroke="#5A5A5A" stroke-width="0.5" stroke-miterlimit="10"/>
<path d="M49.7498 87.25L49.5981 293.667L38.25 293.748L38.25 87.25L49.7498 87.25Z" stroke="#5A5A5A" stroke-width="0.5" stroke-miterlimit="10"/>
<path d="M87.25 0.250204L168.718 0.313162L168.748 4.74999L87.25 4.75001L87.25 0.250204Z" stroke="#5A5A5A" stroke-width="0.5" stroke-miterlimit="10"/>
<rect width="5" height="74" transform="matrix(-1 0 0 1 81 6.10352e-05)" fill="#5A5A5A"/>
<rect width="5" height="74" transform="matrix(-1 0 0 1 178 6.10352e-05)" fill="#5A5A5A"/>
<rect width="5" height="8" transform="matrix(4.37114e-08 1 1 -4.37114e-08 166 6.10352e-05)" fill="#5A5A5A"/>
<rect width="5.00001" height="93" transform="matrix(4.37114e-08 1 1 -4.37114e-08 76 6.10352e-05)" fill="#5A5A5A"/>
<path d="M168.75 66.7497L125.267 66.6871L125.251 62.2501L168.75 62.2501L168.75 66.7497Z" stroke="#5A5A5A" stroke-width="0.5" stroke-miterlimit="10"/>
<path d="M168.75 56.7497L125.267 56.6871L125.251 52.2501L168.75 52.2501L168.75 56.7497Z" stroke="#5A5A5A" stroke-width="0.5" stroke-miterlimit="10"/>
<line y1="-0.5" x2="31.3847" y2="-0.5" transform="matrix(0.860291 0.509802 0.509802 -0.860291 97 67.0001)" stroke="#5A5A5A"/>
<rect width="30" height="62" transform="matrix(-1.19249e-08 -1 -1 1.19249e-08 100 81)" fill="#5A5A5A"/>
<rect width="30" height="68" transform="matrix(1 0 0 -1 38 147)" fill="#5A5A5A"/>
<rect width="30" height="123" transform="matrix(-1 0 0 1 68 206)" fill="#5A5A5A"/>
<path d="M68 384H38V406L68 420V384Z" fill="#5A5A5A"/>
<path d="M115.199 462.875L132.873 445.2L115.673 428L97.9985 445.674L115.199 462.875Z" fill="white" stroke="#5A5A5A" stroke-width="0.5"/>
<path d="M130.784 445.978L117.029 459.733C116.507 460.255 115.952 460.255 115.408 459.711L101.161 445.464C100.606 444.909 100.606 444.376 101.139 443.843L114.894 430.088C115.416 429.544 115.96 429.555 116.504 430.099L130.751 444.346C131.317 444.89 131.317 445.445 130.784 445.978Z" fill="white" stroke="#5A5A5A" stroke-width="0.5"/>
<path d="M124.922 442.646C123.645 441.391 121.613 441.358 120.381 442.59C119.138 443.833 119.171 445.865 120.437 447.131C121.714 448.408 123.735 448.43 124.978 447.187C126.222 445.944 126.199 443.923 124.922 442.646Z" stroke="#5A5A5A" stroke-width="0.5"/>
<path d="M118.094 435.861C116.817 434.606 114.785 434.573 113.553 435.805C112.309 437.048 112.343 439.08 113.609 440.346C114.886 441.623 116.906 441.645 118.15 440.402C119.404 439.17 119.382 437.127 118.094 435.861Z" stroke="#5A5A5A" stroke-width="0.5"/>
<path d="M111.721 442.234C110.444 440.957 108.423 440.935 107.18 442.178C105.936 443.422 105.97 445.454 107.236 446.72C108.513 447.974 110.545 448.008 111.777 446.776C113.009 445.543 112.987 443.5 111.721 442.234Z" stroke="#5A5A5A" stroke-width="0.5"/>
<path d="M118.528 449.041C117.251 447.764 115.23 447.742 113.986 448.985C112.743 450.228 112.777 452.26 114.042 453.526C115.319 454.781 117.351 454.814 118.584 453.582C119.816 452.35 119.793 450.307 118.528 449.041Z" stroke="#5A5A5A" stroke-width="0.5"/>
<path d="M178.79 467.033L161.757 450L144.999 466.758L162.043 483.802L178.79 467.033Z" fill="white" stroke="#5A5A5A" stroke-width="0.5"/>
<path d="M172.845 463.637L163.428 454.22C162.903 453.696 162.389 453.696 161.853 454.231L149.403 466.682C148.889 467.196 148.878 467.721 149.381 468.246L158.819 477.662C159.323 478.187 159.848 478.177 160.373 477.652L172.823 465.201C173.37 464.698 173.37 464.162 172.845 463.637Z" fill="white" stroke="#5A5A5A" stroke-width="0.5"/>
<path d="M169.191 474.019C168.526 474.662 167.508 474.694 166.887 474.073L162.409 468.674L162.409 468.652C162.034 468.277 162.045 467.667 162.442 467.27C162.838 466.874 163.449 466.863 163.845 467.238L169.244 471.716C169.855 472.326 169.833 473.355 169.191 474.019Z" stroke="#5A5A5A" stroke-width="0.5"/>
<mask id="path-63-inside-1_69_1373" fill="white">
<path fill-rule="evenodd" clip-rule="evenodd" d="M167.732 474.512L165.3 471.566C164.936 471.18 164.936 470.559 165.354 470.162C165.75 469.766 166.35 469.766 166.736 470.13L169.682 472.562"/>
</mask>
<path fill-rule="evenodd" clip-rule="evenodd" d="M167.732 474.512L165.3 471.566C164.936 471.18 164.936 470.559 165.354 470.162C165.75 469.766 166.35 469.766 166.736 470.13L169.682 472.562" fill="white"/>
<path d="M165.3 471.566L165.663 471.222L165.675 471.235L165.685 471.248L165.3 471.566ZM165.354 470.162L165.707 470.516L165.698 470.525L165.354 470.162ZM166.736 470.13L166.417 470.516L166.404 470.505L166.392 470.494L166.736 470.13ZM167.346 474.83L164.914 471.884L165.685 471.248L168.117 474.194L167.346 474.83ZM164.936 471.909C164.383 471.324 164.391 470.386 165.009 469.8L165.698 470.525C165.48 470.731 165.488 471.037 165.663 471.222L164.936 471.909ZM165 469.809C165.586 469.222 166.495 469.215 167.079 469.767L166.392 470.494C166.205 470.316 165.914 470.309 165.707 470.516L165 469.809ZM167.054 469.744L170 472.176L169.363 472.947L166.417 470.516L167.054 469.744Z" fill="#5A5A5A" mask="url(#path-63-inside-1_69_1373)"/>
<line x1="259.451" y1="408.217" x2="246.451" y2="435.217" stroke="#5A5A5A"/>
<line x1="259.451" y1="328.217" x2="246.451" y2="355.217" stroke="#5A5A5A"/>
<line x1="287.58" y1="514.271" x2="267.58" y2="483.271" stroke="#5A5A5A"/>
<line y1="-0.5" x2="34.4819" y2="-0.5" transform="matrix(0.870022 0.493013 0.493013 -0.870022 276 571)" stroke="#5A5A5A"/>
<path d="M307.476 407.759L308.657 407.742L311.723 407.759L319.314 407.759L319.314 397.802L307.476 397.802C304.459 397.802 302 400.045 302 402.797C302 405.515 304.459 407.759 307.476 407.759Z" fill="white" stroke="#5A5A5A" stroke-width="0.5"/>
<path d="M307.543 406.613L308.477 406.613L316.036 406.613L316.036 398.932L308.477 398.932L307.543 398.948C305.165 398.948 303.23 400.651 303.23 402.78C303.247 404.893 305.182 406.613 307.543 406.613Z" fill="white" stroke="#5A5A5A" stroke-width="0.5"/>
<path d="M325.676 396L320.413 396C319.806 396 319.314 396.491 319.314 397.097L319.314 408.381C319.314 408.987 319.806 409.479 320.413 409.479L325.676 409.479C326.283 409.479 326.775 408.987 326.775 408.381L326.775 397.114C326.775 396.491 326.283 396 325.676 396Z" fill="white" stroke="#5A5A5A" stroke-width="0.5"/>
<path d="M323.052 402.092C322.642 402.092 322.331 402.387 322.331 402.731C322.314 403.091 322.642 403.386 323.052 403.386C323.462 403.386 323.773 403.091 323.773 402.747C323.757 402.371 323.445 402.076 323.052 402.092Z" fill="white" stroke="#5A5A5A" stroke-width="0.5"/>
<path d="M307.476 352.838L308.657 352.854L311.723 352.838L319.314 352.838L319.314 362.795L307.476 362.795C304.459 362.795 302 360.552 302 357.8C302 355.082 304.459 352.838 307.476 352.838Z" fill="white" stroke="#5A5A5A" stroke-width="0.5"/>
<path d="M307.543 353.984L308.477 353.984L316.036 353.984L316.036 361.665L308.477 361.665L307.543 361.649C305.165 361.649 303.23 359.945 303.23 357.816C303.247 355.704 305.182 353.984 307.543 353.984Z" fill="white" stroke="#5A5A5A" stroke-width="0.5"/>
<path d="M325.676 364.597L320.413 364.597C319.806 364.597 319.314 364.105 319.314 363.499L319.314 352.215C319.314 351.609 319.806 351.118 320.413 351.118L325.676 351.118C326.283 351.118 326.775 351.609 326.775 352.215L326.775 363.483C326.775 364.105 326.283 364.597 325.676 364.597Z" fill="white" stroke="#5A5A5A" stroke-width="0.5"/>
<path d="M323.052 358.504C322.642 358.504 322.331 358.21 322.331 357.866C322.314 357.505 322.642 357.211 323.052 357.211C323.462 357.211 323.773 357.505 323.773 357.849C323.757 358.226 323.445 358.521 323.052 358.504Z" fill="white" stroke="#5A5A5A" stroke-width="0.5"/>
<path d="M313.54 446.597L325.848 446.597C326.704 446.597 327.389 445.913 327.389 445.058L327.389 426.539C327.389 425.684 326.704 425 325.848 425L313.54 425C312.685 425 312 425.684 312 426.539L312 445.058C312 445.899 312.685 446.597 313.54 446.597Z" fill="white" stroke="#5A5A5A" stroke-width="0.5"/>
<path d="M318.232 444.673L320.129 444.673C322.625 444.673 324.65 442.651 324.65 440.158L324.65 431.439C324.65 428.946 322.625 426.923 320.129 426.923L318.232 426.923C315.736 426.923 313.711 428.946 313.711 431.439L313.711 440.158C313.711 442.651 315.736 444.673 318.232 444.673Z" fill="white" stroke="#5A5A5A" stroke-width="0.5"/>
<path d="M316.121 436.753C316.664 436.753 317.105 436.326 317.105 435.799C317.105 435.272 316.664 434.844 316.121 434.844C315.577 434.844 315.137 435.272 315.137 435.799C315.137 436.326 315.577 436.753 316.121 436.753Z" fill="white" stroke="#5A5A5A" stroke-width="0.5"/>
<path d="M313.54 319L325.848 319C326.704 319 327.389 319.684 327.389 320.539L327.389 339.058C327.389 339.913 326.704 340.597 325.848 340.597L313.54 340.597C312.685 340.597 312 339.913 312 339.058L312 320.539C312 319.698 312.685 319 313.54 319Z" fill="white" stroke="#5A5A5A" stroke-width="0.5"/>
<path d="M318.232 320.923L320.129 320.923C322.625 320.923 324.65 322.946 324.65 325.439L324.65 334.157C324.65 336.65 322.625 338.673 320.129 338.673L318.232 338.673C315.736 338.673 313.711 336.65 313.711 334.157L313.711 325.439C313.711 322.946 315.736 320.923 318.232 320.923Z" fill="white" stroke="#5A5A5A" stroke-width="0.5"/>
<path d="M316.121 328.843C316.664 328.843 317.105 329.271 317.105 329.798C317.105 330.325 316.664 330.752 316.121 330.752C315.577 330.752 315.137 330.325 315.137 329.798C315.137 329.271 315.577 328.844 316.121 328.843Z" fill="white" stroke="#5A5A5A" stroke-width="0.5"/>
<path d="M325.626 301.411L266.013 301.411C265.249 301.411 264.639 300.801 264.639 300.038L264.639 276.373C264.639 275.61 265.249 275 266.013 275L325.626 275C326.389 275 327 275.61 327 276.373L327 300.038C327 300.801 326.375 301.411 325.626 301.411Z" fill="white" stroke="#5A5A5A" stroke-width="0.5"/>
<path d="M268.302 291.415L268.302 284.982C268.302 281.252 271.328 278.244 275.048 278.244L321.989 278.244C322.905 278.244 323.641 278.979 323.641 279.894L323.641 296.53C323.641 297.445 322.905 298.18 321.989 298.18L275.062 298.18C271.328 298.166 268.302 295.144 268.302 291.415Z" fill="white" stroke="#5A5A5A" stroke-width="0.5"/>
<path d="M318.077 288.67C318.077 289.413 318.705 290.015 319.479 290.015C320.253 290.015 320.881 289.413 320.881 288.67C320.881 287.927 320.253 287.325 319.479 287.325C318.705 287.325 318.077 287.927 318.077 288.67Z" fill="white" stroke="#5A5A5A" stroke-width="0.5"/>
<circle cx="186.5" cy="183.5" r="39.5" fill="#5A5A5A"/>
<path d="M162.18 180.38V178.4H170.73V180.38L165.69 191H163.44L168.39 180.56V180.38H162.18ZM171.808 187.58C171.808 186.488 172.228 185.618 173.068 184.97C173.428 184.718 173.848 184.526 174.328 184.394V184.286C173.956 184.142 173.626 183.944 173.338 183.692C172.678 183.128 172.348 182.384 172.348 181.46C172.348 180.512 172.75 179.708 173.554 179.048C174.37 178.376 175.468 178.04 176.848 178.04C178.228 178.04 179.32 178.376 180.124 179.048C180.94 179.708 181.348 180.512 181.348 181.46C181.348 182.36 181.018 183.104 180.358 183.692C180.046 183.944 179.716 184.142 179.368 184.286V184.394C179.824 184.514 180.244 184.712 180.628 184.988C181.468 185.636 181.888 186.5 181.888 187.58C181.888 188.624 181.432 189.518 180.52 190.262C179.62 190.994 178.396 191.36 176.848 191.36C175.3 191.36 174.07 190.994 173.158 190.262C172.258 189.518 171.808 188.624 171.808 187.58ZM174.508 181.64C174.508 182.168 174.712 182.6 175.12 182.936C175.528 183.272 176.104 183.44 176.848 183.44C177.592 183.44 178.168 183.272 178.576 182.936C178.984 182.6 179.188 182.168 179.188 181.64C179.188 181.16 178.978 180.758 178.558 180.434C178.15 180.098 177.58 179.93 176.848 179.93C176.116 179.93 175.54 180.098 175.12 180.434C174.712 180.758 174.508 181.16 174.508 181.64ZM174.724 185.942C174.22 186.338 173.968 186.824 173.968 187.4C173.968 187.976 174.22 188.468 174.724 188.876C175.24 189.272 175.948 189.47 176.848 189.47C177.748 189.47 178.45 189.272 178.954 188.876C179.47 188.468 179.728 187.976 179.728 187.4C179.728 186.824 179.47 186.338 178.954 185.942C178.45 185.534 177.748 185.33 176.848 185.33C175.948 185.33 175.24 185.534 174.724 185.942ZM183.322 190.01C183.322 189.65 183.436 189.35 183.664 189.11C183.904 188.87 184.198 188.75 184.546 188.75C184.942 188.75 185.254 188.894 185.482 189.182C185.722 189.47 185.842 189.896 185.842 190.46C185.842 191.384 185.62 192.092 185.176 192.584C184.744 193.088 184.156 193.34 183.412 193.34V192.44C183.772 192.44 184.054 192.338 184.258 192.134C184.474 191.942 184.582 191.684 184.582 191.36V191.252C184.57 191.24 184.564 191.216 184.564 191.18V191.126L184.456 191.162C184.42 191.174 184.342 191.18 184.222 191.18C183.982 191.18 183.772 191.072 183.592 190.856C183.412 190.64 183.322 190.358 183.322 190.01ZM189.077 189.488C187.937 188.24 187.367 186.644 187.367 184.7C187.367 182.756 187.937 181.16 189.077 179.912C190.217 178.664 191.597 178.04 193.217 178.04C194.837 178.04 196.217 178.664 197.357 179.912C198.497 181.16 199.067 182.756 199.067 184.7C199.067 186.644 198.497 188.24 197.357 189.488C196.217 190.736 194.837 191.36 193.217 191.36C191.597 191.36 190.217 190.736 189.077 189.488ZM190.553 181.244C189.869 182.06 189.527 183.212 189.527 184.7C189.527 186.188 189.869 187.34 190.553 188.156C191.249 188.972 192.137 189.38 193.217 189.38C194.297 189.38 195.179 188.972 195.863 188.156C196.559 187.34 196.907 186.188 196.907 184.7C196.907 183.212 196.559 182.06 195.863 181.244C195.179 180.428 194.297 180.02 193.217 180.02C192.137 180.02 191.249 180.428 190.553 181.244ZM200.511 186.86C200.511 186.284 200.637 185.684 200.889 185.06C201.153 184.424 201.405 183.926 201.645 183.566C201.897 183.194 202.239 182.732 202.671 182.18L205.551 178.4H207.981L205.263 181.946L204.471 182.63V182.72L204.831 182.594C205.191 182.498 205.581 182.45 206.001 182.45C207.177 182.45 208.173 182.876 208.989 183.728C209.817 184.568 210.231 185.612 210.231 186.86C210.231 188.132 209.775 189.2 208.863 190.064C207.951 190.928 206.787 191.36 205.371 191.36C203.955 191.36 202.791 190.928 201.879 190.064C200.967 189.2 200.511 188.132 200.511 186.86ZM203.409 184.988C202.917 185.468 202.671 186.092 202.671 186.86C202.671 187.628 202.917 188.258 203.409 188.75C203.901 189.23 204.555 189.47 205.371 189.47C206.187 189.47 206.841 189.23 207.333 188.75C207.825 188.258 208.071 187.628 208.071 186.86C208.071 186.092 207.825 185.468 207.333 184.988C206.841 184.496 206.187 184.25 205.371 184.25C204.555 184.25 203.901 184.496 203.409 184.988Z" fill="white"/>
<path d="M271.42 433.2H273.1C273.165 433.489 273.291 433.746 273.478 433.97C273.898 434.483 274.495 434.74 275.27 434.74C275.914 434.74 276.423 434.581 276.796 434.264C277.179 433.937 277.37 433.536 277.37 433.06C277.37 432.519 277.197 432.094 276.852 431.786C276.516 431.469 276.035 431.31 275.41 431.31H273.03V429.91L275.97 427.81V427.74H271.91V426.2H278.35V427.726L275.83 429.56L275.13 429.84V429.91L275.354 429.882C275.662 429.854 275.844 429.84 275.9 429.84C276.777 429.84 277.51 430.143 278.098 430.75C278.686 431.357 278.98 432.127 278.98 433.06C278.98 433.956 278.635 434.717 277.944 435.342C277.253 435.967 276.362 436.28 275.27 436.28C273.823 436.28 272.755 435.767 272.064 434.74C271.765 434.301 271.551 433.788 271.42 433.2ZM280.037 435.23C280.037 434.95 280.125 434.717 280.303 434.53C280.489 434.343 280.718 434.25 280.989 434.25C281.297 434.25 281.539 434.362 281.717 434.586C281.903 434.81 281.997 435.141 281.997 435.58C281.997 436.299 281.824 436.849 281.479 437.232C281.143 437.624 280.685 437.82 280.107 437.82V437.12C280.387 437.12 280.606 437.041 280.765 436.882C280.933 436.733 281.017 436.532 281.017 436.28V436.196C281.007 436.187 281.003 436.168 281.003 436.14V436.098L280.919 436.126C280.891 436.135 280.83 436.14 280.737 436.14C280.55 436.14 280.387 436.056 280.247 435.888C280.107 435.72 280.037 435.501 280.037 435.23ZM282.693 427.74V426.2H289.343V427.74L285.423 436H283.673L287.523 427.88V427.74H282.693ZM291.581 434.824C290.694 433.853 290.251 432.612 290.251 431.1C290.251 429.588 290.694 428.347 291.581 427.376C292.468 426.405 293.541 425.92 294.801 425.92C296.061 425.92 297.134 426.405 298.021 427.376C298.908 428.347 299.351 429.588 299.351 431.1C299.351 432.612 298.908 433.853 298.021 434.824C297.134 435.795 296.061 436.28 294.801 436.28C293.541 436.28 292.468 435.795 291.581 434.824ZM292.729 428.412C292.197 429.047 291.931 429.943 291.931 431.1C291.931 432.257 292.197 433.153 292.729 433.788C293.27 434.423 293.961 434.74 294.801 434.74C295.641 434.74 296.327 434.423 296.859 433.788C297.4 433.153 297.671 432.257 297.671 431.1C297.671 429.943 297.4 429.047 296.859 428.412C296.327 427.777 295.641 427.46 294.801 427.46C293.961 427.46 293.27 427.777 292.729 428.412Z" fill="#333333"/>
<path d="M125.56 315.27H127.24C127.315 315.559 127.441 315.807 127.618 316.012C128.029 316.497 128.626 316.74 129.41 316.74C130.035 316.74 130.53 316.572 130.894 316.236C131.258 315.9 131.44 315.461 131.44 314.92C131.44 314.351 131.258 313.893 130.894 313.548C130.53 313.203 130.035 313.03 129.41 313.03C128.831 313.03 128.341 313.184 127.94 313.492C127.781 313.613 127.641 313.763 127.52 313.94H125.98L126.4 308.2H132.35V309.74H127.73L127.52 312.26H127.59C127.739 312.111 127.912 311.985 128.108 311.882C128.547 311.621 129.074 311.49 129.69 311.49C130.67 311.49 131.487 311.817 132.14 312.47C132.793 313.123 133.12 313.94 133.12 314.92C133.12 315.881 132.775 316.684 132.084 317.328C131.403 317.963 130.511 318.28 129.41 318.28C127.973 318.28 126.904 317.781 126.204 316.782C125.905 316.343 125.691 315.839 125.56 315.27ZM133.823 316.04V314.5L137.113 308.2H138.863L135.573 314.5H138.793V312.12H138.863H140.403V314.5H141.803V316.04H140.403V318H138.793V316.04H133.823ZM142.363 317.23C142.363 316.95 142.451 316.717 142.629 316.53C142.815 316.343 143.044 316.25 143.315 316.25C143.623 316.25 143.865 316.362 144.043 316.586C144.229 316.81 144.323 317.141 144.323 317.58C144.323 318.299 144.15 318.849 143.805 319.232C143.469 319.624 143.011 319.82 142.433 319.82V319.12C142.713 319.12 142.932 319.041 143.091 318.882C143.259 318.733 143.343 318.532 143.343 318.28V318.196C143.333 318.187 143.329 318.168 143.329 318.14V318.098L143.245 318.126C143.217 318.135 143.156 318.14 143.063 318.14C142.876 318.14 142.713 318.056 142.573 317.888C142.433 317.72 142.363 317.501 142.363 317.23ZM145.439 315.27H147.119C147.194 315.559 147.32 315.807 147.497 316.012C147.908 316.497 148.505 316.74 149.289 316.74C149.914 316.74 150.409 316.572 150.773 316.236C151.137 315.9 151.319 315.461 151.319 314.92C151.319 314.351 151.137 313.893 150.773 313.548C150.409 313.203 149.914 313.03 149.289 313.03C148.71 313.03 148.22 313.184 147.819 313.492C147.66 313.613 147.52 313.763 147.399 313.94H145.859L146.279 308.2H152.229V309.74H147.609L147.399 312.26H147.469C147.618 312.111 147.791 311.985 147.987 311.882C148.426 311.621 148.953 311.49 149.569 311.49C150.549 311.49 151.366 311.817 152.019 312.47C152.672 313.123 152.999 313.94 152.999 314.92C152.999 315.881 152.654 316.684 151.963 317.328C151.282 317.963 150.39 318.28 149.289 318.28C147.852 318.28 146.783 317.781 146.083 316.782C145.784 316.343 145.57 315.839 145.439 315.27ZM153.912 315.2H155.592C155.658 315.489 155.784 315.746 155.97 315.97C156.39 316.483 156.988 316.74 157.762 316.74C158.406 316.74 158.915 316.581 159.288 316.264C159.671 315.937 159.862 315.536 159.862 315.06C159.862 314.519 159.69 314.094 159.344 313.786C159.008 313.469 158.528 313.31 157.902 313.31H155.522V311.91L158.462 309.81V309.74H154.402V308.2H160.842V309.726L158.322 311.56L157.622 311.84V311.91L157.846 311.882C158.154 311.854 158.336 311.84 158.392 311.84C159.27 311.84 160.002 312.143 160.59 312.75C161.178 313.357 161.472 314.127 161.472 315.06C161.472 315.956 161.127 316.717 160.436 317.342C159.746 317.967 158.854 318.28 157.762 318.28C156.316 318.28 155.247 317.767 154.556 316.74C154.258 316.301 154.043 315.788 153.912 315.2Z" fill="#333333"/>
<path d="M142.21 431.04V429.5L145.5 423.2H147.25L143.96 429.5H147.18V427.12H147.25H148.79V429.5H150.19V431.04H148.79V433H147.18V431.04H142.21ZM150.749 432.23C150.749 431.95 150.838 431.717 151.015 431.53C151.202 431.343 151.431 431.25 151.701 431.25C152.009 431.25 152.252 431.362 152.429 431.586C152.616 431.81 152.709 432.141 152.709 432.58C152.709 433.299 152.537 433.849 152.191 434.232C151.855 434.624 151.398 434.82 150.819 434.82V434.12C151.099 434.12 151.319 434.041 151.477 433.882C151.645 433.733 151.729 433.532 151.729 433.28V433.196C151.72 433.187 151.715 433.168 151.715 433.14V433.098L151.631 433.126C151.603 433.135 151.543 433.14 151.449 433.14C151.263 433.14 151.099 433.056 150.959 432.888C150.819 432.72 150.749 432.501 150.749 432.23ZM153.476 431.04V429.5L156.766 423.2H158.516L155.226 429.5H158.446V427.12H158.516H160.056V429.5H161.456V431.04H160.056V433H158.446V431.04H153.476ZM161.945 429.78C161.945 429.332 162.043 428.865 162.239 428.38C162.444 427.885 162.64 427.498 162.827 427.218C163.023 426.929 163.289 426.569 163.625 426.14L165.865 423.2H167.755L165.641 425.958L165.025 426.49V426.56L165.305 426.462C165.585 426.387 165.888 426.35 166.215 426.35C167.13 426.35 167.904 426.681 168.539 427.344C169.183 427.997 169.505 428.809 169.505 429.78C169.505 430.769 169.15 431.6 168.441 432.272C167.732 432.944 166.826 433.28 165.725 433.28C164.624 433.28 163.718 432.944 163.009 432.272C162.3 431.6 161.945 430.769 161.945 429.78ZM164.199 428.324C163.816 428.697 163.625 429.183 163.625 429.78C163.625 430.377 163.816 430.867 164.199 431.25C164.582 431.623 165.09 431.81 165.725 431.81C166.36 431.81 166.868 431.623 167.251 431.25C167.634 430.867 167.825 430.377 167.825 429.78C167.825 429.183 167.634 428.697 167.251 428.324C166.868 427.941 166.36 427.75 165.725 427.75C165.09 427.75 164.582 427.941 164.199 428.324Z" fill="#333333"/>
<path d="M271.21 331.04V329.5L274.5 323.2H276.25L272.96 329.5H276.18V327.12H276.25H277.79V329.5H279.19V331.04H277.79V333H276.18V331.04H271.21ZM279.749 332.23C279.749 331.95 279.838 331.717 280.015 331.53C280.202 331.343 280.431 331.25 280.701 331.25C281.009 331.25 281.252 331.362 281.429 331.586C281.616 331.81 281.709 332.141 281.709 332.58C281.709 333.299 281.537 333.849 281.191 334.232C280.855 334.624 280.398 334.82 279.819 334.82V334.12C280.099 334.12 280.319 334.041 280.477 333.882C280.645 333.733 280.729 333.532 280.729 333.28V333.196C280.72 333.187 280.715 333.168 280.715 333.14V333.098L280.631 333.126C280.603 333.135 280.543 333.14 280.449 333.14C280.263 333.14 280.099 333.056 279.959 332.888C279.819 332.72 279.749 332.501 279.749 332.23ZM282.826 326.42C282.826 325.431 283.18 324.6 283.89 323.928C284.599 323.256 285.504 322.92 286.606 322.92C287.707 322.92 288.612 323.256 289.322 323.928C290.031 324.6 290.386 325.431 290.386 326.42C290.386 327.307 290.017 328.263 289.28 329.29C289.205 329.393 289.102 329.533 288.972 329.71C288.841 329.878 288.752 329.995 288.706 330.06L286.466 333H284.576L286.69 330.242L287.306 329.71V329.64C287.287 329.649 287.194 329.687 287.026 329.752C286.783 329.817 286.48 329.85 286.116 329.85C285.201 329.85 284.422 329.523 283.778 328.87C283.143 328.207 282.826 327.391 282.826 326.42ZM285.08 324.964C284.697 325.337 284.506 325.823 284.506 326.42C284.506 327.017 284.697 327.507 285.08 327.89C285.462 328.263 285.971 328.45 286.606 328.45C287.24 328.45 287.749 328.263 288.132 327.89C288.514 327.507 288.706 327.017 288.706 326.42C288.706 325.823 288.514 325.337 288.132 324.964C287.749 324.581 287.24 324.39 286.606 324.39C285.971 324.39 285.462 324.581 285.08 324.964ZM291.369 329.78C291.369 329.332 291.467 328.865 291.663 328.38C291.868 327.885 292.064 327.498 292.251 327.218C292.447 326.929 292.713 326.569 293.049 326.14L295.289 323.2H297.179L295.065 325.958L294.449 326.49V326.56L294.729 326.462C295.009 326.387 295.312 326.35 295.639 326.35C296.554 326.35 297.328 326.681 297.963 327.344C298.607 327.997 298.929 328.809 298.929 329.78C298.929 330.769 298.574 331.6 297.865 332.272C297.156 332.944 296.25 333.28 295.149 333.28C294.048 333.28 293.142 332.944 292.433 332.272C291.724 331.6 291.369 330.769 291.369 329.78ZM293.623 328.324C293.24 328.697 293.049 329.183 293.049 329.78C293.049 330.377 293.24 330.867 293.623 331.25C294.006 331.623 294.514 331.81 295.149 331.81C295.784 331.81 296.292 331.623 296.675 331.25C297.058 330.867 297.249 330.377 297.249 329.78C297.249 329.183 297.058 328.697 296.675 328.324C296.292 327.941 295.784 327.75 295.149 327.75C294.514 327.75 294.006 327.941 293.623 328.324Z" fill="#333333"/>
<path d="M0.42 354.2H2.1C2.16533 354.489 2.29133 354.746 2.478 354.97C2.898 355.483 3.49533 355.74 4.27 355.74C4.914 355.74 5.42267 355.581 5.796 355.264C6.17867 354.937 6.37 354.536 6.37 354.06C6.37 353.519 6.19733 353.094 5.852 352.786C5.516 352.469 5.03533 352.31 4.41 352.31H2.03V350.91L4.97 348.81V348.74H0.91V347.2H7.35V348.726L4.83 350.56L4.13 350.84V350.91L4.354 350.882C4.662 350.854 4.844 350.84 4.9 350.84C5.77733 350.84 6.51 351.143 7.098 351.75C7.686 352.357 7.98 353.127 7.98 354.06C7.98 354.956 7.63467 355.717 6.944 356.342C6.25333 356.967 5.362 357.28 4.27 357.28C2.82333 357.28 1.75467 356.767 1.064 355.74C0.765333 355.301 0.550667 354.788 0.42 354.2ZM9.03656 356.23C9.03656 355.95 9.12523 355.717 9.30256 355.53C9.48923 355.343 9.7179 355.25 9.98856 355.25C10.2966 355.25 10.5392 355.362 10.7166 355.586C10.9032 355.81 10.9966 356.141 10.9966 356.58C10.9966 357.299 10.8239 357.849 10.4786 358.232C10.1426 358.624 9.68523 358.82 9.10656 358.82V358.12C9.38656 358.12 9.6059 358.041 9.76456 357.882C9.93256 357.733 10.0166 357.532 10.0166 357.28V357.196C10.0072 357.187 10.0026 357.168 10.0026 357.14V357.098L9.91856 357.126C9.89056 357.135 9.8299 357.14 9.73656 357.14C9.5499 357.14 9.38656 357.056 9.24656 356.888C9.10656 356.72 9.03656 356.501 9.03656 356.23ZM12.0427 353.78C12.0427 353.332 12.1407 352.865 12.3367 352.38C12.5421 351.885 12.7381 351.498 12.9247 351.218C13.1207 350.929 13.3867 350.569 13.7227 350.14L15.9627 347.2H17.8527L15.7387 349.958L15.1227 350.49V350.56L15.4027 350.462C15.6827 350.387 15.9861 350.35 16.3127 350.35C17.2274 350.35 18.0021 350.681 18.6367 351.344C19.2807 351.997 19.6027 352.809 19.6027 353.78C19.6027 354.769 19.2481 355.6 18.5387 356.272C17.8294 356.944 16.9241 357.28 15.8227 357.28C14.7214 357.28 13.8161 356.944 13.1067 356.272C12.3974 355.6 12.0427 354.769 12.0427 353.78ZM14.2967 352.324C13.9141 352.697 13.7227 353.183 13.7227 353.78C13.7227 354.377 13.9141 354.867 14.2967 355.25C14.6794 355.623 15.1881 355.81 15.8227 355.81C16.4574 355.81 16.9661 355.623 17.3487 355.25C17.7314 354.867 17.9227 354.377 17.9227 353.78C17.9227 353.183 17.7314 352.697 17.3487 352.324C16.9661 351.941 16.4574 351.75 15.8227 351.75C15.1881 351.75 14.6794 351.941 14.2967 352.324ZM20.656 353.78C20.656 353.332 20.754 352.865 20.95 352.38C21.1553 351.885 21.3513 351.498 21.538 351.218C21.734 350.929 22 350.569 22.336 350.14L24.576 347.2H26.466L24.352 349.958L23.736 350.49V350.56L24.016 350.462C24.296 350.387 24.5993 350.35 24.926 350.35C25.8407 350.35 26.6153 350.681 27.25 351.344C27.894 351.997 28.216 352.809 28.216 353.78C28.216 354.769 27.8613 355.6 27.152 356.272C26.4427 356.944 25.5373 357.28 24.436 357.28C23.3347 357.28 22.4293 356.944 21.72 356.272C21.0107 355.6 20.656 354.769 20.656 353.78ZM22.91 352.324C22.5273 352.697 22.336 353.183 22.336 353.78C22.336 354.377 22.5273 354.867 22.91 355.25C23.2927 355.623 23.8013 355.81 24.436 355.81C25.0707 355.81 25.5793 355.623 25.962 355.25C26.3447 354.867 26.536 354.377 26.536 353.78C26.536 353.183 26.3447 352.697 25.962 352.324C25.5793 351.941 25.0707 351.75 24.436 351.75C23.8013 351.75 23.2927 351.941 22.91 352.324Z" fill="#333333"/>
<path d="M214.35 486.42V484.6L216.17 483.2H217.64V493H216.03V485.16L214.35 486.42ZM220.581 491.824C219.694 490.853 219.251 489.612 219.251 488.1C219.251 486.588 219.694 485.347 220.581 484.376C221.468 483.405 222.541 482.92 223.801 482.92C225.061 482.92 226.134 483.405 227.021 484.376C227.908 485.347 228.351 486.588 228.351 488.1C228.351 489.612 227.908 490.853 227.021 491.824C226.134 492.795 225.061 493.28 223.801 493.28C222.541 493.28 221.468 492.795 220.581 491.824ZM221.729 485.412C221.197 486.047 220.931 486.943 220.931 488.1C220.931 489.257 221.197 490.153 221.729 490.788C222.27 491.423 222.961 491.74 223.801 491.74C224.641 491.74 225.327 491.423 225.859 490.788C226.4 490.153 226.671 489.257 226.671 488.1C226.671 486.943 226.4 486.047 225.859 485.412C225.327 484.777 224.641 484.46 223.801 484.46C222.961 484.46 222.27 484.777 221.729 485.412ZM229.544 492.23C229.544 491.95 229.633 491.717 229.81 491.53C229.997 491.343 230.226 491.25 230.496 491.25C230.804 491.25 231.047 491.362 231.224 491.586C231.411 491.81 231.504 492.141 231.504 492.58C231.504 493.299 231.332 493.849 230.986 494.232C230.65 494.624 230.193 494.82 229.614 494.82V494.12C229.894 494.12 230.114 494.041 230.272 493.882C230.44 493.733 230.524 493.532 230.524 493.28V493.196C230.515 493.187 230.51 493.168 230.51 493.14V493.098L230.426 493.126C230.398 493.135 230.338 493.14 230.244 493.14C230.058 493.14 229.894 493.056 229.754 492.888C229.614 492.72 229.544 492.501 229.544 492.23ZM232.271 491.04V489.5L235.561 483.2H237.311L234.021 489.5H237.241V487.12H237.311H238.851V489.5H240.251V491.04H238.851V493H237.241V491.04H232.271ZM240.6 486.42V484.6L242.42 483.2H243.89V493H242.28V485.16L240.6 486.42Z" fill="#333333"/>
</svg>
