<svg width="439" height="460" viewBox="0 0 439 460" fill="none" xmlns="http://www.w3.org/2000/svg">
<path d="M409 378L156 378L156 134L409 134L409 378Z" fill="#FFF8BA"/>
<path d="M256 378L156 378L156 41L256 41L256 378Z" fill="#FFF8BA"/>
<path d="M399.12 169.733L322.733 246.121L183 106.387L259.387 30L399.12 169.733Z" fill="#FFF8BA"/>
<path d="M267 322L16 322L16 197L267 197L267 322Z" fill="#FFF8BA"/>
<path d="M272 46.5V181H305L357 128.5L272 46.5Z" fill="#FFC79F"/>
<path d="M155 119.5V182.5L201.5 181.5V119.5H155Z" fill="#FFC79F"/>
<rect x="439" y="259" width="30" height="134" transform="rotate(-180 439 259)" fill="#5A5A5A"/>
<rect x="439" y="408" width="30" height="91" transform="rotate(-180 439 408)" fill="#5A5A5A"/>
<rect x="386" y="408" width="30" height="38" transform="rotate(-90 386 408)" fill="#5A5A5A"/>
<rect x="252" y="408" width="30" height="75" transform="rotate(-90 252 408)" fill="#5A5A5A"/>
<rect x="126" y="408" width="30" height="68" transform="rotate(-90 126 408)" fill="#5A5A5A"/>
<rect x="126" y="322" width="30" height="75" fill="#5A5A5A"/>
<rect x="156" y="322" width="30" height="75" transform="rotate(90 156 322)" fill="#5A5A5A"/>
<rect x="22" y="322" width="30" height="22" transform="rotate(90 22 322)" fill="#5A5A5A"/>
<rect x="295" y="273" width="16" height="135" fill="#5A5A5A"/>
<rect x="295" y="183" width="16" height="56" fill="#5A5A5A"/>
<rect x="311" y="181" width="16" height="55" transform="rotate(90 311 181)" fill="#5A5A5A"/>
<rect x="424" y="124" width="20" height="52" transform="rotate(90 424 124)" fill="#5A5A5A"/>
<rect x="268" y="21" width="20" height="74" transform="rotate(90 268 21)" fill="#5A5A5A"/>
<rect x="140" y="21" width="16" height="180" fill="#5A5A5A"/>
<rect x="256" y="143" width="16" height="54" fill="#5A5A5A"/>
<rect x="256" y="34" width="16" height="81" fill="#5A5A5A"/>
<path d="M257 32.3137L268.314 21L383.589 132.276L372.276 143.589L257 32.3137Z" fill="#5A5A5A"/>
<rect x="140" y="237" width="16" height="171" fill="#5A5A5A"/>
<rect y="181" width="16" height="171" fill="#5A5A5A"/>
<rect x="209" y="181" width="16" height="205" transform="rotate(90 209 181)" fill="#5A5A5A"/>
<path d="M409.25 228.25L409.402 339.705L420.75 339.749L420.75 228.25H409.25Z" stroke="#5A5A5A" stroke-width="0.5" stroke-miterlimit="10"/>
<path d="M406.75 378.25L252.312 378.402L252.251 389.75L406.75 389.75L406.75 378.25Z" stroke="#5A5A5A" stroke-width="0.5" stroke-miterlimit="10"/>
<path d="M108.75 322.25L8.29058 322.402L8.25088 333.75L108.75 333.75L108.75 322.25Z" stroke="#5A5A5A" stroke-width="0.5" stroke-miterlimit="10"/>
<path d="M427.25 228.25L427.402 339.705L438.75 339.749L438.75 228.25H427.25Z" stroke="#5A5A5A" stroke-width="0.5" stroke-miterlimit="10"/>
<path d="M406.75 396.25L252.312 396.402L252.251 407.75L406.75 407.75L406.75 396.25Z" stroke="#5A5A5A" stroke-width="0.5" stroke-miterlimit="10"/>
<path d="M190.25 459.75L271.718 459.687L271.748 455.25L190.25 455.25L190.25 459.75Z" stroke="#5A5A5A" stroke-width="0.5" stroke-miterlimit="10"/>
<rect x="174" y="460" width="5" height="74" transform="rotate(-180 174 460)" fill="#5A5A5A"/>
<rect x="277" y="460" width="5" height="74" transform="rotate(-180 277 460)" fill="#5A5A5A"/>
<rect x="258" y="460" width="5" height="19" transform="rotate(-90 258 460)" fill="#5A5A5A"/>
<rect x="172" y="460" width="5" height="19" transform="rotate(-90 172 460)" fill="#5A5A5A"/>
<path d="M108.75 340.25L8.29058 340.402L8.25088 351.75L108.75 351.75L108.75 340.25Z" stroke="#5A5A5A" stroke-width="0.5" stroke-miterlimit="10"/>
<path d="M362.874 122L368.531 127.657L301.657 194.53L296 188.874L362.874 122Z" fill="#5A5A5A"/>
<rect x="209" y="113" width="8" height="68" transform="rotate(90 209 113)" fill="#5A5A5A"/>
<rect x="209" y="139" width="8" height="23" transform="rotate(-180 209 139)" fill="#5A5A5A"/>
<rect x="209" y="191" width="8" height="23" transform="rotate(-180 209 191)" fill="#5A5A5A"/>
<path d="M281.75 393.25L221.274 393.313L221.251 397.75L281.75 397.75L281.75 393.25Z" stroke="#5A5A5A" stroke-width="0.5" stroke-miterlimit="10"/>
<path d="M281.75 403.25L221.274 403.313L221.251 407.75L281.75 407.75L281.75 403.25Z" stroke="#5A5A5A" stroke-width="0.5" stroke-miterlimit="10"/>
<line x1="296.572" y1="275.259" x2="276.572" y2="242.259" stroke="#5A5A5A"/>
<line x1="154.568" y1="237.749" x2="172.568" y2="206.749" stroke="#5A5A5A"/>
<line x1="207.735" y1="196.576" x2="223.735" y2="186.576" stroke="#5A5A5A"/>
<line x1="228.253" y1="178.569" x2="257.253" y2="195.569" stroke="#5A5A5A"/>
<line x1="207.57" y1="169.745" x2="223.57" y2="142.745" stroke="#5A5A5A"/>
<line x1="241.57" y1="139.745" x2="257.57" y2="112.745" stroke="#5A5A5A"/>
<line x1="161.266" y1="0.576682" x2="196.266" y2="22.5767" stroke="#5A5A5A"/>
<line x1="191.745" y1="394.57" x2="218.745" y2="378.57" stroke="#5A5A5A"/>
<path d="M285.616 86.1226L286.455 85.2919L288.592 83.0933L293.912 77.6779L301.015 84.6558L292.719 93.1005C290.605 95.2526 287.281 95.4348 285.318 93.5066C283.379 91.6015 283.502 88.2747 285.616 86.1226Z" fill="white" stroke="#5A5A5A" stroke-width="0.5"/>
<path d="M286.48 86.8791L287.135 86.2124L292.431 80.8204L297.911 86.203L292.614 91.595L291.947 92.2502C290.281 93.9462 287.71 94.1327 286.192 92.6407C284.696 91.1485 284.825 88.5633 286.48 86.8791Z" fill="white" stroke="#5A5A5A" stroke-width="0.5"/>
<path d="M306.758 81.38L303.07 85.1345C302.645 85.5673 301.95 85.5738 301.517 85.1492L293.468 77.2416C293.036 76.817 293.03 76.1218 293.455 75.689L297.143 71.9345C297.568 71.5017 298.263 71.4951 298.696 71.9198L306.734 79.8159C307.178 80.252 307.183 80.9472 306.758 81.38Z" fill="white" stroke="#5A5A5A" stroke-width="0.5"/>
<path d="M300.574 78.9821C300.287 79.2744 299.858 79.2901 299.613 79.0491C299.344 78.8083 299.364 78.3678 299.651 78.0754C299.938 77.783 300.367 77.7674 300.612 78.0084C300.869 78.284 300.861 78.7128 300.574 78.9821Z" fill="white" stroke="#5A5A5A" stroke-width="0.5"/>
<path d="M327.929 102.45L319.304 111.23C318.704 111.841 317.737 111.85 317.127 111.251L303.916 98.2727C303.306 97.6737 303.298 96.7061 303.898 96.0957L312.523 87.3155C313.123 86.705 314.09 86.6959 314.7 87.2949L327.911 100.273C328.511 100.862 328.529 101.84 327.929 102.45Z" fill="white" stroke="#5A5A5A" stroke-width="0.5"/>
<path d="M323.269 104.449L321.94 105.803C320.191 107.583 317.329 107.61 315.55 105.863L309.331 99.7535C307.553 98.0064 307.529 95.1441 309.278 93.3636L310.607 92.0105C312.356 90.23 315.218 90.2029 316.997 91.95L323.216 98.0597C324.995 99.8067 325.018 102.669 323.269 104.449Z" fill="white" stroke="#5A5A5A" stroke-width="0.5"/>
<path d="M319.098 97.3933C318.718 97.781 318.104 97.7958 317.728 97.4264C317.352 97.057 317.356 96.4433 317.737 96.0556C318.118 95.6679 318.731 95.6531 319.107 96.0225C319.483 96.3919 319.479 97.0056 319.098 97.3933Z" fill="white" stroke="#5A5A5A" stroke-width="0.5"/>
<path d="M336.416 110.504L294.284 153.393C293.744 153.942 293.752 154.812 294.3 155.351L311.326 172.077C311.875 172.616 312.745 172.608 313.285 172.059L355.417 129.17C355.956 128.621 355.949 127.75 355.4 127.212L338.374 110.486C337.826 109.947 336.945 109.965 336.416 110.504Z" fill="white" stroke="#5A5A5A" stroke-width="0.5"/>
<path d="M303.094 158.81L307.723 163.356C310.406 165.992 314.708 165.941 317.337 163.265L350.513 129.494C351.161 128.835 351.152 127.786 350.493 127.139L338.524 115.381C337.866 114.735 336.818 114.745 336.17 115.404L303.004 149.165C300.375 151.861 300.411 156.174 303.094 158.81Z" fill="white" stroke="#5A5A5A" stroke-width="0.5"/>
<path d="M340.246 124.941C339.711 124.416 339.722 123.539 340.269 122.982C340.816 122.425 341.693 122.399 342.227 122.924C342.761 123.449 342.751 124.326 342.204 124.883C341.657 125.44 340.78 125.466 340.246 124.941Z" fill="white" stroke="#5A5A5A" stroke-width="0.5"/>
<path d="M294.024 180.587L272.014 180.587L272 159L294.01 159.014L294.024 180.587Z" fill="white" stroke="#5A5A5A" stroke-width="0.5"/>
<path d="M283.005 164.257C279.891 164.257 277.377 166.732 277.377 169.794C277.377 172.856 279.891 175.33 283.019 175.33C286.133 175.33 288.675 172.856 288.675 169.794C288.661 166.732 286.119 164.257 283.005 164.257Z" stroke="#5A5A5A" stroke-width="0.5"/>
<path d="M287.125 169.794C287.139 168.675 286.678 167.669 285.924 166.941C285.17 166.214 284.136 165.767 283.019 165.753M278.885 169.78C278.885 168.675 279.346 167.669 280.086 166.927C280.84 166.2 281.86 165.739 283.005 165.739L278.885 169.78ZM287.125 169.794C287.125 170.898 286.664 171.905 285.924 172.646C285.17 173.373 284.136 173.82 283.005 173.82L287.125 169.794ZM278.885 169.78C278.885 170.912 279.346 171.919 280.086 172.632L280.1 172.646C280.84 173.359 281.86 173.82 282.991 173.82L278.885 169.78Z" stroke="#5A5A5A" stroke-width="0.5"/>
<path d="M362.2 134L379.875 151.674L362.674 168.875L345 151.2L362.2 134Z" fill="white" stroke="#5A5A5A" stroke-width="0.5"/>
<path d="M377.786 150.896L364.031 137.141C363.509 136.619 362.954 136.619 362.41 137.163L348.164 151.41C347.608 151.965 347.608 152.498 348.141 153.031L361.897 166.786C362.418 167.33 362.962 167.319 363.506 166.775L377.753 152.529C378.319 151.984 378.319 151.429 377.786 150.896Z" fill="white" stroke="#5A5A5A" stroke-width="0.5"/>
<path d="M371.924 154.228C370.647 155.483 368.615 155.517 367.383 154.284C366.14 153.041 366.173 151.009 367.439 149.743C368.716 148.466 370.737 148.444 371.98 149.687C373.223 150.931 373.201 152.951 371.924 154.228Z" stroke="#5A5A5A" stroke-width="0.5"/>
<path d="M365.096 161.014C363.819 162.268 361.787 162.302 360.555 161.07C359.312 159.826 359.345 157.794 360.611 156.528C361.888 155.251 363.909 155.229 365.152 156.472C366.407 157.705 366.384 159.748 365.096 161.014Z" stroke="#5A5A5A" stroke-width="0.5"/>
<path d="M358.723 154.64C357.446 155.917 355.425 155.939 354.182 154.696C352.938 153.452 352.972 151.421 354.237 150.155C355.514 148.9 357.546 148.866 358.779 150.099C360.011 151.331 359.989 153.374 358.723 154.64Z" stroke="#5A5A5A" stroke-width="0.5"/>
<path d="M365.529 147.833C364.252 149.11 362.231 149.133 360.988 147.889C359.745 146.646 359.778 144.614 361.044 143.348C362.321 142.093 364.353 142.06 365.585 143.292C366.817 144.525 366.795 146.568 365.529 147.833Z" stroke="#5A5A5A" stroke-width="0.5"/>
<path d="M311.582 184.769L328.616 201.802L345.373 185.044L328.329 168L311.582 184.769Z" fill="white" stroke="#5A5A5A" stroke-width="0.5"/>
<path d="M317.529 188.165L326.945 197.581C327.47 198.106 327.984 198.106 328.52 197.57L340.971 185.12C341.485 184.606 341.496 184.081 340.992 183.556L331.554 174.139C331.051 173.614 330.526 173.625 330.001 174.15L317.55 186.601C317.004 187.104 317.004 187.64 317.529 188.165Z" fill="white" stroke="#5A5A5A" stroke-width="0.5"/>
<path d="M321.183 177.782C321.847 177.14 322.865 177.107 323.486 177.729L327.964 183.128L327.964 183.149C328.339 183.524 328.328 184.135 327.932 184.531C327.535 184.928 326.924 184.939 326.528 184.564L321.129 180.086C320.518 179.475 320.54 178.447 321.183 177.782Z" stroke="#5A5A5A" stroke-width="0.5"/>
<mask id="path-71-inside-1_8_3012" fill="white">
<path fill-rule="evenodd" clip-rule="evenodd" d="M322.64 177.29L325.072 180.236C325.436 180.622 325.436 181.243 325.018 181.639C324.622 182.036 324.022 182.036 323.636 181.672L320.69 179.24"/>
</mask>
<path fill-rule="evenodd" clip-rule="evenodd" d="M322.64 177.29L325.072 180.236C325.436 180.622 325.436 181.243 325.018 181.639C324.622 182.036 324.022 182.036 323.636 181.672L320.69 179.24" fill="white"/>
<path d="M325.072 180.236L324.709 180.579L324.697 180.567L324.686 180.554L325.072 180.236ZM325.018 181.639L324.665 181.286L324.674 181.277L325.018 181.639ZM323.636 181.672L323.955 181.286L323.967 181.297L323.98 181.308L323.636 181.672ZM323.026 176.972L325.458 179.918L324.686 180.554L322.255 177.608L323.026 176.972ZM325.436 179.893C325.989 180.478 325.981 181.415 325.362 182.002L324.674 181.277C324.891 181.071 324.884 180.765 324.709 180.579L325.436 179.893ZM325.372 181.993C324.785 182.579 323.877 182.587 323.293 182.035L323.98 181.308C324.167 181.485 324.458 181.492 324.665 181.286L325.372 181.993ZM323.318 182.057L320.372 179.626L321.009 178.854L323.955 181.286L323.318 182.057Z" fill="#5A5A5A" mask="url(#path-71-inside-1_8_3012)"/>
<path d="M174.915 168.588L173.734 168.583L170.669 168.626L163.078 168.694L162.989 158.737L174.826 158.632C177.843 158.605 180.322 160.826 180.347 163.578C180.371 166.296 177.932 168.562 174.915 168.588Z" fill="white" stroke="#5A5A5A" stroke-width="0.5"/>
<path d="M174.839 167.443L173.905 167.451L166.347 167.519L166.278 159.838L173.836 159.771L174.771 159.779C177.148 159.758 179.098 161.444 179.117 163.572C179.12 165.685 177.2 167.422 174.839 167.443Z" fill="white" stroke="#5A5A5A" stroke-width="0.5"/>
<path d="M156.612 156.992L161.875 156.945C162.481 156.94 162.977 157.427 162.983 158.033L163.083 169.316C163.089 169.922 162.601 170.418 161.995 170.423L156.732 170.47C156.125 170.476 155.629 169.989 155.623 169.383L155.523 158.116C155.518 157.493 156.005 156.998 156.612 156.992Z" fill="white" stroke="#5A5A5A" stroke-width="0.5"/>
<path d="M159.289 163.061C159.699 163.057 160.013 163.349 160.016 163.693C160.036 164.053 159.711 164.351 159.301 164.355C158.891 164.358 158.577 164.066 158.574 163.722C158.587 163.346 158.896 163.048 159.289 163.061Z" fill="white" stroke="#5A5A5A" stroke-width="0.5"/>
<path d="M190.596 122.54L190.596 134.848C190.596 135.704 189.913 136.389 189.058 136.389L170.539 136.389C169.684 136.389 169 135.704 169 134.848L169 122.54C169 121.685 169.684 121 170.539 121L189.058 121C189.898 121 190.596 121.685 190.596 122.54Z" fill="white" stroke="#5A5A5A" stroke-width="0.5"/>
<path d="M188.673 127.232L188.673 129.129C188.673 131.625 186.65 133.65 184.157 133.65L175.439 133.65C172.946 133.65 170.923 131.625 170.923 129.129L170.923 127.232C170.923 124.737 172.946 122.711 175.439 122.711L184.157 122.711C186.65 122.711 188.673 124.737 188.673 127.232Z" fill="white" stroke="#5A5A5A" stroke-width="0.5"/>
<path d="M180.753 125.122C180.753 125.665 180.326 126.106 179.799 126.106C179.272 126.106 178.844 125.665 178.844 125.122C178.844 124.578 179.272 124.138 179.799 124.138C180.326 124.138 180.753 124.578 180.753 125.122Z" fill="white" stroke="#5A5A5A" stroke-width="0.5"/>
<path d="M66.35 257.42V255.6L68.17 254.2H69.64V264H68.03V256.16L66.35 257.42ZM71.0411 264V262.46L74.3871 260.094C75.1151 259.571 75.6378 259.086 75.9551 258.638C76.2724 258.19 76.4311 257.714 76.4311 257.21C76.4311 256.678 76.2678 256.253 75.9411 255.936C75.6144 255.619 75.1711 255.46 74.6111 255.46C73.9204 255.46 73.4024 255.74 73.0571 256.3C72.9078 256.543 72.7958 256.823 72.7211 257.14H71.0411C71.1251 256.543 71.3071 256.006 71.5871 255.53C72.2498 254.457 73.2578 253.92 74.6111 253.92C75.6471 253.92 76.4871 254.228 77.1311 254.844C77.7844 255.451 78.1111 256.216 78.1111 257.14C78.1111 257.943 77.9058 258.666 77.4951 259.31C77.0844 259.945 76.4264 260.575 75.5211 261.2L74.1211 262.18L73.4911 262.46V262.53L74.3311 262.46H78.1111V264H71.0411ZM79.2338 263.23C79.2338 262.95 79.3225 262.717 79.4998 262.53C79.6865 262.343 79.9152 262.25 80.1858 262.25C80.4938 262.25 80.7365 262.362 80.9138 262.586C81.1005 262.81 81.1938 263.141 81.1938 263.58C81.1938 264.299 81.0212 264.849 80.6758 265.232C80.3398 265.624 79.8825 265.82 79.3038 265.82V265.12C79.5838 265.12 79.8032 265.041 79.9618 264.882C80.1298 264.733 80.2138 264.532 80.2138 264.28V264.196C80.2045 264.187 80.1998 264.168 80.1998 264.14V264.098L80.1158 264.126C80.0878 264.135 80.0272 264.14 79.9338 264.14C79.7472 264.14 79.5838 264.056 79.4438 263.888C79.3038 263.72 79.2338 263.501 79.2338 263.23ZM82.24 260.78C82.24 260.332 82.338 259.865 82.534 259.38C82.7393 258.885 82.9353 258.498 83.122 258.218C83.318 257.929 83.584 257.569 83.92 257.14L86.16 254.2H88.05L85.936 256.958L85.32 257.49V257.56L85.6 257.462C85.88 257.387 86.1833 257.35 86.51 257.35C87.4247 257.35 88.1993 257.681 88.834 258.344C89.478 258.997 89.8 259.809 89.8 260.78C89.8 261.769 89.4453 262.6 88.736 263.272C88.0267 263.944 87.1213 264.28 86.02 264.28C84.9187 264.28 84.0133 263.944 83.304 263.272C82.5947 262.6 82.24 261.769 82.24 260.78ZM84.494 259.324C84.1113 259.697 83.92 260.183 83.92 260.78C83.92 261.377 84.1113 261.867 84.494 262.25C84.8767 262.623 85.3853 262.81 86.02 262.81C86.6547 262.81 87.1633 262.623 87.546 262.25C87.9287 261.867 88.12 261.377 88.12 260.78C88.12 260.183 87.9287 259.697 87.546 259.324C87.1633 258.941 86.6547 258.75 86.02 258.75C85.3853 258.75 84.8767 258.941 84.494 259.324ZM89.806 255.74V254.2H96.456V255.74L92.536 264H90.786L94.636 255.88V255.74H89.806Z" fill="#333333"/>
<path d="M201.35 342.42V340.6L203.17 339.2H204.64V349H203.03V341.16L201.35 342.42ZM206.181 342.42C206.181 341.431 206.536 340.6 207.245 339.928C207.954 339.256 208.86 338.92 209.961 338.92C211.062 338.92 211.968 339.256 212.677 339.928C213.386 340.6 213.741 341.431 213.741 342.42C213.741 343.307 213.372 344.263 212.635 345.29C212.56 345.393 212.458 345.533 212.327 345.71C212.196 345.878 212.108 345.995 212.061 346.06L209.821 349H207.931L210.045 346.242L210.661 345.71V345.64C210.642 345.649 210.549 345.687 210.381 345.752C210.138 345.817 209.835 345.85 209.471 345.85C208.556 345.85 207.777 345.523 207.133 344.87C206.498 344.207 206.181 343.391 206.181 342.42ZM208.435 340.964C208.052 341.337 207.861 341.823 207.861 342.42C207.861 343.017 208.052 343.507 208.435 343.89C208.818 344.263 209.326 344.45 209.961 344.45C210.596 344.45 211.104 344.263 211.487 343.89C211.87 343.507 212.061 343.017 212.061 342.42C212.061 341.823 211.87 341.337 211.487 340.964C211.104 340.581 210.596 340.39 209.961 340.39C209.326 340.39 208.818 340.581 208.435 340.964ZM214.794 348.23C214.794 347.95 214.883 347.717 215.06 347.53C215.247 347.343 215.476 347.25 215.746 347.25C216.054 347.25 216.297 347.362 216.474 347.586C216.661 347.81 216.754 348.141 216.754 348.58C216.754 349.299 216.582 349.849 216.236 350.232C215.9 350.624 215.443 350.82 214.864 350.82V350.12C215.144 350.12 215.364 350.041 215.522 349.882C215.69 349.733 215.774 349.532 215.774 349.28V349.196C215.765 349.187 215.76 349.168 215.76 349.14V349.098L215.676 349.126C215.648 349.135 215.588 349.14 215.494 349.14C215.308 349.14 215.144 349.056 215.004 348.888C214.864 348.72 214.794 348.501 214.794 348.23ZM217.871 346.27H219.551C219.625 346.559 219.751 346.807 219.929 347.012C220.339 347.497 220.937 347.74 221.721 347.74C222.346 347.74 222.841 347.572 223.205 347.236C223.569 346.9 223.751 346.461 223.751 345.92C223.751 345.351 223.569 344.893 223.205 344.548C222.841 344.203 222.346 344.03 221.721 344.03C221.142 344.03 220.652 344.184 220.251 344.492C220.092 344.613 219.952 344.763 219.831 344.94H218.291L218.711 339.2H224.661V340.74H220.041L219.831 343.26H219.901C220.05 343.111 220.223 342.985 220.419 342.882C220.857 342.621 221.385 342.49 222.001 342.49C222.981 342.49 223.797 342.817 224.451 343.47C225.104 344.123 225.431 344.94 225.431 345.92C225.431 346.881 225.085 347.684 224.395 348.328C223.713 348.963 222.822 349.28 221.721 349.28C220.283 349.28 219.215 348.781 218.515 347.782C218.216 347.343 218.001 346.839 217.871 346.27ZM226.134 347.04V345.5L229.424 339.2H231.174L227.884 345.5H231.104V343.12H231.174H232.714V345.5H234.114V347.04H232.714V349H231.104V347.04H226.134Z" fill="#333333"/>
<path d="M350.35 270.42V268.6L352.17 267.2H353.64V277H352.03V269.16L350.35 270.42ZM354.761 268.74V267.2H361.411V268.74L357.491 277H355.741L359.591 268.88V268.74H354.761ZM360.855 276.23C360.855 275.95 360.944 275.717 361.121 275.53C361.308 275.343 361.536 275.25 361.807 275.25C362.115 275.25 362.358 275.362 362.535 275.586C362.722 275.81 362.815 276.141 362.815 276.58C362.815 277.299 362.642 277.849 362.297 278.232C361.961 278.624 361.504 278.82 360.925 278.82V278.12C361.205 278.12 361.424 278.041 361.583 277.882C361.751 277.733 361.835 277.532 361.835 277.28V277.196C361.826 277.187 361.821 277.168 361.821 277.14V277.098L361.737 277.126C361.709 277.135 361.648 277.14 361.555 277.14C361.368 277.14 361.205 277.056 361.065 276.888C360.925 276.72 360.855 276.501 360.855 276.23ZM363.931 274.34C363.931 273.491 364.258 272.814 364.911 272.31C365.191 272.114 365.518 271.965 365.891 271.862V271.778C365.602 271.666 365.345 271.512 365.121 271.316C364.608 270.877 364.351 270.299 364.351 269.58C364.351 268.843 364.664 268.217 365.289 267.704C365.924 267.181 366.778 266.92 367.851 266.92C368.924 266.92 369.774 267.181 370.399 267.704C371.034 268.217 371.351 268.843 371.351 269.58C371.351 270.28 371.094 270.859 370.581 271.316C370.338 271.512 370.082 271.666 369.811 271.778V271.862C370.166 271.955 370.492 272.109 370.791 272.324C371.444 272.828 371.771 273.5 371.771 274.34C371.771 275.152 371.416 275.847 370.707 276.426C370.007 276.995 369.055 277.28 367.851 277.28C366.647 277.28 365.69 276.995 364.981 276.426C364.281 275.847 363.931 275.152 363.931 274.34ZM366.031 269.72C366.031 270.131 366.19 270.467 366.507 270.728C366.824 270.989 367.272 271.12 367.851 271.12C368.43 271.12 368.878 270.989 369.195 270.728C369.512 270.467 369.671 270.131 369.671 269.72C369.671 269.347 369.508 269.034 369.181 268.782C368.864 268.521 368.42 268.39 367.851 268.39C367.282 268.39 366.834 268.521 366.507 268.782C366.19 269.034 366.031 269.347 366.031 269.72ZM366.199 273.066C365.807 273.374 365.611 273.752 365.611 274.2C365.611 274.648 365.807 275.031 366.199 275.348C366.6 275.656 367.151 275.81 367.851 275.81C368.551 275.81 369.097 275.656 369.489 275.348C369.89 275.031 370.091 274.648 370.091 274.2C370.091 273.752 369.89 273.374 369.489 273.066C369.097 272.749 368.551 272.59 367.851 272.59C367.151 272.59 366.6 272.749 366.199 273.066ZM372.746 277V275.46L376.092 273.094C376.82 272.571 377.343 272.086 377.66 271.638C377.978 271.19 378.136 270.714 378.136 270.21C378.136 269.678 377.973 269.253 377.646 268.936C377.32 268.619 376.876 268.46 376.316 268.46C375.626 268.46 375.108 268.74 374.762 269.3C374.613 269.543 374.501 269.823 374.426 270.14H372.746C372.83 269.543 373.012 269.006 373.292 268.53C373.955 267.457 374.963 266.92 376.316 266.92C377.352 266.92 378.192 267.228 378.836 267.844C379.49 268.451 379.816 269.216 379.816 270.14C379.816 270.943 379.611 271.666 379.2 272.31C378.79 272.945 378.132 273.575 377.226 274.2L375.826 275.18L375.196 275.46V275.53L376.036 275.46H379.816V277H372.746Z" fill="#333333"/>
<path d="M276.56 124.27H278.24C278.315 124.559 278.441 124.807 278.618 125.012C279.029 125.497 279.626 125.74 280.41 125.74C281.035 125.74 281.53 125.572 281.894 125.236C282.258 124.9 282.44 124.461 282.44 123.92C282.44 123.351 282.258 122.893 281.894 122.548C281.53 122.203 281.035 122.03 280.41 122.03C279.831 122.03 279.341 122.184 278.94 122.492C278.781 122.613 278.641 122.763 278.52 122.94H276.98L277.4 117.2H283.35V118.74H278.73L278.52 121.26H278.59C278.739 121.111 278.912 120.985 279.108 120.882C279.547 120.621 280.074 120.49 280.69 120.49C281.67 120.49 282.487 120.817 283.14 121.47C283.793 122.123 284.12 122.94 284.12 123.92C284.12 124.881 283.775 125.684 283.084 126.328C282.403 126.963 281.511 127.28 280.41 127.28C278.973 127.28 277.904 126.781 277.204 125.782C276.905 125.343 276.691 124.839 276.56 124.27ZM285.173 126.23C285.173 125.95 285.262 125.717 285.439 125.53C285.626 125.343 285.855 125.25 286.125 125.25C286.433 125.25 286.676 125.362 286.853 125.586C287.04 125.81 287.133 126.141 287.133 126.58C287.133 127.299 286.961 127.849 286.615 128.232C286.279 128.624 285.822 128.82 285.243 128.82V128.12C285.523 128.12 285.743 128.041 285.901 127.882C286.069 127.733 286.153 127.532 286.153 127.28V127.196C286.144 127.187 286.139 127.168 286.139 127.14V127.098L286.055 127.126C286.027 127.135 285.967 127.14 285.873 127.14C285.687 127.14 285.523 127.056 285.383 126.888C285.243 126.72 285.173 126.501 285.173 126.23ZM288.179 123.78C288.179 123.332 288.277 122.865 288.473 122.38C288.679 121.885 288.875 121.498 289.061 121.218C289.257 120.929 289.523 120.569 289.859 120.14L292.099 117.2H293.989L291.875 119.958L291.259 120.49V120.56L291.539 120.462C291.819 120.387 292.123 120.35 292.449 120.35C293.364 120.35 294.139 120.681 294.773 121.344C295.417 121.997 295.739 122.809 295.739 123.78C295.739 124.769 295.385 125.6 294.675 126.272C293.966 126.944 293.061 127.28 291.959 127.28C290.858 127.28 289.953 126.944 289.243 126.272C288.534 125.6 288.179 124.769 288.179 123.78ZM290.433 122.324C290.051 122.697 289.859 123.183 289.859 123.78C289.859 124.377 290.051 124.867 290.433 125.25C290.816 125.623 291.325 125.81 291.959 125.81C292.594 125.81 293.103 125.623 293.485 125.25C293.868 124.867 294.059 124.377 294.059 123.78C294.059 123.183 293.868 122.697 293.485 122.324C293.103 121.941 292.594 121.75 291.959 121.75C291.325 121.75 290.816 121.941 290.433 122.324ZM296.793 123.78C296.793 123.332 296.891 122.865 297.087 122.38C297.292 121.885 297.488 121.498 297.675 121.218C297.871 120.929 298.137 120.569 298.473 120.14L300.713 117.2H302.603L300.489 119.958L299.873 120.49V120.56L300.153 120.462C300.433 120.387 300.736 120.35 301.063 120.35C301.977 120.35 302.752 120.681 303.387 121.344C304.031 121.997 304.353 122.809 304.353 123.78C304.353 124.769 303.998 125.6 303.289 126.272C302.579 126.944 301.674 127.28 300.573 127.28C299.471 127.28 298.566 126.944 297.857 126.272C297.147 125.6 296.793 124.769 296.793 123.78ZM299.047 122.324C298.664 122.697 298.473 123.183 298.473 123.78C298.473 124.377 298.664 124.867 299.047 125.25C299.429 125.623 299.938 125.81 300.573 125.81C301.207 125.81 301.716 125.623 302.099 125.25C302.481 124.867 302.673 124.377 302.673 123.78C302.673 123.183 302.481 122.697 302.099 122.324C301.716 121.941 301.207 121.75 300.573 121.75C299.938 121.75 299.429 121.941 299.047 122.324Z" fill="#333333"/>
<path d="M179.42 155V153.46L182.766 151.094C183.494 150.571 184.017 150.086 184.334 149.638C184.651 149.19 184.81 148.714 184.81 148.21C184.81 147.678 184.647 147.253 184.32 146.936C183.993 146.619 183.55 146.46 182.99 146.46C182.299 146.46 181.781 146.74 181.436 147.3C181.287 147.543 181.175 147.823 181.1 148.14H179.42C179.504 147.543 179.686 147.006 179.966 146.53C180.629 145.457 181.637 144.92 182.99 144.92C184.026 144.92 184.866 145.228 185.51 145.844C186.163 146.451 186.49 147.216 186.49 148.14C186.49 148.943 186.285 149.666 185.874 150.31C185.463 150.945 184.805 151.575 183.9 152.2L182.5 153.18L181.87 153.46V153.53L182.71 153.46H186.49V155H179.42ZM187.613 154.23C187.613 153.95 187.701 153.717 187.879 153.53C188.065 153.343 188.294 153.25 188.565 153.25C188.873 153.25 189.115 153.362 189.293 153.586C189.479 153.81 189.573 154.141 189.573 154.58C189.573 155.299 189.4 155.849 189.055 156.232C188.719 156.624 188.261 156.82 187.683 156.82V156.12C187.963 156.12 188.182 156.041 188.341 155.882C188.509 155.733 188.593 155.532 188.593 155.28V155.196C188.583 155.187 188.579 155.168 188.579 155.14V155.098L188.495 155.126C188.467 155.135 188.406 155.14 188.313 155.14C188.126 155.14 187.963 155.056 187.823 154.888C187.683 154.72 187.613 154.501 187.613 154.23ZM190.339 153.04V151.5L193.629 145.2H195.379L192.089 151.5H195.309V149.12H195.379H196.919V151.5H198.319V153.04H196.919V155H195.309V153.04H190.339ZM200.278 153.824C199.392 152.853 198.948 151.612 198.948 150.1C198.948 148.588 199.392 147.347 200.278 146.376C201.165 145.405 202.238 144.92 203.498 144.92C204.758 144.92 205.832 145.405 206.718 146.376C207.605 147.347 208.048 148.588 208.048 150.1C208.048 151.612 207.605 152.853 206.718 153.824C205.832 154.795 204.758 155.28 203.498 155.28C202.238 155.28 201.165 154.795 200.278 153.824ZM201.426 147.412C200.894 148.047 200.628 148.943 200.628 150.1C200.628 151.257 200.894 152.153 201.426 152.788C201.968 153.423 202.658 153.74 203.498 153.74C204.338 153.74 205.024 153.423 205.556 152.788C206.098 152.153 206.368 151.257 206.368 150.1C206.368 148.943 206.098 148.047 205.556 147.412C205.024 146.777 204.338 146.46 203.498 146.46C202.658 146.46 201.968 146.777 201.426 147.412Z" fill="#333333"/>
<circle cx="221.5" cy="262.5" r="39.5" fill="#5A5A5A"/>
<path d="M197.63 265.86C197.63 265.284 197.756 264.684 198.008 264.06C198.272 263.424 198.524 262.926 198.764 262.566C199.016 262.194 199.358 261.732 199.79 261.18L202.67 257.4H205.1L202.382 260.946L201.59 261.63V261.72L201.95 261.594C202.31 261.498 202.7 261.45 203.12 261.45C204.296 261.45 205.292 261.876 206.108 262.728C206.936 263.568 207.35 264.612 207.35 265.86C207.35 267.132 206.894 268.2 205.982 269.064C205.07 269.928 203.906 270.36 202.49 270.36C201.074 270.36 199.91 269.928 198.998 269.064C198.086 268.2 197.63 267.132 197.63 265.86ZM200.528 263.988C200.036 264.468 199.79 265.092 199.79 265.86C199.79 266.628 200.036 267.258 200.528 267.75C201.02 268.23 201.674 268.47 202.49 268.47C203.306 268.47 203.96 268.23 204.452 267.75C204.944 267.258 205.19 266.628 205.19 265.86C205.19 265.092 204.944 264.468 204.452 263.988C203.96 263.496 203.306 263.25 202.49 263.25C201.674 263.25 201.02 263.496 200.528 263.988ZM208.704 265.86C208.704 265.284 208.83 264.684 209.082 264.06C209.346 263.424 209.598 262.926 209.838 262.566C210.09 262.194 210.432 261.732 210.864 261.18L213.744 257.4H216.174L213.456 260.946L212.664 261.63V261.72L213.024 261.594C213.384 261.498 213.774 261.45 214.194 261.45C215.37 261.45 216.366 261.876 217.182 262.728C218.01 263.568 218.424 264.612 218.424 265.86C218.424 267.132 217.968 268.2 217.056 269.064C216.144 269.928 214.98 270.36 213.564 270.36C212.148 270.36 210.984 269.928 210.072 269.064C209.16 268.2 208.704 267.132 208.704 265.86ZM211.602 263.988C211.11 264.468 210.864 265.092 210.864 265.86C210.864 266.628 211.11 267.258 211.602 267.75C212.094 268.23 212.748 268.47 213.564 268.47C214.38 268.47 215.034 268.23 215.526 267.75C216.018 267.258 216.264 266.628 216.264 265.86C216.264 265.092 216.018 264.468 215.526 263.988C215.034 263.496 214.38 263.25 213.564 263.25C212.748 263.25 212.094 263.496 211.602 263.988ZM219.868 269.01C219.868 268.65 219.982 268.35 220.21 268.11C220.45 267.87 220.744 267.75 221.092 267.75C221.488 267.75 221.8 267.894 222.028 268.182C222.268 268.47 222.388 268.896 222.388 269.46C222.388 270.384 222.166 271.092 221.722 271.584C221.29 272.088 220.702 272.34 219.958 272.34V271.44C220.318 271.44 220.6 271.338 220.804 271.134C221.02 270.942 221.128 270.684 221.128 270.36V270.252C221.116 270.24 221.11 270.216 221.11 270.18V270.126L221.002 270.162C220.966 270.174 220.888 270.18 220.768 270.18C220.528 270.18 220.318 270.072 220.138 269.856C219.958 269.64 219.868 269.358 219.868 269.01ZM223.824 261.54C223.824 260.268 224.28 259.2 225.192 258.336C226.104 257.472 227.268 257.04 228.684 257.04C230.1 257.04 231.264 257.472 232.176 258.336C233.088 259.2 233.544 260.268 233.544 261.54C233.544 262.68 233.07 263.91 232.122 265.23C232.026 265.362 231.894 265.542 231.726 265.77C231.558 265.986 231.444 266.136 231.384 266.22L228.504 270H226.074L228.792 266.454L229.584 265.77V265.68C229.56 265.692 229.44 265.74 229.224 265.824C228.912 265.908 228.522 265.95 228.054 265.95C226.878 265.95 225.876 265.53 225.048 264.69C224.232 263.838 223.824 262.788 223.824 261.54ZM226.722 259.668C226.23 260.148 225.984 260.772 225.984 261.54C225.984 262.308 226.23 262.938 226.722 263.43C227.214 263.91 227.868 264.15 228.684 264.15C229.5 264.15 230.154 263.91 230.646 263.43C231.138 262.938 231.384 262.308 231.384 261.54C231.384 260.772 231.138 260.148 230.646 259.668C230.154 259.176 229.5 258.93 228.684 258.93C227.868 258.93 227.214 259.176 226.722 259.668ZM234.898 261.54C234.898 260.268 235.354 259.2 236.266 258.336C237.178 257.472 238.342 257.04 239.758 257.04C241.174 257.04 242.338 257.472 243.25 258.336C244.162 259.2 244.618 260.268 244.618 261.54C244.618 262.68 244.144 263.91 243.196 265.23C243.1 265.362 242.968 265.542 242.8 265.77C242.632 265.986 242.518 266.136 242.458 266.22L239.578 270H237.148L239.866 266.454L240.658 265.77V265.68C240.634 265.692 240.514 265.74 240.298 265.824C239.986 265.908 239.596 265.95 239.128 265.95C237.952 265.95 236.95 265.53 236.122 264.69C235.306 263.838 234.898 262.788 234.898 261.54ZM237.796 259.668C237.304 260.148 237.058 260.772 237.058 261.54C237.058 262.308 237.304 262.938 237.796 263.43C238.288 263.91 238.942 264.15 239.758 264.15C240.574 264.15 241.228 263.91 241.72 263.43C242.212 262.938 242.458 262.308 242.458 261.54C242.458 260.772 242.212 260.148 241.72 259.668C241.228 259.176 240.574 258.93 239.758 258.93C238.942 258.93 238.288 259.176 237.796 259.668Z" fill="white"/>
</svg>
