<svg width="493" height="376" viewBox="0 0 493 376" fill="none" xmlns="http://www.w3.org/2000/svg">
<rect width="78.3576" height="415.731" transform="matrix(1.19249e-08 -1 -1 -1.19249e-08 432.055 115.896)" fill="#FFF8BA"/>
<rect width="94.6821" height="76.181" transform="matrix(1.19249e-08 -1 -1 -1.19249e-08 432.055 115.896)" fill="#FFC79F"/>
<rect width="180.658" height="463.616" transform="matrix(1.19249e-08 -1 -1 -1.19249e-08 479.94 290.024)" fill="#FFF8BA"/>
<path d="M476.363 161.605L451.645 161.605L451.645 185.661L476.363 185.661L476.363 161.605Z" fill="white" stroke="#5A5A5A" stroke-width="0.5"/>
<path d="M453.649 162.521L472.887 162.521C473.616 162.521 474.004 162.91 474.004 163.671L474.004 183.595C474.004 184.372 473.632 184.745 472.887 184.745L453.649 184.745C452.903 184.76 452.531 184.372 452.531 183.611L452.531 163.686C452.515 162.91 452.903 162.521 453.649 162.521Z" fill="white" stroke="#5A5A5A" stroke-width="0.5"/>
<path d="M455.418 168.951C455.434 170.721 456.831 172.166 458.555 172.166C460.294 172.166 461.691 170.721 461.691 168.951C461.691 167.165 460.294 165.736 458.555 165.736C456.816 165.736 455.418 167.165 455.418 168.951Z" stroke="#5A5A5A" stroke-width="0.5"/>
<path d="M455.448 178.47C455.464 180.241 456.861 181.685 458.584 181.685C460.323 181.685 461.721 180.241 461.721 178.47C461.721 176.684 460.323 175.256 458.584 175.256C456.845 175.24 455.432 176.684 455.448 178.47Z" stroke="#5A5A5A" stroke-width="0.5"/>
<path d="M464.362 178.47C464.362 180.256 465.759 181.685 467.498 181.685C469.237 181.685 470.635 180.241 470.635 178.47C470.619 176.7 469.222 175.256 467.498 175.256C465.775 175.256 464.362 176.7 464.362 178.47Z" stroke="#5A5A5A" stroke-width="0.5"/>
<path d="M464.362 168.951C464.362 170.737 465.759 172.166 467.498 172.166C469.237 172.166 470.635 170.721 470.635 168.951C470.619 167.18 469.222 165.736 467.498 165.736C465.775 165.736 464.362 167.18 464.362 168.951Z" stroke="#5A5A5A" stroke-width="0.5"/>
<path d="M457.669 117L457.669 140.822L434.232 140.822L434.232 116.985L457.669 117Z" fill="white" stroke="#5A5A5A" stroke-width="0.5"/>
<path d="M455.886 123.533L455.886 136.702C455.886 137.436 455.526 137.796 454.777 137.796L437.364 137.796C436.645 137.796 436.27 137.436 436.255 136.717L436.27 123.533C436.255 122.814 436.63 122.454 437.364 122.454L454.777 122.454C455.511 122.424 455.886 122.799 455.886 123.533Z" fill="white" stroke="#5A5A5A" stroke-width="0.5"/>
<path d="M446.07 118.828C445.156 118.842 444.422 119.532 444.422 120.401L445.066 127.308L445.081 127.323C445.081 127.847 445.516 128.266 446.07 128.266C446.625 128.266 447.059 127.847 447.074 127.308L447.719 120.401C447.719 119.547 446.984 118.842 446.07 118.828Z" stroke="#5A5A5A" stroke-width="0.5"/>
<mask id="path-13-inside-1_35_9913" fill="white">
<path fill-rule="evenodd" clip-rule="evenodd" d="M444.706 119.503L445.066 123.263C445.081 123.788 445.516 124.222 446.085 124.207C446.639 124.207 447.059 123.788 447.074 123.263L447.434 119.503"/>
</mask>
<path fill-rule="evenodd" clip-rule="evenodd" d="M444.706 119.503L445.066 123.263C445.081 123.788 445.516 124.222 446.085 124.207C446.639 124.207 447.059 123.788 447.074 123.263L447.434 119.503" fill="white"/>
<path d="M445.066 123.263L445.566 123.249L445.565 123.232L445.564 123.216L445.066 123.263ZM446.085 124.207L446.085 123.707L446.072 123.707L446.085 124.207ZM447.074 123.263L446.576 123.216L446.575 123.232L446.574 123.249L447.074 123.263ZM444.209 119.55L444.568 123.311L445.564 123.216L445.204 119.455L444.209 119.55ZM444.566 123.277C444.589 124.077 445.252 124.729 446.098 124.707L446.072 123.707C445.779 123.715 445.573 123.499 445.566 123.249L444.566 123.277ZM446.085 124.707C446.908 124.707 447.551 124.074 447.574 123.277L446.574 123.249C446.567 123.501 446.371 123.707 446.085 123.707L446.085 124.707ZM447.572 123.311L447.931 119.55L446.936 119.455L446.576 123.216L447.572 123.311Z" fill="#5A5A5A" mask="url(#path-13-inside-1_35_9913)"/>
<circle cx="247.894" cy="189.662" r="38.9399" fill="#5A5A5A"/>
<path d="M217.84 187.198V185.218H226.39V187.198L221.35 197.818H219.1L224.05 187.378V187.198H217.84ZM227.288 197.818V195.838L231.59 192.796C232.526 192.124 233.198 191.5 233.606 190.924C234.014 190.348 234.218 189.736 234.218 189.088C234.218 188.404 234.008 187.858 233.588 187.45C233.168 187.042 232.598 186.838 231.878 186.838C230.99 186.838 230.324 187.198 229.88 187.918C229.688 188.23 229.544 188.59 229.448 188.998H227.288C227.396 188.23 227.63 187.54 227.99 186.928C228.842 185.548 230.138 184.858 231.878 184.858C233.21 184.858 234.29 185.254 235.118 186.046C235.958 186.826 236.378 187.81 236.378 188.998C236.378 190.03 236.114 190.96 235.586 191.788C235.058 192.604 234.212 193.414 233.048 194.218L231.248 195.478L230.438 195.838V195.928L231.518 195.838H236.378V197.818H227.288ZM237.821 196.828C237.821 196.468 237.935 196.168 238.163 195.928C238.403 195.688 238.697 195.568 239.045 195.568C239.441 195.568 239.753 195.712 239.981 196C240.221 196.288 240.341 196.714 240.341 197.278C240.341 198.202 240.119 198.91 239.675 199.402C239.243 199.906 238.655 200.158 237.911 200.158V199.258C238.271 199.258 238.553 199.156 238.757 198.952C238.973 198.76 239.081 198.502 239.081 198.178V198.07C239.069 198.058 239.063 198.034 239.063 197.998V197.944L238.955 197.98C238.919 197.992 238.841 197.998 238.721 197.998C238.481 197.998 238.271 197.89 238.091 197.674C237.911 197.458 237.821 197.176 237.821 196.828ZM241.777 194.308H243.937C244.033 194.68 244.195 194.998 244.423 195.262C244.951 195.886 245.719 196.198 246.727 196.198C247.531 196.198 248.167 195.982 248.635 195.55C249.103 195.118 249.337 194.554 249.337 193.858C249.337 193.126 249.103 192.538 248.635 192.094C248.167 191.65 247.531 191.428 246.727 191.428C245.983 191.428 245.353 191.626 244.837 192.022C244.633 192.178 244.453 192.37 244.297 192.598H242.317L242.857 185.218H250.507V187.198H244.567L244.297 190.438H244.387C244.579 190.246 244.801 190.084 245.053 189.952C245.617 189.616 246.295 189.448 247.087 189.448C248.347 189.448 249.397 189.868 250.237 190.708C251.077 191.548 251.497 192.598 251.497 193.858C251.497 195.094 251.053 196.126 250.165 196.954C249.289 197.77 248.143 198.178 246.727 198.178C244.879 198.178 243.505 197.536 242.605 196.252C242.221 195.688 241.945 195.04 241.777 194.308ZM252.761 193.678C252.761 193.102 252.887 192.502 253.139 191.878C253.403 191.242 253.655 190.744 253.895 190.384C254.147 190.012 254.489 189.55 254.921 188.998L257.801 185.218H260.231L257.513 188.764L256.721 189.448V189.538L257.081 189.412C257.441 189.316 257.831 189.268 258.251 189.268C259.427 189.268 260.423 189.694 261.239 190.546C262.067 191.386 262.481 192.43 262.481 193.678C262.481 194.95 262.025 196.018 261.113 196.882C260.201 197.746 259.037 198.178 257.621 198.178C256.205 198.178 255.041 197.746 254.129 196.882C253.217 196.018 252.761 194.95 252.761 193.678ZM255.659 191.806C255.167 192.286 254.921 192.91 254.921 193.678C254.921 194.446 255.167 195.076 255.659 195.568C256.151 196.048 256.805 196.288 257.621 196.288C258.437 196.288 259.091 196.048 259.583 195.568C260.075 195.076 260.321 194.446 260.321 193.678C260.321 192.91 260.075 192.286 259.583 191.806C259.091 191.314 258.437 191.068 257.621 191.068C256.805 191.068 256.151 191.314 255.659 191.806Z" fill="white"/>
<path d="M280.991 255.356V253.816L284.281 247.516H286.031L282.741 253.816H285.961V251.436H286.031H287.571V253.816H288.971V255.356H287.571V257.316H285.961V255.356H280.991ZM289.605 255.356V253.816L292.895 247.516H294.645L291.355 253.816H294.575V251.436H294.645H296.185V253.816H297.585V255.356H296.185V257.316H294.575V255.356H289.605ZM298.144 256.546C298.144 256.266 298.233 256.032 298.41 255.846C298.597 255.659 298.826 255.566 299.096 255.566C299.404 255.566 299.647 255.678 299.824 255.902C300.011 256.126 300.104 256.457 300.104 256.896C300.104 257.614 299.932 258.165 299.586 258.548C299.25 258.94 298.793 259.136 298.214 259.136V258.436C298.494 258.436 298.714 258.356 298.872 258.198C299.04 258.048 299.124 257.848 299.124 257.596V257.512C299.115 257.502 299.11 257.484 299.11 257.456V257.414L299.026 257.442C298.998 257.451 298.938 257.456 298.844 257.456C298.658 257.456 298.494 257.372 298.354 257.204C298.214 257.036 298.144 256.816 298.144 256.546ZM301.01 250.736V248.916L302.83 247.516H304.3V257.316H302.69V249.476L301.01 250.736ZM305.701 257.316V255.776L309.047 253.41C309.775 252.887 310.298 252.402 310.615 251.954C310.933 251.506 311.091 251.03 311.091 250.526C311.091 249.994 310.928 249.569 310.601 249.252C310.275 248.934 309.831 248.776 309.271 248.776C308.581 248.776 308.063 249.056 307.717 249.616C307.568 249.858 307.456 250.138 307.381 250.456H305.701C305.785 249.858 305.967 249.322 306.247 248.846C306.91 247.772 307.918 247.236 309.271 247.236C310.307 247.236 311.147 247.544 311.791 248.16C312.445 248.766 312.771 249.532 312.771 250.456C312.771 251.258 312.566 251.982 312.155 252.626C311.745 253.26 311.087 253.89 310.181 254.516L308.781 255.496L308.151 255.776V255.846L308.991 255.776H312.771V257.316H305.701Z" fill="#333333"/>
<path d="M230.051 349.198H231.731C231.797 349.487 231.923 349.744 232.109 349.968C232.529 350.481 233.127 350.738 233.901 350.738C234.545 350.738 235.054 350.579 235.427 350.262C235.81 349.935 236.001 349.534 236.001 349.058C236.001 348.517 235.829 348.092 235.483 347.784C235.147 347.467 234.667 347.308 234.041 347.308H231.661V345.908L234.601 343.808V343.738H230.541V342.198H236.981V343.724L234.461 345.558L233.761 345.838V345.908L233.985 345.88C234.293 345.852 234.475 345.838 234.531 345.838C235.409 345.838 236.141 346.141 236.729 346.748C237.317 347.355 237.611 348.125 237.611 349.058C237.611 349.954 237.266 350.715 236.575 351.34C235.885 351.965 234.993 352.278 233.901 352.278C232.455 352.278 231.386 351.765 230.695 350.738C230.397 350.299 230.182 349.786 230.051 349.198ZM238.668 351.228C238.668 350.948 238.757 350.715 238.934 350.528C239.121 350.341 239.349 350.248 239.62 350.248C239.928 350.248 240.171 350.36 240.348 350.584C240.535 350.808 240.628 351.139 240.628 351.578C240.628 352.297 240.455 352.847 240.11 353.23C239.774 353.622 239.317 353.818 238.738 353.818V353.118C239.018 353.118 239.237 353.039 239.396 352.88C239.564 352.731 239.648 352.53 239.648 352.278V352.194C239.639 352.185 239.634 352.166 239.634 352.138V352.096L239.55 352.124C239.522 352.133 239.461 352.138 239.368 352.138C239.181 352.138 239.018 352.054 238.878 351.886C238.738 351.718 238.668 351.499 238.668 351.228ZM241.674 348.778C241.674 348.33 241.772 347.863 241.968 347.378C242.174 346.883 242.37 346.496 242.556 346.216C242.752 345.927 243.018 345.567 243.354 345.138L245.594 342.198H247.484L245.37 344.956L244.754 345.488V345.558L245.034 345.46C245.314 345.385 245.618 345.348 245.944 345.348C246.859 345.348 247.634 345.679 248.268 346.342C248.912 346.995 249.234 347.807 249.234 348.778C249.234 349.767 248.88 350.598 248.17 351.27C247.461 351.942 246.556 352.278 245.454 352.278C244.353 352.278 243.448 351.942 242.738 351.27C242.029 350.598 241.674 349.767 241.674 348.778ZM243.928 347.322C243.546 347.695 243.354 348.181 243.354 348.778C243.354 349.375 243.546 349.865 243.928 350.248C244.311 350.621 244.82 350.808 245.454 350.808C246.089 350.808 246.598 350.621 246.98 350.248C247.363 349.865 247.554 349.375 247.554 348.778C247.554 348.181 247.363 347.695 246.98 347.322C246.598 346.939 246.089 346.748 245.454 346.748C244.82 346.748 244.311 346.939 243.928 347.322ZM250.287 348.778C250.287 348.33 250.385 347.863 250.581 347.378C250.787 346.883 250.983 346.496 251.169 346.216C251.365 345.927 251.631 345.567 251.967 345.138L254.207 342.198H256.097L253.983 344.956L253.367 345.488V345.558L253.647 345.46C253.927 345.385 254.231 345.348 254.557 345.348C255.472 345.348 256.247 345.679 256.881 346.342C257.525 346.995 257.847 347.807 257.847 348.778C257.847 349.767 257.493 350.598 256.783 351.27C256.074 351.942 255.169 352.278 254.067 352.278C252.966 352.278 252.061 351.942 251.351 351.27C250.642 350.598 250.287 349.767 250.287 348.778ZM252.541 347.322C252.159 347.695 251.967 348.181 251.967 348.778C251.967 349.375 252.159 349.865 252.541 350.248C252.924 350.621 253.433 350.808 254.067 350.808C254.702 350.808 255.211 350.621 255.593 350.248C255.976 349.865 256.167 349.375 256.167 348.778C256.167 348.181 255.976 347.695 255.593 347.322C255.211 346.939 254.702 346.748 254.067 346.748C253.433 346.748 252.924 346.939 252.541 347.322Z" fill="#333333"/>
<path d="M421.732 249.214C421.732 248.365 422.059 247.688 422.712 247.184C422.992 246.988 423.319 246.839 423.692 246.736V246.652C423.403 246.54 423.146 246.386 422.922 246.19C422.409 245.752 422.152 245.173 422.152 244.454C422.152 243.717 422.465 243.092 423.09 242.578C423.725 242.056 424.579 241.794 425.652 241.794C426.725 241.794 427.575 242.056 428.2 242.578C428.835 243.092 429.152 243.717 429.152 244.454C429.152 245.154 428.895 245.733 428.382 246.19C428.139 246.386 427.883 246.54 427.612 246.652V246.736C427.967 246.83 428.293 246.984 428.592 247.198C429.245 247.702 429.572 248.374 429.572 249.214C429.572 250.026 429.217 250.722 428.508 251.3C427.808 251.87 426.856 252.154 425.652 252.154C424.448 252.154 423.491 251.87 422.782 251.3C422.082 250.722 421.732 250.026 421.732 249.214ZM423.832 244.594C423.832 245.005 423.991 245.341 424.308 245.602C424.625 245.864 425.073 245.994 425.652 245.994C426.231 245.994 426.679 245.864 426.996 245.602C427.313 245.341 427.472 245.005 427.472 244.594C427.472 244.221 427.309 243.908 426.982 243.656C426.665 243.395 426.221 243.264 425.652 243.264C425.083 243.264 424.635 243.395 424.308 243.656C423.991 243.908 423.832 244.221 423.832 244.594ZM424 247.94C423.608 248.248 423.412 248.626 423.412 249.074C423.412 249.522 423.608 249.905 424 250.222C424.401 250.53 424.952 250.684 425.652 250.684C426.352 250.684 426.898 250.53 427.29 250.222C427.691 249.905 427.892 249.522 427.892 249.074C427.892 248.626 427.691 248.248 427.29 247.94C426.898 247.623 426.352 247.464 425.652 247.464C424.952 247.464 424.401 247.623 424 247.94ZM430.687 251.104C430.687 250.824 430.776 250.591 430.953 250.404C431.14 250.218 431.369 250.124 431.639 250.124C431.947 250.124 432.19 250.236 432.367 250.46C432.554 250.684 432.647 251.016 432.647 251.454C432.647 252.173 432.475 252.724 432.129 253.106C431.793 253.498 431.336 253.694 430.757 253.694V252.994C431.037 252.994 431.257 252.915 431.415 252.756C431.583 252.607 431.667 252.406 431.667 252.154V252.07C431.658 252.061 431.653 252.042 431.653 252.014V251.972L431.569 252C431.541 252.01 431.481 252.014 431.387 252.014C431.201 252.014 431.037 251.93 430.897 251.762C430.757 251.594 430.687 251.375 430.687 251.104ZM433.763 245.294C433.763 244.305 434.118 243.474 434.827 242.802C435.537 242.13 436.442 241.794 437.543 241.794C438.645 241.794 439.55 242.13 440.259 242.802C440.969 243.474 441.323 244.305 441.323 245.294C441.323 246.181 440.955 247.138 440.217 248.164C440.143 248.267 440.04 248.407 439.909 248.584C439.779 248.752 439.69 248.869 439.643 248.934L437.403 251.874H435.513L437.627 249.116L438.243 248.584V248.514C438.225 248.524 438.131 248.561 437.963 248.626C437.721 248.692 437.417 248.724 437.053 248.724C436.139 248.724 435.359 248.398 434.715 247.744C434.081 247.082 433.763 246.265 433.763 245.294ZM436.017 243.838C435.635 244.212 435.443 244.697 435.443 245.294C435.443 245.892 435.635 246.382 436.017 246.764C436.4 247.138 436.909 247.324 437.543 247.324C438.178 247.324 438.687 247.138 439.069 246.764C439.452 246.382 439.643 245.892 439.643 245.294C439.643 244.697 439.452 244.212 439.069 243.838C438.687 243.456 438.178 243.264 437.543 243.264C436.909 243.264 436.4 243.456 436.017 243.838ZM442.377 249.144H444.057C444.131 249.434 444.257 249.681 444.435 249.886C444.845 250.372 445.443 250.614 446.227 250.614C446.852 250.614 447.347 250.446 447.711 250.11C448.075 249.774 448.257 249.336 448.257 248.794C448.257 248.225 448.075 247.768 447.711 247.422C447.347 247.077 446.852 246.904 446.227 246.904C445.648 246.904 445.158 247.058 444.757 247.366C444.598 247.488 444.458 247.637 444.337 247.814H442.797L443.217 242.074H449.167V243.614H444.547L444.337 246.134H444.407C444.556 245.985 444.729 245.859 444.925 245.756C445.363 245.495 445.891 245.364 446.507 245.364C447.487 245.364 448.303 245.691 448.957 246.344C449.61 246.998 449.937 247.814 449.937 248.794C449.937 249.756 449.591 250.558 448.901 251.202C448.219 251.837 447.328 252.154 446.227 252.154C444.789 252.154 443.721 251.655 443.021 250.656C442.722 250.218 442.507 249.714 442.377 249.144Z" fill="#333333"/>
<path d="M363.912 74.9462H365.592C365.658 75.2355 365.784 75.4922 365.97 75.7162C366.39 76.2295 366.988 76.4862 367.762 76.4862C368.406 76.4862 368.915 76.3275 369.288 76.0102C369.671 75.6835 369.862 75.2822 369.862 74.8062C369.862 74.2649 369.69 73.8402 369.344 73.5322C369.008 73.2149 368.528 73.0562 367.902 73.0562H365.522V71.6562L368.462 69.5562V69.4862H364.402V67.9462H370.842V69.4722L368.322 71.3062L367.622 71.5862V71.6562L367.846 71.6282C368.154 71.6002 368.336 71.5862 368.392 71.5862C369.27 71.5862 370.002 71.8895 370.59 72.4962C371.178 73.1029 371.472 73.8729 371.472 74.8062C371.472 75.7022 371.127 76.4629 370.436 77.0882C369.746 77.7135 368.854 78.0262 367.762 78.0262C366.316 78.0262 365.247 77.5129 364.556 76.4862C364.258 76.0475 364.043 75.5342 363.912 74.9462ZM372.529 76.9762C372.529 76.6962 372.617 76.4629 372.795 76.2762C372.981 76.0895 373.21 75.9962 373.481 75.9962C373.789 75.9962 374.031 76.1082 374.209 76.3322C374.395 76.5562 374.489 76.8875 374.489 77.3262C374.489 78.0449 374.316 78.5955 373.971 78.9782C373.635 79.3702 373.177 79.5662 372.599 79.5662V78.8662C372.879 78.8662 373.098 78.7869 373.257 78.6282C373.425 78.4789 373.509 78.2782 373.509 78.0262V77.9422C373.499 77.9329 373.495 77.9142 373.495 77.8862V77.8442L373.411 77.8722C373.383 77.8815 373.322 77.8862 373.229 77.8862C373.042 77.8862 372.879 77.8022 372.739 77.6342C372.599 77.4662 372.529 77.2469 372.529 76.9762ZM375.465 77.7462V76.2062L378.811 73.8402C379.539 73.3175 380.062 72.8322 380.379 72.3842C380.696 71.9362 380.855 71.4602 380.855 70.9562C380.855 70.4242 380.692 69.9995 380.365 69.6822C380.038 69.3649 379.595 69.2062 379.035 69.2062C378.344 69.2062 377.826 69.4862 377.481 70.0462C377.332 70.2889 377.22 70.5689 377.145 70.8862H375.465C375.549 70.2889 375.731 69.7522 376.011 69.2762C376.674 68.2029 377.682 67.6662 379.035 67.6662C380.071 67.6662 380.911 67.9742 381.555 68.5902C382.208 69.1969 382.535 69.9622 382.535 70.8862C382.535 71.6889 382.33 72.4122 381.919 73.0562C381.508 73.6909 380.85 74.3209 379.945 74.9462L378.545 75.9262L377.915 76.2062V76.2762L378.755 76.2062H382.535V77.7462H375.465ZM383.308 75.7862V74.2462L386.598 67.9462H388.348L385.058 74.2462H388.278V71.8662H388.348H389.888V74.2462H391.288V75.7862H389.888V77.7462H388.278V75.7862H383.308Z" fill="#333333"/>
<path d="M211.48 71.1662V69.3462L213.3 67.9462H214.77V77.7462H213.16V69.9062L211.48 71.1662ZM216.101 71.1662V69.3462L217.921 67.9462H219.391V77.7462H217.781V69.9062L216.101 71.1662ZM220.932 76.9762C220.932 76.6962 221.021 76.4629 221.198 76.2762C221.385 76.0895 221.614 75.9962 221.884 75.9962C222.192 75.9962 222.435 76.1082 222.612 76.3322C222.799 76.5562 222.892 76.8875 222.892 77.3262C222.892 78.0449 222.72 78.5955 222.374 78.9782C222.038 79.3702 221.581 79.5662 221.002 79.5662V78.8662C221.282 78.8662 221.502 78.7869 221.66 78.6282C221.828 78.4789 221.912 78.2782 221.912 78.0262V77.9422C221.903 77.9329 221.898 77.9142 221.898 77.8862V77.8442L221.814 77.8722C221.786 77.8815 221.726 77.8862 221.632 77.8862C221.446 77.8862 221.282 77.8022 221.142 77.6342C221.002 77.4662 220.932 77.2469 220.932 76.9762ZM225.408 76.5702C224.522 75.5995 224.078 74.3582 224.078 72.8462C224.078 71.3342 224.522 70.0929 225.408 69.1222C226.295 68.1515 227.368 67.6662 228.628 67.6662C229.888 67.6662 230.962 68.1515 231.848 69.1222C232.735 70.0929 233.178 71.3342 233.178 72.8462C233.178 74.3582 232.735 75.5995 231.848 76.5702C230.962 77.5409 229.888 78.0262 228.628 78.0262C227.368 78.0262 226.295 77.5409 225.408 76.5702ZM226.556 70.1582C226.024 70.7929 225.758 71.6889 225.758 72.8462C225.758 74.0035 226.024 74.8995 226.556 75.5342C227.098 76.1689 227.788 76.4862 228.628 76.4862C229.468 76.4862 230.154 76.1689 230.686 75.5342C231.228 74.8995 231.498 74.0035 231.498 72.8462C231.498 71.6889 231.228 70.7929 230.686 70.1582C230.154 69.5235 229.468 69.2062 228.628 69.2062C227.788 69.2062 227.098 69.5235 226.556 70.1582ZM234.022 75.7862V74.2462L237.312 67.9462H239.062L235.772 74.2462H238.992V71.8662H239.062H240.602V74.2462H242.002V75.7862H240.602V77.7462H238.992V75.7862H234.022Z" fill="#333333"/>
<rect width="84.8874" height="95.7704" transform="matrix(1.19249e-08 -1 -1 -1.19249e-08 112.095 120.25)" fill="#FFC79F"/>
<rect width="29.3841" height="41.3554" transform="matrix(-4.37114e-08 -1 -1 4.37114e-08 56.5916 319.408)" fill="#5A5A5A"/>
<path d="M164.624 319.158L40.5671 319.01L40.5182 307.905L164.624 307.905L164.624 319.158Z" stroke="#5A5A5A" stroke-width="0.5" stroke-miterlimit="10"/>
<path d="M451.935 319.158L327.878 319.01L327.829 307.905L451.935 307.905L451.935 319.158Z" stroke="#5A5A5A" stroke-width="0.5" stroke-miterlimit="10"/>
<path d="M164.624 301.528L40.5671 301.379L40.5182 290.274L164.624 290.274L164.624 301.528Z" stroke="#5A5A5A" stroke-width="0.5" stroke-miterlimit="10"/>
<path d="M451.935 301.528L327.878 301.379L327.829 290.275L451.935 290.275L451.935 301.528Z" stroke="#5A5A5A" stroke-width="0.5" stroke-miterlimit="10"/>
<path d="M63.6815 76.1046H65.3615C65.4361 76.3939 65.5621 76.6413 65.7395 76.8466C66.1501 77.3319 66.7475 77.5746 67.5315 77.5746C68.1568 77.5746 68.6515 77.4066 69.0155 77.0706C69.3795 76.7346 69.5615 76.2959 69.5615 75.7546C69.5615 75.1853 69.3795 74.7279 69.0155 74.3826C68.6515 74.0373 68.1568 73.8646 67.5315 73.8646C66.9528 73.8646 66.4628 74.0186 66.0615 74.3266C65.9028 74.4479 65.7628 74.5973 65.6415 74.7746H64.1015L64.5215 69.0346H70.4715V70.5746H65.8515L65.6415 73.0946H65.7115C65.8608 72.9453 66.0335 72.8193 66.2295 72.7166C66.6681 72.4553 67.1955 72.3246 67.8115 72.3246C68.7915 72.3246 69.6081 72.6513 70.2615 73.3046C70.9148 73.9579 71.2415 74.7746 71.2415 75.7546C71.2415 76.7159 70.8961 77.5186 70.2055 78.1626C69.5241 78.7973 68.6328 79.1146 67.5315 79.1146C66.0941 79.1146 65.0255 78.6153 64.3255 77.6166C64.0268 77.1779 63.8121 76.6739 63.6815 76.1046ZM72.2947 78.0646C72.2947 77.7846 72.3834 77.5513 72.5607 77.3646C72.7474 77.1779 72.9761 77.0846 73.2467 77.0846C73.5547 77.0846 73.7974 77.1966 73.9747 77.4206C74.1614 77.6446 74.2547 77.9759 74.2547 78.4146C74.2547 79.1333 74.0821 79.6839 73.7367 80.0666C73.4007 80.4586 72.9434 80.6546 72.3647 80.6546V79.9546C72.6447 79.9546 72.8641 79.8753 73.0227 79.7166C73.1907 79.5673 73.2747 79.3666 73.2747 79.1146V79.0306C73.2654 79.0213 73.2607 79.0026 73.2607 78.9746V78.9326L73.1767 78.9606C73.1487 78.9699 73.0881 78.9746 72.9947 78.9746C72.8081 78.9746 72.6447 78.8906 72.5047 78.7226C72.3647 78.5546 72.2947 78.3353 72.2947 78.0646ZM75.2309 78.8346V77.2946L78.5769 74.9286C79.3049 74.4059 79.8276 73.9206 80.1449 73.4726C80.4622 73.0246 80.6209 72.5486 80.6209 72.0446C80.6209 71.5126 80.4576 71.0879 80.1309 70.7706C79.8042 70.4533 79.3609 70.2946 78.8009 70.2946C78.1102 70.2946 77.5922 70.5746 77.2469 71.1346C77.0976 71.3773 76.9856 71.6573 76.9109 71.9746H75.2309C75.3149 71.3773 75.4969 70.8406 75.7769 70.3646C76.4396 69.2913 77.4476 68.7546 78.8009 68.7546C79.8369 68.7546 80.6769 69.0626 81.3209 69.6786C81.9742 70.2853 82.3009 71.0506 82.3009 71.9746C82.3009 72.7773 82.0956 73.5006 81.6849 74.1446C81.2742 74.7793 80.6162 75.4093 79.7109 76.0346L78.3109 77.0146L77.6809 77.2946V77.3646L78.5209 77.2946H82.3009V78.8346H75.2309ZM83.2136 72.2546V70.4346L85.0336 69.0346H86.5036V78.8346H84.8936V70.9946L83.2136 72.2546Z" fill="#333333"/>
<rect width="16.3245" height="294.929" transform="matrix(-1 8.74228e-08 8.74228e-08 1 16.3246 24.4791)" fill="#5A5A5A"/>
<rect width="7.6181" height="103.389" transform="matrix(-4.37114e-08 1 1 4.37114e-08 14.1478 120.25)" fill="#5A5A5A"/>
<rect width="7.6181" height="61.66" transform="matrix(0.000688229 1 1 -0.000688229 112.465 109.373)" fill="#5A5A5A"/>
<rect width="7.6181" height="194.06" transform="matrix(0.000688229 1 1 -0.000688229 286.593 109.373)" fill="#5A5A5A"/>
<rect width="7.6181" height="39.1788" transform="matrix(-1 -8.74228e-08 -8.74228e-08 1 119.713 33.1854)" fill="#5A5A5A"/>
<rect width="7.6181" height="30.4724" transform="matrix(-1 -8.74228e-08 -8.74228e-08 1 355.874 23.3907)" fill="#5A5A5A"/>
<rect width="7.6181" height="28.2958" transform="matrix(-1 -8.74228e-08 -8.74228e-08 1 119.713 99.5719)" fill="#5A5A5A"/>
<line x1="131.05" y1="73.6632" x2="116.902" y2="104.136" stroke="#5A5A5A"/>
<line x1="350.886" y1="50.8088" x2="336.738" y2="81.2812" stroke="#5A5A5A"/>
<line x1="286.497" y1="0.954523" x2="251.672" y2="23.8088" stroke="#5A5A5A"/>
<rect width="7.6181" height="28.2958" transform="matrix(-1 -8.74228e-08 -8.74228e-08 1 355.874 84.3356)" fill="#5A5A5A"/>
<rect width="16.3245" height="252.486" transform="matrix(1.19249e-08 -1 -1 -1.19249e-08 252.486 37.5388)" fill="#5A5A5A"/>
<path d="M96.9803 55.6519L96.9642 54.4844L96.9803 51.4523L96.9803 43.945L87.1332 43.945L87.1332 55.6519C87.1332 58.6354 89.352 61.0675 92.073 61.0675C94.7615 61.0675 96.9803 58.6354 96.9803 55.6519Z" fill="white" stroke="#5A5A5A" stroke-width="0.5"/>
<path d="M95.8467 55.5871L95.8467 54.6628L95.8467 47.188L88.2508 47.188L88.2508 54.6628L88.267 55.5871C88.267 57.9381 89.9514 59.8514 92.0568 59.8514C94.1461 59.8352 95.8467 57.9219 95.8467 55.5871Z" fill="white" stroke="#5A5A5A" stroke-width="0.5"/>
<path d="M85.3516 37.6537L85.3516 42.8586C85.3516 43.4585 85.8375 43.9449 86.4367 43.9449L97.5958 43.9449C98.195 43.9449 98.6809 43.4585 98.6809 42.8586L98.6809 37.6537C98.6809 37.0538 98.195 36.5673 97.5958 36.5673L86.4529 36.5673C85.8375 36.5673 85.3516 37.0538 85.3516 37.6537Z" fill="white" stroke="#5A5A5A" stroke-width="0.5"/>
<path d="M91.3766 40.2482C91.3766 40.6535 91.6681 40.9616 92.0082 40.9616C92.3645 40.9778 92.656 40.6535 92.656 40.2482C92.656 39.8429 92.3645 39.5348 92.0244 39.5348C91.6519 39.551 91.3604 39.8591 91.3766 40.2482Z" fill="white" stroke="#5A5A5A" stroke-width="0.5"/>
<path d="M52.8477 38.0199L52.8477 50.1919C52.8477 51.0381 53.524 51.7151 54.3693 51.7151L72.6838 51.7151C73.5291 51.7151 74.2053 51.0381 74.2053 50.1919L74.2053 38.0199C74.2053 37.1737 73.5291 36.4967 72.6838 36.4967L54.3693 36.4967C53.5381 36.4967 52.8477 37.1737 52.8477 38.0199Z" fill="white" stroke="#5A5A5A" stroke-width="0.5"/>
<path d="M54.7496 42.6602L54.7496 44.5361C54.7496 47.0043 56.7501 49.0071 59.2155 49.0071L67.8374 49.0071C70.3028 49.0071 72.3033 47.0043 72.3033 44.5361L72.3033 42.6602C72.3033 40.192 70.3028 38.1892 67.8374 38.1892L59.2155 38.1892C56.7501 38.1892 54.7496 40.192 54.7496 42.6602Z" fill="white" stroke="#5A5A5A" stroke-width="0.5"/>
<path d="M62.5824 40.5728C62.5824 41.1103 63.005 41.546 63.5262 41.546C64.0475 41.546 64.4701 41.1103 64.4701 40.5728C64.4701 40.0354 64.0475 39.5997 63.5262 39.5997C63.005 39.5997 62.5824 40.0354 62.5824 40.5728Z" fill="white" stroke="#5A5A5A" stroke-width="0.5"/>
<path d="M96.9803 55.6519L96.9642 54.4844L96.9803 51.4523L96.9803 43.945L87.1332 43.945L87.1332 55.6519C87.1332 58.6354 89.352 61.0675 92.073 61.0675C94.7615 61.0675 96.9803 58.6354 96.9803 55.6519Z" fill="white" stroke="#5A5A5A" stroke-width="0.5"/>
<path d="M95.8467 55.5871L95.8467 54.6628L95.8467 47.188L88.2508 47.188L88.2508 54.6628L88.267 55.5871C88.267 57.9381 89.9514 59.8514 92.0568 59.8514C94.1461 59.8352 95.8467 57.9219 95.8467 55.5871Z" fill="white" stroke="#5A5A5A" stroke-width="0.5"/>
<path d="M85.3516 37.6537L85.3516 42.8586C85.3516 43.4585 85.8375 43.9449 86.4367 43.9449L97.5958 43.9449C98.195 43.9449 98.6809 43.4585 98.6809 42.8586L98.6809 37.6537C98.6809 37.0538 98.195 36.5673 97.5958 36.5673L86.4529 36.5673C85.8375 36.5673 85.3516 37.0538 85.3516 37.6537Z" fill="white" stroke="#5A5A5A" stroke-width="0.5"/>
<path d="M91.3766 40.2482C91.3766 40.6535 91.6681 40.9616 92.0082 40.9616C92.3645 40.9778 92.656 40.6535 92.656 40.2482C92.656 39.8429 92.3645 39.5348 92.0244 39.5348C91.6519 39.551 91.3604 39.8591 91.3766 40.2482Z" fill="white" stroke="#5A5A5A" stroke-width="0.5"/>
<path d="M52.8477 38.0199L52.8477 50.1919C52.8477 51.0381 53.524 51.7151 54.3693 51.7151L72.6838 51.7151C73.5291 51.7151 74.2053 51.0381 74.2053 50.1919L74.2053 38.0199C74.2053 37.1737 73.5291 36.4967 72.6838 36.4967L54.3693 36.4967C53.5381 36.4967 52.8477 37.1737 52.8477 38.0199Z" fill="white" stroke="#5A5A5A" stroke-width="0.5"/>
<path d="M54.7496 42.6602L54.7496 44.5361C54.7496 47.0043 56.7501 49.0071 59.2155 49.0071L67.8374 49.0071C70.3028 49.0071 72.3033 47.0043 72.3033 44.5361L72.3033 42.6602C72.3033 40.192 70.3028 38.1892 67.8374 38.1892L59.2155 38.1892C56.7501 38.1892 54.7496 40.192 54.7496 42.6602Z" fill="white" stroke="#5A5A5A" stroke-width="0.5"/>
<path d="M62.5824 40.5728C62.5824 41.1103 63.005 41.546 63.5262 41.546C64.0475 41.546 64.4701 41.1103 64.4701 40.5728C64.4701 40.0354 64.0475 39.5997 63.5262 39.5997C63.005 39.5997 62.5824 40.0354 62.5824 40.5728Z" fill="white" stroke="#5A5A5A" stroke-width="0.5"/>
<path d="M47.8853 38.0925L47.8853 109.33C47.8853 110.243 47.1563 110.973 46.2451 110.973L17.9646 110.973C17.0534 110.973 16.3245 110.243 16.3245 109.33L16.3245 38.0925C16.3245 37.1802 17.0534 36.4504 17.9646 36.4504L46.2451 36.4504C47.1563 36.4504 47.8853 37.1968 47.8853 38.0925Z" fill="white" stroke="#5A5A5A" stroke-width="0.5"/>
<path d="M35.9399 106.594L28.2527 106.594C23.796 106.594 20.2009 102.978 20.2009 98.5326L20.2009 42.4379C20.2009 41.3432 21.079 40.4641 22.1724 40.4641L42.0532 40.4641C43.1467 40.4641 44.0248 41.3432 44.0248 42.4379L44.0248 98.516C44.0082 102.978 40.3965 106.594 35.9399 106.594Z" fill="white" stroke="#5A5A5A" stroke-width="0.5"/>
<path d="M32.6602 47.1152C33.5477 47.1152 34.2672 46.3652 34.2672 45.44C34.2672 44.5149 33.5477 43.7649 32.6602 43.7649C31.7727 43.7649 31.0532 44.5149 31.0532 45.44C31.0532 46.3652 31.7727 47.1152 32.6602 47.1152Z" fill="white" stroke="#5A5A5A" stroke-width="0.5"/>
<path d="M91.4172 120.92L112.096 120.92L112.109 100.639L91.4303 100.652L91.4172 120.92Z" fill="white" stroke="#5A5A5A" stroke-width="0.5"/>
<path d="M101.77 105.578C104.696 105.578 107.057 107.903 107.057 110.78C107.057 113.656 104.696 115.981 101.757 115.981C98.8305 115.981 96.4425 113.656 96.4425 110.78C96.4556 107.903 98.8436 105.578 101.77 105.578Z" stroke="#5A5A5A" stroke-width="0.5"/>
<path d="M97.8989 110.78C97.8857 109.729 98.3188 108.783 99.0273 108.1C99.7358 107.417 100.707 106.996 101.756 106.983M105.64 110.766C105.64 109.729 105.207 108.783 104.512 108.087C103.803 107.404 102.845 106.97 101.77 106.97L105.64 110.766ZM97.8989 110.78C97.8989 111.817 98.3319 112.763 99.0273 113.459C99.7358 114.142 100.707 114.563 101.77 114.563L97.8989 110.78ZM105.64 110.766C105.64 111.83 105.207 112.776 104.512 113.446L104.499 113.459C103.803 114.129 102.845 114.563 101.783 114.563L105.64 110.766Z" stroke="#5A5A5A" stroke-width="0.5"/>
<rect width="16.3245" height="144.744" transform="matrix(1.19249e-08 -1 -1 -1.19249e-08 432.055 37.5388)" fill="#5A5A5A"/>
<rect width="16.3245" height="94.6821" transform="matrix(1 0 0 -1 423.349 114.808)" fill="#5A5A5A"/>
<rect width="16.3245" height="69.6512" transform="matrix(-4.37114e-08 -1 -1 4.37114e-08 493 114.808)" fill="#5A5A5A"/>
<rect width="16.3245" height="219.837" transform="matrix(1 0 0 -1 476.675 317.232)" fill="#5A5A5A"/>
<rect width="29.3841" height="89.2406" transform="matrix(-4.37114e-08 -1 -1 4.37114e-08 206.777 319.408)" fill="#5A5A5A"/>
<path d="M281.62 375.75L192.914 375.681L192.881 370.809L281.62 370.809L281.62 375.75Z" stroke="#5A5A5A" stroke-width="0.5" stroke-miterlimit="10"/>
<rect width="5.4415" height="80.5342" transform="matrix(1 0 0 -1 288.4 376)" fill="#5A5A5A"/>
<rect width="5.4415" height="80.5342" transform="matrix(1 0 0 -1 180.658 376)" fill="#5A5A5A"/>
<rect width="5.4415" height="16.3245" transform="matrix(-4.37114e-08 -1 -1 4.37114e-08 199.159 376)" fill="#5A5A5A"/>
<rect width="5.4415" height="13.0596" transform="matrix(-4.37114e-08 -1 -1 4.37114e-08 293.841 376)" fill="#5A5A5A"/>
<path d="M301.209 303.334L235.349 303.403L235.324 308.275L301.209 308.275L301.209 303.334Z" stroke="#5A5A5A" stroke-width="0.5" stroke-miterlimit="10"/>
<path d="M301.209 314.217L235.349 314.286L235.324 319.159L301.209 319.159L301.209 314.217Z" stroke="#5A5A5A" stroke-width="0.5" stroke-miterlimit="10"/>
<line x1="205.434" y1="307.007" x2="234.818" y2="289.594" stroke="#5A5A5A"/>
<rect width="29.3841" height="89.2406" transform="matrix(-4.37114e-08 -1 -1 4.37114e-08 356.963 319.408)" fill="#5A5A5A"/>
<rect width="29.3841" height="68.5629" transform="matrix(-4.37114e-08 -1 -1 4.37114e-08 493 319.408)" fill="#5A5A5A"/>
<path d="M403.733 52.2989L404.901 52.3151L407.933 52.2989L415.44 52.2989L415.44 62.1461L403.733 62.1461C400.75 62.1461 398.318 59.9273 398.318 57.2063C398.318 54.5178 400.75 52.2989 403.733 52.2989Z" fill="white" stroke="#5A5A5A" stroke-width="0.5"/>
<path d="M403.798 53.4325L404.723 53.4325L412.198 53.4325L412.198 61.0284L404.723 61.0284L403.798 61.0122C401.447 61.0122 399.534 59.3278 399.534 57.2223C399.55 55.1331 401.464 53.4325 403.798 53.4325Z" fill="white" stroke="#5A5A5A" stroke-width="0.5"/>
<path d="M421.732 63.9276L416.527 63.9276C415.927 63.9276 415.44 63.4417 415.44 62.8425L415.44 51.6834C415.44 51.0841 415.927 50.5983 416.527 50.5983L421.732 50.5983C422.332 50.5983 422.818 51.0841 422.818 51.6834L422.818 62.8263C422.818 63.4417 422.332 63.9276 421.732 63.9276Z" fill="white" stroke="#5A5A5A" stroke-width="0.5"/>
<path d="M419.137 57.9026C418.732 57.9026 418.424 57.6111 418.424 57.271C418.408 56.9147 418.732 56.6232 419.137 56.6232C419.543 56.6232 419.851 56.9147 419.851 57.2548C419.834 57.6273 419.526 57.9188 419.137 57.9026Z" fill="white" stroke="#5A5A5A" stroke-width="0.5"/>
<path d="M421.365 96.4318L409.193 96.4318C408.347 96.4318 407.67 95.7556 407.67 94.9103L407.67 76.5957C407.67 75.7504 408.347 75.0742 409.193 75.0742L421.365 75.0742C422.212 75.0742 422.889 75.7504 422.889 76.5957L422.889 94.9103C422.889 95.7415 422.212 96.4318 421.365 96.4318Z" fill="white" stroke="#5A5A5A" stroke-width="0.5"/>
<path d="M416.725 94.53L414.849 94.53C412.381 94.53 410.378 92.5295 410.378 90.064L410.378 81.4421C410.378 78.9767 412.381 76.9762 414.849 76.9762L416.725 76.9762C419.193 76.9762 421.196 78.9767 421.196 81.4421L421.196 90.064C421.196 92.5295 419.193 94.53 416.725 94.53Z" fill="white" stroke="#5A5A5A" stroke-width="0.5"/>
<path d="M418.813 86.6972C418.275 86.6972 417.839 86.2746 417.839 85.7533C417.839 85.232 418.275 84.8094 418.813 84.8094C419.35 84.8094 419.786 85.232 419.786 85.7533C419.786 86.2746 419.35 86.6972 418.813 86.6972Z" fill="white" stroke="#5A5A5A" stroke-width="0.5"/>
<path d="M170.025 116.734L214.733 116.707L214.747 115.058L170.025 115.058L170.025 116.734Z" stroke="#5A5A5A" stroke-width="0.5" stroke-miterlimit="10"/>
<path d="M244.513 116.734L289.221 116.707L289.236 115.058L244.513 115.058L244.513 116.734Z" stroke="#5A5A5A" stroke-width="0.5" stroke-miterlimit="10"/>
<path d="M207.269 118.911L251.977 118.884L251.992 117.235L207.269 117.235L207.269 118.911Z" stroke="#5A5A5A" stroke-width="0.5" stroke-miterlimit="10"/>
<rect x="399.625" y="114.486" width="1.97164" height="5.91493" fill="#5A5A5A"/>
<rect x="399.626" y="125.33" width="1.97164" height="10.844" fill="#5A5A5A"/>
<rect x="399.626" y="142.089" width="1.97164" height="10.844" fill="#5A5A5A"/>
<rect x="399.626" y="158.848" width="1.97164" height="10.844" fill="#5A5A5A"/>
<rect x="399.626" y="175.607" width="1.97164" height="10.844" fill="#5A5A5A"/>
<rect x="399.626" y="192.366" width="1.97164" height="10.844" fill="#5A5A5A"/>
<rect x="399.626" y="212.083" width="1.97164" height="10.844" fill="#5A5A5A"/>
<rect x="399.626" y="230.135" width="1.97164" height="10.844" fill="#5A5A5A"/>
<rect x="399.626" y="247.548" width="1.97164" height="10.844" fill="#5A5A5A"/>
<rect x="399.626" y="264.96" width="1.97164" height="10.844" fill="#5A5A5A"/>
<rect x="399.406" y="282.406" width="2.1766" height="7.6181" fill="#5A5A5A"/>
</svg>
