<svg width="493" height="376" viewBox="0 0 493 376" fill="none" xmlns="http://www.w3.org/2000/svg">
<rect width="78.3576" height="415.731" transform="matrix(1.19249e-08 -1 -1 -1.19249e-08 432.056 115.36)" fill="#E7FFD5"/>
<rect width="94.6821" height="76.181" transform="matrix(1.19249e-08 -1 -1 -1.19249e-08 432.056 115.36)" fill="#FDFF9F"/>
<rect width="180.658" height="463.616" transform="matrix(1.19249e-08 -1 -1 -1.19249e-08 479.94 289.488)" fill="#E7FFD5"/>
<path d="M476.363 161.068L451.645 161.068L451.645 185.124L476.363 185.124L476.363 161.068Z" fill="white" stroke="#5A5A5A" stroke-width="0.5"/>
<path d="M453.649 161.985L472.887 161.985C473.616 161.985 474.004 162.373 474.004 163.134L474.004 183.059C474.004 183.835 473.632 184.208 472.887 184.208L453.649 184.208C452.903 184.224 452.531 183.835 452.531 183.074L452.531 163.15C452.515 162.373 452.903 161.985 453.649 161.985Z" fill="white" stroke="#5A5A5A" stroke-width="0.5"/>
<path d="M455.418 168.414C455.433 170.185 456.831 171.629 458.554 171.629C460.293 171.629 461.691 170.185 461.691 168.414C461.691 166.628 460.293 165.2 458.554 165.2C456.815 165.2 455.418 166.628 455.418 168.414Z" stroke="#5A5A5A" stroke-width="0.5"/>
<path d="M455.448 177.934C455.464 179.704 456.861 181.148 458.585 181.148C460.324 181.148 461.721 179.704 461.721 177.934C461.721 176.148 460.324 174.719 458.585 174.719C456.846 174.704 455.433 176.148 455.448 177.934Z" stroke="#5A5A5A" stroke-width="0.5"/>
<path d="M464.362 177.934C464.362 179.72 465.76 181.148 467.499 181.148C469.238 181.148 470.635 179.704 470.635 177.934C470.62 176.163 469.222 174.719 467.499 174.719C465.775 174.719 464.362 176.163 464.362 177.934Z" stroke="#5A5A5A" stroke-width="0.5"/>
<path d="M464.362 168.414C464.362 170.2 465.76 171.629 467.499 171.629C469.238 171.629 470.635 170.185 470.635 168.414C470.62 166.644 469.222 165.2 467.499 165.2C465.775 165.2 464.362 166.644 464.362 168.414Z" stroke="#5A5A5A" stroke-width="0.5"/>
<path d="M457.669 116.463L457.669 140.285L434.232 140.285L434.232 116.448L457.669 116.463Z" fill="white" stroke="#5A5A5A" stroke-width="0.5"/>
<path d="M455.886 122.996L455.886 136.166C455.886 136.9 455.526 137.259 454.777 137.259L437.364 137.259C436.645 137.259 436.27 136.9 436.255 136.181L436.27 122.996C436.255 122.277 436.63 121.917 437.364 121.917L454.777 121.917C455.511 121.887 455.886 122.262 455.886 122.996Z" fill="white" stroke="#5A5A5A" stroke-width="0.5"/>
<path d="M446.07 118.291C445.156 118.306 444.422 118.995 444.422 119.864L445.066 126.771L445.081 126.786C445.081 127.31 445.516 127.73 446.07 127.73C446.625 127.73 447.059 127.31 447.074 126.771L447.719 119.864C447.719 119.01 446.984 118.306 446.07 118.291Z" stroke="#5A5A5A" stroke-width="0.5"/>
<mask id="path-13-inside-1_69_950" fill="white">
<path fill-rule="evenodd" clip-rule="evenodd" d="M444.706 118.966L445.066 122.726C445.081 123.251 445.515 123.685 446.085 123.67C446.639 123.67 447.059 123.251 447.074 122.726L447.434 118.966"/>
</mask>
<path fill-rule="evenodd" clip-rule="evenodd" d="M444.706 118.966L445.066 122.726C445.081 123.251 445.515 123.685 446.085 123.67C446.639 123.67 447.059 123.251 447.074 122.726L447.434 118.966" fill="white"/>
<path d="M445.066 122.726L445.566 122.712L445.565 122.695L445.564 122.679L445.066 122.726ZM446.085 123.67L446.085 123.17L446.072 123.17L446.085 123.67ZM447.074 122.726L446.576 122.679L446.575 122.695L446.574 122.712L447.074 122.726ZM444.209 119.013L444.568 122.774L445.564 122.679L445.204 118.918L444.209 119.013ZM444.566 122.741C444.589 123.54 445.252 124.192 446.098 124.17L446.072 123.17C445.779 123.178 445.573 122.962 445.566 122.712L444.566 122.741ZM446.085 124.17C446.908 124.17 447.551 123.537 447.574 122.741L446.574 122.712C446.567 122.964 446.371 123.17 446.085 123.17L446.085 124.17ZM447.572 122.774L447.931 119.013L446.936 118.918L446.576 122.679L447.572 122.774Z" fill="#5A5A5A" mask="url(#path-13-inside-1_69_950)"/>
<circle cx="247.893" cy="189.125" r="38.9399" fill="#5A5A5A"/>
<path d="M226.839 186.661V184.681H235.389V186.661L230.349 197.281H228.099L233.049 186.841V186.661H226.839ZM236.287 197.281V195.301L240.589 192.259C241.525 191.587 242.197 190.963 242.605 190.387C243.013 189.811 243.217 189.199 243.217 188.551C243.217 187.867 243.007 187.321 242.587 186.913C242.167 186.505 241.597 186.301 240.877 186.301C239.989 186.301 239.323 186.661 238.879 187.381C238.687 187.693 238.543 188.053 238.447 188.461H236.287C236.395 187.693 236.629 187.003 236.989 186.391C237.841 185.011 239.137 184.321 240.877 184.321C242.209 184.321 243.289 184.717 244.117 185.509C244.957 186.289 245.377 187.273 245.377 188.461C245.377 189.493 245.113 190.423 244.585 191.251C244.057 192.067 243.211 192.877 242.047 193.681L240.247 194.941L239.437 195.301V195.391L240.517 195.301H245.377V197.281H236.287ZM246.821 196.291C246.821 195.931 246.935 195.631 247.163 195.391C247.403 195.151 247.697 195.031 248.045 195.031C248.441 195.031 248.753 195.175 248.981 195.463C249.221 195.751 249.341 196.177 249.341 196.741C249.341 197.665 249.119 198.373 248.675 198.865C248.243 199.369 247.655 199.621 246.911 199.621V198.721C247.271 198.721 247.553 198.619 247.757 198.415C247.973 198.223 248.081 197.965 248.081 197.641V197.533C248.069 197.521 248.063 197.497 248.063 197.461V197.407L247.955 197.443C247.919 197.455 247.841 197.461 247.721 197.461C247.481 197.461 247.271 197.353 247.091 197.137C246.911 196.921 246.821 196.639 246.821 196.291ZM250.776 193.771H252.936C253.032 194.143 253.194 194.461 253.422 194.725C253.95 195.349 254.718 195.661 255.726 195.661C256.53 195.661 257.166 195.445 257.634 195.013C258.102 194.581 258.336 194.017 258.336 193.321C258.336 192.589 258.102 192.001 257.634 191.557C257.166 191.113 256.53 190.891 255.726 190.891C254.982 190.891 254.352 191.089 253.836 191.485C253.632 191.641 253.452 191.833 253.296 192.061H251.316L251.856 184.681H259.506V186.661H253.566L253.296 189.901H253.386C253.578 189.709 253.8 189.547 254.052 189.415C254.616 189.079 255.294 188.911 256.086 188.911C257.346 188.911 258.396 189.331 259.236 190.171C260.076 191.011 260.496 192.061 260.496 193.321C260.496 194.557 260.052 195.589 259.164 196.417C258.288 197.233 257.142 197.641 255.726 197.641C253.878 197.641 252.504 196.999 251.604 195.715C251.22 195.151 250.944 194.503 250.776 193.771ZM260.765 186.661V184.681H269.315V186.661L264.275 197.281H262.025L266.975 186.841V186.661H260.765Z" fill="white"/>
<path d="M280.991 254.819V253.279L284.281 246.979H286.031L282.741 253.279H285.961V250.899H286.031H287.571V253.279H288.971V254.819H287.571V256.779H285.961V254.819H280.991ZM289.605 254.819V253.279L292.895 246.979H294.645L291.355 253.279H294.575V250.899H294.645H296.185V253.279H297.585V254.819H296.185V256.779H294.575V254.819H289.605ZM298.144 256.009C298.144 255.729 298.233 255.496 298.41 255.309C298.597 255.123 298.825 255.029 299.096 255.029C299.404 255.029 299.647 255.141 299.824 255.365C300.011 255.589 300.104 255.921 300.104 256.359C300.104 257.078 299.931 257.629 299.586 258.011C299.25 258.403 298.793 258.599 298.214 258.599V257.899C298.494 257.899 298.713 257.82 298.872 257.661C299.04 257.512 299.124 257.311 299.124 257.059V256.975C299.115 256.966 299.11 256.947 299.11 256.919V256.877L299.026 256.905C298.998 256.915 298.937 256.919 298.844 256.919C298.657 256.919 298.494 256.835 298.354 256.667C298.214 256.499 298.144 256.28 298.144 256.009ZM301.01 250.199V248.379L302.83 246.979H304.3V256.779H302.69V248.939L301.01 250.199ZM305.701 256.779V255.239L309.047 252.873C309.775 252.351 310.298 251.865 310.615 251.417C310.933 250.969 311.091 250.493 311.091 249.989C311.091 249.457 310.928 249.033 310.601 248.715C310.275 248.398 309.831 248.239 309.271 248.239C308.581 248.239 308.063 248.519 307.717 249.079C307.568 249.322 307.456 249.602 307.381 249.919H305.701C305.785 249.322 305.967 248.785 306.247 248.309C306.91 247.236 307.918 246.699 309.271 246.699C310.307 246.699 311.147 247.007 311.791 247.623C312.445 248.23 312.771 248.995 312.771 249.919C312.771 250.722 312.566 251.445 312.155 252.089C311.745 252.724 311.087 253.354 310.181 253.979L308.781 254.959L308.151 255.239V255.309L308.991 255.239H312.771V256.779H305.701Z" fill="#333333"/>
<path d="M230.052 348.661H231.732C231.797 348.951 231.923 349.207 232.11 349.431C232.53 349.945 233.127 350.201 233.902 350.201C234.546 350.201 235.055 350.043 235.428 349.725C235.811 349.399 236.002 348.997 236.002 348.521C236.002 347.98 235.829 347.555 235.484 347.247C235.148 346.93 234.667 346.771 234.042 346.771H231.662V345.371L234.602 343.271V343.201H230.542V341.661H236.982V343.187L234.462 345.021L233.762 345.301V345.371L233.986 345.343C234.294 345.315 234.476 345.301 234.532 345.301C235.409 345.301 236.142 345.605 236.73 346.211C237.318 346.818 237.612 347.588 237.612 348.521C237.612 349.417 237.267 350.178 236.576 350.803C235.885 351.429 234.994 351.741 233.902 351.741C232.455 351.741 231.387 351.228 230.696 350.201C230.397 349.763 230.183 349.249 230.052 348.661ZM238.668 350.691C238.668 350.411 238.757 350.178 238.934 349.991C239.121 349.805 239.35 349.711 239.62 349.711C239.928 349.711 240.171 349.823 240.348 350.047C240.535 350.271 240.628 350.603 240.628 351.041C240.628 351.76 240.456 352.311 240.11 352.693C239.774 353.085 239.317 353.281 238.738 353.281V352.581C239.018 352.581 239.238 352.502 239.396 352.343C239.564 352.194 239.648 351.993 239.648 351.741V351.657C239.639 351.648 239.634 351.629 239.634 351.601V351.559L239.55 351.587C239.522 351.597 239.462 351.601 239.368 351.601C239.182 351.601 239.018 351.517 238.878 351.349C238.738 351.181 238.668 350.962 238.668 350.691ZM241.675 348.241C241.675 347.793 241.773 347.327 241.969 346.841C242.174 346.347 242.37 345.959 242.557 345.679C242.753 345.39 243.019 345.031 243.355 344.601L245.595 341.661H247.485L245.371 344.419L244.755 344.951V345.021L245.035 344.923C245.315 344.849 245.618 344.811 245.945 344.811C246.859 344.811 247.634 345.143 248.269 345.805C248.913 346.459 249.235 347.271 249.235 348.241C249.235 349.231 248.88 350.061 248.171 350.733C247.461 351.405 246.556 351.741 245.455 351.741C244.353 351.741 243.448 351.405 242.739 350.733C242.029 350.061 241.675 349.231 241.675 348.241ZM243.929 346.785C243.546 347.159 243.355 347.644 243.355 348.241C243.355 348.839 243.546 349.329 243.929 349.711C244.311 350.085 244.82 350.271 245.455 350.271C246.089 350.271 246.598 350.085 246.981 349.711C247.363 349.329 247.555 348.839 247.555 348.241C247.555 347.644 247.363 347.159 246.981 346.785C246.598 346.403 246.089 346.211 245.455 346.211C244.82 346.211 244.311 346.403 243.929 346.785ZM250.288 348.241C250.288 347.793 250.386 347.327 250.582 346.841C250.787 346.347 250.983 345.959 251.17 345.679C251.366 345.39 251.632 345.031 251.968 344.601L254.208 341.661H256.098L253.984 344.419L253.368 344.951V345.021L253.648 344.923C253.928 344.849 254.231 344.811 254.558 344.811C255.473 344.811 256.247 345.143 256.882 345.805C257.526 346.459 257.848 347.271 257.848 348.241C257.848 349.231 257.493 350.061 256.784 350.733C256.075 351.405 255.169 351.741 254.068 351.741C252.967 351.741 252.061 351.405 251.352 350.733C250.643 350.061 250.288 349.231 250.288 348.241ZM252.542 346.785C252.159 347.159 251.968 347.644 251.968 348.241C251.968 348.839 252.159 349.329 252.542 349.711C252.925 350.085 253.433 350.271 254.068 350.271C254.703 350.271 255.211 350.085 255.594 349.711C255.977 349.329 256.168 348.839 256.168 348.241C256.168 347.644 255.977 347.159 255.594 346.785C255.211 346.403 254.703 346.211 254.068 346.211C253.433 346.211 252.925 346.403 252.542 346.785Z" fill="#333333"/>
<path d="M421.732 248.678C421.732 247.829 422.059 247.152 422.712 246.648C422.992 246.452 423.319 246.303 423.692 246.2V246.116C423.403 246.004 423.146 245.85 422.922 245.654C422.409 245.215 422.152 244.637 422.152 243.918C422.152 243.181 422.465 242.555 423.09 242.042C423.725 241.519 424.579 241.258 425.652 241.258C426.725 241.258 427.575 241.519 428.2 242.042C428.835 242.555 429.152 243.181 429.152 243.918C429.152 244.618 428.895 245.197 428.382 245.654C428.139 245.85 427.883 246.004 427.612 246.116V246.2C427.967 246.293 428.293 246.447 428.592 246.662C429.245 247.166 429.572 247.838 429.572 248.678C429.572 249.49 429.217 250.185 428.508 250.764C427.808 251.333 426.856 251.618 425.652 251.618C424.448 251.618 423.491 251.333 422.782 250.764C422.082 250.185 421.732 249.49 421.732 248.678ZM423.832 244.058C423.832 244.469 423.991 244.805 424.308 245.066C424.625 245.327 425.073 245.458 425.652 245.458C426.231 245.458 426.679 245.327 426.996 245.066C427.313 244.805 427.472 244.469 427.472 244.058C427.472 243.685 427.309 243.372 426.982 243.12C426.665 242.859 426.221 242.728 425.652 242.728C425.083 242.728 424.635 242.859 424.308 243.12C423.991 243.372 423.832 243.685 423.832 244.058ZM424 247.404C423.608 247.712 423.412 248.09 423.412 248.538C423.412 248.986 423.608 249.369 424 249.686C424.401 249.994 424.952 250.148 425.652 250.148C426.352 250.148 426.898 249.994 427.29 249.686C427.691 249.369 427.892 248.986 427.892 248.538C427.892 248.09 427.691 247.712 427.29 247.404C426.898 247.087 426.352 246.928 425.652 246.928C424.952 246.928 424.401 247.087 424 247.404ZM430.687 250.568C430.687 250.288 430.776 250.055 430.953 249.868C431.14 249.681 431.368 249.588 431.639 249.588C431.947 249.588 432.19 249.7 432.367 249.924C432.554 250.148 432.647 250.479 432.647 250.918C432.647 251.637 432.474 252.187 432.129 252.57C431.793 252.962 431.336 253.158 430.757 253.158V252.458C431.037 252.458 431.256 252.379 431.415 252.22C431.583 252.071 431.667 251.87 431.667 251.618V251.534C431.658 251.525 431.653 251.506 431.653 251.478V251.436L431.569 251.464C431.541 251.473 431.48 251.478 431.387 251.478C431.2 251.478 431.037 251.394 430.897 251.226C430.757 251.058 430.687 250.839 430.687 250.568ZM433.763 244.758C433.763 243.769 434.118 242.938 434.827 242.266C435.536 241.594 436.442 241.258 437.543 241.258C438.644 241.258 439.55 241.594 440.259 242.266C440.968 242.938 441.323 243.769 441.323 244.758C441.323 245.645 440.954 246.601 440.217 247.628C440.142 247.731 440.04 247.871 439.909 248.048C439.778 248.216 439.69 248.333 439.643 248.398L437.403 251.338H435.513L437.627 248.58L438.243 248.048V247.978C438.224 247.987 438.131 248.025 437.963 248.09C437.72 248.155 437.417 248.188 437.053 248.188C436.138 248.188 435.359 247.861 434.715 247.208C434.08 246.545 433.763 245.729 433.763 244.758ZM436.017 243.302C435.634 243.675 435.443 244.161 435.443 244.758C435.443 245.355 435.634 245.845 436.017 246.228C436.4 246.601 436.908 246.788 437.543 246.788C438.178 246.788 438.686 246.601 439.069 246.228C439.452 245.845 439.643 245.355 439.643 244.758C439.643 244.161 439.452 243.675 439.069 243.302C438.686 242.919 438.178 242.728 437.543 242.728C436.908 242.728 436.4 242.919 436.017 243.302ZM442.376 248.608H444.056C444.131 248.897 444.257 249.145 444.434 249.35C444.845 249.835 445.442 250.078 446.226 250.078C446.852 250.078 447.346 249.91 447.71 249.574C448.074 249.238 448.256 248.799 448.256 248.258C448.256 247.689 448.074 247.231 447.71 246.886C447.346 246.541 446.852 246.368 446.226 246.368C445.648 246.368 445.158 246.522 444.756 246.83C444.598 246.951 444.458 247.101 444.336 247.278H442.796L443.216 241.538H449.166V243.078H444.546L444.336 245.598H444.406C444.556 245.449 444.728 245.323 444.924 245.22C445.363 244.959 445.89 244.828 446.506 244.828C447.486 244.828 448.303 245.155 448.956 245.808C449.61 246.461 449.936 247.278 449.936 248.258C449.936 249.219 449.591 250.022 448.9 250.666C448.219 251.301 447.328 251.618 446.226 251.618C444.789 251.618 443.72 251.119 443.02 250.12C442.722 249.681 442.507 249.177 442.376 248.608Z" fill="#333333"/>
<path d="M363.912 74.4097H365.592C365.658 74.699 365.784 74.9557 365.97 75.1797C366.39 75.6931 366.988 75.9497 367.762 75.9497C368.406 75.9497 368.915 75.7911 369.288 75.4737C369.671 75.1471 369.862 74.7457 369.862 74.2697C369.862 73.7284 369.69 73.3037 369.344 72.9957C369.008 72.6784 368.528 72.5197 367.902 72.5197H365.522V71.1197L368.462 69.0197V68.9497H364.402V67.4097H370.842V68.9357L368.322 70.7697L367.622 71.0497V71.1197L367.846 71.0917C368.154 71.0637 368.336 71.0497 368.392 71.0497C369.27 71.0497 370.002 71.353 370.59 71.9597C371.178 72.5664 371.472 73.3364 371.472 74.2697C371.472 75.1657 371.127 75.9264 370.436 76.5517C369.746 77.1771 368.854 77.4897 367.762 77.4897C366.316 77.4897 365.247 76.9764 364.556 75.9497C364.258 75.5111 364.043 74.9977 363.912 74.4097ZM372.529 76.4397C372.529 76.1597 372.617 75.9264 372.795 75.7397C372.981 75.5531 373.21 75.4597 373.481 75.4597C373.789 75.4597 374.031 75.5717 374.209 75.7957C374.395 76.0197 374.489 76.3511 374.489 76.7897C374.489 77.5084 374.316 78.0591 373.971 78.4417C373.635 78.8337 373.177 79.0297 372.599 79.0297V78.3297C372.879 78.3297 373.098 78.2504 373.257 78.0917C373.425 77.9424 373.509 77.7417 373.509 77.4897V77.4057C373.499 77.3964 373.495 77.3777 373.495 77.3497V77.3077L373.411 77.3357C373.383 77.3451 373.322 77.3497 373.229 77.3497C373.042 77.3497 372.879 77.2657 372.739 77.0977C372.599 76.9297 372.529 76.7104 372.529 76.4397ZM375.465 77.2097V75.6697L378.811 73.3037C379.539 72.781 380.062 72.2957 380.379 71.8477C380.696 71.3997 380.855 70.9237 380.855 70.4197C380.855 69.8877 380.692 69.463 380.365 69.1457C380.038 68.8284 379.595 68.6697 379.035 68.6697C378.344 68.6697 377.826 68.9497 377.481 69.5097C377.332 69.7524 377.22 70.0324 377.145 70.3497H375.465C375.549 69.7524 375.731 69.2157 376.011 68.7397C376.674 67.6664 377.682 67.1297 379.035 67.1297C380.071 67.1297 380.911 67.4377 381.555 68.0537C382.208 68.6604 382.535 69.4257 382.535 70.3497C382.535 71.1524 382.33 71.8757 381.919 72.5197C381.508 73.1544 380.85 73.7844 379.945 74.4097L378.545 75.3897L377.915 75.6697V75.7397L378.755 75.6697H382.535V77.2097H375.465ZM383.308 75.2497V73.7097L386.598 67.4097H388.348L385.058 73.7097H388.278V71.3297H388.348H389.888V73.7097H391.288V75.2497H389.888V77.2097H388.278V75.2497H383.308Z" fill="#333333"/>
<path d="M211.48 70.6297V68.8097L213.3 67.4097H214.77V77.2097H213.16V69.3697L211.48 70.6297ZM216.101 70.6297V68.8097L217.921 67.4097H219.391V77.2097H217.781V69.3697L216.101 70.6297ZM220.932 76.4397C220.932 76.1597 221.021 75.9264 221.198 75.7397C221.385 75.5531 221.613 75.4597 221.884 75.4597C222.192 75.4597 222.435 75.5717 222.612 75.7957C222.799 76.0197 222.892 76.3511 222.892 76.7897C222.892 77.5084 222.719 78.0591 222.374 78.4417C222.038 78.8337 221.581 79.0297 221.002 79.0297V78.3297C221.282 78.3297 221.501 78.2504 221.66 78.0917C221.828 77.9424 221.912 77.7417 221.912 77.4897V77.4057C221.903 77.3964 221.898 77.3777 221.898 77.3497V77.3077L221.814 77.3357C221.786 77.3451 221.725 77.3497 221.632 77.3497C221.445 77.3497 221.282 77.2657 221.142 77.0977C221.002 76.9297 220.932 76.7104 220.932 76.4397ZM225.408 76.0337C224.522 75.0631 224.078 73.8217 224.078 72.3097C224.078 70.7977 224.522 69.5564 225.408 68.5857C226.295 67.615 227.368 67.1297 228.628 67.1297C229.888 67.1297 230.962 67.615 231.848 68.5857C232.735 69.5564 233.178 70.7977 233.178 72.3097C233.178 73.8217 232.735 75.0631 231.848 76.0337C230.962 77.0044 229.888 77.4897 228.628 77.4897C227.368 77.4897 226.295 77.0044 225.408 76.0337ZM226.556 69.6217C226.024 70.2564 225.758 71.1524 225.758 72.3097C225.758 73.467 226.024 74.363 226.556 74.9977C227.098 75.6324 227.788 75.9497 228.628 75.9497C229.468 75.9497 230.154 75.6324 230.686 74.9977C231.228 74.363 231.498 73.467 231.498 72.3097C231.498 71.1524 231.228 70.2564 230.686 69.6217C230.154 68.987 229.468 68.6697 228.628 68.6697C227.788 68.6697 227.098 68.987 226.556 69.6217ZM234.022 75.2497V73.7097L237.312 67.4097H239.062L235.772 73.7097H238.992V71.3297H239.062H240.602V73.7097H242.002V75.2497H240.602V77.2097H238.992V75.2497H234.022Z" fill="#333333"/>
<rect width="84.8874" height="95.7704" transform="matrix(1.19249e-08 -1 -1 -1.19249e-08 112.096 119.713)" fill="#FDFF9F"/>
<rect width="29.3841" height="41.3554" transform="matrix(-4.37114e-08 -1 -1 4.37114e-08 56.5918 318.872)" fill="#5A5A5A"/>
<path d="M164.624 318.622L40.5676 318.473L40.5187 307.368L164.624 307.368L164.624 318.622Z" stroke="#5A5A5A" stroke-width="0.5" stroke-miterlimit="10"/>
<path d="M451.935 318.622L327.878 318.474L327.829 307.369L451.935 307.369L451.935 318.622Z" stroke="#5A5A5A" stroke-width="0.5" stroke-miterlimit="10"/>
<path d="M164.624 300.991L40.5676 300.843L40.5187 289.738L164.624 289.738L164.624 300.991Z" stroke="#5A5A5A" stroke-width="0.5" stroke-miterlimit="10"/>
<path d="M451.935 300.991L327.878 300.843L327.829 289.738L451.935 289.738L451.935 300.991Z" stroke="#5A5A5A" stroke-width="0.5" stroke-miterlimit="10"/>
<path d="M63.6811 75.5681H65.3611C65.4358 75.8574 65.5618 76.1048 65.7391 76.3101C66.1498 76.7954 66.7471 77.0381 67.5311 77.0381C68.1564 77.0381 68.6511 76.8701 69.0151 76.5341C69.3791 76.1981 69.5611 75.7594 69.5611 75.2181C69.5611 74.6488 69.3791 74.1914 69.0151 73.8461C68.6511 73.5008 68.1564 73.3281 67.5311 73.3281C66.9524 73.3281 66.4624 73.4821 66.0611 73.7901C65.9024 73.9114 65.7624 74.0608 65.6411 74.2381H64.1011L64.5211 68.4981H70.4711V70.0381H65.8511L65.6411 72.5581H65.7111C65.8604 72.4088 66.0331 72.2828 66.2291 72.1801C66.6678 71.9188 67.1951 71.7881 67.8111 71.7881C68.7911 71.7881 69.6078 72.1148 70.2611 72.7681C70.9144 73.4214 71.2411 74.2381 71.2411 75.2181C71.2411 76.1794 70.8958 76.9821 70.2051 77.6261C69.5238 78.2608 68.6324 78.5781 67.5311 78.5781C66.0938 78.5781 65.0251 78.0788 64.3251 77.0801C64.0264 76.6414 63.8118 76.1374 63.6811 75.5681ZM72.2944 77.5281C72.2944 77.2481 72.383 77.0148 72.5604 76.8281C72.747 76.6414 72.9757 76.5481 73.2464 76.5481C73.5544 76.5481 73.797 76.6601 73.9744 76.8841C74.161 77.1081 74.2544 77.4394 74.2544 77.8781C74.2544 78.5968 74.0817 79.1474 73.7364 79.5301C73.4004 79.9221 72.943 80.1181 72.3644 80.1181V79.4181C72.6444 79.4181 72.8637 79.3388 73.0224 79.1801C73.1904 79.0308 73.2744 78.8301 73.2744 78.5781V78.4941C73.265 78.4848 73.2604 78.4661 73.2604 78.4381V78.3961L73.1764 78.4241C73.1484 78.4334 73.0877 78.4381 72.9944 78.4381C72.8077 78.4381 72.6444 78.3541 72.5044 78.1861C72.3644 78.0181 72.2944 77.7988 72.2944 77.5281ZM75.2305 78.2981V76.7581L78.5765 74.3921C79.3045 73.8694 79.8272 73.3841 80.1445 72.9361C80.4619 72.4881 80.6205 72.0121 80.6205 71.5081C80.6205 70.9761 80.4572 70.5514 80.1305 70.2341C79.8039 69.9168 79.3605 69.7581 78.8005 69.7581C78.1099 69.7581 77.5919 70.0381 77.2465 70.5981C77.0972 70.8408 76.9852 71.1208 76.9105 71.4381H75.2305C75.3145 70.8408 75.4965 70.3041 75.7765 69.8281C76.4392 68.7548 77.4472 68.2181 78.8005 68.2181C79.8365 68.2181 80.6765 68.5261 81.3205 69.1421C81.9739 69.7488 82.3005 70.5141 82.3005 71.4381C82.3005 72.2408 82.0952 72.9641 81.6845 73.6081C81.2739 74.2428 80.6159 74.8728 79.7105 75.4981L78.3105 76.4781L77.6805 76.7581V76.8281L78.5205 76.7581H82.3005V78.2981H75.2305ZM83.2133 71.7181V69.8981L85.0333 68.4981H86.5033V78.2981H84.8933V70.4581L83.2133 71.7181Z" fill="#333333"/>
<rect width="16.3245" height="294.929" transform="matrix(-1 8.74228e-08 8.74228e-08 1 16.3242 23.9426)" fill="#5A5A5A"/>
<rect width="7.6181" height="103.389" transform="matrix(-4.37114e-08 1 1 4.37114e-08 14.1484 119.713)" fill="#5A5A5A"/>
<rect width="7.6181" height="61.66" transform="matrix(0.000688229 1 1 -0.000688229 112.465 108.837)" fill="#5A5A5A"/>
<rect width="7.6181" height="194.06" transform="matrix(0.000688229 1 1 -0.000688229 286.594 108.837)" fill="#5A5A5A"/>
<rect width="7.6181" height="39.1788" transform="matrix(-1 -8.74228e-08 -8.74228e-08 1 119.713 32.6489)" fill="#5A5A5A"/>
<rect width="7.6181" height="30.4724" transform="matrix(-1 -8.74228e-08 -8.74228e-08 1 355.874 22.8542)" fill="#5A5A5A"/>
<rect width="7.6181" height="28.2958" transform="matrix(-1 -8.74228e-08 -8.74228e-08 1 119.713 99.0354)" fill="#5A5A5A"/>
<line x1="131.049" y1="73.1268" x2="116.901" y2="103.599" stroke="#5A5A5A"/>
<line x1="350.886" y1="50.2723" x2="336.738" y2="80.7447" stroke="#5A5A5A"/>
<line y1="-0.5" x2="41.655" y2="-0.5" transform="matrix(0.836048 0.548656 0.548656 -0.836048 255.397 0)" stroke="#5A5A5A"/>
<rect width="7.6181" height="28.2958" transform="matrix(-1 -8.74228e-08 -8.74228e-08 1 355.874 83.7991)" fill="#5A5A5A"/>
<rect width="16.3245" height="252.486" transform="matrix(1.19249e-08 -1 -1 -1.19249e-08 252.485 37.0022)" fill="#5A5A5A"/>
<path d="M96.9805 55.1151L96.9643 53.9477L96.9805 50.9156L96.9805 43.4083L87.1333 43.4083L87.1333 55.1151C87.1333 58.0986 89.3522 60.5308 92.0731 60.5308C94.7616 60.5308 96.9805 58.0986 96.9805 55.1151Z" fill="white" stroke="#5A5A5A" stroke-width="0.5"/>
<path d="M95.8477 55.0503L95.8477 54.1261L95.8477 46.6512L88.2518 46.6512L88.2518 54.1261L88.268 55.0503C88.268 57.4014 89.9524 59.3147 92.0578 59.3147C94.1471 59.2985 95.8477 57.3852 95.8477 55.0503Z" fill="white" stroke="#5A5A5A" stroke-width="0.5"/>
<path d="M85.3523 37.117L85.3523 42.3218C85.3523 42.9218 85.8382 43.4082 86.4375 43.4082L97.5965 43.4082C98.1958 43.4082 98.6816 42.9218 98.6816 42.3218L98.6816 37.117C98.6816 36.517 98.1958 36.0306 97.5965 36.0306L86.4536 36.0306C85.8382 36.0306 85.3523 36.517 85.3523 37.117Z" fill="white" stroke="#5A5A5A" stroke-width="0.5"/>
<path d="M91.3768 39.7113C91.3768 40.1167 91.6683 40.4247 92.0084 40.4247C92.3647 40.4409 92.6563 40.1167 92.6563 39.7113C92.6563 39.306 92.3647 38.9979 92.0246 38.9979C91.6521 39.0142 91.3606 39.3222 91.3768 39.7113Z" fill="white" stroke="#5A5A5A" stroke-width="0.5"/>
<path d="M52.8475 37.4834L52.8475 49.6554C52.8475 50.5016 53.5237 51.1786 54.369 51.1786L72.6836 51.1786C73.5289 51.1786 74.2051 50.5016 74.2051 49.6554L74.2051 37.4834C74.2051 36.6372 73.5289 35.9602 72.6836 35.9602L54.369 35.9602C53.5378 35.9602 52.8475 36.6372 52.8475 37.4834Z" fill="white" stroke="#5A5A5A" stroke-width="0.5"/>
<path d="M54.749 42.1239L54.749 43.9997C54.749 46.4679 56.7495 48.4707 59.2149 48.4707L67.8368 48.4707C70.3022 48.4707 72.3027 46.4679 72.3027 43.9997L72.3027 42.1239C72.3027 39.6556 70.3022 37.6528 67.8368 37.6528L59.2149 37.6528C56.7495 37.6528 54.749 39.6556 54.749 42.1239Z" fill="white" stroke="#5A5A5A" stroke-width="0.5"/>
<path d="M62.583 40.0363C62.583 40.5738 63.0056 41.0095 63.5269 41.0095C64.0481 41.0095 64.4707 40.5738 64.4707 40.0363C64.4707 39.4989 64.0481 39.0632 63.5269 39.0632C63.0056 39.0632 62.583 39.4989 62.583 40.0363Z" fill="white" stroke="#5A5A5A" stroke-width="0.5"/>
<path d="M96.9805 55.1151L96.9643 53.9477L96.9805 50.9156L96.9805 43.4083L87.1333 43.4083L87.1333 55.1151C87.1333 58.0986 89.3522 60.5308 92.0731 60.5308C94.7616 60.5308 96.9805 58.0986 96.9805 55.1151Z" fill="white" stroke="#5A5A5A" stroke-width="0.5"/>
<path d="M95.8477 55.0503L95.8477 54.1261L95.8477 46.6512L88.2518 46.6512L88.2518 54.1261L88.268 55.0503C88.268 57.4014 89.9524 59.3147 92.0578 59.3147C94.1471 59.2985 95.8477 57.3852 95.8477 55.0503Z" fill="white" stroke="#5A5A5A" stroke-width="0.5"/>
<path d="M85.3523 37.117L85.3523 42.3218C85.3523 42.9218 85.8382 43.4082 86.4375 43.4082L97.5965 43.4082C98.1958 43.4082 98.6816 42.9218 98.6816 42.3218L98.6816 37.117C98.6816 36.517 98.1958 36.0306 97.5965 36.0306L86.4536 36.0306C85.8382 36.0306 85.3523 36.517 85.3523 37.117Z" fill="white" stroke="#5A5A5A" stroke-width="0.5"/>
<path d="M91.3768 39.7113C91.3768 40.1167 91.6683 40.4247 92.0084 40.4247C92.3647 40.4409 92.6563 40.1167 92.6563 39.7113C92.6563 39.306 92.3647 38.9979 92.0246 38.9979C91.6521 39.0142 91.3606 39.3222 91.3768 39.7113Z" fill="white" stroke="#5A5A5A" stroke-width="0.5"/>
<path d="M52.8475 37.4834L52.8475 49.6554C52.8475 50.5016 53.5237 51.1786 54.369 51.1786L72.6836 51.1786C73.5289 51.1786 74.2051 50.5016 74.2051 49.6554L74.2051 37.4834C74.2051 36.6372 73.5289 35.9602 72.6836 35.9602L54.369 35.9602C53.5378 35.9602 52.8475 36.6372 52.8475 37.4834Z" fill="white" stroke="#5A5A5A" stroke-width="0.5"/>
<path d="M54.749 42.1239L54.749 43.9997C54.749 46.4679 56.7495 48.4707 59.2149 48.4707L67.8368 48.4707C70.3022 48.4707 72.3027 46.4679 72.3027 43.9997L72.3027 42.1239C72.3027 39.6556 70.3022 37.6528 67.8368 37.6528L59.2149 37.6528C56.7495 37.6528 54.749 39.6556 54.749 42.1239Z" fill="white" stroke="#5A5A5A" stroke-width="0.5"/>
<path d="M62.583 40.0363C62.583 40.5738 63.0056 41.0095 63.5269 41.0095C64.0481 41.0095 64.4707 40.5738 64.4707 40.0363C64.4707 39.4989 64.0481 39.0632 63.5269 39.0632C63.0056 39.0632 62.583 39.4989 62.583 40.0363Z" fill="white" stroke="#5A5A5A" stroke-width="0.5"/>
<path d="M47.8851 37.5559L47.8851 108.794C47.8851 109.706 47.1561 110.436 46.2449 110.436L17.9644 110.436C17.0532 110.436 16.3242 109.706 16.3242 108.794L16.3242 37.5559C16.3242 36.6436 17.0532 35.9138 17.9644 35.9138L46.2449 35.9138C47.1561 35.9138 47.8851 36.6602 47.8851 37.5559Z" fill="white" stroke="#5A5A5A" stroke-width="0.5"/>
<path d="M35.9401 106.057L28.2529 106.057C23.7963 106.057 20.2012 102.441 20.2012 97.996L20.2012 41.9013C20.2012 40.8066 21.0792 39.9275 22.1727 39.9275L42.0535 39.9275C43.1469 39.9275 44.025 40.8066 44.025 41.9013L44.025 97.9794C44.0084 102.441 40.3968 106.057 35.9401 106.057Z" fill="white" stroke="#5A5A5A" stroke-width="0.5"/>
<path d="M32.6597 46.5785C33.5472 46.5785 34.2667 45.8286 34.2667 44.9034C34.2667 43.9783 33.5472 43.2283 32.6597 43.2283C31.7722 43.2283 31.0527 43.9783 31.0527 44.9034C31.0527 45.8286 31.7722 46.5785 32.6597 46.5785Z" fill="white" stroke="#5A5A5A" stroke-width="0.5"/>
<path d="M91.4176 120.384L112.096 120.384L112.109 100.102L91.4307 100.115L91.4176 120.384Z" fill="white" stroke="#5A5A5A" stroke-width="0.5"/>
<path d="M101.771 105.041C104.697 105.041 107.059 107.366 107.059 110.243C107.059 113.12 104.697 115.445 101.758 115.445C98.8317 115.445 96.4437 113.12 96.4437 110.243C96.4569 107.366 98.8449 105.041 101.771 105.041Z" stroke="#5A5A5A" stroke-width="0.5"/>
<path d="M97.8992 110.243C97.8861 109.192 98.3191 108.246 99.0277 107.563C99.7362 106.88 100.707 106.46 101.757 106.447M105.641 110.23C105.641 109.192 105.208 108.246 104.512 107.55C103.804 106.867 102.846 106.434 101.77 106.434L105.641 110.23ZM97.8992 110.243C97.8992 111.281 98.3322 112.227 99.0277 112.923C99.7362 113.606 100.707 114.026 101.77 114.026L97.8992 110.243ZM105.641 110.23C105.641 111.294 105.208 112.24 104.512 112.91L104.499 112.923C103.804 113.593 102.846 114.026 101.783 114.026L105.641 110.23Z" stroke="#5A5A5A" stroke-width="0.5"/>
<rect width="16.3245" height="144.744" transform="matrix(1.19249e-08 -1 -1 -1.19249e-08 432.056 37.0022)" fill="#5A5A5A"/>
<rect width="16.3245" height="94.6821" transform="matrix(1 0 0 -1 423.349 114.271)" fill="#5A5A5A"/>
<rect width="16.3245" height="69.6512" transform="matrix(-4.37114e-08 -1 -1 4.37114e-08 493 114.271)" fill="#5A5A5A"/>
<rect width="16.3245" height="219.837" transform="matrix(1 0 0 -1 476.676 316.695)" fill="#5A5A5A"/>
<rect width="29.3841" height="89.2406" transform="matrix(-4.37114e-08 -1 -1 4.37114e-08 206.777 318.872)" fill="#5A5A5A"/>
<path d="M281.62 375.213L192.914 375.145L192.881 370.272L281.62 370.272L281.62 375.213Z" stroke="#5A5A5A" stroke-width="0.5" stroke-miterlimit="10"/>
<rect width="5.4415" height="80.5342" transform="matrix(1 0 0 -1 288.399 375.464)" fill="#5A5A5A"/>
<rect width="5.4415" height="80.5342" transform="matrix(1 0 0 -1 180.658 375.464)" fill="#5A5A5A"/>
<rect width="5.4415" height="16.3245" transform="matrix(-4.37114e-08 -1 -1 4.37114e-08 199.158 375.464)" fill="#5A5A5A"/>
<rect width="5.4415" height="13.0596" transform="matrix(-4.37114e-08 -1 -1 4.37114e-08 293.841 375.464)" fill="#5A5A5A"/>
<path d="M301.209 302.798L235.348 302.866L235.324 307.739L301.209 307.739L301.209 302.798Z" stroke="#5A5A5A" stroke-width="0.5" stroke-miterlimit="10"/>
<path d="M301.209 313.681L235.348 313.749L235.324 318.622L301.209 318.622L301.209 313.681Z" stroke="#5A5A5A" stroke-width="0.5" stroke-miterlimit="10"/>
<line x1="205.434" y1="306.471" x2="234.818" y2="289.058" stroke="#5A5A5A"/>
<rect width="29.3841" height="89.2406" transform="matrix(-4.37114e-08 -1 -1 4.37114e-08 356.963 318.872)" fill="#5A5A5A"/>
<rect width="29.3841" height="68.5629" transform="matrix(-4.37114e-08 -1 -1 4.37114e-08 493 318.872)" fill="#5A5A5A"/>
<path d="M403.734 51.7625L404.901 51.7786L407.934 51.7625L415.441 51.7624L415.441 61.6096L403.734 61.6096C400.751 61.6096 398.318 59.3908 398.318 56.6698C398.318 53.9813 400.751 51.7625 403.734 51.7625Z" fill="white" stroke="#5A5A5A" stroke-width="0.5"/>
<path d="M403.799 52.896L404.723 52.896L412.198 52.896L412.198 60.4919L404.723 60.4919L403.799 60.4757C401.447 60.4757 399.534 58.7913 399.534 56.6858C399.55 54.5966 401.464 52.896 403.799 52.896Z" fill="white" stroke="#5A5A5A" stroke-width="0.5"/>
<path d="M421.732 63.3911L416.527 63.3911C415.927 63.3911 415.44 62.9052 415.44 62.306L415.44 51.1469C415.44 50.5476 415.927 50.0618 416.527 50.0618L421.732 50.0618C422.332 50.0618 422.818 50.5476 422.818 51.1469L422.818 62.2898C422.818 62.9052 422.332 63.3911 421.732 63.3911Z" fill="white" stroke="#5A5A5A" stroke-width="0.5"/>
<path d="M419.138 57.3661C418.732 57.3661 418.424 57.0746 418.424 56.7345C418.408 56.3782 418.732 56.0867 419.138 56.0867C419.543 56.0867 419.851 56.3782 419.851 56.7183C419.835 57.0908 419.527 57.3823 419.138 57.3661Z" fill="white" stroke="#5A5A5A" stroke-width="0.5"/>
<path d="M421.365 95.8952L409.193 95.8952C408.347 95.8952 407.67 95.219 407.67 94.3737L407.67 76.0591C407.67 75.2138 408.347 74.5376 409.193 74.5376L421.365 74.5376C422.212 74.5376 422.889 75.2138 422.889 76.0591L422.889 94.3737C422.889 95.2049 422.212 95.8952 421.365 95.8952Z" fill="white" stroke="#5A5A5A" stroke-width="0.5"/>
<path d="M416.725 93.9935L414.849 93.9935C412.381 93.9935 410.378 91.993 410.378 89.5275L410.378 80.9056C410.378 78.4402 412.381 76.4397 414.849 76.4397L416.725 76.4397C419.194 76.4397 421.196 78.4402 421.196 80.9056L421.196 89.5275C421.196 91.993 419.194 93.9935 416.725 93.9935Z" fill="white" stroke="#5A5A5A" stroke-width="0.5"/>
<path d="M418.813 86.1604C418.276 86.1604 417.84 85.7378 417.84 85.2166C417.84 84.6953 418.276 84.2727 418.813 84.2727C419.35 84.2727 419.786 84.6953 419.786 85.2166C419.786 85.7378 419.35 86.1604 418.813 86.1604Z" fill="white" stroke="#5A5A5A" stroke-width="0.5"/>
<path d="M170.025 116.198L214.734 116.171L214.748 114.522L170.025 114.522L170.025 116.198Z" stroke="#5A5A5A" stroke-width="0.5" stroke-miterlimit="10"/>
<path d="M244.513 116.198L289.222 116.171L289.236 114.522L244.513 114.522L244.513 116.198Z" stroke="#5A5A5A" stroke-width="0.5" stroke-miterlimit="10"/>
<path d="M207.269 118.375L251.978 118.347L251.992 116.698L207.269 116.698L207.269 118.375Z" stroke="#5A5A5A" stroke-width="0.5" stroke-miterlimit="10"/>
<rect x="399.625" y="113.95" width="1.97164" height="5.91493" fill="#5A5A5A"/>
<rect x="399.626" y="124.794" width="1.97164" height="10.844" fill="#5A5A5A"/>
<rect x="399.626" y="141.553" width="1.97164" height="10.844" fill="#5A5A5A"/>
<rect x="399.626" y="158.312" width="1.97164" height="10.844" fill="#5A5A5A"/>
<rect x="399.626" y="175.071" width="1.97164" height="10.844" fill="#5A5A5A"/>
<rect x="399.626" y="191.83" width="1.97164" height="10.844" fill="#5A5A5A"/>
<rect x="399.626" y="211.546" width="1.97164" height="10.844" fill="#5A5A5A"/>
<rect x="399.626" y="229.598" width="1.97164" height="10.844" fill="#5A5A5A"/>
<rect x="399.626" y="247.011" width="1.97164" height="10.844" fill="#5A5A5A"/>
<rect x="399.626" y="264.424" width="1.97164" height="10.844" fill="#5A5A5A"/>
<rect x="399.406" y="281.87" width="2.1766" height="7.6181" fill="#5A5A5A"/>
</svg>
