<svg width="505" height="385" viewBox="0 0 505 385" fill="none" xmlns="http://www.w3.org/2000/svg">
<rect width="80.2649" height="425.85" transform="matrix(1.19249e-08 -1 -1 -1.19249e-08 442.572 118.565)" fill="#FFF8BA"/>
<rect width="96.9868" height="78.0353" transform="matrix(1.19249e-08 -1 -1 -1.19249e-08 442.572 118.565)" fill="#FFC79F"/>
<rect width="185.055" height="474.901" transform="matrix(1.19249e-08 -1 -1 -1.19249e-08 491.623 296.932)" fill="#FFF8BA"/>
<path d="M487.958 165.386L462.638 165.386L462.638 190.028L487.958 190.028L487.958 165.386Z" fill="white" stroke="#5A5A5A" stroke-width="0.5"/>
<path d="M464.691 166.325L484.397 166.325C485.145 166.325 485.542 166.723 485.542 167.502L485.542 187.912C485.542 188.708 485.16 189.089 484.397 189.089L464.691 189.089C463.927 189.105 463.546 188.708 463.546 187.928L463.546 167.518C463.53 166.723 463.927 166.325 464.691 166.325Z" fill="white" stroke="#5A5A5A" stroke-width="0.5"/>
<path d="M466.503 172.911C466.519 174.725 467.951 176.204 469.716 176.204C471.498 176.204 472.929 174.725 472.929 172.911C472.929 171.082 471.498 169.618 469.716 169.618C467.935 169.618 466.503 171.082 466.503 172.911Z" stroke="#5A5A5A" stroke-width="0.5"/>
<path d="M466.534 182.662C466.55 184.476 467.981 185.955 469.747 185.955C471.528 185.955 472.959 184.476 472.959 182.662C472.959 180.833 471.528 179.369 469.747 179.369C467.965 179.353 466.518 180.833 466.534 182.662Z" stroke="#5A5A5A" stroke-width="0.5"/>
<path d="M475.665 182.662C475.665 184.491 477.096 185.955 478.878 185.955C480.659 185.955 482.09 184.476 482.09 182.662C482.075 180.849 480.643 179.369 478.878 179.369C477.112 179.369 475.665 180.849 475.665 182.662Z" stroke="#5A5A5A" stroke-width="0.5"/>
<path d="M475.665 172.911C475.665 174.74 477.096 176.204 478.878 176.204C480.659 176.204 482.09 174.725 482.09 172.911C482.075 171.098 480.643 169.618 478.878 169.618C477.112 169.618 475.665 171.098 475.665 172.911Z" stroke="#5A5A5A" stroke-width="0.5"/>
<path d="M468.809 119.696L468.809 144.097L444.801 144.097L444.801 119.68L468.809 119.696Z" fill="white" stroke="#5A5A5A" stroke-width="0.5"/>
<path d="M466.982 126.388L466.982 139.878C466.982 140.63 466.614 140.998 465.846 140.998L448.01 140.998C447.273 140.998 446.889 140.63 446.874 139.893L446.889 126.388C446.874 125.651 447.258 125.283 448.01 125.283L465.846 125.283C466.599 125.252 466.982 125.636 466.982 126.388Z" fill="white" stroke="#5A5A5A" stroke-width="0.5"/>
<path d="M456.928 121.568C455.992 121.584 455.239 122.29 455.239 123.18L455.9 130.255L455.915 130.27C455.915 130.807 456.36 131.237 456.928 131.237C457.496 131.237 457.941 130.807 457.956 130.255L458.616 123.18C458.616 122.305 457.864 121.584 456.928 121.568Z" stroke="#5A5A5A" stroke-width="0.5"/>
<mask id="path-13-inside-1_35_9493" fill="white">
<path fill-rule="evenodd" clip-rule="evenodd" d="M455.531 122.259L455.899 126.111C455.915 126.649 456.36 127.094 456.943 127.078C457.511 127.078 457.941 126.649 457.956 126.111L458.325 122.259"/>
</mask>
<path fill-rule="evenodd" clip-rule="evenodd" d="M455.531 122.259L455.899 126.111C455.915 126.649 456.36 127.094 456.943 127.078C457.511 127.078 457.941 126.649 457.956 126.111L458.325 122.259" fill="white"/>
<path d="M455.899 126.111L456.399 126.097L456.399 126.08L456.397 126.064L455.899 126.111ZM456.943 127.078L456.943 126.578L456.93 126.578L456.943 127.078ZM457.956 126.111L457.459 126.064L457.457 126.08L457.457 126.097L457.956 126.111ZM455.033 122.307L455.402 126.159L456.397 126.064L456.029 122.212L455.033 122.307ZM455.4 126.126C455.423 126.938 456.097 127.601 456.956 127.578L456.93 126.578C456.623 126.587 456.407 126.36 456.399 126.097L455.4 126.126ZM456.943 127.578C457.78 127.578 458.433 126.935 458.456 126.126L457.457 126.097C457.449 126.362 457.242 126.578 456.943 126.578L456.943 127.578ZM458.454 126.159L458.822 122.307L457.827 122.212L457.459 126.064L458.454 126.159Z" fill="#5A5A5A" mask="url(#path-13-inside-1_35_9493)"/>
<circle cx="253.928" cy="194.126" r="39.8878" fill="#5A5A5A"/>
<path d="M223.138 191.446V189.466H231.688V191.446L226.648 202.066H224.398L229.348 191.626V191.446H223.138ZM232.586 202.066V200.086L236.888 197.044C237.824 196.372 238.496 195.748 238.904 195.172C239.312 194.596 239.516 193.984 239.516 193.336C239.516 192.652 239.306 192.106 238.886 191.698C238.466 191.29 237.896 191.086 237.176 191.086C236.288 191.086 235.622 191.446 235.178 192.166C234.986 192.478 234.842 192.838 234.746 193.246H232.586C232.694 192.478 232.928 191.788 233.288 191.176C234.14 189.796 235.436 189.106 237.176 189.106C238.508 189.106 239.588 189.502 240.416 190.294C241.256 191.074 241.676 192.058 241.676 193.246C241.676 194.278 241.412 195.208 240.884 196.036C240.356 196.852 239.51 197.662 238.346 198.466L236.546 199.726L235.736 200.086V200.176L236.816 200.086H241.676V202.066H232.586ZM243.119 201.076C243.119 200.716 243.233 200.416 243.461 200.176C243.701 199.936 243.995 199.816 244.343 199.816C244.739 199.816 245.051 199.96 245.279 200.248C245.519 200.536 245.639 200.962 245.639 201.526C245.639 202.45 245.417 203.158 244.973 203.65C244.541 204.154 243.953 204.406 243.209 204.406V203.506C243.569 203.506 243.851 203.404 244.055 203.2C244.271 203.008 244.379 202.75 244.379 202.426V202.318C244.367 202.306 244.361 202.282 244.361 202.246V202.192L244.253 202.228C244.217 202.24 244.139 202.246 244.019 202.246C243.779 202.246 243.569 202.138 243.389 201.922C243.209 201.706 243.119 201.424 243.119 201.076ZM247.074 198.556H249.234C249.33 198.928 249.492 199.246 249.72 199.51C250.248 200.134 251.016 200.446 252.024 200.446C252.828 200.446 253.464 200.23 253.932 199.798C254.4 199.366 254.634 198.802 254.634 198.106C254.634 197.374 254.4 196.786 253.932 196.342C253.464 195.898 252.828 195.676 252.024 195.676C251.28 195.676 250.65 195.874 250.134 196.27C249.93 196.426 249.75 196.618 249.594 196.846H247.614L248.154 189.466H255.804V191.446H249.864L249.594 194.686H249.684C249.876 194.494 250.098 194.332 250.35 194.2C250.914 193.864 251.592 193.696 252.384 193.696C253.644 193.696 254.694 194.116 255.534 194.956C256.374 195.796 256.794 196.846 256.794 198.106C256.794 199.342 256.35 200.374 255.462 201.202C254.586 202.018 253.44 202.426 252.024 202.426C250.176 202.426 248.802 201.784 247.902 200.5C247.518 199.936 247.242 199.288 247.074 198.556ZM258.059 197.926C258.059 197.35 258.185 196.75 258.437 196.126C258.701 195.49 258.953 194.992 259.193 194.632C259.445 194.26 259.787 193.798 260.219 193.246L263.099 189.466H265.529L262.811 193.012L262.019 193.696V193.786L262.379 193.66C262.739 193.564 263.129 193.516 263.549 193.516C264.725 193.516 265.721 193.942 266.537 194.794C267.365 195.634 267.779 196.678 267.779 197.926C267.779 199.198 267.323 200.266 266.411 201.13C265.499 201.994 264.335 202.426 262.919 202.426C261.503 202.426 260.339 201.994 259.427 201.13C258.515 200.266 258.059 199.198 258.059 197.926ZM260.957 196.054C260.465 196.534 260.219 197.158 260.219 197.926C260.219 198.694 260.465 199.324 260.957 199.816C261.449 200.296 262.103 200.536 262.919 200.536C263.735 200.536 264.389 200.296 264.881 199.816C265.373 199.324 265.619 198.694 265.619 197.926C265.619 197.158 265.373 196.534 264.881 196.054C264.389 195.562 263.735 195.316 262.919 195.316C262.103 195.316 261.449 195.562 260.957 196.054Z" fill="white"/>
<path d="M287.826 261.15V259.61L291.116 253.31H292.866L289.576 259.61H292.796V257.23H292.866H294.406V259.61H295.806V261.15H294.406V263.11H292.796V261.15H287.826ZM296.439 261.15V259.61L299.729 253.31H301.479L298.189 259.61H301.409V257.23H301.479H303.019V259.61H304.419V261.15H303.019V263.11H301.409V261.15H296.439ZM304.979 262.34C304.979 262.06 305.067 261.827 305.245 261.64C305.431 261.454 305.66 261.36 305.931 261.36C306.239 261.36 306.481 261.472 306.659 261.696C306.845 261.92 306.939 262.252 306.939 262.69C306.939 263.409 306.766 263.96 306.421 264.342C306.085 264.734 305.627 264.93 305.049 264.93V264.23C305.329 264.23 305.548 264.151 305.707 263.992C305.875 263.843 305.959 263.642 305.959 263.39V263.306C305.949 263.297 305.945 263.278 305.945 263.25V263.208L305.861 263.236C305.833 263.246 305.772 263.25 305.679 263.25C305.492 263.25 305.329 263.166 305.189 262.998C305.049 262.83 304.979 262.611 304.979 262.34ZM307.845 256.53V254.71L309.665 253.31H311.135V263.11H309.525V255.27L307.845 256.53ZM312.536 263.11V261.57L315.882 259.204C316.61 258.682 317.133 258.196 317.45 257.748C317.767 257.3 317.926 256.824 317.926 256.32C317.926 255.788 317.763 255.364 317.436 255.046C317.109 254.729 316.666 254.57 316.106 254.57C315.415 254.57 314.897 254.85 314.552 255.41C314.403 255.653 314.291 255.933 314.216 256.25H312.536C312.62 255.653 312.802 255.116 313.082 254.64C313.745 253.567 314.753 253.03 316.106 253.03C317.142 253.03 317.982 253.338 318.626 253.954C319.279 254.561 319.606 255.326 319.606 256.25C319.606 257.053 319.401 257.776 318.99 258.42C318.579 259.055 317.921 259.685 317.016 260.31L315.616 261.29L314.986 261.57V261.64L315.826 261.57H319.606V263.11H312.536Z" fill="#333333"/>
<path d="M100.21 355.04V353.5L103.5 347.2H105.25L101.96 353.5H105.18V351.12H105.25H106.79V353.5H108.19V355.04H106.79V357H105.18V355.04H100.21ZM108.749 356.23C108.749 355.95 108.838 355.717 109.015 355.53C109.202 355.343 109.431 355.25 109.701 355.25C110.009 355.25 110.252 355.362 110.429 355.586C110.616 355.81 110.709 356.141 110.709 356.58C110.709 357.299 110.537 357.849 110.191 358.232C109.855 358.624 109.398 358.82 108.819 358.82V358.12C109.099 358.12 109.319 358.041 109.477 357.882C109.645 357.733 109.729 357.532 109.729 357.28V357.196C109.72 357.187 109.715 357.168 109.715 357.14V357.098L109.631 357.126C109.603 357.135 109.543 357.14 109.449 357.14C109.263 357.14 109.099 357.056 108.959 356.888C108.819 356.72 108.749 356.501 108.749 356.23ZM111.406 348.74V347.2H118.056V348.74L114.136 357H112.386L116.236 348.88V348.74H111.406ZM118.551 353.78C118.551 353.332 118.649 352.865 118.845 352.38C119.05 351.885 119.246 351.498 119.433 351.218C119.629 350.929 119.895 350.569 120.231 350.14L122.471 347.2H124.361L122.247 349.958L121.631 350.49V350.56L121.911 350.462C122.191 350.387 122.494 350.35 122.821 350.35C123.735 350.35 124.51 350.681 125.145 351.344C125.789 351.997 126.111 352.809 126.111 353.78C126.111 354.769 125.756 355.6 125.047 356.272C124.337 356.944 123.432 357.28 122.331 357.28C121.229 357.28 120.324 356.944 119.615 356.272C118.905 355.6 118.551 354.769 118.551 353.78ZM120.805 352.324C120.422 352.697 120.231 353.183 120.231 353.78C120.231 354.377 120.422 354.867 120.805 355.25C121.187 355.623 121.696 355.81 122.331 355.81C122.965 355.81 123.474 355.623 123.857 355.25C124.239 354.867 124.431 354.377 124.431 353.78C124.431 353.183 124.239 352.697 123.857 352.324C123.474 351.941 122.965 351.75 122.331 351.75C121.696 351.75 121.187 351.941 120.805 352.324Z" fill="#333333"/>
<path d="M370.21 355.04V353.5L373.5 347.2H375.25L371.96 353.5H375.18V351.12H375.25H376.79V353.5H378.19V355.04H376.79V357H375.18V355.04H370.21ZM378.749 356.23C378.749 355.95 378.838 355.717 379.015 355.53C379.202 355.343 379.431 355.25 379.701 355.25C380.009 355.25 380.252 355.362 380.429 355.586C380.616 355.81 380.709 356.141 380.709 356.58C380.709 357.299 380.537 357.849 380.191 358.232C379.855 358.624 379.398 358.82 378.819 358.82V358.12C379.099 358.12 379.319 358.041 379.477 357.882C379.645 357.733 379.729 357.532 379.729 357.28V357.196C379.72 357.187 379.715 357.168 379.715 357.14V357.098L379.631 357.126C379.603 357.135 379.543 357.14 379.449 357.14C379.263 357.14 379.099 357.056 378.959 356.888C378.819 356.72 378.749 356.501 378.749 356.23ZM381.406 348.74V347.2H388.056V348.74L384.136 357H382.386L386.236 348.88V348.74H381.406ZM388.551 353.78C388.551 353.332 388.649 352.865 388.845 352.38C389.05 351.885 389.246 351.498 389.433 351.218C389.629 350.929 389.895 350.569 390.231 350.14L392.471 347.2H394.361L392.247 349.958L391.631 350.49V350.56L391.911 350.462C392.191 350.387 392.494 350.35 392.821 350.35C393.735 350.35 394.51 350.681 395.145 351.344C395.789 351.997 396.111 352.809 396.111 353.78C396.111 354.769 395.756 355.6 395.047 356.272C394.337 356.944 393.432 357.28 392.331 357.28C391.229 357.28 390.324 356.944 389.615 356.272C388.905 355.6 388.551 354.769 388.551 353.78ZM390.805 352.324C390.422 352.697 390.231 353.183 390.231 353.78C390.231 354.377 390.422 354.867 390.805 355.25C391.187 355.623 391.696 355.81 392.331 355.81C392.965 355.81 393.474 355.623 393.857 355.25C394.239 354.867 394.431 354.377 394.431 353.78C394.431 353.183 394.239 352.697 393.857 352.324C393.474 351.941 392.965 351.75 392.331 351.75C391.696 351.75 391.187 351.941 390.805 352.324Z" fill="#333333"/>
<path d="M431.984 254.877C431.984 254.027 432.31 253.351 432.964 252.847C433.244 252.651 433.57 252.501 433.944 252.399V252.315C433.654 252.203 433.398 252.049 433.174 251.853C432.66 251.414 432.404 250.835 432.404 250.117C432.404 249.379 432.716 248.754 433.342 248.241C433.976 247.718 434.83 247.457 435.904 247.457C436.977 247.457 437.826 247.718 438.452 248.241C439.086 248.754 439.404 249.379 439.404 250.117C439.404 250.817 439.147 251.395 438.634 251.853C438.391 252.049 438.134 252.203 437.864 252.315V252.399C438.218 252.492 438.545 252.646 438.844 252.861C439.497 253.365 439.824 254.037 439.824 254.877C439.824 255.689 439.469 256.384 438.76 256.963C438.06 257.532 437.108 257.817 435.904 257.817C434.7 257.817 433.743 257.532 433.034 256.963C432.334 256.384 431.984 255.689 431.984 254.877ZM434.084 250.257C434.084 250.667 434.242 251.003 434.56 251.265C434.877 251.526 435.325 251.657 435.904 251.657C436.482 251.657 436.93 251.526 437.248 251.265C437.565 251.003 437.724 250.667 437.724 250.257C437.724 249.883 437.56 249.571 437.234 249.319C436.916 249.057 436.473 248.927 435.904 248.927C435.334 248.927 434.886 249.057 434.56 249.319C434.242 249.571 434.084 249.883 434.084 250.257ZM434.252 253.603C433.86 253.911 433.664 254.289 433.664 254.737C433.664 255.185 433.86 255.567 434.252 255.885C434.653 256.193 435.204 256.347 435.904 256.347C436.604 256.347 437.15 256.193 437.542 255.885C437.943 255.567 438.144 255.185 438.144 254.737C438.144 254.289 437.943 253.911 437.542 253.603C437.15 253.285 436.604 253.127 435.904 253.127C435.204 253.127 434.653 253.285 434.252 253.603ZM440.939 256.767C440.939 256.487 441.028 256.253 441.205 256.067C441.392 255.88 441.62 255.787 441.891 255.787C442.199 255.787 442.442 255.899 442.619 256.123C442.806 256.347 442.899 256.678 442.899 257.117C442.899 257.835 442.726 258.386 442.381 258.769C442.045 259.161 441.588 259.357 441.009 259.357V258.657C441.289 258.657 441.508 258.577 441.667 258.419C441.835 258.269 441.919 258.069 441.919 257.817V257.733C441.91 257.723 441.905 257.705 441.905 257.677V257.635L441.821 257.663C441.793 257.672 441.732 257.677 441.639 257.677C441.452 257.677 441.289 257.593 441.149 257.425C441.009 257.257 440.939 257.037 440.939 256.767ZM444.015 250.957C444.015 249.967 444.37 249.137 445.079 248.465C445.788 247.793 446.694 247.457 447.795 247.457C448.896 247.457 449.802 247.793 450.511 248.465C451.22 249.137 451.575 249.967 451.575 250.957C451.575 251.843 451.206 252.8 450.469 253.827C450.394 253.929 450.292 254.069 450.161 254.247C450.03 254.415 449.942 254.531 449.895 254.597L447.655 257.537H445.765L447.879 254.779L448.495 254.247V254.177C448.476 254.186 448.383 254.223 448.215 254.289C447.972 254.354 447.669 254.387 447.305 254.387C446.39 254.387 445.611 254.06 444.967 253.407C444.332 252.744 444.015 251.927 444.015 250.957ZM446.269 249.501C445.886 249.874 445.695 250.359 445.695 250.957C445.695 251.554 445.886 252.044 446.269 252.427C446.652 252.8 447.16 252.987 447.795 252.987C448.43 252.987 448.938 252.8 449.321 252.427C449.704 252.044 449.895 251.554 449.895 250.957C449.895 250.359 449.704 249.874 449.321 249.501C448.938 249.118 448.43 248.927 447.795 248.927C447.16 248.927 446.652 249.118 446.269 249.501ZM452.628 254.807H454.308C454.383 255.096 454.509 255.343 454.686 255.549C455.097 256.034 455.694 256.277 456.478 256.277C457.104 256.277 457.598 256.109 457.962 255.773C458.326 255.437 458.508 254.998 458.508 254.457C458.508 253.887 458.326 253.43 457.962 253.085C457.598 252.739 457.104 252.567 456.478 252.567C455.9 252.567 455.41 252.721 455.008 253.029C454.85 253.15 454.71 253.299 454.588 253.477H453.048L453.468 247.737H459.418V249.277H454.798L454.588 251.797H454.658C454.808 251.647 454.98 251.521 455.176 251.419C455.615 251.157 456.142 251.027 456.758 251.027C457.738 251.027 458.555 251.353 459.208 252.007C459.862 252.66 460.188 253.477 460.188 254.457C460.188 255.418 459.843 256.221 459.152 256.865C458.471 257.499 457.58 257.817 456.478 257.817C455.041 257.817 453.972 257.317 453.272 256.319C452.974 255.88 452.759 255.376 452.628 254.807Z" fill="#333333"/>
<path d="M372.76 76.3699H374.44C374.505 76.6593 374.631 76.9159 374.818 77.1399C375.238 77.6533 375.835 77.9099 376.61 77.9099C377.254 77.9099 377.763 77.7513 378.136 77.4339C378.519 77.1073 378.71 76.7059 378.71 76.2299C378.71 75.6886 378.537 75.2639 378.192 74.9559C377.856 74.6386 377.375 74.4799 376.75 74.4799H374.37V73.0799L377.31 70.9799V70.9099H373.25V69.3699H379.69V70.8959L377.17 72.7299L376.47 73.0099V73.0799L376.694 73.0519C377.002 73.0239 377.184 73.0099 377.24 73.0099C378.117 73.0099 378.85 73.3133 379.438 73.9199C380.026 74.5266 380.32 75.2966 380.32 76.2299C380.32 77.1259 379.975 77.8866 379.284 78.5119C378.593 79.1373 377.702 79.4499 376.61 79.4499C375.163 79.4499 374.095 78.9366 373.404 77.9099C373.105 77.4713 372.891 76.9579 372.76 76.3699ZM381.377 78.3999C381.377 78.1199 381.465 77.8866 381.643 77.6999C381.829 77.5133 382.058 77.4199 382.329 77.4199C382.637 77.4199 382.879 77.5319 383.057 77.7559C383.243 77.9799 383.337 78.3113 383.337 78.7499C383.337 79.4686 383.164 80.0193 382.819 80.4019C382.483 80.7939 382.025 80.9899 381.447 80.9899V80.2899C381.727 80.2899 381.946 80.2106 382.105 80.0519C382.273 79.9026 382.357 79.7019 382.357 79.4499V79.3659C382.347 79.3566 382.343 79.3379 382.343 79.3099V79.2679L382.259 79.2959C382.231 79.3053 382.17 79.3099 382.077 79.3099C381.89 79.3099 381.727 79.2259 381.587 79.0579C381.447 78.8899 381.377 78.6706 381.377 78.3999ZM384.313 79.1699V77.6299L387.659 75.2639C388.387 74.7413 388.909 74.2559 389.227 73.8079C389.544 73.3599 389.703 72.8839 389.703 72.3799C389.703 71.8479 389.539 71.4233 389.213 71.1059C388.886 70.7886 388.443 70.6299 387.883 70.6299C387.192 70.6299 386.674 70.9099 386.329 71.4699C386.179 71.7126 386.067 71.9926 385.993 72.3099H384.313C384.397 71.7126 384.579 71.1759 384.859 70.6999C385.521 69.6266 386.529 69.0899 387.883 69.0899C388.919 69.0899 389.759 69.3979 390.403 70.0139C391.056 70.6206 391.383 71.3859 391.383 72.3099C391.383 73.1126 391.177 73.8359 390.767 74.4799C390.356 75.1146 389.698 75.7446 388.793 76.3699L387.393 77.3499L386.763 77.6299V77.6999L387.603 77.6299H391.383V79.1699H384.313ZM392.155 77.2099V75.6699L395.445 69.3699H397.195L393.905 75.6699H397.125V73.2899H397.195H398.735V75.6699H400.135V77.2099H398.735V79.1699H397.125V77.2099H392.155Z" fill="#333333"/>
<path d="M216.619 72.5899V70.7699L218.439 69.3699H219.909V79.1699H218.299V71.3299L216.619 72.5899ZM221.24 72.5899V70.7699L223.06 69.3699H224.53V79.1699H222.92V71.3299L221.24 72.5899ZM226.071 78.3999C226.071 78.1199 226.16 77.8866 226.337 77.6999C226.524 77.5133 226.753 77.4199 227.023 77.4199C227.331 77.4199 227.574 77.5319 227.751 77.7559C227.938 77.9799 228.031 78.3113 228.031 78.7499C228.031 79.4686 227.859 80.0193 227.513 80.4019C227.177 80.7939 226.72 80.9899 226.141 80.9899V80.2899C226.421 80.2899 226.641 80.2106 226.799 80.0519C226.967 79.9026 227.051 79.7019 227.051 79.4499V79.3659C227.042 79.3566 227.037 79.3379 227.037 79.3099V79.2679L226.953 79.2959C226.925 79.3053 226.865 79.3099 226.771 79.3099C226.585 79.3099 226.421 79.2259 226.281 79.0579C226.141 78.8899 226.071 78.6706 226.071 78.3999ZM230.548 77.9939C229.661 77.0233 229.218 75.7819 229.218 74.2699C229.218 72.7579 229.661 71.5166 230.548 70.5459C231.434 69.5753 232.508 69.0899 233.768 69.0899C235.028 69.0899 236.101 69.5753 236.988 70.5459C237.874 71.5166 238.318 72.7579 238.318 74.2699C238.318 75.7819 237.874 77.0233 236.988 77.9939C236.101 78.9646 235.028 79.4499 233.768 79.4499C232.508 79.4499 231.434 78.9646 230.548 77.9939ZM231.696 71.5819C231.164 72.2166 230.898 73.1126 230.898 74.2699C230.898 75.4273 231.164 76.3233 231.696 76.9579C232.237 77.5926 232.928 77.9099 233.768 77.9099C234.608 77.9099 235.294 77.5926 235.826 76.9579C236.367 76.3233 236.638 75.4273 236.638 74.2699C236.638 73.1126 236.367 72.2166 235.826 71.5819C235.294 70.9473 234.608 70.6299 233.768 70.6299C232.928 70.6299 232.237 70.9473 231.696 71.5819ZM239.161 77.2099V75.6699L242.451 69.3699H244.201L240.911 75.6699H244.131V73.2899H244.201H245.741V75.6699H247.141V77.2099H245.741V79.1699H244.131V77.2099H239.161Z" fill="#333333"/>
<rect width="86.9536" height="98.1015" transform="matrix(1.19249e-08 -1 -1 -1.19249e-08 114.823 123.024)" fill="#FFC79F"/>
<rect width="30.0993" height="42.362" transform="matrix(-4.37114e-08 -1 -1 4.37114e-08 57.9691 327.031)" fill="#5A5A5A"/>
<path d="M65.2178 77.5547H66.8978C66.9725 77.844 67.0985 78.0913 67.2758 78.2967C67.6865 78.782 68.2838 79.0247 69.0678 79.0247C69.6932 79.0247 70.1878 78.8567 70.5518 78.5207C70.9158 78.1847 71.0978 77.746 71.0978 77.2047C71.0978 76.6353 70.9158 76.178 70.5518 75.8327C70.1878 75.4873 69.6932 75.3147 69.0678 75.3147C68.4892 75.3147 67.9992 75.4687 67.5978 75.7767C67.4392 75.898 67.2992 76.0473 67.1778 76.2247H65.6378L66.0578 70.4847H72.0078V72.0247H67.3878L67.1778 74.5447H67.2478C67.3972 74.3953 67.5698 74.2693 67.7658 74.1667C68.2045 73.9053 68.7318 73.7747 69.3478 73.7747C70.3278 73.7747 71.1445 74.1013 71.7978 74.7547C72.4512 75.408 72.7778 76.2247 72.7778 77.2047C72.7778 78.166 72.4325 78.9687 71.7418 79.6127C71.0605 80.2473 70.1692 80.5647 69.0678 80.5647C67.6305 80.5647 66.5618 80.0653 65.8618 79.0667C65.5632 78.628 65.3485 78.124 65.2178 77.5547ZM73.8311 79.5147C73.8311 79.2347 73.9198 79.0013 74.0971 78.8147C74.2838 78.628 74.5125 78.5347 74.7831 78.5347C75.0911 78.5347 75.3338 78.6467 75.5111 78.8707C75.6978 79.0947 75.7911 79.426 75.7911 79.8647C75.7911 80.5833 75.6185 81.134 75.2731 81.5167C74.9371 81.9087 74.4798 82.1047 73.9011 82.1047V81.4047C74.1811 81.4047 74.4005 81.3253 74.5591 81.1667C74.7271 81.0173 74.8111 80.8167 74.8111 80.5647V80.4807C74.8018 80.4713 74.7971 80.4527 74.7971 80.4247V80.3827L74.7131 80.4107C74.6851 80.42 74.6245 80.4247 74.5311 80.4247C74.3445 80.4247 74.1811 80.3407 74.0411 80.1727C73.9011 80.0047 73.8311 79.7853 73.8311 79.5147ZM76.7673 80.2847V78.7447L80.1133 76.3787C80.8413 75.856 81.364 75.3707 81.6813 74.9227C81.9986 74.4747 82.1573 73.9987 82.1573 73.4947C82.1573 72.9627 81.994 72.538 81.6673 72.2207C81.3406 71.9033 80.8973 71.7447 80.3373 71.7447C79.6466 71.7447 79.1286 72.0247 78.7833 72.5847C78.634 72.8273 78.522 73.1073 78.4473 73.4247H76.7673C76.8513 72.8273 77.0333 72.2907 77.3133 71.8147C77.976 70.7413 78.984 70.2047 80.3373 70.2047C81.3733 70.2047 82.2133 70.5127 82.8573 71.1287C83.5106 71.7353 83.8373 72.5007 83.8373 73.4247C83.8373 74.2273 83.632 74.9507 83.2213 75.5947C82.8106 76.2293 82.1526 76.8593 81.2473 77.4847L79.8473 78.4647L79.2173 78.7447V78.8147L80.0573 78.7447H83.8373V80.2847H76.7673ZM84.75 73.7047V71.8847L86.57 70.4847H88.04V80.2847H86.43V72.4447L84.75 73.7047Z" fill="#333333"/>
<rect width="16.7219" height="302.108" transform="matrix(-1 8.74228e-08 8.74228e-08 1 16.7219 24.9229)" fill="#5A5A5A"/>
<rect width="7.80353" height="105.905" transform="matrix(-4.37114e-08 1 1 4.37114e-08 14.4923 123.024)" fill="#5A5A5A"/>
<rect width="7.80353" height="63.1608" transform="matrix(0.000688229 1 1 -0.000688229 115.203 111.884)" fill="#5A5A5A"/>
<rect width="7.80353" height="198.784" transform="matrix(0.000688229 1 1 -0.000688229 293.569 111.884)" fill="#5A5A5A"/>
<rect width="7.80353" height="40.1325" transform="matrix(-1 -8.74228e-08 -8.74228e-08 1 122.627 33.8413)" fill="#5A5A5A"/>
<rect width="7.80353" height="31.2141" transform="matrix(-1 -8.74228e-08 -8.74228e-08 1 364.536 23.8081)" fill="#5A5A5A"/>
<rect width="7.80353" height="28.9845" transform="matrix(-1 -8.74228e-08 -8.74228e-08 1 122.627 101.843)" fill="#5A5A5A"/>
<line x1="134.228" y1="75.2989" x2="119.736" y2="106.513" stroke="#5A5A5A"/>
<line x1="359.416" y1="51.8883" x2="344.924" y2="83.1024" stroke="#5A5A5A"/>
<line x1="293.464" y1="0.815485" x2="257.791" y2="24.2261" stroke="#5A5A5A"/>
<rect width="7.80353" height="28.9845" transform="matrix(-1 -8.74228e-08 -8.74228e-08 1 364.536 86.2363)" fill="#5A5A5A"/>
<rect width="16.7219" height="258.631" transform="matrix(1.19249e-08 -1 -1 -1.19249e-08 258.631 38.3003)" fill="#5A5A5A"/>
<path d="M99.3411 56.8544L99.3245 55.6586L99.3411 52.5527L99.3411 44.8626L89.2542 44.8626L89.2542 56.8544C89.2542 59.9105 91.5271 62.4019 94.3142 62.4019C97.0682 62.4019 99.3411 59.9105 99.3411 56.8544Z" fill="white" stroke="#5A5A5A" stroke-width="0.5"/>
<path d="M98.1798 56.7881L98.1798 55.8413L98.1798 48.1845L90.399 48.1845L90.399 55.8413L90.4156 56.7881C90.4156 59.1964 92.141 61.1562 94.2977 61.1562C96.4379 61.1396 98.1798 59.1798 98.1798 56.7881Z" fill="white" stroke="#5A5A5A" stroke-width="0.5"/>
<path d="M87.4293 38.4179L87.4293 43.7495C87.4293 44.364 87.927 44.8623 88.5408 44.8623L99.9715 44.8623C100.585 44.8623 101.083 44.364 101.083 43.7495L101.083 38.4179C101.083 37.8034 100.585 37.3051 99.9715 37.3051L88.5574 37.3051C87.9269 37.3051 87.4293 37.8034 87.4293 38.4179Z" fill="white" stroke="#5A5A5A" stroke-width="0.5"/>
<path d="M93.6009 41.0758C93.6009 41.491 93.8995 41.8065 94.2479 41.8065C94.6129 41.8231 94.9115 41.491 94.9115 41.0758C94.9115 40.6606 94.6129 40.345 94.2645 40.345C93.8829 40.3616 93.5843 40.6772 93.6009 41.0758Z" fill="white" stroke="#5A5A5A" stroke-width="0.5"/>
<path d="M54.1343 38.7932L54.1343 51.2615C54.1343 52.1283 54.827 52.8218 55.6928 52.8218L74.4532 52.8218C75.319 52.8218 76.0117 52.1283 76.0117 51.2615L76.0117 38.7932C76.0117 37.9264 75.319 37.2329 74.4532 37.2329L55.6928 37.2329C54.8414 37.2329 54.1343 37.9264 54.1343 38.7932Z" fill="white" stroke="#5A5A5A" stroke-width="0.5"/>
<path d="M56.0823 43.5462L56.0823 45.4677C56.0823 47.996 58.1315 50.0475 60.6569 50.0475L69.4887 50.0475C72.0142 50.0475 74.0634 47.996 74.0634 45.4677L74.0634 43.5462C74.0634 41.0178 72.0142 38.9663 69.4887 38.9663L60.6569 38.9663C58.1315 38.9663 56.0823 41.0178 56.0823 43.5462Z" fill="white" stroke="#5A5A5A" stroke-width="0.5"/>
<path d="M64.1058 41.4079C64.1058 41.9585 64.5386 42.4047 65.0726 42.4047C65.6066 42.4047 66.0394 41.9585 66.0394 41.4079C66.0394 40.8574 65.6066 40.4111 65.0726 40.4111C64.5386 40.4111 64.1058 40.8574 64.1058 41.4079Z" fill="white" stroke="#5A5A5A" stroke-width="0.5"/>
<path d="M99.3411 56.8544L99.3245 55.6586L99.3411 52.5527L99.3411 44.8626L89.2542 44.8626L89.2542 56.8544C89.2542 59.9105 91.5271 62.4019 94.3142 62.4019C97.0682 62.4019 99.3411 59.9105 99.3411 56.8544Z" fill="white" stroke="#5A5A5A" stroke-width="0.5"/>
<path d="M98.1798 56.7881L98.1798 55.8413L98.1798 48.1845L90.399 48.1845L90.399 55.8413L90.4156 56.7881C90.4156 59.1964 92.141 61.1562 94.2977 61.1562C96.4379 61.1396 98.1798 59.1798 98.1798 56.7881Z" fill="white" stroke="#5A5A5A" stroke-width="0.5"/>
<path d="M87.4293 38.4179L87.4293 43.7495C87.4293 44.364 87.927 44.8623 88.5408 44.8623L99.9715 44.8623C100.585 44.8623 101.083 44.364 101.083 43.7495L101.083 38.4179C101.083 37.8034 100.585 37.3051 99.9715 37.3051L88.5574 37.3051C87.9269 37.3051 87.4293 37.8034 87.4293 38.4179Z" fill="white" stroke="#5A5A5A" stroke-width="0.5"/>
<path d="M93.6009 41.0758C93.6009 41.491 93.8995 41.8065 94.2479 41.8065C94.6129 41.8231 94.9115 41.491 94.9115 41.0758C94.9115 40.6606 94.6129 40.345 94.2645 40.345C93.8829 40.3616 93.5843 40.6772 93.6009 41.0758Z" fill="white" stroke="#5A5A5A" stroke-width="0.5"/>
<path d="M54.1343 38.7932L54.1343 51.2615C54.1343 52.1283 54.827 52.8218 55.6928 52.8218L74.4532 52.8218C75.319 52.8218 76.0117 52.1283 76.0117 51.2615L76.0117 38.7932C76.0117 37.9264 75.319 37.2329 74.4532 37.2329L55.6928 37.2329C54.8414 37.2329 54.1343 37.9264 54.1343 38.7932Z" fill="white" stroke="#5A5A5A" stroke-width="0.5"/>
<path d="M56.0823 43.5462L56.0823 45.4677C56.0823 47.996 58.1315 50.0475 60.6569 50.0475L69.4887 50.0475C72.0142 50.0475 74.0634 47.996 74.0634 45.4677L74.0634 43.5462C74.0634 41.0178 72.0142 38.9663 69.4887 38.9663L60.6569 38.9663C58.1315 38.9663 56.0823 41.0178 56.0823 43.5462Z" fill="white" stroke="#5A5A5A" stroke-width="0.5"/>
<path d="M64.1058 41.4079C64.1058 41.9585 64.5386 42.4047 65.0726 42.4047C65.6066 42.4047 66.0394 41.9585 66.0394 41.4079C66.0394 40.8574 65.6066 40.4111 65.0726 40.4111C64.5386 40.4111 64.1058 40.8574 64.1058 41.4079Z" fill="white" stroke="#5A5A5A" stroke-width="0.5"/>
<path d="M49.0509 38.8676L49.0509 111.84C49.0509 112.774 48.3041 113.522 47.3708 113.522L18.4019 113.522C17.4685 113.522 16.7218 112.774 16.7218 111.84L16.7218 38.8676C16.7218 37.9331 17.4685 37.1855 18.4019 37.1855L47.3708 37.1855C48.3042 37.1855 49.0509 37.9501 49.0509 38.8676Z" fill="white" stroke="#5A5A5A" stroke-width="0.5"/>
<path d="M36.8146 109.036L28.9403 109.036C24.3752 109.036 20.6926 105.332 20.6926 100.779L20.6926 43.3187C20.6926 42.1973 21.592 41.2969 22.7121 41.2969L43.0768 41.2969C44.1969 41.2969 45.0963 42.1973 45.0963 43.3187L45.0963 100.762C45.0793 105.332 41.3797 109.036 36.8146 109.036Z" fill="white" stroke="#5A5A5A" stroke-width="0.5"/>
<path d="M33.4552 48.11C34.3643 48.11 35.1012 47.3418 35.1012 46.3941C35.1012 45.4465 34.3643 44.6782 33.4552 44.6782C32.5461 44.6782 31.8091 45.4465 31.8091 46.3941C31.8091 47.3418 32.5461 48.11 33.4552 48.11Z" fill="white" stroke="#5A5A5A" stroke-width="0.5"/>
<path d="M93.6424 123.712L114.824 123.712L114.838 102.937L93.6559 102.95L93.6424 123.712Z" fill="white" stroke="#5A5A5A" stroke-width="0.5"/>
<path d="M104.247 107.996C107.244 107.996 109.663 110.377 109.663 113.324C109.663 116.271 107.244 118.653 104.234 118.653C101.236 118.653 98.7902 116.271 98.7902 113.324C98.8037 110.377 101.25 107.996 104.247 107.996Z" stroke="#5A5A5A" stroke-width="0.5"/>
<path d="M100.282 113.324C100.269 112.248 100.712 111.279 101.438 110.579C102.164 109.879 103.158 109.449 104.233 109.435M108.212 113.311C108.212 112.248 107.768 111.279 107.056 110.566C106.33 109.866 105.349 109.422 104.247 109.422L108.212 113.311ZM100.282 113.324C100.282 114.387 100.726 115.356 101.438 116.069C102.164 116.769 103.158 117.199 104.247 117.199L100.282 113.324ZM108.212 113.311C108.212 114.4 107.768 115.369 107.056 116.056L107.042 116.069C106.33 116.755 105.349 117.199 104.26 117.199L108.212 113.311Z" stroke="#5A5A5A" stroke-width="0.5"/>
<rect width="16.7219" height="148.267" transform="matrix(1.19249e-08 -1 -1 -1.19249e-08 442.572 38.3003)" fill="#5A5A5A"/>
<rect width="16.7219" height="96.9868" transform="matrix(1 0 0 -1 433.653 117.45)" fill="#5A5A5A"/>
<rect width="16.7219" height="71.3466" transform="matrix(-4.37114e-08 -1 -1 4.37114e-08 505 117.45)" fill="#5A5A5A"/>
<rect width="17" height="223" transform="matrix(1 0 0 -1 488 325)" fill="#5A5A5A"/>
<rect width="30.0993" height="91.4128" transform="matrix(-4.37114e-08 -1 -1 4.37114e-08 211.81 327.031)" fill="#5A5A5A"/>
<path d="M173.75 384.75L52.6156 384.68L52.5701 379.676L173.75 379.676L173.75 384.75Z" stroke="#5A5A5A" stroke-width="0.5" stroke-miterlimit="10"/>
<rect width="5.57395" height="82.4945" transform="matrix(1 0 0 -1 178.419 385)" fill="#5A5A5A"/>
<rect width="5.57395" height="82.4945" transform="matrix(1 0 0 -1 40.0552 385)" fill="#5A5A5A"/>
<rect width="5.57395" height="16.7219" transform="matrix(-4.37114e-08 -1 -1 4.37114e-08 59.0067 385)" fill="#5A5A5A"/>
<rect width="5.57395" height="13.3775" transform="matrix(-4.37114e-08 -1 -1 4.37114e-08 182.993 385)" fill="#5A5A5A"/>
<path d="M163.547 310.559L96.0714 310.629L96.0461 315.633L163.547 315.633L163.547 310.559Z" stroke="#5A5A5A" stroke-width="0.5" stroke-miterlimit="10"/>
<path d="M163.547 321.707L96.0714 321.777L96.0461 326.781L163.547 326.781L163.547 321.707Z" stroke="#5A5A5A" stroke-width="0.5" stroke-miterlimit="10"/>
<line x1="65.4405" y1="314.338" x2="95.5399" y2="296.501" stroke="#5A5A5A"/>
<path d="M467.75 384.75L346.616 384.68L346.57 379.676L467.75 379.676L467.75 384.75Z" stroke="#5A5A5A" stroke-width="0.5" stroke-miterlimit="10"/>
<rect width="5.57395" height="82.4945" transform="matrix(1 0 0 -1 472.419 385)" fill="#5A5A5A"/>
<rect width="5.57395" height="82.4945" transform="matrix(1 0 0 -1 334.055 385)" fill="#5A5A5A"/>
<rect width="5.57395" height="16.7219" transform="matrix(-4.37114e-08 -1 -1 4.37114e-08 353.007 385)" fill="#5A5A5A"/>
<rect width="5.57395" height="13.3775" transform="matrix(-4.37114e-08 -1 -1 4.37114e-08 476.993 385)" fill="#5A5A5A"/>
<path d="M457.547 310.559L390.071 310.629L390.046 315.633L457.547 315.633L457.547 310.559Z" stroke="#5A5A5A" stroke-width="0.5" stroke-miterlimit="10"/>
<path d="M457.547 321.707L390.071 321.777L390.046 326.781L457.547 326.781L457.547 321.707Z" stroke="#5A5A5A" stroke-width="0.5" stroke-miterlimit="10"/>
<line x1="359.441" y1="314.338" x2="389.54" y2="296.501" stroke="#5A5A5A"/>
<rect width="30.0993" height="91.4128" transform="matrix(-4.37114e-08 -1 -1 4.37114e-08 365.651 327.031)" fill="#5A5A5A"/>
<path d="M298.246 326.75L184.296 326.598L184.251 315.25L298.246 315.25L298.246 326.75Z" stroke="#5A5A5A" stroke-width="0.5" stroke-miterlimit="10"/>
<path d="M298.246 308.75L184.296 308.598L184.251 297.25L298.246 297.25L298.246 308.75Z" stroke="#5A5A5A" stroke-width="0.5" stroke-miterlimit="10"/>
<rect width="30.0993" height="70.2318" transform="matrix(-4.37114e-08 -1 -1 4.37114e-08 505 327.031)" fill="#5A5A5A"/>
<path d="M413.561 53.4199L414.757 53.4365L417.863 53.4199L425.553 53.4199L425.553 63.5068L413.561 63.5068C410.505 63.5068 408.013 61.2339 408.013 58.4467C408.013 55.6928 410.505 53.4199 413.561 53.4199Z" fill="white" stroke="#5A5A5A" stroke-width="0.5"/>
<path d="M413.627 54.5811L414.574 54.5811L422.231 54.5811L422.231 62.3618L414.574 62.3618L413.627 62.3452C411.219 62.3452 409.259 60.6199 409.259 58.4631C409.276 56.323 411.236 54.5811 413.627 54.5811Z" fill="white" stroke="#5A5A5A" stroke-width="0.5"/>
<path d="M431.997 65.3315L426.665 65.3315C426.051 65.3315 425.553 64.8338 425.553 64.22L425.553 52.7893C425.553 52.1754 426.051 51.6777 426.665 51.6777L431.997 51.6777C432.612 51.6777 433.11 52.1754 433.11 52.7893L433.11 64.2034C433.11 64.8338 432.612 65.3315 431.997 65.3315Z" fill="white" stroke="#5A5A5A" stroke-width="0.5"/>
<path d="M429.339 59.1597C428.924 59.1597 428.609 58.8611 428.609 58.5127C428.592 58.1477 428.924 57.8491 429.339 57.8491C429.755 57.8491 430.07 58.1477 430.07 58.4961C430.054 58.8777 429.738 59.1763 429.339 59.1597Z" fill="white" stroke="#5A5A5A" stroke-width="0.5"/>
<path d="M431.622 98.627L419.154 98.627C418.287 98.627 417.593 97.9343 417.593 97.0684L417.593 78.3081C417.593 77.4422 418.287 76.7495 419.154 76.7495L431.622 76.7495C432.489 76.7495 433.182 77.4422 433.182 78.3081L433.182 97.0684C433.182 97.9198 432.489 98.627 431.622 98.627Z" fill="white" stroke="#5A5A5A" stroke-width="0.5"/>
<path d="M426.869 96.6788L424.947 96.6788C422.419 96.6788 420.367 94.6296 420.367 92.1042L420.367 83.2724C420.367 80.747 422.419 78.6978 424.947 78.6978L426.869 78.6978C429.397 78.6978 431.448 80.747 431.448 83.2724L431.448 92.1042C431.448 94.6296 429.397 96.6788 426.869 96.6788Z" fill="white" stroke="#5A5A5A" stroke-width="0.5"/>
<path d="M429.007 88.6553C428.456 88.6553 428.01 88.2225 428.01 87.6885C428.01 87.1545 428.456 86.7217 429.007 86.7217C429.557 86.7217 430.004 87.1545 430.004 87.6885C430.004 88.2225 429.557 88.6553 429.007 88.6553Z" fill="white" stroke="#5A5A5A" stroke-width="0.5"/>
<path d="M174.157 119.43L219.966 119.402L219.981 117.701L174.157 117.701L174.157 119.43Z" stroke="#5A5A5A" stroke-width="0.5" stroke-miterlimit="10"/>
<path d="M250.459 119.43L296.267 119.402L296.282 117.701L250.459 117.701L250.459 119.43Z" stroke="#5A5A5A" stroke-width="0.5" stroke-miterlimit="10"/>
<path d="M212.308 121.66L258.117 121.632L258.132 119.93L212.308 119.93L212.308 121.66Z" stroke="#5A5A5A" stroke-width="0.5" stroke-miterlimit="10"/>
<rect x="409.354" y="117.121" width="2.01963" height="6.0589" fill="#5A5A5A"/>
<rect x="409.353" y="128.229" width="2.01963" height="11.108" fill="#5A5A5A"/>
<rect x="409.353" y="145.396" width="2.01963" height="11.108" fill="#5A5A5A"/>
<rect x="409.353" y="162.563" width="2.01963" height="11.108" fill="#5A5A5A"/>
<rect x="409.353" y="179.729" width="2.01963" height="11.108" fill="#5A5A5A"/>
<rect x="409.353" y="196.896" width="2.01963" height="11.108" fill="#5A5A5A"/>
<rect x="409.353" y="217.093" width="2.01963" height="11.108" fill="#5A5A5A"/>
<rect x="409.353" y="235.584" width="2.01963" height="11.108" fill="#5A5A5A"/>
<rect x="409.353" y="253.421" width="2.01963" height="11.108" fill="#5A5A5A"/>
<rect x="409.353" y="271.258" width="2.01963" height="11.108" fill="#5A5A5A"/>
<rect x="409.128" y="289.128" width="2.22958" height="7.80353" fill="#5A5A5A"/>
</svg>
