<svg width="453" height="345" viewBox="0 0 453 345" fill="none" xmlns="http://www.w3.org/2000/svg">
<rect width="72" height="382" transform="matrix(1.19249e-08 -1 -1 -1.19249e-08 397 106)" fill="#FFF8BA"/>
<rect width="87" height="70" transform="matrix(1.19249e-08 -1 -1 -1.19249e-08 397 106)" fill="#FFC79F"/>
<rect width="166" height="426" transform="matrix(1.19249e-08 -1 -1 -1.19249e-08 441 266)" fill="#FFF8BA"/>
<path d="M437.713 148L415 148L415 170.104L437.713 170.104L437.713 148Z" fill="white" stroke="#5A5A5A" stroke-width="0.5"/>
<path d="M416.841 148.842L434.518 148.842C435.189 148.842 435.546 149.199 435.546 149.898L435.546 168.206C435.546 168.92 435.203 169.262 434.518 169.262L416.841 169.262C416.157 169.276 415.814 168.92 415.814 168.22L415.814 149.912C415.8 149.199 416.157 148.842 416.841 148.842Z" fill="white" stroke="#5A5A5A" stroke-width="0.5"/>
<path d="M418.467 154.75C418.482 156.377 419.766 157.704 421.349 157.704C422.947 157.704 424.231 156.377 424.231 154.75C424.231 153.109 422.947 151.796 421.349 151.796C419.751 151.796 418.467 153.109 418.467 154.75Z" stroke="#5A5A5A" stroke-width="0.5"/>
<path d="M418.495 163.497C418.509 165.124 419.793 166.451 421.377 166.451C422.975 166.451 424.259 165.124 424.259 163.497C424.259 161.856 422.975 160.543 421.377 160.543C419.779 160.529 418.48 161.856 418.495 163.497Z" stroke="#5A5A5A" stroke-width="0.5"/>
<path d="M426.686 163.497C426.686 165.138 427.97 166.451 429.568 166.451C431.165 166.451 432.449 165.124 432.449 163.497C432.435 161.87 431.151 160.543 429.568 160.543C427.984 160.543 426.686 161.87 426.686 163.497Z" stroke="#5A5A5A" stroke-width="0.5"/>
<path d="M426.686 154.75C426.686 156.391 427.97 157.704 429.568 157.704C431.165 157.704 432.449 156.377 432.449 154.75C432.435 153.123 431.151 151.796 429.568 151.796C427.984 151.796 426.686 153.123 426.686 154.75Z" stroke="#5A5A5A" stroke-width="0.5"/>
<path d="M420.535 107.014L420.535 128.903L399 128.903L399 107L420.535 107.014Z" fill="white" stroke="#5A5A5A" stroke-width="0.5"/>
<path d="M418.897 113.017L418.897 125.118C418.897 125.793 418.567 126.123 417.878 126.123L401.878 126.123C401.217 126.123 400.873 125.793 400.859 125.132L400.873 113.017C400.859 112.356 401.203 112.026 401.878 112.026L417.878 112.026C418.553 111.998 418.897 112.342 418.897 113.017Z" fill="white" stroke="#5A5A5A" stroke-width="0.5"/>
<path d="M409.878 108.694C409.038 108.707 408.363 109.341 408.363 110.139L408.955 116.486L408.969 116.499C408.969 116.981 409.368 117.367 409.878 117.367C410.387 117.367 410.787 116.981 410.8 116.486L411.393 110.139C411.393 109.354 410.718 108.707 409.878 108.694Z" stroke="#5A5A5A" stroke-width="0.5"/>
<mask id="path-13-inside-1_33_7463" fill="white">
<path fill-rule="evenodd" clip-rule="evenodd" d="M408.625 109.314L408.955 112.769C408.969 113.251 409.368 113.65 409.892 113.637C410.401 113.637 410.787 113.251 410.8 112.769L411.131 109.314"/>
</mask>
<path fill-rule="evenodd" clip-rule="evenodd" d="M408.625 109.314L408.955 112.769C408.969 113.251 409.368 113.65 409.892 113.637C410.401 113.637 410.787 113.251 410.8 112.769L411.131 109.314" fill="white"/>
<path d="M408.955 112.769L409.455 112.755L409.455 112.738L409.453 112.722L408.955 112.769ZM409.892 113.637L409.892 113.136L409.878 113.137L409.892 113.637ZM410.8 112.769L410.303 112.722L410.301 112.738L410.301 112.755L410.8 112.769ZM408.127 109.361L408.458 112.817L409.453 112.722L409.123 109.266L408.127 109.361ZM408.455 112.783C408.477 113.54 409.105 114.157 409.905 114.136L409.878 113.137C409.632 113.143 409.461 112.962 409.455 112.755L408.455 112.783ZM409.892 114.137C410.67 114.137 411.279 113.538 411.3 112.783L410.301 112.755C410.295 112.964 410.132 113.137 409.892 113.137L409.892 114.137ZM411.298 112.817L411.629 109.361L410.633 109.266L410.303 112.722L411.298 112.817Z" fill="#5A5A5A" mask="url(#path-13-inside-1_33_7463)"/>
<circle cx="227.781" cy="173.781" r="35.7805" fill="#5A5A5A"/>
<path d="M200.18 172.034V170.054H208.73V172.034L203.69 182.654H201.44L206.39 172.214V172.034H200.18ZM209.628 182.654V180.674L213.93 177.632C214.866 176.96 215.538 176.336 215.946 175.76C216.354 175.184 216.558 174.572 216.558 173.924C216.558 173.24 216.348 172.694 215.928 172.286C215.508 171.878 214.938 171.674 214.218 171.674C213.33 171.674 212.664 172.034 212.22 172.754C212.028 173.066 211.884 173.426 211.788 173.834H209.628C209.736 173.066 209.97 172.376 210.33 171.764C211.182 170.384 212.478 169.694 214.218 169.694C215.55 169.694 216.63 170.09 217.458 170.882C218.298 171.662 218.718 172.646 218.718 173.834C218.718 174.866 218.454 175.796 217.926 176.624C217.398 177.44 216.552 178.25 215.388 179.054L213.588 180.314L212.778 180.674V180.764L213.858 180.674H218.718V182.654H209.628ZM220.161 181.664C220.161 181.304 220.275 181.004 220.503 180.764C220.743 180.524 221.037 180.404 221.385 180.404C221.781 180.404 222.093 180.548 222.321 180.836C222.561 181.124 222.681 181.55 222.681 182.114C222.681 183.038 222.459 183.746 222.015 184.238C221.583 184.742 220.995 184.994 220.251 184.994V184.094C220.611 184.094 220.893 183.992 221.097 183.788C221.313 183.596 221.421 183.338 221.421 183.014V182.906C221.409 182.894 221.403 182.87 221.403 182.834V182.78L221.295 182.816C221.259 182.828 221.181 182.834 221.061 182.834C220.821 182.834 220.611 182.726 220.431 182.51C220.251 182.294 220.161 182.012 220.161 181.664ZM224.116 179.144H226.276C226.372 179.516 226.534 179.834 226.762 180.098C227.29 180.722 228.058 181.034 229.066 181.034C229.87 181.034 230.506 180.818 230.974 180.386C231.442 179.954 231.676 179.39 231.676 178.694C231.676 177.962 231.442 177.374 230.974 176.93C230.506 176.486 229.87 176.264 229.066 176.264C228.322 176.264 227.692 176.462 227.176 176.858C226.972 177.014 226.792 177.206 226.636 177.434H224.656L225.196 170.054H232.846V172.034H226.906L226.636 175.274H226.726C226.918 175.082 227.14 174.92 227.392 174.788C227.956 174.452 228.634 174.284 229.426 174.284C230.686 174.284 231.736 174.704 232.576 175.544C233.416 176.384 233.836 177.434 233.836 178.694C233.836 179.93 233.392 180.962 232.504 181.79C231.628 182.606 230.482 183.014 229.066 183.014C227.218 183.014 225.844 182.372 224.944 181.088C224.56 180.524 224.284 179.876 224.116 179.144ZM235.101 178.514C235.101 177.938 235.227 177.338 235.479 176.714C235.743 176.078 235.995 175.58 236.235 175.22C236.487 174.848 236.829 174.386 237.261 173.834L240.141 170.054H242.571L239.853 173.6L239.061 174.284V174.374L239.421 174.248C239.781 174.152 240.171 174.104 240.591 174.104C241.767 174.104 242.763 174.53 243.579 175.382C244.407 176.222 244.821 177.266 244.821 178.514C244.821 179.786 244.365 180.854 243.453 181.718C242.541 182.582 241.377 183.014 239.961 183.014C238.545 183.014 237.381 182.582 236.469 181.718C235.557 180.854 235.101 179.786 235.101 178.514ZM237.999 176.642C237.507 177.122 237.261 177.746 237.261 178.514C237.261 179.282 237.507 179.912 237.999 180.404C238.491 180.884 239.145 181.124 239.961 181.124C240.777 181.124 241.431 180.884 241.923 180.404C242.415 179.912 242.661 179.282 242.661 178.514C242.661 177.746 242.415 177.122 241.923 176.642C241.431 176.15 240.777 175.904 239.961 175.904C239.145 175.904 238.491 176.15 237.999 176.642Z" fill="white"/>
<path d="M258.21 235.04V233.5L261.5 227.2H263.25L259.96 233.5H263.18V231.12H263.25H264.79V233.5H266.19V235.04H264.79V237H263.18V235.04H258.21ZM266.823 235.04V233.5L270.113 227.2H271.863L268.573 233.5H271.793V231.12H271.863H273.403V233.5H274.803V235.04H273.403V237H271.793V235.04H266.823ZM275.363 236.23C275.363 235.95 275.451 235.717 275.629 235.53C275.815 235.343 276.044 235.25 276.315 235.25C276.623 235.25 276.865 235.362 277.043 235.586C277.229 235.81 277.323 236.141 277.323 236.58C277.323 237.299 277.15 237.849 276.805 238.232C276.469 238.624 276.011 238.82 275.433 238.82V238.12C275.713 238.12 275.932 238.041 276.091 237.882C276.259 237.733 276.343 237.532 276.343 237.28V237.196C276.333 237.187 276.329 237.168 276.329 237.14V237.098L276.245 237.126C276.217 237.135 276.156 237.14 276.063 237.14C275.876 237.14 275.713 237.056 275.573 236.888C275.433 236.72 275.363 236.501 275.363 236.23ZM278.229 230.42V228.6L280.049 227.2H281.519V237H279.909V229.16L278.229 230.42ZM282.92 237V235.46L286.266 233.094C286.994 232.571 287.517 232.086 287.834 231.638C288.151 231.19 288.31 230.714 288.31 230.21C288.31 229.678 288.147 229.253 287.82 228.936C287.493 228.619 287.05 228.46 286.49 228.46C285.799 228.46 285.281 228.74 284.936 229.3C284.787 229.543 284.675 229.823 284.6 230.14H282.92C283.004 229.543 283.186 229.006 283.466 228.53C284.129 227.457 285.137 226.92 286.49 226.92C287.526 226.92 288.366 227.228 289.01 227.844C289.663 228.451 289.99 229.216 289.99 230.14C289.99 230.943 289.785 231.666 289.374 232.31C288.963 232.945 288.305 233.575 287.4 234.2L286 235.18L285.37 235.46V235.53L286.21 235.46H289.99V237H282.92Z" fill="#333333"/>
<path d="M211.42 321.2H213.1C213.165 321.489 213.291 321.746 213.478 321.97C213.898 322.483 214.495 322.74 215.27 322.74C215.914 322.74 216.423 322.581 216.796 322.264C217.179 321.937 217.37 321.536 217.37 321.06C217.37 320.519 217.197 320.094 216.852 319.786C216.516 319.469 216.035 319.31 215.41 319.31H213.03V317.91L215.97 315.81V315.74H211.91V314.2H218.35V315.726L215.83 317.56L215.13 317.84V317.91L215.354 317.882C215.662 317.854 215.844 317.84 215.9 317.84C216.777 317.84 217.51 318.143 218.098 318.75C218.686 319.357 218.98 320.127 218.98 321.06C218.98 321.956 218.635 322.717 217.944 323.342C217.253 323.967 216.362 324.28 215.27 324.28C213.823 324.28 212.755 323.767 212.064 322.74C211.765 322.301 211.551 321.788 211.42 321.2ZM220.037 323.23C220.037 322.95 220.125 322.717 220.303 322.53C220.489 322.343 220.718 322.25 220.989 322.25C221.297 322.25 221.539 322.362 221.717 322.586C221.903 322.81 221.997 323.141 221.997 323.58C221.997 324.299 221.824 324.849 221.479 325.232C221.143 325.624 220.685 325.82 220.107 325.82V325.12C220.387 325.12 220.606 325.041 220.765 324.882C220.933 324.733 221.017 324.532 221.017 324.28V324.196C221.007 324.187 221.003 324.168 221.003 324.14V324.098L220.919 324.126C220.891 324.135 220.83 324.14 220.737 324.14C220.55 324.14 220.387 324.056 220.247 323.888C220.107 323.72 220.037 323.501 220.037 323.23ZM223.043 320.78C223.043 320.332 223.141 319.865 223.337 319.38C223.542 318.885 223.738 318.498 223.925 318.218C224.121 317.929 224.387 317.569 224.723 317.14L226.963 314.2H228.853L226.739 316.958L226.123 317.49V317.56L226.403 317.462C226.683 317.387 226.986 317.35 227.313 317.35C228.227 317.35 229.002 317.681 229.637 318.344C230.281 318.997 230.603 319.809 230.603 320.78C230.603 321.769 230.248 322.6 229.539 323.272C228.829 323.944 227.924 324.28 226.823 324.28C225.721 324.28 224.816 323.944 224.107 323.272C223.397 322.6 223.043 321.769 223.043 320.78ZM225.297 319.324C224.914 319.697 224.723 320.183 224.723 320.78C224.723 321.377 224.914 321.867 225.297 322.25C225.679 322.623 226.188 322.81 226.823 322.81C227.457 322.81 227.966 322.623 228.349 322.25C228.731 321.867 228.923 321.377 228.923 320.78C228.923 320.183 228.731 319.697 228.349 319.324C227.966 318.941 227.457 318.75 226.823 318.75C226.188 318.75 225.679 318.941 225.297 319.324ZM231.656 320.78C231.656 320.332 231.754 319.865 231.95 319.38C232.155 318.885 232.351 318.498 232.538 318.218C232.734 317.929 233 317.569 233.336 317.14L235.576 314.2H237.466L235.352 316.958L234.736 317.49V317.56L235.016 317.462C235.296 317.387 235.599 317.35 235.926 317.35C236.841 317.35 237.615 317.681 238.25 318.344C238.894 318.997 239.216 319.809 239.216 320.78C239.216 321.769 238.861 322.6 238.152 323.272C237.443 323.944 236.537 324.28 235.436 324.28C234.335 324.28 233.429 323.944 232.72 323.272C232.011 322.6 231.656 321.769 231.656 320.78ZM233.91 319.324C233.527 319.697 233.336 320.183 233.336 320.78C233.336 321.377 233.527 321.867 233.91 322.25C234.293 322.623 234.801 322.81 235.436 322.81C236.071 322.81 236.579 322.623 236.962 322.25C237.345 321.867 237.536 321.377 237.536 320.78C237.536 320.183 237.345 319.697 236.962 319.324C236.579 318.941 236.071 318.75 235.436 318.75C234.801 318.75 234.293 318.941 233.91 319.324Z" fill="#333333"/>
<path d="M387.56 229.34C387.56 228.491 387.887 227.814 388.54 227.31C388.82 227.114 389.147 226.965 389.52 226.862V226.778C389.231 226.666 388.974 226.512 388.75 226.316C388.237 225.877 387.98 225.299 387.98 224.58C387.98 223.843 388.293 223.217 388.918 222.704C389.553 222.181 390.407 221.92 391.48 221.92C392.553 221.92 393.403 222.181 394.028 222.704C394.663 223.217 394.98 223.843 394.98 224.58C394.98 225.28 394.723 225.859 394.21 226.316C393.967 226.512 393.711 226.666 393.44 226.778V226.862C393.795 226.955 394.121 227.109 394.42 227.324C395.073 227.828 395.4 228.5 395.4 229.34C395.4 230.152 395.045 230.847 394.336 231.426C393.636 231.995 392.684 232.28 391.48 232.28C390.276 232.28 389.319 231.995 388.61 231.426C387.91 230.847 387.56 230.152 387.56 229.34ZM389.66 224.72C389.66 225.131 389.819 225.467 390.136 225.728C390.453 225.989 390.901 226.12 391.48 226.12C392.059 226.12 392.507 225.989 392.824 225.728C393.141 225.467 393.3 225.131 393.3 224.72C393.3 224.347 393.137 224.034 392.81 223.782C392.493 223.521 392.049 223.39 391.48 223.39C390.911 223.39 390.463 223.521 390.136 223.782C389.819 224.034 389.66 224.347 389.66 224.72ZM389.828 228.066C389.436 228.374 389.24 228.752 389.24 229.2C389.24 229.648 389.436 230.031 389.828 230.348C390.229 230.656 390.78 230.81 391.48 230.81C392.18 230.81 392.726 230.656 393.118 230.348C393.519 230.031 393.72 229.648 393.72 229.2C393.72 228.752 393.519 228.374 393.118 228.066C392.726 227.749 392.18 227.59 391.48 227.59C390.78 227.59 390.229 227.749 389.828 228.066ZM396.515 231.23C396.515 230.95 396.604 230.717 396.781 230.53C396.968 230.343 397.196 230.25 397.467 230.25C397.775 230.25 398.018 230.362 398.195 230.586C398.382 230.81 398.475 231.141 398.475 231.58C398.475 232.299 398.302 232.849 397.957 233.232C397.621 233.624 397.164 233.82 396.585 233.82V233.12C396.865 233.12 397.084 233.041 397.243 232.882C397.411 232.733 397.495 232.532 397.495 232.28V232.196C397.486 232.187 397.481 232.168 397.481 232.14V232.098L397.397 232.126C397.369 232.135 397.308 232.14 397.215 232.14C397.028 232.14 396.865 232.056 396.725 231.888C396.585 231.72 396.515 231.501 396.515 231.23ZM399.591 225.42C399.591 224.431 399.946 223.6 400.655 222.928C401.365 222.256 402.27 221.92 403.371 221.92C404.473 221.92 405.378 222.256 406.087 222.928C406.797 223.6 407.151 224.431 407.151 225.42C407.151 226.307 406.783 227.263 406.045 228.29C405.971 228.393 405.868 228.533 405.737 228.71C405.607 228.878 405.518 228.995 405.471 229.06L403.231 232H401.341L403.455 229.242L404.071 228.71V228.64C404.053 228.649 403.959 228.687 403.791 228.752C403.549 228.817 403.245 228.85 402.881 228.85C401.967 228.85 401.187 228.523 400.543 227.87C399.909 227.207 399.591 226.391 399.591 225.42ZM401.845 223.964C401.463 224.337 401.271 224.823 401.271 225.42C401.271 226.017 401.463 226.507 401.845 226.89C402.228 227.263 402.737 227.45 403.371 227.45C404.006 227.45 404.515 227.263 404.897 226.89C405.28 226.507 405.471 226.017 405.471 225.42C405.471 224.823 405.28 224.337 404.897 223.964C404.515 223.581 404.006 223.39 403.371 223.39C402.737 223.39 402.228 223.581 401.845 223.964ZM408.205 229.27H409.885C409.959 229.559 410.085 229.807 410.263 230.012C410.673 230.497 411.271 230.74 412.055 230.74C412.68 230.74 413.175 230.572 413.539 230.236C413.903 229.9 414.085 229.461 414.085 228.92C414.085 228.351 413.903 227.893 413.539 227.548C413.175 227.203 412.68 227.03 412.055 227.03C411.476 227.03 410.986 227.184 410.585 227.492C410.426 227.613 410.286 227.763 410.165 227.94H408.625L409.045 222.2H414.995V223.74H410.375L410.165 226.26H410.235C410.384 226.111 410.557 225.985 410.753 225.882C411.191 225.621 411.719 225.49 412.335 225.49C413.315 225.49 414.131 225.817 414.785 226.47C415.438 227.123 415.765 227.94 415.765 228.92C415.765 229.881 415.419 230.684 414.729 231.328C414.047 231.963 413.156 232.28 412.055 232.28C410.617 232.28 409.549 231.781 408.849 230.782C408.55 230.343 408.335 229.839 408.205 229.27Z" fill="#333333"/>
<path d="M334.42 69.2H336.1C336.165 69.4893 336.291 69.746 336.478 69.97C336.898 70.4833 337.495 70.74 338.27 70.74C338.914 70.74 339.423 70.5813 339.796 70.264C340.179 69.9373 340.37 69.536 340.37 69.06C340.37 68.5187 340.197 68.094 339.852 67.786C339.516 67.4687 339.035 67.31 338.41 67.31H336.03V65.91L338.97 63.81V63.74H334.91V62.2H341.35V63.726L338.83 65.56L338.13 65.84V65.91L338.354 65.882C338.662 65.854 338.844 65.84 338.9 65.84C339.777 65.84 340.51 66.1433 341.098 66.75C341.686 67.3567 341.98 68.1267 341.98 69.06C341.98 69.956 341.635 70.7167 340.944 71.342C340.253 71.9673 339.362 72.28 338.27 72.28C336.823 72.28 335.755 71.7667 335.064 70.74C334.765 70.3013 334.551 69.788 334.42 69.2ZM343.037 71.23C343.037 70.95 343.125 70.7167 343.303 70.53C343.489 70.3433 343.718 70.25 343.989 70.25C344.297 70.25 344.539 70.362 344.717 70.586C344.903 70.81 344.997 71.1413 344.997 71.58C344.997 72.2987 344.824 72.8493 344.479 73.232C344.143 73.624 343.685 73.82 343.107 73.82V73.12C343.387 73.12 343.606 73.0407 343.765 72.882C343.933 72.7327 344.017 72.532 344.017 72.28V72.196C344.007 72.1867 344.003 72.168 344.003 72.14V72.098L343.919 72.126C343.891 72.1353 343.83 72.14 343.737 72.14C343.55 72.14 343.387 72.056 343.247 71.888C343.107 71.72 343.037 71.5007 343.037 71.23ZM345.973 72V70.46L349.319 68.094C350.047 67.5713 350.569 67.086 350.887 66.638C351.204 66.19 351.363 65.714 351.363 65.21C351.363 64.678 351.199 64.2533 350.873 63.936C350.546 63.6187 350.103 63.46 349.543 63.46C348.852 63.46 348.334 63.74 347.989 64.3C347.839 64.5427 347.727 64.8227 347.653 65.14H345.973C346.057 64.5427 346.239 64.006 346.519 63.53C347.181 62.4567 348.189 61.92 349.543 61.92C350.579 61.92 351.419 62.228 352.063 62.844C352.716 63.4507 353.043 64.216 353.043 65.14C353.043 65.9427 352.837 66.666 352.427 67.31C352.016 67.9447 351.358 68.5747 350.453 69.2L349.053 70.18L348.423 70.46V70.53L349.263 70.46H353.043V72H345.973ZM353.815 70.04V68.5L357.105 62.2H358.855L355.565 68.5H358.785V66.12H358.855H360.395V68.5H361.795V70.04H360.395V72H358.785V70.04H353.815Z" fill="#333333"/>
<path d="M194.35 65.42V63.6L196.17 62.2H197.64V72H196.03V64.16L194.35 65.42ZM198.971 65.42V63.6L200.791 62.2H202.261V72H200.651V64.16L198.971 65.42ZM203.802 71.23C203.802 70.95 203.891 70.7167 204.068 70.53C204.255 70.3433 204.484 70.25 204.754 70.25C205.062 70.25 205.305 70.362 205.482 70.586C205.669 70.81 205.762 71.1413 205.762 71.58C205.762 72.2987 205.59 72.8493 205.244 73.232C204.908 73.624 204.451 73.82 203.872 73.82V73.12C204.152 73.12 204.372 73.0407 204.53 72.882C204.698 72.7327 204.782 72.532 204.782 72.28V72.196C204.773 72.1867 204.768 72.168 204.768 72.14V72.098L204.684 72.126C204.656 72.1353 204.596 72.14 204.502 72.14C204.316 72.14 204.152 72.056 204.012 71.888C203.872 71.72 203.802 71.5007 203.802 71.23ZM208.278 70.824C207.392 69.8533 206.948 68.612 206.948 67.1C206.948 65.588 207.392 64.3467 208.278 63.376C209.165 62.4053 210.238 61.92 211.498 61.92C212.758 61.92 213.832 62.4053 214.718 63.376C215.605 64.3467 216.048 65.588 216.048 67.1C216.048 68.612 215.605 69.8533 214.718 70.824C213.832 71.7947 212.758 72.28 211.498 72.28C210.238 72.28 209.165 71.7947 208.278 70.824ZM209.426 64.412C208.894 65.0467 208.628 65.9427 208.628 67.1C208.628 68.2573 208.894 69.1533 209.426 69.788C209.968 70.4227 210.658 70.74 211.498 70.74C212.338 70.74 213.024 70.4227 213.556 69.788C214.098 69.1533 214.368 68.2573 214.368 67.1C214.368 65.9427 214.098 65.0467 213.556 64.412C213.024 63.7773 212.338 63.46 211.498 63.46C210.658 63.46 209.968 63.7773 209.426 64.412ZM216.892 70.04V68.5L220.182 62.2H221.932L218.642 68.5H221.862V66.12H221.932H223.472V68.5H224.872V70.04H223.472V72H221.862V70.04H216.892Z" fill="#333333"/>
<rect width="78" height="88" transform="matrix(1.19249e-08 -1 -1 -1.19249e-08 103 110)" fill="#FFC79F"/>
<rect width="27" height="38" transform="matrix(-4.37114e-08 -1 -1 4.37114e-08 52 293)" fill="#5A5A5A"/>
<path d="M151.246 292.75L37.2959 292.613L37.2511 282.45L151.246 282.45L151.246 292.75Z" stroke="#5A5A5A" stroke-width="0.5" stroke-miterlimit="10"/>
<path d="M415.246 292.75L301.296 292.614L301.251 282.45L415.246 282.45L415.246 292.75Z" stroke="#5A5A5A" stroke-width="0.5" stroke-miterlimit="10"/>
<path d="M151.246 276.55L37.2959 276.413L37.2511 266.25L151.246 266.25L151.246 276.55Z" stroke="#5A5A5A" stroke-width="0.5" stroke-miterlimit="10"/>
<path d="M415.246 276.55L301.296 276.414L301.251 266.25L415.246 266.25L415.246 276.55Z" stroke="#5A5A5A" stroke-width="0.5" stroke-miterlimit="10"/>
<path d="M58.56 70.27H60.24C60.3147 70.5593 60.4407 70.8067 60.618 71.012C61.0287 71.4973 61.626 71.74 62.41 71.74C63.0353 71.74 63.53 71.572 63.894 71.236C64.258 70.9 64.44 70.4613 64.44 69.92C64.44 69.3507 64.258 68.8933 63.894 68.548C63.53 68.2027 63.0353 68.03 62.41 68.03C61.8313 68.03 61.3413 68.184 60.94 68.492C60.7813 68.6133 60.6413 68.7627 60.52 68.94H58.98L59.4 63.2H65.35V64.74H60.73L60.52 67.26H60.59C60.7393 67.1107 60.912 66.9847 61.108 66.882C61.5467 66.6207 62.074 66.49 62.69 66.49C63.67 66.49 64.4867 66.8167 65.14 67.47C65.7933 68.1233 66.12 68.94 66.12 69.92C66.12 70.8813 65.7747 71.684 65.084 72.328C64.4027 72.9627 63.5113 73.28 62.41 73.28C60.9727 73.28 59.904 72.7807 59.204 71.782C58.9053 71.3433 58.6907 70.8393 58.56 70.27ZM67.1733 72.23C67.1733 71.95 67.2619 71.7167 67.4393 71.53C67.6259 71.3433 67.8546 71.25 68.1253 71.25C68.4333 71.25 68.6759 71.362 68.8533 71.586C69.0399 71.81 69.1333 72.1413 69.1333 72.58C69.1333 73.2987 68.9606 73.8493 68.6153 74.232C68.2793 74.624 67.8219 74.82 67.2433 74.82V74.12C67.5233 74.12 67.7426 74.0407 67.9013 73.882C68.0693 73.7327 68.1533 73.532 68.1533 73.28V73.196C68.1439 73.1867 68.1393 73.168 68.1393 73.14V73.098L68.0553 73.126C68.0273 73.1353 67.9666 73.14 67.8733 73.14C67.6866 73.14 67.5233 73.056 67.3833 72.888C67.2433 72.72 67.1733 72.5007 67.1733 72.23ZM70.1095 73V71.46L73.4555 69.094C74.1835 68.5713 74.7061 68.086 75.0235 67.638C75.3408 67.19 75.4995 66.714 75.4995 66.21C75.4995 65.678 75.3361 65.2533 75.0095 64.936C74.6828 64.6187 74.2395 64.46 73.6795 64.46C72.9888 64.46 72.4708 64.74 72.1255 65.3C71.9761 65.5427 71.8641 65.8227 71.7895 66.14H70.1095C70.1935 65.5427 70.3755 65.006 70.6555 64.53C71.3181 63.4567 72.3261 62.92 73.6795 62.92C74.7155 62.92 75.5555 63.228 76.1995 63.844C76.8528 64.4507 77.1795 65.216 77.1795 66.14C77.1795 66.9427 76.9741 67.666 76.5635 68.31C76.1528 68.9447 75.4948 69.5747 74.5895 70.2L73.1895 71.18L72.5595 71.46V71.53L73.3995 71.46H77.1795V73H70.1095ZM78.0922 66.42V64.6L79.9122 63.2H81.3822V73H79.7722V65.16L78.0922 66.42Z" fill="#333333"/>
<rect width="15" height="271" transform="matrix(-1 8.74228e-08 8.74228e-08 1 15 22)" fill="#5A5A5A"/>
<rect width="7" height="95" transform="matrix(-4.37114e-08 1 1 4.37114e-08 13 110)" fill="#5A5A5A"/>
<rect width="7" height="56.6572" transform="matrix(0.000688229 1 1 -0.000688229 103.34 100.006)" fill="#5A5A5A"/>
<rect width="7" height="178.315" transform="matrix(0.000688229 1 1 -0.000688229 263.34 100.006)" fill="#5A5A5A"/>
<rect width="7" height="36" transform="matrix(-1 -8.74228e-08 -8.74228e-08 1 110 30)" fill="#5A5A5A"/>
<rect width="7" height="28" transform="matrix(-1 -8.74228e-08 -8.74228e-08 1 327 21)" fill="#5A5A5A"/>
<rect width="7" height="26" transform="matrix(-1 -8.74228e-08 -8.74228e-08 1 110 91)" fill="#5A5A5A"/>
<line x1="120.454" y1="67.2106" x2="107.454" y2="95.2106" stroke="#5A5A5A"/>
<line x1="322.454" y1="46.2106" x2="309.453" y2="74.2106" stroke="#5A5A5A"/>
<line x1="263.274" y1="0.418024" x2="231.274" y2="21.418" stroke="#5A5A5A"/>
<rect width="7" height="26" transform="matrix(-1 -8.74228e-08 -8.74228e-08 1 327 77)" fill="#5A5A5A"/>
<rect width="15" height="232" transform="matrix(1.19249e-08 -1 -1 -1.19249e-08 232 34)" fill="#5A5A5A"/>
<path d="M89.1118 50.6434L89.0969 49.5707L89.1118 46.7846L89.1118 39.8864L80.0636 39.8864L80.0636 50.6434C80.0636 53.3848 82.1024 55.6196 84.6026 55.6196C87.073 55.6196 89.1118 53.3848 89.1118 50.6434Z" fill="white" stroke="#5A5A5A" stroke-width="0.5"/>
<path d="M88.0702 50.5838L88.0702 49.7346L88.0702 42.8662L81.0906 42.8662L81.0906 49.7346L81.1055 50.5838C81.1055 52.7441 82.6532 54.5022 84.5878 54.5022C86.5076 54.4873 88.0702 52.7292 88.0702 50.5838Z" fill="white" stroke="#5A5A5A" stroke-width="0.5"/>
<path d="M78.4266 34.1057L78.4266 38.8883C78.4266 39.4395 78.8731 39.8865 79.4237 39.8865L89.6774 39.8865C90.228 39.8865 90.6744 39.4395 90.6744 38.8883L90.6744 34.1057C90.6744 33.5544 90.228 33.1075 89.6774 33.1075L79.4386 33.1075C78.8731 33.1075 78.4266 33.5544 78.4266 34.1057Z" fill="white" stroke="#5A5A5A" stroke-width="0.5"/>
<path d="M83.9628 36.4895C83.9628 36.8619 84.2307 37.145 84.5432 37.145C84.8706 37.1599 85.1384 36.8619 85.1384 36.4895C85.1384 36.117 84.8706 35.834 84.558 35.834C84.2158 35.8489 83.9479 36.1319 83.9628 36.4895Z" fill="white" stroke="#5A5A5A" stroke-width="0.5"/>
<path d="M48.56 34.4421L48.56 45.6265C48.56 46.4041 49.1813 47.0262 49.958 47.0262L66.7866 47.0262C67.5633 47.0262 68.1847 46.4041 68.1847 45.6265L68.1847 34.4421C68.1847 33.6645 67.5633 33.0425 66.7866 33.0425L49.958 33.0425C49.1943 33.0425 48.56 33.6645 48.56 34.4421Z" fill="white" stroke="#5A5A5A" stroke-width="0.5"/>
<path d="M50.3074 38.7059L50.3074 40.4296C50.3074 42.6975 52.1456 44.5378 54.4109 44.5378L62.3333 44.5378C64.5987 44.5378 66.4369 42.6975 66.4369 40.4296L66.4369 38.7059C66.4369 36.4379 64.5987 34.5977 62.3333 34.5977L54.4109 34.5977C52.1456 34.5977 50.3074 36.4379 50.3074 38.7059Z" fill="white" stroke="#5A5A5A" stroke-width="0.5"/>
<path d="M57.5047 36.7877C57.5047 37.2815 57.893 37.6819 58.372 37.6819C58.851 37.6819 59.2393 37.2815 59.2393 36.7877C59.2393 36.2939 58.851 35.8936 58.372 35.8936C57.893 35.8936 57.5047 36.2939 57.5047 36.7877Z" fill="white" stroke="#5A5A5A" stroke-width="0.5"/>
<path d="M89.1118 50.6434L89.0969 49.5707L89.1118 46.7846L89.1118 39.8864L80.0636 39.8864L80.0636 50.6434C80.0636 53.3848 82.1024 55.6196 84.6026 55.6196C87.073 55.6196 89.1118 53.3848 89.1118 50.6434Z" fill="white" stroke="#5A5A5A" stroke-width="0.5"/>
<path d="M88.0702 50.5838L88.0702 49.7346L88.0702 42.8662L81.0906 42.8662L81.0906 49.7346L81.1055 50.5838C81.1055 52.7441 82.6532 54.5022 84.5878 54.5022C86.5076 54.4873 88.0702 52.7292 88.0702 50.5838Z" fill="white" stroke="#5A5A5A" stroke-width="0.5"/>
<path d="M78.4266 34.1057L78.4266 38.8883C78.4266 39.4395 78.8731 39.8865 79.4237 39.8865L89.6774 39.8865C90.228 39.8865 90.6744 39.4395 90.6744 38.8883L90.6744 34.1057C90.6744 33.5544 90.228 33.1075 89.6774 33.1075L79.4386 33.1075C78.8731 33.1075 78.4266 33.5544 78.4266 34.1057Z" fill="white" stroke="#5A5A5A" stroke-width="0.5"/>
<path d="M83.9628 36.4895C83.9628 36.8619 84.2307 37.145 84.5432 37.145C84.8706 37.1599 85.1384 36.8619 85.1384 36.4895C85.1384 36.117 84.8706 35.834 84.558 35.834C84.2158 35.8489 83.9479 36.1319 83.9628 36.4895Z" fill="white" stroke="#5A5A5A" stroke-width="0.5"/>
<path d="M48.56 34.4421L48.56 45.6265C48.56 46.4041 49.1813 47.0262 49.958 47.0262L66.7866 47.0262C67.5633 47.0262 68.1847 46.4041 68.1847 45.6265L68.1847 34.4421C68.1847 33.6645 67.5633 33.0425 66.7866 33.0425L49.958 33.0425C49.1943 33.0425 48.56 33.6645 48.56 34.4421Z" fill="white" stroke="#5A5A5A" stroke-width="0.5"/>
<path d="M50.3074 38.7059L50.3074 40.4296C50.3074 42.6975 52.1456 44.5378 54.4109 44.5378L62.3333 44.5378C64.5987 44.5378 66.4369 42.6975 66.4369 40.4296L66.4369 38.7059C66.4369 36.4379 64.5987 34.5977 62.3333 34.5977L54.4109 34.5977C52.1456 34.5977 50.3074 36.4379 50.3074 38.7059Z" fill="white" stroke="#5A5A5A" stroke-width="0.5"/>
<path d="M57.5047 36.7877C57.5047 37.2815 57.893 37.6819 58.372 37.6819C58.851 37.6819 59.2393 37.2815 59.2393 36.7877C59.2393 36.2939 58.851 35.8936 58.372 35.8936C57.893 35.8936 57.5047 36.2939 57.5047 36.7877Z" fill="white" stroke="#5A5A5A" stroke-width="0.5"/>
<path d="M44 34.5088L44 99.9669C44 100.805 43.3302 101.476 42.4929 101.476L16.507 101.476C15.6697 101.476 14.9999 100.805 14.9999 99.9669L14.9999 34.5088C14.9999 33.6706 15.6697 33 16.507 33L42.4929 33C43.3302 33 44 33.6858 44 34.5088Z" fill="white" stroke="#5A5A5A" stroke-width="0.5"/>
<path d="M33.0237 97.4517L25.9602 97.4517C21.8652 97.4517 18.5618 94.1293 18.5618 90.0448L18.5618 38.5014C18.5618 37.4955 19.3686 36.6877 20.3733 36.6877L38.6411 36.6877C39.6458 36.6877 40.4526 37.4955 40.4526 38.5014L40.4526 90.0296C40.4374 94.1293 37.1188 97.4517 33.0237 97.4517Z" fill="white" stroke="#5A5A5A" stroke-width="0.5"/>
<path d="M30.0103 42.7994C30.8258 42.7994 31.4869 42.1103 31.4869 41.2602C31.4869 40.4101 30.8258 39.7209 30.0103 39.7209C29.1948 39.7209 28.5337 40.4101 28.5337 41.2602C28.5337 42.1103 29.1948 42.7994 30.0103 42.7994Z" fill="white" stroke="#5A5A5A" stroke-width="0.5"/>
<path d="M84 110.617L103.001 110.617L103.013 91.9802L84.0121 91.9923L84 110.617Z" fill="white" stroke="#5A5A5A" stroke-width="0.5"/>
<path d="M93.5125 96.5186C96.2011 96.5186 98.3712 98.655 98.3712 101.298C98.3712 103.942 96.2011 106.078 93.5004 106.078C90.8119 106.078 88.6176 103.942 88.6176 101.298C88.6297 98.655 90.8239 96.5186 93.5125 96.5186Z" stroke="#5A5A5A" stroke-width="0.5"/>
<path d="M89.9558 101.298C89.9437 100.333 90.3416 99.4638 90.9927 98.8361C91.6437 98.2085 92.5359 97.8222 93.5004 97.8102M97.0691 101.286C97.0691 100.333 96.6712 99.4638 96.0322 98.8241C95.3812 98.1964 94.5011 97.7981 93.5124 97.7981L97.0691 101.286ZM89.9558 101.298C89.9558 102.252 90.3537 103.121 90.9927 103.761C91.6437 104.388 92.5359 104.775 93.5124 104.775L89.9558 101.298ZM97.0691 101.286C97.0691 102.264 96.6712 103.133 96.0322 103.749L96.0202 103.761C95.3812 104.376 94.5011 104.775 93.5245 104.775L97.0691 101.286Z" stroke="#5A5A5A" stroke-width="0.5"/>
<rect width="15" height="133" transform="matrix(1.19249e-08 -1 -1 -1.19249e-08 397 34)" fill="#5A5A5A"/>
<rect width="15" height="87" transform="matrix(1 0 0 -1 389 105)" fill="#5A5A5A"/>
<rect width="15" height="64" transform="matrix(-4.37114e-08 -1 -1 4.37114e-08 453 105)" fill="#5A5A5A"/>
<rect width="15" height="202" transform="matrix(1 0 0 -1 438 291)" fill="#5A5A5A"/>
<rect width="27" height="82" transform="matrix(-4.37114e-08 -1 -1 4.37114e-08 190 293)" fill="#5A5A5A"/>
<path d="M258.75 344.75L177.282 344.687L177.252 340.25L258.75 340.25L258.75 344.75Z" stroke="#5A5A5A" stroke-width="0.5" stroke-miterlimit="10"/>
<rect width="5" height="74" transform="matrix(1 0 0 -1 265 345)" fill="#5A5A5A"/>
<rect width="5" height="74" transform="matrix(1 0 0 -1 166 345)" fill="#5A5A5A"/>
<rect width="5" height="15" transform="matrix(-4.37114e-08 -1 -1 4.37114e-08 183 345)" fill="#5A5A5A"/>
<rect width="5" height="12" transform="matrix(-4.37114e-08 -1 -1 4.37114e-08 270 345)" fill="#5A5A5A"/>
<path d="M276.75 278.25L216.274 278.313L216.251 282.75L276.75 282.75L276.75 278.25Z" stroke="#5A5A5A" stroke-width="0.5" stroke-miterlimit="10"/>
<path d="M276.75 288.25L216.274 288.313L216.251 292.75L276.75 292.75L276.75 288.25Z" stroke="#5A5A5A" stroke-width="0.5" stroke-miterlimit="10"/>
<line x1="188.745" y1="281.57" x2="215.745" y2="265.57" stroke="#5A5A5A"/>
<rect width="27" height="82" transform="matrix(-4.37114e-08 -1 -1 4.37114e-08 328 293)" fill="#5A5A5A"/>
<rect width="27" height="63" transform="matrix(-4.37114e-08 -1 -1 4.37114e-08 453 293)" fill="#5A5A5A"/>
<path d="M370.976 47.5627L372.049 47.5776L374.835 47.5627L381.733 47.5627L381.733 56.6109L370.976 56.6109C368.235 56.6109 366 54.5721 366 52.072C366 49.6016 368.235 47.5627 370.976 47.5627Z" fill="white" stroke="#5A5A5A" stroke-width="0.5"/>
<path d="M371.036 48.6045L371.885 48.6045L378.753 48.6045L378.753 55.5841L371.885 55.5841L371.036 55.5692C368.875 55.5692 367.117 54.0215 367.117 52.0868C367.132 50.1671 368.89 48.6045 371.036 48.6045Z" fill="white" stroke="#5A5A5A" stroke-width="0.5"/>
<path d="M387.514 58.2478L382.731 58.2478C382.18 58.2478 381.733 57.8014 381.733 57.2507L381.733 46.9971C381.733 46.4465 382.18 46 382.731 46L387.514 46C388.065 46 388.512 46.4465 388.512 46.9971L388.512 57.2359C388.512 57.8014 388.065 58.2478 387.514 58.2478Z" fill="white" stroke="#5A5A5A" stroke-width="0.5"/>
<path d="M385.13 52.7118C384.758 52.7118 384.475 52.4439 384.475 52.1314C384.46 51.804 384.758 51.5361 385.13 51.5361C385.503 51.5361 385.786 51.804 385.786 52.1165C385.771 52.4588 385.488 52.7267 385.13 52.7118Z" fill="white" stroke="#5A5A5A" stroke-width="0.5"/>
<path d="M387.177 88.1147L375.993 88.1147C375.216 88.1147 374.593 87.4933 374.593 86.7166L374.593 69.888C374.593 69.1113 375.216 68.49 375.993 68.49L387.177 68.49C387.955 68.49 388.577 69.1113 388.577 69.888L388.577 86.7166C388.577 87.4804 387.955 88.1147 387.177 88.1147Z" fill="white" stroke="#5A5A5A" stroke-width="0.5"/>
<path d="M382.914 86.3673L381.19 86.3673C378.922 86.3673 377.082 84.5291 377.082 82.2637L377.082 74.3414C377.082 72.076 378.922 70.2378 381.19 70.2378L382.914 70.2378C385.182 70.2378 387.022 72.076 387.022 74.3414L387.022 82.2637C387.022 84.5291 385.182 86.3673 382.914 86.3673Z" fill="white" stroke="#5A5A5A" stroke-width="0.5"/>
<path d="M384.832 79.1701C384.338 79.1701 383.938 78.7818 383.938 78.3028C383.938 77.8238 384.338 77.4355 384.832 77.4355C385.326 77.4355 385.726 77.8238 385.726 78.3028C385.726 78.7818 385.326 79.1701 384.832 79.1701Z" fill="white" stroke="#5A5A5A" stroke-width="0.5"/>
<path d="M156.25 106.75L197.291 106.725L197.303 105.25L156.25 105.25L156.25 106.75Z" stroke="#5A5A5A" stroke-width="0.5" stroke-miterlimit="10"/>
<path d="M224.694 106.75L265.735 106.725L265.748 105.25L224.694 105.25L224.694 106.75Z" stroke="#5A5A5A" stroke-width="0.5" stroke-miterlimit="10"/>
<path d="M190.472 108.75L231.513 108.725L231.526 107.25L190.472 107.25L190.472 108.75Z" stroke="#5A5A5A" stroke-width="0.5" stroke-miterlimit="10"/>
<rect x="367.202" y="104.705" width="1.81167" height="5.43501" fill="#5A5A5A"/>
<rect x="367.202" y="114.669" width="1.81167" height="9.96419" fill="#5A5A5A"/>
<rect x="367.202" y="130.068" width="1.81167" height="9.96419" fill="#5A5A5A"/>
<rect x="367.202" y="145.467" width="1.81167" height="9.96419" fill="#5A5A5A"/>
<rect x="367.202" y="160.866" width="1.81167" height="9.96419" fill="#5A5A5A"/>
<rect x="367.202" y="176.266" width="1.81167" height="9.96419" fill="#5A5A5A"/>
<rect x="367.202" y="194.382" width="1.81167" height="9.96419" fill="#5A5A5A"/>
<rect x="367.202" y="210.97" width="1.81167" height="9.96419" fill="#5A5A5A"/>
<rect x="367.202" y="226.97" width="1.81167" height="9.96419" fill="#5A5A5A"/>
<rect x="367.202" y="242.97" width="1.81167" height="9.96419" fill="#5A5A5A"/>
<rect x="367" y="259" width="2" height="7" fill="#5A5A5A"/>
</svg>
