<svg width="346" height="750" viewBox="0 0 346 750" fill="none" xmlns="http://www.w3.org/2000/svg">
<path d="M197 663L197 90L335 90L335 663H197Z" fill="#E7FFD5"/>
<path d="M103 392L103 90L241 90L241 392L103 392Z" fill="#E7FFD5"/>
<path d="M16 307L16 90L241 90L241 307L16 307Z" fill="#E7FFD5"/>
<path d="M252 293L330 293L330 472L252 472L252 293Z" fill="#FDFF9F"/>
<rect x="298" y="693" width="30" height="48" transform="rotate(-90 298 693)" fill="#5A5A5A"/>
<path d="M241.35 573.42V571.6L243.17 570.2H244.64V580H243.03V572.16L241.35 573.42ZM246.181 577.27H247.861C247.936 577.559 248.062 577.807 248.239 578.012C248.65 578.497 249.247 578.74 250.031 578.74C250.656 578.74 251.151 578.572 251.515 578.236C251.879 577.9 252.061 577.461 252.061 576.92C252.061 576.351 251.879 575.893 251.515 575.548C251.151 575.203 250.656 575.03 250.031 575.03C249.452 575.03 248.962 575.184 248.561 575.492C248.402 575.613 248.262 575.763 248.141 575.94H246.601L247.021 570.2H252.971V571.74H248.351L248.141 574.26H248.211C248.36 574.111 248.533 573.985 248.729 573.882C249.168 573.621 249.695 573.49 250.311 573.49C251.291 573.49 252.108 573.817 252.761 574.47C253.414 575.123 253.741 575.94 253.741 576.92C253.741 577.881 253.396 578.684 252.705 579.328C252.024 579.963 251.132 580.28 250.031 580.28C248.594 580.28 247.525 579.781 246.825 578.782C246.526 578.343 246.312 577.839 246.181 577.27ZM254.794 579.23C254.794 578.95 254.883 578.717 255.06 578.53C255.247 578.343 255.476 578.25 255.746 578.25C256.054 578.25 256.297 578.362 256.474 578.586C256.661 578.81 256.754 579.141 256.754 579.58C256.754 580.299 256.582 580.849 256.236 581.232C255.9 581.624 255.443 581.82 254.864 581.82V581.12C255.144 581.12 255.364 581.041 255.522 580.882C255.69 580.733 255.774 580.532 255.774 580.28V580.196C255.765 580.187 255.76 580.168 255.76 580.14V580.098L255.676 580.126C255.648 580.135 255.588 580.14 255.494 580.14C255.308 580.14 255.144 580.056 255.004 579.888C254.864 579.72 254.794 579.501 254.794 579.23ZM259.271 578.824C258.384 577.853 257.941 576.612 257.941 575.1C257.941 573.588 258.384 572.347 259.271 571.376C260.157 570.405 261.231 569.92 262.491 569.92C263.751 569.92 264.824 570.405 265.711 571.376C266.597 572.347 267.041 573.588 267.041 575.1C267.041 576.612 266.597 577.853 265.711 578.824C264.824 579.795 263.751 580.28 262.491 580.28C261.231 580.28 260.157 579.795 259.271 578.824ZM260.419 572.412C259.887 573.047 259.621 573.943 259.621 575.1C259.621 576.257 259.887 577.153 260.419 577.788C260.96 578.423 261.651 578.74 262.491 578.74C263.331 578.74 264.017 578.423 264.549 577.788C265.09 577.153 265.361 576.257 265.361 575.1C265.361 573.943 265.09 573.047 264.549 572.412C264.017 571.777 263.331 571.46 262.491 571.46C261.651 571.46 260.96 571.777 260.419 572.412ZM268.164 576.78C268.164 576.332 268.262 575.865 268.458 575.38C268.663 574.885 268.859 574.498 269.046 574.218C269.242 573.929 269.508 573.569 269.844 573.14L272.084 570.2H273.974L271.86 572.958L271.244 573.49V573.56L271.524 573.462C271.804 573.387 272.107 573.35 272.434 573.35C273.348 573.35 274.123 573.681 274.758 574.344C275.402 574.997 275.724 575.809 275.724 576.78C275.724 577.769 275.369 578.6 274.66 579.272C273.95 579.944 273.045 580.28 271.944 580.28C270.842 580.28 269.937 579.944 269.228 579.272C268.518 578.6 268.164 577.769 268.164 576.78ZM270.418 575.324C270.035 575.697 269.844 576.183 269.844 576.78C269.844 577.377 270.035 577.867 270.418 578.25C270.8 578.623 271.309 578.81 271.944 578.81C272.578 578.81 273.087 578.623 273.47 578.25C273.852 577.867 274.044 577.377 274.044 576.78C274.044 576.183 273.852 575.697 273.47 575.324C273.087 574.941 272.578 574.75 271.944 574.75C271.309 574.75 270.8 574.941 270.418 575.324Z" fill="#333333"/>
<path d="M253.42 726.2H255.1C255.165 726.489 255.291 726.746 255.478 726.97C255.898 727.483 256.495 727.74 257.27 727.74C257.914 727.74 258.423 727.581 258.796 727.264C259.179 726.937 259.37 726.536 259.37 726.06C259.37 725.519 259.197 725.094 258.852 724.786C258.516 724.469 258.035 724.31 257.41 724.31H255.03V722.91L257.97 720.81V720.74H253.91V719.2H260.35V720.726L257.83 722.56L257.13 722.84V722.91L257.354 722.882C257.662 722.854 257.844 722.84 257.9 722.84C258.777 722.84 259.51 723.143 260.098 723.75C260.686 724.357 260.98 725.127 260.98 726.06C260.98 726.956 260.635 727.717 259.944 728.342C259.253 728.967 258.362 729.28 257.27 729.28C255.823 729.28 254.755 728.767 254.064 727.74C253.765 727.301 253.551 726.788 253.42 726.2ZM262.037 728.23C262.037 727.95 262.125 727.717 262.303 727.53C262.489 727.343 262.718 727.25 262.989 727.25C263.297 727.25 263.539 727.362 263.717 727.586C263.903 727.81 263.997 728.141 263.997 728.58C263.997 729.299 263.824 729.849 263.479 730.232C263.143 730.624 262.685 730.82 262.107 730.82V730.12C262.387 730.12 262.606 730.041 262.765 729.882C262.933 729.733 263.017 729.532 263.017 729.28V729.196C263.007 729.187 263.003 729.168 263.003 729.14V729.098L262.919 729.126C262.891 729.135 262.83 729.14 262.737 729.14C262.55 729.14 262.387 729.056 262.247 728.888C262.107 728.72 262.037 728.501 262.037 728.23ZM265.043 725.78C265.043 725.332 265.141 724.865 265.337 724.38C265.542 723.885 265.738 723.498 265.925 723.218C266.121 722.929 266.387 722.569 266.723 722.14L268.963 719.2H270.853L268.739 721.958L268.123 722.49V722.56L268.403 722.462C268.683 722.387 268.986 722.35 269.313 722.35C270.227 722.35 271.002 722.681 271.637 723.344C272.281 723.997 272.603 724.809 272.603 725.78C272.603 726.769 272.248 727.6 271.539 728.272C270.829 728.944 269.924 729.28 268.823 729.28C267.721 729.28 266.816 728.944 266.107 728.272C265.397 727.6 265.043 726.769 265.043 725.78ZM267.297 724.324C266.914 724.697 266.723 725.183 266.723 725.78C266.723 726.377 266.914 726.867 267.297 727.25C267.679 727.623 268.188 727.81 268.823 727.81C269.457 727.81 269.966 727.623 270.349 727.25C270.731 726.867 270.923 726.377 270.923 725.78C270.923 725.183 270.731 724.697 270.349 724.324C269.966 723.941 269.457 723.75 268.823 723.75C268.188 723.75 267.679 723.941 267.297 724.324ZM273.656 725.78C273.656 725.332 273.754 724.865 273.95 724.38C274.155 723.885 274.351 723.498 274.538 723.218C274.734 722.929 275 722.569 275.336 722.14L277.576 719.2H279.466L277.352 721.958L276.736 722.49V722.56L277.016 722.462C277.296 722.387 277.599 722.35 277.926 722.35C278.841 722.35 279.615 722.681 280.25 723.344C280.894 723.997 281.216 724.809 281.216 725.78C281.216 726.769 280.861 727.6 280.152 728.272C279.443 728.944 278.537 729.28 277.436 729.28C276.335 729.28 275.429 728.944 274.72 728.272C274.011 727.6 273.656 726.769 273.656 725.78ZM275.91 724.324C275.527 724.697 275.336 725.183 275.336 725.78C275.336 726.377 275.527 726.867 275.91 727.25C276.293 727.623 276.801 727.81 277.436 727.81C278.071 727.81 278.579 727.623 278.962 727.25C279.345 726.867 279.536 726.377 279.536 725.78C279.536 725.183 279.345 724.697 278.962 724.324C278.579 723.941 278.071 723.75 277.436 723.75C276.801 723.75 276.293 723.941 275.91 724.324Z" fill="#333333"/>
<path d="M134.35 350.42V348.6L136.17 347.2H137.64V357H136.03V349.16L134.35 350.42ZM138.971 350.42V348.6L140.791 347.2H142.261V357H140.651V349.16L138.971 350.42ZM143.802 356.23C143.802 355.95 143.891 355.717 144.068 355.53C144.255 355.343 144.484 355.25 144.754 355.25C145.062 355.25 145.305 355.362 145.482 355.586C145.669 355.81 145.762 356.141 145.762 356.58C145.762 357.299 145.59 357.849 145.244 358.232C144.908 358.624 144.451 358.82 143.872 358.82V358.12C144.152 358.12 144.372 358.041 144.53 357.882C144.698 357.733 144.782 357.532 144.782 357.28V357.196C144.773 357.187 144.768 357.168 144.768 357.14V357.098L144.684 357.126C144.656 357.135 144.596 357.14 144.502 357.14C144.316 357.14 144.152 357.056 144.012 356.888C143.872 356.72 143.802 356.501 143.802 356.23ZM146.878 354.27H148.558C148.633 354.559 148.759 354.807 148.936 355.012C149.347 355.497 149.944 355.74 150.728 355.74C151.354 355.74 151.848 355.572 152.212 355.236C152.576 354.9 152.758 354.461 152.758 353.92C152.758 353.351 152.576 352.893 152.212 352.548C151.848 352.203 151.354 352.03 150.728 352.03C150.15 352.03 149.66 352.184 149.258 352.492C149.1 352.613 148.96 352.763 148.838 352.94H147.298L147.718 347.2H153.668V348.74H149.048L148.838 351.26H148.908C149.058 351.111 149.23 350.985 149.426 350.882C149.865 350.621 150.392 350.49 151.008 350.49C151.988 350.49 152.805 350.817 153.458 351.47C154.112 352.123 154.438 352.94 154.438 353.92C154.438 354.881 154.093 355.684 153.402 356.328C152.721 356.963 151.83 357.28 150.728 357.28C149.291 357.28 148.222 356.781 147.522 355.782C147.224 355.343 147.009 354.839 146.878 354.27ZM155.352 354.2H157.032C157.097 354.489 157.223 354.746 157.41 354.97C157.83 355.483 158.427 355.74 159.202 355.74C159.846 355.74 160.354 355.581 160.728 355.264C161.11 354.937 161.302 354.536 161.302 354.06C161.302 353.519 161.129 353.094 160.784 352.786C160.448 352.469 159.967 352.31 159.342 352.31H156.962V350.91L159.902 348.81V348.74H155.842V347.2H162.282V348.726L159.762 350.56L159.062 350.84V350.91L159.286 350.882C159.594 350.854 159.776 350.84 159.832 350.84C160.709 350.84 161.442 351.143 162.03 351.75C162.618 352.357 162.912 353.127 162.912 354.06C162.912 354.956 162.566 355.717 161.876 356.342C161.185 356.967 160.294 357.28 159.202 357.28C157.755 357.28 156.686 356.767 155.996 355.74C155.697 355.301 155.482 354.788 155.352 354.2Z" fill="#333333"/>
<path d="M268.56 410.27H270.24C270.315 410.559 270.441 410.807 270.618 411.012C271.029 411.497 271.626 411.74 272.41 411.74C273.035 411.74 273.53 411.572 273.894 411.236C274.258 410.9 274.44 410.461 274.44 409.92C274.44 409.351 274.258 408.893 273.894 408.548C273.53 408.203 273.035 408.03 272.41 408.03C271.831 408.03 271.341 408.184 270.94 408.492C270.781 408.613 270.641 408.763 270.52 408.94H268.98L269.4 403.2H275.35V404.74H270.73L270.52 407.26H270.59C270.739 407.111 270.912 406.985 271.108 406.882C271.547 406.621 272.074 406.49 272.69 406.49C273.67 406.49 274.487 406.817 275.14 407.47C275.793 408.123 276.12 408.94 276.12 409.92C276.12 410.881 275.775 411.684 275.084 412.328C274.403 412.963 273.511 413.28 272.41 413.28C270.973 413.28 269.904 412.781 269.204 411.782C268.905 411.343 268.691 410.839 268.56 410.27ZM277.173 412.23C277.173 411.95 277.262 411.717 277.439 411.53C277.626 411.343 277.855 411.25 278.125 411.25C278.433 411.25 278.676 411.362 278.853 411.586C279.04 411.81 279.133 412.141 279.133 412.58C279.133 413.299 278.961 413.849 278.615 414.232C278.279 414.624 277.822 414.82 277.243 414.82V414.12C277.523 414.12 277.743 414.041 277.901 413.882C278.069 413.733 278.153 413.532 278.153 413.28V413.196C278.144 413.187 278.139 413.168 278.139 413.14V413.098L278.055 413.126C278.027 413.135 277.967 413.14 277.873 413.14C277.687 413.14 277.523 413.056 277.383 412.888C277.243 412.72 277.173 412.501 277.173 412.23ZM281.649 411.824C280.763 410.853 280.319 409.612 280.319 408.1C280.319 406.588 280.763 405.347 281.649 404.376C282.536 403.405 283.609 402.92 284.869 402.92C286.129 402.92 287.203 403.405 288.089 404.376C288.976 405.347 289.419 406.588 289.419 408.1C289.419 409.612 288.976 410.853 288.089 411.824C287.203 412.795 286.129 413.28 284.869 413.28C283.609 413.28 282.536 412.795 281.649 411.824ZM282.797 405.412C282.265 406.047 281.999 406.943 281.999 408.1C281.999 409.257 282.265 410.153 282.797 410.788C283.339 411.423 284.029 411.74 284.869 411.74C285.709 411.74 286.395 411.423 286.927 410.788C287.469 410.153 287.739 409.257 287.739 408.1C287.739 406.943 287.469 406.047 286.927 405.412C286.395 404.777 285.709 404.46 284.869 404.46C284.029 404.46 283.339 404.777 282.797 405.412ZM290.473 410.2H292.153C292.218 410.489 292.344 410.746 292.531 410.97C292.951 411.483 293.548 411.74 294.323 411.74C294.967 411.74 295.475 411.581 295.849 411.264C296.231 410.937 296.423 410.536 296.423 410.06C296.423 409.519 296.25 409.094 295.905 408.786C295.569 408.469 295.088 408.31 294.463 408.31H292.083V406.91L295.023 404.81V404.74H290.963V403.2H297.403V404.726L294.883 406.56L294.183 406.84V406.91L294.407 406.882C294.715 406.854 294.897 406.84 294.953 406.84C295.83 406.84 296.563 407.143 297.151 407.75C297.739 408.357 298.033 409.127 298.033 410.06C298.033 410.956 297.687 411.717 296.997 412.342C296.306 412.967 295.415 413.28 294.323 413.28C292.876 413.28 291.807 412.767 291.117 411.74C290.818 411.301 290.603 410.788 290.473 410.2Z" fill="#333333"/>
<path d="M268.42 333.2H270.1C270.165 333.489 270.291 333.746 270.478 333.97C270.898 334.483 271.495 334.74 272.27 334.74C272.914 334.74 273.423 334.581 273.796 334.264C274.179 333.937 274.37 333.536 274.37 333.06C274.37 332.519 274.197 332.094 273.852 331.786C273.516 331.469 273.035 331.31 272.41 331.31H270.03V329.91L272.97 327.81V327.74H268.91V326.2H275.35V327.726L272.83 329.56L272.13 329.84V329.91L272.354 329.882C272.662 329.854 272.844 329.84 272.9 329.84C273.777 329.84 274.51 330.143 275.098 330.75C275.686 331.357 275.98 332.127 275.98 333.06C275.98 333.956 275.635 334.717 274.944 335.342C274.253 335.967 273.362 336.28 272.27 336.28C270.823 336.28 269.755 335.767 269.064 334.74C268.765 334.301 268.551 333.788 268.42 333.2ZM277.037 335.23C277.037 334.95 277.125 334.717 277.303 334.53C277.489 334.343 277.718 334.25 277.989 334.25C278.297 334.25 278.539 334.362 278.717 334.586C278.903 334.81 278.997 335.141 278.997 335.58C278.997 336.299 278.824 336.849 278.479 337.232C278.143 337.624 277.685 337.82 277.107 337.82V337.12C277.387 337.12 277.606 337.041 277.765 336.882C277.933 336.733 278.017 336.532 278.017 336.28V336.196C278.007 336.187 278.003 336.168 278.003 336.14V336.098L277.919 336.126C277.891 336.135 277.83 336.14 277.737 336.14C277.55 336.14 277.387 336.056 277.247 335.888C277.107 335.72 277.037 335.501 277.037 335.23ZM279.973 333.2H281.653C281.718 333.489 281.844 333.746 282.031 333.97C282.451 334.483 283.048 334.74 283.823 334.74C284.467 334.74 284.975 334.581 285.349 334.264C285.731 333.937 285.923 333.536 285.923 333.06C285.923 332.519 285.75 332.094 285.405 331.786C285.069 331.469 284.588 331.31 283.963 331.31H281.583V329.91L284.523 327.81V327.74H280.463V326.2H286.903V327.726L284.383 329.56L283.683 329.84V329.91L283.907 329.882C284.215 329.854 284.397 329.84 284.453 329.84C285.33 329.84 286.063 330.143 286.651 330.75C287.239 331.357 287.533 332.127 287.533 333.06C287.533 333.956 287.187 334.717 286.497 335.342C285.806 335.967 284.915 336.28 283.823 336.28C282.376 336.28 281.307 335.767 280.617 334.74C280.318 334.301 280.103 333.788 279.973 333.2ZM288.239 334.04V332.5L291.529 326.2H293.279L289.989 332.5H293.209V330.12H293.279H294.819V332.5H296.219V334.04H294.819V336H293.209V334.04H288.239Z" fill="#333333"/>
<path d="M215.42 241.2H217.1C217.165 241.489 217.291 241.746 217.478 241.97C217.898 242.483 218.495 242.74 219.27 242.74C219.914 242.74 220.423 242.581 220.796 242.264C221.179 241.937 221.37 241.536 221.37 241.06C221.37 240.519 221.197 240.094 220.852 239.786C220.516 239.469 220.035 239.31 219.41 239.31H217.03V237.91L219.97 235.81V235.74H215.91V234.2H222.35V235.726L219.83 237.56L219.13 237.84V237.91L219.354 237.882C219.662 237.854 219.844 237.84 219.9 237.84C220.777 237.84 221.51 238.143 222.098 238.75C222.686 239.357 222.98 240.127 222.98 241.06C222.98 241.956 222.635 242.717 221.944 243.342C221.253 243.967 220.362 244.28 219.27 244.28C217.823 244.28 216.755 243.767 216.064 242.74C215.765 242.301 215.551 241.788 215.42 241.2ZM223.687 242.04V240.5L226.977 234.2H228.727L225.437 240.5H228.657V238.12H228.727H230.267V240.5H231.667V242.04H230.267V244H228.657V242.04H223.687ZM232.226 243.23C232.226 242.95 232.315 242.717 232.492 242.53C232.679 242.343 232.907 242.25 233.178 242.25C233.486 242.25 233.729 242.362 233.906 242.586C234.093 242.81 234.186 243.141 234.186 243.58C234.186 244.299 234.013 244.849 233.668 245.232C233.332 245.624 232.875 245.82 232.296 245.82V245.12C232.576 245.12 232.795 245.041 232.954 244.882C233.122 244.733 233.206 244.532 233.206 244.28V244.196C233.197 244.187 233.192 244.168 233.192 244.14V244.098L233.108 244.126C233.08 244.135 233.019 244.14 232.926 244.14C232.739 244.14 232.576 244.056 232.436 243.888C232.296 243.72 232.226 243.501 232.226 243.23ZM236.702 242.824C235.816 241.853 235.372 240.612 235.372 239.1C235.372 237.588 235.816 236.347 236.702 235.376C237.589 234.405 238.662 233.92 239.922 233.92C241.182 233.92 242.256 234.405 243.142 235.376C244.029 236.347 244.472 237.588 244.472 239.1C244.472 240.612 244.029 241.853 243.142 242.824C242.256 243.795 241.182 244.28 239.922 244.28C238.662 244.28 237.589 243.795 236.702 242.824ZM237.85 236.412C237.318 237.047 237.052 237.943 237.052 239.1C237.052 240.257 237.318 241.153 237.85 241.788C238.392 242.423 239.082 242.74 239.922 242.74C240.762 242.74 241.448 242.423 241.98 241.788C242.522 241.153 242.792 240.257 242.792 239.1C242.792 237.943 242.522 237.047 241.98 236.412C241.448 235.777 240.762 235.46 239.922 235.46C239.082 235.46 238.392 235.777 237.85 236.412ZM245.245 235.74V234.2H251.895V235.74L247.975 244H246.225L250.075 235.88V235.74H245.245Z" fill="#333333"/>
<path d="M73.21 46.04V44.5L76.5 38.2H78.25L74.96 44.5H78.18V42.12H78.25H79.79V44.5H81.19V46.04H79.79V48H78.18V46.04H73.21ZM81.7495 47.23C81.7495 46.95 81.8381 46.7167 82.0155 46.53C82.2021 46.3433 82.4308 46.25 82.7015 46.25C83.0095 46.25 83.2521 46.362 83.4295 46.586C83.6161 46.81 83.7095 47.1413 83.7095 47.58C83.7095 48.2987 83.5368 48.8493 83.1915 49.232C82.8555 49.624 82.3981 49.82 81.8195 49.82V49.12C82.0995 49.12 82.3188 49.0407 82.4775 48.882C82.6455 48.7327 82.7295 48.532 82.7295 48.28V48.196C82.7201 48.1867 82.7155 48.168 82.7155 48.14V48.098L82.6315 48.126C82.6035 48.1353 82.5428 48.14 82.4495 48.14C82.2628 48.14 82.0995 48.056 81.9595 47.888C81.8195 47.72 81.7495 47.5007 81.7495 47.23ZM84.4056 39.74V38.2H91.0556V39.74L87.1356 48H85.3856L89.2356 39.88V39.74H84.4056ZM91.5505 44.78C91.5505 44.332 91.6485 43.8653 91.8445 43.38C92.0499 42.8853 92.2459 42.498 92.4325 42.218C92.6285 41.9287 92.8945 41.5693 93.2305 41.14L95.4705 38.2H97.3605L95.2465 40.958L94.6305 41.49V41.56L94.9105 41.462C95.1905 41.3873 95.4939 41.35 95.8205 41.35C96.7352 41.35 97.5099 41.6813 98.1445 42.344C98.7885 42.9973 99.1105 43.8093 99.1105 44.78C99.1105 45.7693 98.7559 46.6 98.0465 47.272C97.3372 47.944 96.4319 48.28 95.3305 48.28C94.2292 48.28 93.3239 47.944 92.6145 47.272C91.9052 46.6 91.5505 45.7693 91.5505 44.78ZM93.8045 43.324C93.4219 43.6973 93.2305 44.1827 93.2305 44.78C93.2305 45.3773 93.4219 45.8673 93.8045 46.25C94.1872 46.6233 94.6959 46.81 95.3305 46.81C95.9652 46.81 96.4739 46.6233 96.8565 46.25C97.2392 45.8673 97.4305 45.3773 97.4305 44.78C97.4305 44.1827 97.2392 43.6973 96.8565 43.324C96.4739 42.9413 95.9652 42.75 95.3305 42.75C94.6959 42.75 94.1872 42.9413 93.8045 43.324Z" fill="#333333"/>
<path d="M37.49 214.78C37.49 214.332 37.588 213.865 37.784 213.38C37.9893 212.885 38.1853 212.498 38.372 212.218C38.568 211.929 38.834 211.569 39.17 211.14L41.41 208.2H43.3L41.186 210.958L40.57 211.49V211.56L40.85 211.462C41.13 211.387 41.4333 211.35 41.76 211.35C42.6747 211.35 43.4493 211.681 44.084 212.344C44.728 212.997 45.05 213.809 45.05 214.78C45.05 215.769 44.6953 216.6 43.986 217.272C43.2767 217.944 42.3713 218.28 41.27 218.28C40.1687 218.28 39.2633 217.944 38.554 217.272C37.8447 216.6 37.49 215.769 37.49 214.78ZM39.744 213.324C39.3613 213.697 39.17 214.183 39.17 214.78C39.17 215.377 39.3613 215.867 39.744 216.25C40.1267 216.623 40.6353 216.81 41.27 216.81C41.9047 216.81 42.4133 216.623 42.796 216.25C43.1787 215.867 43.37 215.377 43.37 214.78C43.37 214.183 43.1787 213.697 42.796 213.324C42.4133 212.941 41.9047 212.75 41.27 212.75C40.6353 212.75 40.1267 212.941 39.744 213.324ZM46.1733 217.23C46.1733 216.95 46.2619 216.717 46.4393 216.53C46.6259 216.343 46.8546 216.25 47.1253 216.25C47.4333 216.25 47.6759 216.362 47.8533 216.586C48.0399 216.81 48.1333 217.141 48.1333 217.58C48.1333 218.299 47.9606 218.849 47.6153 219.232C47.2793 219.624 46.8219 219.82 46.2433 219.82V219.12C46.5233 219.12 46.7426 219.041 46.9013 218.882C47.0693 218.733 47.1533 218.532 47.1533 218.28V218.196C47.1439 218.187 47.1393 218.168 47.1393 218.14V218.098L47.0553 218.126C47.0273 218.135 46.9666 218.14 46.8733 218.14C46.6866 218.14 46.5233 218.056 46.3833 217.888C46.2433 217.72 46.1733 217.501 46.1733 217.23ZM50.6495 216.824C49.7628 215.853 49.3195 214.612 49.3195 213.1C49.3195 211.588 49.7628 210.347 50.6495 209.376C51.5361 208.405 52.6095 207.92 53.8695 207.92C55.1295 207.92 56.2028 208.405 57.0895 209.376C57.9761 210.347 58.4195 211.588 58.4195 213.1C58.4195 214.612 57.9761 215.853 57.0895 216.824C56.2028 217.795 55.1295 218.28 53.8695 218.28C52.6095 218.28 51.5361 217.795 50.6495 216.824ZM51.7975 210.412C51.2655 211.047 50.9995 211.943 50.9995 213.1C50.9995 214.257 51.2655 215.153 51.7975 215.788C52.3388 216.423 53.0295 216.74 53.8695 216.74C54.7095 216.74 55.3955 216.423 55.9275 215.788C56.4688 215.153 56.7395 214.257 56.7395 213.1C56.7395 211.943 56.4688 211.047 55.9275 210.412C55.3955 209.777 54.7095 209.46 53.8695 209.46C53.0295 209.46 52.3388 209.777 51.7975 210.412ZM61.0127 216.824C60.1261 215.853 59.6827 214.612 59.6827 213.1C59.6827 211.588 60.1261 210.347 61.0127 209.376C61.8994 208.405 62.9727 207.92 64.2327 207.92C65.4927 207.92 66.5661 208.405 67.4527 209.376C68.3394 210.347 68.7827 211.588 68.7827 213.1C68.7827 214.612 68.3394 215.853 67.4527 216.824C66.5661 217.795 65.4927 218.28 64.2327 218.28C62.9727 218.28 61.8994 217.795 61.0127 216.824ZM62.1607 210.412C61.6287 211.047 61.3627 211.943 61.3627 213.1C61.3627 214.257 61.6287 215.153 62.1607 215.788C62.7021 216.423 63.3927 216.74 64.2327 216.74C65.0727 216.74 65.7587 216.423 66.2907 215.788C66.8321 215.153 67.1027 214.257 67.1027 213.1C67.1027 211.943 66.8321 211.047 66.2907 210.412C65.7587 209.777 65.0727 209.46 64.2327 209.46C63.3927 209.46 62.7021 209.777 62.1607 210.412Z" fill="#333333"/>
<path d="M135.65 427.42V425.6L133.83 424.2H132.36V434H133.97V426.16L135.65 427.42ZM131.239 425.74V424.2H124.589V425.74L128.509 434H130.259L126.409 425.88V425.74H131.239ZM125.145 433.23C125.145 432.95 125.056 432.717 124.879 432.53C124.692 432.343 124.464 432.25 124.193 432.25C123.885 432.25 123.642 432.362 123.465 432.586C123.278 432.81 123.185 433.141 123.185 433.58C123.185 434.299 123.358 434.849 123.703 435.232C124.039 435.624 124.496 435.82 125.075 435.82V435.12C124.795 435.12 124.576 435.041 124.417 434.882C124.249 434.733 124.165 434.532 124.165 434.28V434.196C124.174 434.187 124.179 434.168 124.179 434.14V434.098L124.263 434.126C124.291 434.135 124.352 434.14 124.445 434.14C124.632 434.14 124.795 434.056 124.935 433.888C125.075 433.72 125.145 433.501 125.145 433.23ZM122.069 431.34C122.069 430.491 121.742 429.814 121.089 429.31C120.809 429.114 120.482 428.965 120.109 428.862V428.778C120.398 428.666 120.655 428.512 120.879 428.316C121.392 427.877 121.649 427.299 121.649 426.58C121.649 425.843 121.336 425.217 120.711 424.704C120.076 424.181 119.222 423.92 118.149 423.92C117.076 423.92 116.226 424.181 115.601 424.704C114.966 425.217 114.649 425.843 114.649 426.58C114.649 427.28 114.906 427.859 115.419 428.316C115.662 428.512 115.918 428.666 116.189 428.778V428.862C115.834 428.955 115.508 429.109 115.209 429.324C114.556 429.828 114.229 430.5 114.229 431.34C114.229 432.152 114.584 432.847 115.293 433.426C115.993 433.995 116.945 434.28 118.149 434.28C119.353 434.28 120.31 433.995 121.019 433.426C121.719 432.847 122.069 432.152 122.069 431.34ZM119.969 426.72C119.969 427.131 119.81 427.467 119.493 427.728C119.176 427.989 118.728 428.12 118.149 428.12C117.57 428.12 117.122 427.989 116.805 427.728C116.488 427.467 116.329 427.131 116.329 426.72C116.329 426.347 116.492 426.034 116.819 425.782C117.136 425.521 117.58 425.39 118.149 425.39C118.718 425.39 119.166 425.521 119.493 425.782C119.81 426.034 119.969 426.347 119.969 426.72ZM119.801 430.066C120.193 430.374 120.389 430.752 120.389 431.2C120.389 431.648 120.193 432.031 119.801 432.348C119.4 432.656 118.849 432.81 118.149 432.81C117.449 432.81 116.903 432.656 116.511 432.348C116.11 432.031 115.909 431.648 115.909 431.2C115.909 430.752 116.11 430.374 116.511 430.066C116.903 429.749 117.449 429.59 118.149 429.59C118.849 429.59 119.4 429.749 119.801 430.066ZM113.254 431.2H111.574C111.508 431.489 111.382 431.746 111.196 431.97C110.776 432.483 110.178 432.74 109.404 432.74C108.76 432.74 108.251 432.581 107.878 432.264C107.495 431.937 107.304 431.536 107.304 431.06C107.304 430.519 107.476 430.094 107.822 429.786C108.158 429.469 108.638 429.31 109.264 429.31H111.644V427.91L108.704 425.81V425.74H112.764V424.2H106.324V425.726L108.844 427.56L109.544 427.84V427.91L109.32 427.882C109.012 427.854 108.83 427.84 108.774 427.84C107.896 427.84 107.164 428.143 106.576 428.75C105.988 429.357 105.694 430.127 105.694 431.06C105.694 431.956 106.039 432.717 106.73 433.342C107.42 433.967 108.312 434.28 109.404 434.28C110.85 434.28 111.919 433.767 112.61 432.74C112.908 432.301 113.123 431.788 113.254 431.2Z" fill="#333333"/>
<rect x="275" y="90" width="30" height="68" transform="rotate(-90 275 90)" fill="#5A5A5A"/>
<rect x="343" y="674" width="16" height="592" transform="rotate(-180 343 674)" fill="#5A5A5A"/>
<rect x="234" y="487" width="16" height="96" transform="rotate(-90 234 487)" fill="#5A5A5A"/>
<path d="M307.517 381.307L308.698 381.324L311.764 381.307L319.355 381.307L319.355 391.264L307.517 391.264C304.5 391.264 302.041 389.021 302.041 386.269C302.041 383.551 304.5 381.307 307.517 381.307Z" fill="white" stroke="#5A5A5A" stroke-width="0.5"/>
<path d="M307.584 382.453L308.518 382.453L316.077 382.453L316.077 390.134L308.518 390.134L307.584 390.118C305.206 390.118 303.271 388.415 303.271 386.286C303.288 384.173 305.223 382.453 307.584 382.453Z" fill="white" stroke="#5A5A5A" stroke-width="0.5"/>
<path d="M325.717 393.066L320.454 393.066C319.847 393.066 319.355 392.574 319.355 391.969L319.355 380.685C319.355 380.079 319.847 379.587 320.454 379.587L325.717 379.587C326.324 379.587 326.816 380.079 326.816 380.685L326.816 391.952C326.816 392.574 326.324 393.066 325.717 393.066Z" fill="white" stroke="#5A5A5A" stroke-width="0.5"/>
<path d="M323.093 386.973C322.683 386.973 322.372 386.679 322.372 386.335C322.355 385.974 322.683 385.68 323.093 385.68C323.503 385.68 323.814 385.974 323.814 386.318C323.798 386.695 323.487 386.99 323.093 386.973Z" fill="white" stroke="#5A5A5A" stroke-width="0.5"/>
<path d="M325.346 431.732L313.038 431.732C312.183 431.732 311.498 431.048 311.498 430.194L311.498 411.674C311.498 410.82 312.183 410.136 313.038 410.136L325.346 410.136C326.202 410.136 326.887 410.82 326.887 411.674L326.887 430.194C326.887 431.034 326.202 431.732 325.346 431.732Z" fill="white" stroke="#5A5A5A" stroke-width="0.5"/>
<path d="M320.655 429.809L318.758 429.809C316.262 429.809 314.237 427.786 314.237 425.293L314.237 416.575C314.237 414.082 316.262 412.059 318.758 412.059L320.655 412.059C323.151 412.059 325.176 414.082 325.176 416.575L325.176 425.293C325.176 427.786 323.151 429.809 320.655 429.809Z" fill="white" stroke="#5A5A5A" stroke-width="0.5"/>
<path d="M322.766 421.889C322.223 421.889 321.782 421.461 321.782 420.934C321.782 420.407 322.223 419.98 322.766 419.98C323.309 419.98 323.75 420.407 323.75 420.934C323.75 421.461 323.309 421.889 322.766 421.889Z" fill="white" stroke="#5A5A5A" stroke-width="0.5"/>
<path d="M325.393 441.448L258.541 441.448C257.685 441.448 257 442.133 257 442.988L257 469.527C257 470.382 257.685 471.066 258.541 471.066L325.393 471.066C326.249 471.066 326.934 470.382 326.934 469.527L326.934 442.988C326.934 442.133 326.233 441.448 325.393 441.448Z" fill="white" stroke="#5A5A5A" stroke-width="0.5"/>
<path d="M261.11 452.659L261.11 459.872C261.11 464.055 264.503 467.428 268.675 467.428L321.316 467.428C322.343 467.428 323.168 466.604 323.168 465.578L323.168 446.922C323.168 445.895 322.343 445.071 321.316 445.071L268.69 445.071C264.503 445.087 261.11 448.476 261.11 452.659Z" fill="white" stroke="#5A5A5A" stroke-width="0.5"/>
<path d="M316.926 455.736C316.926 454.903 317.63 454.228 318.498 454.228C319.367 454.228 320.07 454.903 320.07 455.736C320.07 456.569 319.367 457.244 318.498 457.244C317.63 457.244 316.926 456.569 316.926 455.736Z" fill="white" stroke="#5A5A5A" stroke-width="0.5"/>
<path d="M252 392.024L252 370.014L273.588 370L273.574 392.01L252 392.024Z" fill="white" stroke="#5A5A5A" stroke-width="0.5"/>
<path d="M268.33 381.005C268.33 377.891 265.855 375.377 262.793 375.377C259.731 375.377 257.257 377.891 257.257 381.019C257.257 384.133 259.731 386.675 262.793 386.675C265.855 386.661 268.33 384.119 268.33 381.005Z" stroke="#5A5A5A" stroke-width="0.5"/>
<path d="M262.795 385.125C263.913 385.139 264.92 384.678 265.647 383.924C266.374 383.17 266.822 382.136 266.836 381.019M262.809 376.885C263.913 376.885 264.92 377.346 265.661 378.086C266.388 378.84 266.85 379.86 266.85 381.005L262.809 376.885ZM262.795 385.125C261.69 385.125 260.684 384.664 259.943 383.924C259.216 383.17 258.768 382.136 258.768 381.005L262.795 385.125ZM262.809 376.885C261.676 376.885 260.67 377.346 259.957 378.086L259.943 378.1C259.23 378.84 258.768 379.86 258.768 380.991L262.809 376.885Z" stroke="#5A5A5A" stroke-width="0.5"/>
<rect x="244" y="435" width="8" height="52" fill="#5A5A5A"/>
<rect x="334" y="362" width="8" height="90" transform="rotate(90 334 362)" fill="#5A5A5A"/>
<rect x="252" y="408" width="8" height="65" transform="rotate(-180 252 408)" fill="#5A5A5A"/>
<rect x="251.99" y="311.845" width="8" height="20.8424" transform="rotate(-179.96 251.99 311.845)" fill="#5A5A5A"/>
<rect x="87" y="408" width="16" height="107" transform="rotate(-90 87 408)" fill="#5A5A5A"/>
<rect x="181" y="392" width="16" height="301" fill="#5A5A5A"/>
<rect x="239" y="294" width="16" height="91" transform="rotate(-90 239 294)" fill="#5A5A5A"/>
<rect y="323" width="16" height="103" transform="rotate(-90 0 323)" fill="#5A5A5A"/>
<rect x="87" y="278" width="16" height="51" fill="#5A5A5A"/>
<rect x="138" y="278" width="16" height="51" transform="rotate(90 138 278)" fill="#5A5A5A"/>
<rect x="87" y="362" width="16" height="46" fill="#5A5A5A"/>
<circle cx="245.5" cy="151.5" r="39.5" fill="#5A5A5A"/>
<path d="M222.18 148.38V146.4H230.73V148.38L225.69 159H223.44L228.39 148.56V148.38H222.18ZM231.006 156.48V154.5L235.236 146.4H237.486L233.256 154.5H237.396V151.44H237.486H239.466V154.5H241.266V156.48H239.466V159H237.396V156.48H231.006ZM241.986 158.01C241.986 157.65 242.1 157.35 242.328 157.11C242.568 156.87 242.862 156.75 243.21 156.75C243.606 156.75 243.918 156.894 244.146 157.182C244.386 157.47 244.506 157.896 244.506 158.46C244.506 159.384 244.284 160.092 243.84 160.584C243.408 161.088 242.82 161.34 242.076 161.34V160.44C242.436 160.44 242.718 160.338 242.922 160.134C243.138 159.942 243.246 159.684 243.246 159.36V159.252C243.234 159.24 243.228 159.216 243.228 159.18V159.126L243.12 159.162C243.084 159.174 243.006 159.18 242.886 159.18C242.646 159.18 242.436 159.072 242.256 158.856C242.076 158.64 241.986 158.358 241.986 158.01ZM245.761 155.4H247.921C248.005 155.772 248.167 156.102 248.407 156.39C248.947 157.05 249.715 157.38 250.711 157.38C251.539 157.38 252.193 157.176 252.673 156.768C253.165 156.348 253.411 155.832 253.411 155.22C253.411 154.524 253.189 153.978 252.745 153.582C252.313 153.174 251.695 152.97 250.891 152.97H247.831V151.17L251.611 148.47V148.38H246.391V146.4H254.671V148.362L251.431 150.72L250.531 151.08V151.17L250.819 151.134C251.215 151.098 251.449 151.08 251.521 151.08C252.649 151.08 253.591 151.47 254.347 152.25C255.103 153.03 255.481 154.02 255.481 155.22C255.481 156.372 255.037 157.35 254.149 158.154C253.261 158.958 252.115 159.36 250.711 159.36C248.851 159.36 247.477 158.7 246.589 157.38C246.205 156.816 245.929 156.156 245.761 155.4ZM256.839 155.58C256.839 154.488 257.259 153.618 258.099 152.97C258.459 152.718 258.879 152.526 259.359 152.394V152.286C258.987 152.142 258.657 151.944 258.369 151.692C257.709 151.128 257.379 150.384 257.379 149.46C257.379 148.512 257.781 147.708 258.585 147.048C259.401 146.376 260.499 146.04 261.879 146.04C263.259 146.04 264.351 146.376 265.155 147.048C265.971 147.708 266.379 148.512 266.379 149.46C266.379 150.36 266.049 151.104 265.389 151.692C265.077 151.944 264.747 152.142 264.399 152.286V152.394C264.855 152.514 265.275 152.712 265.659 152.988C266.499 153.636 266.919 154.5 266.919 155.58C266.919 156.624 266.463 157.518 265.551 158.262C264.651 158.994 263.427 159.36 261.879 159.36C260.331 159.36 259.101 158.994 258.189 158.262C257.289 157.518 256.839 156.624 256.839 155.58ZM259.539 149.64C259.539 150.168 259.743 150.6 260.151 150.936C260.559 151.272 261.135 151.44 261.879 151.44C262.623 151.44 263.199 151.272 263.607 150.936C264.015 150.6 264.219 150.168 264.219 149.64C264.219 149.16 264.009 148.758 263.589 148.434C263.181 148.098 262.611 147.93 261.879 147.93C261.147 147.93 260.571 148.098 260.151 148.434C259.743 148.758 259.539 149.16 259.539 149.64ZM259.755 153.942C259.251 154.338 258.999 154.824 258.999 155.4C258.999 155.976 259.251 156.468 259.755 156.876C260.271 157.272 260.979 157.47 261.879 157.47C262.779 157.47 263.481 157.272 263.985 156.876C264.501 156.468 264.759 155.976 264.759 155.4C264.759 154.824 264.501 154.338 263.985 153.942C263.481 153.534 262.779 153.33 261.879 153.33C260.979 153.33 260.271 153.534 259.755 153.942Z" fill="white"/>
<rect x="176" y="294" width="16" height="26" transform="rotate(-90 176 294)" fill="#5A5A5A"/>
<rect y="60" width="16" height="252" fill="#5A5A5A"/>
<rect x="95" y="90" width="30" height="91" transform="rotate(-90 95 90)" fill="#5A5A5A"/>
<rect y="90" width="30" height="40" transform="rotate(-90 0 90)" fill="#5A5A5A"/>
<rect x="189" y="693" width="30" height="52" transform="rotate(-90 189 693)" fill="#5A5A5A"/>
<path d="M28.25 89.7498L185.687 89.5982L185.749 78.25L28.25 78.25L28.25 89.7498Z" stroke="#5A5A5A" stroke-width="0.5" stroke-miterlimit="10"/>
<path d="M28.25 71.7498L185.687 71.5982L185.749 60.25L28.25 60.25L28.25 71.7498Z" stroke="#5A5A5A" stroke-width="0.5" stroke-miterlimit="10"/>
<line x1="246.45" y1="310.217" x2="232.45" y2="339.217" stroke="#5A5A5A"/>
<line x1="231.444" y1="408.77" x2="245.444" y2="435.77" stroke="#5A5A5A"/>
<line x1="194.781" y1="471.551" x2="233.781" y2="452.551" stroke="#5A5A5A"/>
<line x1="240.272" y1="292.42" x2="206.272" y2="314.42" stroke="#5A5A5A"/>
<line y1="-0.5" x2="44.7772" y2="-0.5" transform="matrix(0.870978 0.491321 0.491321 -0.870978 134 291)" stroke="#5A5A5A"/>
<line x1="89.4254" y1="326.263" x2="68.4254" y2="360.263" stroke="#5A5A5A"/>
<path d="M307.703 316.241L308.883 316.258L311.949 316.241L319.541 316.241L319.541 326.198L307.703 326.198C304.686 326.198 302.227 323.955 302.227 321.203C302.227 318.485 304.686 316.241 307.703 316.241Z" fill="white" stroke="#5A5A5A" stroke-width="0.5"/>
<path d="M307.769 317.387L308.704 317.387L316.262 317.387L316.262 325.068L308.704 325.068L307.769 325.052C305.392 325.052 303.457 323.349 303.457 321.22C303.473 319.107 305.408 317.387 307.769 317.387Z" fill="white" stroke="#5A5A5A" stroke-width="0.5"/>
<path d="M325.903 328L320.64 328C320.033 328 319.541 327.509 319.541 326.903L319.541 315.619C319.541 315.013 320.033 314.521 320.64 314.521L325.903 314.521C326.509 314.521 327.001 315.013 327.001 315.619L327.001 326.886C327.001 327.509 326.509 328 325.903 328Z" fill="white" stroke="#5A5A5A" stroke-width="0.5"/>
<path d="M323.279 321.908C322.869 321.908 322.557 321.613 322.557 321.269C322.541 320.909 322.869 320.614 323.279 320.614C323.688 320.614 324 320.909 324 321.252C323.984 321.629 323.672 321.924 323.279 321.908Z" fill="white" stroke="#5A5A5A" stroke-width="0.5"/>
<path d="M271.855 307.46L271.855 295.152C271.855 294.296 272.539 293.611 273.393 293.611L291.913 293.611C292.767 293.611 293.451 294.296 293.451 295.152L293.451 307.46C293.451 308.315 292.767 309 291.913 309L273.393 309C272.553 309 271.855 308.315 271.855 307.46Z" fill="white" stroke="#5A5A5A" stroke-width="0.5"/>
<path d="M273.777 302.768L273.777 300.871C273.777 298.375 275.8 296.35 278.293 296.35L287.011 296.35C289.504 296.35 291.527 298.375 291.527 300.871L291.527 302.768C291.527 305.263 289.504 307.289 287.011 307.289L278.293 307.289C275.8 307.289 273.777 305.263 273.777 302.768Z" fill="white" stroke="#5A5A5A" stroke-width="0.5"/>
<path d="M281.699 304.878C281.699 304.335 282.126 303.894 282.653 303.894C283.18 303.894 283.607 304.335 283.607 304.878C283.607 305.422 283.18 305.862 282.653 305.862C282.126 305.862 281.699 305.422 281.699 304.878Z" fill="white" stroke="#5A5A5A" stroke-width="0.5"/>
<path d="M16.0008 258.325L40.9961 258.325L40.9961 234L16.0008 234L16.0008 258.325Z" fill="white" stroke="#5A5A5A" stroke-width="0.5"/>
<path d="M38.9687 257.398L19.5157 257.398C18.7778 257.398 18.3853 257.006 18.3853 256.236L18.3853 236.089C18.3853 235.303 18.7621 234.926 19.5157 234.926L38.9687 234.926C39.7223 234.911 40.0992 235.303 40.0992 236.073L40.0992 256.22C40.1149 257.006 39.7223 257.398 38.9687 257.398Z" fill="white" stroke="#5A5A5A" stroke-width="0.5"/>
<path d="M37.1797 250.897C37.164 249.107 35.7509 247.646 34.0082 247.646C32.2497 247.646 30.8367 249.107 30.8367 250.897C30.8367 252.703 32.2497 254.147 34.0082 254.147C35.7666 254.147 37.1797 252.703 37.1797 250.897Z" stroke="#5A5A5A" stroke-width="0.5"/>
<path d="M37.1503 241.271C37.1346 239.481 35.7215 238.02 33.9787 238.02C32.2203 238.02 30.8072 239.481 30.8072 241.271C30.8072 243.077 32.2203 244.522 33.9787 244.522C35.7372 244.537 37.166 243.077 37.1503 241.271Z" stroke="#5A5A5A" stroke-width="0.5"/>
<path d="M28.1367 241.271C28.1367 239.465 26.7237 238.02 24.9652 238.02C23.2067 238.02 21.7937 239.481 21.7937 241.271C21.8094 243.061 23.2224 244.522 24.9652 244.522C26.708 244.522 28.1367 243.061 28.1367 241.271Z" stroke="#5A5A5A" stroke-width="0.5"/>
<path d="M28.1367 250.897C28.1367 249.091 26.7237 247.646 24.9652 247.646C23.2067 247.646 21.7937 249.107 21.7937 250.897C21.8094 252.687 23.2224 254.147 24.9652 254.147C26.708 254.147 28.1367 252.687 28.1367 250.897Z" stroke="#5A5A5A" stroke-width="0.5"/>
<path d="M37 307.088L37 283L60.699 283L60.699 307.104L37 307.088Z" fill="white" stroke="#5A5A5A" stroke-width="0.5"/>
<path d="M38.8027 300.482L38.8027 287.165C38.8027 286.423 39.1664 286.059 39.924 286.059L57.5316 286.059C58.259 286.059 58.6378 286.423 58.653 287.15L58.6378 300.482C58.653 301.209 58.2741 301.573 57.5317 301.573L39.924 301.573C39.1816 301.603 38.8027 301.225 38.8027 300.482Z" fill="white" stroke="#5A5A5A" stroke-width="0.5"/>
<path d="M48.7274 305.24C49.6517 305.225 50.3942 304.528 50.3942 303.649L49.7426 296.665L49.7275 296.65C49.7275 296.12 49.288 295.695 48.7274 295.695C48.1667 295.695 47.7273 296.12 47.7121 296.665L47.0605 303.649C47.0605 304.513 47.803 305.225 48.7274 305.24Z" stroke="#5A5A5A" stroke-width="0.5"/>
<mask id="path-71-inside-1_69_2373" fill="white">
<path fill-rule="evenodd" clip-rule="evenodd" d="M50.1074 304.557L49.7438 300.755C49.7286 300.224 49.2892 299.785 48.7134 299.8C48.1527 299.8 47.7284 300.224 47.7133 300.755L47.3496 304.557"/>
</mask>
<path fill-rule="evenodd" clip-rule="evenodd" d="M50.1074 304.557L49.7438 300.755C49.7286 300.224 49.2892 299.785 48.7134 299.8C48.1527 299.8 47.7284 300.224 47.7133 300.755L47.3496 304.557" fill="white"/>
<path d="M49.7438 300.755L49.244 300.769L49.2444 300.786L49.246 300.802L49.7438 300.755ZM48.7134 299.8L48.7134 300.3L48.7265 300.3L48.7134 299.8ZM47.7133 300.755L48.211 300.802L48.2126 300.786L48.2131 300.769L47.7133 300.755ZM50.6052 304.51L50.2415 300.707L49.246 300.802L49.6097 304.605L50.6052 304.51ZM50.2436 300.74C50.2205 299.935 49.5525 299.278 48.7002 299.3L48.7265 300.3C49.0259 300.292 49.2367 300.514 49.244 300.769L50.2436 300.74ZM48.7134 299.3C47.884 299.3 47.2364 299.938 47.2135 300.74L48.2131 300.769C48.2204 300.511 48.4214 300.3 48.7134 300.3L48.7134 299.3ZM47.2156 300.707L46.8519 304.51L47.8473 304.605L48.211 300.802L47.2156 300.707Z" fill="#5A5A5A" mask="url(#path-71-inside-1_69_2373)"/>
<rect x="87" y="207" width="2" height="11" fill="#5A5A5A"/>
<rect x="87" y="190" width="2" height="11" fill="#5A5A5A"/>
<rect x="70" y="192" width="2" height="11" transform="rotate(-90 70 192)" fill="#5A5A5A"/>
<rect x="53" y="192" width="2" height="11" transform="rotate(-90 53 192)" fill="#5A5A5A"/>
<rect x="36" y="192" width="2" height="11" transform="rotate(-90 36 192)" fill="#5A5A5A"/>
<rect x="18" y="192" width="2" height="11" transform="rotate(-90 18 192)" fill="#5A5A5A"/>
<rect x="87" y="224" width="2" height="11" fill="#5A5A5A"/>
<rect x="87" y="241" width="2" height="11" fill="#5A5A5A"/>
<rect x="87" y="258" width="2" height="11" fill="#5A5A5A"/>
<rect x="87" y="275" width="2" height="11" fill="#5A5A5A"/>
<line x1="274.257" y1="75.4287" x2="249.257" y2="90.4287" stroke="#5A5A5A"/>
<path d="M177.25 0.250157L287.707 0.313212L287.748 4.74999L177.25 4.75L177.25 0.250157Z" stroke="#5A5A5A" stroke-width="0.5" stroke-miterlimit="10"/>
<rect width="5" height="82" transform="matrix(-1 0 0 1 161 0)" fill="#5A5A5A"/>
<rect width="5" height="79" transform="matrix(-1 0 0 1 303 3)" fill="#5A5A5A"/>
<rect width="5" height="19" transform="matrix(4.37114e-08 1 1 -4.37114e-08 284 0)" fill="#5A5A5A"/>
<rect width="5" height="19" transform="matrix(4.37114e-08 1 1 -4.37114e-08 159 0)" fill="#5A5A5A"/>
<path d="M246.75 60.2503L183.275 60.3131L183.251 64.75L246.75 64.75L246.75 60.2503Z" stroke="#5A5A5A" stroke-width="0.5" stroke-miterlimit="10"/>
<path d="M246.75 70.2503L183.275 70.3131L183.251 74.75L246.75 74.75L246.75 70.2503Z" stroke="#5A5A5A" stroke-width="0.5" stroke-miterlimit="10"/>
<line x1="239.743" y1="674.571" x2="264.743" y2="659.571" stroke="#5A5A5A"/>
<path d="M306.75 749.75L216.285 749.687L216.252 745.25L306.75 745.25L306.75 749.75Z" stroke="#5A5A5A" stroke-width="0.5" stroke-miterlimit="10"/>
<rect width="5" height="82" transform="matrix(1 0 0 -1 323 750)" fill="#5A5A5A"/>
<rect width="5" height="79" transform="matrix(1 0 0 -1 211 747)" fill="#5A5A5A"/>
<rect width="5" height="19" transform="matrix(-4.37114e-08 -1 -1 4.37114e-08 230 750)" fill="#5A5A5A"/>
<rect width="5" height="19" transform="matrix(-4.37114e-08 -1 -1 4.37114e-08 325 750)" fill="#5A5A5A"/>
<path d="M267.25 689.75L330.725 689.687L330.749 685.25L267.25 685.25L267.25 689.75Z" stroke="#5A5A5A" stroke-width="0.5" stroke-miterlimit="10"/>
<path d="M267.25 679.75L330.725 679.687L330.749 675.25L267.25 675.25L267.25 679.75Z" stroke="#5A5A5A" stroke-width="0.5" stroke-miterlimit="10"/>
</svg>
