<svg width="353" height="589" viewBox="0 0 353 589" fill="none" xmlns="http://www.w3.org/2000/svg">
<rect width="259" height="129" transform="matrix(-1.19249e-08 -1 -1 1.19249e-08 342 462)" fill="#E7FFD5"/>
<rect width="96" height="66" transform="matrix(-1.19249e-08 -1 -1 1.19249e-08 271 557)" fill="#E7FFD5"/>
<path d="M341 305L341 81.0001L82 81.0001L82 305L341 305Z" fill="#E7FFD5"/>
<rect width="83" height="63" transform="matrix(-1.19249e-08 -1 -1 1.19249e-08 342 466)" fill="#FDFF9F"/>
<rect width="55.9047" height="29.6454" transform="matrix(0.707107 -0.707107 -0.707107 -0.707107 164.797 517.493)" fill="#FDFF9F"/>
<path d="M222 408L222 203L82 203L82 430L222 408Z" fill="#E7FFD5"/>
<path d="M214 423.817L214 323L84 426L144 490L214 423.817Z" fill="#E7FFD5"/>
<path d="M228 443.817L228 343L118 476L158 510L228 443.817Z" fill="#E7FFD5"/>
<path d="M205 552L205 459L185 459L154 495.5L205 552Z" fill="#E7FFD5"/>
<rect width="30" height="53" transform="matrix(-1.19249e-08 -1 -1 1.19249e-08 343 81.0001)" fill="#5A5A5A"/>
<rect width="12" height="419" transform="matrix(-1 0 0 1 353 51)" fill="#5A5A5A"/>
<rect width="2" height="11" transform="matrix(-4.37114e-08 1 1 4.37114e-08 110 416)" fill="#5A5A5A"/>
<rect width="2" height="11" transform="matrix(-4.37114e-08 1 1 4.37114e-08 93 416)" fill="#5A5A5A"/>
<rect width="2" height="11" transform="matrix(-4.37114e-08 1 1 4.37114e-08 76 416)" fill="#5A5A5A"/>
<rect width="2" height="11" transform="matrix(-4.37114e-08 1 1 4.37114e-08 127 416)" fill="#5A5A5A"/>
<rect width="2" height="11" transform="matrix(-4.37114e-08 1 1 4.37114e-08 144 416)" fill="#5A5A5A"/>
<rect width="2" height="11" transform="matrix(-4.37114e-08 1 1 4.37114e-08 161 416)" fill="#5A5A5A"/>
<rect width="2" height="11" transform="matrix(-4.37114e-08 1 1 4.37114e-08 178 416)" fill="#5A5A5A"/>
<rect width="2" height="11" transform="matrix(-4.37114e-08 1 1 4.37114e-08 195 416)" fill="#5A5A5A"/>
<rect width="2" height="11" transform="matrix(-4.37114e-08 1 1 4.37114e-08 212 416)" fill="#5A5A5A"/>
<rect width="16" height="233.651" transform="matrix(-0.707107 0.707107 0.707107 0.707107 61.7832 396.131)" fill="#5A5A5A"/>
<rect width="16" height="61" transform="matrix(4.37114e-08 1 1 -4.37114e-08 216 557)" fill="#5A5A5A"/>
<rect width="16" height="54" transform="matrix(-1 -8.74228e-08 -8.74228e-08 1 287 519)" fill="#5A5A5A"/>
<rect width="16" height="23" transform="matrix(-1 -8.74228e-08 -8.74228e-08 1 287 461)" fill="#5A5A5A"/>
<path d="M224.961 445.888L219.304 440.232L155.001 504.535L160.657 510.192L224.961 445.888Z" fill="#5A5A5A"/>
<path d="M279 439H271V462H279L279 439Z" fill="#5A5A5A"/>
<path d="M225 416H217V446H225L225 416Z" fill="#5A5A5A"/>
<path d="M344 386L344 378L271 378L271 386L344 386Z" fill="#5A5A5A"/>
<path d="M271 413H279V362H271L271 413Z" fill="#5A5A5A"/>
<path d="M271 332H279V271H271L271 332Z" fill="#5A5A5A"/>
<path d="M271 267L271 275L342 275L342 267L271 267Z" fill="#5A5A5A"/>
<path d="M220 320L220 328L279 328L279 320L220 320Z" fill="#5A5A5A"/>
<path d="M225 320L218 320L218 338L225 338L225 320Z" fill="#5A5A5A"/>
<path d="M271 461L271 469L344 469L344 461L271 461Z" fill="#5A5A5A"/>
<rect width="30" height="72" transform="matrix(-1.19249e-08 -1 -1 1.19249e-08 233 81)" fill="#5A5A5A"/>
<path d="M81.7498 220.25L81.5982 393.68L70.25 393.748L70.25 220.25L81.7498 220.25Z" stroke="#5A5A5A" stroke-width="0.5" stroke-miterlimit="10"/>
<path d="M81.7498 87.25L81.5981 293.667L70.25 293.748L70.25 87.25L81.7498 87.25Z" stroke="#5A5A5A" stroke-width="0.5" stroke-miterlimit="10"/>
<path d="M172.75 80.7495L102.279 80.5985L102.251 69.25L172.75 69.25L172.75 80.7495Z" stroke="#5A5A5A" stroke-width="0.5" stroke-miterlimit="10"/>
<path d="M63.7498 220.25L63.5982 393.68L52.25 393.748L52.25 220.25L63.7498 220.25Z" stroke="#5A5A5A" stroke-width="0.5" stroke-miterlimit="10"/>
<path d="M63.7498 87.25L63.5981 293.667L52.25 293.748L52.25 87.25L63.7498 87.25Z" stroke="#5A5A5A" stroke-width="0.5" stroke-miterlimit="10"/>
<path d="M172.75 62.7495L102.279 62.5985L102.251 51.25L172.75 51.25L172.75 62.7495Z" stroke="#5A5A5A" stroke-width="0.5" stroke-miterlimit="10"/>
<path d="M218.25 0.250204L299.718 0.313162L299.748 4.74999L218.25 4.75001L218.25 0.250204Z" stroke="#5A5A5A" stroke-width="0.5" stroke-miterlimit="10"/>
<rect width="5" height="74" transform="matrix(-1 0 0 1 215 6.10352e-05)" fill="#5A5A5A"/>
<rect width="5" height="74" transform="matrix(-1 0 0 1 317 6.10352e-05)" fill="#5A5A5A"/>
<rect width="5" height="14" transform="matrix(4.37114e-08 1 1 -4.37114e-08 299 0)" fill="#5A5A5A"/>
<rect width="5" height="15" transform="matrix(4.37114e-08 1 1 -4.37114e-08 210 0)" fill="#5A5A5A"/>
<path d="M226.25 66.7497L269.733 66.6871L269.749 62.2501L226.25 62.2501L226.25 66.7497Z" stroke="#5A5A5A" stroke-width="0.5" stroke-miterlimit="10"/>
<path d="M226.25 56.7497L269.733 56.6871L269.749 52.2501L226.25 52.2501L226.25 56.7497Z" stroke="#5A5A5A" stroke-width="0.5" stroke-miterlimit="10"/>
<line x1="298.255" y1="67.4302" x2="271.255" y2="83.4302" stroke="#5A5A5A"/>
<path d="M0.250169 231.75L0.313216 118.294L4.74999 118.252L4.75002 231.75L0.250169 231.75Z" stroke="#5A5A5A" stroke-width="0.5" stroke-miterlimit="10"/>
<rect width="5" height="74" transform="matrix(1.31134e-07 1 1 -1.31134e-07 0 235)" fill="#5A5A5A"/>
<rect width="5" height="74" transform="matrix(1.31134e-07 1 1 -1.31134e-07 0 106)" fill="#5A5A5A"/>
<rect width="5" height="14" transform="matrix(1 -1.74846e-07 -1.74846e-07 -1 0 121)" fill="#5A5A5A"/>
<rect width="5" height="15" transform="matrix(1 -1.74846e-07 -1.74846e-07 -1 0 240)" fill="#5A5A5A"/>
<path d="M66.7498 223.75L66.6869 159.275L62.25 159.251L62.25 223.75L66.7498 223.75Z" stroke="#5A5A5A" stroke-width="0.5" stroke-miterlimit="10"/>
<path d="M56.7498 223.75L56.6869 159.275L52.25 159.251L52.25 223.75L56.7498 223.75Z" stroke="#5A5A5A" stroke-width="0.5" stroke-miterlimit="10"/>
<line x1="67.4301" y1="131.745" x2="83.4302" y2="158.745" stroke="#5A5A5A"/>
<rect width="30" height="56" transform="matrix(-1.19249e-08 -1 -1 1.19249e-08 108 81)" fill="#5A5A5A"/>
<rect width="30" height="54" transform="matrix(1 0 0 -1 52 133)" fill="#5A5A5A"/>
<rect width="30" height="123" transform="matrix(-1 0 0 1 82 206)" fill="#5A5A5A"/>
<path d="M82 384H52V406L82 420V384Z" fill="#5A5A5A"/>
<path d="M129.199 462.875L146.873 445.2L129.673 428L111.998 445.674L129.199 462.875Z" fill="white" stroke="#5A5A5A" stroke-width="0.5"/>
<path d="M144.784 445.978L131.029 459.733C130.507 460.255 129.952 460.255 129.408 459.711L115.161 445.464C114.606 444.909 114.606 444.376 115.139 443.843L128.894 430.088C129.416 429.544 129.96 429.555 130.504 430.099L144.751 444.346C145.317 444.89 145.317 445.445 144.784 445.978Z" fill="white" stroke="#5A5A5A" stroke-width="0.5"/>
<path d="M138.922 442.646C137.645 441.391 135.613 441.358 134.381 442.59C133.138 443.833 133.171 445.865 134.437 447.131C135.714 448.408 137.735 448.43 138.978 447.187C140.222 445.944 140.199 443.923 138.922 442.646Z" stroke="#5A5A5A" stroke-width="0.5"/>
<path d="M132.094 435.861C130.817 434.606 128.785 434.573 127.553 435.805C126.309 437.048 126.343 439.08 127.609 440.346C128.886 441.623 130.906 441.645 132.15 440.402C133.404 439.17 133.382 437.127 132.094 435.861Z" stroke="#5A5A5A" stroke-width="0.5"/>
<path d="M125.721 442.234C124.444 440.957 122.423 440.935 121.18 442.178C119.936 443.422 119.97 445.454 121.236 446.72C122.513 447.974 124.545 448.008 125.777 446.776C127.009 445.543 126.987 443.5 125.721 442.234Z" stroke="#5A5A5A" stroke-width="0.5"/>
<path d="M132.528 449.041C131.251 447.764 129.23 447.742 127.986 448.985C126.743 450.228 126.777 452.26 128.042 453.526C129.319 454.781 131.351 454.814 132.584 453.582C133.816 452.35 133.793 450.307 132.528 449.041Z" stroke="#5A5A5A" stroke-width="0.5"/>
<path d="M192.79 467.033L175.757 450L158.999 466.758L176.043 483.802L192.79 467.033Z" fill="white" stroke="#5A5A5A" stroke-width="0.5"/>
<path d="M186.845 463.637L177.428 454.22C176.903 453.696 176.389 453.696 175.853 454.231L163.403 466.682C162.889 467.196 162.878 467.721 163.381 468.246L172.819 477.662C173.323 478.187 173.848 478.177 174.373 477.652L186.823 465.201C187.37 464.698 187.37 464.162 186.845 463.637Z" fill="white" stroke="#5A5A5A" stroke-width="0.5"/>
<path d="M183.191 474.019C182.526 474.662 181.508 474.694 180.887 474.073L176.409 468.674L176.409 468.652C176.034 468.277 176.045 467.667 176.442 467.27C176.838 466.874 177.449 466.863 177.845 467.238L183.244 471.716C183.855 472.326 183.833 473.355 183.191 474.019Z" stroke="#5A5A5A" stroke-width="0.5"/>
<mask id="path-71-inside-1_69_2617" fill="white">
<path fill-rule="evenodd" clip-rule="evenodd" d="M181.732 474.512L179.3 471.566C178.936 471.18 178.936 470.559 179.354 470.162C179.75 469.766 180.35 469.766 180.736 470.13L183.682 472.562"/>
</mask>
<path fill-rule="evenodd" clip-rule="evenodd" d="M181.732 474.512L179.3 471.566C178.936 471.18 178.936 470.559 179.354 470.162C179.75 469.766 180.35 469.766 180.736 470.13L183.682 472.562" fill="white"/>
<path d="M179.3 471.566L179.663 471.222L179.675 471.235L179.685 471.248L179.3 471.566ZM179.354 470.162L179.707 470.516L179.698 470.525L179.354 470.162ZM180.736 470.13L180.417 470.516L180.404 470.505L180.392 470.494L180.736 470.13ZM181.346 474.83L178.914 471.884L179.685 471.248L182.117 474.194L181.346 474.83ZM178.936 471.909C178.383 471.324 178.391 470.386 179.009 469.8L179.698 470.525C179.48 470.731 179.488 471.037 179.663 471.222L178.936 471.909ZM179 469.809C179.586 469.222 180.495 469.215 181.079 469.767L180.392 470.494C180.205 470.316 179.914 470.309 179.707 470.516L179 469.809ZM181.054 469.744L184 472.176L183.363 472.947L180.417 470.516L181.054 469.744Z" fill="#5A5A5A" mask="url(#path-71-inside-1_69_2617)"/>
<line x1="273.451" y1="408.217" x2="260.451" y2="435.217" stroke="#5A5A5A"/>
<line x1="273.451" y1="328.217" x2="260.451" y2="355.217" stroke="#5A5A5A"/>
<line x1="301.58" y1="514.271" x2="281.58" y2="483.271" stroke="#5A5A5A"/>
<line y1="-0.5" x2="34.4819" y2="-0.5" transform="matrix(0.870022 0.493013 0.493013 -0.870022 290 571)" stroke="#5A5A5A"/>
<path d="M321.476 407.759L322.657 407.742L325.723 407.759L333.314 407.759L333.314 397.802L321.476 397.802C318.459 397.802 316 400.045 316 402.797C316 405.515 318.459 407.759 321.476 407.759Z" fill="white" stroke="#5A5A5A" stroke-width="0.5"/>
<path d="M321.543 406.613L322.477 406.613L330.036 406.613L330.036 398.932L322.477 398.932L321.543 398.948C319.165 398.948 317.23 400.651 317.23 402.78C317.247 404.893 319.182 406.613 321.543 406.613Z" fill="white" stroke="#5A5A5A" stroke-width="0.5"/>
<path d="M339.676 396L334.413 396C333.806 396 333.314 396.491 333.314 397.097L333.314 408.381C333.314 408.987 333.806 409.479 334.413 409.479L339.676 409.479C340.283 409.479 340.775 408.987 340.775 408.381L340.775 397.114C340.775 396.491 340.283 396 339.676 396Z" fill="white" stroke="#5A5A5A" stroke-width="0.5"/>
<path d="M337.052 402.092C336.642 402.092 336.331 402.387 336.331 402.731C336.314 403.091 336.642 403.386 337.052 403.386C337.462 403.386 337.773 403.091 337.773 402.747C337.757 402.371 337.445 402.076 337.052 402.092Z" fill="white" stroke="#5A5A5A" stroke-width="0.5"/>
<path d="M321.476 352.838L322.657 352.854L325.723 352.838L333.314 352.838L333.314 362.795L321.476 362.795C318.459 362.795 316 360.552 316 357.8C316 355.082 318.459 352.838 321.476 352.838Z" fill="white" stroke="#5A5A5A" stroke-width="0.5"/>
<path d="M321.543 353.984L322.477 353.984L330.036 353.984L330.036 361.665L322.477 361.665L321.543 361.649C319.165 361.649 317.23 359.945 317.23 357.816C317.247 355.704 319.182 353.984 321.543 353.984Z" fill="white" stroke="#5A5A5A" stroke-width="0.5"/>
<path d="M339.676 364.597L334.413 364.597C333.806 364.597 333.314 364.105 333.314 363.499L333.314 352.215C333.314 351.609 333.806 351.118 334.413 351.118L339.676 351.118C340.283 351.118 340.775 351.609 340.775 352.215L340.775 363.483C340.775 364.105 340.283 364.597 339.676 364.597Z" fill="white" stroke="#5A5A5A" stroke-width="0.5"/>
<path d="M337.052 358.504C336.642 358.504 336.331 358.21 336.331 357.866C336.314 357.505 336.642 357.211 337.052 357.211C337.462 357.211 337.773 357.505 337.773 357.849C337.757 358.226 337.445 358.521 337.052 358.504Z" fill="white" stroke="#5A5A5A" stroke-width="0.5"/>
<path d="M327.54 446.597L339.848 446.597C340.704 446.597 341.389 445.913 341.389 445.058L341.389 426.539C341.389 425.684 340.704 425 339.848 425L327.54 425C326.685 425 326 425.684 326 426.539L326 445.058C326 445.899 326.685 446.597 327.54 446.597Z" fill="white" stroke="#5A5A5A" stroke-width="0.5"/>
<path d="M332.232 444.673L334.129 444.673C336.625 444.673 338.65 442.651 338.65 440.158L338.65 431.439C338.65 428.946 336.625 426.923 334.129 426.923L332.232 426.923C329.736 426.923 327.711 428.946 327.711 431.439L327.711 440.158C327.711 442.651 329.736 444.673 332.232 444.673Z" fill="white" stroke="#5A5A5A" stroke-width="0.5"/>
<path d="M330.121 436.753C330.664 436.753 331.105 436.326 331.105 435.799C331.105 435.272 330.664 434.844 330.121 434.844C329.577 434.844 329.137 435.272 329.137 435.799C329.137 436.326 329.577 436.753 330.121 436.753Z" fill="white" stroke="#5A5A5A" stroke-width="0.5"/>
<path d="M327.54 319L339.848 319C340.704 319 341.389 319.684 341.389 320.539L341.389 339.058C341.389 339.913 340.704 340.597 339.848 340.597L327.54 340.597C326.685 340.597 326 339.913 326 339.058L326 320.539C326 319.698 326.685 319 327.54 319Z" fill="white" stroke="#5A5A5A" stroke-width="0.5"/>
<path d="M332.232 320.923L334.129 320.923C336.625 320.923 338.65 322.946 338.65 325.439L338.65 334.157C338.65 336.65 336.625 338.673 334.129 338.673L332.232 338.673C329.736 338.673 327.711 336.65 327.711 334.157L327.711 325.439C327.711 322.946 329.736 320.923 332.232 320.923Z" fill="white" stroke="#5A5A5A" stroke-width="0.5"/>
<path d="M330.121 328.843C330.664 328.843 331.105 329.271 331.105 329.798C331.105 330.325 330.664 330.752 330.121 330.752C329.577 330.752 329.137 330.325 329.137 329.798C329.137 329.271 329.577 328.844 330.121 328.843Z" fill="white" stroke="#5A5A5A" stroke-width="0.5"/>
<path d="M339.626 301.411L280.013 301.411C279.249 301.411 278.639 300.801 278.639 300.038L278.639 276.373C278.639 275.61 279.249 275 280.013 275L339.626 275C340.389 275 341 275.61 341 276.373L341 300.038C341 300.801 340.375 301.411 339.626 301.411Z" fill="white" stroke="#5A5A5A" stroke-width="0.5"/>
<path d="M282.302 291.415L282.302 284.982C282.302 281.252 285.328 278.244 289.048 278.244L335.989 278.244C336.905 278.244 337.641 278.979 337.641 279.894L337.641 296.53C337.641 297.445 336.905 298.18 335.989 298.18L289.062 298.18C285.328 298.166 282.302 295.144 282.302 291.415Z" fill="white" stroke="#5A5A5A" stroke-width="0.5"/>
<path d="M332.077 288.67C332.077 289.413 332.705 290.015 333.479 290.015C334.253 290.015 334.881 289.413 334.881 288.67C334.881 287.927 334.253 287.325 333.479 287.325C332.705 287.325 332.077 287.927 332.077 288.67Z" fill="white" stroke="#5A5A5A" stroke-width="0.5"/>
<circle cx="200.5" cy="183.5" r="39.5" fill="#5A5A5A"/>
<path d="M176.18 180.38V178.4H184.73V180.38L179.69 191H177.44L182.39 180.56V180.38H176.18ZM185.808 187.58C185.808 186.488 186.228 185.618 187.068 184.97C187.428 184.718 187.848 184.526 188.328 184.394V184.286C187.956 184.142 187.626 183.944 187.338 183.692C186.678 183.128 186.348 182.384 186.348 181.46C186.348 180.512 186.75 179.708 187.554 179.048C188.37 178.376 189.468 178.04 190.848 178.04C192.228 178.04 193.32 178.376 194.124 179.048C194.94 179.708 195.348 180.512 195.348 181.46C195.348 182.36 195.018 183.104 194.358 183.692C194.046 183.944 193.716 184.142 193.368 184.286V184.394C193.824 184.514 194.244 184.712 194.628 184.988C195.468 185.636 195.888 186.5 195.888 187.58C195.888 188.624 195.432 189.518 194.52 190.262C193.62 190.994 192.396 191.36 190.848 191.36C189.3 191.36 188.07 190.994 187.158 190.262C186.258 189.518 185.808 188.624 185.808 187.58ZM188.508 181.64C188.508 182.168 188.712 182.6 189.12 182.936C189.528 183.272 190.104 183.44 190.848 183.44C191.592 183.44 192.168 183.272 192.576 182.936C192.984 182.6 193.188 182.168 193.188 181.64C193.188 181.16 192.978 180.758 192.558 180.434C192.15 180.098 191.58 179.93 190.848 179.93C190.116 179.93 189.54 180.098 189.12 180.434C188.712 180.758 188.508 181.16 188.508 181.64ZM188.724 185.942C188.22 186.338 187.968 186.824 187.968 187.4C187.968 187.976 188.22 188.468 188.724 188.876C189.24 189.272 189.948 189.47 190.848 189.47C191.748 189.47 192.45 189.272 192.954 188.876C193.47 188.468 193.728 187.976 193.728 187.4C193.728 186.824 193.47 186.338 192.954 185.942C192.45 185.534 191.748 185.33 190.848 185.33C189.948 185.33 189.24 185.534 188.724 185.942ZM197.322 190.01C197.322 189.65 197.436 189.35 197.664 189.11C197.904 188.87 198.198 188.75 198.546 188.75C198.942 188.75 199.254 188.894 199.482 189.182C199.722 189.47 199.842 189.896 199.842 190.46C199.842 191.384 199.62 192.092 199.176 192.584C198.744 193.088 198.156 193.34 197.412 193.34V192.44C197.772 192.44 198.054 192.338 198.258 192.134C198.474 191.942 198.582 191.684 198.582 191.36V191.252C198.57 191.24 198.564 191.216 198.564 191.18V191.126L198.456 191.162C198.42 191.174 198.342 191.18 198.222 191.18C197.982 191.18 197.772 191.072 197.592 190.856C197.412 190.64 197.322 190.358 197.322 190.01ZM203.077 189.488C201.937 188.24 201.367 186.644 201.367 184.7C201.367 182.756 201.937 181.16 203.077 179.912C204.217 178.664 205.597 178.04 207.217 178.04C208.837 178.04 210.217 178.664 211.357 179.912C212.497 181.16 213.067 182.756 213.067 184.7C213.067 186.644 212.497 188.24 211.357 189.488C210.217 190.736 208.837 191.36 207.217 191.36C205.597 191.36 204.217 190.736 203.077 189.488ZM204.553 181.244C203.869 182.06 203.527 183.212 203.527 184.7C203.527 186.188 203.869 187.34 204.553 188.156C205.249 188.972 206.137 189.38 207.217 189.38C208.297 189.38 209.179 188.972 209.863 188.156C210.559 187.34 210.907 186.188 210.907 184.7C210.907 183.212 210.559 182.06 209.863 181.244C209.179 180.428 208.297 180.02 207.217 180.02C206.137 180.02 205.249 180.428 204.553 181.244ZM214.511 186.86C214.511 186.284 214.637 185.684 214.889 185.06C215.153 184.424 215.405 183.926 215.645 183.566C215.897 183.194 216.239 182.732 216.671 182.18L219.551 178.4H221.981L219.263 181.946L218.471 182.63V182.72L218.831 182.594C219.191 182.498 219.581 182.45 220.001 182.45C221.177 182.45 222.173 182.876 222.989 183.728C223.817 184.568 224.231 185.612 224.231 186.86C224.231 188.132 223.775 189.2 222.863 190.064C221.951 190.928 220.787 191.36 219.371 191.36C217.955 191.36 216.791 190.928 215.879 190.064C214.967 189.2 214.511 188.132 214.511 186.86ZM217.409 184.988C216.917 185.468 216.671 186.092 216.671 186.86C216.671 187.628 216.917 188.258 217.409 188.75C217.901 189.23 218.555 189.47 219.371 189.47C220.187 189.47 220.841 189.23 221.333 188.75C221.825 188.258 222.071 187.628 222.071 186.86C222.071 186.092 221.825 185.468 221.333 184.988C220.841 184.496 220.187 184.25 219.371 184.25C218.555 184.25 217.901 184.496 217.409 184.988Z" fill="white"/>
<path d="M285.42 433.2H287.1C287.165 433.489 287.291 433.746 287.478 433.97C287.898 434.483 288.495 434.74 289.27 434.74C289.914 434.74 290.423 434.581 290.796 434.264C291.179 433.937 291.37 433.536 291.37 433.06C291.37 432.519 291.197 432.094 290.852 431.786C290.516 431.469 290.035 431.31 289.41 431.31H287.03V429.91L289.97 427.81V427.74H285.91V426.2H292.35V427.726L289.83 429.56L289.13 429.84V429.91L289.354 429.882C289.662 429.854 289.844 429.84 289.9 429.84C290.777 429.84 291.51 430.143 292.098 430.75C292.686 431.357 292.98 432.127 292.98 433.06C292.98 433.956 292.635 434.717 291.944 435.342C291.253 435.967 290.362 436.28 289.27 436.28C287.823 436.28 286.755 435.767 286.064 434.74C285.765 434.301 285.551 433.788 285.42 433.2ZM294.037 435.23C294.037 434.95 294.125 434.717 294.303 434.53C294.489 434.343 294.718 434.25 294.989 434.25C295.297 434.25 295.539 434.362 295.717 434.586C295.903 434.81 295.997 435.141 295.997 435.58C295.997 436.299 295.824 436.849 295.479 437.232C295.143 437.624 294.685 437.82 294.107 437.82V437.12C294.387 437.12 294.606 437.041 294.765 436.882C294.933 436.733 295.017 436.532 295.017 436.28V436.196C295.007 436.187 295.003 436.168 295.003 436.14V436.098L294.919 436.126C294.891 436.135 294.83 436.14 294.737 436.14C294.55 436.14 294.387 436.056 294.247 435.888C294.107 435.72 294.037 435.501 294.037 435.23ZM296.693 427.74V426.2H303.343V427.74L299.423 436H297.673L301.523 427.88V427.74H296.693ZM305.581 434.824C304.694 433.853 304.251 432.612 304.251 431.1C304.251 429.588 304.694 428.347 305.581 427.376C306.468 426.405 307.541 425.92 308.801 425.92C310.061 425.92 311.134 426.405 312.021 427.376C312.908 428.347 313.351 429.588 313.351 431.1C313.351 432.612 312.908 433.853 312.021 434.824C311.134 435.795 310.061 436.28 308.801 436.28C307.541 436.28 306.468 435.795 305.581 434.824ZM306.729 428.412C306.197 429.047 305.931 429.943 305.931 431.1C305.931 432.257 306.197 433.153 306.729 433.788C307.27 434.423 307.961 434.74 308.801 434.74C309.641 434.74 310.327 434.423 310.859 433.788C311.4 433.153 311.671 432.257 311.671 431.1C311.671 429.943 311.4 429.047 310.859 428.412C310.327 427.777 309.641 427.46 308.801 427.46C307.961 427.46 307.27 427.777 306.729 428.412Z" fill="#333333"/>
<path d="M139.56 315.27H141.24C141.315 315.559 141.441 315.807 141.618 316.012C142.029 316.497 142.626 316.74 143.41 316.74C144.035 316.74 144.53 316.572 144.894 316.236C145.258 315.9 145.44 315.461 145.44 314.92C145.44 314.351 145.258 313.893 144.894 313.548C144.53 313.203 144.035 313.03 143.41 313.03C142.831 313.03 142.341 313.184 141.94 313.492C141.781 313.613 141.641 313.763 141.52 313.94H139.98L140.4 308.2H146.35V309.74H141.73L141.52 312.26H141.59C141.739 312.111 141.912 311.985 142.108 311.882C142.547 311.621 143.074 311.49 143.69 311.49C144.67 311.49 145.487 311.817 146.14 312.47C146.793 313.123 147.12 313.94 147.12 314.92C147.12 315.881 146.775 316.684 146.084 317.328C145.403 317.963 144.511 318.28 143.41 318.28C141.973 318.28 140.904 317.781 140.204 316.782C139.905 316.343 139.691 315.839 139.56 315.27ZM147.823 316.04V314.5L151.113 308.2H152.863L149.573 314.5H152.793V312.12H152.863H154.403V314.5H155.803V316.04H154.403V318H152.793V316.04H147.823ZM156.363 317.23C156.363 316.95 156.451 316.717 156.629 316.53C156.815 316.343 157.044 316.25 157.315 316.25C157.623 316.25 157.865 316.362 158.043 316.586C158.229 316.81 158.323 317.141 158.323 317.58C158.323 318.299 158.15 318.849 157.805 319.232C157.469 319.624 157.011 319.82 156.433 319.82V319.12C156.713 319.12 156.932 319.041 157.091 318.882C157.259 318.733 157.343 318.532 157.343 318.28V318.196C157.333 318.187 157.329 318.168 157.329 318.14V318.098L157.245 318.126C157.217 318.135 157.156 318.14 157.063 318.14C156.876 318.14 156.713 318.056 156.573 317.888C156.433 317.72 156.363 317.501 156.363 317.23ZM159.439 315.27H161.119C161.194 315.559 161.32 315.807 161.497 316.012C161.908 316.497 162.505 316.74 163.289 316.74C163.914 316.74 164.409 316.572 164.773 316.236C165.137 315.9 165.319 315.461 165.319 314.92C165.319 314.351 165.137 313.893 164.773 313.548C164.409 313.203 163.914 313.03 163.289 313.03C162.71 313.03 162.22 313.184 161.819 313.492C161.66 313.613 161.52 313.763 161.399 313.94H159.859L160.279 308.2H166.229V309.74H161.609L161.399 312.26H161.469C161.618 312.111 161.791 311.985 161.987 311.882C162.426 311.621 162.953 311.49 163.569 311.49C164.549 311.49 165.366 311.817 166.019 312.47C166.672 313.123 166.999 313.94 166.999 314.92C166.999 315.881 166.654 316.684 165.963 317.328C165.282 317.963 164.39 318.28 163.289 318.28C161.852 318.28 160.783 317.781 160.083 316.782C159.784 316.343 159.57 315.839 159.439 315.27ZM167.912 315.2H169.592C169.658 315.489 169.784 315.746 169.97 315.97C170.39 316.483 170.988 316.74 171.762 316.74C172.406 316.74 172.915 316.581 173.288 316.264C173.671 315.937 173.862 315.536 173.862 315.06C173.862 314.519 173.69 314.094 173.344 313.786C173.008 313.469 172.528 313.31 171.902 313.31H169.522V311.91L172.462 309.81V309.74H168.402V308.2H174.842V309.726L172.322 311.56L171.622 311.84V311.91L171.846 311.882C172.154 311.854 172.336 311.84 172.392 311.84C173.27 311.84 174.002 312.143 174.59 312.75C175.178 313.357 175.472 314.127 175.472 315.06C175.472 315.956 175.127 316.717 174.436 317.342C173.746 317.967 172.854 318.28 171.762 318.28C170.316 318.28 169.247 317.767 168.556 316.74C168.258 316.301 168.043 315.788 167.912 315.2Z" fill="#333333"/>
<path d="M245.42 25.2H247.1C247.165 25.4893 247.291 25.746 247.478 25.97C247.898 26.4833 248.495 26.74 249.27 26.74C249.914 26.74 250.423 26.5813 250.796 26.264C251.179 25.9373 251.37 25.536 251.37 25.06C251.37 24.5187 251.197 24.094 250.852 23.786C250.516 23.4687 250.035 23.31 249.41 23.31H247.03V21.91L249.97 19.81V19.74H245.91V18.2H252.35V19.726L249.83 21.56L249.13 21.84V21.91L249.354 21.882C249.662 21.854 249.844 21.84 249.9 21.84C250.777 21.84 251.51 22.1433 252.098 22.75C252.686 23.3567 252.98 24.1267 252.98 25.06C252.98 25.956 252.635 26.7167 251.944 27.342C251.253 27.9673 250.362 28.28 249.27 28.28C247.823 28.28 246.755 27.7667 246.064 26.74C245.765 26.3013 245.551 25.788 245.42 25.2ZM254.037 27.23C254.037 26.95 254.125 26.7167 254.303 26.53C254.489 26.3433 254.718 26.25 254.989 26.25C255.297 26.25 255.539 26.362 255.717 26.586C255.903 26.81 255.997 27.1413 255.997 27.58C255.997 28.2987 255.824 28.8493 255.479 29.232C255.143 29.624 254.685 29.82 254.107 29.82V29.12C254.387 29.12 254.606 29.0407 254.765 28.882C254.933 28.7327 255.017 28.532 255.017 28.28V28.196C255.007 28.1867 255.003 28.168 255.003 28.14V28.098L254.919 28.126C254.891 28.1353 254.83 28.14 254.737 28.14C254.55 28.14 254.387 28.056 254.247 27.888C254.107 27.72 254.037 27.5007 254.037 27.23ZM257.043 24.78C257.043 24.332 257.141 23.8653 257.337 23.38C257.542 22.8853 257.738 22.498 257.925 22.218C258.121 21.9287 258.387 21.5693 258.723 21.14L260.963 18.2H262.853L260.739 20.958L260.123 21.49V21.56L260.403 21.462C260.683 21.3873 260.986 21.35 261.313 21.35C262.227 21.35 263.002 21.6813 263.637 22.344C264.281 22.9973 264.603 23.8093 264.603 24.78C264.603 25.7693 264.248 26.6 263.539 27.272C262.829 27.944 261.924 28.28 260.823 28.28C259.721 28.28 258.816 27.944 258.107 27.272C257.397 26.6 257.043 25.7693 257.043 24.78ZM259.297 23.324C258.914 23.6973 258.723 24.1827 258.723 24.78C258.723 25.3773 258.914 25.8673 259.297 26.25C259.679 26.6233 260.188 26.81 260.823 26.81C261.457 26.81 261.966 26.6233 262.349 26.25C262.731 25.8673 262.923 25.3773 262.923 24.78C262.923 24.1827 262.731 23.6973 262.349 23.324C261.966 22.9413 261.457 22.75 260.823 22.75C260.188 22.75 259.679 22.9413 259.297 23.324ZM265.656 24.78C265.656 24.332 265.754 23.8653 265.95 23.38C266.155 22.8853 266.351 22.498 266.538 22.218C266.734 21.9287 267 21.5693 267.336 21.14L269.576 18.2H271.466L269.352 20.958L268.736 21.49V21.56L269.016 21.462C269.296 21.3873 269.599 21.35 269.926 21.35C270.841 21.35 271.615 21.6813 272.25 22.344C272.894 22.9973 273.216 23.8093 273.216 24.78C273.216 25.7693 272.861 26.6 272.152 27.272C271.443 27.944 270.537 28.28 269.436 28.28C268.335 28.28 267.429 27.944 266.72 27.272C266.011 26.6 265.656 25.7693 265.656 24.78ZM267.91 23.324C267.527 23.6973 267.336 24.1827 267.336 24.78C267.336 25.3773 267.527 25.8673 267.91 26.25C268.293 26.6233 268.801 26.81 269.436 26.81C270.071 26.81 270.579 26.6233 270.962 26.25C271.345 25.8673 271.536 25.3773 271.536 24.78C271.536 24.1827 271.345 23.6973 270.962 23.324C270.579 22.9413 270.071 22.75 269.436 22.75C268.801 22.75 268.293 22.9413 267.91 23.324Z" fill="#333333"/>
<path d="M14.21 184.04V182.5L17.5 176.2H19.25L15.96 182.5H19.18V180.12H19.25H20.79V182.5H22.19V184.04H20.79V186H19.18V184.04H14.21ZM22.7495 185.23C22.7495 184.95 22.8381 184.717 23.0155 184.53C23.2021 184.343 23.4308 184.25 23.7015 184.25C24.0095 184.25 24.2521 184.362 24.4295 184.586C24.6161 184.81 24.7095 185.141 24.7095 185.58C24.7095 186.299 24.5368 186.849 24.1915 187.232C23.8555 187.624 23.3981 187.82 22.8195 187.82V187.12C23.0995 187.12 23.3188 187.041 23.4775 186.882C23.6455 186.733 23.7295 186.532 23.7295 186.28V186.196C23.7201 186.187 23.7155 186.168 23.7155 186.14V186.098L23.6315 186.126C23.6035 186.135 23.5428 186.14 23.4495 186.14C23.2628 186.14 23.0995 186.056 22.9595 185.888C22.8195 185.72 22.7495 185.501 22.7495 185.23ZM25.4056 177.74V176.2H32.0556V177.74L28.1356 186H26.3856L30.2356 177.88V177.74H25.4056ZM32.5505 182.78C32.5505 182.332 32.6485 181.865 32.8445 181.38C33.0499 180.885 33.2459 180.498 33.4325 180.218C33.6285 179.929 33.8945 179.569 34.2305 179.14L36.4705 176.2H38.3605L36.2465 178.958L35.6305 179.49V179.56L35.9105 179.462C36.1905 179.387 36.4939 179.35 36.8205 179.35C37.7352 179.35 38.5099 179.681 39.1445 180.344C39.7885 180.997 40.1105 181.809 40.1105 182.78C40.1105 183.769 39.7559 184.6 39.0465 185.272C38.3372 185.944 37.4319 186.28 36.3305 186.28C35.2292 186.28 34.3239 185.944 33.6145 185.272C32.9052 184.6 32.5505 183.769 32.5505 182.78ZM34.8045 181.324C34.4219 181.697 34.2305 182.183 34.2305 182.78C34.2305 183.377 34.4219 183.867 34.8045 184.25C35.1872 184.623 35.6959 184.81 36.3305 184.81C36.9652 184.81 37.4739 184.623 37.8565 184.25C38.2392 183.867 38.4305 183.377 38.4305 182.78C38.4305 182.183 38.2392 181.697 37.8565 181.324C37.4739 180.941 36.9652 180.75 36.3305 180.75C35.6959 180.75 35.1872 180.941 34.8045 181.324Z" fill="#333333"/>
<path d="M156.21 431.04V429.5L159.5 423.2H161.25L157.96 429.5H161.18V427.12H161.25H162.79V429.5H164.19V431.04H162.79V433H161.18V431.04H156.21ZM164.749 432.23C164.749 431.95 164.838 431.717 165.015 431.53C165.202 431.343 165.431 431.25 165.701 431.25C166.009 431.25 166.252 431.362 166.429 431.586C166.616 431.81 166.709 432.141 166.709 432.58C166.709 433.299 166.537 433.849 166.191 434.232C165.855 434.624 165.398 434.82 164.819 434.82V434.12C165.099 434.12 165.319 434.041 165.477 433.882C165.645 433.733 165.729 433.532 165.729 433.28V433.196C165.72 433.187 165.715 433.168 165.715 433.14V433.098L165.631 433.126C165.603 433.135 165.543 433.14 165.449 433.14C165.263 433.14 165.099 433.056 164.959 432.888C164.819 432.72 164.749 432.501 164.749 432.23ZM167.476 431.04V429.5L170.766 423.2H172.516L169.226 429.5H172.446V427.12H172.516H174.056V429.5H175.456V431.04H174.056V433H172.446V431.04H167.476ZM175.945 429.78C175.945 429.332 176.043 428.865 176.239 428.38C176.444 427.885 176.64 427.498 176.827 427.218C177.023 426.929 177.289 426.569 177.625 426.14L179.865 423.2H181.755L179.641 425.958L179.025 426.49V426.56L179.305 426.462C179.585 426.387 179.888 426.35 180.215 426.35C181.13 426.35 181.904 426.681 182.539 427.344C183.183 427.997 183.505 428.809 183.505 429.78C183.505 430.769 183.15 431.6 182.441 432.272C181.732 432.944 180.826 433.28 179.725 433.28C178.624 433.28 177.718 432.944 177.009 432.272C176.3 431.6 175.945 430.769 175.945 429.78ZM178.199 428.324C177.816 428.697 177.625 429.183 177.625 429.78C177.625 430.377 177.816 430.867 178.199 431.25C178.582 431.623 179.09 431.81 179.725 431.81C180.36 431.81 180.868 431.623 181.251 431.25C181.634 430.867 181.825 430.377 181.825 429.78C181.825 429.183 181.634 428.697 181.251 428.324C180.868 427.941 180.36 427.75 179.725 427.75C179.09 427.75 178.582 427.941 178.199 428.324Z" fill="#333333"/>
<path d="M285.21 331.04V329.5L288.5 323.2H290.25L286.96 329.5H290.18V327.12H290.25H291.79V329.5H293.19V331.04H291.79V333H290.18V331.04H285.21ZM293.749 332.23C293.749 331.95 293.838 331.717 294.015 331.53C294.202 331.343 294.431 331.25 294.701 331.25C295.009 331.25 295.252 331.362 295.429 331.586C295.616 331.81 295.709 332.141 295.709 332.58C295.709 333.299 295.537 333.849 295.191 334.232C294.855 334.624 294.398 334.82 293.819 334.82V334.12C294.099 334.12 294.319 334.041 294.477 333.882C294.645 333.733 294.729 333.532 294.729 333.28V333.196C294.72 333.187 294.715 333.168 294.715 333.14V333.098L294.631 333.126C294.603 333.135 294.543 333.14 294.449 333.14C294.263 333.14 294.099 333.056 293.959 332.888C293.819 332.72 293.749 332.501 293.749 332.23ZM296.826 326.42C296.826 325.431 297.18 324.6 297.89 323.928C298.599 323.256 299.504 322.92 300.606 322.92C301.707 322.92 302.612 323.256 303.322 323.928C304.031 324.6 304.386 325.431 304.386 326.42C304.386 327.307 304.017 328.263 303.28 329.29C303.205 329.393 303.102 329.533 302.972 329.71C302.841 329.878 302.752 329.995 302.706 330.06L300.466 333H298.576L300.69 330.242L301.306 329.71V329.64C301.287 329.649 301.194 329.687 301.026 329.752C300.783 329.817 300.48 329.85 300.116 329.85C299.201 329.85 298.422 329.523 297.778 328.87C297.143 328.207 296.826 327.391 296.826 326.42ZM299.08 324.964C298.697 325.337 298.506 325.823 298.506 326.42C298.506 327.017 298.697 327.507 299.08 327.89C299.462 328.263 299.971 328.45 300.606 328.45C301.24 328.45 301.749 328.263 302.132 327.89C302.514 327.507 302.706 327.017 302.706 326.42C302.706 325.823 302.514 325.337 302.132 324.964C301.749 324.581 301.24 324.39 300.606 324.39C299.971 324.39 299.462 324.581 299.08 324.964ZM305.369 329.78C305.369 329.332 305.467 328.865 305.663 328.38C305.868 327.885 306.064 327.498 306.251 327.218C306.447 326.929 306.713 326.569 307.049 326.14L309.289 323.2H311.179L309.065 325.958L308.449 326.49V326.56L308.729 326.462C309.009 326.387 309.312 326.35 309.639 326.35C310.554 326.35 311.328 326.681 311.963 327.344C312.607 327.997 312.929 328.809 312.929 329.78C312.929 330.769 312.574 331.6 311.865 332.272C311.156 332.944 310.25 333.28 309.149 333.28C308.048 333.28 307.142 332.944 306.433 332.272C305.724 331.6 305.369 330.769 305.369 329.78ZM307.623 328.324C307.24 328.697 307.049 329.183 307.049 329.78C307.049 330.377 307.24 330.867 307.623 331.25C308.006 331.623 308.514 331.81 309.149 331.81C309.784 331.81 310.292 331.623 310.675 331.25C311.058 330.867 311.249 330.377 311.249 329.78C311.249 329.183 311.058 328.697 310.675 328.324C310.292 327.941 309.784 327.75 309.149 327.75C308.514 327.75 308.006 327.941 307.623 328.324Z" fill="#333333"/>
<path d="M14.42 354.2H16.1C16.1653 354.489 16.2913 354.746 16.478 354.97C16.898 355.483 17.4953 355.74 18.27 355.74C18.914 355.74 19.4227 355.581 19.796 355.264C20.1787 354.937 20.37 354.536 20.37 354.06C20.37 353.519 20.1973 353.094 19.852 352.786C19.516 352.469 19.0353 352.31 18.41 352.31H16.03V350.91L18.97 348.81V348.74H14.91V347.2H21.35V348.726L18.83 350.56L18.13 350.84V350.91L18.354 350.882C18.662 350.854 18.844 350.84 18.9 350.84C19.7773 350.84 20.51 351.143 21.098 351.75C21.686 352.357 21.98 353.127 21.98 354.06C21.98 354.956 21.6347 355.717 20.944 356.342C20.2533 356.967 19.362 357.28 18.27 357.28C16.8233 357.28 15.7547 356.767 15.064 355.74C14.7653 355.301 14.5507 354.788 14.42 354.2ZM23.0366 356.23C23.0366 355.95 23.1252 355.717 23.3026 355.53C23.4892 355.343 23.7179 355.25 23.9886 355.25C24.2966 355.25 24.5392 355.362 24.7166 355.586C24.9032 355.81 24.9966 356.141 24.9966 356.58C24.9966 357.299 24.8239 357.849 24.4786 358.232C24.1426 358.624 23.6852 358.82 23.1066 358.82V358.12C23.3866 358.12 23.6059 358.041 23.7646 357.882C23.9326 357.733 24.0166 357.532 24.0166 357.28V357.196C24.0072 357.187 24.0026 357.168 24.0026 357.14V357.098L23.9186 357.126C23.8906 357.135 23.8299 357.14 23.7366 357.14C23.5499 357.14 23.3866 357.056 23.2466 356.888C23.1066 356.72 23.0366 356.501 23.0366 356.23ZM26.0427 353.78C26.0427 353.332 26.1407 352.865 26.3367 352.38C26.5421 351.885 26.7381 351.498 26.9247 351.218C27.1207 350.929 27.3867 350.569 27.7227 350.14L29.9627 347.2H31.8527L29.7387 349.958L29.1227 350.49V350.56L29.4027 350.462C29.6827 350.387 29.9861 350.35 30.3127 350.35C31.2274 350.35 32.0021 350.681 32.6367 351.344C33.2807 351.997 33.6027 352.809 33.6027 353.78C33.6027 354.769 33.2481 355.6 32.5387 356.272C31.8294 356.944 30.9241 357.28 29.8227 357.28C28.7214 357.28 27.8161 356.944 27.1067 356.272C26.3974 355.6 26.0427 354.769 26.0427 353.78ZM28.2967 352.324C27.9141 352.697 27.7227 353.183 27.7227 353.78C27.7227 354.377 27.9141 354.867 28.2967 355.25C28.6794 355.623 29.1881 355.81 29.8227 355.81C30.4574 355.81 30.9661 355.623 31.3487 355.25C31.7314 354.867 31.9227 354.377 31.9227 353.78C31.9227 353.183 31.7314 352.697 31.3487 352.324C30.9661 351.941 30.4574 351.75 29.8227 351.75C29.1881 351.75 28.6794 351.941 28.2967 352.324ZM34.656 353.78C34.656 353.332 34.754 352.865 34.95 352.38C35.1553 351.885 35.3513 351.498 35.538 351.218C35.734 350.929 36 350.569 36.336 350.14L38.576 347.2H40.466L38.352 349.958L37.736 350.49V350.56L38.016 350.462C38.296 350.387 38.5993 350.35 38.926 350.35C39.8407 350.35 40.6153 350.681 41.25 351.344C41.894 351.997 42.216 352.809 42.216 353.78C42.216 354.769 41.8613 355.6 41.152 356.272C40.4427 356.944 39.5373 357.28 38.436 357.28C37.3347 357.28 36.4293 356.944 35.72 356.272C35.0107 355.6 34.656 354.769 34.656 353.78ZM36.91 352.324C36.5273 352.697 36.336 353.183 36.336 353.78C36.336 354.377 36.5273 354.867 36.91 355.25C37.2927 355.623 37.8013 355.81 38.436 355.81C39.0707 355.81 39.5793 355.623 39.962 355.25C40.3447 354.867 40.536 354.377 40.536 353.78C40.536 353.183 40.3447 352.697 39.962 352.324C39.5793 351.941 39.0707 351.75 38.436 351.75C37.8013 351.75 37.2927 351.941 36.91 352.324Z" fill="#333333"/>
<path d="M228.35 486.42V484.6L230.17 483.2H231.64V493H230.03V485.16L228.35 486.42ZM234.581 491.824C233.694 490.853 233.251 489.612 233.251 488.1C233.251 486.588 233.694 485.347 234.581 484.376C235.468 483.405 236.541 482.92 237.801 482.92C239.061 482.92 240.134 483.405 241.021 484.376C241.908 485.347 242.351 486.588 242.351 488.1C242.351 489.612 241.908 490.853 241.021 491.824C240.134 492.795 239.061 493.28 237.801 493.28C236.541 493.28 235.468 492.795 234.581 491.824ZM235.729 485.412C235.197 486.047 234.931 486.943 234.931 488.1C234.931 489.257 235.197 490.153 235.729 490.788C236.27 491.423 236.961 491.74 237.801 491.74C238.641 491.74 239.327 491.423 239.859 490.788C240.4 490.153 240.671 489.257 240.671 488.1C240.671 486.943 240.4 486.047 239.859 485.412C239.327 484.777 238.641 484.46 237.801 484.46C236.961 484.46 236.27 484.777 235.729 485.412ZM243.544 492.23C243.544 491.95 243.633 491.717 243.81 491.53C243.997 491.343 244.226 491.25 244.496 491.25C244.804 491.25 245.047 491.362 245.224 491.586C245.411 491.81 245.504 492.141 245.504 492.58C245.504 493.299 245.332 493.849 244.986 494.232C244.65 494.624 244.193 494.82 243.614 494.82V494.12C243.894 494.12 244.114 494.041 244.272 493.882C244.44 493.733 244.524 493.532 244.524 493.28V493.196C244.515 493.187 244.51 493.168 244.51 493.14V493.098L244.426 493.126C244.398 493.135 244.338 493.14 244.244 493.14C244.058 493.14 243.894 493.056 243.754 492.888C243.614 492.72 243.544 492.501 243.544 492.23ZM246.271 491.04V489.5L249.561 483.2H251.311L248.021 489.5H251.241V487.12H251.311H252.851V489.5H254.251V491.04H252.851V493H251.241V491.04H246.271ZM254.6 486.42V484.6L256.42 483.2H257.89V493H256.28V485.16L254.6 486.42Z" fill="#333333"/>
</svg>
