<svg width="481" height="467" viewBox="0 0 481 467" fill="none" xmlns="http://www.w3.org/2000/svg">
<rect x="154" y="435" width="354" height="111" transform="rotate(-90 154 435)" fill="#E7FFD5"/>
<rect x="154" y="183" width="102" height="113" transform="rotate(-90 154 183)" fill="#E7FFD5"/>
<rect x="154" y="354" width="64" height="44" transform="rotate(-90 154 354)" fill="#FDFF9F"/>
<path d="M265 430L265 292L309 292L309 386L265 430Z" fill="#FDFF9F"/>
<rect x="324.672" y="378.784" width="82.9744" height="44" transform="rotate(-135 324.672 378.784)" fill="#FDFF9F"/>
<path d="M283 286L283 81L399 81L399 338L283 286Z" fill="#E7FFD5"/>
<path d="M292.07 283.5L292.07 182.683L402.07 315.683L362.07 349.683L292.07 283.5Z" fill="#E7FFD5"/>
<rect x="16" y="285" width="129" height="267" transform="rotate(-90 16 285)" fill="#E7FFD5"/>
<rect x="123.999" y="81" width="30" height="68" transform="rotate(-90 123.999 81)" fill="#5A5A5A"/>
<rect x="153.999" y="95" width="30" height="44" transform="rotate(-180 153.999 95)" fill="#5A5A5A"/>
<rect x="79" y="156" width="31" height="75" transform="rotate(-90 79 156)" fill="#5A5A5A"/>
<rect y="156" width="31" height="25" transform="rotate(-90 0 156)" fill="#5A5A5A"/>
<rect x="16" y="291" width="16" height="155" transform="rotate(-180 16 291)" fill="#5A5A5A"/>
<rect x="3" y="291" width="16" height="203" transform="rotate(-90 3 291)" fill="#5A5A5A"/>
<rect x="138" y="128" width="16" height="110" fill="#5A5A5A"/>
<rect x="138" y="271" width="16" height="180" fill="#5A5A5A"/>
<rect x="267" y="58" width="16" height="180" fill="#5A5A5A"/>
<rect x="249" y="275" width="16" height="55" fill="#5A5A5A"/>
<rect x="259" y="275" width="24" height="13" fill="#5A5A5A"/>
<rect x="283" y="267" width="24" height="16" transform="rotate(90 283 267)" fill="#5A5A5A"/>
<rect x="414" y="272" width="2" height="11" transform="rotate(90 414 272)" fill="#5A5A5A"/>
<rect x="397" y="272" width="2" height="11" transform="rotate(90 397 272)" fill="#5A5A5A"/>
<rect x="380" y="272" width="2" height="11" transform="rotate(90 380 272)" fill="#5A5A5A"/>
<rect x="363" y="272" width="2" height="11" transform="rotate(90 363 272)" fill="#5A5A5A"/>
<rect x="346" y="272" width="2" height="11" transform="rotate(90 346 272)" fill="#5A5A5A"/>
<rect x="329" y="272" width="2" height="11" transform="rotate(90 329 272)" fill="#5A5A5A"/>
<rect x="312" y="272" width="2" height="11" transform="rotate(90 312 272)" fill="#5A5A5A"/>
<rect x="295" y="272" width="2" height="11" transform="rotate(90 295 272)" fill="#5A5A5A"/>
<rect x="278" y="272" width="2" height="6" transform="rotate(90 278 272)" fill="#5A5A5A"/>
<rect x="249" y="357" width="16" height="91" fill="#5A5A5A"/>
<rect x="367.144" y="326.203" width="16" height="160.009" transform="rotate(45 367.144 326.203)" fill="#5A5A5A"/>
<rect x="265" y="435" width="16" height="76" transform="rotate(90 265 435)" fill="#5A5A5A"/>
<rect x="429" y="326" width="16" height="62" transform="rotate(90 429 326)" fill="#5A5A5A"/>
<path d="M295 290.657L300.657 285L361.834 346.178L356.178 351.834L295 290.657Z" fill="#5A5A5A"/>
<path d="M259 293L259 285L301 285L301 293L259 293Z" fill="#5A5A5A"/>
<path d="M154 360L154 352L205 352L205 360L154 360Z" fill="#5A5A5A"/>
<path d="M197 333H205V360H197L197 333Z" fill="#5A5A5A"/>
<path d="M198 281H206V308H198L198 281Z" fill="#5A5A5A"/>
<rect x="244" y="81" width="30" height="78" transform="rotate(-90 244 81)" fill="#5A5A5A"/>
<path d="M287.25 80.7496L390.708 80.5983L390.749 69.25L287.25 69.25L287.25 80.7496Z" stroke="#5A5A5A" stroke-width="0.5" stroke-miterlimit="10"/>
<path d="M8.25 155.75L111.708 155.598L111.749 144.25L8.25 144.25L8.25 155.75Z" stroke="#5A5A5A" stroke-width="0.5" stroke-miterlimit="10"/>
<path d="M123.25 57.25L123.402 141.716L134.75 141.749L134.75 57.25L123.25 57.25Z" stroke="#5A5A5A" stroke-width="0.5" stroke-miterlimit="10"/>
<path d="M16.25 155.75L119.708 155.598L119.749 144.25L16.25 144.25L16.25 155.75Z" stroke="#5A5A5A" stroke-width="0.5" stroke-miterlimit="10"/>
<path d="M287.25 62.7496L390.708 62.5983L390.749 51.25L287.25 51.25L287.25 62.7496Z" stroke="#5A5A5A" stroke-width="0.5" stroke-miterlimit="10"/>
<path d="M8.25 136.75L111.708 136.598L111.749 125.25L8.25 125.25L8.25 136.75Z" stroke="#5A5A5A" stroke-width="0.5" stroke-miterlimit="10"/>
<path d="M142.25 57.25L142.402 141.716L153.75 141.749L153.75 57.25L142.25 57.25Z" stroke="#5A5A5A" stroke-width="0.5" stroke-miterlimit="10"/>
<path d="M16.25 136.75L119.708 136.598L119.749 125.25L16.25 125.25L16.25 136.75Z" stroke="#5A5A5A" stroke-width="0.5" stroke-miterlimit="10"/>
<path d="M260.75 0.25015L179.282 0.313101L179.252 4.74993L260.75 4.74995L260.75 0.25015Z" stroke="#5A5A5A" stroke-width="0.5" stroke-miterlimit="10"/>
<rect x="267" width="5" height="74" fill="#5A5A5A"/>
<rect x="168" width="5" height="74" fill="#5A5A5A"/>
<rect x="180" width="5" height="8" transform="rotate(90 180 0)" fill="#5A5A5A"/>
<rect x="272" width="5" height="12" transform="rotate(90 272 0)" fill="#5A5A5A"/>
<path d="M278.75 66.7497L218.274 66.6869L218.251 62.25L278.75 62.25L278.75 66.7497Z" stroke="#5A5A5A" stroke-width="0.5" stroke-miterlimit="10"/>
<path d="M278.75 56.7497L218.274 56.6869L218.251 52.25L278.75 52.25L278.75 56.7497Z" stroke="#5A5A5A" stroke-width="0.5" stroke-miterlimit="10"/>
<line y1="-0.5" x2="31.3847" y2="-0.5" transform="matrix(0.860292 0.509802 0.509802 -0.860292 193 67)" stroke="#5A5A5A"/>
<path d="M480.75 219.75L480.687 138.282L476.25 138.252L476.25 219.75L480.75 219.75Z" stroke="#5A5A5A" stroke-width="0.5" stroke-miterlimit="10"/>
<rect x="481" y="226" width="5" height="74" transform="rotate(90 481 226)" fill="#5A5A5A"/>
<rect x="481" y="129" width="5" height="74" transform="rotate(90 481 129)" fill="#5A5A5A"/>
<rect x="481" y="141" width="5" height="8" transform="rotate(-180 481 141)" fill="#5A5A5A"/>
<rect x="481" y="231" width="5.00001" height="93" transform="rotate(-180 481 231)" fill="#5A5A5A"/>
<path d="M414.25 240.75L414.313 180.274L418.75 180.251L418.75 240.75L414.25 240.75Z" stroke="#5A5A5A" stroke-width="0.5" stroke-miterlimit="10"/>
<path d="M424.25 240.75L424.313 180.274L428.75 180.251L428.75 240.75L424.25 240.75Z" stroke="#5A5A5A" stroke-width="0.5" stroke-miterlimit="10"/>
<line y1="-0.5" x2="31.3847" y2="-0.5" transform="matrix(-0.509802 0.860292 0.860292 0.509802 414 152)" stroke="#5A5A5A"/>
<rect x="374" y="81" width="30" height="55" transform="rotate(-90 374 81)" fill="#5A5A5A"/>
<rect x="399" y="75" width="30" height="77" fill="#5A5A5A"/>
<rect x="399" y="207" width="30" height="133" fill="#5A5A5A"/>
<path d="M374 293H398.995V317.325H374V293Z" fill="white" stroke="#5A5A5A" stroke-width="0.5"/>
<path d="M396.969 293.926L377.516 293.926C376.778 293.926 376.385 294.319 376.385 295.088L376.385 315.236C376.385 316.021 376.762 316.398 377.516 316.398L396.969 316.398C397.722 316.414 398.099 316.021 398.099 315.252L398.099 295.104C398.115 294.319 397.722 293.926 396.969 293.926Z" fill="white" stroke="#5A5A5A" stroke-width="0.5"/>
<path d="M395.18 300.428C395.164 302.218 393.751 303.678 392.008 303.678C390.25 303.678 388.837 302.218 388.837 300.428C388.837 298.622 390.25 297.177 392.008 297.177C393.767 297.177 395.18 298.622 395.18 300.428Z" stroke="#5A5A5A" stroke-width="0.5"/>
<path d="M395.149 310.054C395.134 311.844 393.721 313.304 391.978 313.304C390.219 313.304 388.806 311.844 388.806 310.054C388.806 308.248 390.219 306.803 391.978 306.803C393.736 306.787 395.165 308.248 395.149 310.054Z" stroke="#5A5A5A" stroke-width="0.5"/>
<path d="M386.136 310.054C386.136 311.86 384.723 313.304 382.964 313.304C381.206 313.304 379.793 311.844 379.793 310.054C379.808 308.263 381.221 306.803 382.964 306.803C384.707 306.803 386.136 308.263 386.136 310.054Z" stroke="#5A5A5A" stroke-width="0.5"/>
<path d="M386.136 300.428C386.136 302.234 384.723 303.678 382.964 303.678C381.206 303.678 379.793 302.218 379.793 300.428C379.808 298.638 381.221 297.177 382.964 297.177C384.707 297.177 386.136 298.638 386.136 300.428Z" stroke="#5A5A5A" stroke-width="0.5"/>
<path d="M322.011 307.033L339.044 290L355.802 306.758L338.758 323.802L322.011 307.033Z" fill="white" stroke="#5A5A5A" stroke-width="0.5"/>
<path d="M327.957 303.637L337.374 294.22C337.898 293.695 338.413 293.696 338.948 294.231L351.399 306.682C351.913 307.196 351.924 307.721 351.42 308.246L341.983 317.662C341.479 318.187 340.954 318.176 340.429 317.651L327.979 305.201C327.432 304.697 327.432 304.162 327.957 303.637Z" fill="white" stroke="#5A5A5A" stroke-width="0.5"/>
<path d="M331.611 314.019C332.276 314.662 333.293 314.694 333.915 314.073L338.392 308.674L338.392 308.652C338.767 308.277 338.757 307.667 338.36 307.27C337.964 306.874 337.353 306.863 336.957 307.238L331.557 311.716C330.947 312.326 330.968 313.355 331.611 314.019Z" stroke="#5A5A5A" stroke-width="0.5"/>
<mask id="path-76-inside-1_39_10860" fill="white">
<path fill-rule="evenodd" clip-rule="evenodd" d="M333.068 314.512L335.5 311.566C335.864 311.18 335.864 310.559 335.446 310.162C335.05 309.766 334.45 309.766 334.064 310.13L331.118 312.562"/>
</mask>
<path fill-rule="evenodd" clip-rule="evenodd" d="M333.068 314.512L335.5 311.566C335.864 311.18 335.864 310.559 335.446 310.162C335.05 309.766 334.45 309.766 334.064 310.13L331.118 312.562" fill="white"/>
<path d="M335.5 311.566L335.136 311.222L335.125 311.235L335.114 311.247L335.5 311.566ZM335.446 310.162L335.093 310.516L335.102 310.525L335.446 310.162ZM334.064 310.13L334.382 310.516L334.395 310.505L334.408 310.493L334.064 310.13ZM333.454 314.83L335.886 311.884L335.114 311.247L332.683 314.193L333.454 314.83ZM335.863 311.909C336.416 311.324 336.409 310.386 335.79 309.799L335.102 310.525C335.319 310.731 335.312 311.037 335.136 311.222L335.863 311.909ZM335.8 309.809C335.213 309.222 334.305 309.215 333.721 309.766L334.408 310.493C334.595 310.316 334.886 310.309 335.093 310.516L335.8 309.809ZM333.746 309.744L330.8 312.176L331.436 312.947L334.382 310.516L333.746 309.744Z" fill="#5A5A5A" mask="url(#path-76-inside-1_39_10860)"/>
<line x1="149.432" y1="235.749" x2="167.432" y2="266.749" stroke="#5A5A5A"/>
<line x1="272.423" y1="235.266" x2="255.423" y2="262.266" stroke="#5A5A5A"/>
<line x1="202.246" y1="287.565" x2="225.246" y2="300.565" stroke="#5A5A5A"/>
<line x1="251.263" y1="288.425" x2="230.263" y2="301.425" stroke="#5A5A5A"/>
<line x1="203.435" y1="305.754" x2="216.435" y2="328.754" stroke="#5A5A5A"/>
<line x1="250.553" y1="359.224" x2="237.553" y2="333.224" stroke="#5A5A5A"/>
<line x1="191.247" y1="449.435" x2="161.247" y2="466.435" stroke="#5A5A5A"/>
<path d="M173.298 315.759L172.118 315.742L169.052 315.759L161.46 315.759L161.46 305.801L173.298 305.801C176.315 305.801 178.774 308.045 178.774 310.796C178.774 313.515 176.315 315.759 173.298 315.759Z" fill="white" stroke="#5A5A5A" stroke-width="0.5"/>
<path d="M173.233 314.612L172.298 314.612L164.74 314.612L164.74 306.932L172.298 306.932L173.233 306.948C175.61 306.948 177.545 308.651 177.545 310.78C177.529 312.893 175.594 314.612 173.233 314.612Z" fill="white" stroke="#5A5A5A" stroke-width="0.5"/>
<path d="M155.098 304L160.361 304C160.968 304 161.46 304.491 161.46 305.097L161.46 316.381C161.46 316.987 160.968 317.478 160.361 317.478L155.098 317.478C154.492 317.478 154 316.987 154 316.381L154 305.114C154 304.491 154.492 304 155.098 304Z" fill="white" stroke="#5A5A5A" stroke-width="0.5"/>
<path d="M157.722 310.092C158.132 310.092 158.444 310.387 158.444 310.731C158.46 311.091 158.132 311.386 157.722 311.386C157.313 311.386 157.001 311.091 157.001 310.747C157.017 310.371 157.329 310.076 157.722 310.092Z" fill="white" stroke="#5A5A5A" stroke-width="0.5"/>
<path d="M169 350.938L169 338.63C169 337.774 169.684 337.09 170.539 337.09L189.058 337.09C189.913 337.09 190.597 337.774 190.597 338.63L190.597 350.938C190.597 351.794 189.913 352.478 189.058 352.478L170.539 352.478C169.698 352.478 169 351.794 169 350.938Z" fill="white" stroke="#5A5A5A" stroke-width="0.5"/>
<path d="M170.924 346.246L170.924 344.349C170.924 341.853 172.947 339.828 175.44 339.828L184.158 339.828C186.651 339.828 188.674 341.853 188.674 344.349L188.674 346.246C188.674 348.742 186.651 350.767 184.158 350.767L175.44 350.767C172.947 350.767 170.924 348.742 170.924 346.246Z" fill="white" stroke="#5A5A5A" stroke-width="0.5"/>
<path d="M178.844 348.357C178.844 347.813 179.271 347.373 179.799 347.373C180.326 347.373 180.753 347.813 180.753 348.357C180.753 348.9 180.326 349.341 179.799 349.341C179.271 349.341 178.844 348.9 178.844 348.357Z" fill="white" stroke="#5A5A5A" stroke-width="0.5"/>
<path d="M330.492 362.46L289.935 321.903C289.416 321.383 289.415 320.553 289.934 320.034L306.034 303.934C306.553 303.415 307.384 303.415 307.903 303.935L348.46 344.492C348.979 345.011 348.98 345.841 348.461 346.36L332.36 362.461C331.842 362.979 331.002 362.969 330.492 362.46Z" fill="white" stroke="#5A5A5A" stroke-width="0.5"/>
<path d="M298.294 316.66L302.67 312.284C305.207 309.747 309.313 309.758 311.843 312.289L343.779 344.225C344.402 344.848 344.402 345.848 343.78 346.471L332.462 357.789C331.839 358.412 330.839 358.411 330.215 357.788L298.289 325.862C295.759 323.312 295.756 319.198 298.294 316.66Z" fill="white" stroke="#5A5A5A" stroke-width="0.5"/>
<path d="M334.023 348.655C333.517 349.16 333.535 349.997 334.061 350.523C334.588 351.05 335.425 351.067 335.93 350.562C336.435 350.057 336.418 349.22 335.891 348.694C335.364 348.167 334.528 348.15 334.023 348.655Z" fill="white" stroke="#5A5A5A" stroke-width="0.5"/>
<path d="M286.147 380.064L286.977 380.903L289.176 383.04L294.592 388.36L287.614 395.463L279.169 387.168C277.017 385.054 276.835 381.729 278.763 379.767C280.668 377.827 283.995 377.95 286.147 380.064Z" fill="white" stroke="#5A5A5A" stroke-width="0.5"/>
<path d="M285.391 380.928L286.057 381.583L291.449 386.88L286.067 392.359L280.675 387.062L280.019 386.396C278.323 384.73 278.137 382.159 279.629 380.64C281.121 379.144 283.706 379.274 285.391 380.928Z" fill="white" stroke="#5A5A5A" stroke-width="0.5"/>
<path d="M290.89 401.207L287.135 397.518C286.702 397.093 286.696 396.398 287.12 395.966L295.028 387.916C295.453 387.484 296.148 387.478 296.581 387.903L300.335 391.592C300.768 392.017 300.774 392.712 300.35 393.144L292.454 401.182C292.018 401.626 291.322 401.632 290.89 401.207Z" fill="white" stroke="#5A5A5A" stroke-width="0.5"/>
<path d="M293.287 395.022C292.995 394.735 292.979 394.306 293.22 394.061C293.461 393.792 293.901 393.812 294.194 394.099C294.486 394.386 294.502 394.815 294.261 395.06C293.985 395.318 293.556 395.31 293.287 395.022Z" fill="white" stroke="#5A5A5A" stroke-width="0.5"/>
<path d="M312.36 361.089L321.063 369.792C321.668 370.397 321.669 371.365 321.064 371.969L307.969 385.064C307.365 385.669 306.397 385.668 305.792 385.063L297.089 376.36C296.484 375.755 296.484 374.787 297.088 374.183L310.183 361.088C310.777 360.494 311.755 360.484 312.36 361.089Z" fill="white" stroke="#5A5A5A" stroke-width="0.5"/>
<path d="M314.318 365.767L315.66 367.108C317.424 368.873 317.426 371.735 315.663 373.498L309.498 379.663C307.736 381.426 304.873 381.424 303.108 379.659L301.767 378.318C300.002 376.553 300.001 373.691 301.764 371.928L307.928 365.763C309.691 364 312.554 364.002 314.318 365.767Z" fill="white" stroke="#5A5A5A" stroke-width="0.5"/>
<path d="M307.225 369.875C307.609 370.259 307.619 370.873 307.246 371.245C306.873 371.618 306.26 371.609 305.875 371.224C305.491 370.84 305.482 370.227 305.855 369.854C306.227 369.481 306.841 369.49 307.225 369.875Z" fill="white" stroke="#5A5A5A" stroke-width="0.5"/>
<circle cx="211.5" cy="173.5" r="39.5" fill="#5A5A5A"/>
<path d="M192.18 170.38V168.4H200.73V170.38L195.69 181H193.44L198.39 170.56V170.38H192.18ZM201.538 172.54V170.2L203.878 168.4H205.768V181H203.698V170.92L201.538 172.54ZM207.749 180.01C207.749 179.65 207.863 179.35 208.091 179.11C208.331 178.87 208.625 178.75 208.973 178.75C209.369 178.75 209.681 178.894 209.909 179.182C210.149 179.47 210.269 179.896 210.269 180.46C210.269 181.384 210.047 182.092 209.603 182.584C209.171 183.088 208.583 183.34 207.839 183.34V182.44C208.199 182.44 208.481 182.338 208.685 182.134C208.901 181.942 209.009 181.684 209.009 181.36V181.252C208.997 181.24 208.991 181.216 208.991 181.18V181.126L208.883 181.162C208.847 181.174 208.769 181.18 208.649 181.18C208.409 181.18 208.199 181.072 208.019 180.856C207.839 180.64 207.749 180.358 207.749 180.01ZM211.434 172.54V170.2L213.774 168.4H215.664V181H213.594V170.92L211.434 172.54ZM217.646 177.58C217.646 176.488 218.066 175.618 218.906 174.97C219.266 174.718 219.686 174.526 220.166 174.394V174.286C219.794 174.142 219.464 173.944 219.176 173.692C218.516 173.128 218.186 172.384 218.186 171.46C218.186 170.512 218.588 169.708 219.392 169.048C220.208 168.376 221.306 168.04 222.686 168.04C224.066 168.04 225.158 168.376 225.962 169.048C226.778 169.708 227.186 170.512 227.186 171.46C227.186 172.36 226.856 173.104 226.196 173.692C225.884 173.944 225.554 174.142 225.206 174.286V174.394C225.662 174.514 226.082 174.712 226.466 174.988C227.306 175.636 227.726 176.5 227.726 177.58C227.726 178.624 227.27 179.518 226.358 180.262C225.458 180.994 224.234 181.36 222.686 181.36C221.138 181.36 219.908 180.994 218.996 180.262C218.096 179.518 217.646 178.624 217.646 177.58ZM220.346 171.64C220.346 172.168 220.55 172.6 220.958 172.936C221.366 173.272 221.942 173.44 222.686 173.44C223.43 173.44 224.006 173.272 224.414 172.936C224.822 172.6 225.026 172.168 225.026 171.64C225.026 171.16 224.816 170.758 224.396 170.434C223.988 170.098 223.418 169.93 222.686 169.93C221.954 169.93 221.378 170.098 220.958 170.434C220.55 170.758 220.346 171.16 220.346 171.64ZM220.562 175.942C220.058 176.338 219.806 176.824 219.806 177.4C219.806 177.976 220.058 178.468 220.562 178.876C221.078 179.272 221.786 179.47 222.686 179.47C223.586 179.47 224.288 179.272 224.792 178.876C225.308 178.468 225.566 177.976 225.566 177.4C225.566 176.824 225.308 176.338 224.792 175.942C224.288 175.534 223.586 175.33 222.686 175.33C221.786 175.33 221.078 175.534 220.562 175.942Z" fill="white"/>
<path d="M60.35 213.42V211.6L62.17 210.2H63.64V220H62.03V212.16L60.35 213.42ZM65.0411 220V218.46L68.3871 216.094C69.1151 215.571 69.6378 215.086 69.9551 214.638C70.2724 214.19 70.4311 213.714 70.4311 213.21C70.4311 212.678 70.2678 212.253 69.9411 211.936C69.6144 211.619 69.1711 211.46 68.6111 211.46C67.9204 211.46 67.4024 211.74 67.0571 212.3C66.9078 212.543 66.7958 212.823 66.7211 213.14H65.0411C65.1251 212.543 65.3071 212.006 65.5871 211.53C66.2498 210.457 67.2578 209.92 68.6111 209.92C69.6471 209.92 70.4871 210.228 71.1311 210.844C71.7844 211.451 72.1111 212.216 72.1111 213.14C72.1111 213.943 71.9058 214.666 71.4951 215.31C71.0844 215.945 70.4264 216.575 69.5211 217.2L68.1211 218.18L67.4911 218.46V218.53L68.3311 218.46H72.1111V220H65.0411ZM73.2338 219.23C73.2338 218.95 73.3225 218.717 73.4998 218.53C73.6865 218.343 73.9152 218.25 74.1858 218.25C74.4938 218.25 74.7365 218.362 74.9138 218.586C75.1005 218.81 75.1938 219.141 75.1938 219.58C75.1938 220.299 75.0212 220.849 74.6758 221.232C74.3398 221.624 73.8825 221.82 73.3038 221.82V221.12C73.5838 221.12 73.8032 221.041 73.9618 220.882C74.1298 220.733 74.2138 220.532 74.2138 220.28V220.196C74.2045 220.187 74.1998 220.168 74.1998 220.14V220.098L74.1158 220.126C74.0878 220.135 74.0272 220.14 73.9338 220.14C73.7472 220.14 73.5838 220.056 73.4438 219.888C73.3038 219.72 73.2338 219.501 73.2338 219.23ZM76.24 216.78C76.24 216.332 76.338 215.865 76.534 215.38C76.7393 214.885 76.9353 214.498 77.122 214.218C77.318 213.929 77.584 213.569 77.92 213.14L80.16 210.2H82.05L79.936 212.958L79.32 213.49V213.56L79.6 213.462C79.88 213.387 80.1833 213.35 80.51 213.35C81.4247 213.35 82.1993 213.681 82.834 214.344C83.478 214.997 83.8 215.809 83.8 216.78C83.8 217.769 83.4453 218.6 82.736 219.272C82.0267 219.944 81.1213 220.28 80.02 220.28C78.9187 220.28 78.0133 219.944 77.304 219.272C76.5947 218.6 76.24 217.769 76.24 216.78ZM78.494 215.324C78.1113 215.697 77.92 216.183 77.92 216.78C77.92 217.377 78.1113 217.867 78.494 218.25C78.8767 218.623 79.3853 218.81 80.02 218.81C80.6547 218.81 81.1633 218.623 81.546 218.25C81.9287 217.867 82.12 217.377 82.12 216.78C82.12 216.183 81.9287 215.697 81.546 215.324C81.1633 214.941 80.6547 214.75 80.02 214.75C79.3853 214.75 78.8767 214.941 78.494 215.324ZM83.806 211.74V210.2H90.456V211.74L86.536 220H84.786L88.636 211.88V211.74H83.806Z" fill="#333333"/>
<path d="M189.35 248.42V246.6L191.17 245.2H192.64V255H191.03V247.16L189.35 248.42ZM194.181 252.34C194.181 251.491 194.508 250.814 195.161 250.31C195.441 250.114 195.768 249.965 196.141 249.862V249.778C195.852 249.666 195.595 249.512 195.371 249.316C194.858 248.877 194.601 248.299 194.601 247.58C194.601 246.843 194.914 246.217 195.539 245.704C196.174 245.181 197.028 244.92 198.101 244.92C199.174 244.92 200.024 245.181 200.649 245.704C201.284 246.217 201.601 246.843 201.601 247.58C201.601 248.28 201.344 248.859 200.831 249.316C200.588 249.512 200.332 249.666 200.061 249.778V249.862C200.416 249.955 200.742 250.109 201.041 250.324C201.694 250.828 202.021 251.5 202.021 252.34C202.021 253.152 201.666 253.847 200.957 254.426C200.257 254.995 199.305 255.28 198.101 255.28C196.897 255.28 195.94 254.995 195.231 254.426C194.531 253.847 194.181 253.152 194.181 252.34ZM196.281 247.72C196.281 248.131 196.44 248.467 196.757 248.728C197.074 248.989 197.522 249.12 198.101 249.12C198.68 249.12 199.128 248.989 199.445 248.728C199.762 248.467 199.921 248.131 199.921 247.72C199.921 247.347 199.758 247.034 199.431 246.782C199.114 246.521 198.67 246.39 198.101 246.39C197.532 246.39 197.084 246.521 196.757 246.782C196.44 247.034 196.281 247.347 196.281 247.72ZM196.449 251.066C196.057 251.374 195.861 251.752 195.861 252.2C195.861 252.648 196.057 253.031 196.449 253.348C196.85 253.656 197.401 253.81 198.101 253.81C198.801 253.81 199.347 253.656 199.739 253.348C200.14 253.031 200.341 252.648 200.341 252.2C200.341 251.752 200.14 251.374 199.739 251.066C199.347 250.749 198.801 250.59 198.101 250.59C197.401 250.59 196.85 250.749 196.449 251.066ZM203.136 254.23C203.136 253.95 203.225 253.717 203.402 253.53C203.589 253.343 203.818 253.25 204.088 253.25C204.396 253.25 204.639 253.362 204.816 253.586C205.003 253.81 205.096 254.141 205.096 254.58C205.096 255.299 204.924 255.849 204.578 256.232C204.242 256.624 203.785 256.82 203.206 256.82V256.12C203.486 256.12 203.706 256.041 203.864 255.882C204.032 255.733 204.116 255.532 204.116 255.28V255.196C204.107 255.187 204.102 255.168 204.102 255.14V255.098L204.018 255.126C203.99 255.135 203.93 255.14 203.836 255.14C203.65 255.14 203.486 255.056 203.346 254.888C203.206 254.72 203.136 254.501 203.136 254.23ZM206.212 252.27H207.892C207.967 252.559 208.093 252.807 208.27 253.012C208.681 253.497 209.278 253.74 210.062 253.74C210.688 253.74 211.182 253.572 211.546 253.236C211.91 252.9 212.092 252.461 212.092 251.92C212.092 251.351 211.91 250.893 211.546 250.548C211.182 250.203 210.688 250.03 210.062 250.03C209.484 250.03 208.994 250.184 208.592 250.492C208.434 250.613 208.294 250.763 208.172 250.94H206.632L207.052 245.2H213.002V246.74H208.382L208.172 249.26H208.242C208.392 249.111 208.564 248.985 208.76 248.882C209.199 248.621 209.726 248.49 210.342 248.49C211.322 248.49 212.139 248.817 212.792 249.47C213.446 250.123 213.772 250.94 213.772 251.92C213.772 252.881 213.427 253.684 212.736 254.328C212.055 254.963 211.164 255.28 210.062 255.28C208.625 255.28 207.556 254.781 206.856 253.782C206.558 253.343 206.343 252.839 206.212 252.27ZM214.616 248.42V246.6L216.436 245.2H217.906V255H216.296V247.16L214.616 248.42Z" fill="#333333"/>
<path d="M163.42 330V328.46L166.766 326.094C167.494 325.571 168.017 325.086 168.334 324.638C168.651 324.19 168.81 323.714 168.81 323.21C168.81 322.678 168.647 322.253 168.32 321.936C167.993 321.619 167.55 321.46 166.99 321.46C166.299 321.46 165.781 321.74 165.436 322.3C165.287 322.543 165.175 322.823 165.1 323.14H163.42C163.504 322.543 163.686 322.006 163.966 321.53C164.629 320.457 165.637 319.92 166.99 319.92C168.026 319.92 168.866 320.228 169.51 320.844C170.163 321.451 170.49 322.216 170.49 323.14C170.49 323.943 170.285 324.666 169.874 325.31C169.463 325.945 168.805 326.575 167.9 327.2L166.5 328.18L165.87 328.46V328.53L166.71 328.46H170.49V330H163.42ZM171.613 329.23C171.613 328.95 171.701 328.717 171.879 328.53C172.065 328.343 172.294 328.25 172.565 328.25C172.873 328.25 173.115 328.362 173.293 328.586C173.479 328.81 173.573 329.141 173.573 329.58C173.573 330.299 173.4 330.849 173.055 331.232C172.719 331.624 172.261 331.82 171.683 331.82V331.12C171.963 331.12 172.182 331.041 172.341 330.882C172.509 330.733 172.593 330.532 172.593 330.28V330.196C172.583 330.187 172.579 330.168 172.579 330.14V330.098L172.495 330.126C172.467 330.135 172.406 330.14 172.313 330.14C172.126 330.14 171.963 330.056 171.823 329.888C171.683 329.72 171.613 329.501 171.613 329.23ZM174.339 328.04V326.5L177.629 320.2H179.379L176.089 326.5H179.309V324.12H179.379H180.919V326.5H182.319V328.04H180.919V330H179.309V328.04H174.339ZM184.278 328.824C183.392 327.853 182.948 326.612 182.948 325.1C182.948 323.588 183.392 322.347 184.278 321.376C185.165 320.405 186.238 319.92 187.498 319.92C188.758 319.92 189.832 320.405 190.718 321.376C191.605 322.347 192.048 323.588 192.048 325.1C192.048 326.612 191.605 327.853 190.718 328.824C189.832 329.795 188.758 330.28 187.498 330.28C186.238 330.28 185.165 329.795 184.278 328.824ZM185.426 322.412C184.894 323.047 184.628 323.943 184.628 325.1C184.628 326.257 184.894 327.153 185.426 327.788C185.968 328.423 186.658 328.74 187.498 328.74C188.338 328.74 189.024 328.423 189.556 327.788C190.098 327.153 190.368 326.257 190.368 325.1C190.368 323.943 190.098 323.047 189.556 322.412C189.024 321.777 188.338 321.46 187.498 321.46C186.658 321.46 185.968 321.777 185.426 322.412Z" fill="#333333"/>
<path d="M271.56 353.27H273.24C273.315 353.559 273.441 353.807 273.618 354.012C274.029 354.497 274.626 354.74 275.41 354.74C276.035 354.74 276.53 354.572 276.894 354.236C277.258 353.9 277.44 353.461 277.44 352.92C277.44 352.351 277.258 351.893 276.894 351.548C276.53 351.203 276.035 351.03 275.41 351.03C274.831 351.03 274.341 351.184 273.94 351.492C273.781 351.613 273.641 351.763 273.52 351.94H271.98L272.4 346.2H278.35V347.74H273.73L273.52 350.26H273.59C273.739 350.111 273.912 349.985 274.108 349.882C274.547 349.621 275.074 349.49 275.69 349.49C276.67 349.49 277.487 349.817 278.14 350.47C278.793 351.123 279.12 351.94 279.12 352.92C279.12 353.881 278.775 354.684 278.084 355.328C277.403 355.963 276.511 356.28 275.41 356.28C273.973 356.28 272.904 355.781 272.204 354.782C271.905 354.343 271.691 353.839 271.56 353.27ZM280.173 355.23C280.173 354.95 280.262 354.717 280.439 354.53C280.626 354.343 280.855 354.25 281.125 354.25C281.433 354.25 281.676 354.362 281.853 354.586C282.04 354.81 282.133 355.141 282.133 355.58C282.133 356.299 281.961 356.849 281.615 357.232C281.279 357.624 280.822 357.82 280.243 357.82V357.12C280.523 357.12 280.743 357.041 280.901 356.882C281.069 356.733 281.153 356.532 281.153 356.28V356.196C281.144 356.187 281.139 356.168 281.139 356.14V356.098L281.055 356.126C281.027 356.135 280.967 356.14 280.873 356.14C280.687 356.14 280.523 356.056 280.383 355.888C280.243 355.72 280.173 355.501 280.173 355.23ZM283.179 352.78C283.179 352.332 283.277 351.865 283.473 351.38C283.679 350.885 283.875 350.498 284.061 350.218C284.257 349.929 284.523 349.569 284.859 349.14L287.099 346.2H288.989L286.875 348.958L286.259 349.49V349.56L286.539 349.462C286.819 349.387 287.123 349.35 287.449 349.35C288.364 349.35 289.139 349.681 289.773 350.344C290.417 350.997 290.739 351.809 290.739 352.78C290.739 353.769 290.385 354.6 289.675 355.272C288.966 355.944 288.061 356.28 286.959 356.28C285.858 356.28 284.953 355.944 284.243 355.272C283.534 354.6 283.179 353.769 283.179 352.78ZM285.433 351.324C285.051 351.697 284.859 352.183 284.859 352.78C284.859 353.377 285.051 353.867 285.433 354.25C285.816 354.623 286.325 354.81 286.959 354.81C287.594 354.81 288.103 354.623 288.485 354.25C288.868 353.867 289.059 353.377 289.059 352.78C289.059 352.183 288.868 351.697 288.485 351.324C288.103 350.941 287.594 350.75 286.959 350.75C286.325 350.75 285.816 350.941 285.433 351.324ZM291.793 352.78C291.793 352.332 291.891 351.865 292.087 351.38C292.292 350.885 292.488 350.498 292.675 350.218C292.871 349.929 293.137 349.569 293.473 349.14L295.713 346.2H297.603L295.489 348.958L294.873 349.49V349.56L295.153 349.462C295.433 349.387 295.736 349.35 296.063 349.35C296.977 349.35 297.752 349.681 298.387 350.344C299.031 350.997 299.353 351.809 299.353 352.78C299.353 353.769 298.998 354.6 298.289 355.272C297.579 355.944 296.674 356.28 295.573 356.28C294.471 356.28 293.566 355.944 292.857 355.272C292.147 354.6 291.793 353.769 291.793 352.78ZM294.047 351.324C293.664 351.697 293.473 352.183 293.473 352.78C293.473 353.377 293.664 353.867 294.047 354.25C294.429 354.623 294.938 354.81 295.573 354.81C296.207 354.81 296.716 354.623 297.099 354.25C297.481 353.867 297.673 353.377 297.673 352.78C297.673 352.183 297.481 351.697 297.099 351.324C296.716 350.941 296.207 350.75 295.573 350.75C294.938 350.75 294.429 350.941 294.047 351.324Z" fill="#333333"/>
<path d="M317.21 287.04V285.5L320.5 279.2H322.25L318.96 285.5H322.18V283.12H322.25H323.79V285.5H325.19V287.04H323.79V289H322.18V287.04H317.21ZM325.749 288.23C325.749 287.95 325.838 287.717 326.015 287.53C326.202 287.343 326.431 287.25 326.701 287.25C327.009 287.25 327.252 287.362 327.429 287.586C327.616 287.81 327.709 288.141 327.709 288.58C327.709 289.299 327.537 289.849 327.191 290.232C326.855 290.624 326.398 290.82 325.819 290.82V290.12C326.099 290.12 326.319 290.041 326.477 289.882C326.645 289.733 326.729 289.532 326.729 289.28V289.196C326.72 289.187 326.715 289.168 326.715 289.14V289.098L326.631 289.126C326.603 289.135 326.543 289.14 326.449 289.14C326.263 289.14 326.099 289.056 325.959 288.888C325.819 288.72 325.749 288.501 325.749 288.23ZM328.686 286.2H330.366C330.431 286.489 330.557 286.746 330.744 286.97C331.164 287.483 331.761 287.74 332.536 287.74C333.18 287.74 333.688 287.581 334.062 287.264C334.444 286.937 334.636 286.536 334.636 286.06C334.636 285.519 334.463 285.094 334.118 284.786C333.782 284.469 333.301 284.31 332.676 284.31H330.296V282.91L333.236 280.81V280.74H329.176V279.2H335.616V280.726L333.096 282.56L332.396 282.84V282.91L332.62 282.882C332.928 282.854 333.11 282.84 333.166 282.84C334.043 282.84 334.776 283.143 335.364 283.75C335.952 284.357 336.246 285.127 336.246 286.06C336.246 286.956 335.9 287.717 335.21 288.342C334.519 288.967 333.628 289.28 332.536 289.28C331.089 289.28 330.02 288.767 329.33 287.74C329.031 287.301 328.816 286.788 328.686 286.2ZM338.702 287.824C337.816 286.853 337.372 285.612 337.372 284.1C337.372 282.588 337.816 281.347 338.702 280.376C339.589 279.405 340.662 278.92 341.922 278.92C343.182 278.92 344.256 279.405 345.142 280.376C346.029 281.347 346.472 282.588 346.472 284.1C346.472 285.612 346.029 286.853 345.142 287.824C344.256 288.795 343.182 289.28 341.922 289.28C340.662 289.28 339.589 288.795 338.702 287.824ZM339.85 281.412C339.318 282.047 339.052 282.943 339.052 284.1C339.052 285.257 339.318 286.153 339.85 286.788C340.392 287.423 341.082 287.74 341.922 287.74C342.762 287.74 343.448 287.423 343.98 286.788C344.522 286.153 344.792 285.257 344.792 284.1C344.792 282.943 344.522 282.047 343.98 281.412C343.448 280.777 342.762 280.46 341.922 280.46C341.082 280.46 340.392 280.777 339.85 281.412Z" fill="#333333"/>
<path d="M330.35 164.42V162.6L332.17 161.2H333.64V171H332.03V163.16L330.35 164.42ZM335.181 168.34C335.181 167.491 335.508 166.814 336.161 166.31C336.441 166.114 336.768 165.965 337.141 165.862V165.778C336.852 165.666 336.595 165.512 336.371 165.316C335.858 164.877 335.601 164.299 335.601 163.58C335.601 162.843 335.914 162.217 336.539 161.704C337.174 161.181 338.028 160.92 339.101 160.92C340.174 160.92 341.024 161.181 341.649 161.704C342.284 162.217 342.601 162.843 342.601 163.58C342.601 164.28 342.344 164.859 341.831 165.316C341.588 165.512 341.332 165.666 341.061 165.778V165.862C341.416 165.955 341.742 166.109 342.041 166.324C342.694 166.828 343.021 167.5 343.021 168.34C343.021 169.152 342.666 169.847 341.957 170.426C341.257 170.995 340.305 171.28 339.101 171.28C337.897 171.28 336.94 170.995 336.231 170.426C335.531 169.847 335.181 169.152 335.181 168.34ZM337.281 163.72C337.281 164.131 337.44 164.467 337.757 164.728C338.074 164.989 338.522 165.12 339.101 165.12C339.68 165.12 340.128 164.989 340.445 164.728C340.762 164.467 340.921 164.131 340.921 163.72C340.921 163.347 340.758 163.034 340.431 162.782C340.114 162.521 339.67 162.39 339.101 162.39C338.532 162.39 338.084 162.521 337.757 162.782C337.44 163.034 337.281 163.347 337.281 163.72ZM337.449 167.066C337.057 167.374 336.861 167.752 336.861 168.2C336.861 168.648 337.057 169.031 337.449 169.348C337.85 169.656 338.401 169.81 339.101 169.81C339.801 169.81 340.347 169.656 340.739 169.348C341.14 169.031 341.341 168.648 341.341 168.2C341.341 167.752 341.14 167.374 340.739 167.066C340.347 166.749 339.801 166.59 339.101 166.59C338.401 166.59 337.85 166.749 337.449 167.066ZM344.136 170.23C344.136 169.95 344.225 169.717 344.402 169.53C344.589 169.343 344.818 169.25 345.088 169.25C345.396 169.25 345.639 169.362 345.816 169.586C346.003 169.81 346.096 170.141 346.096 170.58C346.096 171.299 345.924 171.849 345.578 172.232C345.242 172.624 344.785 172.82 344.206 172.82V172.12C344.486 172.12 344.706 172.041 344.864 171.882C345.032 171.733 345.116 171.532 345.116 171.28V171.196C345.107 171.187 345.102 171.168 345.102 171.14V171.098L345.018 171.126C344.99 171.135 344.93 171.14 344.836 171.14C344.65 171.14 344.486 171.056 344.346 170.888C344.206 170.72 344.136 170.501 344.136 170.23ZM346.792 162.74V161.2H353.442V162.74L349.522 171H347.772L351.622 162.88V162.74H346.792ZM353.657 169.04V167.5L356.947 161.2H358.697L355.407 167.5H358.627V165.12H358.697H360.237V167.5H361.637V169.04H360.237V171H358.627V169.04H353.657Z" fill="#333333"/>
<path d="M206.42 34.2H208.1C208.165 34.4893 208.291 34.746 208.478 34.97C208.898 35.4833 209.495 35.74 210.27 35.74C210.914 35.74 211.423 35.5813 211.796 35.264C212.179 34.9373 212.37 34.536 212.37 34.06C212.37 33.5187 212.197 33.094 211.852 32.786C211.516 32.4687 211.035 32.31 210.41 32.31H208.03V30.91L210.97 28.81V28.74H206.91V27.2H213.35V28.726L210.83 30.56L210.13 30.84V30.91L210.354 30.882C210.662 30.854 210.844 30.84 210.9 30.84C211.777 30.84 212.51 31.1433 213.098 31.75C213.686 32.3567 213.98 33.1267 213.98 34.06C213.98 34.956 213.635 35.7167 212.944 36.342C212.253 36.9673 211.362 37.28 210.27 37.28C208.823 37.28 207.755 36.7667 207.064 35.74C206.765 35.3013 206.551 34.788 206.42 34.2ZM215.037 36.23C215.037 35.95 215.125 35.7167 215.303 35.53C215.489 35.3433 215.718 35.25 215.989 35.25C216.297 35.25 216.539 35.362 216.717 35.586C216.903 35.81 216.997 36.1413 216.997 36.58C216.997 37.2987 216.824 37.8493 216.479 38.232C216.143 38.624 215.685 38.82 215.107 38.82V38.12C215.387 38.12 215.606 38.0407 215.765 37.882C215.933 37.7327 216.017 37.532 216.017 37.28V37.196C216.007 37.1867 216.003 37.168 216.003 37.14V37.098L215.919 37.126C215.891 37.1353 215.83 37.14 215.737 37.14C215.55 37.14 215.387 37.056 215.247 36.888C215.107 36.72 215.037 36.5007 215.037 36.23ZM218.043 33.78C218.043 33.332 218.141 32.8653 218.337 32.38C218.542 31.8853 218.738 31.498 218.925 31.218C219.121 30.9287 219.387 30.5693 219.723 30.14L221.963 27.2H223.853L221.739 29.958L221.123 30.49V30.56L221.403 30.462C221.683 30.3873 221.986 30.35 222.313 30.35C223.227 30.35 224.002 30.6813 224.637 31.344C225.281 31.9973 225.603 32.8093 225.603 33.78C225.603 34.7693 225.248 35.6 224.539 36.272C223.829 36.944 222.924 37.28 221.823 37.28C220.721 37.28 219.816 36.944 219.107 36.272C218.397 35.6 218.043 34.7693 218.043 33.78ZM220.297 32.324C219.914 32.6973 219.723 33.1827 219.723 33.78C219.723 34.3773 219.914 34.8673 220.297 35.25C220.679 35.6233 221.188 35.81 221.823 35.81C222.457 35.81 222.966 35.6233 223.349 35.25C223.731 34.8673 223.923 34.3773 223.923 33.78C223.923 33.1827 223.731 32.6973 223.349 32.324C222.966 31.9413 222.457 31.75 221.823 31.75C221.188 31.75 220.679 31.9413 220.297 32.324ZM226.656 33.78C226.656 33.332 226.754 32.8653 226.95 32.38C227.155 31.8853 227.351 31.498 227.538 31.218C227.734 30.9287 228 30.5693 228.336 30.14L230.576 27.2H232.466L230.352 29.958L229.736 30.49V30.56L230.016 30.462C230.296 30.3873 230.599 30.35 230.926 30.35C231.841 30.35 232.615 30.6813 233.25 31.344C233.894 31.9973 234.216 32.8093 234.216 33.78C234.216 34.7693 233.861 35.6 233.152 36.272C232.443 36.944 231.537 37.28 230.436 37.28C229.335 37.28 228.429 36.944 227.72 36.272C227.011 35.6 226.656 34.7693 226.656 33.78ZM228.91 32.324C228.527 32.6973 228.336 33.1827 228.336 33.78C228.336 34.3773 228.527 34.8673 228.91 35.25C229.293 35.6233 229.801 35.81 230.436 35.81C231.071 35.81 231.579 35.6233 231.962 35.25C232.345 34.8673 232.536 34.3773 232.536 33.78C232.536 33.1827 232.345 32.6973 231.962 32.324C231.579 31.9413 231.071 31.75 230.436 31.75C229.801 31.75 229.293 31.9413 228.91 32.324Z" fill="#333333"/>
<path d="M439.42 181.2H441.1C441.165 181.489 441.291 181.746 441.478 181.97C441.898 182.483 442.495 182.74 443.27 182.74C443.914 182.74 444.423 182.581 444.796 182.264C445.179 181.937 445.37 181.536 445.37 181.06C445.37 180.519 445.197 180.094 444.852 179.786C444.516 179.469 444.035 179.31 443.41 179.31H441.03V177.91L443.97 175.81V175.74H439.91V174.2H446.35V175.726L443.83 177.56L443.13 177.84V177.91L443.354 177.882C443.662 177.854 443.844 177.84 443.9 177.84C444.777 177.84 445.51 178.143 446.098 178.75C446.686 179.357 446.98 180.127 446.98 181.06C446.98 181.956 446.635 182.717 445.944 183.342C445.253 183.967 444.362 184.28 443.27 184.28C441.823 184.28 440.755 183.767 440.064 182.74C439.765 182.301 439.551 181.788 439.42 181.2ZM448.037 183.23C448.037 182.95 448.125 182.717 448.303 182.53C448.489 182.343 448.718 182.25 448.989 182.25C449.297 182.25 449.539 182.362 449.717 182.586C449.903 182.81 449.997 183.141 449.997 183.58C449.997 184.299 449.824 184.849 449.479 185.232C449.143 185.624 448.685 185.82 448.107 185.82V185.12C448.387 185.12 448.606 185.041 448.765 184.882C448.933 184.733 449.017 184.532 449.017 184.28V184.196C449.007 184.187 449.003 184.168 449.003 184.14V184.098L448.919 184.126C448.891 184.135 448.83 184.14 448.737 184.14C448.55 184.14 448.387 184.056 448.247 183.888C448.107 183.72 448.037 183.501 448.037 183.23ZM451.043 180.78C451.043 180.332 451.141 179.865 451.337 179.38C451.542 178.885 451.738 178.498 451.925 178.218C452.121 177.929 452.387 177.569 452.723 177.14L454.963 174.2H456.853L454.739 176.958L454.123 177.49V177.56L454.403 177.462C454.683 177.387 454.986 177.35 455.313 177.35C456.227 177.35 457.002 177.681 457.637 178.344C458.281 178.997 458.603 179.809 458.603 180.78C458.603 181.769 458.248 182.6 457.539 183.272C456.829 183.944 455.924 184.28 454.823 184.28C453.721 184.28 452.816 183.944 452.107 183.272C451.397 182.6 451.043 181.769 451.043 180.78ZM453.297 179.324C452.914 179.697 452.723 180.183 452.723 180.78C452.723 181.377 452.914 181.867 453.297 182.25C453.679 182.623 454.188 182.81 454.823 182.81C455.457 182.81 455.966 182.623 456.349 182.25C456.731 181.867 456.923 181.377 456.923 180.78C456.923 180.183 456.731 179.697 456.349 179.324C455.966 178.941 455.457 178.75 454.823 178.75C454.188 178.75 453.679 178.941 453.297 179.324ZM459.656 180.78C459.656 180.332 459.754 179.865 459.95 179.38C460.155 178.885 460.351 178.498 460.538 178.218C460.734 177.929 461 177.569 461.336 177.14L463.576 174.2H465.466L463.352 176.958L462.736 177.49V177.56L463.016 177.462C463.296 177.387 463.599 177.35 463.926 177.35C464.841 177.35 465.615 177.681 466.25 178.344C466.894 178.997 467.216 179.809 467.216 180.78C467.216 181.769 466.861 182.6 466.152 183.272C465.443 183.944 464.537 184.28 463.436 184.28C462.335 184.28 461.429 183.944 460.72 183.272C460.011 182.6 459.656 181.769 459.656 180.78ZM461.91 179.324C461.527 179.697 461.336 180.183 461.336 180.78C461.336 181.377 461.527 181.867 461.91 182.25C462.293 182.623 462.801 182.81 463.436 182.81C464.071 182.81 464.579 182.623 464.962 182.25C465.345 181.867 465.536 181.377 465.536 180.78C465.536 180.183 465.345 179.697 464.962 179.324C464.579 178.941 464.071 178.75 463.436 178.75C462.801 178.75 462.293 178.941 461.91 179.324Z" fill="#333333"/>
<path d="M191.56 400.34C191.56 399.491 191.887 398.814 192.54 398.31C192.82 398.114 193.147 397.965 193.52 397.862V397.778C193.231 397.666 192.974 397.512 192.75 397.316C192.237 396.877 191.98 396.299 191.98 395.58C191.98 394.843 192.293 394.217 192.918 393.704C193.553 393.181 194.407 392.92 195.48 392.92C196.553 392.92 197.403 393.181 198.028 393.704C198.663 394.217 198.98 394.843 198.98 395.58C198.98 396.28 198.723 396.859 198.21 397.316C197.967 397.512 197.711 397.666 197.44 397.778V397.862C197.795 397.955 198.121 398.109 198.42 398.324C199.073 398.828 199.4 399.5 199.4 400.34C199.4 401.152 199.045 401.847 198.336 402.426C197.636 402.995 196.684 403.28 195.48 403.28C194.276 403.28 193.319 402.995 192.61 402.426C191.91 401.847 191.56 401.152 191.56 400.34ZM193.66 395.72C193.66 396.131 193.819 396.467 194.136 396.728C194.453 396.989 194.901 397.12 195.48 397.12C196.059 397.12 196.507 396.989 196.824 396.728C197.141 396.467 197.3 396.131 197.3 395.72C197.3 395.347 197.137 395.034 196.81 394.782C196.493 394.521 196.049 394.39 195.48 394.39C194.911 394.39 194.463 394.521 194.136 394.782C193.819 395.034 193.66 395.347 193.66 395.72ZM193.828 399.066C193.436 399.374 193.24 399.752 193.24 400.2C193.24 400.648 193.436 401.031 193.828 401.348C194.229 401.656 194.78 401.81 195.48 401.81C196.18 401.81 196.726 401.656 197.118 401.348C197.519 401.031 197.72 400.648 197.72 400.2C197.72 399.752 197.519 399.374 197.118 399.066C196.726 398.749 196.18 398.59 195.48 398.59C194.78 398.59 194.229 398.749 193.828 399.066ZM200.515 402.23C200.515 401.95 200.604 401.717 200.781 401.53C200.968 401.343 201.196 401.25 201.467 401.25C201.775 401.25 202.018 401.362 202.195 401.586C202.382 401.81 202.475 402.141 202.475 402.58C202.475 403.299 202.302 403.849 201.957 404.232C201.621 404.624 201.164 404.82 200.585 404.82V404.12C200.865 404.12 201.084 404.041 201.243 403.882C201.411 403.733 201.495 403.532 201.495 403.28V403.196C201.486 403.187 201.481 403.168 201.481 403.14V403.098L201.397 403.126C201.369 403.135 201.308 403.14 201.215 403.14C201.028 403.14 200.865 403.056 200.725 402.888C200.585 402.72 200.515 402.501 200.515 402.23ZM203.591 396.42C203.591 395.431 203.946 394.6 204.655 393.928C205.365 393.256 206.27 392.92 207.371 392.92C208.473 392.92 209.378 393.256 210.087 393.928C210.797 394.6 211.151 395.431 211.151 396.42C211.151 397.307 210.783 398.263 210.045 399.29C209.971 399.393 209.868 399.533 209.737 399.71C209.607 399.878 209.518 399.995 209.471 400.06L207.231 403H205.341L207.455 400.242L208.071 399.71V399.64C208.053 399.649 207.959 399.687 207.791 399.752C207.549 399.817 207.245 399.85 206.881 399.85C205.967 399.85 205.187 399.523 204.543 398.87C203.909 398.207 203.591 397.391 203.591 396.42ZM205.845 394.964C205.463 395.337 205.271 395.823 205.271 396.42C205.271 397.017 205.463 397.507 205.845 397.89C206.228 398.263 206.737 398.45 207.371 398.45C208.006 398.45 208.515 398.263 208.897 397.89C209.28 397.507 209.471 397.017 209.471 396.42C209.471 395.823 209.28 395.337 208.897 394.964C208.515 394.581 208.006 394.39 207.371 394.39C206.737 394.39 206.228 394.581 205.845 394.964ZM213.605 401.824C212.718 400.853 212.275 399.612 212.275 398.1C212.275 396.588 212.718 395.347 213.605 394.376C214.491 393.405 215.565 392.92 216.825 392.92C218.085 392.92 219.158 393.405 220.045 394.376C220.931 395.347 221.375 396.588 221.375 398.1C221.375 399.612 220.931 400.853 220.045 401.824C219.158 402.795 218.085 403.28 216.825 403.28C215.565 403.28 214.491 402.795 213.605 401.824ZM214.753 395.412C214.221 396.047 213.955 396.943 213.955 398.1C213.955 399.257 214.221 400.153 214.753 400.788C215.294 401.423 215.985 401.74 216.825 401.74C217.665 401.74 218.351 401.423 218.883 400.788C219.424 400.153 219.695 399.257 219.695 398.1C219.695 396.943 219.424 396.047 218.883 395.412C218.351 394.777 217.665 394.46 216.825 394.46C215.985 394.46 215.294 394.777 214.753 395.412Z" fill="#333333"/>
</svg>
