<svg width="353" height="538" viewBox="0 0 353 538" fill="none" xmlns="http://www.w3.org/2000/svg">
<rect width="259" height="129" transform="matrix(-1.19249e-08 -1 -1 1.19249e-08 342 411)" fill="#E7FFD5"/>
<rect width="96" height="66" transform="matrix(-1.19249e-08 -1 -1 1.19249e-08 271 506)" fill="#E7FFD5"/>
<path d="M341 254L341 30.0001L82 30.0001L82 254L341 254Z" fill="#E7FFD5"/>
<rect width="83" height="63" transform="matrix(-1.19249e-08 -1 -1 1.19249e-08 342 415)" fill="#FDFF9F"/>
<rect width="55.9047" height="29.6454" transform="matrix(0.707107 -0.707107 -0.707107 -0.707107 164.796 466.493)" fill="#FDFF9F"/>
<path d="M222 357L222 152L82 152L82 379L222 357Z" fill="#E7FFD5"/>
<path d="M214 372.817L214 272L84 375L144 439L214 372.817Z" fill="#E7FFD5"/>
<path d="M228 392.817L228 292L118 425L158 459L228 392.817Z" fill="#E7FFD5"/>
<path d="M205 501L205 408L185 408L154 444.5L205 501Z" fill="#E7FFD5"/>
<rect width="30" height="50" transform="matrix(-1.19249e-08 -1 -1 1.19249e-08 343 30.0001)" fill="#5A5A5A"/>
<rect width="12" height="419" transform="matrix(-1 0 0 1 353 0)" fill="#5A5A5A"/>
<rect width="2" height="11" transform="matrix(-4.37114e-08 1 1 4.37114e-08 110 365)" fill="#5A5A5A"/>
<rect width="2" height="11" transform="matrix(-4.37114e-08 1 1 4.37114e-08 93 365)" fill="#5A5A5A"/>
<rect width="2" height="11" transform="matrix(-4.37114e-08 1 1 4.37114e-08 76 365)" fill="#5A5A5A"/>
<rect width="2" height="11" transform="matrix(-4.37114e-08 1 1 4.37114e-08 127 365)" fill="#5A5A5A"/>
<rect width="2" height="11" transform="matrix(-4.37114e-08 1 1 4.37114e-08 144 365)" fill="#5A5A5A"/>
<rect width="2" height="11" transform="matrix(-4.37114e-08 1 1 4.37114e-08 161 365)" fill="#5A5A5A"/>
<rect width="2" height="11" transform="matrix(-4.37114e-08 1 1 4.37114e-08 178 365)" fill="#5A5A5A"/>
<rect width="2" height="11" transform="matrix(-4.37114e-08 1 1 4.37114e-08 195 365)" fill="#5A5A5A"/>
<rect width="2" height="11" transform="matrix(-4.37114e-08 1 1 4.37114e-08 212 365)" fill="#5A5A5A"/>
<rect width="16" height="233.651" transform="matrix(-0.707107 0.707107 0.707107 0.707107 61.7842 345.131)" fill="#5A5A5A"/>
<rect width="16" height="61" transform="matrix(4.37114e-08 1 1 -4.37114e-08 216 506)" fill="#5A5A5A"/>
<rect width="16" height="54" transform="matrix(-1 -8.74228e-08 -8.74228e-08 1 287 468)" fill="#5A5A5A"/>
<rect width="16" height="23" transform="matrix(-1 -8.74228e-08 -8.74228e-08 1 287 410)" fill="#5A5A5A"/>
<path d="M224.96 394.888L219.303 389.232L155 453.535L160.656 459.192L224.96 394.888Z" fill="#5A5A5A"/>
<path d="M279 388H271V411H279L279 388Z" fill="#5A5A5A"/>
<path d="M225 365H217V395H225L225 365Z" fill="#5A5A5A"/>
<path d="M344 335L344 327L271 327L271 335L344 335Z" fill="#5A5A5A"/>
<path d="M271 362H279V311H271L271 362Z" fill="#5A5A5A"/>
<path d="M271 281H279V220H271L271 281Z" fill="#5A5A5A"/>
<path d="M271 216L271 224L342 224L342 216L271 216Z" fill="#5A5A5A"/>
<path d="M220 269L220 277L279 277L279 269L220 269Z" fill="#5A5A5A"/>
<path d="M225 269L218 269L218 287L225 287L225 269Z" fill="#5A5A5A"/>
<path d="M271 410L271 418L344 418L344 410L271 410Z" fill="#5A5A5A"/>
<rect width="30" height="66" transform="matrix(-1.19249e-08 -1 -1 1.19249e-08 229 30.0001)" fill="#5A5A5A"/>
<path d="M296.75 29.75L90.3332 29.5983L90.2518 18.2502L296.75 18.2502L296.75 29.75Z" stroke="#5A5A5A" stroke-width="0.5" stroke-miterlimit="10"/>
<path d="M81.7498 36.25L81.5981 242.667L70.25 242.748L70.25 36.25L81.7498 36.25Z" stroke="#5A5A5A" stroke-width="0.5" stroke-miterlimit="10"/>
<path d="M296.75 11.75L90.3332 11.5983L90.2518 0.250186L296.75 0.250181L296.75 11.75Z" stroke="#5A5A5A" stroke-width="0.5" stroke-miterlimit="10"/>
<path d="M63.7498 36.25L63.5981 242.667L52.25 242.748L52.25 36.25L63.7498 36.25Z" stroke="#5A5A5A" stroke-width="0.5" stroke-miterlimit="10"/>
<path d="M0.250212 268.25L0.313162 349.718L4.74999 349.748L4.75001 268.25L0.250212 268.25Z" stroke="#5A5A5A" stroke-width="0.5" stroke-miterlimit="10"/>
<rect y="262" width="5" height="74" transform="rotate(-90 0 262)" fill="#5A5A5A"/>
<rect y="359" width="5" height="74" transform="rotate(-90 0 359)" fill="#5A5A5A"/>
<rect y="347" width="5" height="8" fill="#5A5A5A"/>
<rect y="257" width="5.00001" height="93" fill="#5A5A5A"/>
<path d="M66.7496 349.75L66.687 306.267L62.25 306.251L62.25 349.75L66.7496 349.75Z" stroke="#5A5A5A" stroke-width="0.5" stroke-miterlimit="10"/>
<path d="M56.7496 349.75L56.687 306.267L52.25 306.251L52.25 349.75L56.7496 349.75Z" stroke="#5A5A5A" stroke-width="0.5" stroke-miterlimit="10"/>
<line x1="67.4301" y1="277.745" x2="83.4301" y2="304.745" stroke="#5A5A5A"/>
<rect width="30" height="55" transform="matrix(-1.19249e-08 -1 -1 1.19249e-08 107 30.0002)" fill="#5A5A5A"/>
<rect width="30" height="63" transform="matrix(1 0 0 -1 52 91)" fill="#5A5A5A"/>
<rect width="30" height="123" transform="matrix(-1 0 0 1 82 155)" fill="#5A5A5A"/>
<path d="M82 333H52V355L82 369V333Z" fill="#5A5A5A"/>
<path d="M129.201 411.875L146.875 394.2L129.675 377L112 394.674L129.201 411.875Z" fill="white" stroke="#5A5A5A" stroke-width="0.5"/>
<path d="M144.787 394.978L131.032 408.733C130.51 409.255 129.955 409.255 129.411 408.711L115.164 394.464C114.609 393.909 114.609 393.376 115.142 392.843L128.897 379.088C129.419 378.544 129.963 378.555 130.507 379.099L144.754 393.346C145.32 393.89 145.32 394.445 144.787 394.978Z" fill="white" stroke="#5A5A5A" stroke-width="0.5"/>
<path d="M138.925 391.646C137.648 390.391 135.616 390.358 134.384 391.59C133.141 392.833 133.174 394.865 134.44 396.131C135.717 397.408 137.738 397.43 138.981 396.187C140.224 394.944 140.202 392.923 138.925 391.646Z" stroke="#5A5A5A" stroke-width="0.5"/>
<path d="M132.097 384.861C130.82 383.606 128.788 383.573 127.556 384.805C126.312 386.048 126.346 388.08 127.612 389.346C128.889 390.623 130.909 390.645 132.153 389.402C133.407 388.17 133.385 386.127 132.097 384.861Z" stroke="#5A5A5A" stroke-width="0.5"/>
<path d="M125.723 391.234C124.446 389.957 122.425 389.935 121.182 391.178C119.938 392.422 119.972 394.454 121.238 395.72C122.515 396.974 124.547 397.008 125.779 395.776C127.011 394.543 126.989 392.5 125.723 391.234Z" stroke="#5A5A5A" stroke-width="0.5"/>
<path d="M132.53 398.041C131.253 396.764 129.232 396.742 127.988 397.985C126.745 399.228 126.779 401.26 128.044 402.526C129.321 403.781 131.353 403.814 132.586 402.582C133.818 401.35 133.795 399.307 132.53 398.041Z" stroke="#5A5A5A" stroke-width="0.5"/>
<path d="M192.791 416.033L175.758 399L159 415.758L176.044 432.802L192.791 416.033Z" fill="white" stroke="#5A5A5A" stroke-width="0.5"/>
<path d="M186.845 412.637L177.428 403.22C176.903 402.696 176.389 402.696 175.853 403.231L163.403 415.682C162.889 416.196 162.878 416.721 163.381 417.246L172.819 426.662C173.323 427.187 173.848 427.177 174.373 426.652L186.823 414.201C187.37 413.698 187.37 413.162 186.845 412.637Z" fill="white" stroke="#5A5A5A" stroke-width="0.5"/>
<path d="M183.191 423.019C182.526 423.662 181.508 423.694 180.887 423.073L176.409 417.674L176.409 417.652C176.034 417.277 176.045 416.667 176.442 416.27C176.838 415.874 177.449 415.863 177.845 416.238L183.244 420.716C183.855 421.326 183.833 422.355 183.191 423.019Z" stroke="#5A5A5A" stroke-width="0.5"/>
<mask id="path-61-inside-1_67_864" fill="white">
<path fill-rule="evenodd" clip-rule="evenodd" d="M181.734 423.512L179.302 420.566C178.938 420.18 178.938 419.559 179.355 419.162C179.752 418.766 180.352 418.766 180.738 419.13L183.684 421.562"/>
</mask>
<path fill-rule="evenodd" clip-rule="evenodd" d="M181.734 423.512L179.302 420.566C178.938 420.18 178.938 419.559 179.355 419.162C179.752 418.766 180.352 418.766 180.738 419.13L183.684 421.562" fill="white"/>
<path d="M179.302 420.566L179.665 420.222L179.677 420.235L179.687 420.248L179.302 420.566ZM179.355 419.162L179.709 419.516L179.7 419.525L179.355 419.162ZM180.738 419.13L180.419 419.516L180.406 419.505L180.394 419.494L180.738 419.13ZM181.348 423.83L178.916 420.884L179.687 420.248L182.119 423.194L181.348 423.83ZM178.938 420.909C178.385 420.324 178.393 419.386 179.011 418.8L179.7 419.525C179.482 419.731 179.49 420.037 179.665 420.222L178.938 420.909ZM179.002 418.809C179.588 418.222 180.497 418.215 181.081 418.767L180.394 419.494C180.207 419.316 179.915 419.309 179.709 419.516L179.002 418.809ZM181.056 418.744L184.002 421.176L183.365 421.947L180.419 419.516L181.056 418.744Z" fill="#5A5A5A" mask="url(#path-61-inside-1_67_864)"/>
<line x1="273.451" y1="357.217" x2="260.451" y2="384.217" stroke="#5A5A5A"/>
<line x1="273.451" y1="277.217" x2="260.451" y2="304.217" stroke="#5A5A5A"/>
<line x1="301.58" y1="463.271" x2="281.58" y2="432.271" stroke="#5A5A5A"/>
<line y1="-0.5" x2="34.4819" y2="-0.5" transform="matrix(0.870022 0.493013 0.493013 -0.870022 290 520)" stroke="#5A5A5A"/>
<path d="M321.476 356.759L322.657 356.742L325.723 356.759L333.314 356.759L333.314 346.802L321.476 346.802C318.459 346.802 316 349.045 316 351.797C316 354.515 318.459 356.759 321.476 356.759Z" fill="white" stroke="#5A5A5A" stroke-width="0.5"/>
<path d="M321.542 355.613L322.476 355.613L330.035 355.613L330.035 347.932L322.476 347.932L321.542 347.948C319.164 347.948 317.229 349.651 317.229 351.78C317.246 353.893 319.181 355.613 321.542 355.613Z" fill="white" stroke="#5A5A5A" stroke-width="0.5"/>
<path d="M339.676 345L334.413 345C333.806 345 333.314 345.491 333.314 346.097L333.314 357.381C333.314 357.987 333.806 358.479 334.413 358.479L339.676 358.479C340.283 358.479 340.775 357.987 340.775 357.381L340.775 346.114C340.775 345.491 340.283 345 339.676 345Z" fill="white" stroke="#5A5A5A" stroke-width="0.5"/>
<path d="M337.052 351.092C336.642 351.092 336.331 351.387 336.331 351.731C336.314 352.091 336.642 352.386 337.052 352.386C337.462 352.386 337.773 352.091 337.773 351.747C337.757 351.371 337.445 351.076 337.052 351.092Z" fill="white" stroke="#5A5A5A" stroke-width="0.5"/>
<path d="M321.476 301.838L322.657 301.854L325.723 301.838L333.314 301.838L333.314 311.795L321.476 311.795C318.459 311.795 316 309.552 316 306.8C316 304.082 318.459 301.838 321.476 301.838Z" fill="white" stroke="#5A5A5A" stroke-width="0.5"/>
<path d="M321.542 302.984L322.476 302.984L330.035 302.984L330.035 310.665L322.476 310.665L321.542 310.649C319.164 310.649 317.229 308.945 317.229 306.816C317.246 304.704 319.181 302.984 321.542 302.984Z" fill="white" stroke="#5A5A5A" stroke-width="0.5"/>
<path d="M339.676 313.597L334.413 313.597C333.806 313.597 333.314 313.105 333.314 312.499L333.314 301.215C333.314 300.609 333.806 300.118 334.413 300.118L339.676 300.118C340.283 300.118 340.775 300.609 340.775 301.215L340.775 312.483C340.775 313.105 340.283 313.597 339.676 313.597Z" fill="white" stroke="#5A5A5A" stroke-width="0.5"/>
<path d="M337.052 307.504C336.642 307.504 336.331 307.21 336.331 306.866C336.314 306.505 336.642 306.211 337.052 306.211C337.462 306.211 337.773 306.505 337.773 306.849C337.757 307.226 337.445 307.521 337.052 307.504Z" fill="white" stroke="#5A5A5A" stroke-width="0.5"/>
<path d="M327.54 395.596L339.848 395.596C340.704 395.596 341.389 394.913 341.389 394.058L341.389 375.539C341.389 374.684 340.704 374 339.848 374L327.54 374C326.685 374 326 374.684 326 375.539L326 394.058C326 394.898 326.685 395.596 327.54 395.596Z" fill="white" stroke="#5A5A5A" stroke-width="0.5"/>
<path d="M332.232 393.673L334.129 393.673C336.625 393.673 338.65 391.65 338.65 389.157L338.65 380.439C338.65 377.946 336.625 375.923 334.129 375.923L332.232 375.923C329.736 375.923 327.711 377.946 327.711 380.439L327.711 389.157C327.711 391.65 329.736 393.673 332.232 393.673Z" fill="white" stroke="#5A5A5A" stroke-width="0.5"/>
<path d="M330.122 385.753C330.665 385.753 331.106 385.326 331.106 384.799C331.106 384.272 330.665 383.844 330.122 383.844C329.578 383.844 329.138 384.272 329.138 384.799C329.138 385.326 329.578 385.753 330.122 385.753Z" fill="white" stroke="#5A5A5A" stroke-width="0.5"/>
<path d="M327.54 268L339.848 268C340.704 268 341.389 268.684 341.389 269.539L341.389 288.058C341.389 288.913 340.704 289.596 339.848 289.596L327.54 289.596C326.685 289.596 326 288.913 326 288.058L326 269.539C326 268.698 326.685 268 327.54 268Z" fill="white" stroke="#5A5A5A" stroke-width="0.5"/>
<path d="M332.232 269.923L334.129 269.923C336.625 269.923 338.65 271.946 338.65 274.439L338.65 283.157C338.65 285.65 336.625 287.673 334.129 287.673L332.232 287.673C329.736 287.673 327.711 285.65 327.711 283.157L327.711 274.439C327.711 271.946 329.736 269.923 332.232 269.923Z" fill="white" stroke="#5A5A5A" stroke-width="0.5"/>
<path d="M330.122 277.843C330.665 277.843 331.106 278.271 331.106 278.798C331.106 279.325 330.665 279.752 330.122 279.752C329.578 279.752 329.138 279.325 329.138 278.798C329.138 278.271 329.578 277.843 330.122 277.843Z" fill="white" stroke="#5A5A5A" stroke-width="0.5"/>
<path d="M339.626 250.411L280.013 250.411C279.249 250.411 278.639 249.801 278.639 249.038L278.639 225.373C278.639 224.61 279.249 224 280.013 224L339.626 224C340.389 224 341 224.61 341 225.373L341 249.038C341 249.801 340.375 250.411 339.626 250.411Z" fill="white" stroke="#5A5A5A" stroke-width="0.5"/>
<path d="M282.303 240.414L282.303 233.982C282.303 230.252 285.329 227.244 289.049 227.244L335.99 227.244C336.906 227.244 337.642 227.979 337.642 228.894L337.642 245.53C337.642 246.445 336.906 247.18 335.99 247.18L289.063 247.18C285.329 247.166 282.303 244.144 282.303 240.414Z" fill="white" stroke="#5A5A5A" stroke-width="0.5"/>
<path d="M332.077 237.67C332.077 238.413 332.705 239.015 333.479 239.015C334.253 239.015 334.881 238.413 334.881 237.67C334.881 236.927 334.253 236.325 333.479 236.325C332.705 236.325 332.077 236.927 332.077 237.67Z" fill="white" stroke="#5A5A5A" stroke-width="0.5"/>
<circle cx="200.5" cy="132.5" r="39.5" fill="#5A5A5A"/>
<path d="M176.18 129.38V127.4H184.73V129.38L179.69 140H177.44L182.39 129.56V129.38H176.18ZM185.808 136.58C185.808 135.488 186.228 134.618 187.068 133.97C187.428 133.718 187.848 133.526 188.328 133.394V133.286C187.956 133.142 187.626 132.944 187.338 132.692C186.678 132.128 186.348 131.384 186.348 130.46C186.348 129.512 186.75 128.708 187.554 128.048C188.37 127.376 189.468 127.04 190.848 127.04C192.228 127.04 193.32 127.376 194.124 128.048C194.94 128.708 195.348 129.512 195.348 130.46C195.348 131.36 195.018 132.104 194.358 132.692C194.046 132.944 193.716 133.142 193.368 133.286V133.394C193.824 133.514 194.244 133.712 194.628 133.988C195.468 134.636 195.888 135.5 195.888 136.58C195.888 137.624 195.432 138.518 194.52 139.262C193.62 139.994 192.396 140.36 190.848 140.36C189.3 140.36 188.07 139.994 187.158 139.262C186.258 138.518 185.808 137.624 185.808 136.58ZM188.508 130.64C188.508 131.168 188.712 131.6 189.12 131.936C189.528 132.272 190.104 132.44 190.848 132.44C191.592 132.44 192.168 132.272 192.576 131.936C192.984 131.6 193.188 131.168 193.188 130.64C193.188 130.16 192.978 129.758 192.558 129.434C192.15 129.098 191.58 128.93 190.848 128.93C190.116 128.93 189.54 129.098 189.12 129.434C188.712 129.758 188.508 130.16 188.508 130.64ZM188.724 134.942C188.22 135.338 187.968 135.824 187.968 136.4C187.968 136.976 188.22 137.468 188.724 137.876C189.24 138.272 189.948 138.47 190.848 138.47C191.748 138.47 192.45 138.272 192.954 137.876C193.47 137.468 193.728 136.976 193.728 136.4C193.728 135.824 193.47 135.338 192.954 134.942C192.45 134.534 191.748 134.33 190.848 134.33C189.948 134.33 189.24 134.534 188.724 134.942ZM197.322 139.01C197.322 138.65 197.436 138.35 197.664 138.11C197.904 137.87 198.198 137.75 198.546 137.75C198.942 137.75 199.254 137.894 199.482 138.182C199.722 138.47 199.842 138.896 199.842 139.46C199.842 140.384 199.62 141.092 199.176 141.584C198.744 142.088 198.156 142.34 197.412 142.34V141.44C197.772 141.44 198.054 141.338 198.258 141.134C198.474 140.942 198.582 140.684 198.582 140.36V140.252C198.57 140.24 198.564 140.216 198.564 140.18V140.126L198.456 140.162C198.42 140.174 198.342 140.18 198.222 140.18C197.982 140.18 197.772 140.072 197.592 139.856C197.412 139.64 197.322 139.358 197.322 139.01ZM203.077 138.488C201.937 137.24 201.367 135.644 201.367 133.7C201.367 131.756 201.937 130.16 203.077 128.912C204.217 127.664 205.597 127.04 207.217 127.04C208.837 127.04 210.217 127.664 211.357 128.912C212.497 130.16 213.067 131.756 213.067 133.7C213.067 135.644 212.497 137.24 211.357 138.488C210.217 139.736 208.837 140.36 207.217 140.36C205.597 140.36 204.217 139.736 203.077 138.488ZM204.553 130.244C203.869 131.06 203.527 132.212 203.527 133.7C203.527 135.188 203.869 136.34 204.553 137.156C205.249 137.972 206.137 138.38 207.217 138.38C208.297 138.38 209.179 137.972 209.863 137.156C210.559 136.34 210.907 135.188 210.907 133.7C210.907 132.212 210.559 131.06 209.863 130.244C209.179 129.428 208.297 129.02 207.217 129.02C206.137 129.02 205.249 129.428 204.553 130.244ZM214.511 135.86C214.511 135.284 214.637 134.684 214.889 134.06C215.153 133.424 215.405 132.926 215.645 132.566C215.897 132.194 216.239 131.732 216.671 131.18L219.551 127.4H221.981L219.263 130.946L218.471 131.63V131.72L218.831 131.594C219.191 131.498 219.581 131.45 220.001 131.45C221.177 131.45 222.173 131.876 222.989 132.728C223.817 133.568 224.231 134.612 224.231 135.86C224.231 137.132 223.775 138.2 222.863 139.064C221.951 139.928 220.787 140.36 219.371 140.36C217.955 140.36 216.791 139.928 215.879 139.064C214.967 138.2 214.511 137.132 214.511 135.86ZM217.409 133.988C216.917 134.468 216.671 135.092 216.671 135.86C216.671 136.628 216.917 137.258 217.409 137.75C217.901 138.23 218.555 138.47 219.371 138.47C220.187 138.47 220.841 138.23 221.333 137.75C221.825 137.258 222.071 136.628 222.071 135.86C222.071 135.092 221.825 134.468 221.333 133.988C220.841 133.496 220.187 133.25 219.371 133.25C218.555 133.25 217.901 133.496 217.409 133.988Z" fill="white"/>
<path d="M285.42 382.2H287.1C287.165 382.489 287.291 382.746 287.478 382.97C287.898 383.483 288.495 383.74 289.27 383.74C289.914 383.74 290.423 383.581 290.796 383.264C291.179 382.937 291.37 382.536 291.37 382.06C291.37 381.519 291.197 381.094 290.852 380.786C290.516 380.469 290.035 380.31 289.41 380.31H287.03V378.91L289.97 376.81V376.74H285.91V375.2H292.35V376.726L289.83 378.56L289.13 378.84V378.91L289.354 378.882C289.662 378.854 289.844 378.84 289.9 378.84C290.777 378.84 291.51 379.143 292.098 379.75C292.686 380.357 292.98 381.127 292.98 382.06C292.98 382.956 292.635 383.717 291.944 384.342C291.253 384.967 290.362 385.28 289.27 385.28C287.823 385.28 286.755 384.767 286.064 383.74C285.765 383.301 285.551 382.788 285.42 382.2ZM294.037 384.23C294.037 383.95 294.125 383.717 294.303 383.53C294.489 383.343 294.718 383.25 294.989 383.25C295.297 383.25 295.539 383.362 295.717 383.586C295.903 383.81 295.997 384.141 295.997 384.58C295.997 385.299 295.824 385.849 295.479 386.232C295.143 386.624 294.685 386.82 294.107 386.82V386.12C294.387 386.12 294.606 386.041 294.765 385.882C294.933 385.733 295.017 385.532 295.017 385.28V385.196C295.007 385.187 295.003 385.168 295.003 385.14V385.098L294.919 385.126C294.891 385.135 294.83 385.14 294.737 385.14C294.55 385.14 294.387 385.056 294.247 384.888C294.107 384.72 294.037 384.501 294.037 384.23ZM296.693 376.74V375.2H303.343V376.74L299.423 385H297.673L301.523 376.88V376.74H296.693ZM305.581 383.824C304.694 382.853 304.251 381.612 304.251 380.1C304.251 378.588 304.694 377.347 305.581 376.376C306.468 375.405 307.541 374.92 308.801 374.92C310.061 374.92 311.134 375.405 312.021 376.376C312.908 377.347 313.351 378.588 313.351 380.1C313.351 381.612 312.908 382.853 312.021 383.824C311.134 384.795 310.061 385.28 308.801 385.28C307.541 385.28 306.468 384.795 305.581 383.824ZM306.729 377.412C306.197 378.047 305.931 378.943 305.931 380.1C305.931 381.257 306.197 382.153 306.729 382.788C307.27 383.423 307.961 383.74 308.801 383.74C309.641 383.74 310.327 383.423 310.859 382.788C311.4 382.153 311.671 381.257 311.671 380.1C311.671 378.943 311.4 378.047 310.859 377.412C310.327 376.777 309.641 376.46 308.801 376.46C307.961 376.46 307.27 376.777 306.729 377.412Z" fill="#333333"/>
<path d="M139.56 264.27H141.24C141.315 264.559 141.441 264.807 141.618 265.012C142.029 265.497 142.626 265.74 143.41 265.74C144.035 265.74 144.53 265.572 144.894 265.236C145.258 264.9 145.44 264.461 145.44 263.92C145.44 263.351 145.258 262.893 144.894 262.548C144.53 262.203 144.035 262.03 143.41 262.03C142.831 262.03 142.341 262.184 141.94 262.492C141.781 262.613 141.641 262.763 141.52 262.94H139.98L140.4 257.2H146.35V258.74H141.73L141.52 261.26H141.59C141.739 261.111 141.912 260.985 142.108 260.882C142.547 260.621 143.074 260.49 143.69 260.49C144.67 260.49 145.487 260.817 146.14 261.47C146.793 262.123 147.12 262.94 147.12 263.92C147.12 264.881 146.775 265.684 146.084 266.328C145.403 266.963 144.511 267.28 143.41 267.28C141.973 267.28 140.904 266.781 140.204 265.782C139.905 265.343 139.691 264.839 139.56 264.27ZM147.823 265.04V263.5L151.113 257.2H152.863L149.573 263.5H152.793V261.12H152.863H154.403V263.5H155.803V265.04H154.403V267H152.793V265.04H147.823ZM156.363 266.23C156.363 265.95 156.451 265.717 156.629 265.53C156.815 265.343 157.044 265.25 157.315 265.25C157.623 265.25 157.865 265.362 158.043 265.586C158.229 265.81 158.323 266.141 158.323 266.58C158.323 267.299 158.15 267.849 157.805 268.232C157.469 268.624 157.011 268.82 156.433 268.82V268.12C156.713 268.12 156.932 268.041 157.091 267.882C157.259 267.733 157.343 267.532 157.343 267.28V267.196C157.333 267.187 157.329 267.168 157.329 267.14V267.098L157.245 267.126C157.217 267.135 157.156 267.14 157.063 267.14C156.876 267.14 156.713 267.056 156.573 266.888C156.433 266.72 156.363 266.501 156.363 266.23ZM159.439 264.27H161.119C161.194 264.559 161.32 264.807 161.497 265.012C161.908 265.497 162.505 265.74 163.289 265.74C163.914 265.74 164.409 265.572 164.773 265.236C165.137 264.9 165.319 264.461 165.319 263.92C165.319 263.351 165.137 262.893 164.773 262.548C164.409 262.203 163.914 262.03 163.289 262.03C162.71 262.03 162.22 262.184 161.819 262.492C161.66 262.613 161.52 262.763 161.399 262.94H159.859L160.279 257.2H166.229V258.74H161.609L161.399 261.26H161.469C161.618 261.111 161.791 260.985 161.987 260.882C162.426 260.621 162.953 260.49 163.569 260.49C164.549 260.49 165.366 260.817 166.019 261.47C166.672 262.123 166.999 262.94 166.999 263.92C166.999 264.881 166.654 265.684 165.963 266.328C165.282 266.963 164.39 267.28 163.289 267.28C161.852 267.28 160.783 266.781 160.083 265.782C159.784 265.343 159.57 264.839 159.439 264.27ZM167.912 264.2H169.592C169.658 264.489 169.784 264.746 169.97 264.97C170.39 265.483 170.988 265.74 171.762 265.74C172.406 265.74 172.915 265.581 173.288 265.264C173.671 264.937 173.862 264.536 173.862 264.06C173.862 263.519 173.69 263.094 173.344 262.786C173.008 262.469 172.528 262.31 171.902 262.31H169.522V260.91L172.462 258.81V258.74H168.402V257.2H174.842V258.726L172.322 260.56L171.622 260.84V260.91L171.846 260.882C172.154 260.854 172.336 260.84 172.392 260.84C173.27 260.84 174.002 261.143 174.59 261.75C175.178 262.357 175.472 263.127 175.472 264.06C175.472 264.956 175.127 265.717 174.436 266.342C173.746 266.967 172.854 267.28 171.762 267.28C170.316 267.28 169.247 266.767 168.556 265.74C168.258 265.301 168.043 264.788 167.912 264.2Z" fill="#333333"/>
<path d="M156.21 380.04V378.5L159.5 372.2H161.25L157.96 378.5H161.18V376.12H161.25H162.79V378.5H164.19V380.04H162.79V382H161.18V380.04H156.21ZM164.749 381.23C164.749 380.95 164.838 380.717 165.015 380.53C165.202 380.343 165.431 380.25 165.701 380.25C166.009 380.25 166.252 380.362 166.429 380.586C166.616 380.81 166.709 381.141 166.709 381.58C166.709 382.299 166.537 382.849 166.191 383.232C165.855 383.624 165.398 383.82 164.819 383.82V383.12C165.099 383.12 165.319 383.041 165.477 382.882C165.645 382.733 165.729 382.532 165.729 382.28V382.196C165.72 382.187 165.715 382.168 165.715 382.14V382.098L165.631 382.126C165.603 382.135 165.543 382.14 165.449 382.14C165.263 382.14 165.099 382.056 164.959 381.888C164.819 381.72 164.749 381.501 164.749 381.23ZM167.476 380.04V378.5L170.766 372.2H172.516L169.226 378.5H172.446V376.12H172.516H174.056V378.5H175.456V380.04H174.056V382H172.446V380.04H167.476ZM175.945 378.78C175.945 378.332 176.043 377.865 176.239 377.38C176.444 376.885 176.64 376.498 176.827 376.218C177.023 375.929 177.289 375.569 177.625 375.14L179.865 372.2H181.755L179.641 374.958L179.025 375.49V375.56L179.305 375.462C179.585 375.387 179.888 375.35 180.215 375.35C181.13 375.35 181.904 375.681 182.539 376.344C183.183 376.997 183.505 377.809 183.505 378.78C183.505 379.769 183.15 380.6 182.441 381.272C181.732 381.944 180.826 382.28 179.725 382.28C178.624 382.28 177.718 381.944 177.009 381.272C176.3 380.6 175.945 379.769 175.945 378.78ZM178.199 377.324C177.816 377.697 177.625 378.183 177.625 378.78C177.625 379.377 177.816 379.867 178.199 380.25C178.582 380.623 179.09 380.81 179.725 380.81C180.36 380.81 180.868 380.623 181.251 380.25C181.634 379.867 181.825 379.377 181.825 378.78C181.825 378.183 181.634 377.697 181.251 377.324C180.868 376.941 180.36 376.75 179.725 376.75C179.09 376.75 178.582 376.941 178.199 377.324Z" fill="#333333"/>
<path d="M285.21 280.04V278.5L288.5 272.2H290.25L286.96 278.5H290.18V276.12H290.25H291.79V278.5H293.19V280.04H291.79V282H290.18V280.04H285.21ZM293.749 281.23C293.749 280.95 293.838 280.717 294.015 280.53C294.202 280.343 294.431 280.25 294.701 280.25C295.009 280.25 295.252 280.362 295.429 280.586C295.616 280.81 295.709 281.141 295.709 281.58C295.709 282.299 295.537 282.849 295.191 283.232C294.855 283.624 294.398 283.82 293.819 283.82V283.12C294.099 283.12 294.319 283.041 294.477 282.882C294.645 282.733 294.729 282.532 294.729 282.28V282.196C294.72 282.187 294.715 282.168 294.715 282.14V282.098L294.631 282.126C294.603 282.135 294.543 282.14 294.449 282.14C294.263 282.14 294.099 282.056 293.959 281.888C293.819 281.72 293.749 281.501 293.749 281.23ZM296.826 275.42C296.826 274.431 297.18 273.6 297.89 272.928C298.599 272.256 299.504 271.92 300.606 271.92C301.707 271.92 302.612 272.256 303.322 272.928C304.031 273.6 304.386 274.431 304.386 275.42C304.386 276.307 304.017 277.263 303.28 278.29C303.205 278.393 303.102 278.533 302.972 278.71C302.841 278.878 302.752 278.995 302.706 279.06L300.466 282H298.576L300.69 279.242L301.306 278.71V278.64C301.287 278.649 301.194 278.687 301.026 278.752C300.783 278.817 300.48 278.85 300.116 278.85C299.201 278.85 298.422 278.523 297.778 277.87C297.143 277.207 296.826 276.391 296.826 275.42ZM299.08 273.964C298.697 274.337 298.506 274.823 298.506 275.42C298.506 276.017 298.697 276.507 299.08 276.89C299.462 277.263 299.971 277.45 300.606 277.45C301.24 277.45 301.749 277.263 302.132 276.89C302.514 276.507 302.706 276.017 302.706 275.42C302.706 274.823 302.514 274.337 302.132 273.964C301.749 273.581 301.24 273.39 300.606 273.39C299.971 273.39 299.462 273.581 299.08 273.964ZM305.369 278.78C305.369 278.332 305.467 277.865 305.663 277.38C305.868 276.885 306.064 276.498 306.251 276.218C306.447 275.929 306.713 275.569 307.049 275.14L309.289 272.2H311.179L309.065 274.958L308.449 275.49V275.56L308.729 275.462C309.009 275.387 309.312 275.35 309.639 275.35C310.554 275.35 311.328 275.681 311.963 276.344C312.607 276.997 312.929 277.809 312.929 278.78C312.929 279.769 312.574 280.6 311.865 281.272C311.156 281.944 310.25 282.28 309.149 282.28C308.048 282.28 307.142 281.944 306.433 281.272C305.724 280.6 305.369 279.769 305.369 278.78ZM307.623 277.324C307.24 277.697 307.049 278.183 307.049 278.78C307.049 279.377 307.24 279.867 307.623 280.25C308.006 280.623 308.514 280.81 309.149 280.81C309.784 280.81 310.292 280.623 310.675 280.25C311.058 279.867 311.249 279.377 311.249 278.78C311.249 278.183 311.058 277.697 310.675 277.324C310.292 276.941 309.784 276.75 309.149 276.75C308.514 276.75 308.006 276.941 307.623 277.324Z" fill="#333333"/>
<path d="M14.42 303.2H16.1C16.1653 303.489 16.2913 303.746 16.478 303.97C16.898 304.483 17.4953 304.74 18.27 304.74C18.914 304.74 19.4227 304.581 19.796 304.264C20.1787 303.937 20.37 303.536 20.37 303.06C20.37 302.519 20.1973 302.094 19.852 301.786C19.516 301.469 19.0353 301.31 18.41 301.31H16.03V299.91L18.97 297.81V297.74H14.91V296.2H21.35V297.726L18.83 299.56L18.13 299.84V299.91L18.354 299.882C18.662 299.854 18.844 299.84 18.9 299.84C19.7773 299.84 20.51 300.143 21.098 300.75C21.686 301.357 21.98 302.127 21.98 303.06C21.98 303.956 21.6347 304.717 20.944 305.342C20.2533 305.967 19.362 306.28 18.27 306.28C16.8233 306.28 15.7547 305.767 15.064 304.74C14.7653 304.301 14.5507 303.788 14.42 303.2ZM23.0366 305.23C23.0366 304.95 23.1252 304.717 23.3026 304.53C23.4892 304.343 23.7179 304.25 23.9886 304.25C24.2966 304.25 24.5392 304.362 24.7166 304.586C24.9032 304.81 24.9966 305.141 24.9966 305.58C24.9966 306.299 24.8239 306.849 24.4786 307.232C24.1426 307.624 23.6852 307.82 23.1066 307.82V307.12C23.3866 307.12 23.6059 307.041 23.7646 306.882C23.9326 306.733 24.0166 306.532 24.0166 306.28V306.196C24.0072 306.187 24.0026 306.168 24.0026 306.14V306.098L23.9186 306.126C23.8906 306.135 23.8299 306.14 23.7366 306.14C23.5499 306.14 23.3866 306.056 23.2466 305.888C23.1066 305.72 23.0366 305.501 23.0366 305.23ZM26.0427 302.78C26.0427 302.332 26.1407 301.865 26.3367 301.38C26.5421 300.885 26.7381 300.498 26.9247 300.218C27.1207 299.929 27.3867 299.569 27.7227 299.14L29.9627 296.2H31.8527L29.7387 298.958L29.1227 299.49V299.56L29.4027 299.462C29.6827 299.387 29.9861 299.35 30.3127 299.35C31.2274 299.35 32.0021 299.681 32.6367 300.344C33.2807 300.997 33.6027 301.809 33.6027 302.78C33.6027 303.769 33.2481 304.6 32.5387 305.272C31.8294 305.944 30.9241 306.28 29.8227 306.28C28.7214 306.28 27.8161 305.944 27.1067 305.272C26.3974 304.6 26.0427 303.769 26.0427 302.78ZM28.2967 301.324C27.9141 301.697 27.7227 302.183 27.7227 302.78C27.7227 303.377 27.9141 303.867 28.2967 304.25C28.6794 304.623 29.1881 304.81 29.8227 304.81C30.4574 304.81 30.9661 304.623 31.3487 304.25C31.7314 303.867 31.9227 303.377 31.9227 302.78C31.9227 302.183 31.7314 301.697 31.3487 301.324C30.9661 300.941 30.4574 300.75 29.8227 300.75C29.1881 300.75 28.6794 300.941 28.2967 301.324ZM34.656 302.78C34.656 302.332 34.754 301.865 34.95 301.38C35.1553 300.885 35.3513 300.498 35.538 300.218C35.734 299.929 36 299.569 36.336 299.14L38.576 296.2H40.466L38.352 298.958L37.736 299.49V299.56L38.016 299.462C38.296 299.387 38.5993 299.35 38.926 299.35C39.8407 299.35 40.6153 299.681 41.25 300.344C41.894 300.997 42.216 301.809 42.216 302.78C42.216 303.769 41.8613 304.6 41.152 305.272C40.4427 305.944 39.5373 306.28 38.436 306.28C37.3347 306.28 36.4293 305.944 35.72 305.272C35.0107 304.6 34.656 303.769 34.656 302.78ZM36.91 301.324C36.5273 301.697 36.336 302.183 36.336 302.78C36.336 303.377 36.5273 303.867 36.91 304.25C37.2927 304.623 37.8013 304.81 38.436 304.81C39.0707 304.81 39.5793 304.623 39.962 304.25C40.3447 303.867 40.536 303.377 40.536 302.78C40.536 302.183 40.3447 301.697 39.962 301.324C39.5793 300.941 39.0707 300.75 38.436 300.75C37.8013 300.75 37.2927 300.941 36.91 301.324Z" fill="#333333"/>
<path d="M228.35 435.42V433.6L230.17 432.2H231.64V442H230.03V434.16L228.35 435.42ZM234.581 440.824C233.694 439.853 233.251 438.612 233.251 437.1C233.251 435.588 233.694 434.347 234.581 433.376C235.468 432.405 236.541 431.92 237.801 431.92C239.061 431.92 240.134 432.405 241.021 433.376C241.908 434.347 242.351 435.588 242.351 437.1C242.351 438.612 241.908 439.853 241.021 440.824C240.134 441.795 239.061 442.28 237.801 442.28C236.541 442.28 235.468 441.795 234.581 440.824ZM235.729 434.412C235.197 435.047 234.931 435.943 234.931 437.1C234.931 438.257 235.197 439.153 235.729 439.788C236.27 440.423 236.961 440.74 237.801 440.74C238.641 440.74 239.327 440.423 239.859 439.788C240.4 439.153 240.671 438.257 240.671 437.1C240.671 435.943 240.4 435.047 239.859 434.412C239.327 433.777 238.641 433.46 237.801 433.46C236.961 433.46 236.27 433.777 235.729 434.412ZM243.544 441.23C243.544 440.95 243.633 440.717 243.81 440.53C243.997 440.343 244.226 440.25 244.496 440.25C244.804 440.25 245.047 440.362 245.224 440.586C245.411 440.81 245.504 441.141 245.504 441.58C245.504 442.299 245.332 442.849 244.986 443.232C244.65 443.624 244.193 443.82 243.614 443.82V443.12C243.894 443.12 244.114 443.041 244.272 442.882C244.44 442.733 244.524 442.532 244.524 442.28V442.196C244.515 442.187 244.51 442.168 244.51 442.14V442.098L244.426 442.126C244.398 442.135 244.338 442.14 244.244 442.14C244.058 442.14 243.894 442.056 243.754 441.888C243.614 441.72 243.544 441.501 243.544 441.23ZM246.271 440.04V438.5L249.561 432.2H251.311L248.021 438.5H251.241V436.12H251.311H252.851V438.5H254.251V440.04H252.851V442H251.241V440.04H246.271ZM254.6 435.42V433.6L256.42 432.2H257.89V442H256.28V434.16L254.6 435.42Z" fill="#333333"/>
</svg>
