<svg width="342" height="406" viewBox="0 0 342 406" fill="none" xmlns="http://www.w3.org/2000/svg">
<rect width="30" height="83" transform="matrix(-4.37114e-08 -1 -1 4.37114e-08 83 30)" fill="#5A5A5A"/>
<rect width="288" height="250" transform="matrix(-4.37114e-08 -1 -1 4.37114e-08 262 318)" fill="#E7FFD5"/>
<rect width="288" height="219" transform="matrix(-4.37114e-08 -1 -1 4.37114e-08 262 396)" fill="#E7FFD5"/>
<rect width="152" height="64" transform="matrix(-1.19249e-08 -1 -1 1.19249e-08 75 321)" fill="#FDFF9F"/>
<path d="M226.324 393.995L226.324 369L201.999 369L201.999 393.995L226.324 393.995Z" fill="white" stroke="#5A5A5A" stroke-width="0.5"/>
<path d="M225.397 371.026L225.397 390.479C225.397 391.217 225.005 391.61 224.235 391.61L204.088 391.61C203.303 391.61 202.926 391.233 202.926 390.479L202.926 371.026C202.91 370.273 203.303 369.896 204.072 369.896L224.22 369.896C225.005 369.88 225.397 370.273 225.397 371.026Z" fill="white" stroke="#5A5A5A" stroke-width="0.5"/>
<path d="M218.897 372.815C217.107 372.831 215.646 374.244 215.646 375.987C215.646 377.745 217.107 379.158 218.897 379.158C220.703 379.158 222.147 377.745 222.147 375.987C222.147 374.228 220.703 372.815 218.897 372.815Z" stroke="#5A5A5A" stroke-width="0.5"/>
<path d="M209.271 372.846C207.481 372.862 206.02 374.275 206.02 376.017C206.02 377.776 207.481 379.189 209.271 379.189C211.077 379.189 212.521 377.776 212.521 376.017C212.537 374.259 211.077 372.83 209.271 372.846Z" stroke="#5A5A5A" stroke-width="0.5"/>
<path d="M209.271 381.859C207.465 381.859 206.02 383.272 206.02 385.031C206.02 386.789 207.481 388.202 209.271 388.202C211.061 388.187 212.521 386.774 212.521 385.031C212.521 383.288 211.061 381.859 209.271 381.859Z" stroke="#5A5A5A" stroke-width="0.5"/>
<path d="M218.897 381.859C217.091 381.859 215.646 383.272 215.646 385.031C215.646 386.789 217.107 388.202 218.897 388.202C220.687 388.187 222.147 386.774 222.147 385.031C222.147 383.288 220.687 381.859 218.897 381.859Z" stroke="#5A5A5A" stroke-width="0.5"/>
<path d="M163.699 394.088L163.699 370L140 370L140 394.104L163.699 394.088Z" fill="white" stroke="#5A5A5A" stroke-width="0.5"/>
<path d="M161.896 387.482L161.896 374.165C161.896 373.423 161.533 373.059 160.775 373.059L143.168 373.059C142.44 373.059 142.061 373.423 142.046 374.15L142.061 387.482C142.046 388.209 142.425 388.573 143.168 388.573L160.775 388.573C161.518 388.603 161.896 388.225 161.896 387.482Z" fill="white" stroke="#5A5A5A" stroke-width="0.5"/>
<path d="M151.971 392.24C151.047 392.225 150.304 391.528 150.304 390.649L150.956 383.665L150.971 383.65C150.971 383.12 151.41 382.695 151.971 382.695C152.532 382.695 152.971 383.12 152.986 383.665L153.638 390.649C153.638 391.513 152.895 392.225 151.971 392.24Z" stroke="#5A5A5A" stroke-width="0.5"/>
<mask id="path-14-inside-1_50_13163" fill="white">
<path fill-rule="evenodd" clip-rule="evenodd" d="M150.592 391.557L150.955 387.755C150.971 387.225 151.41 386.785 151.986 386.8C152.547 386.8 152.971 387.225 152.986 387.755L153.35 391.557"/>
</mask>
<path fill-rule="evenodd" clip-rule="evenodd" d="M150.592 391.557L150.955 387.755C150.971 387.225 151.41 386.785 151.986 386.8C152.547 386.8 152.971 387.225 152.986 387.755L153.35 391.557" fill="white"/>
<path d="M150.955 387.755L151.455 387.769L151.455 387.786L151.453 387.802L150.955 387.755ZM151.986 386.8L151.986 387.301L151.973 387.3L151.986 386.8ZM152.986 387.755L152.488 387.802L152.487 387.786L152.486 387.769L152.986 387.755ZM150.094 391.51L150.458 387.707L151.453 387.802L151.09 391.605L150.094 391.51ZM150.456 387.741C150.479 386.936 151.147 386.278 151.999 386.301L151.973 387.3C151.673 387.292 151.463 387.514 151.455 387.769L150.456 387.741ZM151.986 386.3C152.815 386.3 153.463 386.938 153.486 387.741L152.486 387.769C152.479 387.511 152.278 387.3 151.986 387.3L151.986 386.3ZM153.484 387.707L153.847 391.51L152.852 391.605L152.488 387.802L153.484 387.707Z" fill="#5A5A5A" mask="url(#path-14-inside-1_50_13163)"/>
<rect width="30" height="50" transform="matrix(-4.37114e-08 -1 -1 4.37114e-08 187 30)" fill="#5A5A5A"/>
<rect width="30" height="45" transform="matrix(-4.37114e-08 -1 -1 4.37114e-08 292 30)" fill="#5A5A5A"/>
<rect width="30" height="90" transform="matrix(1 0 0 -1 262 105)" fill="#5A5A5A"/>
<rect width="30" height="122" transform="matrix(1 0 0 -1 262 282)" fill="#5A5A5A"/>
<rect width="30" height="69" transform="matrix(1 0 0 -1 262 406)" fill="#5A5A5A"/>
<rect width="12" height="330" transform="matrix(-1 0 0 1 12 0)" fill="#5A5A5A"/>
<rect width="12" height="83" transform="matrix(1.19249e-08 -1 -1 -1.19249e-08 83 330)" fill="#5A5A5A"/>
<rect width="12" height="36" transform="matrix(1 0 0 -1 29 404)" fill="#5A5A5A"/>
<rect width="12" height="11" transform="matrix(1 0 0 -1 29 334)" fill="#5A5A5A"/>
<rect width="12" height="83" transform="matrix(1.19249e-08 -1 -1 -1.19249e-08 83 169)" fill="#5A5A5A"/>
<path d="M30.9125 256.759L29.732 256.742L26.666 256.759L19.0747 256.759L19.0747 246.801L30.9125 246.801C33.9293 246.801 36.3887 249.045 36.3887 251.796C36.3887 254.515 33.9293 256.759 30.9125 256.759Z" fill="white" stroke="#5A5A5A" stroke-width="0.5"/>
<path d="M30.8471 255.612L29.9125 255.612L22.3541 255.612L22.3541 247.932L29.9125 247.932L30.8471 247.948C33.2245 247.948 35.1592 249.651 35.1592 251.78C35.1428 253.893 33.2081 255.612 30.8471 255.612Z" fill="white" stroke="#5A5A5A" stroke-width="0.5"/>
<path d="M12.7126 245L17.9757 245C18.5824 245 19.0742 245.491 19.0742 246.097L19.0742 257.381C19.0742 257.987 18.5824 258.478 17.9757 258.478L12.7126 258.478C12.106 258.478 11.6141 257.987 11.6141 257.381L11.6141 246.114C11.6141 245.491 12.106 245 12.7126 245Z" fill="white" stroke="#5A5A5A" stroke-width="0.5"/>
<path d="M15.3367 251.092C15.7465 251.092 16.058 251.387 16.058 251.731C16.0744 252.091 15.7465 252.386 15.3367 252.386C14.9268 252.386 14.6153 252.091 14.6153 251.747C14.6317 251.371 14.9432 251.076 15.3367 251.092Z" fill="white" stroke="#5A5A5A" stroke-width="0.5"/>
<path d="M31.2982 309.759L30.1177 309.742L27.0517 309.759L19.4605 309.759L19.4605 299.801L31.2982 299.801C34.3151 299.801 36.7744 302.045 36.7744 304.796C36.7744 307.515 34.3151 309.759 31.2982 309.759Z" fill="white" stroke="#5A5A5A" stroke-width="0.5"/>
<path d="M31.2329 308.612L30.2983 308.612L22.7398 308.612L22.7398 300.932L30.2983 300.932L31.2329 300.948C33.6102 300.948 35.5449 302.651 35.5449 304.78C35.5285 306.893 33.5938 308.612 31.2329 308.612Z" fill="white" stroke="#5A5A5A" stroke-width="0.5"/>
<path d="M13.0984 298L18.3614 298C18.9681 298 19.46 298.491 19.46 299.097L19.46 310.381C19.46 310.987 18.9681 311.478 18.3614 311.478L13.0984 311.478C12.4917 311.478 11.9998 310.987 11.9998 310.381L11.9998 299.114C11.9998 298.491 12.4917 298 13.0984 298Z" fill="white" stroke="#5A5A5A" stroke-width="0.5"/>
<path d="M15.7224 304.092C16.1323 304.092 16.4437 304.387 16.4437 304.731C16.4601 305.091 16.1323 305.386 15.7224 305.386C15.3125 305.386 15.001 305.091 15.001 304.747C15.0174 304.371 15.3289 304.076 15.7224 304.092Z" fill="white" stroke="#5A5A5A" stroke-width="0.5"/>
<path d="M25.8484 238.596L13.5403 238.596C12.6846 238.596 12.0001 237.913 12.0001 237.058L12 218.539C12 217.684 12.6846 217 13.5403 217L25.8484 217C26.7041 217 27.3887 217.684 27.3887 218.539L27.3887 237.058C27.3887 237.898 26.7041 238.596 25.8484 238.596Z" fill="white" stroke="#5A5A5A" stroke-width="0.5"/>
<path d="M21.1567 236.673L19.2599 236.673C16.764 236.673 14.7389 234.65 14.7389 232.157L14.7389 223.439C14.7389 220.946 16.764 218.923 19.2599 218.923L21.1567 218.923C23.6525 218.923 25.6777 220.946 25.6777 223.439L25.6777 232.157C25.6777 234.65 23.6526 236.673 21.1567 236.673Z" fill="white" stroke="#5A5A5A" stroke-width="0.5"/>
<path d="M23.267 228.753C22.7235 228.753 22.283 228.326 22.283 227.799C22.283 227.272 22.7235 226.844 23.267 226.844C23.8104 226.844 24.251 227.272 24.251 227.799C24.251 228.326 23.8104 228.753 23.267 228.753Z" fill="white" stroke="#5A5A5A" stroke-width="0.5"/>
<path d="M43.0002 287.848L43.0002 275.54C43.0002 274.685 43.684 274 44.5388 274L63.0582 274C63.9129 274 64.5967 274.685 64.5967 275.54L64.5967 287.848C64.5967 288.704 63.9129 289.389 63.0582 289.389L44.5388 289.389C43.6983 289.389 43.0002 288.704 43.0002 287.848Z" fill="white" stroke="#5A5A5A" stroke-width="0.5"/>
<path d="M44.9237 283.156L44.9237 281.26C44.9237 278.764 46.9466 276.738 49.4396 276.738L58.158 276.738C60.651 276.738 62.6738 278.764 62.6738 281.26L62.6738 283.156C62.6738 285.652 60.651 287.677 58.158 287.677L49.4396 287.677C46.9466 287.677 44.9237 285.652 44.9237 283.156Z" fill="white" stroke="#5A5A5A" stroke-width="0.5"/>
<path d="M52.8441 285.267C52.8441 284.724 53.2714 284.283 53.7985 284.283C54.3256 284.283 54.7529 284.724 54.7529 285.267C54.7529 285.811 54.3256 286.251 53.7985 286.251C53.2714 286.251 52.8441 285.811 52.8441 285.267Z" fill="white" stroke="#5A5A5A" stroke-width="0.5"/>
<path d="M13.6591 194L70.0882 194C70.8108 194 71.3889 193.423 71.3889 192.701L71.3889 170.299C71.3889 169.577 70.8108 169 70.0882 169L13.6591 169C12.9365 169 12.3584 169.577 12.3584 170.299L12.3584 192.701C12.3584 193.423 12.9496 194 13.6591 194Z" fill="white" stroke="#5A5A5A" stroke-width="0.5"/>
<path d="M67.9206 184.538L67.9206 178.448C67.9206 174.918 65.0564 172.071 61.5353 172.071L17.1015 172.071C16.2344 172.071 15.5381 172.766 15.5381 173.632L15.5381 189.38C15.5381 190.246 16.2344 190.942 17.1015 190.942L61.5222 190.942C65.0564 190.929 67.9206 188.068 67.9206 184.538Z" fill="white" stroke="#5A5A5A" stroke-width="0.5"/>
<path d="M20.8052 181.94C20.8052 182.643 20.2111 183.213 19.4783 183.213C18.7454 183.213 18.1514 182.643 18.1514 181.94C18.1514 181.237 18.7454 180.667 19.4783 180.667C20.2111 180.667 20.8052 181.237 20.8052 181.94Z" fill="white" stroke="#5A5A5A" stroke-width="0.5"/>
<rect width="12" height="17" transform="matrix(1.19249e-08 -1 -1 -1.19249e-08 134 169)" fill="#5A5A5A"/>
<rect width="12" height="138" transform="matrix(1.19249e-08 -1 -1 -1.19249e-08 265 221)" fill="#5A5A5A"/>
<rect width="12" height="121" transform="matrix(1 0 0 -1 127 330)" fill="#5A5A5A"/>
<rect width="12" height="236" transform="matrix(-4.37114e-08 1 1 4.37114e-08 29 394)" fill="#5A5A5A"/>
<path d="M83 160H75L75 216H83L83 160Z" fill="#5A5A5A"/>
<path d="M83 244H75V282H83L83 244Z" fill="#5A5A5A"/>
<path d="M77 274L77 266L9 266L9 274L77 274Z" fill="#5A5A5A"/>
<path d="M75 330H83V307H75L75 330Z" fill="#5A5A5A"/>
<path d="M127 395H135V372H127L127 395Z" fill="#5A5A5A"/>
<path d="M248.75 29.7498L60.3259 29.5982L60.2516 18.25L248.75 18.25L248.75 29.7498Z" stroke="#5A5A5A" stroke-width="0.5" stroke-miterlimit="10"/>
<path d="M172.42 179.2H174.1C174.165 179.489 174.291 179.746 174.478 179.97C174.898 180.483 175.495 180.74 176.27 180.74C176.914 180.74 177.423 180.581 177.796 180.264C178.179 179.937 178.37 179.536 178.37 179.06C178.37 178.519 178.197 178.094 177.852 177.786C177.516 177.469 177.035 177.31 176.41 177.31H174.03V175.91L176.97 173.81V173.74H172.91V172.2H179.35V173.726L176.83 175.56L176.13 175.84V175.91L176.354 175.882C176.662 175.854 176.844 175.84 176.9 175.84C177.777 175.84 178.51 176.143 179.098 176.75C179.686 177.357 179.98 178.127 179.98 179.06C179.98 179.956 179.635 180.717 178.944 181.342C178.253 181.967 177.362 182.28 176.27 182.28C174.823 182.28 173.755 181.767 173.064 180.74C172.765 180.301 172.551 179.788 172.42 179.2ZM180.827 175.42V173.6L182.647 172.2H184.117V182H182.507V174.16L180.827 175.42ZM185.658 181.23C185.658 180.95 185.746 180.717 185.924 180.53C186.11 180.343 186.339 180.25 186.61 180.25C186.918 180.25 187.16 180.362 187.338 180.586C187.524 180.81 187.618 181.141 187.618 181.58C187.618 182.299 187.445 182.849 187.1 183.232C186.764 183.624 186.306 183.82 185.728 183.82V183.12C186.008 183.12 186.227 183.041 186.386 182.882C186.554 182.733 186.638 182.532 186.638 182.28V182.196C186.628 182.187 186.624 182.168 186.624 182.14V182.098L186.54 182.126C186.512 182.135 186.451 182.14 186.358 182.14C186.171 182.14 186.008 182.056 185.868 181.888C185.728 181.72 185.658 181.501 185.658 181.23ZM188.524 175.42V173.6L190.344 172.2H191.814V182H190.204V174.16L188.524 175.42ZM193.215 179.2H194.895C194.96 179.489 195.086 179.746 195.273 179.97C195.693 180.483 196.29 180.74 197.065 180.74C197.709 180.74 198.218 180.581 198.591 180.264C198.974 179.937 199.165 179.536 199.165 179.06C199.165 178.519 198.992 178.094 198.647 177.786C198.311 177.469 197.83 177.31 197.205 177.31H194.825V175.91L197.765 173.81V173.74H193.705V172.2H200.145V173.726L197.625 175.56L196.925 175.84V175.91L197.149 175.882C197.457 175.854 197.639 175.84 197.695 175.84C198.572 175.84 199.305 176.143 199.893 176.75C200.481 177.357 200.775 178.127 200.775 179.06C200.775 179.956 200.43 180.717 199.739 181.342C199.048 181.967 198.157 182.28 197.065 182.28C195.618 182.28 194.55 181.767 193.859 180.74C193.56 180.301 193.346 179.788 193.215 179.2Z" fill="#333333"/>
<path d="M191.35 299.42V297.6L193.17 296.2H194.64V306H193.03V298.16L191.35 299.42ZM195.761 297.74V296.2H202.411V297.74L198.491 306H196.741L200.591 297.88V297.74H195.761ZM201.855 305.23C201.855 304.95 201.944 304.717 202.121 304.53C202.308 304.343 202.536 304.25 202.807 304.25C203.115 304.25 203.358 304.362 203.535 304.586C203.722 304.81 203.815 305.141 203.815 305.58C203.815 306.299 203.642 306.849 203.297 307.232C202.961 307.624 202.504 307.82 201.925 307.82V307.12C202.205 307.12 202.424 307.041 202.583 306.882C202.751 306.733 202.835 306.532 202.835 306.28V306.196C202.826 306.187 202.821 306.168 202.821 306.14V306.098L202.737 306.126C202.709 306.135 202.648 306.14 202.555 306.14C202.368 306.14 202.205 306.056 202.065 305.888C201.925 305.72 201.855 305.501 201.855 305.23ZM204.511 297.74V296.2H211.161V297.74L207.241 306H205.491L209.341 297.88V297.74H204.511ZM211.789 299.42V297.6L213.609 296.2H215.079V306H213.469V298.16L211.789 299.42Z" fill="#333333"/>
<path d="M300.42 310.2H302.1C302.165 310.489 302.291 310.746 302.478 310.97C302.898 311.483 303.495 311.74 304.27 311.74C304.914 311.74 305.423 311.581 305.796 311.264C306.179 310.937 306.37 310.536 306.37 310.06C306.37 309.519 306.197 309.094 305.852 308.786C305.516 308.469 305.035 308.31 304.41 308.31H302.03V306.91L304.97 304.81V304.74H300.91V303.2H307.35V304.726L304.83 306.56L304.13 306.84V306.91L304.354 306.882C304.662 306.854 304.844 306.84 304.9 306.84C305.777 306.84 306.51 307.143 307.098 307.75C307.686 308.357 307.98 309.127 307.98 310.06C307.98 310.956 307.635 311.717 306.944 312.342C306.253 312.967 305.362 313.28 304.27 313.28C302.823 313.28 301.755 312.767 301.064 311.74C300.765 311.301 300.551 310.788 300.42 310.2ZM309.037 312.23C309.037 311.95 309.125 311.717 309.303 311.53C309.489 311.343 309.718 311.25 309.989 311.25C310.297 311.25 310.539 311.362 310.717 311.586C310.903 311.81 310.997 312.141 310.997 312.58C310.997 313.299 310.824 313.849 310.479 314.232C310.143 314.624 309.685 314.82 309.107 314.82V314.12C309.387 314.12 309.606 314.041 309.765 313.882C309.933 313.733 310.017 313.532 310.017 313.28V313.196C310.007 313.187 310.003 313.168 310.003 313.14V313.098L309.919 313.126C309.891 313.135 309.83 313.14 309.737 313.14C309.55 313.14 309.387 313.056 309.247 312.888C309.107 312.72 309.037 312.501 309.037 312.23ZM312.043 309.78C312.043 309.332 312.141 308.865 312.337 308.38C312.542 307.885 312.738 307.498 312.925 307.218C313.121 306.929 313.387 306.569 313.723 306.14L315.963 303.2H317.853L315.739 305.958L315.123 306.49V306.56L315.403 306.462C315.683 306.387 315.986 306.35 316.313 306.35C317.227 306.35 318.002 306.681 318.637 307.344C319.281 307.997 319.603 308.809 319.603 309.78C319.603 310.769 319.248 311.6 318.539 312.272C317.829 312.944 316.924 313.28 315.823 313.28C314.721 313.28 313.816 312.944 313.107 312.272C312.397 311.6 312.043 310.769 312.043 309.78ZM314.297 308.324C313.914 308.697 313.723 309.183 313.723 309.78C313.723 310.377 313.914 310.867 314.297 311.25C314.679 311.623 315.188 311.81 315.823 311.81C316.457 311.81 316.966 311.623 317.349 311.25C317.731 310.867 317.923 310.377 317.923 309.78C317.923 309.183 317.731 308.697 317.349 308.324C316.966 307.941 316.457 307.75 315.823 307.75C315.188 307.75 314.679 307.941 314.297 308.324ZM320.656 309.78C320.656 309.332 320.754 308.865 320.95 308.38C321.155 307.885 321.351 307.498 321.538 307.218C321.734 306.929 322 306.569 322.336 306.14L324.576 303.2H326.466L324.352 305.958L323.736 306.49V306.56L324.016 306.462C324.296 306.387 324.599 306.35 324.926 306.35C325.841 306.35 326.615 306.681 327.25 307.344C327.894 307.997 328.216 308.809 328.216 309.78C328.216 310.769 327.861 311.6 327.152 312.272C326.443 312.944 325.537 313.28 324.436 313.28C323.335 313.28 322.429 312.944 321.72 312.272C321.011 311.6 320.656 310.769 320.656 309.78ZM322.91 308.324C322.527 308.697 322.336 309.183 322.336 309.78C322.336 310.377 322.527 310.867 322.91 311.25C323.293 311.623 323.801 311.81 324.436 311.81C325.071 311.81 325.579 311.623 325.962 311.25C326.345 310.867 326.536 310.377 326.536 309.78C326.536 309.183 326.345 308.697 325.962 308.324C325.579 307.941 325.071 307.75 324.436 307.75C323.801 307.75 323.293 307.941 322.91 308.324Z" fill="#333333"/>
<path d="M66.35 350.42V348.6L68.17 347.2H69.64V357H68.03V349.16L66.35 350.42ZM72.5811 355.824C71.6944 354.853 71.2511 353.612 71.2511 352.1C71.2511 350.588 71.6944 349.347 72.5811 348.376C73.4678 347.405 74.5411 346.92 75.8011 346.92C77.0611 346.92 78.1344 347.405 79.0211 348.376C79.9078 349.347 80.3511 350.588 80.3511 352.1C80.3511 353.612 79.9078 354.853 79.0211 355.824C78.1344 356.795 77.0611 357.28 75.8011 357.28C74.5411 357.28 73.4678 356.795 72.5811 355.824ZM73.7291 349.412C73.1971 350.047 72.9311 350.943 72.9311 352.1C72.9311 353.257 73.1971 354.153 73.7291 354.788C74.2704 355.423 74.9611 355.74 75.8011 355.74C76.6411 355.74 77.3271 355.423 77.8591 354.788C78.4004 354.153 78.6711 353.257 78.6711 352.1C78.6711 350.943 78.4004 350.047 77.8591 349.412C77.3271 348.777 76.6411 348.46 75.8011 348.46C74.9611 348.46 74.2704 348.777 73.7291 349.412ZM81.5444 356.23C81.5444 355.95 81.633 355.717 81.8104 355.53C81.997 355.343 82.2257 355.25 82.4964 355.25C82.8044 355.25 83.047 355.362 83.2244 355.586C83.411 355.81 83.5044 356.141 83.5044 356.58C83.5044 357.299 83.3317 357.849 82.9864 358.232C82.6504 358.624 82.193 358.82 81.6144 358.82V358.12C81.8944 358.12 82.1137 358.041 82.2724 357.882C82.4404 357.733 82.5244 357.532 82.5244 357.28V357.196C82.515 357.187 82.5104 357.168 82.5104 357.14V357.098L82.4264 357.126C82.3984 357.135 82.3377 357.14 82.2444 357.14C82.0577 357.14 81.8944 357.056 81.7544 356.888C81.6144 356.72 81.5444 356.501 81.5444 356.23ZM84.4105 350.42V348.6L86.2305 347.2H87.7005V357H86.0905V349.16L84.4105 350.42ZM90.6416 355.824C89.755 354.853 89.3116 353.612 89.3116 352.1C89.3116 350.588 89.755 349.347 90.6416 348.376C91.5283 347.405 92.6016 346.92 93.8616 346.92C95.1216 346.92 96.195 347.405 97.0816 348.376C97.9683 349.347 98.4116 350.588 98.4116 352.1C98.4116 353.612 97.9683 354.853 97.0816 355.824C96.195 356.795 95.1216 357.28 93.8616 357.28C92.6016 357.28 91.5283 356.795 90.6416 355.824ZM91.7896 349.412C91.2576 350.047 90.9916 350.943 90.9916 352.1C90.9916 353.257 91.2576 354.153 91.7896 354.788C92.331 355.423 93.0216 355.74 93.8616 355.74C94.7016 355.74 95.3876 355.423 95.9196 354.788C96.461 354.153 96.7316 353.257 96.7316 352.1C96.7316 350.943 96.461 350.047 95.9196 349.412C95.3876 348.777 94.7016 348.46 93.8616 348.46C93.0216 348.46 92.331 348.777 91.7896 349.412Z" fill="#333333"/>
<path d="M41.56 231.27H43.24C43.3147 231.559 43.4407 231.807 43.618 232.012C44.0287 232.497 44.626 232.74 45.41 232.74C46.0353 232.74 46.53 232.572 46.894 232.236C47.258 231.9 47.44 231.461 47.44 230.92C47.44 230.351 47.258 229.893 46.894 229.548C46.53 229.203 46.0353 229.03 45.41 229.03C44.8313 229.03 44.3413 229.184 43.94 229.492C43.7813 229.613 43.6413 229.763 43.52 229.94H41.98L42.4 224.2H48.35V225.74H43.73L43.52 228.26H43.59C43.7393 228.111 43.912 227.985 44.108 227.882C44.5467 227.621 45.074 227.49 45.69 227.49C46.67 227.49 47.4867 227.817 48.14 228.47C48.7933 229.123 49.12 229.94 49.12 230.92C49.12 231.881 48.7747 232.684 48.084 233.328C47.4027 233.963 46.5113 234.28 45.41 234.28C43.9727 234.28 42.904 233.781 42.204 232.782C41.9053 232.343 41.6907 231.839 41.56 231.27ZM50.1733 233.23C50.1733 232.95 50.2619 232.717 50.4393 232.53C50.6259 232.343 50.8546 232.25 51.1253 232.25C51.4333 232.25 51.6759 232.362 51.8533 232.586C52.0399 232.81 52.1333 233.141 52.1333 233.58C52.1333 234.299 51.9606 234.849 51.6153 235.232C51.2793 235.624 50.8219 235.82 50.2433 235.82V235.12C50.5233 235.12 50.7426 235.041 50.9013 234.882C51.0693 234.733 51.1533 234.532 51.1533 234.28V234.196C51.1439 234.187 51.1393 234.168 51.1393 234.14V234.098L51.0553 234.126C51.0273 234.135 50.9666 234.14 50.8733 234.14C50.6866 234.14 50.5233 234.056 50.3833 233.888C50.2433 233.72 50.1733 233.501 50.1733 233.23ZM54.6495 232.824C53.7628 231.853 53.3195 230.612 53.3195 229.1C53.3195 227.588 53.7628 226.347 54.6495 225.376C55.5361 224.405 56.6095 223.92 57.8695 223.92C59.1295 223.92 60.2028 224.405 61.0895 225.376C61.9761 226.347 62.4195 227.588 62.4195 229.1C62.4195 230.612 61.9761 231.853 61.0895 232.824C60.2028 233.795 59.1295 234.28 57.8695 234.28C56.6095 234.28 55.5361 233.795 54.6495 232.824ZM55.7975 226.412C55.2655 227.047 54.9995 227.943 54.9995 229.1C54.9995 230.257 55.2655 231.153 55.7975 231.788C56.3388 232.423 57.0295 232.74 57.8695 232.74C58.7095 232.74 59.3955 232.423 59.9275 231.788C60.4688 231.153 60.7395 230.257 60.7395 229.1C60.7395 227.943 60.4688 227.047 59.9275 226.412C59.3955 225.777 58.7095 225.46 57.8695 225.46C57.0295 225.46 56.3388 225.777 55.7975 226.412ZM63.6127 231.34C63.6127 230.491 63.9394 229.814 64.5927 229.31C64.8727 229.114 65.1994 228.965 65.5727 228.862V228.778C65.2834 228.666 65.0267 228.512 64.8027 228.316C64.2894 227.877 64.0327 227.299 64.0327 226.58C64.0327 225.843 64.3454 225.217 64.9707 224.704C65.6054 224.181 66.4594 223.92 67.5327 223.92C68.6061 223.92 69.4554 224.181 70.0807 224.704C70.7154 225.217 71.0327 225.843 71.0327 226.58C71.0327 227.28 70.7761 227.859 70.2627 228.316C70.0201 228.512 69.7634 228.666 69.4927 228.778V228.862C69.8474 228.955 70.1741 229.109 70.4727 229.324C71.1261 229.828 71.4527 230.5 71.4527 231.34C71.4527 232.152 71.0981 232.847 70.3887 233.426C69.6887 233.995 68.7367 234.28 67.5327 234.28C66.3287 234.28 65.3721 233.995 64.6627 233.426C63.9627 232.847 63.6127 232.152 63.6127 231.34ZM65.7127 226.72C65.7127 227.131 65.8714 227.467 66.1887 227.728C66.5061 227.989 66.9541 228.12 67.5327 228.12C68.1114 228.12 68.5594 227.989 68.8767 227.728C69.1941 227.467 69.3527 227.131 69.3527 226.72C69.3527 226.347 69.1894 226.034 68.8627 225.782C68.5454 225.521 68.1021 225.39 67.5327 225.39C66.9634 225.39 66.5154 225.521 66.1887 225.782C65.8714 226.034 65.7127 226.347 65.7127 226.72ZM65.8807 230.066C65.4887 230.374 65.2927 230.752 65.2927 231.2C65.2927 231.648 65.4887 232.031 65.8807 232.348C66.2821 232.656 66.8327 232.81 67.5327 232.81C68.2327 232.81 68.7787 232.656 69.1707 232.348C69.5721 232.031 69.7727 231.648 69.7727 231.2C69.7727 230.752 69.5721 230.374 69.1707 230.066C68.7787 229.749 68.2327 229.59 67.5327 229.59C66.8327 229.59 66.2821 229.749 65.8807 230.066Z" fill="#333333"/>
<path d="M262.25 175.75L262.402 93.2833L273.75 93.2507L273.75 175.75L262.25 175.75Z" stroke="#5A5A5A" stroke-width="0.5" stroke-miterlimit="10"/>
<path d="M248.75 11.7498L60.3259 11.5982L60.2516 0.250003L248.75 0.249998L248.75 11.7498Z" stroke="#5A5A5A" stroke-width="0.5" stroke-miterlimit="10"/>
<path d="M280.25 175.75L280.402 93.2833L291.75 93.2507L291.75 175.75L280.25 175.75Z" stroke="#5A5A5A" stroke-width="0.5" stroke-miterlimit="10"/>
<path d="M341.75 268.25L341.687 349.718L337.25 349.748L337.25 268.25L341.75 268.25Z" stroke="#5A5A5A" stroke-width="0.5" stroke-miterlimit="10"/>
<rect width="5" height="74" transform="matrix(-9.93477e-08 -1 -1 9.93477e-08 342 262)" fill="#5A5A5A"/>
<rect width="5" height="74" transform="matrix(-9.93477e-08 -1 -1 9.93477e-08 342 359)" fill="#5A5A5A"/>
<rect width="5" height="8" transform="matrix(-1 1.43059e-07 1.43059e-07 1 342 347)" fill="#5A5A5A"/>
<rect width="5.00001" height="93" transform="matrix(-1 1.43059e-07 1.43059e-07 1 342 257)" fill="#5A5A5A"/>
<path d="M275.25 247.25L275.313 307.726L279.75 307.749L279.75 247.25L275.25 247.25Z" stroke="#5A5A5A" stroke-width="0.5" stroke-miterlimit="10"/>
<path d="M285.25 247.25L285.313 307.726L289.75 307.749L289.75 247.25L285.25 247.25Z" stroke="#5A5A5A" stroke-width="0.5" stroke-miterlimit="10"/>
<line x1="274.57" y1="336.255" x2="258.57" y2="309.255" stroke="#5A5A5A"/>
<line x1="33.418" y1="333.274" x2="12.418" y2="365.274" stroke="black"/>
<line x1="128.561" y1="372.239" x2="110.561" y2="339.239" stroke="black"/>
<line x1="79.6" y1="309.7" x2="97.6" y2="285.7" stroke="black"/>
<line x1="79.6" y1="247.7" x2="97.6" y2="223.7" stroke="black"/>
<line x1="129.57" y1="210.744" x2="151.57" y2="173.744" stroke="black"/>
<line x1="79.7764" y1="158.553" x2="115.776" y2="140.553" stroke="black"/>
<circle cx="92.5" cy="97.5" r="39.5" fill="#5A5A5A"/>
<path d="M68.63 100.86C68.63 100.284 68.756 99.684 69.008 99.06C69.272 98.424 69.524 97.926 69.764 97.566C70.016 97.194 70.358 96.732 70.79 96.18L73.67 92.4H76.1L73.382 95.946L72.59 96.63V96.72L72.95 96.594C73.31 96.498 73.7 96.45 74.12 96.45C75.296 96.45 76.292 96.876 77.108 97.728C77.936 98.568 78.35 99.612 78.35 100.86C78.35 102.132 77.894 103.2 76.982 104.064C76.07 104.928 74.906 105.36 73.49 105.36C72.074 105.36 70.91 104.928 69.998 104.064C69.086 103.2 68.63 102.132 68.63 100.86ZM71.528 98.988C71.036 99.468 70.79 100.092 70.79 100.86C70.79 101.628 71.036 102.258 71.528 102.75C72.02 103.23 72.674 103.47 73.49 103.47C74.306 103.47 74.96 103.23 75.452 102.75C75.944 102.258 76.19 101.628 76.19 100.86C76.19 100.092 75.944 99.468 75.452 98.988C74.96 98.496 74.306 98.25 73.49 98.25C72.674 98.25 72.02 98.496 71.528 98.988ZM79.7042 100.86C79.7042 100.284 79.8302 99.684 80.0822 99.06C80.3462 98.424 80.5982 97.926 80.8382 97.566C81.0902 97.194 81.4322 96.732 81.8642 96.18L84.7442 92.4H87.1742L84.4562 95.946L83.6642 96.63V96.72L84.0242 96.594C84.3842 96.498 84.7742 96.45 85.1942 96.45C86.3702 96.45 87.3662 96.876 88.1822 97.728C89.0102 98.568 89.4242 99.612 89.4242 100.86C89.4242 102.132 88.9682 103.2 88.0562 104.064C87.1442 104.928 85.9802 105.36 84.5642 105.36C83.1482 105.36 81.9842 104.928 81.0722 104.064C80.1602 103.2 79.7042 102.132 79.7042 100.86ZM82.6022 98.988C82.1102 99.468 81.8642 100.092 81.8642 100.86C81.8642 101.628 82.1102 102.258 82.6022 102.75C83.0942 103.23 83.7482 103.47 84.5642 103.47C85.3802 103.47 86.0342 103.23 86.5262 102.75C87.0182 102.258 87.2642 101.628 87.2642 100.86C87.2642 100.092 87.0182 99.468 86.5262 98.988C86.0342 98.496 85.3802 98.25 84.5642 98.25C83.7482 98.25 83.0942 98.496 82.6022 98.988ZM90.8684 104.01C90.8684 103.65 90.9824 103.35 91.2104 103.11C91.4504 102.87 91.7444 102.75 92.0924 102.75C92.4884 102.75 92.8004 102.894 93.0284 103.182C93.2684 103.47 93.3884 103.896 93.3884 104.46C93.3884 105.384 93.1664 106.092 92.7224 106.584C92.2904 107.088 91.7024 107.34 90.9584 107.34V106.44C91.3184 106.44 91.6004 106.338 91.8044 106.134C92.0204 105.942 92.1284 105.684 92.1284 105.36V105.252C92.1164 105.24 92.1104 105.216 92.1104 105.18V105.126L92.0024 105.162C91.9664 105.174 91.8884 105.18 91.7684 105.18C91.5284 105.18 91.3184 105.072 91.1384 104.856C90.9584 104.64 90.8684 104.358 90.8684 104.01ZM94.6435 105V103.02L98.9455 99.978C99.8815 99.306 100.554 98.682 100.962 98.106C101.37 97.53 101.574 96.918 101.574 96.27C101.574 95.586 101.364 95.04 100.944 94.632C100.524 94.224 99.9535 94.02 99.2335 94.02C98.3455 94.02 97.6795 94.38 97.2355 95.1C97.0435 95.412 96.8995 95.772 96.8035 96.18H94.6435C94.7515 95.412 94.9855 94.722 95.3455 94.11C96.1975 92.73 97.4935 92.04 99.2335 92.04C100.566 92.04 101.646 92.436 102.474 93.228C103.314 94.008 103.734 94.992 103.734 96.18C103.734 97.212 103.47 98.142 102.942 98.97C102.414 99.786 101.568 100.596 100.404 101.4L98.6035 102.66L97.7935 103.02V103.11L98.8735 103.02H103.734V105H94.6435ZM105.177 101.49H107.337C107.433 101.862 107.595 102.18 107.823 102.444C108.351 103.068 109.119 103.38 110.127 103.38C110.931 103.38 111.567 103.164 112.035 102.732C112.503 102.3 112.737 101.736 112.737 101.04C112.737 100.308 112.503 99.72 112.035 99.276C111.567 98.832 110.931 98.61 110.127 98.61C109.383 98.61 108.753 98.808 108.237 99.204C108.033 99.36 107.853 99.552 107.697 99.78H105.717L106.257 92.4H113.907V94.38H107.967L107.697 97.62H107.787C107.979 97.428 108.201 97.266 108.453 97.134C109.017 96.798 109.695 96.63 110.487 96.63C111.747 96.63 112.797 97.05 113.637 97.89C114.477 98.73 114.897 99.78 114.897 101.04C114.897 102.276 114.453 103.308 113.565 104.136C112.689 104.952 111.543 105.36 110.127 105.36C108.279 105.36 106.905 104.718 106.005 103.434C105.621 102.87 105.345 102.222 105.177 101.49Z" fill="white"/>
</svg>
