<svg width="339" height="427" viewBox="0 0 339 427" fill="none" xmlns="http://www.w3.org/2000/svg">
<path d="M257 413H138L138 0L257 1.04033e-05L257 413Z" fill="#FFF8BA"/>
<path d="M257 412H32L32 105L257 105L257 412Z" fill="#FFF8BA"/>
<path d="M257 237L105 237L105 413H257V237Z" fill="#FFF8BA"/>
<path d="M169.35 131.42V129.6L171.17 128.2H172.64V138H171.03V130.16L169.35 131.42ZM173.831 136.04V134.5L177.121 128.2H178.871L175.581 134.5H178.801V132.12H178.871H180.411V134.5H181.811V136.04H180.411V138H178.801V136.04H173.831ZM182.371 137.23C182.371 136.95 182.459 136.717 182.637 136.53C182.823 136.343 183.052 136.25 183.323 136.25C183.631 136.25 183.873 136.362 184.051 136.586C184.237 136.81 184.331 137.141 184.331 137.58C184.331 138.299 184.158 138.849 183.813 139.232C183.477 139.624 183.019 139.82 182.441 139.82V139.12C182.721 139.12 182.94 139.041 183.099 138.882C183.267 138.733 183.351 138.532 183.351 138.28V138.196C183.341 138.187 183.337 138.168 183.337 138.14V138.098L183.253 138.126C183.225 138.135 183.164 138.14 183.071 138.14C182.884 138.14 182.721 138.056 182.581 137.888C182.441 137.72 182.371 137.501 182.371 137.23ZM185.307 138V136.46L188.653 134.094C189.381 133.571 189.903 133.086 190.221 132.638C190.538 132.19 190.697 131.714 190.697 131.21C190.697 130.678 190.533 130.253 190.207 129.936C189.88 129.619 189.437 129.46 188.877 129.46C188.186 129.46 187.668 129.74 187.323 130.3C187.173 130.543 187.061 130.823 186.987 131.14H185.307C185.391 130.543 185.573 130.006 185.853 129.53C186.515 128.457 187.523 127.92 188.877 127.92C189.913 127.92 190.753 128.228 191.397 128.844C192.05 129.451 192.377 130.216 192.377 131.14C192.377 131.943 192.171 132.666 191.761 133.31C191.35 133.945 190.692 134.575 189.787 135.2L188.387 136.18L187.757 136.46V136.53L188.597 136.46H192.377V138H185.307ZM193.499 131.42C193.499 130.431 193.854 129.6 194.563 128.928C195.273 128.256 196.178 127.92 197.279 127.92C198.381 127.92 199.286 128.256 199.995 128.928C200.705 129.6 201.059 130.431 201.059 131.42C201.059 132.307 200.691 133.263 199.953 134.29C199.879 134.393 199.776 134.533 199.645 134.71C199.515 134.878 199.426 134.995 199.379 135.06L197.139 138H195.249L197.363 135.242L197.979 134.71V134.64C197.961 134.649 197.867 134.687 197.699 134.752C197.457 134.817 197.153 134.85 196.789 134.85C195.875 134.85 195.095 134.523 194.451 133.87C193.817 133.207 193.499 132.391 193.499 131.42ZM195.753 129.964C195.371 130.337 195.179 130.823 195.179 131.42C195.179 132.017 195.371 132.507 195.753 132.89C196.136 133.263 196.645 133.45 197.279 133.45C197.914 133.45 198.423 133.263 198.805 132.89C199.188 132.507 199.379 132.017 199.379 131.42C199.379 130.823 199.188 130.337 198.805 129.964C198.423 129.581 197.914 129.39 197.279 129.39C196.645 129.39 196.136 129.581 195.753 129.964Z" fill="#333333"/>
<path d="M298.42 94.2H300.1C300.165 94.4893 300.291 94.746 300.478 94.97C300.898 95.4833 301.495 95.74 302.27 95.74C302.914 95.74 303.423 95.5813 303.796 95.264C304.179 94.9373 304.37 94.536 304.37 94.06C304.37 93.5187 304.197 93.094 303.852 92.786C303.516 92.4687 303.035 92.31 302.41 92.31H300.03V90.91L302.97 88.81V88.74H298.91V87.2H305.35V88.726L302.83 90.56L302.13 90.84V90.91L302.354 90.882C302.662 90.854 302.844 90.84 302.9 90.84C303.777 90.84 304.51 91.1433 305.098 91.75C305.686 92.3567 305.98 93.1267 305.98 94.06C305.98 94.956 305.635 95.7167 304.944 96.342C304.253 96.9673 303.362 97.28 302.27 97.28C300.823 97.28 299.755 96.7667 299.064 95.74C298.765 95.3013 298.551 94.788 298.42 94.2ZM307.037 96.23C307.037 95.95 307.125 95.7167 307.303 95.53C307.489 95.3433 307.718 95.25 307.989 95.25C308.297 95.25 308.539 95.362 308.717 95.586C308.903 95.81 308.997 96.1413 308.997 96.58C308.997 97.2987 308.824 97.8493 308.479 98.232C308.143 98.624 307.685 98.82 307.107 98.82V98.12C307.387 98.12 307.606 98.0407 307.765 97.882C307.933 97.7327 308.017 97.532 308.017 97.28V97.196C308.007 97.1867 308.003 97.168 308.003 97.14V97.098L307.919 97.126C307.891 97.1353 307.83 97.14 307.737 97.14C307.55 97.14 307.387 97.056 307.247 96.888C307.107 96.72 307.037 96.5007 307.037 96.23ZM310.043 93.78C310.043 93.332 310.141 92.8653 310.337 92.38C310.542 91.8853 310.738 91.498 310.925 91.218C311.121 90.9287 311.387 90.5693 311.723 90.14L313.963 87.2H315.853L313.739 89.958L313.123 90.49V90.56L313.403 90.462C313.683 90.3873 313.986 90.35 314.313 90.35C315.227 90.35 316.002 90.6813 316.637 91.344C317.281 91.9973 317.603 92.8093 317.603 93.78C317.603 94.7693 317.248 95.6 316.539 96.272C315.829 96.944 314.924 97.28 313.823 97.28C312.721 97.28 311.816 96.944 311.107 96.272C310.397 95.6 310.043 94.7693 310.043 93.78ZM312.297 92.324C311.914 92.6973 311.723 93.1827 311.723 93.78C311.723 94.3773 311.914 94.8673 312.297 95.25C312.679 95.6233 313.188 95.81 313.823 95.81C314.457 95.81 314.966 95.6233 315.349 95.25C315.731 94.8673 315.923 94.3773 315.923 93.78C315.923 93.1827 315.731 92.6973 315.349 92.324C314.966 91.9413 314.457 91.75 313.823 91.75C313.188 91.75 312.679 91.9413 312.297 92.324ZM318.656 93.78C318.656 93.332 318.754 92.8653 318.95 92.38C319.155 91.8853 319.351 91.498 319.538 91.218C319.734 90.9287 320 90.5693 320.336 90.14L322.576 87.2H324.466L322.352 89.958L321.736 90.49V90.56L322.016 90.462C322.296 90.3873 322.599 90.35 322.926 90.35C323.841 90.35 324.615 90.6813 325.25 91.344C325.894 91.9973 326.216 92.8093 326.216 93.78C326.216 94.7693 325.861 95.6 325.152 96.272C324.443 96.944 323.537 97.28 322.436 97.28C321.335 97.28 320.429 96.944 319.72 96.272C319.011 95.6 318.656 94.7693 318.656 93.78ZM320.91 92.324C320.527 92.6973 320.336 93.1827 320.336 93.78C320.336 94.3773 320.527 94.8673 320.91 95.25C321.293 95.6233 321.801 95.81 322.436 95.81C323.071 95.81 323.579 95.6233 323.962 95.25C324.345 94.8673 324.536 94.3773 324.536 93.78C324.536 93.1827 324.345 92.6973 323.962 92.324C323.579 91.9413 323.071 91.75 322.436 91.75C321.801 91.75 321.293 91.9413 320.91 92.324Z" fill="#333333"/>
<path d="M48.56 241.42C48.56 240.431 48.9147 239.6 49.624 238.928C50.3333 238.256 51.2387 237.92 52.34 237.92C53.4413 237.92 54.3467 238.256 55.056 238.928C55.7653 239.6 56.12 240.431 56.12 241.42C56.12 242.307 55.7513 243.263 55.014 244.29C54.9393 244.393 54.8367 244.533 54.706 244.71C54.5753 244.878 54.4867 244.995 54.44 245.06L52.2 248H50.31L52.424 245.242L53.04 244.71V244.64C53.0213 244.649 52.928 244.687 52.76 244.752C52.5173 244.817 52.214 244.85 51.85 244.85C50.9353 244.85 50.156 244.523 49.512 243.87C48.8773 243.207 48.56 242.391 48.56 241.42ZM50.814 239.964C50.4313 240.337 50.24 240.823 50.24 241.42C50.24 242.017 50.4313 242.507 50.814 242.89C51.1967 243.263 51.7053 243.45 52.34 243.45C52.9747 243.45 53.4833 243.263 53.866 242.89C54.2487 242.507 54.44 242.017 54.44 241.42C54.44 240.823 54.2487 240.337 53.866 239.964C53.4833 239.581 52.9747 239.39 52.34 239.39C51.7053 239.39 51.1967 239.581 50.814 239.964ZM57.1733 247.23C57.1733 246.95 57.2619 246.717 57.4393 246.53C57.6259 246.343 57.8546 246.25 58.1253 246.25C58.4333 246.25 58.6759 246.362 58.8533 246.586C59.0399 246.81 59.1333 247.141 59.1333 247.58C59.1333 248.299 58.9606 248.849 58.6153 249.232C58.2793 249.624 57.8219 249.82 57.2433 249.82V249.12C57.5233 249.12 57.7426 249.041 57.9013 248.882C58.0693 248.733 58.1533 248.532 58.1533 248.28V248.196C58.1439 248.187 58.1393 248.168 58.1393 248.14V248.098L58.0553 248.126C58.0273 248.135 57.9666 248.14 57.8733 248.14C57.6866 248.14 57.5233 248.056 57.3833 247.888C57.2433 247.72 57.1733 247.501 57.1733 247.23ZM61.6495 246.824C60.7628 245.853 60.3195 244.612 60.3195 243.1C60.3195 241.588 60.7628 240.347 61.6495 239.376C62.5361 238.405 63.6095 237.92 64.8695 237.92C66.1295 237.92 67.2028 238.405 68.0895 239.376C68.9761 240.347 69.4195 241.588 69.4195 243.1C69.4195 244.612 68.9761 245.853 68.0895 246.824C67.2028 247.795 66.1295 248.28 64.8695 248.28C63.6095 248.28 62.5361 247.795 61.6495 246.824ZM62.7975 240.412C62.2655 241.047 61.9995 241.943 61.9995 243.1C61.9995 244.257 62.2655 245.153 62.7975 245.788C63.3388 246.423 64.0295 246.74 64.8695 246.74C65.7095 246.74 66.3955 246.423 66.9275 245.788C67.4688 245.153 67.7395 244.257 67.7395 243.1C67.7395 241.943 67.4688 241.047 66.9275 240.412C66.3955 239.777 65.7095 239.46 64.8695 239.46C64.0295 239.46 63.3388 239.777 62.7975 240.412ZM70.4727 248V246.46L73.8187 244.094C74.5467 243.571 75.0694 243.086 75.3867 242.638C75.7041 242.19 75.8627 241.714 75.8627 241.21C75.8627 240.678 75.6994 240.253 75.3727 239.936C75.0461 239.619 74.6027 239.46 74.0427 239.46C73.3521 239.46 72.8341 239.74 72.4887 240.3C72.3394 240.543 72.2274 240.823 72.1527 241.14H70.4727C70.5567 240.543 70.7387 240.006 71.0187 239.53C71.6814 238.457 72.6894 237.92 74.0427 237.92C75.0787 237.92 75.9187 238.228 76.5627 238.844C77.2161 239.451 77.5427 240.216 77.5427 241.14C77.5427 241.943 77.3374 242.666 76.9267 243.31C76.5161 243.945 75.8581 244.575 74.9527 245.2L73.5527 246.18L72.9227 246.46V246.53L73.7627 246.46H77.5427V248H70.4727Z" fill="#333333"/>
<path d="M178.42 350.2H180.1C180.165 350.489 180.291 350.746 180.478 350.97C180.898 351.483 181.495 351.74 182.27 351.74C182.914 351.74 183.423 351.581 183.796 351.264C184.179 350.937 184.37 350.536 184.37 350.06C184.37 349.519 184.197 349.094 183.852 348.786C183.516 348.469 183.035 348.31 182.41 348.31H180.03V346.91L182.97 344.81V344.74H178.91V343.2H185.35V344.726L182.83 346.56L182.13 346.84V346.91L182.354 346.882C182.662 346.854 182.844 346.84 182.9 346.84C183.777 346.84 184.51 347.143 185.098 347.75C185.686 348.357 185.98 349.127 185.98 350.06C185.98 350.956 185.635 351.717 184.944 352.342C184.253 352.967 183.362 353.28 182.27 353.28C180.823 353.28 179.755 352.767 179.064 351.74C178.765 351.301 178.551 350.788 178.42 350.2ZM188.437 351.824C187.55 350.853 187.107 349.612 187.107 348.1C187.107 346.588 187.55 345.347 188.437 344.376C189.323 343.405 190.397 342.92 191.657 342.92C192.917 342.92 193.99 343.405 194.877 344.376C195.763 345.347 196.207 346.588 196.207 348.1C196.207 349.612 195.763 350.853 194.877 351.824C193.99 352.795 192.917 353.28 191.657 353.28C190.397 353.28 189.323 352.795 188.437 351.824ZM189.585 345.412C189.053 346.047 188.787 346.943 188.787 348.1C188.787 349.257 189.053 350.153 189.585 350.788C190.126 351.423 190.817 351.74 191.657 351.74C192.497 351.74 193.183 351.423 193.715 350.788C194.256 350.153 194.527 349.257 194.527 348.1C194.527 346.943 194.256 346.047 193.715 345.412C193.183 344.777 192.497 344.46 191.657 344.46C190.817 344.46 190.126 344.777 189.585 345.412ZM197.4 352.23C197.4 351.95 197.489 351.717 197.666 351.53C197.853 351.343 198.081 351.25 198.352 351.25C198.66 351.25 198.903 351.362 199.08 351.586C199.267 351.81 199.36 352.141 199.36 352.58C199.36 353.299 199.187 353.849 198.842 354.232C198.506 354.624 198.049 354.82 197.47 354.82V354.12C197.75 354.12 197.969 354.041 198.128 353.882C198.296 353.733 198.38 353.532 198.38 353.28V353.196C198.371 353.187 198.366 353.168 198.366 353.14V353.098L198.282 353.126C198.254 353.135 198.193 353.14 198.1 353.14C197.913 353.14 197.75 353.056 197.61 352.888C197.47 352.72 197.4 352.501 197.4 352.23ZM200.476 346.42C200.476 345.431 200.831 344.6 201.54 343.928C202.249 343.256 203.155 342.92 204.256 342.92C205.357 342.92 206.263 343.256 206.972 343.928C207.681 344.6 208.036 345.431 208.036 346.42C208.036 347.307 207.667 348.263 206.93 349.29C206.855 349.393 206.753 349.533 206.622 349.71C206.491 349.878 206.403 349.995 206.356 350.06L204.116 353H202.226L204.34 350.242L204.956 349.71V349.64C204.937 349.649 204.844 349.687 204.676 349.752C204.433 349.817 204.13 349.85 203.766 349.85C202.851 349.85 202.072 349.523 201.428 348.87C200.793 348.207 200.476 347.391 200.476 346.42ZM202.73 344.964C202.347 345.337 202.156 345.823 202.156 346.42C202.156 347.017 202.347 347.507 202.73 347.89C203.113 348.263 203.621 348.45 204.256 348.45C204.891 348.45 205.399 348.263 205.782 347.89C206.165 347.507 206.356 347.017 206.356 346.42C206.356 345.823 206.165 345.337 205.782 344.964C205.399 344.581 204.891 344.39 204.256 344.39C203.621 344.39 203.113 344.581 202.73 344.964ZM210.489 351.824C209.603 350.853 209.159 349.612 209.159 348.1C209.159 346.588 209.603 345.347 210.489 344.376C211.376 343.405 212.449 342.92 213.709 342.92C214.969 342.92 216.043 343.405 216.929 344.376C217.816 345.347 218.259 346.588 218.259 348.1C218.259 349.612 217.816 350.853 216.929 351.824C216.043 352.795 214.969 353.28 213.709 353.28C212.449 353.28 211.376 352.795 210.489 351.824ZM211.637 345.412C211.105 346.047 210.839 346.943 210.839 348.1C210.839 349.257 211.105 350.153 211.637 350.788C212.179 351.423 212.869 351.74 213.709 351.74C214.549 351.74 215.235 351.423 215.767 350.788C216.309 350.153 216.579 349.257 216.579 348.1C216.579 346.943 216.309 346.047 215.767 345.412C215.235 344.777 214.549 344.46 213.709 344.46C212.869 344.46 212.179 344.777 211.637 345.412Z" fill="#333333"/>
<circle cx="163.5" cy="252.5" r="39.5" fill="#5A5A5A"/>
<path d="M140.63 255.86C140.63 255.284 140.756 254.684 141.008 254.06C141.272 253.424 141.524 252.926 141.764 252.566C142.016 252.194 142.358 251.732 142.79 251.18L145.67 247.4H148.1L145.382 250.946L144.59 251.63V251.72L144.95 251.594C145.31 251.498 145.7 251.45 146.12 251.45C147.296 251.45 148.292 251.876 149.108 252.728C149.936 253.568 150.35 254.612 150.35 255.86C150.35 257.132 149.894 258.2 148.982 259.064C148.07 259.928 146.906 260.36 145.49 260.36C144.074 260.36 142.91 259.928 141.998 259.064C141.086 258.2 140.63 257.132 140.63 255.86ZM143.528 253.988C143.036 254.468 142.79 255.092 142.79 255.86C142.79 256.628 143.036 257.258 143.528 257.75C144.02 258.23 144.674 258.47 145.49 258.47C146.306 258.47 146.96 258.23 147.452 257.75C147.944 257.258 148.19 256.628 148.19 255.86C148.19 255.092 147.944 254.468 147.452 253.988C146.96 253.496 146.306 253.25 145.49 253.25C144.674 253.25 144.02 253.496 143.528 253.988ZM151.524 251.54V249.2L153.864 247.4H155.754V260H153.684V249.92L151.524 251.54ZM157.736 259.01C157.736 258.65 157.85 258.35 158.078 258.11C158.318 257.87 158.612 257.75 158.96 257.75C159.356 257.75 159.668 257.894 159.896 258.182C160.136 258.47 160.256 258.896 160.256 259.46C160.256 260.384 160.034 261.092 159.59 261.584C159.158 262.088 158.57 262.34 157.826 262.34V261.44C158.186 261.44 158.468 261.338 158.672 261.134C158.888 260.942 158.996 260.684 158.996 260.36V260.252C158.984 260.24 158.978 260.216 158.978 260.18V260.126L158.87 260.162C158.834 260.174 158.756 260.18 158.636 260.18C158.396 260.18 158.186 260.072 158.006 259.856C157.826 259.64 157.736 259.358 157.736 259.01ZM161.511 260V258.02L165.813 254.978C166.749 254.306 167.421 253.682 167.829 253.106C168.237 252.53 168.441 251.918 168.441 251.27C168.441 250.586 168.231 250.04 167.811 249.632C167.391 249.224 166.821 249.02 166.101 249.02C165.213 249.02 164.547 249.38 164.103 250.1C163.911 250.412 163.767 250.772 163.671 251.18H161.511C161.619 250.412 161.853 249.722 162.213 249.11C163.065 247.73 164.361 247.04 166.101 247.04C167.433 247.04 168.513 247.436 169.341 248.228C170.181 249.008 170.601 249.992 170.601 251.18C170.601 252.212 170.337 253.142 169.809 253.97C169.281 254.786 168.435 255.596 167.271 256.4L165.471 257.66L164.661 258.02V258.11L165.741 258.02H170.601V260H161.511ZM171.774 251.54V249.2L174.114 247.4H176.004V260H173.934V249.92L171.774 251.54Z" fill="white"/>
<rect x="30" y="348" width="107" height="63" fill="#FFC79F"/>
<rect x="30" y="105" width="62" height="41" fill="#FFC79F"/>
<path d="M37.42 143V141.46L40.766 139.094C41.494 138.571 42.0167 138.086 42.334 137.638C42.6513 137.19 42.81 136.714 42.81 136.21C42.81 135.678 42.6467 135.253 42.32 134.936C41.9933 134.619 41.55 134.46 40.99 134.46C40.2993 134.46 39.7813 134.74 39.436 135.3C39.2867 135.543 39.1747 135.823 39.1 136.14H37.42C37.504 135.543 37.686 135.006 37.966 134.53C38.6287 133.457 39.6367 132.92 40.99 132.92C42.026 132.92 42.866 133.228 43.51 133.844C44.1633 134.451 44.49 135.216 44.49 136.14C44.49 136.943 44.2847 137.666 43.874 138.31C43.4633 138.945 42.8053 139.575 41.9 140.2L40.5 141.18L39.87 141.46V141.53L40.71 141.46H44.49V143H37.42ZM45.6127 142.23C45.6127 141.95 45.7014 141.717 45.8787 141.53C46.0654 141.343 46.2941 141.25 46.5647 141.25C46.8727 141.25 47.1154 141.362 47.2927 141.586C47.4794 141.81 47.5727 142.141 47.5727 142.58C47.5727 143.299 47.4001 143.849 47.0547 144.232C46.7187 144.624 46.2614 144.82 45.6827 144.82V144.12C45.9627 144.12 46.1821 144.041 46.3407 143.882C46.5087 143.733 46.5927 143.532 46.5927 143.28V143.196C46.5834 143.187 46.5787 143.168 46.5787 143.14V143.098L46.4947 143.126C46.4667 143.135 46.4061 143.14 46.3127 143.14C46.1261 143.14 45.9627 143.056 45.8227 142.888C45.6827 142.72 45.6127 142.501 45.6127 142.23ZM50.0889 141.824C49.2022 140.853 48.7589 139.612 48.7589 138.1C48.7589 136.588 49.2022 135.347 50.0889 134.376C50.9756 133.405 52.0489 132.92 53.3089 132.92C54.5689 132.92 55.6422 133.405 56.5289 134.376C57.4156 135.347 57.8589 136.588 57.8589 138.1C57.8589 139.612 57.4156 140.853 56.5289 141.824C55.6422 142.795 54.5689 143.28 53.3089 143.28C52.0489 143.28 50.9756 142.795 50.0889 141.824ZM51.2369 135.412C50.7049 136.047 50.4389 136.943 50.4389 138.1C50.4389 139.257 50.7049 140.153 51.2369 140.788C51.7782 141.423 52.4689 141.74 53.3089 141.74C54.1489 141.74 54.8349 141.423 55.3669 140.788C55.9082 140.153 56.1789 139.257 56.1789 138.1C56.1789 136.943 55.9082 136.047 55.3669 135.412C54.8349 134.777 54.1489 134.46 53.3089 134.46C52.4689 134.46 51.7782 134.777 51.2369 135.412ZM60.4522 141.824C59.5655 140.853 59.1222 139.612 59.1222 138.1C59.1222 136.588 59.5655 135.347 60.4522 134.376C61.3389 133.405 62.4122 132.92 63.6722 132.92C64.9322 132.92 66.0055 133.405 66.8922 134.376C67.7789 135.347 68.2222 136.588 68.2222 138.1C68.2222 139.612 67.7789 140.853 66.8922 141.824C66.0055 142.795 64.9322 143.28 63.6722 143.28C62.4122 143.28 61.3389 142.795 60.4522 141.824ZM61.6002 135.412C61.0682 136.047 60.8022 136.943 60.8022 138.1C60.8022 139.257 61.0682 140.153 61.6002 140.788C62.1415 141.423 62.8322 141.74 63.6722 141.74C64.5122 141.74 65.1982 141.423 65.7302 140.788C66.2715 140.153 66.5422 139.257 66.5422 138.1C66.5422 136.943 66.2715 136.047 65.7302 135.412C65.1982 134.777 64.5122 134.46 63.6722 134.46C62.8322 134.46 62.1415 134.777 61.6002 135.412Z" fill="#333333"/>
<path d="M51.7245 117.758L50.5179 117.774L47.3842 117.758L39.6251 117.758L39.6251 127.935L51.7245 127.935C54.8081 127.935 57.3218 125.642 57.3218 122.83C57.3218 120.051 54.8081 117.758 51.7245 117.758Z" fill="white" stroke="#5A5A5A" stroke-width="0.5"/>
<path d="M51.6576 118.929L50.7023 118.929L42.9768 118.929L42.9768 126.78L50.7023 126.78L51.6576 126.763C54.0875 126.763 56.0649 125.022 56.0649 122.846C56.0482 120.687 54.0707 118.929 51.6576 118.929Z" fill="white" stroke="#5A5A5A" stroke-width="0.5"/>
<path d="M33.1228 129.776L38.5022 129.776C39.1223 129.776 39.625 129.274 39.625 128.655L39.625 117.122C39.625 116.502 39.1223 116 38.5022 116L33.1228 116C32.5027 116 32 116.502 32 117.122L32 128.638C32 129.274 32.5027 129.776 33.1228 129.776Z" fill="white" stroke="#5A5A5A" stroke-width="0.5"/>
<path d="M35.8041 123.549C36.223 123.549 36.5414 123.248 36.5414 122.896C36.5581 122.528 36.223 122.227 35.8041 122.227C35.3852 122.227 35.0668 122.528 35.0668 122.88C35.0835 123.265 35.4019 123.566 35.8041 123.549Z" fill="white" stroke="#5A5A5A" stroke-width="0.5"/>
<path d="M88.1542 137.074L75.5741 137.074C74.6994 137.074 73.9997 136.375 73.9997 135.501L73.9997 116.573C73.9997 115.699 74.6994 115 75.5741 115L88.1542 115C89.0288 115 89.7285 115.699 89.7285 116.573L89.7285 135.501C89.7285 136.36 89.0288 137.074 88.1542 137.074Z" fill="white" stroke="#5A5A5A" stroke-width="0.5"/>
<path d="M83.3585 135.108L81.4198 135.108C78.8688 135.108 76.7988 133.041 76.7988 130.493L76.7988 121.582C76.7988 119.034 78.8688 116.966 81.4198 116.966L83.3585 116.966C85.9095 116.966 87.9795 119.034 87.9795 121.582L87.9795 130.493C87.9795 133.041 85.9095 135.108 83.3585 135.108Z" fill="white" stroke="#5A5A5A" stroke-width="0.5"/>
<path d="M85.5157 127.013C84.9603 127.013 84.51 126.576 84.51 126.037C84.51 125.499 84.9603 125.062 85.5157 125.062C86.0712 125.062 86.5215 125.499 86.5215 126.037C86.5215 126.576 86.0712 127.013 85.5157 127.013Z" fill="white" stroke="#5A5A5A" stroke-width="0.5"/>
<path d="M58.56 372.27H60.24C60.3147 372.559 60.4407 372.807 60.618 373.012C61.0287 373.497 61.626 373.74 62.41 373.74C63.0353 373.74 63.53 373.572 63.894 373.236C64.258 372.9 64.44 372.461 64.44 371.92C64.44 371.351 64.258 370.893 63.894 370.548C63.53 370.203 63.0353 370.03 62.41 370.03C61.8313 370.03 61.3413 370.184 60.94 370.492C60.7813 370.613 60.6413 370.763 60.52 370.94H58.98L59.4 365.2H65.35V366.74H60.73L60.52 369.26H60.59C60.7393 369.111 60.912 368.985 61.108 368.882C61.5467 368.621 62.074 368.49 62.69 368.49C63.67 368.49 64.4867 368.817 65.14 369.47C65.7933 370.123 66.12 370.94 66.12 371.92C66.12 372.881 65.7747 373.684 65.084 374.328C64.4027 374.963 63.5113 375.28 62.41 375.28C60.9727 375.28 59.904 374.781 59.204 373.782C58.9053 373.343 58.6907 372.839 58.56 372.27ZM67.1733 374.23C67.1733 373.95 67.2619 373.717 67.4393 373.53C67.6259 373.343 67.8546 373.25 68.1253 373.25C68.4333 373.25 68.6759 373.362 68.8533 373.586C69.0399 373.81 69.1333 374.141 69.1333 374.58C69.1333 375.299 68.9606 375.849 68.6153 376.232C68.2793 376.624 67.8219 376.82 67.2433 376.82V376.12C67.5233 376.12 67.7426 376.041 67.9013 375.882C68.0693 375.733 68.1533 375.532 68.1533 375.28V375.196C68.1439 375.187 68.1393 375.168 68.1393 375.14V375.098L68.0553 375.126C68.0273 375.135 67.9666 375.14 67.8733 375.14C67.6866 375.14 67.5233 375.056 67.3833 374.888C67.2433 374.72 67.1733 374.501 67.1733 374.23ZM71.6495 373.824C70.7628 372.853 70.3195 371.612 70.3195 370.1C70.3195 368.588 70.7628 367.347 71.6495 366.376C72.5361 365.405 73.6095 364.92 74.8695 364.92C76.1295 364.92 77.2028 365.405 78.0895 366.376C78.9761 367.347 79.4195 368.588 79.4195 370.1C79.4195 371.612 78.9761 372.853 78.0895 373.824C77.2028 374.795 76.1295 375.28 74.8695 375.28C73.6095 375.28 72.5361 374.795 71.6495 373.824ZM72.7975 367.412C72.2655 368.047 71.9995 368.943 71.9995 370.1C71.9995 371.257 72.2655 372.153 72.7975 372.788C73.3388 373.423 74.0295 373.74 74.8695 373.74C75.7095 373.74 76.3955 373.423 76.9275 372.788C77.4688 372.153 77.7395 371.257 77.7395 370.1C77.7395 368.943 77.4688 368.047 76.9275 367.412C76.3955 366.777 75.7095 366.46 74.8695 366.46C74.0295 366.46 73.3388 366.777 72.7975 367.412ZM82.0127 373.824C81.1261 372.853 80.6827 371.612 80.6827 370.1C80.6827 368.588 81.1261 367.347 82.0127 366.376C82.8994 365.405 83.9727 364.92 85.2327 364.92C86.4927 364.92 87.5661 365.405 88.4527 366.376C89.3394 367.347 89.7827 368.588 89.7827 370.1C89.7827 371.612 89.3394 372.853 88.4527 373.824C87.5661 374.795 86.4927 375.28 85.2327 375.28C83.9727 375.28 82.8994 374.795 82.0127 373.824ZM83.1607 367.412C82.6287 368.047 82.3627 368.943 82.3627 370.1C82.3627 371.257 82.6287 372.153 83.1607 372.788C83.7021 373.423 84.3927 373.74 85.2327 373.74C86.0727 373.74 86.7587 373.423 87.2907 372.788C87.8321 372.153 88.1027 371.257 88.1027 370.1C88.1027 368.943 87.8321 368.047 87.2907 367.412C86.7587 366.777 86.0727 366.46 85.2327 366.46C84.3927 366.46 83.7021 366.777 83.1607 367.412Z" fill="#333333"/>
<rect x="287" y="61" width="30" height="61" transform="rotate(-180 287 61)" fill="#5A5A5A"/>
<path d="M338.75 54.25L338.687 140.716L334.25 140.748L334.25 54.25L338.75 54.25Z" stroke="#5A5A5A" stroke-width="0.5" stroke-miterlimit="10"/>
<rect width="5" height="74" transform="matrix(-4.37114e-08 -1 -1 4.37114e-08 339 46)" fill="#5A5A5A"/>
<rect width="5" height="74" transform="matrix(-4.37114e-08 -1 -1 4.37114e-08 339 144)" fill="#5A5A5A"/>
<rect width="5" height="26" transform="matrix(-1 8.74228e-08 8.74228e-08 1 339 118)" fill="#5A5A5A"/>
<rect width="5" height="21" transform="matrix(-1 8.74228e-08 8.74228e-08 1 339 46)" fill="#5A5A5A"/>
<path d="M272.25 31.25L272.313 91.7262L276.75 91.7487L276.75 31.25L272.25 31.25Z" stroke="#5A5A5A" stroke-width="0.5" stroke-miterlimit="10"/>
<path d="M282.25 31.25L282.313 91.7262L286.75 91.7487L286.75 31.25L282.25 31.25Z" stroke="#5A5A5A" stroke-width="0.5" stroke-miterlimit="10"/>
<line x1="273.57" y1="121.255" x2="257.57" y2="94.2549" stroke="#5A5A5A"/>
<rect x="287" y="220" width="30" height="96" transform="rotate(-180 287 220)" fill="#5A5A5A"/>
<rect x="287" y="315" width="30" height="42" transform="rotate(-180 287 315)" fill="#5A5A5A"/>
<path d="M286.75 285.25L286.598 379.712L275.25 379.749L275.25 285.25L286.75 285.25Z" stroke="#5A5A5A" stroke-width="0.5" stroke-miterlimit="10"/>
<path d="M286.75 169.25L286.598 284.703L275.25 284.749L275.25 169.25L286.75 169.25Z" stroke="#5A5A5A" stroke-width="0.5" stroke-miterlimit="10"/>
<path d="M268.75 285.25L268.598 379.712L257.25 379.749L257.25 285.25L268.75 285.25Z" stroke="#5A5A5A" stroke-width="0.5" stroke-miterlimit="10"/>
<path d="M268.75 169.25L268.598 284.703L257.25 284.749L257.25 169.25L268.75 169.25Z" stroke="#5A5A5A" stroke-width="0.5" stroke-miterlimit="10"/>
<rect x="287" y="427" width="30" height="58" transform="rotate(-180 287 427)" fill="#5A5A5A"/>
<rect x="287" width="16" height="161" transform="rotate(90 287 0)" fill="#5A5A5A"/>
<rect x="142" y="106" width="16" height="103" transform="rotate(-180 142 106)" fill="#5A5A5A"/>
<rect x="16" y="106" width="16" height="126" transform="rotate(-90 16 106)" fill="#5A5A5A"/>
<rect x="16" y="90" width="16" height="141" fill="#5A5A5A"/>
<rect x="16" y="264" width="16" height="157" fill="#5A5A5A"/>
<rect x="16" y="427" width="16" height="244" transform="rotate(-90 16 427)" fill="#5A5A5A"/>
<path d="M142 346L134 346L134 414L142 414L142 346Z" fill="#5A5A5A"/>
<path d="M43.7578 391.646L43.7745 392.853L43.7578 395.986V403.745H53.9352V391.646C53.9352 388.562 51.6419 386.049 48.8298 386.049C46.0511 386.049 43.7578 388.562 43.7578 391.646Z" fill="white" stroke="#5A5A5A" stroke-width="0.5"/>
<path d="M44.9292 391.713V392.668V400.394H52.7798V392.668L52.7631 391.713C52.7631 389.283 51.0222 387.306 48.8461 387.306C46.6868 387.322 44.9292 389.3 44.9292 391.713Z" fill="white" stroke="#5A5A5A" stroke-width="0.5"/>
<path d="M55.7763 410.248V404.868C55.7763 404.248 55.2741 403.745 54.6548 403.745H43.1215C42.5022 403.745 42 404.248 42 404.868V410.248C42 410.868 42.5022 411.37 43.1215 411.37H54.6381C55.2741 411.37 55.7763 410.868 55.7763 410.248Z" fill="white" stroke="#5A5A5A" stroke-width="0.5"/>
<path d="M49.5494 407.566C49.5494 407.147 49.2481 406.829 48.8966 406.829C48.5283 406.812 48.2271 407.147 48.2271 407.566C48.2271 407.985 48.5284 408.303 48.8799 408.303C49.2649 408.287 49.5662 407.968 49.5494 407.566Z" fill="white" stroke="#5A5A5A" stroke-width="0.5"/>
<path d="M92.693 409.796L92.693 397.216C92.693 396.341 91.994 395.642 91.1204 395.642L72.1917 395.642C71.318 395.642 70.6191 396.341 70.6191 397.216L70.6191 409.796C70.6191 410.671 71.318 411.37 72.1917 411.37L91.1204 411.37C91.9795 411.37 92.693 410.671 92.693 409.796Z" fill="white" stroke="#5A5A5A" stroke-width="0.5"/>
<path d="M90.7274 405L90.7274 403.062C90.7274 400.511 88.6598 398.441 86.1117 398.441L77.2006 398.441C74.6526 398.441 72.585 400.511 72.585 403.062L72.585 405C72.585 407.551 74.6526 409.621 77.2006 409.621L86.1117 409.621C88.6598 409.621 90.7274 407.551 90.7274 405Z" fill="white" stroke="#5A5A5A" stroke-width="0.5"/>
<path d="M82.6322 407.158C82.6322 406.602 82.1954 406.152 81.6567 406.152C81.1179 406.152 80.6812 406.602 80.6812 407.158C80.6812 407.713 81.1179 408.164 81.6567 408.164C82.1954 408.164 82.6322 407.713 82.6322 407.158Z" fill="white" stroke="#5A5A5A" stroke-width="0.5"/>
<path d="M107.64 409.974L107.64 349.396C107.64 348.621 108.26 348 109.035 348L133.084 348C133.859 348 134.479 348.621 134.479 349.396L134.479 409.974C134.479 410.75 133.859 411.37 133.084 411.37L109.035 411.37C108.26 411.37 107.64 410.736 107.64 409.974Z" fill="white" stroke="#5A5A5A" stroke-width="0.5"/>
<path d="M117.798 351.724L124.335 351.724C128.125 351.724 131.182 354.799 131.182 358.578L131.182 406.279C131.182 407.21 130.435 407.958 129.506 407.958L112.6 407.958C111.67 407.958 110.923 407.21 110.923 406.279L110.923 358.593C110.937 354.799 114.009 351.724 117.798 351.724Z" fill="white" stroke="#5A5A5A" stroke-width="0.5"/>
<path d="M120.588 402.302C119.833 402.302 119.221 402.939 119.221 403.726C119.221 404.513 119.833 405.151 120.588 405.151C121.342 405.151 121.954 404.513 121.954 403.726C121.954 402.939 121.342 402.302 120.588 402.302Z" fill="white" stroke="#5A5A5A" stroke-width="0.5"/>
<path d="M142 348L142 340L69 340L69 348L142 348Z" fill="#5A5A5A"/>
<path d="M42 348L42 340L31 340L31 348L42 348Z" fill="#5A5A5A"/>
<path d="M51 154L51 146L31 146L31 154L51 154Z" fill="#5A5A5A"/>
<path d="M98 154L98 146L78 146L78 154L98 154Z" fill="#5A5A5A"/>
<path d="M90 198H98L98 106H90L90 198Z" fill="#5A5A5A"/>
<path d="M90 347H98L98 297H90L90 347Z" fill="#5A5A5A"/>
<path d="M96.7498 301.75L96.7248 260.709L95.25 260.697L95.25 301.75L96.7498 301.75Z" stroke="#5A5A5A" stroke-width="0.5" stroke-miterlimit="10"/>
<path d="M96.7498 233.306L96.7248 192.265L95.25 192.252L95.25 233.306L96.7498 233.306Z" stroke="#5A5A5A" stroke-width="0.5" stroke-miterlimit="10"/>
<path d="M98.7498 267.528L98.7248 226.487L97.25 226.474L97.25 267.528L98.7498 267.528Z" stroke="#5A5A5A" stroke-width="0.5" stroke-miterlimit="10"/>
<path d="M160 16L160 40.9954L184.325 40.9954L184.325 16L160 16Z" fill="white" stroke="#5A5A5A" stroke-width="0.5"/>
<path d="M160.927 38.9688L160.927 19.5158C160.927 18.7779 161.319 18.3854 162.089 18.3854L182.236 18.3854C183.021 18.3854 183.398 18.7622 183.398 19.5158L183.398 38.9688C183.414 39.7225 183.021 40.0993 182.252 40.0993L162.104 40.0993C161.319 40.115 160.927 39.7225 160.927 38.9688Z" fill="white" stroke="#5A5A5A" stroke-width="0.5"/>
<path d="M167.428 37.1796C169.218 37.1639 170.679 35.7508 170.679 34.008C170.679 32.2496 169.218 30.8365 167.428 30.8365C165.622 30.8365 164.177 32.2496 164.177 34.008C164.177 35.7665 165.622 37.1796 167.428 37.1796Z" stroke="#5A5A5A" stroke-width="0.5"/>
<path d="M177.054 37.1494C178.844 37.1337 180.305 35.7207 180.305 33.9779C180.305 32.2194 178.844 30.8064 177.054 30.8064C175.248 30.8064 173.803 32.2194 173.803 33.9779C173.788 35.7364 175.248 37.1651 177.054 37.1494Z" stroke="#5A5A5A" stroke-width="0.5"/>
<path d="M177.054 28.1359C178.86 28.1359 180.304 26.7228 180.304 24.9643C180.304 23.2059 178.844 21.7928 177.054 21.7928C175.264 21.8085 173.803 23.2216 173.803 24.9643C173.803 26.7071 175.264 28.1359 177.054 28.1359Z" stroke="#5A5A5A" stroke-width="0.5"/>
<path d="M167.428 28.1359C169.234 28.1359 170.679 26.7228 170.679 24.9643C170.679 23.2059 169.218 21.7928 167.428 21.7928C165.638 21.8085 164.177 23.2216 164.177 24.9643C164.177 26.7071 165.638 28.1359 167.428 28.1359Z" stroke="#5A5A5A" stroke-width="0.5"/>
<path d="M142.015 60H166.104L166.104 83.699H142L142.015 60Z" fill="white" stroke="#5A5A5A" stroke-width="0.5"/>
<path d="M148.621 61.8031L161.938 61.8031C162.68 61.8031 163.044 62.1668 163.044 62.9244L163.044 80.532C163.044 81.2594 162.68 81.6382 161.953 81.6533L148.621 81.6382C147.894 81.6533 147.53 81.2745 147.53 80.532L147.53 62.9244C147.5 62.1819 147.879 61.8031 148.621 61.8031Z" fill="white" stroke="#5A5A5A" stroke-width="0.5"/>
<path d="M143.864 71.7282C143.879 72.6525 144.576 73.395 145.454 73.395L152.438 72.7435L152.454 72.7283C152.984 72.7283 153.408 72.2889 153.408 71.7282C153.408 71.1676 152.984 70.7281 152.438 70.713L145.454 70.0614C144.591 70.0614 143.879 70.8039 143.864 71.7282Z" stroke="#5A5A5A" stroke-width="0.5"/>
<mask id="path-70-inside-1_34_7978" fill="white">
<path fill-rule="evenodd" clip-rule="evenodd" d="M144.546 73.1073L148.349 72.7436C148.879 72.7285 149.318 72.2891 149.303 71.7132C149.303 71.1526 148.879 70.7283 148.349 70.7132L144.546 70.3495"/>
</mask>
<path fill-rule="evenodd" clip-rule="evenodd" d="M144.546 73.1073L148.349 72.7436C148.879 72.7285 149.318 72.2891 149.303 71.7132C149.303 71.1526 148.879 70.7283 148.349 70.7132L144.546 70.3495" fill="white"/>
<path d="M148.349 72.7436L148.335 72.2438L148.318 72.2443L148.301 72.2459L148.349 72.7436ZM149.303 71.7132H148.803L148.803 71.7264L149.303 71.7132ZM148.349 70.7132L148.301 71.2109L148.318 71.2125L148.335 71.213L148.349 70.7132ZM144.594 73.605L148.396 73.2414L148.301 72.2459L144.499 72.6096L144.594 73.605ZM148.363 73.2434C149.168 73.2204 149.825 72.5523 149.803 71.7001L148.803 71.7264C148.811 72.0258 148.59 72.2365 148.335 72.2438L148.363 73.2434ZM149.803 71.7132C149.803 70.8839 149.166 70.2363 148.363 70.2134L148.335 71.213C148.592 71.2203 148.803 71.4213 148.803 71.7132H149.803ZM148.396 70.2154L144.594 69.8518L144.499 70.8472L148.301 71.2109L148.396 70.2154Z" fill="#5A5A5A" mask="url(#path-70-inside-1_34_7978)"/>
<line x1="20.424" y1="229.265" x2="0.423999" y2="261.265" stroke="black"/>
<line x1="68.7619" y1="343.44" x2="44.7619" y2="330.44" stroke="#5A5A5A"/>
<line x1="79.2014" y1="153.458" x2="54.2014" y2="164.458" stroke="#5A5A5A"/>
<rect x="253" y="150" width="2" height="11" transform="rotate(90 253 150)" fill="#5A5A5A"/>
<rect x="236" y="150" width="2" height="11" transform="rotate(90 236 150)" fill="#5A5A5A"/>
<rect x="219" y="150" width="2" height="11" transform="rotate(90 219 150)" fill="#5A5A5A"/>
<rect x="202" y="150" width="2" height="11" transform="rotate(90 202 150)" fill="#5A5A5A"/>
<rect x="185" y="150" width="2" height="11" transform="rotate(90 185 150)" fill="#5A5A5A"/>
<rect x="168" y="150" width="2" height="11" transform="rotate(90 168 150)" fill="#5A5A5A"/>
<rect x="151" y="150" width="2" height="11" transform="rotate(90 151 150)" fill="#5A5A5A"/>
<rect x="134" y="150" width="2" height="11" transform="rotate(90 134 150)" fill="#5A5A5A"/>
<rect x="116" y="150" width="2" height="11" transform="rotate(90 116 150)" fill="#5A5A5A"/>
</svg>
