<svg width="351" height="519" viewBox="0 0 351 519" fill="none" xmlns="http://www.w3.org/2000/svg">
<rect width="223" height="335" transform="matrix(1 -8.74228e-08 -8.74228e-08 -1 84 351)" fill="#FFF8BA"/>
<path d="M306.995 40.3248L282 40.3248L282 16.0001L306.995 16.0001L306.995 40.3248Z" fill="white" stroke="#5A5A5A" stroke-width="0.5"/>
<path d="M284.027 39.3984L303.48 39.3984C304.218 39.3984 304.61 39.0058 304.61 38.2364L304.61 18.0888C304.61 17.3036 304.234 16.9267 303.48 16.9267L284.027 16.9267C283.273 16.911 282.896 17.3036 282.896 18.0731L282.896 38.2207C282.881 39.0058 283.273 39.3984 284.027 39.3984Z" fill="white" stroke="#5A5A5A" stroke-width="0.5"/>
<path d="M285.815 32.8971C285.831 31.1069 287.244 29.6464 288.987 29.6464C290.745 29.6464 292.158 31.1069 292.158 32.8971C292.158 34.703 290.745 36.1477 288.987 36.1477C287.228 36.1477 285.815 34.703 285.815 32.8971Z" stroke="#5A5A5A" stroke-width="0.5"/>
<path d="M285.846 23.2711C285.862 21.4809 287.275 20.0205 289.017 20.0205C290.776 20.0205 292.189 21.4809 292.189 23.2711C292.189 25.077 290.776 26.5217 289.017 26.5217C287.259 26.5374 285.83 25.077 285.846 23.2711Z" stroke="#5A5A5A" stroke-width="0.5"/>
<path d="M294.86 23.2712C294.86 21.4653 296.273 20.0206 298.031 20.0206C299.79 20.0206 301.203 21.481 301.203 23.2712C301.187 25.0614 299.774 26.5219 298.031 26.5219C296.289 26.5219 294.86 25.0614 294.86 23.2712Z" stroke="#5A5A5A" stroke-width="0.5"/>
<path d="M294.86 32.8971C294.86 31.0912 296.273 29.6464 298.031 29.6464C299.79 29.6464 301.203 31.1069 301.203 32.8971C301.187 34.6873 299.774 36.1477 298.031 36.1477C296.289 36.1477 294.86 34.6873 294.86 32.8971Z" stroke="#5A5A5A" stroke-width="0.5"/>
<path d="M283.015 73L307.104 73L307.104 96.699L283 96.699L283.015 73Z" fill="white" stroke="#5A5A5A" stroke-width="0.5"/>
<path d="M289.621 74.8031L302.938 74.8031C303.68 74.8031 304.044 75.1668 304.044 75.9244L304.044 93.532C304.044 94.2594 303.68 94.6382 302.953 94.6533L289.621 94.6382C288.894 94.6533 288.53 94.2745 288.53 93.532L288.53 75.9244C288.5 75.1819 288.879 74.8031 289.621 74.8031Z" fill="white" stroke="#5A5A5A" stroke-width="0.5"/>
<path d="M284.864 84.7282C284.879 85.6525 285.576 86.395 286.455 86.395L293.439 85.7435L293.454 85.7283C293.984 85.7283 294.408 85.2889 294.408 84.7282C294.408 84.1676 293.984 83.7281 293.439 83.713L286.455 83.0614C285.591 83.0614 284.879 83.8039 284.864 84.7282Z" stroke="#5A5A5A" stroke-width="0.5"/>
<mask id="path-11-inside-1_35_8714" fill="white">
<path fill-rule="evenodd" clip-rule="evenodd" d="M285.546 86.1073L289.349 85.7436C289.879 85.7285 290.318 85.2891 290.303 84.7132C290.303 84.1526 289.879 83.7283 289.349 83.7132L285.546 83.3495"/>
</mask>
<path fill-rule="evenodd" clip-rule="evenodd" d="M285.546 86.1073L289.349 85.7436C289.879 85.7285 290.318 85.2891 290.303 84.7132C290.303 84.1526 289.879 83.7283 289.349 83.7132L285.546 83.3495" fill="white"/>
<path d="M289.349 85.7436L289.334 85.2438L289.318 85.2443L289.301 85.2459L289.349 85.7436ZM290.303 84.7132L289.803 84.7132L289.803 84.7264L290.303 84.7132ZM289.349 83.7132L289.301 84.2109L289.318 84.2125L289.334 84.213L289.349 83.7132ZM285.593 86.605L289.396 86.2414L289.301 85.2459L285.498 85.6096L285.593 86.605ZM289.363 86.2434C290.168 86.2204 290.825 85.5523 290.803 84.7001L289.803 84.7264C289.811 85.0258 289.59 85.2365 289.334 85.2438L289.363 86.2434ZM290.803 84.7132C290.803 83.8839 290.165 83.2363 289.363 83.2134L289.334 84.213C289.592 84.2203 289.803 84.4213 289.803 84.7132L290.803 84.7132ZM289.396 83.2154L285.593 82.8518L285.498 83.8472L289.301 84.2109L289.396 83.2154Z" fill="#5A5A5A" mask="url(#path-11-inside-1_35_8714)"/>
<path d="M335 202V354L265 351.587V202H335Z" fill="#FFC79F"/>
<path d="M315.477 267.265L316.657 267.282L319.723 267.265L327.314 267.265L327.314 277.222L315.477 277.222C312.46 277.222 310 274.979 310 272.227C310 269.509 312.46 267.265 315.477 267.265Z" fill="white" stroke="#5A5A5A" stroke-width="0.5"/>
<path d="M315.542 268.411L316.477 268.411L324.035 268.411L324.035 276.092L316.477 276.092L315.542 276.076C313.165 276.076 311.23 274.373 311.23 272.244C311.246 270.131 313.181 268.411 315.542 268.411Z" fill="white" stroke="#5A5A5A" stroke-width="0.5"/>
<path d="M333.676 279.024L328.413 279.024C327.806 279.024 327.314 278.532 327.314 277.927L327.314 266.643C327.314 266.037 327.806 265.545 328.413 265.545L333.676 265.545C334.283 265.545 334.775 266.037 334.775 266.643L334.775 277.91C334.775 278.532 334.283 279.024 333.676 279.024Z" fill="white" stroke="#5A5A5A" stroke-width="0.5"/>
<path d="M331.053 272.932C330.643 272.932 330.331 272.637 330.331 272.293C330.315 271.933 330.643 271.638 331.053 271.638C331.462 271.638 331.774 271.933 331.774 272.277C331.757 272.653 331.446 272.948 331.053 272.932Z" fill="white" stroke="#5A5A5A" stroke-width="0.5"/>
<path d="M333.305 309.69L320.997 309.69C320.142 309.69 319.457 309.007 319.457 308.152L319.457 289.633C319.457 288.778 320.142 288.094 320.997 288.094L333.305 288.094C334.161 288.094 334.846 288.778 334.846 289.633L334.846 308.152C334.846 308.992 334.161 309.69 333.305 309.69Z" fill="white" stroke="#5A5A5A" stroke-width="0.5"/>
<path d="M328.613 307.767L326.716 307.767C324.221 307.767 322.195 305.744 322.195 303.251L322.195 294.533C322.195 292.04 324.221 290.017 326.716 290.017L328.613 290.017C331.109 290.017 333.134 292.04 333.134 294.533L333.134 303.251C333.134 305.744 331.109 307.767 328.613 307.767Z" fill="white" stroke="#5A5A5A" stroke-width="0.5"/>
<path d="M330.724 299.847C330.181 299.847 329.74 299.42 329.74 298.893C329.74 298.366 330.181 297.938 330.724 297.938C331.267 297.938 331.708 298.366 331.708 298.893C331.708 299.42 331.267 299.847 330.724 299.847Z" fill="white" stroke="#5A5A5A" stroke-width="0.5"/>
<path d="M333.507 324.389L273.386 324.389C272.616 324.389 272 325.004 272 325.773L272 349.64C272 350.409 272.616 351.024 273.386 351.024L333.507 351.024C334.277 351.024 334.893 350.409 334.893 349.64L334.893 325.773C334.893 325.004 334.263 324.389 333.507 324.389Z" fill="white" stroke="#5A5A5A" stroke-width="0.5"/>
<path d="M275.696 334.47L275.696 340.958C275.696 344.719 278.748 347.753 282.499 347.753L329.84 347.753C330.763 347.753 331.505 347.012 331.505 346.089L331.505 329.311C331.505 328.388 330.763 327.647 329.84 327.647L282.513 327.647C278.748 327.661 275.696 330.709 275.696 334.47Z" fill="white" stroke="#5A5A5A" stroke-width="0.5"/>
<path d="M325.892 337.238C325.892 336.489 326.525 335.882 327.306 335.882C328.087 335.882 328.72 336.489 328.72 337.238C328.72 337.987 328.087 338.594 327.306 338.594C326.525 338.594 325.892 337.987 325.892 337.238Z" fill="white" stroke="#5A5A5A" stroke-width="0.5"/>
<path d="M265 274.024L265 252.014L286.588 252L286.574 274.01L265 274.024Z" fill="white" stroke="#5A5A5A" stroke-width="0.5"/>
<path d="M281.331 263.005C281.331 259.891 278.856 257.377 275.794 257.377C272.732 257.377 270.258 259.891 270.258 263.019C270.258 266.133 272.732 268.675 275.794 268.675C278.856 268.661 281.331 266.119 281.331 263.005Z" stroke="#5A5A5A" stroke-width="0.5"/>
<path d="M275.794 267.125C276.913 267.139 277.919 266.678 278.646 265.924C279.373 265.17 279.821 264.136 279.835 263.019M275.808 258.885C276.913 258.885 277.919 259.346 278.66 260.086C279.387 260.84 279.849 261.86 279.849 263.005L275.808 258.885ZM275.794 267.125C274.689 267.125 273.683 266.664 272.942 265.924C272.215 265.17 271.767 264.136 271.767 263.005L275.794 267.125ZM275.808 258.885C274.675 258.885 273.669 259.346 272.956 260.086L272.942 260.1C272.229 260.84 271.767 261.86 271.767 262.991L275.808 258.885Z" stroke="#5A5A5A" stroke-width="0.5"/>
<path d="M316.298 226.759L317.479 226.742L320.545 226.759L328.136 226.759L328.136 216.801L316.298 216.801C313.282 216.801 310.822 219.045 310.822 221.796C310.822 224.515 313.282 226.759 316.298 226.759Z" fill="white" stroke="#5A5A5A" stroke-width="0.5"/>
<path d="M316.364 225.612L317.298 225.612L324.857 225.612L324.857 217.932L317.298 217.932L316.364 217.948C313.986 217.948 312.052 219.651 312.052 221.78C312.068 223.893 314.003 225.612 316.364 225.612Z" fill="white" stroke="#5A5A5A" stroke-width="0.5"/>
<path d="M334.498 215L329.235 215C328.628 215 328.136 215.491 328.136 216.097L328.136 227.381C328.136 227.987 328.628 228.478 329.235 228.478L334.498 228.478C335.104 228.478 335.596 227.987 335.596 227.381L335.596 216.114C335.596 215.491 335.104 215 334.498 215Z" fill="white" stroke="#5A5A5A" stroke-width="0.5"/>
<path d="M331.874 221.092C331.464 221.092 331.153 221.387 331.153 221.731C331.137 222.091 331.464 222.386 331.874 222.386C332.284 222.386 332.596 222.091 332.596 221.747C332.579 221.371 332.268 221.076 331.874 221.092Z" fill="white" stroke="#5A5A5A" stroke-width="0.5"/>
<path d="M306.596 243.848L306.596 231.54C306.596 230.685 305.913 230 305.058 230L286.539 230C285.684 230 285 230.685 285 231.54L285 243.848C285 244.704 285.684 245.389 286.539 245.389L305.058 245.389C305.898 245.389 306.596 244.704 306.596 243.848Z" fill="white" stroke="#5A5A5A" stroke-width="0.5"/>
<path d="M304.673 239.156L304.673 237.26C304.673 234.764 302.651 232.738 300.158 232.738L291.439 232.738C288.946 232.738 286.923 234.764 286.923 237.26L286.923 239.156C286.923 241.652 288.946 243.677 291.439 243.677L300.158 243.677C302.651 243.677 304.673 241.652 304.673 239.156Z" fill="white" stroke="#5A5A5A" stroke-width="0.5"/>
<path d="M296.753 241.267C296.753 240.724 296.326 240.283 295.799 240.283C295.272 240.283 294.844 240.724 294.844 241.267C294.844 241.811 295.272 242.251 295.799 242.251C296.326 242.251 296.753 241.811 296.753 241.267Z" fill="white" stroke="#5A5A5A" stroke-width="0.5"/>
<rect width="111" height="473" transform="matrix(1 -8.74228e-08 -8.74228e-08 -1 84 489)" fill="#FFF8BA"/>
<path d="M113.35 417.42V415.6L115.17 414.2H116.64V424H115.03V416.16L113.35 417.42ZM118.111 420.78C118.111 420.332 118.209 419.865 118.405 419.38C118.61 418.885 118.806 418.498 118.993 418.218C119.189 417.929 119.455 417.569 119.791 417.14L122.031 414.2H123.921L121.807 416.958L121.191 417.49V417.56L121.471 417.462C121.751 417.387 122.054 417.35 122.381 417.35C123.296 417.35 124.07 417.681 124.705 418.344C125.349 418.997 125.671 419.809 125.671 420.78C125.671 421.769 125.316 422.6 124.607 423.272C123.898 423.944 122.992 424.28 121.891 424.28C120.79 424.28 119.884 423.944 119.175 423.272C118.466 422.6 118.111 421.769 118.111 420.78ZM120.365 419.324C119.982 419.697 119.791 420.183 119.791 420.78C119.791 421.377 119.982 421.867 120.365 422.25C120.748 422.623 121.256 422.81 121.891 422.81C122.526 422.81 123.034 422.623 123.417 422.25C123.8 421.867 123.991 421.377 123.991 420.78C123.991 420.183 123.8 419.697 123.417 419.324C123.034 418.941 122.526 418.75 121.891 418.75C121.256 418.75 120.748 418.941 120.365 419.324ZM126.794 423.23C126.794 422.95 126.883 422.717 127.06 422.53C127.247 422.343 127.476 422.25 127.746 422.25C128.054 422.25 128.297 422.362 128.474 422.586C128.661 422.81 128.754 423.141 128.754 423.58C128.754 424.299 128.582 424.849 128.236 425.232C127.9 425.624 127.443 425.82 126.864 425.82V425.12C127.144 425.12 127.364 425.041 127.522 424.882C127.69 424.733 127.774 424.532 127.774 424.28V424.196C127.765 424.187 127.76 424.168 127.76 424.14V424.098L127.676 424.126C127.648 424.135 127.588 424.14 127.494 424.14C127.308 424.14 127.144 424.056 127.004 423.888C126.864 423.72 126.794 423.501 126.794 423.23ZM129.801 420.78C129.801 420.332 129.899 419.865 130.095 419.38C130.3 418.885 130.496 418.498 130.683 418.218C130.879 417.929 131.145 417.569 131.481 417.14L133.721 414.2H135.611L133.497 416.958L132.881 417.49V417.56L133.161 417.462C133.441 417.387 133.744 417.35 134.071 417.35C134.985 417.35 135.76 417.681 136.395 418.344C137.039 418.997 137.361 419.809 137.361 420.78C137.361 421.769 137.006 422.6 136.297 423.272C135.587 423.944 134.682 424.28 133.581 424.28C132.479 424.28 131.574 423.944 130.865 423.272C130.155 422.6 129.801 421.769 129.801 420.78ZM132.055 419.324C131.672 419.697 131.481 420.183 131.481 420.78C131.481 421.377 131.672 421.867 132.055 422.25C132.437 422.623 132.946 422.81 133.581 422.81C134.215 422.81 134.724 422.623 135.107 422.25C135.489 421.867 135.681 421.377 135.681 420.78C135.681 420.183 135.489 419.697 135.107 419.324C134.724 418.941 134.215 418.75 133.581 418.75C132.946 418.75 132.437 418.941 132.055 419.324ZM137.367 415.74V414.2H144.017V415.74L140.097 424H138.347L142.197 415.88V415.74H137.367Z" fill="#333333"/>
<path d="M121.42 241.2H123.1C123.165 241.489 123.291 241.746 123.478 241.97C123.898 242.483 124.495 242.74 125.27 242.74C125.914 242.74 126.423 242.581 126.796 242.264C127.179 241.937 127.37 241.536 127.37 241.06C127.37 240.519 127.197 240.094 126.852 239.786C126.516 239.469 126.035 239.31 125.41 239.31H123.03V237.91L125.97 235.81V235.74H121.91V234.2H128.35V235.726L125.83 237.56L125.13 237.84V237.91L125.354 237.882C125.662 237.854 125.844 237.84 125.9 237.84C126.777 237.84 127.51 238.143 128.098 238.75C128.686 239.357 128.98 240.127 128.98 241.06C128.98 241.956 128.635 242.717 127.944 243.342C127.253 243.967 126.362 244.28 125.27 244.28C123.823 244.28 122.755 243.767 122.064 242.74C121.765 242.301 121.551 241.788 121.42 241.2ZM131.437 242.824C130.55 241.853 130.107 240.612 130.107 239.1C130.107 237.588 130.55 236.347 131.437 235.376C132.323 234.405 133.397 233.92 134.657 233.92C135.917 233.92 136.99 234.405 137.877 235.376C138.763 236.347 139.207 237.588 139.207 239.1C139.207 240.612 138.763 241.853 137.877 242.824C136.99 243.795 135.917 244.28 134.657 244.28C133.397 244.28 132.323 243.795 131.437 242.824ZM132.585 236.412C132.053 237.047 131.787 237.943 131.787 239.1C131.787 240.257 132.053 241.153 132.585 241.788C133.126 242.423 133.817 242.74 134.657 242.74C135.497 242.74 136.183 242.423 136.715 241.788C137.256 241.153 137.527 240.257 137.527 239.1C137.527 237.943 137.256 237.047 136.715 236.412C136.183 235.777 135.497 235.46 134.657 235.46C133.817 235.46 133.126 235.777 132.585 236.412ZM140.4 243.23C140.4 242.95 140.489 242.717 140.666 242.53C140.853 242.343 141.081 242.25 141.352 242.25C141.66 242.25 141.903 242.362 142.08 242.586C142.267 242.81 142.36 243.141 142.36 243.58C142.36 244.299 142.187 244.849 141.842 245.232C141.506 245.624 141.049 245.82 140.47 245.82V245.12C140.75 245.12 140.969 245.041 141.128 244.882C141.296 244.733 141.38 244.532 141.38 244.28V244.196C141.371 244.187 141.366 244.168 141.366 244.14V244.098L141.282 244.126C141.254 244.135 141.193 244.14 141.1 244.14C140.913 244.14 140.75 244.056 140.61 243.888C140.47 243.72 140.4 243.501 140.4 243.23ZM143.266 237.42V235.6L145.086 234.2H146.556V244H144.946V236.16L143.266 237.42ZM148.097 237.42C148.097 236.431 148.452 235.6 149.161 234.928C149.87 234.256 150.776 233.92 151.877 233.92C152.978 233.92 153.884 234.256 154.593 234.928C155.302 235.6 155.657 236.431 155.657 237.42C155.657 238.307 155.288 239.263 154.551 240.29C154.476 240.393 154.374 240.533 154.243 240.71C154.112 240.878 154.024 240.995 153.977 241.06L151.737 244H149.847L151.961 241.242L152.577 240.71V240.64C152.558 240.649 152.465 240.687 152.297 240.752C152.054 240.817 151.751 240.85 151.387 240.85C150.472 240.85 149.693 240.523 149.049 239.87C148.414 239.207 148.097 238.391 148.097 237.42ZM150.351 235.964C149.968 236.337 149.777 236.823 149.777 237.42C149.777 238.017 149.968 238.507 150.351 238.89C150.734 239.263 151.242 239.45 151.877 239.45C152.512 239.45 153.02 239.263 153.403 238.89C153.786 238.507 153.977 238.017 153.977 237.42C153.977 236.823 153.786 236.337 153.403 235.964C153.02 235.581 152.512 235.39 151.877 235.39C151.242 235.39 150.734 235.581 150.351 235.964Z" fill="#333333"/>
<path d="M18.42 389.2H20.1C20.1653 389.489 20.2913 389.746 20.478 389.97C20.898 390.483 21.4953 390.74 22.27 390.74C22.914 390.74 23.4227 390.581 23.796 390.264C24.1787 389.937 24.37 389.536 24.37 389.06C24.37 388.519 24.1973 388.094 23.852 387.786C23.516 387.469 23.0353 387.31 22.41 387.31H20.03V385.91L22.97 383.81V383.74H18.91V382.2H25.35V383.726L22.83 385.56L22.13 385.84V385.91L22.354 385.882C22.662 385.854 22.844 385.84 22.9 385.84C23.7773 385.84 24.51 386.143 25.098 386.75C25.686 387.357 25.98 388.127 25.98 389.06C25.98 389.956 25.6347 390.717 24.944 391.342C24.2533 391.967 23.362 392.28 22.27 392.28C20.8233 392.28 19.7547 391.767 19.064 390.74C18.7653 390.301 18.5507 389.788 18.42 389.2ZM27.0366 391.23C27.0366 390.95 27.1252 390.717 27.3026 390.53C27.4892 390.343 27.7179 390.25 27.9886 390.25C28.2966 390.25 28.5392 390.362 28.7166 390.586C28.9032 390.81 28.9966 391.141 28.9966 391.58C28.9966 392.299 28.8239 392.849 28.4786 393.232C28.1426 393.624 27.6852 393.82 27.1066 393.82V393.12C27.3866 393.12 27.6059 393.041 27.7646 392.882C27.9326 392.733 28.0166 392.532 28.0166 392.28V392.196C28.0072 392.187 28.0026 392.168 28.0026 392.14V392.098L27.9186 392.126C27.8906 392.135 27.8299 392.14 27.7366 392.14C27.5499 392.14 27.3866 392.056 27.2466 391.888C27.1066 391.72 27.0366 391.501 27.0366 391.23ZM30.0427 388.78C30.0427 388.332 30.1407 387.865 30.3367 387.38C30.5421 386.885 30.7381 386.498 30.9247 386.218C31.1207 385.929 31.3867 385.569 31.7227 385.14L33.9627 382.2H35.8527L33.7387 384.958L33.1227 385.49V385.56L33.4027 385.462C33.6827 385.387 33.9861 385.35 34.3127 385.35C35.2274 385.35 36.0021 385.681 36.6367 386.344C37.2807 386.997 37.6027 387.809 37.6027 388.78C37.6027 389.769 37.2481 390.6 36.5387 391.272C35.8294 391.944 34.9241 392.28 33.8227 392.28C32.7214 392.28 31.8161 391.944 31.1067 391.272C30.3974 390.6 30.0427 389.769 30.0427 388.78ZM32.2967 387.324C31.9141 387.697 31.7227 388.183 31.7227 388.78C31.7227 389.377 31.9141 389.867 32.2967 390.25C32.6794 390.623 33.1881 390.81 33.8227 390.81C34.4574 390.81 34.9661 390.623 35.3487 390.25C35.7314 389.867 35.9227 389.377 35.9227 388.78C35.9227 388.183 35.7314 387.697 35.3487 387.324C34.9661 386.941 34.4574 386.75 33.8227 386.75C33.1881 386.75 32.6794 386.941 32.2967 387.324ZM38.656 388.78C38.656 388.332 38.754 387.865 38.95 387.38C39.1553 386.885 39.3513 386.498 39.538 386.218C39.734 385.929 40 385.569 40.336 385.14L42.576 382.2H44.466L42.352 384.958L41.736 385.49V385.56L42.016 385.462C42.296 385.387 42.5993 385.35 42.926 385.35C43.8407 385.35 44.6153 385.681 45.25 386.344C45.894 386.997 46.216 387.809 46.216 388.78C46.216 389.769 45.8613 390.6 45.152 391.272C44.4427 391.944 43.5373 392.28 42.436 392.28C41.3347 392.28 40.4293 391.944 39.72 391.272C39.0107 390.6 38.656 389.769 38.656 388.78ZM40.91 387.324C40.5273 387.697 40.336 388.183 40.336 388.78C40.336 389.377 40.5273 389.867 40.91 390.25C41.2927 390.623 41.8013 390.81 42.436 390.81C43.0707 390.81 43.5793 390.623 43.962 390.25C44.3447 389.867 44.536 389.377 44.536 388.78C44.536 388.183 44.3447 387.697 43.962 387.324C43.5793 386.941 43.0707 386.75 42.436 386.75C41.8013 386.75 41.2927 386.941 40.91 387.324Z" fill="#333333"/>
<path d="M217.35 256.42V254.6L219.17 253.2H220.64V263H219.03V255.16L217.35 256.42ZM221.971 256.42V254.6L223.791 253.2H225.261V263H223.651V255.16L221.971 256.42ZM226.802 262.23C226.802 261.95 226.891 261.717 227.068 261.53C227.255 261.343 227.484 261.25 227.754 261.25C228.062 261.25 228.305 261.362 228.482 261.586C228.669 261.81 228.762 262.141 228.762 262.58C228.762 263.299 228.59 263.849 228.244 264.232C227.908 264.624 227.451 264.82 226.872 264.82V264.12C227.152 264.12 227.372 264.041 227.53 263.882C227.698 263.733 227.782 263.532 227.782 263.28V263.196C227.773 263.187 227.768 263.168 227.768 263.14V263.098L227.684 263.126C227.656 263.135 227.596 263.14 227.502 263.14C227.316 263.14 227.152 263.056 227.012 262.888C226.872 262.72 226.802 262.501 226.802 262.23ZM229.878 260.34C229.878 259.491 230.205 258.814 230.858 258.31C231.138 258.114 231.465 257.965 231.838 257.862V257.778C231.549 257.666 231.292 257.512 231.068 257.316C230.555 256.877 230.298 256.299 230.298 255.58C230.298 254.843 230.611 254.217 231.236 253.704C231.871 253.181 232.725 252.92 233.798 252.92C234.872 252.92 235.721 253.181 236.346 253.704C236.981 254.217 237.298 254.843 237.298 255.58C237.298 256.28 237.042 256.859 236.528 257.316C236.286 257.512 236.029 257.666 235.758 257.778V257.862C236.113 257.955 236.44 258.109 236.738 258.324C237.392 258.828 237.718 259.5 237.718 260.34C237.718 261.152 237.364 261.847 236.654 262.426C235.954 262.995 235.002 263.28 233.798 263.28C232.594 263.28 231.638 262.995 230.928 262.426C230.228 261.847 229.878 261.152 229.878 260.34ZM231.978 255.72C231.978 256.131 232.137 256.467 232.454 256.728C232.772 256.989 233.22 257.12 233.798 257.12C234.377 257.12 234.825 256.989 235.142 256.728C235.46 256.467 235.618 256.131 235.618 255.72C235.618 255.347 235.455 255.034 235.128 254.782C234.811 254.521 234.368 254.39 233.798 254.39C233.229 254.39 232.781 254.521 232.454 254.782C232.137 255.034 231.978 255.347 231.978 255.72ZM232.146 259.066C231.754 259.374 231.558 259.752 231.558 260.2C231.558 260.648 231.754 261.031 232.146 261.348C232.548 261.656 233.098 261.81 233.798 261.81C234.498 261.81 235.044 261.656 235.436 261.348C235.838 261.031 236.038 260.648 236.038 260.2C236.038 259.752 235.838 259.374 235.436 259.066C235.044 258.749 234.498 258.59 233.798 258.59C233.098 258.59 232.548 258.749 232.146 259.066ZM238.833 260.34C238.833 259.491 239.16 258.814 239.813 258.31C240.093 258.114 240.42 257.965 240.793 257.862V257.778C240.504 257.666 240.247 257.512 240.023 257.316C239.51 256.877 239.253 256.299 239.253 255.58C239.253 254.843 239.566 254.217 240.191 253.704C240.826 253.181 241.68 252.92 242.753 252.92C243.827 252.92 244.676 253.181 245.301 253.704C245.936 254.217 246.253 254.843 246.253 255.58C246.253 256.28 245.997 256.859 245.483 257.316C245.241 257.512 244.984 257.666 244.713 257.778V257.862C245.068 257.955 245.395 258.109 245.693 258.324C246.347 258.828 246.673 259.5 246.673 260.34C246.673 261.152 246.319 261.847 245.609 262.426C244.909 262.995 243.957 263.28 242.753 263.28C241.549 263.28 240.593 262.995 239.883 262.426C239.183 261.847 238.833 261.152 238.833 260.34ZM240.933 255.72C240.933 256.131 241.092 256.467 241.409 256.728C241.727 256.989 242.175 257.12 242.753 257.12C243.332 257.12 243.78 256.989 244.097 256.728C244.415 256.467 244.573 256.131 244.573 255.72C244.573 255.347 244.41 255.034 244.083 254.782C243.766 254.521 243.323 254.39 242.753 254.39C242.184 254.39 241.736 254.521 241.409 254.782C241.092 255.034 240.933 255.347 240.933 255.72ZM241.101 259.066C240.709 259.374 240.513 259.752 240.513 260.2C240.513 260.648 240.709 261.031 241.101 261.348C241.503 261.656 242.053 261.81 242.753 261.81C243.453 261.81 243.999 261.656 244.391 261.348C244.793 261.031 244.993 260.648 244.993 260.2C244.993 259.752 244.793 259.374 244.391 259.066C243.999 258.749 243.453 258.59 242.753 258.59C242.053 258.59 241.503 258.749 241.101 259.066Z" fill="#333333"/>
<path d="M276.56 294.27H278.24C278.315 294.559 278.441 294.807 278.618 295.012C279.029 295.497 279.626 295.74 280.41 295.74C281.035 295.74 281.53 295.572 281.894 295.236C282.258 294.9 282.44 294.461 282.44 293.92C282.44 293.351 282.258 292.893 281.894 292.548C281.53 292.203 281.035 292.03 280.41 292.03C279.831 292.03 279.341 292.184 278.94 292.492C278.781 292.613 278.641 292.763 278.52 292.94H276.98L277.4 287.2H283.35V288.74H278.73L278.52 291.26H278.59C278.739 291.111 278.912 290.985 279.108 290.882C279.547 290.621 280.074 290.49 280.69 290.49C281.67 290.49 282.487 290.817 283.14 291.47C283.793 292.123 284.12 292.94 284.12 293.92C284.12 294.881 283.775 295.684 283.084 296.328C282.403 296.963 281.511 297.28 280.41 297.28C278.973 297.28 277.904 296.781 277.204 295.782C276.905 295.343 276.691 294.839 276.56 294.27ZM285.173 296.23C285.173 295.95 285.262 295.717 285.439 295.53C285.626 295.343 285.855 295.25 286.125 295.25C286.433 295.25 286.676 295.362 286.853 295.586C287.04 295.81 287.133 296.141 287.133 296.58C287.133 297.299 286.961 297.849 286.615 298.232C286.279 298.624 285.822 298.82 285.243 298.82V298.12C285.523 298.12 285.743 298.041 285.901 297.882C286.069 297.733 286.153 297.532 286.153 297.28V297.196C286.144 297.187 286.139 297.168 286.139 297.14V297.098L286.055 297.126C286.027 297.135 285.967 297.14 285.873 297.14C285.687 297.14 285.523 297.056 285.383 296.888C285.243 296.72 285.173 296.501 285.173 296.23ZM288.249 294.34C288.249 293.491 288.576 292.814 289.229 292.31C289.509 292.114 289.836 291.965 290.209 291.862V291.778C289.92 291.666 289.663 291.512 289.439 291.316C288.926 290.877 288.669 290.299 288.669 289.58C288.669 288.843 288.982 288.217 289.607 287.704C290.242 287.181 291.096 286.92 292.169 286.92C293.243 286.92 294.092 287.181 294.717 287.704C295.352 288.217 295.669 288.843 295.669 289.58C295.669 290.28 295.413 290.859 294.899 291.316C294.657 291.512 294.4 291.666 294.129 291.778V291.862C294.484 291.955 294.811 292.109 295.109 292.324C295.763 292.828 296.089 293.5 296.089 294.34C296.089 295.152 295.735 295.847 295.025 296.426C294.325 296.995 293.373 297.28 292.169 297.28C290.965 297.28 290.009 296.995 289.299 296.426C288.599 295.847 288.249 295.152 288.249 294.34ZM290.349 289.72C290.349 290.131 290.508 290.467 290.825 290.728C291.143 290.989 291.591 291.12 292.169 291.12C292.748 291.12 293.196 290.989 293.513 290.728C293.831 290.467 293.989 290.131 293.989 289.72C293.989 289.347 293.826 289.034 293.499 288.782C293.182 288.521 292.739 288.39 292.169 288.39C291.6 288.39 291.152 288.521 290.825 288.782C290.508 289.034 290.349 289.347 290.349 289.72ZM290.517 293.066C290.125 293.374 289.929 293.752 289.929 294.2C289.929 294.648 290.125 295.031 290.517 295.348C290.919 295.656 291.469 295.81 292.169 295.81C292.869 295.81 293.415 295.656 293.807 295.348C294.209 295.031 294.409 294.648 294.409 294.2C294.409 293.752 294.209 293.374 293.807 293.066C293.415 292.749 292.869 292.59 292.169 292.59C291.469 292.59 290.919 292.749 290.517 293.066ZM297.205 290.42C297.205 289.431 297.559 288.6 298.269 287.928C298.978 287.256 299.883 286.92 300.985 286.92C302.086 286.92 302.991 287.256 303.701 287.928C304.41 288.6 304.765 289.431 304.765 290.42C304.765 291.307 304.396 292.263 303.659 293.29C303.584 293.393 303.481 293.533 303.351 293.71C303.22 293.878 303.131 293.995 303.085 294.06L300.845 297H298.955L301.069 294.242L301.685 293.71V293.64C301.666 293.649 301.573 293.687 301.405 293.752C301.162 293.817 300.859 293.85 300.495 293.85C299.58 293.85 298.801 293.523 298.157 292.87C297.522 292.207 297.205 291.391 297.205 290.42ZM299.459 288.964C299.076 289.337 298.885 289.823 298.885 290.42C298.885 291.017 299.076 291.507 299.459 291.89C299.841 292.263 300.35 292.45 300.985 292.45C301.619 292.45 302.128 292.263 302.511 291.89C302.893 291.507 303.085 291.017 303.085 290.42C303.085 289.823 302.893 289.337 302.511 288.964C302.128 288.581 301.619 288.39 300.985 288.39C300.35 288.39 299.841 288.581 299.459 288.964Z" fill="#333333"/>
<path d="M273.42 220V218.46L276.766 216.094C277.494 215.571 278.017 215.086 278.334 214.638C278.651 214.19 278.81 213.714 278.81 213.21C278.81 212.678 278.647 212.253 278.32 211.936C277.993 211.619 277.55 211.46 276.99 211.46C276.299 211.46 275.781 211.74 275.436 212.3C275.287 212.543 275.175 212.823 275.1 213.14H273.42C273.504 212.543 273.686 212.006 273.966 211.53C274.629 210.457 275.637 209.92 276.99 209.92C278.026 209.92 278.866 210.228 279.51 210.844C280.163 211.451 280.49 212.216 280.49 213.14C280.49 213.943 280.285 214.666 279.874 215.31C279.463 215.945 278.805 216.575 277.9 217.2L276.5 218.18L275.87 218.46V218.53L276.71 218.46H280.49V220H273.42ZM281.613 219.23C281.613 218.95 281.701 218.717 281.879 218.53C282.065 218.343 282.294 218.25 282.565 218.25C282.873 218.25 283.115 218.362 283.293 218.586C283.479 218.81 283.573 219.141 283.573 219.58C283.573 220.299 283.4 220.849 283.055 221.232C282.719 221.624 282.261 221.82 281.683 221.82V221.12C281.963 221.12 282.182 221.041 282.341 220.882C282.509 220.733 282.593 220.532 282.593 220.28V220.196C282.583 220.187 282.579 220.168 282.579 220.14V220.098L282.495 220.126C282.467 220.135 282.406 220.14 282.313 220.14C282.126 220.14 281.963 220.056 281.823 219.888C281.683 219.72 281.613 219.501 281.613 219.23ZM284.689 217.27H286.369C286.444 217.559 286.57 217.807 286.747 218.012C287.158 218.497 287.755 218.74 288.539 218.74C289.164 218.74 289.659 218.572 290.023 218.236C290.387 217.9 290.569 217.461 290.569 216.92C290.569 216.351 290.387 215.893 290.023 215.548C289.659 215.203 289.164 215.03 288.539 215.03C287.96 215.03 287.47 215.184 287.069 215.492C286.91 215.613 286.77 215.763 286.649 215.94H285.109L285.529 210.2H291.479V211.74H286.859L286.649 214.26H286.719C286.868 214.111 287.041 213.985 287.237 213.882C287.676 213.621 288.203 213.49 288.819 213.49C289.799 213.49 290.616 213.817 291.269 214.47C291.922 215.123 292.249 215.94 292.249 216.92C292.249 217.881 291.904 218.684 291.213 219.328C290.532 219.963 289.64 220.28 288.539 220.28C287.102 220.28 286.033 219.781 285.333 218.782C285.034 218.343 284.82 217.839 284.689 217.27ZM293.302 213.42C293.302 212.431 293.657 211.6 294.366 210.928C295.076 210.256 295.981 209.92 297.082 209.92C298.184 209.92 299.089 210.256 299.798 210.928C300.508 211.6 300.862 212.431 300.862 213.42C300.862 214.307 300.494 215.263 299.756 216.29C299.682 216.393 299.579 216.533 299.448 216.71C299.318 216.878 299.229 216.995 299.182 217.06L296.942 220H295.052L297.166 217.242L297.782 216.71V216.64C297.764 216.649 297.67 216.687 297.502 216.752C297.26 216.817 296.956 216.85 296.592 216.85C295.678 216.85 294.898 216.523 294.254 215.87C293.62 215.207 293.302 214.391 293.302 213.42ZM295.556 211.964C295.174 212.337 294.982 212.823 294.982 213.42C294.982 214.017 295.174 214.507 295.556 214.89C295.939 215.263 296.448 215.45 297.082 215.45C297.717 215.45 298.226 215.263 298.608 214.89C298.991 214.507 299.182 214.017 299.182 213.42C299.182 212.823 298.991 212.337 298.608 211.964C298.226 211.581 297.717 211.39 297.082 211.39C296.448 211.39 295.939 211.581 295.556 211.964Z" fill="#333333"/>
<path d="M254.21 59.04V57.5L257.5 51.2H259.25L255.96 57.5H259.18V55.12H259.25H260.79V57.5H262.19V59.04H260.79V61H259.18V59.04H254.21ZM262.749 60.23C262.749 59.95 262.838 59.7167 263.015 59.53C263.202 59.3433 263.431 59.25 263.701 59.25C264.009 59.25 264.252 59.362 264.429 59.586C264.616 59.81 264.709 60.1413 264.709 60.58C264.709 61.2987 264.537 61.8493 264.191 62.232C263.855 62.624 263.398 62.82 262.819 62.82V62.12C263.099 62.12 263.319 62.0407 263.477 61.882C263.645 61.7327 263.729 61.532 263.729 61.28V61.196C263.72 61.1867 263.715 61.168 263.715 61.14V61.098L263.631 61.126C263.603 61.1353 263.543 61.14 263.449 61.14C263.263 61.14 263.099 61.056 262.959 60.888C262.819 60.72 262.749 60.5007 262.749 60.23ZM265.826 58.27H267.506C267.58 58.5593 267.706 58.8067 267.884 59.012C268.294 59.4973 268.892 59.74 269.676 59.74C270.301 59.74 270.796 59.572 271.16 59.236C271.524 58.9 271.706 58.4613 271.706 57.92C271.706 57.3507 271.524 56.8933 271.16 56.548C270.796 56.2027 270.301 56.03 269.676 56.03C269.097 56.03 268.607 56.184 268.206 56.492C268.047 56.6133 267.907 56.7627 267.786 56.94H266.246L266.666 51.2H272.616V52.74H267.996L267.786 55.26H267.856C268.005 55.1107 268.178 54.9847 268.374 54.882C268.812 54.6207 269.34 54.49 269.956 54.49C270.936 54.49 271.752 54.8167 272.406 55.47C273.059 56.1233 273.386 56.94 273.386 57.92C273.386 58.8813 273.04 59.684 272.35 60.328C271.668 60.9627 270.777 61.28 269.676 61.28C268.238 61.28 267.17 60.7807 266.47 59.782C266.171 59.3433 265.956 58.8393 265.826 58.27ZM274.439 58.27H276.119C276.194 58.5593 276.32 58.8067 276.497 59.012C276.908 59.4973 277.505 59.74 278.289 59.74C278.914 59.74 279.409 59.572 279.773 59.236C280.137 58.9 280.319 58.4613 280.319 57.92C280.319 57.3507 280.137 56.8933 279.773 56.548C279.409 56.2027 278.914 56.03 278.289 56.03C277.71 56.03 277.22 56.184 276.819 56.492C276.66 56.6133 276.52 56.7627 276.399 56.94H274.859L275.279 51.2H281.229V52.74H276.609L276.399 55.26H276.469C276.618 55.1107 276.791 54.9847 276.987 54.882C277.426 54.6207 277.953 54.49 278.569 54.49C279.549 54.49 280.366 54.8167 281.019 55.47C281.672 56.1233 281.999 56.94 281.999 57.92C281.999 58.8813 281.654 59.684 280.963 60.328C280.282 60.9627 279.39 61.28 278.289 61.28C276.852 61.28 275.783 60.7807 275.083 59.782C274.784 59.3433 274.57 58.8393 274.439 58.27Z" fill="#333333"/>
<path d="M18.21 109.04V107.5L21.5 101.2H23.25L19.96 107.5H23.18V105.12H23.25H24.79V107.5H26.19V109.04H24.79V111H23.18V109.04H18.21ZM26.7495 110.23C26.7495 109.95 26.8381 109.717 27.0155 109.53C27.2021 109.343 27.4308 109.25 27.7015 109.25C28.0095 109.25 28.2521 109.362 28.4295 109.586C28.6161 109.81 28.7095 110.141 28.7095 110.58C28.7095 111.299 28.5368 111.849 28.1915 112.232C27.8555 112.624 27.3981 112.82 26.8195 112.82V112.12C27.0995 112.12 27.3188 112.041 27.4775 111.882C27.6455 111.733 27.7295 111.532 27.7295 111.28V111.196C27.7201 111.187 27.7155 111.168 27.7155 111.14V111.098L27.6315 111.126C27.6035 111.135 27.5428 111.14 27.4495 111.14C27.2628 111.14 27.0995 111.056 26.9595 110.888C26.8195 110.72 26.7495 110.501 26.7495 110.23ZM29.4056 102.74V101.2H36.0556V102.74L32.1356 111H30.3856L34.2356 102.88V102.74H29.4056ZM36.5505 107.78C36.5505 107.332 36.6485 106.865 36.8445 106.38C37.0499 105.885 37.2459 105.498 37.4325 105.218C37.6285 104.929 37.8945 104.569 38.2305 104.14L40.4705 101.2H42.3605L40.2465 103.958L39.6305 104.49V104.56L39.9105 104.462C40.1905 104.387 40.4939 104.35 40.8205 104.35C41.7352 104.35 42.5099 104.681 43.1445 105.344C43.7885 105.997 44.1105 106.809 44.1105 107.78C44.1105 108.769 43.7559 109.6 43.0465 110.272C42.3372 110.944 41.4319 111.28 40.3305 111.28C39.2292 111.28 38.3239 110.944 37.6145 110.272C36.9052 109.6 36.5505 108.769 36.5505 107.78ZM38.8045 106.324C38.4219 106.697 38.2305 107.183 38.2305 107.78C38.2305 108.377 38.4219 108.867 38.8045 109.25C39.1872 109.623 39.6959 109.81 40.3305 109.81C40.9652 109.81 41.4739 109.623 41.8565 109.25C42.2392 108.867 42.4305 108.377 42.4305 107.78C42.4305 107.183 42.2392 106.697 41.8565 106.324C41.4739 105.941 40.9652 105.75 40.3305 105.75C39.6959 105.75 39.1872 105.941 38.8045 106.324Z" fill="#333333"/>
<circle cx="144.5" cy="128.5" r="39.5" fill="#5A5A5A"/>
<path d="M125.18 125.38V123.4H133.73V125.38L128.69 136H126.44L131.39 125.56V125.38H125.18ZM134.538 127.54V125.2L136.878 123.4H138.768V136H136.698V125.92L134.538 127.54ZM140.749 135.01C140.749 134.65 140.863 134.35 141.091 134.11C141.331 133.87 141.625 133.75 141.973 133.75C142.369 133.75 142.681 133.894 142.909 134.182C143.149 134.47 143.269 134.896 143.269 135.46C143.269 136.384 143.047 137.092 142.603 137.584C142.171 138.088 141.583 138.34 140.839 138.34V137.44C141.199 137.44 141.481 137.338 141.685 137.134C141.901 136.942 142.009 136.684 142.009 136.36V136.252C141.997 136.24 141.991 136.216 141.991 136.18V136.126L141.883 136.162C141.847 136.174 141.769 136.18 141.649 136.18C141.409 136.18 141.199 136.072 141.019 135.856C140.839 135.64 140.749 135.358 140.749 135.01ZM144.164 125.38V123.4H152.714V125.38L147.674 136H145.424L150.374 125.56V125.38H144.164ZM153.252 125.38V123.4H161.802V125.38L156.762 136H154.512L159.462 125.56V125.38H153.252Z" fill="white"/>
<rect x="246" y="95" width="2" height="11" transform="rotate(180 246 95)" fill="#5A5A5A"/>
<rect x="246" y="78" width="2" height="11" transform="rotate(180 246 78)" fill="#5A5A5A"/>
<rect x="246" y="61" width="2" height="11" transform="rotate(180 246 61)" fill="#5A5A5A"/>
<rect x="246" y="44" width="2" height="11" transform="rotate(180 246 44)" fill="#5A5A5A"/>
<rect x="246" y="27" width="2" height="11" transform="rotate(180 246 27)" fill="#5A5A5A"/>
<rect width="30" height="60" transform="matrix(1 -8.74228e-08 -8.74228e-08 -1 54 60)" fill="#5A5A5A"/>
<rect width="30" height="114" transform="matrix(1 -8.74228e-08 -8.74228e-08 -1 54 225)" fill="#5A5A5A"/>
<path d="M83.7498 159.25L83.5982 313.688L72.25 313.749L72.25 159.25L83.7498 159.25Z" stroke="#5A5A5A" stroke-width="0.5" stroke-miterlimit="10"/>
<path d="M83.7498 319.25L83.5982 473.688L72.25 473.749L72.25 319.25L83.7498 319.25Z" stroke="#5A5A5A" stroke-width="0.5" stroke-miterlimit="10"/>
<path d="M183.75 518.75L97.285 518.598L97.2508 507.25L183.75 507.25L183.75 518.75Z" stroke="#5A5A5A" stroke-width="0.5" stroke-miterlimit="10"/>
<path d="M65.7498 159.25L65.5982 313.688L54.25 313.749L54.25 159.25L65.7498 159.25Z" stroke="#5A5A5A" stroke-width="0.5" stroke-miterlimit="10"/>
<path d="M65.7498 319.25L65.5982 473.688L54.25 473.749L54.25 319.25L65.7498 319.25Z" stroke="#5A5A5A" stroke-width="0.5" stroke-miterlimit="10"/>
<path d="M183.75 500.75L97.285 500.598L97.2508 489.25L183.75 489.25L183.75 500.75Z" stroke="#5A5A5A" stroke-width="0.5" stroke-miterlimit="10"/>
<rect width="30" height="79" transform="matrix(1 -8.74228e-08 -8.74228e-08 -1 54 357)" fill="#5A5A5A"/>
<rect width="30" height="110" transform="matrix(1 -8.74228e-08 -8.74228e-08 -1 54 519)" fill="#5A5A5A"/>
<rect width="30" height="37" transform="matrix(-4.37114e-08 1 1 4.37114e-08 74 489)" fill="#5A5A5A"/>
<rect width="30" height="41" transform="matrix(-4.37114e-08 1 1 4.37114e-08 168 489)" fill="#5A5A5A"/>
<rect width="16" height="166" transform="matrix(-1 8.74228e-08 8.74228e-08 1 209 351)" fill="#5A5A5A"/>
<rect width="16" height="153" transform="matrix(1.19249e-08 -1 -1 -1.19249e-08 351 367)" fill="#5A5A5A"/>
<rect width="16" height="180" transform="matrix(1 0 0 -1 335 367)" fill="#5A5A5A"/>
<rect width="16" height="137" transform="matrix(-4.37114e-08 1 1 4.37114e-08 76 290)" fill="#5A5A5A"/>
<rect width="16" height="101" transform="matrix(-1 -8.74228e-08 -8.74228e-08 1 213 202)" fill="#5A5A5A"/>
<rect width="16" height="21" transform="matrix(-1 -8.74228e-08 -8.74228e-08 1 213 342)" fill="#5A5A5A"/>
<path d="M244 96L244 104L313 104L313 96L244 96Z" fill="#5A5A5A"/>
<path d="M206 119L206 127L250 127L250 119L206 119Z" fill="#5A5A5A"/>
<path d="M252 96L244 96L244 127L252 127L252 96Z" fill="#5A5A5A"/>
<path d="M214 119L206 119L206 135L214 135L214 119Z" fill="#5A5A5A"/>
<path d="M213 187L205 187L205 203L213 203L213 187Z" fill="#5A5A5A"/>
<path d="M310 203L310 195L257 195L257 203L310 203Z" fill="#5A5A5A"/>
<path d="M257 210H265V202H257L257 210Z" fill="#5A5A5A"/>
<path d="M257 275H265V240H257L257 275Z" fill="#5A5A5A"/>
<path d="M257 354H265V302H257L257 354Z" fill="#5A5A5A"/>
<path d="M261 245L261 253L338 253L338 245L261 245Z" fill="#5A5A5A"/>
<rect width="16" height="44" transform="matrix(-4.37114e-08 -1 -1 4.37114e-08 351 203)" fill="#5A5A5A"/>
<rect width="16" height="43" transform="matrix(1 0 0 -1 307 202)" fill="#5A5A5A"/>
<rect width="16" height="125" transform="matrix(1 0 0 -1 307 125)" fill="#5A5A5A"/>
<rect width="16" height="268" transform="matrix(-4.37114e-08 1 1 4.37114e-08 55 0)" fill="#5A5A5A"/>
<path d="M206.25 123.25L206.275 151.451L207.75 151.46L207.75 123.25L206.25 123.25Z" stroke="#5A5A5A" stroke-width="0.5" stroke-miterlimit="10"/>
<path d="M206.25 170.539L206.275 198.74L207.75 198.749L207.75 170.539L206.25 170.539Z" stroke="#5A5A5A" stroke-width="0.5" stroke-miterlimit="10"/>
<path d="M204.25 146.894L204.275 175.095L205.75 175.104L205.75 146.894L204.25 146.894Z" stroke="#5A5A5A" stroke-width="0.5" stroke-miterlimit="10"/>
<line x1="201.428" y1="304.259" x2="181.428" y2="337.259" stroke="black"/>
<line x1="258.563" y1="304.243" x2="243.563" y2="277.243" stroke="black"/>
<line x1="258.567" y1="241.25" x2="243.567" y2="215.25" stroke="black"/>
<line y1="-0.5" x2="33.121" y2="-0.5" transform="matrix(-0.483077 -0.875578 -0.875578 0.483077 82 385)" stroke="#5A5A5A"/>
<path d="M0.250198 430.75L0.313164 348.282L4.74999 348.252L4.75 430.75L0.250198 430.75Z" stroke="#5A5A5A" stroke-width="0.5" stroke-miterlimit="10"/>
<path d="M54.2503 442.75L54.3131 383.273L58.75 383.251L58.75 442.75L54.2503 442.75Z" stroke="#5A5A5A" stroke-width="0.5" stroke-miterlimit="10"/>
<path d="M64.2503 442.75L64.3131 383.273L68.75 383.251L68.75 442.75L64.2503 442.75Z" stroke="#5A5A5A" stroke-width="0.5" stroke-miterlimit="10"/>
<rect width="5" height="74" transform="matrix(-4.37114e-08 1 1 4.37114e-08 0 431)" fill="#5A5A5A"/>
<rect width="5" height="74" transform="matrix(-4.37114e-08 1 1 4.37114e-08 0 331)" fill="#5A5A5A"/>
<rect width="5" height="93" transform="matrix(1 0 0 -1 0 424)" fill="#5A5A5A"/>
<rect width="5" height="19" transform="matrix(1 0 0 -1 0 433)" fill="#5A5A5A"/>
<line y1="-0.5" x2="33.121" y2="-0.5" transform="matrix(-0.483077 -0.875578 -0.875578 0.483077 82 87)" stroke="#5A5A5A"/>
<path d="M0.250172 135.75L0.313192 39.2878L4.74999 39.252L4.75 135.75L0.250172 135.75Z" stroke="#5A5A5A" stroke-width="0.5" stroke-miterlimit="10"/>
<path d="M54.2503 144.75L54.3131 85.2734L58.75 85.2512L58.75 144.75L54.2503 144.75Z" stroke="#5A5A5A" stroke-width="0.5" stroke-miterlimit="10"/>
<path d="M64.2503 144.75L64.3131 85.2734L68.75 85.2512L68.75 144.75L64.2503 144.75Z" stroke="#5A5A5A" stroke-width="0.5" stroke-miterlimit="10"/>
<rect width="5" height="74" transform="matrix(-4.37114e-08 1 1 4.37114e-08 0 148)" fill="#5A5A5A"/>
<rect width="5" height="74" transform="matrix(-4.37114e-08 1 1 4.37114e-08 0 20)" fill="#5A5A5A"/>
<rect width="5" height="19" transform="matrix(1 0 0 -1 0 40)" fill="#5A5A5A"/>
<rect width="5" height="19" transform="matrix(1 0 0 -1 0 152)" fill="#5A5A5A"/>
<line x1="320.574" y1="160.739" x2="339.574" y2="129.739" stroke="black"/>
</svg>
