<svg width="493" height="376" viewBox="0 0 493 376" fill="none" xmlns="http://www.w3.org/2000/svg">
<rect width="78.3576" height="415.731" transform="matrix(1.19249e-08 -1 -1 -1.19249e-08 432.056 115.36)" fill="#E7FFD5"/>
<rect width="94.6821" height="76.181" transform="matrix(1.19249e-08 -1 -1 -1.19249e-08 432.056 115.36)" fill="#FDFF9F"/>
<rect width="180.658" height="463.616" transform="matrix(1.19249e-08 -1 -1 -1.19249e-08 479.94 289.488)" fill="#E7FFD5"/>
<path d="M476.363 161.068L451.645 161.068L451.645 185.124L476.363 185.124L476.363 161.068Z" fill="white" stroke="#5A5A5A" stroke-width="0.5"/>
<path d="M453.649 161.985L472.887 161.985C473.616 161.985 474.004 162.373 474.004 163.134L474.004 183.059C474.004 183.835 473.632 184.208 472.887 184.208L453.649 184.208C452.903 184.224 452.531 183.835 452.531 183.074L452.531 163.15C452.515 162.373 452.903 161.985 453.649 161.985Z" fill="white" stroke="#5A5A5A" stroke-width="0.5"/>
<path d="M455.418 168.414C455.433 170.185 456.831 171.629 458.554 171.629C460.293 171.629 461.691 170.185 461.691 168.414C461.691 166.628 460.293 165.2 458.554 165.2C456.815 165.2 455.418 166.628 455.418 168.414Z" stroke="#5A5A5A" stroke-width="0.5"/>
<path d="M455.448 177.934C455.464 179.704 456.861 181.148 458.585 181.148C460.324 181.148 461.721 179.704 461.721 177.934C461.721 176.148 460.324 174.719 458.585 174.719C456.846 174.703 455.433 176.148 455.448 177.934Z" stroke="#5A5A5A" stroke-width="0.5"/>
<path d="M464.362 177.933C464.362 179.719 465.76 181.148 467.499 181.148C469.238 181.148 470.635 179.704 470.635 177.933C470.62 176.163 469.222 174.719 467.499 174.719C465.775 174.719 464.362 176.163 464.362 177.933Z" stroke="#5A5A5A" stroke-width="0.5"/>
<path d="M464.362 168.414C464.362 170.2 465.76 171.629 467.499 171.629C469.238 171.629 470.635 170.185 470.635 168.414C470.62 166.644 469.222 165.2 467.499 165.2C465.775 165.2 464.362 166.644 464.362 168.414Z" stroke="#5A5A5A" stroke-width="0.5"/>
<path d="M457.669 116.463L457.669 140.285L434.232 140.285L434.232 116.448L457.669 116.463Z" fill="white" stroke="#5A5A5A" stroke-width="0.5"/>
<path d="M455.886 122.996L455.886 136.166C455.886 136.9 455.526 137.26 454.777 137.26L437.364 137.26C436.645 137.26 436.27 136.9 436.255 136.181L436.27 122.996C436.255 122.277 436.63 121.918 437.364 121.918L454.777 121.918C455.511 121.888 455.886 122.262 455.886 122.996Z" fill="white" stroke="#5A5A5A" stroke-width="0.5"/>
<path d="M446.07 118.291C445.156 118.306 444.422 118.995 444.422 119.864L445.066 126.771L445.081 126.786C445.081 127.31 445.516 127.73 446.07 127.73C446.625 127.73 447.059 127.31 447.074 126.771L447.719 119.864C447.719 119.01 446.984 118.306 446.07 118.291Z" stroke="#5A5A5A" stroke-width="0.5"/>
<mask id="path-13-inside-1_67_175" fill="white">
<path fill-rule="evenodd" clip-rule="evenodd" d="M444.706 118.966L445.066 122.727C445.081 123.251 445.515 123.686 446.085 123.671C446.639 123.671 447.059 123.251 447.074 122.727L447.434 118.966"/>
</mask>
<path fill-rule="evenodd" clip-rule="evenodd" d="M444.706 118.966L445.066 122.727C445.081 123.251 445.515 123.686 446.085 123.671C446.639 123.671 447.059 123.251 447.074 122.727L447.434 118.966" fill="white"/>
<path d="M445.066 122.727L445.566 122.713L445.565 122.696L445.564 122.679L445.066 122.727ZM446.085 123.671L446.085 123.171L446.072 123.171L446.085 123.671ZM447.074 122.727L446.576 122.679L446.575 122.696L446.574 122.713L447.074 122.727ZM444.209 119.014L444.568 122.775L445.564 122.679L445.204 118.919L444.209 119.014ZM444.566 122.741C444.589 123.54 445.252 124.193 446.098 124.171L446.072 123.171C445.779 123.179 445.573 122.962 445.566 122.713L444.566 122.741ZM446.085 124.171C446.908 124.171 447.551 123.538 447.574 122.741L446.574 122.713C446.567 122.965 446.371 123.171 446.085 123.171L446.085 124.171ZM447.572 122.775L447.931 119.014L446.936 118.919L446.576 122.679L447.572 122.775Z" fill="#5A5A5A" mask="url(#path-13-inside-1_67_175)"/>
<circle cx="247.893" cy="189.125" r="38.9399" fill="#5A5A5A"/>
<path d="M226.839 186.661V184.681H235.389V186.661L230.349 197.281H228.099L233.049 186.841V186.661H226.839ZM236.287 197.281V195.301L240.589 192.259C241.525 191.587 242.197 190.963 242.605 190.387C243.013 189.811 243.217 189.199 243.217 188.551C243.217 187.867 243.007 187.321 242.587 186.913C242.167 186.505 241.597 186.301 240.877 186.301C239.989 186.301 239.323 186.661 238.879 187.381C238.687 187.693 238.543 188.053 238.447 188.461H236.287C236.395 187.693 236.629 187.003 236.989 186.391C237.841 185.011 239.137 184.321 240.877 184.321C242.209 184.321 243.289 184.717 244.117 185.509C244.957 186.289 245.377 187.273 245.377 188.461C245.377 189.493 245.113 190.423 244.585 191.251C244.057 192.067 243.211 192.877 242.047 193.681L240.247 194.941L239.437 195.301V195.391L240.517 195.301H245.377V197.281H236.287ZM246.821 196.291C246.821 195.931 246.935 195.631 247.163 195.391C247.403 195.151 247.697 195.031 248.045 195.031C248.441 195.031 248.753 195.175 248.981 195.463C249.221 195.751 249.341 196.177 249.341 196.741C249.341 197.665 249.119 198.373 248.675 198.865C248.243 199.369 247.655 199.621 246.911 199.621V198.721C247.271 198.721 247.553 198.619 247.757 198.415C247.973 198.223 248.081 197.965 248.081 197.641V197.533C248.069 197.521 248.063 197.497 248.063 197.461V197.407L247.955 197.443C247.919 197.455 247.841 197.461 247.721 197.461C247.481 197.461 247.271 197.353 247.091 197.137C246.911 196.921 246.821 196.639 246.821 196.291ZM250.776 193.771H252.936C253.032 194.143 253.194 194.461 253.422 194.725C253.95 195.349 254.718 195.661 255.726 195.661C256.53 195.661 257.166 195.445 257.634 195.013C258.102 194.581 258.336 194.017 258.336 193.321C258.336 192.589 258.102 192.001 257.634 191.557C257.166 191.113 256.53 190.891 255.726 190.891C254.982 190.891 254.352 191.089 253.836 191.485C253.632 191.641 253.452 191.833 253.296 192.061H251.316L251.856 184.681H259.506V186.661H253.566L253.296 189.901H253.386C253.578 189.709 253.8 189.547 254.052 189.415C254.616 189.079 255.294 188.911 256.086 188.911C257.346 188.911 258.396 189.331 259.236 190.171C260.076 191.011 260.496 192.061 260.496 193.321C260.496 194.557 260.052 195.589 259.164 196.417C258.288 197.233 257.142 197.641 255.726 197.641C253.878 197.641 252.504 196.999 251.604 195.715C251.22 195.151 250.944 194.503 250.776 193.771ZM260.765 186.661V184.681H269.315V186.661L264.275 197.281H262.025L266.975 186.841V186.661H260.765Z" fill="white"/>
<path d="M280.991 254.819V253.279L284.281 246.979H286.031L282.741 253.279H285.961V250.899H286.031H287.571V253.279H288.971V254.819H287.571V256.779H285.961V254.819H280.991ZM289.605 254.819V253.279L292.895 246.979H294.645L291.355 253.279H294.575V250.899H294.645H296.185V253.279H297.585V254.819H296.185V256.779H294.575V254.819H289.605ZM298.144 256.009C298.144 255.729 298.233 255.496 298.41 255.309C298.597 255.123 298.825 255.029 299.096 255.029C299.404 255.029 299.647 255.141 299.824 255.365C300.011 255.589 300.104 255.921 300.104 256.359C300.104 257.078 299.931 257.629 299.586 258.011C299.25 258.403 298.793 258.599 298.214 258.599V257.899C298.494 257.899 298.713 257.82 298.872 257.661C299.04 257.512 299.124 257.311 299.124 257.059V256.975C299.115 256.966 299.11 256.947 299.11 256.919V256.877L299.026 256.905C298.998 256.915 298.937 256.919 298.844 256.919C298.657 256.919 298.494 256.835 298.354 256.667C298.214 256.499 298.144 256.28 298.144 256.009ZM301.01 250.199V248.379L302.83 246.979H304.3V256.779H302.69V248.939L301.01 250.199ZM305.701 256.779V255.239L309.047 252.873C309.775 252.351 310.298 251.865 310.615 251.417C310.933 250.969 311.091 250.493 311.091 249.989C311.091 249.457 310.928 249.033 310.601 248.715C310.275 248.398 309.831 248.239 309.271 248.239C308.581 248.239 308.063 248.519 307.717 249.079C307.568 249.322 307.456 249.602 307.381 249.919H305.701C305.785 249.322 305.967 248.785 306.247 248.309C306.91 247.236 307.918 246.699 309.271 246.699C310.307 246.699 311.147 247.007 311.791 247.623C312.445 248.23 312.771 248.995 312.771 249.919C312.771 250.722 312.566 251.445 312.155 252.089C311.745 252.724 311.087 253.354 310.181 253.979L308.781 254.959L308.151 255.239V255.309L308.991 255.239H312.771V256.779H305.701Z" fill="#333333"/>
<path d="M230.052 348.661H231.732C231.797 348.951 231.923 349.207 232.11 349.431C232.53 349.945 233.127 350.201 233.902 350.201C234.546 350.201 235.055 350.043 235.428 349.725C235.811 349.399 236.002 348.997 236.002 348.521C236.002 347.98 235.829 347.555 235.484 347.247C235.148 346.93 234.667 346.771 234.042 346.771H231.662V345.371L234.602 343.271V343.201H230.542V341.661H236.982V343.187L234.462 345.021L233.762 345.301V345.371L233.986 345.343C234.294 345.315 234.476 345.301 234.532 345.301C235.409 345.301 236.142 345.605 236.73 346.211C237.318 346.818 237.612 347.588 237.612 348.521C237.612 349.417 237.267 350.178 236.576 350.803C235.885 351.429 234.994 351.741 233.902 351.741C232.455 351.741 231.387 351.228 230.696 350.201C230.397 349.763 230.183 349.249 230.052 348.661ZM238.668 350.691C238.668 350.411 238.757 350.178 238.934 349.991C239.121 349.805 239.35 349.711 239.62 349.711C239.928 349.711 240.171 349.823 240.348 350.047C240.535 350.271 240.628 350.603 240.628 351.041C240.628 351.76 240.456 352.311 240.11 352.693C239.774 353.085 239.317 353.281 238.738 353.281V352.581C239.018 352.581 239.238 352.502 239.396 352.343C239.564 352.194 239.648 351.993 239.648 351.741V351.657C239.639 351.648 239.634 351.629 239.634 351.601V351.559L239.55 351.587C239.522 351.597 239.462 351.601 239.368 351.601C239.182 351.601 239.018 351.517 238.878 351.349C238.738 351.181 238.668 350.962 238.668 350.691ZM241.675 348.241C241.675 347.793 241.773 347.327 241.969 346.841C242.174 346.347 242.37 345.959 242.557 345.679C242.753 345.39 243.019 345.031 243.355 344.601L245.595 341.661H247.485L245.371 344.419L244.755 344.951V345.021L245.035 344.923C245.315 344.849 245.618 344.811 245.945 344.811C246.859 344.811 247.634 345.143 248.269 345.805C248.913 346.459 249.235 347.271 249.235 348.241C249.235 349.231 248.88 350.061 248.171 350.733C247.461 351.405 246.556 351.741 245.455 351.741C244.353 351.741 243.448 351.405 242.739 350.733C242.029 350.061 241.675 349.231 241.675 348.241ZM243.929 346.785C243.546 347.159 243.355 347.644 243.355 348.241C243.355 348.839 243.546 349.329 243.929 349.711C244.311 350.085 244.82 350.271 245.455 350.271C246.089 350.271 246.598 350.085 246.981 349.711C247.363 349.329 247.555 348.839 247.555 348.241C247.555 347.644 247.363 347.159 246.981 346.785C246.598 346.403 246.089 346.211 245.455 346.211C244.82 346.211 244.311 346.403 243.929 346.785ZM250.288 348.241C250.288 347.793 250.386 347.327 250.582 346.841C250.787 346.347 250.983 345.959 251.17 345.679C251.366 345.39 251.632 345.031 251.968 344.601L254.208 341.661H256.098L253.984 344.419L253.368 344.951V345.021L253.648 344.923C253.928 344.849 254.231 344.811 254.558 344.811C255.473 344.811 256.247 345.143 256.882 345.805C257.526 346.459 257.848 347.271 257.848 348.241C257.848 349.231 257.493 350.061 256.784 350.733C256.075 351.405 255.169 351.741 254.068 351.741C252.967 351.741 252.061 351.405 251.352 350.733C250.643 350.061 250.288 349.231 250.288 348.241ZM252.542 346.785C252.159 347.159 251.968 347.644 251.968 348.241C251.968 348.839 252.159 349.329 252.542 349.711C252.925 350.085 253.433 350.271 254.068 350.271C254.703 350.271 255.211 350.085 255.594 349.711C255.977 349.329 256.168 348.839 256.168 348.241C256.168 347.644 255.977 347.159 255.594 346.785C255.211 346.403 254.703 346.211 254.068 346.211C253.433 346.211 252.925 346.403 252.542 346.785Z" fill="#333333"/>
<path d="M421.732 248.678C421.732 247.829 422.059 247.152 422.712 246.648C422.992 246.452 423.319 246.303 423.692 246.2V246.116C423.403 246.004 423.146 245.85 422.922 245.654C422.409 245.215 422.152 244.637 422.152 243.918C422.152 243.181 422.465 242.555 423.09 242.042C423.725 241.519 424.579 241.258 425.652 241.258C426.725 241.258 427.575 241.519 428.2 242.042C428.835 242.555 429.152 243.181 429.152 243.918C429.152 244.618 428.895 245.197 428.382 245.654C428.139 245.85 427.883 246.004 427.612 246.116V246.2C427.967 246.293 428.293 246.447 428.592 246.662C429.245 247.166 429.572 247.838 429.572 248.678C429.572 249.49 429.217 250.185 428.508 250.764C427.808 251.333 426.856 251.618 425.652 251.618C424.448 251.618 423.491 251.333 422.782 250.764C422.082 250.185 421.732 249.49 421.732 248.678ZM423.832 244.058C423.832 244.469 423.991 244.805 424.308 245.066C424.625 245.327 425.073 245.458 425.652 245.458C426.231 245.458 426.679 245.327 426.996 245.066C427.313 244.805 427.472 244.469 427.472 244.058C427.472 243.685 427.309 243.372 426.982 243.12C426.665 242.859 426.221 242.728 425.652 242.728C425.083 242.728 424.635 242.859 424.308 243.12C423.991 243.372 423.832 243.685 423.832 244.058ZM424 247.404C423.608 247.712 423.412 248.09 423.412 248.538C423.412 248.986 423.608 249.369 424 249.686C424.401 249.994 424.952 250.148 425.652 250.148C426.352 250.148 426.898 249.994 427.29 249.686C427.691 249.369 427.892 248.986 427.892 248.538C427.892 248.09 427.691 247.712 427.29 247.404C426.898 247.087 426.352 246.928 425.652 246.928C424.952 246.928 424.401 247.087 424 247.404ZM430.687 250.568C430.687 250.288 430.776 250.055 430.953 249.868C431.14 249.681 431.368 249.588 431.639 249.588C431.947 249.588 432.19 249.7 432.367 249.924C432.554 250.148 432.647 250.479 432.647 250.918C432.647 251.637 432.474 252.187 432.129 252.57C431.793 252.962 431.336 253.158 430.757 253.158V252.458C431.037 252.458 431.256 252.379 431.415 252.22C431.583 252.071 431.667 251.87 431.667 251.618V251.534C431.658 251.525 431.653 251.506 431.653 251.478V251.436L431.569 251.464C431.541 251.473 431.48 251.478 431.387 251.478C431.2 251.478 431.037 251.394 430.897 251.226C430.757 251.058 430.687 250.839 430.687 250.568ZM433.763 244.758C433.763 243.769 434.118 242.938 434.827 242.266C435.536 241.594 436.442 241.258 437.543 241.258C438.644 241.258 439.55 241.594 440.259 242.266C440.968 242.938 441.323 243.769 441.323 244.758C441.323 245.645 440.954 246.601 440.217 247.628C440.142 247.731 440.04 247.871 439.909 248.048C439.778 248.216 439.69 248.333 439.643 248.398L437.403 251.338H435.513L437.627 248.58L438.243 248.048V247.978C438.224 247.987 438.131 248.025 437.963 248.09C437.72 248.155 437.417 248.188 437.053 248.188C436.138 248.188 435.359 247.861 434.715 247.208C434.08 246.545 433.763 245.729 433.763 244.758ZM436.017 243.302C435.634 243.675 435.443 244.161 435.443 244.758C435.443 245.355 435.634 245.845 436.017 246.228C436.4 246.601 436.908 246.788 437.543 246.788C438.178 246.788 438.686 246.601 439.069 246.228C439.452 245.845 439.643 245.355 439.643 244.758C439.643 244.161 439.452 243.675 439.069 243.302C438.686 242.919 438.178 242.728 437.543 242.728C436.908 242.728 436.4 242.919 436.017 243.302ZM442.376 248.608H444.056C444.131 248.897 444.257 249.145 444.434 249.35C444.845 249.835 445.442 250.078 446.226 250.078C446.852 250.078 447.346 249.91 447.71 249.574C448.074 249.238 448.256 248.799 448.256 248.258C448.256 247.689 448.074 247.231 447.71 246.886C447.346 246.541 446.852 246.368 446.226 246.368C445.648 246.368 445.158 246.522 444.756 246.83C444.598 246.951 444.458 247.101 444.336 247.278H442.796L443.216 241.538H449.166V243.078H444.546L444.336 245.598H444.406C444.556 245.449 444.728 245.323 444.924 245.22C445.363 244.959 445.89 244.828 446.506 244.828C447.486 244.828 448.303 245.155 448.956 245.808C449.61 246.461 449.936 247.278 449.936 248.258C449.936 249.219 449.591 250.022 448.9 250.666C448.219 251.301 447.328 251.618 446.226 251.618C444.789 251.618 443.72 251.119 443.02 250.12C442.722 249.681 442.507 249.177 442.376 248.608Z" fill="#333333"/>
<path d="M363.912 74.41H365.592C365.658 74.6993 365.784 74.956 365.97 75.18C366.39 75.6933 366.988 75.95 367.762 75.95C368.406 75.95 368.915 75.7913 369.288 75.474C369.671 75.1473 369.862 74.746 369.862 74.27C369.862 73.7286 369.69 73.304 369.344 72.996C369.008 72.6786 368.528 72.52 367.902 72.52H365.522V71.12L368.462 69.02V68.95H364.402V67.41H370.842V68.936L368.322 70.77L367.622 71.05V71.12L367.846 71.092C368.154 71.064 368.336 71.05 368.392 71.05C369.27 71.05 370.002 71.3533 370.59 71.96C371.178 72.5666 371.472 73.3366 371.472 74.27C371.472 75.166 371.127 75.9266 370.436 76.552C369.746 77.1773 368.854 77.49 367.762 77.49C366.316 77.49 365.247 76.9766 364.556 75.95C364.258 75.5113 364.043 74.998 363.912 74.41ZM372.529 76.44C372.529 76.16 372.617 75.9266 372.795 75.74C372.981 75.5533 373.21 75.46 373.481 75.46C373.789 75.46 374.031 75.572 374.209 75.796C374.395 76.02 374.489 76.3513 374.489 76.79C374.489 77.5086 374.316 78.0593 373.971 78.442C373.635 78.834 373.177 79.03 372.599 79.03V78.33C372.879 78.33 373.098 78.2506 373.257 78.092C373.425 77.9426 373.509 77.742 373.509 77.49V77.406C373.499 77.3966 373.495 77.378 373.495 77.35V77.308L373.411 77.336C373.383 77.3453 373.322 77.35 373.229 77.35C373.042 77.35 372.879 77.266 372.739 77.098C372.599 76.93 372.529 76.7106 372.529 76.44ZM375.465 77.21V75.67L378.811 73.304C379.539 72.7813 380.062 72.296 380.379 71.848C380.696 71.4 380.855 70.924 380.855 70.42C380.855 69.888 380.692 69.4633 380.365 69.146C380.038 68.8286 379.595 68.67 379.035 68.67C378.344 68.67 377.826 68.95 377.481 69.51C377.332 69.7526 377.22 70.0326 377.145 70.35H375.465C375.549 69.7526 375.731 69.216 376.011 68.74C376.674 67.6666 377.682 67.13 379.035 67.13C380.071 67.13 380.911 67.438 381.555 68.054C382.208 68.6606 382.535 69.426 382.535 70.35C382.535 71.1526 382.33 71.876 381.919 72.52C381.508 73.1546 380.85 73.7846 379.945 74.41L378.545 75.39L377.915 75.67V75.74L378.755 75.67H382.535V77.21H375.465ZM383.308 75.25V73.71L386.598 67.41H388.348L385.058 73.71H388.278V71.33H388.348H389.888V73.71H391.288V75.25H389.888V77.21H388.278V75.25H383.308Z" fill="#333333"/>
<path d="M211.48 70.63V68.81L213.3 67.41H214.77V77.21H213.16V69.37L211.48 70.63ZM216.101 70.63V68.81L217.921 67.41H219.391V77.21H217.781V69.37L216.101 70.63ZM220.932 76.44C220.932 76.16 221.021 75.9266 221.198 75.74C221.385 75.5533 221.613 75.46 221.884 75.46C222.192 75.46 222.435 75.572 222.612 75.796C222.799 76.02 222.892 76.3513 222.892 76.79C222.892 77.5086 222.719 78.0593 222.374 78.442C222.038 78.834 221.581 79.03 221.002 79.03V78.33C221.282 78.33 221.501 78.2506 221.66 78.092C221.828 77.9426 221.912 77.742 221.912 77.49V77.406C221.903 77.3966 221.898 77.378 221.898 77.35V77.308L221.814 77.336C221.786 77.3453 221.725 77.35 221.632 77.35C221.445 77.35 221.282 77.266 221.142 77.098C221.002 76.93 220.932 76.7106 220.932 76.44ZM225.408 76.034C224.522 75.0633 224.078 73.822 224.078 72.31C224.078 70.798 224.522 69.5566 225.408 68.586C226.295 67.6153 227.368 67.13 228.628 67.13C229.888 67.13 230.962 67.6153 231.848 68.586C232.735 69.5566 233.178 70.798 233.178 72.31C233.178 73.822 232.735 75.0633 231.848 76.034C230.962 77.0046 229.888 77.49 228.628 77.49C227.368 77.49 226.295 77.0046 225.408 76.034ZM226.556 69.622C226.024 70.2566 225.758 71.1526 225.758 72.31C225.758 73.4673 226.024 74.3633 226.556 74.998C227.098 75.6326 227.788 75.95 228.628 75.95C229.468 75.95 230.154 75.6326 230.686 74.998C231.228 74.3633 231.498 73.4673 231.498 72.31C231.498 71.1526 231.228 70.2566 230.686 69.622C230.154 68.9873 229.468 68.67 228.628 68.67C227.788 68.67 227.098 68.9873 226.556 69.622ZM234.022 75.25V73.71L237.312 67.41H239.062L235.772 73.71H238.992V71.33H239.062H240.602V73.71H242.002V75.25H240.602V77.21H238.992V75.25H234.022Z" fill="#333333"/>
<rect width="84.8874" height="95.7704" transform="matrix(1.19249e-08 -1 -1 -1.19249e-08 112.095 119.713)" fill="#FDFF9F"/>
<rect width="29.3841" height="41.3554" transform="matrix(-4.37114e-08 -1 -1 4.37114e-08 56.5918 318.872)" fill="#5A5A5A"/>
<path d="M164.623 318.622L40.5666 318.473L40.5177 307.369L164.623 307.369L164.623 318.622Z" stroke="#5A5A5A" stroke-width="0.5" stroke-miterlimit="10"/>
<path d="M451.935 318.622L327.878 318.473L327.829 307.369L451.935 307.369L451.935 318.622Z" stroke="#5A5A5A" stroke-width="0.5" stroke-miterlimit="10"/>
<path d="M164.623 300.991L40.5666 300.843L40.5177 289.738L164.623 289.738L164.623 300.991Z" stroke="#5A5A5A" stroke-width="0.5" stroke-miterlimit="10"/>
<path d="M451.935 300.991L327.878 300.843L327.829 289.738L451.935 289.738L451.935 300.991Z" stroke="#5A5A5A" stroke-width="0.5" stroke-miterlimit="10"/>
<path d="M63.6811 75.5679H65.3611C65.4358 75.8572 65.5618 76.1045 65.7391 76.3099C66.1498 76.7952 66.7471 77.0379 67.5311 77.0379C68.1564 77.0379 68.6511 76.8699 69.0151 76.5339C69.3791 76.1979 69.5611 75.7592 69.5611 75.2179C69.5611 74.6485 69.3791 74.1912 69.0151 73.8459C68.6511 73.5005 68.1564 73.3279 67.5311 73.3279C66.9524 73.3279 66.4624 73.4819 66.0611 73.7899C65.9024 73.9112 65.7624 74.0605 65.6411 74.2379H64.1011L64.5211 68.4979H70.4711V70.0379H65.8511L65.6411 72.5579H65.7111C65.8604 72.4085 66.0331 72.2825 66.2291 72.1799C66.6678 71.9185 67.1951 71.7879 67.8111 71.7879C68.7911 71.7879 69.6078 72.1145 70.2611 72.7679C70.9144 73.4212 71.2411 74.2379 71.2411 75.2179C71.2411 76.1792 70.8958 76.9819 70.2051 77.6259C69.5238 78.2605 68.6324 78.5779 67.5311 78.5779C66.0938 78.5779 65.0251 78.0785 64.3251 77.0799C64.0264 76.6412 63.8118 76.1372 63.6811 75.5679ZM72.2944 77.5279C72.2944 77.2479 72.383 77.0145 72.5604 76.8279C72.747 76.6412 72.9757 76.5479 73.2464 76.5479C73.5544 76.5479 73.797 76.6599 73.9744 76.8839C74.161 77.1079 74.2544 77.4392 74.2544 77.8779C74.2544 78.5965 74.0817 79.1472 73.7364 79.5299C73.4004 79.9219 72.943 80.1179 72.3644 80.1179V79.4179C72.6444 79.4179 72.8637 79.3385 73.0224 79.1799C73.1904 79.0305 73.2744 78.8299 73.2744 78.5779V78.4939C73.265 78.4845 73.2604 78.4659 73.2604 78.4379V78.3959L73.1764 78.4239C73.1484 78.4332 73.0877 78.4379 72.9944 78.4379C72.8077 78.4379 72.6444 78.3539 72.5044 78.1859C72.3644 78.0179 72.2944 77.7985 72.2944 77.5279ZM75.2305 78.2979V76.7579L78.5765 74.3919C79.3045 73.8692 79.8272 73.3839 80.1445 72.9359C80.4619 72.4879 80.6205 72.0119 80.6205 71.5079C80.6205 70.9759 80.4572 70.5512 80.1305 70.2339C79.8039 69.9165 79.3605 69.7579 78.8005 69.7579C78.1099 69.7579 77.5919 70.0379 77.2465 70.5979C77.0972 70.8405 76.9852 71.1205 76.9105 71.4379H75.2305C75.3145 70.8405 75.4965 70.3039 75.7765 69.8279C76.4392 68.7545 77.4472 68.2179 78.8005 68.2179C79.8365 68.2179 80.6765 68.5259 81.3205 69.1419C81.9739 69.7485 82.3005 70.5139 82.3005 71.4379C82.3005 72.2405 82.0952 72.9639 81.6845 73.6079C81.2739 74.2425 80.6159 74.8725 79.7105 75.4979L78.3105 76.4779L77.6805 76.7579V76.8279L78.5205 76.7579H82.3005V78.2979H75.2305ZM83.2133 71.7179V69.8979L85.0333 68.4979H86.5033V78.2979H84.8933V70.4579L83.2133 71.7179Z" fill="#333333"/>
<rect width="16.3245" height="294.929" transform="matrix(-1 8.74228e-08 8.74228e-08 1 16.3242 23.9424)" fill="#5A5A5A"/>
<rect width="7.6181" height="103.389" transform="matrix(-4.37114e-08 1 1 4.37114e-08 14.1475 119.713)" fill="#5A5A5A"/>
<rect width="7.6181" height="61.66" transform="matrix(0.000688229 1 1 -0.000688229 112.466 108.837)" fill="#5A5A5A"/>
<rect width="7.6181" height="194.06" transform="matrix(0.000688229 1 1 -0.000688229 286.594 108.837)" fill="#5A5A5A"/>
<rect width="7.6181" height="39.1788" transform="matrix(-1 -8.74228e-08 -8.74228e-08 1 119.713 32.6489)" fill="#5A5A5A"/>
<rect width="7.6181" height="30.4724" transform="matrix(-1 -8.74228e-08 -8.74228e-08 1 355.874 22.8545)" fill="#5A5A5A"/>
<rect width="7.6181" height="28.2958" transform="matrix(-1 -8.74228e-08 -8.74228e-08 1 119.713 99.0352)" fill="#5A5A5A"/>
<line x1="131.049" y1="73.1266" x2="116.901" y2="103.599" stroke="#5A5A5A"/>
<line x1="350.886" y1="50.2721" x2="336.738" y2="80.7445" stroke="#5A5A5A"/>
<line x1="286.497" y1="0.418024" x2="251.671" y2="23.2723" stroke="#5A5A5A"/>
<rect width="7.6181" height="28.2958" transform="matrix(-1 -8.74228e-08 -8.74228e-08 1 355.874 83.7993)" fill="#5A5A5A"/>
<rect width="16.3245" height="252.486" transform="matrix(1.19249e-08 -1 -1 -1.19249e-08 252.485 37.0024)" fill="#5A5A5A"/>
<path d="M96.9814 55.1156L96.9653 53.9482L96.9814 50.9161L96.9814 43.4088L87.1343 43.4088L87.1343 55.1156C87.1343 58.0991 89.3531 60.5312 92.0741 60.5312C94.7626 60.5312 96.9814 58.0991 96.9814 55.1156Z" fill="white" stroke="#5A5A5A" stroke-width="0.5"/>
<path d="M95.8477 55.0506L95.8477 54.1263L95.8477 46.6515L88.2518 46.6515L88.2518 54.1263L88.268 55.0506C88.268 57.4017 89.9524 59.3149 92.0578 59.3149C94.1471 59.2987 95.8477 57.3854 95.8477 55.0506Z" fill="white" stroke="#5A5A5A" stroke-width="0.5"/>
<path d="M85.3523 37.1175L85.3523 42.3223C85.3523 42.9223 85.8382 43.4087 86.4375 43.4087L97.5965 43.4087C98.1958 43.4087 98.6816 42.9223 98.6816 42.3223L98.6816 37.1175C98.6816 36.5175 98.1958 36.0311 97.5965 36.0311L86.4536 36.0311C85.8382 36.0311 85.3523 36.5175 85.3523 37.1175Z" fill="white" stroke="#5A5A5A" stroke-width="0.5"/>
<path d="M91.3778 39.7118C91.3778 40.1172 91.6693 40.4252 92.0094 40.4252C92.3657 40.4414 92.6572 40.1172 92.6572 39.7118C92.6572 39.3065 92.3657 38.9984 92.0256 38.9984C91.6531 39.0146 91.3616 39.3227 91.3778 39.7118Z" fill="white" stroke="#5A5A5A" stroke-width="0.5"/>
<path d="M52.8485 37.4837L52.8485 49.6556C52.8485 50.5019 53.5247 51.1789 54.37 51.1789L72.6845 51.1789C73.5298 51.1789 74.2061 50.5019 74.2061 49.6556L74.2061 37.4837C74.2061 36.6374 73.5298 35.9604 72.6845 35.9604L54.37 35.9604C53.5388 35.9604 52.8485 36.6374 52.8485 37.4837Z" fill="white" stroke="#5A5A5A" stroke-width="0.5"/>
<path d="M54.7499 42.1239L54.7499 43.9997C54.7499 46.4679 56.7505 48.4707 59.2159 48.4707L67.8378 48.4707C70.3032 48.4707 72.3037 46.4679 72.3037 43.9997L72.3037 42.1239C72.3037 39.6556 70.3032 37.6528 67.8378 37.6528L59.2159 37.6528C56.7505 37.6528 54.7499 39.6556 54.7499 42.1239Z" fill="white" stroke="#5A5A5A" stroke-width="0.5"/>
<path d="M62.583 40.0366C62.583 40.574 63.0056 41.0097 63.5269 41.0097C64.0481 41.0097 64.4707 40.574 64.4707 40.0366C64.4707 39.4991 64.0481 39.0635 63.5269 39.0635C63.0056 39.0635 62.583 39.4991 62.583 40.0366Z" fill="white" stroke="#5A5A5A" stroke-width="0.5"/>
<path d="M96.9814 55.1156L96.9653 53.9482L96.9814 50.9161L96.9814 43.4088L87.1343 43.4088L87.1343 55.1156C87.1343 58.0991 89.3531 60.5312 92.0741 60.5312C94.7626 60.5312 96.9814 58.0991 96.9814 55.1156Z" fill="white" stroke="#5A5A5A" stroke-width="0.5"/>
<path d="M95.8477 55.0506L95.8477 54.1263L95.8477 46.6515L88.2518 46.6515L88.2518 54.1263L88.268 55.0506C88.268 57.4017 89.9524 59.3149 92.0578 59.3149C94.1471 59.2987 95.8477 57.3854 95.8477 55.0506Z" fill="white" stroke="#5A5A5A" stroke-width="0.5"/>
<path d="M85.3523 37.1175L85.3523 42.3223C85.3523 42.9223 85.8382 43.4087 86.4375 43.4087L97.5965 43.4087C98.1958 43.4087 98.6816 42.9223 98.6816 42.3223L98.6816 37.1175C98.6816 36.5175 98.1958 36.0311 97.5965 36.0311L86.4536 36.0311C85.8382 36.0311 85.3523 36.5175 85.3523 37.1175Z" fill="white" stroke="#5A5A5A" stroke-width="0.5"/>
<path d="M91.3778 39.7118C91.3778 40.1172 91.6693 40.4252 92.0094 40.4252C92.3657 40.4414 92.6572 40.1172 92.6572 39.7118C92.6572 39.3065 92.3657 38.9984 92.0256 38.9984C91.6531 39.0146 91.3616 39.3227 91.3778 39.7118Z" fill="white" stroke="#5A5A5A" stroke-width="0.5"/>
<path d="M52.8485 37.4837L52.8485 49.6556C52.8485 50.5019 53.5247 51.1789 54.37 51.1789L72.6845 51.1789C73.5298 51.1789 74.2061 50.5019 74.2061 49.6556L74.2061 37.4837C74.2061 36.6374 73.5298 35.9604 72.6845 35.9604L54.37 35.9604C53.5388 35.9604 52.8485 36.6374 52.8485 37.4837Z" fill="white" stroke="#5A5A5A" stroke-width="0.5"/>
<path d="M54.7499 42.1239L54.7499 43.9997C54.7499 46.4679 56.7505 48.4707 59.2159 48.4707L67.8378 48.4707C70.3032 48.4707 72.3037 46.4679 72.3037 43.9997L72.3037 42.1239C72.3037 39.6556 70.3032 37.6528 67.8378 37.6528L59.2159 37.6528C56.7505 37.6528 54.7499 39.6556 54.7499 42.1239Z" fill="white" stroke="#5A5A5A" stroke-width="0.5"/>
<path d="M62.583 40.0366C62.583 40.574 63.0056 41.0097 63.5269 41.0097C64.0481 41.0097 64.4707 40.574 64.4707 40.0366C64.4707 39.4991 64.0481 39.0635 63.5269 39.0635C63.0056 39.0635 62.583 39.4991 62.583 40.0366Z" fill="white" stroke="#5A5A5A" stroke-width="0.5"/>
<path d="M47.886 37.5561L47.886 108.794C47.886 109.706 47.1571 110.436 46.2459 110.436L17.9654 110.436C17.0542 110.436 16.3252 109.706 16.3252 108.794L16.3252 37.5561C16.3252 36.6439 17.0542 35.9141 17.9654 35.9141L46.2459 35.9141C47.1571 35.9141 47.886 36.6604 47.886 37.5561Z" fill="white" stroke="#5A5A5A" stroke-width="0.5"/>
<path d="M35.9401 106.057L28.2529 106.057C23.7963 106.057 20.2012 102.441 20.2012 97.9962L20.2012 41.9015C20.2012 40.8068 21.0792 39.9277 22.1727 39.9277L42.0535 39.9277C43.1469 39.9277 44.025 40.8068 44.025 41.9015L44.025 97.9796C44.0084 102.441 40.3968 106.057 35.9401 106.057Z" fill="white" stroke="#5A5A5A" stroke-width="0.5"/>
<path d="M32.6607 46.5788C33.5482 46.5788 34.2676 45.8288 34.2676 44.9036C34.2676 43.9785 33.5482 43.2285 32.6607 43.2285C31.7732 43.2285 31.0537 43.9785 31.0537 44.9036C31.0537 45.8288 31.7732 46.5788 32.6607 46.5788Z" fill="white" stroke="#5A5A5A" stroke-width="0.5"/>
<path d="M91.4176 120.384L112.096 120.384L112.109 100.102L91.4307 100.115L91.4176 120.384Z" fill="white" stroke="#5A5A5A" stroke-width="0.5"/>
<path d="M101.77 105.041C104.696 105.041 107.058 107.366 107.058 110.243C107.058 113.12 104.696 115.445 101.757 115.445C98.8308 115.445 96.4428 113.12 96.4428 110.243C96.4559 107.366 98.8439 105.041 101.77 105.041Z" stroke="#5A5A5A" stroke-width="0.5"/>
<path d="M97.8992 110.243C97.8861 109.192 98.3191 108.246 99.0277 107.563C99.7362 106.88 100.707 106.46 101.757 106.447M105.641 110.23C105.641 109.192 105.208 108.246 104.512 107.55C103.804 106.867 102.846 106.434 101.77 106.434L105.641 110.23ZM97.8992 110.243C97.8992 111.281 98.3322 112.227 99.0277 112.923C99.7362 113.606 100.707 114.026 101.77 114.026L97.8992 110.243ZM105.641 110.23C105.641 111.294 105.208 112.24 104.512 112.91L104.499 112.923C103.804 113.593 102.846 114.026 101.783 114.026L105.641 110.23Z" stroke="#5A5A5A" stroke-width="0.5"/>
<rect width="16.3245" height="144.744" transform="matrix(1.19249e-08 -1 -1 -1.19249e-08 432.056 37.0024)" fill="#5A5A5A"/>
<rect width="16.3245" height="94.6821" transform="matrix(1 0 0 -1 423.349 114.271)" fill="#5A5A5A"/>
<rect width="16.3245" height="69.6512" transform="matrix(-4.37114e-08 -1 -1 4.37114e-08 493 114.271)" fill="#5A5A5A"/>
<rect width="16.3245" height="219.837" transform="matrix(1 0 0 -1 476.676 316.695)" fill="#5A5A5A"/>
<rect width="29.3841" height="89.2406" transform="matrix(-4.37114e-08 -1 -1 4.37114e-08 206.777 318.872)" fill="#5A5A5A"/>
<path d="M281.62 375.213L192.914 375.145L192.881 370.272L281.62 370.272L281.62 375.213Z" stroke="#5A5A5A" stroke-width="0.5" stroke-miterlimit="10"/>
<rect width="5.4415" height="80.5342" transform="matrix(1 0 0 -1 288.399 375.463)" fill="#5A5A5A"/>
<rect width="5.4415" height="80.5342" transform="matrix(1 0 0 -1 180.658 375.463)" fill="#5A5A5A"/>
<rect width="5.4415" height="16.3245" transform="matrix(-4.37114e-08 -1 -1 4.37114e-08 199.159 375.463)" fill="#5A5A5A"/>
<rect width="5.4415" height="13.0596" transform="matrix(-4.37114e-08 -1 -1 4.37114e-08 293.841 375.463)" fill="#5A5A5A"/>
<path d="M301.209 302.798L235.348 302.866L235.324 307.739L301.209 307.739L301.209 302.798Z" stroke="#5A5A5A" stroke-width="0.5" stroke-miterlimit="10"/>
<path d="M301.209 313.681L235.348 313.749L235.324 318.622L301.209 318.622L301.209 313.681Z" stroke="#5A5A5A" stroke-width="0.5" stroke-miterlimit="10"/>
<line x1="205.434" y1="306.47" x2="234.818" y2="289.057" stroke="#5A5A5A"/>
<rect width="29.3841" height="89.2406" transform="matrix(-4.37114e-08 -1 -1 4.37114e-08 356.963 318.872)" fill="#5A5A5A"/>
<rect width="29.3841" height="68.5629" transform="matrix(-4.37114e-08 -1 -1 4.37114e-08 493 318.872)" fill="#5A5A5A"/>
<path d="M403.734 51.7622L404.901 51.7784L407.934 51.7622L415.441 51.7622L415.441 61.6094L403.734 61.6094C400.751 61.6094 398.318 59.3905 398.318 56.6696C398.318 53.981 400.751 51.7622 403.734 51.7622Z" fill="white" stroke="#5A5A5A" stroke-width="0.5"/>
<path d="M403.799 52.8955L404.723 52.8955L412.198 52.8955L412.198 60.4914L404.723 60.4914L403.799 60.4752C401.447 60.4752 399.534 58.7908 399.534 56.6853C399.55 54.5961 401.464 52.8955 403.799 52.8955Z" fill="white" stroke="#5A5A5A" stroke-width="0.5"/>
<path d="M421.732 63.3908L416.527 63.3908C415.927 63.3908 415.44 62.905 415.44 62.3057L415.44 51.1466C415.44 50.5474 415.927 50.0615 416.527 50.0615L421.732 50.0615C422.332 50.0615 422.818 50.5474 422.818 51.1466L422.818 62.2895C422.818 62.905 422.332 63.3908 421.732 63.3908Z" fill="white" stroke="#5A5A5A" stroke-width="0.5"/>
<path d="M419.138 57.3659C418.732 57.3659 418.424 57.0744 418.424 56.7342C418.408 56.3779 418.732 56.0864 419.138 56.0864C419.543 56.0864 419.851 56.3779 419.851 56.7181C419.835 57.0906 419.527 57.3821 419.138 57.3659Z" fill="white" stroke="#5A5A5A" stroke-width="0.5"/>
<path d="M421.365 95.8952L409.193 95.8952C408.347 95.8952 407.67 95.219 407.67 94.3737L407.67 76.0591C407.67 75.2138 408.347 74.5376 409.193 74.5376L421.365 74.5376C422.212 74.5376 422.889 75.2138 422.889 76.0591L422.889 94.3737C422.889 95.2049 422.212 95.8952 421.365 95.8952Z" fill="white" stroke="#5A5A5A" stroke-width="0.5"/>
<path d="M416.725 93.9932L414.849 93.9932C412.381 93.9932 410.378 91.9927 410.378 89.5273L410.378 80.9054C410.378 78.44 412.381 76.4395 414.849 76.4395L416.725 76.4395C419.194 76.4395 421.196 78.44 421.196 80.9054L421.196 89.5273C421.196 91.9927 419.194 93.9932 416.725 93.9932Z" fill="white" stroke="#5A5A5A" stroke-width="0.5"/>
<path d="M418.813 86.1607C418.276 86.1607 417.84 85.7381 417.84 85.2168C417.84 84.6955 418.276 84.2729 418.813 84.2729C419.35 84.2729 419.786 84.6955 419.786 85.2168C419.786 85.7381 419.35 86.1607 418.813 86.1607Z" fill="white" stroke="#5A5A5A" stroke-width="0.5"/>
<path d="M170.024 116.198L214.733 116.17L214.747 114.521L170.024 114.521L170.024 116.198Z" stroke="#5A5A5A" stroke-width="0.5" stroke-miterlimit="10"/>
<path d="M244.512 116.198L289.221 116.17L289.235 114.521L244.512 114.521L244.512 116.198Z" stroke="#5A5A5A" stroke-width="0.5" stroke-miterlimit="10"/>
<path d="M207.268 118.374L251.977 118.347L251.991 116.698L207.268 116.698L207.268 118.374Z" stroke="#5A5A5A" stroke-width="0.5" stroke-miterlimit="10"/>
<rect x="399.625" y="113.95" width="1.97164" height="5.91493" fill="#5A5A5A"/>
<rect x="399.626" y="124.794" width="1.97164" height="10.844" fill="#5A5A5A"/>
<rect x="399.626" y="141.553" width="1.97164" height="10.844" fill="#5A5A5A"/>
<rect x="399.626" y="158.312" width="1.97164" height="10.844" fill="#5A5A5A"/>
<rect x="399.626" y="175.071" width="1.97164" height="10.844" fill="#5A5A5A"/>
<rect x="399.626" y="191.83" width="1.97164" height="10.844" fill="#5A5A5A"/>
<rect x="399.626" y="211.546" width="1.97164" height="10.844" fill="#5A5A5A"/>
<rect x="399.626" y="229.599" width="1.97164" height="10.844" fill="#5A5A5A"/>
<rect x="399.626" y="247.011" width="1.97164" height="10.844" fill="#5A5A5A"/>
<rect x="399.626" y="264.424" width="1.97164" height="10.844" fill="#5A5A5A"/>
<rect x="399.406" y="281.87" width="2.1766" height="7.6181" fill="#5A5A5A"/>
</svg>
