<svg width="346" height="757" viewBox="0 0 346 757" fill="none" xmlns="http://www.w3.org/2000/svg">
<path d="M197 665L197 92L335 92L335 665H197Z" fill="#FFF8BA"/>
<path d="M103 394L103 92L241 92L241 394L103 394Z" fill="#FFF8BA"/>
<path d="M16 309L16 92L241 92L241 309L16 309Z" fill="#FFF8BA"/>
<path d="M252 295L330 295L330 474L252 474L252 295Z" fill="#FFC79F"/>
<rect x="314" y="695" width="30" height="29" transform="rotate(-90 314 695)" fill="#5A5A5A"/>
<path d="M241.35 575.42V573.6L243.17 572.2H244.64V582H243.03V574.16L241.35 575.42ZM246.181 579.27H247.861C247.936 579.559 248.062 579.807 248.239 580.012C248.65 580.497 249.247 580.74 250.031 580.74C250.656 580.74 251.151 580.572 251.515 580.236C251.879 579.9 252.061 579.461 252.061 578.92C252.061 578.351 251.879 577.893 251.515 577.548C251.151 577.203 250.656 577.03 250.031 577.03C249.452 577.03 248.962 577.184 248.561 577.492C248.402 577.613 248.262 577.763 248.141 577.94H246.601L247.021 572.2H252.971V573.74H248.351L248.141 576.26H248.211C248.36 576.111 248.533 575.985 248.729 575.882C249.168 575.621 249.695 575.49 250.311 575.49C251.291 575.49 252.108 575.817 252.761 576.47C253.414 577.123 253.741 577.94 253.741 578.92C253.741 579.881 253.396 580.684 252.705 581.328C252.024 581.963 251.132 582.28 250.031 582.28C248.594 582.28 247.525 581.781 246.825 580.782C246.526 580.343 246.312 579.839 246.181 579.27ZM254.794 581.23C254.794 580.95 254.883 580.717 255.06 580.53C255.247 580.343 255.476 580.25 255.746 580.25C256.054 580.25 256.297 580.362 256.474 580.586C256.661 580.81 256.754 581.141 256.754 581.58C256.754 582.299 256.582 582.849 256.236 583.232C255.9 583.624 255.443 583.82 254.864 583.82V583.12C255.144 583.12 255.364 583.041 255.522 582.882C255.69 582.733 255.774 582.532 255.774 582.28V582.196C255.765 582.187 255.76 582.168 255.76 582.14V582.098L255.676 582.126C255.648 582.135 255.588 582.14 255.494 582.14C255.308 582.14 255.144 582.056 255.004 581.888C254.864 581.72 254.794 581.501 254.794 581.23ZM259.271 580.824C258.384 579.853 257.941 578.612 257.941 577.1C257.941 575.588 258.384 574.347 259.271 573.376C260.157 572.405 261.231 571.92 262.491 571.92C263.751 571.92 264.824 572.405 265.711 573.376C266.597 574.347 267.041 575.588 267.041 577.1C267.041 578.612 266.597 579.853 265.711 580.824C264.824 581.795 263.751 582.28 262.491 582.28C261.231 582.28 260.157 581.795 259.271 580.824ZM260.419 574.412C259.887 575.047 259.621 575.943 259.621 577.1C259.621 578.257 259.887 579.153 260.419 579.788C260.96 580.423 261.651 580.74 262.491 580.74C263.331 580.74 264.017 580.423 264.549 579.788C265.09 579.153 265.361 578.257 265.361 577.1C265.361 575.943 265.09 575.047 264.549 574.412C264.017 573.777 263.331 573.46 262.491 573.46C261.651 573.46 260.96 573.777 260.419 574.412ZM268.164 578.78C268.164 578.332 268.262 577.865 268.458 577.38C268.663 576.885 268.859 576.498 269.046 576.218C269.242 575.929 269.508 575.569 269.844 575.14L272.084 572.2H273.974L271.86 574.958L271.244 575.49V575.56L271.524 575.462C271.804 575.387 272.107 575.35 272.434 575.35C273.348 575.35 274.123 575.681 274.758 576.344C275.402 576.997 275.724 577.809 275.724 578.78C275.724 579.769 275.369 580.6 274.66 581.272C273.95 581.944 273.045 582.28 271.944 582.28C270.842 582.28 269.937 581.944 269.228 581.272C268.518 580.6 268.164 579.769 268.164 578.78ZM270.418 577.324C270.035 577.697 269.844 578.183 269.844 578.78C269.844 579.377 270.035 579.867 270.418 580.25C270.8 580.623 271.309 580.81 271.944 580.81C272.578 580.81 273.087 580.623 273.47 580.25C273.852 579.867 274.044 579.377 274.044 578.78C274.044 578.183 273.852 577.697 273.47 577.324C273.087 576.941 272.578 576.75 271.944 576.75C271.309 576.75 270.8 576.941 270.418 577.324Z" fill="#333333"/>
<path d="M258.42 726.2H260.1C260.165 726.489 260.291 726.746 260.478 726.97C260.898 727.483 261.495 727.74 262.27 727.74C262.914 727.74 263.423 727.581 263.796 727.264C264.179 726.937 264.37 726.536 264.37 726.06C264.37 725.519 264.197 725.094 263.852 724.786C263.516 724.469 263.035 724.31 262.41 724.31H260.03V722.91L262.97 720.81V720.74H258.91V719.2H265.35V720.726L262.83 722.56L262.13 722.84V722.91L262.354 722.882C262.662 722.854 262.844 722.84 262.9 722.84C263.777 722.84 264.51 723.143 265.098 723.75C265.686 724.357 265.98 725.127 265.98 726.06C265.98 726.956 265.635 727.717 264.944 728.342C264.253 728.967 263.362 729.28 262.27 729.28C260.823 729.28 259.755 728.767 259.064 727.74C258.765 727.301 258.551 726.788 258.42 726.2ZM267.037 728.23C267.037 727.95 267.125 727.717 267.303 727.53C267.489 727.343 267.718 727.25 267.989 727.25C268.297 727.25 268.539 727.362 268.717 727.586C268.903 727.81 268.997 728.141 268.997 728.58C268.997 729.299 268.824 729.849 268.479 730.232C268.143 730.624 267.685 730.82 267.107 730.82V730.12C267.387 730.12 267.606 730.041 267.765 729.882C267.933 729.733 268.017 729.532 268.017 729.28V729.196C268.007 729.187 268.003 729.168 268.003 729.14V729.098L267.919 729.126C267.891 729.135 267.83 729.14 267.737 729.14C267.55 729.14 267.387 729.056 267.247 728.888C267.107 728.72 267.037 728.501 267.037 728.23ZM270.043 725.78C270.043 725.332 270.141 724.865 270.337 724.38C270.542 723.885 270.738 723.498 270.925 723.218C271.121 722.929 271.387 722.569 271.723 722.14L273.963 719.2H275.853L273.739 721.958L273.123 722.49V722.56L273.403 722.462C273.683 722.387 273.986 722.35 274.313 722.35C275.227 722.35 276.002 722.681 276.637 723.344C277.281 723.997 277.603 724.809 277.603 725.78C277.603 726.769 277.248 727.6 276.539 728.272C275.829 728.944 274.924 729.28 273.823 729.28C272.721 729.28 271.816 728.944 271.107 728.272C270.397 727.6 270.043 726.769 270.043 725.78ZM272.297 724.324C271.914 724.697 271.723 725.183 271.723 725.78C271.723 726.377 271.914 726.867 272.297 727.25C272.679 727.623 273.188 727.81 273.823 727.81C274.457 727.81 274.966 727.623 275.349 727.25C275.731 726.867 275.923 726.377 275.923 725.78C275.923 725.183 275.731 724.697 275.349 724.324C274.966 723.941 274.457 723.75 273.823 723.75C273.188 723.75 272.679 723.941 272.297 724.324ZM278.656 725.78C278.656 725.332 278.754 724.865 278.95 724.38C279.155 723.885 279.351 723.498 279.538 723.218C279.734 722.929 280 722.569 280.336 722.14L282.576 719.2H284.466L282.352 721.958L281.736 722.49V722.56L282.016 722.462C282.296 722.387 282.599 722.35 282.926 722.35C283.841 722.35 284.615 722.681 285.25 723.344C285.894 723.997 286.216 724.809 286.216 725.78C286.216 726.769 285.861 727.6 285.152 728.272C284.443 728.944 283.537 729.28 282.436 729.28C281.335 729.28 280.429 728.944 279.72 728.272C279.011 727.6 278.656 726.769 278.656 725.78ZM280.91 724.324C280.527 724.697 280.336 725.183 280.336 725.78C280.336 726.377 280.527 726.867 280.91 727.25C281.293 727.623 281.801 727.81 282.436 727.81C283.071 727.81 283.579 727.623 283.962 727.25C284.345 726.867 284.536 726.377 284.536 725.78C284.536 725.183 284.345 724.697 283.962 724.324C283.579 723.941 283.071 723.75 282.436 723.75C281.801 723.75 281.293 723.941 280.91 724.324Z" fill="#333333"/>
<path d="M134.35 352.42V350.6L136.17 349.2H137.64V359H136.03V351.16L134.35 352.42ZM138.971 352.42V350.6L140.791 349.2H142.261V359H140.651V351.16L138.971 352.42ZM143.802 358.23C143.802 357.95 143.891 357.717 144.068 357.53C144.255 357.343 144.484 357.25 144.754 357.25C145.062 357.25 145.305 357.362 145.482 357.586C145.669 357.81 145.762 358.141 145.762 358.58C145.762 359.299 145.59 359.849 145.244 360.232C144.908 360.624 144.451 360.82 143.872 360.82V360.12C144.152 360.12 144.372 360.041 144.53 359.882C144.698 359.733 144.782 359.532 144.782 359.28V359.196C144.773 359.187 144.768 359.168 144.768 359.14V359.098L144.684 359.126C144.656 359.135 144.596 359.14 144.502 359.14C144.316 359.14 144.152 359.056 144.012 358.888C143.872 358.72 143.802 358.501 143.802 358.23ZM146.878 356.27H148.558C148.633 356.559 148.759 356.807 148.936 357.012C149.347 357.497 149.944 357.74 150.728 357.74C151.354 357.74 151.848 357.572 152.212 357.236C152.576 356.9 152.758 356.461 152.758 355.92C152.758 355.351 152.576 354.893 152.212 354.548C151.848 354.203 151.354 354.03 150.728 354.03C150.15 354.03 149.66 354.184 149.258 354.492C149.1 354.613 148.96 354.763 148.838 354.94H147.298L147.718 349.2H153.668V350.74H149.048L148.838 353.26H148.908C149.058 353.111 149.23 352.985 149.426 352.882C149.865 352.621 150.392 352.49 151.008 352.49C151.988 352.49 152.805 352.817 153.458 353.47C154.112 354.123 154.438 354.94 154.438 355.92C154.438 356.881 154.093 357.684 153.402 358.328C152.721 358.963 151.83 359.28 150.728 359.28C149.291 359.28 148.222 358.781 147.522 357.782C147.224 357.343 147.009 356.839 146.878 356.27ZM155.352 356.2H157.032C157.097 356.489 157.223 356.746 157.41 356.97C157.83 357.483 158.427 357.74 159.202 357.74C159.846 357.74 160.354 357.581 160.728 357.264C161.11 356.937 161.302 356.536 161.302 356.06C161.302 355.519 161.129 355.094 160.784 354.786C160.448 354.469 159.967 354.31 159.342 354.31H156.962V352.91L159.902 350.81V350.74H155.842V349.2H162.282V350.726L159.762 352.56L159.062 352.84V352.91L159.286 352.882C159.594 352.854 159.776 352.84 159.832 352.84C160.709 352.84 161.442 353.143 162.03 353.75C162.618 354.357 162.912 355.127 162.912 356.06C162.912 356.956 162.566 357.717 161.876 358.342C161.185 358.967 160.294 359.28 159.202 359.28C157.755 359.28 156.686 358.767 155.996 357.74C155.697 357.301 155.482 356.788 155.352 356.2Z" fill="#333333"/>
<path d="M268.56 412.27H270.24C270.315 412.559 270.441 412.807 270.618 413.012C271.029 413.497 271.626 413.74 272.41 413.74C273.035 413.74 273.53 413.572 273.894 413.236C274.258 412.9 274.44 412.461 274.44 411.92C274.44 411.351 274.258 410.893 273.894 410.548C273.53 410.203 273.035 410.03 272.41 410.03C271.831 410.03 271.341 410.184 270.94 410.492C270.781 410.613 270.641 410.763 270.52 410.94H268.98L269.4 405.2H275.35V406.74H270.73L270.52 409.26H270.59C270.739 409.111 270.912 408.985 271.108 408.882C271.547 408.621 272.074 408.49 272.69 408.49C273.67 408.49 274.487 408.817 275.14 409.47C275.793 410.123 276.12 410.94 276.12 411.92C276.12 412.881 275.775 413.684 275.084 414.328C274.403 414.963 273.511 415.28 272.41 415.28C270.973 415.28 269.904 414.781 269.204 413.782C268.905 413.343 268.691 412.839 268.56 412.27ZM277.173 414.23C277.173 413.95 277.262 413.717 277.439 413.53C277.626 413.343 277.855 413.25 278.125 413.25C278.433 413.25 278.676 413.362 278.853 413.586C279.04 413.81 279.133 414.141 279.133 414.58C279.133 415.299 278.961 415.849 278.615 416.232C278.279 416.624 277.822 416.82 277.243 416.82V416.12C277.523 416.12 277.743 416.041 277.901 415.882C278.069 415.733 278.153 415.532 278.153 415.28V415.196C278.144 415.187 278.139 415.168 278.139 415.14V415.098L278.055 415.126C278.027 415.135 277.967 415.14 277.873 415.14C277.687 415.14 277.523 415.056 277.383 414.888C277.243 414.72 277.173 414.501 277.173 414.23ZM281.649 413.824C280.763 412.853 280.319 411.612 280.319 410.1C280.319 408.588 280.763 407.347 281.649 406.376C282.536 405.405 283.609 404.92 284.869 404.92C286.129 404.92 287.203 405.405 288.089 406.376C288.976 407.347 289.419 408.588 289.419 410.1C289.419 411.612 288.976 412.853 288.089 413.824C287.203 414.795 286.129 415.28 284.869 415.28C283.609 415.28 282.536 414.795 281.649 413.824ZM282.797 407.412C282.265 408.047 281.999 408.943 281.999 410.1C281.999 411.257 282.265 412.153 282.797 412.788C283.339 413.423 284.029 413.74 284.869 413.74C285.709 413.74 286.395 413.423 286.927 412.788C287.469 412.153 287.739 411.257 287.739 410.1C287.739 408.943 287.469 408.047 286.927 407.412C286.395 406.777 285.709 406.46 284.869 406.46C284.029 406.46 283.339 406.777 282.797 407.412ZM290.473 412.2H292.153C292.218 412.489 292.344 412.746 292.531 412.97C292.951 413.483 293.548 413.74 294.323 413.74C294.967 413.74 295.475 413.581 295.849 413.264C296.231 412.937 296.423 412.536 296.423 412.06C296.423 411.519 296.25 411.094 295.905 410.786C295.569 410.469 295.088 410.31 294.463 410.31H292.083V408.91L295.023 406.81V406.74H290.963V405.2H297.403V406.726L294.883 408.56L294.183 408.84V408.91L294.407 408.882C294.715 408.854 294.897 408.84 294.953 408.84C295.83 408.84 296.563 409.143 297.151 409.75C297.739 410.357 298.033 411.127 298.033 412.06C298.033 412.956 297.687 413.717 296.997 414.342C296.306 414.967 295.415 415.28 294.323 415.28C292.876 415.28 291.807 414.767 291.117 413.74C290.818 413.301 290.603 412.788 290.473 412.2Z" fill="#333333"/>
<path d="M268.42 335.2H270.1C270.165 335.489 270.291 335.746 270.478 335.97C270.898 336.483 271.495 336.74 272.27 336.74C272.914 336.74 273.423 336.581 273.796 336.264C274.179 335.937 274.37 335.536 274.37 335.06C274.37 334.519 274.197 334.094 273.852 333.786C273.516 333.469 273.035 333.31 272.41 333.31H270.03V331.91L272.97 329.81V329.74H268.91V328.2H275.35V329.726L272.83 331.56L272.13 331.84V331.91L272.354 331.882C272.662 331.854 272.844 331.84 272.9 331.84C273.777 331.84 274.51 332.143 275.098 332.75C275.686 333.357 275.98 334.127 275.98 335.06C275.98 335.956 275.635 336.717 274.944 337.342C274.253 337.967 273.362 338.28 272.27 338.28C270.823 338.28 269.755 337.767 269.064 336.74C268.765 336.301 268.551 335.788 268.42 335.2ZM277.037 337.23C277.037 336.95 277.125 336.717 277.303 336.53C277.489 336.343 277.718 336.25 277.989 336.25C278.297 336.25 278.539 336.362 278.717 336.586C278.903 336.81 278.997 337.141 278.997 337.58C278.997 338.299 278.824 338.849 278.479 339.232C278.143 339.624 277.685 339.82 277.107 339.82V339.12C277.387 339.12 277.606 339.041 277.765 338.882C277.933 338.733 278.017 338.532 278.017 338.28V338.196C278.007 338.187 278.003 338.168 278.003 338.14V338.098L277.919 338.126C277.891 338.135 277.83 338.14 277.737 338.14C277.55 338.14 277.387 338.056 277.247 337.888C277.107 337.72 277.037 337.501 277.037 337.23ZM279.973 335.2H281.653C281.718 335.489 281.844 335.746 282.031 335.97C282.451 336.483 283.048 336.74 283.823 336.74C284.467 336.74 284.975 336.581 285.349 336.264C285.731 335.937 285.923 335.536 285.923 335.06C285.923 334.519 285.75 334.094 285.405 333.786C285.069 333.469 284.588 333.31 283.963 333.31H281.583V331.91L284.523 329.81V329.74H280.463V328.2H286.903V329.726L284.383 331.56L283.683 331.84V331.91L283.907 331.882C284.215 331.854 284.397 331.84 284.453 331.84C285.33 331.84 286.063 332.143 286.651 332.75C287.239 333.357 287.533 334.127 287.533 335.06C287.533 335.956 287.187 336.717 286.497 337.342C285.806 337.967 284.915 338.28 283.823 338.28C282.376 338.28 281.307 337.767 280.617 336.74C280.318 336.301 280.103 335.788 279.973 335.2ZM288.239 336.04V334.5L291.529 328.2H293.279L289.989 334.5H293.209V332.12H293.279H294.819V334.5H296.219V336.04H294.819V338H293.209V336.04H288.239Z" fill="#333333"/>
<path d="M215.42 243.2H217.1C217.165 243.489 217.291 243.746 217.478 243.97C217.898 244.483 218.495 244.74 219.27 244.74C219.914 244.74 220.423 244.581 220.796 244.264C221.179 243.937 221.37 243.536 221.37 243.06C221.37 242.519 221.197 242.094 220.852 241.786C220.516 241.469 220.035 241.31 219.41 241.31H217.03V239.91L219.97 237.81V237.74H215.91V236.2H222.35V237.726L219.83 239.56L219.13 239.84V239.91L219.354 239.882C219.662 239.854 219.844 239.84 219.9 239.84C220.777 239.84 221.51 240.143 222.098 240.75C222.686 241.357 222.98 242.127 222.98 243.06C222.98 243.956 222.635 244.717 221.944 245.342C221.253 245.967 220.362 246.28 219.27 246.28C217.823 246.28 216.755 245.767 216.064 244.74C215.765 244.301 215.551 243.788 215.42 243.2ZM223.687 244.04V242.5L226.977 236.2H228.727L225.437 242.5H228.657V240.12H228.727H230.267V242.5H231.667V244.04H230.267V246H228.657V244.04H223.687ZM232.226 245.23C232.226 244.95 232.315 244.717 232.492 244.53C232.679 244.343 232.907 244.25 233.178 244.25C233.486 244.25 233.729 244.362 233.906 244.586C234.093 244.81 234.186 245.141 234.186 245.58C234.186 246.299 234.013 246.849 233.668 247.232C233.332 247.624 232.875 247.82 232.296 247.82V247.12C232.576 247.12 232.795 247.041 232.954 246.882C233.122 246.733 233.206 246.532 233.206 246.28V246.196C233.197 246.187 233.192 246.168 233.192 246.14V246.098L233.108 246.126C233.08 246.135 233.019 246.14 232.926 246.14C232.739 246.14 232.576 246.056 232.436 245.888C232.296 245.72 232.226 245.501 232.226 245.23ZM236.702 244.824C235.816 243.853 235.372 242.612 235.372 241.1C235.372 239.588 235.816 238.347 236.702 237.376C237.589 236.405 238.662 235.92 239.922 235.92C241.182 235.92 242.256 236.405 243.142 237.376C244.029 238.347 244.472 239.588 244.472 241.1C244.472 242.612 244.029 243.853 243.142 244.824C242.256 245.795 241.182 246.28 239.922 246.28C238.662 246.28 237.589 245.795 236.702 244.824ZM237.85 238.412C237.318 239.047 237.052 239.943 237.052 241.1C237.052 242.257 237.318 243.153 237.85 243.788C238.392 244.423 239.082 244.74 239.922 244.74C240.762 244.74 241.448 244.423 241.98 243.788C242.522 243.153 242.792 242.257 242.792 241.1C242.792 239.943 242.522 239.047 241.98 238.412C241.448 237.777 240.762 237.46 239.922 237.46C239.082 237.46 238.392 237.777 237.85 238.412ZM245.245 237.74V236.2H251.895V237.74L247.975 246H246.225L250.075 237.88V237.74H245.245Z" fill="#333333"/>
<path d="M222.21 42.04V40.5L225.5 34.2H227.25L223.96 40.5H227.18V38.12H227.25H228.79V40.5H230.19V42.04H228.79V44H227.18V42.04H222.21ZM230.749 43.23C230.749 42.95 230.838 42.7167 231.015 42.53C231.202 42.3433 231.431 42.25 231.701 42.25C232.009 42.25 232.252 42.362 232.429 42.586C232.616 42.81 232.709 43.1413 232.709 43.58C232.709 44.2987 232.537 44.8493 232.191 45.232C231.855 45.624 231.398 45.82 230.819 45.82V45.12C231.099 45.12 231.319 45.0407 231.477 44.882C231.645 44.7327 231.729 44.532 231.729 44.28V44.196C231.72 44.1867 231.715 44.168 231.715 44.14V44.098L231.631 44.126C231.603 44.1353 231.543 44.14 231.449 44.14C231.263 44.14 231.099 44.056 230.959 43.888C230.819 43.72 230.749 43.5007 230.749 43.23ZM233.406 35.74V34.2H240.056V35.74L236.136 44H234.386L238.236 35.88V35.74H233.406ZM240.551 40.78C240.551 40.332 240.649 39.8653 240.845 39.38C241.05 38.8853 241.246 38.498 241.433 38.218C241.629 37.9287 241.895 37.5693 242.231 37.14L244.471 34.2H246.361L244.247 36.958L243.631 37.49V37.56L243.911 37.462C244.191 37.3873 244.494 37.35 244.821 37.35C245.735 37.35 246.51 37.6813 247.145 38.344C247.789 38.9973 248.111 39.8093 248.111 40.78C248.111 41.7693 247.756 42.6 247.047 43.272C246.337 43.944 245.432 44.28 244.331 44.28C243.229 44.28 242.324 43.944 241.615 43.272C240.905 42.6 240.551 41.7693 240.551 40.78ZM242.805 39.324C242.422 39.6973 242.231 40.1827 242.231 40.78C242.231 41.3773 242.422 41.8673 242.805 42.25C243.187 42.6233 243.696 42.81 244.331 42.81C244.965 42.81 245.474 42.6233 245.857 42.25C246.239 41.8673 246.431 41.3773 246.431 40.78C246.431 40.1827 246.239 39.6973 245.857 39.324C245.474 38.9413 244.965 38.75 244.331 38.75C243.696 38.75 243.187 38.9413 242.805 39.324Z" fill="#333333"/>
<path d="M37.56 217.27H39.24C39.3147 217.559 39.4407 217.807 39.618 218.012C40.0287 218.497 40.626 218.74 41.41 218.74C42.0353 218.74 42.53 218.572 42.894 218.236C43.258 217.9 43.44 217.461 43.44 216.92C43.44 216.351 43.258 215.893 42.894 215.548C42.53 215.203 42.0353 215.03 41.41 215.03C40.8313 215.03 40.3413 215.184 39.94 215.492C39.7813 215.613 39.6413 215.763 39.52 215.94H37.98L38.4 210.2H44.35V211.74H39.73L39.52 214.26H39.59C39.7393 214.111 39.912 213.985 40.108 213.882C40.5467 213.621 41.074 213.49 41.69 213.49C42.67 213.49 43.4867 213.817 44.14 214.47C44.7933 215.123 45.12 215.94 45.12 216.92C45.12 217.881 44.7747 218.684 44.084 219.328C43.4027 219.963 42.5113 220.28 41.41 220.28C39.9727 220.28 38.904 219.781 38.204 218.782C37.9053 218.343 37.6907 217.839 37.56 217.27ZM46.1733 219.23C46.1733 218.95 46.2619 218.717 46.4393 218.53C46.6259 218.343 46.8546 218.25 47.1253 218.25C47.4333 218.25 47.6759 218.362 47.8533 218.586C48.0399 218.81 48.1333 219.141 48.1333 219.58C48.1333 220.299 47.9606 220.849 47.6153 221.232C47.2793 221.624 46.8219 221.82 46.2433 221.82V221.12C46.5233 221.12 46.7426 221.041 46.9013 220.882C47.0693 220.733 47.1533 220.532 47.1533 220.28V220.196C47.1439 220.187 47.1393 220.168 47.1393 220.14V220.098L47.0553 220.126C47.0273 220.135 46.9666 220.14 46.8733 220.14C46.6866 220.14 46.5233 220.056 46.3833 219.888C46.2433 219.72 46.1733 219.501 46.1733 219.23ZM49.1095 217.2H50.7895C50.8548 217.489 50.9808 217.746 51.1675 217.97C51.5875 218.483 52.1848 218.74 52.9595 218.74C53.6035 218.74 54.1121 218.581 54.4855 218.264C54.8681 217.937 55.0595 217.536 55.0595 217.06C55.0595 216.519 54.8868 216.094 54.5415 215.786C54.2055 215.469 53.7248 215.31 53.0995 215.31H50.7195V213.91L53.6595 211.81V211.74H49.5995V210.2H56.0395V211.726L53.5195 213.56L52.8195 213.84V213.91L53.0435 213.882C53.3515 213.854 53.5335 213.84 53.5895 213.84C54.4668 213.84 55.1995 214.143 55.7875 214.75C56.3755 215.357 56.6695 216.127 56.6695 217.06C56.6695 217.956 56.3241 218.717 55.6335 219.342C54.9428 219.967 54.0515 220.28 52.9595 220.28C51.5128 220.28 50.4441 219.767 49.7535 218.74C49.4548 218.301 49.2401 217.788 49.1095 217.2ZM57.726 217.27H59.406C59.4807 217.559 59.6067 217.807 59.784 218.012C60.1947 218.497 60.792 218.74 61.576 218.74C62.2013 218.74 62.696 218.572 63.06 218.236C63.424 217.9 63.606 217.461 63.606 216.92C63.606 216.351 63.424 215.893 63.06 215.548C62.696 215.203 62.2013 215.03 61.576 215.03C60.9973 215.03 60.5073 215.184 60.106 215.492C59.9473 215.613 59.8073 215.763 59.686 215.94H58.146L58.566 210.2H64.516V211.74H59.896L59.686 214.26H59.756C59.9053 214.111 60.078 213.985 60.274 213.882C60.7127 213.621 61.24 213.49 61.856 213.49C62.836 213.49 63.6527 213.817 64.306 214.47C64.9593 215.123 65.286 215.94 65.286 216.92C65.286 217.881 64.9407 218.684 64.25 219.328C63.5687 219.963 62.6773 220.28 61.576 220.28C60.1387 220.28 59.07 219.781 58.37 218.782C58.0713 218.343 57.8567 217.839 57.726 217.27Z" fill="#333333"/>
<path d="M135.65 429.42V427.6L133.83 426.2H132.36V436H133.97V428.16L135.65 429.42ZM131.239 427.74V426.2H124.589V427.74L128.509 436H130.259L126.409 427.88V427.74H131.239ZM125.145 435.23C125.145 434.95 125.056 434.717 124.879 434.53C124.692 434.343 124.464 434.25 124.193 434.25C123.885 434.25 123.642 434.362 123.465 434.586C123.278 434.81 123.185 435.141 123.185 435.58C123.185 436.299 123.358 436.849 123.703 437.232C124.039 437.624 124.496 437.82 125.075 437.82V437.12C124.795 437.12 124.576 437.041 124.417 436.882C124.249 436.733 124.165 436.532 124.165 436.28V436.196C124.174 436.187 124.179 436.168 124.179 436.14V436.098L124.263 436.126C124.291 436.135 124.352 436.14 124.445 436.14C124.632 436.14 124.795 436.056 124.935 435.888C125.075 435.72 125.145 435.501 125.145 435.23ZM122.069 433.34C122.069 432.491 121.742 431.814 121.089 431.31C120.809 431.114 120.482 430.965 120.109 430.862V430.778C120.398 430.666 120.655 430.512 120.879 430.316C121.392 429.877 121.649 429.299 121.649 428.58C121.649 427.843 121.336 427.217 120.711 426.704C120.076 426.181 119.222 425.92 118.149 425.92C117.076 425.92 116.226 426.181 115.601 426.704C114.966 427.217 114.649 427.843 114.649 428.58C114.649 429.28 114.906 429.859 115.419 430.316C115.662 430.512 115.918 430.666 116.189 430.778V430.862C115.834 430.955 115.508 431.109 115.209 431.324C114.556 431.828 114.229 432.5 114.229 433.34C114.229 434.152 114.584 434.847 115.293 435.426C115.993 435.995 116.945 436.28 118.149 436.28C119.353 436.28 120.31 435.995 121.019 435.426C121.719 434.847 122.069 434.152 122.069 433.34ZM119.969 428.72C119.969 429.131 119.81 429.467 119.493 429.728C119.176 429.989 118.728 430.12 118.149 430.12C117.57 430.12 117.122 429.989 116.805 429.728C116.488 429.467 116.329 429.131 116.329 428.72C116.329 428.347 116.492 428.034 116.819 427.782C117.136 427.521 117.58 427.39 118.149 427.39C118.718 427.39 119.166 427.521 119.493 427.782C119.81 428.034 119.969 428.347 119.969 428.72ZM119.801 432.066C120.193 432.374 120.389 432.752 120.389 433.2C120.389 433.648 120.193 434.031 119.801 434.348C119.4 434.656 118.849 434.81 118.149 434.81C117.449 434.81 116.903 434.656 116.511 434.348C116.11 434.031 115.909 433.648 115.909 433.2C115.909 432.752 116.11 432.374 116.511 432.066C116.903 431.749 117.449 431.59 118.149 431.59C118.849 431.59 119.4 431.749 119.801 432.066ZM113.254 433.2H111.574C111.508 433.489 111.382 433.746 111.196 433.97C110.776 434.483 110.178 434.74 109.404 434.74C108.76 434.74 108.251 434.581 107.878 434.264C107.495 433.937 107.304 433.536 107.304 433.06C107.304 432.519 107.476 432.094 107.822 431.786C108.158 431.469 108.638 431.31 109.264 431.31H111.644V429.91L108.704 427.81V427.74H112.764V426.2H106.324V427.726L108.844 429.56L109.544 429.84V429.91L109.32 429.882C109.012 429.854 108.83 429.84 108.774 429.84C107.896 429.84 107.164 430.143 106.576 430.75C105.988 431.357 105.694 432.127 105.694 433.06C105.694 433.956 106.039 434.717 106.73 435.342C107.42 435.967 108.312 436.28 109.404 436.28C110.85 436.28 111.919 435.767 112.61 434.74C112.908 434.301 113.123 433.788 113.254 433.2Z" fill="#333333"/>
<rect x="275" y="92" width="30" height="71" transform="rotate(-90 275 92)" fill="#5A5A5A"/>
<rect x="343" y="676" width="16" height="592" transform="rotate(-180 343 676)" fill="#5A5A5A"/>
<rect x="234" y="489" width="16" height="96" transform="rotate(-90 234 489)" fill="#5A5A5A"/>
<path d="M307.518 383.307L308.698 383.324L311.764 383.307L319.356 383.307L319.356 393.264L307.518 393.264C304.501 393.264 302.042 391.021 302.042 388.269C302.042 385.551 304.501 383.307 307.518 383.307Z" fill="white" stroke="#5A5A5A" stroke-width="0.5"/>
<path d="M307.584 384.453L308.518 384.453L316.077 384.453L316.077 392.134L308.518 392.134L307.584 392.118C305.206 392.118 303.271 390.414 303.271 388.285C303.288 386.173 305.223 384.453 307.584 384.453Z" fill="white" stroke="#5A5A5A" stroke-width="0.5"/>
<path d="M325.717 395.066L320.454 395.066C319.848 395.066 319.356 394.574 319.356 393.969L319.356 382.685C319.356 382.079 319.848 381.587 320.454 381.587L325.717 381.587C326.324 381.587 326.816 382.079 326.816 382.685L326.816 393.952C326.816 394.574 326.324 395.066 325.717 395.066Z" fill="white" stroke="#5A5A5A" stroke-width="0.5"/>
<path d="M323.094 388.973C322.684 388.973 322.373 388.679 322.373 388.335C322.356 387.974 322.684 387.68 323.094 387.68C323.504 387.68 323.815 387.974 323.815 388.318C323.799 388.695 323.487 388.99 323.094 388.973Z" fill="white" stroke="#5A5A5A" stroke-width="0.5"/>
<path d="M325.347 433.732L313.039 433.732C312.183 433.732 311.498 433.048 311.498 432.194L311.498 413.674C311.498 412.82 312.183 412.136 313.039 412.136L325.347 412.136C326.202 412.136 326.887 412.82 326.887 413.674L326.887 432.194C326.887 433.034 326.202 433.732 325.347 433.732Z" fill="white" stroke="#5A5A5A" stroke-width="0.5"/>
<path d="M320.655 431.809L318.758 431.809C316.262 431.809 314.237 429.786 314.237 427.293L314.237 418.575C314.237 416.082 316.262 414.059 318.758 414.059L320.655 414.059C323.15 414.059 325.176 416.082 325.176 418.575L325.176 427.293C325.176 429.786 323.15 431.809 320.655 431.809Z" fill="white" stroke="#5A5A5A" stroke-width="0.5"/>
<path d="M322.765 423.889C322.222 423.889 321.781 423.461 321.781 422.934C321.781 422.407 322.222 421.98 322.765 421.98C323.309 421.98 323.749 422.407 323.749 422.934C323.749 423.461 323.309 423.889 322.765 423.889Z" fill="white" stroke="#5A5A5A" stroke-width="0.5"/>
<path d="M325.393 443.449L258.541 443.449C257.685 443.449 257 444.133 257 444.988L257 471.527C257 472.382 257.685 473.066 258.541 473.066L325.393 473.066C326.249 473.066 326.934 472.382 326.934 471.527L326.934 444.988C326.934 444.133 326.233 443.449 325.393 443.449Z" fill="white" stroke="#5A5A5A" stroke-width="0.5"/>
<path d="M261.11 454.659L261.11 461.873C261.11 466.055 264.503 469.429 268.674 469.429L321.315 469.429C322.343 469.429 323.167 468.605 323.167 467.579L323.167 448.922C323.167 447.896 322.343 447.072 321.315 447.072L268.69 447.072C264.503 447.087 261.11 450.477 261.11 454.659Z" fill="white" stroke="#5A5A5A" stroke-width="0.5"/>
<path d="M316.926 457.737C316.926 456.904 317.629 456.229 318.498 456.229C319.366 456.229 320.07 456.904 320.07 457.737C320.07 458.569 319.366 459.245 318.498 459.245C317.629 459.245 316.926 458.569 316.926 457.737Z" fill="white" stroke="#5A5A5A" stroke-width="0.5"/>
<path d="M252 394.024L252 372.014L273.587 372L273.573 394.01L252 394.024Z" fill="white" stroke="#5A5A5A" stroke-width="0.5"/>
<path d="M268.33 383.005C268.33 379.891 265.856 377.377 262.794 377.377C259.732 377.377 257.257 379.891 257.257 383.019C257.257 386.133 259.732 388.675 262.794 388.675C265.856 388.661 268.33 386.119 268.33 383.005Z" stroke="#5A5A5A" stroke-width="0.5"/>
<path d="M262.794 387.125C263.912 387.139 264.919 386.678 265.646 385.924C266.373 385.17 266.82 384.136 266.834 383.019M262.808 378.885C263.912 378.885 264.919 379.346 265.66 380.086C266.387 380.84 266.848 381.86 266.848 383.005L262.808 378.885ZM262.794 387.125C261.689 387.125 260.683 386.664 259.942 385.924C259.214 385.17 258.767 384.136 258.767 383.005L262.794 387.125ZM262.808 378.885C261.675 378.885 260.669 379.346 259.955 380.086L259.942 380.1C259.228 380.84 258.767 381.86 258.767 382.991L262.808 378.885Z" stroke="#5A5A5A" stroke-width="0.5"/>
<rect x="244" y="437" width="8" height="52" fill="#5A5A5A"/>
<rect x="334" y="364" width="8" height="90" transform="rotate(90 334 364)" fill="#5A5A5A"/>
<rect x="252" y="410" width="8" height="65" transform="rotate(-180 252 410)" fill="#5A5A5A"/>
<rect x="251.99" y="313.845" width="8" height="20.8424" transform="rotate(-179.96 251.99 313.845)" fill="#5A5A5A"/>
<rect x="87" y="410" width="16" height="107" transform="rotate(-90 87 410)" fill="#5A5A5A"/>
<rect x="181" y="394" width="16" height="301" fill="#5A5A5A"/>
<rect x="239" y="296" width="16" height="91" transform="rotate(-90 239 296)" fill="#5A5A5A"/>
<rect y="325" width="16" height="103" transform="rotate(-90 0 325)" fill="#5A5A5A"/>
<rect x="87" y="280" width="16" height="51" fill="#5A5A5A"/>
<rect x="138" y="280" width="16" height="51" transform="rotate(90 138 280)" fill="#5A5A5A"/>
<rect x="87" y="364" width="16" height="46" fill="#5A5A5A"/>
<circle cx="245.5" cy="153.5" r="39.5" fill="#5A5A5A"/>
<path d="M222.18 150.38V148.4H230.73V150.38L225.69 161H223.44L228.39 150.56V150.38H222.18ZM231.006 158.48V156.5L235.236 148.4H237.486L233.256 156.5H237.396V153.44H237.486H239.466V156.5H241.266V158.48H239.466V161H237.396V158.48H231.006ZM241.986 160.01C241.986 159.65 242.1 159.35 242.328 159.11C242.568 158.87 242.862 158.75 243.21 158.75C243.606 158.75 243.918 158.894 244.146 159.182C244.386 159.47 244.506 159.896 244.506 160.46C244.506 161.384 244.284 162.092 243.84 162.584C243.408 163.088 242.82 163.34 242.076 163.34V162.44C242.436 162.44 242.718 162.338 242.922 162.134C243.138 161.942 243.246 161.684 243.246 161.36V161.252C243.234 161.24 243.228 161.216 243.228 161.18V161.126L243.12 161.162C243.084 161.174 243.006 161.18 242.886 161.18C242.646 161.18 242.436 161.072 242.256 160.856C242.076 160.64 241.986 160.358 241.986 160.01ZM245.761 157.4H247.921C248.005 157.772 248.167 158.102 248.407 158.39C248.947 159.05 249.715 159.38 250.711 159.38C251.539 159.38 252.193 159.176 252.673 158.768C253.165 158.348 253.411 157.832 253.411 157.22C253.411 156.524 253.189 155.978 252.745 155.582C252.313 155.174 251.695 154.97 250.891 154.97H247.831V153.17L251.611 150.47V150.38H246.391V148.4H254.671V150.362L251.431 152.72L250.531 153.08V153.17L250.819 153.134C251.215 153.098 251.449 153.08 251.521 153.08C252.649 153.08 253.591 153.47 254.347 154.25C255.103 155.03 255.481 156.02 255.481 157.22C255.481 158.372 255.037 159.35 254.149 160.154C253.261 160.958 252.115 161.36 250.711 161.36C248.851 161.36 247.477 160.7 246.589 159.38C246.205 158.816 245.929 158.156 245.761 157.4ZM256.839 157.58C256.839 156.488 257.259 155.618 258.099 154.97C258.459 154.718 258.879 154.526 259.359 154.394V154.286C258.987 154.142 258.657 153.944 258.369 153.692C257.709 153.128 257.379 152.384 257.379 151.46C257.379 150.512 257.781 149.708 258.585 149.048C259.401 148.376 260.499 148.04 261.879 148.04C263.259 148.04 264.351 148.376 265.155 149.048C265.971 149.708 266.379 150.512 266.379 151.46C266.379 152.36 266.049 153.104 265.389 153.692C265.077 153.944 264.747 154.142 264.399 154.286V154.394C264.855 154.514 265.275 154.712 265.659 154.988C266.499 155.636 266.919 156.5 266.919 157.58C266.919 158.624 266.463 159.518 265.551 160.262C264.651 160.994 263.427 161.36 261.879 161.36C260.331 161.36 259.101 160.994 258.189 160.262C257.289 159.518 256.839 158.624 256.839 157.58ZM259.539 151.64C259.539 152.168 259.743 152.6 260.151 152.936C260.559 153.272 261.135 153.44 261.879 153.44C262.623 153.44 263.199 153.272 263.607 152.936C264.015 152.6 264.219 152.168 264.219 151.64C264.219 151.16 264.009 150.758 263.589 150.434C263.181 150.098 262.611 149.93 261.879 149.93C261.147 149.93 260.571 150.098 260.151 150.434C259.743 150.758 259.539 151.16 259.539 151.64ZM259.755 155.942C259.251 156.338 258.999 156.824 258.999 157.4C258.999 157.976 259.251 158.468 259.755 158.876C260.271 159.272 260.979 159.47 261.879 159.47C262.779 159.47 263.481 159.272 263.985 158.876C264.501 158.468 264.759 157.976 264.759 157.4C264.759 156.824 264.501 156.338 263.985 155.942C263.481 155.534 262.779 155.33 261.879 155.33C260.979 155.33 260.271 155.534 259.755 155.942Z" fill="white"/>
<rect x="176" y="296" width="16" height="26" transform="rotate(-90 176 296)" fill="#5A5A5A"/>
<rect y="62" width="16" height="252" fill="#5A5A5A"/>
<rect x="127" y="92" width="30" height="86" transform="rotate(-90 127 92)" fill="#5A5A5A"/>
<rect y="92" width="30" height="41" transform="rotate(-90 0 92)" fill="#5A5A5A"/>
<rect x="189" y="695" width="30" height="63" transform="rotate(-90 189 695)" fill="#5A5A5A"/>
<path d="M18.25 91.7498L175.687 91.5982L175.749 80.25L18.25 80.25L18.25 91.7498Z" stroke="#5A5A5A" stroke-width="0.5" stroke-miterlimit="10"/>
<path d="M18.25 73.7498L175.687 73.5982L175.749 62.25L18.25 62.25L18.25 73.7498Z" stroke="#5A5A5A" stroke-width="0.5" stroke-miterlimit="10"/>
<line x1="246.45" y1="312.217" x2="232.45" y2="341.217" stroke="#5A5A5A"/>
<line x1="231.444" y1="410.77" x2="245.444" y2="437.77" stroke="#5A5A5A"/>
<line x1="194.781" y1="473.551" x2="233.781" y2="454.551" stroke="#5A5A5A"/>
<line x1="240.272" y1="294.42" x2="206.272" y2="316.42" stroke="#5A5A5A"/>
<line y1="-0.5" x2="44.7772" y2="-0.5" transform="matrix(0.870978 0.491321 0.491321 -0.870978 134 293)" stroke="#5A5A5A"/>
<line x1="89.4254" y1="328.263" x2="68.4254" y2="362.263" stroke="#5A5A5A"/>
<path d="M307.702 318.241L308.883 318.258L311.949 318.241L319.54 318.241L319.54 328.198L307.702 328.198C304.685 328.198 302.226 325.955 302.226 323.203C302.226 320.485 304.685 318.241 307.702 318.241Z" fill="white" stroke="#5A5A5A" stroke-width="0.5"/>
<path d="M307.768 319.387L308.702 319.387L316.261 319.387L316.261 327.068L308.702 327.068L307.768 327.052C305.39 327.052 303.456 325.349 303.456 323.22C303.472 321.107 305.407 319.387 307.768 319.387Z" fill="white" stroke="#5A5A5A" stroke-width="0.5"/>
<path d="M325.901 330L320.638 330C320.032 330 319.54 329.509 319.54 328.903L319.54 317.619C319.54 317.013 320.032 316.521 320.638 316.521L325.901 316.521C326.508 316.521 327 317.013 327 317.619L327 328.886C327 329.509 326.508 330 325.901 330Z" fill="white" stroke="#5A5A5A" stroke-width="0.5"/>
<path d="M323.278 323.908C322.868 323.908 322.557 323.613 322.557 323.269C322.54 322.909 322.868 322.614 323.278 322.614C323.688 322.614 323.999 322.909 323.999 323.252C323.983 323.629 323.672 323.924 323.278 323.908Z" fill="white" stroke="#5A5A5A" stroke-width="0.5"/>
<path d="M271.855 309.46L271.855 297.152C271.855 296.296 272.539 295.611 273.393 295.611L291.913 295.611C292.767 295.611 293.451 296.296 293.451 297.152L293.451 309.46C293.451 310.315 292.767 311 291.913 311L273.393 311C272.553 311 271.855 310.315 271.855 309.46Z" fill="white" stroke="#5A5A5A" stroke-width="0.5"/>
<path d="M273.778 304.768L273.778 302.871C273.778 300.375 275.801 298.35 278.294 298.35L287.012 298.35C289.505 298.35 291.528 300.375 291.528 302.871L291.528 304.768C291.528 307.263 289.505 309.289 287.012 309.289L278.294 309.289C275.801 309.289 273.778 307.263 273.778 304.768Z" fill="white" stroke="#5A5A5A" stroke-width="0.5"/>
<path d="M281.698 306.878C281.698 306.335 282.125 305.894 282.653 305.894C283.18 305.894 283.607 306.335 283.607 306.878C283.607 307.422 283.18 307.862 282.653 307.862C282.125 307.862 281.698 307.422 281.698 306.878Z" fill="white" stroke="#5A5A5A" stroke-width="0.5"/>
<path d="M16 260.325L40.9954 260.325L40.9954 236L16 236L16 260.325Z" fill="white" stroke="#5A5A5A" stroke-width="0.5"/>
<path d="M38.9687 259.398L19.5157 259.398C18.7778 259.398 18.3853 259.006 18.3853 258.236L18.3853 238.089C18.3853 237.303 18.7621 236.926 19.5157 236.926L38.9687 236.926C39.7223 236.911 40.0992 237.303 40.0992 238.073L40.0992 258.22C40.1149 259.006 39.7223 259.398 38.9687 259.398Z" fill="white" stroke="#5A5A5A" stroke-width="0.5"/>
<path d="M37.1797 252.897C37.164 251.107 35.7509 249.646 34.0082 249.646C32.2497 249.646 30.8367 251.107 30.8367 252.897C30.8367 254.703 32.2497 256.147 34.0082 256.147C35.7666 256.147 37.1797 254.703 37.1797 252.897Z" stroke="#5A5A5A" stroke-width="0.5"/>
<path d="M37.1493 243.271C37.1336 241.481 35.7205 240.02 33.9778 240.02C32.2193 240.02 30.8063 241.481 30.8063 243.271C30.8063 245.077 32.2193 246.522 33.9778 246.522C35.7362 246.537 37.165 245.077 37.1493 243.271Z" stroke="#5A5A5A" stroke-width="0.5"/>
<path d="M28.1357 243.271C28.1357 241.465 26.7227 240.02 24.9642 240.02C23.2058 240.02 21.7927 241.481 21.7927 243.271C21.8084 245.061 23.2215 246.522 24.9642 246.522C26.707 246.522 28.1357 245.061 28.1357 243.271Z" stroke="#5A5A5A" stroke-width="0.5"/>
<path d="M28.1357 252.897C28.1357 251.091 26.7227 249.646 24.9642 249.646C23.2058 249.646 21.7927 251.107 21.7927 252.897C21.8084 254.687 23.2215 256.147 24.9642 256.147C26.707 256.147 28.1357 254.687 28.1357 252.897Z" stroke="#5A5A5A" stroke-width="0.5"/>
<path d="M37 309.088L37 285L60.699 285L60.699 309.104L37 309.088Z" fill="white" stroke="#5A5A5A" stroke-width="0.5"/>
<path d="M38.8032 302.482L38.8032 289.165C38.8032 288.423 39.1669 288.059 39.9245 288.059L57.5321 288.059C58.2595 288.059 58.6383 288.423 58.6534 289.15L58.6383 302.482C58.6534 303.209 58.2746 303.573 57.5321 303.573L39.9245 303.573C39.182 303.603 38.8032 303.225 38.8032 302.482Z" fill="white" stroke="#5A5A5A" stroke-width="0.5"/>
<path d="M48.7283 307.24C49.6527 307.225 50.3951 306.528 50.3951 305.649L49.7436 298.665L49.7284 298.65C49.7284 298.12 49.289 297.695 48.7283 297.695C48.1677 297.695 47.7283 298.12 47.7131 298.665L47.0615 305.649C47.0615 306.513 47.804 307.225 48.7283 307.24Z" stroke="#5A5A5A" stroke-width="0.5"/>
<mask id="path-71-inside-1_35_8956" fill="white">
<path fill-rule="evenodd" clip-rule="evenodd" d="M50.1074 306.557L49.7438 302.755C49.7286 302.224 49.2892 301.785 48.7134 301.8C48.1527 301.8 47.7284 302.224 47.7133 302.755L47.3496 306.557"/>
</mask>
<path fill-rule="evenodd" clip-rule="evenodd" d="M50.1074 306.557L49.7438 302.755C49.7286 302.224 49.2892 301.785 48.7134 301.8C48.1527 301.8 47.7284 302.224 47.7133 302.755L47.3496 306.557" fill="white"/>
<path d="M49.7438 302.755L49.244 302.769L49.2444 302.786L49.246 302.802L49.7438 302.755ZM48.7134 301.8L48.7134 302.3L48.7265 302.3L48.7134 301.8ZM47.7133 302.755L48.211 302.802L48.2126 302.786L48.2131 302.769L47.7133 302.755ZM50.6052 306.51L50.2415 302.707L49.246 302.802L49.6097 306.605L50.6052 306.51ZM50.2436 302.74C50.2205 301.935 49.5525 301.278 48.7002 301.3L48.7265 302.3C49.0259 302.292 49.2367 302.514 49.244 302.769L50.2436 302.74ZM48.7134 301.3C47.884 301.3 47.2364 301.938 47.2135 302.74L48.2131 302.769C48.2204 302.511 48.4214 302.3 48.7134 302.3L48.7134 301.3ZM47.2156 302.707L46.8519 306.51L47.8473 306.605L48.211 302.802L47.2156 302.707Z" fill="#5A5A5A" mask="url(#path-71-inside-1_35_8956)"/>
<rect x="87" y="209" width="2" height="11" fill="#5A5A5A"/>
<rect x="86.9998" y="192" width="2" height="11" fill="#5A5A5A"/>
<rect x="70" y="194" width="2" height="11" transform="rotate(-90 70 194)" fill="#5A5A5A"/>
<rect x="53" y="194" width="2" height="11" transform="rotate(-90 53 194)" fill="#5A5A5A"/>
<rect x="36" y="194" width="2" height="11" transform="rotate(-90 36 194)" fill="#5A5A5A"/>
<rect x="18" y="194" width="2" height="11" transform="rotate(-90 18 194)" fill="#5A5A5A"/>
<rect x="87" y="226" width="2" height="11" fill="#5A5A5A"/>
<rect x="87" y="243" width="2" height="11" fill="#5A5A5A"/>
<rect x="87" y="260" width="2" height="11" fill="#5A5A5A"/>
<rect x="87" y="277" width="2" height="11" fill="#5A5A5A"/>
<line y1="-0.5" x2="29.1548" y2="-0.5" transform="matrix(0.857493 0.514496 0.514496 -0.857493 210 77)" stroke="#5A5A5A"/>
<path d="M301.75 0.250163L196.291 0.313205L196.252 4.74999L301.75 4.75L301.75 0.250163Z" stroke="#5A5A5A" stroke-width="0.5" stroke-miterlimit="10"/>
<rect x="300" width="5" height="82" fill="#5A5A5A"/>
<rect x="181" y="3" width="5" height="79" fill="#5A5A5A"/>
<rect x="200" width="5" height="19" transform="rotate(90 200 0)" fill="#5A5A5A"/>
<rect x="302" width="5" height="19" transform="rotate(90 302 0)" fill="#5A5A5A"/>
<path d="M237.25 62.2503L300.725 62.3131L300.749 66.75L237.25 66.75L237.25 62.2503Z" stroke="#5A5A5A" stroke-width="0.5" stroke-miterlimit="10"/>
<path d="M237.25 72.2503L300.725 72.3131L300.749 76.75L237.25 76.75L237.25 72.2503Z" stroke="#5A5A5A" stroke-width="0.5" stroke-miterlimit="10"/>
<line x1="250.743" y1="679.571" x2="275.743" y2="664.571" stroke="#5A5A5A"/>
<path d="M342.75 756.75L237.291 756.687L237.252 752.25L342.75 752.25L342.75 756.75Z" stroke="#5A5A5A" stroke-width="0.5" stroke-miterlimit="10"/>
<rect width="5" height="82" transform="matrix(1 0 0 -1 336 757)" fill="#5A5A5A"/>
<rect width="5" height="79" transform="matrix(1 0 0 -1 227 754)" fill="#5A5A5A"/>
<rect width="5" height="106" transform="matrix(-4.37114e-08 -1 -1 4.37114e-08 333 757)" fill="#5A5A5A"/>
<rect width="5" height="17" transform="matrix(-4.37114e-08 -1 -1 4.37114e-08 341 757)" fill="#5A5A5A"/>
<path d="M278.25 694.75L341.725 694.687L341.749 690.25L278.25 690.25L278.25 694.75Z" stroke="#5A5A5A" stroke-width="0.5" stroke-miterlimit="10"/>
<path d="M278.25 684.75L341.725 684.687L341.749 680.25L278.25 680.25L278.25 684.75Z" stroke="#5A5A5A" stroke-width="0.5" stroke-miterlimit="10"/>
</svg>
