<svg width="328" height="687" viewBox="0 0 328 687" fill="none" xmlns="http://www.w3.org/2000/svg">
<rect width="28" height="53" transform="matrix(-4.37114e-08 -1 -1 4.37114e-08 53 637)" fill="#5A5A5A"/>
<path d="M250.802 609.398L254.437 447.649L13.6306 447.649L13.6306 609.398L250.802 609.398Z" fill="#FFF8BA"/>
<path d="M312.594 304.983V84.1688H14.5393L14.5393 304.983H312.594Z" fill="#FFF8BA"/>
<path d="M250.802 455.828L248.984 110.521H14.5393L14.5393 455.828L250.802 455.828Z" fill="#FFF8BA"/>
<path d="M173.562 465.824L173.562 184.126H5.45227L5.45228 465.824L173.562 465.824Z" fill="#FFF8BA"/>
<path d="M105.42 525.199H107.1C107.165 525.488 107.291 525.745 107.478 525.969C107.898 526.482 108.495 526.739 109.27 526.739C109.914 526.739 110.423 526.58 110.796 526.263C111.179 525.936 111.37 525.535 111.37 525.059C111.37 524.518 111.197 524.093 110.852 523.785C110.516 523.468 110.035 523.309 109.41 523.309H107.03V521.909L109.97 519.809V519.739H105.91V518.199H112.35V519.725L109.83 521.559L109.13 521.839V521.909L109.354 521.881C109.662 521.853 109.844 521.839 109.9 521.839C110.777 521.839 111.51 522.142 112.098 522.749C112.686 523.356 112.98 524.126 112.98 525.059C112.98 525.955 112.635 526.716 111.944 527.341C111.253 527.966 110.362 528.279 109.27 528.279C107.823 528.279 106.755 527.766 106.064 526.739C105.765 526.3 105.551 525.787 105.42 525.199ZM113.687 526.039V524.499L116.977 518.199H118.727L115.437 524.499H118.657V522.119H118.727H120.267V524.499H121.667V526.039H120.267V527.999H118.657V526.039H113.687ZM122.226 527.229C122.226 526.949 122.315 526.716 122.492 526.529C122.679 526.342 122.907 526.249 123.178 526.249C123.486 526.249 123.729 526.361 123.906 526.585C124.093 526.809 124.186 527.14 124.186 527.579C124.186 528.298 124.013 528.848 123.668 529.231C123.332 529.623 122.875 529.819 122.296 529.819V529.119C122.576 529.119 122.795 529.04 122.954 528.881C123.122 528.732 123.206 528.531 123.206 528.279V528.195C123.197 528.186 123.192 528.167 123.192 528.139V528.097L123.108 528.125C123.08 528.134 123.019 528.139 122.926 528.139C122.739 528.139 122.576 528.055 122.436 527.887C122.296 527.719 122.226 527.5 122.226 527.229ZM125.302 525.269H126.982C127.057 525.558 127.183 525.806 127.36 526.011C127.771 526.496 128.368 526.739 129.152 526.739C129.778 526.739 130.272 526.571 130.636 526.235C131 525.899 131.182 525.46 131.182 524.919C131.182 524.35 131 523.892 130.636 523.547C130.272 523.202 129.778 523.029 129.152 523.029C128.574 523.029 128.084 523.183 127.682 523.491C127.524 523.612 127.384 523.762 127.262 523.939H125.722L126.142 518.199H132.092V519.739H127.472L127.262 522.259H127.332C127.482 522.11 127.654 521.984 127.85 521.881C128.289 521.62 128.816 521.489 129.432 521.489C130.412 521.489 131.229 521.816 131.882 522.469C132.536 523.122 132.862 523.939 132.862 524.919C132.862 525.88 132.517 526.683 131.826 527.327C131.145 527.962 130.254 528.279 129.152 528.279C127.715 528.279 126.646 527.78 125.946 526.781C125.648 526.342 125.433 525.838 125.302 525.269ZM133.565 526.039V524.499L136.855 518.199H138.605L135.315 524.499H138.535V522.119H138.605H140.145V524.499H141.545V526.039H140.145V527.999H138.535V526.039H133.565Z" fill="#333333"/>
<path d="M43.42 669.2H45.1C45.1653 669.489 45.2913 669.746 45.478 669.97C45.898 670.483 46.4953 670.74 47.27 670.74C47.914 670.74 48.4227 670.581 48.796 670.264C49.1787 669.937 49.37 669.536 49.37 669.06C49.37 668.519 49.1973 668.094 48.852 667.786C48.516 667.469 48.0353 667.31 47.41 667.31H45.03V665.91L47.97 663.81V663.74H43.91V662.2H50.35V663.726L47.83 665.56L47.13 665.84V665.91L47.354 665.882C47.662 665.854 47.844 665.84 47.9 665.84C48.7773 665.84 49.51 666.143 50.098 666.75C50.686 667.357 50.98 668.127 50.98 669.06C50.98 669.956 50.6347 670.717 49.944 671.342C49.2533 671.967 48.362 672.28 47.27 672.28C45.8233 672.28 44.7547 671.767 44.064 670.74C43.7653 670.301 43.5507 669.788 43.42 669.2ZM52.0366 671.23C52.0366 670.95 52.1252 670.717 52.3026 670.53C52.4892 670.343 52.7179 670.25 52.9886 670.25C53.2966 670.25 53.5392 670.362 53.7166 670.586C53.9032 670.81 53.9966 671.141 53.9966 671.58C53.9966 672.299 53.8239 672.849 53.4786 673.232C53.1426 673.624 52.6852 673.82 52.1066 673.82V673.12C52.3866 673.12 52.6059 673.041 52.7646 672.882C52.9326 672.733 53.0166 672.532 53.0166 672.28V672.196C53.0072 672.187 53.0026 672.168 53.0026 672.14V672.098L52.9186 672.126C52.8906 672.135 52.8299 672.14 52.7366 672.14C52.5499 672.14 52.3866 672.056 52.2466 671.888C52.1066 671.72 52.0366 671.501 52.0366 671.23ZM55.0427 668.78C55.0427 668.332 55.1407 667.865 55.3367 667.38C55.5421 666.885 55.7381 666.498 55.9247 666.218C56.1207 665.929 56.3867 665.569 56.7227 665.14L58.9627 662.2H60.8527L58.7387 664.958L58.1227 665.49V665.56L58.4027 665.462C58.6827 665.387 58.9861 665.35 59.3127 665.35C60.2274 665.35 61.0021 665.681 61.6367 666.344C62.2807 666.997 62.6027 667.809 62.6027 668.78C62.6027 669.769 62.2481 670.6 61.5387 671.272C60.8294 671.944 59.9241 672.28 58.8227 672.28C57.7214 672.28 56.8161 671.944 56.1067 671.272C55.3974 670.6 55.0427 669.769 55.0427 668.78ZM57.2967 667.324C56.9141 667.697 56.7227 668.183 56.7227 668.78C56.7227 669.377 56.9141 669.867 57.2967 670.25C57.6794 670.623 58.1881 670.81 58.8227 670.81C59.4574 670.81 59.9661 670.623 60.3487 670.25C60.7314 669.867 60.9227 669.377 60.9227 668.78C60.9227 668.183 60.7314 667.697 60.3487 667.324C59.9661 666.941 59.4574 666.75 58.8227 666.75C58.1881 666.75 57.6794 666.941 57.2967 667.324ZM63.656 668.78C63.656 668.332 63.754 667.865 63.95 667.38C64.1553 666.885 64.3513 666.498 64.538 666.218C64.734 665.929 65 665.569 65.336 665.14L67.576 662.2H69.466L67.352 664.958L66.736 665.49V665.56L67.016 665.462C67.296 665.387 67.5993 665.35 67.926 665.35C68.8407 665.35 69.6153 665.681 70.25 666.344C70.894 666.997 71.216 667.809 71.216 668.78C71.216 669.769 70.8613 670.6 70.152 671.272C69.4427 671.944 68.5373 672.28 67.436 672.28C66.3347 672.28 65.4293 671.944 64.72 671.272C64.0107 670.6 63.656 669.769 63.656 668.78ZM65.91 667.324C65.5273 667.697 65.336 668.183 65.336 668.78C65.336 669.377 65.5273 669.867 65.91 670.25C66.2927 670.623 66.8013 670.81 67.436 670.81C68.0707 670.81 68.5793 670.623 68.962 670.25C69.3447 669.867 69.536 669.377 69.536 668.78C69.536 668.183 69.3447 667.697 68.962 667.324C68.5793 666.941 68.0707 666.75 67.436 666.75C66.8013 666.75 66.2927 666.941 65.91 667.324Z" fill="#333333"/>
<path d="M90.8703 408.576L14.5393 408.576L14.5393 311.345L90.8703 311.345L90.8703 408.576Z" fill="#FFC79F"/>
<path d="M35.49 362.779C35.49 362.331 35.588 361.865 35.784 361.379C35.9893 360.885 36.1853 360.497 36.372 360.217C36.568 359.928 36.834 359.569 37.17 359.139L39.41 356.199H41.3L39.186 358.957L38.57 359.489V359.559L38.85 359.461C39.13 359.387 39.4333 359.349 39.76 359.349C40.6747 359.349 41.4493 359.681 42.084 360.343C42.728 360.997 43.05 361.809 43.05 362.779C43.05 363.769 42.6953 364.599 41.986 365.271C41.2767 365.943 40.3713 366.279 39.27 366.279C38.1687 366.279 37.2633 365.943 36.554 365.271C35.8447 364.599 35.49 363.769 35.49 362.779ZM37.744 361.323C37.3613 361.697 37.17 362.182 37.17 362.779C37.17 363.377 37.3613 363.867 37.744 364.249C38.1267 364.623 38.6353 364.809 39.27 364.809C39.9047 364.809 40.4133 364.623 40.796 364.249C41.1787 363.867 41.37 363.377 41.37 362.779C41.37 362.182 41.1787 361.697 40.796 361.323C40.4133 360.941 39.9047 360.749 39.27 360.749C38.6353 360.749 38.1267 360.941 37.744 361.323ZM44.1733 365.229C44.1733 364.949 44.2619 364.716 44.4393 364.529C44.6259 364.343 44.8546 364.249 45.1253 364.249C45.4333 364.249 45.6759 364.361 45.8533 364.585C46.0399 364.809 46.1333 365.141 46.1333 365.579C46.1333 366.298 45.9606 366.849 45.6153 367.231C45.2793 367.623 44.8219 367.819 44.2433 367.819V367.119C44.5233 367.119 44.7426 367.04 44.9013 366.881C45.0693 366.732 45.1533 366.531 45.1533 366.279V366.195C45.1439 366.186 45.1393 366.167 45.1393 366.139V366.097L45.0553 366.125C45.0273 366.135 44.9666 366.139 44.8733 366.139C44.6866 366.139 44.5233 366.055 44.3833 365.887C44.2433 365.719 44.1733 365.5 44.1733 365.229ZM48.6495 364.823C47.7628 363.853 47.3195 362.611 47.3195 361.099C47.3195 359.587 47.7628 358.346 48.6495 357.375C49.5361 356.405 50.6095 355.919 51.8695 355.919C53.1295 355.919 54.2028 356.405 55.0895 357.375C55.9761 358.346 56.4195 359.587 56.4195 361.099C56.4195 362.611 55.9761 363.853 55.0895 364.823C54.2028 365.794 53.1295 366.279 51.8695 366.279C50.6095 366.279 49.5361 365.794 48.6495 364.823ZM49.7975 358.411C49.2655 359.046 48.9995 359.942 48.9995 361.099C48.9995 362.257 49.2655 363.153 49.7975 363.787C50.3388 364.422 51.0295 364.739 51.8695 364.739C52.7095 364.739 53.3955 364.422 53.9275 363.787C54.4688 363.153 54.7395 362.257 54.7395 361.099C54.7395 359.942 54.4688 359.046 53.9275 358.411C53.3955 357.777 52.7095 357.459 51.8695 357.459C51.0295 357.459 50.3388 357.777 49.7975 358.411ZM57.2627 364.039V362.499L60.5527 356.199H62.3027L59.0127 362.499H62.2327V360.119H62.3027H63.8427V362.499H65.2427V364.039H63.8427V365.999H62.2327V364.039H57.2627Z" fill="#333333"/>
<path d="M90.8703 304.984L14.5393 304.984L14.5393 247.735L90.8703 247.735L90.8703 304.984Z" fill="#FFC79F"/>
<path d="M312 294L236 294L236 221L312 221L312 294Z" fill="#FFC79F"/>
<path d="M50.42 279.999V278.459L53.766 276.093C54.494 275.571 55.0167 275.085 55.334 274.637C55.6513 274.189 55.81 273.713 55.81 273.209C55.81 272.677 55.6467 272.253 55.32 271.935C54.9933 271.618 54.55 271.459 53.99 271.459C53.2993 271.459 52.7813 271.739 52.436 272.299C52.2867 272.542 52.1747 272.822 52.1 273.139H50.42C50.504 272.542 50.686 272.005 50.966 271.529C51.6287 270.456 52.6367 269.919 53.99 269.919C55.026 269.919 55.866 270.227 56.51 270.843C57.1633 271.45 57.49 272.215 57.49 273.139C57.49 273.942 57.2847 274.665 56.874 275.309C56.4633 275.944 55.8053 276.574 54.9 277.199L53.5 278.179L52.87 278.459V278.529L53.71 278.459H57.49V279.999H50.42ZM58.6127 279.229C58.6127 278.949 58.7014 278.716 58.8787 278.529C59.0654 278.343 59.2941 278.249 59.5647 278.249C59.8727 278.249 60.1154 278.361 60.2927 278.585C60.4794 278.809 60.5727 279.141 60.5727 279.579C60.5727 280.298 60.4001 280.849 60.0547 281.231C59.7187 281.623 59.2614 281.819 58.6827 281.819V281.119C58.9627 281.119 59.1821 281.04 59.3407 280.881C59.5087 280.732 59.5927 280.531 59.5927 280.279V280.195C59.5834 280.186 59.5787 280.167 59.5787 280.139V280.097L59.4947 280.125C59.4667 280.135 59.4061 280.139 59.3127 280.139C59.1261 280.139 58.9627 280.055 58.8227 279.887C58.6827 279.719 58.6127 279.5 58.6127 279.229ZM61.6889 273.419C61.6889 272.43 62.0436 271.599 62.7529 270.927C63.4622 270.255 64.3676 269.919 65.4689 269.919C66.5702 269.919 67.4756 270.255 68.1849 270.927C68.8942 271.599 69.2489 272.43 69.2489 273.419C69.2489 274.306 68.8802 275.263 68.1429 276.289C68.0682 276.392 67.9656 276.532 67.8349 276.709C67.7042 276.877 67.6156 276.994 67.5689 277.059L65.3289 279.999H63.4389L65.5529 277.241L66.1689 276.709V276.639C66.1502 276.649 66.0569 276.686 65.8889 276.751C65.6462 276.817 65.3429 276.849 64.9789 276.849C64.0642 276.849 63.2849 276.523 62.6409 275.869C62.0062 275.207 61.6889 274.39 61.6889 273.419ZM63.9429 271.963C63.5602 272.337 63.3689 272.822 63.3689 273.419C63.3689 274.017 63.5602 274.507 63.9429 274.889C64.3256 275.263 64.8342 275.449 65.4689 275.449C66.1036 275.449 66.6122 275.263 66.9949 274.889C67.3776 274.507 67.5689 274.017 67.5689 273.419C67.5689 272.822 67.3776 272.337 66.9949 271.963C66.6122 271.581 66.1036 271.389 65.4689 271.389C64.8342 271.389 64.3256 271.581 63.9429 271.963ZM69.8822 271.739V270.199H76.5322V271.739L72.6122 279.999H70.8622L74.7122 271.879V271.739H69.8822Z" fill="#333333"/>
<path d="M130.42 202V200.46L133.766 198.094C134.494 197.571 135.017 197.086 135.334 196.638C135.651 196.19 135.81 195.714 135.81 195.21C135.81 194.678 135.647 194.253 135.32 193.936C134.993 193.618 134.55 193.46 133.99 193.46C133.299 193.46 132.781 193.74 132.436 194.3C132.287 194.542 132.175 194.822 132.1 195.14H130.42C130.504 194.542 130.686 194.006 130.966 193.53C131.629 192.456 132.637 191.92 133.99 191.92C135.026 191.92 135.866 192.228 136.51 192.844C137.163 193.45 137.49 194.216 137.49 195.14C137.49 195.942 137.285 196.666 136.874 197.31C136.463 197.944 135.805 198.574 134.9 199.2L133.5 200.18L132.87 200.46V200.53L133.71 200.46H137.49V202H130.42ZM138.193 193.74V192.2H144.843V193.74L140.923 202H139.173L143.023 193.88V193.74H138.193ZM144.287 201.23C144.287 200.95 144.375 200.716 144.553 200.53C144.739 200.343 144.968 200.25 145.239 200.25C145.547 200.25 145.789 200.362 145.967 200.586C146.153 200.81 146.247 201.141 146.247 201.58C146.247 202.298 146.074 202.849 145.729 203.232C145.393 203.624 144.935 203.82 144.357 203.82V203.12C144.637 203.12 144.856 203.04 145.015 202.882C145.183 202.732 145.267 202.532 145.267 202.28V202.196C145.257 202.186 145.253 202.168 145.253 202.14V202.098L145.169 202.126C145.141 202.135 145.08 202.14 144.987 202.14C144.8 202.14 144.637 202.056 144.497 201.888C144.357 201.72 144.287 201.5 144.287 201.23ZM147.363 195.42C147.363 194.43 147.717 193.6 148.427 192.928C149.136 192.256 150.041 191.92 151.143 191.92C152.244 191.92 153.149 192.256 153.859 192.928C154.568 193.6 154.923 194.43 154.923 195.42C154.923 196.306 154.554 197.263 153.817 198.29C153.742 198.392 153.639 198.532 153.509 198.71C153.378 198.878 153.289 198.994 153.243 199.06L151.003 202H149.113L151.227 199.242L151.843 198.71V198.64C151.824 198.649 151.731 198.686 151.563 198.752C151.32 198.817 151.017 198.85 150.653 198.85C149.738 198.85 148.959 198.523 148.315 197.87C147.68 197.207 147.363 196.39 147.363 195.42ZM149.617 193.964C149.234 194.337 149.043 194.822 149.043 195.42C149.043 196.017 149.234 196.507 149.617 196.89C149.999 197.263 150.508 197.45 151.143 197.45C151.777 197.45 152.286 197.263 152.669 196.89C153.051 196.507 153.243 196.017 153.243 195.42C153.243 194.822 153.051 194.337 152.669 193.964C152.286 193.581 151.777 193.39 151.143 193.39C150.508 193.39 149.999 193.581 149.617 193.964ZM155.976 199.27H157.656C157.731 199.559 157.857 199.806 158.034 200.012C158.445 200.497 159.042 200.74 159.826 200.74C160.451 200.74 160.946 200.572 161.31 200.236C161.674 199.9 161.856 199.461 161.856 198.92C161.856 198.35 161.674 197.893 161.31 197.548C160.946 197.202 160.451 197.03 159.826 197.03C159.247 197.03 158.757 197.184 158.356 197.492C158.197 197.613 158.057 197.762 157.936 197.94H156.396L156.816 192.2H162.766V193.74H158.146L157.936 196.26H158.006C158.155 196.11 158.328 195.984 158.524 195.882C158.963 195.62 159.49 195.49 160.106 195.49C161.086 195.49 161.903 195.816 162.556 196.47C163.209 197.123 163.536 197.94 163.536 198.92C163.536 199.881 163.191 200.684 162.5 201.328C161.819 201.962 160.927 202.28 159.826 202.28C158.389 202.28 157.32 201.78 156.62 200.782C156.321 200.343 156.107 199.839 155.976 199.27Z" fill="#333333"/>
<path d="M191.35 390.419V388.599L193.17 387.199H194.64V396.999H193.03V389.159L191.35 390.419ZM195.761 388.739V387.199H202.411V388.739L198.491 396.999H196.741L200.591 388.879V388.739H195.761ZM201.855 396.229C201.855 395.949 201.944 395.716 202.121 395.529C202.308 395.343 202.536 395.249 202.807 395.249C203.115 395.249 203.358 395.361 203.535 395.585C203.722 395.809 203.815 396.141 203.815 396.579C203.815 397.298 203.642 397.849 203.297 398.231C202.961 398.623 202.504 398.819 201.925 398.819V398.119C202.205 398.119 202.424 398.04 202.583 397.881C202.751 397.732 202.835 397.531 202.835 397.279V397.195C202.826 397.186 202.821 397.167 202.821 397.139V397.097L202.737 397.125C202.709 397.135 202.648 397.139 202.555 397.139C202.368 397.139 202.205 397.055 202.065 396.887C201.925 396.719 201.855 396.5 201.855 396.229ZM204.931 394.339C204.931 393.49 205.258 392.813 205.911 392.309C206.191 392.113 206.518 391.964 206.891 391.861V391.777C206.602 391.665 206.345 391.511 206.121 391.315C205.608 390.877 205.351 390.298 205.351 389.579C205.351 388.842 205.664 388.217 206.289 387.703C206.924 387.181 207.778 386.919 208.851 386.919C209.924 386.919 210.774 387.181 211.399 387.703C212.034 388.217 212.351 388.842 212.351 389.579C212.351 390.279 212.094 390.858 211.581 391.315C211.338 391.511 211.082 391.665 210.811 391.777V391.861C211.166 391.955 211.492 392.109 211.791 392.323C212.444 392.827 212.771 393.499 212.771 394.339C212.771 395.151 212.416 395.847 211.707 396.425C211.007 396.995 210.055 397.279 208.851 397.279C207.647 397.279 206.69 396.995 205.981 396.425C205.281 395.847 204.931 395.151 204.931 394.339ZM207.031 389.719C207.031 390.13 207.19 390.466 207.507 390.727C207.824 390.989 208.272 391.119 208.851 391.119C209.43 391.119 209.878 390.989 210.195 390.727C210.512 390.466 210.671 390.13 210.671 389.719C210.671 389.346 210.508 389.033 210.181 388.781C209.864 388.52 209.42 388.389 208.851 388.389C208.282 388.389 207.834 388.52 207.507 388.781C207.19 389.033 207.031 389.346 207.031 389.719ZM207.199 393.065C206.807 393.373 206.611 393.751 206.611 394.199C206.611 394.647 206.807 395.03 207.199 395.347C207.6 395.655 208.151 395.809 208.851 395.809C209.551 395.809 210.097 395.655 210.489 395.347C210.89 395.03 211.091 394.647 211.091 394.199C211.091 393.751 210.89 393.373 210.489 393.065C210.097 392.748 209.551 392.589 208.851 392.589C208.151 392.589 207.6 392.748 207.199 393.065ZM213.746 394.199H215.426C215.492 394.489 215.618 394.745 215.804 394.969C216.224 395.483 216.822 395.739 217.596 395.739C218.24 395.739 218.749 395.581 219.122 395.263C219.505 394.937 219.696 394.535 219.696 394.059C219.696 393.518 219.524 393.093 219.178 392.785C218.842 392.468 218.362 392.309 217.736 392.309H215.356V390.909L218.296 388.809V388.739H214.236V387.199H220.676V388.725L218.156 390.559L217.456 390.839V390.909L217.68 390.881C217.988 390.853 218.17 390.839 218.226 390.839C219.104 390.839 219.836 391.143 220.424 391.749C221.012 392.356 221.306 393.126 221.306 394.059C221.306 394.955 220.961 395.716 220.27 396.341C219.58 396.967 218.688 397.279 217.596 397.279C216.15 397.279 215.081 396.766 214.39 395.739C214.092 395.301 213.877 394.787 213.746 394.199Z" fill="#333333"/>
<path d="M253.14 177.74V176.2H259.79V177.74L255.87 186H254.12L257.97 177.88V177.74H253.14ZM259.234 185.23C259.234 184.95 259.322 184.717 259.5 184.53C259.686 184.343 259.915 184.25 260.186 184.25C260.494 184.25 260.736 184.362 260.914 184.586C261.1 184.81 261.194 185.141 261.194 185.58C261.194 186.299 261.021 186.849 260.676 187.232C260.34 187.624 259.882 187.82 259.304 187.82V187.12C259.584 187.12 259.803 187.041 259.962 186.882C260.13 186.733 260.214 186.532 260.214 186.28V186.196C260.204 186.187 260.2 186.168 260.2 186.14V186.098L260.116 186.126C260.088 186.135 260.027 186.14 259.934 186.14C259.747 186.14 259.584 186.056 259.444 185.888C259.304 185.72 259.234 185.501 259.234 185.23ZM262.1 179.42V177.6L263.92 176.2H265.39V186H263.78V178.16L262.1 179.42ZM266.861 182.78C266.861 182.332 266.959 181.865 267.155 181.38C267.36 180.885 267.556 180.498 267.743 180.218C267.939 179.929 268.205 179.569 268.541 179.14L270.781 176.2H272.671L270.557 178.958L269.941 179.49V179.56L270.221 179.462C270.501 179.387 270.804 179.35 271.131 179.35C272.046 179.35 272.82 179.681 273.455 180.344C274.099 180.997 274.421 181.809 274.421 182.78C274.421 183.769 274.066 184.6 273.357 185.272C272.648 185.944 271.742 186.28 270.641 186.28C269.54 186.28 268.634 185.944 267.925 185.272C267.216 184.6 266.861 183.769 266.861 182.78ZM269.115 181.324C268.732 181.697 268.541 182.183 268.541 182.78C268.541 183.377 268.732 183.867 269.115 184.25C269.498 184.623 270.006 184.81 270.641 184.81C271.276 184.81 271.784 184.623 272.167 184.25C272.55 183.867 272.741 183.377 272.741 182.78C272.741 182.183 272.55 181.697 272.167 181.324C271.784 180.941 271.276 180.75 270.641 180.75C270.006 180.75 269.498 180.941 269.115 181.324Z" fill="#333333"/>
<path d="M251.21 271.039V269.499L254.5 263.199H256.25L252.96 269.499H256.18V267.119H256.25H257.79V269.499H259.19V271.039H257.79V272.999H256.18V271.039H251.21ZM259.749 272.229C259.749 271.949 259.838 271.716 260.015 271.529C260.202 271.343 260.431 271.249 260.701 271.249C261.009 271.249 261.252 271.361 261.429 271.585C261.616 271.809 261.709 272.141 261.709 272.579C261.709 273.298 261.537 273.849 261.191 274.231C260.855 274.623 260.398 274.819 259.819 274.819V274.119C260.099 274.119 260.319 274.04 260.477 273.881C260.645 273.732 260.729 273.531 260.729 273.279V273.195C260.72 273.186 260.715 273.167 260.715 273.139V273.097L260.631 273.125C260.603 273.135 260.543 273.139 260.449 273.139C260.263 273.139 260.099 273.055 259.959 272.887C259.819 272.719 259.749 272.5 259.749 272.229ZM262.616 266.419V264.599L264.436 263.199H265.906V272.999H264.296V265.159L262.616 266.419ZM267.377 269.779C267.377 269.331 267.475 268.865 267.671 268.379C267.876 267.885 268.072 267.497 268.259 267.217C268.455 266.928 268.721 266.569 269.057 266.139L271.297 263.199H273.187L271.073 265.957L270.457 266.489V266.559L270.737 266.461C271.017 266.387 271.32 266.349 271.647 266.349C272.561 266.349 273.336 266.681 273.971 267.343C274.615 267.997 274.937 268.809 274.937 269.779C274.937 270.769 274.582 271.599 273.873 272.271C273.163 272.943 272.258 273.279 271.157 273.279C270.055 273.279 269.15 272.943 268.441 272.271C267.731 271.599 267.377 270.769 267.377 269.779ZM269.631 268.323C269.248 268.697 269.057 269.182 269.057 269.779C269.057 270.377 269.248 270.867 269.631 271.249C270.013 271.623 270.522 271.809 271.157 271.809C271.791 271.809 272.3 271.623 272.683 271.249C273.065 270.867 273.257 270.377 273.257 269.779C273.257 269.182 273.065 268.697 272.683 268.323C272.3 267.941 271.791 267.749 271.157 267.749C270.522 267.749 270.013 267.941 269.631 268.323Z" fill="#333333"/>
<rect width="27.2611" height="48.1612" transform="matrix(-4.37114e-08 -1 -1 4.37114e-08 48.1612 83.2612)" fill="#5A5A5A"/>
<rect width="14.5392" height="537.951" transform="matrix(1 0 0 -1 6.10352e-05 613.942)" fill="#5A5A5A"/>
<rect width="14.5392" height="87.2354" transform="matrix(-4.37114e-08 -1 -1 4.37114e-08 101.775 423.115)" fill="#5A5A5A"/>
<path d="M32.2427 332.524L31.1699 332.539L28.3838 332.524L21.4857 332.524L21.4857 341.572L32.2427 341.572C34.9841 341.572 37.2189 339.533 37.2189 337.033C37.2189 334.562 34.9841 332.524 32.2427 332.524Z" fill="white" stroke="#5A5A5A" stroke-width="0.5"/>
<path d="M32.1831 333.565L31.3339 333.565L24.4655 333.565L24.4655 340.545L31.3339 340.545L32.1831 340.53C34.3434 340.53 36.1015 338.982 36.1015 337.048C36.0866 335.128 34.3285 333.565 32.1831 333.565Z" fill="white" stroke="#5A5A5A" stroke-width="0.5"/>
<path d="M15.7048 343.209L20.4874 343.209C21.0386 343.209 21.4856 342.762 21.4856 342.212L21.4856 331.958C21.4856 331.407 21.0386 330.961 20.4874 330.961L15.7048 330.961C15.1536 330.961 14.7066 331.407 14.7066 331.958L14.7066 342.197C14.7066 342.762 15.1536 343.209 15.7048 343.209Z" fill="white" stroke="#5A5A5A" stroke-width="0.5"/>
<path d="M18.0887 337.673C18.4612 337.673 18.7442 337.405 18.7442 337.092C18.7591 336.765 18.4612 336.497 18.0887 336.497C17.7163 336.497 17.4332 336.765 17.4332 337.077C17.4481 337.42 17.7312 337.688 18.0887 337.673Z" fill="white" stroke="#5A5A5A" stroke-width="0.5"/>
<path d="M16.0414 371.076L27.2258 371.076C28.0034 371.076 28.6255 370.454 28.6255 369.678L28.6255 352.849C28.6255 352.072 28.0034 351.451 27.2258 351.451L16.0414 351.451C15.2638 351.451 14.6418 352.072 14.6418 352.849L14.6418 369.678C14.6418 370.441 15.2638 371.076 16.0414 371.076Z" fill="white" stroke="#5A5A5A" stroke-width="0.5"/>
<path d="M20.3052 369.328L22.0288 369.328C24.2968 369.328 26.1371 367.49 26.1371 365.225L26.1371 357.302C26.1371 355.037 24.2968 353.199 22.0288 353.199L20.3052 353.199C18.0372 353.199 16.1969 355.037 16.1969 357.302L16.1969 365.225C16.1969 367.49 18.0372 369.328 20.3052 369.328Z" fill="white" stroke="#5A5A5A" stroke-width="0.5"/>
<path d="M18.3871 362.131C18.881 362.131 19.2813 361.743 19.2813 361.264C19.2813 360.785 18.881 360.396 18.3871 360.396C17.8933 360.396 17.493 360.785 17.493 361.264C17.493 361.743 17.8933 362.131 18.3871 362.131Z" fill="white" stroke="#5A5A5A" stroke-width="0.5"/>
<path d="M15.8586 384.432L70.4904 384.432C71.1899 384.432 71.7496 384.991 71.7496 385.69L71.7496 407.378C71.7496 408.077 71.1899 408.636 70.4904 408.636L15.8586 408.636C15.159 408.636 14.5993 408.077 14.5993 407.378L14.5993 385.69C14.5993 384.991 15.1717 384.432 15.8586 384.432Z" fill="white" stroke="#5A5A5A" stroke-width="0.5"/>
<path d="M68.3913 393.593L68.3913 399.488C68.3913 402.906 65.6184 405.663 62.2094 405.663L19.1909 405.663C18.3514 405.663 17.6772 404.989 17.6772 404.151L17.6772 388.904C17.6772 388.066 18.3514 387.393 19.1909 387.393L62.1967 387.393C65.6184 387.405 68.3913 390.175 68.3913 393.593Z" fill="white" stroke="#5A5A5A" stroke-width="0.5"/>
<path d="M22.778 396.108C22.778 395.427 22.2028 394.876 21.4933 394.876C20.7838 394.876 20.2087 395.427 20.2087 396.108C20.2087 396.789 20.7838 397.34 21.4933 397.34C22.2028 397.34 22.778 396.789 22.778 396.108Z" fill="white" stroke="#5A5A5A" stroke-width="0.5"/>
<path d="M75.0474 331.357L75.0474 311.357L55.4308 311.344L55.4435 331.345L75.0474 331.357Z" fill="white" stroke="#5A5A5A" stroke-width="0.5"/>
<path d="M60.2079 321.345C60.2079 318.515 62.4567 316.23 65.2391 316.23C68.0216 316.23 70.2704 318.515 70.2704 321.357C70.2704 324.187 68.0216 326.497 65.2391 326.497C62.4567 326.484 60.2079 324.174 60.2079 321.345Z" stroke="#5A5A5A" stroke-width="0.5"/>
<path d="M65.2391 325.088C64.2227 325.101 63.308 324.682 62.6473 323.997C61.9867 323.312 61.5801 322.372 61.5674 321.357M65.2264 317.601C64.2227 317.601 63.308 318.02 62.6346 318.692C61.974 319.378 61.5547 320.304 61.5547 321.345L65.2264 317.601ZM65.2391 325.088C66.2428 325.088 67.1576 324.669 67.831 323.997C68.4916 323.312 68.8982 322.372 68.8982 321.345L65.2391 325.088ZM65.2264 317.601C66.2556 317.601 67.1703 318.02 67.8183 318.692L67.831 318.705C68.4789 319.378 68.8982 320.304 68.8982 321.332L65.2264 317.601Z" stroke="#5A5A5A" stroke-width="0.5"/>
<path d="M295.424 278.109L296.497 278.094L299.283 278.109L306.181 278.109L306.181 269.061L295.424 269.061C292.682 269.061 290.448 271.1 290.448 273.6C290.448 276.07 292.682 278.109 295.424 278.109Z" fill="white" stroke="#5A5A5A" stroke-width="0.5"/>
<path d="M295.483 277.068L296.333 277.068L303.201 277.068L303.201 270.088L296.333 270.088L295.483 270.103C293.323 270.103 291.565 271.651 291.565 273.585C291.58 275.505 293.338 277.068 295.483 277.068Z" fill="white" stroke="#5A5A5A" stroke-width="0.5"/>
<path d="M311.962 267.424L307.179 267.424C306.628 267.424 306.181 267.871 306.181 268.421L306.181 278.675C306.181 279.225 306.628 279.672 307.179 279.672L311.962 279.672C312.513 279.672 312.96 279.225 312.96 278.675L312.96 268.436C312.96 267.87 312.513 267.424 311.962 267.424Z" fill="white" stroke="#5A5A5A" stroke-width="0.5"/>
<path d="M309.578 272.96C309.205 272.96 308.922 273.228 308.922 273.541C308.907 273.868 309.205 274.136 309.578 274.136C309.95 274.136 310.233 273.868 310.233 273.556C310.218 273.213 309.935 272.945 309.578 272.96Z" fill="white" stroke="#5A5A5A" stroke-width="0.5"/>
<path d="M311.625 239.557L300.441 239.557C299.663 239.557 299.041 240.179 299.041 240.955L299.041 257.784C299.041 258.561 299.663 259.182 300.441 259.182L311.625 259.182C312.403 259.182 313.025 258.561 313.025 257.784L313.025 240.955C313.025 240.192 312.403 239.557 311.625 239.557Z" fill="white" stroke="#5A5A5A" stroke-width="0.5"/>
<path d="M307.361 241.305L305.638 241.305C303.37 241.305 301.529 243.143 301.529 245.408L301.529 253.331C301.529 255.596 303.37 257.434 305.638 257.434L307.361 257.434C309.629 257.434 311.47 255.596 311.47 253.331L311.47 245.408C311.47 243.143 309.629 241.305 307.361 241.305Z" fill="white" stroke="#5A5A5A" stroke-width="0.5"/>
<path d="M309.279 248.502C308.786 248.502 308.385 248.89 308.385 249.369C308.385 249.848 308.786 250.237 309.279 250.237C309.773 250.237 310.174 249.848 310.174 249.369C310.174 248.89 309.773 248.502 309.279 248.502Z" fill="white" stroke="#5A5A5A" stroke-width="0.5"/>
<path d="M238.08 224.109L238.08 244.11L257.696 244.122L257.684 224.122L238.08 224.109Z" fill="white" stroke="#5A5A5A" stroke-width="0.5"/>
<path d="M252.919 234.122C252.919 236.952 250.671 239.237 247.888 239.237C245.106 239.237 242.857 236.952 242.857 234.11C242.857 231.28 245.106 228.97 247.888 228.97C250.671 228.983 252.919 231.292 252.919 234.122Z" stroke="#5A5A5A" stroke-width="0.5"/>
<path d="M247.888 230.379C248.905 230.366 249.819 230.785 250.48 231.47C251.141 232.155 251.547 233.094 251.56 234.11M247.901 237.866C248.905 237.866 249.819 237.447 250.493 236.775C251.153 236.089 251.573 235.163 251.573 234.122L247.901 237.866ZM247.888 230.379C246.884 230.379 245.97 230.797 245.296 231.47C244.636 232.155 244.229 233.094 244.229 234.122L247.888 230.379ZM247.901 237.866C246.872 237.866 245.957 237.447 245.309 236.775L245.296 236.762C244.648 236.089 244.229 235.163 244.229 234.135L247.901 237.866Z" stroke="#5A5A5A" stroke-width="0.5"/>
<rect width="7.26962" height="44.5264" transform="matrix(-1 8.74228e-08 8.74228e-08 1 98.1398 378.588)" fill="#5A5A5A"/>
<rect width="7.26961" height="87.2354" transform="matrix(-4.37114e-08 1 1 4.37114e-08 10.9045 304.984)" fill="#5A5A5A"/>
<rect width="7.26961" height="39.9829" transform="matrix(-1 -8.74228e-08 -8.74228e-08 1 238.08 216.84)" fill="#5A5A5A"/>
<rect width="14.5392" height="14.5392" transform="matrix(-1 -8.74228e-08 -8.74228e-08 1 264.432 300.44)" fill="#5A5A5A"/>
<rect width="7.26962" height="81.7832" transform="matrix(-4.37114e-08 -1 -1 4.37114e-08 312.594 224.109)" fill="#5A5A5A"/>
<rect width="7.26961" height="59.0656" transform="matrix(1 0 0 -1 90.8702 353.145)" fill="#5A5A5A"/>
<rect width="7.26961" height="12.7218" transform="matrix(1 0 0 -1 90.8702 266.818)" fill="#5A5A5A"/>
<rect width="14.5392" height="83.6006" transform="matrix(-4.37114e-08 -1 -1 4.37114e-08 252.619 423.115)" fill="#5A5A5A"/>
<rect width="14.5392" height="16.3566" transform="matrix(-4.37114e-08 -1 -1 4.37114e-08 142.666 423.115)" fill="#5A5A5A"/>
<rect width="14.5392" height="203.549" transform="matrix(-1 8.74228e-08 8.74228e-08 1 264.432 433.111)" fill="#5A5A5A"/>
<rect width="14.5392" height="92.6876" transform="matrix(-4.37114e-08 -1 -1 4.37114e-08 107.227 256.823)" fill="#5A5A5A"/>
<rect width="14.5392" height="51.796" transform="matrix(-4.37114e-08 -1 -1 4.37114e-08 238.08 256.823)" fill="#5A5A5A"/>
<rect width="14.5392" height="109.953" transform="matrix(-4.37114e-08 -1 -1 4.37114e-08 327.133 305.892)" fill="#5A5A5A"/>
<rect width="14.5392" height="99.0485" transform="matrix(-1 8.74228e-08 8.74228e-08 1 264.432 344.967)" fill="#5A5A5A"/>
<ellipse cx="166.747" cy="338.151" rx="40.2532" ry="40.152" fill="#5A5A5A"/>
<path d="M136.08 337.572V335.232L138.42 333.432H140.31V346.032H138.24V335.952L136.08 337.572ZM144.091 344.52C142.951 343.272 142.381 341.676 142.381 339.732C142.381 337.788 142.951 336.192 144.091 334.944C145.231 333.696 146.611 333.072 148.231 333.072C149.851 333.072 151.231 333.696 152.371 334.944C153.511 336.192 154.081 337.788 154.081 339.732C154.081 341.676 153.511 343.272 152.371 344.52C151.231 345.768 149.851 346.392 148.231 346.392C146.611 346.392 145.231 345.768 144.091 344.52ZM145.567 336.276C144.883 337.092 144.541 338.244 144.541 339.732C144.541 341.22 144.883 342.372 145.567 343.188C146.263 344.004 147.151 344.412 148.231 344.412C149.311 344.412 150.193 344.004 150.877 343.188C151.573 342.372 151.921 341.22 151.921 339.732C151.921 338.244 151.573 337.092 150.877 336.276C150.193 335.46 149.311 335.052 148.231 335.052C147.151 335.052 146.263 335.46 145.567 336.276ZM157.416 344.52C156.276 343.272 155.706 341.676 155.706 339.732C155.706 337.788 156.276 336.192 157.416 334.944C158.556 333.696 159.936 333.072 161.556 333.072C163.176 333.072 164.556 333.696 165.696 334.944C166.836 336.192 167.406 337.788 167.406 339.732C167.406 341.676 166.836 343.272 165.696 344.52C164.556 345.768 163.176 346.392 161.556 346.392C159.936 346.392 158.556 345.768 157.416 344.52ZM158.892 336.276C158.208 337.092 157.866 338.244 157.866 339.732C157.866 341.22 158.208 342.372 158.892 343.188C159.588 344.004 160.476 344.412 161.556 344.412C162.636 344.412 163.518 344.004 164.202 343.188C164.898 342.372 165.246 341.22 165.246 339.732C165.246 338.244 164.898 337.092 164.202 336.276C163.518 335.46 162.636 335.052 161.556 335.052C160.476 335.052 159.588 335.46 158.892 336.276ZM168.94 345.042C168.94 344.682 169.054 344.382 169.282 344.142C169.522 343.902 169.816 343.782 170.164 343.782C170.56 343.782 170.872 343.926 171.1 344.214C171.34 344.502 171.46 344.928 171.46 345.492C171.46 346.416 171.238 347.124 170.794 347.616C170.362 348.12 169.774 348.372 169.03 348.372V347.472C169.39 347.472 169.672 347.37 169.876 347.166C170.092 346.974 170.2 346.716 170.2 346.392V346.284C170.188 346.272 170.182 346.248 170.182 346.212V346.158L170.074 346.194C170.038 346.206 169.96 346.212 169.84 346.212C169.6 346.212 169.39 346.104 169.21 345.888C169.03 345.672 168.94 345.39 168.94 345.042ZM172.805 341.892C172.805 341.316 172.931 340.716 173.183 340.092C173.447 339.456 173.699 338.958 173.939 338.598C174.191 338.226 174.533 337.764 174.965 337.212L177.845 333.432H180.275L177.557 336.978L176.765 337.662V337.752L177.125 337.626C177.485 337.53 177.875 337.482 178.295 337.482C179.471 337.482 180.467 337.908 181.283 338.76C182.111 339.6 182.525 340.644 182.525 341.892C182.525 343.164 182.069 344.232 181.157 345.096C180.245 345.96 179.081 346.392 177.665 346.392C176.249 346.392 175.085 345.96 174.173 345.096C173.261 344.232 172.805 343.164 172.805 341.892ZM175.703 340.02C175.211 340.5 174.965 341.124 174.965 341.892C174.965 342.66 175.211 343.29 175.703 343.782C176.195 344.262 176.849 344.502 177.665 344.502C178.481 344.502 179.135 344.262 179.627 343.782C180.119 343.29 180.365 342.66 180.365 341.892C180.365 341.124 180.119 340.5 179.627 340.02C179.135 339.528 178.481 339.282 177.665 339.282C176.849 339.282 176.195 339.528 175.703 340.02ZM183.969 342.522H186.129C186.225 342.894 186.387 343.212 186.615 343.476C187.143 344.1 187.911 344.412 188.919 344.412C189.723 344.412 190.359 344.196 190.827 343.764C191.295 343.332 191.529 342.768 191.529 342.072C191.529 341.34 191.295 340.752 190.827 340.308C190.359 339.864 189.723 339.642 188.919 339.642C188.175 339.642 187.545 339.84 187.029 340.236C186.825 340.392 186.645 340.584 186.489 340.812H184.509L185.049 333.432H192.699V335.412H186.759L186.489 338.652H186.579C186.771 338.46 186.993 338.298 187.245 338.166C187.809 337.83 188.487 337.662 189.279 337.662C190.539 337.662 191.589 338.082 192.429 338.922C193.269 339.762 193.689 340.812 193.689 342.072C193.689 343.308 193.245 344.34 192.357 345.168C191.481 345.984 190.335 346.392 188.919 346.392C187.071 346.392 185.697 345.75 184.797 344.466C184.413 343.902 184.137 343.254 183.969 342.522Z" fill="white"/>
<rect width="14.5392" height="15.4479" transform="matrix(-4.37114e-08 -1 -1 4.37114e-08 153.571 256.823)" fill="#5A5A5A"/>
<rect width="14" height="250" transform="matrix(-1 8.74228e-08 8.74228e-08 1 327 56)" fill="#5A5A5A"/>
<rect width="27.2611" height="96.3224" transform="matrix(-4.37114e-08 -1 -1 4.37114e-08 202.641 83.2612)" fill="#5A5A5A"/>
<rect width="27.2611" height="61.7917" transform="matrix(-4.37114e-08 -1 -1 4.37114e-08 327.133 83.2612)" fill="#5A5A5A"/>
<rect width="27.2611" height="69.97" transform="matrix(-4.37114e-08 -1 -1 4.37114e-08 171.745 636.66)" fill="#5A5A5A"/>
<rect width="27.2611" height="21.8088" transform="matrix(-4.37114e-08 -1 -1 4.37114e-08 250.802 636.66)" fill="#5A5A5A"/>
<path d="M173.75 83.011L45.7367 82.8733L45.6863 72.6068L173.75 72.6068L173.75 83.011Z" stroke="#5A5A5A" stroke-width="0.5" stroke-miterlimit="10"/>
<path d="M258.786 636.409L144.835 636.272L144.79 626.005L258.786 626.005L258.786 636.409Z" stroke="#5A5A5A" stroke-width="0.5" stroke-miterlimit="10"/>
<path d="M173.75 66.654L45.7367 66.5164L45.6863 56.2499L173.75 56.2499L173.75 66.654Z" stroke="#5A5A5A" stroke-width="0.5" stroke-miterlimit="10"/>
<path d="M258.786 620.052L144.835 619.915L144.79 609.648L258.786 609.648L258.786 620.052Z" stroke="#5A5A5A" stroke-width="0.5" stroke-miterlimit="10"/>
<line y1="-0.5" x2="25.6537" y2="-0.5" transform="matrix(0.38964 -0.920967 -0.920967 -0.38964 97.2311 380.406)" stroke="#5A5A5A"/>
<line x1="100.609" y1="409.964" x2="123.326" y2="396.334" stroke="#5A5A5A"/>
<line y1="-0.5" x2="26.493" y2="-0.5" transform="matrix(-0.857493 -0.514496 -0.514496 0.857493 170.836 410.393)" stroke="#5A5A5A"/>
<line x1="97.6916" y1="265.715" x2="107.687" y2="289.341" stroke="#5A5A5A"/>
<line x1="206.748" y1="285.656" x2="223.105" y2="256.577" stroke="#5A5A5A"/>
<line y1="-0.5" x2="40.6891" y2="-0.5" transform="matrix(0.870978 0.491321 0.491321 -0.870978 103.592 254.096)" stroke="#5A5A5A"/>
<line x1="192.89" y1="254.532" x2="157.451" y2="274.523" stroke="#5A5A5A"/>
<line y1="-0.5" x2="36.9899" y2="-0.5" transform="matrix(0.466759 0.884385 0.884385 -0.466759 261.706 308.618)" stroke="#5A5A5A"/>
<path d="M32.0754 272.49L31.0026 272.504L28.2165 272.49L21.3184 272.49L21.3184 281.538L32.0754 281.538C34.8168 281.538 37.0516 279.499 37.0516 276.999C37.0516 274.528 34.8168 272.49 32.0754 272.49Z" fill="white" stroke="#5A5A5A" stroke-width="0.5"/>
<path d="M32.0158 273.531L31.1665 273.531L24.2981 273.531L24.2981 280.511L31.1665 280.511L32.0158 280.496C34.1761 280.496 35.9341 278.948 35.9341 277.013C35.9192 275.094 34.1612 273.531 32.0158 273.531Z" fill="white" stroke="#5A5A5A" stroke-width="0.5"/>
<path d="M15.5375 283.175L20.3201 283.175C20.8713 283.175 21.3183 282.728 21.3183 282.177L21.3183 271.924C21.3183 271.373 20.8713 270.927 20.3201 270.927L15.5375 270.927C14.9863 270.927 14.5393 271.373 14.5393 271.924L14.5393 282.163C14.5393 282.728 14.9863 283.175 15.5375 283.175Z" fill="white" stroke="#5A5A5A" stroke-width="0.5"/>
<path d="M17.9214 277.639C18.2938 277.639 18.5769 277.371 18.5769 277.058C18.5918 276.731 18.2938 276.463 17.9214 276.463C17.5489 276.463 17.2659 276.731 17.2659 277.043C17.2807 277.386 17.5638 277.653 17.9214 277.639Z" fill="white" stroke="#5A5A5A" stroke-width="0.5"/>
<path d="M76.4629 303.584L76.4629 292.4C76.4629 291.622 75.8415 291 75.0648 291L58.2362 291C57.4595 291 56.8381 291.622 56.8381 292.4L56.8381 303.584C56.8381 304.362 57.4595 304.984 58.2362 304.984L75.0648 304.984C75.8285 304.984 76.4629 304.362 76.4629 303.584Z" fill="white" stroke="#5A5A5A" stroke-width="0.5"/>
<path d="M74.7154 299.32L74.7154 297.597C74.7154 295.329 72.8771 293.488 70.6118 293.488L62.6894 293.488C60.424 293.488 58.5858 295.329 58.5858 297.597L58.5858 299.32C58.5858 301.588 60.424 303.428 62.6894 303.428L70.6118 303.428C72.8771 303.428 74.7154 301.588 74.7154 299.32Z" fill="white" stroke="#5A5A5A" stroke-width="0.5"/>
<path d="M67.5182 301.238C67.5182 300.744 67.1299 300.344 66.6509 300.344C66.1719 300.344 65.7836 300.744 65.7836 301.238C65.7836 301.732 66.1719 302.132 66.6509 302.132C67.1299 302.132 67.5182 301.732 67.5182 301.238Z" fill="white" stroke="#5A5A5A" stroke-width="0.5"/>
<path d="M312.683 158.979L289.97 158.979L289.97 136.875L312.683 136.875L312.683 158.979Z" fill="white" stroke="#5A5A5A" stroke-width="0.5"/>
<path d="M291.812 158.136L309.489 158.136C310.159 158.136 310.516 157.78 310.516 157.081L310.516 138.772C310.516 138.059 310.173 137.716 309.489 137.716L291.812 137.716C291.127 137.702 290.784 138.059 290.784 138.758L290.784 157.066C290.77 157.78 291.127 158.136 291.812 158.136Z" fill="white" stroke="#5A5A5A" stroke-width="0.5"/>
<path d="M293.438 152.229C293.452 150.602 294.736 149.275 296.319 149.275C297.917 149.275 299.201 150.602 299.201 152.229C299.201 153.87 297.917 155.183 296.319 155.183C294.722 155.183 293.438 153.87 293.438 152.229Z" stroke="#5A5A5A" stroke-width="0.5"/>
<path d="M293.465 143.482C293.479 141.855 294.763 140.528 296.347 140.528C297.945 140.528 299.229 141.855 299.229 143.482C299.229 145.123 297.945 146.435 296.347 146.435C294.749 146.45 293.451 145.123 293.465 143.482Z" stroke="#5A5A5A" stroke-width="0.5"/>
<path d="M301.656 143.482C301.656 141.841 302.94 140.528 304.538 140.528C306.136 140.528 307.42 141.855 307.42 143.482C307.405 145.108 306.121 146.436 304.538 146.436C302.954 146.436 301.656 145.108 301.656 143.482Z" stroke="#5A5A5A" stroke-width="0.5"/>
<path d="M301.656 152.229C301.656 150.588 302.94 149.275 304.538 149.275C306.136 149.275 307.42 150.602 307.42 152.229C307.405 153.856 306.121 155.183 304.538 155.183C302.954 155.183 301.656 153.856 301.656 152.229Z" stroke="#5A5A5A" stroke-width="0.5"/>
<path d="M312.674 194.691L290.785 194.691L290.785 216.226L312.688 216.226L312.674 194.691Z" fill="white" stroke="#5A5A5A" stroke-width="0.5"/>
<path d="M306.671 196.329L294.57 196.329C293.895 196.329 293.565 196.66 293.565 197.348L293.565 213.348C293.565 214.009 293.895 214.354 294.556 214.367L306.671 214.354C307.332 214.367 307.662 214.023 307.662 213.348L307.662 197.348C307.689 196.674 307.345 196.329 306.671 196.329Z" fill="white" stroke="#5A5A5A" stroke-width="0.5"/>
<path d="M310.994 205.348C310.98 206.188 310.347 206.863 309.549 206.863L303.202 206.271L303.188 206.257C302.707 206.257 302.321 205.858 302.321 205.348C302.321 204.839 302.707 204.44 303.202 204.426L309.549 203.834C310.333 203.834 310.98 204.508 310.994 205.348Z" stroke="#5A5A5A" stroke-width="0.5"/>
<mask id="path-90-inside-1_33_6800" fill="white">
<path fill-rule="evenodd" clip-rule="evenodd" d="M310.374 206.601L306.918 206.271C306.437 206.257 306.037 205.858 306.051 205.335C306.051 204.825 306.437 204.44 306.918 204.426L310.374 204.095"/>
</mask>
<path fill-rule="evenodd" clip-rule="evenodd" d="M310.374 206.601L306.918 206.271C306.437 206.257 306.037 205.858 306.051 205.335C306.051 204.825 306.437 204.44 306.918 204.426L310.374 204.095" fill="white"/>
<path d="M306.918 206.271L306.933 205.771L306.949 205.772L306.966 205.773L306.918 206.271ZM306.051 205.335L306.551 205.335L306.551 205.348L306.051 205.335ZM306.918 204.426L306.966 204.924L306.949 204.925L306.933 204.926L306.918 204.426ZM310.326 207.099L306.871 206.769L306.966 205.773L310.422 206.104L310.326 207.099ZM306.904 206.771C306.148 206.749 305.53 206.121 305.551 205.322L306.551 205.348C306.544 205.595 306.726 205.765 306.933 205.771L306.904 206.771ZM305.551 205.335C305.551 204.557 306.15 203.948 306.904 203.926L306.933 204.926C306.723 204.932 306.551 205.094 306.551 205.335L305.551 205.335ZM306.871 203.928L310.326 203.598L310.422 204.593L306.966 204.924L306.871 203.928Z" fill="#5A5A5A" mask="url(#path-90-inside-1_33_6800)"/>
<rect width="1.8174" height="9.99572" transform="matrix(-1 -8.74228e-08 -8.74228e-08 1 232.628 145.053)" fill="#5A5A5A"/>
<rect width="1.8174" height="9.99572" transform="matrix(-1 -8.74228e-08 -8.74228e-08 1 232.628 129.605)" fill="#5A5A5A"/>
<rect width="1.8174" height="9.99572" transform="matrix(-1 -8.74228e-08 -8.74228e-08 1 232.628 114.157)" fill="#5A5A5A"/>
<rect width="1.8174" height="9.99572" transform="matrix(-1 -8.74228e-08 -8.74228e-08 1 232.628 98.7092)" fill="#5A5A5A"/>
<rect width="1.8174" height="9.99572" transform="matrix(-1 -8.74228e-08 -8.74228e-08 1 232.628 83.2612)" fill="#5A5A5A"/>
<rect width="1.8174" height="9.99572" transform="matrix(-1 -8.74228e-08 -8.74228e-08 1 232.628 160.501)" fill="#5A5A5A"/>
<rect width="1.8174" height="9.99572" transform="matrix(-1 -8.74228e-08 -8.74228e-08 1 232.628 175.949)" fill="#5A5A5A"/>
<rect width="1.8174" height="9.99572" transform="matrix(-1 -8.74228e-08 -8.74228e-08 1 232.628 191.397)" fill="#5A5A5A"/>
<rect width="1.8174" height="9.99572" transform="matrix(-1 -8.74228e-08 -8.74228e-08 1 232.628 206.845)" fill="#5A5A5A"/>
<path d="M118.75 686.75L37.282 686.687L37.2517 682.25L118.75 682.25L118.75 686.75Z" stroke="#5A5A5A" stroke-width="0.5" stroke-miterlimit="10"/>
<rect width="5" height="74" transform="matrix(1 0 0 -1 125 687)" fill="#5A5A5A"/>
<rect width="5" height="74" transform="matrix(1 0 0 -1 26 687)" fill="#5A5A5A"/>
<rect width="5" height="15" transform="matrix(-4.37114e-08 -1 -1 4.37114e-08 43 687)" fill="#5A5A5A"/>
<rect width="5" height="12" transform="matrix(-4.37114e-08 -1 -1 4.37114e-08 130 687)" fill="#5A5A5A"/>
<path d="M136.75 620.25L76.2738 620.313L76.2513 624.75L136.75 624.75L136.75 620.25Z" stroke="#5A5A5A" stroke-width="0.5" stroke-miterlimit="10"/>
<path d="M136.75 630.25L76.2738 630.313L76.2513 634.75L136.75 634.75L136.75 630.25Z" stroke="#5A5A5A" stroke-width="0.5" stroke-miterlimit="10"/>
<line x1="52.7451" y1="623.57" x2="79.7451" y2="607.57" stroke="#5A5A5A"/>
<path d="M218.21 37.04V35.5L221.5 29.2H223.25L219.96 35.5H223.18V33.12H223.25H224.79V35.5H226.19V37.04H224.79V39H223.18V37.04H218.21ZM226.749 38.23C226.749 37.95 226.838 37.7167 227.015 37.53C227.202 37.3433 227.431 37.25 227.701 37.25C228.009 37.25 228.252 37.362 228.429 37.586C228.616 37.81 228.709 38.1413 228.709 38.58C228.709 39.2987 228.537 39.8493 228.191 40.232C227.855 40.624 227.398 40.82 226.819 40.82V40.12C227.099 40.12 227.319 40.0407 227.477 39.882C227.645 39.7327 227.729 39.532 227.729 39.28V39.196C227.72 39.1867 227.715 39.168 227.715 39.14V39.098L227.631 39.126C227.603 39.1353 227.543 39.14 227.449 39.14C227.263 39.14 227.099 39.056 226.959 38.888C226.819 38.72 226.749 38.5007 226.749 38.23ZM229.406 30.74V29.2H236.056V30.74L232.136 39H230.386L234.236 30.88V30.74H229.406ZM236.551 35.78C236.551 35.332 236.649 34.8653 236.845 34.38C237.05 33.8853 237.246 33.498 237.433 33.218C237.629 32.9287 237.895 32.5693 238.231 32.14L240.471 29.2H242.361L240.247 31.958L239.631 32.49V32.56L239.911 32.462C240.191 32.3873 240.494 32.35 240.821 32.35C241.735 32.35 242.51 32.6813 243.145 33.344C243.789 33.9973 244.111 34.8093 244.111 35.78C244.111 36.7693 243.756 37.6 243.047 38.272C242.337 38.944 241.432 39.28 240.331 39.28C239.229 39.28 238.324 38.944 237.615 38.272C236.905 37.6 236.551 36.7693 236.551 35.78ZM238.805 34.324C238.422 34.6973 238.231 35.1827 238.231 35.78C238.231 36.3773 238.422 36.8673 238.805 37.25C239.187 37.6233 239.696 37.81 240.331 37.81C240.965 37.81 241.474 37.6233 241.857 37.25C242.239 36.8673 242.431 36.3773 242.431 35.78C242.431 35.1827 242.239 34.6973 241.857 34.324C241.474 33.9413 240.965 33.75 240.331 33.75C239.696 33.75 239.187 33.9413 238.805 34.324Z" fill="#333333"/>
<path d="M248.115 56.5899L193.206 56.6469L193.186 60.6331L248.115 60.6331L248.115 56.5899Z" stroke="#5A5A5A" stroke-width="0.5" stroke-miterlimit="10"/>
<path d="M248.115 65.6768L193.206 65.7338L193.186 69.72L248.115 69.72L248.115 65.6768Z" stroke="#5A5A5A" stroke-width="0.5" stroke-miterlimit="10"/>
<rect width="4.54351" height="67.2439" transform="matrix(-1 0 0 1 167.569 0)" fill="#5A5A5A"/>
<rect width="4.54351" height="67.2439" transform="matrix(-1 0 0 1 295.618 0)" fill="#5A5A5A"/>
<rect width="5.00001" height="129" transform="matrix(4.37114e-08 1 1 -4.37114e-08 166 0)" fill="#5A5A5A"/>
<line x1="149.975" y1="70.399" x2="127.257" y2="84.0295" stroke="#5A5A5A"/>
</svg>
