<svg width="468" height="695" viewBox="0 0 468 695" fill="none" xmlns="http://www.w3.org/2000/svg">
<rect width="30" height="53" transform="matrix(4.37114e-08 1 1 -4.37114e-08 415 55)" fill="#5A5A5A"/>
<path d="M16 84V279.674L468 279.674L468 84L16 84Z" fill="#E7FFD5"/>
<path d="M13 204.415V363.088H329L329 204.415L13 204.415Z" fill="#E7FFD5"/>
<path d="M10 324.829V476.351H155V324.829H10Z" fill="#E7FFD5"/>
<path d="M7 445.244V665H152L152 445.244L7 445.244Z" fill="#E7FFD5"/>
<path d="M13 231.5V367.174H329L329 231.5L13 231.5Z" fill="#E7FFD5"/>
<rect width="42" height="95" transform="matrix(4.37114e-08 -1 -1 -4.37114e-08 336 407)" fill="#E7FFD5"/>
<circle cx="195.5" cy="179.5" r="39.5" fill="#5A5A5A"/>
<path d="M171.72 178.54C171.72 177.268 172.176 176.2 173.088 175.336C174 174.472 175.164 174.04 176.58 174.04C177.996 174.04 179.16 174.472 180.072 175.336C180.984 176.2 181.44 177.268 181.44 178.54C181.44 179.68 180.966 180.91 180.018 182.23C179.922 182.362 179.79 182.542 179.622 182.77C179.454 182.986 179.34 183.136 179.28 183.22L176.4 187H173.97L176.688 183.454L177.48 182.77V182.68C177.456 182.692 177.336 182.74 177.12 182.824C176.808 182.908 176.418 182.95 175.95 182.95C174.774 182.95 173.772 182.53 172.944 181.69C172.128 180.838 171.72 179.788 171.72 178.54ZM174.618 176.668C174.126 177.148 173.88 177.772 173.88 178.54C173.88 179.308 174.126 179.938 174.618 180.43C175.11 180.91 175.764 181.15 176.58 181.15C177.396 181.15 178.05 180.91 178.542 180.43C179.034 179.938 179.28 179.308 179.28 178.54C179.28 177.772 179.034 177.148 178.542 176.668C178.05 176.176 177.396 175.93 176.58 175.93C175.764 175.93 175.11 176.176 174.618 176.668ZM182.344 184.48V182.5L186.574 174.4H188.824L184.594 182.5H188.734V179.44H188.824H190.804V182.5H192.604V184.48H190.804V187H188.734V184.48H182.344ZM193.324 186.01C193.324 185.65 193.438 185.35 193.666 185.11C193.906 184.87 194.2 184.75 194.548 184.75C194.944 184.75 195.256 184.894 195.484 185.182C195.724 185.47 195.844 185.896 195.844 186.46C195.844 187.384 195.622 188.092 195.178 188.584C194.746 189.088 194.158 189.34 193.414 189.34V188.44C193.774 188.44 194.056 188.338 194.26 188.134C194.476 187.942 194.584 187.684 194.584 187.36V187.252C194.572 187.24 194.566 187.216 194.566 187.18V187.126L194.458 187.162C194.422 187.174 194.344 187.18 194.224 187.18C193.984 187.18 193.774 187.072 193.594 186.856C193.414 186.64 193.324 186.358 193.324 186.01ZM197.099 183.4H199.259C199.343 183.772 199.505 184.102 199.745 184.39C200.285 185.05 201.053 185.38 202.049 185.38C202.877 185.38 203.531 185.176 204.011 184.768C204.503 184.348 204.749 183.832 204.749 183.22C204.749 182.524 204.527 181.978 204.083 181.582C203.651 181.174 203.033 180.97 202.229 180.97H199.169V179.17L202.949 176.47V176.38H197.729V174.4H206.009V176.362L202.769 178.72L201.869 179.08V179.17L202.157 179.134C202.553 179.098 202.787 179.08 202.859 179.08C203.987 179.08 204.929 179.47 205.685 180.25C206.441 181.03 206.819 182.02 206.819 183.22C206.819 184.372 206.375 185.35 205.487 186.154C204.599 186.958 203.453 187.36 202.049 187.36C200.189 187.36 198.815 186.7 197.927 185.38C197.543 184.816 197.267 184.156 197.099 183.4ZM208.087 182.86C208.087 182.284 208.213 181.684 208.465 181.06C208.729 180.424 208.981 179.926 209.221 179.566C209.473 179.194 209.815 178.732 210.247 178.18L213.127 174.4H215.557L212.839 177.946L212.047 178.63V178.72L212.407 178.594C212.767 178.498 213.157 178.45 213.577 178.45C214.753 178.45 215.749 178.876 216.565 179.728C217.393 180.568 217.807 181.612 217.807 182.86C217.807 184.132 217.351 185.2 216.439 186.064C215.527 186.928 214.363 187.36 212.947 187.36C211.531 187.36 210.367 186.928 209.455 186.064C208.543 185.2 208.087 184.132 208.087 182.86ZM210.985 180.988C210.493 181.468 210.247 182.092 210.247 182.86C210.247 183.628 210.493 184.258 210.985 184.75C211.477 185.23 212.131 185.47 212.947 185.47C213.763 185.47 214.417 185.23 214.909 184.75C215.401 184.258 215.647 183.628 215.647 182.86C215.647 182.092 215.401 181.468 214.909 180.988C214.417 180.496 213.763 180.25 212.947 180.25C212.131 180.25 211.477 180.496 210.985 180.988Z" fill="white"/>
<path d="M352.49 235.78C352.49 235.332 352.588 234.865 352.784 234.38C352.989 233.885 353.185 233.498 353.372 233.218C353.568 232.929 353.834 232.569 354.17 232.14L356.41 229.2H358.3L356.186 231.958L355.57 232.49V232.56L355.85 232.462C356.13 232.387 356.433 232.35 356.76 232.35C357.675 232.35 358.449 232.681 359.084 233.344C359.728 233.997 360.05 234.809 360.05 235.78C360.05 236.769 359.695 237.6 358.986 238.272C358.277 238.944 357.371 239.28 356.27 239.28C355.169 239.28 354.263 238.944 353.554 238.272C352.845 237.6 352.49 236.769 352.49 235.78ZM354.744 234.324C354.361 234.697 354.17 235.183 354.17 235.78C354.17 236.377 354.361 236.867 354.744 237.25C355.127 237.623 355.635 237.81 356.27 237.81C356.905 237.81 357.413 237.623 357.796 237.25C358.179 236.867 358.37 236.377 358.37 235.78C358.37 235.183 358.179 234.697 357.796 234.324C357.413 233.941 356.905 233.75 356.27 233.75C355.635 233.75 355.127 233.941 354.744 234.324ZM361.173 238.23C361.173 237.95 361.262 237.717 361.439 237.53C361.626 237.343 361.855 237.25 362.125 237.25C362.433 237.25 362.676 237.362 362.853 237.586C363.04 237.81 363.133 238.141 363.133 238.58C363.133 239.299 362.961 239.849 362.615 240.232C362.279 240.624 361.822 240.82 361.243 240.82V240.12C361.523 240.12 361.743 240.041 361.901 239.882C362.069 239.733 362.153 239.532 362.153 239.28V239.196C362.144 239.187 362.139 239.168 362.139 239.14V239.098L362.055 239.126C362.027 239.135 361.967 239.14 361.873 239.14C361.687 239.14 361.523 239.056 361.383 238.888C361.243 238.72 361.173 238.501 361.173 238.23ZM365.649 237.824C364.763 236.853 364.319 235.612 364.319 234.1C364.319 232.588 364.763 231.347 365.649 230.376C366.536 229.405 367.609 228.92 368.869 228.92C370.129 228.92 371.203 229.405 372.089 230.376C372.976 231.347 373.419 232.588 373.419 234.1C373.419 235.612 372.976 236.853 372.089 237.824C371.203 238.795 370.129 239.28 368.869 239.28C367.609 239.28 366.536 238.795 365.649 237.824ZM366.797 231.412C366.265 232.047 365.999 232.943 365.999 234.1C365.999 235.257 366.265 236.153 366.797 236.788C367.339 237.423 368.029 237.74 368.869 237.74C369.709 237.74 370.395 237.423 370.927 236.788C371.469 236.153 371.739 235.257 371.739 234.1C371.739 232.943 371.469 232.047 370.927 231.412C370.395 230.777 369.709 230.46 368.869 230.46C368.029 230.46 367.339 230.777 366.797 231.412ZM376.013 237.824C375.126 236.853 374.683 235.612 374.683 234.1C374.683 232.588 375.126 231.347 376.013 230.376C376.899 229.405 377.973 228.92 379.233 228.92C380.493 228.92 381.566 229.405 382.453 230.376C383.339 231.347 383.783 232.588 383.783 234.1C383.783 235.612 383.339 236.853 382.453 237.824C381.566 238.795 380.493 239.28 379.233 239.28C377.973 239.28 376.899 238.795 376.013 237.824ZM377.161 231.412C376.629 232.047 376.363 232.943 376.363 234.1C376.363 235.257 376.629 236.153 377.161 236.788C377.702 237.423 378.393 237.74 379.233 237.74C380.073 237.74 380.759 237.423 381.291 236.788C381.832 236.153 382.103 235.257 382.103 234.1C382.103 232.943 381.832 232.047 381.291 231.412C380.759 230.777 380.073 230.46 379.233 230.46C378.393 230.46 377.702 230.777 377.161 231.412Z" fill="#333333"/>
<path d="M337.21 150.04V148.5L340.5 142.2H342.25L338.96 148.5H342.18V146.12H342.25H343.79V148.5H345.19V150.04H343.79V152H342.18V150.04H337.21ZM345.749 149.34C345.749 148.491 346.076 147.814 346.729 147.31C347.009 147.114 347.336 146.965 347.709 146.862V146.778C347.42 146.666 347.163 146.512 346.939 146.316C346.426 145.877 346.169 145.299 346.169 144.58C346.169 143.843 346.482 143.217 347.107 142.704C347.742 142.181 348.596 141.92 349.669 141.92C350.743 141.92 351.592 142.181 352.217 142.704C352.852 143.217 353.169 143.843 353.169 144.58C353.169 145.28 352.913 145.859 352.399 146.316C352.157 146.512 351.9 146.666 351.629 146.778V146.862C351.984 146.955 352.311 147.109 352.609 147.324C353.263 147.828 353.589 148.5 353.589 149.34C353.589 150.152 353.235 150.847 352.525 151.426C351.825 151.995 350.873 152.28 349.669 152.28C348.465 152.28 347.509 151.995 346.799 151.426C346.099 150.847 345.749 150.152 345.749 149.34ZM347.849 144.72C347.849 145.131 348.008 145.467 348.325 145.728C348.643 145.989 349.091 146.12 349.669 146.12C350.248 146.12 350.696 145.989 351.013 145.728C351.331 145.467 351.489 145.131 351.489 144.72C351.489 144.347 351.326 144.034 350.999 143.782C350.682 143.521 350.239 143.39 349.669 143.39C349.1 143.39 348.652 143.521 348.325 143.782C348.008 144.034 347.849 144.347 347.849 144.72ZM348.017 148.066C347.625 148.374 347.429 148.752 347.429 149.2C347.429 149.648 347.625 150.031 348.017 150.348C348.419 150.656 348.969 150.81 349.669 150.81C350.369 150.81 350.915 150.656 351.307 150.348C351.709 150.031 351.909 149.648 351.909 149.2C351.909 148.752 351.709 148.374 351.307 148.066C350.915 147.749 350.369 147.59 349.669 147.59C348.969 147.59 348.419 147.749 348.017 148.066ZM354.705 151.23C354.705 150.95 354.793 150.717 354.971 150.53C355.157 150.343 355.386 150.25 355.657 150.25C355.965 150.25 356.207 150.362 356.385 150.586C356.571 150.81 356.665 151.141 356.665 151.58C356.665 152.299 356.492 152.849 356.147 153.232C355.811 153.624 355.353 153.82 354.775 153.82V153.12C355.055 153.12 355.274 153.041 355.433 152.882C355.601 152.733 355.685 152.532 355.685 152.28V152.196C355.675 152.187 355.671 152.168 355.671 152.14V152.098L355.587 152.126C355.559 152.135 355.498 152.14 355.405 152.14C355.218 152.14 355.055 152.056 354.915 151.888C354.775 151.72 354.705 151.501 354.705 151.23ZM357.361 143.74V142.2H364.011V143.74L360.091 152H358.341L362.191 143.88V143.74H357.361ZM364.709 149.2H366.389C366.454 149.489 366.58 149.746 366.767 149.97C367.187 150.483 367.784 150.74 368.559 150.74C369.203 150.74 369.712 150.581 370.085 150.264C370.468 149.937 370.659 149.536 370.659 149.06C370.659 148.519 370.486 148.094 370.141 147.786C369.805 147.469 369.324 147.31 368.699 147.31H366.319V145.91L369.259 143.81V143.74H365.199V142.2H371.639V143.726L369.119 145.56L368.419 145.84V145.91L368.643 145.882C368.951 145.854 369.133 145.84 369.189 145.84C370.066 145.84 370.799 146.143 371.387 146.75C371.975 147.357 372.269 148.127 372.269 149.06C372.269 149.956 371.924 150.717 371.233 151.342C370.542 151.967 369.651 152.28 368.559 152.28C367.112 152.28 366.044 151.767 365.353 150.74C365.054 150.301 364.84 149.788 364.709 149.2Z" fill="#333333"/>
<path d="M348.21 37.04V35.5L351.5 29.2H353.25L349.96 35.5H353.18V33.12H353.25H354.79V35.5H356.19V37.04H354.79V39H353.18V37.04H348.21ZM356.749 38.23C356.749 37.95 356.838 37.7167 357.015 37.53C357.202 37.3433 357.431 37.25 357.701 37.25C358.009 37.25 358.252 37.362 358.429 37.586C358.616 37.81 358.709 38.1413 358.709 38.58C358.709 39.2987 358.537 39.8493 358.191 40.232C357.855 40.624 357.398 40.82 356.819 40.82V40.12C357.099 40.12 357.319 40.0407 357.477 39.882C357.645 39.7327 357.729 39.532 357.729 39.28V39.196C357.72 39.1867 357.715 39.168 357.715 39.14V39.098L357.631 39.126C357.603 39.1353 357.543 39.14 357.449 39.14C357.263 39.14 357.099 39.056 356.959 38.888C356.819 38.72 356.749 38.5007 356.749 38.23ZM359.406 30.74V29.2H366.056V30.74L362.136 39H360.386L364.236 30.88V30.74H359.406ZM366.551 35.78C366.551 35.332 366.649 34.8653 366.845 34.38C367.05 33.8853 367.246 33.498 367.433 33.218C367.629 32.9287 367.895 32.5693 368.231 32.14L370.471 29.2H372.361L370.247 31.958L369.631 32.49V32.56L369.911 32.462C370.191 32.3873 370.494 32.35 370.821 32.35C371.735 32.35 372.51 32.6813 373.145 33.344C373.789 33.9973 374.111 34.8093 374.111 35.78C374.111 36.7693 373.756 37.6 373.047 38.272C372.337 38.944 371.432 39.28 370.331 39.28C369.229 39.28 368.324 38.944 367.615 38.272C366.905 37.6 366.551 36.7693 366.551 35.78ZM368.805 34.324C368.422 34.6973 368.231 35.1827 368.231 35.78C368.231 36.3773 368.422 36.8673 368.805 37.25C369.187 37.6233 369.696 37.81 370.331 37.81C370.965 37.81 371.474 37.6233 371.857 37.25C372.239 36.8673 372.431 36.3773 372.431 35.78C372.431 35.1827 372.239 34.6973 371.857 34.324C371.474 33.9413 370.965 33.75 370.331 33.75C369.696 33.75 369.187 33.9413 368.805 34.324Z" fill="#333333"/>
<path d="M58.42 32.2H60.1C60.1653 32.4893 60.2913 32.746 60.478 32.97C60.898 33.4833 61.4953 33.74 62.27 33.74C62.914 33.74 63.4227 33.5813 63.796 33.264C64.1787 32.9373 64.37 32.536 64.37 32.06C64.37 31.5187 64.1973 31.094 63.852 30.786C63.516 30.4687 63.0353 30.31 62.41 30.31H60.03V28.91L62.97 26.81V26.74H58.91V25.2H65.35V26.726L62.83 28.56L62.13 28.84V28.91L62.354 28.882C62.662 28.854 62.844 28.84 62.9 28.84C63.7773 28.84 64.51 29.1433 65.098 29.75C65.686 30.3567 65.98 31.1267 65.98 32.06C65.98 32.956 65.6347 33.7167 64.944 34.342C64.2533 34.9673 63.362 35.28 62.27 35.28C60.8233 35.28 59.7547 34.7667 59.064 33.74C58.7653 33.3013 58.5507 32.788 58.42 32.2ZM67.0366 34.23C67.0366 33.95 67.1252 33.7167 67.3026 33.53C67.4892 33.3433 67.7179 33.25 67.9886 33.25C68.2966 33.25 68.5392 33.362 68.7166 33.586C68.9032 33.81 68.9966 34.1413 68.9966 34.58C68.9966 35.2987 68.8239 35.8493 68.4786 36.232C68.1426 36.624 67.6852 36.82 67.1066 36.82V36.12C67.3866 36.12 67.6059 36.0407 67.7646 35.882C67.9326 35.7327 68.0166 35.532 68.0166 35.28V35.196C68.0072 35.1867 68.0026 35.168 68.0026 35.14V35.098L67.9186 35.126C67.8906 35.1353 67.8299 35.14 67.7366 35.14C67.5499 35.14 67.3866 35.056 67.2466 34.888C67.1066 34.72 67.0366 34.5007 67.0366 34.23ZM70.0427 31.78C70.0427 31.332 70.1407 30.8653 70.3367 30.38C70.5421 29.8853 70.7381 29.498 70.9247 29.218C71.1207 28.9287 71.3867 28.5693 71.7227 28.14L73.9627 25.2H75.8527L73.7387 27.958L73.1227 28.49V28.56L73.4027 28.462C73.6827 28.3873 73.9861 28.35 74.3127 28.35C75.2274 28.35 76.0021 28.6813 76.6367 29.344C77.2807 29.9973 77.6027 30.8093 77.6027 31.78C77.6027 32.7693 77.2481 33.6 76.5387 34.272C75.8294 34.944 74.9241 35.28 73.8227 35.28C72.7214 35.28 71.8161 34.944 71.1067 34.272C70.3974 33.6 70.0427 32.7693 70.0427 31.78ZM72.2967 30.324C71.9141 30.6973 71.7227 31.1827 71.7227 31.78C71.7227 32.3773 71.9141 32.8673 72.2967 33.25C72.6794 33.6233 73.1881 33.81 73.8227 33.81C74.4574 33.81 74.9661 33.6233 75.3487 33.25C75.7314 32.8673 75.9227 32.3773 75.9227 31.78C75.9227 31.1827 75.7314 30.6973 75.3487 30.324C74.9661 29.9413 74.4574 29.75 73.8227 29.75C73.1881 29.75 72.6794 29.9413 72.2967 30.324ZM78.656 31.78C78.656 31.332 78.754 30.8653 78.95 30.38C79.1553 29.8853 79.3513 29.498 79.538 29.218C79.734 28.9287 80 28.5693 80.336 28.14L82.576 25.2H84.466L82.352 27.958L81.736 28.49V28.56L82.016 28.462C82.296 28.3873 82.5993 28.35 82.926 28.35C83.8407 28.35 84.6153 28.6813 85.25 29.344C85.894 29.9973 86.216 30.8093 86.216 31.78C86.216 32.7693 85.8613 33.6 85.152 34.272C84.4427 34.944 83.5373 35.28 82.436 35.28C81.3347 35.28 80.4293 34.944 79.72 34.272C79.0107 33.6 78.656 32.7693 78.656 31.78ZM80.91 30.324C80.5273 30.6973 80.336 31.1827 80.336 31.78C80.336 32.3773 80.5273 32.8673 80.91 33.25C81.2927 33.6233 81.8013 33.81 82.436 33.81C83.0707 33.81 83.5793 33.6233 83.962 33.25C84.3447 32.8673 84.536 32.3773 84.536 31.78C84.536 31.1827 84.3447 30.6973 83.962 30.324C83.5793 29.9413 83.0707 29.75 82.436 29.75C81.8013 29.75 81.2927 29.9413 80.91 30.324Z" fill="#333333"/>
<path d="M267.35 335.42V333.6L269.17 332.2H270.64V342H269.03V334.16L267.35 335.42ZM272.181 339.27H273.861C273.936 339.559 274.062 339.807 274.239 340.012C274.65 340.497 275.247 340.74 276.031 340.74C276.656 340.74 277.151 340.572 277.515 340.236C277.879 339.9 278.061 339.461 278.061 338.92C278.061 338.351 277.879 337.893 277.515 337.548C277.151 337.203 276.656 337.03 276.031 337.03C275.452 337.03 274.962 337.184 274.561 337.492C274.402 337.613 274.262 337.763 274.141 337.94H272.601L273.021 332.2H278.971V333.74H274.351L274.141 336.26H274.211C274.36 336.111 274.533 335.985 274.729 335.882C275.168 335.621 275.695 335.49 276.311 335.49C277.291 335.49 278.108 335.817 278.761 336.47C279.414 337.123 279.741 337.94 279.741 338.92C279.741 339.881 279.396 340.684 278.705 341.328C278.024 341.963 277.132 342.28 276.031 342.28C274.594 342.28 273.525 341.781 272.825 340.782C272.526 340.343 272.312 339.839 272.181 339.27ZM280.794 341.23C280.794 340.95 280.883 340.717 281.06 340.53C281.247 340.343 281.476 340.25 281.746 340.25C282.054 340.25 282.297 340.362 282.474 340.586C282.661 340.81 282.754 341.141 282.754 341.58C282.754 342.299 282.582 342.849 282.236 343.232C281.9 343.624 281.443 343.82 280.864 343.82V343.12C281.144 343.12 281.364 343.041 281.522 342.882C281.69 342.733 281.774 342.532 281.774 342.28V342.196C281.765 342.187 281.76 342.168 281.76 342.14V342.098L281.676 342.126C281.648 342.135 281.588 342.14 281.494 342.14C281.308 342.14 281.144 342.056 281.004 341.888C280.864 341.72 280.794 341.501 280.794 341.23ZM283.661 335.42V333.6L285.481 332.2H286.951V342H285.341V334.16L283.661 335.42ZM288.142 340.04V338.5L291.432 332.2H293.182L289.892 338.5H293.112V336.12H293.182H294.722V338.5H296.122V340.04H294.722V342H293.112V340.04H288.142Z" fill="#333333"/>
<path d="M403.625 250.108L403.625 275.104L379.3 275.104L379.3 250.108L403.625 250.108Z" fill="white" stroke="#5A5A5A" stroke-width="0.5"/>
<path d="M402.699 273.077L402.699 253.624C402.699 252.886 402.307 252.494 401.537 252.494L381.39 252.494C380.604 252.494 380.227 252.87 380.227 253.624L380.227 273.077C380.212 273.831 380.604 274.208 381.374 274.208L401.521 274.208C402.307 274.223 402.699 273.831 402.699 273.077Z" fill="white" stroke="#5A5A5A" stroke-width="0.5"/>
<path d="M396.197 271.288C394.406 271.272 392.946 269.859 392.946 268.117C392.946 266.358 394.406 264.945 396.197 264.945C398.003 264.945 399.447 266.358 399.447 268.117C399.447 269.875 398.003 271.288 396.197 271.288Z" stroke="#5A5A5A" stroke-width="0.5"/>
<path d="M386.572 271.258C384.781 271.242 383.321 269.829 383.321 268.086C383.321 266.328 384.781 264.915 386.572 264.915C388.377 264.915 389.822 266.328 389.822 268.086C389.838 269.845 388.377 271.273 386.572 271.258Z" stroke="#5A5A5A" stroke-width="0.5"/>
<path d="M386.572 262.244C384.766 262.244 383.321 260.831 383.321 259.073C383.321 257.314 384.781 255.901 386.572 255.901C388.362 255.917 389.822 257.33 389.822 259.073C389.822 260.815 388.362 262.244 386.572 262.244Z" stroke="#5A5A5A" stroke-width="0.5"/>
<path d="M396.197 262.244C394.391 262.244 392.946 260.831 392.946 259.073C392.946 257.314 394.406 255.901 396.197 255.901C397.987 255.917 399.447 257.33 399.447 259.073C399.447 260.815 397.987 262.244 396.197 262.244Z" stroke="#5A5A5A" stroke-width="0.5"/>
<path d="M451.985 229H427.896L427.896 252.699H452L451.985 229Z" fill="white" stroke="#5A5A5A" stroke-width="0.5"/>
<path d="M445.378 230.803L432.061 230.803C431.319 230.803 430.955 231.167 430.955 231.925L430.955 249.532C430.955 250.259 431.319 250.638 432.046 250.653L445.378 250.638C446.105 250.653 446.469 250.275 446.469 249.532L446.469 231.925C446.499 231.182 446.121 230.803 445.378 230.803Z" fill="white" stroke="#5A5A5A" stroke-width="0.5"/>
<path d="M450.137 240.728C450.122 241.653 449.425 242.395 448.546 242.395L441.562 241.744L441.547 241.728C441.016 241.728 440.592 241.289 440.592 240.728C440.592 240.168 441.016 239.728 441.562 239.713L448.546 239.062C449.41 239.062 450.122 239.804 450.137 240.728Z" stroke="#5A5A5A" stroke-width="0.5"/>
<mask id="path-20-inside-1_69_2242" fill="white">
<path fill-rule="evenodd" clip-rule="evenodd" d="M449.453 242.107L445.65 241.744C445.12 241.729 444.681 241.289 444.696 240.713C444.696 240.153 445.12 239.728 445.65 239.713L449.453 239.35"/>
</mask>
<path fill-rule="evenodd" clip-rule="evenodd" d="M449.453 242.107L445.65 241.744C445.12 241.729 444.681 241.289 444.696 240.713C444.696 240.153 445.12 239.728 445.65 239.713L449.453 239.35" fill="white"/>
<path d="M445.65 241.744L445.665 241.244L445.681 241.244L445.698 241.246L445.65 241.744ZM444.696 240.713H445.196L445.196 240.727L444.696 240.713ZM445.65 239.713L445.698 240.211L445.681 240.213L445.665 240.213L445.65 239.713ZM449.406 242.605L445.603 242.241L445.698 241.246L449.501 241.61L449.406 242.605ZM445.636 242.244C444.831 242.221 444.174 241.552 444.196 240.7L445.196 240.727C445.188 241.026 445.409 241.237 445.665 241.244L445.636 242.244ZM444.196 240.713C444.196 239.884 444.834 239.236 445.636 239.213L445.665 240.213C445.407 240.22 445.196 240.421 445.196 240.713H444.196ZM445.603 239.216L449.406 238.852L449.501 239.847L445.698 240.211L445.603 239.216Z" fill="#5A5A5A" mask="url(#path-20-inside-1_69_2242)"/>
<path d="M9.00001 291L95 291L95 470L9 470L9.00001 291Z" fill="#FDFF9F"/>
<path d="M35.5238 310.72L34.3433 310.736L31.2773 310.72L23.686 310.72L23.686 320.677L35.5238 320.677C38.5406 320.677 41 318.433 41 315.682C41 312.963 38.5406 310.72 35.5238 310.72Z" fill="white" stroke="#5A5A5A" stroke-width="0.5"/>
<path d="M35.4575 311.866L34.5229 311.866L26.9644 311.866L26.9644 319.547L34.5229 319.547L35.4575 319.53C37.8348 319.53 39.7695 317.827 39.7695 315.698C39.7531 313.586 37.8184 311.866 35.4575 311.866Z" fill="white" stroke="#5A5A5A" stroke-width="0.5"/>
<path d="M17.324 322.478L22.587 322.478C23.1937 322.478 23.6855 321.987 23.6855 321.381L23.6855 310.097C23.6855 309.491 23.1937 309 22.587 309L17.324 309C16.7173 309 16.2254 309.491 16.2254 310.097L16.2254 321.365C16.2254 321.987 16.7173 322.478 17.324 322.478Z" fill="white" stroke="#5A5A5A" stroke-width="0.5"/>
<path d="M19.948 316.386C20.3578 316.386 20.6693 316.091 20.6693 315.747C20.6857 315.387 20.3578 315.092 19.948 315.092C19.5381 315.092 19.2266 315.387 19.2266 315.731C19.243 316.108 19.5545 316.402 19.948 316.386Z" fill="white" stroke="#5A5A5A" stroke-width="0.5"/>
<path d="M80.0007 344.848L80.0007 332.54C80.0007 331.685 79.3169 331 78.4622 331L59.9428 331C59.0881 331 58.4043 331.685 58.4043 332.54L58.4043 344.848C58.4043 345.704 59.0881 346.389 59.9428 346.389L78.4622 346.389C79.3027 346.389 80.0007 345.704 80.0007 344.848Z" fill="white" stroke="#5A5A5A" stroke-width="0.5"/>
<path d="M78.0782 340.156L78.0782 338.259C78.0782 335.764 76.0553 333.738 73.5623 333.738L64.844 333.738C62.351 333.738 60.3281 335.764 60.3281 338.259L60.3281 340.156C60.3281 342.652 62.351 344.677 64.844 344.677L73.5623 344.677C76.0553 344.677 78.0782 342.652 78.0782 340.156Z" fill="white" stroke="#5A5A5A" stroke-width="0.5"/>
<path d="M70.1569 342.267C70.1569 341.724 69.7296 341.283 69.2024 341.283C68.6753 341.283 68.248 341.724 68.248 342.267C68.248 342.81 68.6753 343.251 69.2024 343.251C69.7296 343.251 70.1569 342.81 70.1569 342.267Z" fill="white" stroke="#5A5A5A" stroke-width="0.5"/>
<rect width="30" height="106" transform="matrix(4.37114e-08 1 1 -4.37114e-08 230 55)" fill="#5A5A5A"/>
<line x1="418.268" y1="75.4224" x2="388.268" y2="94.4224" stroke="#5A5A5A"/>
<path d="M318.25 0.250157L428.707 0.313212L428.748 4.74999L318.25 4.75L318.25 0.250157Z" stroke="#5A5A5A" stroke-width="0.5" stroke-miterlimit="10"/>
<rect width="5" height="82" transform="matrix(-1 0 0 1 302 0)" fill="#5A5A5A"/>
<rect width="5" height="79" transform="matrix(-1 0 0 1 444 3)" fill="#5A5A5A"/>
<rect width="5" height="19" transform="matrix(4.37114e-08 1 1 -4.37114e-08 425 0)" fill="#5A5A5A"/>
<rect width="5" height="19" transform="matrix(4.37114e-08 1 1 -4.37114e-08 300 0)" fill="#5A5A5A"/>
<path d="M387.75 55.2503L324.275 55.3131L324.251 59.75L387.75 59.75L387.75 55.2503Z" stroke="#5A5A5A" stroke-width="0.5" stroke-miterlimit="10"/>
<path d="M387.75 65.2503L324.275 65.3131L324.251 69.75L387.75 69.75L387.75 65.2503Z" stroke="#5A5A5A" stroke-width="0.5" stroke-miterlimit="10"/>
<line y1="-0.5" x2="35.5106" y2="-0.5" transform="matrix(0.844819 0.535052 0.535052 -0.844819 38 68)" stroke="#5A5A5A"/>
<path d="M34.25 0.250186L124.715 0.313181L124.748 4.74999L34.25 4.75L34.25 0.250186Z" stroke="#5A5A5A" stroke-width="0.5" stroke-miterlimit="10"/>
<rect width="5" height="82" transform="matrix(-1 0 0 1 18 0)" fill="#5A5A5A"/>
<rect width="5" height="79" transform="matrix(-1 0 0 1 127 3)" fill="#5A5A5A"/>
<rect width="5" height="19" transform="matrix(4.37114e-08 1 1 -4.37114e-08 108 0)" fill="#5A5A5A"/>
<rect width="5" height="19" transform="matrix(4.37114e-08 1 1 -4.37114e-08 16 0)" fill="#5A5A5A"/>
<path d="M130.75 55.2503L67.2749 55.3131L67.2513 59.75L130.75 59.75L130.75 55.2503Z" stroke="#5A5A5A" stroke-width="0.5" stroke-miterlimit="10"/>
<path d="M130.75 65.2503L67.2749 65.3131L67.2513 69.75L130.75 69.75L130.75 65.2503Z" stroke="#5A5A5A" stroke-width="0.5" stroke-miterlimit="10"/>
<rect width="30" height="71" transform="matrix(4.37114e-08 1 1 -4.37114e-08 98 55)" fill="#5A5A5A"/>
<rect width="30" height="45" transform="matrix(4.37114e-08 1 1 -4.37114e-08 0 55)" fill="#5A5A5A"/>
<rect width="16" height="607" transform="matrix(-1 0 0 1 16 61)" fill="#5A5A5A"/>
<rect width="16" height="236" transform="matrix(-1 0 0 1 468 55)" fill="#5A5A5A"/>
<rect width="16" height="145" transform="matrix(4.37114e-08 1 1 -4.37114e-08 323 275)" fill="#5A5A5A"/>
<rect width="2" height="6" transform="matrix(4.37114e-08 -1 -1 -4.37114e-08 452 203)" fill="#5A5A5A"/>
<rect width="2" height="11" transform="matrix(4.37114e-08 -1 -1 -4.37114e-08 441 203)" fill="#5A5A5A"/>
<rect width="2" height="11" transform="matrix(4.37114e-08 -1 -1 -4.37114e-08 424 203)" fill="#5A5A5A"/>
<rect width="2" height="11" transform="matrix(4.37114e-08 -1 -1 -4.37114e-08 407 203)" fill="#5A5A5A"/>
<rect width="2" height="11" transform="matrix(4.37114e-08 -1 -1 -4.37114e-08 390 203)" fill="#5A5A5A"/>
<rect width="2" height="11" transform="matrix(4.37114e-08 -1 -1 -4.37114e-08 373 203)" fill="#5A5A5A"/>
<rect width="2" height="11" transform="matrix(4.37114e-08 -1 -1 -4.37114e-08 353 203)" fill="#5A5A5A"/>
<rect width="2" height="11" transform="matrix(4.37114e-08 -1 -1 -4.37114e-08 338 203)" fill="#5A5A5A"/>
<rect width="2" height="6" transform="matrix(1 8.74228e-08 8.74228e-08 -1 323 291)" fill="#5A5A5A"/>
<rect width="2" height="11" transform="matrix(1 8.74228e-08 8.74228e-08 -1 323 280)" fill="#5A5A5A"/>
<rect width="2" height="11" transform="matrix(1 8.74228e-08 8.74228e-08 -1 323 263)" fill="#5A5A5A"/>
<rect width="2" height="11" transform="matrix(1 8.74228e-08 8.74228e-08 -1 323 246)" fill="#5A5A5A"/>
<rect width="2" height="11" transform="matrix(1 8.74228e-08 8.74228e-08 -1 323 229)" fill="#5A5A5A"/>
<rect width="2" height="11" transform="matrix(1 8.74228e-08 8.74228e-08 -1 323 212)" fill="#5A5A5A"/>
<rect width="16" height="46" transform="matrix(1 -8.74228e-08 -8.74228e-08 -1 328 322)" fill="#5A5A5A"/>
<rect width="16" height="46" transform="matrix(1 -8.74228e-08 -8.74228e-08 -1 328 407)" fill="#5A5A5A"/>
<rect width="16" height="46" transform="matrix(1 -8.74228e-08 -8.74228e-08 -1 241 407)" fill="#5A5A5A"/>
<rect width="16" height="97" transform="matrix(-4.37114e-08 1 1 4.37114e-08 160 353)" fill="#5A5A5A"/>
<rect width="16" height="95" transform="matrix(4.37114e-08 -1 -1 -4.37114e-08 336 407)" fill="#5A5A5A"/>
<rect width="16" height="329" transform="matrix(-1 0 0 1 164 353)" fill="#5A5A5A"/>
<rect width="16" height="94" transform="matrix(4.37114e-08 1 1 -4.37114e-08 13 469)" fill="#5A5A5A"/>
<rect width="16" height="98" transform="matrix(4.37114e-08 1 1 -4.37114e-08 9 275)" fill="#5A5A5A"/>
<rect width="16" height="21" transform="matrix(4.37114e-08 1 1 -4.37114e-08 147 275)" fill="#5A5A5A"/>
<rect width="16" height="78" transform="matrix(4.37114e-08 1 1 -4.37114e-08 206 275)" fill="#5A5A5A"/>
<rect width="30" height="45" transform="matrix(4.37114e-08 1 1 -4.37114e-08 0 665)" fill="#5A5A5A"/>
<rect width="30" height="65" transform="matrix(4.37114e-08 1 1 -4.37114e-08 114 665)" fill="#5A5A5A"/>
<path d="M151.25 55.2502L331.677 55.4018L331.748 66.75L151.25 66.75L151.25 55.2502Z" stroke="#5A5A5A" stroke-width="0.5" stroke-miterlimit="10"/>
<path d="M33.25 665.25L170.695 665.402L170.749 676.75L33.25 676.75L33.25 665.25Z" stroke="#5A5A5A" stroke-width="0.5" stroke-miterlimit="10"/>
<path d="M151.25 73.2502L331.677 73.4018L331.748 84.75L151.25 84.75L151.25 73.2502Z" stroke="#5A5A5A" stroke-width="0.5" stroke-miterlimit="10"/>
<path d="M33.25 683.25L170.695 683.402L170.749 694.75L33.25 694.75L33.25 683.25Z" stroke="#5A5A5A" stroke-width="0.5" stroke-miterlimit="10"/>
<rect width="8" height="70" transform="matrix(-1 0 0 1 103 415)" fill="#5A5A5A"/>
<rect width="8" height="50" transform="matrix(-1 0 0 1 103 334)" fill="#5A5A5A"/>
<rect width="8" height="26" transform="matrix(-1 0 0 1 103 276)" fill="#5A5A5A"/>
<rect width="8" height="86" transform="matrix(4.37114e-08 1 1 -4.37114e-08 13 346)" fill="#5A5A5A"/>
<path d="M34.8949 371.72L33.7144 371.736L30.6484 371.72L23.0571 371.72L23.0571 381.677L34.8949 381.677C37.9117 381.677 40.3711 379.433 40.3711 376.682C40.3711 373.963 37.9117 371.72 34.8949 371.72Z" fill="white" stroke="#5A5A5A" stroke-width="0.5"/>
<path d="M34.8286 372.866L33.894 372.866L26.3355 372.866L26.3355 380.547L33.894 380.547L34.8286 380.53C37.2059 380.53 39.1406 378.827 39.1406 376.698C39.1242 374.586 37.1895 372.866 34.8286 372.866Z" fill="white" stroke="#5A5A5A" stroke-width="0.5"/>
<path d="M16.6951 383.478L21.9581 383.478C22.5648 383.478 23.0566 382.987 23.0566 382.381L23.0566 371.097C23.0566 370.491 22.5648 370 21.9581 370L16.6951 370C16.0884 370 15.5965 370.491 15.5965 371.097L15.5965 382.365C15.5965 382.987 16.0884 383.478 16.6951 383.478Z" fill="white" stroke="#5A5A5A" stroke-width="0.5"/>
<path d="M19.3191 377.386C19.7289 377.386 20.0404 377.091 20.0404 376.747C20.0568 376.387 19.7289 376.092 19.3191 376.092C18.9092 376.092 18.5977 376.387 18.5977 376.731C18.6141 377.108 18.9256 377.402 19.3191 377.386Z" fill="white" stroke="#5A5A5A" stroke-width="0.5"/>
<path d="M17.0657 414.145L29.3737 414.145C30.2295 414.145 30.914 413.461 30.914 412.607L30.914 394.087C30.914 393.233 30.2295 392.549 29.3737 392.549L17.0657 392.549C16.21 392.549 15.5254 393.233 15.5254 394.087L15.5254 412.607C15.5254 413.447 16.21 414.145 17.0657 414.145Z" fill="white" stroke="#5A5A5A" stroke-width="0.5"/>
<path d="M21.7573 412.222L23.6542 412.222C26.15 412.222 28.1752 410.199 28.1752 407.706L28.1752 398.988C28.1752 396.495 26.15 394.472 23.6542 394.472L21.7573 394.472C19.2615 394.472 17.2363 396.495 17.2363 398.988L17.2363 407.706C17.2363 410.199 19.2615 412.222 21.7573 412.222Z" fill="white" stroke="#5A5A5A" stroke-width="0.5"/>
<path d="M19.6461 404.302C20.1896 404.302 20.6301 403.875 20.6301 403.347C20.6301 402.82 20.1896 402.393 19.6461 402.393C19.1027 402.393 18.6621 402.82 18.6621 403.347C18.6621 403.875 19.1027 404.302 19.6461 404.302Z" fill="white" stroke="#5A5A5A" stroke-width="0.5"/>
<path d="M17.8643 442.844L77.985 442.844C78.7549 442.844 79.3708 443.459 79.3708 444.228L79.3708 468.095C79.3708 468.864 78.7549 469.479 77.985 469.479L17.8643 469.479C17.0944 469.479 16.4785 468.864 16.4785 468.095L16.4785 444.228C16.4785 443.459 17.1084 442.844 17.8643 442.844Z" fill="white" stroke="#5A5A5A" stroke-width="0.5"/>
<path d="M75.6746 452.925L75.6746 459.412C75.6746 463.173 72.623 466.208 68.8716 466.208L21.531 466.208C20.6071 466.208 19.8652 465.466 19.8652 464.544L19.8652 447.765C19.8652 446.843 20.6071 446.102 21.531 446.102L68.8576 446.102C72.623 446.116 75.6746 449.164 75.6746 452.925Z" fill="white" stroke="#5A5A5A" stroke-width="0.5"/>
<path d="M25.4798 455.693C25.4798 454.944 24.8468 454.336 24.0661 454.336C23.2853 454.336 22.6523 454.944 22.6523 455.693C22.6523 456.442 23.2853 457.049 24.0661 457.049C24.8468 457.049 25.4798 456.442 25.4798 455.693Z" fill="white" stroke="#5A5A5A" stroke-width="0.5"/>
<path d="M94.9996 376.024L94.9996 354.014L73.4121 354L73.4261 376.01L94.9996 376.024Z" fill="white" stroke="#5A5A5A" stroke-width="0.5"/>
<path d="M78.6699 365.005C78.6699 361.891 81.1447 359.377 84.2066 359.377C87.2686 359.377 89.7433 361.891 89.7433 365.019C89.7433 368.133 87.2686 370.675 84.2066 370.675C81.1447 370.661 78.6699 368.119 78.6699 365.005Z" stroke="#5A5A5A" stroke-width="0.5"/>
<path d="M84.205 369.125C83.0865 369.139 82.0799 368.678 81.3528 367.924C80.6258 367.17 80.1784 366.136 80.1644 365.019M84.1911 360.885C83.0865 360.885 82.0798 361.346 81.3388 362.086C80.6118 362.84 80.1504 363.86 80.1504 365.005L84.1911 360.885ZM84.205 369.125C85.3096 369.125 86.3162 368.664 87.0573 367.924C87.7843 367.17 88.2317 366.136 88.2317 365.005L84.205 369.125ZM84.1911 360.885C85.3236 360.885 86.3302 361.346 87.0433 362.086L87.0573 362.1C87.7703 362.84 88.2317 363.86 88.2317 364.991L84.1911 360.885Z" stroke="#5A5A5A" stroke-width="0.5"/>
<line y1="-0.5" x2="44.2945" y2="-0.5" transform="matrix(-0.880471 -0.4741 -0.4741 0.880471 149 471)" stroke="#5A5A5A"/>
<line y1="-0.5" x2="32.6497" y2="-0.5" transform="matrix(0.459423 -0.888218 -0.888218 -0.459423 101 418)" stroke="#5A5A5A"/>
<line y1="-0.5" x2="48.8774" y2="-0.5" transform="matrix(-0.859293 0.511484 0.511484 0.859293 329 287)" stroke="#5A5A5A"/>
<line y1="-0.5" x2="43.909" y2="-0.5" transform="matrix(0.501036 0.865426 0.865426 -0.501036 342 318)" stroke="#5A5A5A"/>
<line y1="-0.5" x2="33.541" y2="-0.5" transform="matrix(0.447214 0.894427 0.894427 -0.447214 101 299)" stroke="#5A5A5A"/>
<line y1="-0.5" x2="45.6508" y2="-0.5" transform="matrix(0.876216 0.481919 0.481919 -0.876216 104 288)" stroke="#5A5A5A"/>
<line y1="-0.5" x2="43.4166" y2="-0.5" transform="matrix(0.875242 0.483686 0.483686 -0.875242 165 288)" stroke="#5A5A5A"/>
<path d="M49.49 399.78C49.49 399.332 49.588 398.865 49.784 398.38C49.9893 397.885 50.1853 397.498 50.372 397.218C50.568 396.929 50.834 396.569 51.17 396.14L53.41 393.2H55.3L53.186 395.958L52.57 396.49V396.56L52.85 396.462C53.13 396.387 53.4333 396.35 53.76 396.35C54.6747 396.35 55.4493 396.681 56.084 397.344C56.728 397.997 57.05 398.809 57.05 399.78C57.05 400.769 56.6953 401.6 55.986 402.272C55.2767 402.944 54.3713 403.28 53.27 403.28C52.1687 403.28 51.2633 402.944 50.554 402.272C49.8447 401.6 49.49 400.769 49.49 399.78ZM51.744 398.324C51.3613 398.697 51.17 399.183 51.17 399.78C51.17 400.377 51.3613 400.867 51.744 401.25C52.1267 401.623 52.6353 401.81 53.27 401.81C53.9047 401.81 54.4133 401.623 54.796 401.25C55.1787 400.867 55.37 400.377 55.37 399.78C55.37 399.183 55.1787 398.697 54.796 398.324C54.4133 397.941 53.9047 397.75 53.27 397.75C52.6353 397.75 52.1267 397.941 51.744 398.324ZM58.1733 402.23C58.1733 401.95 58.2619 401.717 58.4393 401.53C58.6259 401.343 58.8546 401.25 59.1253 401.25C59.4333 401.25 59.6759 401.362 59.8533 401.586C60.0399 401.81 60.1333 402.141 60.1333 402.58C60.1333 403.299 59.9606 403.849 59.6153 404.232C59.2793 404.624 58.8219 404.82 58.2433 404.82V404.12C58.5233 404.12 58.7426 404.041 58.9013 403.882C59.0693 403.733 59.1533 403.532 59.1533 403.28V403.196C59.1439 403.187 59.1393 403.168 59.1393 403.14V403.098L59.0553 403.126C59.0273 403.135 58.9666 403.14 58.8733 403.14C58.6866 403.14 58.5233 403.056 58.3833 402.888C58.2433 402.72 58.1733 402.501 58.1733 402.23ZM62.6495 401.824C61.7628 400.853 61.3195 399.612 61.3195 398.1C61.3195 396.588 61.7628 395.347 62.6495 394.376C63.5361 393.405 64.6095 392.92 65.8695 392.92C67.1295 392.92 68.2028 393.405 69.0895 394.376C69.9761 395.347 70.4195 396.588 70.4195 398.1C70.4195 399.612 69.9761 400.853 69.0895 401.824C68.2028 402.795 67.1295 403.28 65.8695 403.28C64.6095 403.28 63.5361 402.795 62.6495 401.824ZM63.7975 395.412C63.2655 396.047 62.9995 396.943 62.9995 398.1C62.9995 399.257 63.2655 400.153 63.7975 400.788C64.3388 401.423 65.0295 401.74 65.8695 401.74C66.7095 401.74 67.3955 401.423 67.9275 400.788C68.4688 400.153 68.7395 399.257 68.7395 398.1C68.7395 396.943 68.4688 396.047 67.9275 395.412C67.3955 394.777 66.7095 394.46 65.8695 394.46C65.0295 394.46 64.3388 394.777 63.7975 395.412ZM71.2627 401.04V399.5L74.5527 393.2H76.3027L73.0127 399.5H76.2327V397.12H76.3027H77.8427V399.5H79.2427V401.04H77.8427V403H76.2327V401.04H71.2627Z" fill="#333333"/>
<path d="M71.35 573.42V571.6L73.17 570.2H74.64V580H73.03V572.16L71.35 573.42ZM76.1811 577.27H77.8611C77.9358 577.559 78.0618 577.807 78.2391 578.012C78.6498 578.497 79.2471 578.74 80.0311 578.74C80.6564 578.74 81.1511 578.572 81.5151 578.236C81.8791 577.9 82.0611 577.461 82.0611 576.92C82.0611 576.351 81.8791 575.893 81.5151 575.548C81.1511 575.203 80.6564 575.03 80.0311 575.03C79.4524 575.03 78.9624 575.184 78.5611 575.492C78.4024 575.613 78.2624 575.763 78.1411 575.94H76.6011L77.0211 570.2H82.9711V571.74H78.3511L78.1411 574.26H78.2111C78.3604 574.111 78.5331 573.985 78.7291 573.882C79.1678 573.621 79.6951 573.49 80.3111 573.49C81.2911 573.49 82.1078 573.817 82.7611 574.47C83.4144 575.123 83.7411 575.94 83.7411 576.92C83.7411 577.881 83.3958 578.684 82.7051 579.328C82.0238 579.963 81.1324 580.28 80.0311 580.28C78.5938 580.28 77.5251 579.781 76.8251 578.782C76.5264 578.343 76.3118 577.839 76.1811 577.27ZM84.7944 579.23C84.7944 578.95 84.883 578.717 85.0604 578.53C85.247 578.343 85.4757 578.25 85.7464 578.25C86.0544 578.25 86.297 578.362 86.4744 578.586C86.661 578.81 86.7544 579.141 86.7544 579.58C86.7544 580.299 86.5817 580.849 86.2364 581.232C85.9004 581.624 85.443 581.82 84.8644 581.82V581.12C85.1444 581.12 85.3637 581.041 85.5224 580.882C85.6904 580.733 85.7744 580.532 85.7744 580.28V580.196C85.765 580.187 85.7604 580.168 85.7604 580.14V580.098L85.6764 580.126C85.6484 580.135 85.5877 580.14 85.4944 580.14C85.3077 580.14 85.1444 580.056 85.0044 579.888C84.8644 579.72 84.7944 579.501 84.7944 579.23ZM87.5205 578.04V576.5L90.8105 570.2H92.5605L89.2705 576.5H92.4905V574.12H92.5605H94.1005V576.5H95.5005V578.04H94.1005V580H92.4905V578.04H87.5205ZM95.2162 571.74V570.2H101.866V571.74L97.9462 580H96.1962L100.046 571.88V571.74H95.2162Z" fill="#333333"/>
<path d="M56.42 320V318.46L59.766 316.094C60.494 315.571 61.0167 315.086 61.334 314.638C61.6513 314.19 61.81 313.714 61.81 313.21C61.81 312.678 61.6467 312.253 61.32 311.936C60.9933 311.619 60.55 311.46 59.99 311.46C59.2993 311.46 58.7813 311.74 58.436 312.3C58.2867 312.543 58.1747 312.823 58.1 313.14H56.42C56.504 312.543 56.686 312.006 56.966 311.53C57.6287 310.457 58.6367 309.92 59.99 309.92C61.026 309.92 61.866 310.228 62.51 310.844C63.1633 311.451 63.49 312.216 63.49 313.14C63.49 313.943 63.2847 314.666 62.874 315.31C62.4633 315.945 61.8053 316.575 60.9 317.2L59.5 318.18L58.87 318.46V318.53L59.71 318.46H63.49V320H56.42ZM64.6127 319.23C64.6127 318.95 64.7014 318.717 64.8787 318.53C65.0654 318.343 65.2941 318.25 65.5647 318.25C65.8727 318.25 66.1154 318.362 66.2927 318.586C66.4794 318.81 66.5727 319.141 66.5727 319.58C66.5727 320.299 66.4001 320.849 66.0547 321.232C65.7187 321.624 65.2614 321.82 64.6827 321.82V321.12C64.9627 321.12 65.1821 321.041 65.3407 320.882C65.5087 320.733 65.5927 320.532 65.5927 320.28V320.196C65.5834 320.187 65.5787 320.168 65.5787 320.14V320.098L65.4947 320.126C65.4667 320.135 65.4061 320.14 65.3127 320.14C65.1261 320.14 64.9627 320.056 64.8227 319.888C64.6827 319.72 64.6127 319.501 64.6127 319.23ZM67.6889 313.42C67.6889 312.431 68.0436 311.6 68.7529 310.928C69.4622 310.256 70.3676 309.92 71.4689 309.92C72.5702 309.92 73.4756 310.256 74.1849 310.928C74.8942 311.6 75.2489 312.431 75.2489 313.42C75.2489 314.307 74.8802 315.263 74.1429 316.29C74.0682 316.393 73.9656 316.533 73.8349 316.71C73.7042 316.878 73.6156 316.995 73.5689 317.06L71.3289 320H69.4389L71.5529 317.242L72.1689 316.71V316.64C72.1502 316.649 72.0569 316.687 71.8889 316.752C71.6462 316.817 71.3429 316.85 70.9789 316.85C70.0642 316.85 69.2849 316.523 68.6409 315.87C68.0062 315.207 67.6889 314.391 67.6889 313.42ZM69.9429 311.964C69.5602 312.337 69.3689 312.823 69.3689 313.42C69.3689 314.017 69.5602 314.507 69.9429 314.89C70.3256 315.263 70.8342 315.45 71.4689 315.45C72.1036 315.45 72.6122 315.263 72.9949 314.89C73.3776 314.507 73.5689 314.017 73.5689 313.42C73.5689 312.823 73.3776 312.337 72.9949 311.964C72.6122 311.581 72.1036 311.39 71.4689 311.39C70.8342 311.39 70.3256 311.581 69.9429 311.964ZM76.3022 317.34C76.3022 316.491 76.6289 315.814 77.2822 315.31C77.5622 315.114 77.8889 314.965 78.2622 314.862V314.778C77.9729 314.666 77.7162 314.512 77.4922 314.316C76.9789 313.877 76.7222 313.299 76.7222 312.58C76.7222 311.843 77.0349 311.217 77.6602 310.704C78.2949 310.181 79.1489 309.92 80.2222 309.92C81.2955 309.92 82.1449 310.181 82.7702 310.704C83.4049 311.217 83.7222 311.843 83.7222 312.58C83.7222 313.28 83.4655 313.859 82.9522 314.316C82.7095 314.512 82.4529 314.666 82.1822 314.778V314.862C82.5369 314.955 82.8635 315.109 83.1622 315.324C83.8155 315.828 84.1422 316.5 84.1422 317.34C84.1422 318.152 83.7875 318.847 83.0782 319.426C82.3782 319.995 81.4262 320.28 80.2222 320.28C79.0182 320.28 78.0615 319.995 77.3522 319.426C76.6522 318.847 76.3022 318.152 76.3022 317.34ZM78.4022 312.72C78.4022 313.131 78.5609 313.467 78.8782 313.728C79.1955 313.989 79.6435 314.12 80.2222 314.12C80.8009 314.12 81.2489 313.989 81.5662 313.728C81.8835 313.467 82.0422 313.131 82.0422 312.72C82.0422 312.347 81.8789 312.034 81.5522 311.782C81.2349 311.521 80.7915 311.39 80.2222 311.39C79.6529 311.39 79.2049 311.521 78.8782 311.782C78.5609 312.034 78.4022 312.347 78.4022 312.72ZM78.5702 316.066C78.1782 316.374 77.9822 316.752 77.9822 317.2C77.9822 317.648 78.1782 318.031 78.5702 318.348C78.9715 318.656 79.5222 318.81 80.2222 318.81C80.9222 318.81 81.4682 318.656 81.8602 318.348C82.2615 318.031 82.4622 317.648 82.4622 317.2C82.4622 316.752 82.2615 316.374 81.8602 316.066C81.4682 315.749 80.9222 315.59 80.2222 315.59C79.5222 315.59 78.9715 315.749 78.5702 316.066Z" fill="#333333"/>
</svg>
