<svg width="490" height="389" viewBox="0 0 490 389" fill="none" xmlns="http://www.w3.org/2000/svg">
<path d="M219 82.0001L219 328L0 328L1.0753e-05 82.0001L219 82.0001Z" fill="#FFF8BA"/>
<path d="M460 82.0001V299L170 299L170 82.0001L460 82.0001Z" fill="#FFF8BA"/>
<path d="M42.49 207.78C42.49 207.332 42.588 206.865 42.784 206.38C42.9893 205.885 43.1853 205.498 43.372 205.218C43.568 204.929 43.834 204.569 44.17 204.14L46.41 201.2H48.3L46.186 203.958L45.57 204.49V204.56L45.85 204.462C46.13 204.387 46.4333 204.35 46.76 204.35C47.6747 204.35 48.4493 204.681 49.084 205.344C49.728 205.997 50.05 206.809 50.05 207.78C50.05 208.769 49.6953 209.6 48.986 210.272C48.2767 210.944 47.3713 211.28 46.27 211.28C45.1687 211.28 44.2633 210.944 43.554 210.272C42.8447 209.6 42.49 208.769 42.49 207.78ZM44.744 206.324C44.3613 206.697 44.17 207.183 44.17 207.78C44.17 208.377 44.3613 208.867 44.744 209.25C45.1267 209.623 45.6353 209.81 46.27 209.81C46.9047 209.81 47.4133 209.623 47.796 209.25C48.1787 208.867 48.37 208.377 48.37 207.78C48.37 207.183 48.1787 206.697 47.796 206.324C47.4133 205.941 46.9047 205.75 46.27 205.75C45.6353 205.75 45.1267 205.941 44.744 206.324ZM51.1733 210.23C51.1733 209.95 51.2619 209.717 51.4393 209.53C51.6259 209.343 51.8546 209.25 52.1253 209.25C52.4333 209.25 52.6759 209.362 52.8533 209.586C53.0399 209.81 53.1333 210.141 53.1333 210.58C53.1333 211.299 52.9606 211.849 52.6153 212.232C52.2793 212.624 51.8219 212.82 51.2433 212.82V212.12C51.5233 212.12 51.7426 212.041 51.9013 211.882C52.0693 211.733 52.1533 211.532 52.1533 211.28V211.196C52.1439 211.187 52.1393 211.168 52.1393 211.14V211.098L52.0553 211.126C52.0273 211.135 51.9666 211.14 51.8733 211.14C51.6866 211.14 51.5233 211.056 51.3833 210.888C51.2433 210.72 51.1733 210.501 51.1733 210.23ZM53.8995 209.04V207.5L57.1895 201.2H58.9395L55.6495 207.5H58.8695V205.12H58.9395H60.4795V207.5H61.8795V209.04H60.4795V211H58.8695V209.04H53.8995ZM62.2989 211V209.46L65.6449 207.094C66.3729 206.571 66.8956 206.086 67.2129 205.638C67.5302 205.19 67.6889 204.714 67.6889 204.21C67.6889 203.678 67.5256 203.253 67.1989 202.936C66.8722 202.619 66.4289 202.46 65.8689 202.46C65.1782 202.46 64.6602 202.74 64.3149 203.3C64.1656 203.543 64.0536 203.823 63.9789 204.14H62.2989C62.3829 203.543 62.5649 203.006 62.8449 202.53C63.5076 201.457 64.5156 200.92 65.8689 200.92C66.9049 200.92 67.7449 201.228 68.3889 201.844C69.0422 202.451 69.3689 203.216 69.3689 204.14C69.3689 204.943 69.1636 205.666 68.7529 206.31C68.3422 206.945 67.6842 207.575 66.7789 208.2L65.3789 209.18L64.7489 209.46V209.53L65.5889 209.46H69.3689V211H62.2989Z" fill="#333333"/>
<path d="M191.21 35.04V33.5L194.5 27.2H196.25L192.96 33.5H196.18V31.12H196.25H197.79V33.5H199.19V35.04H197.79V37H196.18V35.04H191.21ZM199.749 36.23C199.749 35.95 199.838 35.7167 200.015 35.53C200.202 35.3433 200.431 35.25 200.701 35.25C201.009 35.25 201.252 35.362 201.429 35.586C201.616 35.81 201.709 36.1413 201.709 36.58C201.709 37.2987 201.537 37.8493 201.191 38.232C200.855 38.624 200.398 38.82 199.819 38.82V38.12C200.099 38.12 200.319 38.0407 200.477 37.882C200.645 37.7327 200.729 37.532 200.729 37.28V37.196C200.72 37.1867 200.715 37.168 200.715 37.14V37.098L200.631 37.126C200.603 37.1353 200.543 37.14 200.449 37.14C200.263 37.14 200.099 37.056 199.959 36.888C199.819 36.72 199.749 36.5007 199.749 36.23ZM202.406 28.74V27.2H209.056V28.74L205.136 37H203.386L207.236 28.88V28.74H202.406ZM209.551 33.78C209.551 33.332 209.649 32.8653 209.845 32.38C210.05 31.8853 210.246 31.498 210.433 31.218C210.629 30.9287 210.895 30.5693 211.231 30.14L213.471 27.2H215.361L213.247 29.958L212.631 30.49V30.56L212.911 30.462C213.191 30.3873 213.494 30.35 213.821 30.35C214.735 30.35 215.51 30.6813 216.145 31.344C216.789 31.9973 217.111 32.8093 217.111 33.78C217.111 34.7693 216.756 35.6 216.047 36.272C215.337 36.944 214.432 37.28 213.331 37.28C212.229 37.28 211.324 36.944 210.615 36.272C209.905 35.6 209.551 34.7693 209.551 33.78ZM211.805 32.324C211.422 32.6973 211.231 33.1827 211.231 33.78C211.231 34.3773 211.422 34.8673 211.805 35.25C212.187 35.6233 212.696 35.81 213.331 35.81C213.965 35.81 214.474 35.6233 214.857 35.25C215.239 34.8673 215.431 34.3773 215.431 33.78C215.431 33.1827 215.239 32.6973 214.857 32.324C214.474 31.9413 213.965 31.75 213.331 31.75C212.696 31.75 212.187 31.9413 211.805 32.324Z" fill="#333333"/>
<path d="M392.42 34.2H394.1C394.165 34.4893 394.291 34.746 394.478 34.97C394.898 35.4833 395.495 35.74 396.27 35.74C396.914 35.74 397.423 35.5813 397.796 35.264C398.179 34.9373 398.37 34.536 398.37 34.06C398.37 33.5187 398.197 33.094 397.852 32.786C397.516 32.4687 397.035 32.31 396.41 32.31H394.03V30.91L396.97 28.81V28.74H392.91V27.2H399.35V28.726L396.83 30.56L396.13 30.84V30.91L396.354 30.882C396.662 30.854 396.844 30.84 396.9 30.84C397.777 30.84 398.51 31.1433 399.098 31.75C399.686 32.3567 399.98 33.1267 399.98 34.06C399.98 34.956 399.635 35.7167 398.944 36.342C398.253 36.9673 397.362 37.28 396.27 37.28C394.823 37.28 393.755 36.7667 393.064 35.74C392.765 35.3013 392.551 34.788 392.42 34.2ZM401.037 36.23C401.037 35.95 401.125 35.7167 401.303 35.53C401.489 35.3433 401.718 35.25 401.989 35.25C402.297 35.25 402.539 35.362 402.717 35.586C402.903 35.81 402.997 36.1413 402.997 36.58C402.997 37.2987 402.824 37.8493 402.479 38.232C402.143 38.624 401.685 38.82 401.107 38.82V38.12C401.387 38.12 401.606 38.0407 401.765 37.882C401.933 37.7327 402.017 37.532 402.017 37.28V37.196C402.007 37.1867 402.003 37.168 402.003 37.14V37.098L401.919 37.126C401.891 37.1353 401.83 37.14 401.737 37.14C401.55 37.14 401.387 37.056 401.247 36.888C401.107 36.72 401.037 36.5007 401.037 36.23ZM404.043 33.78C404.043 33.332 404.141 32.8653 404.337 32.38C404.542 31.8853 404.738 31.498 404.925 31.218C405.121 30.9287 405.387 30.5693 405.723 30.14L407.963 27.2H409.853L407.739 29.958L407.123 30.49V30.56L407.403 30.462C407.683 30.3873 407.986 30.35 408.313 30.35C409.227 30.35 410.002 30.6813 410.637 31.344C411.281 31.9973 411.603 32.8093 411.603 33.78C411.603 34.7693 411.248 35.6 410.539 36.272C409.829 36.944 408.924 37.28 407.823 37.28C406.721 37.28 405.816 36.944 405.107 36.272C404.397 35.6 404.043 34.7693 404.043 33.78ZM406.297 32.324C405.914 32.6973 405.723 33.1827 405.723 33.78C405.723 34.3773 405.914 34.8673 406.297 35.25C406.679 35.6233 407.188 35.81 407.823 35.81C408.457 35.81 408.966 35.6233 409.349 35.25C409.731 34.8673 409.923 34.3773 409.923 33.78C409.923 33.1827 409.731 32.6973 409.349 32.324C408.966 31.9413 408.457 31.75 407.823 31.75C407.188 31.75 406.679 31.9413 406.297 32.324ZM412.656 33.78C412.656 33.332 412.754 32.8653 412.95 32.38C413.155 31.8853 413.351 31.498 413.538 31.218C413.734 30.9287 414 30.5693 414.336 30.14L416.576 27.2H418.466L416.352 29.958L415.736 30.49V30.56L416.016 30.462C416.296 30.3873 416.599 30.35 416.926 30.35C417.841 30.35 418.615 30.6813 419.25 31.344C419.894 31.9973 420.216 32.8093 420.216 33.78C420.216 34.7693 419.861 35.6 419.152 36.272C418.443 36.944 417.537 37.28 416.436 37.28C415.335 37.28 414.429 36.944 413.72 36.272C413.011 35.6 412.656 34.7693 412.656 33.78ZM414.91 32.324C414.527 32.6973 414.336 33.1827 414.336 33.78C414.336 34.3773 414.527 34.8673 414.91 35.25C415.293 35.6233 415.801 35.81 416.436 35.81C417.071 35.81 417.579 35.6233 417.962 35.25C418.345 34.8673 418.536 34.3773 418.536 33.78C418.536 33.1827 418.345 32.6973 417.962 32.324C417.579 31.9413 417.071 31.75 416.436 31.75C415.801 31.75 415.293 31.9413 414.91 32.324Z" fill="#333333"/>
<path d="M353.56 204.27H355.24C355.315 204.559 355.441 204.807 355.618 205.012C356.029 205.497 356.626 205.74 357.41 205.74C358.035 205.74 358.53 205.572 358.894 205.236C359.258 204.9 359.44 204.461 359.44 203.92C359.44 203.351 359.258 202.893 358.894 202.548C358.53 202.203 358.035 202.03 357.41 202.03C356.831 202.03 356.341 202.184 355.94 202.492C355.781 202.613 355.641 202.763 355.52 202.94H353.98L354.4 197.2H360.35V198.74H355.73L355.52 201.26H355.59C355.739 201.111 355.912 200.985 356.108 200.882C356.547 200.621 357.074 200.49 357.69 200.49C358.67 200.49 359.487 200.817 360.14 201.47C360.793 202.123 361.12 202.94 361.12 203.92C361.12 204.881 360.775 205.684 360.084 206.328C359.403 206.963 358.511 207.28 357.41 207.28C355.973 207.28 354.904 206.781 354.204 205.782C353.905 205.343 353.691 204.839 353.56 204.27ZM362.103 203.78C362.103 203.332 362.201 202.865 362.397 202.38C362.603 201.885 362.799 201.498 362.985 201.218C363.181 200.929 363.447 200.569 363.783 200.14L366.023 197.2H367.913L365.799 199.958L365.183 200.49V200.56L365.463 200.462C365.743 200.387 366.047 200.35 366.373 200.35C367.288 200.35 368.063 200.681 368.697 201.344C369.341 201.997 369.663 202.809 369.663 203.78C369.663 204.769 369.309 205.6 368.599 206.272C367.89 206.944 366.985 207.28 365.883 207.28C364.782 207.28 363.877 206.944 363.167 206.272C362.458 205.6 362.103 204.769 362.103 203.78ZM364.357 202.324C363.975 202.697 363.783 203.183 363.783 203.78C363.783 204.377 363.975 204.867 364.357 205.25C364.74 205.623 365.249 205.81 365.883 205.81C366.518 205.81 367.027 205.623 367.409 205.25C367.792 204.867 367.983 204.377 367.983 203.78C367.983 203.183 367.792 202.697 367.409 202.324C367.027 201.941 366.518 201.75 365.883 201.75C365.249 201.75 364.74 201.941 364.357 202.324ZM370.787 206.23C370.787 205.95 370.875 205.717 371.053 205.53C371.239 205.343 371.468 205.25 371.739 205.25C372.047 205.25 372.289 205.362 372.467 205.586C372.653 205.81 372.747 206.141 372.747 206.58C372.747 207.299 372.574 207.849 372.229 208.232C371.893 208.624 371.435 208.82 370.857 208.82V208.12C371.137 208.12 371.356 208.041 371.515 207.882C371.683 207.733 371.767 207.532 371.767 207.28V207.196C371.757 207.187 371.753 207.168 371.753 207.14V207.098L371.669 207.126C371.641 207.135 371.58 207.14 371.487 207.14C371.3 207.14 371.137 207.056 370.997 206.888C370.857 206.72 370.787 206.501 370.787 206.23ZM373.513 205.04V203.5L376.803 197.2H378.553L375.263 203.5H378.483V201.12H378.553H380.093V203.5H381.493V205.04H380.093V207H378.483V205.04H373.513ZM383.452 205.824C382.566 204.853 382.122 203.612 382.122 202.1C382.122 200.588 382.566 199.347 383.452 198.376C384.339 197.405 385.412 196.92 386.672 196.92C387.932 196.92 389.006 197.405 389.892 198.376C390.779 199.347 391.222 200.588 391.222 202.1C391.222 203.612 390.779 204.853 389.892 205.824C389.006 206.795 387.932 207.28 386.672 207.28C385.412 207.28 384.339 206.795 383.452 205.824ZM384.6 199.412C384.068 200.047 383.802 200.943 383.802 202.1C383.802 203.257 384.068 204.153 384.6 204.788C385.142 205.423 385.832 205.74 386.672 205.74C387.512 205.74 388.198 205.423 388.73 204.788C389.272 204.153 389.542 203.257 389.542 202.1C389.542 200.943 389.272 200.047 388.73 199.412C388.198 198.777 387.512 198.46 386.672 198.46C385.832 198.46 385.142 198.777 384.6 199.412Z" fill="#333333"/>
<path d="M158.35 277.42V275.6L160.17 274.2H161.64V284H160.03V276.16L158.35 277.42ZM164.581 282.824C163.694 281.853 163.251 280.612 163.251 279.1C163.251 277.588 163.694 276.347 164.581 275.376C165.468 274.405 166.541 273.92 167.801 273.92C169.061 273.92 170.134 274.405 171.021 275.376C171.908 276.347 172.351 277.588 172.351 279.1C172.351 280.612 171.908 281.853 171.021 282.824C170.134 283.795 169.061 284.28 167.801 284.28C166.541 284.28 165.468 283.795 164.581 282.824ZM165.729 276.412C165.197 277.047 164.931 277.943 164.931 279.1C164.931 280.257 165.197 281.153 165.729 281.788C166.27 282.423 166.961 282.74 167.801 282.74C168.641 282.74 169.327 282.423 169.859 281.788C170.4 281.153 170.671 280.257 170.671 279.1C170.671 277.943 170.4 277.047 169.859 276.412C169.327 275.777 168.641 275.46 167.801 275.46C166.961 275.46 166.27 275.777 165.729 276.412ZM173.544 283.23C173.544 282.95 173.633 282.717 173.81 282.53C173.997 282.343 174.226 282.25 174.496 282.25C174.804 282.25 175.047 282.362 175.224 282.586C175.411 282.81 175.504 283.141 175.504 283.58C175.504 284.299 175.332 284.849 174.986 285.232C174.65 285.624 174.193 285.82 173.614 285.82V285.12C173.894 285.12 174.114 285.041 174.272 284.882C174.44 284.733 174.524 284.532 174.524 284.28V284.196C174.515 284.187 174.51 284.168 174.51 284.14V284.098L174.426 284.126C174.398 284.135 174.338 284.14 174.244 284.14C174.058 284.14 173.894 284.056 173.754 283.888C173.614 283.72 173.544 283.501 173.544 283.23ZM176.481 281.2H178.161C178.226 281.489 178.352 281.746 178.539 281.97C178.959 282.483 179.556 282.74 180.331 282.74C180.975 282.74 181.483 282.581 181.857 282.264C182.239 281.937 182.431 281.536 182.431 281.06C182.431 280.519 182.258 280.094 181.913 279.786C181.577 279.469 181.096 279.31 180.471 279.31H178.091V277.91L181.031 275.81V275.74H176.971V274.2H183.411V275.726L180.891 277.56L180.191 277.84V277.91L180.415 277.882C180.723 277.854 180.905 277.84 180.961 277.84C181.838 277.84 182.571 278.143 183.159 278.75C183.747 279.357 184.041 280.127 184.041 281.06C184.041 281.956 183.695 282.717 183.005 283.342C182.314 283.967 181.423 284.28 180.331 284.28C178.884 284.28 177.815 283.767 177.125 282.74C176.826 282.301 176.611 281.788 176.481 281.2ZM184.957 284V282.46L188.303 280.094C189.031 279.571 189.554 279.086 189.871 278.638C190.188 278.19 190.347 277.714 190.347 277.21C190.347 276.678 190.184 276.253 189.857 275.936C189.53 275.619 189.087 275.46 188.527 275.46C187.836 275.46 187.318 275.74 186.973 276.3C186.824 276.543 186.712 276.823 186.637 277.14H184.957C185.041 276.543 185.223 276.006 185.503 275.53C186.166 274.457 187.174 273.92 188.527 273.92C189.563 273.92 190.403 274.228 191.047 274.844C191.7 275.451 192.027 276.216 192.027 277.14C192.027 277.943 191.822 278.666 191.411 279.31C191 279.945 190.342 280.575 189.437 281.2L188.037 282.18L187.407 282.46V282.53L188.247 282.46H192.027V284H184.957Z" fill="#333333"/>
<rect x="15" y="267" width="84" height="65" fill="#FFC79F"/>
<rect x="230" y="299" width="99" height="74" fill="#FFC79F"/>
<path d="M259.49 333.78C259.49 333.332 259.588 332.865 259.784 332.38C259.989 331.885 260.185 331.498 260.372 331.218C260.568 330.929 260.834 330.569 261.17 330.14L263.41 327.2H265.3L263.186 329.958L262.57 330.49V330.56L262.85 330.462C263.13 330.387 263.433 330.35 263.76 330.35C264.675 330.35 265.449 330.681 266.084 331.344C266.728 331.997 267.05 332.809 267.05 333.78C267.05 334.769 266.695 335.6 265.986 336.272C265.277 336.944 264.371 337.28 263.27 337.28C262.169 337.28 261.263 336.944 260.554 336.272C259.845 335.6 259.49 334.769 259.49 333.78ZM261.744 332.324C261.361 332.697 261.17 333.183 261.17 333.78C261.17 334.377 261.361 334.867 261.744 335.25C262.127 335.623 262.635 335.81 263.27 335.81C263.905 335.81 264.413 335.623 264.796 335.25C265.179 334.867 265.37 334.377 265.37 333.78C265.37 333.183 265.179 332.697 264.796 332.324C264.413 331.941 263.905 331.75 263.27 331.75C262.635 331.75 262.127 331.941 261.744 332.324ZM268.173 336.23C268.173 335.95 268.262 335.717 268.439 335.53C268.626 335.343 268.855 335.25 269.125 335.25C269.433 335.25 269.676 335.362 269.853 335.586C270.04 335.81 270.133 336.141 270.133 336.58C270.133 337.299 269.961 337.849 269.615 338.232C269.279 338.624 268.822 338.82 268.243 338.82V338.12C268.523 338.12 268.743 338.041 268.901 337.882C269.069 337.733 269.153 337.532 269.153 337.28V337.196C269.144 337.187 269.139 337.168 269.139 337.14V337.098L269.055 337.126C269.027 337.135 268.967 337.14 268.873 337.14C268.687 337.14 268.523 337.056 268.383 336.888C268.243 336.72 268.173 336.501 268.173 336.23ZM272.649 335.824C271.763 334.853 271.319 333.612 271.319 332.1C271.319 330.588 271.763 329.347 272.649 328.376C273.536 327.405 274.609 326.92 275.869 326.92C277.129 326.92 278.203 327.405 279.089 328.376C279.976 329.347 280.419 330.588 280.419 332.1C280.419 333.612 279.976 334.853 279.089 335.824C278.203 336.795 277.129 337.28 275.869 337.28C274.609 337.28 273.536 336.795 272.649 335.824ZM273.797 329.412C273.265 330.047 272.999 330.943 272.999 332.1C272.999 333.257 273.265 334.153 273.797 334.788C274.339 335.423 275.029 335.74 275.869 335.74C276.709 335.74 277.395 335.423 277.927 334.788C278.469 334.153 278.739 333.257 278.739 332.1C278.739 330.943 278.469 330.047 277.927 329.412C277.395 328.777 276.709 328.46 275.869 328.46C275.029 328.46 274.339 328.777 273.797 329.412ZM281.263 335.04V333.5L284.553 327.2H286.303L283.013 333.5H286.233V331.12H286.303H287.843V333.5H289.243V335.04H287.843V337H286.233V335.04H281.263Z" fill="#333333"/>
<rect x="86" y="52.0001" width="30" height="30" transform="rotate(90 86 52.0001)" fill="#5A5A5A"/>
<rect x="26" y="52.0001" width="30" height="26" transform="rotate(90 26 52.0001)" fill="#5A5A5A"/>
<path d="M71.21 291.04V289.5L74.5 283.2H76.25L72.96 289.5H76.18V287.12H76.25H77.79V289.5H79.19V291.04H77.79V293H76.18V291.04H71.21ZM79.7495 292.23C79.7495 291.95 79.8381 291.717 80.0155 291.53C80.2021 291.343 80.4308 291.25 80.7015 291.25C81.0095 291.25 81.2521 291.362 81.4295 291.586C81.6161 291.81 81.7095 292.141 81.7095 292.58C81.7095 293.299 81.5368 293.849 81.1915 294.232C80.8555 294.624 80.3981 294.82 79.8195 294.82V294.12C80.0995 294.12 80.3188 294.041 80.4775 293.882C80.6455 293.733 80.7295 293.532 80.7295 293.28V293.196C80.7201 293.187 80.7155 293.168 80.7155 293.14V293.098L80.6315 293.126C80.6035 293.135 80.5428 293.14 80.4495 293.14C80.2628 293.14 80.0995 293.056 79.9595 292.888C79.8195 292.72 79.7495 292.501 79.7495 292.23ZM82.6156 286.42V284.6L84.4356 283.2H85.9056V293H84.2956V285.16L82.6156 286.42ZM87.4467 286.42C87.4467 285.431 87.8014 284.6 88.5107 283.928C89.2201 283.256 90.1254 282.92 91.2267 282.92C92.3281 282.92 93.2334 283.256 93.9427 283.928C94.6521 284.6 95.0067 285.431 95.0067 286.42C95.0067 287.307 94.6381 288.263 93.9007 289.29C93.8261 289.393 93.7234 289.533 93.5927 289.71C93.4621 289.878 93.3734 289.995 93.3267 290.06L91.0867 293H89.1967L91.3107 290.242L91.9267 289.71V289.64C91.9081 289.649 91.8147 289.687 91.6467 289.752C91.4041 289.817 91.1007 289.85 90.7367 289.85C89.8221 289.85 89.0427 289.523 88.3987 288.87C87.7641 288.207 87.4467 287.391 87.4467 286.42ZM89.7007 284.964C89.3181 285.337 89.1267 285.823 89.1267 286.42C89.1267 287.017 89.3181 287.507 89.7007 287.89C90.0834 288.263 90.5921 288.45 91.2267 288.45C91.8614 288.45 92.3701 288.263 92.7527 287.89C93.1354 287.507 93.3267 287.017 93.3267 286.42C93.3267 285.823 93.1354 285.337 92.7527 284.964C92.3701 284.581 91.8614 284.39 91.2267 284.39C90.5921 284.39 90.0834 284.581 89.7007 284.964Z" fill="#333333"/>
<rect x="16" y="344" width="16" height="272" transform="rotate(-180 16 344)" fill="#5A5A5A"/>
<rect y="344" width="16" height="163" transform="rotate(-90 0 344)" fill="#5A5A5A"/>
<rect x="197" y="344" width="16" height="38" transform="rotate(-90 197 344)" fill="#5A5A5A"/>
<rect x="219" y="283" width="16" height="106" fill="#5A5A5A"/>
<rect x="341" y="373" width="16" height="106" transform="rotate(90 341 373)" fill="#5A5A5A"/>
<rect x="345" y="389" width="16" height="106" transform="rotate(-180 345 389)" fill="#5A5A5A"/>
<rect x="267" y="283" width="16" height="48" transform="rotate(90 267 283)" fill="#5A5A5A"/>
<rect x="490" y="283" width="16" height="196" transform="rotate(90 490 283)" fill="#5A5A5A"/>
<rect x="185" y="52.0001" width="30" height="65" transform="rotate(90 185 52.0001)" fill="#5A5A5A"/>
<path d="M63.9668 260.995L63.9668 236L88.2916 236L88.2916 260.995L63.9668 260.995Z" fill="white" stroke="#5A5A5A" stroke-width="0.5"/>
<path d="M64.8931 238.027L64.8931 257.48C64.8931 258.217 65.2857 258.61 66.0551 258.61L86.2027 258.61C86.9879 258.61 87.3648 258.233 87.3648 257.48L87.3648 238.027C87.3805 237.273 86.9879 236.896 86.2184 236.896L66.0708 236.896C65.2857 236.88 64.8931 237.273 64.8931 238.027Z" fill="white" stroke="#5A5A5A" stroke-width="0.5"/>
<path d="M71.3947 239.816C73.1849 239.831 74.6453 241.245 74.6453 242.987C74.6453 244.746 73.1849 246.159 71.3947 246.159C69.5888 246.159 68.144 244.746 68.144 242.987C68.144 241.229 69.5888 239.816 71.3947 239.816Z" stroke="#5A5A5A" stroke-width="0.5"/>
<path d="M81.0203 239.846C82.8105 239.862 84.2709 241.275 84.2709 243.017C84.2709 244.776 82.8105 246.189 81.0203 246.189C79.2144 246.189 77.7697 244.776 77.7697 243.017C77.754 241.259 79.2144 239.83 81.0203 239.846Z" stroke="#5A5A5A" stroke-width="0.5"/>
<path d="M81.0202 248.86C82.8261 248.86 84.2708 250.273 84.2708 252.031C84.2708 253.79 82.8104 255.203 81.0202 255.203C79.23 255.187 77.7695 253.774 77.7695 252.031C77.7695 250.288 79.23 248.86 81.0202 248.86Z" stroke="#5A5A5A" stroke-width="0.5"/>
<path d="M71.3947 248.86C73.2006 248.86 74.6453 250.273 74.6453 252.031C74.6453 253.79 73.1849 255.203 71.3947 255.203C69.6045 255.187 68.144 253.774 68.144 252.031C68.144 250.288 69.6045 248.86 71.3947 248.86Z" stroke="#5A5A5A" stroke-width="0.5"/>
<path d="M39.6992 260.98L39.6992 236.892L16.0002 236.892L16.0002 260.995L39.6992 260.98Z" fill="white" stroke="#5A5A5A" stroke-width="0.5"/>
<path d="M37.896 254.374L37.896 241.057C37.896 240.315 37.5323 239.951 36.7747 239.951L19.1671 239.951C18.4397 239.951 18.0609 240.315 18.0458 241.042L18.0609 254.374C18.0458 255.101 18.4246 255.465 19.1671 255.465L36.7747 255.465C37.5172 255.495 37.896 255.116 37.896 254.374Z" fill="white" stroke="#5A5A5A" stroke-width="0.5"/>
<path d="M27.9709 259.132C27.0466 259.116 26.3041 258.42 26.3041 257.541L26.9556 250.557L26.9708 250.542C26.9708 250.011 27.4102 249.587 27.9709 249.587C28.5315 249.587 28.971 250.011 28.9861 250.557L29.6377 257.541C29.6377 258.404 28.8952 259.116 27.9709 259.132Z" stroke="#5A5A5A" stroke-width="0.5"/>
<mask id="path-31-inside-1_35_10126" fill="white">
<path fill-rule="evenodd" clip-rule="evenodd" d="M26.5918 258.449L26.9555 254.646C26.9706 254.116 27.41 253.677 27.9859 253.692C28.5465 253.692 28.9708 254.116 28.9859 254.646L29.3496 258.449"/>
</mask>
<path fill-rule="evenodd" clip-rule="evenodd" d="M26.5918 258.449L26.9555 254.646C26.9706 254.116 27.41 253.677 27.9859 253.692C28.5465 253.692 28.9708 254.116 28.9859 254.646L29.3496 258.449" fill="white"/>
<path d="M26.9555 254.646L27.4553 254.661L27.4548 254.677L27.4532 254.694L26.9555 254.646ZM27.9859 253.692L27.9859 254.192L27.9727 254.192L27.9859 253.692ZM28.9859 254.646L28.4882 254.694L28.4866 254.677L28.4861 254.661L28.9859 254.646ZM26.0941 258.401L26.4577 254.599L27.4532 254.694L27.0895 258.497L26.0941 258.401ZM26.4557 254.632C26.4787 253.827 27.1467 253.17 27.999 253.192L27.9727 254.192C27.6733 254.184 27.4626 254.405 27.4553 254.661L26.4557 254.632ZM27.9859 253.192C28.8152 253.192 29.4628 253.83 29.4857 254.632L28.4861 254.661C28.4788 254.403 28.2778 254.192 27.9859 254.192L27.9859 253.192ZM29.4837 254.599L29.8473 258.401L28.8519 258.497L28.4882 254.694L29.4837 254.599Z" fill="#5A5A5A" mask="url(#path-31-inside-1_35_10126)"/>
<rect x="107" y="174" width="2" height="11" transform="rotate(90 107 174)" fill="#5A5A5A"/>
<rect x="90" y="174" width="2" height="11" transform="rotate(90 90 174)" fill="#5A5A5A"/>
<rect x="73" y="174" width="2" height="11" transform="rotate(90 73 174)" fill="#5A5A5A"/>
<rect x="56" y="174" width="2" height="11" transform="rotate(90 56 174)" fill="#5A5A5A"/>
<rect x="39" y="174" width="2" height="11" transform="rotate(90 39 174)" fill="#5A5A5A"/>
<rect x="22" y="174" width="2" height="6" transform="rotate(90 22 174)" fill="#5A5A5A"/>
<rect x="107" y="323" width="2" height="11" transform="rotate(-180 107 323)" fill="#5A5A5A"/>
<rect x="107" y="272" width="2" height="11" transform="rotate(-180 107 272)" fill="#5A5A5A"/>
<rect x="107" y="255" width="2" height="11" transform="rotate(-180 107 255)" fill="#5A5A5A"/>
<rect x="107" y="238" width="2" height="11" transform="rotate(-180 107 238)" fill="#5A5A5A"/>
<rect x="107" y="221" width="2" height="11" transform="rotate(-180 107 221)" fill="#5A5A5A"/>
<rect x="107" y="204" width="2" height="11" transform="rotate(-180 107 204)" fill="#5A5A5A"/>
<rect x="107" y="187" width="2" height="6" transform="rotate(-180 107 187)" fill="#5A5A5A"/>
<line y1="-0.5" x2="29.1548" y2="-0.5" transform="matrix(0.857493 0.514496 0.514496 -0.857493 177 67)" stroke="#5A5A5A"/>
<path d="M261.75 0.250166L158.291 0.313203L158.252 4.74999L261.75 4.75001L261.75 0.250166Z" stroke="#5A5A5A" stroke-width="0.5" stroke-miterlimit="10"/>
<rect x="273" y="0.000244141" width="5" height="74" fill="#5A5A5A"/>
<rect x="145" y="6.10352e-05" width="5" height="74" fill="#5A5A5A"/>
<rect x="168" width="5" height="19" transform="rotate(90 168 0)" fill="#5A5A5A"/>
<rect x="275" width="5" height="19" transform="rotate(90 275 0)" fill="#5A5A5A"/>
<path d="M204.25 52.2503L264.726 52.3131L264.749 56.75L204.25 56.75L204.25 52.2503Z" stroke="#5A5A5A" stroke-width="0.5" stroke-miterlimit="10"/>
<path d="M204.25 62.2503L264.726 62.3131L264.749 66.75L204.25 66.75L204.25 62.2503Z" stroke="#5A5A5A" stroke-width="0.5" stroke-miterlimit="10"/>
<line y1="-0.5" x2="29.1548" y2="-0.5" transform="matrix(0.857493 0.514496 0.514496 -0.857493 377 67)" stroke="#5A5A5A"/>
<path d="M356.25 0.25019L444.715 0.313177L444.748 4.74999L356.25 4.75001L356.25 0.25019Z" stroke="#5A5A5A" stroke-width="0.5" stroke-miterlimit="10"/>
<rect width="5" height="74" transform="matrix(-1 0 0 1 358 0.000244141)" fill="#5A5A5A"/>
<rect width="5" height="74" transform="matrix(-1 0 0 1 458 6.10352e-05)" fill="#5A5A5A"/>
<rect width="5" height="19" transform="matrix(4.37114e-08 1 1 -4.37114e-08 435 0)" fill="#5A5A5A"/>
<rect width="5" height="19" transform="matrix(4.37114e-08 1 1 -4.37114e-08 356 0)" fill="#5A5A5A"/>
<path d="M404.25 52.2503L464.726 52.3131L464.749 56.75L404.25 56.75L404.25 52.2503Z" stroke="#5A5A5A" stroke-width="0.5" stroke-miterlimit="10"/>
<path d="M404.25 62.2503L464.726 62.3131L464.749 66.75L404.25 66.75L404.25 62.2503Z" stroke="#5A5A5A" stroke-width="0.5" stroke-miterlimit="10"/>
<rect x="107" y="261" width="8" height="97" transform="rotate(90 107 261)" fill="#5A5A5A"/>
<rect x="172" y="231" width="8" height="14" transform="rotate(90 172 231)" fill="#5A5A5A"/>
<rect x="107" y="274" width="8" height="10" transform="rotate(-180 107 274)" fill="#5A5A5A"/>
<rect x="158.145" y="231.162" width="8" height="63.6756" transform="rotate(60 158.145 231.162)" fill="#5A5A5A"/>
<rect x="107" y="335" width="8" height="36" transform="rotate(-180 107 335)" fill="#5A5A5A"/>
<path d="M86.7588 308.476L86.7424 309.657L86.7588 312.723V320.314H76.8015V308.476C76.8015 305.459 79.0452 303 81.7965 303C84.5151 303 86.7588 305.459 86.7588 308.476Z" fill="white" stroke="#5A5A5A" stroke-width="0.5"/>
<path d="M85.6128 308.542V309.476V317.035H77.932V309.476L77.9483 308.542C77.9483 306.164 79.6516 304.23 81.7806 304.23C83.8932 304.246 85.6128 306.181 85.6128 308.542Z" fill="white" stroke="#5A5A5A" stroke-width="0.5"/>
<path d="M75.0001 326.676V321.412C75.0001 320.806 75.4914 320.314 76.0974 320.314H87.3813C87.9872 320.314 88.4785 320.806 88.4785 321.412V326.676C88.4785 327.282 87.9872 327.774 87.3813 327.774H76.1138C75.4914 327.774 75.0001 327.282 75.0001 326.676Z" fill="white" stroke="#5A5A5A" stroke-width="0.5"/>
<path d="M81.0925 324.052C81.0925 323.642 81.3873 323.331 81.7312 323.331C82.0915 323.314 82.3862 323.642 82.3862 324.052C82.3862 324.462 82.0914 324.774 81.7475 324.774C81.3709 324.757 81.0761 324.446 81.0925 324.052Z" fill="white" stroke="#5A5A5A" stroke-width="0.5"/>
<path d="M46.0002 326.848L46.0002 314.54C46.0002 313.685 46.684 313 47.5388 313L66.0582 313C66.9129 313 67.5967 313.685 67.5967 314.54L67.5967 326.848C67.5967 327.704 66.9129 328.389 66.0582 328.389L47.5388 328.389C46.6983 328.389 46.0002 327.704 46.0002 326.848Z" fill="white" stroke="#5A5A5A" stroke-width="0.5"/>
<path d="M47.9233 322.156L47.9233 320.26C47.9233 317.764 49.9461 315.738 52.4391 315.738L61.1575 315.738C63.6505 315.738 65.6733 317.764 65.6733 320.26L65.6733 322.156C65.6733 324.652 63.6505 326.677 61.1575 326.677L52.4391 326.677C49.9461 326.677 47.9233 324.652 47.9233 322.156Z" fill="white" stroke="#5A5A5A" stroke-width="0.5"/>
<path d="M55.8436 324.267C55.8436 323.724 56.2709 323.283 56.798 323.283C57.3251 323.283 57.7524 323.724 57.7524 324.267C57.7524 324.811 57.3251 325.251 56.798 325.251C56.2709 325.251 55.8436 324.811 55.8436 324.267Z" fill="white" stroke="#5A5A5A" stroke-width="0.5"/>
<path d="M40.9871 326.7L40.9871 270.3C40.9871 269.578 40.41 269 39.6885 269L17.2985 269C16.5771 269 16 269.578 16 270.3L16 326.7C16 327.422 16.5771 328 17.2985 328L39.6885 328C40.41 328 40.9871 327.409 40.9871 326.7Z" fill="white" stroke="#5A5A5A" stroke-width="0.5"/>
<path d="M31.5296 272.467L25.4435 272.467C21.9151 272.467 19.0688 275.33 19.0688 278.849L19.0688 323.26C19.0688 324.126 19.764 324.822 20.6297 324.822L36.3696 324.822C37.2353 324.822 37.9305 324.126 37.9305 323.26L37.9305 278.862C37.9173 275.33 35.0579 272.467 31.5296 272.467Z" fill="white" stroke="#5A5A5A" stroke-width="0.5"/>
<path d="M28.9329 319.557C29.6355 319.557 30.2051 320.15 30.2051 320.883C30.2051 321.615 29.6355 322.209 28.9329 322.209C28.2303 322.209 27.6606 321.615 27.6606 320.883C27.6606 320.15 28.2303 319.557 28.9329 319.557Z" fill="white" stroke="#5A5A5A" stroke-width="0.5"/>
<path d="M45.0002 269L67.01 269L67.0239 290.588L45.0142 290.574L45.0002 269Z" fill="white" stroke="#5A5A5A" stroke-width="0.5"/>
<path d="M56.0188 285.331C59.1332 285.331 61.647 282.856 61.647 279.794C61.647 276.732 59.1332 274.257 56.0049 274.257C52.8906 274.257 50.3488 276.732 50.3488 279.794C50.3628 282.856 52.9045 285.331 56.0188 285.331Z" stroke="#5A5A5A" stroke-width="0.5"/>
<path d="M51.899 279.794C51.885 280.912 52.3459 281.919 53.1 282.646C53.8542 283.373 54.8876 283.821 56.0049 283.835M60.1387 279.808C60.1387 280.912 59.6778 281.919 58.9376 282.66C58.1835 283.387 57.164 283.849 56.0188 283.849L60.1387 279.808ZM51.899 279.794C51.899 278.689 52.3598 277.683 53.1 276.942C53.8542 276.215 54.8876 275.767 56.0188 275.767L51.899 279.794ZM60.1387 279.808C60.1387 278.675 59.6778 277.669 58.9376 276.956L58.9237 276.942C58.1835 276.229 57.164 275.767 56.0328 275.767L60.1387 279.808Z" stroke="#5A5A5A" stroke-width="0.5"/>
<path d="M253.72 353.976L253.736 355.156L253.72 358.222V365.813H263.677V353.976C263.677 350.959 261.433 348.5 258.682 348.5C255.963 348.5 253.72 350.959 253.72 353.976Z" fill="white" stroke="#5A5A5A" stroke-width="0.5"/>
<path d="M254.866 354.041V354.976V362.534H262.547V354.976L262.53 354.041C262.53 351.664 260.827 349.729 258.698 349.729C256.585 349.746 254.866 351.68 254.866 354.041Z" fill="white" stroke="#5A5A5A" stroke-width="0.5"/>
<path d="M265.478 372.175V366.912C265.478 366.305 264.987 365.813 264.381 365.813H253.097C252.491 365.813 252 366.305 252 366.912V372.175C252 372.782 252.491 373.274 253.097 373.274H264.365C264.987 373.274 265.478 372.782 265.478 372.175Z" fill="white" stroke="#5A5A5A" stroke-width="0.5"/>
<path d="M259.386 369.552C259.386 369.142 259.091 368.83 258.747 368.83C258.387 368.814 258.092 369.142 258.092 369.552C258.092 369.962 258.387 370.273 258.731 370.273C259.108 370.257 259.402 369.945 259.386 369.552Z" fill="white" stroke="#5A5A5A" stroke-width="0.5"/>
<path d="M296.478 371.348L296.478 359.04C296.478 358.184 295.794 357.499 294.94 357.499L276.42 357.499C275.566 357.499 274.882 358.184 274.882 359.04L274.882 371.348C274.882 372.203 275.566 372.888 276.42 372.888L294.94 372.888C295.78 372.888 296.478 372.203 296.478 371.348Z" fill="white" stroke="#5A5A5A" stroke-width="0.5"/>
<path d="M294.555 366.656L294.555 364.759C294.555 362.263 292.532 360.238 290.039 360.238L281.321 360.238C278.828 360.238 276.805 362.263 276.805 364.759L276.805 366.656C276.805 369.152 278.828 371.177 281.321 371.177L290.039 371.177C292.532 371.177 294.555 369.152 294.555 366.656Z" fill="white" stroke="#5A5A5A" stroke-width="0.5"/>
<path d="M286.635 368.766C286.635 368.223 286.208 367.782 285.68 367.782C285.153 367.782 284.726 368.223 284.726 368.766C284.726 369.31 285.153 369.75 285.68 369.75C286.208 369.75 286.635 369.31 286.635 368.766Z" fill="white" stroke="#5A5A5A" stroke-width="0.5"/>
<path d="M301 372.018L301 307.737C301 306.914 301.658 306.256 302.48 306.256L327.999 306.256C328.821 306.256 329.479 306.914 329.479 307.737L329.479 372.018C329.479 372.841 328.821 373.5 327.999 373.5L302.48 373.5C301.658 373.5 301 372.826 301 372.018Z" fill="white" stroke="#5A5A5A" stroke-width="0.5"/>
<path d="M311.779 310.207L318.715 310.207C322.736 310.207 325.98 313.47 325.98 317.481L325.98 368.097C325.98 369.085 325.188 369.878 324.202 369.878L306.262 369.878C305.276 369.878 304.483 369.085 304.483 368.097L304.483 317.496C304.498 313.47 307.757 310.207 311.779 310.207Z" fill="white" stroke="#5A5A5A" stroke-width="0.5"/>
<path d="M314.738 363.876C313.938 363.876 313.288 364.553 313.288 365.388C313.288 366.223 313.938 366.899 314.738 366.899C315.539 366.899 316.188 366.223 316.188 365.388C316.188 364.553 315.539 363.876 314.738 363.876Z" fill="white" stroke="#5A5A5A" stroke-width="0.5"/>
<path d="M257.024 299L235.014 299L235 320.588L257.01 320.574L257.024 299Z" fill="white" stroke="#5A5A5A" stroke-width="0.5"/>
<path d="M246.005 315.331C242.891 315.331 240.377 312.856 240.377 309.794C240.377 306.732 242.891 304.257 246.019 304.257C249.133 304.257 251.675 306.732 251.675 309.794C251.661 312.856 249.119 315.331 246.005 315.331Z" stroke="#5A5A5A" stroke-width="0.5"/>
<path d="M250.125 309.794C250.139 310.912 249.678 311.919 248.924 312.646C248.17 313.373 247.136 313.821 246.019 313.835M241.885 309.808C241.885 310.912 242.346 311.919 243.086 312.66C243.84 313.387 244.86 313.849 246.005 313.849L241.885 309.808ZM250.125 309.794C250.125 308.689 249.664 307.683 248.924 306.942C248.17 306.215 247.136 305.767 246.005 305.767L250.125 309.794ZM241.885 309.808C241.885 308.675 242.346 307.669 243.086 306.956L243.1 306.942C243.84 306.229 244.86 305.767 245.991 305.767L241.885 309.808Z" stroke="#5A5A5A" stroke-width="0.5"/>
<rect x="302" y="287" width="8" height="56" transform="rotate(-180 302 287)" fill="#5A5A5A"/>
<rect x="277" y="239" width="8" height="25" transform="rotate(-90 277 239)" fill="#5A5A5A"/>
<rect x="282" y="52.0001" width="30" height="43" transform="rotate(90 282 52.0001)" fill="#5A5A5A"/>
<path d="M132.75 52.2504L12.2986 52.4018L12.251 63.7501L132.75 63.7501L132.75 52.2504Z" stroke="#5A5A5A" stroke-width="0.5" stroke-miterlimit="10"/>
<path d="M371.75 52.2504L251.299 52.4018L251.251 63.7501L371.75 63.7501L371.75 52.2504Z" stroke="#5A5A5A" stroke-width="0.5" stroke-miterlimit="10"/>
<path d="M132.75 70.2504L12.2986 70.4019L12.251 81.7501L132.75 81.7501L132.75 70.2504Z" stroke="#5A5A5A" stroke-width="0.5" stroke-miterlimit="10"/>
<path d="M371.75 70.2504L251.299 70.4019L251.251 81.7501L371.75 81.7501L371.75 70.2504Z" stroke="#5A5A5A" stroke-width="0.5" stroke-miterlimit="10"/>
<rect x="377" y="52" width="30" height="34" transform="rotate(90 377 52)" fill="#5A5A5A"/>
<rect x="490" y="52.0001" width="30" height="49" transform="rotate(90 490 52.0001)" fill="#5A5A5A"/>
<rect x="490" y="142" width="30" height="77" transform="rotate(-180 490 142)" fill="#5A5A5A"/>
<rect x="490" y="297" width="30" height="101" transform="rotate(-180 490 297)" fill="#5A5A5A"/>
<path d="M279.75 233.25L238.709 233.275L238.697 234.75L279.75 234.75L279.75 233.25Z" stroke="#5A5A5A" stroke-width="0.5" stroke-miterlimit="10"/>
<path d="M211.306 233.25L170.265 233.275L170.252 234.75L211.306 234.75L211.306 233.25Z" stroke="#5A5A5A" stroke-width="0.5" stroke-miterlimit="10"/>
<path d="M245.528 231.25L204.487 231.275L204.474 232.75L245.528 232.75L245.528 231.25Z" stroke="#5A5A5A" stroke-width="0.5" stroke-miterlimit="10"/>
<line x1="296.734" y1="286.423" x2="269.734" y2="269.423" stroke="#5A5A5A"/>
<line x1="105.422" y1="272.732" x2="119.422" y2="294.732" stroke="#5A5A5A"/>
<line x1="199.245" y1="342.436" x2="167.245" y2="360.436" stroke="#5A5A5A"/>
<circle cx="262.5" cy="141.5" r="39.5" fill="#5A5A5A"/>
<path d="M239.72 145.58C239.72 144.488 240.14 143.618 240.98 142.97C241.34 142.718 241.76 142.526 242.24 142.394V142.286C241.868 142.142 241.538 141.944 241.25 141.692C240.59 141.128 240.26 140.384 240.26 139.46C240.26 138.512 240.662 137.708 241.466 137.048C242.282 136.376 243.38 136.04 244.76 136.04C246.14 136.04 247.232 136.376 248.036 137.048C248.852 137.708 249.26 138.512 249.26 139.46C249.26 140.36 248.93 141.104 248.27 141.692C247.958 141.944 247.628 142.142 247.28 142.286V142.394C247.736 142.514 248.156 142.712 248.54 142.988C249.38 143.636 249.8 144.5 249.8 145.58C249.8 146.624 249.344 147.518 248.432 148.262C247.532 148.994 246.308 149.36 244.76 149.36C243.212 149.36 241.982 148.994 241.07 148.262C240.17 147.518 239.72 146.624 239.72 145.58ZM242.42 139.64C242.42 140.168 242.624 140.6 243.032 140.936C243.44 141.272 244.016 141.44 244.76 141.44C245.504 141.44 246.08 141.272 246.488 140.936C246.896 140.6 247.1 140.168 247.1 139.64C247.1 139.16 246.89 138.758 246.47 138.434C246.062 138.098 245.492 137.93 244.76 137.93C244.028 137.93 243.452 138.098 243.032 138.434C242.624 138.758 242.42 139.16 242.42 139.64ZM242.636 143.942C242.132 144.338 241.88 144.824 241.88 145.4C241.88 145.976 242.132 146.468 242.636 146.876C243.152 147.272 243.86 147.47 244.76 147.47C245.66 147.47 246.362 147.272 246.866 146.876C247.382 146.468 247.64 145.976 247.64 145.4C247.64 144.824 247.382 144.338 246.866 143.942C246.362 143.534 245.66 143.33 244.76 143.33C243.86 143.33 243.152 143.534 242.636 143.942ZM251.054 145.4H253.214C253.298 145.772 253.46 146.102 253.7 146.39C254.24 147.05 255.008 147.38 256.004 147.38C256.832 147.38 257.486 147.176 257.966 146.768C258.458 146.348 258.704 145.832 258.704 145.22C258.704 144.524 258.482 143.978 258.038 143.582C257.606 143.174 256.988 142.97 256.184 142.97H253.124V141.17L256.904 138.47V138.38H251.684V136.4H259.964V138.362L256.724 140.72L255.824 141.08V141.17L256.112 141.134C256.508 141.098 256.742 141.08 256.814 141.08C257.942 141.08 258.884 141.47 259.64 142.25C260.396 143.03 260.774 144.02 260.774 145.22C260.774 146.372 260.33 147.35 259.442 148.154C258.554 148.958 257.408 149.36 256.004 149.36C254.144 149.36 252.77 148.7 251.882 147.38C251.498 146.816 251.222 146.156 251.054 145.4ZM262.132 148.01C262.132 147.65 262.246 147.35 262.474 147.11C262.714 146.87 263.008 146.75 263.356 146.75C263.752 146.75 264.064 146.894 264.292 147.182C264.532 147.47 264.652 147.896 264.652 148.46C264.652 149.384 264.43 150.092 263.986 150.584C263.554 151.088 262.966 151.34 262.222 151.34V150.44C262.582 150.44 262.864 150.338 263.068 150.134C263.284 149.942 263.392 149.684 263.392 149.36V149.252C263.38 149.24 263.374 149.216 263.374 149.18V149.126L263.266 149.162C263.23 149.174 263.152 149.18 263.032 149.18C262.792 149.18 262.582 149.072 262.402 148.856C262.222 148.64 262.132 148.358 262.132 148.01ZM265.907 145.4H268.067C268.151 145.772 268.313 146.102 268.553 146.39C269.093 147.05 269.861 147.38 270.857 147.38C271.685 147.38 272.339 147.176 272.819 146.768C273.311 146.348 273.557 145.832 273.557 145.22C273.557 144.524 273.335 143.978 272.891 143.582C272.459 143.174 271.841 142.97 271.037 142.97H267.977V141.17L271.757 138.47V138.38H266.537V136.4H274.817V138.362L271.577 140.72L270.677 141.08V141.17L270.965 141.134C271.361 141.098 271.595 141.08 271.667 141.08C272.795 141.08 273.737 141.47 274.493 142.25C275.249 143.03 275.627 144.02 275.627 145.22C275.627 146.372 275.183 147.35 274.295 148.154C273.407 148.958 272.261 149.36 270.857 149.36C268.997 149.36 267.623 148.7 266.735 147.38C266.351 146.816 266.075 146.156 265.907 145.4ZM276.446 138.38V136.4H284.996V138.38L279.956 149H277.706L282.656 138.56V138.38H276.446Z" fill="white"/>
</svg>
