<svg width="490" height="391" viewBox="0 0 490 391" fill="none" xmlns="http://www.w3.org/2000/svg">
<path d="M219 84L219 330L0 330L1.0753e-05 84L219 84Z" fill="#FFF8BA"/>
<path d="M460 84V301L170 301L170 84L460 84Z" fill="#FFF8BA"/>
<path d="M42.49 209.78C42.49 209.332 42.588 208.865 42.784 208.38C42.9893 207.885 43.1853 207.498 43.372 207.218C43.568 206.929 43.834 206.569 44.17 206.14L46.41 203.2H48.3L46.186 205.958L45.57 206.49V206.56L45.85 206.462C46.13 206.387 46.4333 206.35 46.76 206.35C47.6747 206.35 48.4493 206.681 49.084 207.344C49.728 207.997 50.05 208.809 50.05 209.78C50.05 210.769 49.6953 211.6 48.986 212.272C48.2767 212.944 47.3713 213.28 46.27 213.28C45.1687 213.28 44.2633 212.944 43.554 212.272C42.8447 211.6 42.49 210.769 42.49 209.78ZM44.744 208.324C44.3613 208.697 44.17 209.183 44.17 209.78C44.17 210.377 44.3613 210.867 44.744 211.25C45.1267 211.623 45.6353 211.81 46.27 211.81C46.9047 211.81 47.4133 211.623 47.796 211.25C48.1787 210.867 48.37 210.377 48.37 209.78C48.37 209.183 48.1787 208.697 47.796 208.324C47.4133 207.941 46.9047 207.75 46.27 207.75C45.6353 207.75 45.1267 207.941 44.744 208.324ZM51.1733 212.23C51.1733 211.95 51.2619 211.717 51.4393 211.53C51.6259 211.343 51.8546 211.25 52.1253 211.25C52.4333 211.25 52.6759 211.362 52.8533 211.586C53.0399 211.81 53.1333 212.141 53.1333 212.58C53.1333 213.299 52.9606 213.849 52.6153 214.232C52.2793 214.624 51.8219 214.82 51.2433 214.82V214.12C51.5233 214.12 51.7426 214.041 51.9013 213.882C52.0693 213.733 52.1533 213.532 52.1533 213.28V213.196C52.1439 213.187 52.1393 213.168 52.1393 213.14V213.098L52.0553 213.126C52.0273 213.135 51.9666 213.14 51.8733 213.14C51.6866 213.14 51.5233 213.056 51.3833 212.888C51.2433 212.72 51.1733 212.501 51.1733 212.23ZM53.8995 211.04V209.5L57.1895 203.2H58.9395L55.6495 209.5H58.8695V207.12H58.9395H60.4795V209.5H61.8795V211.04H60.4795V213H58.8695V211.04H53.8995ZM62.2989 213V211.46L65.6449 209.094C66.3729 208.571 66.8956 208.086 67.2129 207.638C67.5302 207.19 67.6889 206.714 67.6889 206.21C67.6889 205.678 67.5256 205.253 67.1989 204.936C66.8722 204.619 66.4289 204.46 65.8689 204.46C65.1782 204.46 64.6602 204.74 64.3149 205.3C64.1656 205.543 64.0536 205.823 63.9789 206.14H62.2989C62.3829 205.543 62.5649 205.006 62.8449 204.53C63.5076 203.457 64.5156 202.92 65.8689 202.92C66.9049 202.92 67.7449 203.228 68.3889 203.844C69.0422 204.451 69.3689 205.216 69.3689 206.14C69.3689 206.943 69.1636 207.666 68.7529 208.31C68.3422 208.945 67.6842 209.575 66.7789 210.2L65.3789 211.18L64.7489 211.46V211.53L65.5889 211.46H69.3689V213H62.2989Z" fill="#333333"/>
<path d="M286.42 41.2H288.1C288.165 41.4893 288.291 41.746 288.478 41.97C288.898 42.4833 289.495 42.74 290.27 42.74C290.914 42.74 291.423 42.5813 291.796 42.264C292.179 41.9373 292.37 41.536 292.37 41.06C292.37 40.5187 292.197 40.094 291.852 39.786C291.516 39.4687 291.035 39.31 290.41 39.31H288.03V37.91L290.97 35.81V35.74H286.91V34.2H293.35V35.726L290.83 37.56L290.13 37.84V37.91L290.354 37.882C290.662 37.854 290.844 37.84 290.9 37.84C291.777 37.84 292.51 38.1433 293.098 38.75C293.686 39.3567 293.98 40.1267 293.98 41.06C293.98 41.956 293.635 42.7167 292.944 43.342C292.253 43.9673 291.362 44.28 290.27 44.28C288.823 44.28 287.755 43.7667 287.064 42.74C286.765 42.3013 286.551 41.788 286.42 41.2ZM295.037 43.23C295.037 42.95 295.125 42.7167 295.303 42.53C295.489 42.3433 295.718 42.25 295.989 42.25C296.297 42.25 296.539 42.362 296.717 42.586C296.903 42.81 296.997 43.1413 296.997 43.58C296.997 44.2987 296.824 44.8493 296.479 45.232C296.143 45.624 295.685 45.82 295.107 45.82V45.12C295.387 45.12 295.606 45.0407 295.765 44.882C295.933 44.7327 296.017 44.532 296.017 44.28V44.196C296.007 44.1867 296.003 44.168 296.003 44.14V44.098L295.919 44.126C295.891 44.1353 295.83 44.14 295.737 44.14C295.55 44.14 295.387 44.056 295.247 43.888C295.107 43.72 295.037 43.5007 295.037 43.23ZM298.043 40.78C298.043 40.332 298.141 39.8653 298.337 39.38C298.542 38.8853 298.738 38.498 298.925 38.218C299.121 37.9287 299.387 37.5693 299.723 37.14L301.963 34.2H303.853L301.739 36.958L301.123 37.49V37.56L301.403 37.462C301.683 37.3873 301.986 37.35 302.313 37.35C303.227 37.35 304.002 37.6813 304.637 38.344C305.281 38.9973 305.603 39.8093 305.603 40.78C305.603 41.7693 305.248 42.6 304.539 43.272C303.829 43.944 302.924 44.28 301.823 44.28C300.721 44.28 299.816 43.944 299.107 43.272C298.397 42.6 298.043 41.7693 298.043 40.78ZM300.297 39.324C299.914 39.6973 299.723 40.1827 299.723 40.78C299.723 41.3773 299.914 41.8673 300.297 42.25C300.679 42.6233 301.188 42.81 301.823 42.81C302.457 42.81 302.966 42.6233 303.349 42.25C303.731 41.8673 303.923 41.3773 303.923 40.78C303.923 40.1827 303.731 39.6973 303.349 39.324C302.966 38.9413 302.457 38.75 301.823 38.75C301.188 38.75 300.679 38.9413 300.297 39.324ZM306.656 40.78C306.656 40.332 306.754 39.8653 306.95 39.38C307.155 38.8853 307.351 38.498 307.538 38.218C307.734 37.9287 308 37.5693 308.336 37.14L310.576 34.2H312.466L310.352 36.958L309.736 37.49V37.56L310.016 37.462C310.296 37.3873 310.599 37.35 310.926 37.35C311.841 37.35 312.615 37.6813 313.25 38.344C313.894 38.9973 314.216 39.8093 314.216 40.78C314.216 41.7693 313.861 42.6 313.152 43.272C312.443 43.944 311.537 44.28 310.436 44.28C309.335 44.28 308.429 43.944 307.72 43.272C307.011 42.6 306.656 41.7693 306.656 40.78ZM308.91 39.324C308.527 39.6973 308.336 40.1827 308.336 40.78C308.336 41.3773 308.527 41.8673 308.91 42.25C309.293 42.6233 309.801 42.81 310.436 42.81C311.071 42.81 311.579 42.6233 311.962 42.25C312.345 41.8673 312.536 41.3773 312.536 40.78C312.536 40.1827 312.345 39.6973 311.962 39.324C311.579 38.9413 311.071 38.75 310.436 38.75C309.801 38.75 309.293 38.9413 308.91 39.324Z" fill="#333333"/>
<path d="M353.56 206.27H355.24C355.315 206.559 355.441 206.807 355.618 207.012C356.029 207.497 356.626 207.74 357.41 207.74C358.035 207.74 358.53 207.572 358.894 207.236C359.258 206.9 359.44 206.461 359.44 205.92C359.44 205.351 359.258 204.893 358.894 204.548C358.53 204.203 358.035 204.03 357.41 204.03C356.831 204.03 356.341 204.184 355.94 204.492C355.781 204.613 355.641 204.763 355.52 204.94H353.98L354.4 199.2H360.35V200.74H355.73L355.52 203.26H355.59C355.739 203.111 355.912 202.985 356.108 202.882C356.547 202.621 357.074 202.49 357.69 202.49C358.67 202.49 359.487 202.817 360.14 203.47C360.793 204.123 361.12 204.94 361.12 205.92C361.12 206.881 360.775 207.684 360.084 208.328C359.403 208.963 358.511 209.28 357.41 209.28C355.973 209.28 354.904 208.781 354.204 207.782C353.905 207.343 353.691 206.839 353.56 206.27ZM362.103 205.78C362.103 205.332 362.201 204.865 362.397 204.38C362.603 203.885 362.799 203.498 362.985 203.218C363.181 202.929 363.447 202.569 363.783 202.14L366.023 199.2H367.913L365.799 201.958L365.183 202.49V202.56L365.463 202.462C365.743 202.387 366.047 202.35 366.373 202.35C367.288 202.35 368.063 202.681 368.697 203.344C369.341 203.997 369.663 204.809 369.663 205.78C369.663 206.769 369.309 207.6 368.599 208.272C367.89 208.944 366.985 209.28 365.883 209.28C364.782 209.28 363.877 208.944 363.167 208.272C362.458 207.6 362.103 206.769 362.103 205.78ZM364.357 204.324C363.975 204.697 363.783 205.183 363.783 205.78C363.783 206.377 363.975 206.867 364.357 207.25C364.74 207.623 365.249 207.81 365.883 207.81C366.518 207.81 367.027 207.623 367.409 207.25C367.792 206.867 367.983 206.377 367.983 205.78C367.983 205.183 367.792 204.697 367.409 204.324C367.027 203.941 366.518 203.75 365.883 203.75C365.249 203.75 364.74 203.941 364.357 204.324ZM370.787 208.23C370.787 207.95 370.875 207.717 371.053 207.53C371.239 207.343 371.468 207.25 371.739 207.25C372.047 207.25 372.289 207.362 372.467 207.586C372.653 207.81 372.747 208.141 372.747 208.58C372.747 209.299 372.574 209.849 372.229 210.232C371.893 210.624 371.435 210.82 370.857 210.82V210.12C371.137 210.12 371.356 210.041 371.515 209.882C371.683 209.733 371.767 209.532 371.767 209.28V209.196C371.757 209.187 371.753 209.168 371.753 209.14V209.098L371.669 209.126C371.641 209.135 371.58 209.14 371.487 209.14C371.3 209.14 371.137 209.056 370.997 208.888C370.857 208.72 370.787 208.501 370.787 208.23ZM373.513 207.04V205.5L376.803 199.2H378.553L375.263 205.5H378.483V203.12H378.553H380.093V205.5H381.493V207.04H380.093V209H378.483V207.04H373.513ZM383.452 207.824C382.566 206.853 382.122 205.612 382.122 204.1C382.122 202.588 382.566 201.347 383.452 200.376C384.339 199.405 385.412 198.92 386.672 198.92C387.932 198.92 389.006 199.405 389.892 200.376C390.779 201.347 391.222 202.588 391.222 204.1C391.222 205.612 390.779 206.853 389.892 207.824C389.006 208.795 387.932 209.28 386.672 209.28C385.412 209.28 384.339 208.795 383.452 207.824ZM384.6 201.412C384.068 202.047 383.802 202.943 383.802 204.1C383.802 205.257 384.068 206.153 384.6 206.788C385.142 207.423 385.832 207.74 386.672 207.74C387.512 207.74 388.198 207.423 388.73 206.788C389.272 206.153 389.542 205.257 389.542 204.1C389.542 202.943 389.272 202.047 388.73 201.412C388.198 200.777 387.512 200.46 386.672 200.46C385.832 200.46 385.142 200.777 384.6 201.412Z" fill="#333333"/>
<path d="M158.35 279.42V277.6L160.17 276.2H161.64V286H160.03V278.16L158.35 279.42ZM164.581 284.824C163.694 283.853 163.251 282.612 163.251 281.1C163.251 279.588 163.694 278.347 164.581 277.376C165.468 276.405 166.541 275.92 167.801 275.92C169.061 275.92 170.134 276.405 171.021 277.376C171.908 278.347 172.351 279.588 172.351 281.1C172.351 282.612 171.908 283.853 171.021 284.824C170.134 285.795 169.061 286.28 167.801 286.28C166.541 286.28 165.468 285.795 164.581 284.824ZM165.729 278.412C165.197 279.047 164.931 279.943 164.931 281.1C164.931 282.257 165.197 283.153 165.729 283.788C166.27 284.423 166.961 284.74 167.801 284.74C168.641 284.74 169.327 284.423 169.859 283.788C170.4 283.153 170.671 282.257 170.671 281.1C170.671 279.943 170.4 279.047 169.859 278.412C169.327 277.777 168.641 277.46 167.801 277.46C166.961 277.46 166.27 277.777 165.729 278.412ZM173.544 285.23C173.544 284.95 173.633 284.717 173.81 284.53C173.997 284.343 174.226 284.25 174.496 284.25C174.804 284.25 175.047 284.362 175.224 284.586C175.411 284.81 175.504 285.141 175.504 285.58C175.504 286.299 175.332 286.849 174.986 287.232C174.65 287.624 174.193 287.82 173.614 287.82V287.12C173.894 287.12 174.114 287.041 174.272 286.882C174.44 286.733 174.524 286.532 174.524 286.28V286.196C174.515 286.187 174.51 286.168 174.51 286.14V286.098L174.426 286.126C174.398 286.135 174.338 286.14 174.244 286.14C174.058 286.14 173.894 286.056 173.754 285.888C173.614 285.72 173.544 285.501 173.544 285.23ZM176.481 283.2H178.161C178.226 283.489 178.352 283.746 178.539 283.97C178.959 284.483 179.556 284.74 180.331 284.74C180.975 284.74 181.483 284.581 181.857 284.264C182.239 283.937 182.431 283.536 182.431 283.06C182.431 282.519 182.258 282.094 181.913 281.786C181.577 281.469 181.096 281.31 180.471 281.31H178.091V279.91L181.031 277.81V277.74H176.971V276.2H183.411V277.726L180.891 279.56L180.191 279.84V279.91L180.415 279.882C180.723 279.854 180.905 279.84 180.961 279.84C181.838 279.84 182.571 280.143 183.159 280.75C183.747 281.357 184.041 282.127 184.041 283.06C184.041 283.956 183.695 284.717 183.005 285.342C182.314 285.967 181.423 286.28 180.331 286.28C178.884 286.28 177.815 285.767 177.125 284.74C176.826 284.301 176.611 283.788 176.481 283.2ZM184.957 286V284.46L188.303 282.094C189.031 281.571 189.554 281.086 189.871 280.638C190.188 280.19 190.347 279.714 190.347 279.21C190.347 278.678 190.184 278.253 189.857 277.936C189.53 277.619 189.087 277.46 188.527 277.46C187.836 277.46 187.318 277.74 186.973 278.3C186.824 278.543 186.712 278.823 186.637 279.14H184.957C185.041 278.543 185.223 278.006 185.503 277.53C186.166 276.457 187.174 275.92 188.527 275.92C189.563 275.92 190.403 276.228 191.047 276.844C191.7 277.451 192.027 278.216 192.027 279.14C192.027 279.943 191.822 280.666 191.411 281.31C191 281.945 190.342 282.575 189.437 283.2L188.037 284.18L187.407 284.46V284.53L188.247 284.46H192.027V286H184.957Z" fill="#333333"/>
<rect x="15" y="269" width="84" height="65" fill="#FFC79F"/>
<rect x="230" y="301" width="99" height="74" fill="#FFC79F"/>
<path d="M259.49 335.78C259.49 335.332 259.588 334.865 259.784 334.38C259.989 333.885 260.185 333.498 260.372 333.218C260.568 332.929 260.834 332.569 261.17 332.14L263.41 329.2H265.3L263.186 331.958L262.57 332.49V332.56L262.85 332.462C263.13 332.387 263.433 332.35 263.76 332.35C264.675 332.35 265.449 332.681 266.084 333.344C266.728 333.997 267.05 334.809 267.05 335.78C267.05 336.769 266.695 337.6 265.986 338.272C265.277 338.944 264.371 339.28 263.27 339.28C262.169 339.28 261.263 338.944 260.554 338.272C259.845 337.6 259.49 336.769 259.49 335.78ZM261.744 334.324C261.361 334.697 261.17 335.183 261.17 335.78C261.17 336.377 261.361 336.867 261.744 337.25C262.127 337.623 262.635 337.81 263.27 337.81C263.905 337.81 264.413 337.623 264.796 337.25C265.179 336.867 265.37 336.377 265.37 335.78C265.37 335.183 265.179 334.697 264.796 334.324C264.413 333.941 263.905 333.75 263.27 333.75C262.635 333.75 262.127 333.941 261.744 334.324ZM268.173 338.23C268.173 337.95 268.262 337.717 268.439 337.53C268.626 337.343 268.855 337.25 269.125 337.25C269.433 337.25 269.676 337.362 269.853 337.586C270.04 337.81 270.133 338.141 270.133 338.58C270.133 339.299 269.961 339.849 269.615 340.232C269.279 340.624 268.822 340.82 268.243 340.82V340.12C268.523 340.12 268.743 340.041 268.901 339.882C269.069 339.733 269.153 339.532 269.153 339.28V339.196C269.144 339.187 269.139 339.168 269.139 339.14V339.098L269.055 339.126C269.027 339.135 268.967 339.14 268.873 339.14C268.687 339.14 268.523 339.056 268.383 338.888C268.243 338.72 268.173 338.501 268.173 338.23ZM272.649 337.824C271.763 336.853 271.319 335.612 271.319 334.1C271.319 332.588 271.763 331.347 272.649 330.376C273.536 329.405 274.609 328.92 275.869 328.92C277.129 328.92 278.203 329.405 279.089 330.376C279.976 331.347 280.419 332.588 280.419 334.1C280.419 335.612 279.976 336.853 279.089 337.824C278.203 338.795 277.129 339.28 275.869 339.28C274.609 339.28 273.536 338.795 272.649 337.824ZM273.797 331.412C273.265 332.047 272.999 332.943 272.999 334.1C272.999 335.257 273.265 336.153 273.797 336.788C274.339 337.423 275.029 337.74 275.869 337.74C276.709 337.74 277.395 337.423 277.927 336.788C278.469 336.153 278.739 335.257 278.739 334.1C278.739 332.943 278.469 332.047 277.927 331.412C277.395 330.777 276.709 330.46 275.869 330.46C275.029 330.46 274.339 330.777 273.797 331.412ZM281.263 337.04V335.5L284.553 329.2H286.303L283.013 335.5H286.233V333.12H286.303H287.843V335.5H289.243V337.04H287.843V339H286.233V337.04H281.263Z" fill="#333333"/>
<rect x="66" y="54" width="30" height="66" transform="rotate(90 66 54)" fill="#5A5A5A"/>
<path d="M71.21 293.04V291.5L74.5 285.2H76.25L72.96 291.5H76.18V289.12H76.25H77.79V291.5H79.19V293.04H77.79V295H76.18V293.04H71.21ZM79.7495 294.23C79.7495 293.95 79.8381 293.717 80.0155 293.53C80.2021 293.343 80.4308 293.25 80.7015 293.25C81.0095 293.25 81.2521 293.362 81.4295 293.586C81.6161 293.81 81.7095 294.141 81.7095 294.58C81.7095 295.299 81.5368 295.849 81.1915 296.232C80.8555 296.624 80.3981 296.82 79.8195 296.82V296.12C80.0995 296.12 80.3188 296.041 80.4775 295.882C80.6455 295.733 80.7295 295.532 80.7295 295.28V295.196C80.7201 295.187 80.7155 295.168 80.7155 295.14V295.098L80.6315 295.126C80.6035 295.135 80.5428 295.14 80.4495 295.14C80.2628 295.14 80.0995 295.056 79.9595 294.888C79.8195 294.72 79.7495 294.501 79.7495 294.23ZM82.6156 288.42V286.6L84.4356 285.2H85.9056V295H84.2956V287.16L82.6156 288.42ZM87.4467 288.42C87.4467 287.431 87.8014 286.6 88.5107 285.928C89.2201 285.256 90.1254 284.92 91.2267 284.92C92.3281 284.92 93.2334 285.256 93.9427 285.928C94.6521 286.6 95.0067 287.431 95.0067 288.42C95.0067 289.307 94.6381 290.263 93.9007 291.29C93.8261 291.393 93.7234 291.533 93.5927 291.71C93.4621 291.878 93.3734 291.995 93.3267 292.06L91.0867 295H89.1967L91.3107 292.242L91.9267 291.71V291.64C91.9081 291.649 91.8147 291.687 91.6467 291.752C91.4041 291.817 91.1007 291.85 90.7367 291.85C89.8221 291.85 89.0427 291.523 88.3987 290.87C87.7641 290.207 87.4467 289.391 87.4467 288.42ZM89.7007 286.964C89.3181 287.337 89.1267 287.823 89.1267 288.42C89.1267 289.017 89.3181 289.507 89.7007 289.89C90.0834 290.263 90.5921 290.45 91.2267 290.45C91.8614 290.45 92.3701 290.263 92.7527 289.89C93.1354 289.507 93.3267 289.017 93.3267 288.42C93.3267 287.823 93.1354 287.337 92.7527 286.964C92.3701 286.581 91.8614 286.39 91.2267 286.39C90.5921 286.39 90.0834 286.581 89.7007 286.964Z" fill="#333333"/>
<rect x="16" y="346" width="16" height="272" transform="rotate(-180 16 346)" fill="#5A5A5A"/>
<rect y="346" width="16" height="163" transform="rotate(-90 0 346)" fill="#5A5A5A"/>
<rect x="197" y="346" width="16" height="38" transform="rotate(-90 197 346)" fill="#5A5A5A"/>
<rect x="219" y="285" width="16" height="106" fill="#5A5A5A"/>
<rect x="341" y="375" width="16" height="106" transform="rotate(90 341 375)" fill="#5A5A5A"/>
<rect x="345" y="391" width="16" height="106" transform="rotate(-180 345 391)" fill="#5A5A5A"/>
<rect x="267" y="285" width="16" height="48" transform="rotate(90 267 285)" fill="#5A5A5A"/>
<rect x="490" y="285" width="16" height="196" transform="rotate(90 490 285)" fill="#5A5A5A"/>
<rect x="185" y="54" width="30" height="65" transform="rotate(90 185 54)" fill="#5A5A5A"/>
<path d="M63.9668 262.995L63.9668 238L88.2916 238L88.2916 262.995L63.9668 262.995Z" fill="white" stroke="#5A5A5A" stroke-width="0.5"/>
<path d="M64.8931 240.027L64.8931 259.48C64.8931 260.217 65.2857 260.61 66.0551 260.61L86.2027 260.61C86.9879 260.61 87.3648 260.233 87.3648 259.48L87.3648 240.027C87.3805 239.273 86.9879 238.896 86.2184 238.896L66.0708 238.896C65.2857 238.88 64.8931 239.273 64.8931 240.027Z" fill="white" stroke="#5A5A5A" stroke-width="0.5"/>
<path d="M71.3944 241.816C73.1846 241.831 74.6451 243.245 74.6451 244.987C74.6451 246.746 73.1846 248.159 71.3944 248.159C69.5885 248.159 68.1438 246.746 68.1438 244.987C68.1438 243.229 69.5885 241.816 71.3944 241.816Z" stroke="#5A5A5A" stroke-width="0.5"/>
<path d="M81.0205 241.846C82.8107 241.862 84.2712 243.275 84.2712 245.017C84.2712 246.776 82.8107 248.189 81.0205 248.189C79.2146 248.189 77.7699 246.776 77.7699 245.017C77.7542 243.259 79.2146 241.83 81.0205 241.846Z" stroke="#5A5A5A" stroke-width="0.5"/>
<path d="M81.0204 250.86C82.8263 250.86 84.271 252.273 84.271 254.031C84.271 255.79 82.8106 257.203 81.0204 257.203C79.2302 257.187 77.7698 255.774 77.7698 254.031C77.7698 252.288 79.2302 250.86 81.0204 250.86Z" stroke="#5A5A5A" stroke-width="0.5"/>
<path d="M71.3944 250.86C73.2003 250.86 74.6451 252.273 74.6451 254.031C74.6451 255.79 73.1846 257.203 71.3944 257.203C69.6042 257.187 68.1438 255.774 68.1438 254.031C68.1438 252.288 69.6042 250.86 71.3944 250.86Z" stroke="#5A5A5A" stroke-width="0.5"/>
<path d="M39.699 262.98L39.699 238.892L15.9999 238.892L15.9999 262.995L39.699 262.98Z" fill="white" stroke="#5A5A5A" stroke-width="0.5"/>
<path d="M37.8958 256.374L37.8958 243.057C37.8958 242.315 37.5321 241.951 36.7744 241.951L19.1668 241.951C18.4395 241.951 18.0607 242.315 18.0455 243.042L18.0607 256.374C18.0455 257.101 18.4243 257.465 19.1668 257.465L36.7744 257.465C37.5169 257.495 37.8958 257.116 37.8958 256.374Z" fill="white" stroke="#5A5A5A" stroke-width="0.5"/>
<path d="M27.9706 261.132C27.0463 261.116 26.3038 260.42 26.3038 259.541L26.9554 252.557L26.9705 252.542C26.9705 252.011 27.41 251.587 27.9706 251.587C28.5313 251.587 28.9707 252.011 28.9859 252.557L29.6375 259.541C29.6375 260.404 28.895 261.116 27.9706 261.132Z" stroke="#5A5A5A" stroke-width="0.5"/>
<mask id="path-29-inside-1_33_5756" fill="white">
<path fill-rule="evenodd" clip-rule="evenodd" d="M26.5915 260.449L26.9552 256.646C26.9704 256.116 27.4098 255.677 27.9856 255.692C28.5463 255.692 28.9705 256.116 28.9857 256.646L29.3494 260.449"/>
</mask>
<path fill-rule="evenodd" clip-rule="evenodd" d="M26.5915 260.449L26.9552 256.646C26.9704 256.116 27.4098 255.677 27.9856 255.692C28.5463 255.692 28.9705 256.116 28.9857 256.646L29.3494 260.449" fill="white"/>
<path d="M26.9552 256.646L27.455 256.661L27.4545 256.677L27.4529 256.694L26.9552 256.646ZM27.9856 255.692L27.9856 256.192L27.9725 256.192L27.9856 255.692ZM28.9857 256.646L28.488 256.694L28.4864 256.677L28.4859 256.661L28.9857 256.646ZM26.0938 260.401L26.4575 256.599L27.4529 256.694L27.0893 260.497L26.0938 260.401ZM26.4554 256.632C26.4784 255.827 27.1465 255.17 27.9988 255.192L27.9725 256.192C27.6731 256.184 27.4623 256.405 27.455 256.661L26.4554 256.632ZM27.9856 255.192C28.815 255.192 29.4626 255.83 29.4855 256.632L28.4859 256.661C28.4785 256.403 28.2776 256.192 27.9856 256.192L27.9856 255.192ZM29.4834 256.599L29.8471 260.401L28.8516 260.497L28.488 256.694L29.4834 256.599Z" fill="#5A5A5A" mask="url(#path-29-inside-1_33_5756)"/>
<rect x="107" y="176" width="2" height="11" transform="rotate(90 107 176)" fill="#5A5A5A"/>
<rect x="90" y="176" width="2" height="11" transform="rotate(90 90 176)" fill="#5A5A5A"/>
<rect x="73" y="176" width="2" height="11" transform="rotate(90 73 176)" fill="#5A5A5A"/>
<rect x="56" y="176" width="2" height="11" transform="rotate(90 56 176)" fill="#5A5A5A"/>
<rect x="39" y="176" width="2" height="11" transform="rotate(90 39 176)" fill="#5A5A5A"/>
<rect x="22" y="176" width="2" height="6" transform="rotate(90 22 176)" fill="#5A5A5A"/>
<rect x="107" y="325" width="2" height="11" transform="rotate(-180 107 325)" fill="#5A5A5A"/>
<rect x="107" y="274" width="2" height="11" transform="rotate(-180 107 274)" fill="#5A5A5A"/>
<rect x="107" y="257" width="2" height="11" transform="rotate(-180 107 257)" fill="#5A5A5A"/>
<rect x="107" y="240" width="2" height="11" transform="rotate(-180 107 240)" fill="#5A5A5A"/>
<rect x="107" y="223" width="2" height="11" transform="rotate(-180 107 223)" fill="#5A5A5A"/>
<rect x="107" y="206" width="2" height="11" transform="rotate(-180 107 206)" fill="#5A5A5A"/>
<rect x="107" y="189" width="2" height="6" transform="rotate(-180 107 189)" fill="#5A5A5A"/>
<line y1="-0.5" x2="29.1548" y2="-0.5" transform="matrix(0.857493 0.514496 0.514496 -0.857493 284 67)" stroke="#5A5A5A"/>
<path d="M346.75 0.250204L265.282 0.313162L265.252 4.74999L346.75 4.75001L346.75 0.250204Z" stroke="#5A5A5A" stroke-width="0.5" stroke-miterlimit="10"/>
<rect x="363" y="6.10352e-05" width="5" height="74" fill="#5A5A5A"/>
<rect x="260" y="6.10352e-05" width="5" height="74" fill="#5A5A5A"/>
<rect x="347" width="5" height="87" transform="rotate(90 347 0)" fill="#5A5A5A"/>
<rect x="365" width="5" height="19" transform="rotate(90 365 0)" fill="#5A5A5A"/>
<path d="M311.25 54.2503L371.726 54.3131L371.749 58.75L311.25 58.75L311.25 54.2503Z" stroke="#5A5A5A" stroke-width="0.5" stroke-miterlimit="10"/>
<path d="M311.25 64.2503L371.726 64.3131L371.749 68.75L311.25 68.75L311.25 64.2503Z" stroke="#5A5A5A" stroke-width="0.5" stroke-miterlimit="10"/>
<rect x="107" y="263" width="8" height="97" transform="rotate(90 107 263)" fill="#5A5A5A"/>
<rect x="172" y="233" width="8" height="14" transform="rotate(90 172 233)" fill="#5A5A5A"/>
<rect x="107" y="276" width="8" height="10" transform="rotate(-180 107 276)" fill="#5A5A5A"/>
<rect x="158.145" y="233.162" width="8" height="63.6756" transform="rotate(60 158.145 233.162)" fill="#5A5A5A"/>
<rect x="107" y="337" width="8" height="36" transform="rotate(-180 107 337)" fill="#5A5A5A"/>
<path d="M86.7588 310.476L86.7424 311.657L86.7588 314.723V322.314H76.8015V310.476C76.8015 307.459 79.0452 305 81.7965 305C84.5151 305 86.7588 307.459 86.7588 310.476Z" fill="white" stroke="#5A5A5A" stroke-width="0.5"/>
<path d="M85.6125 310.542V311.476V319.035H77.9317V311.476L77.9481 310.542C77.9481 308.164 79.6513 306.23 81.7803 306.23C83.893 306.246 85.6125 308.181 85.6125 310.542Z" fill="white" stroke="#5A5A5A" stroke-width="0.5"/>
<path d="M75.0001 328.676V323.412C75.0001 322.806 75.4914 322.314 76.0974 322.314H87.3813C87.9872 322.314 88.4785 322.806 88.4785 323.412V328.676C88.4785 329.282 87.9872 329.774 87.3813 329.774H76.1138C75.4914 329.774 75.0001 329.282 75.0001 328.676Z" fill="white" stroke="#5A5A5A" stroke-width="0.5"/>
<path d="M81.0925 326.052C81.0925 325.642 81.3873 325.331 81.7312 325.331C82.0915 325.314 82.3862 325.642 82.3862 326.052C82.3862 326.462 82.0914 326.774 81.7475 326.774C81.3709 326.757 81.0761 326.446 81.0925 326.052Z" fill="white" stroke="#5A5A5A" stroke-width="0.5"/>
<path d="M46.0002 328.848L46.0002 316.54C46.0002 315.685 46.684 315 47.5388 315L66.0582 315C66.9129 315 67.5967 315.685 67.5967 316.54L67.5967 328.848C67.5967 329.704 66.9129 330.389 66.0582 330.389L47.5388 330.389C46.6983 330.389 46.0002 329.704 46.0002 328.848Z" fill="white" stroke="#5A5A5A" stroke-width="0.5"/>
<path d="M47.9233 324.156L47.9233 322.26C47.9233 319.764 49.9461 317.738 52.4391 317.738L61.1575 317.738C63.6505 317.738 65.6733 319.764 65.6733 322.26L65.6733 324.156C65.6733 326.652 63.6505 328.677 61.1575 328.677L52.4391 328.677C49.9461 328.677 47.9233 326.652 47.9233 324.156Z" fill="white" stroke="#5A5A5A" stroke-width="0.5"/>
<path d="M55.8436 326.267C55.8436 325.724 56.2709 325.283 56.798 325.283C57.3251 325.283 57.7524 325.724 57.7524 326.267C57.7524 326.811 57.3251 327.251 56.798 327.251C56.2709 327.251 55.8436 326.811 55.8436 326.267Z" fill="white" stroke="#5A5A5A" stroke-width="0.5"/>
<path d="M40.9873 328.7L40.9873 272.3C40.9873 271.578 40.4102 271 39.6888 271L17.2988 271C16.5774 271 16.0002 271.578 16.0002 272.3L16.0002 328.7C16.0002 329.422 16.5774 330 17.2988 330L39.6888 330C40.4102 330 40.9873 329.409 40.9873 328.7Z" fill="white" stroke="#5A5A5A" stroke-width="0.5"/>
<path d="M31.5301 274.467L25.444 274.467C21.9156 274.467 19.0693 277.33 19.0693 280.849L19.0693 325.26C19.0693 326.126 19.7645 326.822 20.6302 326.822L36.3701 326.822C37.2358 326.822 37.9309 326.126 37.9309 325.26L37.9309 280.862C37.9178 277.33 35.0584 274.467 31.5301 274.467Z" fill="white" stroke="#5A5A5A" stroke-width="0.5"/>
<path d="M28.9334 321.557C29.636 321.557 30.2056 322.15 30.2056 322.883C30.2056 323.615 29.636 324.209 28.9334 324.209C28.2307 324.209 27.6611 323.615 27.6611 322.883C27.6611 322.15 28.2307 321.557 28.9334 321.557Z" fill="white" stroke="#5A5A5A" stroke-width="0.5"/>
<path d="M45 271L67.0097 271L67.0237 292.588L45.0139 292.574L45 271Z" fill="white" stroke="#5A5A5A" stroke-width="0.5"/>
<path d="M56.0188 287.331C59.1332 287.331 61.647 284.856 61.647 281.794C61.647 278.732 59.1332 276.257 56.0049 276.257C52.8906 276.257 50.3488 278.732 50.3488 281.794C50.3628 284.856 52.9045 287.331 56.0188 287.331Z" stroke="#5A5A5A" stroke-width="0.5"/>
<path d="M51.899 281.794C51.885 282.912 52.3459 283.919 53.1 284.646C53.8542 285.373 54.8876 285.821 56.0049 285.835M60.1387 281.808C60.1387 282.912 59.6778 283.919 58.9376 284.66C58.1835 285.387 57.164 285.849 56.0188 285.849L60.1387 281.808ZM51.899 281.794C51.899 280.689 52.3598 279.683 53.1 278.942C53.8542 278.215 54.8876 277.767 56.0188 277.767L51.899 281.794ZM60.1387 281.808C60.1387 280.675 59.6778 279.669 58.9376 278.956L58.9237 278.942C58.1835 278.229 57.164 277.767 56.0328 277.767L60.1387 281.808Z" stroke="#5A5A5A" stroke-width="0.5"/>
<path d="M253.72 355.976L253.736 357.156L253.72 360.222V367.813H263.677V355.976C263.677 352.959 261.433 350.5 258.682 350.5C255.963 350.5 253.72 352.959 253.72 355.976Z" fill="white" stroke="#5A5A5A" stroke-width="0.5"/>
<path d="M254.866 356.041V356.976V364.534H262.547V356.976L262.53 356.041C262.53 353.664 260.827 351.729 258.698 351.729C256.586 351.746 254.866 353.68 254.866 356.041Z" fill="white" stroke="#5A5A5A" stroke-width="0.5"/>
<path d="M265.478 374.175V368.912C265.478 368.305 264.987 367.813 264.381 367.813H253.097C252.491 367.813 252 368.305 252 368.912V374.175C252 374.782 252.491 375.274 253.097 375.274H264.365C264.987 375.274 265.478 374.782 265.478 374.175Z" fill="white" stroke="#5A5A5A" stroke-width="0.5"/>
<path d="M259.386 371.552C259.386 371.142 259.091 370.83 258.747 370.83C258.387 370.814 258.092 371.142 258.092 371.552C258.092 371.962 258.387 372.273 258.731 372.273C259.108 372.257 259.402 371.945 259.386 371.552Z" fill="white" stroke="#5A5A5A" stroke-width="0.5"/>
<path d="M296.478 373.348L296.478 361.04C296.478 360.184 295.794 359.499 294.94 359.499L276.42 359.499C275.566 359.499 274.882 360.184 274.882 361.04L274.882 373.348C274.882 374.203 275.566 374.888 276.42 374.888L294.94 374.888C295.78 374.888 296.478 374.203 296.478 373.348Z" fill="white" stroke="#5A5A5A" stroke-width="0.5"/>
<path d="M294.555 368.656L294.555 366.759C294.555 364.263 292.532 362.238 290.039 362.238L281.321 362.238C278.828 362.238 276.805 364.263 276.805 366.759L276.805 368.656C276.805 371.152 278.828 373.177 281.321 373.177L290.039 373.177C292.532 373.177 294.555 371.152 294.555 368.656Z" fill="white" stroke="#5A5A5A" stroke-width="0.5"/>
<path d="M286.635 370.766C286.635 370.223 286.208 369.782 285.68 369.782C285.153 369.782 284.726 370.223 284.726 370.766C284.726 371.31 285.153 371.75 285.68 371.75C286.208 371.75 286.635 371.31 286.635 370.766Z" fill="white" stroke="#5A5A5A" stroke-width="0.5"/>
<path d="M301 374.018L301 309.737C301 308.914 301.658 308.256 302.48 308.256L327.999 308.256C328.821 308.256 329.479 308.914 329.479 309.737L329.479 374.018C329.479 374.841 328.821 375.5 327.999 375.5L302.48 375.5C301.658 375.5 301 374.826 301 374.018Z" fill="white" stroke="#5A5A5A" stroke-width="0.5"/>
<path d="M311.779 312.207L318.715 312.207C322.737 312.207 325.981 315.47 325.981 319.481L325.981 370.097C325.981 371.085 325.188 371.878 324.202 371.878L306.263 371.878C305.276 371.878 304.484 371.085 304.484 370.097L304.484 319.496C304.499 315.47 307.758 312.207 311.779 312.207Z" fill="white" stroke="#5A5A5A" stroke-width="0.5"/>
<path d="M314.738 365.876C313.938 365.876 313.288 366.553 313.288 367.388C313.288 368.223 313.938 368.899 314.738 368.899C315.539 368.899 316.188 368.223 316.188 367.388C316.188 366.553 315.539 365.876 314.738 365.876Z" fill="white" stroke="#5A5A5A" stroke-width="0.5"/>
<path d="M257.024 301L235.014 301L235 322.588L257.01 322.574L257.024 301Z" fill="white" stroke="#5A5A5A" stroke-width="0.5"/>
<path d="M246.005 317.331C242.891 317.331 240.377 314.856 240.377 311.794C240.377 308.732 242.891 306.257 246.019 306.257C249.133 306.257 251.675 308.732 251.675 311.794C251.661 314.856 249.119 317.331 246.005 317.331Z" stroke="#5A5A5A" stroke-width="0.5"/>
<path d="M250.125 311.794C250.139 312.912 249.678 313.919 248.924 314.646C248.17 315.373 247.136 315.821 246.019 315.835M241.885 311.808C241.885 312.912 242.346 313.919 243.086 314.66C243.84 315.387 244.86 315.849 246.005 315.849L241.885 311.808ZM250.125 311.794C250.125 310.689 249.664 309.683 248.924 308.942C248.17 308.215 247.136 307.767 246.005 307.767L250.125 311.794ZM241.885 311.808C241.885 310.675 242.346 309.669 243.086 308.956L243.1 308.942C243.84 308.229 244.86 307.767 245.991 307.767L241.885 311.808Z" stroke="#5A5A5A" stroke-width="0.5"/>
<rect x="302" y="289" width="8" height="56" transform="rotate(-180 302 289)" fill="#5A5A5A"/>
<rect x="277" y="241" width="8" height="25" transform="rotate(-90 277 241)" fill="#5A5A5A"/>
<rect x="282" y="54" width="30" height="43" transform="rotate(90 282 54)" fill="#5A5A5A"/>
<path d="M258.75 54.2502L55.332 54.4019L55.2518 65.75L258.75 65.75L258.75 54.2502Z" stroke="#5A5A5A" stroke-width="0.5" stroke-miterlimit="10"/>
<path d="M471.75 54.2503L355.297 54.4017L355.251 65.75L471.75 65.75L471.75 54.2503Z" stroke="#5A5A5A" stroke-width="0.5" stroke-miterlimit="10"/>
<path d="M489.75 216.75L489.598 127.286L478.25 127.251L478.25 216.75L489.75 216.75Z" stroke="#5A5A5A" stroke-width="0.5" stroke-miterlimit="10"/>
<path d="M258.75 72.2502L55.332 72.4019L55.2518 83.75L258.75 83.75L258.75 72.2502Z" stroke="#5A5A5A" stroke-width="0.5" stroke-miterlimit="10"/>
<path d="M471.75 72.2503L355.297 72.4017L355.251 83.75L471.75 83.75L471.75 72.2503Z" stroke="#5A5A5A" stroke-width="0.5" stroke-miterlimit="10"/>
<path d="M471.75 216.75L471.598 127.286L460.25 127.251L460.25 216.75L471.75 216.75Z" stroke="#5A5A5A" stroke-width="0.5" stroke-miterlimit="10"/>
<rect x="386" y="54" width="30" height="43" transform="rotate(90 386 54)" fill="#5A5A5A"/>
<rect x="490" y="54" width="30" height="49" transform="rotate(90 490 54)" fill="#5A5A5A"/>
<rect x="490" y="142" width="30" height="75" transform="rotate(-180 490 142)" fill="#5A5A5A"/>
<rect x="490" y="299" width="30" height="100" transform="rotate(-180 490 299)" fill="#5A5A5A"/>
<path d="M279.75 235.25L238.709 235.275L238.697 236.75L279.75 236.75L279.75 235.25Z" stroke="#5A5A5A" stroke-width="0.5" stroke-miterlimit="10"/>
<path d="M211.306 235.25L170.265 235.275L170.252 236.75L211.306 236.75L211.306 235.25Z" stroke="#5A5A5A" stroke-width="0.5" stroke-miterlimit="10"/>
<path d="M245.528 233.25L204.487 233.275L204.474 234.75L245.528 234.75L245.528 233.25Z" stroke="#5A5A5A" stroke-width="0.5" stroke-miterlimit="10"/>
<line x1="296.734" y1="288.423" x2="269.734" y2="271.423" stroke="#5A5A5A"/>
<line x1="105.422" y1="274.732" x2="119.422" y2="296.732" stroke="#5A5A5A"/>
<line x1="199.245" y1="344.436" x2="167.245" y2="362.436" stroke="#5A5A5A"/>
<circle cx="262.5" cy="143.5" r="39.5" fill="#5A5A5A"/>
<path d="M239.72 147.58C239.72 146.488 240.14 145.618 240.98 144.97C241.34 144.718 241.76 144.526 242.24 144.394V144.286C241.868 144.142 241.538 143.944 241.25 143.692C240.59 143.128 240.26 142.384 240.26 141.46C240.26 140.512 240.662 139.708 241.466 139.048C242.282 138.376 243.38 138.04 244.76 138.04C246.14 138.04 247.232 138.376 248.036 139.048C248.852 139.708 249.26 140.512 249.26 141.46C249.26 142.36 248.93 143.104 248.27 143.692C247.958 143.944 247.628 144.142 247.28 144.286V144.394C247.736 144.514 248.156 144.712 248.54 144.988C249.38 145.636 249.8 146.5 249.8 147.58C249.8 148.624 249.344 149.518 248.432 150.262C247.532 150.994 246.308 151.36 244.76 151.36C243.212 151.36 241.982 150.994 241.07 150.262C240.17 149.518 239.72 148.624 239.72 147.58ZM242.42 141.64C242.42 142.168 242.624 142.6 243.032 142.936C243.44 143.272 244.016 143.44 244.76 143.44C245.504 143.44 246.08 143.272 246.488 142.936C246.896 142.6 247.1 142.168 247.1 141.64C247.1 141.16 246.89 140.758 246.47 140.434C246.062 140.098 245.492 139.93 244.76 139.93C244.028 139.93 243.452 140.098 243.032 140.434C242.624 140.758 242.42 141.16 242.42 141.64ZM242.636 145.942C242.132 146.338 241.88 146.824 241.88 147.4C241.88 147.976 242.132 148.468 242.636 148.876C243.152 149.272 243.86 149.47 244.76 149.47C245.66 149.47 246.362 149.272 246.866 148.876C247.382 148.468 247.64 147.976 247.64 147.4C247.64 146.824 247.382 146.338 246.866 145.942C246.362 145.534 245.66 145.33 244.76 145.33C243.86 145.33 243.152 145.534 242.636 145.942ZM251.054 147.4H253.214C253.298 147.772 253.46 148.102 253.7 148.39C254.24 149.05 255.008 149.38 256.004 149.38C256.832 149.38 257.486 149.176 257.966 148.768C258.458 148.348 258.704 147.832 258.704 147.22C258.704 146.524 258.482 145.978 258.038 145.582C257.606 145.174 256.988 144.97 256.184 144.97H253.124V143.17L256.904 140.47V140.38H251.684V138.4H259.964V140.362L256.724 142.72L255.824 143.08V143.17L256.112 143.134C256.508 143.098 256.742 143.08 256.814 143.08C257.942 143.08 258.884 143.47 259.64 144.25C260.396 145.03 260.774 146.02 260.774 147.22C260.774 148.372 260.33 149.35 259.442 150.154C258.554 150.958 257.408 151.36 256.004 151.36C254.144 151.36 252.77 150.7 251.882 149.38C251.498 148.816 251.222 148.156 251.054 147.4ZM262.132 150.01C262.132 149.65 262.246 149.35 262.474 149.11C262.714 148.87 263.008 148.75 263.356 148.75C263.752 148.75 264.064 148.894 264.292 149.182C264.532 149.47 264.652 149.896 264.652 150.46C264.652 151.384 264.43 152.092 263.986 152.584C263.554 153.088 262.966 153.34 262.222 153.34V152.44C262.582 152.44 262.864 152.338 263.068 152.134C263.284 151.942 263.392 151.684 263.392 151.36V151.252C263.38 151.24 263.374 151.216 263.374 151.18V151.126L263.266 151.162C263.23 151.174 263.152 151.18 263.032 151.18C262.792 151.18 262.582 151.072 262.402 150.856C262.222 150.64 262.132 150.358 262.132 150.01ZM265.907 147.4H268.067C268.151 147.772 268.313 148.102 268.553 148.39C269.093 149.05 269.861 149.38 270.857 149.38C271.685 149.38 272.339 149.176 272.819 148.768C273.311 148.348 273.557 147.832 273.557 147.22C273.557 146.524 273.335 145.978 272.891 145.582C272.459 145.174 271.841 144.97 271.037 144.97H267.977V143.17L271.757 140.47V140.38H266.537V138.4H274.817V140.362L271.577 142.72L270.677 143.08V143.17L270.965 143.134C271.361 143.098 271.595 143.08 271.667 143.08C272.795 143.08 273.737 143.47 274.493 144.25C275.249 145.03 275.627 146.02 275.627 147.22C275.627 148.372 275.183 149.35 274.295 150.154C273.407 150.958 272.261 151.36 270.857 151.36C268.997 151.36 267.623 150.7 266.735 149.38C266.351 148.816 266.075 148.156 265.907 147.4ZM276.446 140.38V138.4H284.996V140.38L279.956 151H277.706L282.656 140.56V140.38H276.446Z" fill="white"/>
</svg>
