<svg width="300" height="701" viewBox="0 0 300 701" fill="none" xmlns="http://www.w3.org/2000/svg">
<rect x="48" y="62" width="30" height="48" transform="rotate(90 48 62)" fill="#5A5A5A"/>
<path d="M262 92L262 270L15 270L15 92L262 92Z" fill="#FFF8BA"/>
<path d="M284 412V670H16L16 412H284Z" fill="#FFF8BA"/>
<path d="M258 331L258 641H16L16 331L258 331Z" fill="#FFF8BA"/>
<path d="M191 250L191 560H6L6.00001 250L191 250Z" fill="#FFF8BA"/>
<path d="M113.42 176V174.46L116.766 172.094C117.494 171.571 118.017 171.086 118.334 170.638C118.651 170.19 118.81 169.714 118.81 169.21C118.81 168.678 118.647 168.253 118.32 167.936C117.993 167.619 117.55 167.46 116.99 167.46C116.299 167.46 115.781 167.74 115.436 168.3C115.287 168.543 115.175 168.823 115.1 169.14H113.42C113.504 168.543 113.686 168.006 113.966 167.53C114.629 166.457 115.637 165.92 116.99 165.92C118.026 165.92 118.866 166.228 119.51 166.844C120.163 167.451 120.49 168.216 120.49 169.14C120.49 169.943 120.285 170.666 119.874 171.31C119.463 171.945 118.805 172.575 117.9 173.2L116.5 174.18L115.87 174.46V174.53L116.71 174.46H120.49V176H113.42ZM121.193 167.74V166.2H127.843V167.74L123.923 176H122.173L126.023 167.88V167.74H121.193ZM127.287 175.23C127.287 174.95 127.375 174.717 127.553 174.53C127.739 174.343 127.968 174.25 128.239 174.25C128.547 174.25 128.789 174.362 128.967 174.586C129.153 174.81 129.247 175.141 129.247 175.58C129.247 176.299 129.074 176.849 128.729 177.232C128.393 177.624 127.935 177.82 127.357 177.82V177.12C127.637 177.12 127.856 177.041 128.015 176.882C128.183 176.733 128.267 176.532 128.267 176.28V176.196C128.257 176.187 128.253 176.168 128.253 176.14V176.098L128.169 176.126C128.141 176.135 128.08 176.14 127.987 176.14C127.8 176.14 127.637 176.056 127.497 175.888C127.357 175.72 127.287 175.501 127.287 175.23ZM130.363 169.42C130.363 168.431 130.717 167.6 131.427 166.928C132.136 166.256 133.041 165.92 134.143 165.92C135.244 165.92 136.149 166.256 136.859 166.928C137.568 167.6 137.923 168.431 137.923 169.42C137.923 170.307 137.554 171.263 136.817 172.29C136.742 172.393 136.639 172.533 136.509 172.71C136.378 172.878 136.289 172.995 136.243 173.06L134.003 176H132.113L134.227 173.242L134.843 172.71V172.64C134.824 172.649 134.731 172.687 134.563 172.752C134.32 172.817 134.017 172.85 133.653 172.85C132.738 172.85 131.959 172.523 131.315 171.87C130.68 171.207 130.363 170.391 130.363 169.42ZM132.617 167.964C132.234 168.337 132.043 168.823 132.043 169.42C132.043 170.017 132.234 170.507 132.617 170.89C132.999 171.263 133.508 171.45 134.143 171.45C134.777 171.45 135.286 171.263 135.669 170.89C136.051 170.507 136.243 170.017 136.243 169.42C136.243 168.823 136.051 168.337 135.669 167.964C135.286 167.581 134.777 167.39 134.143 167.39C133.508 167.39 132.999 167.581 132.617 167.964ZM138.906 172.78C138.906 172.332 139.004 171.865 139.2 171.38C139.405 170.885 139.601 170.498 139.788 170.218C139.984 169.929 140.25 169.569 140.586 169.14L142.826 166.2H144.716L142.602 168.958L141.986 169.49V169.56L142.266 169.462C142.546 169.387 142.849 169.35 143.176 169.35C144.091 169.35 144.865 169.681 145.5 170.344C146.144 170.997 146.466 171.809 146.466 172.78C146.466 173.769 146.111 174.6 145.402 175.272C144.693 175.944 143.787 176.28 142.686 176.28C141.585 176.28 140.679 175.944 139.97 175.272C139.261 174.6 138.906 173.769 138.906 172.78ZM141.16 171.324C140.777 171.697 140.586 172.183 140.586 172.78C140.586 173.377 140.777 173.867 141.16 174.25C141.543 174.623 142.051 174.81 142.686 174.81C143.321 174.81 143.829 174.623 144.212 174.25C144.595 173.867 144.786 173.377 144.786 172.78C144.786 172.183 144.595 171.697 144.212 171.324C143.829 170.941 143.321 170.75 142.686 170.75C142.051 170.75 141.543 170.941 141.16 171.324Z" fill="#333333"/>
<path d="M167.42 39.2H169.1C169.165 39.4893 169.291 39.746 169.478 39.97C169.898 40.4833 170.495 40.74 171.27 40.74C171.914 40.74 172.423 40.5813 172.796 40.264C173.179 39.9373 173.37 39.536 173.37 39.06C173.37 38.5187 173.197 38.094 172.852 37.786C172.516 37.4687 172.035 37.31 171.41 37.31H169.03V35.91L171.97 33.81V33.74H167.91V32.2H174.35V33.726L171.83 35.56L171.13 35.84V35.91L171.354 35.882C171.662 35.854 171.844 35.84 171.9 35.84C172.777 35.84 173.51 36.1433 174.098 36.75C174.686 37.3567 174.98 38.1267 174.98 39.06C174.98 39.956 174.635 40.7167 173.944 41.342C173.253 41.9673 172.362 42.28 171.27 42.28C169.823 42.28 168.755 41.7667 168.064 40.74C167.765 40.3013 167.551 39.788 167.42 39.2ZM176.037 41.23C176.037 40.95 176.125 40.7167 176.303 40.53C176.489 40.3433 176.718 40.25 176.989 40.25C177.297 40.25 177.539 40.362 177.717 40.586C177.903 40.81 177.997 41.1413 177.997 41.58C177.997 42.2987 177.824 42.8493 177.479 43.232C177.143 43.624 176.685 43.82 176.107 43.82V43.12C176.387 43.12 176.606 43.0407 176.765 42.882C176.933 42.7327 177.017 42.532 177.017 42.28V42.196C177.007 42.1867 177.003 42.168 177.003 42.14V42.098L176.919 42.126C176.891 42.1353 176.83 42.14 176.737 42.14C176.55 42.14 176.387 42.056 176.247 41.888C176.107 41.72 176.037 41.5007 176.037 41.23ZM179.043 38.78C179.043 38.332 179.141 37.8653 179.337 37.38C179.542 36.8853 179.738 36.498 179.925 36.218C180.121 35.9287 180.387 35.5693 180.723 35.14L182.963 32.2H184.853L182.739 34.958L182.123 35.49V35.56L182.403 35.462C182.683 35.3873 182.986 35.35 183.313 35.35C184.227 35.35 185.002 35.6813 185.637 36.344C186.281 36.9973 186.603 37.8093 186.603 38.78C186.603 39.7693 186.248 40.6 185.539 41.272C184.829 41.944 183.924 42.28 182.823 42.28C181.721 42.28 180.816 41.944 180.107 41.272C179.397 40.6 179.043 39.7693 179.043 38.78ZM181.297 37.324C180.914 37.6973 180.723 38.1827 180.723 38.78C180.723 39.3773 180.914 39.8673 181.297 40.25C181.679 40.6233 182.188 40.81 182.823 40.81C183.457 40.81 183.966 40.6233 184.349 40.25C184.731 39.8673 184.923 39.3773 184.923 38.78C184.923 38.1827 184.731 37.6973 184.349 37.324C183.966 36.9413 183.457 36.75 182.823 36.75C182.188 36.75 181.679 36.9413 181.297 37.324ZM187.656 38.78C187.656 38.332 187.754 37.8653 187.95 37.38C188.155 36.8853 188.351 36.498 188.538 36.218C188.734 35.9287 189 35.5693 189.336 35.14L191.576 32.2H193.466L191.352 34.958L190.736 35.49V35.56L191.016 35.462C191.296 35.3873 191.599 35.35 191.926 35.35C192.841 35.35 193.615 35.6813 194.25 36.344C194.894 36.9973 195.216 37.8093 195.216 38.78C195.216 39.7693 194.861 40.6 194.152 41.272C193.443 41.944 192.537 42.28 191.436 42.28C190.335 42.28 189.429 41.944 188.72 41.272C188.011 40.6 187.656 39.7693 187.656 38.78ZM189.91 37.324C189.527 37.6973 189.336 38.1827 189.336 38.78C189.336 39.3773 189.527 39.8673 189.91 40.25C190.293 40.6233 190.801 40.81 191.436 40.81C192.071 40.81 192.579 40.6233 192.962 40.25C193.345 39.8673 193.536 39.3773 193.536 38.78C193.536 38.1827 193.345 37.6973 192.962 37.324C192.579 36.9413 192.071 36.75 191.436 36.75C190.801 36.75 190.293 36.9413 189.91 37.324Z" fill="#333333"/>
<path d="M100 286L16 286L16 393L100 393L100 286Z" fill="#FFC79F"/>
<path d="M55.56 373.27H57.24C57.3147 373.559 57.4407 373.807 57.618 374.012C58.0287 374.497 58.626 374.74 59.41 374.74C60.0353 374.74 60.53 374.572 60.894 374.236C61.258 373.9 61.44 373.461 61.44 372.92C61.44 372.351 61.258 371.893 60.894 371.548C60.53 371.203 60.0353 371.03 59.41 371.03C58.8313 371.03 58.3413 371.184 57.94 371.492C57.7813 371.613 57.6413 371.763 57.52 371.94H55.98L56.4 366.2H62.35V367.74H57.73L57.52 370.26H57.59C57.7393 370.111 57.912 369.985 58.108 369.882C58.5467 369.621 59.074 369.49 59.69 369.49C60.67 369.49 61.4867 369.817 62.14 370.47C62.7933 371.123 63.12 371.94 63.12 372.92C63.12 373.881 62.7747 374.684 62.084 375.328C61.4027 375.963 60.5113 376.28 59.41 376.28C57.9727 376.28 56.904 375.781 56.204 374.782C55.9053 374.343 55.6907 373.839 55.56 373.27ZM64.1733 375.23C64.1733 374.95 64.2619 374.717 64.4393 374.53C64.6259 374.343 64.8546 374.25 65.1253 374.25C65.4333 374.25 65.6759 374.362 65.8533 374.586C66.0399 374.81 66.1333 375.141 66.1333 375.58C66.1333 376.299 65.9606 376.849 65.6153 377.232C65.2793 377.624 64.8219 377.82 64.2433 377.82V377.12C64.5233 377.12 64.7426 377.041 64.9013 376.882C65.0693 376.733 65.1533 376.532 65.1533 376.28V376.196C65.1439 376.187 65.1393 376.168 65.1393 376.14V376.098L65.0553 376.126C65.0273 376.135 64.9666 376.14 64.8733 376.14C64.6866 376.14 64.5233 376.056 64.3833 375.888C64.2433 375.72 64.1733 375.501 64.1733 375.23ZM67.2495 369.42C67.2495 368.431 67.6041 367.6 68.3135 366.928C69.0228 366.256 69.9281 365.92 71.0295 365.92C72.1308 365.92 73.0361 366.256 73.7455 366.928C74.4548 367.6 74.8095 368.431 74.8095 369.42C74.8095 370.307 74.4408 371.263 73.7035 372.29C73.6288 372.393 73.5261 372.533 73.3955 372.71C73.2648 372.878 73.1761 372.995 73.1295 373.06L70.8895 376H68.9995L71.1135 373.242L71.7295 372.71V372.64C71.7108 372.649 71.6175 372.687 71.4495 372.752C71.2068 372.817 70.9035 372.85 70.5395 372.85C69.6248 372.85 68.8455 372.523 68.2015 371.87C67.5668 371.207 67.2495 370.391 67.2495 369.42ZM69.5035 367.964C69.1208 368.337 68.9295 368.823 68.9295 369.42C68.9295 370.017 69.1208 370.507 69.5035 370.89C69.8861 371.263 70.3948 371.45 71.0295 371.45C71.6641 371.45 72.1728 371.263 72.5555 370.89C72.9381 370.507 73.1295 370.017 73.1295 369.42C73.1295 368.823 72.9381 368.337 72.5555 367.964C72.1728 367.581 71.6641 367.39 71.0295 367.39C70.3948 367.39 69.8861 367.581 69.5035 367.964ZM77.2627 374.824C76.3761 373.853 75.9327 372.612 75.9327 371.1C75.9327 369.588 76.3761 368.347 77.2627 367.376C78.1494 366.405 79.2227 365.92 80.4827 365.92C81.7427 365.92 82.8161 366.405 83.7027 367.376C84.5894 368.347 85.0327 369.588 85.0327 371.1C85.0327 372.612 84.5894 373.853 83.7027 374.824C82.8161 375.795 81.7427 376.28 80.4827 376.28C79.2227 376.28 78.1494 375.795 77.2627 374.824ZM78.4107 368.412C77.8787 369.047 77.6127 369.943 77.6127 371.1C77.6127 372.257 77.8787 373.153 78.4107 373.788C78.9521 374.423 79.6427 374.74 80.4827 374.74C81.3227 374.74 82.0087 374.423 82.5407 373.788C83.0821 373.153 83.3527 372.257 83.3527 371.1C83.3527 369.943 83.0821 369.047 82.5407 368.412C82.0087 367.777 81.3227 367.46 80.4827 367.46C79.6427 367.46 78.9521 367.777 78.4107 368.412Z" fill="#333333"/>
<path d="M100 400L16 400L16 463L100 463L100 400Z" fill="#FFC79F"/>
<path d="M55.42 437V435.46L58.766 433.094C59.494 432.571 60.0167 432.086 60.334 431.638C60.6513 431.19 60.81 430.714 60.81 430.21C60.81 429.678 60.6467 429.253 60.32 428.936C59.9933 428.619 59.55 428.46 58.99 428.46C58.2993 428.46 57.7813 428.74 57.436 429.3C57.2867 429.543 57.1747 429.823 57.1 430.14H55.42C55.504 429.543 55.686 429.006 55.966 428.53C56.6287 427.457 57.6367 426.92 58.99 426.92C60.026 426.92 60.866 427.228 61.51 427.844C62.1633 428.451 62.49 429.216 62.49 430.14C62.49 430.943 62.2847 431.666 61.874 432.31C61.4633 432.945 60.8053 433.575 59.9 434.2L58.5 435.18L57.87 435.46V435.53L58.71 435.46H62.49V437H55.42ZM63.6127 436.23C63.6127 435.95 63.7014 435.717 63.8787 435.53C64.0654 435.343 64.2941 435.25 64.5647 435.25C64.8727 435.25 65.1154 435.362 65.2927 435.586C65.4794 435.81 65.5727 436.141 65.5727 436.58C65.5727 437.299 65.4001 437.849 65.0547 438.232C64.7187 438.624 64.2614 438.82 63.6827 438.82V438.12C63.9627 438.12 64.1821 438.041 64.3407 437.882C64.5087 437.733 64.5927 437.532 64.5927 437.28V437.196C64.5834 437.187 64.5787 437.168 64.5787 437.14V437.098L64.4947 437.126C64.4667 437.135 64.4061 437.14 64.3127 437.14C64.1261 437.14 63.9627 437.056 63.8227 436.888C63.6827 436.72 63.6127 436.501 63.6127 436.23ZM66.6889 430.42C66.6889 429.431 67.0436 428.6 67.7529 427.928C68.4622 427.256 69.3676 426.92 70.4689 426.92C71.5702 426.92 72.4756 427.256 73.1849 427.928C73.8942 428.6 74.2489 429.431 74.2489 430.42C74.2489 431.307 73.8802 432.263 73.1429 433.29C73.0682 433.393 72.9656 433.533 72.8349 433.71C72.7042 433.878 72.6156 433.995 72.5689 434.06L70.3289 437H68.4389L70.5529 434.242L71.1689 433.71V433.64C71.1502 433.649 71.0569 433.687 70.8889 433.752C70.6462 433.817 70.3429 433.85 69.9789 433.85C69.0642 433.85 68.2849 433.523 67.6409 432.87C67.0062 432.207 66.6889 431.391 66.6889 430.42ZM68.9429 428.964C68.5602 429.337 68.3689 429.823 68.3689 430.42C68.3689 431.017 68.5602 431.507 68.9429 431.89C69.3256 432.263 69.8342 432.45 70.4689 432.45C71.1036 432.45 71.6122 432.263 71.9949 431.89C72.3776 431.507 72.5689 431.017 72.5689 430.42C72.5689 429.823 72.3776 429.337 71.9949 428.964C71.6122 428.581 71.1036 428.39 70.4689 428.39C69.8342 428.39 69.3256 428.581 68.9429 428.964ZM75.0922 430.42V428.6L76.9122 427.2H78.3822V437H76.7722V429.16L75.0922 430.42Z" fill="#333333"/>
<path d="M58.49 538.78C58.49 538.332 58.588 537.865 58.784 537.38C58.9893 536.885 59.1853 536.498 59.372 536.218C59.568 535.929 59.834 535.569 60.17 535.14L62.41 532.2H64.3L62.186 534.958L61.57 535.49V535.56L61.85 535.462C62.13 535.387 62.4333 535.35 62.76 535.35C63.6747 535.35 64.4493 535.681 65.084 536.344C65.728 536.997 66.05 537.809 66.05 538.78C66.05 539.769 65.6953 540.6 64.986 541.272C64.2767 541.944 63.3713 542.28 62.27 542.28C61.1687 542.28 60.2633 541.944 59.554 541.272C58.8447 540.6 58.49 539.769 58.49 538.78ZM60.744 537.324C60.3613 537.697 60.17 538.183 60.17 538.78C60.17 539.377 60.3613 539.867 60.744 540.25C61.1267 540.623 61.6353 540.81 62.27 540.81C62.9047 540.81 63.4133 540.623 63.796 540.25C64.1787 539.867 64.37 539.377 64.37 538.78C64.37 538.183 64.1787 537.697 63.796 537.324C63.4133 536.941 62.9047 536.75 62.27 536.75C61.6353 536.75 61.1267 536.941 60.744 537.324ZM67.1733 541.23C67.1733 540.95 67.2619 540.717 67.4393 540.53C67.6259 540.343 67.8546 540.25 68.1253 540.25C68.4333 540.25 68.6759 540.362 68.8533 540.586C69.0399 540.81 69.1333 541.141 69.1333 541.58C69.1333 542.299 68.9606 542.849 68.6153 543.232C68.2793 543.624 67.8219 543.82 67.2433 543.82V543.12C67.5233 543.12 67.7426 543.041 67.9013 542.882C68.0693 542.733 68.1533 542.532 68.1533 542.28V542.196C68.1439 542.187 68.1393 542.168 68.1393 542.14V542.098L68.0553 542.126C68.0273 542.135 67.9666 542.14 67.8733 542.14C67.6866 542.14 67.5233 542.056 67.3833 541.888C67.2433 541.72 67.1733 541.501 67.1733 541.23ZM70.2495 539.34C70.2495 538.491 70.5761 537.814 71.2295 537.31C71.5095 537.114 71.8361 536.965 72.2095 536.862V536.778C71.9201 536.666 71.6635 536.512 71.4395 536.316C70.9261 535.877 70.6695 535.299 70.6695 534.58C70.6695 533.843 70.9821 533.217 71.6075 532.704C72.2421 532.181 73.0961 531.92 74.1695 531.92C75.2428 531.92 76.0921 532.181 76.7175 532.704C77.3521 533.217 77.6695 533.843 77.6695 534.58C77.6695 535.28 77.4128 535.859 76.8995 536.316C76.6568 536.512 76.4001 536.666 76.1295 536.778V536.862C76.4841 536.955 76.8108 537.109 77.1095 537.324C77.7628 537.828 78.0895 538.5 78.0895 539.34C78.0895 540.152 77.7348 540.847 77.0255 541.426C76.3255 541.995 75.3735 542.28 74.1695 542.28C72.9655 542.28 72.0088 541.995 71.2995 541.426C70.5995 540.847 70.2495 540.152 70.2495 539.34ZM72.3495 534.72C72.3495 535.131 72.5081 535.467 72.8255 535.728C73.1428 535.989 73.5908 536.12 74.1695 536.12C74.7481 536.12 75.1961 535.989 75.5135 535.728C75.8308 535.467 75.9895 535.131 75.9895 534.72C75.9895 534.347 75.8261 534.034 75.4995 533.782C75.1821 533.521 74.7388 533.39 74.1695 533.39C73.6001 533.39 73.1521 533.521 72.8255 533.782C72.5081 534.034 72.3495 534.347 72.3495 534.72ZM72.5175 538.066C72.1255 538.374 71.9295 538.752 71.9295 539.2C71.9295 539.648 72.1255 540.031 72.5175 540.348C72.9188 540.656 73.4695 540.81 74.1695 540.81C74.8695 540.81 75.4155 540.656 75.8075 540.348C76.2088 540.031 76.4095 539.648 76.4095 539.2C76.4095 538.752 76.2088 538.374 75.8075 538.066C75.4155 537.749 74.8695 537.59 74.1695 537.59C73.4695 537.59 72.9188 537.749 72.5175 538.066ZM78.8545 540.04V538.5L82.1445 532.2H83.8945L80.6045 538.5H83.8245V536.12H83.8945H85.4345V538.5H86.8345V540.04H85.4345V542H83.8245V540.04H78.8545Z" fill="#333333"/>
<path d="M208.42 621V619.46L211.766 617.094C212.494 616.571 213.017 616.086 213.334 615.638C213.651 615.19 213.81 614.714 213.81 614.21C213.81 613.678 213.647 613.253 213.32 612.936C212.993 612.619 212.55 612.46 211.99 612.46C211.299 612.46 210.781 612.74 210.436 613.3C210.287 613.543 210.175 613.823 210.1 614.14H208.42C208.504 613.543 208.686 613.006 208.966 612.53C209.629 611.457 210.637 610.92 211.99 610.92C213.026 610.92 213.866 611.228 214.51 611.844C215.163 612.451 215.49 613.216 215.49 614.14C215.49 614.943 215.285 615.666 214.874 616.31C214.463 616.945 213.805 617.575 212.9 618.2L211.5 619.18L210.87 619.46V619.53L211.71 619.46H215.49V621H208.42ZM216.193 612.74V611.2H222.843V612.74L218.923 621H217.173L221.023 612.88V612.74H216.193ZM222.287 620.23C222.287 619.95 222.375 619.717 222.553 619.53C222.739 619.343 222.968 619.25 223.239 619.25C223.547 619.25 223.789 619.362 223.967 619.586C224.153 619.81 224.247 620.141 224.247 620.58C224.247 621.299 224.074 621.849 223.729 622.232C223.393 622.624 222.935 622.82 222.357 622.82V622.12C222.637 622.12 222.856 622.041 223.015 621.882C223.183 621.733 223.267 621.532 223.267 621.28V621.196C223.257 621.187 223.253 621.168 223.253 621.14V621.098L223.169 621.126C223.141 621.135 223.08 621.14 222.987 621.14C222.8 621.14 222.637 621.056 222.497 620.888C222.357 620.72 222.287 620.501 222.287 620.23ZM225.363 618.34C225.363 617.491 225.689 616.814 226.343 616.31C226.623 616.114 226.949 615.965 227.323 615.862V615.778C227.033 615.666 226.777 615.512 226.553 615.316C226.039 614.877 225.783 614.299 225.783 613.58C225.783 612.843 226.095 612.217 226.721 611.704C227.355 611.181 228.209 610.92 229.283 610.92C230.356 610.92 231.205 611.181 231.831 611.704C232.465 612.217 232.783 612.843 232.783 613.58C232.783 614.28 232.526 614.859 232.013 615.316C231.77 615.512 231.513 615.666 231.243 615.778V615.862C231.597 615.955 231.924 616.109 232.223 616.324C232.876 616.828 233.203 617.5 233.203 618.34C233.203 619.152 232.848 619.847 232.139 620.426C231.439 620.995 230.487 621.28 229.283 621.28C228.079 621.28 227.122 620.995 226.413 620.426C225.713 619.847 225.363 619.152 225.363 618.34ZM227.463 613.72C227.463 614.131 227.621 614.467 227.939 614.728C228.256 614.989 228.704 615.12 229.283 615.12C229.861 615.12 230.309 614.989 230.627 614.728C230.944 614.467 231.103 614.131 231.103 613.72C231.103 613.347 230.939 613.034 230.613 612.782C230.295 612.521 229.852 612.39 229.283 612.39C228.713 612.39 228.265 612.521 227.939 612.782C227.621 613.034 227.463 613.347 227.463 613.72ZM227.631 617.066C227.239 617.374 227.043 617.752 227.043 618.2C227.043 618.648 227.239 619.031 227.631 619.348C228.032 619.656 228.583 619.81 229.283 619.81C229.983 619.81 230.529 619.656 230.921 619.348C231.322 619.031 231.523 618.648 231.523 618.2C231.523 617.752 231.322 617.374 230.921 617.066C230.529 616.749 229.983 616.59 229.283 616.59C228.583 616.59 228.032 616.749 227.631 617.066ZM234.248 617.78C234.248 617.332 234.346 616.865 234.542 616.38C234.747 615.885 234.943 615.498 235.13 615.218C235.326 614.929 235.592 614.569 235.928 614.14L238.168 611.2H240.058L237.944 613.958L237.328 614.49V614.56L237.608 614.462C237.888 614.387 238.191 614.35 238.518 614.35C239.432 614.35 240.207 614.681 240.842 615.344C241.486 615.997 241.808 616.809 241.808 617.78C241.808 618.769 241.453 619.6 240.744 620.272C240.034 620.944 239.129 621.28 238.028 621.28C236.926 621.28 236.021 620.944 235.312 620.272C234.602 619.6 234.248 618.769 234.248 617.78ZM236.502 616.324C236.119 616.697 235.928 617.183 235.928 617.78C235.928 618.377 236.119 618.867 236.502 619.25C236.884 619.623 237.393 619.81 238.028 619.81C238.662 619.81 239.171 619.623 239.554 619.25C239.936 618.867 240.128 618.377 240.128 617.78C240.128 617.183 239.936 616.697 239.554 616.324C239.171 615.941 238.662 615.75 238.028 615.75C237.393 615.75 236.884 615.941 236.502 616.324Z" fill="#333333"/>
<rect x="53" y="671" width="30" height="53" transform="rotate(90 53 671)" fill="#5A5A5A"/>
<rect y="87" width="16" height="592" fill="#5A5A5A"/>
<rect x="108" y="270" width="16" height="92" transform="rotate(90 108 270)" fill="#5A5A5A"/>
<path d="M35.482 369.693L34.3015 369.677L31.2355 369.693L23.6442 369.693L23.6442 359.736L35.482 359.736C38.4988 359.736 40.9582 361.979 40.9582 364.731C40.9582 367.449 38.4988 369.693 35.482 369.693Z" fill="white" stroke="#5A5A5A" stroke-width="0.5"/>
<path d="M35.4164 368.547L34.4819 368.547L26.9234 368.547L26.9234 360.866L34.4819 360.866L35.4164 360.882C37.7938 360.882 39.7285 362.586 39.7285 364.715C39.7121 366.827 37.7774 368.547 35.4164 368.547Z" fill="white" stroke="#5A5A5A" stroke-width="0.5"/>
<path d="M17.2826 357.934L22.5457 357.934C23.1523 357.934 23.6442 358.426 23.6442 359.032L23.6442 370.315C23.6442 370.921 23.1523 371.413 22.5457 371.413L17.2826 371.413C16.6759 371.413 16.1841 370.921 16.1841 370.315L16.1841 359.048C16.1841 358.426 16.6759 357.934 17.2826 357.934Z" fill="white" stroke="#5A5A5A" stroke-width="0.5"/>
<path d="M19.906 364.027C20.3159 364.027 20.6273 364.321 20.6273 364.665C20.6437 365.026 20.3159 365.32 19.906 365.32C19.4961 365.32 19.1846 365.026 19.1846 364.682C19.201 364.305 19.5125 364.01 19.906 364.027Z" fill="white" stroke="#5A5A5A" stroke-width="0.5"/>
<path d="M17.653 327.268L29.9611 327.268C30.8168 327.268 31.5014 327.951 31.5014 328.806L31.5014 347.326C31.5014 348.18 30.8168 348.864 29.9611 348.864L17.653 348.864C16.7973 348.864 16.1127 348.18 16.1127 347.326L16.1127 328.806C16.1127 327.966 16.7973 327.268 17.653 327.268Z" fill="white" stroke="#5A5A5A" stroke-width="0.5"/>
<path d="M22.3451 329.191L24.242 329.191C26.7378 329.191 28.763 331.214 28.763 333.707L28.763 342.425C28.763 344.918 26.7378 346.941 24.242 346.941L22.3451 346.941C19.8493 346.941 17.8241 344.918 17.8241 342.425L17.8241 333.707C17.8241 331.214 19.8493 329.191 22.3451 329.191Z" fill="white" stroke="#5A5A5A" stroke-width="0.5"/>
<path d="M20.2344 337.111C20.7778 337.111 21.2184 337.538 21.2184 338.065C21.2184 338.593 20.7778 339.02 20.2344 339.02C19.6909 339.02 19.2504 338.593 19.2504 338.065C19.2504 337.538 19.6909 337.111 20.2344 337.111Z" fill="white" stroke="#5A5A5A" stroke-width="0.5"/>
<path d="M17.4518 312.569L77.5725 312.569C78.3423 312.569 78.9582 311.954 78.9582 311.185L78.9582 287.318C78.9582 286.549 78.3423 285.934 77.5725 285.934L17.4518 285.934C16.6819 285.934 16.066 286.549 16.066 287.318L16.066 311.185C16.066 311.954 16.6959 312.569 17.4518 312.569Z" fill="white" stroke="#5A5A5A" stroke-width="0.5"/>
<path d="M75.2625 302.488L75.2625 296C75.2625 292.239 72.211 289.205 68.4596 289.205L21.1189 289.205C20.1951 289.205 19.4532 289.946 19.4532 290.869L19.4532 307.647C19.4532 308.57 20.1951 309.311 21.1189 309.311L68.4456 309.311C72.211 309.297 75.2625 306.249 75.2625 302.488Z" fill="white" stroke="#5A5A5A" stroke-width="0.5"/>
<path d="M25.0664 299.72C25.0664 300.469 24.4334 301.076 23.6527 301.076C22.8719 301.076 22.239 300.469 22.239 299.72C22.239 298.971 22.8719 298.364 23.6527 298.364C24.4334 298.364 25.0664 298.971 25.0664 299.72Z" fill="white" stroke="#5A5A5A" stroke-width="0.5"/>
<path d="M100.587 324L100.587 346.01L79 346.024L79.014 324.014L100.587 324Z" fill="white" stroke="#5A5A5A" stroke-width="0.5"/>
<path d="M84.257 335.019C84.257 338.133 86.7317 340.647 89.7937 340.647C92.8557 340.647 95.3304 338.133 95.3304 335.005C95.3304 331.891 92.8557 329.349 89.7937 329.349C86.7317 329.363 84.257 331.904 84.257 335.019Z" stroke="#5A5A5A" stroke-width="0.5"/>
<path d="M89.7937 330.899C88.6752 330.885 87.6685 331.346 86.9415 332.1C86.2145 332.854 85.7671 333.888 85.7531 335.005M89.7797 339.139C88.6752 339.139 87.6685 338.678 86.9275 337.938C86.2005 337.184 85.7391 336.164 85.7391 335.019L89.7797 339.139ZM89.7937 330.899C90.8983 330.899 91.9049 331.36 92.6459 332.1C93.373 332.854 93.8204 333.888 93.8204 335.019L89.7937 330.899ZM89.7797 339.139C90.9122 339.139 91.9189 338.678 92.632 337.938L92.6459 337.924C93.359 337.184 93.8204 336.164 93.8204 335.033L89.7797 339.139Z" stroke="#5A5A5A" stroke-width="0.5"/>
<rect x="108" y="363" width="8.00001" height="85" transform="rotate(-180 108 363)" fill="#5A5A5A"/>
<rect x="81" y="278" width="8" height="42" transform="rotate(-90 81 278)" fill="#5A5A5A"/>
<rect x="169" y="278" width="8" height="42" transform="rotate(-90 169 278)" fill="#5A5A5A"/>
<path d="M190.75 272.25L157.262 272.275L157.252 273.75L190.75 273.75L190.75 272.25Z" stroke="#5A5A5A" stroke-width="0.5" stroke-miterlimit="10"/>
<path d="M134.75 272.25L101.262 272.275L101.252 273.75L134.75 273.75L134.75 272.25Z" stroke="#5A5A5A" stroke-width="0.5" stroke-miterlimit="10"/>
<path d="M162.75 270.25L129.262 270.275L129.252 271.75L162.75 271.75L162.75 270.25Z" stroke="#5A5A5A" stroke-width="0.5" stroke-miterlimit="10"/>
<rect x="12" y="400" width="8" height="96" transform="rotate(-90 12 400)" fill="#5A5A5A"/>
<rect x="100" y="398" width="8" height="14" fill="#5A5A5A"/>
<rect x="100" y="442" width="8" height="14" fill="#5A5A5A"/>
<rect x="278" y="270" width="16" height="92" transform="rotate(90 278 270)" fill="#5A5A5A"/>
<rect x="278" y="286" width="16" height="224" transform="rotate(-180 278 286)" fill="#5A5A5A"/>
<rect x="113" y="453" width="16" height="97" transform="rotate(90 113 453)" fill="#5A5A5A"/>
<rect x="300" y="453" width="16" height="92" transform="rotate(90 300 453)" fill="#5A5A5A"/>
<rect x="271" y="324" width="16" height="85" transform="rotate(90 271 324)" fill="#5A5A5A"/>
<rect x="300" y="396" width="16" height="42" transform="rotate(90 300 396)" fill="#5A5A5A"/>
<rect x="274" y="410" width="16" height="23" transform="rotate(-180 274 410)" fill="#5A5A5A"/>
<rect x="274" y="349" width="16" height="25" transform="rotate(-180 274 349)" fill="#5A5A5A"/>
<rect x="202" y="336" width="16" height="61" transform="rotate(-180 202 336)" fill="#5A5A5A"/>
<circle cx="183.5" cy="390.5" r="39.5" fill="#5A5A5A"/>
<path d="M159.72 394.58C159.72 393.488 160.14 392.618 160.98 391.97C161.34 391.718 161.76 391.526 162.24 391.394V391.286C161.868 391.142 161.538 390.944 161.25 390.692C160.59 390.128 160.26 389.384 160.26 388.46C160.26 387.512 160.662 386.708 161.466 386.048C162.282 385.376 163.38 385.04 164.76 385.04C166.14 385.04 167.232 385.376 168.036 386.048C168.852 386.708 169.26 387.512 169.26 388.46C169.26 389.36 168.93 390.104 168.27 390.692C167.958 390.944 167.628 391.142 167.28 391.286V391.394C167.736 391.514 168.156 391.712 168.54 391.988C169.38 392.636 169.8 393.5 169.8 394.58C169.8 395.624 169.344 396.518 168.432 397.262C167.532 397.994 166.308 398.36 164.76 398.36C163.212 398.36 161.982 397.994 161.07 397.262C160.17 396.518 159.72 395.624 159.72 394.58ZM162.42 388.64C162.42 389.168 162.624 389.6 163.032 389.936C163.44 390.272 164.016 390.44 164.76 390.44C165.504 390.44 166.08 390.272 166.488 389.936C166.896 389.6 167.1 389.168 167.1 388.64C167.1 388.16 166.89 387.758 166.47 387.434C166.062 387.098 165.492 386.93 164.76 386.93C164.028 386.93 163.452 387.098 163.032 387.434C162.624 387.758 162.42 388.16 162.42 388.64ZM162.636 392.942C162.132 393.338 161.88 393.824 161.88 394.4C161.88 394.976 162.132 395.468 162.636 395.876C163.152 396.272 163.86 396.47 164.76 396.47C165.66 396.47 166.362 396.272 166.866 395.876C167.382 395.468 167.64 394.976 167.64 394.4C167.64 393.824 167.382 393.338 166.866 392.942C166.362 392.534 165.66 392.33 164.76 392.33C163.86 392.33 163.152 392.534 162.636 392.942ZM171.144 393.86C171.144 393.284 171.27 392.684 171.522 392.06C171.786 391.424 172.038 390.926 172.278 390.566C172.53 390.194 172.872 389.732 173.304 389.18L176.184 385.4H178.614L175.896 388.946L175.104 389.63V389.72L175.464 389.594C175.824 389.498 176.214 389.45 176.634 389.45C177.81 389.45 178.806 389.876 179.622 390.728C180.45 391.568 180.864 392.612 180.864 393.86C180.864 395.132 180.408 396.2 179.496 397.064C178.584 397.928 177.42 398.36 176.004 398.36C174.588 398.36 173.424 397.928 172.512 397.064C171.6 396.2 171.144 395.132 171.144 393.86ZM174.042 391.988C173.55 392.468 173.304 393.092 173.304 393.86C173.304 394.628 173.55 395.258 174.042 395.75C174.534 396.23 175.188 396.47 176.004 396.47C176.82 396.47 177.474 396.23 177.966 395.75C178.458 395.258 178.704 394.628 178.704 393.86C178.704 393.092 178.458 392.468 177.966 391.988C177.474 391.496 176.82 391.25 176.004 391.25C175.188 391.25 174.534 391.496 174.042 391.988ZM182.308 397.01C182.308 396.65 182.422 396.35 182.65 396.11C182.89 395.87 183.184 395.75 183.532 395.75C183.928 395.75 184.24 395.894 184.468 396.182C184.708 396.47 184.828 396.896 184.828 397.46C184.828 398.384 184.606 399.092 184.162 399.584C183.73 400.088 183.142 400.34 182.398 400.34V399.44C182.758 399.44 183.04 399.338 183.244 399.134C183.46 398.942 183.568 398.684 183.568 398.36V398.252C183.556 398.24 183.55 398.216 183.55 398.18V398.126L183.442 398.162C183.406 398.174 183.328 398.18 183.208 398.18C182.968 398.18 182.758 398.072 182.578 397.856C182.398 397.64 182.308 397.358 182.308 397.01ZM186.083 398V396.02L190.385 392.978C191.321 392.306 191.993 391.682 192.401 391.106C192.809 390.53 193.013 389.918 193.013 389.27C193.013 388.586 192.803 388.04 192.383 387.632C191.963 387.224 191.393 387.02 190.673 387.02C189.785 387.02 189.119 387.38 188.675 388.1C188.483 388.412 188.339 388.772 188.243 389.18H186.083C186.191 388.412 186.425 387.722 186.785 387.11C187.637 385.73 188.933 385.04 190.673 385.04C192.005 385.04 193.085 385.436 193.913 386.228C194.753 387.008 195.173 387.992 195.173 389.18C195.173 390.212 194.909 391.142 194.381 391.97C193.853 392.786 193.007 393.596 191.843 394.4L190.043 395.66L189.233 396.02V396.11L190.313 396.02H195.173V398H186.083ZM196.616 394.49H198.776C198.872 394.862 199.034 395.18 199.262 395.444C199.79 396.068 200.558 396.38 201.566 396.38C202.37 396.38 203.006 396.164 203.474 395.732C203.942 395.3 204.176 394.736 204.176 394.04C204.176 393.308 203.942 392.72 203.474 392.276C203.006 391.832 202.37 391.61 201.566 391.61C200.822 391.61 200.192 391.808 199.676 392.204C199.472 392.36 199.292 392.552 199.136 392.78H197.156L197.696 385.4H205.346V387.38H199.406L199.136 390.62H199.226C199.418 390.428 199.64 390.266 199.892 390.134C200.456 389.798 201.134 389.63 201.926 389.63C203.186 389.63 204.236 390.05 205.076 390.89C205.916 391.73 206.336 392.78 206.336 394.04C206.336 395.276 205.892 396.308 205.004 397.136C204.128 397.952 202.982 398.36 201.566 398.36C199.718 398.36 198.344 397.718 197.444 396.434C197.06 395.87 196.784 395.222 196.616 394.49Z" fill="white"/>
<rect x="169" y="453" width="16" height="17" transform="rotate(90 169 453)" fill="#5A5A5A"/>
<rect x="300" y="701" width="16" height="303" transform="rotate(-180 300 701)" fill="#5A5A5A"/>
<rect x="186" y="671" width="30" height="69" transform="rotate(90 186 671)" fill="#5A5A5A"/>
<rect x="300" y="671" width="30" height="50" transform="rotate(90 300 671)" fill="#5A5A5A"/>
<rect x="160" y="62" width="30" height="48" transform="rotate(90 160 62)" fill="#5A5A5A"/>
<line y1="-0.5" x2="28.4253" y2="-0.5" transform="matrix(0.773958 -0.633238 -0.633238 -0.773958 197 92)" stroke="#5A5A5A"/>
<path d="M128.25 62.2503L188.726 62.3131L188.749 66.75L128.25 66.75L128.25 62.2503Z" stroke="#5A5A5A" stroke-width="0.5" stroke-miterlimit="10"/>
<path d="M128.25 72.2503L188.726 72.3131L188.749 76.75L128.25 76.75L128.25 72.2503Z" stroke="#5A5A5A" stroke-width="0.5" stroke-miterlimit="10"/>
<rect x="239" width="5" height="74" fill="#5A5A5A"/>
<rect x="136" width="5" height="74" fill="#5A5A5A"/>
<rect x="241" width="5" height="105" transform="rotate(90 241 0)" fill="#5A5A5A"/>
<rect x="276" y="62" width="30" height="58" transform="rotate(90 276 62)" fill="#5A5A5A"/>
<path d="M256.75 671.25L50.3332 671.402L50.2518 682.75L256.75 682.75L256.75 671.25Z" stroke="#5A5A5A" stroke-width="0.5" stroke-miterlimit="10"/>
<path d="M141.75 62.2503L16.3006 62.4017L16.2511 73.75L141.75 73.75L141.75 62.2503Z" stroke="#5A5A5A" stroke-width="0.5" stroke-miterlimit="10"/>
<path d="M256.75 689.25L50.3332 689.402L50.2518 700.75L256.75 700.75L256.75 689.25Z" stroke="#5A5A5A" stroke-width="0.5" stroke-miterlimit="10"/>
<path d="M141.75 80.2503L16.3006 80.4017L16.2511 91.75L141.75 91.75L141.75 80.2503Z" stroke="#5A5A5A" stroke-width="0.5" stroke-miterlimit="10"/>
<line x1="107.46" y1="361.805" x2="118.46" y2="387.805" stroke="#5A5A5A"/>
<line x1="106.556" y1="443.77" x2="121.556" y2="414.77" stroke="#5A5A5A"/>
<line x1="109.754" y1="454.565" x2="148.754" y2="432.565" stroke="#5A5A5A"/>
<line y1="-0.5" x2="44.7772" y2="-0.5" transform="matrix(-0.870978 -0.491321 -0.491321 0.870978 210 455)" stroke="#5A5A5A"/>
<line x1="272.558" y1="388.767" x2="291.558" y2="352.767" stroke="#5A5A5A"/>
<path d="M35.2979 435.759L34.1174 435.742L31.0514 435.759L23.4602 435.759L23.4602 425.801L35.2979 425.801C38.3148 425.801 40.7741 428.045 40.7741 430.796C40.7741 433.515 38.3148 435.759 35.2979 435.759Z" fill="white" stroke="#5A5A5A" stroke-width="0.5"/>
<path d="M35.2324 434.612L34.2978 434.612L26.7394 434.612L26.7394 426.932L34.2978 426.932L35.2324 426.948C37.6097 426.948 39.5444 428.651 39.5444 430.78C39.528 432.893 37.5934 434.612 35.2324 434.612Z" fill="white" stroke="#5A5A5A" stroke-width="0.5"/>
<path d="M17.0985 424L22.3616 424C22.9682 424 23.4601 424.491 23.4601 425.097L23.4601 436.381C23.4601 436.987 22.9682 437.478 22.3616 437.478L17.0985 437.478C16.4919 437.478 16 436.987 16 436.381L16 425.114C16 424.491 16.4919 424 17.0985 424Z" fill="white" stroke="#5A5A5A" stroke-width="0.5"/>
<path d="M19.7219 430.092C20.1318 430.092 20.4433 430.387 20.4433 430.731C20.4597 431.091 20.1318 431.386 19.7219 431.386C19.312 431.386 19.0005 431.091 19.0005 430.747C19.0169 430.371 19.3284 430.076 19.7219 430.092Z" fill="white" stroke="#5A5A5A" stroke-width="0.5"/>
<path d="M84.1451 401.54L84.1451 413.848C84.1451 414.704 83.4613 415.389 82.6066 415.389L64.0872 415.389C63.2325 415.389 62.5487 414.704 62.5487 413.848L62.5487 401.54C62.5487 400.685 63.2325 400 64.0872 400L82.6066 400C83.4471 400 84.1451 400.685 84.1451 401.54Z" fill="white" stroke="#5A5A5A" stroke-width="0.5"/>
<path d="M82.2221 406.232L82.2221 408.129C82.2221 410.625 80.1992 412.65 77.7062 412.65L68.9879 412.65C66.4949 412.65 64.472 410.625 64.472 408.129L64.472 406.232C64.472 403.737 66.4949 401.711 68.9879 401.711L77.7062 401.711C80.1992 401.711 82.2221 403.737 82.2221 406.232Z" fill="white" stroke="#5A5A5A" stroke-width="0.5"/>
<path d="M74.3018 404.122C74.3018 404.665 73.8745 405.106 73.3473 405.106C72.8202 405.106 72.3929 404.665 72.3929 404.122C72.3929 403.578 72.8202 403.138 73.3473 403.138C73.8745 403.138 74.3018 403.578 74.3018 404.122Z" fill="white" stroke="#5A5A5A" stroke-width="0.5"/>
<path d="M64.3742 469.108L64.3742 494.104L88.699 494.104L88.699 469.108L64.3742 469.108Z" fill="white" stroke="#5A5A5A" stroke-width="0.5"/>
<path d="M65.3006 492.077L65.3006 472.624C65.3006 471.886 65.6932 471.494 66.4627 471.494L86.6103 471.494C87.3955 471.494 87.7723 471.87 87.7723 472.624L87.7723 492.077C87.788 492.831 87.3955 493.208 86.626 493.208L66.4784 493.208C65.6932 493.223 65.3006 492.831 65.3006 492.077Z" fill="white" stroke="#5A5A5A" stroke-width="0.5"/>
<path d="M71.802 490.288C73.5922 490.272 75.0526 488.859 75.0526 487.116C75.0526 485.358 73.5922 483.945 71.802 483.945C69.9961 483.945 68.5514 485.358 68.5514 487.116C68.5514 488.875 69.9961 490.288 71.802 490.288Z" stroke="#5A5A5A" stroke-width="0.5"/>
<path d="M81.428 490.258C83.2182 490.242 84.6786 488.829 84.6786 487.086C84.6786 485.328 83.2182 483.915 81.428 483.915C79.6221 483.915 78.1774 485.328 78.1774 487.086C78.1617 488.845 79.6221 490.273 81.428 490.258Z" stroke="#5A5A5A" stroke-width="0.5"/>
<path d="M81.4279 481.244C83.2338 481.244 84.6785 479.831 84.6785 478.073C84.6785 476.314 83.2181 474.901 81.4279 474.901C79.6377 474.917 78.1772 476.33 78.1772 478.073C78.1772 479.815 79.6377 481.244 81.4279 481.244Z" stroke="#5A5A5A" stroke-width="0.5"/>
<path d="M71.802 481.244C73.6079 481.244 75.0526 479.831 75.0526 478.073C75.0526 476.314 73.5922 474.901 71.802 474.901C70.0118 474.917 68.5514 476.33 68.5514 478.073C68.5514 479.815 70.0118 481.244 71.802 481.244Z" stroke="#5A5A5A" stroke-width="0.5"/>
<path d="M39.699 469.015L39.699 493.104L16 493.104L16 469L39.699 469.015Z" fill="white" stroke="#5A5A5A" stroke-width="0.5"/>
<path d="M37.8959 475.621L37.8959 488.938C37.8959 489.681 37.5322 490.044 36.7746 490.044L19.167 490.044C18.4396 490.044 18.0608 489.681 18.0457 488.953L18.0608 475.621C18.0456 474.894 18.4245 474.531 19.167 474.531L36.7746 474.531C37.517 474.5 37.8959 474.879 37.8959 475.621Z" fill="white" stroke="#5A5A5A" stroke-width="0.5"/>
<path d="M27.9708 470.864C27.0465 470.879 26.304 471.576 26.304 472.454L26.9556 479.438L26.9707 479.454C26.9707 479.984 27.4102 480.408 27.9708 480.408C28.5315 480.408 28.9709 479.984 28.9861 479.438L29.6376 472.454C29.6376 471.591 28.8951 470.879 27.9708 470.864Z" stroke="#5A5A5A" stroke-width="0.5"/>
<mask id="path-84-inside-1_9_3155" fill="white">
<path fill-rule="evenodd" clip-rule="evenodd" d="M26.5917 471.546L26.9553 475.349C26.9705 475.879 27.4099 476.318 27.9857 476.303C28.5464 476.303 28.9707 475.879 28.9858 475.349L29.3495 471.546"/>
</mask>
<path fill-rule="evenodd" clip-rule="evenodd" d="M26.5917 471.546L26.9553 475.349C26.9705 475.879 27.4099 476.318 27.9857 476.303C28.5464 476.303 28.9707 475.879 28.9858 475.349L29.3495 471.546" fill="white"/>
<path d="M26.9553 475.349L27.4551 475.334L27.4547 475.318L27.4531 475.301L26.9553 475.349ZM27.9857 476.303L27.9857 475.803L27.9726 475.803L27.9857 476.303ZM28.9858 475.349L28.4881 475.301L28.4865 475.318L28.486 475.334L28.9858 475.349ZM26.0939 471.594L26.4576 475.396L27.4531 475.301L27.0894 471.499L26.0939 471.594ZM26.4555 475.363C26.4785 476.168 27.1466 476.825 27.9989 476.803L27.9726 475.803C27.6732 475.811 27.4624 475.59 27.4551 475.334L26.4555 475.363ZM27.9857 476.803C28.8151 476.803 29.4627 476.166 29.4856 475.363L28.486 475.334C28.4786 475.592 28.2777 475.803 27.9857 475.803L27.9857 476.803ZM29.4835 475.396L29.8472 471.594L28.8518 471.499L28.4881 475.301L29.4835 475.396Z" fill="#5A5A5A" mask="url(#path-84-inside-1_9_3155)"/>
<rect x="111" y="469" width="2" height="6" fill="#5A5A5A"/>
<rect x="111" y="480" width="2" height="11" fill="#5A5A5A"/>
<rect x="111" y="497" width="2" height="11" fill="#5A5A5A"/>
<rect x="111" y="514" width="2" height="11" fill="#5A5A5A"/>
<rect x="111" y="531" width="2" height="11" fill="#5A5A5A"/>
<rect x="111" y="548" width="2" height="11" fill="#5A5A5A"/>
<rect x="111" y="568" width="2" height="11" fill="#5A5A5A"/>
<rect x="15" y="579" width="2" height="6" transform="rotate(-90 15 579)" fill="#5A5A5A"/>
<rect x="26" y="579" width="2" height="11" transform="rotate(-90 26 579)" fill="#5A5A5A"/>
<rect x="43" y="579" width="2" height="11" transform="rotate(-90 43 579)" fill="#5A5A5A"/>
<rect x="60" y="579" width="2" height="11" transform="rotate(-90 60 579)" fill="#5A5A5A"/>
<rect x="77" y="579" width="2" height="11" transform="rotate(-90 77 579)" fill="#5A5A5A"/>
<rect x="94" y="579" width="2" height="11" transform="rotate(-90 94 579)" fill="#5A5A5A"/>
</svg>
