<svg width="370" height="639" viewBox="0 0 370 639" fill="none" xmlns="http://www.w3.org/2000/svg">
<path d="M16 84H354V337H16V84Z" fill="#FFF8BA"/>
<path d="M112.871 334.497V279H9L9 334.497H112.871Z" fill="#FFF8BA"/>
<path d="M118 84H354V408H118V84Z" fill="#FFF8BA"/>
<path d="M227 84H362V609H227V84Z" fill="#FFF8BA"/>
<path d="M13 342L113 342L113 280L13 280L13 342Z" fill="#FFC79F"/>
<path d="M353.995 231.325L329 231.325L329 207L353.995 207L353.995 231.325Z" fill="white" stroke="#5A5A5A" stroke-width="0.5"/>
<path d="M331.027 230.398L350.48 230.398C351.218 230.398 351.61 230.006 351.61 229.236L351.61 209.089C351.61 208.304 351.233 207.927 350.48 207.927L331.027 207.927C330.273 207.911 329.896 208.304 329.896 209.073L329.896 229.221C329.881 230.006 330.273 230.398 331.027 230.398Z" fill="white" stroke="#5A5A5A" stroke-width="0.5"/>
<path d="M332.816 223.897C332.831 222.107 334.244 220.646 335.987 220.646C337.746 220.646 339.159 222.107 339.159 223.897C339.159 225.703 337.746 227.148 335.987 227.148C334.229 227.148 332.816 225.703 332.816 223.897Z" stroke="#5A5A5A" stroke-width="0.5"/>
<path d="M332.846 214.271C332.862 212.481 334.275 211.02 336.018 211.02C337.776 211.02 339.189 212.481 339.189 214.271C339.189 216.077 337.776 217.522 336.018 217.522C334.259 217.537 332.83 216.077 332.846 214.271Z" stroke="#5A5A5A" stroke-width="0.5"/>
<path d="M341.86 214.271C341.86 212.465 343.273 211.02 345.031 211.02C346.79 211.02 348.203 212.481 348.203 214.271C348.187 216.061 346.774 217.522 345.031 217.522C343.288 217.522 341.86 216.061 341.86 214.271Z" stroke="#5A5A5A" stroke-width="0.5"/>
<path d="M341.86 223.897C341.86 222.091 343.273 220.646 345.031 220.646C346.79 220.646 348.203 222.107 348.203 223.897C348.187 225.687 346.774 227.148 345.031 227.148C343.288 227.148 341.86 225.687 341.86 223.897Z" stroke="#5A5A5A" stroke-width="0.5"/>
<path d="M354.088 256L330 256L330 279.699L354.104 279.699L354.088 256Z" fill="white" stroke="#5A5A5A" stroke-width="0.5"/>
<path d="M347.482 257.803L334.165 257.803C333.423 257.803 333.059 258.167 333.059 258.924L333.059 276.532C333.059 277.259 333.423 277.638 334.15 277.653L347.482 277.638C348.209 277.653 348.573 277.275 348.573 276.532L348.573 258.924C348.603 258.182 348.225 257.803 347.482 257.803Z" fill="white" stroke="#5A5A5A" stroke-width="0.5"/>
<path d="M352.24 267.728C352.225 268.653 351.528 269.395 350.649 269.395L343.665 268.743L343.65 268.728C343.12 268.728 342.695 268.289 342.695 267.728C342.695 267.168 343.12 266.728 343.665 266.713L350.649 266.061C351.513 266.061 352.225 266.804 352.24 267.728Z" stroke="#5A5A5A" stroke-width="0.5"/>
<mask id="path-12-inside-1_26_4692" fill="white">
<path fill-rule="evenodd" clip-rule="evenodd" d="M351.557 269.107L347.755 268.744C347.224 268.729 346.785 268.289 346.8 267.713C346.8 267.153 347.224 266.728 347.755 266.713L351.557 266.35"/>
</mask>
<path fill-rule="evenodd" clip-rule="evenodd" d="M351.557 269.107L347.755 268.744C347.224 268.729 346.785 268.289 346.8 267.713C346.8 267.153 347.224 266.728 347.755 266.713L351.557 266.35" fill="white"/>
<path d="M347.755 268.744L347.769 268.244L347.786 268.244L347.802 268.246L347.755 268.744ZM346.8 267.713L347.3 267.713L347.3 267.726L346.8 267.713ZM347.755 266.713L347.802 267.211L347.786 267.213L347.769 267.213L347.755 266.713ZM351.51 269.605L347.707 269.241L347.802 268.246L351.605 268.61L351.51 269.605ZM347.74 269.243C346.935 269.22 346.278 268.552 346.3 267.7L347.3 267.726C347.292 268.026 347.514 268.237 347.769 268.244L347.74 269.243ZM346.3 267.713C346.3 266.884 346.938 266.236 347.74 266.213L347.769 267.213C347.511 267.22 347.3 267.421 347.3 267.713L346.3 267.713ZM347.707 266.215L351.51 265.852L351.605 266.847L347.802 267.211L347.707 266.215Z" fill="#5A5A5A" mask="url(#path-12-inside-1_26_4692)"/>
<circle cx="68.5" cy="156.5" r="39.5" fill="#5A5A5A"/>
<path d="M44.72 155.54C44.72 154.268 45.176 153.2 46.088 152.336C47 151.472 48.164 151.04 49.58 151.04C50.996 151.04 52.16 151.472 53.072 152.336C53.984 153.2 54.44 154.268 54.44 155.54C54.44 156.68 53.966 157.91 53.018 159.23C52.922 159.362 52.79 159.542 52.622 159.77C52.454 159.986 52.34 160.136 52.28 160.22L49.4 164H46.97L49.688 160.454L50.48 159.77V159.68C50.456 159.692 50.336 159.74 50.12 159.824C49.808 159.908 49.418 159.95 48.95 159.95C47.774 159.95 46.772 159.53 45.944 158.69C45.128 157.838 44.72 156.788 44.72 155.54ZM47.618 153.668C47.126 154.148 46.88 154.772 46.88 155.54C46.88 156.308 47.126 156.938 47.618 157.43C48.11 157.91 48.764 158.15 49.58 158.15C50.396 158.15 51.05 157.91 51.542 157.43C52.034 156.938 52.28 156.308 52.28 155.54C52.28 154.772 52.034 154.148 51.542 153.668C51.05 153.176 50.396 152.93 49.58 152.93C48.764 152.93 48.11 153.176 47.618 153.668ZM57.5942 162.488C56.4542 161.24 55.8842 159.644 55.8842 157.7C55.8842 155.756 56.4542 154.16 57.5942 152.912C58.7342 151.664 60.1142 151.04 61.7342 151.04C63.3542 151.04 64.7342 151.664 65.8742 152.912C67.0142 154.16 67.5842 155.756 67.5842 157.7C67.5842 159.644 67.0142 161.24 65.8742 162.488C64.7342 163.736 63.3542 164.36 61.7342 164.36C60.1142 164.36 58.7342 163.736 57.5942 162.488ZM59.0702 154.244C58.3862 155.06 58.0442 156.212 58.0442 157.7C58.0442 159.188 58.3862 160.34 59.0702 161.156C59.7662 161.972 60.6542 162.38 61.7342 162.38C62.8142 162.38 63.6962 161.972 64.3802 161.156C65.0762 160.34 65.4242 159.188 65.4242 157.7C65.4242 156.212 65.0762 155.06 64.3802 154.244C63.6962 153.428 62.8142 153.02 61.7342 153.02C60.6542 153.02 59.7662 153.428 59.0702 154.244ZM69.1184 163.01C69.1184 162.65 69.2324 162.35 69.4604 162.11C69.7004 161.87 69.9944 161.75 70.3424 161.75C70.7384 161.75 71.0504 161.894 71.2784 162.182C71.5184 162.47 71.6384 162.896 71.6384 163.46C71.6384 164.384 71.4164 165.092 70.9724 165.584C70.5404 166.088 69.9524 166.34 69.2084 166.34V165.44C69.5684 165.44 69.8504 165.338 70.0544 165.134C70.2704 164.942 70.3784 164.684 70.3784 164.36V164.252C70.3664 164.24 70.3604 164.216 70.3604 164.18V164.126L70.2524 164.162C70.2164 164.174 70.1384 164.18 70.0184 164.18C69.7784 164.18 69.5684 164.072 69.3884 163.856C69.2084 163.64 69.1184 163.358 69.1184 163.01ZM72.8035 155.54V153.2L75.1435 151.4H77.0335V164H74.9635V153.92L72.8035 155.54ZM78.8349 164V162.02L83.1369 158.978C84.0729 158.306 84.7449 157.682 85.1529 157.106C85.5609 156.53 85.7649 155.918 85.7649 155.27C85.7649 154.586 85.5549 154.04 85.1349 153.632C84.7149 153.224 84.1449 153.02 83.4249 153.02C82.5369 153.02 81.8709 153.38 81.4269 154.1C81.2349 154.412 81.0909 154.772 80.9949 155.18H78.8349C78.9429 154.412 79.1769 153.722 79.5369 153.11C80.3889 151.73 81.6849 151.04 83.4249 151.04C84.7569 151.04 85.8369 151.436 86.6649 152.228C87.5049 153.008 87.9249 153.992 87.9249 155.18C87.9249 156.212 87.6609 157.142 87.1329 157.97C86.6049 158.786 85.7589 159.596 84.5949 160.4L82.7949 161.66L81.9849 162.02V162.11L83.0649 162.02H87.9249V164H78.8349Z" fill="white"/>
<path d="M291 422L356 422L356 311L291 311L291 422Z" fill="#FFC79F"/>
<rect x="34" y="54" width="30" height="34" transform="rotate(90 34 54)" fill="#5A5A5A"/>
<rect x="147" y="54" width="30" height="57" transform="rotate(90 147 54)" fill="#5A5A5A"/>
<rect x="263" y="54" width="30" height="60" transform="rotate(90 263 54)" fill="#5A5A5A"/>
<rect x="354" y="609" width="30" height="26" transform="rotate(90 354 609)" fill="#5A5A5A"/>
<rect x="273" y="609" width="30" height="48" transform="rotate(90 273 609)" fill="#5A5A5A"/>
<rect x="370" y="54" width="30" height="41" transform="rotate(90 370 54)" fill="#5A5A5A"/>
<rect x="1" y="55" width="16" height="290" fill="#5A5A5A"/>
<rect x="354" y="55" width="16" height="584" fill="#5A5A5A"/>
<rect x="225" y="366" width="16" height="273" fill="#5A5A5A"/>
<rect x="225" y="55" width="16" height="207" fill="#5A5A5A"/>
<path d="M216.75 257.25L183.262 257.275L183.252 258.75L216.75 258.75L216.75 257.25Z" stroke="#5A5A5A" stroke-width="0.5" stroke-miterlimit="10"/>
<path d="M160.75 257.25L127.262 257.275L127.252 258.75L160.75 258.75L160.75 257.25Z" stroke="#5A5A5A" stroke-width="0.5" stroke-miterlimit="10"/>
<path d="M188.75 255.25L155.262 255.275L155.252 256.75L188.75 256.75L188.75 255.25Z" stroke="#5A5A5A" stroke-width="0.5" stroke-miterlimit="10"/>
<rect x="121" y="333" width="16" height="112" transform="rotate(90 121 333)" fill="#5A5A5A"/>
<rect x="225" y="296" width="16" height="23" fill="#5A5A5A"/>
<rect x="105" y="385" width="16" height="23" fill="#5A5A5A"/>
<rect x="362" y="304" width="8.00001" height="137" transform="rotate(90 362 304)" fill="#5A5A5A"/>
<rect x="291" y="366" width="8.00001" height="62" transform="rotate(-180 291 366)" fill="#5A5A5A"/>
<rect x="291" y="437" width="8" height="43" transform="rotate(-180 291 437)" fill="#5A5A5A"/>
<rect x="287" y="437" width="8" height="69" transform="rotate(-90 287 437)" fill="#5A5A5A"/>
<rect x="121" y="272" width="8" height="108" transform="rotate(90 121 272)" fill="#5A5A5A"/>
<rect x="121" y="288" width="8" height="33" transform="rotate(-180 121 288)" fill="#5A5A5A"/>
<rect x="113" y="263" width="8" height="21" transform="rotate(-90 113 263)" fill="#5A5A5A"/>
<rect x="210" y="263" width="8" height="31" transform="rotate(-90 210 263)" fill="#5A5A5A"/>
<rect x="121" y="341" width="8" height="25" transform="rotate(-180 121 341)" fill="#5A5A5A"/>
<rect x="234" y="402" width="16" height="129" transform="rotate(90 234 402)" fill="#5A5A5A"/>
<rect x="109" y="84" width="2" height="6" fill="#5A5A5A"/>
<rect x="109" y="95" width="2" height="11" fill="#5A5A5A"/>
<rect x="109" y="112" width="2" height="11" fill="#5A5A5A"/>
<rect x="109" y="129" width="2" height="11" fill="#5A5A5A"/>
<rect x="109" y="146" width="2" height="11" fill="#5A5A5A"/>
<rect x="109" y="163" width="2" height="11" fill="#5A5A5A"/>
<rect x="109" y="180" width="2" height="11" fill="#5A5A5A"/>
<rect x="109" y="197" width="2" height="11" fill="#5A5A5A"/>
<rect x="109" y="214" width="2" height="11" fill="#5A5A5A"/>
<rect x="109" y="231" width="2" height="11" fill="#5A5A5A"/>
<rect x="109" y="248" width="2" height="11" fill="#5A5A5A"/>
<rect x="109" y="265" width="2" height="11" fill="#5A5A5A"/>
<line x1="227.433" y1="258.25" x2="207.433" y2="292.854" stroke="#5A5A5A"/>
<line x1="270.43" y1="370.745" x2="284.43" y2="394.348" stroke="#5A5A5A"/>
<line y1="-0.5" x2="27.4431" y2="-0.5" transform="matrix(-0.510145 0.860088 0.860088 0.510145 134 294)" stroke="#5A5A5A"/>
<line x1="105.436" y1="349.245" x2="87.4358" y2="381.245" stroke="#5A5A5A"/>
<path d="M332.75 60.2508L233.29 60.4021L233.251 71.7504L332.75 71.7504L332.75 60.2508Z" stroke="#5A5A5A" stroke-width="0.5" stroke-miterlimit="10"/>
<path d="M273.42 40.2H275.1C275.165 40.4893 275.291 40.746 275.478 40.97C275.898 41.4833 276.495 41.74 277.27 41.74C277.914 41.74 278.423 41.5813 278.796 41.264C279.179 40.9373 279.37 40.536 279.37 40.06C279.37 39.5187 279.197 39.094 278.852 38.786C278.516 38.4687 278.035 38.31 277.41 38.31H275.03V36.91L277.97 34.81V34.74H273.91V33.2H280.35V34.726L277.83 36.56L277.13 36.84V36.91L277.354 36.882C277.662 36.854 277.844 36.84 277.9 36.84C278.777 36.84 279.51 37.1433 280.098 37.75C280.686 38.3567 280.98 39.1267 280.98 40.06C280.98 40.956 280.635 41.7167 279.944 42.342C279.253 42.9673 278.362 43.28 277.27 43.28C275.823 43.28 274.755 42.7667 274.064 41.74C273.765 41.3013 273.551 40.788 273.42 40.2ZM282.037 42.23C282.037 41.95 282.125 41.7167 282.303 41.53C282.489 41.3433 282.718 41.25 282.989 41.25C283.297 41.25 283.539 41.362 283.717 41.586C283.903 41.81 283.997 42.1413 283.997 42.58C283.997 43.2987 283.824 43.8493 283.479 44.232C283.143 44.624 282.685 44.82 282.107 44.82V44.12C282.387 44.12 282.606 44.0407 282.765 43.882C282.933 43.7327 283.017 43.532 283.017 43.28V43.196C283.007 43.1867 283.003 43.168 283.003 43.14V43.098L282.919 43.126C282.891 43.1353 282.83 43.14 282.737 43.14C282.55 43.14 282.387 43.056 282.247 42.888C282.107 42.72 282.037 42.5007 282.037 42.23ZM285.043 39.78C285.043 39.332 285.141 38.8653 285.337 38.38C285.542 37.8853 285.738 37.498 285.925 37.218C286.121 36.9287 286.387 36.5693 286.723 36.14L288.963 33.2H290.853L288.739 35.958L288.123 36.49V36.56L288.403 36.462C288.683 36.3873 288.986 36.35 289.313 36.35C290.227 36.35 291.002 36.6813 291.637 37.344C292.281 37.9973 292.603 38.8093 292.603 39.78C292.603 40.7693 292.248 41.6 291.539 42.272C290.829 42.944 289.924 43.28 288.823 43.28C287.721 43.28 286.816 42.944 286.107 42.272C285.397 41.6 285.043 40.7693 285.043 39.78ZM287.297 38.324C286.914 38.6973 286.723 39.1827 286.723 39.78C286.723 40.3773 286.914 40.8673 287.297 41.25C287.679 41.6233 288.188 41.81 288.823 41.81C289.457 41.81 289.966 41.6233 290.349 41.25C290.731 40.8673 290.923 40.3773 290.923 39.78C290.923 39.1827 290.731 38.6973 290.349 38.324C289.966 37.9413 289.457 37.75 288.823 37.75C288.188 37.75 287.679 37.9413 287.297 38.324ZM293.656 39.78C293.656 39.332 293.754 38.8653 293.95 38.38C294.155 37.8853 294.351 37.498 294.538 37.218C294.734 36.9287 295 36.5693 295.336 36.14L297.576 33.2H299.466L297.352 35.958L296.736 36.49V36.56L297.016 36.462C297.296 36.3873 297.599 36.35 297.926 36.35C298.841 36.35 299.615 36.6813 300.25 37.344C300.894 37.9973 301.216 38.8093 301.216 39.78C301.216 40.7693 300.861 41.6 300.152 42.272C299.443 42.944 298.537 43.28 297.436 43.28C296.335 43.28 295.429 42.944 294.72 42.272C294.011 41.6 293.656 40.7693 293.656 39.78ZM295.91 38.324C295.527 38.6973 295.336 39.1827 295.336 39.78C295.336 40.3773 295.527 40.8673 295.91 41.25C296.293 41.6233 296.801 41.81 297.436 41.81C298.071 41.81 298.579 41.6233 298.962 41.25C299.345 40.8673 299.536 40.3773 299.536 39.78C299.536 39.1827 299.345 38.6973 298.962 38.324C298.579 37.9413 298.071 37.75 297.436 37.75C296.801 37.75 296.293 37.9413 295.91 38.324Z" fill="#333333"/>
<path d="M346.75 609.25L241.293 609.402L241.251 620.75L346.75 620.75L346.75 609.25Z" stroke="#5A5A5A" stroke-width="0.5" stroke-miterlimit="10"/>
<path d="M107.75 72.2504L8.29018 72.4017L8.25087 83.75L107.75 83.75L107.75 72.2504Z" stroke="#5A5A5A" stroke-width="0.5" stroke-miterlimit="10"/>
<path d="M346.75 627.25L241.293 627.402L241.251 638.75L346.75 638.75L346.75 627.25Z" stroke="#5A5A5A" stroke-width="0.5" stroke-miterlimit="10"/>
<line x1="320.257" y1="67.4287" x2="295.257" y2="82.4287" stroke="#5A5A5A"/>
<path d="M325.75 0.250204L244.282 0.313162L244.252 4.74999L325.75 4.75001L325.75 0.250204Z" stroke="#5A5A5A" stroke-width="0.5" stroke-miterlimit="10"/>
<rect x="342" y="6.10352e-05" width="5" height="74" fill="#5A5A5A"/>
<rect x="239" y="6.10352e-05" width="5" height="74" fill="#5A5A5A"/>
<rect x="258" width="5" height="19" transform="rotate(90 258 0)" fill="#5A5A5A"/>
<rect x="344" width="5" height="19" transform="rotate(90 344 0)" fill="#5A5A5A"/>
<path d="M292.75 54.2503L232.274 54.3131L232.251 58.75L292.75 58.75L292.75 54.2503Z" stroke="#5A5A5A" stroke-width="0.5" stroke-miterlimit="10"/>
<path d="M292.75 64.2503L232.274 64.3131L232.251 68.75L292.75 68.75L292.75 64.2503Z" stroke="#5A5A5A" stroke-width="0.5" stroke-miterlimit="10"/>
<path d="M334.476 329.265L335.656 329.281L338.722 329.265L346.314 329.265L346.314 339.222L334.476 339.222C331.459 339.222 329 336.979 329 334.227C329 331.509 331.459 329.265 334.476 329.265Z" fill="white" stroke="#5A5A5A" stroke-width="0.5"/>
<path d="M334.542 330.411L335.476 330.411L343.035 330.411L343.035 338.092L335.476 338.092L334.542 338.076C332.164 338.076 330.229 336.372 330.229 334.243C330.246 332.131 332.181 330.411 334.542 330.411Z" fill="white" stroke="#5A5A5A" stroke-width="0.5"/>
<path d="M352.675 341.024L347.412 341.024C346.806 341.024 346.314 340.532 346.314 339.926L346.314 328.643C346.314 328.037 346.806 327.545 347.412 327.545L352.675 327.545C353.282 327.545 353.774 328.037 353.774 328.643L353.774 339.91C353.774 340.532 353.282 341.024 352.675 341.024Z" fill="white" stroke="#5A5A5A" stroke-width="0.5"/>
<path d="M350.052 334.931C349.642 334.931 349.331 334.637 349.331 334.293C349.314 333.932 349.642 333.638 350.052 333.638C350.462 333.638 350.773 333.932 350.773 334.276C350.757 334.653 350.445 334.948 350.052 334.931Z" fill="white" stroke="#5A5A5A" stroke-width="0.5"/>
<path d="M352.305 390.69L339.997 390.69C339.141 390.69 338.457 390.007 338.457 389.152L338.457 370.633C338.457 369.778 339.141 369.094 339.997 369.094L352.305 369.094C353.161 369.094 353.845 369.778 353.845 370.633L353.845 389.152C353.845 389.992 353.161 390.69 352.305 390.69Z" fill="white" stroke="#5A5A5A" stroke-width="0.5"/>
<path d="M347.613 388.767L345.716 388.767C343.22 388.767 341.195 386.744 341.195 384.251L341.195 375.533C341.195 373.04 343.22 371.017 345.716 371.017L347.613 371.017C350.109 371.017 352.134 373.04 352.134 375.533L352.134 384.251C352.134 386.744 350.109 388.767 347.613 388.767Z" fill="white" stroke="#5A5A5A" stroke-width="0.5"/>
<path d="M349.724 380.847C349.18 380.847 348.74 380.42 348.74 379.893C348.74 379.365 349.18 378.938 349.724 378.938C350.267 378.938 350.708 379.365 350.708 379.893C350.708 380.42 350.267 380.847 349.724 380.847Z" fill="white" stroke="#5A5A5A" stroke-width="0.5"/>
<path d="M352.506 402.389L292.386 402.389C291.616 402.389 291 403.004 291 403.773L291 427.64C291 428.409 291.616 429.024 292.386 429.024L352.506 429.024C353.276 429.024 353.892 428.409 353.892 427.64L353.892 403.773C353.892 403.004 353.262 402.389 352.506 402.389Z" fill="white" stroke="#5A5A5A" stroke-width="0.5"/>
<path d="M294.696 412.47L294.696 418.958C294.696 422.719 297.747 425.753 301.498 425.753L348.839 425.753C349.763 425.753 350.505 425.012 350.505 424.089L350.505 407.311C350.505 406.388 349.763 405.647 348.839 405.647L301.512 405.647C297.747 405.661 294.696 408.709 294.696 412.47Z" fill="white" stroke="#5A5A5A" stroke-width="0.5"/>
<path d="M344.892 415.238C344.892 414.489 345.525 413.882 346.305 413.882C347.086 413.882 347.719 414.489 347.719 415.238C347.719 415.987 347.086 416.594 346.305 416.594C345.525 416.594 344.892 415.987 344.892 415.238Z" fill="white" stroke="#5A5A5A" stroke-width="0.5"/>
<path d="M291 334.024L291 312.014L312.587 312L312.573 334.01L291 334.024Z" fill="white" stroke="#5A5A5A" stroke-width="0.5"/>
<path d="M307.33 323.005C307.33 319.891 304.856 317.377 301.794 317.377C298.732 317.377 296.257 319.891 296.257 323.019C296.257 326.133 298.732 328.675 301.794 328.675C304.856 328.661 307.33 326.119 307.33 323.005Z" stroke="#5A5A5A" stroke-width="0.5"/>
<path d="M301.794 327.125C302.912 327.139 303.919 326.678 304.646 325.924C305.373 325.17 305.82 324.136 305.834 323.019M301.808 318.885C302.912 318.885 303.919 319.346 304.66 320.086C305.387 320.84 305.848 321.86 305.848 323.005L301.808 318.885ZM301.794 327.125C300.689 327.125 299.683 326.664 298.942 325.924C298.214 325.17 297.767 324.136 297.767 323.005L301.794 327.125ZM301.808 318.885C300.675 318.885 299.669 319.346 298.955 320.086L298.942 320.1C298.228 320.84 297.767 321.86 297.767 322.991L301.808 318.885Z" stroke="#5A5A5A" stroke-width="0.5"/>
<path d="M36.298 307.759L35.1175 307.742L32.0515 307.759L24.4602 307.759L24.4602 297.801L36.298 297.801C39.3148 297.801 41.7742 300.045 41.7742 302.796C41.7742 305.515 39.3148 307.759 36.298 307.759Z" fill="white" stroke="#5A5A5A" stroke-width="0.5"/>
<path d="M36.2324 306.612L35.2978 306.612L27.7394 306.612L27.7394 298.932L35.2978 298.932L36.2324 298.948C38.6097 298.948 40.5444 300.651 40.5444 302.78C40.528 304.893 38.5934 306.612 36.2324 306.612Z" fill="white" stroke="#5A5A5A" stroke-width="0.5"/>
<path d="M18.0986 296L23.3617 296C23.9683 296 24.4602 296.491 24.4602 297.097L24.4602 308.381C24.4602 308.987 23.9683 309.478 23.3617 309.478L18.0986 309.478C17.492 309.478 17.0001 308.987 17.0001 308.381L17.0001 297.114C17.0001 296.491 17.492 296 18.0986 296Z" fill="white" stroke="#5A5A5A" stroke-width="0.5"/>
<path d="M20.7219 302.092C21.1318 302.092 21.4433 302.387 21.4433 302.731C21.4597 303.091 21.1318 303.386 20.7219 303.386C20.312 303.386 20.0005 303.091 20.0005 302.747C20.0169 302.371 20.3284 302.076 20.7219 302.092Z" fill="white" stroke="#5A5A5A" stroke-width="0.5"/>
<path d="M73.5964 331.848L73.5964 319.54C73.5964 318.685 72.9126 318 72.0579 318L53.5385 318C52.6838 318 52 318.685 52 319.54L52 331.848C52 332.704 52.6838 333.389 53.5385 333.389L72.0579 333.389C72.8984 333.389 73.5964 332.704 73.5964 331.848Z" fill="white" stroke="#5A5A5A" stroke-width="0.5"/>
<path d="M71.6734 327.156L71.6734 325.259C71.6734 322.764 69.6505 320.738 67.1575 320.738L58.4392 320.738C55.9462 320.738 53.9233 322.764 53.9233 325.259L53.9233 327.156C53.9233 329.652 55.9462 331.677 58.4392 331.677L67.1575 331.677C69.6505 331.677 71.6734 329.652 71.6734 327.156Z" fill="white" stroke="#5A5A5A" stroke-width="0.5"/>
<path d="M63.7531 329.267C63.7531 328.724 63.3257 328.283 62.7986 328.283C62.2715 328.283 61.8442 328.724 61.8442 329.267C61.8442 329.81 62.2715 330.251 62.7986 330.251C63.3257 330.251 63.7531 329.81 63.7531 329.267Z" fill="white" stroke="#5A5A5A" stroke-width="0.5"/>
<path d="M153.42 187V185.46L156.766 183.094C157.494 182.571 158.017 182.086 158.334 181.638C158.651 181.19 158.81 180.714 158.81 180.21C158.81 179.678 158.647 179.253 158.32 178.936C157.993 178.619 157.55 178.46 156.99 178.46C156.299 178.46 155.781 178.74 155.436 179.3C155.287 179.543 155.175 179.823 155.1 180.14H153.42C153.504 179.543 153.686 179.006 153.966 178.53C154.629 177.457 155.637 176.92 156.99 176.92C158.026 176.92 158.866 177.228 159.51 177.844C160.163 178.451 160.49 179.216 160.49 180.14C160.49 180.943 160.285 181.666 159.874 182.31C159.463 182.945 158.805 183.575 157.9 184.2L156.5 185.18L155.87 185.46V185.53L156.71 185.46H160.49V187H153.42ZM161.613 180.42C161.613 179.431 161.967 178.6 162.677 177.928C163.386 177.256 164.291 176.92 165.393 176.92C166.494 176.92 167.399 177.256 168.109 177.928C168.818 178.6 169.173 179.431 169.173 180.42C169.173 181.307 168.804 182.263 168.067 183.29C167.992 183.393 167.889 183.533 167.759 183.71C167.628 183.878 167.539 183.995 167.493 184.06L165.253 187H163.363L165.477 184.242L166.093 183.71V183.64C166.074 183.649 165.981 183.687 165.813 183.752C165.57 183.817 165.267 183.85 164.903 183.85C163.988 183.85 163.209 183.523 162.565 182.87C161.93 182.207 161.613 181.391 161.613 180.42ZM163.867 178.964C163.484 179.337 163.293 179.823 163.293 180.42C163.293 181.017 163.484 181.507 163.867 181.89C164.249 182.263 164.758 182.45 165.393 182.45C166.027 182.45 166.536 182.263 166.919 181.89C167.301 181.507 167.493 181.017 167.493 180.42C167.493 179.823 167.301 179.337 166.919 178.964C166.536 178.581 166.027 178.39 165.393 178.39C164.758 178.39 164.249 178.581 163.867 178.964ZM170.226 186.23C170.226 185.95 170.315 185.717 170.492 185.53C170.679 185.343 170.907 185.25 171.178 185.25C171.486 185.25 171.729 185.362 171.906 185.586C172.093 185.81 172.186 186.141 172.186 186.58C172.186 187.299 172.013 187.849 171.668 188.232C171.332 188.624 170.875 188.82 170.296 188.82V188.12C170.576 188.12 170.795 188.041 170.954 187.882C171.122 187.733 171.206 187.532 171.206 187.28V187.196C171.197 187.187 171.192 187.168 171.192 187.14V187.098L171.108 187.126C171.08 187.135 171.019 187.14 170.926 187.14C170.739 187.14 170.576 187.056 170.436 186.888C170.296 186.72 170.226 186.501 170.226 186.23ZM173.092 180.42V178.6L174.912 177.2H176.382V187H174.772V179.16L173.092 180.42ZM177.573 185.04V183.5L180.863 177.2H182.613L179.323 183.5H182.543V181.12H182.613H184.153V183.5H185.553V185.04H184.153V187H182.543V185.04H177.573Z" fill="#333333"/>
<path d="M274.35 171.42V169.6L276.17 168.2H277.64V178H276.03V170.16L274.35 171.42ZM279.181 171.42C279.181 170.431 279.536 169.6 280.245 168.928C280.954 168.256 281.86 167.92 282.961 167.92C284.062 167.92 284.968 168.256 285.677 168.928C286.386 169.6 286.741 170.431 286.741 171.42C286.741 172.307 286.372 173.263 285.635 174.29C285.56 174.393 285.458 174.533 285.327 174.71C285.196 174.878 285.108 174.995 285.061 175.06L282.821 178H280.931L283.045 175.242L283.661 174.71V174.64C283.642 174.649 283.549 174.687 283.381 174.752C283.138 174.817 282.835 174.85 282.471 174.85C281.556 174.85 280.777 174.523 280.133 173.87C279.498 173.207 279.181 172.391 279.181 171.42ZM281.435 169.964C281.052 170.337 280.861 170.823 280.861 171.42C280.861 172.017 281.052 172.507 281.435 172.89C281.818 173.263 282.326 173.45 282.961 173.45C283.596 173.45 284.104 173.263 284.487 172.89C284.87 172.507 285.061 172.017 285.061 171.42C285.061 170.823 284.87 170.337 284.487 169.964C284.104 169.581 283.596 169.39 282.961 169.39C282.326 169.39 281.818 169.581 281.435 169.964ZM287.794 177.23C287.794 176.95 287.883 176.717 288.06 176.53C288.247 176.343 288.476 176.25 288.746 176.25C289.054 176.25 289.297 176.362 289.474 176.586C289.661 176.81 289.754 177.141 289.754 177.58C289.754 178.299 289.582 178.849 289.236 179.232C288.9 179.624 288.443 179.82 287.864 179.82V179.12C288.144 179.12 288.364 179.041 288.522 178.882C288.69 178.733 288.774 178.532 288.774 178.28V178.196C288.765 178.187 288.76 178.168 288.76 178.14V178.098L288.676 178.126C288.648 178.135 288.588 178.14 288.494 178.14C288.308 178.14 288.144 178.056 288.004 177.888C287.864 177.72 287.794 177.501 287.794 177.23ZM290.801 174.78C290.801 174.332 290.899 173.865 291.095 173.38C291.3 172.885 291.496 172.498 291.683 172.218C291.879 171.929 292.145 171.569 292.481 171.14L294.721 168.2H296.611L294.497 170.958L293.881 171.49V171.56L294.161 171.462C294.441 171.387 294.744 171.35 295.071 171.35C295.985 171.35 296.76 171.681 297.395 172.344C298.039 172.997 298.361 173.809 298.361 174.78C298.361 175.769 298.006 176.6 297.297 177.272C296.587 177.944 295.682 178.28 294.581 178.28C293.479 178.28 292.574 177.944 291.865 177.272C291.155 176.6 290.801 175.769 290.801 174.78ZM293.055 173.324C292.672 173.697 292.481 174.183 292.481 174.78C292.481 175.377 292.672 175.867 293.055 176.25C293.437 176.623 293.946 176.81 294.581 176.81C295.215 176.81 295.724 176.623 296.107 176.25C296.489 175.867 296.681 175.377 296.681 174.78C296.681 174.183 296.489 173.697 296.107 173.324C295.724 172.941 295.215 172.75 294.581 172.75C293.946 172.75 293.437 172.941 293.055 173.324ZM299.484 175.34C299.484 174.491 299.81 173.814 300.464 173.31C300.744 173.114 301.07 172.965 301.444 172.862V172.778C301.154 172.666 300.898 172.512 300.674 172.316C300.16 171.877 299.904 171.299 299.904 170.58C299.904 169.843 300.216 169.217 300.842 168.704C301.476 168.181 302.33 167.92 303.404 167.92C304.477 167.92 305.326 168.181 305.952 168.704C306.586 169.217 306.904 169.843 306.904 170.58C306.904 171.28 306.647 171.859 306.134 172.316C305.891 172.512 305.634 172.666 305.364 172.778V172.862C305.718 172.955 306.045 173.109 306.344 173.324C306.997 173.828 307.324 174.5 307.324 175.34C307.324 176.152 306.969 176.847 306.26 177.426C305.56 177.995 304.608 178.28 303.404 178.28C302.2 178.28 301.243 177.995 300.534 177.426C299.834 176.847 299.484 176.152 299.484 175.34ZM301.584 170.72C301.584 171.131 301.742 171.467 302.06 171.728C302.377 171.989 302.825 172.12 303.404 172.12C303.982 172.12 304.43 171.989 304.748 171.728C305.065 171.467 305.224 171.131 305.224 170.72C305.224 170.347 305.06 170.034 304.734 169.782C304.416 169.521 303.973 169.39 303.404 169.39C302.834 169.39 302.386 169.521 302.06 169.782C301.742 170.034 301.584 170.347 301.584 170.72ZM301.752 174.066C301.36 174.374 301.164 174.752 301.164 175.2C301.164 175.648 301.36 176.031 301.752 176.348C302.153 176.656 302.704 176.81 303.404 176.81C304.104 176.81 304.65 176.656 305.042 176.348C305.443 176.031 305.644 175.648 305.644 175.2C305.644 174.752 305.443 174.374 305.042 174.066C304.65 173.749 304.104 173.59 303.404 173.59C302.704 173.59 302.153 173.749 301.752 174.066Z" fill="#333333"/>
<path d="M278.35 498.42V496.6L280.17 495.2H281.64V505H280.03V497.16L278.35 498.42ZM283.181 502.27H284.861C284.936 502.559 285.062 502.807 285.239 503.012C285.65 503.497 286.247 503.74 287.031 503.74C287.656 503.74 288.151 503.572 288.515 503.236C288.879 502.9 289.061 502.461 289.061 501.92C289.061 501.351 288.879 500.893 288.515 500.548C288.151 500.203 287.656 500.03 287.031 500.03C286.452 500.03 285.962 500.184 285.561 500.492C285.402 500.613 285.262 500.763 285.141 500.94H283.601L284.021 495.2H289.971V496.74H285.351L285.141 499.26H285.211C285.36 499.111 285.533 498.985 285.729 498.882C286.168 498.621 286.695 498.49 287.311 498.49C288.291 498.49 289.108 498.817 289.761 499.47C290.414 500.123 290.741 500.94 290.741 501.92C290.741 502.881 290.396 503.684 289.705 504.328C289.024 504.963 288.132 505.28 287.031 505.28C285.594 505.28 284.525 504.781 283.825 503.782C283.526 503.343 283.312 502.839 283.181 502.27ZM291.794 504.23C291.794 503.95 291.883 503.717 292.06 503.53C292.247 503.343 292.476 503.25 292.746 503.25C293.054 503.25 293.297 503.362 293.474 503.586C293.661 503.81 293.754 504.141 293.754 504.58C293.754 505.299 293.582 505.849 293.236 506.232C292.9 506.624 292.443 506.82 291.864 506.82V506.12C292.144 506.12 292.364 506.041 292.522 505.882C292.69 505.733 292.774 505.532 292.774 505.28V505.196C292.765 505.187 292.76 505.168 292.76 505.14V505.098L292.676 505.126C292.648 505.135 292.588 505.14 292.494 505.14C292.308 505.14 292.144 505.056 292.004 504.888C291.864 504.72 291.794 504.501 291.794 504.23ZM294.731 505V503.46L298.077 501.094C298.805 500.571 299.327 500.086 299.645 499.638C299.962 499.19 300.121 498.714 300.121 498.21C300.121 497.678 299.957 497.253 299.631 496.936C299.304 496.619 298.861 496.46 298.301 496.46C297.61 496.46 297.092 496.74 296.747 497.3C296.597 497.543 296.485 497.823 296.411 498.14H294.731C294.815 497.543 294.997 497.006 295.277 496.53C295.939 495.457 296.947 494.92 298.301 494.92C299.337 494.92 300.177 495.228 300.821 495.844C301.474 496.451 301.801 497.216 301.801 498.14C301.801 498.943 301.595 499.666 301.185 500.31C300.774 500.945 300.116 501.575 299.211 502.2L297.811 503.18L297.181 503.46V503.53L298.021 503.46H301.801V505H294.731ZM302.923 502.27H304.603C304.678 502.559 304.804 502.807 304.981 503.012C305.392 503.497 305.989 503.74 306.773 503.74C307.399 503.74 307.893 503.572 308.257 503.236C308.621 502.9 308.803 502.461 308.803 501.92C308.803 501.351 308.621 500.893 308.257 500.548C307.893 500.203 307.399 500.03 306.773 500.03C306.195 500.03 305.705 500.184 305.303 500.492C305.145 500.613 305.005 500.763 304.883 500.94H303.343L303.763 495.2H309.713V496.74H305.093L304.883 499.26H304.953C305.103 499.111 305.275 498.985 305.471 498.882C305.91 498.621 306.437 498.49 307.053 498.49C308.033 498.49 308.85 498.817 309.503 499.47C310.157 500.123 310.483 500.94 310.483 501.92C310.483 502.881 310.138 503.684 309.447 504.328C308.766 504.963 307.875 505.28 306.773 505.28C305.336 505.28 304.267 504.781 303.567 503.782C303.269 503.343 303.054 502.839 302.923 502.27Z" fill="#333333"/>
<path d="M161.35 353.42V351.6L163.17 350.2H164.64V360H163.03V352.16L161.35 353.42ZM165.971 353.42V351.6L167.791 350.2H169.261V360H167.651V352.16L165.971 353.42ZM170.802 359.23C170.802 358.95 170.891 358.717 171.068 358.53C171.255 358.343 171.484 358.25 171.754 358.25C172.062 358.25 172.305 358.362 172.482 358.586C172.669 358.81 172.762 359.141 172.762 359.58C172.762 360.299 172.59 360.849 172.244 361.232C171.908 361.624 171.451 361.82 170.872 361.82V361.12C171.152 361.12 171.372 361.041 171.53 360.882C171.698 360.733 171.782 360.532 171.782 360.28V360.196C171.773 360.187 171.768 360.168 171.768 360.14V360.098L171.684 360.126C171.656 360.135 171.596 360.14 171.502 360.14C171.316 360.14 171.152 360.056 171.012 359.888C170.872 359.72 170.802 359.501 170.802 359.23ZM173.528 358.04V356.5L176.818 350.2H178.568L175.278 356.5H178.498V354.12H178.568H180.108V356.5H181.508V358.04H180.108V360H178.498V358.04H173.528ZM182.068 357.27H183.748C183.822 357.559 183.948 357.807 184.126 358.012C184.536 358.497 185.134 358.74 185.918 358.74C186.543 358.74 187.038 358.572 187.402 358.236C187.766 357.9 187.948 357.461 187.948 356.92C187.948 356.351 187.766 355.893 187.402 355.548C187.038 355.203 186.543 355.03 185.918 355.03C185.339 355.03 184.849 355.184 184.448 355.492C184.289 355.613 184.149 355.763 184.028 355.94H182.488L182.908 350.2H188.858V351.74H184.238L184.028 354.26H184.098C184.247 354.111 184.42 353.985 184.616 353.882C185.054 353.621 185.582 353.49 186.198 353.49C187.178 353.49 187.994 353.817 188.648 354.47C189.301 355.123 189.628 355.94 189.628 356.92C189.628 357.881 189.282 358.684 188.592 359.328C187.91 359.963 187.019 360.28 185.918 360.28C184.48 360.28 183.412 359.781 182.712 358.782C182.413 358.343 182.198 357.839 182.068 357.27Z" fill="#333333"/>
<path d="M249.21 412.04V410.5L252.5 404.2H254.25L250.96 410.5H254.18V408.12H254.25H255.79V410.5H257.19V412.04H255.79V414H254.18V412.04H249.21ZM257.749 413.23C257.749 412.95 257.838 412.717 258.015 412.53C258.202 412.343 258.431 412.25 258.701 412.25C259.009 412.25 259.252 412.362 259.429 412.586C259.616 412.81 259.709 413.141 259.709 413.58C259.709 414.299 259.537 414.849 259.191 415.232C258.855 415.624 258.398 415.82 257.819 415.82V415.12C258.099 415.12 258.319 415.041 258.477 414.882C258.645 414.733 258.729 414.532 258.729 414.28V414.196C258.72 414.187 258.715 414.168 258.715 414.14V414.098L258.631 414.126C258.603 414.135 258.543 414.14 258.449 414.14C258.263 414.14 258.099 414.056 257.959 413.888C257.819 413.72 257.749 413.501 257.749 413.23ZM260.616 407.42V405.6L262.436 404.2H263.906V414H262.296V406.16L260.616 407.42ZM265.447 411.27H267.127C267.201 411.559 267.327 411.807 267.505 412.012C267.915 412.497 268.513 412.74 269.297 412.74C269.922 412.74 270.417 412.572 270.781 412.236C271.145 411.9 271.327 411.461 271.327 410.92C271.327 410.351 271.145 409.893 270.781 409.548C270.417 409.203 269.922 409.03 269.297 409.03C268.718 409.03 268.228 409.184 267.827 409.492C267.668 409.613 267.528 409.763 267.407 409.94H265.867L266.287 404.2H272.237V405.74H267.617L267.407 408.26H267.477C267.626 408.111 267.799 407.985 267.995 407.882C268.433 407.621 268.961 407.49 269.577 407.49C270.557 407.49 271.373 407.817 272.027 408.47C272.68 409.123 273.007 409.94 273.007 410.92C273.007 411.881 272.661 412.684 271.971 413.328C271.289 413.963 270.398 414.28 269.297 414.28C267.859 414.28 266.791 413.781 266.091 412.782C265.792 412.343 265.577 411.839 265.447 411.27Z" fill="#333333"/>
<path d="M67.21 296.04V294.5L70.5 288.2H72.25L68.96 294.5H72.18V292.12H72.25H73.79V294.5H75.19V296.04H73.79V298H72.18V296.04H67.21ZM75.7495 297.23C75.7495 296.95 75.8381 296.717 76.0155 296.53C76.2021 296.343 76.4308 296.25 76.7015 296.25C77.0095 296.25 77.2521 296.362 77.4295 296.586C77.6161 296.81 77.7095 297.141 77.7095 297.58C77.7095 298.299 77.5368 298.849 77.1915 299.232C76.8555 299.624 76.3981 299.82 75.8195 299.82V299.12C76.0995 299.12 76.3188 299.041 76.4775 298.882C76.6455 298.733 76.7295 298.532 76.7295 298.28V298.196C76.7201 298.187 76.7155 298.168 76.7155 298.14V298.098L76.6315 298.126C76.6035 298.135 76.5428 298.14 76.4495 298.14C76.2628 298.14 76.0995 298.056 75.9595 297.888C75.8195 297.72 75.7495 297.501 75.7495 297.23ZM78.6856 298V296.46L82.0316 294.094C82.7596 293.571 83.2823 293.086 83.5996 292.638C83.917 292.19 84.0756 291.714 84.0756 291.21C84.0756 290.678 83.9123 290.253 83.5856 289.936C83.259 289.619 82.8156 289.46 82.2556 289.46C81.565 289.46 81.047 289.74 80.7016 290.3C80.5523 290.543 80.4403 290.823 80.3656 291.14H78.6856C78.7696 290.543 78.9516 290.006 79.2316 289.53C79.8943 288.457 80.9023 287.92 82.2556 287.92C83.2916 287.92 84.1316 288.228 84.7756 288.844C85.429 289.451 85.7556 290.216 85.7556 291.14C85.7556 291.943 85.5503 292.666 85.1396 293.31C84.729 293.945 84.071 294.575 83.1656 295.2L81.7656 296.18L81.1356 296.46V296.53L81.9756 296.46H85.7556V298H78.6856ZM86.8084 294.78C86.8084 294.332 86.9064 293.865 87.1024 293.38C87.3077 292.885 87.5037 292.498 87.6904 292.218C87.8864 291.929 88.1524 291.569 88.4884 291.14L90.7284 288.2H92.6184L90.5044 290.958L89.8884 291.49V291.56L90.1684 291.462C90.4484 291.387 90.7517 291.35 91.0784 291.35C91.993 291.35 92.7677 291.681 93.4024 292.344C94.0464 292.997 94.3684 293.809 94.3684 294.78C94.3684 295.769 94.0137 296.6 93.3044 297.272C92.595 297.944 91.6897 298.28 90.5884 298.28C89.487 298.28 88.5817 297.944 87.8724 297.272C87.163 296.6 86.8084 295.769 86.8084 294.78ZM89.0624 293.324C88.6797 293.697 88.4884 294.183 88.4884 294.78C88.4884 295.377 88.6797 295.867 89.0624 296.25C89.445 296.623 89.9537 296.81 90.5884 296.81C91.223 296.81 91.7317 296.623 92.1144 296.25C92.497 295.867 92.6884 295.377 92.6884 294.78C92.6884 294.183 92.497 293.697 92.1144 293.324C91.7317 292.941 91.223 292.75 90.5884 292.75C89.9537 292.75 89.445 292.941 89.0624 293.324Z" fill="#333333"/>
<path d="M308.49 359.78C308.49 359.332 308.588 358.865 308.784 358.38C308.989 357.885 309.185 357.498 309.372 357.218C309.568 356.929 309.834 356.569 310.17 356.14L312.41 353.2H314.3L312.186 355.958L311.57 356.49V356.56L311.85 356.462C312.13 356.387 312.433 356.35 312.76 356.35C313.675 356.35 314.449 356.681 315.084 357.344C315.728 357.997 316.05 358.809 316.05 359.78C316.05 360.769 315.695 361.6 314.986 362.272C314.277 362.944 313.371 363.28 312.27 363.28C311.169 363.28 310.263 362.944 309.554 362.272C308.845 361.6 308.49 360.769 308.49 359.78ZM310.744 358.324C310.361 358.697 310.17 359.183 310.17 359.78C310.17 360.377 310.361 360.867 310.744 361.25C311.127 361.623 311.635 361.81 312.27 361.81C312.905 361.81 313.413 361.623 313.796 361.25C314.179 360.867 314.37 360.377 314.37 359.78C314.37 359.183 314.179 358.697 313.796 358.324C313.413 357.941 312.905 357.75 312.27 357.75C311.635 357.75 311.127 357.941 310.744 358.324ZM317.173 362.23C317.173 361.95 317.262 361.717 317.439 361.53C317.626 361.343 317.855 361.25 318.125 361.25C318.433 361.25 318.676 361.362 318.853 361.586C319.04 361.81 319.133 362.141 319.133 362.58C319.133 363.299 318.961 363.849 318.615 364.232C318.279 364.624 317.822 364.82 317.243 364.82V364.12C317.523 364.12 317.743 364.041 317.901 363.882C318.069 363.733 318.153 363.532 318.153 363.28V363.196C318.144 363.187 318.139 363.168 318.139 363.14V363.098L318.055 363.126C318.027 363.135 317.967 363.14 317.873 363.14C317.687 363.14 317.523 363.056 317.383 362.888C317.243 362.72 317.173 362.501 317.173 362.23ZM320.039 356.42V354.6L321.859 353.2H323.329V363H321.719V355.16L320.039 356.42ZM324.871 356.42C324.871 355.431 325.225 354.6 325.935 353.928C326.644 353.256 327.549 352.92 328.651 352.92C329.752 352.92 330.657 353.256 331.367 353.928C332.076 354.6 332.431 355.431 332.431 356.42C332.431 357.307 332.062 358.263 331.325 359.29C331.25 359.393 331.147 359.533 331.017 359.71C330.886 359.878 330.797 359.995 330.751 360.06L328.511 363H326.621L328.735 360.242L329.351 359.71V359.64C329.332 359.649 329.239 359.687 329.071 359.752C328.828 359.817 328.525 359.85 328.161 359.85C327.246 359.85 326.467 359.523 325.823 358.87C325.188 358.207 324.871 357.391 324.871 356.42ZM327.125 354.964C326.742 355.337 326.551 355.823 326.551 356.42C326.551 357.017 326.742 357.507 327.125 357.89C327.507 358.263 328.016 358.45 328.651 358.45C329.285 358.45 329.794 358.263 330.177 357.89C330.559 357.507 330.751 357.017 330.751 356.42C330.751 355.823 330.559 355.337 330.177 354.964C329.794 354.581 329.285 354.39 328.651 354.39C328.016 354.39 327.507 354.581 327.125 354.964Z" fill="#333333"/>
</svg>
