<svg width="468" height="754" viewBox="0 0 468 754" fill="none" xmlns="http://www.w3.org/2000/svg">
<rect x="41" y="62" width="30" height="41" transform="rotate(90 41 62)" fill="#5A5A5A"/>
<path d="M452 91V286.674L0 286.674L8.52372e-06 91L452 91Z" fill="#FFF8BA"/>
<path d="M455 211.415V407.088H139L139 211.415L455 211.415Z" fill="#FFF8BA"/>
<path d="M458 331.829V483.351H237L237 331.829H458Z" fill="#FFF8BA"/>
<path d="M461 452.244V672H303L303 452.244L461 452.244Z" fill="#FFF8BA"/>
<circle cx="240.5" cy="184.5" r="39.5" fill="#5A5A5A"/>
<path d="M216.72 183.54C216.72 182.268 217.176 181.2 218.088 180.336C219 179.472 220.164 179.04 221.58 179.04C222.996 179.04 224.16 179.472 225.072 180.336C225.984 181.2 226.44 182.268 226.44 183.54C226.44 184.68 225.966 185.91 225.018 187.23C224.922 187.362 224.79 187.542 224.622 187.77C224.454 187.986 224.34 188.136 224.28 188.22L221.4 192H218.97L221.688 188.454L222.48 187.77V187.68C222.456 187.692 222.336 187.74 222.12 187.824C221.808 187.908 221.418 187.95 220.95 187.95C219.774 187.95 218.772 187.53 217.944 186.69C217.128 185.838 216.72 184.788 216.72 183.54ZM219.618 181.668C219.126 182.148 218.88 182.772 218.88 183.54C218.88 184.308 219.126 184.938 219.618 185.43C220.11 185.91 220.764 186.15 221.58 186.15C222.396 186.15 223.05 185.91 223.542 185.43C224.034 184.938 224.28 184.308 224.28 183.54C224.28 182.772 224.034 182.148 223.542 181.668C223.05 181.176 222.396 180.93 221.58 180.93C220.764 180.93 220.11 181.176 219.618 181.668ZM227.794 188.58C227.794 187.488 228.214 186.618 229.054 185.97C229.414 185.718 229.834 185.526 230.314 185.394V185.286C229.942 185.142 229.612 184.944 229.324 184.692C228.664 184.128 228.334 183.384 228.334 182.46C228.334 181.512 228.736 180.708 229.54 180.048C230.356 179.376 231.454 179.04 232.834 179.04C234.214 179.04 235.306 179.376 236.11 180.048C236.926 180.708 237.334 181.512 237.334 182.46C237.334 183.36 237.004 184.104 236.344 184.692C236.032 184.944 235.702 185.142 235.354 185.286V185.394C235.81 185.514 236.23 185.712 236.614 185.988C237.454 186.636 237.874 187.5 237.874 188.58C237.874 189.624 237.418 190.518 236.506 191.262C235.606 191.994 234.382 192.36 232.834 192.36C231.286 192.36 230.056 191.994 229.144 191.262C228.244 190.518 227.794 189.624 227.794 188.58ZM230.494 182.64C230.494 183.168 230.698 183.6 231.106 183.936C231.514 184.272 232.09 184.44 232.834 184.44C233.578 184.44 234.154 184.272 234.562 183.936C234.97 183.6 235.174 183.168 235.174 182.64C235.174 182.16 234.964 181.758 234.544 181.434C234.136 181.098 233.566 180.93 232.834 180.93C232.102 180.93 231.526 181.098 231.106 181.434C230.698 181.758 230.494 182.16 230.494 182.64ZM230.71 186.942C230.206 187.338 229.954 187.824 229.954 188.4C229.954 188.976 230.206 189.468 230.71 189.876C231.226 190.272 231.934 190.47 232.834 190.47C233.734 190.47 234.436 190.272 234.94 189.876C235.456 189.468 235.714 188.976 235.714 188.4C235.714 187.824 235.456 187.338 234.94 186.942C234.436 186.534 233.734 186.33 232.834 186.33C231.934 186.33 231.226 186.534 230.71 186.942ZM239.308 191.01C239.308 190.65 239.422 190.35 239.65 190.11C239.89 189.87 240.184 189.75 240.532 189.75C240.928 189.75 241.24 189.894 241.468 190.182C241.708 190.47 241.828 190.896 241.828 191.46C241.828 192.384 241.606 193.092 241.162 193.584C240.73 194.088 240.142 194.34 239.398 194.34V193.44C239.758 193.44 240.04 193.338 240.244 193.134C240.46 192.942 240.568 192.684 240.568 192.36V192.252C240.556 192.24 240.55 192.216 240.55 192.18V192.126L240.442 192.162C240.406 192.174 240.328 192.18 240.208 192.18C239.968 192.18 239.758 192.072 239.578 191.856C239.398 191.64 239.308 191.358 239.308 191.01ZM243.083 188.4H245.243C245.327 188.772 245.489 189.102 245.729 189.39C246.269 190.05 247.037 190.38 248.033 190.38C248.861 190.38 249.515 190.176 249.995 189.768C250.487 189.348 250.733 188.832 250.733 188.22C250.733 187.524 250.511 186.978 250.067 186.582C249.635 186.174 249.017 185.97 248.213 185.97H245.153V184.17L248.933 181.47V181.38H243.713V179.4H251.993V181.362L248.753 183.72L247.853 184.08V184.17L248.141 184.134C248.537 184.098 248.771 184.08 248.843 184.08C249.971 184.08 250.913 184.47 251.669 185.25C252.425 186.03 252.803 187.02 252.803 188.22C252.803 189.372 252.359 190.35 251.471 191.154C250.583 191.958 249.437 192.36 248.033 192.36C246.173 192.36 244.799 191.7 243.911 190.38C243.527 189.816 243.251 189.156 243.083 188.4ZM253.981 188.4H256.141C256.225 188.772 256.387 189.102 256.627 189.39C257.167 190.05 257.935 190.38 258.931 190.38C259.759 190.38 260.413 190.176 260.893 189.768C261.385 189.348 261.631 188.832 261.631 188.22C261.631 187.524 261.409 186.978 260.965 186.582C260.533 186.174 259.915 185.97 259.111 185.97H256.051V184.17L259.831 181.47V181.38H254.611V179.4H262.891V181.362L259.651 183.72L258.751 184.08V184.17L259.039 184.134C259.435 184.098 259.669 184.08 259.741 184.08C260.869 184.08 261.811 184.47 262.567 185.25C263.323 186.03 263.701 187.02 263.701 188.22C263.701 189.372 263.257 190.35 262.369 191.154C261.481 191.958 260.335 192.36 258.931 192.36C257.071 192.36 255.697 191.7 254.809 190.38C254.425 189.816 254.149 189.156 253.981 188.4Z" fill="white"/>
<path d="M85.49 242.78C85.49 242.332 85.588 241.865 85.784 241.38C85.9893 240.885 86.1853 240.498 86.372 240.218C86.568 239.929 86.834 239.569 87.17 239.14L89.41 236.2H91.3L89.186 238.958L88.57 239.49V239.56L88.85 239.462C89.13 239.387 89.4333 239.35 89.76 239.35C90.6747 239.35 91.4493 239.681 92.084 240.344C92.728 240.997 93.05 241.809 93.05 242.78C93.05 243.769 92.6953 244.6 91.986 245.272C91.2767 245.944 90.3713 246.28 89.27 246.28C88.1687 246.28 87.2633 245.944 86.554 245.272C85.8447 244.6 85.49 243.769 85.49 242.78ZM87.744 241.324C87.3613 241.697 87.17 242.183 87.17 242.78C87.17 243.377 87.3613 243.867 87.744 244.25C88.1267 244.623 88.6353 244.81 89.27 244.81C89.9047 244.81 90.4133 244.623 90.796 244.25C91.1787 243.867 91.37 243.377 91.37 242.78C91.37 242.183 91.1787 241.697 90.796 241.324C90.4133 240.941 89.9047 240.75 89.27 240.75C88.6353 240.75 88.1267 240.941 87.744 241.324ZM94.1733 245.23C94.1733 244.95 94.2619 244.717 94.4393 244.53C94.6259 244.343 94.8546 244.25 95.1253 244.25C95.4333 244.25 95.6759 244.362 95.8533 244.586C96.0399 244.81 96.1333 245.141 96.1333 245.58C96.1333 246.299 95.9606 246.849 95.6153 247.232C95.2793 247.624 94.8219 247.82 94.2433 247.82V247.12C94.5233 247.12 94.7426 247.041 94.9013 246.882C95.0693 246.733 95.1533 246.532 95.1533 246.28V246.196C95.1439 246.187 95.1393 246.168 95.1393 246.14V246.098L95.0553 246.126C95.0273 246.135 94.9666 246.14 94.8733 246.14C94.6866 246.14 94.5233 246.056 94.3833 245.888C94.2433 245.72 94.1733 245.501 94.1733 245.23ZM98.6495 244.824C97.7628 243.853 97.3195 242.612 97.3195 241.1C97.3195 239.588 97.7628 238.347 98.6495 237.376C99.5361 236.405 100.609 235.92 101.869 235.92C103.129 235.92 104.203 236.405 105.089 237.376C105.976 238.347 106.419 239.588 106.419 241.1C106.419 242.612 105.976 243.853 105.089 244.824C104.203 245.795 103.129 246.28 101.869 246.28C100.609 246.28 99.5361 245.795 98.6495 244.824ZM99.7975 238.412C99.2655 239.047 98.9995 239.943 98.9995 241.1C98.9995 242.257 99.2655 243.153 99.7975 243.788C100.339 244.423 101.029 244.74 101.869 244.74C102.709 244.74 103.395 244.423 103.927 243.788C104.469 243.153 104.739 242.257 104.739 241.1C104.739 239.943 104.469 239.047 103.927 238.412C103.395 237.777 102.709 237.46 101.869 237.46C101.029 237.46 100.339 237.777 99.7975 238.412ZM107.613 243.27H109.293C109.367 243.559 109.493 243.807 109.671 244.012C110.081 244.497 110.679 244.74 111.463 244.74C112.088 244.74 112.583 244.572 112.947 244.236C113.311 243.9 113.493 243.461 113.493 242.92C113.493 242.351 113.311 241.893 112.947 241.548C112.583 241.203 112.088 241.03 111.463 241.03C110.884 241.03 110.394 241.184 109.993 241.492C109.834 241.613 109.694 241.763 109.573 241.94H108.033L108.453 236.2H114.403V237.74H109.783L109.573 240.26H109.643C109.792 240.111 109.965 239.985 110.161 239.882C110.599 239.621 111.127 239.49 111.743 239.49C112.723 239.49 113.539 239.817 114.193 240.47C114.846 241.123 115.173 241.94 115.173 242.92C115.173 243.881 114.827 244.684 114.137 245.328C113.455 245.963 112.564 246.28 111.463 246.28C110.025 246.28 108.957 245.781 108.257 244.782C107.958 244.343 107.743 243.839 107.613 243.27Z" fill="#333333"/>
<path d="M73.21 44.04V42.5L76.5 36.2H78.25L74.96 42.5H78.18V40.12H78.25H79.79V42.5H81.19V44.04H79.79V46H78.18V44.04H73.21ZM81.7495 45.23C81.7495 44.95 81.8381 44.7167 82.0155 44.53C82.2021 44.3433 82.4308 44.25 82.7015 44.25C83.0095 44.25 83.2521 44.362 83.4295 44.586C83.6161 44.81 83.7095 45.1413 83.7095 45.58C83.7095 46.2987 83.5368 46.8493 83.1915 47.232C82.8555 47.624 82.3981 47.82 81.8195 47.82V47.12C82.0995 47.12 82.3188 47.0407 82.4775 46.882C82.6455 46.7327 82.7295 46.532 82.7295 46.28V46.196C82.7201 46.1867 82.7155 46.168 82.7155 46.14V46.098L82.6315 46.126C82.6035 46.1353 82.5428 46.14 82.4495 46.14C82.2628 46.14 82.0995 46.056 81.9595 45.888C81.8195 45.72 81.7495 45.5007 81.7495 45.23ZM84.4056 37.74V36.2H91.0556V37.74L87.1356 46H85.3856L89.2356 37.88V37.74H84.4056ZM91.5505 42.78C91.5505 42.332 91.6485 41.8653 91.8445 41.38C92.0499 40.8853 92.2459 40.498 92.4325 40.218C92.6285 39.9287 92.8945 39.5693 93.2305 39.14L95.4705 36.2H97.3605L95.2465 38.958L94.6305 39.49V39.56L94.9105 39.462C95.1905 39.3873 95.4939 39.35 95.8205 39.35C96.7352 39.35 97.5099 39.6813 98.1445 40.344C98.7885 40.9973 99.1105 41.8093 99.1105 42.78C99.1105 43.7693 98.7559 44.6 98.0465 45.272C97.3372 45.944 96.4319 46.28 95.3305 46.28C94.2292 46.28 93.3239 45.944 92.6145 45.272C91.9052 44.6 91.5505 43.7693 91.5505 42.78ZM93.8045 41.324C93.4219 41.6973 93.2305 42.1827 93.2305 42.78C93.2305 43.3773 93.4219 43.8673 93.8045 44.25C94.1872 44.6233 94.6959 44.81 95.3305 44.81C95.9652 44.81 96.4739 44.6233 96.8565 44.25C97.2392 43.8673 97.4305 43.3773 97.4305 42.78C97.4305 42.1827 97.2392 41.6973 96.8565 41.324C96.4739 40.9413 95.9652 40.75 95.3305 40.75C94.6959 40.75 94.1872 40.9413 93.8045 41.324Z" fill="#333333"/>
<path d="M366.42 736.2H368.1C368.165 736.489 368.291 736.746 368.478 736.97C368.898 737.483 369.495 737.74 370.27 737.74C370.914 737.74 371.423 737.581 371.796 737.264C372.179 736.937 372.37 736.536 372.37 736.06C372.37 735.519 372.197 735.094 371.852 734.786C371.516 734.469 371.035 734.31 370.41 734.31H368.03V732.91L370.97 730.81V730.74H366.91V729.2H373.35V730.726L370.83 732.56L370.13 732.84V732.91L370.354 732.882C370.662 732.854 370.844 732.84 370.9 732.84C371.777 732.84 372.51 733.143 373.098 733.75C373.686 734.357 373.98 735.127 373.98 736.06C373.98 736.956 373.635 737.717 372.944 738.342C372.253 738.967 371.362 739.28 370.27 739.28C368.823 739.28 367.755 738.767 367.064 737.74C366.765 737.301 366.551 736.788 366.42 736.2ZM375.037 738.23C375.037 737.95 375.125 737.717 375.303 737.53C375.489 737.343 375.718 737.25 375.989 737.25C376.297 737.25 376.539 737.362 376.717 737.586C376.903 737.81 376.997 738.141 376.997 738.58C376.997 739.299 376.824 739.849 376.479 740.232C376.143 740.624 375.685 740.82 375.107 740.82V740.12C375.387 740.12 375.606 740.041 375.765 739.882C375.933 739.733 376.017 739.532 376.017 739.28V739.196C376.007 739.187 376.003 739.168 376.003 739.14V739.098L375.919 739.126C375.891 739.135 375.83 739.14 375.737 739.14C375.55 739.14 375.387 739.056 375.247 738.888C375.107 738.72 375.037 738.501 375.037 738.23ZM378.043 735.78C378.043 735.332 378.141 734.865 378.337 734.38C378.542 733.885 378.738 733.498 378.925 733.218C379.121 732.929 379.387 732.569 379.723 732.14L381.963 729.2H383.853L381.739 731.958L381.123 732.49V732.56L381.403 732.462C381.683 732.387 381.986 732.35 382.313 732.35C383.227 732.35 384.002 732.681 384.637 733.344C385.281 733.997 385.603 734.809 385.603 735.78C385.603 736.769 385.248 737.6 384.539 738.272C383.829 738.944 382.924 739.28 381.823 739.28C380.721 739.28 379.816 738.944 379.107 738.272C378.397 737.6 378.043 736.769 378.043 735.78ZM380.297 734.324C379.914 734.697 379.723 735.183 379.723 735.78C379.723 736.377 379.914 736.867 380.297 737.25C380.679 737.623 381.188 737.81 381.823 737.81C382.457 737.81 382.966 737.623 383.349 737.25C383.731 736.867 383.923 736.377 383.923 735.78C383.923 735.183 383.731 734.697 383.349 734.324C382.966 733.941 382.457 733.75 381.823 733.75C381.188 733.75 380.679 733.941 380.297 734.324ZM386.656 735.78C386.656 735.332 386.754 734.865 386.95 734.38C387.155 733.885 387.351 733.498 387.538 733.218C387.734 732.929 388 732.569 388.336 732.14L390.576 729.2H392.466L390.352 731.958L389.736 732.49V732.56L390.016 732.462C390.296 732.387 390.599 732.35 390.926 732.35C391.841 732.35 392.615 732.681 393.25 733.344C393.894 733.997 394.216 734.809 394.216 735.78C394.216 736.769 393.861 737.6 393.152 738.272C392.443 738.944 391.537 739.28 390.436 739.28C389.335 739.28 388.429 738.944 387.72 738.272C387.011 737.6 386.656 736.769 386.656 735.78ZM388.91 734.324C388.527 734.697 388.336 735.183 388.336 735.78C388.336 736.377 388.527 736.867 388.91 737.25C389.293 737.623 389.801 737.81 390.436 737.81C391.071 737.81 391.579 737.623 391.962 737.25C392.345 736.867 392.536 736.377 392.536 735.78C392.536 735.183 392.345 734.697 391.962 734.324C391.579 733.941 391.071 733.75 390.436 733.75C389.801 733.75 389.293 733.941 388.91 734.324Z" fill="#333333"/>
<path d="M167.35 342.42V340.6L169.17 339.2H170.64V349H169.03V341.16L167.35 342.42ZM172.181 346.27H173.861C173.936 346.559 174.062 346.807 174.239 347.012C174.65 347.497 175.247 347.74 176.031 347.74C176.656 347.74 177.151 347.572 177.515 347.236C177.879 346.9 178.061 346.461 178.061 345.92C178.061 345.351 177.879 344.893 177.515 344.548C177.151 344.203 176.656 344.03 176.031 344.03C175.452 344.03 174.962 344.184 174.561 344.492C174.402 344.613 174.262 344.763 174.141 344.94H172.601L173.021 339.2H178.971V340.74H174.351L174.141 343.26H174.211C174.36 343.111 174.533 342.985 174.729 342.882C175.168 342.621 175.695 342.49 176.311 342.49C177.291 342.49 178.108 342.817 178.761 343.47C179.414 344.123 179.741 344.94 179.741 345.92C179.741 346.881 179.396 347.684 178.705 348.328C178.024 348.963 177.132 349.28 176.031 349.28C174.594 349.28 173.525 348.781 172.825 347.782C172.526 347.343 172.312 346.839 172.181 346.27ZM180.794 348.23C180.794 347.95 180.883 347.717 181.06 347.53C181.247 347.343 181.476 347.25 181.746 347.25C182.054 347.25 182.297 347.362 182.474 347.586C182.661 347.81 182.754 348.141 182.754 348.58C182.754 349.299 182.582 349.849 182.236 350.232C181.9 350.624 181.443 350.82 180.864 350.82V350.12C181.144 350.12 181.364 350.041 181.522 349.882C181.69 349.733 181.774 349.532 181.774 349.28V349.196C181.765 349.187 181.76 349.168 181.76 349.14V349.098L181.676 349.126C181.648 349.135 181.588 349.14 181.494 349.14C181.308 349.14 181.144 349.056 181.004 348.888C180.864 348.72 180.794 348.501 180.794 348.23ZM183.521 347.04V345.5L186.811 339.2H188.561L185.271 345.5H188.491V343.12H188.561H190.101V345.5H191.501V347.04H190.101V349H188.491V347.04H183.521ZM192.06 346.27H193.74C193.815 346.559 193.941 346.807 194.118 347.012C194.529 347.497 195.126 347.74 195.91 347.74C196.535 347.74 197.03 347.572 197.394 347.236C197.758 346.9 197.94 346.461 197.94 345.92C197.94 345.351 197.758 344.893 197.394 344.548C197.03 344.203 196.535 344.03 195.91 344.03C195.331 344.03 194.841 344.184 194.44 344.492C194.281 344.613 194.141 344.763 194.02 344.94H192.48L192.9 339.2H198.85V340.74H194.23L194.02 343.26H194.09C194.239 343.111 194.412 342.985 194.608 342.882C195.047 342.621 195.574 342.49 196.19 342.49C197.17 342.49 197.987 342.817 198.64 343.47C199.293 344.123 199.62 344.94 199.62 345.92C199.62 346.881 199.275 347.684 198.584 348.328C197.903 348.963 197.011 349.28 195.91 349.28C194.473 349.28 193.404 348.781 192.704 347.782C192.405 347.343 192.191 346.839 192.06 346.27Z" fill="#333333"/>
<path d="M64.3744 257.108L64.3744 282.104L88.6992 282.104L88.6991 257.108L64.3744 257.108Z" fill="white" stroke="#5A5A5A" stroke-width="0.5"/>
<path d="M65.3008 280.077L65.3008 260.624C65.3008 259.886 65.6934 259.494 66.4628 259.494L86.6105 259.494C87.3956 259.494 87.7725 259.871 87.7725 260.624L87.7725 280.077C87.7882 280.831 87.3956 281.208 86.6262 281.208L66.4785 281.208C65.6934 281.223 65.3008 280.831 65.3008 280.077Z" fill="white" stroke="#5A5A5A" stroke-width="0.5"/>
<path d="M71.8021 278.288C73.5923 278.272 75.0528 276.859 75.0528 275.116C75.0528 273.358 73.5923 271.945 71.8021 271.945C69.9962 271.945 68.5515 273.358 68.5515 275.116C68.5515 276.875 69.9962 278.288 71.8021 278.288Z" stroke="#5A5A5A" stroke-width="0.5"/>
<path d="M81.4281 278.258C83.2183 278.242 84.6788 276.829 84.6788 275.086C84.6788 273.328 83.2183 271.915 81.4281 271.915C79.6222 271.915 78.1775 273.328 78.1775 275.086C78.1618 276.845 79.6222 278.274 81.4281 278.258Z" stroke="#5A5A5A" stroke-width="0.5"/>
<path d="M81.428 269.244C83.2339 269.244 84.6786 267.831 84.6786 266.073C84.6786 264.314 83.2182 262.901 81.428 262.901C79.6378 262.917 78.1774 264.33 78.1774 266.073C78.1774 267.815 79.6378 269.244 81.428 269.244Z" stroke="#5A5A5A" stroke-width="0.5"/>
<path d="M71.8021 269.244C73.6081 269.244 75.0528 267.831 75.0528 266.073C75.0528 264.314 73.5923 262.901 71.8021 262.901C70.0119 262.917 68.5515 264.33 68.5515 266.073C68.5515 267.815 70.0119 269.244 71.8021 269.244Z" stroke="#5A5A5A" stroke-width="0.5"/>
<path d="M16.0151 236H40.1036L40.1036 259.699H16L16.0151 236Z" fill="white" stroke="#5A5A5A" stroke-width="0.5"/>
<path d="M22.6214 237.803L35.9383 237.803C36.6806 237.803 37.0442 238.167 37.0442 238.924L37.0442 256.532C37.0442 257.259 36.6806 257.638 35.9534 257.653L22.6214 257.638C21.8942 257.653 21.5306 257.275 21.5306 256.532L21.5306 238.924C21.5003 238.182 21.8791 237.803 22.6214 237.803Z" fill="white" stroke="#5A5A5A" stroke-width="0.5"/>
<path d="M17.8636 247.728C17.8788 248.653 18.5757 249.395 19.4544 249.395L26.4385 248.743L26.4537 248.728C26.9839 248.728 27.4081 248.289 27.4081 247.728C27.4081 247.168 26.9839 246.728 26.4385 246.713L19.4544 246.061C18.5908 246.061 17.8788 246.804 17.8636 247.728Z" stroke="#5A5A5A" stroke-width="0.5"/>
<mask id="path-18-inside-1_29_5105" fill="white">
<path fill-rule="evenodd" clip-rule="evenodd" d="M18.5461 249.107L22.3488 248.744C22.879 248.728 23.3184 248.289 23.3032 247.713C23.3032 247.153 22.879 246.728 22.3488 246.713L18.5461 246.349"/>
</mask>
<path fill-rule="evenodd" clip-rule="evenodd" d="M18.5461 249.107L22.3488 248.744C22.879 248.728 23.3184 248.289 23.3032 247.713C23.3032 247.153 22.879 246.728 22.3488 246.713L18.5461 246.349" fill="white"/>
<path d="M22.3488 248.744L22.3345 248.244L22.3178 248.244L22.3012 248.246L22.3488 248.744ZM23.3032 247.713L22.8031 247.713L22.8034 247.726L23.3032 247.713ZM22.3488 246.713L22.3012 247.211L22.3178 247.212L22.3345 247.213L22.3488 246.713ZM18.5937 249.605L22.3964 249.241L22.3012 248.246L18.4985 248.61L18.5937 249.605ZM22.3631 249.243C23.1681 249.22 23.8255 248.552 23.8031 247.7L22.8034 247.726C22.8113 248.026 22.59 248.237 22.3345 248.244L22.3631 249.243ZM23.8032 247.713C23.8032 246.884 23.1657 246.236 22.3631 246.213L22.3345 247.213C22.5924 247.22 22.8032 247.421 22.8032 247.713H23.8032ZM22.3964 246.215L18.5937 245.852L18.4985 246.847L22.3012 247.211L22.3964 246.215Z" fill="#5A5A5A" mask="url(#path-18-inside-1_29_5105)"/>
<path d="M311 380L242 380L242 485L311 485L311 380Z" fill="#FFC79F"/>
<path d="M459 298L373 298L373 477L459 477L459 298Z" fill="#FFC79F"/>
<path d="M432.476 317.72L433.657 317.736L436.723 317.72L444.314 317.72L444.314 327.677L432.476 327.677C429.459 327.677 427 325.433 427 322.682C427 319.963 429.459 317.72 432.476 317.72Z" fill="white" stroke="#5A5A5A" stroke-width="0.5"/>
<path d="M432.542 318.866L433.476 318.866L441.035 318.866L441.035 326.547L433.476 326.547L432.542 326.53C430.164 326.53 428.23 324.827 428.23 322.698C428.246 320.586 430.181 318.866 432.542 318.866Z" fill="white" stroke="#5A5A5A" stroke-width="0.5"/>
<path d="M450.676 329.478L445.412 329.478C444.806 329.478 444.314 328.987 444.314 328.381L444.314 317.097C444.314 316.491 444.806 316 445.412 316L450.676 316C451.282 316 451.774 316.491 451.774 317.097L451.774 328.365C451.774 328.987 451.282 329.478 450.676 329.478Z" fill="white" stroke="#5A5A5A" stroke-width="0.5"/>
<path d="M448.052 323.386C447.642 323.386 447.331 323.091 447.331 322.747C447.314 322.387 447.642 322.092 448.052 322.092C448.462 322.092 448.774 322.387 448.774 322.731C448.757 323.108 448.446 323.403 448.052 323.386Z" fill="white" stroke="#5A5A5A" stroke-width="0.5"/>
<path d="M388 351.848L388 339.54C388 338.685 388.684 338 389.539 338L408.058 338C408.913 338 409.596 338.685 409.596 339.54L409.596 351.848C409.596 352.704 408.913 353.389 408.058 353.389L389.539 353.389C388.698 353.389 388 352.704 388 351.848Z" fill="white" stroke="#5A5A5A" stroke-width="0.5"/>
<path d="M389.923 347.156L389.923 345.26C389.923 342.764 391.946 340.738 394.439 340.738L403.157 340.738C405.65 340.738 407.673 342.764 407.673 345.26L407.673 347.156C407.673 349.652 405.65 351.677 403.157 351.677L394.439 351.677C391.946 351.677 389.923 349.652 389.923 347.156Z" fill="white" stroke="#5A5A5A" stroke-width="0.5"/>
<path d="M397.843 349.267C397.843 348.724 398.271 348.283 398.798 348.283C399.325 348.283 399.752 348.724 399.752 349.267C399.752 349.811 399.325 350.251 398.798 350.251C398.271 350.251 397.843 349.811 397.843 349.267Z" fill="white" stroke="#5A5A5A" stroke-width="0.5"/>
<rect x="202" y="62" width="30" height="70" transform="rotate(90 202 62)" fill="#5A5A5A"/>
<line x1="134.257" y1="75.4287" x2="109.257" y2="90.4287" stroke="#5A5A5A"/>
<path d="M139.75 0.250157L29.2933 0.313212L29.2523 4.74999L139.75 4.75L139.75 0.250157Z" stroke="#5A5A5A" stroke-width="0.5" stroke-miterlimit="10"/>
<rect x="156" width="5" height="82" fill="#5A5A5A"/>
<rect x="14" y="3" width="5" height="79" fill="#5A5A5A"/>
<rect x="33" width="5" height="19" transform="rotate(90 33 0)" fill="#5A5A5A"/>
<rect x="158" width="5.00001" height="134" transform="rotate(90 158 0)" fill="#5A5A5A"/>
<path d="M103.75 62.2503L40.2749 62.3131L40.2513 66.75L103.75 66.75L103.75 62.2503Z" stroke="#5A5A5A" stroke-width="0.5" stroke-miterlimit="10"/>
<path d="M103.75 72.2503L40.2749 72.3131L40.2513 76.75L103.75 76.75L103.75 72.2503Z" stroke="#5A5A5A" stroke-width="0.5" stroke-miterlimit="10"/>
<rect x="358" y="62" width="30" height="82" transform="rotate(90 358 62)" fill="#5A5A5A"/>
<rect x="468" y="62" width="30" height="45" transform="rotate(90 468 62)" fill="#5A5A5A"/>
<rect x="452" y="68" width="16" height="607" fill="#5A5A5A"/>
<rect y="62" width="16" height="236" fill="#5A5A5A"/>
<rect x="145" y="282" width="16" height="145" transform="rotate(90 145 282)" fill="#5A5A5A"/>
<rect x="16" y="210" width="2" height="6" transform="rotate(-90 16 210)" fill="#5A5A5A"/>
<rect x="27" y="210" width="2" height="11" transform="rotate(-90 27 210)" fill="#5A5A5A"/>
<rect x="44" y="210" width="2" height="11" transform="rotate(-90 44 210)" fill="#5A5A5A"/>
<rect x="61" y="210" width="2" height="11" transform="rotate(-90 61 210)" fill="#5A5A5A"/>
<rect x="78" y="210" width="2" height="11" transform="rotate(-90 78 210)" fill="#5A5A5A"/>
<rect x="95" y="210" width="2" height="11" transform="rotate(-90 95 210)" fill="#5A5A5A"/>
<rect x="115" y="210" width="2" height="11" transform="rotate(-90 115 210)" fill="#5A5A5A"/>
<rect x="130" y="210" width="2" height="11" transform="rotate(-90 130 210)" fill="#5A5A5A"/>
<rect x="145" y="298" width="2" height="6" transform="rotate(180 145 298)" fill="#5A5A5A"/>
<rect x="145" y="287" width="2" height="11" transform="rotate(180 145 287)" fill="#5A5A5A"/>
<rect x="145" y="270" width="2" height="11" transform="rotate(180 145 270)" fill="#5A5A5A"/>
<rect x="145" y="253" width="2" height="11" transform="rotate(180 145 253)" fill="#5A5A5A"/>
<rect x="145" y="236" width="2" height="11" transform="rotate(180 145 236)" fill="#5A5A5A"/>
<rect x="145" y="219" width="2" height="11" transform="rotate(180 145 219)" fill="#5A5A5A"/>
<rect x="140" y="329" width="16" height="46" transform="rotate(-180 140 329)" fill="#5A5A5A"/>
<rect x="140" y="414" width="16" height="46" transform="rotate(-180 140 414)" fill="#5A5A5A"/>
<rect x="132" y="414" width="16" height="113" transform="rotate(-90 132 414)" fill="#5A5A5A"/>
<rect x="229" y="406" width="16" height="86" fill="#5A5A5A"/>
<rect x="289" y="477" width="16" height="212" fill="#5A5A5A"/>
<rect x="321" y="476" width="16" height="84" transform="rotate(90 321 476)" fill="#5A5A5A"/>
<rect x="455" y="476" width="16" height="94" transform="rotate(90 455 476)" fill="#5A5A5A"/>
<rect x="459" y="282" width="16" height="98" transform="rotate(90 459 282)" fill="#5A5A5A"/>
<rect x="321" y="282" width="16" height="21" transform="rotate(90 321 282)" fill="#5A5A5A"/>
<rect x="262" y="282" width="16" height="78" transform="rotate(90 262 282)" fill="#5A5A5A"/>
<rect x="468" y="672" width="30" height="45" transform="rotate(90 468 672)" fill="#5A5A5A"/>
<rect x="354" y="672" width="30" height="65" transform="rotate(90 354 672)" fill="#5A5A5A"/>
<path d="M430.75 62.2501L136.369 62.4019L136.253 73.75L430.75 73.75L430.75 62.2501Z" stroke="#5A5A5A" stroke-width="0.5" stroke-miterlimit="10"/>
<path d="M430.75 80.2501L136.369 80.4019L136.253 91.75L430.75 91.75L430.75 80.2501Z" stroke="#5A5A5A" stroke-width="0.5" stroke-miterlimit="10"/>
<rect x="309" y="372" width="8" height="110" fill="#5A5A5A"/>
<rect x="365" y="422" width="8" height="70" fill="#5A5A5A"/>
<rect x="365" y="341" width="8" height="50" fill="#5A5A5A"/>
<rect x="365" y="283" width="8" height="26" fill="#5A5A5A"/>
<rect x="455" y="353" width="8" height="86" transform="rotate(90 455 353)" fill="#5A5A5A"/>
<path d="M433.105 378.72L434.286 378.736L437.352 378.72L444.943 378.72L444.943 388.677L433.105 388.677C430.089 388.677 427.629 386.433 427.629 383.682C427.629 380.963 430.089 378.72 433.105 378.72Z" fill="white" stroke="#5A5A5A" stroke-width="0.5"/>
<path d="M433.171 379.866L434.106 379.866L441.664 379.866L441.664 387.547L434.106 387.547L433.171 387.53C430.794 387.53 428.859 385.827 428.859 383.698C428.875 381.586 430.81 379.866 433.171 379.866Z" fill="white" stroke="#5A5A5A" stroke-width="0.5"/>
<path d="M451.305 390.478L446.042 390.478C445.435 390.478 444.943 389.987 444.943 389.381L444.943 378.097C444.943 377.491 445.435 377 446.042 377L451.305 377C451.911 377 452.403 377.491 452.403 378.097L452.403 389.365C452.403 389.987 451.911 390.478 451.305 390.478Z" fill="white" stroke="#5A5A5A" stroke-width="0.5"/>
<path d="M448.681 384.386C448.272 384.386 447.96 384.091 447.96 383.747C447.944 383.387 448.272 383.092 448.681 383.092C449.091 383.092 449.403 383.387 449.403 383.731C449.386 384.108 449.075 384.403 448.681 384.386Z" fill="white" stroke="#5A5A5A" stroke-width="0.5"/>
<path d="M264.369 433.425L263.189 433.409L260.123 433.425L252.532 433.425L252.532 423.468L264.369 423.468C267.386 423.468 269.845 425.712 269.845 428.463C269.845 431.182 267.386 433.425 264.369 433.425Z" fill="white" stroke="#5A5A5A" stroke-width="0.5"/>
<path d="M264.304 432.279L263.369 432.279L255.811 432.279L255.811 424.598L263.369 424.598L264.304 424.615C266.681 424.615 268.616 426.318 268.616 428.447C268.599 430.56 266.665 432.279 264.304 432.279Z" fill="white" stroke="#5A5A5A" stroke-width="0.5"/>
<path d="M246.17 421.667L251.433 421.667C252.04 421.667 252.531 422.158 252.531 422.764L252.531 434.048C252.531 434.654 252.04 435.145 251.433 435.145L246.17 435.145C245.563 435.145 245.071 434.654 245.071 434.048L245.071 422.78C245.071 422.158 245.563 421.667 246.17 421.667Z" fill="white" stroke="#5A5A5A" stroke-width="0.5"/>
<path d="M248.793 427.759C249.203 427.759 249.515 428.054 249.515 428.398C249.531 428.758 249.203 429.053 248.793 429.053C248.383 429.053 248.072 428.758 248.072 428.414C248.088 428.037 248.4 427.743 248.793 427.759Z" fill="white" stroke="#5A5A5A" stroke-width="0.5"/>
<path d="M450.934 421.145L438.626 421.145C437.771 421.145 437.086 420.461 437.086 419.607L437.086 401.087C437.086 400.232 437.771 399.549 438.626 399.549L450.934 399.549C451.79 399.549 452.475 400.232 452.475 401.087L452.475 419.607C452.475 420.447 451.79 421.145 450.934 421.145Z" fill="white" stroke="#5A5A5A" stroke-width="0.5"/>
<path d="M446.242 419.222L444.346 419.222C441.85 419.222 439.825 417.199 439.825 414.706L439.825 405.988C439.825 403.495 441.85 401.472 444.346 401.472L446.242 401.472C448.738 401.472 450.763 403.495 450.763 405.988L450.763 414.706C450.763 417.199 448.738 419.222 446.242 419.222Z" fill="white" stroke="#5A5A5A" stroke-width="0.5"/>
<path d="M448.353 411.302C447.81 411.302 447.369 410.874 447.369 410.347C447.369 409.82 447.81 409.393 448.353 409.393C448.897 409.393 449.337 409.82 449.337 410.347C449.337 410.874 448.897 411.302 448.353 411.302Z" fill="white" stroke="#5A5A5A" stroke-width="0.5"/>
<path d="M246.54 391L258.848 391C259.704 391 260.389 391.684 260.389 392.539L260.389 411.058C260.389 411.913 259.704 412.596 258.848 412.596L246.54 412.596C245.685 412.596 245 411.913 245 411.058L245 392.539C245 391.698 245.685 391 246.54 391Z" fill="white" stroke="#5A5A5A" stroke-width="0.5"/>
<path d="M251.232 392.923L253.129 392.923C255.625 392.923 257.65 394.946 257.65 397.439L257.65 406.157C257.65 408.65 255.625 410.673 253.129 410.673L251.232 410.673C248.736 410.673 246.711 408.65 246.711 406.157L246.711 397.439C246.711 394.946 248.736 392.923 251.232 392.923Z" fill="white" stroke="#5A5A5A" stroke-width="0.5"/>
<path d="M249.122 400.843C249.665 400.843 250.106 401.271 250.106 401.798C250.106 402.325 249.665 402.752 249.122 402.752C248.578 402.752 248.138 402.325 248.138 401.798C248.138 401.271 248.578 400.843 249.122 400.843Z" fill="white" stroke="#5A5A5A" stroke-width="0.5"/>
<path d="M450.136 449.843L390.015 449.843C389.245 449.843 388.629 450.459 388.629 451.228L388.629 475.095C388.629 475.864 389.245 476.479 390.015 476.479L450.136 476.479C450.906 476.479 451.521 475.864 451.521 475.095L451.521 451.228C451.521 450.459 450.892 449.843 450.136 449.843Z" fill="white" stroke="#5A5A5A" stroke-width="0.5"/>
<path d="M392.325 459.925L392.325 466.412C392.325 470.173 395.376 473.208 399.128 473.208L446.469 473.208C447.392 473.208 448.134 472.466 448.134 471.544L448.134 454.765C448.134 453.843 447.392 453.102 446.469 453.102L399.142 453.102C395.376 453.116 392.325 456.164 392.325 459.925Z" fill="white" stroke="#5A5A5A" stroke-width="0.5"/>
<path d="M442.521 462.693C442.521 461.944 443.154 461.336 443.935 461.336C444.716 461.336 445.349 461.944 445.349 462.693C445.349 463.442 444.716 464.049 443.935 464.049C443.154 464.049 442.521 463.442 442.521 462.693Z" fill="white" stroke="#5A5A5A" stroke-width="0.5"/>
<path d="M373 383.024L373 361.014L394.587 361L394.573 383.01L373 383.024Z" fill="white" stroke="#5A5A5A" stroke-width="0.5"/>
<path d="M389.33 372.005C389.33 368.891 386.856 366.377 383.794 366.377C380.732 366.377 378.257 368.891 378.257 372.019C378.257 375.133 380.732 377.675 383.794 377.675C386.856 377.661 389.33 375.119 389.33 372.005Z" stroke="#5A5A5A" stroke-width="0.5"/>
<path d="M383.794 376.125C384.912 376.139 385.919 375.678 386.646 374.924C387.373 374.17 387.82 373.136 387.834 372.019M383.808 367.885C384.912 367.885 385.919 368.346 386.66 369.086C387.387 369.84 387.848 370.86 387.848 372.005L383.808 367.885ZM383.794 376.125C382.689 376.125 381.683 375.664 380.942 374.924C380.214 374.17 379.767 373.136 379.767 372.005L383.794 376.125ZM383.808 367.885C382.675 367.885 381.669 368.346 380.955 369.086L380.942 369.1C380.228 369.84 379.767 370.86 379.767 371.991L383.808 367.885Z" stroke="#5A5A5A" stroke-width="0.5"/>
<rect x="237" y="372" width="8" height="110" fill="#5A5A5A"/>
<rect x="265" y="372" width="8" height="28" transform="rotate(90 265 372)" fill="#5A5A5A"/>
<rect x="317" y="372" width="8" height="22" transform="rotate(90 317 372)" fill="#5A5A5A"/>
<line x1="318.763" y1="477.56" x2="357.763" y2="456.56" stroke="#5A5A5A"/>
<line x1="366.556" y1="425.23" x2="351.556" y2="396.23" stroke="#5A5A5A"/>
<line x1="299.788" y1="374.453" x2="267.788" y2="359.453" stroke="#5A5A5A"/>
<line x1="139.256" y1="293.57" x2="181.256" y2="318.57" stroke="#5A5A5A"/>
<line x1="126.433" y1="325.251" x2="104.433" y2="363.251" stroke="#5A5A5A"/>
<line x1="367.447" y1="306.224" x2="352.447" y2="336.224" stroke="#5A5A5A"/>
<line x1="364.241" y1="295.438" x2="324.241" y2="317.438" stroke="#5A5A5A"/>
<line x1="303.242" y1="295.438" x2="265.242" y2="316.438" stroke="#5A5A5A"/>
<path d="M277.21 430.04V428.5L280.5 422.2H282.25L278.96 428.5H282.18V426.12H282.25H283.79V428.5H285.19V430.04H283.79V432H282.18V430.04H277.21ZM285.749 431.23C285.749 430.95 285.838 430.717 286.015 430.53C286.202 430.343 286.431 430.25 286.701 430.25C287.009 430.25 287.252 430.362 287.429 430.586C287.616 430.81 287.709 431.141 287.709 431.58C287.709 432.299 287.537 432.849 287.191 433.232C286.855 433.624 286.398 433.82 285.819 433.82V433.12C286.099 433.12 286.319 433.041 286.477 432.882C286.645 432.733 286.729 432.532 286.729 432.28V432.196C286.72 432.187 286.715 432.168 286.715 432.14V432.098L286.631 432.126C286.603 432.135 286.543 432.14 286.449 432.14C286.263 432.14 286.099 432.056 285.959 431.888C285.819 431.72 285.749 431.501 285.749 431.23ZM288.616 425.42V423.6L290.436 422.2H291.906V432H290.296V424.16L288.616 425.42ZM293.027 423.74V422.2H299.677V423.74L295.757 432H294.007L297.857 423.88V423.74H293.027Z" fill="#333333"/>
<path d="M388.49 406.78C388.49 406.332 388.588 405.865 388.784 405.38C388.989 404.885 389.185 404.498 389.372 404.218C389.568 403.929 389.834 403.569 390.17 403.14L392.41 400.2H394.3L392.186 402.958L391.57 403.49V403.56L391.85 403.462C392.13 403.387 392.433 403.35 392.76 403.35C393.675 403.35 394.449 403.681 395.084 404.344C395.728 404.997 396.05 405.809 396.05 406.78C396.05 407.769 395.695 408.6 394.986 409.272C394.277 409.944 393.371 410.28 392.27 410.28C391.169 410.28 390.263 409.944 389.554 409.272C388.845 408.6 388.49 407.769 388.49 406.78ZM390.744 405.324C390.361 405.697 390.17 406.183 390.17 406.78C390.17 407.377 390.361 407.867 390.744 408.25C391.127 408.623 391.635 408.81 392.27 408.81C392.905 408.81 393.413 408.623 393.796 408.25C394.179 407.867 394.37 407.377 394.37 406.78C394.37 406.183 394.179 405.697 393.796 405.324C393.413 404.941 392.905 404.75 392.27 404.75C391.635 404.75 391.127 404.941 390.744 405.324ZM397.173 409.23C397.173 408.95 397.262 408.717 397.439 408.53C397.626 408.343 397.855 408.25 398.125 408.25C398.433 408.25 398.676 408.362 398.853 408.586C399.04 408.81 399.133 409.141 399.133 409.58C399.133 410.299 398.961 410.849 398.615 411.232C398.279 411.624 397.822 411.82 397.243 411.82V411.12C397.523 411.12 397.743 411.041 397.901 410.882C398.069 410.733 398.153 410.532 398.153 410.28V410.196C398.144 410.187 398.139 410.168 398.139 410.14V410.098L398.055 410.126C398.027 410.135 397.967 410.14 397.873 410.14C397.687 410.14 397.523 410.056 397.383 409.888C397.243 409.72 397.173 409.501 397.173 409.23ZM401.649 408.824C400.763 407.853 400.319 406.612 400.319 405.1C400.319 403.588 400.763 402.347 401.649 401.376C402.536 400.405 403.609 399.92 404.869 399.92C406.129 399.92 407.203 400.405 408.089 401.376C408.976 402.347 409.419 403.588 409.419 405.1C409.419 406.612 408.976 407.853 408.089 408.824C407.203 409.795 406.129 410.28 404.869 410.28C403.609 410.28 402.536 409.795 401.649 408.824ZM402.797 402.412C402.265 403.047 401.999 403.943 401.999 405.1C401.999 406.257 402.265 407.153 402.797 407.788C403.339 408.423 404.029 408.74 404.869 408.74C405.709 408.74 406.395 408.423 406.927 407.788C407.469 407.153 407.739 406.257 407.739 405.1C407.739 403.943 407.469 403.047 406.927 402.412C406.395 401.777 405.709 401.46 404.869 401.46C404.029 401.46 403.339 401.777 402.797 402.412ZM410.263 408.04V406.5L413.553 400.2H415.303L412.013 406.5H415.233V404.12H415.303H416.843V406.5H418.243V408.04H416.843V410H415.233V408.04H410.263Z" fill="#333333"/>
<path d="M363.35 580.42V578.6L365.17 577.2H366.64V587H365.03V579.16L363.35 580.42ZM368.111 583.78C368.111 583.332 368.209 582.865 368.405 582.38C368.61 581.885 368.806 581.498 368.993 581.218C369.189 580.929 369.455 580.569 369.791 580.14L372.031 577.2H373.921L371.807 579.958L371.191 580.49V580.56L371.471 580.462C371.751 580.387 372.054 580.35 372.381 580.35C373.296 580.35 374.07 580.681 374.705 581.344C375.349 581.997 375.671 582.809 375.671 583.78C375.671 584.769 375.316 585.6 374.607 586.272C373.898 586.944 372.992 587.28 371.891 587.28C370.79 587.28 369.884 586.944 369.175 586.272C368.466 585.6 368.111 584.769 368.111 583.78ZM370.365 582.324C369.982 582.697 369.791 583.183 369.791 583.78C369.791 584.377 369.982 584.867 370.365 585.25C370.748 585.623 371.256 585.81 371.891 585.81C372.526 585.81 373.034 585.623 373.417 585.25C373.8 584.867 373.991 584.377 373.991 583.78C373.991 583.183 373.8 582.697 373.417 582.324C373.034 581.941 372.526 581.75 371.891 581.75C371.256 581.75 370.748 581.941 370.365 582.324ZM376.794 586.23C376.794 585.95 376.883 585.717 377.06 585.53C377.247 585.343 377.476 585.25 377.746 585.25C378.054 585.25 378.297 585.362 378.474 585.586C378.661 585.81 378.754 586.141 378.754 586.58C378.754 587.299 378.582 587.849 378.236 588.232C377.9 588.624 377.443 588.82 376.864 588.82V588.12C377.144 588.12 377.364 588.041 377.522 587.882C377.69 587.733 377.774 587.532 377.774 587.28V587.196C377.765 587.187 377.76 587.168 377.76 587.14V587.098L377.676 587.126C377.648 587.135 377.588 587.14 377.494 587.14C377.308 587.14 377.144 587.056 377.004 586.888C376.864 586.72 376.794 586.501 376.794 586.23ZM379.801 583.78C379.801 583.332 379.899 582.865 380.095 582.38C380.3 581.885 380.496 581.498 380.683 581.218C380.879 580.929 381.145 580.569 381.481 580.14L383.721 577.2H385.611L383.497 579.958L382.881 580.49V580.56L383.161 580.462C383.441 580.387 383.744 580.35 384.071 580.35C384.985 580.35 385.76 580.681 386.395 581.344C387.039 581.997 387.361 582.809 387.361 583.78C387.361 584.769 387.006 585.6 386.297 586.272C385.587 586.944 384.682 587.28 383.581 587.28C382.479 587.28 381.574 586.944 380.865 586.272C380.155 585.6 379.801 584.769 379.801 583.78ZM382.055 582.324C381.672 582.697 381.481 583.183 381.481 583.78C381.481 584.377 381.672 584.867 382.055 585.25C382.437 585.623 382.946 585.81 383.581 585.81C384.215 585.81 384.724 585.623 385.107 585.25C385.489 584.867 385.681 584.377 385.681 583.78C385.681 583.183 385.489 582.697 385.107 582.324C384.724 581.941 384.215 581.75 383.581 581.75C382.946 581.75 382.437 581.941 382.055 582.324ZM388.134 585.04V583.5L391.424 577.2H393.174L389.884 583.5H393.104V581.12H393.174H394.714V583.5H396.114V585.04H394.714V587H393.104V585.04H388.134Z" fill="#333333"/>
<path d="M383.42 327V325.46L386.766 323.094C387.494 322.571 388.017 322.086 388.334 321.638C388.651 321.19 388.81 320.714 388.81 320.21C388.81 319.678 388.647 319.253 388.32 318.936C387.993 318.619 387.55 318.46 386.99 318.46C386.299 318.46 385.781 318.74 385.436 319.3C385.287 319.543 385.175 319.823 385.1 320.14H383.42C383.504 319.543 383.686 319.006 383.966 318.53C384.629 317.457 385.637 316.92 386.99 316.92C388.026 316.92 388.866 317.228 389.51 317.844C390.163 318.451 390.49 319.216 390.49 320.14C390.49 320.943 390.285 321.666 389.874 322.31C389.463 322.945 388.805 323.575 387.9 324.2L386.5 325.18L385.87 325.46V325.53L386.71 325.46H390.49V327H383.42ZM391.613 326.23C391.613 325.95 391.701 325.717 391.879 325.53C392.065 325.343 392.294 325.25 392.565 325.25C392.873 325.25 393.115 325.362 393.293 325.586C393.479 325.81 393.573 326.141 393.573 326.58C393.573 327.299 393.4 327.849 393.055 328.232C392.719 328.624 392.261 328.82 391.683 328.82V328.12C391.963 328.12 392.182 328.041 392.341 327.882C392.509 327.733 392.593 327.532 392.593 327.28V327.196C392.583 327.187 392.579 327.168 392.579 327.14V327.098L392.495 327.126C392.467 327.135 392.406 327.14 392.313 327.14C392.126 327.14 391.963 327.056 391.823 326.888C391.683 326.72 391.613 326.501 391.613 326.23ZM394.689 320.42C394.689 319.431 395.044 318.6 395.753 317.928C396.462 317.256 397.368 316.92 398.469 316.92C399.57 316.92 400.476 317.256 401.185 317.928C401.894 318.6 402.249 319.431 402.249 320.42C402.249 321.307 401.88 322.263 401.143 323.29C401.068 323.393 400.966 323.533 400.835 323.71C400.704 323.878 400.616 323.995 400.569 324.06L398.329 327H396.439L398.553 324.242L399.169 323.71V323.64C399.15 323.649 399.057 323.687 398.889 323.752C398.646 323.817 398.343 323.85 397.979 323.85C397.064 323.85 396.285 323.523 395.641 322.87C395.006 322.207 394.689 321.391 394.689 320.42ZM396.943 318.964C396.56 319.337 396.369 319.823 396.369 320.42C396.369 321.017 396.56 321.507 396.943 321.89C397.326 322.263 397.834 322.45 398.469 322.45C399.104 322.45 399.612 322.263 399.995 321.89C400.378 321.507 400.569 321.017 400.569 320.42C400.569 319.823 400.378 319.337 399.995 318.964C399.612 318.581 399.104 318.39 398.469 318.39C397.834 318.39 397.326 318.581 396.943 318.964ZM403.302 324.34C403.302 323.491 403.629 322.814 404.282 322.31C404.562 322.114 404.889 321.965 405.262 321.862V321.778C404.973 321.666 404.716 321.512 404.492 321.316C403.979 320.877 403.722 320.299 403.722 319.58C403.722 318.843 404.035 318.217 404.66 317.704C405.295 317.181 406.149 316.92 407.222 316.92C408.296 316.92 409.145 317.181 409.77 317.704C410.405 318.217 410.722 318.843 410.722 319.58C410.722 320.28 410.466 320.859 409.952 321.316C409.71 321.512 409.453 321.666 409.182 321.778V321.862C409.537 321.955 409.864 322.109 410.162 322.324C410.816 322.828 411.142 323.5 411.142 324.34C411.142 325.152 410.788 325.847 410.078 326.426C409.378 326.995 408.426 327.28 407.222 327.28C406.018 327.28 405.062 326.995 404.352 326.426C403.652 325.847 403.302 325.152 403.302 324.34ZM405.402 319.72C405.402 320.131 405.561 320.467 405.878 320.728C406.196 320.989 406.644 321.12 407.222 321.12C407.801 321.12 408.249 320.989 408.566 320.728C408.884 320.467 409.042 320.131 409.042 319.72C409.042 319.347 408.879 319.034 408.552 318.782C408.235 318.521 407.792 318.39 407.222 318.39C406.653 318.39 406.205 318.521 405.878 318.782C405.561 319.034 405.402 319.347 405.402 319.72ZM405.57 323.066C405.178 323.374 404.982 323.752 404.982 324.2C404.982 324.648 405.178 325.031 405.57 325.348C405.972 325.656 406.522 325.81 407.222 325.81C407.922 325.81 408.468 325.656 408.86 325.348C409.262 325.031 409.462 324.648 409.462 324.2C409.462 323.752 409.262 323.374 408.86 323.066C408.468 322.749 407.922 322.59 407.222 322.59C406.522 322.59 405.972 322.749 405.57 323.066Z" fill="#333333"/>
<rect width="5" height="82" transform="matrix(1 0 0 -1 439 754)" fill="#5A5A5A"/>
<rect width="5" height="82" transform="matrix(1 0 0 -1 330 754)" fill="#5A5A5A"/>
<rect width="5" height="108" transform="matrix(-4.37114e-08 -1 -1 4.37114e-08 441 754)" fill="#5A5A5A"/>
<line x1="351.743" y1="688.571" x2="376.743" y2="673.571" stroke="#5A5A5A"/>
<path d="M382.25 701.75L445.725 701.687L445.749 697.25L382.25 697.25L382.25 701.75Z" stroke="#5A5A5A" stroke-width="0.5" stroke-miterlimit="10"/>
<path d="M382.25 691.75L445.725 691.687L445.749 687.25L382.25 687.25L382.25 691.75Z" stroke="#5A5A5A" stroke-width="0.5" stroke-miterlimit="10"/>
</svg>
