<svg width="468" height="697" viewBox="0 0 468 697" fill="none" xmlns="http://www.w3.org/2000/svg">
<rect width="30" height="60" transform="matrix(4.37114e-08 1 1 -4.37114e-08 408 57)" fill="#5A5A5A"/>
<path d="M16 87V281.674L468 281.674L468 87L16 87Z" fill="#E7FFD5"/>
<path d="M13 206.415V365.088H329L329 206.415L13 206.415Z" fill="#E7FFD5"/>
<path d="M10 326.829V478.351H155V326.829H10Z" fill="#E7FFD5"/>
<path d="M7 447.244V667H152L152 447.244L7 447.244Z" fill="#E7FFD5"/>
<path d="M13 233.5V369.174H329L329 233.5L13 233.5Z" fill="#E7FFD5"/>
<rect width="116" height="100" transform="matrix(4.37114e-08 -1 -1 -4.37114e-08 341 409)" fill="#E7FFD5"/>
<circle cx="195.5" cy="181.5" r="39.5" fill="#5A5A5A"/>
<path d="M171.72 180.54C171.72 179.268 172.176 178.2 173.088 177.336C174 176.472 175.164 176.04 176.58 176.04C177.996 176.04 179.16 176.472 180.072 177.336C180.984 178.2 181.44 179.268 181.44 180.54C181.44 181.68 180.966 182.91 180.018 184.23C179.922 184.362 179.79 184.542 179.622 184.77C179.454 184.986 179.34 185.136 179.28 185.22L176.4 189H173.97L176.688 185.454L177.48 184.77V184.68C177.456 184.692 177.336 184.74 177.12 184.824C176.808 184.908 176.418 184.95 175.95 184.95C174.774 184.95 173.772 184.53 172.944 183.69C172.128 182.838 171.72 181.788 171.72 180.54ZM174.618 178.668C174.126 179.148 173.88 179.772 173.88 180.54C173.88 181.308 174.126 181.938 174.618 182.43C175.11 182.91 175.764 183.15 176.58 183.15C177.396 183.15 178.05 182.91 178.542 182.43C179.034 181.938 179.28 181.308 179.28 180.54C179.28 179.772 179.034 179.148 178.542 178.668C178.05 178.176 177.396 177.93 176.58 177.93C175.764 177.93 175.11 178.176 174.618 178.668ZM182.344 186.48V184.5L186.574 176.4H188.824L184.594 184.5H188.734V181.44H188.824H190.804V184.5H192.604V186.48H190.804V189H188.734V186.48H182.344ZM193.324 188.01C193.324 187.65 193.438 187.35 193.666 187.11C193.906 186.87 194.2 186.75 194.548 186.75C194.944 186.75 195.256 186.894 195.484 187.182C195.724 187.47 195.844 187.896 195.844 188.46C195.844 189.384 195.622 190.092 195.178 190.584C194.746 191.088 194.158 191.34 193.414 191.34V190.44C193.774 190.44 194.056 190.338 194.26 190.134C194.476 189.942 194.584 189.684 194.584 189.36V189.252C194.572 189.24 194.566 189.216 194.566 189.18V189.126L194.458 189.162C194.422 189.174 194.344 189.18 194.224 189.18C193.984 189.18 193.774 189.072 193.594 188.856C193.414 188.64 193.324 188.358 193.324 188.01ZM197.099 185.4H199.259C199.343 185.772 199.505 186.102 199.745 186.39C200.285 187.05 201.053 187.38 202.049 187.38C202.877 187.38 203.531 187.176 204.011 186.768C204.503 186.348 204.749 185.832 204.749 185.22C204.749 184.524 204.527 183.978 204.083 183.582C203.651 183.174 203.033 182.97 202.229 182.97H199.169V181.17L202.949 178.47V178.38H197.729V176.4H206.009V178.362L202.769 180.72L201.869 181.08V181.17L202.157 181.134C202.553 181.098 202.787 181.08 202.859 181.08C203.987 181.08 204.929 181.47 205.685 182.25C206.441 183.03 206.819 184.02 206.819 185.22C206.819 186.372 206.375 187.35 205.487 188.154C204.599 188.958 203.453 189.36 202.049 189.36C200.189 189.36 198.815 188.7 197.927 187.38C197.543 186.816 197.267 186.156 197.099 185.4ZM208.087 184.86C208.087 184.284 208.213 183.684 208.465 183.06C208.729 182.424 208.981 181.926 209.221 181.566C209.473 181.194 209.815 180.732 210.247 180.18L213.127 176.4H215.557L212.839 179.946L212.047 180.63V180.72L212.407 180.594C212.767 180.498 213.157 180.45 213.577 180.45C214.753 180.45 215.749 180.876 216.565 181.728C217.393 182.568 217.807 183.612 217.807 184.86C217.807 186.132 217.351 187.2 216.439 188.064C215.527 188.928 214.363 189.36 212.947 189.36C211.531 189.36 210.367 188.928 209.455 188.064C208.543 187.2 208.087 186.132 208.087 184.86ZM210.985 182.988C210.493 183.468 210.247 184.092 210.247 184.86C210.247 185.628 210.493 186.258 210.985 186.75C211.477 187.23 212.131 187.47 212.947 187.47C213.763 187.47 214.417 187.23 214.909 186.75C215.401 186.258 215.647 185.628 215.647 184.86C215.647 184.092 215.401 183.468 214.909 182.988C214.417 182.496 213.763 182.25 212.947 182.25C212.131 182.25 211.477 182.496 210.985 182.988Z" fill="white"/>
<path d="M352.49 237.78C352.49 237.332 352.588 236.865 352.784 236.38C352.989 235.885 353.185 235.498 353.372 235.218C353.568 234.929 353.834 234.569 354.17 234.14L356.41 231.2H358.3L356.186 233.958L355.57 234.49V234.56L355.85 234.462C356.13 234.387 356.433 234.35 356.76 234.35C357.675 234.35 358.449 234.681 359.084 235.344C359.728 235.997 360.05 236.809 360.05 237.78C360.05 238.769 359.695 239.6 358.986 240.272C358.277 240.944 357.371 241.28 356.27 241.28C355.169 241.28 354.263 240.944 353.554 240.272C352.845 239.6 352.49 238.769 352.49 237.78ZM354.744 236.324C354.361 236.697 354.17 237.183 354.17 237.78C354.17 238.377 354.361 238.867 354.744 239.25C355.127 239.623 355.635 239.81 356.27 239.81C356.905 239.81 357.413 239.623 357.796 239.25C358.179 238.867 358.37 238.377 358.37 237.78C358.37 237.183 358.179 236.697 357.796 236.324C357.413 235.941 356.905 235.75 356.27 235.75C355.635 235.75 355.127 235.941 354.744 236.324ZM361.173 240.23C361.173 239.95 361.262 239.717 361.439 239.53C361.626 239.343 361.855 239.25 362.125 239.25C362.433 239.25 362.676 239.362 362.853 239.586C363.04 239.81 363.133 240.141 363.133 240.58C363.133 241.299 362.961 241.849 362.615 242.232C362.279 242.624 361.822 242.82 361.243 242.82V242.12C361.523 242.12 361.743 242.041 361.901 241.882C362.069 241.733 362.153 241.532 362.153 241.28V241.196C362.144 241.187 362.139 241.168 362.139 241.14V241.098L362.055 241.126C362.027 241.135 361.967 241.14 361.873 241.14C361.687 241.14 361.523 241.056 361.383 240.888C361.243 240.72 361.173 240.501 361.173 240.23ZM365.649 239.824C364.763 238.853 364.319 237.612 364.319 236.1C364.319 234.588 364.763 233.347 365.649 232.376C366.536 231.405 367.609 230.92 368.869 230.92C370.129 230.92 371.203 231.405 372.089 232.376C372.976 233.347 373.419 234.588 373.419 236.1C373.419 237.612 372.976 238.853 372.089 239.824C371.203 240.795 370.129 241.28 368.869 241.28C367.609 241.28 366.536 240.795 365.649 239.824ZM366.797 233.412C366.265 234.047 365.999 234.943 365.999 236.1C365.999 237.257 366.265 238.153 366.797 238.788C367.339 239.423 368.029 239.74 368.869 239.74C369.709 239.74 370.395 239.423 370.927 238.788C371.469 238.153 371.739 237.257 371.739 236.1C371.739 234.943 371.469 234.047 370.927 233.412C370.395 232.777 369.709 232.46 368.869 232.46C368.029 232.46 367.339 232.777 366.797 233.412ZM374.613 238.27H376.293C376.367 238.559 376.493 238.807 376.671 239.012C377.081 239.497 377.679 239.74 378.463 239.74C379.088 239.74 379.583 239.572 379.947 239.236C380.311 238.9 380.493 238.461 380.493 237.92C380.493 237.351 380.311 236.893 379.947 236.548C379.583 236.203 379.088 236.03 378.463 236.03C377.884 236.03 377.394 236.184 376.993 236.492C376.834 236.613 376.694 236.763 376.573 236.94H375.033L375.453 231.2H381.403V232.74H376.783L376.573 235.26H376.643C376.792 235.111 376.965 234.985 377.161 234.882C377.599 234.621 378.127 234.49 378.743 234.49C379.723 234.49 380.539 234.817 381.193 235.47C381.846 236.123 382.173 236.94 382.173 237.92C382.173 238.881 381.827 239.684 381.137 240.328C380.455 240.963 379.564 241.28 378.463 241.28C377.025 241.28 375.957 240.781 375.257 239.782C374.958 239.343 374.743 238.839 374.613 238.27Z" fill="#333333"/>
<path d="M337.21 152.04V150.5L340.5 144.2H342.25L338.96 150.5H342.18V148.12H342.25H343.79V150.5H345.19V152.04H343.79V154H342.18V152.04H337.21ZM345.749 151.34C345.749 150.491 346.076 149.814 346.729 149.31C347.009 149.114 347.336 148.965 347.709 148.862V148.778C347.42 148.666 347.163 148.512 346.939 148.316C346.426 147.877 346.169 147.299 346.169 146.58C346.169 145.843 346.482 145.217 347.107 144.704C347.742 144.181 348.596 143.92 349.669 143.92C350.743 143.92 351.592 144.181 352.217 144.704C352.852 145.217 353.169 145.843 353.169 146.58C353.169 147.28 352.913 147.859 352.399 148.316C352.157 148.512 351.9 148.666 351.629 148.778V148.862C351.984 148.955 352.311 149.109 352.609 149.324C353.263 149.828 353.589 150.5 353.589 151.34C353.589 152.152 353.235 152.847 352.525 153.426C351.825 153.995 350.873 154.28 349.669 154.28C348.465 154.28 347.509 153.995 346.799 153.426C346.099 152.847 345.749 152.152 345.749 151.34ZM347.849 146.72C347.849 147.131 348.008 147.467 348.325 147.728C348.643 147.989 349.091 148.12 349.669 148.12C350.248 148.12 350.696 147.989 351.013 147.728C351.331 147.467 351.489 147.131 351.489 146.72C351.489 146.347 351.326 146.034 350.999 145.782C350.682 145.521 350.239 145.39 349.669 145.39C349.1 145.39 348.652 145.521 348.325 145.782C348.008 146.034 347.849 146.347 347.849 146.72ZM348.017 150.066C347.625 150.374 347.429 150.752 347.429 151.2C347.429 151.648 347.625 152.031 348.017 152.348C348.419 152.656 348.969 152.81 349.669 152.81C350.369 152.81 350.915 152.656 351.307 152.348C351.709 152.031 351.909 151.648 351.909 151.2C351.909 150.752 351.709 150.374 351.307 150.066C350.915 149.749 350.369 149.59 349.669 149.59C348.969 149.59 348.419 149.749 348.017 150.066ZM354.705 153.23C354.705 152.95 354.793 152.717 354.971 152.53C355.157 152.343 355.386 152.25 355.657 152.25C355.965 152.25 356.207 152.362 356.385 152.586C356.571 152.81 356.665 153.141 356.665 153.58C356.665 154.299 356.492 154.849 356.147 155.232C355.811 155.624 355.353 155.82 354.775 155.82V155.12C355.055 155.12 355.274 155.041 355.433 154.882C355.601 154.733 355.685 154.532 355.685 154.28V154.196C355.675 154.187 355.671 154.168 355.671 154.14V154.098L355.587 154.126C355.559 154.135 355.498 154.14 355.405 154.14C355.218 154.14 355.055 154.056 354.915 153.888C354.775 153.72 354.705 153.501 354.705 153.23ZM357.361 145.74V144.2H364.011V145.74L360.091 154H358.341L362.191 145.88V145.74H357.361ZM364.709 151.2H366.389C366.454 151.489 366.58 151.746 366.767 151.97C367.187 152.483 367.784 152.74 368.559 152.74C369.203 152.74 369.712 152.581 370.085 152.264C370.468 151.937 370.659 151.536 370.659 151.06C370.659 150.519 370.486 150.094 370.141 149.786C369.805 149.469 369.324 149.31 368.699 149.31H366.319V147.91L369.259 145.81V145.74H365.199V144.2H371.639V145.726L369.119 147.56L368.419 147.84V147.91L368.643 147.882C368.951 147.854 369.133 147.84 369.189 147.84C370.066 147.84 370.799 148.143 371.387 148.75C371.975 149.357 372.269 150.127 372.269 151.06C372.269 151.956 371.924 152.717 371.233 153.342C370.542 153.967 369.651 154.28 368.559 154.28C367.112 154.28 366.044 153.767 365.353 152.74C365.054 152.301 364.84 151.788 364.709 151.2Z" fill="#333333"/>
<path d="M190.42 38.2H192.1C192.165 38.4893 192.291 38.746 192.478 38.97C192.898 39.4833 193.495 39.74 194.27 39.74C194.914 39.74 195.423 39.5813 195.796 39.264C196.179 38.9373 196.37 38.536 196.37 38.06C196.37 37.5187 196.197 37.094 195.852 36.786C195.516 36.4687 195.035 36.31 194.41 36.31H192.03V34.91L194.97 32.81V32.74H190.91V31.2H197.35V32.726L194.83 34.56L194.13 34.84V34.91L194.354 34.882C194.662 34.854 194.844 34.84 194.9 34.84C195.777 34.84 196.51 35.1433 197.098 35.75C197.686 36.3567 197.98 37.1267 197.98 38.06C197.98 38.956 197.635 39.7167 196.944 40.342C196.253 40.9673 195.362 41.28 194.27 41.28C192.823 41.28 191.755 40.7667 191.064 39.74C190.765 39.3013 190.551 38.788 190.42 38.2ZM199.037 40.23C199.037 39.95 199.125 39.7167 199.303 39.53C199.489 39.3433 199.718 39.25 199.989 39.25C200.297 39.25 200.539 39.362 200.717 39.586C200.903 39.81 200.997 40.1413 200.997 40.58C200.997 41.2987 200.824 41.8493 200.479 42.232C200.143 42.624 199.685 42.82 199.107 42.82V42.12C199.387 42.12 199.606 42.0407 199.765 41.882C199.933 41.7327 200.017 41.532 200.017 41.28V41.196C200.007 41.1867 200.003 41.168 200.003 41.14V41.098L199.919 41.126C199.891 41.1353 199.83 41.14 199.737 41.14C199.55 41.14 199.387 41.056 199.247 40.888C199.107 40.72 199.037 40.5007 199.037 40.23ZM202.043 37.78C202.043 37.332 202.141 36.8653 202.337 36.38C202.542 35.8853 202.738 35.498 202.925 35.218C203.121 34.9287 203.387 34.5693 203.723 34.14L205.963 31.2H207.853L205.739 33.958L205.123 34.49V34.56L205.403 34.462C205.683 34.3873 205.986 34.35 206.313 34.35C207.227 34.35 208.002 34.6813 208.637 35.344C209.281 35.9973 209.603 36.8093 209.603 37.78C209.603 38.7693 209.248 39.6 208.539 40.272C207.829 40.944 206.924 41.28 205.823 41.28C204.721 41.28 203.816 40.944 203.107 40.272C202.397 39.6 202.043 38.7693 202.043 37.78ZM204.297 36.324C203.914 36.6973 203.723 37.1827 203.723 37.78C203.723 38.3773 203.914 38.8673 204.297 39.25C204.679 39.6233 205.188 39.81 205.823 39.81C206.457 39.81 206.966 39.6233 207.349 39.25C207.731 38.8673 207.923 38.3773 207.923 37.78C207.923 37.1827 207.731 36.6973 207.349 36.324C206.966 35.9413 206.457 35.75 205.823 35.75C205.188 35.75 204.679 35.9413 204.297 36.324ZM210.656 37.78C210.656 37.332 210.754 36.8653 210.95 36.38C211.155 35.8853 211.351 35.498 211.538 35.218C211.734 34.9287 212 34.5693 212.336 34.14L214.576 31.2H216.466L214.352 33.958L213.736 34.49V34.56L214.016 34.462C214.296 34.3873 214.599 34.35 214.926 34.35C215.841 34.35 216.615 34.6813 217.25 35.344C217.894 35.9973 218.216 36.8093 218.216 37.78C218.216 38.7693 217.861 39.6 217.152 40.272C216.443 40.944 215.537 41.28 214.436 41.28C213.335 41.28 212.429 40.944 211.72 40.272C211.011 39.6 210.656 38.7693 210.656 37.78ZM212.91 36.324C212.527 36.6973 212.336 37.1827 212.336 37.78C212.336 38.3773 212.527 38.8673 212.91 39.25C213.293 39.6233 213.801 39.81 214.436 39.81C215.071 39.81 215.579 39.6233 215.962 39.25C216.345 38.8673 216.536 38.3773 216.536 37.78C216.536 37.1827 216.345 36.6973 215.962 36.324C215.579 35.9413 215.071 35.75 214.436 35.75C213.801 35.75 213.293 35.9413 212.91 36.324Z" fill="#333333"/>
<path d="M267.35 337.42V335.6L269.17 334.2H270.64V344H269.03V336.16L267.35 337.42ZM272.181 341.27H273.861C273.936 341.559 274.062 341.807 274.239 342.012C274.65 342.497 275.247 342.74 276.031 342.74C276.656 342.74 277.151 342.572 277.515 342.236C277.879 341.9 278.061 341.461 278.061 340.92C278.061 340.351 277.879 339.893 277.515 339.548C277.151 339.203 276.656 339.03 276.031 339.03C275.452 339.03 274.962 339.184 274.561 339.492C274.402 339.613 274.262 339.763 274.141 339.94H272.601L273.021 334.2H278.971V335.74H274.351L274.141 338.26H274.211C274.36 338.111 274.533 337.985 274.729 337.882C275.168 337.621 275.695 337.49 276.311 337.49C277.291 337.49 278.108 337.817 278.761 338.47C279.414 339.123 279.741 339.94 279.741 340.92C279.741 341.881 279.396 342.684 278.705 343.328C278.024 343.963 277.132 344.28 276.031 344.28C274.594 344.28 273.525 343.781 272.825 342.782C272.526 342.343 272.312 341.839 272.181 341.27ZM280.794 343.23C280.794 342.95 280.883 342.717 281.06 342.53C281.247 342.343 281.476 342.25 281.746 342.25C282.054 342.25 282.297 342.362 282.474 342.586C282.661 342.81 282.754 343.141 282.754 343.58C282.754 344.299 282.582 344.849 282.236 345.232C281.9 345.624 281.443 345.82 280.864 345.82V345.12C281.144 345.12 281.364 345.041 281.522 344.882C281.69 344.733 281.774 344.532 281.774 344.28V344.196C281.765 344.187 281.76 344.168 281.76 344.14V344.098L281.676 344.126C281.648 344.135 281.588 344.14 281.494 344.14C281.308 344.14 281.144 344.056 281.004 343.888C280.864 343.72 280.794 343.501 280.794 343.23ZM283.661 337.42V335.6L285.481 334.2H286.951V344H285.341V336.16L283.661 337.42ZM288.142 342.04V340.5L291.432 334.2H293.182L289.892 340.5H293.112V338.12H293.182H294.722V340.5H296.122V342.04H294.722V344H293.112V342.04H288.142Z" fill="#333333"/>
<path d="M403.626 252.108L403.626 277.104L379.301 277.104L379.301 252.108L403.626 252.108Z" fill="white" stroke="#5A5A5A" stroke-width="0.5"/>
<path d="M402.699 275.077L402.699 255.624C402.699 254.886 402.307 254.494 401.537 254.494L381.39 254.494C380.604 254.494 380.227 254.87 380.227 255.624L380.227 275.077C380.212 275.831 380.604 276.208 381.374 276.208L401.521 276.208C402.307 276.223 402.699 275.831 402.699 275.077Z" fill="white" stroke="#5A5A5A" stroke-width="0.5"/>
<path d="M396.199 273.288C394.408 273.272 392.948 271.859 392.948 270.116C392.948 268.358 394.408 266.945 396.199 266.945C398.004 266.945 399.449 268.358 399.449 270.116C399.449 271.875 398.004 273.288 396.199 273.288Z" stroke="#5A5A5A" stroke-width="0.5"/>
<path d="M386.572 273.258C384.782 273.242 383.322 271.829 383.322 270.086C383.322 268.328 384.782 266.915 386.572 266.915C388.378 266.915 389.823 268.328 389.823 270.086C389.839 271.845 388.378 273.273 386.572 273.258Z" stroke="#5A5A5A" stroke-width="0.5"/>
<path d="M386.573 264.244C384.767 264.244 383.322 262.831 383.322 261.073C383.322 259.314 384.782 257.901 386.573 257.901C388.363 257.917 389.823 259.33 389.823 261.073C389.823 262.815 388.363 264.244 386.573 264.244Z" stroke="#5A5A5A" stroke-width="0.5"/>
<path d="M396.199 264.244C394.393 264.244 392.948 262.831 392.948 261.073C392.948 259.314 394.408 257.901 396.199 257.901C397.989 257.917 399.449 259.33 399.449 261.073C399.449 262.815 397.989 264.244 396.199 264.244Z" stroke="#5A5A5A" stroke-width="0.5"/>
<path d="M451.985 231H427.896L427.896 254.699H452L451.985 231Z" fill="white" stroke="#5A5A5A" stroke-width="0.5"/>
<path d="M445.378 232.803L432.061 232.803C431.319 232.803 430.955 233.167 430.955 233.925L430.955 251.532C430.955 252.259 431.319 252.638 432.046 252.653L445.378 252.638C446.105 252.653 446.469 252.275 446.469 251.532L446.469 233.925C446.499 233.182 446.121 232.803 445.378 232.803Z" fill="white" stroke="#5A5A5A" stroke-width="0.5"/>
<path d="M450.137 242.728C450.122 243.653 449.425 244.395 448.546 244.395L441.562 243.744L441.547 243.728C441.016 243.728 440.592 243.289 440.592 242.728C440.592 242.168 441.016 241.728 441.562 241.713L448.546 241.062C449.41 241.062 450.122 241.804 450.137 242.728Z" stroke="#5A5A5A" stroke-width="0.5"/>
<mask id="path-19-inside-1_67_296" fill="white">
<path fill-rule="evenodd" clip-rule="evenodd" d="M449.454 244.107L445.651 243.744C445.121 243.729 444.682 243.289 444.697 242.713C444.697 242.153 445.121 241.728 445.651 241.713L449.454 241.35"/>
</mask>
<path fill-rule="evenodd" clip-rule="evenodd" d="M449.454 244.107L445.651 243.744C445.121 243.729 444.682 243.289 444.697 242.713C444.697 242.153 445.121 241.728 445.651 241.713L449.454 241.35" fill="white"/>
<path d="M445.651 243.744L445.666 243.244L445.682 243.244L445.699 243.246L445.651 243.744ZM444.697 242.713H445.197L445.197 242.727L444.697 242.713ZM445.651 241.713L445.699 242.211L445.682 242.213L445.666 242.213L445.651 241.713ZM449.407 244.605L445.604 244.241L445.699 243.246L449.502 243.61L449.407 244.605ZM445.637 244.244C444.832 244.221 444.175 243.552 444.197 242.7L445.197 242.727C445.189 243.026 445.41 243.237 445.666 243.244L445.637 244.244ZM444.197 242.713C444.197 241.884 444.835 241.236 445.637 241.213L445.666 242.213C445.408 242.22 445.197 242.421 445.197 242.713H444.197ZM445.604 241.216L449.407 240.852L449.502 241.847L445.699 242.211L445.604 241.216Z" fill="#5A5A5A" mask="url(#path-19-inside-1_67_296)"/>
<path d="M9.00001 293L95 293L95 472L9 472L9.00001 293Z" fill="#FDFF9F"/>
<path d="M35.5238 312.72L34.3433 312.736L31.2773 312.72L23.686 312.72L23.686 322.677L35.5238 322.677C38.5406 322.677 41 320.433 41 317.682C41 314.963 38.5406 312.72 35.5238 312.72Z" fill="white" stroke="#5A5A5A" stroke-width="0.5"/>
<path d="M35.4584 313.866L34.5239 313.866L26.9654 313.866L26.9654 321.547L34.5239 321.547L35.4584 321.53C37.8358 321.53 39.7705 319.827 39.7705 317.698C39.7541 315.585 37.8194 313.866 35.4584 313.866Z" fill="white" stroke="#5A5A5A" stroke-width="0.5"/>
<path d="M17.324 324.478L22.587 324.478C23.1937 324.478 23.6855 323.987 23.6855 323.381L23.6855 312.097C23.6855 311.491 23.1937 311 22.587 311L17.324 311C16.7173 311 16.2254 311.491 16.2254 312.097L16.2254 323.365C16.2254 323.987 16.7173 324.478 17.324 324.478Z" fill="white" stroke="#5A5A5A" stroke-width="0.5"/>
<path d="M19.948 318.386C20.3578 318.386 20.6693 318.091 20.6693 317.747C20.6857 317.387 20.3578 317.092 19.948 317.092C19.5381 317.092 19.2266 317.387 19.2266 317.731C19.243 318.108 19.5545 318.402 19.948 318.386Z" fill="white" stroke="#5A5A5A" stroke-width="0.5"/>
<path d="M79.9998 346.848L79.9998 334.54C79.9998 333.685 79.316 333 78.4612 333L59.9418 333C59.0871 333 58.4033 333.685 58.4033 334.54L58.4033 346.848C58.4033 347.704 59.0871 348.389 59.9418 348.389L78.4612 348.389C79.3017 348.389 79.9998 347.704 79.9998 346.848Z" fill="white" stroke="#5A5A5A" stroke-width="0.5"/>
<path d="M78.0763 342.156L78.0763 340.259C78.0763 337.764 76.0534 335.738 73.5604 335.738L64.842 335.738C62.349 335.738 60.3262 337.764 60.3262 340.259L60.3262 342.156C60.3262 344.652 62.349 346.677 64.842 346.677L73.5604 346.677C76.0534 346.677 78.0763 344.652 78.0763 342.156Z" fill="white" stroke="#5A5A5A" stroke-width="0.5"/>
<path d="M70.1559 344.267C70.1559 343.724 69.7286 343.283 69.2015 343.283C68.6744 343.283 68.2471 343.724 68.2471 344.267C68.2471 344.81 68.6744 345.251 69.2015 345.251C69.7286 345.251 70.1559 344.81 70.1559 344.267Z" fill="white" stroke="#5A5A5A" stroke-width="0.5"/>
<rect width="30" height="107" transform="matrix(4.37114e-08 1 1 -4.37114e-08 235 57)" fill="#5A5A5A"/>
<line x1="236.298" y1="73.4018" x2="209.298" y2="93.4018" stroke="#5A5A5A"/>
<path d="M168.25 0.250157L278.707 0.313212L278.748 4.74999L168.25 4.75L168.25 0.250157Z" stroke="#5A5A5A" stroke-width="0.5" stroke-miterlimit="10"/>
<rect width="5" height="82" transform="matrix(-1 0 0 1 152 0)" fill="#5A5A5A"/>
<rect width="5" height="79" transform="matrix(-1 0 0 1 294 3)" fill="#5A5A5A"/>
<rect width="5" height="19" transform="matrix(4.37114e-08 1 1 -4.37114e-08 275 0)" fill="#5A5A5A"/>
<rect width="5" height="19" transform="matrix(4.37114e-08 1 1 -4.37114e-08 150 0)" fill="#5A5A5A"/>
<path d="M206.75 62.2503L143.275 62.3131L143.251 66.75L206.75 66.75L206.75 62.2503Z" stroke="#5A5A5A" stroke-width="0.5" stroke-miterlimit="10"/>
<path d="M206.75 72.2503L143.275 72.3131L143.251 76.75L206.75 76.75L206.75 72.2503Z" stroke="#5A5A5A" stroke-width="0.5" stroke-miterlimit="10"/>
<rect width="30" height="64" transform="matrix(4.37114e-08 1 1 -4.37114e-08 110 57)" fill="#5A5A5A"/>
<rect width="30" height="45" transform="matrix(4.37114e-08 1 1 -4.37114e-08 0 57)" fill="#5A5A5A"/>
<rect width="16" height="607" transform="matrix(-1 0 0 1 16 63)" fill="#5A5A5A"/>
<rect width="16" height="236" transform="matrix(-1 0 0 1 468 57)" fill="#5A5A5A"/>
<rect width="16" height="145" transform="matrix(4.37114e-08 1 1 -4.37114e-08 323 277)" fill="#5A5A5A"/>
<rect width="2" height="6" transform="matrix(4.37114e-08 -1 -1 -4.37114e-08 458 185)" fill="#5A5A5A"/>
<rect width="2" height="11" transform="matrix(4.37114e-08 -1 -1 -4.37114e-08 447 185)" fill="#5A5A5A"/>
<rect width="2" height="11" transform="matrix(4.37114e-08 -1 -1 -4.37114e-08 430 185)" fill="#5A5A5A"/>
<rect width="2" height="11" transform="matrix(4.37114e-08 -1 -1 -4.37114e-08 413 185)" fill="#5A5A5A"/>
<rect width="2" height="11" transform="matrix(4.37114e-08 -1 -1 -4.37114e-08 396 185)" fill="#5A5A5A"/>
<rect width="2" height="11" transform="matrix(4.37114e-08 -1 -1 -4.37114e-08 379 185)" fill="#5A5A5A"/>
<rect width="2" height="11" transform="matrix(4.37114e-08 -1 -1 -4.37114e-08 359 185)" fill="#5A5A5A"/>
<rect width="2" height="11" transform="matrix(4.37114e-08 -1 -1 -4.37114e-08 344 185)" fill="#5A5A5A"/>
<rect width="2" height="6" transform="matrix(1 8.74228e-08 8.74228e-08 -1 333 293)" fill="#5A5A5A"/>
<rect width="2" height="11" transform="matrix(1 8.74228e-08 8.74228e-08 -1 333 282)" fill="#5A5A5A"/>
<rect width="2" height="11" transform="matrix(1 8.74228e-08 8.74228e-08 -1 333 265)" fill="#5A5A5A"/>
<rect width="2" height="11" transform="matrix(1 8.74228e-08 8.74228e-08 -1 333 248)" fill="#5A5A5A"/>
<rect width="2" height="11" transform="matrix(1 8.74228e-08 8.74228e-08 -1 333 231)" fill="#5A5A5A"/>
<rect width="2" height="11" transform="matrix(1 8.74228e-08 8.74228e-08 -1 333 214)" fill="#5A5A5A"/>
<rect width="2" height="11" transform="matrix(1 8.74228e-08 8.74228e-08 -1 333 196)" fill="#5A5A5A"/>
<rect width="16" height="50" transform="matrix(1 -8.74228e-08 -8.74228e-08 -1 341 328)" fill="#5A5A5A"/>
<rect width="16" height="46" transform="matrix(1 -8.74228e-08 -8.74228e-08 -1 341 409)" fill="#5A5A5A"/>
<rect width="16" height="46" transform="matrix(1 -8.74228e-08 -8.74228e-08 -1 241 409)" fill="#5A5A5A"/>
<rect width="16" height="97" transform="matrix(-4.37114e-08 1 1 4.37114e-08 160 355)" fill="#5A5A5A"/>
<rect width="16" height="101" transform="matrix(4.37114e-08 -1 -1 -4.37114e-08 342 409)" fill="#5A5A5A"/>
<rect width="16" height="329" transform="matrix(-1 0 0 1 164 355)" fill="#5A5A5A"/>
<rect width="16" height="94" transform="matrix(4.37114e-08 1 1 -4.37114e-08 13 471)" fill="#5A5A5A"/>
<rect width="16" height="98" transform="matrix(4.37114e-08 1 1 -4.37114e-08 9 277)" fill="#5A5A5A"/>
<rect x="284" y="277" width="16" height="21" transform="rotate(90 284 277)" fill="#5A5A5A"/>
<rect x="225" y="277" width="16" height="78" transform="rotate(90 225 277)" fill="#5A5A5A"/>
<rect width="30" height="45" transform="matrix(4.37114e-08 1 1 -4.37114e-08 0 667)" fill="#5A5A5A"/>
<rect width="30" height="65" transform="matrix(4.37114e-08 1 1 -4.37114e-08 114 667)" fill="#5A5A5A"/>
<path d="M440.75 57.2504L332.294 57.4017L332.251 68.75L440.75 68.7501L440.75 57.2504Z" stroke="#5A5A5A" stroke-width="0.5" stroke-miterlimit="10"/>
<path d="M130.75 57.2504L22.2938 57.4017L22.2509 68.75L130.75 68.7501L130.75 57.2504Z" stroke="#5A5A5A" stroke-width="0.5" stroke-miterlimit="10"/>
<path d="M33.25 667.25L170.695 667.402L170.749 678.75L33.25 678.75L33.25 667.25Z" stroke="#5A5A5A" stroke-width="0.5" stroke-miterlimit="10"/>
<path d="M440.75 75.2504L332.294 75.4017L332.251 86.75L440.75 86.7501L440.75 75.2504Z" stroke="#5A5A5A" stroke-width="0.5" stroke-miterlimit="10"/>
<path d="M130.75 75.2504L22.2938 75.4017L22.2509 86.75L130.75 86.7501L130.75 75.2504Z" stroke="#5A5A5A" stroke-width="0.5" stroke-miterlimit="10"/>
<path d="M33.25 685.25L170.695 685.402L170.749 696.75L33.25 696.75L33.25 685.25Z" stroke="#5A5A5A" stroke-width="0.5" stroke-miterlimit="10"/>
<rect width="8" height="70" transform="matrix(-1 0 0 1 103 417)" fill="#5A5A5A"/>
<rect width="8" height="50" transform="matrix(-1 0 0 1 103 336)" fill="#5A5A5A"/>
<rect width="8" height="26" transform="matrix(-1 0 0 1 103 278)" fill="#5A5A5A"/>
<rect width="8" height="86" transform="matrix(4.37114e-08 1 1 -4.37114e-08 13 348)" fill="#5A5A5A"/>
<path d="M34.8949 373.72L33.7144 373.736L30.6484 373.72L23.0571 373.72L23.0571 383.677L34.8949 383.677C37.9117 383.677 40.3711 381.433 40.3711 378.682C40.3711 375.963 37.9117 373.72 34.8949 373.72Z" fill="white" stroke="#5A5A5A" stroke-width="0.5"/>
<path d="M34.8295 374.866L33.895 374.866L26.3365 374.866L26.3365 382.547L33.895 382.547L34.8295 382.53C37.2069 382.53 39.1416 380.827 39.1416 378.698C39.1252 376.585 37.1905 374.866 34.8295 374.866Z" fill="white" stroke="#5A5A5A" stroke-width="0.5"/>
<path d="M16.6951 385.478L21.9581 385.478C22.5648 385.478 23.0566 384.987 23.0566 384.381L23.0566 373.097C23.0566 372.491 22.5648 372 21.9581 372L16.6951 372C16.0884 372 15.5965 372.491 15.5965 373.097L15.5965 384.365C15.5965 384.987 16.0884 385.478 16.6951 385.478Z" fill="white" stroke="#5A5A5A" stroke-width="0.5"/>
<path d="M19.3191 379.386C19.7289 379.386 20.0404 379.091 20.0404 378.747C20.0568 378.387 19.7289 378.092 19.3191 378.092C18.9092 378.092 18.5977 378.387 18.5977 378.731C18.6141 379.108 18.9256 379.402 19.3191 379.386Z" fill="white" stroke="#5A5A5A" stroke-width="0.5"/>
<path d="M17.0657 416.145L29.3737 416.145C30.2295 416.145 30.914 415.461 30.914 414.607L30.914 396.087C30.914 395.233 30.2295 394.549 29.3737 394.549L17.0657 394.549C16.21 394.549 15.5254 395.233 15.5254 396.087L15.5254 414.607C15.5254 415.447 16.21 416.145 17.0657 416.145Z" fill="white" stroke="#5A5A5A" stroke-width="0.5"/>
<path d="M21.7573 414.222L23.6542 414.222C26.15 414.222 28.1752 412.199 28.1752 409.706L28.1752 400.988C28.1752 398.495 26.15 396.472 23.6542 396.472L21.7573 396.472C19.2615 396.472 17.2363 398.495 17.2363 400.988L17.2363 409.706C17.2363 412.199 19.2615 414.222 21.7573 414.222Z" fill="white" stroke="#5A5A5A" stroke-width="0.5"/>
<path d="M19.6471 406.302C20.1905 406.302 20.6311 405.875 20.6311 405.347C20.6311 404.82 20.1905 404.393 19.6471 404.393C19.1036 404.393 18.6631 404.82 18.6631 405.347C18.6631 405.875 19.1036 406.302 19.6471 406.302Z" fill="white" stroke="#5A5A5A" stroke-width="0.5"/>
<path d="M17.8643 444.844L77.985 444.844C78.7549 444.844 79.3708 445.459 79.3708 446.228L79.3708 470.095C79.3708 470.864 78.7549 471.479 77.985 471.479L17.8643 471.479C17.0944 471.479 16.4785 470.864 16.4785 470.095L16.4785 446.228C16.4785 445.459 17.1084 444.844 17.8643 444.844Z" fill="white" stroke="#5A5A5A" stroke-width="0.5"/>
<path d="M75.6756 454.925L75.6756 461.412C75.6756 465.173 72.624 468.208 68.8726 468.208L21.532 468.208C20.6081 468.208 19.8662 467.466 19.8662 466.544L19.8662 449.765C19.8662 448.843 20.6081 448.102 21.532 448.102L68.8586 448.102C72.624 448.116 75.6756 451.164 75.6756 454.925Z" fill="white" stroke="#5A5A5A" stroke-width="0.5"/>
<path d="M25.4788 457.693C25.4788 456.944 24.8459 456.336 24.0651 456.336C23.2843 456.336 22.6514 456.944 22.6514 457.693C22.6514 458.442 23.2843 459.049 24.0651 459.049C24.8459 459.049 25.4788 458.442 25.4788 457.693Z" fill="white" stroke="#5A5A5A" stroke-width="0.5"/>
<path d="M94.9996 378.024L94.9996 356.014L73.4121 356L73.4261 378.01L94.9996 378.024Z" fill="white" stroke="#5A5A5A" stroke-width="0.5"/>
<path d="M78.6689 367.005C78.6689 363.891 81.1437 361.377 84.2056 361.377C87.2676 361.377 89.7423 363.891 89.7423 367.019C89.7423 370.133 87.2676 372.675 84.2056 372.675C81.1437 372.661 78.6689 370.119 78.6689 367.005Z" stroke="#5A5A5A" stroke-width="0.5"/>
<path d="M84.206 371.125C83.0875 371.139 82.0808 370.678 81.3538 369.924C80.6268 369.17 80.1793 368.136 80.1654 367.019M84.192 362.885C83.0875 362.885 82.0808 363.346 81.3398 364.086C80.6128 364.84 80.1514 365.86 80.1514 367.005L84.192 362.885ZM84.206 371.125C85.3105 371.125 86.3172 370.664 87.0582 369.924C87.7853 369.17 88.2327 368.136 88.2327 367.005L84.206 371.125ZM84.192 362.885C85.3245 362.885 86.3312 363.346 87.0443 364.086L87.0582 364.1C87.7713 364.84 88.2327 365.86 88.2327 366.991L84.192 362.885Z" stroke="#5A5A5A" stroke-width="0.5"/>
<line y1="-0.5" x2="44.2945" y2="-0.5" transform="matrix(-0.880471 -0.4741 -0.4741 0.880471 149 473)" stroke="#5A5A5A"/>
<line y1="-0.5" x2="32.6497" y2="-0.5" transform="matrix(0.459423 -0.888218 -0.888218 -0.459423 101 420)" stroke="#5A5A5A"/>
<line y1="-0.5" x2="48.8774" y2="-0.5" transform="matrix(-0.859293 0.511484 0.511484 0.859293 329 289)" stroke="#5A5A5A"/>
<line y1="-0.5" x2="43.909" y2="-0.5" transform="matrix(0.501036 0.865426 0.865426 -0.501036 352 320)" stroke="#5A5A5A"/>
<line y1="-0.5" x2="33.541" y2="-0.5" transform="matrix(0.447214 0.894427 0.894427 -0.447214 101 301)" stroke="#5A5A5A"/>
<line y1="-0.5" x2="45.6508" y2="-0.5" transform="matrix(0.876216 0.481919 0.481919 -0.876216 104 290)" stroke="#5A5A5A"/>
<line x1="222.283" y1="289.588" x2="257.283" y2="313.588" stroke="#5A5A5A"/>
<path d="M49.49 401.78C49.49 401.332 49.588 400.865 49.784 400.38C49.9893 399.885 50.1853 399.498 50.372 399.218C50.568 398.929 50.834 398.569 51.17 398.14L53.41 395.2H55.3L53.186 397.958L52.57 398.49V398.56L52.85 398.462C53.13 398.387 53.4333 398.35 53.76 398.35C54.6747 398.35 55.4493 398.681 56.084 399.344C56.728 399.997 57.05 400.809 57.05 401.78C57.05 402.769 56.6953 403.6 55.986 404.272C55.2767 404.944 54.3713 405.28 53.27 405.28C52.1687 405.28 51.2633 404.944 50.554 404.272C49.8447 403.6 49.49 402.769 49.49 401.78ZM51.744 400.324C51.3613 400.697 51.17 401.183 51.17 401.78C51.17 402.377 51.3613 402.867 51.744 403.25C52.1267 403.623 52.6353 403.81 53.27 403.81C53.9047 403.81 54.4133 403.623 54.796 403.25C55.1787 402.867 55.37 402.377 55.37 401.78C55.37 401.183 55.1787 400.697 54.796 400.324C54.4133 399.941 53.9047 399.75 53.27 399.75C52.6353 399.75 52.1267 399.941 51.744 400.324ZM58.1733 404.23C58.1733 403.95 58.2619 403.717 58.4393 403.53C58.6259 403.343 58.8546 403.25 59.1253 403.25C59.4333 403.25 59.6759 403.362 59.8533 403.586C60.0399 403.81 60.1333 404.141 60.1333 404.58C60.1333 405.299 59.9606 405.849 59.6153 406.232C59.2793 406.624 58.8219 406.82 58.2433 406.82V406.12C58.5233 406.12 58.7426 406.041 58.9013 405.882C59.0693 405.733 59.1533 405.532 59.1533 405.28V405.196C59.1439 405.187 59.1393 405.168 59.1393 405.14V405.098L59.0553 405.126C59.0273 405.135 58.9666 405.14 58.8733 405.14C58.6866 405.14 58.5233 405.056 58.3833 404.888C58.2433 404.72 58.1733 404.501 58.1733 404.23ZM62.6495 403.824C61.7628 402.853 61.3195 401.612 61.3195 400.1C61.3195 398.588 61.7628 397.347 62.6495 396.376C63.5361 395.405 64.6095 394.92 65.8695 394.92C67.1295 394.92 68.2028 395.405 69.0895 396.376C69.9761 397.347 70.4195 398.588 70.4195 400.1C70.4195 401.612 69.9761 402.853 69.0895 403.824C68.2028 404.795 67.1295 405.28 65.8695 405.28C64.6095 405.28 63.5361 404.795 62.6495 403.824ZM63.7975 397.412C63.2655 398.047 62.9995 398.943 62.9995 400.1C62.9995 401.257 63.2655 402.153 63.7975 402.788C64.3388 403.423 65.0295 403.74 65.8695 403.74C66.7095 403.74 67.3955 403.423 67.9275 402.788C68.4688 402.153 68.7395 401.257 68.7395 400.1C68.7395 398.943 68.4688 398.047 67.9275 397.412C67.3955 396.777 66.7095 396.46 65.8695 396.46C65.0295 396.46 64.3388 396.777 63.7975 397.412ZM71.2627 403.04V401.5L74.5527 395.2H76.3027L73.0127 401.5H76.2327V399.12H76.3027H77.8427V401.5H79.2427V403.04H77.8427V405H76.2327V403.04H71.2627Z" fill="#333333"/>
<path d="M71.35 575.42V573.6L73.17 572.2H74.64V582H73.03V574.16L71.35 575.42ZM76.1811 579.27H77.8611C77.9358 579.559 78.0618 579.807 78.2391 580.012C78.6498 580.497 79.2471 580.74 80.0311 580.74C80.6564 580.74 81.1511 580.572 81.5151 580.236C81.8791 579.9 82.0611 579.461 82.0611 578.92C82.0611 578.351 81.8791 577.893 81.5151 577.548C81.1511 577.203 80.6564 577.03 80.0311 577.03C79.4524 577.03 78.9624 577.184 78.5611 577.492C78.4024 577.613 78.2624 577.763 78.1411 577.94H76.6011L77.0211 572.2H82.9711V573.74H78.3511L78.1411 576.26H78.2111C78.3604 576.111 78.5331 575.985 78.7291 575.882C79.1678 575.621 79.6951 575.49 80.3111 575.49C81.2911 575.49 82.1078 575.817 82.7611 576.47C83.4144 577.123 83.7411 577.94 83.7411 578.92C83.7411 579.881 83.3958 580.684 82.7051 581.328C82.0238 581.963 81.1324 582.28 80.0311 582.28C78.5938 582.28 77.5251 581.781 76.8251 580.782C76.5264 580.343 76.3118 579.839 76.1811 579.27ZM84.7944 581.23C84.7944 580.95 84.883 580.717 85.0604 580.53C85.247 580.343 85.4757 580.25 85.7464 580.25C86.0544 580.25 86.297 580.362 86.4744 580.586C86.661 580.81 86.7544 581.141 86.7544 581.58C86.7544 582.299 86.5817 582.849 86.2364 583.232C85.9004 583.624 85.443 583.82 84.8644 583.82V583.12C85.1444 583.12 85.3637 583.041 85.5224 582.882C85.6904 582.733 85.7744 582.532 85.7744 582.28V582.196C85.765 582.187 85.7604 582.168 85.7604 582.14V582.098L85.6764 582.126C85.6484 582.135 85.5877 582.14 85.4944 582.14C85.3077 582.14 85.1444 582.056 85.0044 581.888C84.8644 581.72 84.7944 581.501 84.7944 581.23ZM87.5205 580.04V578.5L90.8105 572.2H92.5605L89.2705 578.5H92.4905V576.12H92.5605H94.1005V578.5H95.5005V580.04H94.1005V582H92.4905V580.04H87.5205ZM95.2162 573.74V572.2H101.866V573.74L97.9462 582H96.1962L100.046 573.88V573.74H95.2162Z" fill="#333333"/>
<path d="M56.42 322V320.46L59.766 318.094C60.494 317.571 61.0167 317.086 61.334 316.638C61.6513 316.19 61.81 315.714 61.81 315.21C61.81 314.678 61.6467 314.253 61.32 313.936C60.9933 313.619 60.55 313.46 59.99 313.46C59.2993 313.46 58.7813 313.74 58.436 314.3C58.2867 314.543 58.1747 314.823 58.1 315.14H56.42C56.504 314.543 56.686 314.006 56.966 313.53C57.6287 312.457 58.6367 311.92 59.99 311.92C61.026 311.92 61.866 312.228 62.51 312.844C63.1633 313.451 63.49 314.216 63.49 315.14C63.49 315.943 63.2847 316.666 62.874 317.31C62.4633 317.945 61.8053 318.575 60.9 319.2L59.5 320.18L58.87 320.46V320.53L59.71 320.46H63.49V322H56.42ZM64.6127 321.23C64.6127 320.95 64.7014 320.717 64.8787 320.53C65.0654 320.343 65.2941 320.25 65.5647 320.25C65.8727 320.25 66.1154 320.362 66.2927 320.586C66.4794 320.81 66.5727 321.141 66.5727 321.58C66.5727 322.299 66.4001 322.849 66.0547 323.232C65.7187 323.624 65.2614 323.82 64.6827 323.82V323.12C64.9627 323.12 65.1821 323.041 65.3407 322.882C65.5087 322.733 65.5927 322.532 65.5927 322.28V322.196C65.5834 322.187 65.5787 322.168 65.5787 322.14V322.098L65.4947 322.126C65.4667 322.135 65.4061 322.14 65.3127 322.14C65.1261 322.14 64.9627 322.056 64.8227 321.888C64.6827 321.72 64.6127 321.501 64.6127 321.23ZM67.6889 315.42C67.6889 314.431 68.0436 313.6 68.7529 312.928C69.4622 312.256 70.3676 311.92 71.4689 311.92C72.5702 311.92 73.4756 312.256 74.1849 312.928C74.8942 313.6 75.2489 314.431 75.2489 315.42C75.2489 316.307 74.8802 317.263 74.1429 318.29C74.0682 318.393 73.9656 318.533 73.8349 318.71C73.7042 318.878 73.6156 318.995 73.5689 319.06L71.3289 322H69.4389L71.5529 319.242L72.1689 318.71V318.64C72.1502 318.649 72.0569 318.687 71.8889 318.752C71.6462 318.817 71.3429 318.85 70.9789 318.85C70.0642 318.85 69.2849 318.523 68.6409 317.87C68.0062 317.207 67.6889 316.391 67.6889 315.42ZM69.9429 313.964C69.5602 314.337 69.3689 314.823 69.3689 315.42C69.3689 316.017 69.5602 316.507 69.9429 316.89C70.3256 317.263 70.8342 317.45 71.4689 317.45C72.1036 317.45 72.6122 317.263 72.9949 316.89C73.3776 316.507 73.5689 316.017 73.5689 315.42C73.5689 314.823 73.3776 314.337 72.9949 313.964C72.6122 313.581 72.1036 313.39 71.4689 313.39C70.8342 313.39 70.3256 313.581 69.9429 313.964ZM76.3022 319.34C76.3022 318.491 76.6289 317.814 77.2822 317.31C77.5622 317.114 77.8889 316.965 78.2622 316.862V316.778C77.9729 316.666 77.7162 316.512 77.4922 316.316C76.9789 315.877 76.7222 315.299 76.7222 314.58C76.7222 313.843 77.0349 313.217 77.6602 312.704C78.2949 312.181 79.1489 311.92 80.2222 311.92C81.2955 311.92 82.1449 312.181 82.7702 312.704C83.4049 313.217 83.7222 313.843 83.7222 314.58C83.7222 315.28 83.4655 315.859 82.9522 316.316C82.7095 316.512 82.4529 316.666 82.1822 316.778V316.862C82.5369 316.955 82.8635 317.109 83.1622 317.324C83.8155 317.828 84.1422 318.5 84.1422 319.34C84.1422 320.152 83.7875 320.847 83.0782 321.426C82.3782 321.995 81.4262 322.28 80.2222 322.28C79.0182 322.28 78.0615 321.995 77.3522 321.426C76.6522 320.847 76.3022 320.152 76.3022 319.34ZM78.4022 314.72C78.4022 315.131 78.5609 315.467 78.8782 315.728C79.1955 315.989 79.6435 316.12 80.2222 316.12C80.8009 316.12 81.2489 315.989 81.5662 315.728C81.8835 315.467 82.0422 315.131 82.0422 314.72C82.0422 314.347 81.8789 314.034 81.5522 313.782C81.2349 313.521 80.7915 313.39 80.2222 313.39C79.6529 313.39 79.2049 313.521 78.8782 313.782C78.5609 314.034 78.4022 314.347 78.4022 314.72ZM78.5702 318.066C78.1782 318.374 77.9822 318.752 77.9822 319.2C77.9822 319.648 78.1782 320.031 78.5702 320.348C78.9715 320.656 79.5222 320.81 80.2222 320.81C80.9222 320.81 81.4682 320.656 81.8602 320.348C82.2615 320.031 82.4622 319.648 82.4622 319.2C82.4622 318.752 82.2615 318.374 81.8602 318.066C81.4682 317.749 80.9222 317.59 80.2222 317.59C79.5222 317.59 78.9715 317.749 78.5702 318.066Z" fill="#333333"/>
</svg>
