<svg width="360" height="701" viewBox="0 0 360 701" fill="none" xmlns="http://www.w3.org/2000/svg">
<rect width="30" height="48" transform="matrix(-4.37114e-08 -1 -1 4.37114e-08 48 639)" fill="#5A5A5A"/>
<path d="M276 609L280 431L15 431L15 609L276 609Z" fill="#FFF8BA"/>
<path d="M344 274V31H16L16 274H344Z" fill="#FFF8BA"/>
<path d="M276 440L274 60H16L16 440L276 440Z" fill="#FFF8BA"/>
<path d="M191 451L191 141H6L6.00001 451L191 451Z" fill="#FFF8BA"/>
<path d="M115.42 515.2H117.1C117.165 515.489 117.291 515.746 117.478 515.97C117.898 516.483 118.495 516.74 119.27 516.74C119.914 516.74 120.423 516.581 120.796 516.264C121.179 515.937 121.37 515.536 121.37 515.06C121.37 514.519 121.197 514.094 120.852 513.786C120.516 513.469 120.035 513.31 119.41 513.31H117.03V511.91L119.97 509.81V509.74H115.91V508.2H122.35V509.726L119.83 511.56L119.13 511.84V511.91L119.354 511.882C119.662 511.854 119.844 511.84 119.9 511.84C120.777 511.84 121.51 512.143 122.098 512.75C122.686 513.357 122.98 514.127 122.98 515.06C122.98 515.956 122.635 516.717 121.944 517.342C121.253 517.967 120.362 518.28 119.27 518.28C117.823 518.28 116.755 517.767 116.064 516.74C115.765 516.301 115.551 515.788 115.42 515.2ZM123.687 516.04V514.5L126.977 508.2H128.727L125.437 514.5H128.657V512.12H128.727H130.267V514.5H131.667V516.04H130.267V518H128.657V516.04H123.687ZM132.226 517.23C132.226 516.95 132.315 516.717 132.492 516.53C132.679 516.343 132.907 516.25 133.178 516.25C133.486 516.25 133.729 516.362 133.906 516.586C134.093 516.81 134.186 517.141 134.186 517.58C134.186 518.299 134.013 518.849 133.668 519.232C133.332 519.624 132.875 519.82 132.296 519.82V519.12C132.576 519.12 132.795 519.041 132.954 518.882C133.122 518.733 133.206 518.532 133.206 518.28V518.196C133.197 518.187 133.192 518.168 133.192 518.14V518.098L133.108 518.126C133.08 518.135 133.019 518.14 132.926 518.14C132.739 518.14 132.576 518.056 132.436 517.888C132.296 517.72 132.226 517.501 132.226 517.23ZM135.302 515.27H136.982C137.057 515.559 137.183 515.807 137.36 516.012C137.771 516.497 138.368 516.74 139.152 516.74C139.778 516.74 140.272 516.572 140.636 516.236C141 515.9 141.182 515.461 141.182 514.92C141.182 514.351 141 513.893 140.636 513.548C140.272 513.203 139.778 513.03 139.152 513.03C138.574 513.03 138.084 513.184 137.682 513.492C137.524 513.613 137.384 513.763 137.262 513.94H135.722L136.142 508.2H142.092V509.74H137.472L137.262 512.26H137.332C137.482 512.111 137.654 511.985 137.85 511.882C138.289 511.621 138.816 511.49 139.432 511.49C140.412 511.49 141.229 511.817 141.882 512.47C142.536 513.123 142.862 513.94 142.862 514.92C142.862 515.881 142.517 516.684 141.826 517.328C141.145 517.963 140.254 518.28 139.152 518.28C137.715 518.28 136.646 517.781 135.946 516.782C135.648 516.343 135.433 515.839 135.302 515.27ZM143.565 516.04V514.5L146.855 508.2H148.605L145.315 514.5H148.535V512.12H148.605H150.145V514.5H151.545V516.04H150.145V518H148.535V516.04H143.565Z" fill="#333333"/>
<path d="M217.42 664.2H219.1C219.165 664.489 219.291 664.746 219.478 664.97C219.898 665.483 220.495 665.74 221.27 665.74C221.914 665.74 222.423 665.581 222.796 665.264C223.179 664.937 223.37 664.536 223.37 664.06C223.37 663.519 223.197 663.094 222.852 662.786C222.516 662.469 222.035 662.31 221.41 662.31H219.03V660.91L221.97 658.81V658.74H217.91V657.2H224.35V658.726L221.83 660.56L221.13 660.84V660.91L221.354 660.882C221.662 660.854 221.844 660.84 221.9 660.84C222.777 660.84 223.51 661.143 224.098 661.75C224.686 662.357 224.98 663.127 224.98 664.06C224.98 664.956 224.635 665.717 223.944 666.342C223.253 666.967 222.362 667.28 221.27 667.28C219.823 667.28 218.755 666.767 218.064 665.74C217.765 665.301 217.551 664.788 217.42 664.2ZM226.037 666.23C226.037 665.95 226.125 665.717 226.303 665.53C226.489 665.343 226.718 665.25 226.989 665.25C227.297 665.25 227.539 665.362 227.717 665.586C227.903 665.81 227.997 666.141 227.997 666.58C227.997 667.299 227.824 667.849 227.479 668.232C227.143 668.624 226.685 668.82 226.107 668.82V668.12C226.387 668.12 226.606 668.041 226.765 667.882C226.933 667.733 227.017 667.532 227.017 667.28V667.196C227.007 667.187 227.003 667.168 227.003 667.14V667.098L226.919 667.126C226.891 667.135 226.83 667.14 226.737 667.14C226.55 667.14 226.387 667.056 226.247 666.888C226.107 666.72 226.037 666.501 226.037 666.23ZM229.043 663.78C229.043 663.332 229.141 662.865 229.337 662.38C229.542 661.885 229.738 661.498 229.925 661.218C230.121 660.929 230.387 660.569 230.723 660.14L232.963 657.2H234.853L232.739 659.958L232.123 660.49V660.56L232.403 660.462C232.683 660.387 232.986 660.35 233.313 660.35C234.227 660.35 235.002 660.681 235.637 661.344C236.281 661.997 236.603 662.809 236.603 663.78C236.603 664.769 236.248 665.6 235.539 666.272C234.829 666.944 233.924 667.28 232.823 667.28C231.721 667.28 230.816 666.944 230.107 666.272C229.397 665.6 229.043 664.769 229.043 663.78ZM231.297 662.324C230.914 662.697 230.723 663.183 230.723 663.78C230.723 664.377 230.914 664.867 231.297 665.25C231.679 665.623 232.188 665.81 232.823 665.81C233.457 665.81 233.966 665.623 234.349 665.25C234.731 664.867 234.923 664.377 234.923 663.78C234.923 663.183 234.731 662.697 234.349 662.324C233.966 661.941 233.457 661.75 232.823 661.75C232.188 661.75 231.679 661.941 231.297 662.324ZM237.656 663.78C237.656 663.332 237.754 662.865 237.95 662.38C238.155 661.885 238.351 661.498 238.538 661.218C238.734 660.929 239 660.569 239.336 660.14L241.576 657.2H243.466L241.352 659.958L240.736 660.49V660.56L241.016 660.462C241.296 660.387 241.599 660.35 241.926 660.35C242.841 660.35 243.615 660.681 244.25 661.344C244.894 661.997 245.216 662.809 245.216 663.78C245.216 664.769 244.861 665.6 244.152 666.272C243.443 666.944 242.537 667.28 241.436 667.28C240.335 667.28 239.429 666.944 238.72 666.272C238.011 665.6 237.656 664.769 237.656 663.78ZM239.91 662.324C239.527 662.697 239.336 663.183 239.336 663.78C239.336 664.377 239.527 664.867 239.91 665.25C240.293 665.623 240.801 665.81 241.436 665.81C242.071 665.81 242.579 665.623 242.962 665.25C243.345 664.867 243.536 664.377 243.536 663.78C243.536 663.183 243.345 662.697 242.962 662.324C242.579 661.941 242.071 661.75 241.436 661.75C240.801 661.75 240.293 661.941 239.91 662.324Z" fill="#333333"/>
<path d="M100 388L16 388L16 281L100 281L100 388Z" fill="#FFC79F"/>
<path d="M39.49 336.78C39.49 336.332 39.588 335.865 39.784 335.38C39.9893 334.885 40.1853 334.498 40.372 334.218C40.568 333.929 40.834 333.569 41.17 333.14L43.41 330.2H45.3L43.186 332.958L42.57 333.49V333.56L42.85 333.462C43.13 333.387 43.4333 333.35 43.76 333.35C44.6747 333.35 45.4493 333.681 46.084 334.344C46.728 334.997 47.05 335.809 47.05 336.78C47.05 337.769 46.6953 338.6 45.986 339.272C45.2767 339.944 44.3713 340.28 43.27 340.28C42.1687 340.28 41.2633 339.944 40.554 339.272C39.8447 338.6 39.49 337.769 39.49 336.78ZM41.744 335.324C41.3613 335.697 41.17 336.183 41.17 336.78C41.17 337.377 41.3613 337.867 41.744 338.25C42.1267 338.623 42.6353 338.81 43.27 338.81C43.9047 338.81 44.4133 338.623 44.796 338.25C45.1787 337.867 45.37 337.377 45.37 336.78C45.37 336.183 45.1787 335.697 44.796 335.324C44.4133 334.941 43.9047 334.75 43.27 334.75C42.6353 334.75 42.1267 334.941 41.744 335.324ZM48.1733 339.23C48.1733 338.95 48.2619 338.717 48.4393 338.53C48.6259 338.343 48.8546 338.25 49.1253 338.25C49.4333 338.25 49.6759 338.362 49.8533 338.586C50.0399 338.81 50.1333 339.141 50.1333 339.58C50.1333 340.299 49.9606 340.849 49.6153 341.232C49.2793 341.624 48.8219 341.82 48.2433 341.82V341.12C48.5233 341.12 48.7426 341.041 48.9013 340.882C49.0693 340.733 49.1533 340.532 49.1533 340.28V340.196C49.1439 340.187 49.1393 340.168 49.1393 340.14V340.098L49.0553 340.126C49.0273 340.135 48.9666 340.14 48.8733 340.14C48.6866 340.14 48.5233 340.056 48.3833 339.888C48.2433 339.72 48.1733 339.501 48.1733 339.23ZM52.6495 338.824C51.7628 337.853 51.3195 336.612 51.3195 335.1C51.3195 333.588 51.7628 332.347 52.6495 331.376C53.5361 330.405 54.6095 329.92 55.8695 329.92C57.1295 329.92 58.2028 330.405 59.0895 331.376C59.9761 332.347 60.4195 333.588 60.4195 335.1C60.4195 336.612 59.9761 337.853 59.0895 338.824C58.2028 339.795 57.1295 340.28 55.8695 340.28C54.6095 340.28 53.5361 339.795 52.6495 338.824ZM53.7975 332.412C53.2655 333.047 52.9995 333.943 52.9995 335.1C52.9995 336.257 53.2655 337.153 53.7975 337.788C54.3388 338.423 55.0295 338.74 55.8695 338.74C56.7095 338.74 57.3955 338.423 57.9275 337.788C58.4688 337.153 58.7395 336.257 58.7395 335.1C58.7395 333.943 58.4688 333.047 57.9275 332.412C57.3955 331.777 56.7095 331.46 55.8695 331.46C55.0295 331.46 54.3388 331.777 53.7975 332.412ZM61.2627 338.04V336.5L64.5527 330.2H66.3027L63.0127 336.5H66.2327V334.12H66.3027H67.8427V336.5H69.2427V338.04H67.8427V340H66.2327V338.04H61.2627Z" fill="#333333"/>
<path d="M100 274L16 274L16 211L100 211L100 274Z" fill="#FFC79F"/>
<path d="M346 267L262 267L262 185L346 185L346 267Z" fill="#FFC79F"/>
<path d="M55.42 245V243.46L58.766 241.094C59.494 240.571 60.0167 240.086 60.334 239.638C60.6513 239.19 60.81 238.714 60.81 238.21C60.81 237.678 60.6467 237.253 60.32 236.936C59.9933 236.619 59.55 236.46 58.99 236.46C58.2993 236.46 57.7813 236.74 57.436 237.3C57.2867 237.543 57.1747 237.823 57.1 238.14H55.42C55.504 237.543 55.686 237.006 55.966 236.53C56.6287 235.457 57.6367 234.92 58.99 234.92C60.026 234.92 60.866 235.228 61.51 235.844C62.1633 236.451 62.49 237.216 62.49 238.14C62.49 238.943 62.2847 239.666 61.874 240.31C61.4633 240.945 60.8053 241.575 59.9 242.2L58.5 243.18L57.87 243.46V243.53L58.71 243.46H62.49V245H55.42ZM63.6127 244.23C63.6127 243.95 63.7014 243.717 63.8787 243.53C64.0654 243.343 64.2941 243.25 64.5647 243.25C64.8727 243.25 65.1154 243.362 65.2927 243.586C65.4794 243.81 65.5727 244.141 65.5727 244.58C65.5727 245.299 65.4001 245.849 65.0547 246.232C64.7187 246.624 64.2614 246.82 63.6827 246.82V246.12C63.9627 246.12 64.1821 246.041 64.3407 245.882C64.5087 245.733 64.5927 245.532 64.5927 245.28V245.196C64.5834 245.187 64.5787 245.168 64.5787 245.14V245.098L64.4947 245.126C64.4667 245.135 64.4061 245.14 64.3127 245.14C64.1261 245.14 63.9627 245.056 63.8227 244.888C63.6827 244.72 63.6127 244.501 63.6127 244.23ZM66.6889 238.42C66.6889 237.431 67.0436 236.6 67.7529 235.928C68.4622 235.256 69.3676 234.92 70.4689 234.92C71.5702 234.92 72.4756 235.256 73.1849 235.928C73.8942 236.6 74.2489 237.431 74.2489 238.42C74.2489 239.307 73.8802 240.263 73.1429 241.29C73.0682 241.393 72.9656 241.533 72.8349 241.71C72.7042 241.878 72.6156 241.995 72.5689 242.06L70.3289 245H68.4389L70.5529 242.242L71.1689 241.71V241.64C71.1502 241.649 71.0569 241.687 70.8889 241.752C70.6462 241.817 70.3429 241.85 69.9789 241.85C69.0642 241.85 68.2849 241.523 67.6409 240.87C67.0062 240.207 66.6889 239.391 66.6889 238.42ZM68.9429 236.964C68.5602 237.337 68.3689 237.823 68.3689 238.42C68.3689 239.017 68.5602 239.507 68.9429 239.89C69.3256 240.263 69.8342 240.45 70.4689 240.45C71.1036 240.45 71.6122 240.263 71.9949 239.89C72.3776 239.507 72.5689 239.017 72.5689 238.42C72.5689 237.823 72.3776 237.337 71.9949 236.964C71.6122 236.581 71.1036 236.39 70.4689 236.39C69.8342 236.39 69.3256 236.581 68.9429 236.964ZM74.8822 236.74V235.2H81.5322V236.74L77.6122 245H75.8622L79.7122 236.88V236.74H74.8822Z" fill="#333333"/>
<path d="M143.42 159V157.46L146.766 155.094C147.494 154.571 148.017 154.086 148.334 153.638C148.651 153.19 148.81 152.714 148.81 152.21C148.81 151.678 148.647 151.253 148.32 150.936C147.993 150.619 147.55 150.46 146.99 150.46C146.299 150.46 145.781 150.74 145.436 151.3C145.287 151.543 145.175 151.823 145.1 152.14H143.42C143.504 151.543 143.686 151.006 143.966 150.53C144.629 149.457 145.637 148.92 146.99 148.92C148.026 148.92 148.866 149.228 149.51 149.844C150.163 150.451 150.49 151.216 150.49 152.14C150.49 152.943 150.285 153.666 149.874 154.31C149.463 154.945 148.805 155.575 147.9 156.2L146.5 157.18L145.87 157.46V157.53L146.71 157.46H150.49V159H143.42ZM151.193 150.74V149.2H157.843V150.74L153.923 159H152.173L156.023 150.88V150.74H151.193ZM157.287 158.23C157.287 157.95 157.375 157.717 157.553 157.53C157.739 157.343 157.968 157.25 158.239 157.25C158.547 157.25 158.789 157.362 158.967 157.586C159.153 157.81 159.247 158.141 159.247 158.58C159.247 159.299 159.074 159.849 158.729 160.232C158.393 160.624 157.935 160.82 157.357 160.82V160.12C157.637 160.12 157.856 160.041 158.015 159.882C158.183 159.733 158.267 159.532 158.267 159.28V159.196C158.257 159.187 158.253 159.168 158.253 159.14V159.098L158.169 159.126C158.141 159.135 158.08 159.14 157.987 159.14C157.8 159.14 157.637 159.056 157.497 158.888C157.357 158.72 157.287 158.501 157.287 158.23ZM160.363 152.42C160.363 151.431 160.717 150.6 161.427 149.928C162.136 149.256 163.041 148.92 164.143 148.92C165.244 148.92 166.149 149.256 166.859 149.928C167.568 150.6 167.923 151.431 167.923 152.42C167.923 153.307 167.554 154.263 166.817 155.29C166.742 155.393 166.639 155.533 166.509 155.71C166.378 155.878 166.289 155.995 166.243 156.06L164.003 159H162.113L164.227 156.242L164.843 155.71V155.64C164.824 155.649 164.731 155.687 164.563 155.752C164.32 155.817 164.017 155.85 163.653 155.85C162.738 155.85 161.959 155.523 161.315 154.87C160.68 154.207 160.363 153.391 160.363 152.42ZM162.617 150.964C162.234 151.337 162.043 151.823 162.043 152.42C162.043 153.017 162.234 153.507 162.617 153.89C162.999 154.263 163.508 154.45 164.143 154.45C164.777 154.45 165.286 154.263 165.669 153.89C166.051 153.507 166.243 153.017 166.243 152.42C166.243 151.823 166.051 151.337 165.669 150.964C165.286 150.581 164.777 150.39 164.143 150.39C163.508 150.39 162.999 150.581 162.617 150.964ZM168.976 156.27H170.656C170.731 156.559 170.857 156.807 171.034 157.012C171.445 157.497 172.042 157.74 172.826 157.74C173.451 157.74 173.946 157.572 174.31 157.236C174.674 156.9 174.856 156.461 174.856 155.92C174.856 155.351 174.674 154.893 174.31 154.548C173.946 154.203 173.451 154.03 172.826 154.03C172.247 154.03 171.757 154.184 171.356 154.492C171.197 154.613 171.057 154.763 170.936 154.94H169.396L169.816 149.2H175.766V150.74H171.146L170.936 153.26H171.006C171.155 153.111 171.328 152.985 171.524 152.882C171.963 152.621 172.49 152.49 173.106 152.49C174.086 152.49 174.903 152.817 175.556 153.47C176.209 154.123 176.536 154.94 176.536 155.92C176.536 156.881 176.191 157.684 175.5 158.328C174.819 158.963 173.927 159.28 172.826 159.28C171.389 159.28 170.32 158.781 169.62 157.782C169.321 157.343 169.107 156.839 168.976 156.27Z" fill="#333333"/>
<path d="M210.35 367.42V365.6L212.17 364.2H213.64V374H212.03V366.16L210.35 367.42ZM214.761 365.74V364.2H221.411V365.74L217.491 374H215.741L219.591 365.88V365.74H214.761ZM220.855 373.23C220.855 372.95 220.944 372.717 221.121 372.53C221.308 372.343 221.536 372.25 221.807 372.25C222.115 372.25 222.358 372.362 222.535 372.586C222.722 372.81 222.815 373.141 222.815 373.58C222.815 374.299 222.642 374.849 222.297 375.232C221.961 375.624 221.504 375.82 220.925 375.82V375.12C221.205 375.12 221.424 375.041 221.583 374.882C221.751 374.733 221.835 374.532 221.835 374.28V374.196C221.826 374.187 221.821 374.168 221.821 374.14V374.098L221.737 374.126C221.709 374.135 221.648 374.14 221.555 374.14C221.368 374.14 221.205 374.056 221.065 373.888C220.925 373.72 220.855 373.501 220.855 373.23ZM223.931 371.34C223.931 370.491 224.258 369.814 224.911 369.31C225.191 369.114 225.518 368.965 225.891 368.862V368.778C225.602 368.666 225.345 368.512 225.121 368.316C224.608 367.877 224.351 367.299 224.351 366.58C224.351 365.843 224.664 365.217 225.289 364.704C225.924 364.181 226.778 363.92 227.851 363.92C228.924 363.92 229.774 364.181 230.399 364.704C231.034 365.217 231.351 365.843 231.351 366.58C231.351 367.28 231.094 367.859 230.581 368.316C230.338 368.512 230.082 368.666 229.811 368.778V368.862C230.166 368.955 230.492 369.109 230.791 369.324C231.444 369.828 231.771 370.5 231.771 371.34C231.771 372.152 231.416 372.847 230.707 373.426C230.007 373.995 229.055 374.28 227.851 374.28C226.647 374.28 225.69 373.995 224.981 373.426C224.281 372.847 223.931 372.152 223.931 371.34ZM226.031 366.72C226.031 367.131 226.19 367.467 226.507 367.728C226.824 367.989 227.272 368.12 227.851 368.12C228.43 368.12 228.878 367.989 229.195 367.728C229.512 367.467 229.671 367.131 229.671 366.72C229.671 366.347 229.508 366.034 229.181 365.782C228.864 365.521 228.42 365.39 227.851 365.39C227.282 365.39 226.834 365.521 226.507 365.782C226.19 366.034 226.031 366.347 226.031 366.72ZM226.199 370.066C225.807 370.374 225.611 370.752 225.611 371.2C225.611 371.648 225.807 372.031 226.199 372.348C226.6 372.656 227.151 372.81 227.851 372.81C228.551 372.81 229.097 372.656 229.489 372.348C229.89 372.031 230.091 371.648 230.091 371.2C230.091 370.752 229.89 370.374 229.489 370.066C229.097 369.749 228.551 369.59 227.851 369.59C227.151 369.59 226.6 369.749 226.199 370.066ZM232.746 371.2H234.426C234.492 371.489 234.618 371.746 234.804 371.97C235.224 372.483 235.822 372.74 236.596 372.74C237.24 372.74 237.749 372.581 238.122 372.264C238.505 371.937 238.696 371.536 238.696 371.06C238.696 370.519 238.524 370.094 238.178 369.786C237.842 369.469 237.362 369.31 236.736 369.31H234.356V367.91L237.296 365.81V365.74H233.236V364.2H239.676V365.726L237.156 367.56L236.456 367.84V367.91L236.68 367.882C236.988 367.854 237.17 367.84 237.226 367.84C238.104 367.84 238.836 368.143 239.424 368.75C240.012 369.357 240.306 370.127 240.306 371.06C240.306 371.956 239.961 372.717 239.27 373.342C238.58 373.967 237.688 374.28 236.596 374.28C235.15 374.28 234.081 373.767 233.39 372.74C233.092 372.301 232.877 371.788 232.746 371.2Z" fill="#333333"/>
<path d="M278.14 133.74V132.2H284.79V133.74L280.87 142H279.12L282.97 133.88V133.74H278.14ZM284.234 141.23C284.234 140.95 284.322 140.717 284.5 140.53C284.686 140.343 284.915 140.25 285.186 140.25C285.494 140.25 285.736 140.362 285.914 140.586C286.1 140.81 286.194 141.141 286.194 141.58C286.194 142.299 286.021 142.849 285.676 143.232C285.34 143.624 284.882 143.82 284.304 143.82V143.12C284.584 143.12 284.803 143.041 284.962 142.882C285.13 142.733 285.214 142.532 285.214 142.28V142.196C285.204 142.187 285.2 142.168 285.2 142.14V142.098L285.116 142.126C285.088 142.135 285.027 142.14 284.934 142.14C284.747 142.14 284.584 142.056 284.444 141.888C284.304 141.72 284.234 141.501 284.234 141.23ZM287.1 135.42V133.6L288.92 132.2H290.39V142H288.78V134.16L287.1 135.42ZM291.861 138.78C291.861 138.332 291.959 137.865 292.155 137.38C292.36 136.885 292.556 136.498 292.743 136.218C292.939 135.929 293.205 135.569 293.541 135.14L295.781 132.2H297.671L295.557 134.958L294.941 135.49V135.56L295.221 135.462C295.501 135.387 295.804 135.35 296.131 135.35C297.046 135.35 297.82 135.681 298.455 136.344C299.099 136.997 299.421 137.809 299.421 138.78C299.421 139.769 299.066 140.6 298.357 141.272C297.648 141.944 296.742 142.28 295.641 142.28C294.54 142.28 293.634 141.944 292.925 141.272C292.216 140.6 291.861 139.769 291.861 138.78ZM294.115 137.324C293.732 137.697 293.541 138.183 293.541 138.78C293.541 139.377 293.732 139.867 294.115 140.25C294.498 140.623 295.006 140.81 295.641 140.81C296.276 140.81 296.784 140.623 297.167 140.25C297.55 139.867 297.741 139.377 297.741 138.78C297.741 138.183 297.55 137.697 297.167 137.324C296.784 136.941 296.276 136.75 295.641 136.75C295.006 136.75 294.498 136.941 294.115 137.324Z" fill="#333333"/>
<path d="M276.21 235.04V233.5L279.5 227.2H281.25L277.96 233.5H281.18V231.12H281.25H282.79V233.5H284.19V235.04H282.79V237H281.18V235.04H276.21ZM284.749 236.23C284.749 235.95 284.838 235.717 285.015 235.53C285.202 235.343 285.431 235.25 285.701 235.25C286.009 235.25 286.252 235.362 286.429 235.586C286.616 235.81 286.709 236.141 286.709 236.58C286.709 237.299 286.537 237.849 286.191 238.232C285.855 238.624 285.398 238.82 284.819 238.82V238.12C285.099 238.12 285.319 238.041 285.477 237.882C285.645 237.733 285.729 237.532 285.729 237.28V237.196C285.72 237.187 285.715 237.168 285.715 237.14V237.098L285.631 237.126C285.603 237.135 285.543 237.14 285.449 237.14C285.263 237.14 285.099 237.056 284.959 236.888C284.819 236.72 284.749 236.501 284.749 236.23ZM287.616 230.42V228.6L289.436 227.2H290.906V237H289.296V229.16L287.616 230.42ZM292.377 233.78C292.377 233.332 292.475 232.865 292.671 232.38C292.876 231.885 293.072 231.498 293.259 231.218C293.455 230.929 293.721 230.569 294.057 230.14L296.297 227.2H298.187L296.073 229.958L295.457 230.49V230.56L295.737 230.462C296.017 230.387 296.32 230.35 296.647 230.35C297.561 230.35 298.336 230.681 298.971 231.344C299.615 231.997 299.937 232.809 299.937 233.78C299.937 234.769 299.582 235.6 298.873 236.272C298.163 236.944 297.258 237.28 296.157 237.28C295.055 237.28 294.15 236.944 293.441 236.272C292.731 235.6 292.377 234.769 292.377 233.78ZM294.631 232.324C294.248 232.697 294.057 233.183 294.057 233.78C294.057 234.377 294.248 234.867 294.631 235.25C295.013 235.623 295.522 235.81 296.157 235.81C296.791 235.81 297.3 235.623 297.683 235.25C298.065 234.867 298.257 234.377 298.257 233.78C298.257 233.183 298.065 232.697 297.683 232.324C297.3 231.941 296.791 231.75 296.157 231.75C295.522 231.75 295.013 231.941 294.631 232.324Z" fill="#333333"/>
<rect width="30" height="53" transform="matrix(-4.37114e-08 -1 -1 4.37114e-08 53 30)" fill="#5A5A5A"/>
<rect width="16" height="592" transform="matrix(1 0 0 -1 0 614)" fill="#5A5A5A"/>
<rect width="16" height="96" transform="matrix(-4.37114e-08 -1 -1 4.37114e-08 112 404)" fill="#5A5A5A"/>
<path d="M35.4821 304.307L34.3016 304.323L31.2356 304.307L23.6443 304.307L23.6443 314.264L35.4821 314.264C38.4989 314.264 40.9583 312.021 40.9583 309.269C40.9583 306.551 38.4989 304.307 35.4821 304.307Z" fill="white" stroke="#5A5A5A" stroke-width="0.5"/>
<path d="M35.4165 305.453L34.4819 305.453L26.9235 305.453L26.9235 313.134L34.4819 313.134L35.4165 313.118C37.7939 313.118 39.7286 311.414 39.7286 309.285C39.7122 307.173 37.7775 305.453 35.4165 305.453Z" fill="white" stroke="#5A5A5A" stroke-width="0.5"/>
<path d="M17.2826 316.066L22.5457 316.066C23.1524 316.066 23.6442 315.574 23.6442 314.968L23.6442 303.685C23.6442 303.079 23.1524 302.587 22.5457 302.587L17.2826 302.587C16.676 302.587 16.1841 303.079 16.1841 303.685L16.1841 314.952C16.1841 315.574 16.676 316.066 17.2826 316.066Z" fill="white" stroke="#5A5A5A" stroke-width="0.5"/>
<path d="M19.906 309.973C20.3159 309.973 20.6274 309.679 20.6274 309.335C20.6438 308.974 20.3159 308.68 19.906 308.68C19.4962 308.68 19.1847 308.974 19.1847 309.318C19.2011 309.695 19.5126 309.99 19.906 309.973Z" fill="white" stroke="#5A5A5A" stroke-width="0.5"/>
<path d="M17.6531 346.732L29.9611 346.732C30.8169 346.732 31.5014 346.049 31.5014 345.194L31.5014 326.674C31.5014 325.82 30.8169 325.136 29.9611 325.136L17.6531 325.136C16.7974 325.136 16.1128 325.82 16.1128 326.674L16.1128 345.194C16.1128 346.034 16.7974 346.732 17.6531 346.732Z" fill="white" stroke="#5A5A5A" stroke-width="0.5"/>
<path d="M22.3452 344.809L24.242 344.809C26.7379 344.809 28.763 342.786 28.763 340.293L28.763 331.575C28.763 329.082 26.7379 327.059 24.242 327.059L22.3452 327.059C19.8493 327.059 17.8242 329.082 17.8242 331.575L17.8242 340.293C17.8242 342.786 19.8493 344.809 22.3452 344.809Z" fill="white" stroke="#5A5A5A" stroke-width="0.5"/>
<path d="M20.2344 336.889C20.7779 336.889 21.2184 336.462 21.2184 335.935C21.2184 335.407 20.7779 334.98 20.2344 334.98C19.691 334.98 19.2504 335.407 19.2504 335.935C19.2504 336.462 19.691 336.889 20.2344 336.889Z" fill="white" stroke="#5A5A5A" stroke-width="0.5"/>
<path d="M17.4518 361.431L77.5725 361.431C78.3424 361.431 78.9583 362.046 78.9583 362.815L78.9583 386.682C78.9583 387.451 78.3424 388.066 77.5725 388.066L17.4518 388.066C16.6819 388.066 16.066 387.451 16.066 386.682L16.066 362.815C16.066 362.046 16.6959 361.431 17.4518 361.431Z" fill="white" stroke="#5A5A5A" stroke-width="0.5"/>
<path d="M75.2626 371.512L75.2626 378C75.2626 381.761 72.2111 384.795 68.4596 384.795L21.119 384.795C20.1951 384.795 19.4532 384.054 19.4532 383.131L19.4532 366.353C19.4532 365.43 20.1951 364.689 21.119 364.689L68.4456 364.689C72.2111 364.703 75.2626 367.751 75.2626 371.512Z" fill="white" stroke="#5A5A5A" stroke-width="0.5"/>
<path d="M25.0664 374.28C25.0664 373.531 24.4335 372.924 23.6527 372.924C22.872 372.924 22.239 373.531 22.239 374.28C22.239 375.029 22.872 375.636 23.6527 375.636C24.4335 375.636 25.0664 375.029 25.0664 374.28Z" fill="white" stroke="#5A5A5A" stroke-width="0.5"/>
<path d="M82.5875 303.024L82.5875 281.014L61 281L61.014 303.01L82.5875 303.024Z" fill="white" stroke="#5A5A5A" stroke-width="0.5"/>
<path d="M66.257 292.005C66.257 288.891 68.7317 286.377 71.7937 286.377C74.8557 286.377 77.3304 288.891 77.3304 292.019C77.3304 295.133 74.8557 297.675 71.7937 297.675C68.7317 297.661 66.257 295.119 66.257 292.005Z" stroke="#5A5A5A" stroke-width="0.5"/>
<path d="M71.7937 296.125C70.6752 296.139 69.6685 295.678 68.9415 294.924C68.2145 294.17 67.7671 293.136 67.7531 292.019M71.7797 287.885C70.6752 287.885 69.6685 288.346 68.9275 289.086C68.2005 289.84 67.7391 290.86 67.7391 292.005L71.7797 287.885ZM71.7937 296.125C72.8983 296.125 73.9049 295.664 74.6459 294.924C75.373 294.17 75.8204 293.136 75.8204 292.005L71.7937 296.125ZM71.7797 287.885C72.9122 287.885 73.9189 288.346 74.632 289.086L74.6459 289.1C75.359 289.84 75.8204 290.86 75.8204 291.991L71.7797 287.885Z" stroke="#5A5A5A" stroke-width="0.5"/>
<path d="M325.105 244.425L326.286 244.409L329.352 244.425L336.943 244.425L336.943 234.468L325.105 234.468C322.089 234.468 319.629 236.712 319.629 239.463C319.629 242.182 322.089 244.425 325.105 244.425Z" fill="white" stroke="#5A5A5A" stroke-width="0.5"/>
<path d="M325.171 243.279L326.106 243.279L333.664 243.279L333.664 235.598L326.106 235.598L325.171 235.615C322.794 235.615 320.859 237.318 320.859 239.447C320.875 241.559 322.81 243.279 325.171 243.279Z" fill="white" stroke="#5A5A5A" stroke-width="0.5"/>
<path d="M343.305 232.667L338.042 232.667C337.435 232.667 336.943 233.158 336.943 233.764L336.943 245.048C336.943 245.654 337.435 246.145 338.042 246.145L343.305 246.145C343.911 246.145 344.403 245.654 344.403 245.048L344.403 233.78C344.403 233.158 343.911 232.667 343.305 232.667Z" fill="white" stroke="#5A5A5A" stroke-width="0.5"/>
<path d="M340.681 238.759C340.271 238.759 339.96 239.054 339.96 239.398C339.944 239.758 340.271 240.053 340.681 240.053C341.091 240.053 341.403 239.758 341.403 239.414C341.386 239.037 341.075 238.742 340.681 238.759Z" fill="white" stroke="#5A5A5A" stroke-width="0.5"/>
<path d="M342.934 202L330.626 202C329.771 202 329.086 202.684 329.086 203.539L329.086 222.058C329.086 222.913 329.771 223.596 330.626 223.596L342.934 223.596C343.79 223.596 344.475 222.913 344.475 222.058L344.475 203.539C344.475 202.698 343.79 202 342.934 202Z" fill="white" stroke="#5A5A5A" stroke-width="0.5"/>
<path d="M338.242 203.923L336.345 203.923C333.85 203.923 331.824 205.946 331.824 208.439L331.824 217.157C331.824 219.65 333.85 221.673 336.345 221.673L338.242 221.673C340.738 221.673 342.763 219.65 342.763 217.157L342.763 208.439C342.763 205.946 340.738 203.923 338.242 203.923Z" fill="white" stroke="#5A5A5A" stroke-width="0.5"/>
<path d="M340.353 211.843C339.81 211.843 339.369 212.271 339.369 212.798C339.369 213.325 339.81 213.752 340.353 213.752C340.896 213.752 341.337 213.325 341.337 212.798C341.337 212.271 340.896 211.843 340.353 211.843Z" fill="white" stroke="#5A5A5A" stroke-width="0.5"/>
<path d="M262 185L262 207.01L283.587 207.024L283.573 185.014L262 185Z" fill="white" stroke="#5A5A5A" stroke-width="0.5"/>
<path d="M278.33 196.019C278.33 199.133 275.856 201.647 272.794 201.647C269.732 201.647 267.257 199.133 267.257 196.005C267.257 192.89 269.732 190.349 272.794 190.349C275.856 190.363 278.33 192.904 278.33 196.019Z" stroke="#5A5A5A" stroke-width="0.5"/>
<path d="M272.794 191.899C273.912 191.885 274.919 192.346 275.646 193.1C276.373 193.854 276.82 194.888 276.834 196.005M272.808 200.139C273.912 200.139 274.919 199.678 275.66 198.938C276.387 198.183 276.848 197.164 276.848 196.019L272.808 200.139ZM272.794 191.899C271.689 191.899 270.683 192.36 269.942 193.1C269.214 193.854 268.767 194.888 268.767 196.019L272.794 191.899ZM272.808 200.139C271.675 200.139 270.669 199.678 269.955 198.938L269.942 198.924C269.228 198.183 268.767 197.164 268.767 196.033L272.808 200.139Z" stroke="#5A5A5A" stroke-width="0.5"/>
<rect width="8" height="49" transform="matrix(-1 8.74228e-08 8.74228e-08 1 108 355)" fill="#5A5A5A"/>
<rect width="8" height="96" transform="matrix(-4.37114e-08 1 1 4.37114e-08 12 274)" fill="#5A5A5A"/>
<rect width="8" height="44" transform="matrix(-1 -8.74228e-08 -8.74228e-08 1 262 177)" fill="#5A5A5A"/>
<rect width="16" height="16" transform="matrix(-1 -8.74228e-08 -8.74228e-08 1 291 269)" fill="#5A5A5A"/>
<rect width="8" height="90" transform="matrix(-4.37114e-08 -1 -1 4.37114e-08 344 185)" fill="#5A5A5A"/>
<rect width="8" height="65" transform="matrix(1 0 0 -1 100 327)" fill="#5A5A5A"/>
<rect width="8" height="14" transform="matrix(1 0 0 -1 100 232)" fill="#5A5A5A"/>
<rect width="16" height="92" transform="matrix(-4.37114e-08 -1 -1 4.37114e-08 278 404)" fill="#5A5A5A"/>
<rect width="16" height="18" transform="matrix(-4.37114e-08 -1 -1 4.37114e-08 157 404)" fill="#5A5A5A"/>
<rect width="16" height="224" transform="matrix(-1 8.74228e-08 8.74228e-08 1 291 415)" fill="#5A5A5A"/>
<rect width="16" height="102" transform="matrix(-4.37114e-08 -1 -1 4.37114e-08 118 221)" fill="#5A5A5A"/>
<rect width="16" height="57" transform="matrix(-4.37114e-08 -1 -1 4.37114e-08 262 221)" fill="#5A5A5A"/>
<rect width="16" height="121" transform="matrix(-4.37114e-08 -1 -1 4.37114e-08 360 275)" fill="#5A5A5A"/>
<rect width="16" height="109" transform="matrix(-1 8.74228e-08 8.74228e-08 1 291 318)" fill="#5A5A5A"/>
<circle cx="183.5" cy="310.5" r="39.5" fill="#5A5A5A"/>
<path d="M153.45 309.54V307.2L155.79 305.4H157.68V318H155.61V307.92L153.45 309.54ZM161.461 316.488C160.321 315.24 159.751 313.644 159.751 311.7C159.751 309.756 160.321 308.16 161.461 306.912C162.601 305.664 163.981 305.04 165.601 305.04C167.221 305.04 168.601 305.664 169.741 306.912C170.881 308.16 171.451 309.756 171.451 311.7C171.451 313.644 170.881 315.24 169.741 316.488C168.601 317.736 167.221 318.36 165.601 318.36C163.981 318.36 162.601 317.736 161.461 316.488ZM162.937 308.244C162.253 309.06 161.911 310.212 161.911 311.7C161.911 313.188 162.253 314.34 162.937 315.156C163.633 315.972 164.521 316.38 165.601 316.38C166.681 316.38 167.563 315.972 168.247 315.156C168.943 314.34 169.291 313.188 169.291 311.7C169.291 310.212 168.943 309.06 168.247 308.244C167.563 307.428 166.681 307.02 165.601 307.02C164.521 307.02 163.633 307.428 162.937 308.244ZM174.786 316.488C173.646 315.24 173.076 313.644 173.076 311.7C173.076 309.756 173.646 308.16 174.786 306.912C175.926 305.664 177.306 305.04 178.926 305.04C180.546 305.04 181.926 305.664 183.066 306.912C184.206 308.16 184.776 309.756 184.776 311.7C184.776 313.644 184.206 315.24 183.066 316.488C181.926 317.736 180.546 318.36 178.926 318.36C177.306 318.36 175.926 317.736 174.786 316.488ZM176.262 308.244C175.578 309.06 175.236 310.212 175.236 311.7C175.236 313.188 175.578 314.34 176.262 315.156C176.958 315.972 177.846 316.38 178.926 316.38C180.006 316.38 180.888 315.972 181.572 315.156C182.268 314.34 182.616 313.188 182.616 311.7C182.616 310.212 182.268 309.06 181.572 308.244C180.888 307.428 180.006 307.02 178.926 307.02C177.846 307.02 176.958 307.428 176.262 308.244ZM186.31 317.01C186.31 316.65 186.424 316.35 186.652 316.11C186.892 315.87 187.186 315.75 187.534 315.75C187.93 315.75 188.242 315.894 188.47 316.182C188.71 316.47 188.83 316.896 188.83 317.46C188.83 318.384 188.608 319.092 188.164 319.584C187.732 320.088 187.144 320.34 186.4 320.34V319.44C186.76 319.44 187.042 319.338 187.246 319.134C187.462 318.942 187.57 318.684 187.57 318.36V318.252C187.558 318.24 187.552 318.216 187.552 318.18V318.126L187.444 318.162C187.408 318.174 187.33 318.18 187.21 318.18C186.97 318.18 186.76 318.072 186.58 317.856C186.4 317.64 186.31 317.358 186.31 317.01ZM190.175 313.86C190.175 313.284 190.301 312.684 190.553 312.06C190.817 311.424 191.069 310.926 191.309 310.566C191.561 310.194 191.903 309.732 192.335 309.18L195.215 305.4H197.645L194.927 308.946L194.135 309.63V309.72L194.495 309.594C194.855 309.498 195.245 309.45 195.665 309.45C196.841 309.45 197.837 309.876 198.653 310.728C199.481 311.568 199.895 312.612 199.895 313.86C199.895 315.132 199.439 316.2 198.527 317.064C197.615 317.928 196.451 318.36 195.035 318.36C193.619 318.36 192.455 317.928 191.543 317.064C190.631 316.2 190.175 315.132 190.175 313.86ZM193.073 311.988C192.581 312.468 192.335 313.092 192.335 313.86C192.335 314.628 192.581 315.258 193.073 315.75C193.565 316.23 194.219 316.47 195.035 316.47C195.851 316.47 196.505 316.23 196.997 315.75C197.489 315.258 197.735 314.628 197.735 313.86C197.735 313.092 197.489 312.468 196.997 311.988C196.505 311.496 195.851 311.25 195.035 311.25C194.219 311.25 193.565 311.496 193.073 311.988ZM201.339 314.49H203.499C203.595 314.862 203.757 315.18 203.985 315.444C204.513 316.068 205.281 316.38 206.289 316.38C207.093 316.38 207.729 316.164 208.197 315.732C208.665 315.3 208.899 314.736 208.899 314.04C208.899 313.308 208.665 312.72 208.197 312.276C207.729 311.832 207.093 311.61 206.289 311.61C205.545 311.61 204.915 311.808 204.399 312.204C204.195 312.36 204.015 312.552 203.859 312.78H201.879L202.419 305.4H210.069V307.38H204.129L203.859 310.62H203.949C204.141 310.428 204.363 310.266 204.615 310.134C205.179 309.798 205.857 309.63 206.649 309.63C207.909 309.63 208.959 310.05 209.799 310.89C210.639 311.73 211.059 312.78 211.059 314.04C211.059 315.276 210.615 316.308 209.727 317.136C208.851 317.952 207.705 318.36 206.289 318.36C204.441 318.36 203.067 317.718 202.167 316.434C201.783 315.87 201.507 315.222 201.339 314.49Z" fill="white"/>
<rect width="16" height="17" transform="matrix(-4.37114e-08 -1 -1 4.37114e-08 169 221)" fill="#5A5A5A"/>
<rect width="16" height="303" transform="matrix(-1 8.74228e-08 8.74228e-08 1 360 0)" fill="#5A5A5A"/>
<rect width="30" height="106" transform="matrix(-4.37114e-08 -1 -1 4.37114e-08 223 30)" fill="#5A5A5A"/>
<rect width="30" height="68" transform="matrix(-4.37114e-08 -1 -1 4.37114e-08 360 30)" fill="#5A5A5A"/>
<rect width="30" height="77" transform="matrix(-4.37114e-08 -1 -1 4.37114e-08 189 639)" fill="#5A5A5A"/>
<path d="M218.25 638.75L278.726 638.687L278.749 634.25L218.25 634.25L218.25 638.75Z" stroke="#5A5A5A" stroke-width="0.5" stroke-miterlimit="10"/>
<path d="M218.25 628.75L278.726 628.687L278.749 624.25L218.25 624.25L218.25 628.75Z" stroke="#5A5A5A" stroke-width="0.5" stroke-miterlimit="10"/>
<rect width="5" height="74" transform="matrix(1 0 0 -1 275 701)" fill="#5A5A5A"/>
<rect width="5" height="74" transform="matrix(1 0 0 -1 166 701)" fill="#5A5A5A"/>
<rect width="5" height="110" transform="matrix(-4.37114e-08 -1 -1 4.37114e-08 277 701)" fill="#5A5A5A"/>
<rect width="30" height="24" transform="matrix(-4.37114e-08 -1 -1 4.37114e-08 276 639)" fill="#5A5A5A"/>
<path d="M296.75 29.7498L50.3492 29.5981L50.2521 18.25L296.75 18.25L296.75 29.7498Z" stroke="#5A5A5A" stroke-width="0.5" stroke-miterlimit="10"/>
<path d="M141.75 638.75L16.3006 638.598L16.2511 627.25L141.75 627.25L141.75 638.75Z" stroke="#5A5A5A" stroke-width="0.5" stroke-miterlimit="10"/>
<path d="M296.75 11.7498L50.3492 11.5981L50.2521 0.250008L296.75 0.249997L296.75 11.7498Z" stroke="#5A5A5A" stroke-width="0.5" stroke-miterlimit="10"/>
<path d="M141.75 620.75L16.3006 620.598L16.2511 609.25L141.75 609.25L141.75 620.75Z" stroke="#5A5A5A" stroke-width="0.5" stroke-miterlimit="10"/>
<line y1="-0.5" x2="28.2312" y2="-0.5" transform="matrix(0.38964 -0.920967 -0.920967 -0.38964 107 357)" stroke="#5A5A5A"/>
<line x1="110.743" y1="389.571" x2="135.743" y2="374.571" stroke="#5A5A5A"/>
<line x1="188.743" y1="623.571" x2="213.743" y2="608.571" stroke="#5A5A5A"/>
<line y1="-0.5" x2="29.1548" y2="-0.5" transform="matrix(-0.857493 -0.514496 -0.514496 0.857493 188 390)" stroke="#5A5A5A"/>
<line x1="107.46" y1="230.805" x2="118.46" y2="256.805" stroke="#5A5A5A"/>
<line x1="227.564" y1="252.755" x2="245.564" y2="220.755" stroke="#5A5A5A"/>
<line y1="-0.5" x2="44.7772" y2="-0.5" transform="matrix(0.870978 0.491321 0.491321 -0.870978 114 218)" stroke="#5A5A5A"/>
<line x1="212.246" y1="218.435" x2="173.246" y2="240.435" stroke="#5A5A5A"/>
<line y1="-0.5" x2="40.7063" y2="-0.5" transform="matrix(0.466759 0.884385 0.884385 -0.466759 288 278)" stroke="#5A5A5A"/>
<path d="M35.298 238.241L34.1175 238.258L31.0515 238.241L23.4602 238.241L23.4602 248.199L35.298 248.199C38.3148 248.199 40.7742 245.955 40.7742 243.204C40.7742 240.485 38.3148 238.241 35.298 238.241Z" fill="white" stroke="#5A5A5A" stroke-width="0.5"/>
<path d="M35.2324 239.388L34.2979 239.388L26.7394 239.388L26.7394 247.068L34.2979 247.068L35.2324 247.052C37.6098 247.052 39.5445 245.349 39.5445 243.22C39.5281 241.107 37.5934 239.388 35.2324 239.388Z" fill="white" stroke="#5A5A5A" stroke-width="0.5"/>
<path d="M17.0986 250L22.3616 250C22.9683 250 23.4601 249.509 23.4601 248.903L23.4601 237.619C23.4601 237.013 22.9683 236.522 22.3616 236.522L17.0986 236.522C16.4919 236.522 16 237.013 16 237.619L16 248.886C16 249.509 16.4919 250 17.0986 250Z" fill="white" stroke="#5A5A5A" stroke-width="0.5"/>
<path d="M19.722 243.908C20.1318 243.908 20.4433 243.613 20.4433 243.269C20.4597 242.909 20.1318 242.614 19.722 242.614C19.3121 242.614 19.0006 242.909 19.0006 243.253C19.017 243.629 19.3285 243.924 19.722 243.908Z" fill="white" stroke="#5A5A5A" stroke-width="0.5"/>
<path d="M84.1451 272.46L84.1451 260.152C84.1451 259.296 83.4613 258.611 82.6066 258.611L64.0872 258.611C63.2325 258.611 62.5487 259.296 62.5487 260.152L62.5487 272.46C62.5487 273.315 63.2325 274 64.0872 274L82.6066 274C83.4471 274 84.1451 273.315 84.1451 272.46Z" fill="white" stroke="#5A5A5A" stroke-width="0.5"/>
<path d="M82.2221 267.768L82.2221 265.871C82.2221 263.375 80.1992 261.35 77.7062 261.35L68.9879 261.35C66.4949 261.35 64.472 263.375 64.472 265.871L64.472 267.768C64.472 270.264 66.4949 272.289 68.9879 272.289L77.7062 272.289C80.1992 272.289 82.2221 270.264 82.2221 267.768Z" fill="white" stroke="#5A5A5A" stroke-width="0.5"/>
<path d="M74.3018 269.878C74.3018 269.335 73.8745 268.894 73.3473 268.894C72.8202 268.894 72.3929 269.335 72.3929 269.878C72.3929 270.422 72.8202 270.862 73.3473 270.862C73.8745 270.862 74.3018 270.422 74.3018 269.878Z" fill="white" stroke="#5A5A5A" stroke-width="0.5"/>
<path d="M344.099 113.325L319.104 113.325L319.104 88.9999L344.099 88.9999L344.099 113.325Z" fill="white" stroke="#5A5A5A" stroke-width="0.5"/>
<path d="M321.13 112.398L340.583 112.398C341.321 112.398 341.714 112.006 341.714 111.236L341.714 91.0886C341.714 90.3035 341.337 89.9266 340.583 89.9266L321.13 89.9266C320.377 89.9109 320 90.3035 320 91.0729L320 111.221C319.984 112.006 320.377 112.398 321.13 112.398Z" fill="white" stroke="#5A5A5A" stroke-width="0.5"/>
<path d="M322.919 105.897C322.935 104.107 324.348 102.646 326.091 102.646C327.849 102.646 329.262 104.107 329.262 105.897C329.262 107.703 327.849 109.148 326.091 109.148C324.332 109.148 322.919 107.703 322.919 105.897Z" stroke="#5A5A5A" stroke-width="0.5"/>
<path d="M322.95 96.271C322.965 94.4808 324.378 93.0203 326.121 93.0203C327.88 93.0203 329.293 94.4808 329.293 96.271C329.293 98.0769 327.88 99.5216 326.121 99.5216C324.363 99.5373 322.934 98.0769 322.95 96.271Z" stroke="#5A5A5A" stroke-width="0.5"/>
<path d="M331.963 96.2711C331.963 94.4652 333.376 93.0205 335.135 93.0205C336.893 93.0205 338.306 94.4809 338.306 96.2711C338.291 98.0613 336.878 99.5217 335.135 99.5217C333.392 99.5217 331.963 98.0613 331.963 96.2711Z" stroke="#5A5A5A" stroke-width="0.5"/>
<path d="M331.963 105.897C331.963 104.091 333.376 102.646 335.135 102.646C336.893 102.646 338.306 104.107 338.306 105.897C338.291 107.687 336.878 109.148 335.135 109.148C333.392 109.148 331.963 107.687 331.963 105.897Z" stroke="#5A5A5A" stroke-width="0.5"/>
<path d="M344.088 152.626L320 152.626L320 176.325L344.104 176.325L344.088 152.626Z" fill="white" stroke="#5A5A5A" stroke-width="0.5"/>
<path d="M337.482 154.429L324.165 154.429C323.423 154.429 323.059 154.793 323.059 155.55L323.059 173.158C323.059 173.885 323.423 174.264 324.15 174.279L337.482 174.264C338.209 174.279 338.573 173.9 338.573 173.158L338.573 155.55C338.603 154.808 338.225 154.429 337.482 154.429Z" fill="white" stroke="#5A5A5A" stroke-width="0.5"/>
<path d="M342.24 164.354C342.225 165.278 341.528 166.021 340.649 166.021L333.665 165.369L333.65 165.354C333.12 165.354 332.695 164.915 332.695 164.354C332.695 163.793 333.12 163.354 333.665 163.339L340.649 162.687C341.513 162.687 342.225 163.43 342.24 164.354Z" stroke="#5A5A5A" stroke-width="0.5"/>
<mask id="path-96-inside-1_27_4939" fill="white">
<path fill-rule="evenodd" clip-rule="evenodd" d="M341.557 165.733L337.755 165.369C337.225 165.354 336.785 164.915 336.8 164.339C336.8 163.778 337.225 163.354 337.755 163.339L341.557 162.975"/>
</mask>
<path fill-rule="evenodd" clip-rule="evenodd" d="M341.557 165.733L337.755 165.369C337.225 165.354 336.785 164.915 336.8 164.339C336.8 163.778 337.225 163.354 337.755 163.339L341.557 162.975" fill="white"/>
<path d="M337.755 165.369L337.769 164.87L337.786 164.87L337.802 164.872L337.755 165.369ZM336.8 164.339L337.301 164.339L337.3 164.352L336.8 164.339ZM337.755 163.339L337.802 163.837L337.786 163.838L337.769 163.839L337.755 163.339ZM341.51 166.231L337.707 165.867L337.802 164.872L341.605 165.235L341.51 166.231ZM337.741 165.869C336.936 165.846 336.278 165.178 336.301 164.326L337.3 164.352C337.292 164.651 337.514 164.862 337.769 164.87L337.741 165.869ZM336.3 164.339C336.3 163.51 336.938 162.862 337.741 162.839L337.769 163.839C337.511 163.846 337.3 164.047 337.3 164.339L336.3 164.339ZM337.707 162.841L341.51 162.477L341.605 163.473L337.802 163.837L337.707 162.841Z" fill="#5A5A5A" mask="url(#path-96-inside-1_27_4939)"/>
<rect width="2" height="11" transform="matrix(-1 -8.74228e-08 -8.74228e-08 1 256 98)" fill="#5A5A5A"/>
<rect width="2" height="11" transform="matrix(-1 -8.74228e-08 -8.74228e-08 1 256 81)" fill="#5A5A5A"/>
<rect width="2" height="11" transform="matrix(-1 -8.74228e-08 -8.74228e-08 1 256 64)" fill="#5A5A5A"/>
<rect width="2" height="11" transform="matrix(-1 -8.74228e-08 -8.74228e-08 1 256 47)" fill="#5A5A5A"/>
<rect width="2" height="11" transform="matrix(-1 -8.74228e-08 -8.74228e-08 1 256 30)" fill="#5A5A5A"/>
<rect width="2" height="11" transform="matrix(-1 -8.74228e-08 -8.74228e-08 1 256 115)" fill="#5A5A5A"/>
<rect width="2" height="11" transform="matrix(-1 -8.74228e-08 -8.74228e-08 1 256 132)" fill="#5A5A5A"/>
<rect width="2" height="11" transform="matrix(-1 -8.74228e-08 -8.74228e-08 1 256 149)" fill="#5A5A5A"/>
<rect width="2" height="11" transform="matrix(-1 -8.74228e-08 -8.74228e-08 1 256 166)" fill="#5A5A5A"/>
</svg>
