<svg width="360" height="759" viewBox="0 0 360 759" fill="none" xmlns="http://www.w3.org/2000/svg">
<rect width="30" height="48" transform="matrix(-4.37114e-08 -1 -1 4.37114e-08 48 697)" fill="#5A5A5A"/>
<path d="M276 667L280 489L15 489L15 667L276 667Z" fill="#FFF8BA"/>
<path d="M344 332V87H16L16 332H344Z" fill="#FFF8BA"/>
<path d="M276 498L274 118H16L16 498L276 498Z" fill="#FFF8BA"/>
<path d="M191 509L191 199H6L6.00001 509L191 509Z" fill="#FFF8BA"/>
<path d="M115.42 573.2H117.1C117.165 573.489 117.291 573.746 117.478 573.97C117.898 574.483 118.495 574.74 119.27 574.74C119.914 574.74 120.423 574.581 120.796 574.264C121.179 573.937 121.37 573.536 121.37 573.06C121.37 572.519 121.197 572.094 120.852 571.786C120.516 571.469 120.035 571.31 119.41 571.31H117.03V569.91L119.97 567.81V567.74H115.91V566.2H122.35V567.726L119.83 569.56L119.13 569.84V569.91L119.354 569.882C119.662 569.854 119.844 569.84 119.9 569.84C120.777 569.84 121.51 570.143 122.098 570.75C122.686 571.357 122.98 572.127 122.98 573.06C122.98 573.956 122.635 574.717 121.944 575.342C121.253 575.967 120.362 576.28 119.27 576.28C117.823 576.28 116.755 575.767 116.064 574.74C115.765 574.301 115.551 573.788 115.42 573.2ZM123.687 574.04V572.5L126.977 566.2H128.727L125.437 572.5H128.657V570.12H128.727H130.267V572.5H131.667V574.04H130.267V576H128.657V574.04H123.687ZM132.226 575.23C132.226 574.95 132.315 574.717 132.492 574.53C132.679 574.343 132.907 574.25 133.178 574.25C133.486 574.25 133.729 574.362 133.906 574.586C134.093 574.81 134.186 575.141 134.186 575.58C134.186 576.299 134.013 576.849 133.668 577.232C133.332 577.624 132.875 577.82 132.296 577.82V577.12C132.576 577.12 132.795 577.041 132.954 576.882C133.122 576.733 133.206 576.532 133.206 576.28V576.196C133.197 576.187 133.192 576.168 133.192 576.14V576.098L133.108 576.126C133.08 576.135 133.019 576.14 132.926 576.14C132.739 576.14 132.576 576.056 132.436 575.888C132.296 575.72 132.226 575.501 132.226 575.23ZM135.302 573.27H136.982C137.057 573.559 137.183 573.807 137.36 574.012C137.771 574.497 138.368 574.74 139.152 574.74C139.778 574.74 140.272 574.572 140.636 574.236C141 573.9 141.182 573.461 141.182 572.92C141.182 572.351 141 571.893 140.636 571.548C140.272 571.203 139.778 571.03 139.152 571.03C138.574 571.03 138.084 571.184 137.682 571.492C137.524 571.613 137.384 571.763 137.262 571.94H135.722L136.142 566.2H142.092V567.74H137.472L137.262 570.26H137.332C137.482 570.111 137.654 569.985 137.85 569.882C138.289 569.621 138.816 569.49 139.432 569.49C140.412 569.49 141.229 569.817 141.882 570.47C142.536 571.123 142.862 571.94 142.862 572.92C142.862 573.881 142.517 574.684 141.826 575.328C141.145 575.963 140.254 576.28 139.152 576.28C137.715 576.28 136.646 575.781 135.946 574.782C135.648 574.343 135.433 573.839 135.302 573.27ZM143.565 574.04V572.5L146.855 566.2H148.605L145.315 572.5H148.535V570.12H148.605H150.145V572.5H151.545V574.04H150.145V576H148.535V574.04H143.565Z" fill="#333333"/>
<path d="M217.42 722.2H219.1C219.165 722.489 219.291 722.746 219.478 722.97C219.898 723.483 220.495 723.74 221.27 723.74C221.914 723.74 222.423 723.581 222.796 723.264C223.179 722.937 223.37 722.536 223.37 722.06C223.37 721.519 223.197 721.094 222.852 720.786C222.516 720.469 222.035 720.31 221.41 720.31H219.03V718.91L221.97 716.81V716.74H217.91V715.2H224.35V716.726L221.83 718.56L221.13 718.84V718.91L221.354 718.882C221.662 718.854 221.844 718.84 221.9 718.84C222.777 718.84 223.51 719.143 224.098 719.75C224.686 720.357 224.98 721.127 224.98 722.06C224.98 722.956 224.635 723.717 223.944 724.342C223.253 724.967 222.362 725.28 221.27 725.28C219.823 725.28 218.755 724.767 218.064 723.74C217.765 723.301 217.551 722.788 217.42 722.2ZM226.037 724.23C226.037 723.95 226.125 723.717 226.303 723.53C226.489 723.343 226.718 723.25 226.989 723.25C227.297 723.25 227.539 723.362 227.717 723.586C227.903 723.81 227.997 724.141 227.997 724.58C227.997 725.299 227.824 725.849 227.479 726.232C227.143 726.624 226.685 726.82 226.107 726.82V726.12C226.387 726.12 226.606 726.041 226.765 725.882C226.933 725.733 227.017 725.532 227.017 725.28V725.196C227.007 725.187 227.003 725.168 227.003 725.14V725.098L226.919 725.126C226.891 725.135 226.83 725.14 226.737 725.14C226.55 725.14 226.387 725.056 226.247 724.888C226.107 724.72 226.037 724.501 226.037 724.23ZM229.043 721.78C229.043 721.332 229.141 720.865 229.337 720.38C229.542 719.885 229.738 719.498 229.925 719.218C230.121 718.929 230.387 718.569 230.723 718.14L232.963 715.2H234.853L232.739 717.958L232.123 718.49V718.56L232.403 718.462C232.683 718.387 232.986 718.35 233.313 718.35C234.227 718.35 235.002 718.681 235.637 719.344C236.281 719.997 236.603 720.809 236.603 721.78C236.603 722.769 236.248 723.6 235.539 724.272C234.829 724.944 233.924 725.28 232.823 725.28C231.721 725.28 230.816 724.944 230.107 724.272C229.397 723.6 229.043 722.769 229.043 721.78ZM231.297 720.324C230.914 720.697 230.723 721.183 230.723 721.78C230.723 722.377 230.914 722.867 231.297 723.25C231.679 723.623 232.188 723.81 232.823 723.81C233.457 723.81 233.966 723.623 234.349 723.25C234.731 722.867 234.923 722.377 234.923 721.78C234.923 721.183 234.731 720.697 234.349 720.324C233.966 719.941 233.457 719.75 232.823 719.75C232.188 719.75 231.679 719.941 231.297 720.324ZM237.656 721.78C237.656 721.332 237.754 720.865 237.95 720.38C238.155 719.885 238.351 719.498 238.538 719.218C238.734 718.929 239 718.569 239.336 718.14L241.576 715.2H243.466L241.352 717.958L240.736 718.49V718.56L241.016 718.462C241.296 718.387 241.599 718.35 241.926 718.35C242.841 718.35 243.615 718.681 244.25 719.344C244.894 719.997 245.216 720.809 245.216 721.78C245.216 722.769 244.861 723.6 244.152 724.272C243.443 724.944 242.537 725.28 241.436 725.28C240.335 725.28 239.429 724.944 238.72 724.272C238.011 723.6 237.656 722.769 237.656 721.78ZM239.91 720.324C239.527 720.697 239.336 721.183 239.336 721.78C239.336 722.377 239.527 722.867 239.91 723.25C240.293 723.623 240.801 723.81 241.436 723.81C242.071 723.81 242.579 723.623 242.962 723.25C243.345 722.867 243.536 722.377 243.536 721.78C243.536 721.183 243.345 720.697 242.962 720.324C242.579 719.941 242.071 719.75 241.436 719.75C240.801 719.75 240.293 719.941 239.91 720.324Z" fill="#333333"/>
<path d="M100 446L16 446L16 339L100 339L100 446Z" fill="#FFC79F"/>
<path d="M39.49 394.78C39.49 394.332 39.588 393.865 39.784 393.38C39.9893 392.885 40.1853 392.498 40.372 392.218C40.568 391.929 40.834 391.569 41.17 391.14L43.41 388.2H45.3L43.186 390.958L42.57 391.49V391.56L42.85 391.462C43.13 391.387 43.4333 391.35 43.76 391.35C44.6747 391.35 45.4493 391.681 46.084 392.344C46.728 392.997 47.05 393.809 47.05 394.78C47.05 395.769 46.6953 396.6 45.986 397.272C45.2767 397.944 44.3713 398.28 43.27 398.28C42.1687 398.28 41.2633 397.944 40.554 397.272C39.8447 396.6 39.49 395.769 39.49 394.78ZM41.744 393.324C41.3613 393.697 41.17 394.183 41.17 394.78C41.17 395.377 41.3613 395.867 41.744 396.25C42.1267 396.623 42.6353 396.81 43.27 396.81C43.9047 396.81 44.4133 396.623 44.796 396.25C45.1787 395.867 45.37 395.377 45.37 394.78C45.37 394.183 45.1787 393.697 44.796 393.324C44.4133 392.941 43.9047 392.75 43.27 392.75C42.6353 392.75 42.1267 392.941 41.744 393.324ZM48.1733 397.23C48.1733 396.95 48.2619 396.717 48.4393 396.53C48.6259 396.343 48.8546 396.25 49.1253 396.25C49.4333 396.25 49.6759 396.362 49.8533 396.586C50.0399 396.81 50.1333 397.141 50.1333 397.58C50.1333 398.299 49.9606 398.849 49.6153 399.232C49.2793 399.624 48.8219 399.82 48.2433 399.82V399.12C48.5233 399.12 48.7426 399.041 48.9013 398.882C49.0693 398.733 49.1533 398.532 49.1533 398.28V398.196C49.1439 398.187 49.1393 398.168 49.1393 398.14V398.098L49.0553 398.126C49.0273 398.135 48.9666 398.14 48.8733 398.14C48.6866 398.14 48.5233 398.056 48.3833 397.888C48.2433 397.72 48.1733 397.501 48.1733 397.23ZM52.6495 396.824C51.7628 395.853 51.3195 394.612 51.3195 393.1C51.3195 391.588 51.7628 390.347 52.6495 389.376C53.5361 388.405 54.6095 387.92 55.8695 387.92C57.1295 387.92 58.2028 388.405 59.0895 389.376C59.9761 390.347 60.4195 391.588 60.4195 393.1C60.4195 394.612 59.9761 395.853 59.0895 396.824C58.2028 397.795 57.1295 398.28 55.8695 398.28C54.6095 398.28 53.5361 397.795 52.6495 396.824ZM53.7975 390.412C53.2655 391.047 52.9995 391.943 52.9995 393.1C52.9995 394.257 53.2655 395.153 53.7975 395.788C54.3388 396.423 55.0295 396.74 55.8695 396.74C56.7095 396.74 57.3955 396.423 57.9275 395.788C58.4688 395.153 58.7395 394.257 58.7395 393.1C58.7395 391.943 58.4688 391.047 57.9275 390.412C57.3955 389.777 56.7095 389.46 55.8695 389.46C55.0295 389.46 54.3388 389.777 53.7975 390.412ZM61.2627 396.04V394.5L64.5527 388.2H66.3027L63.0127 394.5H66.2327V392.12H66.3027H67.8427V394.5H69.2427V396.04H67.8427V398H66.2327V396.04H61.2627Z" fill="#333333"/>
<path d="M100 332L16 332L16 269L100 269L100 332Z" fill="#FFC79F"/>
<path d="M346 325L262 325L262 243L346 243L346 325Z" fill="#FFC79F"/>
<path d="M55.42 303V301.46L58.766 299.094C59.494 298.571 60.0167 298.086 60.334 297.638C60.6513 297.19 60.81 296.714 60.81 296.21C60.81 295.678 60.6467 295.253 60.32 294.936C59.9933 294.619 59.55 294.46 58.99 294.46C58.2993 294.46 57.7813 294.74 57.436 295.3C57.2867 295.543 57.1747 295.823 57.1 296.14H55.42C55.504 295.543 55.686 295.006 55.966 294.53C56.6287 293.457 57.6367 292.92 58.99 292.92C60.026 292.92 60.866 293.228 61.51 293.844C62.1633 294.451 62.49 295.216 62.49 296.14C62.49 296.943 62.2847 297.666 61.874 298.31C61.4633 298.945 60.8053 299.575 59.9 300.2L58.5 301.18L57.87 301.46V301.53L58.71 301.46H62.49V303H55.42ZM63.6127 302.23C63.6127 301.95 63.7014 301.717 63.8787 301.53C64.0654 301.343 64.2941 301.25 64.5647 301.25C64.8727 301.25 65.1154 301.362 65.2927 301.586C65.4794 301.81 65.5727 302.141 65.5727 302.58C65.5727 303.299 65.4001 303.849 65.0547 304.232C64.7187 304.624 64.2614 304.82 63.6827 304.82V304.12C63.9627 304.12 64.1821 304.041 64.3407 303.882C64.5087 303.733 64.5927 303.532 64.5927 303.28V303.196C64.5834 303.187 64.5787 303.168 64.5787 303.14V303.098L64.4947 303.126C64.4667 303.135 64.4061 303.14 64.3127 303.14C64.1261 303.14 63.9627 303.056 63.8227 302.888C63.6827 302.72 63.6127 302.501 63.6127 302.23ZM66.6889 296.42C66.6889 295.431 67.0436 294.6 67.7529 293.928C68.4622 293.256 69.3676 292.92 70.4689 292.92C71.5702 292.92 72.4756 293.256 73.1849 293.928C73.8942 294.6 74.2489 295.431 74.2489 296.42C74.2489 297.307 73.8802 298.263 73.1429 299.29C73.0682 299.393 72.9656 299.533 72.8349 299.71C72.7042 299.878 72.6156 299.995 72.5689 300.06L70.3289 303H68.4389L70.5529 300.242L71.1689 299.71V299.64C71.1502 299.649 71.0569 299.687 70.8889 299.752C70.6462 299.817 70.3429 299.85 69.9789 299.85C69.0642 299.85 68.2849 299.523 67.6409 298.87C67.0062 298.207 66.6889 297.391 66.6889 296.42ZM68.9429 294.964C68.5602 295.337 68.3689 295.823 68.3689 296.42C68.3689 297.017 68.5602 297.507 68.9429 297.89C69.3256 298.263 69.8342 298.45 70.4689 298.45C71.1036 298.45 71.6122 298.263 71.9949 297.89C72.3776 297.507 72.5689 297.017 72.5689 296.42C72.5689 295.823 72.3776 295.337 71.9949 294.964C71.6122 294.581 71.1036 294.39 70.4689 294.39C69.8342 294.39 69.3256 294.581 68.9429 294.964ZM74.8822 294.74V293.2H81.5322V294.74L77.6122 303H75.8622L79.7122 294.88V294.74H74.8822Z" fill="#333333"/>
<path d="M143.42 217V215.46L146.766 213.094C147.494 212.571 148.017 212.086 148.334 211.638C148.651 211.19 148.81 210.714 148.81 210.21C148.81 209.678 148.647 209.253 148.32 208.936C147.993 208.619 147.55 208.46 146.99 208.46C146.299 208.46 145.781 208.74 145.436 209.3C145.287 209.543 145.175 209.823 145.1 210.14H143.42C143.504 209.543 143.686 209.006 143.966 208.53C144.629 207.457 145.637 206.92 146.99 206.92C148.026 206.92 148.866 207.228 149.51 207.844C150.163 208.451 150.49 209.216 150.49 210.14C150.49 210.943 150.285 211.666 149.874 212.31C149.463 212.945 148.805 213.575 147.9 214.2L146.5 215.18L145.87 215.46V215.53L146.71 215.46H150.49V217H143.42ZM151.193 208.74V207.2H157.843V208.74L153.923 217H152.173L156.023 208.88V208.74H151.193ZM157.287 216.23C157.287 215.95 157.375 215.717 157.553 215.53C157.739 215.343 157.968 215.25 158.239 215.25C158.547 215.25 158.789 215.362 158.967 215.586C159.153 215.81 159.247 216.141 159.247 216.58C159.247 217.299 159.074 217.849 158.729 218.232C158.393 218.624 157.935 218.82 157.357 218.82V218.12C157.637 218.12 157.856 218.041 158.015 217.882C158.183 217.733 158.267 217.532 158.267 217.28V217.196C158.257 217.187 158.253 217.168 158.253 217.14V217.098L158.169 217.126C158.141 217.135 158.08 217.14 157.987 217.14C157.8 217.14 157.637 217.056 157.497 216.888C157.357 216.72 157.287 216.501 157.287 216.23ZM160.363 210.42C160.363 209.431 160.717 208.6 161.427 207.928C162.136 207.256 163.041 206.92 164.143 206.92C165.244 206.92 166.149 207.256 166.859 207.928C167.568 208.6 167.923 209.431 167.923 210.42C167.923 211.307 167.554 212.263 166.817 213.29C166.742 213.393 166.639 213.533 166.509 213.71C166.378 213.878 166.289 213.995 166.243 214.06L164.003 217H162.113L164.227 214.242L164.843 213.71V213.64C164.824 213.649 164.731 213.687 164.563 213.752C164.32 213.817 164.017 213.85 163.653 213.85C162.738 213.85 161.959 213.523 161.315 212.87C160.68 212.207 160.363 211.391 160.363 210.42ZM162.617 208.964C162.234 209.337 162.043 209.823 162.043 210.42C162.043 211.017 162.234 211.507 162.617 211.89C162.999 212.263 163.508 212.45 164.143 212.45C164.777 212.45 165.286 212.263 165.669 211.89C166.051 211.507 166.243 211.017 166.243 210.42C166.243 209.823 166.051 209.337 165.669 208.964C165.286 208.581 164.777 208.39 164.143 208.39C163.508 208.39 162.999 208.581 162.617 208.964ZM168.976 214.27H170.656C170.731 214.559 170.857 214.807 171.034 215.012C171.445 215.497 172.042 215.74 172.826 215.74C173.451 215.74 173.946 215.572 174.31 215.236C174.674 214.9 174.856 214.461 174.856 213.92C174.856 213.351 174.674 212.893 174.31 212.548C173.946 212.203 173.451 212.03 172.826 212.03C172.247 212.03 171.757 212.184 171.356 212.492C171.197 212.613 171.057 212.763 170.936 212.94H169.396L169.816 207.2H175.766V208.74H171.146L170.936 211.26H171.006C171.155 211.111 171.328 210.985 171.524 210.882C171.963 210.621 172.49 210.49 173.106 210.49C174.086 210.49 174.903 210.817 175.556 211.47C176.209 212.123 176.536 212.94 176.536 213.92C176.536 214.881 176.191 215.684 175.5 216.328C174.819 216.963 173.927 217.28 172.826 217.28C171.389 217.28 170.32 216.781 169.62 215.782C169.321 215.343 169.107 214.839 168.976 214.27Z" fill="#333333"/>
<path d="M246.21 39.04V37.5L249.5 31.2H251.25L247.96 37.5H251.18V35.12H251.25H252.79V37.5H254.19V39.04H252.79V41H251.18V39.04H246.21ZM254.749 40.23C254.749 39.95 254.838 39.7167 255.015 39.53C255.202 39.3433 255.431 39.25 255.701 39.25C256.009 39.25 256.252 39.362 256.429 39.586C256.616 39.81 256.709 40.1413 256.709 40.58C256.709 41.2987 256.537 41.8493 256.191 42.232C255.855 42.624 255.398 42.82 254.819 42.82V42.12C255.099 42.12 255.319 42.0407 255.477 41.882C255.645 41.7327 255.729 41.532 255.729 41.28V41.196C255.72 41.1867 255.715 41.168 255.715 41.14V41.098L255.631 41.126C255.603 41.1353 255.543 41.14 255.449 41.14C255.263 41.14 255.099 41.056 254.959 40.888C254.819 40.72 254.749 40.5007 254.749 40.23ZM257.406 32.74V31.2H264.056V32.74L260.136 41H258.386L262.236 32.88V32.74H257.406ZM264.551 37.78C264.551 37.332 264.649 36.8653 264.845 36.38C265.05 35.8853 265.246 35.498 265.433 35.218C265.629 34.9287 265.895 34.5693 266.231 34.14L268.471 31.2H270.361L268.247 33.958L267.631 34.49V34.56L267.911 34.462C268.191 34.3873 268.494 34.35 268.821 34.35C269.735 34.35 270.51 34.6813 271.145 35.344C271.789 35.9973 272.111 36.8093 272.111 37.78C272.111 38.7693 271.756 39.6 271.047 40.272C270.337 40.944 269.432 41.28 268.331 41.28C267.229 41.28 266.324 40.944 265.615 40.272C264.905 39.6 264.551 38.7693 264.551 37.78ZM266.805 36.324C266.422 36.6973 266.231 37.1827 266.231 37.78C266.231 38.3773 266.422 38.8673 266.805 39.25C267.187 39.6233 267.696 39.81 268.331 39.81C268.965 39.81 269.474 39.6233 269.857 39.25C270.239 38.8673 270.431 38.3773 270.431 37.78C270.431 37.1827 270.239 36.6973 269.857 36.324C269.474 35.9413 268.965 35.75 268.331 35.75C267.696 35.75 267.187 35.9413 266.805 36.324Z" fill="#333333"/>
<path d="M210.35 425.42V423.6L212.17 422.2H213.64V432H212.03V424.16L210.35 425.42ZM214.761 423.74V422.2H221.411V423.74L217.491 432H215.741L219.591 423.88V423.74H214.761ZM220.855 431.23C220.855 430.95 220.944 430.717 221.121 430.53C221.308 430.343 221.536 430.25 221.807 430.25C222.115 430.25 222.358 430.362 222.535 430.586C222.722 430.81 222.815 431.141 222.815 431.58C222.815 432.299 222.642 432.849 222.297 433.232C221.961 433.624 221.504 433.82 220.925 433.82V433.12C221.205 433.12 221.424 433.041 221.583 432.882C221.751 432.733 221.835 432.532 221.835 432.28V432.196C221.826 432.187 221.821 432.168 221.821 432.14V432.098L221.737 432.126C221.709 432.135 221.648 432.14 221.555 432.14C221.368 432.14 221.205 432.056 221.065 431.888C220.925 431.72 220.855 431.501 220.855 431.23ZM223.931 429.34C223.931 428.491 224.258 427.814 224.911 427.31C225.191 427.114 225.518 426.965 225.891 426.862V426.778C225.602 426.666 225.345 426.512 225.121 426.316C224.608 425.877 224.351 425.299 224.351 424.58C224.351 423.843 224.664 423.217 225.289 422.704C225.924 422.181 226.778 421.92 227.851 421.92C228.924 421.92 229.774 422.181 230.399 422.704C231.034 423.217 231.351 423.843 231.351 424.58C231.351 425.28 231.094 425.859 230.581 426.316C230.338 426.512 230.082 426.666 229.811 426.778V426.862C230.166 426.955 230.492 427.109 230.791 427.324C231.444 427.828 231.771 428.5 231.771 429.34C231.771 430.152 231.416 430.847 230.707 431.426C230.007 431.995 229.055 432.28 227.851 432.28C226.647 432.28 225.69 431.995 224.981 431.426C224.281 430.847 223.931 430.152 223.931 429.34ZM226.031 424.72C226.031 425.131 226.19 425.467 226.507 425.728C226.824 425.989 227.272 426.12 227.851 426.12C228.43 426.12 228.878 425.989 229.195 425.728C229.512 425.467 229.671 425.131 229.671 424.72C229.671 424.347 229.508 424.034 229.181 423.782C228.864 423.521 228.42 423.39 227.851 423.39C227.282 423.39 226.834 423.521 226.507 423.782C226.19 424.034 226.031 424.347 226.031 424.72ZM226.199 428.066C225.807 428.374 225.611 428.752 225.611 429.2C225.611 429.648 225.807 430.031 226.199 430.348C226.6 430.656 227.151 430.81 227.851 430.81C228.551 430.81 229.097 430.656 229.489 430.348C229.89 430.031 230.091 429.648 230.091 429.2C230.091 428.752 229.89 428.374 229.489 428.066C229.097 427.749 228.551 427.59 227.851 427.59C227.151 427.59 226.6 427.749 226.199 428.066ZM232.746 429.2H234.426C234.492 429.489 234.618 429.746 234.804 429.97C235.224 430.483 235.822 430.74 236.596 430.74C237.24 430.74 237.749 430.581 238.122 430.264C238.505 429.937 238.696 429.536 238.696 429.06C238.696 428.519 238.524 428.094 238.178 427.786C237.842 427.469 237.362 427.31 236.736 427.31H234.356V425.91L237.296 423.81V423.74H233.236V422.2H239.676V423.726L237.156 425.56L236.456 425.84V425.91L236.68 425.882C236.988 425.854 237.17 425.84 237.226 425.84C238.104 425.84 238.836 426.143 239.424 426.75C240.012 427.357 240.306 428.127 240.306 429.06C240.306 429.956 239.961 430.717 239.27 431.342C238.58 431.967 237.688 432.28 236.596 432.28C235.15 432.28 234.081 431.767 233.39 430.74C233.092 430.301 232.877 429.788 232.746 429.2Z" fill="#333333"/>
<path d="M278.14 191.74V190.2H284.79V191.74L280.87 200H279.12L282.97 191.88V191.74H278.14ZM284.234 199.23C284.234 198.95 284.322 198.717 284.5 198.53C284.686 198.343 284.915 198.25 285.186 198.25C285.494 198.25 285.736 198.362 285.914 198.586C286.1 198.81 286.194 199.141 286.194 199.58C286.194 200.299 286.021 200.849 285.676 201.232C285.34 201.624 284.882 201.82 284.304 201.82V201.12C284.584 201.12 284.803 201.041 284.962 200.882C285.13 200.733 285.214 200.532 285.214 200.28V200.196C285.204 200.187 285.2 200.168 285.2 200.14V200.098L285.116 200.126C285.088 200.135 285.027 200.14 284.934 200.14C284.747 200.14 284.584 200.056 284.444 199.888C284.304 199.72 284.234 199.501 284.234 199.23ZM287.1 193.42V191.6L288.92 190.2H290.39V200H288.78V192.16L287.1 193.42ZM291.861 196.78C291.861 196.332 291.959 195.865 292.155 195.38C292.36 194.885 292.556 194.498 292.743 194.218C292.939 193.929 293.205 193.569 293.541 193.14L295.781 190.2H297.671L295.557 192.958L294.941 193.49V193.56L295.221 193.462C295.501 193.387 295.804 193.35 296.131 193.35C297.046 193.35 297.82 193.681 298.455 194.344C299.099 194.997 299.421 195.809 299.421 196.78C299.421 197.769 299.066 198.6 298.357 199.272C297.648 199.944 296.742 200.28 295.641 200.28C294.54 200.28 293.634 199.944 292.925 199.272C292.216 198.6 291.861 197.769 291.861 196.78ZM294.115 195.324C293.732 195.697 293.541 196.183 293.541 196.78C293.541 197.377 293.732 197.867 294.115 198.25C294.498 198.623 295.006 198.81 295.641 198.81C296.276 198.81 296.784 198.623 297.167 198.25C297.55 197.867 297.741 197.377 297.741 196.78C297.741 196.183 297.55 195.697 297.167 195.324C296.784 194.941 296.276 194.75 295.641 194.75C295.006 194.75 294.498 194.941 294.115 195.324Z" fill="#333333"/>
<path d="M276.21 293.04V291.5L279.5 285.2H281.25L277.96 291.5H281.18V289.12H281.25H282.79V291.5H284.19V293.04H282.79V295H281.18V293.04H276.21ZM284.749 294.23C284.749 293.95 284.838 293.717 285.015 293.53C285.202 293.343 285.431 293.25 285.701 293.25C286.009 293.25 286.252 293.362 286.429 293.586C286.616 293.81 286.709 294.141 286.709 294.58C286.709 295.299 286.537 295.849 286.191 296.232C285.855 296.624 285.398 296.82 284.819 296.82V296.12C285.099 296.12 285.319 296.041 285.477 295.882C285.645 295.733 285.729 295.532 285.729 295.28V295.196C285.72 295.187 285.715 295.168 285.715 295.14V295.098L285.631 295.126C285.603 295.135 285.543 295.14 285.449 295.14C285.263 295.14 285.099 295.056 284.959 294.888C284.819 294.72 284.749 294.501 284.749 294.23ZM287.616 288.42V286.6L289.436 285.2H290.906V295H289.296V287.16L287.616 288.42ZM292.377 291.78C292.377 291.332 292.475 290.865 292.671 290.38C292.876 289.885 293.072 289.498 293.259 289.218C293.455 288.929 293.721 288.569 294.057 288.14L296.297 285.2H298.187L296.073 287.958L295.457 288.49V288.56L295.737 288.462C296.017 288.387 296.32 288.35 296.647 288.35C297.561 288.35 298.336 288.681 298.971 289.344C299.615 289.997 299.937 290.809 299.937 291.78C299.937 292.769 299.582 293.6 298.873 294.272C298.163 294.944 297.258 295.28 296.157 295.28C295.055 295.28 294.15 294.944 293.441 294.272C292.731 293.6 292.377 292.769 292.377 291.78ZM294.631 290.324C294.248 290.697 294.057 291.183 294.057 291.78C294.057 292.377 294.248 292.867 294.631 293.25C295.013 293.623 295.522 293.81 296.157 293.81C296.791 293.81 297.3 293.623 297.683 293.25C298.065 292.867 298.257 292.377 298.257 291.78C298.257 291.183 298.065 290.697 297.683 290.324C297.3 289.941 296.791 289.75 296.157 289.75C295.522 289.75 295.013 289.941 294.631 290.324Z" fill="#333333"/>
<rect width="30" height="53" transform="matrix(-4.37114e-08 -1 -1 4.37114e-08 53 88)" fill="#5A5A5A"/>
<rect width="16" height="592" transform="matrix(1 0 0 -1 0 672)" fill="#5A5A5A"/>
<rect width="16" height="96" transform="matrix(-4.37114e-08 -1 -1 4.37114e-08 112 462)" fill="#5A5A5A"/>
<path d="M35.4821 362.307L34.3016 362.324L31.2356 362.307L23.6443 362.307L23.6443 372.264L35.4821 372.264C38.4989 372.264 40.9583 370.021 40.9583 367.269C40.9583 364.551 38.4989 362.307 35.4821 362.307Z" fill="white" stroke="#5A5A5A" stroke-width="0.5"/>
<path d="M35.4165 363.453L34.4819 363.453L26.9235 363.453L26.9235 371.134L34.4819 371.134L35.4165 371.118C37.7939 371.118 39.7286 369.414 39.7286 367.285C39.7122 365.173 37.7775 363.453 35.4165 363.453Z" fill="white" stroke="#5A5A5A" stroke-width="0.5"/>
<path d="M17.2826 374.066L22.5457 374.066C23.1524 374.066 23.6442 373.574 23.6442 372.969L23.6442 361.685C23.6442 361.079 23.1524 360.587 22.5457 360.587L17.2826 360.587C16.676 360.587 16.1841 361.079 16.1841 361.685L16.1841 372.952C16.1841 373.574 16.676 374.066 17.2826 374.066Z" fill="white" stroke="#5A5A5A" stroke-width="0.5"/>
<path d="M19.906 367.973C20.3159 367.973 20.6274 367.679 20.6274 367.335C20.6438 366.974 20.3159 366.68 19.906 366.68C19.4962 366.68 19.1847 366.974 19.1847 367.318C19.2011 367.695 19.5126 367.99 19.906 367.973Z" fill="white" stroke="#5A5A5A" stroke-width="0.5"/>
<path d="M17.6531 404.732L29.9611 404.732C30.8169 404.732 31.5014 404.048 31.5014 403.194L31.5014 384.674C31.5014 383.82 30.8169 383.136 29.9611 383.136L17.6531 383.136C16.7974 383.136 16.1128 383.82 16.1128 384.674L16.1128 403.194C16.1128 404.034 16.7974 404.732 17.6531 404.732Z" fill="white" stroke="#5A5A5A" stroke-width="0.5"/>
<path d="M22.3452 402.809L24.242 402.809C26.7379 402.809 28.763 400.786 28.763 398.293L28.763 389.575C28.763 387.082 26.7379 385.059 24.242 385.059L22.3452 385.059C19.8493 385.059 17.8242 387.082 17.8242 389.575L17.8242 398.293C17.8242 400.786 19.8493 402.809 22.3452 402.809Z" fill="white" stroke="#5A5A5A" stroke-width="0.5"/>
<path d="M20.2344 394.889C20.7779 394.889 21.2184 394.461 21.2184 393.934C21.2184 393.407 20.7779 392.98 20.2344 392.98C19.691 392.98 19.2504 393.407 19.2504 393.934C19.2504 394.461 19.691 394.889 20.2344 394.889Z" fill="white" stroke="#5A5A5A" stroke-width="0.5"/>
<path d="M17.4518 419.43L77.5725 419.43C78.3424 419.43 78.9583 420.046 78.9583 420.815L78.9583 444.682C78.9583 445.451 78.3424 446.066 77.5725 446.066L17.4518 446.066C16.6819 446.066 16.066 445.451 16.066 444.682L16.066 420.815C16.066 420.046 16.6959 419.43 17.4518 419.43Z" fill="white" stroke="#5A5A5A" stroke-width="0.5"/>
<path d="M75.2626 429.512L75.2626 435.999C75.2626 439.76 72.2111 442.794 68.4596 442.794L21.119 442.794C20.1951 442.794 19.4532 442.053 19.4532 441.131L19.4532 424.352C19.4532 423.43 20.1951 422.689 21.119 422.689L68.4456 422.689C72.2111 422.703 75.2626 425.751 75.2626 429.512Z" fill="white" stroke="#5A5A5A" stroke-width="0.5"/>
<path d="M25.0664 432.28C25.0664 431.531 24.4335 430.923 23.6527 430.923C22.872 430.923 22.239 431.531 22.239 432.28C22.239 433.029 22.872 433.636 23.6527 433.636C24.4335 433.636 25.0664 433.029 25.0664 432.28Z" fill="white" stroke="#5A5A5A" stroke-width="0.5"/>
<path d="M82.5875 361.024L82.5875 339.014L61 339L61.014 361.01L82.5875 361.024Z" fill="white" stroke="#5A5A5A" stroke-width="0.5"/>
<path d="M66.257 350.005C66.257 346.891 68.7317 344.377 71.7937 344.377C74.8557 344.377 77.3304 346.891 77.3304 350.019C77.3304 353.133 74.8557 355.675 71.7937 355.675C68.7317 355.661 66.257 353.119 66.257 350.005Z" stroke="#5A5A5A" stroke-width="0.5"/>
<path d="M71.7937 354.125C70.6752 354.139 69.6685 353.678 68.9415 352.924C68.2145 352.17 67.7671 351.136 67.7531 350.019M71.7797 345.885C70.6752 345.885 69.6685 346.346 68.9275 347.086C68.2005 347.84 67.7391 348.86 67.7391 350.005L71.7797 345.885ZM71.7937 354.125C72.8983 354.125 73.9049 353.664 74.6459 352.924C75.373 352.17 75.8204 351.136 75.8204 350.005L71.7937 354.125ZM71.7797 345.885C72.9122 345.885 73.9189 346.346 74.632 347.086L74.6459 347.1C75.359 347.84 75.8204 348.86 75.8204 349.991L71.7797 345.885Z" stroke="#5A5A5A" stroke-width="0.5"/>
<path d="M325.105 302.425L326.286 302.409L329.352 302.425L336.943 302.425L336.943 292.468L325.105 292.468C322.089 292.468 319.629 294.712 319.629 297.463C319.629 300.182 322.089 302.425 325.105 302.425Z" fill="white" stroke="#5A5A5A" stroke-width="0.5"/>
<path d="M325.171 301.279L326.106 301.279L333.664 301.279L333.664 293.598L326.106 293.598L325.171 293.615C322.794 293.615 320.859 295.318 320.859 297.447C320.875 299.559 322.81 301.279 325.171 301.279Z" fill="white" stroke="#5A5A5A" stroke-width="0.5"/>
<path d="M343.305 290.667L338.042 290.667C337.435 290.667 336.943 291.158 336.943 291.764L336.943 303.048C336.943 303.654 337.435 304.145 338.042 304.145L343.305 304.145C343.911 304.145 344.403 303.654 344.403 303.048L344.403 291.78C344.403 291.158 343.911 290.667 343.305 290.667Z" fill="white" stroke="#5A5A5A" stroke-width="0.5"/>
<path d="M340.681 296.759C340.271 296.759 339.96 297.054 339.96 297.398C339.944 297.758 340.271 298.053 340.681 298.053C341.091 298.053 341.403 297.758 341.403 297.414C341.386 297.037 341.075 296.743 340.681 296.759Z" fill="white" stroke="#5A5A5A" stroke-width="0.5"/>
<path d="M342.934 260L330.626 260C329.771 260 329.086 260.684 329.086 261.539L329.086 280.058C329.086 280.913 329.771 281.596 330.626 281.596L342.934 281.596C343.79 281.596 344.475 280.913 344.475 280.058L344.475 261.539C344.475 260.698 343.79 260 342.934 260Z" fill="white" stroke="#5A5A5A" stroke-width="0.5"/>
<path d="M338.242 261.923L336.345 261.923C333.85 261.923 331.824 263.946 331.824 266.439L331.824 275.157C331.824 277.65 333.85 279.673 336.345 279.673L338.242 279.673C340.738 279.673 342.763 277.65 342.763 275.157L342.763 266.439C342.763 263.946 340.738 261.923 338.242 261.923Z" fill="white" stroke="#5A5A5A" stroke-width="0.5"/>
<path d="M340.353 269.843C339.81 269.843 339.369 270.271 339.369 270.798C339.369 271.325 339.81 271.752 340.353 271.752C340.896 271.752 341.337 271.325 341.337 270.798C341.337 270.271 340.896 269.843 340.353 269.843Z" fill="white" stroke="#5A5A5A" stroke-width="0.5"/>
<path d="M262 243L262 265.01L283.587 265.024L283.573 243.014L262 243Z" fill="white" stroke="#5A5A5A" stroke-width="0.5"/>
<path d="M278.33 254.019C278.33 257.133 275.856 259.647 272.794 259.647C269.732 259.647 267.257 257.133 267.257 254.005C267.257 250.891 269.732 248.349 272.794 248.349C275.856 248.363 278.33 250.905 278.33 254.019Z" stroke="#5A5A5A" stroke-width="0.5"/>
<path d="M272.794 249.899C273.912 249.885 274.919 250.346 275.646 251.1C276.373 251.854 276.82 252.888 276.834 254.005M272.808 258.139C273.912 258.139 274.919 257.678 275.66 256.938C276.387 256.183 276.848 255.164 276.848 254.019L272.808 258.139ZM272.794 249.899C271.689 249.899 270.682 250.36 269.941 251.1C269.214 251.854 268.767 252.888 268.767 254.019L272.794 249.899ZM272.808 258.139C271.675 258.139 270.668 257.678 269.955 256.938L269.941 256.924C269.228 256.183 268.767 255.164 268.767 254.033L272.808 258.139Z" stroke="#5A5A5A" stroke-width="0.5"/>
<rect width="8" height="49" transform="matrix(-1 8.74228e-08 8.74228e-08 1 108 413)" fill="#5A5A5A"/>
<rect width="8" height="96" transform="matrix(-4.37114e-08 1 1 4.37114e-08 12 332)" fill="#5A5A5A"/>
<rect width="8" height="44" transform="matrix(-1 -8.74228e-08 -8.74228e-08 1 262 235)" fill="#5A5A5A"/>
<rect width="16" height="16" transform="matrix(-1 -8.74228e-08 -8.74228e-08 1 291 327)" fill="#5A5A5A"/>
<rect width="8" height="90" transform="matrix(-4.37114e-08 -1 -1 4.37114e-08 344 243)" fill="#5A5A5A"/>
<rect width="8" height="65" transform="matrix(1 0 0 -1 100 385)" fill="#5A5A5A"/>
<rect width="8" height="14" transform="matrix(1 0 0 -1 100 290)" fill="#5A5A5A"/>
<rect width="16" height="92" transform="matrix(-4.37114e-08 -1 -1 4.37114e-08 278 462)" fill="#5A5A5A"/>
<rect width="16" height="18" transform="matrix(-4.37114e-08 -1 -1 4.37114e-08 157 462)" fill="#5A5A5A"/>
<rect width="16" height="224" transform="matrix(-1 8.74228e-08 8.74228e-08 1 291 473)" fill="#5A5A5A"/>
<rect width="16" height="102" transform="matrix(-4.37114e-08 -1 -1 4.37114e-08 118 279)" fill="#5A5A5A"/>
<rect width="16" height="57" transform="matrix(-4.37114e-08 -1 -1 4.37114e-08 262 279)" fill="#5A5A5A"/>
<rect width="16" height="121" transform="matrix(-4.37114e-08 -1 -1 4.37114e-08 360 333)" fill="#5A5A5A"/>
<rect width="16" height="109" transform="matrix(-1 8.74228e-08 8.74228e-08 1 291 376)" fill="#5A5A5A"/>
<circle cx="183.5" cy="368.5" r="39.5" fill="#5A5A5A"/>
<path d="M153.45 367.54V365.2L155.79 363.4H157.68V376H155.61V365.92L153.45 367.54ZM161.461 374.488C160.321 373.24 159.751 371.644 159.751 369.7C159.751 367.756 160.321 366.16 161.461 364.912C162.601 363.664 163.981 363.04 165.601 363.04C167.221 363.04 168.601 363.664 169.741 364.912C170.881 366.16 171.451 367.756 171.451 369.7C171.451 371.644 170.881 373.24 169.741 374.488C168.601 375.736 167.221 376.36 165.601 376.36C163.981 376.36 162.601 375.736 161.461 374.488ZM162.937 366.244C162.253 367.06 161.911 368.212 161.911 369.7C161.911 371.188 162.253 372.34 162.937 373.156C163.633 373.972 164.521 374.38 165.601 374.38C166.681 374.38 167.563 373.972 168.247 373.156C168.943 372.34 169.291 371.188 169.291 369.7C169.291 368.212 168.943 367.06 168.247 366.244C167.563 365.428 166.681 365.02 165.601 365.02C164.521 365.02 163.633 365.428 162.937 366.244ZM174.786 374.488C173.646 373.24 173.076 371.644 173.076 369.7C173.076 367.756 173.646 366.16 174.786 364.912C175.926 363.664 177.306 363.04 178.926 363.04C180.546 363.04 181.926 363.664 183.066 364.912C184.206 366.16 184.776 367.756 184.776 369.7C184.776 371.644 184.206 373.24 183.066 374.488C181.926 375.736 180.546 376.36 178.926 376.36C177.306 376.36 175.926 375.736 174.786 374.488ZM176.262 366.244C175.578 367.06 175.236 368.212 175.236 369.7C175.236 371.188 175.578 372.34 176.262 373.156C176.958 373.972 177.846 374.38 178.926 374.38C180.006 374.38 180.888 373.972 181.572 373.156C182.268 372.34 182.616 371.188 182.616 369.7C182.616 368.212 182.268 367.06 181.572 366.244C180.888 365.428 180.006 365.02 178.926 365.02C177.846 365.02 176.958 365.428 176.262 366.244ZM186.31 375.01C186.31 374.65 186.424 374.35 186.652 374.11C186.892 373.87 187.186 373.75 187.534 373.75C187.93 373.75 188.242 373.894 188.47 374.182C188.71 374.47 188.83 374.896 188.83 375.46C188.83 376.384 188.608 377.092 188.164 377.584C187.732 378.088 187.144 378.34 186.4 378.34V377.44C186.76 377.44 187.042 377.338 187.246 377.134C187.462 376.942 187.57 376.684 187.57 376.36V376.252C187.558 376.24 187.552 376.216 187.552 376.18V376.126L187.444 376.162C187.408 376.174 187.33 376.18 187.21 376.18C186.97 376.18 186.76 376.072 186.58 375.856C186.4 375.64 186.31 375.358 186.31 375.01ZM190.175 371.86C190.175 371.284 190.301 370.684 190.553 370.06C190.817 369.424 191.069 368.926 191.309 368.566C191.561 368.194 191.903 367.732 192.335 367.18L195.215 363.4H197.645L194.927 366.946L194.135 367.63V367.72L194.495 367.594C194.855 367.498 195.245 367.45 195.665 367.45C196.841 367.45 197.837 367.876 198.653 368.728C199.481 369.568 199.895 370.612 199.895 371.86C199.895 373.132 199.439 374.2 198.527 375.064C197.615 375.928 196.451 376.36 195.035 376.36C193.619 376.36 192.455 375.928 191.543 375.064C190.631 374.2 190.175 373.132 190.175 371.86ZM193.073 369.988C192.581 370.468 192.335 371.092 192.335 371.86C192.335 372.628 192.581 373.258 193.073 373.75C193.565 374.23 194.219 374.47 195.035 374.47C195.851 374.47 196.505 374.23 196.997 373.75C197.489 373.258 197.735 372.628 197.735 371.86C197.735 371.092 197.489 370.468 196.997 369.988C196.505 369.496 195.851 369.25 195.035 369.25C194.219 369.25 193.565 369.496 193.073 369.988ZM201.339 372.49H203.499C203.595 372.862 203.757 373.18 203.985 373.444C204.513 374.068 205.281 374.38 206.289 374.38C207.093 374.38 207.729 374.164 208.197 373.732C208.665 373.3 208.899 372.736 208.899 372.04C208.899 371.308 208.665 370.72 208.197 370.276C207.729 369.832 207.093 369.61 206.289 369.61C205.545 369.61 204.915 369.808 204.399 370.204C204.195 370.36 204.015 370.552 203.859 370.78H201.879L202.419 363.4H210.069V365.38H204.129L203.859 368.62H203.949C204.141 368.428 204.363 368.266 204.615 368.134C205.179 367.798 205.857 367.63 206.649 367.63C207.909 367.63 208.959 368.05 209.799 368.89C210.639 369.73 211.059 370.78 211.059 372.04C211.059 373.276 210.615 374.308 209.727 375.136C208.851 375.952 207.705 376.36 206.289 376.36C204.441 376.36 203.067 375.718 202.167 374.434C201.783 373.87 201.507 373.222 201.339 372.49Z" fill="white"/>
<rect width="16" height="17" transform="matrix(-4.37114e-08 -1 -1 4.37114e-08 169 279)" fill="#5A5A5A"/>
<rect width="16" height="303" transform="matrix(-1 8.74228e-08 8.74228e-08 1 360 58)" fill="#5A5A5A"/>
<rect width="30" height="106" transform="matrix(-4.37114e-08 -1 -1 4.37114e-08 223 88)" fill="#5A5A5A"/>
<path d="M196.243 0.250161L317.378 0.320482L317.423 5.32395L196.243 5.32396L196.243 0.250161Z" stroke="#5A5A5A" stroke-width="0.5" stroke-miterlimit="10"/>
<rect width="5.57395" height="82.4945" transform="matrix(-1 0 0 1 191.574 0)" fill="#5A5A5A"/>
<rect width="5.57395" height="82.4945" transform="matrix(-1 0 0 1 329.938 0)" fill="#5A5A5A"/>
<rect width="5.57395" height="16.7219" transform="matrix(4.37114e-08 1 1 -4.37114e-08 310.987 0)" fill="#5A5A5A"/>
<rect width="5.57395" height="13.3775" transform="matrix(4.37114e-08 1 1 -4.37114e-08 187 0)" fill="#5A5A5A"/>
<path d="M198.446 74.4406L265.922 74.3706L265.947 69.367L198.446 69.367L198.446 74.4406Z" stroke="#5A5A5A" stroke-width="0.5" stroke-miterlimit="10"/>
<path d="M198.446 63.2927L265.922 63.2226L265.947 58.219L198.446 58.219L198.446 63.2927Z" stroke="#5A5A5A" stroke-width="0.5" stroke-miterlimit="10"/>
<line x1="296.553" y1="70.6618" x2="266.454" y2="88.4985" stroke="#5A5A5A"/>
<rect width="30" height="68" transform="matrix(-4.37114e-08 -1 -1 4.37114e-08 360 88)" fill="#5A5A5A"/>
<rect width="30" height="77" transform="matrix(-4.37114e-08 -1 -1 4.37114e-08 189 697)" fill="#5A5A5A"/>
<path d="M218.25 696.75L278.726 696.687L278.749 692.25L218.25 692.25L218.25 696.75Z" stroke="#5A5A5A" stroke-width="0.5" stroke-miterlimit="10"/>
<path d="M218.25 686.75L278.726 686.687L278.749 682.25L218.25 682.25L218.25 686.75Z" stroke="#5A5A5A" stroke-width="0.5" stroke-miterlimit="10"/>
<rect width="5" height="74" transform="matrix(1 0 0 -1 275 759)" fill="#5A5A5A"/>
<rect width="5" height="74" transform="matrix(1 0 0 -1 166 759)" fill="#5A5A5A"/>
<rect width="5" height="110" transform="matrix(-4.37114e-08 -1 -1 4.37114e-08 277 759)" fill="#5A5A5A"/>
<rect width="30" height="24" transform="matrix(-4.37114e-08 -1 -1 4.37114e-08 276 697)" fill="#5A5A5A"/>
<path d="M296.75 87.7498L50.3492 87.5981L50.2521 76.25L296.75 76.25L296.75 87.7498Z" stroke="#5A5A5A" stroke-width="0.5" stroke-miterlimit="10"/>
<path d="M141.75 696.75L16.3006 696.598L16.2511 685.25L141.75 685.25L141.75 696.75Z" stroke="#5A5A5A" stroke-width="0.5" stroke-miterlimit="10"/>
<path d="M296.75 69.7498L50.3492 69.5981L50.2521 58.25L296.75 58.25L296.75 69.7498Z" stroke="#5A5A5A" stroke-width="0.5" stroke-miterlimit="10"/>
<path d="M141.75 678.75L16.3006 678.598L16.2511 667.25L141.75 667.25L141.75 678.75Z" stroke="#5A5A5A" stroke-width="0.5" stroke-miterlimit="10"/>
<line y1="-0.5" x2="28.2312" y2="-0.5" transform="matrix(0.38964 -0.920967 -0.920967 -0.38964 107 415)" stroke="#5A5A5A"/>
<line x1="110.743" y1="447.571" x2="135.743" y2="432.571" stroke="#5A5A5A"/>
<line x1="188.743" y1="681.571" x2="213.743" y2="666.571" stroke="#5A5A5A"/>
<line y1="-0.5" x2="29.1548" y2="-0.5" transform="matrix(-0.857493 -0.514496 -0.514496 0.857493 188 448)" stroke="#5A5A5A"/>
<line x1="107.46" y1="288.805" x2="118.46" y2="314.805" stroke="#5A5A5A"/>
<line x1="227.564" y1="310.755" x2="245.564" y2="278.755" stroke="#5A5A5A"/>
<line y1="-0.5" x2="44.7772" y2="-0.5" transform="matrix(0.870978 0.491321 0.491321 -0.870978 114 276)" stroke="#5A5A5A"/>
<line x1="212.246" y1="276.435" x2="173.246" y2="298.435" stroke="#5A5A5A"/>
<line y1="-0.5" x2="40.7063" y2="-0.5" transform="matrix(0.466759 0.884385 0.884385 -0.466759 288 336)" stroke="#5A5A5A"/>
<path d="M35.298 296.241L34.1175 296.258L31.0515 296.241L23.4602 296.241L23.4602 306.198L35.298 306.198C38.3148 306.198 40.7742 303.955 40.7742 301.203C40.7742 298.485 38.3148 296.241 35.298 296.241Z" fill="white" stroke="#5A5A5A" stroke-width="0.5"/>
<path d="M35.2324 297.387L34.2979 297.387L26.7394 297.387L26.7394 305.068L34.2979 305.068L35.2324 305.052C37.6098 305.052 39.5445 303.349 39.5445 301.22C39.5281 299.107 37.5934 297.387 35.2324 297.387Z" fill="white" stroke="#5A5A5A" stroke-width="0.5"/>
<path d="M17.0986 308L22.3616 308C22.9683 308 23.4601 307.509 23.4601 306.903L23.4601 295.619C23.4601 295.013 22.9683 294.521 22.3616 294.521L17.0986 294.521C16.4919 294.521 16 295.013 16 295.619L16 306.886C16 307.509 16.4919 308 17.0986 308Z" fill="white" stroke="#5A5A5A" stroke-width="0.5"/>
<path d="M19.722 301.908C20.1318 301.908 20.4433 301.613 20.4433 301.269C20.4597 300.909 20.1318 300.614 19.722 300.614C19.3121 300.614 19.0006 300.909 19.0006 301.252C19.017 301.629 19.3285 301.924 19.722 301.908Z" fill="white" stroke="#5A5A5A" stroke-width="0.5"/>
<path d="M84.1451 330.46L84.1451 318.152C84.1451 317.296 83.4613 316.611 82.6066 316.611L64.0872 316.611C63.2325 316.611 62.5487 317.296 62.5487 318.152L62.5487 330.46C62.5487 331.315 63.2325 332 64.0872 332L82.6066 332C83.4471 332 84.1451 331.315 84.1451 330.46Z" fill="white" stroke="#5A5A5A" stroke-width="0.5"/>
<path d="M82.2221 325.768L82.2221 323.871C82.2221 321.375 80.1992 319.35 77.7062 319.35L68.9879 319.35C66.4949 319.35 64.472 321.375 64.472 323.871L64.472 325.768C64.472 328.263 66.4949 330.289 68.9879 330.289L77.7062 330.289C80.1992 330.289 82.2221 328.263 82.2221 325.768Z" fill="white" stroke="#5A5A5A" stroke-width="0.5"/>
<path d="M74.3018 327.878C74.3018 327.335 73.8745 326.894 73.3473 326.894C72.8202 326.894 72.3929 327.335 72.3929 327.878C72.3929 328.422 72.8202 328.862 73.3473 328.862C73.8745 328.862 74.3018 328.422 74.3018 327.878Z" fill="white" stroke="#5A5A5A" stroke-width="0.5"/>
<path d="M344.099 171.325L319.104 171.325L319.104 147L344.099 147L344.099 171.325Z" fill="white" stroke="#5A5A5A" stroke-width="0.5"/>
<path d="M321.13 170.398L340.583 170.398C341.321 170.398 341.714 170.006 341.714 169.236L341.714 149.089C341.714 148.303 341.337 147.926 340.583 147.926L321.13 147.926C320.377 147.911 320 148.303 320 149.073L320 169.22C319.984 170.006 320.377 170.398 321.13 170.398Z" fill="white" stroke="#5A5A5A" stroke-width="0.5"/>
<path d="M322.919 163.897C322.935 162.107 324.348 160.646 326.091 160.646C327.849 160.646 329.262 162.107 329.262 163.897C329.262 165.703 327.849 167.147 326.091 167.147C324.332 167.147 322.919 165.703 322.919 163.897Z" stroke="#5A5A5A" stroke-width="0.5"/>
<path d="M322.95 154.271C322.965 152.481 324.378 151.02 326.121 151.02C327.88 151.02 329.293 152.481 329.293 154.271C329.293 156.077 327.88 157.522 326.121 157.522C324.363 157.537 322.934 156.077 322.95 154.271Z" stroke="#5A5A5A" stroke-width="0.5"/>
<path d="M331.963 154.271C331.963 152.465 333.376 151.02 335.135 151.02C336.893 151.02 338.306 152.481 338.306 154.271C338.291 156.061 336.878 157.522 335.135 157.522C333.392 157.522 331.963 156.061 331.963 154.271Z" stroke="#5A5A5A" stroke-width="0.5"/>
<path d="M331.963 163.897C331.963 162.091 333.376 160.646 335.135 160.646C336.893 160.646 338.306 162.107 338.306 163.897C338.291 165.687 336.878 167.147 335.135 167.147C333.392 167.147 331.963 165.687 331.963 163.897Z" stroke="#5A5A5A" stroke-width="0.5"/>
<path d="M344.088 210.626L320 210.626L320 234.325L344.104 234.325L344.088 210.626Z" fill="white" stroke="#5A5A5A" stroke-width="0.5"/>
<path d="M337.482 212.429L324.165 212.429C323.423 212.429 323.059 212.793 323.059 213.55L323.059 231.158C323.059 231.885 323.423 232.264 324.15 232.279L337.482 232.264C338.209 232.279 338.573 231.9 338.573 231.158L338.573 213.55C338.603 212.808 338.225 212.429 337.482 212.429Z" fill="white" stroke="#5A5A5A" stroke-width="0.5"/>
<path d="M342.24 222.354C342.225 223.278 341.528 224.021 340.649 224.021L333.665 223.369L333.65 223.354C333.12 223.354 332.695 222.915 332.695 222.354C332.695 221.793 333.12 221.354 333.665 221.339L340.649 220.687C341.513 220.687 342.225 221.43 342.24 222.354Z" stroke="#5A5A5A" stroke-width="0.5"/>
<mask id="path-105-inside-1_35_9773" fill="white">
<path fill-rule="evenodd" clip-rule="evenodd" d="M341.557 223.733L337.755 223.369C337.225 223.354 336.785 222.915 336.8 222.339C336.8 221.778 337.225 221.354 337.755 221.339L341.557 220.975"/>
</mask>
<path fill-rule="evenodd" clip-rule="evenodd" d="M341.557 223.733L337.755 223.369C337.225 223.354 336.785 222.915 336.8 222.339C336.8 221.778 337.225 221.354 337.755 221.339L341.557 220.975" fill="white"/>
<path d="M337.755 223.369L337.769 222.87L337.786 222.87L337.802 222.872L337.755 223.369ZM336.8 222.339L337.301 222.339L337.3 222.352L336.8 222.339ZM337.755 221.339L337.802 221.837L337.786 221.838L337.769 221.839L337.755 221.339ZM341.51 224.231L337.707 223.867L337.802 222.872L341.605 223.235L341.51 224.231ZM337.741 223.869C336.936 223.846 336.278 223.178 336.301 222.326L337.3 222.352C337.292 222.652 337.514 222.862 337.769 222.87L337.741 223.869ZM336.3 222.339C336.3 221.51 336.938 220.862 337.741 220.839L337.769 221.839C337.511 221.846 337.3 222.047 337.3 222.339L336.3 222.339ZM337.707 220.841L341.51 220.478L341.605 221.473L337.802 221.837L337.707 220.841Z" fill="#5A5A5A" mask="url(#path-105-inside-1_35_9773)"/>
<rect width="2" height="11" transform="matrix(-1 -8.74228e-08 -8.74228e-08 1 256 156)" fill="#5A5A5A"/>
<rect width="2" height="11" transform="matrix(-1 -8.74228e-08 -8.74228e-08 1 256 139)" fill="#5A5A5A"/>
<rect width="2" height="11" transform="matrix(-1 -8.74228e-08 -8.74228e-08 1 256 122)" fill="#5A5A5A"/>
<rect width="2" height="11" transform="matrix(-1 -8.74228e-08 -8.74228e-08 1 256 105)" fill="#5A5A5A"/>
<rect width="2" height="11" transform="matrix(-1 -8.74228e-08 -8.74228e-08 1 256 88)" fill="#5A5A5A"/>
<rect width="2" height="11" transform="matrix(-1 -8.74228e-08 -8.74228e-08 1 256 173)" fill="#5A5A5A"/>
<rect width="2" height="11" transform="matrix(-1 -8.74228e-08 -8.74228e-08 1 256 190)" fill="#5A5A5A"/>
<rect width="2" height="11" transform="matrix(-1 -8.74228e-08 -8.74228e-08 1 256 207)" fill="#5A5A5A"/>
<rect width="2" height="11" transform="matrix(-1 -8.74228e-08 -8.74228e-08 1 256 224)" fill="#5A5A5A"/>
</svg>
