<svg width="344" height="556" viewBox="0 0 344 556" fill="none" xmlns="http://www.w3.org/2000/svg">
<path d="M330 474.213L65.9999 474.213L66 131.213L330 117.213L330 474.213Z" fill="#FFF8BA"/>
<path d="M262 148.213L70.9999 148.213L199 23.2133L262 23.2133L262 148.213Z" fill="#FFF8BA"/>
<path d="M267 120V300L328 297.143V120H267Z" fill="#FFC79F"/>
<path d="M326.678 300.411L269.322 300.411C268.588 300.411 268 299.824 268 299.09L268 276.321C268 275.587 268.588 275 269.322 275L326.678 275C327.412 275 328 275.587 328 276.321L328 299.09C328 299.824 327.399 300.411 326.678 300.411Z" fill="white" stroke="#5A5A5A" stroke-width="0.5"/>
<path d="M271.526 290.793L271.526 284.604C271.526 281.016 274.437 278.121 278.016 278.121L323.179 278.121C324.061 278.121 324.769 278.828 324.769 279.708L324.769 295.715C324.769 296.595 324.061 297.302 323.179 297.302L278.029 297.302C274.437 297.289 271.526 294.381 271.526 290.793Z" fill="white" stroke="#5A5A5A" stroke-width="0.5"/>
<path d="M319.413 288.152C319.413 288.867 320.017 289.446 320.762 289.446C321.507 289.446 322.111 288.867 322.111 288.152C322.111 287.438 321.507 286.858 320.762 286.858C320.017 286.858 319.413 287.438 319.413 288.152Z" fill="white" stroke="#5A5A5A" stroke-width="0.5"/>
<rect x="66" y="504.213" width="30" height="96" transform="rotate(-180 66 504.213)" fill="#5A5A5A"/>
<rect x="101" y="474" width="30" height="59" transform="rotate(90 101 474)" fill="#5A5A5A"/>
<rect x="225" y="474.213" width="30" height="73" transform="rotate(90 225 474.213)" fill="#5A5A5A"/>
<rect x="344" y="474" width="30" height="62" transform="rotate(90 344 474)" fill="#5A5A5A"/>
<rect x="66" y="356.213" width="30" height="111" transform="rotate(-180 66 356.213)" fill="#5A5A5A"/>
<rect x="278" y="0.213257" width="25" height="88" transform="rotate(90 278 0.213257)" fill="#5A5A5A"/>
<rect x="66" y="191.213" width="30" height="38" transform="rotate(-180 66 191.213)" fill="#5A5A5A"/>
<path d="M169.75 555.75L88.282 555.687L88.2517 551.25L169.75 551.25L169.75 555.75Z" stroke="#5A5A5A" stroke-width="0.5" stroke-miterlimit="10"/>
<rect width="5" height="74" transform="matrix(1 -8.74228e-08 -8.74228e-08 -1 176 556)" fill="#5A5A5A"/>
<rect width="5" height="74" transform="matrix(1 -8.74228e-08 -8.74228e-08 -1 77 556)" fill="#5A5A5A"/>
<rect width="5" height="15" transform="matrix(-1.31134e-07 -1 -1 1.31134e-07 94 556)" fill="#5A5A5A"/>
<rect width="5" height="12" transform="matrix(-1.31134e-07 -1 -1 1.31134e-07 181 556)" fill="#5A5A5A"/>
<path d="M190.75 489.25L130.274 489.313L130.251 493.75L190.75 493.75L190.75 489.25Z" stroke="#5A5A5A" stroke-width="0.5" stroke-miterlimit="10"/>
<path d="M190.75 499.25L130.274 499.313L130.251 503.75L190.75 503.75L190.75 499.25Z" stroke="#5A5A5A" stroke-width="0.5" stroke-miterlimit="10"/>
<line x1="100.745" y1="488.57" x2="127.745" y2="472.57" stroke="#5A5A5A"/>
<rect x="57.1299" y="174.297" width="30" height="216.493" transform="rotate(-135 57.1299 174.297)" fill="#5A5A5A"/>
<rect x="328" y="296" width="16" height="186" fill="#5A5A5A"/>
<rect x="278" y="66" width="16" height="41" transform="rotate(-180 278 66)" fill="#5A5A5A"/>
<rect x="336" y="112" width="11" height="76" transform="rotate(90 336 112)" fill="#5A5A5A"/>
<rect x="277" y="120" width="17" height="20" transform="rotate(-180 277 120)" fill="#5A5A5A"/>
<rect x="344" y="300.213" width="16" height="184" transform="rotate(-180 344 300.213)" fill="#5A5A5A"/>
<path d="M328 195.213L328 203.213L265 203.213L265 195.213L328 195.213Z" fill="#5A5A5A"/>
<path d="M215.753 131.809L210.096 137.466L148.919 76.2887L154.575 70.6319L215.753 131.809Z" fill="#5A5A5A"/>
<path d="M260 163L268 163L268 237L260 237L260 163Z" fill="#5A5A5A"/>
<path d="M208 132L216 132L216 168L208 168L208 132Z" fill="#5A5A5A"/>
<path d="M208.25 265.75L208.275 224.709L209.75 224.697L209.75 265.75L208.25 265.75Z" stroke="#5A5A5A" stroke-width="0.5" stroke-miterlimit="10"/>
<path d="M208.25 197.306L208.275 156.265L209.75 156.252L209.75 197.306L208.25 197.306Z" stroke="#5A5A5A" stroke-width="0.5" stroke-miterlimit="10"/>
<path d="M206.25 231.528L206.275 190.487L207.75 190.474L207.75 231.528L206.25 231.528Z" stroke="#5A5A5A" stroke-width="0.5" stroke-miterlimit="10"/>
<path d="M260 103L268 103L268 136L260 136L260 103Z" fill="#5A5A5A"/>
<path d="M260 266L268 266L268 308L260 308L260 266Z" fill="#5A5A5A"/>
<path d="M268 266L268 274L208 274L208 266L268 266Z" fill="#5A5A5A"/>
<path d="M216 268L208 268L208 250L216 250L216 268Z" fill="#5A5A5A"/>
<path d="M330 300L330 308L267 308L267 300L330 300Z" fill="#5A5A5A"/>
<path d="M297.75 474.25L173.3 474.402L173.251 485.75L297.75 485.75L297.75 474.25Z" stroke="#5A5A5A" stroke-width="0.5" stroke-miterlimit="10"/>
<path d="M36.2501 174.25L36.4019 424.649L47.75 424.748L47.75 174.25L36.2501 174.25Z" stroke="#5A5A5A" stroke-width="0.5" stroke-miterlimit="10"/>
<path d="M297.75 492.25L173.3 492.402L173.251 503.75L297.75 503.75L297.75 492.25Z" stroke="#5A5A5A" stroke-width="0.5" stroke-miterlimit="10"/>
<path d="M54.2501 174.25L54.4019 424.649L65.75 424.748L65.75 174.25L54.2501 174.25Z" stroke="#5A5A5A" stroke-width="0.5" stroke-miterlimit="10"/>
<line y1="-0.5" x2="30.0167" y2="-0.5" transform="matrix(-0.499722 -0.866186 -0.866186 0.499722 262 267.213)" stroke="#5A5A5A"/>
<line x1="270.571" y1="102.743" x2="291.571" y2="67.7428" stroke="#5A5A5A"/>
<rect width="2" height="11" transform="matrix(-1.31134e-07 -1 -1 1.31134e-07 204 189.213)" fill="#5A5A5A"/>
<rect width="2" height="11" transform="matrix(-1.31134e-07 -1 -1 1.31134e-07 153 189.213)" fill="#5A5A5A"/>
<rect width="2" height="11" transform="matrix(-1.31134e-07 -1 -1 1.31134e-07 170 189.213)" fill="#5A5A5A"/>
<rect width="2" height="11" transform="matrix(-1.31134e-07 -1 -1 1.31134e-07 187 189.213)" fill="#5A5A5A"/>
<rect width="2" height="11" transform="matrix(-1.31134e-07 -1 -1 1.31134e-07 136 189.213)" fill="#5A5A5A"/>
<rect width="2" height="11" transform="matrix(-1.31134e-07 -1 -1 1.31134e-07 119 189.213)" fill="#5A5A5A"/>
<rect width="2" height="11" transform="matrix(-1.31134e-07 -1 -1 1.31134e-07 102 189.213)" fill="#5A5A5A"/>
<rect width="2" height="11" transform="matrix(-1.31134e-07 -1 -1 1.31134e-07 85 189.213)" fill="#5A5A5A"/>
<path d="M185.799 113.131L168.125 130.805L185.325 148.005L203 130.331L185.799 113.131Z" fill="white" stroke="#5A5A5A" stroke-width="0.5"/>
<path d="M170.213 130.027L183.969 116.272C184.49 115.75 185.046 115.75 185.59 116.294L199.836 130.541C200.391 131.096 200.391 131.629 199.859 132.162L186.103 145.917C185.581 146.461 185.037 146.45 184.493 145.906L170.247 131.659C169.68 131.115 169.68 130.56 170.213 130.027Z" fill="white" stroke="#5A5A5A" stroke-width="0.5"/>
<path d="M176.075 133.359C177.352 134.614 179.384 134.647 180.617 133.415C181.86 132.172 181.826 130.14 180.561 128.874C179.284 127.597 177.263 127.575 176.019 128.818C174.776 130.061 174.798 132.082 176.075 133.359Z" stroke="#5A5A5A" stroke-width="0.5"/>
<path d="M182.904 140.144C184.181 141.399 186.213 141.433 187.445 140.2C188.688 138.957 188.655 136.925 187.389 135.659C186.112 134.382 184.091 134.36 182.848 135.603C181.593 136.836 181.616 138.879 182.904 140.144Z" stroke="#5A5A5A" stroke-width="0.5"/>
<path d="M189.277 133.771C190.554 135.048 192.575 135.07 193.818 133.827C195.062 132.583 195.028 130.551 193.762 129.286C192.485 128.031 190.453 127.997 189.221 129.23C187.989 130.462 188.011 132.505 189.277 133.771Z" stroke="#5A5A5A" stroke-width="0.5"/>
<path d="M182.47 126.964C183.747 128.241 185.768 128.264 187.012 127.02C188.255 125.777 188.221 123.745 186.956 122.479C185.679 121.224 183.647 121.191 182.414 122.423C181.182 123.655 181.205 125.698 182.47 126.964Z" stroke="#5A5A5A" stroke-width="0.5"/>
<path d="M168.629 95.9818L151.596 113.015L134.838 96.2572L151.882 79.2133L168.629 95.9818Z" fill="white" stroke="#5A5A5A" stroke-width="0.5"/>
<path d="M162.683 99.3781L153.266 108.795C152.741 109.319 152.227 109.319 151.691 108.784L139.241 96.3332C138.726 95.8189 138.716 95.2939 139.219 94.769L148.657 85.3526C149.161 84.8277 149.686 84.8384 150.211 85.3634L162.661 97.8139C163.207 98.3175 163.207 98.8532 162.683 99.3781Z" fill="white" stroke="#5A5A5A" stroke-width="0.5"/>
<path d="M159.029 88.9957C158.365 88.3528 157.347 88.3206 156.725 88.9419L152.248 94.3412L152.248 94.3626C151.873 94.7376 151.883 95.3482 152.28 95.7447C152.676 96.1411 153.287 96.1519 153.683 95.7769L159.083 91.2991C159.693 90.6885 159.672 89.66 159.029 88.9957Z" stroke="#5A5A5A" stroke-width="0.5"/>
<mask id="path-62-inside-1_33_7569" fill="white">
<path fill-rule="evenodd" clip-rule="evenodd" d="M157.571 88.5032L155.139 91.4492C154.775 91.8349 154.775 92.4563 155.193 92.8527C155.589 93.2491 156.189 93.2492 156.575 92.885L159.521 90.4532"/>
</mask>
<path fill-rule="evenodd" clip-rule="evenodd" d="M157.571 88.5032L155.139 91.4492C154.775 91.8349 154.775 92.4563 155.193 92.8527C155.589 93.2491 156.189 93.2492 156.575 92.885L159.521 90.4532" fill="white"/>
<path d="M155.139 91.4492L155.503 91.7925L155.514 91.7804L155.525 91.7675L155.139 91.4492ZM155.193 92.8527L155.547 92.499L155.537 92.49L155.193 92.8527ZM156.575 92.885L156.257 92.4994L156.244 92.51L156.232 92.5215L156.575 92.885ZM157.185 88.1849L154.754 91.1309L155.525 91.7675L157.957 88.8215L157.185 88.1849ZM154.776 91.1059C154.223 91.6914 154.23 92.6287 154.849 93.2154L155.537 92.49C155.32 92.2839 155.327 91.9784 155.503 91.7925L154.776 91.1059ZM154.839 93.2063C155.426 93.7927 156.335 93.7998 156.918 93.2485L156.232 92.5215C156.044 92.6986 155.753 92.7056 155.546 92.4991L154.839 93.2063ZM156.893 93.2706L159.839 90.8389L159.203 90.0676L156.257 92.4994L156.893 93.2706Z" fill="#5A5A5A" mask="url(#path-62-inside-1_33_7569)"/>
<path d="M309.476 181.877L310.657 181.86L313.723 181.877L321.314 181.877L321.314 171.919L309.476 171.919C306.459 171.919 304 174.163 304 176.914C304 179.633 306.459 181.877 309.476 181.877Z" fill="white" stroke="#5A5A5A" stroke-width="0.5"/>
<path d="M309.542 180.73L310.476 180.73L318.035 180.73L318.035 173.05L310.476 173.05L309.542 173.066C307.164 173.066 305.229 174.769 305.229 176.898C305.246 179.011 307.181 180.73 309.542 180.73Z" fill="white" stroke="#5A5A5A" stroke-width="0.5"/>
<path d="M327.676 170.118L322.412 170.118C321.806 170.118 321.314 170.609 321.314 171.215L321.314 182.499C321.314 183.105 321.806 183.596 322.412 183.596L327.676 183.596C328.282 183.596 328.774 183.105 328.774 182.499L328.774 171.232C328.774 170.609 328.282 170.118 327.676 170.118Z" fill="white" stroke="#5A5A5A" stroke-width="0.5"/>
<path d="M325.052 176.21C324.642 176.21 324.331 176.505 324.331 176.849C324.314 177.209 324.642 177.504 325.052 177.504C325.462 177.504 325.773 177.209 325.773 176.865C325.757 176.489 325.445 176.194 325.052 176.21Z" fill="white" stroke="#5A5A5A" stroke-width="0.5"/>
<path d="M309.476 255.877L310.657 255.86L313.723 255.877L321.314 255.877L321.314 245.919L309.476 245.919C306.459 245.919 304 248.163 304 250.914C304 253.633 306.459 255.877 309.476 255.877Z" fill="white" stroke="#5A5A5A" stroke-width="0.5"/>
<path d="M309.542 254.73L310.476 254.73L318.035 254.73L318.035 247.05L310.476 247.05L309.542 247.066C307.164 247.066 305.229 248.769 305.229 250.898C305.246 253.011 307.181 254.73 309.542 254.73Z" fill="white" stroke="#5A5A5A" stroke-width="0.5"/>
<path d="M327.676 244.118L322.412 244.118C321.806 244.118 321.314 244.609 321.314 245.215L321.314 256.499C321.314 257.105 321.806 257.596 322.412 257.596L327.676 257.596C328.282 257.596 328.774 257.105 328.774 256.499L328.774 245.232C328.774 244.609 328.282 244.118 327.676 244.118Z" fill="white" stroke="#5A5A5A" stroke-width="0.5"/>
<path d="M325.052 250.21C324.642 250.21 324.331 250.505 324.331 250.849C324.314 251.209 324.642 251.504 325.052 251.504C325.462 251.504 325.773 251.209 325.773 250.865C325.757 250.489 325.445 250.194 325.052 250.21Z" fill="white" stroke="#5A5A5A" stroke-width="0.5"/>
<path d="M314.54 139L326.848 139C327.704 139 328.389 139.684 328.389 140.539L328.389 159.058C328.389 159.913 327.704 160.596 326.848 160.596L314.54 160.596C313.685 160.596 313 159.913 313 159.058L313 140.539C313 139.698 313.685 139 314.54 139Z" fill="white" stroke="#5A5A5A" stroke-width="0.5"/>
<path d="M319.232 140.923L321.129 140.923C323.625 140.923 325.65 142.946 325.65 145.439L325.65 154.157C325.65 156.65 323.625 158.673 321.129 158.673L319.232 158.673C316.737 158.673 314.711 156.65 314.711 154.157L314.711 145.439C314.711 142.946 316.737 140.923 319.232 140.923Z" fill="white" stroke="#5A5A5A" stroke-width="0.5"/>
<path d="M317.122 148.843C317.665 148.843 318.106 149.271 318.106 149.798C318.106 150.325 317.665 150.752 317.122 150.752C316.578 150.752 316.138 150.325 316.138 149.798C316.138 149.271 316.578 148.843 317.122 148.843Z" fill="white" stroke="#5A5A5A" stroke-width="0.5"/>
<path d="M314.54 213L326.848 213C327.704 213 328.389 213.684 328.389 214.539L328.389 233.058C328.389 233.913 327.704 234.596 326.848 234.596L314.54 234.596C313.685 234.596 313 233.913 313 233.058L313 214.539C313 213.698 313.685 213 314.54 213Z" fill="white" stroke="#5A5A5A" stroke-width="0.5"/>
<path d="M319.232 214.923L321.129 214.923C323.625 214.923 325.65 216.946 325.65 219.439L325.65 228.157C325.65 230.65 323.625 232.673 321.129 232.673L319.232 232.673C316.737 232.673 314.711 230.65 314.711 228.157L314.711 219.439C314.711 216.946 316.737 214.923 319.232 214.923Z" fill="white" stroke="#5A5A5A" stroke-width="0.5"/>
<path d="M317.122 222.843C317.665 222.843 318.106 223.271 318.106 223.798C318.106 224.325 317.665 224.752 317.122 224.752C316.578 224.752 316.138 224.325 316.138 223.798C316.138 223.271 316.578 222.843 317.122 222.843Z" fill="white" stroke="#5A5A5A" stroke-width="0.5"/>
<path d="M223.21 406.253V404.713L226.5 398.413H228.25L224.96 404.713H228.18V402.333H228.25H229.79V404.713H231.19V406.253H229.79V408.213H228.18V406.253H223.21ZM230.906 399.953V398.413H237.556V399.953L233.636 408.213H231.886L235.736 400.093V399.953H230.906ZM236.999 407.443C236.999 407.163 237.088 406.93 237.265 406.743C237.452 406.557 237.681 406.463 237.951 406.463C238.259 406.463 238.502 406.575 238.679 406.799C238.866 407.023 238.959 407.355 238.959 407.793C238.959 408.512 238.787 409.063 238.441 409.445C238.105 409.837 237.648 410.033 237.069 410.033V409.333C237.349 409.333 237.569 409.254 237.727 409.095C237.895 408.946 237.979 408.745 237.979 408.493V408.409C237.97 408.4 237.965 408.381 237.965 408.353V408.311L237.881 408.339C237.853 408.349 237.793 408.353 237.699 408.353C237.513 408.353 237.349 408.269 237.209 408.101C237.069 407.933 236.999 407.714 236.999 407.443ZM239.866 401.633V399.813L241.686 398.413H243.156V408.213H241.546V400.373L239.866 401.633ZM244.627 404.993C244.627 404.545 244.725 404.079 244.921 403.593C245.126 403.099 245.322 402.711 245.509 402.431C245.705 402.142 245.971 401.783 246.307 401.353L248.547 398.413H250.437L248.323 401.171L247.707 401.703V401.773L247.987 401.675C248.267 401.601 248.57 401.563 248.897 401.563C249.811 401.563 250.586 401.895 251.221 402.557C251.865 403.211 252.187 404.023 252.187 404.993C252.187 405.983 251.832 406.813 251.123 407.485C250.413 408.157 249.508 408.493 248.407 408.493C247.305 408.493 246.4 408.157 245.691 407.485C244.981 406.813 244.627 405.983 244.627 404.993ZM246.881 403.537C246.498 403.911 246.307 404.396 246.307 404.993C246.307 405.591 246.498 406.081 246.881 406.463C247.263 406.837 247.772 407.023 248.407 407.023C249.041 407.023 249.55 406.837 249.933 406.463C250.315 406.081 250.507 405.591 250.507 404.993C250.507 404.396 250.315 403.911 249.933 403.537C249.55 403.155 249.041 402.963 248.407 402.963C247.772 402.963 247.263 403.155 246.881 403.537Z" fill="#333333"/>
<path d="M119.42 532.2H121.1C121.165 532.489 121.291 532.746 121.478 532.97C121.898 533.483 122.495 533.74 123.27 533.74C123.914 533.74 124.423 533.581 124.796 533.264C125.179 532.937 125.37 532.536 125.37 532.06C125.37 531.519 125.197 531.094 124.852 530.786C124.516 530.469 124.035 530.31 123.41 530.31H121.03V528.91L123.97 526.81V526.74H119.91V525.2H126.35V526.726L123.83 528.56L123.13 528.84V528.91L123.354 528.882C123.662 528.854 123.844 528.84 123.9 528.84C124.777 528.84 125.51 529.143 126.098 529.75C126.686 530.357 126.98 531.127 126.98 532.06C126.98 532.956 126.635 533.717 125.944 534.342C125.253 534.967 124.362 535.28 123.27 535.28C121.823 535.28 120.755 534.767 120.064 533.74C119.765 533.301 119.551 532.788 119.42 532.2ZM128.037 534.23C128.037 533.95 128.125 533.717 128.303 533.53C128.489 533.343 128.718 533.25 128.989 533.25C129.297 533.25 129.539 533.362 129.717 533.586C129.903 533.81 129.997 534.141 129.997 534.58C129.997 535.299 129.824 535.849 129.479 536.232C129.143 536.624 128.685 536.82 128.107 536.82V536.12C128.387 536.12 128.606 536.041 128.765 535.882C128.933 535.733 129.017 535.532 129.017 535.28V535.196C129.007 535.187 129.003 535.168 129.003 535.14V535.098L128.919 535.126C128.891 535.135 128.83 535.14 128.737 535.14C128.55 535.14 128.387 535.056 128.247 534.888C128.107 534.72 128.037 534.501 128.037 534.23ZM131.043 531.78C131.043 531.332 131.141 530.865 131.337 530.38C131.542 529.885 131.738 529.498 131.925 529.218C132.121 528.929 132.387 528.569 132.723 528.14L134.963 525.2H136.853L134.739 527.958L134.123 528.49V528.56L134.403 528.462C134.683 528.387 134.986 528.35 135.313 528.35C136.227 528.35 137.002 528.681 137.637 529.344C138.281 529.997 138.603 530.809 138.603 531.78C138.603 532.769 138.248 533.6 137.539 534.272C136.829 534.944 135.924 535.28 134.823 535.28C133.721 535.28 132.816 534.944 132.107 534.272C131.397 533.6 131.043 532.769 131.043 531.78ZM133.297 530.324C132.914 530.697 132.723 531.183 132.723 531.78C132.723 532.377 132.914 532.867 133.297 533.25C133.679 533.623 134.188 533.81 134.823 533.81C135.457 533.81 135.966 533.623 136.349 533.25C136.731 532.867 136.923 532.377 136.923 531.78C136.923 531.183 136.731 530.697 136.349 530.324C135.966 529.941 135.457 529.75 134.823 529.75C134.188 529.75 133.679 529.941 133.297 530.324ZM139.656 531.78C139.656 531.332 139.754 530.865 139.95 530.38C140.155 529.885 140.351 529.498 140.538 529.218C140.734 528.929 141 528.569 141.336 528.14L143.576 525.2H145.466L143.352 527.958L142.736 528.49V528.56L143.016 528.462C143.296 528.387 143.599 528.35 143.926 528.35C144.841 528.35 145.615 528.681 146.25 529.344C146.894 529.997 147.216 530.809 147.216 531.78C147.216 532.769 146.861 533.6 146.152 534.272C145.443 534.944 144.537 535.28 143.436 535.28C142.335 535.28 141.429 534.944 140.72 534.272C140.011 533.6 139.656 532.769 139.656 531.78ZM141.91 530.324C141.527 530.697 141.336 531.183 141.336 531.78C141.336 532.377 141.527 532.867 141.91 533.25C142.293 533.623 142.801 533.81 143.436 533.81C144.071 533.81 144.579 533.623 144.962 533.25C145.345 532.867 145.536 532.377 145.536 531.78C145.536 531.183 145.345 530.697 144.962 530.324C144.579 529.941 144.071 529.75 143.436 529.75C142.801 529.75 142.293 529.941 141.91 530.324Z" fill="#333333"/>
<path d="M0.42 387.2H2.1C2.16533 387.489 2.29133 387.746 2.478 387.97C2.898 388.483 3.49533 388.74 4.27 388.74C4.914 388.74 5.42267 388.581 5.796 388.264C6.17867 387.937 6.37 387.536 6.37 387.06C6.37 386.519 6.19733 386.094 5.852 385.786C5.516 385.469 5.03533 385.31 4.41 385.31H2.03V383.91L4.97 381.81V381.74H0.91V380.2H7.35V381.726L4.83 383.56L4.13 383.84V383.91L4.354 383.882C4.662 383.854 4.844 383.84 4.9 383.84C5.77733 383.84 6.51 384.143 7.098 384.75C7.686 385.357 7.98 386.127 7.98 387.06C7.98 387.956 7.63467 388.717 6.944 389.342C6.25333 389.967 5.362 390.28 4.27 390.28C2.82333 390.28 1.75467 389.767 1.064 388.74C0.765333 388.301 0.550667 387.788 0.42 387.2ZM9.03656 389.23C9.03656 388.95 9.12523 388.717 9.30256 388.53C9.48923 388.343 9.7179 388.25 9.98856 388.25C10.2966 388.25 10.5392 388.362 10.7166 388.586C10.9032 388.81 10.9966 389.141 10.9966 389.58C10.9966 390.299 10.8239 390.849 10.4786 391.232C10.1426 391.624 9.68523 391.82 9.10656 391.82V391.12C9.38656 391.12 9.6059 391.041 9.76456 390.882C9.93256 390.733 10.0166 390.532 10.0166 390.28V390.196C10.0072 390.187 10.0026 390.168 10.0026 390.14V390.098L9.91856 390.126C9.89056 390.135 9.8299 390.14 9.73656 390.14C9.5499 390.14 9.38656 390.056 9.24656 389.888C9.10656 389.72 9.03656 389.501 9.03656 389.23ZM12.0427 386.78C12.0427 386.332 12.1407 385.865 12.3367 385.38C12.5421 384.885 12.7381 384.498 12.9247 384.218C13.1207 383.929 13.3867 383.569 13.7227 383.14L15.9627 380.2H17.8527L15.7387 382.958L15.1227 383.49V383.56L15.4027 383.462C15.6827 383.387 15.9861 383.35 16.3127 383.35C17.2274 383.35 18.0021 383.681 18.6367 384.344C19.2807 384.997 19.6027 385.809 19.6027 386.78C19.6027 387.769 19.2481 388.6 18.5387 389.272C17.8294 389.944 16.9241 390.28 15.8227 390.28C14.7214 390.28 13.8161 389.944 13.1067 389.272C12.3974 388.6 12.0427 387.769 12.0427 386.78ZM14.2967 385.324C13.9141 385.697 13.7227 386.183 13.7227 386.78C13.7227 387.377 13.9141 387.867 14.2967 388.25C14.6794 388.623 15.1881 388.81 15.8227 388.81C16.4574 388.81 16.9661 388.623 17.3487 388.25C17.7314 387.867 17.9227 387.377 17.9227 386.78C17.9227 386.183 17.7314 385.697 17.3487 385.324C16.9661 384.941 16.4574 384.75 15.8227 384.75C15.1881 384.75 14.6794 384.941 14.2967 385.324ZM20.656 386.78C20.656 386.332 20.754 385.865 20.95 385.38C21.1553 384.885 21.3513 384.498 21.538 384.218C21.734 383.929 22 383.569 22.336 383.14L24.576 380.2H26.466L24.352 382.958L23.736 383.49V383.56L24.016 383.462C24.296 383.387 24.5993 383.35 24.926 383.35C25.8407 383.35 26.6153 383.681 27.25 384.344C27.894 384.997 28.216 385.809 28.216 386.78C28.216 387.769 27.8613 388.6 27.152 389.272C26.4427 389.944 25.5373 390.28 24.436 390.28C23.3347 390.28 22.4293 389.944 21.72 389.272C21.0107 388.6 20.656 387.769 20.656 386.78ZM22.91 385.324C22.5273 385.697 22.336 386.183 22.336 386.78C22.336 387.377 22.5273 387.867 22.91 388.25C23.2927 388.623 23.8013 388.81 24.436 388.81C25.0707 388.81 25.5793 388.623 25.962 388.25C26.3447 387.867 26.536 387.377 26.536 386.78C26.536 386.183 26.3447 385.697 25.962 385.324C25.5793 384.941 25.0707 384.75 24.436 384.75C23.8013 384.75 23.2927 384.941 22.91 385.324Z" fill="#333333"/>
<path d="M274.21 248.253V246.713L277.5 240.413H279.25L275.96 246.713H279.18V244.333H279.25H280.79V246.713H282.19V248.253H280.79V250.213H279.18V248.253H274.21ZM282.749 249.443C282.749 249.163 282.838 248.93 283.015 248.743C283.202 248.557 283.431 248.463 283.701 248.463C284.009 248.463 284.252 248.575 284.429 248.799C284.616 249.023 284.709 249.355 284.709 249.793C284.709 250.512 284.537 251.063 284.191 251.445C283.855 251.837 283.398 252.033 282.819 252.033V251.333C283.099 251.333 283.319 251.254 283.477 251.095C283.645 250.946 283.729 250.745 283.729 250.493V250.409C283.72 250.4 283.715 250.381 283.715 250.353V250.311L283.631 250.339C283.603 250.349 283.543 250.353 283.449 250.353C283.263 250.353 283.099 250.269 282.959 250.101C282.819 249.933 282.749 249.714 282.749 249.443ZM285.826 243.633C285.826 242.644 286.18 241.813 286.89 241.141C287.599 240.469 288.504 240.133 289.606 240.133C290.707 240.133 291.612 240.469 292.322 241.141C293.031 241.813 293.386 242.644 293.386 243.633C293.386 244.52 293.017 245.477 292.28 246.503C292.205 246.606 292.102 246.746 291.972 246.923C291.841 247.091 291.752 247.208 291.706 247.273L289.466 250.213H287.576L289.69 247.455L290.306 246.923V246.853C290.287 246.863 290.194 246.9 290.026 246.965C289.783 247.031 289.48 247.063 289.116 247.063C288.201 247.063 287.422 246.737 286.778 246.083C286.143 245.421 285.826 244.604 285.826 243.633ZM288.08 242.177C287.697 242.551 287.506 243.036 287.506 243.633C287.506 244.231 287.697 244.721 288.08 245.103C288.462 245.477 288.971 245.663 289.606 245.663C290.24 245.663 290.749 245.477 291.132 245.103C291.514 244.721 291.706 244.231 291.706 243.633C291.706 243.036 291.514 242.551 291.132 242.177C290.749 241.795 290.24 241.603 289.606 241.603C288.971 241.603 288.462 241.795 288.08 242.177ZM294.369 246.993C294.369 246.545 294.467 246.079 294.663 245.593C294.868 245.099 295.064 244.711 295.251 244.431C295.447 244.142 295.713 243.783 296.049 243.353L298.289 240.413H300.179L298.065 243.171L297.449 243.703V243.773L297.729 243.675C298.009 243.601 298.312 243.563 298.639 243.563C299.554 243.563 300.328 243.895 300.963 244.557C301.607 245.211 301.929 246.023 301.929 246.993C301.929 247.983 301.574 248.813 300.865 249.485C300.156 250.157 299.25 250.493 298.149 250.493C297.048 250.493 296.142 250.157 295.433 249.485C294.724 248.813 294.369 247.983 294.369 246.993ZM296.623 245.537C296.24 245.911 296.049 246.396 296.049 246.993C296.049 247.591 296.24 248.081 296.623 248.463C297.006 248.837 297.514 249.023 298.149 249.023C298.784 249.023 299.292 248.837 299.675 248.463C300.058 248.081 300.249 247.591 300.249 246.993C300.249 246.396 300.058 245.911 299.675 245.537C299.292 245.155 298.784 244.963 298.149 244.963C297.514 244.963 297.006 245.155 296.623 245.537Z" fill="#333333"/>
<path d="M271.42 170.413H273.1C273.165 170.703 273.291 170.959 273.478 171.183C273.898 171.697 274.495 171.953 275.27 171.953C275.914 171.953 276.423 171.795 276.796 171.477C277.179 171.151 277.37 170.749 277.37 170.273C277.37 169.732 277.197 169.307 276.852 168.999C276.516 168.682 276.035 168.523 275.41 168.523H273.03V167.123L275.97 165.023V164.953H271.91V163.413H278.35V164.939L275.83 166.773L275.13 167.053V167.123L275.354 167.095C275.662 167.067 275.844 167.053 275.9 167.053C276.777 167.053 277.51 167.357 278.098 167.963C278.686 168.57 278.98 169.34 278.98 170.273C278.98 171.169 278.635 171.93 277.944 172.555C277.253 173.181 276.362 173.493 275.27 173.493C273.823 173.493 272.755 172.98 272.064 171.953C271.765 171.515 271.551 171.001 271.42 170.413ZM280.037 172.443C280.037 172.163 280.125 171.93 280.303 171.743C280.489 171.557 280.718 171.463 280.989 171.463C281.297 171.463 281.539 171.575 281.717 171.799C281.903 172.023 281.997 172.355 281.997 172.793C281.997 173.512 281.824 174.063 281.479 174.445C281.143 174.837 280.685 175.033 280.107 175.033V174.333C280.387 174.333 280.606 174.254 280.765 174.095C280.933 173.946 281.017 173.745 281.017 173.493V173.409C281.007 173.4 281.003 173.381 281.003 173.353V173.311L280.919 173.339C280.891 173.349 280.83 173.353 280.737 173.353C280.55 173.353 280.387 173.269 280.247 173.101C280.107 172.933 280.037 172.714 280.037 172.443ZM282.693 164.953V163.413H289.343V164.953L285.423 173.213H283.673L287.523 165.093V164.953H282.693ZM291.581 172.037C290.694 171.067 290.251 169.825 290.251 168.313C290.251 166.801 290.694 165.56 291.581 164.589C292.468 163.619 293.541 163.133 294.801 163.133C296.061 163.133 297.134 163.619 298.021 164.589C298.908 165.56 299.351 166.801 299.351 168.313C299.351 169.825 298.908 171.067 298.021 172.037C297.134 173.008 296.061 173.493 294.801 173.493C293.541 173.493 292.468 173.008 291.581 172.037ZM292.729 165.625C292.197 166.26 291.931 167.156 291.931 168.313C291.931 169.471 292.197 170.367 292.729 171.001C293.27 171.636 293.961 171.953 294.801 171.953C295.641 171.953 296.327 171.636 296.859 171.001C297.4 170.367 297.671 169.471 297.671 168.313C297.671 167.156 297.4 166.26 296.859 165.625C296.327 164.991 295.641 164.673 294.801 164.673C293.961 164.673 293.27 164.991 292.729 165.625Z" fill="#333333"/>
<path d="M128.14 151.953V150.413H134.79V151.953L130.87 160.213H129.12L132.97 152.093V151.953H128.14ZM134.234 159.443C134.234 159.163 134.322 158.93 134.5 158.743C134.686 158.557 134.915 158.463 135.186 158.463C135.494 158.463 135.736 158.575 135.914 158.799C136.1 159.023 136.194 159.355 136.194 159.793C136.194 160.512 136.021 161.063 135.676 161.445C135.34 161.837 134.882 162.033 134.304 162.033V161.333C134.584 161.333 134.803 161.254 134.962 161.095C135.13 160.946 135.214 160.745 135.214 160.493V160.409C135.204 160.4 135.2 160.381 135.2 160.353V160.311L135.116 160.339C135.088 160.349 135.027 160.353 134.934 160.353C134.747 160.353 134.584 160.269 134.444 160.101C134.304 159.933 134.234 159.714 134.234 159.443ZM137.1 153.633V151.813L138.92 150.413H140.39V160.213H138.78V152.373L137.1 153.633ZM143.331 159.037C142.444 158.067 142.001 156.825 142.001 155.313C142.001 153.801 142.444 152.56 143.331 151.589C144.218 150.619 145.291 150.133 146.551 150.133C147.811 150.133 148.884 150.619 149.771 151.589C150.658 152.56 151.101 153.801 151.101 155.313C151.101 156.825 150.658 158.067 149.771 159.037C148.884 160.008 147.811 160.493 146.551 160.493C145.291 160.493 144.218 160.008 143.331 159.037ZM144.479 152.625C143.947 153.26 143.681 154.156 143.681 155.313C143.681 156.471 143.947 157.367 144.479 158.001C145.02 158.636 145.711 158.953 146.551 158.953C147.391 158.953 148.077 158.636 148.609 158.001C149.15 157.367 149.421 156.471 149.421 155.313C149.421 154.156 149.15 153.26 148.609 152.625C148.077 151.991 147.391 151.673 146.551 151.673C145.711 151.673 145.02 151.991 144.479 152.625Z" fill="#333333"/>
<circle cx="170.5" cy="339.5" r="39.5" fill="#5A5A5A"/>
<path d="M144.18 336.38V334.4H152.73V336.38L147.69 347H145.44L150.39 336.56V336.38H144.18ZM153.628 343.4H155.788C155.872 343.772 156.034 344.102 156.274 344.39C156.814 345.05 157.582 345.38 158.578 345.38C159.406 345.38 160.06 345.176 160.54 344.768C161.032 344.348 161.278 343.832 161.278 343.22C161.278 342.524 161.056 341.978 160.612 341.582C160.18 341.174 159.562 340.97 158.758 340.97H155.698V339.17L159.478 336.47V336.38H154.258V334.4H162.538V336.362L159.298 338.72L158.398 339.08V339.17L158.686 339.134C159.082 339.098 159.316 339.08 159.388 339.08C160.516 339.08 161.458 339.47 162.214 340.25C162.97 341.03 163.348 342.02 163.348 343.22C163.348 344.372 162.904 345.35 162.016 346.154C161.128 346.958 159.982 347.36 158.578 347.36C156.718 347.36 155.344 346.7 154.456 345.38C154.072 344.816 153.796 344.156 153.628 343.4ZM164.706 346.01C164.706 345.65 164.82 345.35 165.048 345.11C165.288 344.87 165.582 344.75 165.93 344.75C166.326 344.75 166.638 344.894 166.866 345.182C167.106 345.47 167.226 345.896 167.226 346.46C167.226 347.384 167.004 348.092 166.56 348.584C166.128 349.088 165.54 349.34 164.796 349.34V348.44C165.156 348.44 165.438 348.338 165.642 348.134C165.858 347.942 165.966 347.684 165.966 347.36V347.252C165.954 347.24 165.948 347.216 165.948 347.18V347.126L165.84 347.162C165.804 347.174 165.726 347.18 165.606 347.18C165.366 347.18 165.156 347.072 164.976 346.856C164.796 346.64 164.706 346.358 164.706 346.01ZM168.121 336.38V334.4H176.671V336.38L171.631 347H169.381L174.331 336.56V336.38H168.121ZM176.948 344.48V342.5L181.178 334.4H183.428L179.198 342.5H183.338V339.44H183.428H185.408V342.5H187.208V344.48H185.408V347H183.338V344.48H176.948Z" fill="white"/>
<line x1="247.426" y1="138.738" x2="263.426" y2="164.738" stroke="#5A5A5A"/>
</svg>
