<svg width="542" height="392" viewBox="0 0 542 392" fill="none" xmlns="http://www.w3.org/2000/svg">
<path d="M219 85L219 331L0 331L1.0753e-05 85L219 85Z" fill="#FFF8BA"/>
<path d="M460 85V302L170 302L170 85L460 85Z" fill="#FFF8BA"/>
<path d="M42.49 210.78C42.49 210.332 42.588 209.865 42.784 209.38C42.9893 208.885 43.1853 208.498 43.372 208.218C43.568 207.929 43.834 207.569 44.17 207.14L46.41 204.2H48.3L46.186 206.958L45.57 207.49V207.56L45.85 207.462C46.13 207.387 46.4333 207.35 46.76 207.35C47.6747 207.35 48.4493 207.681 49.084 208.344C49.728 208.997 50.05 209.809 50.05 210.78C50.05 211.769 49.6953 212.6 48.986 213.272C48.2767 213.944 47.3713 214.28 46.27 214.28C45.1687 214.28 44.2633 213.944 43.554 213.272C42.8447 212.6 42.49 211.769 42.49 210.78ZM44.744 209.324C44.3613 209.697 44.17 210.183 44.17 210.78C44.17 211.377 44.3613 211.867 44.744 212.25C45.1267 212.623 45.6353 212.81 46.27 212.81C46.9047 212.81 47.4133 212.623 47.796 212.25C48.1787 211.867 48.37 211.377 48.37 210.78C48.37 210.183 48.1787 209.697 47.796 209.324C47.4133 208.941 46.9047 208.75 46.27 208.75C45.6353 208.75 45.1267 208.941 44.744 209.324ZM51.1733 213.23C51.1733 212.95 51.2619 212.717 51.4393 212.53C51.6259 212.343 51.8546 212.25 52.1253 212.25C52.4333 212.25 52.6759 212.362 52.8533 212.586C53.0399 212.81 53.1333 213.141 53.1333 213.58C53.1333 214.299 52.9606 214.849 52.6153 215.232C52.2793 215.624 51.8219 215.82 51.2433 215.82V215.12C51.5233 215.12 51.7426 215.041 51.9013 214.882C52.0693 214.733 52.1533 214.532 52.1533 214.28V214.196C52.1439 214.187 52.1393 214.168 52.1393 214.14V214.098L52.0553 214.126C52.0273 214.135 51.9666 214.14 51.8733 214.14C51.6866 214.14 51.5233 214.056 51.3833 213.888C51.2433 213.72 51.1733 213.501 51.1733 213.23ZM53.8995 212.04V210.5L57.1895 204.2H58.9395L55.6495 210.5H58.8695V208.12H58.9395H60.4795V210.5H61.8795V212.04H60.4795V214H58.8695V212.04H53.8995ZM62.2989 214V212.46L65.6449 210.094C66.3729 209.571 66.8956 209.086 67.2129 208.638C67.5302 208.19 67.6889 207.714 67.6889 207.21C67.6889 206.678 67.5256 206.253 67.1989 205.936C66.8722 205.619 66.4289 205.46 65.8689 205.46C65.1782 205.46 64.6602 205.74 64.3149 206.3C64.1656 206.543 64.0536 206.823 63.9789 207.14H62.2989C62.3829 206.543 62.5649 206.006 62.8449 205.53C63.5076 204.457 64.5156 203.92 65.8689 203.92C66.9049 203.92 67.7449 204.228 68.3889 204.844C69.0422 205.451 69.3689 206.216 69.3689 207.14C69.3689 207.943 69.1636 208.666 68.7529 209.31C68.3422 209.945 67.6842 210.575 66.7789 211.2L65.3789 212.18L64.7489 212.46V212.53L65.5889 212.46H69.3689V214H62.2989Z" fill="#333333"/>
<path d="M76.42 42.2H78.1C78.1653 42.4893 78.2913 42.746 78.478 42.97C78.898 43.4833 79.4953 43.74 80.27 43.74C80.914 43.74 81.4227 43.5813 81.796 43.264C82.1787 42.9373 82.37 42.536 82.37 42.06C82.37 41.5187 82.1973 41.094 81.852 40.786C81.516 40.4687 81.0353 40.31 80.41 40.31H78.03V38.91L80.97 36.81V36.74H76.91V35.2H83.35V36.726L80.83 38.56L80.13 38.84V38.91L80.354 38.882C80.662 38.854 80.844 38.84 80.9 38.84C81.7773 38.84 82.51 39.1433 83.098 39.75C83.686 40.3567 83.98 41.1267 83.98 42.06C83.98 42.956 83.6347 43.7167 82.944 44.342C82.2533 44.9673 81.362 45.28 80.27 45.28C78.8233 45.28 77.7547 44.7667 77.064 43.74C76.7653 43.3013 76.5507 42.788 76.42 42.2ZM85.0366 44.23C85.0366 43.95 85.1252 43.7167 85.3026 43.53C85.4892 43.3433 85.7179 43.25 85.9886 43.25C86.2966 43.25 86.5392 43.362 86.7166 43.586C86.9032 43.81 86.9966 44.1413 86.9966 44.58C86.9966 45.2987 86.8239 45.8493 86.4786 46.232C86.1426 46.624 85.6852 46.82 85.1066 46.82V46.12C85.3866 46.12 85.6059 46.0407 85.7646 45.882C85.9326 45.7327 86.0166 45.532 86.0166 45.28V45.196C86.0072 45.1867 86.0026 45.168 86.0026 45.14V45.098L85.9186 45.126C85.8906 45.1353 85.8299 45.14 85.7366 45.14C85.5499 45.14 85.3866 45.056 85.2466 44.888C85.1066 44.72 85.0366 44.5007 85.0366 44.23ZM88.0427 41.78C88.0427 41.332 88.1407 40.8653 88.3367 40.38C88.5421 39.8853 88.7381 39.498 88.9247 39.218C89.1207 38.9287 89.3867 38.5693 89.7227 38.14L91.9627 35.2H93.8527L91.7387 37.958L91.1227 38.49V38.56L91.4027 38.462C91.6827 38.3873 91.9861 38.35 92.3127 38.35C93.2274 38.35 94.0021 38.6813 94.6367 39.344C95.2807 39.9973 95.6027 40.8093 95.6027 41.78C95.6027 42.7693 95.2481 43.6 94.5387 44.272C93.8294 44.944 92.9241 45.28 91.8227 45.28C90.7214 45.28 89.8161 44.944 89.1067 44.272C88.3974 43.6 88.0427 42.7693 88.0427 41.78ZM90.2967 40.324C89.9141 40.6973 89.7227 41.1827 89.7227 41.78C89.7227 42.3773 89.9141 42.8673 90.2967 43.25C90.6794 43.6233 91.1881 43.81 91.8227 43.81C92.4574 43.81 92.9661 43.6233 93.3487 43.25C93.7314 42.8673 93.9227 42.3773 93.9227 41.78C93.9227 41.1827 93.7314 40.6973 93.3487 40.324C92.9661 39.9413 92.4574 39.75 91.8227 39.75C91.1881 39.75 90.6794 39.9413 90.2967 40.324ZM96.656 41.78C96.656 41.332 96.754 40.8653 96.95 40.38C97.1553 39.8853 97.3513 39.498 97.538 39.218C97.734 38.9287 98 38.5693 98.336 38.14L100.576 35.2H102.466L100.352 37.958L99.736 38.49V38.56L100.016 38.462C100.296 38.3873 100.599 38.35 100.926 38.35C101.841 38.35 102.615 38.6813 103.25 39.344C103.894 39.9973 104.216 40.8093 104.216 41.78C104.216 42.7693 103.861 43.6 103.152 44.272C102.443 44.944 101.537 45.28 100.436 45.28C99.3347 45.28 98.4293 44.944 97.72 44.272C97.0107 43.6 96.656 42.7693 96.656 41.78ZM98.91 40.324C98.5273 40.6973 98.336 41.1827 98.336 41.78C98.336 42.3773 98.5273 42.8673 98.91 43.25C99.2927 43.6233 99.8013 43.81 100.436 43.81C101.071 43.81 101.579 43.6233 101.962 43.25C102.345 42.8673 102.536 42.3773 102.536 41.78C102.536 41.1827 102.345 40.6973 101.962 40.324C101.579 39.9413 101.071 39.75 100.436 39.75C99.8013 39.75 99.2927 39.9413 98.91 40.324Z" fill="#333333"/>
<path d="M499.21 189.04V187.5L502.5 181.2H504.25L500.96 187.5H504.18V185.12H504.25H505.79V187.5H507.19V189.04H505.79V191H504.18V189.04H499.21ZM507.749 190.23C507.749 189.95 507.838 189.717 508.015 189.53C508.202 189.343 508.431 189.25 508.701 189.25C509.009 189.25 509.252 189.362 509.429 189.586C509.616 189.81 509.709 190.141 509.709 190.58C509.709 191.299 509.537 191.849 509.191 192.232C508.855 192.624 508.398 192.82 507.819 192.82V192.12C508.099 192.12 508.319 192.041 508.477 191.882C508.645 191.733 508.729 191.532 508.729 191.28V191.196C508.72 191.187 508.715 191.168 508.715 191.14V191.098L508.631 191.126C508.603 191.135 508.543 191.14 508.449 191.14C508.263 191.14 508.099 191.056 507.959 190.888C507.819 190.72 507.749 190.501 507.749 190.23ZM510.406 182.74V181.2H517.056V182.74L513.136 191H511.386L515.236 182.88V182.74H510.406ZM517.551 187.78C517.551 187.332 517.649 186.865 517.845 186.38C518.05 185.885 518.246 185.498 518.433 185.218C518.629 184.929 518.895 184.569 519.231 184.14L521.471 181.2H523.361L521.247 183.958L520.631 184.49V184.56L520.911 184.462C521.191 184.387 521.494 184.35 521.821 184.35C522.735 184.35 523.51 184.681 524.145 185.344C524.789 185.997 525.111 186.809 525.111 187.78C525.111 188.769 524.756 189.6 524.047 190.272C523.337 190.944 522.432 191.28 521.331 191.28C520.229 191.28 519.324 190.944 518.615 190.272C517.905 189.6 517.551 188.769 517.551 187.78ZM519.805 186.324C519.422 186.697 519.231 187.183 519.231 187.78C519.231 188.377 519.422 188.867 519.805 189.25C520.187 189.623 520.696 189.81 521.331 189.81C521.965 189.81 522.474 189.623 522.857 189.25C523.239 188.867 523.431 188.377 523.431 187.78C523.431 187.183 523.239 186.697 522.857 186.324C522.474 185.941 521.965 185.75 521.331 185.75C520.696 185.75 520.187 185.941 519.805 186.324Z" fill="#333333"/>
<path d="M353.56 207.27H355.24C355.315 207.559 355.441 207.807 355.618 208.012C356.029 208.497 356.626 208.74 357.41 208.74C358.035 208.74 358.53 208.572 358.894 208.236C359.258 207.9 359.44 207.461 359.44 206.92C359.44 206.351 359.258 205.893 358.894 205.548C358.53 205.203 358.035 205.03 357.41 205.03C356.831 205.03 356.341 205.184 355.94 205.492C355.781 205.613 355.641 205.763 355.52 205.94H353.98L354.4 200.2H360.35V201.74H355.73L355.52 204.26H355.59C355.739 204.111 355.912 203.985 356.108 203.882C356.547 203.621 357.074 203.49 357.69 203.49C358.67 203.49 359.487 203.817 360.14 204.47C360.793 205.123 361.12 205.94 361.12 206.92C361.12 207.881 360.775 208.684 360.084 209.328C359.403 209.963 358.511 210.28 357.41 210.28C355.973 210.28 354.904 209.781 354.204 208.782C353.905 208.343 353.691 207.839 353.56 207.27ZM362.103 206.78C362.103 206.332 362.201 205.865 362.397 205.38C362.603 204.885 362.799 204.498 362.985 204.218C363.181 203.929 363.447 203.569 363.783 203.14L366.023 200.2H367.913L365.799 202.958L365.183 203.49V203.56L365.463 203.462C365.743 203.387 366.047 203.35 366.373 203.35C367.288 203.35 368.063 203.681 368.697 204.344C369.341 204.997 369.663 205.809 369.663 206.78C369.663 207.769 369.309 208.6 368.599 209.272C367.89 209.944 366.985 210.28 365.883 210.28C364.782 210.28 363.877 209.944 363.167 209.272C362.458 208.6 362.103 207.769 362.103 206.78ZM364.357 205.324C363.975 205.697 363.783 206.183 363.783 206.78C363.783 207.377 363.975 207.867 364.357 208.25C364.74 208.623 365.249 208.81 365.883 208.81C366.518 208.81 367.027 208.623 367.409 208.25C367.792 207.867 367.983 207.377 367.983 206.78C367.983 206.183 367.792 205.697 367.409 205.324C367.027 204.941 366.518 204.75 365.883 204.75C365.249 204.75 364.74 204.941 364.357 205.324ZM370.787 209.23C370.787 208.95 370.875 208.717 371.053 208.53C371.239 208.343 371.468 208.25 371.739 208.25C372.047 208.25 372.289 208.362 372.467 208.586C372.653 208.81 372.747 209.141 372.747 209.58C372.747 210.299 372.574 210.849 372.229 211.232C371.893 211.624 371.435 211.82 370.857 211.82V211.12C371.137 211.12 371.356 211.041 371.515 210.882C371.683 210.733 371.767 210.532 371.767 210.28V210.196C371.757 210.187 371.753 210.168 371.753 210.14V210.098L371.669 210.126C371.641 210.135 371.58 210.14 371.487 210.14C371.3 210.14 371.137 210.056 370.997 209.888C370.857 209.72 370.787 209.501 370.787 209.23ZM373.513 208.04V206.5L376.803 200.2H378.553L375.263 206.5H378.483V204.12H378.553H380.093V206.5H381.493V208.04H380.093V210H378.483V208.04H373.513ZM383.452 208.824C382.566 207.853 382.122 206.612 382.122 205.1C382.122 203.588 382.566 202.347 383.452 201.376C384.339 200.405 385.412 199.92 386.672 199.92C387.932 199.92 389.006 200.405 389.892 201.376C390.779 202.347 391.222 203.588 391.222 205.1C391.222 206.612 390.779 207.853 389.892 208.824C389.006 209.795 387.932 210.28 386.672 210.28C385.412 210.28 384.339 209.795 383.452 208.824ZM384.6 202.412C384.068 203.047 383.802 203.943 383.802 205.1C383.802 206.257 384.068 207.153 384.6 207.788C385.142 208.423 385.832 208.74 386.672 208.74C387.512 208.74 388.198 208.423 388.73 207.788C389.272 207.153 389.542 206.257 389.542 205.1C389.542 203.943 389.272 203.047 388.73 202.412C388.198 201.777 387.512 201.46 386.672 201.46C385.832 201.46 385.142 201.777 384.6 202.412Z" fill="#333333"/>
<path d="M158.35 280.42V278.6L160.17 277.2H161.64V287H160.03V279.16L158.35 280.42ZM164.581 285.824C163.694 284.853 163.251 283.612 163.251 282.1C163.251 280.588 163.694 279.347 164.581 278.376C165.468 277.405 166.541 276.92 167.801 276.92C169.061 276.92 170.134 277.405 171.021 278.376C171.908 279.347 172.351 280.588 172.351 282.1C172.351 283.612 171.908 284.853 171.021 285.824C170.134 286.795 169.061 287.28 167.801 287.28C166.541 287.28 165.468 286.795 164.581 285.824ZM165.729 279.412C165.197 280.047 164.931 280.943 164.931 282.1C164.931 283.257 165.197 284.153 165.729 284.788C166.27 285.423 166.961 285.74 167.801 285.74C168.641 285.74 169.327 285.423 169.859 284.788C170.4 284.153 170.671 283.257 170.671 282.1C170.671 280.943 170.4 280.047 169.859 279.412C169.327 278.777 168.641 278.46 167.801 278.46C166.961 278.46 166.27 278.777 165.729 279.412ZM173.544 286.23C173.544 285.95 173.633 285.717 173.81 285.53C173.997 285.343 174.226 285.25 174.496 285.25C174.804 285.25 175.047 285.362 175.224 285.586C175.411 285.81 175.504 286.141 175.504 286.58C175.504 287.299 175.332 287.849 174.986 288.232C174.65 288.624 174.193 288.82 173.614 288.82V288.12C173.894 288.12 174.114 288.041 174.272 287.882C174.44 287.733 174.524 287.532 174.524 287.28V287.196C174.515 287.187 174.51 287.168 174.51 287.14V287.098L174.426 287.126C174.398 287.135 174.338 287.14 174.244 287.14C174.058 287.14 173.894 287.056 173.754 286.888C173.614 286.72 173.544 286.501 173.544 286.23ZM176.481 284.2H178.161C178.226 284.489 178.352 284.746 178.539 284.97C178.959 285.483 179.556 285.74 180.331 285.74C180.975 285.74 181.483 285.581 181.857 285.264C182.239 284.937 182.431 284.536 182.431 284.06C182.431 283.519 182.258 283.094 181.913 282.786C181.577 282.469 181.096 282.31 180.471 282.31H178.091V280.91L181.031 278.81V278.74H176.971V277.2H183.411V278.726L180.891 280.56L180.191 280.84V280.91L180.415 280.882C180.723 280.854 180.905 280.84 180.961 280.84C181.838 280.84 182.571 281.143 183.159 281.75C183.747 282.357 184.041 283.127 184.041 284.06C184.041 284.956 183.695 285.717 183.005 286.342C182.314 286.967 181.423 287.28 180.331 287.28C178.884 287.28 177.815 286.767 177.125 285.74C176.826 285.301 176.611 284.788 176.481 284.2ZM184.957 287V285.46L188.303 283.094C189.031 282.571 189.554 282.086 189.871 281.638C190.188 281.19 190.347 280.714 190.347 280.21C190.347 279.678 190.184 279.253 189.857 278.936C189.53 278.619 189.087 278.46 188.527 278.46C187.836 278.46 187.318 278.74 186.973 279.3C186.824 279.543 186.712 279.823 186.637 280.14H184.957C185.041 279.543 185.223 279.006 185.503 278.53C186.166 277.457 187.174 276.92 188.527 276.92C189.563 276.92 190.403 277.228 191.047 277.844C191.7 278.451 192.027 279.216 192.027 280.14C192.027 280.943 191.822 281.666 191.411 282.31C191 282.945 190.342 283.575 189.437 284.2L188.037 285.18L187.407 285.46V285.53L188.247 285.46H192.027V287H184.957Z" fill="#333333"/>
<rect x="15" y="270" width="84" height="65" fill="#FFC79F"/>
<rect x="230" y="302" width="99" height="74" fill="#FFC79F"/>
<path d="M259.49 336.78C259.49 336.332 259.588 335.865 259.784 335.38C259.989 334.885 260.185 334.498 260.372 334.218C260.568 333.929 260.834 333.569 261.17 333.14L263.41 330.2H265.3L263.186 332.958L262.57 333.49V333.56L262.85 333.462C263.13 333.387 263.433 333.35 263.76 333.35C264.675 333.35 265.449 333.681 266.084 334.344C266.728 334.997 267.05 335.809 267.05 336.78C267.05 337.769 266.695 338.6 265.986 339.272C265.277 339.944 264.371 340.28 263.27 340.28C262.169 340.28 261.263 339.944 260.554 339.272C259.845 338.6 259.49 337.769 259.49 336.78ZM261.744 335.324C261.361 335.697 261.17 336.183 261.17 336.78C261.17 337.377 261.361 337.867 261.744 338.25C262.127 338.623 262.635 338.81 263.27 338.81C263.905 338.81 264.413 338.623 264.796 338.25C265.179 337.867 265.37 337.377 265.37 336.78C265.37 336.183 265.179 335.697 264.796 335.324C264.413 334.941 263.905 334.75 263.27 334.75C262.635 334.75 262.127 334.941 261.744 335.324ZM268.173 339.23C268.173 338.95 268.262 338.717 268.439 338.53C268.626 338.343 268.855 338.25 269.125 338.25C269.433 338.25 269.676 338.362 269.853 338.586C270.04 338.81 270.133 339.141 270.133 339.58C270.133 340.299 269.961 340.849 269.615 341.232C269.279 341.624 268.822 341.82 268.243 341.82V341.12C268.523 341.12 268.743 341.041 268.901 340.882C269.069 340.733 269.153 340.532 269.153 340.28V340.196C269.144 340.187 269.139 340.168 269.139 340.14V340.098L269.055 340.126C269.027 340.135 268.967 340.14 268.873 340.14C268.687 340.14 268.523 340.056 268.383 339.888C268.243 339.72 268.173 339.501 268.173 339.23ZM272.649 338.824C271.763 337.853 271.319 336.612 271.319 335.1C271.319 333.588 271.763 332.347 272.649 331.376C273.536 330.405 274.609 329.92 275.869 329.92C277.129 329.92 278.203 330.405 279.089 331.376C279.976 332.347 280.419 333.588 280.419 335.1C280.419 336.612 279.976 337.853 279.089 338.824C278.203 339.795 277.129 340.28 275.869 340.28C274.609 340.28 273.536 339.795 272.649 338.824ZM273.797 332.412C273.265 333.047 272.999 333.943 272.999 335.1C272.999 336.257 273.265 337.153 273.797 337.788C274.339 338.423 275.029 338.74 275.869 338.74C276.709 338.74 277.395 338.423 277.927 337.788C278.469 337.153 278.739 336.257 278.739 335.1C278.739 333.943 278.469 333.047 277.927 332.412C277.395 331.777 276.709 331.46 275.869 331.46C275.029 331.46 274.339 331.777 273.797 332.412ZM281.263 338.04V336.5L284.553 330.2H286.303L283.013 336.5H286.233V334.12H286.303H287.843V336.5H289.243V338.04H287.843V340H286.233V338.04H281.263Z" fill="#333333"/>
<rect x="66" y="55" width="30" height="66" transform="rotate(90 66 55)" fill="#5A5A5A"/>
<path d="M71.21 294.04V292.5L74.5 286.2H76.25L72.96 292.5H76.18V290.12H76.25H77.79V292.5H79.19V294.04H77.79V296H76.18V294.04H71.21ZM79.7495 295.23C79.7495 294.95 79.8381 294.717 80.0155 294.53C80.2021 294.343 80.4308 294.25 80.7015 294.25C81.0095 294.25 81.2521 294.362 81.4295 294.586C81.6161 294.81 81.7095 295.141 81.7095 295.58C81.7095 296.299 81.5368 296.849 81.1915 297.232C80.8555 297.624 80.3981 297.82 79.8195 297.82V297.12C80.0995 297.12 80.3188 297.041 80.4775 296.882C80.6455 296.733 80.7295 296.532 80.7295 296.28V296.196C80.7201 296.187 80.7155 296.168 80.7155 296.14V296.098L80.6315 296.126C80.6035 296.135 80.5428 296.14 80.4495 296.14C80.2628 296.14 80.0995 296.056 79.9595 295.888C79.8195 295.72 79.7495 295.501 79.7495 295.23ZM82.6156 289.42V287.6L84.4356 286.2H85.9056V296H84.2956V288.16L82.6156 289.42ZM87.4467 289.42C87.4467 288.431 87.8014 287.6 88.5107 286.928C89.2201 286.256 90.1254 285.92 91.2267 285.92C92.3281 285.92 93.2334 286.256 93.9427 286.928C94.6521 287.6 95.0067 288.431 95.0067 289.42C95.0067 290.307 94.6381 291.263 93.9007 292.29C93.8261 292.393 93.7234 292.533 93.5927 292.71C93.4621 292.878 93.3734 292.995 93.3267 293.06L91.0867 296H89.1967L91.3107 293.242L91.9267 292.71V292.64C91.9081 292.649 91.8147 292.687 91.6467 292.752C91.4041 292.817 91.1007 292.85 90.7367 292.85C89.8221 292.85 89.0427 292.523 88.3987 291.87C87.7641 291.207 87.4467 290.391 87.4467 289.42ZM89.7007 287.964C89.3181 288.337 89.1267 288.823 89.1267 289.42C89.1267 290.017 89.3181 290.507 89.7007 290.89C90.0834 291.263 90.5921 291.45 91.2267 291.45C91.8614 291.45 92.3701 291.263 92.7527 290.89C93.1354 290.507 93.3267 290.017 93.3267 289.42C93.3267 288.823 93.1354 288.337 92.7527 287.964C92.3701 287.581 91.8614 287.39 91.2267 287.39C90.5921 287.39 90.0834 287.581 89.7007 287.964Z" fill="#333333"/>
<rect x="16" y="347" width="16" height="272" transform="rotate(-180 16 347)" fill="#5A5A5A"/>
<rect y="347" width="16" height="163" transform="rotate(-90 0 347)" fill="#5A5A5A"/>
<rect x="197" y="347" width="16" height="38" transform="rotate(-90 197 347)" fill="#5A5A5A"/>
<rect x="219" y="286" width="16" height="106" fill="#5A5A5A"/>
<rect x="341" y="376" width="16" height="106" transform="rotate(90 341 376)" fill="#5A5A5A"/>
<rect x="345" y="392" width="16" height="106" transform="rotate(-180 345 392)" fill="#5A5A5A"/>
<rect x="267" y="286" width="16" height="48" transform="rotate(90 267 286)" fill="#5A5A5A"/>
<rect x="490" y="286" width="16" height="196" transform="rotate(90 490 286)" fill="#5A5A5A"/>
<rect x="185" y="55" width="30" height="65" transform="rotate(90 185 55)" fill="#5A5A5A"/>
<path d="M63.9667 263.995L63.9667 239L88.2914 239L88.2914 263.995L63.9667 263.995Z" fill="white" stroke="#5A5A5A" stroke-width="0.5"/>
<path d="M64.8932 241.027L64.8932 260.48C64.8932 261.218 65.2858 261.61 66.0552 261.61L86.2029 261.61C86.988 261.61 87.3649 261.233 87.3649 260.48L87.3649 241.027C87.3806 240.273 86.988 239.896 86.2186 239.896L66.071 239.896C65.2858 239.88 64.8932 240.273 64.8932 241.027Z" fill="white" stroke="#5A5A5A" stroke-width="0.5"/>
<path d="M71.3946 242.816C73.1848 242.831 74.6452 244.245 74.6452 245.987C74.6452 247.746 73.1848 249.159 71.3946 249.159C69.5886 249.159 68.1439 247.746 68.1439 245.987C68.1439 244.229 69.5886 242.816 71.3946 242.816Z" stroke="#5A5A5A" stroke-width="0.5"/>
<path d="M81.0205 242.846C82.8107 242.862 84.2712 244.275 84.2712 246.017C84.2712 247.776 82.8107 249.189 81.0205 249.189C79.2146 249.189 77.7699 247.776 77.7699 246.017C77.7542 244.259 79.2146 242.83 81.0205 242.846Z" stroke="#5A5A5A" stroke-width="0.5"/>
<path d="M81.0204 251.86C82.8263 251.86 84.271 253.273 84.271 255.031C84.271 256.79 82.8106 258.203 81.0204 258.203C79.2302 258.187 77.7698 256.774 77.7698 255.031C77.7698 253.288 79.2302 251.86 81.0204 251.86Z" stroke="#5A5A5A" stroke-width="0.5"/>
<path d="M71.3946 251.86C73.2005 251.86 74.6452 253.273 74.6452 255.031C74.6452 256.79 73.1848 258.203 71.3946 258.203C69.6044 258.187 68.1439 256.774 68.1439 255.031C68.1439 253.288 69.6044 251.86 71.3946 251.86Z" stroke="#5A5A5A" stroke-width="0.5"/>
<path d="M39.6991 263.98L39.6991 239.892L16.0001 239.892L16.0001 263.995L39.6991 263.98Z" fill="white" stroke="#5A5A5A" stroke-width="0.5"/>
<path d="M37.896 257.374L37.896 244.057C37.896 243.315 37.5323 242.951 36.7747 242.951L19.1671 242.951C18.4397 242.951 18.0609 243.315 18.0458 244.042L18.0609 257.374C18.0458 258.101 18.4246 258.465 19.1671 258.465L36.7747 258.465C37.5172 258.495 37.896 258.116 37.896 257.374Z" fill="white" stroke="#5A5A5A" stroke-width="0.5"/>
<path d="M27.9709 262.132C27.0466 262.117 26.3041 261.42 26.3041 260.541L26.9556 253.557L26.9708 253.542C26.9708 253.011 27.4102 252.587 27.9709 252.587C28.5315 252.587 28.971 253.011 28.9861 253.557L29.6377 260.541C29.6377 261.404 28.8952 262.117 27.9709 262.132Z" stroke="#5A5A5A" stroke-width="0.5"/>
<mask id="path-30-inside-1_19_3810" fill="white">
<path fill-rule="evenodd" clip-rule="evenodd" d="M26.5918 261.449L26.9555 257.646C26.9706 257.116 27.41 256.677 27.9859 256.692C28.5465 256.692 28.9708 257.116 28.9859 257.646L29.3496 261.449"/>
</mask>
<path fill-rule="evenodd" clip-rule="evenodd" d="M26.5918 261.449L26.9555 257.646C26.9706 257.116 27.41 256.677 27.9859 256.692C28.5465 256.692 28.9708 257.116 28.9859 257.646L29.3496 261.449" fill="white"/>
<path d="M26.9555 257.646L27.4553 257.661L27.4548 257.677L27.4532 257.694L26.9555 257.646ZM27.9859 256.692L27.9859 257.192L27.9727 257.192L27.9859 256.692ZM28.9859 257.646L28.4882 257.694L28.4866 257.677L28.4861 257.661L28.9859 257.646ZM26.0941 261.401L26.4577 257.599L27.4532 257.694L27.0895 261.497L26.0941 261.401ZM26.4557 257.632C26.4787 256.827 27.1467 256.17 27.999 256.192L27.9727 257.192C27.6733 257.184 27.4626 257.405 27.4553 257.661L26.4557 257.632ZM27.9859 256.192C28.8152 256.192 29.4628 256.83 29.4857 257.632L28.4861 257.661C28.4788 257.403 28.2778 257.192 27.9859 257.192L27.9859 256.192ZM29.4837 257.599L29.8473 261.401L28.8519 261.497L28.4882 257.694L29.4837 257.599Z" fill="#5A5A5A" mask="url(#path-30-inside-1_19_3810)"/>
<rect x="107" y="177" width="2" height="11" transform="rotate(90 107 177)" fill="#5A5A5A"/>
<rect x="90" y="177" width="2" height="11" transform="rotate(90 90 177)" fill="#5A5A5A"/>
<rect x="73" y="177" width="2" height="11" transform="rotate(90 73 177)" fill="#5A5A5A"/>
<rect x="56" y="177" width="2" height="11" transform="rotate(90 56 177)" fill="#5A5A5A"/>
<rect x="39" y="177" width="2" height="11" transform="rotate(90 39 177)" fill="#5A5A5A"/>
<rect x="22" y="177" width="2" height="6" transform="rotate(90 22 177)" fill="#5A5A5A"/>
<rect x="107" y="326" width="2" height="11" transform="rotate(-180 107 326)" fill="#5A5A5A"/>
<rect x="107" y="275" width="2" height="11" transform="rotate(-180 107 275)" fill="#5A5A5A"/>
<rect x="107" y="258" width="2" height="11" transform="rotate(-180 107 258)" fill="#5A5A5A"/>
<rect x="107" y="241" width="2" height="11" transform="rotate(-180 107 241)" fill="#5A5A5A"/>
<rect x="107" y="224" width="2" height="11" transform="rotate(-180 107 224)" fill="#5A5A5A"/>
<rect x="107" y="207" width="2" height="11" transform="rotate(-180 107 207)" fill="#5A5A5A"/>
<rect x="107" y="190" width="2" height="6" transform="rotate(-180 107 190)" fill="#5A5A5A"/>
<line y1="-0.5" x2="29.1548" y2="-0.5" transform="matrix(0.857493 0.514496 0.514496 -0.857493 64 67)" stroke="#5A5A5A"/>
<path d="M126.75 0.250204L45.282 0.313162L45.2517 4.74999L126.75 4.75001L126.75 0.250204Z" stroke="#5A5A5A" stroke-width="0.5" stroke-miterlimit="10"/>
<rect x="143" y="6.10352e-05" width="5" height="74" fill="#5A5A5A"/>
<rect x="40" y="6.10352e-05" width="5" height="74" fill="#5A5A5A"/>
<rect x="59" width="5" height="19" transform="rotate(90 59 0)" fill="#5A5A5A"/>
<rect x="145" width="5" height="19" transform="rotate(90 145 0)" fill="#5A5A5A"/>
<path d="M91.25 54.2503L151.726 54.3131L151.749 58.75L91.25 58.75L91.25 54.2503Z" stroke="#5A5A5A" stroke-width="0.5" stroke-miterlimit="10"/>
<path d="M91.25 64.2503L151.726 64.3131L151.749 68.75L91.25 68.75L91.25 64.2503Z" stroke="#5A5A5A" stroke-width="0.5" stroke-miterlimit="10"/>
<line x1="474.571" y1="215.257" x2="459.571" y2="190.257" stroke="#5A5A5A"/>
<path d="M541.75 123.25L541.687 233.707L537.25 233.748L537.25 123.25L541.75 123.25Z" stroke="#5A5A5A" stroke-width="0.5" stroke-miterlimit="10"/>
<rect width="5" height="74" transform="matrix(-4.37114e-08 -1 -1 4.37114e-08 542 112)" fill="#5A5A5A"/>
<rect width="5" height="74" transform="matrix(-4.37114e-08 -1 -1 4.37114e-08 542 239)" fill="#5A5A5A"/>
<rect width="5" height="19" transform="matrix(-1 8.74228e-08 8.74228e-08 1 542 220)" fill="#5A5A5A"/>
<rect width="5" height="19" transform="matrix(-1 8.74228e-08 8.74228e-08 1 542 107)" fill="#5A5A5A"/>
<path d="M489.75 187.75L489.687 127.274L485.25 127.251L485.25 187.75L489.75 187.75Z" stroke="#5A5A5A" stroke-width="0.5" stroke-miterlimit="10"/>
<path d="M479.75 187.75L479.687 127.274L475.25 127.251L475.25 187.75L479.75 187.75Z" stroke="#5A5A5A" stroke-width="0.5" stroke-miterlimit="10"/>
<rect x="107" y="264" width="8" height="97" transform="rotate(90 107 264)" fill="#5A5A5A"/>
<rect x="172" y="234" width="8" height="14" transform="rotate(90 172 234)" fill="#5A5A5A"/>
<rect x="107" y="277" width="8" height="10" transform="rotate(-180 107 277)" fill="#5A5A5A"/>
<rect x="158.145" y="234.162" width="8" height="63.6756" transform="rotate(60 158.145 234.162)" fill="#5A5A5A"/>
<rect x="107" y="338" width="8" height="36" transform="rotate(-180 107 338)" fill="#5A5A5A"/>
<path d="M86.7587 311.476L86.7423 312.657L86.7587 315.723V323.314H76.8014V311.476C76.8014 308.459 79.0451 306 81.7964 306C84.515 306 86.7587 308.459 86.7587 311.476Z" fill="white" stroke="#5A5A5A" stroke-width="0.5"/>
<path d="M85.6124 311.542V312.476V320.035H77.9316V312.476L77.948 311.542C77.948 309.164 79.6512 307.23 81.7802 307.23C83.8929 307.246 85.6124 309.181 85.6124 311.542Z" fill="white" stroke="#5A5A5A" stroke-width="0.5"/>
<path d="M75 329.676V324.413C75 323.806 75.4913 323.314 76.0973 323.314H87.3811C87.9871 323.314 88.4784 323.806 88.4784 324.413V329.676C88.4784 330.282 87.9871 330.774 87.3811 330.774H76.1137C75.4913 330.774 75 330.282 75 329.676Z" fill="white" stroke="#5A5A5A" stroke-width="0.5"/>
<path d="M81.0922 327.052C81.0922 326.642 81.387 326.331 81.7309 326.331C82.0912 326.314 82.386 326.642 82.386 327.052C82.386 327.462 82.0912 327.774 81.7473 327.774C81.3706 327.757 81.0758 327.446 81.0922 327.052Z" fill="white" stroke="#5A5A5A" stroke-width="0.5"/>
<path d="M46 329.848L46 317.54C46 316.685 46.6838 316 47.5385 316L66.0579 316C66.9127 316 67.5964 316.685 67.5964 317.54L67.5964 329.848C67.5964 330.704 66.9127 331.389 66.0579 331.389L47.5385 331.389C46.698 331.389 46 330.704 46 329.848Z" fill="white" stroke="#5A5A5A" stroke-width="0.5"/>
<path d="M47.9231 325.156L47.9231 323.259C47.9231 320.764 49.946 318.738 52.439 318.738L61.1574 318.738C63.6503 318.738 65.6732 320.764 65.6732 323.259L65.6732 325.156C65.6732 327.652 63.6503 329.677 61.1574 329.677L52.439 329.677C49.946 329.677 47.9231 327.652 47.9231 325.156Z" fill="white" stroke="#5A5A5A" stroke-width="0.5"/>
<path d="M55.8434 327.267C55.8434 326.724 56.2707 326.283 56.7978 326.283C57.3249 326.283 57.7522 326.724 57.7522 327.267C57.7522 327.81 57.3249 328.251 56.7978 328.251C56.2707 328.251 55.8434 327.81 55.8434 327.267Z" fill="white" stroke="#5A5A5A" stroke-width="0.5"/>
<path d="M40.9871 329.7L40.9871 273.3C40.9871 272.578 40.41 272 39.6885 272L17.2985 272C16.5771 272 16 272.578 16 273.3L16 329.7C16 330.422 16.5771 331 17.2985 331L39.6885 331C40.41 331 40.9871 330.409 40.9871 329.7Z" fill="white" stroke="#5A5A5A" stroke-width="0.5"/>
<path d="M31.5297 275.467L25.4436 275.467C21.9153 275.467 19.069 278.33 19.069 281.849L19.069 326.26C19.069 327.126 19.7641 327.822 20.6298 327.822L36.3697 327.822C37.2354 327.822 37.9306 327.126 37.9306 326.26L37.9306 281.862C37.9175 278.33 35.0581 275.467 31.5297 275.467Z" fill="white" stroke="#5A5A5A" stroke-width="0.5"/>
<path d="M28.933 322.557C29.6357 322.557 30.2053 323.15 30.2053 323.883C30.2053 324.615 29.6357 325.209 28.933 325.209C28.2304 325.209 27.6608 324.615 27.6608 323.883C27.6608 323.15 28.2304 322.557 28.933 322.557Z" fill="white" stroke="#5A5A5A" stroke-width="0.5"/>
<path d="M45 272L67.0097 272L67.0237 293.587L45.0139 293.573L45 272Z" fill="white" stroke="#5A5A5A" stroke-width="0.5"/>
<path d="M56.0187 288.33C59.133 288.33 61.6469 285.856 61.6469 282.794C61.6469 279.732 59.133 277.257 56.0048 277.257C52.8904 277.257 50.3487 279.732 50.3487 282.794C50.3627 285.856 52.9044 288.33 56.0187 288.33Z" stroke="#5A5A5A" stroke-width="0.5"/>
<path d="M51.899 282.794C51.885 283.912 52.3459 284.919 53.1 285.646C53.8542 286.373 54.8876 286.82 56.0049 286.834M60.1387 282.808C60.1387 283.912 59.6778 284.919 58.9376 285.66C58.1835 286.387 57.164 286.848 56.0188 286.848L60.1387 282.808ZM51.899 282.794C51.899 281.689 52.3598 280.683 53.1 279.942C53.8542 279.214 54.8876 278.767 56.0188 278.767L51.899 282.794ZM60.1387 282.808C60.1387 281.675 59.6778 280.669 58.9376 279.955L58.9237 279.942C58.1835 279.228 57.164 278.767 56.0328 278.767L60.1387 282.808Z" stroke="#5A5A5A" stroke-width="0.5"/>
<path d="M253.72 356.976L253.736 358.156L253.72 361.222V368.813H263.677V356.976C263.677 353.959 261.433 351.499 258.682 351.499C255.963 351.499 253.72 353.959 253.72 356.976Z" fill="white" stroke="#5A5A5A" stroke-width="0.5"/>
<path d="M254.866 357.041V357.976V365.534H262.547V357.976L262.53 357.041C262.53 354.664 260.827 352.729 258.698 352.729C256.586 352.746 254.866 354.68 254.866 357.041Z" fill="white" stroke="#5A5A5A" stroke-width="0.5"/>
<path d="M265.478 375.175V369.912C265.478 369.305 264.987 368.813 264.381 368.813H253.097C252.491 368.813 252 369.305 252 369.912V375.175C252 375.782 252.491 376.274 253.097 376.274H264.365C264.987 376.274 265.478 375.782 265.478 375.175Z" fill="white" stroke="#5A5A5A" stroke-width="0.5"/>
<path d="M259.386 372.552C259.386 372.142 259.091 371.83 258.747 371.83C258.387 371.814 258.092 372.142 258.092 372.552C258.092 372.962 258.387 373.273 258.731 373.273C259.108 373.257 259.403 372.945 259.386 372.552Z" fill="white" stroke="#5A5A5A" stroke-width="0.5"/>
<path d="M296.478 374.348L296.478 362.04C296.478 361.184 295.795 360.499 294.94 360.499L276.42 360.499C275.566 360.499 274.882 361.184 274.882 362.04L274.882 374.348C274.882 375.203 275.566 375.888 276.42 375.888L294.94 375.888C295.78 375.888 296.478 375.203 296.478 374.348Z" fill="white" stroke="#5A5A5A" stroke-width="0.5"/>
<path d="M294.555 369.656L294.555 367.759C294.555 365.263 292.532 363.238 290.039 363.238L281.321 363.238C278.828 363.238 276.805 365.263 276.805 367.759L276.805 369.656C276.805 372.152 278.828 374.177 281.321 374.177L290.039 374.177C292.532 374.177 294.555 372.152 294.555 369.656Z" fill="white" stroke="#5A5A5A" stroke-width="0.5"/>
<path d="M286.635 371.766C286.635 371.223 286.208 370.782 285.681 370.782C285.153 370.782 284.726 371.223 284.726 371.766C284.726 372.31 285.153 372.75 285.681 372.75C286.208 372.75 286.635 372.31 286.635 371.766Z" fill="white" stroke="#5A5A5A" stroke-width="0.5"/>
<path d="M301 375.018L301 310.737C301 309.914 301.658 309.256 302.48 309.256L327.998 309.256C328.821 309.256 329.478 309.914 329.478 310.737L329.478 375.018C329.478 375.841 328.821 376.499 327.998 376.499L302.48 376.499C301.658 376.499 301 375.826 301 375.018Z" fill="white" stroke="#5A5A5A" stroke-width="0.5"/>
<path d="M311.779 313.207L318.715 313.207C322.737 313.207 325.981 316.47 325.981 320.481L325.981 371.097C325.981 372.085 325.188 372.878 324.202 372.878L306.263 372.878C305.276 372.878 304.484 372.085 304.484 371.097L304.484 320.496C304.499 316.47 307.757 313.207 311.779 313.207Z" fill="white" stroke="#5A5A5A" stroke-width="0.5"/>
<path d="M314.738 366.876C313.937 366.876 313.288 367.553 313.288 368.388C313.288 369.223 313.937 369.899 314.738 369.899C315.539 369.899 316.188 369.223 316.188 368.388C316.188 367.553 315.539 366.876 314.738 366.876Z" fill="white" stroke="#5A5A5A" stroke-width="0.5"/>
<path d="M257.024 302L235.014 302L235 323.587L257.01 323.573L257.024 302Z" fill="white" stroke="#5A5A5A" stroke-width="0.5"/>
<path d="M246.005 318.33C242.891 318.33 240.377 315.856 240.377 312.794C240.377 309.732 242.891 307.257 246.019 307.257C249.133 307.257 251.675 309.732 251.675 312.794C251.661 315.856 249.119 318.33 246.005 318.33Z" stroke="#5A5A5A" stroke-width="0.5"/>
<path d="M250.125 312.794C250.139 313.912 249.678 314.919 248.924 315.646C248.17 316.373 247.136 316.82 246.019 316.834M241.885 312.808C241.885 313.912 242.346 314.919 243.086 315.66C243.84 316.387 244.86 316.848 246.005 316.848L241.885 312.808ZM250.125 312.794C250.125 311.689 249.664 310.683 248.924 309.942C248.17 309.214 247.136 308.767 246.005 308.767L250.125 312.794ZM241.885 312.808C241.885 311.675 242.346 310.669 243.086 309.955L243.1 309.942C243.84 309.228 244.86 308.767 245.991 308.767L241.885 312.808Z" stroke="#5A5A5A" stroke-width="0.5"/>
<rect x="302" y="290" width="8" height="56" transform="rotate(-180 302 290)" fill="#5A5A5A"/>
<rect x="277" y="242" width="8" height="25" transform="rotate(-90 277 242)" fill="#5A5A5A"/>
<rect x="282" y="55" width="30" height="43" transform="rotate(90 282 55)" fill="#5A5A5A"/>
<path d="M450.75 55.2501L125.381 55.4019L125.253 66.75L450.75 66.75L450.75 55.2501Z" stroke="#5A5A5A" stroke-width="0.5" stroke-miterlimit="10"/>
<path d="M450.75 73.2501L125.381 73.4019L125.253 84.75L450.75 84.75L450.75 73.2501Z" stroke="#5A5A5A" stroke-width="0.5" stroke-miterlimit="10"/>
<rect x="386" y="55" width="30" height="43" transform="rotate(90 386 55)" fill="#5A5A5A"/>
<rect x="490" y="55" width="30" height="49" transform="rotate(90 490 55)" fill="#5A5A5A"/>
<rect x="490" y="132" width="30" height="64" transform="rotate(-180 490 132)" fill="#5A5A5A"/>
<rect x="490" y="300" width="30" height="88" transform="rotate(-180 490 300)" fill="#5A5A5A"/>
<path d="M279.75 236.25L238.709 236.275L238.697 237.75L279.75 237.75L279.75 236.25Z" stroke="#5A5A5A" stroke-width="0.5" stroke-miterlimit="10"/>
<path d="M211.306 236.25L170.265 236.275L170.252 237.75L211.306 237.75L211.306 236.25Z" stroke="#5A5A5A" stroke-width="0.5" stroke-miterlimit="10"/>
<path d="M245.528 234.25L204.487 234.275L204.474 235.75L245.528 235.75L245.528 234.25Z" stroke="#5A5A5A" stroke-width="0.5" stroke-miterlimit="10"/>
<line x1="296.734" y1="289.423" x2="269.734" y2="272.423" stroke="#5A5A5A"/>
<line x1="105.422" y1="275.732" x2="119.422" y2="297.732" stroke="#5A5A5A"/>
<line x1="199.245" y1="345.436" x2="167.245" y2="363.436" stroke="#5A5A5A"/>
<circle cx="262.5" cy="144.5" r="39.5" fill="#5A5A5A"/>
<path d="M239.72 148.58C239.72 147.488 240.14 146.618 240.98 145.97C241.34 145.718 241.76 145.526 242.24 145.394V145.286C241.868 145.142 241.538 144.944 241.25 144.692C240.59 144.128 240.26 143.384 240.26 142.46C240.26 141.512 240.662 140.708 241.466 140.048C242.282 139.376 243.38 139.04 244.76 139.04C246.14 139.04 247.232 139.376 248.036 140.048C248.852 140.708 249.26 141.512 249.26 142.46C249.26 143.36 248.93 144.104 248.27 144.692C247.958 144.944 247.628 145.142 247.28 145.286V145.394C247.736 145.514 248.156 145.712 248.54 145.988C249.38 146.636 249.8 147.5 249.8 148.58C249.8 149.624 249.344 150.518 248.432 151.262C247.532 151.994 246.308 152.36 244.76 152.36C243.212 152.36 241.982 151.994 241.07 151.262C240.17 150.518 239.72 149.624 239.72 148.58ZM242.42 142.64C242.42 143.168 242.624 143.6 243.032 143.936C243.44 144.272 244.016 144.44 244.76 144.44C245.504 144.44 246.08 144.272 246.488 143.936C246.896 143.6 247.1 143.168 247.1 142.64C247.1 142.16 246.89 141.758 246.47 141.434C246.062 141.098 245.492 140.93 244.76 140.93C244.028 140.93 243.452 141.098 243.032 141.434C242.624 141.758 242.42 142.16 242.42 142.64ZM242.636 146.942C242.132 147.338 241.88 147.824 241.88 148.4C241.88 148.976 242.132 149.468 242.636 149.876C243.152 150.272 243.86 150.47 244.76 150.47C245.66 150.47 246.362 150.272 246.866 149.876C247.382 149.468 247.64 148.976 247.64 148.4C247.64 147.824 247.382 147.338 246.866 146.942C246.362 146.534 245.66 146.33 244.76 146.33C243.86 146.33 243.152 146.534 242.636 146.942ZM251.054 148.4H253.214C253.298 148.772 253.46 149.102 253.7 149.39C254.24 150.05 255.008 150.38 256.004 150.38C256.832 150.38 257.486 150.176 257.966 149.768C258.458 149.348 258.704 148.832 258.704 148.22C258.704 147.524 258.482 146.978 258.038 146.582C257.606 146.174 256.988 145.97 256.184 145.97H253.124V144.17L256.904 141.47V141.38H251.684V139.4H259.964V141.362L256.724 143.72L255.824 144.08V144.17L256.112 144.134C256.508 144.098 256.742 144.08 256.814 144.08C257.942 144.08 258.884 144.47 259.64 145.25C260.396 146.03 260.774 147.02 260.774 148.22C260.774 149.372 260.33 150.35 259.442 151.154C258.554 151.958 257.408 152.36 256.004 152.36C254.144 152.36 252.77 151.7 251.882 150.38C251.498 149.816 251.222 149.156 251.054 148.4ZM262.132 151.01C262.132 150.65 262.246 150.35 262.474 150.11C262.714 149.87 263.008 149.75 263.356 149.75C263.752 149.75 264.064 149.894 264.292 150.182C264.532 150.47 264.652 150.896 264.652 151.46C264.652 152.384 264.43 153.092 263.986 153.584C263.554 154.088 262.966 154.34 262.222 154.34V153.44C262.582 153.44 262.864 153.338 263.068 153.134C263.284 152.942 263.392 152.684 263.392 152.36V152.252C263.38 152.24 263.374 152.216 263.374 152.18V152.126L263.266 152.162C263.23 152.174 263.152 152.18 263.032 152.18C262.792 152.18 262.582 152.072 262.402 151.856C262.222 151.64 262.132 151.358 262.132 151.01ZM265.907 148.4H268.067C268.151 148.772 268.313 149.102 268.553 149.39C269.093 150.05 269.861 150.38 270.857 150.38C271.685 150.38 272.339 150.176 272.819 149.768C273.311 149.348 273.557 148.832 273.557 148.22C273.557 147.524 273.335 146.978 272.891 146.582C272.459 146.174 271.841 145.97 271.037 145.97H267.977V144.17L271.757 141.47V141.38H266.537V139.4H274.817V141.362L271.577 143.72L270.677 144.08V144.17L270.965 144.134C271.361 144.098 271.595 144.08 271.667 144.08C272.795 144.08 273.737 144.47 274.493 145.25C275.249 146.03 275.627 147.02 275.627 148.22C275.627 149.372 275.183 150.35 274.295 151.154C273.407 151.958 272.261 152.36 270.857 152.36C268.997 152.36 267.623 151.7 266.735 150.38C266.351 149.816 266.075 149.156 265.907 148.4ZM276.446 141.38V139.4H284.996V141.38L279.956 152H277.706L282.656 141.56V141.38H276.446Z" fill="white"/>
</svg>
