<svg width="283" height="694" viewBox="0 0 283 694" fill="none" xmlns="http://www.w3.org/2000/svg">
<rect x="252" y="634" width="30" height="31" transform="rotate(-90 252 634)" fill="#5A5A5A"/>
<path d="M120 603L120 426.845L267 426.845L267 603L120 603Z" fill="#FFF8BA"/>
<path d="M34 339.549V30H266L266 339.549H34Z" fill="#FFF8BA"/>
<path d="M34 336.477L34 29.6891H282L282 336.477H34Z" fill="#FFF8BA"/>
<path d="M121 446.637L121 139.85H276L276 446.637L121 446.637Z" fill="#FFF8BA"/>
<path d="M162.35 525.42V523.6L164.17 522.2H165.64V532H164.03V524.16L162.35 525.42ZM167.181 529.27H168.861C168.936 529.559 169.062 529.807 169.239 530.012C169.65 530.497 170.247 530.74 171.031 530.74C171.656 530.74 172.151 530.572 172.515 530.236C172.879 529.9 173.061 529.461 173.061 528.92C173.061 528.351 172.879 527.893 172.515 527.548C172.151 527.203 171.656 527.03 171.031 527.03C170.452 527.03 169.962 527.184 169.561 527.492C169.402 527.613 169.262 527.763 169.141 527.94H167.601L168.021 522.2H173.971V523.74H169.351L169.141 526.26H169.211C169.36 526.111 169.533 525.985 169.729 525.882C170.168 525.621 170.695 525.49 171.311 525.49C172.291 525.49 173.108 525.817 173.761 526.47C174.414 527.123 174.741 527.94 174.741 528.92C174.741 529.881 174.396 530.684 173.705 531.328C173.024 531.963 172.132 532.28 171.031 532.28C169.594 532.28 168.525 531.781 167.825 530.782C167.526 530.343 167.312 529.839 167.181 529.27ZM175.794 531.23C175.794 530.95 175.883 530.717 176.06 530.53C176.247 530.343 176.476 530.25 176.746 530.25C177.054 530.25 177.297 530.362 177.474 530.586C177.661 530.81 177.754 531.141 177.754 531.58C177.754 532.299 177.582 532.849 177.236 533.232C176.9 533.624 176.443 533.82 175.864 533.82V533.12C176.144 533.12 176.364 533.041 176.522 532.882C176.69 532.733 176.774 532.532 176.774 532.28V532.196C176.765 532.187 176.76 532.168 176.76 532.14V532.098L176.676 532.126C176.648 532.135 176.588 532.14 176.494 532.14C176.308 532.14 176.144 532.056 176.004 531.888C175.864 531.72 175.794 531.501 175.794 531.23ZM180.271 530.824C179.384 529.853 178.941 528.612 178.941 527.1C178.941 525.588 179.384 524.347 180.271 523.376C181.157 522.405 182.231 521.92 183.491 521.92C184.751 521.92 185.824 522.405 186.711 523.376C187.597 524.347 188.041 525.588 188.041 527.1C188.041 528.612 187.597 529.853 186.711 530.824C185.824 531.795 184.751 532.28 183.491 532.28C182.231 532.28 181.157 531.795 180.271 530.824ZM181.419 524.412C180.887 525.047 180.621 525.943 180.621 527.1C180.621 528.257 180.887 529.153 181.419 529.788C181.96 530.423 182.651 530.74 183.491 530.74C184.331 530.74 185.017 530.423 185.549 529.788C186.09 529.153 186.361 528.257 186.361 527.1C186.361 525.943 186.09 525.047 185.549 524.412C185.017 523.777 184.331 523.46 183.491 523.46C182.651 523.46 181.96 523.777 181.419 524.412ZM189.164 528.78C189.164 528.332 189.262 527.865 189.458 527.38C189.663 526.885 189.859 526.498 190.046 526.218C190.242 525.929 190.508 525.569 190.844 525.14L193.084 522.2H194.974L192.86 524.958L192.244 525.49V525.56L192.524 525.462C192.804 525.387 193.107 525.35 193.434 525.35C194.348 525.35 195.123 525.681 195.758 526.344C196.402 526.997 196.724 527.809 196.724 528.78C196.724 529.769 196.369 530.6 195.66 531.272C194.95 531.944 194.045 532.28 192.944 532.28C191.842 532.28 190.937 531.944 190.228 531.272C189.518 530.6 189.164 529.769 189.164 528.78ZM191.418 527.324C191.035 527.697 190.844 528.183 190.844 528.78C190.844 529.377 191.035 529.867 191.418 530.25C191.8 530.623 192.309 530.81 192.944 530.81C193.578 530.81 194.087 530.623 194.47 530.25C194.852 529.867 195.044 529.377 195.044 528.78C195.044 528.183 194.852 527.697 194.47 527.324C194.087 526.941 193.578 526.75 192.944 526.75C192.309 526.75 191.8 526.941 191.418 527.324Z" fill="#333333"/>
<path d="M196 415L266 415L266 308L196 308L196 415Z" fill="#FFC79F"/>
<path d="M208.21 362.04V360.5L211.5 354.2H213.25L209.96 360.5H213.18V358.12H213.25H214.79V360.5H216.19V362.04H214.79V364H213.18V362.04H208.21ZM216.749 363.23C216.749 362.95 216.838 362.717 217.015 362.53C217.202 362.343 217.431 362.25 217.701 362.25C218.009 362.25 218.252 362.362 218.429 362.586C218.616 362.81 218.709 363.141 218.709 363.58C218.709 364.299 218.537 364.849 218.191 365.232C217.855 365.624 217.398 365.82 216.819 365.82V365.12C217.099 365.12 217.319 365.041 217.477 364.882C217.645 364.733 217.729 364.532 217.729 364.28V364.196C217.72 364.187 217.715 364.168 217.715 364.14V364.098L217.631 364.126C217.603 364.135 217.543 364.14 217.449 364.14C217.263 364.14 217.099 364.056 216.959 363.888C216.819 363.72 216.749 363.501 216.749 363.23ZM219.406 355.74V354.2H226.056V355.74L222.136 364H220.386L224.236 355.88V355.74H219.406ZM226.754 364V362.46L230.1 360.094C230.828 359.571 231.351 359.086 231.668 358.638C231.985 358.19 232.144 357.714 232.144 357.21C232.144 356.678 231.981 356.253 231.654 355.936C231.327 355.619 230.884 355.46 230.324 355.46C229.633 355.46 229.115 355.74 228.77 356.3C228.621 356.543 228.509 356.823 228.434 357.14H226.754C226.838 356.543 227.02 356.006 227.3 355.53C227.963 354.457 228.971 353.92 230.324 353.92C231.36 353.92 232.2 354.228 232.844 354.844C233.497 355.451 233.824 356.216 233.824 357.14C233.824 357.943 233.619 358.666 233.208 359.31C232.797 359.945 232.139 360.575 231.234 361.2L229.834 362.18L229.204 362.46V362.53L230.044 362.46H233.824V364H226.754Z" fill="#333333"/>
<path d="M196 301L266 301L266 230L196 230L196 301Z" fill="#FFC79F"/>
<path d="M210.42 271.2H212.1C212.165 271.489 212.291 271.746 212.478 271.97C212.898 272.483 213.495 272.74 214.27 272.74C214.914 272.74 215.423 272.581 215.796 272.264C216.179 271.937 216.37 271.536 216.37 271.06C216.37 270.519 216.197 270.094 215.852 269.786C215.516 269.469 215.035 269.31 214.41 269.31H212.03V267.91L214.97 265.81V265.74H210.91V264.2H217.35V265.726L214.83 267.56L214.13 267.84V267.91L214.354 267.882C214.662 267.854 214.844 267.84 214.9 267.84C215.777 267.84 216.51 268.143 217.098 268.75C217.686 269.357 217.98 270.127 217.98 271.06C217.98 271.956 217.635 272.717 216.944 273.342C216.253 273.967 215.362 274.28 214.27 274.28C212.823 274.28 211.755 273.767 211.064 272.74C210.765 272.301 210.551 271.788 210.42 271.2ZM219.037 273.23C219.037 272.95 219.125 272.717 219.303 272.53C219.489 272.343 219.718 272.25 219.989 272.25C220.297 272.25 220.539 272.362 220.717 272.586C220.903 272.81 220.997 273.141 220.997 273.58C220.997 274.299 220.824 274.849 220.479 275.232C220.143 275.624 219.685 275.82 219.107 275.82V275.12C219.387 275.12 219.606 275.041 219.765 274.882C219.933 274.733 220.017 274.532 220.017 274.28V274.196C220.007 274.187 220.003 274.168 220.003 274.14V274.098L219.919 274.126C219.891 274.135 219.83 274.14 219.737 274.14C219.55 274.14 219.387 274.056 219.247 273.888C219.107 273.72 219.037 273.501 219.037 273.23ZM221.903 267.42V265.6L223.723 264.2H225.193V274H223.583V266.16L221.903 267.42ZM226.594 271.2H228.274C228.339 271.489 228.465 271.746 228.652 271.97C229.072 272.483 229.669 272.74 230.444 272.74C231.088 272.74 231.596 272.581 231.97 272.264C232.352 271.937 232.544 271.536 232.544 271.06C232.544 270.519 232.371 270.094 232.026 269.786C231.69 269.469 231.209 269.31 230.584 269.31H228.204V267.91L231.144 265.81V265.74H227.084V264.2H233.524V265.726L231.004 267.56L230.304 267.84V267.91L230.528 267.882C230.836 267.854 231.018 267.84 231.074 267.84C231.951 267.84 232.684 268.143 233.272 268.75C233.86 269.357 234.154 270.127 234.154 271.06C234.154 271.956 233.808 272.717 233.118 273.342C232.427 273.967 231.536 274.28 230.444 274.28C228.997 274.28 227.928 273.767 227.238 272.74C226.939 272.301 226.724 271.788 226.594 271.2Z" fill="#333333"/>
<path d="M82.49 171.78C82.49 171.332 82.588 170.865 82.784 170.38C82.9893 169.885 83.1853 169.498 83.372 169.218C83.568 168.929 83.834 168.569 84.17 168.14L86.41 165.2H88.3L86.186 167.958L85.57 168.49V168.56L85.85 168.462C86.13 168.387 86.4333 168.35 86.76 168.35C87.6747 168.35 88.4493 168.681 89.084 169.344C89.728 169.997 90.05 170.809 90.05 171.78C90.05 172.769 89.6953 173.6 88.986 174.272C88.2767 174.944 87.3713 175.28 86.27 175.28C85.1687 175.28 84.2633 174.944 83.554 174.272C82.8447 173.6 82.49 172.769 82.49 171.78ZM84.744 170.324C84.3613 170.697 84.17 171.183 84.17 171.78C84.17 172.377 84.3613 172.867 84.744 173.25C85.1267 173.623 85.6353 173.81 86.27 173.81C86.9047 173.81 87.4133 173.623 87.796 173.25C88.1787 172.867 88.37 172.377 88.37 171.78C88.37 171.183 88.1787 170.697 87.796 170.324C87.4133 169.941 86.9047 169.75 86.27 169.75C85.6353 169.75 85.1267 169.941 84.744 170.324ZM91.1733 174.23C91.1733 173.95 91.2619 173.717 91.4393 173.53C91.6259 173.343 91.8546 173.25 92.1253 173.25C92.4333 173.25 92.6759 173.362 92.8533 173.586C93.0399 173.81 93.1333 174.141 93.1333 174.58C93.1333 175.299 92.9606 175.849 92.6153 176.232C92.2793 176.624 91.8219 176.82 91.2433 176.82V176.12C91.5233 176.12 91.7426 176.041 91.9013 175.882C92.0693 175.733 92.1533 175.532 92.1533 175.28V175.196C92.1439 175.187 92.1393 175.168 92.1393 175.14V175.098L92.0553 175.126C92.0273 175.135 91.9666 175.14 91.8733 175.14C91.6866 175.14 91.5233 175.056 91.3833 174.888C91.2433 174.72 91.1733 174.501 91.1733 174.23ZM93.8995 173.04V171.5L97.1895 165.2H98.9395L95.6495 171.5H98.8695V169.12H98.9395H100.479V171.5H101.879V173.04H100.479V175H98.8695V173.04H93.8995ZM102.439 172.34C102.439 171.491 102.766 170.814 103.419 170.31C103.699 170.114 104.026 169.965 104.399 169.862V169.778C104.11 169.666 103.853 169.512 103.629 169.316C103.116 168.877 102.859 168.299 102.859 167.58C102.859 166.843 103.172 166.217 103.797 165.704C104.432 165.181 105.286 164.92 106.359 164.92C107.432 164.92 108.282 165.181 108.907 165.704C109.542 166.217 109.859 166.843 109.859 167.58C109.859 168.28 109.602 168.859 109.089 169.316C108.846 169.512 108.59 169.666 108.319 169.778V169.862C108.674 169.955 109 170.109 109.299 170.324C109.952 170.828 110.279 171.5 110.279 172.34C110.279 173.152 109.924 173.847 109.215 174.426C108.515 174.995 107.563 175.28 106.359 175.28C105.155 175.28 104.198 174.995 103.489 174.426C102.789 173.847 102.439 173.152 102.439 172.34ZM104.539 167.72C104.539 168.131 104.698 168.467 105.015 168.728C105.332 168.989 105.78 169.12 106.359 169.12C106.938 169.12 107.386 168.989 107.703 168.728C108.02 168.467 108.179 168.131 108.179 167.72C108.179 167.347 108.016 167.034 107.689 166.782C107.372 166.521 106.928 166.39 106.359 166.39C105.79 166.39 105.342 166.521 105.015 166.782C104.698 167.034 104.539 167.347 104.539 167.72ZM104.707 171.066C104.315 171.374 104.119 171.752 104.119 172.2C104.119 172.648 104.315 173.031 104.707 173.348C105.108 173.656 105.659 173.81 106.359 173.81C107.059 173.81 107.605 173.656 107.997 173.348C108.398 173.031 108.599 172.648 108.599 172.2C108.599 171.752 108.398 171.374 107.997 171.066C107.605 170.749 107.059 170.59 106.359 170.59C105.659 170.59 105.108 170.749 104.707 171.066Z" fill="#333333"/>
<path d="M196.42 187V185.46L199.766 183.094C200.494 182.571 201.017 182.086 201.334 181.638C201.651 181.19 201.81 180.714 201.81 180.21C201.81 179.678 201.647 179.253 201.32 178.936C200.993 178.619 200.55 178.46 199.99 178.46C199.299 178.46 198.781 178.74 198.436 179.3C198.287 179.543 198.175 179.823 198.1 180.14H196.42C196.504 179.543 196.686 179.006 196.966 178.53C197.629 177.457 198.637 176.92 199.99 176.92C201.026 176.92 201.866 177.228 202.51 177.844C203.163 178.451 203.49 179.216 203.49 180.14C203.49 180.943 203.285 181.666 202.874 182.31C202.463 182.945 201.805 183.575 200.9 184.2L199.5 185.18L198.87 185.46V185.53L199.71 185.46H203.49V187H196.42ZM204.403 180.42V178.6L206.223 177.2H207.693V187H206.083V179.16L204.403 180.42ZM209.234 186.23C209.234 185.95 209.322 185.717 209.5 185.53C209.686 185.343 209.915 185.25 210.186 185.25C210.494 185.25 210.736 185.362 210.914 185.586C211.1 185.81 211.194 186.141 211.194 186.58C211.194 187.299 211.021 187.849 210.676 188.232C210.34 188.624 209.882 188.82 209.304 188.82V188.12C209.584 188.12 209.803 188.041 209.962 187.882C210.13 187.733 210.214 187.532 210.214 187.28V187.196C210.204 187.187 210.2 187.168 210.2 187.14V187.098L210.116 187.126C210.088 187.135 210.027 187.14 209.934 187.14C209.747 187.14 209.584 187.056 209.444 186.888C209.304 186.72 209.234 186.501 209.234 186.23ZM212.24 183.78C212.24 183.332 212.338 182.865 212.534 182.38C212.739 181.885 212.935 181.498 213.122 181.218C213.318 180.929 213.584 180.569 213.92 180.14L216.16 177.2H218.05L215.936 179.958L215.32 180.49V180.56L215.6 180.462C215.88 180.387 216.183 180.35 216.51 180.35C217.425 180.35 218.199 180.681 218.834 181.344C219.478 181.997 219.8 182.809 219.8 183.78C219.8 184.769 219.445 185.6 218.736 186.272C218.027 186.944 217.121 187.28 216.02 187.28C214.919 187.28 214.013 186.944 213.304 186.272C212.595 185.6 212.24 184.769 212.24 183.78ZM214.494 182.324C214.111 182.697 213.92 183.183 213.92 183.78C213.92 184.377 214.111 184.867 214.494 185.25C214.877 185.623 215.385 185.81 216.02 185.81C216.655 185.81 217.163 185.623 217.546 185.25C217.929 184.867 218.12 184.377 218.12 183.78C218.12 183.183 217.929 182.697 217.546 182.324C217.163 181.941 216.655 181.75 216.02 181.75C215.385 181.75 214.877 181.941 214.494 182.324ZM220.853 183.78C220.853 183.332 220.951 182.865 221.147 182.38C221.353 181.885 221.549 181.498 221.735 181.218C221.931 180.929 222.197 180.569 222.533 180.14L224.773 177.2H226.663L224.549 179.958L223.933 180.49V180.56L224.213 180.462C224.493 180.387 224.797 180.35 225.123 180.35C226.038 180.35 226.813 180.681 227.447 181.344C228.091 181.997 228.413 182.809 228.413 183.78C228.413 184.769 228.059 185.6 227.349 186.272C226.64 186.944 225.735 187.28 224.633 187.28C223.532 187.28 222.627 186.944 221.917 186.272C221.208 185.6 220.853 184.769 220.853 183.78ZM223.107 182.324C222.725 182.697 222.533 183.183 222.533 183.78C222.533 184.377 222.725 184.867 223.107 185.25C223.49 185.623 223.999 185.81 224.633 185.81C225.268 185.81 225.777 185.623 226.159 185.25C226.542 184.867 226.733 184.377 226.733 183.78C226.733 183.183 226.542 182.697 226.159 182.324C225.777 181.941 225.268 181.75 224.633 181.75C223.999 181.75 223.49 181.941 223.107 182.324Z" fill="#333333"/>
<path d="M38.35 313.42V311.6L40.17 310.2H41.64V320H40.03V312.16L38.35 313.42ZM43.0411 320V318.46L46.3871 316.094C47.1151 315.571 47.6378 315.086 47.9551 314.638C48.2724 314.19 48.4311 313.714 48.4311 313.21C48.4311 312.678 48.2678 312.253 47.9411 311.936C47.6144 311.619 47.1711 311.46 46.6111 311.46C45.9204 311.46 45.4024 311.74 45.0571 312.3C44.9078 312.543 44.7958 312.823 44.7211 313.14H43.0411C43.1251 312.543 43.3071 312.006 43.5871 311.53C44.2498 310.457 45.2578 309.92 46.6111 309.92C47.6471 309.92 48.4871 310.228 49.1311 310.844C49.7844 311.451 50.1111 312.216 50.1111 313.14C50.1111 313.943 49.9058 314.666 49.4951 315.31C49.0844 315.945 48.4264 316.575 47.5211 317.2L46.1211 318.18L45.4911 318.46V318.53L46.3311 318.46H50.1111V320H43.0411ZM51.2338 319.23C51.2338 318.95 51.3225 318.717 51.4998 318.53C51.6865 318.343 51.9152 318.25 52.1858 318.25C52.4938 318.25 52.7365 318.362 52.9138 318.586C53.1005 318.81 53.1938 319.141 53.1938 319.58C53.1938 320.299 53.0212 320.849 52.6758 321.232C52.3398 321.624 51.8825 321.82 51.3038 321.82V321.12C51.5838 321.12 51.8032 321.041 51.9618 320.882C52.1298 320.733 52.2138 320.532 52.2138 320.28V320.196C52.2045 320.187 52.1998 320.168 52.1998 320.14V320.098L52.1158 320.126C52.0878 320.135 52.0272 320.14 51.9338 320.14C51.7472 320.14 51.5838 320.056 51.4438 319.888C51.3038 319.72 51.2338 319.501 51.2338 319.23ZM55.71 318.824C54.8233 317.853 54.38 316.612 54.38 315.1C54.38 313.588 54.8233 312.347 55.71 311.376C56.5967 310.405 57.67 309.92 58.93 309.92C60.19 309.92 61.2633 310.405 62.15 311.376C63.0367 312.347 63.48 313.588 63.48 315.1C63.48 316.612 63.0367 317.853 62.15 318.824C61.2633 319.795 60.19 320.28 58.93 320.28C57.67 320.28 56.5967 319.795 55.71 318.824ZM56.858 312.412C56.326 313.047 56.06 313.943 56.06 315.1C56.06 316.257 56.326 317.153 56.858 317.788C57.3993 318.423 58.09 318.74 58.93 318.74C59.77 318.74 60.456 318.423 60.988 317.788C61.5293 317.153 61.8 316.257 61.8 315.1C61.8 313.943 61.5293 313.047 60.988 312.412C60.456 311.777 59.77 311.46 58.93 311.46C58.09 311.46 57.3993 311.777 56.858 312.412ZM64.2533 311.74V310.2H70.9033V311.74L66.9833 320H65.2333L69.0833 311.88V311.74H64.2533Z" fill="#333333"/>
<rect x="229" y="30" width="30" height="53" transform="rotate(-90 229 30)" fill="#5A5A5A"/>
<rect x="282" y="614" width="16" height="592" transform="rotate(-180 282 614)" fill="#5A5A5A"/>
<rect x="178" y="425" width="16" height="88" transform="rotate(-90 178 425)" fill="#5A5A5A"/>
<rect x="128" y="425" width="16" height="10" transform="rotate(-90 128 425)" fill="#5A5A5A"/>
<path d="M246.476 318.72L247.657 318.736L250.723 318.72L258.314 318.72L258.314 328.677L246.476 328.677C243.459 328.677 241 326.433 241 323.682C241 320.963 243.459 318.72 246.476 318.72Z" fill="white" stroke="#5A5A5A" stroke-width="0.5"/>
<path d="M246.542 319.866L247.476 319.866L255.035 319.866L255.035 327.547L247.476 327.547L246.542 327.53C244.164 327.53 242.23 325.827 242.23 323.698C242.246 321.585 244.181 319.866 246.542 319.866Z" fill="white" stroke="#5A5A5A" stroke-width="0.5"/>
<path d="M264.676 330.478L259.412 330.478C258.806 330.478 258.314 329.987 258.314 329.381L258.314 318.097C258.314 317.491 258.806 317 259.412 317L264.676 317C265.282 317 265.774 317.491 265.774 318.097L265.774 329.365C265.774 329.987 265.282 330.478 264.676 330.478Z" fill="white" stroke="#5A5A5A" stroke-width="0.5"/>
<path d="M262.052 324.386C261.642 324.386 261.331 324.091 261.331 323.747C261.315 323.387 261.642 323.092 262.052 323.092C262.462 323.092 262.774 323.387 262.774 323.731C262.757 324.108 262.446 324.403 262.052 324.386Z" fill="white" stroke="#5A5A5A" stroke-width="0.5"/>
<path d="M264.848 369.596L252.54 369.596C251.685 369.596 251 368.913 251 368.058L251 349.539C251 348.684 251.685 348 252.54 348L264.848 348C265.704 348 266.389 348.684 266.389 349.539L266.389 368.058C266.389 368.898 265.704 369.596 264.848 369.596Z" fill="white" stroke="#5A5A5A" stroke-width="0.5"/>
<path d="M260.156 367.673L258.259 367.673C255.764 367.673 253.738 365.65 253.738 363.157L253.738 354.439C253.738 351.946 255.764 349.923 258.259 349.923L260.156 349.923C262.652 349.923 264.677 351.946 264.677 354.439L264.677 363.157C264.677 365.65 262.652 367.673 260.156 367.673Z" fill="white" stroke="#5A5A5A" stroke-width="0.5"/>
<path d="M262.267 359.753C261.724 359.753 261.283 359.326 261.283 358.799C261.283 358.272 261.724 357.844 262.267 357.844C262.81 357.844 263.251 358.272 263.251 358.799C263.251 359.326 262.81 359.753 262.267 359.753Z" fill="white" stroke="#5A5A5A" stroke-width="0.5"/>
<path d="M264.548 382.431L204.428 382.431C203.658 382.431 203.042 383.046 203.042 383.815L203.042 407.682C203.042 408.451 203.658 409.066 204.428 409.066L264.548 409.066C265.318 409.066 265.934 408.451 265.934 407.682L265.934 383.815C265.934 383.046 265.304 382.431 264.548 382.431Z" fill="white" stroke="#5A5A5A" stroke-width="0.5"/>
<path d="M206.738 392.512L206.738 399C206.738 402.761 209.789 405.795 213.54 405.795L260.881 405.795C261.805 405.795 262.547 405.054 262.547 404.131L262.547 387.353C262.547 386.43 261.805 385.689 260.881 385.689L213.554 385.689C209.789 385.703 206.738 388.751 206.738 392.512Z" fill="white" stroke="#5A5A5A" stroke-width="0.5"/>
<path d="M256.934 395.28C256.934 394.531 257.566 393.924 258.347 393.924C259.128 393.924 259.761 394.531 259.761 395.28C259.761 396.029 259.128 396.636 258.347 396.636C257.566 396.636 256.934 396.029 256.934 395.28Z" fill="white" stroke="#5A5A5A" stroke-width="0.5"/>
<path d="M201 331.024L201 309.014L222.587 309L222.573 331.01L201 331.024Z" fill="white" stroke="#5A5A5A" stroke-width="0.5"/>
<path d="M217.33 320.005C217.33 316.891 214.856 314.377 211.794 314.377C208.732 314.377 206.257 316.891 206.257 320.019C206.257 323.133 208.732 325.675 211.794 325.675C214.856 325.661 217.33 323.119 217.33 320.005Z" stroke="#5A5A5A" stroke-width="0.5"/>
<path d="M211.794 324.125C212.912 324.139 213.919 323.678 214.646 322.924C215.373 322.17 215.82 321.136 215.834 320.019M211.808 315.885C212.912 315.885 213.919 316.346 214.66 317.086C215.387 317.84 215.848 318.86 215.848 320.005L211.808 315.885ZM211.794 324.125C210.689 324.125 209.683 323.664 208.942 322.924C208.214 322.17 207.767 321.136 207.767 320.005L211.794 324.125ZM211.808 315.885C210.675 315.885 209.669 316.346 208.955 317.086L208.942 317.1C208.228 317.84 207.767 318.86 207.767 319.991L211.808 315.885Z" stroke="#5A5A5A" stroke-width="0.5"/>
<rect x="188" y="372" width="8" height="51" fill="#5A5A5A"/>
<rect x="270" y="301" width="8" height="96" transform="rotate(90 270 301)" fill="#5A5A5A"/>
<rect x="196" y="343" width="8" height="64" transform="rotate(-180 196 343)" fill="#5A5A5A"/>
<rect x="196" y="249" width="8" height="19" transform="rotate(-180 196 249)" fill="#5A5A5A"/>
<rect x="186" y="230" width="16" height="80" transform="rotate(-90 186 230)" fill="#5A5A5A"/>
<rect x="29" y="230" width="16" height="54" transform="rotate(-90 29 230)" fill="#5A5A5A"/>
<rect x="19" y="347" width="16" height="114" transform="rotate(-90 19 347)" fill="#5A5A5A"/>
<rect x="19" y="301" width="16" height="30" fill="#5A5A5A"/>
<rect x="117" y="347" width="16" height="280" fill="#5A5A5A"/>
<circle cx="189.5" cy="89.5" r="39.5" fill="#5A5A5A"/>
<path d="M165.72 93.58C165.72 92.488 166.14 91.618 166.98 90.97C167.34 90.718 167.76 90.526 168.24 90.394V90.286C167.868 90.142 167.538 89.944 167.25 89.692C166.59 89.128 166.26 88.384 166.26 87.46C166.26 86.512 166.662 85.708 167.466 85.048C168.282 84.376 169.38 84.04 170.76 84.04C172.14 84.04 173.232 84.376 174.036 85.048C174.852 85.708 175.26 86.512 175.26 87.46C175.26 88.36 174.93 89.104 174.27 89.692C173.958 89.944 173.628 90.142 173.28 90.286V90.394C173.736 90.514 174.156 90.712 174.54 90.988C175.38 91.636 175.8 92.5 175.8 93.58C175.8 94.624 175.344 95.518 174.432 96.262C173.532 96.994 172.308 97.36 170.76 97.36C169.212 97.36 167.982 96.994 167.07 96.262C166.17 95.518 165.72 94.624 165.72 93.58ZM168.42 87.64C168.42 88.168 168.624 88.6 169.032 88.936C169.44 89.272 170.016 89.44 170.76 89.44C171.504 89.44 172.08 89.272 172.488 88.936C172.896 88.6 173.1 88.168 173.1 87.64C173.1 87.16 172.89 86.758 172.47 86.434C172.062 86.098 171.492 85.93 170.76 85.93C170.028 85.93 169.452 86.098 169.032 86.434C168.624 86.758 168.42 87.16 168.42 87.64ZM168.636 91.942C168.132 92.338 167.88 92.824 167.88 93.4C167.88 93.976 168.132 94.468 168.636 94.876C169.152 95.272 169.86 95.47 170.76 95.47C171.66 95.47 172.362 95.272 172.866 94.876C173.382 94.468 173.64 93.976 173.64 93.4C173.64 92.824 173.382 92.338 172.866 91.942C172.362 91.534 171.66 91.33 170.76 91.33C169.86 91.33 169.152 91.534 168.636 91.942ZM177.144 92.86C177.144 92.284 177.27 91.684 177.522 91.06C177.786 90.424 178.038 89.926 178.278 89.566C178.53 89.194 178.872 88.732 179.304 88.18L182.184 84.4H184.614L181.896 87.946L181.104 88.63V88.72L181.464 88.594C181.824 88.498 182.214 88.45 182.634 88.45C183.81 88.45 184.806 88.876 185.622 89.728C186.45 90.568 186.864 91.612 186.864 92.86C186.864 94.132 186.408 95.2 185.496 96.064C184.584 96.928 183.42 97.36 182.004 97.36C180.588 97.36 179.424 96.928 178.512 96.064C177.6 95.2 177.144 94.132 177.144 92.86ZM180.042 90.988C179.55 91.468 179.304 92.092 179.304 92.86C179.304 93.628 179.55 94.258 180.042 94.75C180.534 95.23 181.188 95.47 182.004 95.47C182.82 95.47 183.474 95.23 183.966 94.75C184.458 94.258 184.704 93.628 184.704 92.86C184.704 92.092 184.458 91.468 183.966 90.988C183.474 90.496 182.82 90.25 182.004 90.25C181.188 90.25 180.534 90.496 180.042 90.988ZM188.308 96.01C188.308 95.65 188.422 95.35 188.65 95.11C188.89 94.87 189.184 94.75 189.532 94.75C189.928 94.75 190.24 94.894 190.468 95.182C190.708 95.47 190.828 95.896 190.828 96.46C190.828 97.384 190.606 98.092 190.162 98.584C189.73 99.088 189.142 99.34 188.398 99.34V98.44C188.758 98.44 189.04 98.338 189.244 98.134C189.46 97.942 189.568 97.684 189.568 97.36V97.252C189.556 97.24 189.55 97.216 189.55 97.18V97.126L189.442 97.162C189.406 97.174 189.328 97.18 189.208 97.18C188.968 97.18 188.758 97.072 188.578 96.856C188.398 96.64 188.308 96.358 188.308 96.01ZM192.083 97V95.02L196.385 91.978C197.321 91.306 197.993 90.682 198.401 90.106C198.809 89.53 199.013 88.918 199.013 88.27C199.013 87.586 198.803 87.04 198.383 86.632C197.963 86.224 197.393 86.02 196.673 86.02C195.785 86.02 195.119 86.38 194.675 87.1C194.483 87.412 194.339 87.772 194.243 88.18H192.083C192.191 87.412 192.425 86.722 192.785 86.11C193.637 84.73 194.933 84.04 196.673 84.04C198.005 84.04 199.085 84.436 199.913 85.228C200.753 86.008 201.173 86.992 201.173 88.18C201.173 89.212 200.909 90.142 200.381 90.97C199.853 91.786 199.007 92.596 197.843 93.4L196.043 94.66L195.233 95.02V95.11L196.313 95.02H201.173V97H192.083ZM202.616 93.49H204.776C204.872 93.862 205.034 94.18 205.262 94.444C205.79 95.068 206.558 95.38 207.566 95.38C208.37 95.38 209.006 95.164 209.474 94.732C209.942 94.3 210.176 93.736 210.176 93.04C210.176 92.308 209.942 91.72 209.474 91.276C209.006 90.832 208.37 90.61 207.566 90.61C206.822 90.61 206.192 90.808 205.676 91.204C205.472 91.36 205.292 91.552 205.136 91.78H203.156L203.696 84.4H211.346V86.38H205.406L205.136 89.62H205.226C205.418 89.428 205.64 89.266 205.892 89.134C206.456 88.798 207.134 88.63 207.926 88.63C209.186 88.63 210.236 89.05 211.076 89.89C211.916 90.73 212.336 91.78 212.336 93.04C212.336 94.276 211.892 95.308 211.004 96.136C210.128 96.952 208.982 97.36 207.566 97.36C205.718 97.36 204.344 96.718 203.444 95.434C203.06 94.87 202.784 94.222 202.616 93.49Z" fill="white"/>
<rect x="120" y="230" width="16" height="27" transform="rotate(-90 120 230)" fill="#5A5A5A"/>
<rect x="19" width="16" height="264" fill="#5A5A5A"/>
<rect x="96" y="30" width="30" height="69" transform="rotate(-90 96 30)" fill="#5A5A5A"/>
<rect x="19" y="30" width="30" height="13" transform="rotate(-90 19 30)" fill="#5A5A5A"/>
<rect x="118" y="634" width="30" height="70" transform="rotate(-90 118 634)" fill="#5A5A5A"/>
<path d="M207.42 669.2H209.1C209.165 669.489 209.291 669.746 209.478 669.97C209.898 670.483 210.495 670.74 211.27 670.74C211.914 670.74 212.423 670.581 212.796 670.264C213.179 669.937 213.37 669.536 213.37 669.06C213.37 668.519 213.197 668.094 212.852 667.786C212.516 667.469 212.035 667.31 211.41 667.31H209.03V665.91L211.97 663.81V663.74H207.91V662.2H214.35V663.726L211.83 665.56L211.13 665.84V665.91L211.354 665.882C211.662 665.854 211.844 665.84 211.9 665.84C212.777 665.84 213.51 666.143 214.098 666.75C214.686 667.357 214.98 668.127 214.98 669.06C214.98 669.956 214.635 670.717 213.944 671.342C213.253 671.967 212.362 672.28 211.27 672.28C209.823 672.28 208.755 671.767 208.064 670.74C207.765 670.301 207.551 669.788 207.42 669.2ZM216.037 671.23C216.037 670.95 216.125 670.717 216.303 670.53C216.489 670.343 216.718 670.25 216.989 670.25C217.297 670.25 217.539 670.362 217.717 670.586C217.903 670.81 217.997 671.141 217.997 671.58C217.997 672.299 217.824 672.849 217.479 673.232C217.143 673.624 216.685 673.82 216.107 673.82V673.12C216.387 673.12 216.606 673.041 216.765 672.882C216.933 672.733 217.017 672.532 217.017 672.28V672.196C217.007 672.187 217.003 672.168 217.003 672.14V672.098L216.919 672.126C216.891 672.135 216.83 672.14 216.737 672.14C216.55 672.14 216.387 672.056 216.247 671.888C216.107 671.72 216.037 671.501 216.037 671.23ZM219.043 668.78C219.043 668.332 219.141 667.865 219.337 667.38C219.542 666.885 219.738 666.498 219.925 666.218C220.121 665.929 220.387 665.569 220.723 665.14L222.963 662.2H224.853L222.739 664.958L222.123 665.49V665.56L222.403 665.462C222.683 665.387 222.986 665.35 223.313 665.35C224.227 665.35 225.002 665.681 225.637 666.344C226.281 666.997 226.603 667.809 226.603 668.78C226.603 669.769 226.248 670.6 225.539 671.272C224.829 671.944 223.924 672.28 222.823 672.28C221.721 672.28 220.816 671.944 220.107 671.272C219.397 670.6 219.043 669.769 219.043 668.78ZM221.297 667.324C220.914 667.697 220.723 668.183 220.723 668.78C220.723 669.377 220.914 669.867 221.297 670.25C221.679 670.623 222.188 670.81 222.823 670.81C223.457 670.81 223.966 670.623 224.349 670.25C224.731 669.867 224.923 669.377 224.923 668.78C224.923 668.183 224.731 667.697 224.349 667.324C223.966 666.941 223.457 666.75 222.823 666.75C222.188 666.75 221.679 666.941 221.297 667.324ZM227.656 668.78C227.656 668.332 227.754 667.865 227.95 667.38C228.155 666.885 228.351 666.498 228.538 666.218C228.734 665.929 229 665.569 229.336 665.14L231.576 662.2H233.466L231.352 664.958L230.736 665.49V665.56L231.016 665.462C231.296 665.387 231.599 665.35 231.926 665.35C232.841 665.35 233.615 665.681 234.25 666.344C234.894 666.997 235.216 667.809 235.216 668.78C235.216 669.769 234.861 670.6 234.152 671.272C233.443 671.944 232.537 672.28 231.436 672.28C230.335 672.28 229.429 671.944 228.72 671.272C228.011 670.6 227.656 669.769 227.656 668.78ZM229.91 667.324C229.527 667.697 229.336 668.183 229.336 668.78C229.336 669.377 229.527 669.867 229.91 670.25C230.293 670.623 230.801 670.81 231.436 670.81C232.071 670.81 232.579 670.623 232.962 670.25C233.345 669.867 233.536 669.377 233.536 668.78C233.536 668.183 233.345 667.697 232.962 667.324C232.579 666.941 232.071 666.75 231.436 666.75C230.801 666.75 230.293 666.941 229.91 667.324Z" fill="#333333"/>
<line x1="215.255" y1="606.43" x2="188.255" y2="622.43" stroke="#5A5A5A"/>
<rect width="5" height="74" transform="matrix(1 0 0 -1 162 694)" fill="#5A5A5A"/>
<rect width="5" height="81" transform="matrix(-4.37114e-08 -1 -1 4.37114e-08 243 694)" fill="#5A5A5A"/>
<path d="M220.25 633.75L280.726 633.687L280.749 629.25L220.25 629.25L220.25 633.75Z" stroke="#5A5A5A" stroke-width="0.5" stroke-miterlimit="10"/>
<path d="M220.25 623.75L280.726 623.687L280.749 619.25L220.25 619.25L220.25 623.75Z" stroke="#5A5A5A" stroke-width="0.5" stroke-miterlimit="10"/>
<rect width="5" height="74" transform="matrix(1 0 0 -1 273 694)" fill="#5A5A5A"/>
<rect width="5" height="114" transform="matrix(-4.37114e-08 -1 -1 4.37114e-08 276 694)" fill="#5A5A5A"/>
<path d="M25.25 29.7498L231.667 29.5981L231.748 18.25L25.25 18.25L25.25 29.7498Z" stroke="#5A5A5A" stroke-width="0.5" stroke-miterlimit="10"/>
<path d="M25.25 11.7498L231.667 11.5981L231.748 0.250008L25.25 0.249999L25.25 11.7498Z" stroke="#5A5A5A" stroke-width="0.5" stroke-miterlimit="10"/>
<line x1="189.562" y1="374.242" x2="173.562" y2="345.242" stroke="#5A5A5A"/>
<line x1="169.259" y1="390.428" x2="136.259" y2="410.428" stroke="#5A5A5A"/>
<line x1="190.444" y1="245.23" x2="175.444" y2="274.23" stroke="#5A5A5A"/>
<line x1="187.246" y1="229.435" x2="148.246" y2="251.435" stroke="#5A5A5A"/>
<line y1="-0.5" x2="44.7772" y2="-0.5" transform="matrix(0.870978 0.491321 0.491321 -0.870978 78 227)" stroke="#5A5A5A"/>
<line y1="-0.5" x2="40.7063" y2="-0.5" transform="matrix(-0.466759 -0.884385 -0.884385 0.466759 19 303)" stroke="#5A5A5A"/>
<path d="M246.702 252.241L247.883 252.258L250.949 252.241L258.54 252.241L258.54 262.199L246.702 262.199C243.685 262.199 241.226 259.955 241.226 257.204C241.226 254.485 243.685 252.241 246.702 252.241Z" fill="white" stroke="#5A5A5A" stroke-width="0.5"/>
<path d="M246.768 253.388L247.702 253.388L255.261 253.388L255.261 261.068L247.702 261.068L246.768 261.052C244.39 261.052 242.456 259.349 242.456 257.22C242.472 255.107 244.407 253.388 246.768 253.388Z" fill="white" stroke="#5A5A5A" stroke-width="0.5"/>
<path d="M264.901 264L259.638 264C259.032 264 258.54 263.509 258.54 262.903L258.54 251.619C258.54 251.013 259.032 250.522 259.638 250.522L264.901 250.522C265.508 250.522 266 251.013 266 251.619L266 262.886C266 263.509 265.508 264 264.901 264Z" fill="white" stroke="#5A5A5A" stroke-width="0.5"/>
<path d="M262.278 257.908C261.868 257.908 261.557 257.613 261.557 257.269C261.54 256.909 261.868 256.614 262.278 256.614C262.688 256.614 262.999 256.909 262.999 257.253C262.983 257.629 262.672 257.924 262.278 257.908Z" fill="white" stroke="#5A5A5A" stroke-width="0.5"/>
<path d="M210 231.54L210 243.848C210 244.704 210.684 245.389 211.539 245.389L230.058 245.389C230.913 245.389 231.596 244.704 231.596 243.848L231.596 231.54C231.596 230.685 230.913 230 230.058 230L211.539 230C210.698 230 210 230.685 210 231.54Z" fill="white" stroke="#5A5A5A" stroke-width="0.5"/>
<path d="M211.923 236.232L211.923 238.129C211.923 240.625 213.946 242.65 216.439 242.65L225.157 242.65C227.65 242.65 229.673 240.625 229.673 238.129L229.673 236.232C229.673 233.737 227.65 231.711 225.157 231.711L216.439 231.711C213.946 231.711 211.923 233.737 211.923 236.232Z" fill="white" stroke="#5A5A5A" stroke-width="0.5"/>
<path d="M219.843 234.122C219.843 234.665 220.271 235.106 220.798 235.106C221.325 235.106 221.752 234.665 221.752 234.122C221.752 233.578 221.325 233.138 220.798 233.138C220.271 233.138 219.843 233.578 219.843 234.122Z" fill="white" stroke="#5A5A5A" stroke-width="0.5"/>
<path d="M35.1084 156.325L60.1038 156.325L60.1038 132L35.1084 132L35.1084 156.325Z" fill="white" stroke="#5A5A5A" stroke-width="0.5"/>
<path d="M58.0771 155.398L38.6241 155.398C37.8862 155.398 37.4937 155.006 37.4937 154.236L37.4937 134.089C37.4937 133.304 37.8705 132.927 38.6241 132.927L58.0771 132.927C58.8307 132.911 59.2076 133.304 59.2076 134.073L59.2076 154.221C59.2233 155.006 58.8307 155.398 58.0771 155.398Z" fill="white" stroke="#5A5A5A" stroke-width="0.5"/>
<path d="M56.2881 148.897C56.2724 147.107 54.8593 145.646 53.1166 145.646C51.3581 145.646 49.9451 147.107 49.9451 148.897C49.9451 150.703 51.3581 152.148 53.1166 152.148C54.875 152.148 56.2881 150.703 56.2881 148.897Z" stroke="#5A5A5A" stroke-width="0.5"/>
<path d="M56.2577 139.271C56.242 137.481 54.8289 136.02 53.0862 136.02C51.3277 136.02 49.9147 137.481 49.9147 139.271C49.9147 141.077 51.3277 142.522 53.0862 142.522C54.8446 142.537 56.2734 141.077 56.2577 139.271Z" stroke="#5A5A5A" stroke-width="0.5"/>
<path d="M47.2441 139.271C47.2441 137.465 45.8311 136.02 44.0726 136.02C42.3142 136.02 40.9011 137.481 40.9011 139.271C40.9168 141.061 42.3299 142.522 44.0726 142.522C45.8154 142.522 47.2441 141.061 47.2441 139.271Z" stroke="#5A5A5A" stroke-width="0.5"/>
<path d="M47.2441 148.897C47.2441 147.091 45.8311 145.646 44.0726 145.646C42.3142 145.646 40.9011 147.107 40.9011 148.897C40.9168 150.687 42.3299 152.148 44.0726 152.148C45.8154 152.148 47.2441 150.687 47.2441 148.897Z" stroke="#5A5A5A" stroke-width="0.5"/>
<path d="M35.0151 180L59.1036 180L59.1036 203.699L35 203.699L35.0151 180Z" fill="white" stroke="#5A5A5A" stroke-width="0.5"/>
<path d="M41.6213 181.803L54.9381 181.803C55.6805 181.803 56.0441 182.167 56.0441 182.925L56.0441 200.532C56.0441 201.259 55.6805 201.638 54.9533 201.653L41.6213 201.638C40.8941 201.653 40.5305 201.275 40.5305 200.532L40.5305 182.925C40.5002 182.182 40.8789 181.803 41.6213 181.803Z" fill="white" stroke="#5A5A5A" stroke-width="0.5"/>
<path d="M36.8635 191.728C36.8787 192.653 37.5756 193.395 38.4543 193.395L45.4384 192.744L45.4536 192.728C45.9838 192.728 46.408 192.289 46.408 191.728C46.408 191.168 45.9838 190.728 45.4384 190.713L38.4543 190.061C37.5907 190.061 36.8787 190.804 36.8635 191.728Z" stroke="#5A5A5A" stroke-width="0.5"/>
<mask id="path-76-inside-1_14_3563" fill="white">
<path fill-rule="evenodd" clip-rule="evenodd" d="M37.5461 193.107L41.3488 192.744C41.879 192.729 42.3184 192.289 42.3032 191.713C42.3032 191.153 41.879 190.728 41.3488 190.713L37.5461 190.35"/>
</mask>
<path fill-rule="evenodd" clip-rule="evenodd" d="M37.5461 193.107L41.3488 192.744C41.879 192.729 42.3184 192.289 42.3032 191.713C42.3032 191.153 41.879 190.728 41.3488 190.713L37.5461 190.35" fill="white"/>
<path d="M41.3488 192.744L41.3345 192.244L41.3178 192.244L41.3012 192.246L41.3488 192.744ZM42.3032 191.713L41.8031 191.713L41.8034 191.727L42.3032 191.713ZM41.3488 190.713L41.3012 191.211L41.3178 191.213L41.3345 191.213L41.3488 190.713ZM37.5937 193.605L41.3964 193.241L41.3012 192.246L37.4985 192.61L37.5937 193.605ZM41.3631 193.244C42.1681 193.221 42.8255 192.552 42.8031 191.7L41.8034 191.727C41.8113 192.026 41.59 192.237 41.3345 192.244L41.3631 193.244ZM42.8032 191.713C42.8032 190.884 42.1657 190.236 41.3631 190.213L41.3345 191.213C41.5924 191.22 41.8032 191.421 41.8032 191.713L42.8032 191.713ZM41.3964 190.216L37.5937 189.852L37.4985 190.847L41.3012 191.211L41.3964 190.216Z" fill="#5A5A5A" mask="url(#path-76-inside-1_14_3563)"/>
<rect width="2" height="11" transform="matrix(1 0 0 -1 145 205)" fill="#5A5A5A"/>
<rect width="2" height="11" transform="matrix(1 0 0 -1 145 188)" fill="#5A5A5A"/>
<rect width="2" height="11" transform="matrix(1 0 0 -1 145 171)" fill="#5A5A5A"/>
<rect width="2" height="11" transform="matrix(1 0 0 -1 145 154)" fill="#5A5A5A"/>
<rect width="2" height="11" transform="matrix(1 0 0 -1 145 134)" fill="#5A5A5A"/>
<rect width="2" height="11" transform="matrix(-4.37114e-08 1 1 4.37114e-08 60 123)" fill="#5A5A5A"/>
<rect width="2" height="11" transform="matrix(-4.37114e-08 1 1 4.37114e-08 42 123)" fill="#5A5A5A"/>
<rect width="2" height="11" transform="matrix(-4.37114e-08 1 1 4.37114e-08 24 123)" fill="#5A5A5A"/>
<rect width="2" height="11" transform="matrix(-4.37114e-08 1 1 4.37114e-08 77 123)" fill="#5A5A5A"/>
<rect width="2" height="11" transform="matrix(-4.37114e-08 1 1 4.37114e-08 94 123)" fill="#5A5A5A"/>
<rect width="2" height="11" transform="matrix(-4.37114e-08 1 1 4.37114e-08 111 123)" fill="#5A5A5A"/>
<rect width="2" height="11" transform="matrix(-4.37114e-08 1 1 4.37114e-08 128 123)" fill="#5A5A5A"/>
</svg>
