<svg width="341" height="543" viewBox="0 0 341 543" fill="none" xmlns="http://www.w3.org/2000/svg">
<rect width="223" height="497" transform="matrix(1 0 0 -1 82 513)" fill="#E7FFD5"/>
<path d="M305 14L305 86L201 86L201 14L305 14Z" fill="#FDFF9F"/>
<path d="M305.497 311L250 311L250 207.129L305.497 207.129L305.497 311Z" fill="#FDFF9F"/>
<line y1="-0.5" x2="39.9675" y2="-0.5" transform="matrix(-0.500406 -0.865791 -0.865791 0.500406 340 167)" stroke="#5A5A5A"/>
<line y1="-0.5" x2="28.8938" y2="-0.5" transform="matrix(-0.899848 -0.436203 -0.436203 0.899848 279 106)" stroke="#5A5A5A"/>
<line x1="280.218" y1="188.846" x2="254.218" y2="201.45" stroke="#5A5A5A"/>
<path d="M244.25 190.75L244.275 157.262L245.75 157.252L245.75 190.75L244.25 190.75Z" stroke="#5A5A5A" stroke-width="0.5" stroke-miterlimit="10"/>
<path d="M244.25 134.75L244.275 101.262L245.75 101.252L245.75 134.75L244.25 134.75Z" stroke="#5A5A5A" stroke-width="0.5" stroke-miterlimit="10"/>
<path d="M242.25 162.75L242.275 129.262L243.75 129.252L243.75 162.75L242.25 162.75Z" stroke="#5A5A5A" stroke-width="0.5" stroke-miterlimit="10"/>
<path d="M283.75 542.75L100.324 542.598L100.252 531.25L283.75 531.25L283.75 542.75Z" stroke="#5A5A5A" stroke-width="0.5" stroke-miterlimit="10"/>
<path d="M52.2504 456.75L52.4016 364.287L63.75 364.251L63.75 456.75H52.2504Z" stroke="#5A5A5A" stroke-width="0.5" stroke-miterlimit="10"/>
<path d="M81.7498 146.25L81.5981 374.658L70.25 374.748L70.25 146.25L81.7498 146.25Z" stroke="#5A5A5A" stroke-width="0.5" stroke-miterlimit="10"/>
<path d="M283.75 524.75L100.324 524.598L100.252 513.25L283.75 513.25L283.75 524.75Z" stroke="#5A5A5A" stroke-width="0.5" stroke-miterlimit="10"/>
<path d="M70.2504 456.75L70.4016 364.287L81.75 364.251L81.75 456.75H70.2504Z" stroke="#5A5A5A" stroke-width="0.5" stroke-miterlimit="10"/>
<path d="M63.7498 146.25L63.5981 374.658L52.25 374.748L52.25 146.25L63.7498 146.25Z" stroke="#5A5A5A" stroke-width="0.5" stroke-miterlimit="10"/>
<rect width="30" height="96" transform="matrix(1 0 0 -1 52 543)" fill="#5A5A5A"/>
<rect width="30" height="30" transform="matrix(-4.37114e-08 -1 -1 4.37114e-08 104 543)" fill="#5A5A5A"/>
<rect width="30" height="45" transform="matrix(-4.37114e-08 -1 -1 4.37114e-08 207 543)" fill="#5A5A5A"/>
<rect width="30" height="50" transform="matrix(-4.37114e-08 -1 -1 4.37114e-08 321 543)" fill="#5A5A5A"/>
<rect width="16" height="239" transform="matrix(-4.37114e-08 1 1 4.37114e-08 82 0)" fill="#5A5A5A"/>
<rect width="16" height="374" transform="matrix(1 0 0 -1 305 543)" fill="#5A5A5A"/>
<rect width="16" height="133" transform="matrix(1 0 0 -1 305 133)" fill="#5A5A5A"/>
<rect width="8" height="22" transform="matrix(-4.37114e-08 -1 -1 4.37114e-08 305 94)" fill="#5A5A5A"/>
<rect width="8" height="22" transform="matrix(1 0 0 -1 244 108)" fill="#5A5A5A"/>
<rect width="8" height="55" transform="matrix(-4.37114e-08 -1 -1 4.37114e-08 254 94)" fill="#5A5A5A"/>
<rect width="8" height="68" transform="matrix(-4.37114e-08 -1 -1 4.37114e-08 314 319)" fill="#5A5A5A"/>
<rect width="8" height="35" transform="matrix(-4.37114e-08 -1 -1 4.37114e-08 318 207)" fill="#5A5A5A"/>
<rect width="8" height="8" transform="matrix(-4.37114e-08 -1 -1 4.37114e-08 258 207)" fill="#5A5A5A"/>
<rect width="8.00001" height="133" transform="matrix(-1 8.74228e-08 8.74228e-08 1 252 186)" fill="#5A5A5A"/>
<line y1="-0.5" x2="33.121" y2="-0.5" transform="matrix(-0.483077 -0.875578 -0.875578 0.483077 82 210)" stroke="#5A5A5A"/>
<path d="M0.250175 275.75L0.313188 181.287L4.74999 181.252L4.75 275.75L0.250175 275.75Z" stroke="#5A5A5A" stroke-width="0.5" stroke-miterlimit="10"/>
<path d="M54.2503 275.75L54.3131 216.273L58.75 216.251L58.75 275.75L54.2503 275.75Z" stroke="#5A5A5A" stroke-width="0.5" stroke-miterlimit="10"/>
<path d="M64.2503 275.75L64.3131 216.273L68.75 216.251L68.75 275.75L64.2503 275.75Z" stroke="#5A5A5A" stroke-width="0.5" stroke-miterlimit="10"/>
<rect width="5" height="74" transform="matrix(-4.37114e-08 1 1 4.37114e-08 0 292)" fill="#5A5A5A"/>
<rect width="5" height="74" transform="matrix(-4.37114e-08 1 1 4.37114e-08 0 164)" fill="#5A5A5A"/>
<rect width="5" height="118" transform="matrix(1 0 0 -1 0 282)" fill="#5A5A5A"/>
<rect width="5" height="19" transform="matrix(1 0 0 -1 0 294)" fill="#5A5A5A"/>
<rect width="8.00001" height="80" transform="matrix(-1 8.74228e-08 8.74228e-08 1 201 14)" fill="#5A5A5A"/>
<rect width="30" height="124" transform="matrix(1 0 0 -1 52 394)" fill="#5A5A5A"/>
<rect width="30" height="68" transform="matrix(1 0 0 -1 52 187)" fill="#5A5A5A"/>
<rect width="30" height="61" transform="matrix(1 0 0 -1 52 61)" fill="#5A5A5A"/>
<path d="M52.2504 135.75L52.4016 43.2874L63.75 43.2508L63.75 135.75H52.2504Z" stroke="#5A5A5A" stroke-width="0.5" stroke-miterlimit="10"/>
<path d="M70.2504 135.75L70.4016 43.2874L81.75 43.2508L81.75 135.75H70.2504Z" stroke="#5A5A5A" stroke-width="0.5" stroke-miterlimit="10"/>
<rect width="2" height="11" transform="matrix(-4.37114e-08 -1 -1 4.37114e-08 306 434)" fill="#5A5A5A"/>
<rect width="2" height="11" transform="matrix(-4.37114e-08 -1 -1 4.37114e-08 289 434)" fill="#5A5A5A"/>
<rect width="2" height="11" transform="matrix(-4.37114e-08 -1 -1 4.37114e-08 272 434)" fill="#5A5A5A"/>
<rect width="2" height="11" transform="matrix(-4.37114e-08 -1 -1 4.37114e-08 255 434)" fill="#5A5A5A"/>
<rect width="2" height="11" transform="matrix(1 0 0 -1 244 427)" fill="#5A5A5A"/>
<rect width="2" height="11" transform="matrix(1 0 0 -1 244 410)" fill="#5A5A5A"/>
<rect width="2" height="11" transform="matrix(1 0 0 -1 244 393)" fill="#5A5A5A"/>
<rect width="2" height="11" transform="matrix(1 0 0 -1 244 376)" fill="#5A5A5A"/>
<rect width="2" height="11" transform="matrix(1 0 0 -1 244 359)" fill="#5A5A5A"/>
<rect width="2" height="11" transform="matrix(1 0 0 -1 244 342)" fill="#5A5A5A"/>
<rect width="2" height="6" transform="matrix(1 0 0 -1 244 325)" fill="#5A5A5A"/>
<path d="M304.995 354.863L280 354.863L280 379.188L304.995 379.188L304.995 354.863Z" fill="white" stroke="#5A5A5A" stroke-width="0.5"/>
<path d="M282.026 355.79L301.479 355.79C302.217 355.79 302.61 356.182 302.61 356.952L302.61 377.099C302.61 377.884 302.233 378.261 301.479 378.261L282.026 378.261C281.273 378.277 280.896 377.884 280.896 377.115L280.896 356.967C280.88 356.182 281.273 355.79 282.026 355.79Z" fill="white" stroke="#5A5A5A" stroke-width="0.5"/>
<path d="M283.815 362.291C283.831 364.081 285.244 365.542 286.987 365.542C288.745 365.542 290.158 364.081 290.158 362.291C290.158 360.485 288.745 359.04 286.987 359.04C285.228 359.04 283.815 360.485 283.815 362.291Z" stroke="#5A5A5A" stroke-width="0.5"/>
<path d="M283.846 371.917C283.862 373.707 285.275 375.168 287.017 375.168C288.776 375.168 290.189 373.707 290.189 371.917C290.189 370.111 288.776 368.666 287.017 368.666C285.259 368.651 283.83 370.111 283.846 371.917Z" stroke="#5A5A5A" stroke-width="0.5"/>
<path d="M292.859 371.917C292.859 373.723 294.272 375.167 296.031 375.167C297.789 375.167 299.202 373.707 299.202 371.917C299.187 370.127 297.774 368.666 296.031 368.666C294.288 368.666 292.859 370.127 292.859 371.917Z" stroke="#5A5A5A" stroke-width="0.5"/>
<path d="M292.859 362.291C292.859 364.097 294.272 365.542 296.031 365.542C297.789 365.542 299.202 364.081 299.202 362.291C299.187 360.501 297.774 359.04 296.031 359.04C294.288 359.04 292.859 360.501 292.859 362.291Z" stroke="#5A5A5A" stroke-width="0.5"/>
<path d="M283.7 318.912L283.7 343L260.001 343L260.001 318.896L283.7 318.912Z" fill="white" stroke="#5A5A5A" stroke-width="0.5"/>
<path d="M281.897 325.518L281.897 338.835C281.897 339.577 281.534 339.941 280.776 339.941L263.169 339.941C262.441 339.941 262.062 339.577 262.047 338.85L262.062 325.518C262.047 324.791 262.426 324.427 263.169 324.427L280.776 324.427C281.519 324.397 281.897 324.775 281.897 325.518Z" fill="white" stroke="#5A5A5A" stroke-width="0.5"/>
<path d="M271.972 320.76C271.048 320.775 270.305 321.472 270.305 322.351L270.957 329.335L270.972 329.35C270.972 329.88 271.411 330.305 271.972 330.305C272.533 330.305 272.972 329.88 272.987 329.335L273.639 322.351C273.639 321.487 272.896 320.775 271.972 320.76Z" stroke="#5A5A5A" stroke-width="0.5"/>
<mask id="path-64-inside-1_40_10883" fill="white">
<path fill-rule="evenodd" clip-rule="evenodd" d="M270.593 321.443L270.956 325.245C270.972 325.775 271.411 326.215 271.987 326.2C272.547 326.2 272.972 325.775 272.987 325.245L273.351 321.443"/>
</mask>
<path fill-rule="evenodd" clip-rule="evenodd" d="M270.593 321.443L270.956 325.245C270.972 325.775 271.411 326.215 271.987 326.2C272.547 326.2 272.972 325.775 272.987 325.245L273.351 321.443" fill="white"/>
<path d="M270.956 325.245L271.456 325.231L271.456 325.214L271.454 325.198L270.956 325.245ZM271.987 326.2L271.987 325.699L271.974 325.7L271.987 326.2ZM272.987 325.245L272.489 325.198L272.488 325.214L272.487 325.231L272.987 325.245ZM270.095 321.49L270.459 325.293L271.454 325.198L271.09 321.395L270.095 321.49ZM270.457 325.259C270.48 326.064 271.148 326.722 272 326.699L271.974 325.7C271.674 325.708 271.464 325.486 271.456 325.231L270.457 325.259ZM271.987 326.7C272.816 326.7 273.464 326.062 273.487 325.259L272.487 325.231C272.48 325.489 272.279 325.7 271.987 325.7L271.987 326.7ZM273.485 325.293L273.848 321.49L272.853 321.395L272.489 325.198L273.485 325.293Z" fill="#5A5A5A" mask="url(#path-64-inside-1_40_10883)"/>
<path d="M283.759 291.702L283.742 292.883L283.759 295.949V303.54H273.802V291.702C273.802 288.685 276.045 286.226 278.797 286.226C281.515 286.226 283.759 288.685 283.759 291.702Z" fill="white" stroke="#5A5A5A" stroke-width="0.5"/>
<path d="M282.612 291.768V292.702V300.261H274.931V292.702L274.948 291.768C274.948 289.39 276.651 287.456 278.78 287.456C280.893 287.472 282.612 289.407 282.612 291.768Z" fill="white" stroke="#5A5A5A" stroke-width="0.5"/>
<path d="M272 309.902V304.639C272 304.032 272.491 303.54 273.097 303.54H284.381C284.987 303.54 285.479 304.032 285.479 304.639V309.902C285.479 310.508 284.987 311 284.381 311H273.114C272.491 311 272 310.508 272 309.902Z" fill="white" stroke="#5A5A5A" stroke-width="0.5"/>
<path d="M278.092 307.278C278.092 306.868 278.387 306.557 278.731 306.557C279.091 306.54 279.386 306.868 279.386 307.278C279.386 307.688 279.091 308 278.747 308C278.37 307.983 278.076 307.672 278.092 307.278Z" fill="white" stroke="#5A5A5A" stroke-width="0.5"/>
<path d="M303.848 237.404L291.54 237.404C290.685 237.404 290 238.087 290 238.942L290 257.462C290 258.316 290.685 259 291.54 259L303.848 259C304.704 259 305.389 258.316 305.389 257.462L305.389 238.942C305.389 238.102 304.704 237.404 303.848 237.404Z" fill="white" stroke="#5A5A5A" stroke-width="0.5"/>
<path d="M299.157 239.327L297.26 239.327C294.764 239.327 292.739 241.35 292.739 243.843L292.739 252.561C292.739 255.054 294.764 257.077 297.26 257.077L299.157 257.077C301.653 257.077 303.678 255.054 303.678 252.561L303.678 243.843C303.678 241.35 301.653 239.327 299.157 239.327Z" fill="white" stroke="#5A5A5A" stroke-width="0.5"/>
<path d="M301.267 247.247C300.724 247.247 300.283 247.674 300.283 248.201C300.283 248.729 300.724 249.156 301.267 249.156C301.81 249.156 302.251 248.729 302.251 248.201C302.251 247.674 301.81 247.247 301.267 247.247Z" fill="white" stroke="#5A5A5A" stroke-width="0.5"/>
<path d="M284.759 35.5239L284.742 34.3434L284.759 31.2774V23.6862H274.802V35.5239C274.802 38.5408 277.045 41.0001 279.797 41.0001C282.515 41.0001 284.759 38.5408 284.759 35.5239Z" fill="white" stroke="#5A5A5A" stroke-width="0.5"/>
<path d="M283.612 35.4583V34.5237V26.9653H275.931V34.5237L275.948 35.4583C275.948 37.8357 277.651 39.7704 279.78 39.7704C281.893 39.754 283.612 37.8193 283.612 35.4583Z" fill="white" stroke="#5A5A5A" stroke-width="0.5"/>
<path d="M273 17.3246V22.5876C273 23.1943 273.491 23.6862 274.097 23.6862H285.381C285.987 23.6862 286.479 23.1943 286.479 22.5876V17.3246C286.479 16.7179 285.987 16.226 285.381 16.226H274.114C273.491 16.226 273 16.7179 273 17.3246Z" fill="white" stroke="#5A5A5A" stroke-width="0.5"/>
<path d="M279.092 19.948C279.092 20.3578 279.387 20.6693 279.731 20.6693C280.091 20.6857 280.386 20.3578 280.386 19.948C280.386 19.5381 280.091 19.2266 279.747 19.2266C279.37 19.243 279.076 19.5545 279.092 19.948Z" fill="white" stroke="#5A5A5A" stroke-width="0.5"/>
<path d="M242.333 17.6949L242.333 30.003C242.333 30.8587 243.017 31.5433 243.872 31.5433L262.391 31.5433C263.246 31.5433 263.93 30.8587 263.93 30.003L263.93 17.6949C263.93 16.8392 263.246 16.1547 262.391 16.1547L243.872 16.1547C243.031 16.1547 242.333 16.8392 242.333 17.6949Z" fill="white" stroke="#5A5A5A" stroke-width="0.5"/>
<path d="M244.257 22.387L244.257 24.2838C244.257 26.7797 246.28 28.8048 248.773 28.8048L257.491 28.8048C259.984 28.8048 262.007 26.7797 262.007 24.2838L262.007 22.387C262.007 19.8912 259.984 17.866 257.491 17.866L248.773 17.866C246.28 17.866 244.257 19.8912 244.257 22.387Z" fill="white" stroke="#5A5A5A" stroke-width="0.5"/>
<path d="M252.177 20.2762C252.177 20.8197 252.604 21.2602 253.132 21.2602C253.659 21.2602 254.086 20.8197 254.086 20.2762C254.086 19.7328 253.659 19.2922 253.132 19.2922C252.604 19.2922 252.177 19.7328 252.177 20.2762Z" fill="white" stroke="#5A5A5A" stroke-width="0.5"/>
<path d="M227.635 17.4937L227.635 77.6144C227.635 78.3843 227.019 79.0002 226.25 79.0002L202.383 79.0002C201.614 79.0002 200.999 78.3843 200.999 77.6144L200.999 17.4937C200.999 16.7238 201.614 16.1079 202.383 16.1079L226.25 16.1079C227.019 16.1079 227.635 16.7378 227.635 17.4937Z" fill="white" stroke="#5A5A5A" stroke-width="0.5"/>
<path d="M217.553 75.3045L211.066 75.3045C207.305 75.3045 204.271 72.2529 204.271 68.5015L204.271 21.1609C204.271 20.237 205.012 19.4951 205.934 19.4951L222.713 19.4951C223.635 19.4951 224.376 20.237 224.376 21.1609L224.376 68.4875C224.362 72.2529 221.314 75.3045 217.553 75.3045Z" fill="white" stroke="#5A5A5A" stroke-width="0.5"/>
<path d="M214.785 25.1083C215.534 25.1083 216.141 24.4754 216.141 23.6946C216.141 22.9138 215.534 22.2809 214.785 22.2809C214.036 22.2809 213.429 22.9138 213.429 23.6946C213.429 24.4754 214.036 25.1083 214.785 25.1083Z" fill="white" stroke="#5A5A5A" stroke-width="0.5"/>
<path d="M283 86.0002L305.009 86.0002L305.023 64.4127L283.014 64.4267L283 86.0002Z" fill="white" stroke="#5A5A5A" stroke-width="0.5"/>
<path d="M294.018 69.6697C297.133 69.6697 299.646 72.1444 299.646 75.2064C299.646 78.2683 297.133 80.7431 294.004 80.7431C290.89 80.7431 288.348 78.2683 288.348 75.2064C288.362 72.1444 290.904 69.6697 294.018 69.6697Z" stroke="#5A5A5A" stroke-width="0.5"/>
<path d="M289.899 75.2064C289.885 74.0879 290.346 73.0812 291.1 72.3542C291.854 71.6271 292.888 71.1797 294.005 71.1657M298.139 75.1924C298.139 74.0879 297.678 73.0812 296.938 72.3402C296.183 71.6131 295.164 71.1517 294.019 71.1517L298.139 75.1924ZM289.899 75.2064C289.899 76.3109 290.36 77.3176 291.1 78.0586C291.854 78.7856 292.888 79.2331 294.019 79.2331L289.899 75.2064ZM298.139 75.1924C298.139 76.3249 297.678 77.3316 296.938 78.0446L296.924 78.0586C296.183 78.7717 295.164 79.2331 294.033 79.2331L298.139 75.1924Z" stroke="#5A5A5A" stroke-width="0.5"/>
<circle cx="177.5" cy="286.5" r="39.5" fill="#5A5A5A"/>
<path d="M154.72 290.58C154.72 289.488 155.14 288.618 155.98 287.97C156.34 287.718 156.76 287.526 157.24 287.394V287.286C156.868 287.142 156.538 286.944 156.25 286.692C155.59 286.128 155.26 285.384 155.26 284.46C155.26 283.512 155.662 282.708 156.466 282.048C157.282 281.376 158.38 281.04 159.76 281.04C161.14 281.04 162.232 281.376 163.036 282.048C163.852 282.708 164.26 283.512 164.26 284.46C164.26 285.36 163.93 286.104 163.27 286.692C162.958 286.944 162.628 287.142 162.28 287.286V287.394C162.736 287.514 163.156 287.712 163.54 287.988C164.38 288.636 164.8 289.5 164.8 290.58C164.8 291.624 164.344 292.518 163.432 293.262C162.532 293.994 161.308 294.36 159.76 294.36C158.212 294.36 156.982 293.994 156.07 293.262C155.17 292.518 154.72 291.624 154.72 290.58ZM157.42 284.64C157.42 285.168 157.624 285.6 158.032 285.936C158.44 286.272 159.016 286.44 159.76 286.44C160.504 286.44 161.08 286.272 161.488 285.936C161.896 285.6 162.1 285.168 162.1 284.64C162.1 284.16 161.89 283.758 161.47 283.434C161.062 283.098 160.492 282.93 159.76 282.93C159.028 282.93 158.452 283.098 158.032 283.434C157.624 283.758 157.42 284.16 157.42 284.64ZM157.636 288.942C157.132 289.338 156.88 289.824 156.88 290.4C156.88 290.976 157.132 291.468 157.636 291.876C158.152 292.272 158.86 292.47 159.76 292.47C160.66 292.47 161.362 292.272 161.866 291.876C162.382 291.468 162.64 290.976 162.64 290.4C162.64 289.824 162.382 289.338 161.866 288.942C161.362 288.534 160.66 288.33 159.76 288.33C158.86 288.33 158.152 288.534 157.636 288.942ZM165.694 283.38V281.4H174.244V283.38L169.204 294H166.954L171.904 283.56V283.38H165.694ZM173.529 293.01C173.529 292.65 173.643 292.35 173.871 292.11C174.111 291.87 174.405 291.75 174.753 291.75C175.149 291.75 175.461 291.894 175.689 292.182C175.929 292.47 176.049 292.896 176.049 293.46C176.049 294.384 175.827 295.092 175.383 295.584C174.951 296.088 174.363 296.34 173.619 296.34V295.44C173.979 295.44 174.261 295.338 174.465 295.134C174.681 294.942 174.789 294.684 174.789 294.36V294.252C174.777 294.24 174.771 294.216 174.771 294.18V294.126L174.663 294.162C174.627 294.174 174.549 294.18 174.429 294.18C174.189 294.18 173.979 294.072 173.799 293.856C173.619 293.64 173.529 293.358 173.529 293.01ZM177.034 291.48V289.5L181.264 281.4H183.514L179.284 289.5H183.424V286.44H183.514H185.494V289.5H187.294V291.48H185.494V294H183.424V291.48H177.034ZM186.928 283.38V281.4H195.478V283.38L190.438 294H188.188L193.138 283.56V283.38H186.928Z" fill="white"/>
<path d="M162.49 460.78C162.49 460.332 162.588 459.865 162.784 459.38C162.989 458.885 163.185 458.498 163.372 458.218C163.568 457.929 163.834 457.569 164.17 457.14L166.41 454.2H168.3L166.186 456.958L165.57 457.49V457.56L165.85 457.462C166.13 457.387 166.433 457.35 166.76 457.35C167.675 457.35 168.449 457.681 169.084 458.344C169.728 458.997 170.05 459.809 170.05 460.78C170.05 461.769 169.695 462.6 168.986 463.272C168.277 463.944 167.371 464.28 166.27 464.28C165.169 464.28 164.263 463.944 163.554 463.272C162.845 462.6 162.49 461.769 162.49 460.78ZM164.744 459.324C164.361 459.697 164.17 460.183 164.17 460.78C164.17 461.377 164.361 461.867 164.744 462.25C165.127 462.623 165.635 462.81 166.27 462.81C166.905 462.81 167.413 462.623 167.796 462.25C168.179 461.867 168.37 461.377 168.37 460.78C168.37 460.183 168.179 459.697 167.796 459.324C167.413 458.941 166.905 458.75 166.27 458.75C165.635 458.75 165.127 458.941 164.744 459.324ZM171.103 460.78C171.103 460.332 171.201 459.865 171.397 459.38C171.603 458.885 171.799 458.498 171.985 458.218C172.181 457.929 172.447 457.569 172.783 457.14L175.023 454.2H176.913L174.799 456.958L174.183 457.49V457.56L174.463 457.462C174.743 457.387 175.047 457.35 175.373 457.35C176.288 457.35 177.063 457.681 177.697 458.344C178.341 458.997 178.663 459.809 178.663 460.78C178.663 461.769 178.309 462.6 177.599 463.272C176.89 463.944 175.985 464.28 174.883 464.28C173.782 464.28 172.877 463.944 172.167 463.272C171.458 462.6 171.103 461.769 171.103 460.78ZM173.357 459.324C172.975 459.697 172.783 460.183 172.783 460.78C172.783 461.377 172.975 461.867 173.357 462.25C173.74 462.623 174.249 462.81 174.883 462.81C175.518 462.81 176.027 462.623 176.409 462.25C176.792 461.867 176.983 461.377 176.983 460.78C176.983 460.183 176.792 459.697 176.409 459.324C176.027 458.941 175.518 458.75 174.883 458.75C174.249 458.75 173.74 458.941 173.357 459.324ZM179.787 463.23C179.787 462.95 179.875 462.717 180.053 462.53C180.239 462.343 180.468 462.25 180.739 462.25C181.047 462.25 181.289 462.362 181.467 462.586C181.653 462.81 181.747 463.141 181.747 463.58C181.747 464.299 181.574 464.849 181.229 465.232C180.893 465.624 180.435 465.82 179.857 465.82V465.12C180.137 465.12 180.356 465.041 180.515 464.882C180.683 464.733 180.767 464.532 180.767 464.28V464.196C180.757 464.187 180.753 464.168 180.753 464.14V464.098L180.669 464.126C180.641 464.135 180.58 464.14 180.487 464.14C180.3 464.14 180.137 464.056 179.997 463.888C179.857 463.72 179.787 463.501 179.787 463.23ZM184.263 462.824C183.376 461.853 182.933 460.612 182.933 459.1C182.933 457.588 183.376 456.347 184.263 455.376C185.149 454.405 186.223 453.92 187.483 453.92C188.743 453.92 189.816 454.405 190.703 455.376C191.589 456.347 192.033 457.588 192.033 459.1C192.033 460.612 191.589 461.853 190.703 462.824C189.816 463.795 188.743 464.28 187.483 464.28C186.223 464.28 185.149 463.795 184.263 462.824ZM185.411 456.412C184.879 457.047 184.613 457.943 184.613 459.1C184.613 460.257 184.879 461.153 185.411 461.788C185.952 462.423 186.643 462.74 187.483 462.74C188.323 462.74 189.009 462.423 189.541 461.788C190.082 461.153 190.353 460.257 190.353 459.1C190.353 457.943 190.082 457.047 189.541 456.412C189.009 455.777 188.323 455.46 187.483 455.46C186.643 455.46 185.952 455.777 185.411 456.412ZM193.226 461.27H194.906C194.981 461.559 195.107 461.807 195.284 462.012C195.695 462.497 196.292 462.74 197.076 462.74C197.701 462.74 198.196 462.572 198.56 462.236C198.924 461.9 199.106 461.461 199.106 460.92C199.106 460.351 198.924 459.893 198.56 459.548C198.196 459.203 197.701 459.03 197.076 459.03C196.497 459.03 196.007 459.184 195.606 459.492C195.447 459.613 195.307 459.763 195.186 459.94H193.646L194.066 454.2H200.016V455.74H195.396L195.186 458.26H195.256C195.405 458.111 195.578 457.985 195.774 457.882C196.213 457.621 196.74 457.49 197.356 457.49C198.336 457.49 199.153 457.817 199.806 458.47C200.459 459.123 200.786 459.94 200.786 460.92C200.786 461.881 200.441 462.684 199.75 463.328C199.069 463.963 198.177 464.28 197.076 464.28C195.639 464.28 194.57 463.781 193.87 462.782C193.571 462.343 193.357 461.839 193.226 461.27Z" fill="#333333"/>
<path d="M260.21 247.04V245.5L263.5 239.2H265.25L261.96 245.5H265.18V243.12H265.25H266.79V245.5H268.19V247.04H266.79V249H265.18V247.04H260.21ZM268.749 248.23C268.749 247.95 268.838 247.717 269.015 247.53C269.202 247.343 269.431 247.25 269.701 247.25C270.009 247.25 270.252 247.362 270.429 247.586C270.616 247.81 270.709 248.141 270.709 248.58C270.709 249.299 270.537 249.849 270.191 250.232C269.855 250.624 269.398 250.82 268.819 250.82V250.12C269.099 250.12 269.319 250.041 269.477 249.882C269.645 249.733 269.729 249.532 269.729 249.28V249.196C269.72 249.187 269.715 249.168 269.715 249.14V249.098L269.631 249.126C269.603 249.135 269.543 249.14 269.449 249.14C269.263 249.14 269.099 249.056 268.959 248.888C268.819 248.72 268.749 248.501 268.749 248.23ZM271.756 245.78C271.756 245.332 271.854 244.865 272.05 244.38C272.255 243.885 272.451 243.498 272.638 243.218C272.834 242.929 273.1 242.569 273.436 242.14L275.676 239.2H277.566L275.452 241.958L274.836 242.49V242.56L275.116 242.462C275.396 242.387 275.699 242.35 276.026 242.35C276.94 242.35 277.715 242.681 278.35 243.344C278.994 243.997 279.316 244.809 279.316 245.78C279.316 246.769 278.961 247.6 278.252 248.272C277.542 248.944 276.637 249.28 275.536 249.28C274.434 249.28 273.529 248.944 272.82 248.272C272.11 247.6 271.756 246.769 271.756 245.78ZM274.01 244.324C273.627 244.697 273.436 245.183 273.436 245.78C273.436 246.377 273.627 246.867 274.01 247.25C274.392 247.623 274.901 247.81 275.536 247.81C276.17 247.81 276.679 247.623 277.062 247.25C277.444 246.867 277.636 246.377 277.636 245.78C277.636 245.183 277.444 244.697 277.062 244.324C276.679 243.941 276.17 243.75 275.536 243.75C274.901 243.75 274.392 243.941 274.01 244.324ZM280.369 245.78C280.369 245.332 280.467 244.865 280.663 244.38C280.868 243.885 281.064 243.498 281.251 243.218C281.447 242.929 281.713 242.569 282.049 242.14L284.289 239.2H286.179L284.065 241.958L283.449 242.49V242.56L283.729 242.462C284.009 242.387 284.312 242.35 284.639 242.35C285.554 242.35 286.328 242.681 286.963 243.344C287.607 243.997 287.929 244.809 287.929 245.78C287.929 246.769 287.574 247.6 286.865 248.272C286.156 248.944 285.25 249.28 284.149 249.28C283.048 249.28 282.142 248.944 281.433 248.272C280.724 247.6 280.369 246.769 280.369 245.78ZM282.623 244.324C282.24 244.697 282.049 245.183 282.049 245.78C282.049 246.377 282.24 246.867 282.623 247.25C283.006 247.623 283.514 247.81 284.149 247.81C284.784 247.81 285.292 247.623 285.675 247.25C286.058 246.867 286.249 246.377 286.249 245.78C286.249 245.183 286.058 244.697 285.675 244.324C285.292 243.941 284.784 243.75 284.149 243.75C283.514 243.75 283.006 243.941 282.623 244.324Z" fill="#333333"/>
<path d="M259.49 399.78C259.49 399.332 259.588 398.865 259.784 398.38C259.989 397.885 260.185 397.498 260.372 397.218C260.568 396.929 260.834 396.569 261.17 396.14L263.41 393.2H265.3L263.186 395.958L262.57 396.49V396.56L262.85 396.462C263.13 396.387 263.433 396.35 263.76 396.35C264.675 396.35 265.449 396.681 266.084 397.344C266.728 397.997 267.05 398.809 267.05 399.78C267.05 400.769 266.695 401.6 265.986 402.272C265.277 402.944 264.371 403.28 263.27 403.28C262.169 403.28 261.263 402.944 260.554 402.272C259.845 401.6 259.49 400.769 259.49 399.78ZM261.744 398.324C261.361 398.697 261.17 399.183 261.17 399.78C261.17 400.377 261.361 400.867 261.744 401.25C262.127 401.623 262.635 401.81 263.27 401.81C263.905 401.81 264.413 401.623 264.796 401.25C265.179 400.867 265.37 400.377 265.37 399.78C265.37 399.183 265.179 398.697 264.796 398.324C264.413 397.941 263.905 397.75 263.27 397.75C262.635 397.75 262.127 397.941 261.744 398.324ZM268.173 402.23C268.173 401.95 268.262 401.717 268.439 401.53C268.626 401.343 268.855 401.25 269.125 401.25C269.433 401.25 269.676 401.362 269.853 401.586C270.04 401.81 270.133 402.141 270.133 402.58C270.133 403.299 269.961 403.849 269.615 404.232C269.279 404.624 268.822 404.82 268.243 404.82V404.12C268.523 404.12 268.743 404.041 268.901 403.882C269.069 403.733 269.153 403.532 269.153 403.28V403.196C269.144 403.187 269.139 403.168 269.139 403.14V403.098L269.055 403.126C269.027 403.135 268.967 403.14 268.873 403.14C268.687 403.14 268.523 403.056 268.383 402.888C268.243 402.72 268.173 402.501 268.173 402.23ZM272.649 401.824C271.763 400.853 271.319 399.612 271.319 398.1C271.319 396.588 271.763 395.347 272.649 394.376C273.536 393.405 274.609 392.92 275.869 392.92C277.129 392.92 278.203 393.405 279.089 394.376C279.976 395.347 280.419 396.588 280.419 398.1C280.419 399.612 279.976 400.853 279.089 401.824C278.203 402.795 277.129 403.28 275.869 403.28C274.609 403.28 273.536 402.795 272.649 401.824ZM273.797 395.412C273.265 396.047 272.999 396.943 272.999 398.1C272.999 399.257 273.265 400.153 273.797 400.788C274.339 401.423 275.029 401.74 275.869 401.74C276.709 401.74 277.395 401.423 277.927 400.788C278.469 400.153 278.739 399.257 278.739 398.1C278.739 396.943 278.469 396.047 277.927 395.412C277.395 394.777 276.709 394.46 275.869 394.46C275.029 394.46 274.339 394.777 273.797 395.412ZM283.013 401.824C282.126 400.853 281.683 399.612 281.683 398.1C281.683 396.588 282.126 395.347 283.013 394.376C283.899 393.405 284.973 392.92 286.233 392.92C287.493 392.92 288.566 393.405 289.453 394.376C290.339 395.347 290.783 396.588 290.783 398.1C290.783 399.612 290.339 400.853 289.453 401.824C288.566 402.795 287.493 403.28 286.233 403.28C284.973 403.28 283.899 402.795 283.013 401.824ZM284.161 395.412C283.629 396.047 283.363 396.943 283.363 398.1C283.363 399.257 283.629 400.153 284.161 400.788C284.702 401.423 285.393 401.74 286.233 401.74C287.073 401.74 287.759 401.423 288.291 400.788C288.832 400.153 289.103 399.257 289.103 398.1C289.103 396.943 288.832 396.047 288.291 395.412C287.759 394.777 287.073 394.46 286.233 394.46C285.393 394.46 284.702 394.777 284.161 395.412Z" fill="#333333"/>
<path d="M19.21 229.04V227.5L22.5 221.2H24.25L20.96 227.5H24.18V225.12H24.25H25.79V227.5H27.19V229.04H25.79V231H24.18V229.04H19.21ZM27.7495 230.23C27.7495 229.95 27.8381 229.717 28.0155 229.53C28.2021 229.343 28.4308 229.25 28.7015 229.25C29.0095 229.25 29.2521 229.362 29.4295 229.586C29.6161 229.81 29.7095 230.141 29.7095 230.58C29.7095 231.299 29.5368 231.849 29.1915 232.232C28.8555 232.624 28.3981 232.82 27.8195 232.82V232.12C28.0995 232.12 28.3188 232.041 28.4775 231.882C28.6455 231.733 28.7295 231.532 28.7295 231.28V231.196C28.7201 231.187 28.7155 231.168 28.7155 231.14V231.098L28.6315 231.126C28.6035 231.135 28.5428 231.14 28.4495 231.14C28.2628 231.14 28.0995 231.056 27.9595 230.888C27.8195 230.72 27.7495 230.501 27.7495 230.23ZM30.4056 222.74V221.2H37.0556V222.74L33.1356 231H31.3856L35.2356 222.88V222.74H30.4056ZM37.5505 227.78C37.5505 227.332 37.6485 226.865 37.8445 226.38C38.0499 225.885 38.2459 225.498 38.4325 225.218C38.6285 224.929 38.8945 224.569 39.2305 224.14L41.4705 221.2H43.3605L41.2465 223.958L40.6305 224.49V224.56L40.9105 224.462C41.1905 224.387 41.4939 224.35 41.8205 224.35C42.7352 224.35 43.5099 224.681 44.1445 225.344C44.7885 225.997 45.1105 226.809 45.1105 227.78C45.1105 228.769 44.7559 229.6 44.0465 230.272C43.3372 230.944 42.4319 231.28 41.3305 231.28C40.2292 231.28 39.3239 230.944 38.6145 230.272C37.9052 229.6 37.5505 228.769 37.5505 227.78ZM39.8045 226.324C39.4219 226.697 39.2305 227.183 39.2305 227.78C39.2305 228.377 39.4219 228.867 39.8045 229.25C40.1872 229.623 40.6959 229.81 41.3305 229.81C41.9652 229.81 42.4739 229.623 42.8565 229.25C43.2392 228.867 43.4305 228.377 43.4305 227.78C43.4305 227.183 43.2392 226.697 42.8565 226.324C42.4739 225.941 41.9652 225.75 41.3305 225.75C40.6959 225.75 40.1872 225.941 39.8045 226.324Z" fill="#333333"/>
<path d="M267.21 152.04V150.5L270.5 144.2H272.25L268.96 150.5H272.18V148.12H272.25H273.79V150.5H275.19V152.04H273.79V154H272.18V152.04H267.21ZM275.749 153.23C275.749 152.95 275.838 152.717 276.015 152.53C276.202 152.343 276.431 152.25 276.701 152.25C277.009 152.25 277.252 152.362 277.429 152.586C277.616 152.81 277.709 153.141 277.709 153.58C277.709 154.299 277.537 154.849 277.191 155.232C276.855 155.624 276.398 155.82 275.819 155.82V155.12C276.099 155.12 276.319 155.041 276.477 154.882C276.645 154.733 276.729 154.532 276.729 154.28V154.196C276.72 154.187 276.715 154.168 276.715 154.14V154.098L276.631 154.126C276.603 154.135 276.543 154.14 276.449 154.14C276.263 154.14 276.099 154.056 275.959 153.888C275.819 153.72 275.749 153.501 275.749 153.23ZM278.406 145.74V144.2H285.056V145.74L281.136 154H279.386L283.236 145.88V145.74H278.406ZM285.271 152.04V150.5L288.561 144.2H290.311L287.021 150.5H290.241V148.12H290.311H291.851V150.5H293.251V152.04H291.851V154H290.241V152.04H285.271Z" fill="#333333"/>
<path d="M237.49 52.78C237.49 52.332 237.588 51.8653 237.784 51.38C237.989 50.8853 238.185 50.498 238.372 50.218C238.568 49.9287 238.834 49.5693 239.17 49.14L241.41 46.2H243.3L241.186 48.958L240.57 49.49V49.56L240.85 49.462C241.13 49.3873 241.433 49.35 241.76 49.35C242.675 49.35 243.449 49.6813 244.084 50.344C244.728 50.9973 245.05 51.8093 245.05 52.78C245.05 53.7693 244.695 54.6 243.986 55.272C243.277 55.944 242.371 56.28 241.27 56.28C240.169 56.28 239.263 55.944 238.554 55.272C237.845 54.6 237.49 53.7693 237.49 52.78ZM239.744 51.324C239.361 51.6973 239.17 52.1827 239.17 52.78C239.17 53.3773 239.361 53.8673 239.744 54.25C240.127 54.6233 240.635 54.81 241.27 54.81C241.905 54.81 242.413 54.6233 242.796 54.25C243.179 53.8673 243.37 53.3773 243.37 52.78C243.37 52.1827 243.179 51.6973 242.796 51.324C242.413 50.9413 241.905 50.75 241.27 50.75C240.635 50.75 240.127 50.9413 239.744 51.324ZM246.173 55.23C246.173 54.95 246.262 54.7167 246.439 54.53C246.626 54.3433 246.855 54.25 247.125 54.25C247.433 54.25 247.676 54.362 247.853 54.586C248.04 54.81 248.133 55.1413 248.133 55.58C248.133 56.2987 247.961 56.8493 247.615 57.232C247.279 57.624 246.822 57.82 246.243 57.82V57.12C246.523 57.12 246.743 57.0407 246.901 56.882C247.069 56.7327 247.153 56.532 247.153 56.28V56.196C247.144 56.1867 247.139 56.168 247.139 56.14V56.098L247.055 56.126C247.027 56.1353 246.967 56.14 246.873 56.14C246.687 56.14 246.523 56.056 246.383 55.888C246.243 55.72 246.173 55.5007 246.173 55.23ZM250.649 54.824C249.763 53.8533 249.319 52.612 249.319 51.1C249.319 49.588 249.763 48.3467 250.649 47.376C251.536 46.4053 252.609 45.92 253.869 45.92C255.129 45.92 256.203 46.4053 257.089 47.376C257.976 48.3467 258.419 49.588 258.419 51.1C258.419 52.612 257.976 53.8533 257.089 54.824C256.203 55.7947 255.129 56.28 253.869 56.28C252.609 56.28 251.536 55.7947 250.649 54.824ZM251.797 48.412C251.265 49.0467 250.999 49.9427 250.999 51.1C250.999 52.2573 251.265 53.1533 251.797 53.788C252.339 54.4227 253.029 54.74 253.869 54.74C254.709 54.74 255.395 54.4227 255.927 53.788C256.469 53.1533 256.739 52.2573 256.739 51.1C256.739 49.9427 256.469 49.0467 255.927 48.412C255.395 47.7773 254.709 47.46 253.869 47.46C253.029 47.46 252.339 47.7773 251.797 48.412ZM259.473 56V54.46L262.819 52.094C263.547 51.5713 264.069 51.086 264.387 50.638C264.704 50.19 264.863 49.714 264.863 49.21C264.863 48.678 264.699 48.2533 264.373 47.936C264.046 47.6187 263.603 47.46 263.043 47.46C262.352 47.46 261.834 47.74 261.489 48.3C261.339 48.5427 261.227 48.8227 261.153 49.14H259.473C259.557 48.5427 259.739 48.006 260.019 47.53C260.681 46.4567 261.689 45.92 263.043 45.92C264.079 45.92 264.919 46.228 265.563 46.844C266.216 47.4507 266.543 48.216 266.543 49.14C266.543 49.9427 266.337 50.666 265.927 51.31C265.516 51.9447 264.858 52.5747 263.953 53.2L262.553 54.18L261.923 54.46V54.53L262.763 54.46H266.543V56H259.473Z" fill="#333333"/>
</svg>
