<svg width="343" height="553" viewBox="0 0 343 553" fill="none" xmlns="http://www.w3.org/2000/svg">
<rect x="82" y="30" width="225" height="507" fill="#FFF8BA"/>
<path d="M307 539L307 467L203 467L203 539L307 539Z" fill="#FFC79F"/>
<path d="M307.498 242L252 242L252 345.871L307.498 345.871L307.498 242Z" fill="#FFC79F"/>
<line x1="342.433" y1="386.25" x2="322.433" y2="420.854" stroke="#5A5A5A"/>
<line x1="261.218" y1="447.45" x2="235.218" y2="460.053" stroke="#5A5A5A"/>
<line y1="-0.5" x2="28.8938" y2="-0.5" transform="matrix(-0.899848 -0.436203 -0.436203 0.899848 288 366.604)" stroke="#5A5A5A"/>
<line x1="84.387" y1="344.317" x2="66.387" y2="366.317" stroke="#5A5A5A"/>
<path d="M197.25 362.25L197.275 395.738L198.75 395.748L198.75 362.25L197.25 362.25Z" stroke="#5A5A5A" stroke-width="0.5" stroke-miterlimit="10"/>
<path d="M197.25 418.25L197.275 451.738L198.75 451.748L198.75 418.25L197.25 418.25Z" stroke="#5A5A5A" stroke-width="0.5" stroke-miterlimit="10"/>
<path d="M195.25 390.25L195.275 423.738L196.75 423.748L196.75 390.25L195.25 390.25Z" stroke="#5A5A5A" stroke-width="0.5" stroke-miterlimit="10"/>
<path d="M0.250175 279.25L0.313188 373.713L4.74999 373.748L4.75 279.25L0.250175 279.25Z" stroke="#5A5A5A" stroke-width="0.5" stroke-miterlimit="10"/>
<path d="M54.2503 279.25L54.3131 339.726L58.75 339.749L58.75 279.25L54.2503 279.25Z" stroke="#5A5A5A" stroke-width="0.5" stroke-miterlimit="10"/>
<path d="M285.75 0.250215L102.324 0.401844L102.252 11.75L285.75 11.75L285.75 0.250215Z" stroke="#5A5A5A" stroke-width="0.5" stroke-miterlimit="10"/>
<path d="M83.7495 163.75L83.5984 86.2813L72.25 86.2507L72.25 163.75L83.7495 163.75Z" stroke="#5A5A5A" stroke-width="0.5" stroke-miterlimit="10"/>
<path d="M285.75 18.2502L102.324 18.4018L102.252 29.75L285.75 29.75L285.75 18.2502Z" stroke="#5A5A5A" stroke-width="0.5" stroke-miterlimit="10"/>
<path d="M65.7495 163.75L65.5984 86.2813L54.25 86.2507L54.25 163.75L65.7495 163.75Z" stroke="#5A5A5A" stroke-width="0.5" stroke-miterlimit="10"/>
<path d="M64.2503 279.25L64.3131 339.726L68.75 339.749L68.75 279.25L64.2503 279.25Z" stroke="#5A5A5A" stroke-width="0.5" stroke-miterlimit="10"/>
<path d="M67.1124 523.96L64.0844 524L64.0844 427L67.1513 427L67.1124 523.96Z" stroke="#5A5A5A" stroke-width="0.5" stroke-miterlimit="10"/>
<path d="M64.0845 524L61.0951 523.96L61.0563 427L64.0845 427L64.0845 524Z" stroke="#5A5A5A" stroke-width="0.5" stroke-miterlimit="10"/>
<path d="M55.0388 524L55 427" stroke="#5A5A5A" stroke-width="0.5" stroke-miterlimit="10"/>
<path d="M84 524L84 427" stroke="#5A5A5A" stroke-width="0.5" stroke-miterlimit="10"/>
<rect x="54.0001" width="30" height="95" fill="#5A5A5A"/>
<rect x="106" width="30" height="30" transform="rotate(90 106 0)" fill="#5A5A5A"/>
<rect x="209" width="30" height="45" transform="rotate(90 209 0)" fill="#5A5A5A"/>
<rect x="323" width="30" height="50" transform="rotate(90 323 0)" fill="#5A5A5A"/>
<rect x="84.0001" y="553" width="16" height="239" transform="rotate(-90 84.0001 553)" fill="#5A5A5A"/>
<rect x="307" y="1" width="16" height="381" fill="#5A5A5A"/>
<rect x="307" y="420" width="16" height="133" fill="#5A5A5A"/>
<rect x="307" y="459" width="8" height="44" transform="rotate(90 307 459)" fill="#5A5A5A"/>
<rect x="236" y="459" width="8" height="35" transform="rotate(90 236 459)" fill="#5A5A5A"/>
<rect x="263" y="346" width="8" height="68" transform="rotate(90 263 346)" fill="#5A5A5A"/>
<rect x="316" y="234" width="8" height="68" transform="rotate(90 316 234)" fill="#5A5A5A"/>
<rect x="320" y="346" width="8" height="30" transform="rotate(90 320 346)" fill="#5A5A5A"/>
<rect x="203" y="366" width="8" height="20" transform="rotate(-180 203 366)" fill="#5A5A5A"/>
<rect x="254" y="348" width="8.00001" height="114" transform="rotate(-180 254 348)" fill="#5A5A5A"/>
<rect x="6.10352e-05" y="263" width="5" height="74" transform="rotate(-90 6.10352e-05 263)" fill="#5A5A5A"/>
<rect x="6.10352e-05" y="391" width="5" height="74" transform="rotate(-90 6.10352e-05 391)" fill="#5A5A5A"/>
<rect y="372" width="5" height="19" fill="#5A5A5A"/>
<rect y="261" width="5" height="19" fill="#5A5A5A"/>
<rect x="203" y="539" width="8.00001" height="92" transform="rotate(-180 203 539)" fill="#5A5A5A"/>
<rect x="54.0001" y="154" width="30" height="129" fill="#5A5A5A"/>
<rect x="54.0001" y="366" width="30" height="68" fill="#5A5A5A"/>
<rect x="54.0001" y="492" width="30" height="61" fill="#5A5A5A"/>
<rect x="246" y="30" width="2" height="6" fill="#5A5A5A"/>
<rect x="246" y="41" width="2" height="11" fill="#5A5A5A"/>
<rect x="246" y="58" width="2" height="11" fill="#5A5A5A"/>
<rect x="246" y="75" width="2" height="11" fill="#5A5A5A"/>
<rect x="246" y="92" width="2" height="11" fill="#5A5A5A"/>
<rect x="246" y="109" width="2" height="11" fill="#5A5A5A"/>
<rect x="246" y="126" width="2" height="11" fill="#5A5A5A"/>
<rect x="246" y="143" width="2" height="11" fill="#5A5A5A"/>
<rect x="246" y="160" width="2" height="11" fill="#5A5A5A"/>
<rect x="246" y="177" width="2" height="11" fill="#5A5A5A"/>
<rect x="246" y="194" width="2" height="11" fill="#5A5A5A"/>
<rect x="246" y="211" width="2" height="11" fill="#5A5A5A"/>
<rect x="246" y="228" width="2" height="6" fill="#5A5A5A"/>
<path d="M306.995 192.137L282 192.137L282 167.812L306.995 167.812L306.995 192.137Z" fill="white" stroke="#5A5A5A" stroke-width="0.5"/>
<path d="M284.027 191.21L303.48 191.21C304.217 191.21 304.61 190.818 304.61 190.048L304.61 169.901C304.61 169.116 304.233 168.739 303.48 168.739L284.027 168.739C283.273 168.723 282.896 169.116 282.896 169.885L282.896 190.033C282.88 190.818 283.273 191.21 284.027 191.21Z" fill="white" stroke="#5A5A5A" stroke-width="0.5"/>
<path d="M285.816 184.709C285.831 182.919 287.244 181.458 288.987 181.458C290.746 181.458 292.159 182.919 292.159 184.709C292.159 186.515 290.746 187.96 288.987 187.96C287.229 187.96 285.816 186.515 285.816 184.709Z" stroke="#5A5A5A" stroke-width="0.5"/>
<path d="M285.846 175.083C285.862 173.293 287.275 171.832 289.017 171.832C290.776 171.832 292.189 173.293 292.189 175.083C292.189 176.889 290.776 178.334 289.017 178.334C287.259 178.349 285.83 176.889 285.846 175.083Z" stroke="#5A5A5A" stroke-width="0.5"/>
<path d="M294.86 175.083C294.86 173.277 296.273 171.833 298.031 171.833C299.79 171.833 301.203 173.293 301.203 175.083C301.187 176.873 299.774 178.334 298.031 178.334C296.288 178.334 294.86 176.873 294.86 175.083Z" stroke="#5A5A5A" stroke-width="0.5"/>
<path d="M294.86 184.709C294.86 182.903 296.273 181.458 298.031 181.458C299.79 181.458 301.203 182.919 301.203 184.709C301.187 186.499 299.774 187.96 298.031 187.96C296.288 187.96 294.86 186.499 294.86 184.709Z" stroke="#5A5A5A" stroke-width="0.5"/>
<path d="M275.699 234.088L275.699 210L252 210L252 234.104L275.699 234.088Z" fill="white" stroke="#5A5A5A" stroke-width="0.5"/>
<path d="M273.896 227.482L273.896 214.165C273.896 213.423 273.532 213.059 272.775 213.059L255.167 213.059C254.44 213.059 254.061 213.423 254.046 214.15L254.061 227.482C254.046 228.209 254.424 228.573 255.167 228.573L272.775 228.573C273.517 228.603 273.896 228.225 273.896 227.482Z" fill="white" stroke="#5A5A5A" stroke-width="0.5"/>
<path d="M263.971 232.24C263.046 232.225 262.304 231.528 262.304 230.649L262.956 223.665L262.971 223.65C262.971 223.12 263.41 222.696 263.971 222.696C264.531 222.696 264.971 223.12 264.986 223.665L265.638 230.649C265.638 231.513 264.895 232.225 263.971 232.24Z" stroke="#5A5A5A" stroke-width="0.5"/>
<mask id="path-66-inside-1_3_2770" fill="white">
<path fill-rule="evenodd" clip-rule="evenodd" d="M262.592 231.557L262.955 227.755C262.971 227.225 263.41 226.785 263.986 226.8C264.546 226.8 264.971 227.225 264.986 227.755L265.35 231.557"/>
</mask>
<path fill-rule="evenodd" clip-rule="evenodd" d="M262.592 231.557L262.955 227.755C262.971 227.225 263.41 226.785 263.986 226.8C264.546 226.8 264.971 227.225 264.986 227.755L265.35 231.557" fill="white"/>
<path d="M262.955 227.755L263.455 227.769L263.455 227.786L263.453 227.802L262.955 227.755ZM263.986 226.8L263.986 227.301L263.973 227.3L263.986 226.8ZM264.986 227.755L264.488 227.802L264.487 227.786L264.486 227.769L264.986 227.755ZM262.094 231.51L262.458 227.707L263.453 227.802L263.089 231.605L262.094 231.51ZM262.456 227.741C262.479 226.936 263.147 226.278 263.999 226.301L263.973 227.3C263.673 227.292 263.462 227.514 263.455 227.769L262.456 227.741ZM263.986 226.3C264.815 226.3 265.463 226.938 265.486 227.741L264.486 227.769C264.479 227.511 264.278 227.3 263.986 227.3L263.986 226.3ZM265.484 227.707L265.847 231.51L264.852 231.605L264.488 227.802L265.484 227.707Z" fill="#5A5A5A" mask="url(#path-66-inside-1_3_2770)"/>
<path d="M285.759 261.298L285.742 260.117L285.759 257.051V249.46H275.801V261.298C275.801 264.315 278.045 266.774 280.796 266.774C283.515 266.774 285.759 264.315 285.759 261.298Z" fill="white" stroke="#5A5A5A" stroke-width="0.5"/>
<path d="M284.612 261.232V260.298V252.739H276.932V260.298L276.948 261.232C276.948 263.61 278.651 265.544 280.78 265.544C282.893 265.528 284.612 263.593 284.612 261.232Z" fill="white" stroke="#5A5A5A" stroke-width="0.5"/>
<path d="M274 243.099V248.362C274 248.968 274.491 249.46 275.097 249.46H286.381C286.987 249.46 287.478 248.968 287.478 248.362V243.099C287.478 242.492 286.987 242 286.381 242H275.114C274.491 242 274 242.492 274 243.099Z" fill="white" stroke="#5A5A5A" stroke-width="0.5"/>
<path d="M280.092 245.722C280.092 246.132 280.387 246.443 280.731 246.443C281.091 246.46 281.386 246.132 281.386 245.722C281.386 245.312 281.091 245.001 280.747 245.001C280.371 245.017 280.076 245.328 280.092 245.722Z" fill="white" stroke="#5A5A5A" stroke-width="0.5"/>
<path d="M305.848 304.596L293.54 304.596C292.685 304.596 292 303.913 292 303.058L292 284.539C292 283.684 292.685 283 293.54 283L305.848 283C306.704 283 307.389 283.684 307.389 284.539L307.389 303.058C307.389 303.898 306.704 304.596 305.848 304.596Z" fill="white" stroke="#5A5A5A" stroke-width="0.5"/>
<path d="M301.156 302.673L299.259 302.673C296.764 302.673 294.738 300.65 294.738 298.157L294.738 289.439C294.738 286.946 296.764 284.923 299.259 284.923L301.156 284.923C303.652 284.923 305.677 286.946 305.677 289.439L305.677 298.157C305.677 300.65 303.652 302.673 301.156 302.673Z" fill="white" stroke="#5A5A5A" stroke-width="0.5"/>
<path d="M303.267 294.753C302.724 294.753 302.283 294.326 302.283 293.799C302.283 293.272 302.724 292.844 303.267 292.844C303.81 292.844 304.251 293.272 304.251 293.799C304.251 294.326 303.81 294.753 303.267 294.753Z" fill="white" stroke="#5A5A5A" stroke-width="0.5"/>
<path d="M286.759 517.476L286.742 518.657L286.759 521.723V529.314H276.801V517.476C276.801 514.459 279.045 512 281.796 512C284.515 512 286.759 514.459 286.759 517.476Z" fill="white" stroke="#5A5A5A" stroke-width="0.5"/>
<path d="M285.612 517.542V518.476V526.035H277.932V518.476L277.948 517.542C277.948 515.164 279.651 513.23 281.78 513.23C283.893 513.246 285.612 515.181 285.612 517.542Z" fill="white" stroke="#5A5A5A" stroke-width="0.5"/>
<path d="M275 535.676V530.413C275 529.806 275.491 529.314 276.097 529.314H287.381C287.987 529.314 288.478 529.806 288.478 530.413V535.676C288.478 536.282 287.987 536.774 287.381 536.774H276.114C275.491 536.774 275 536.282 275 535.676Z" fill="white" stroke="#5A5A5A" stroke-width="0.5"/>
<path d="M281.092 533.052C281.092 532.642 281.387 532.331 281.731 532.331C282.091 532.314 282.386 532.642 282.386 533.052C282.386 533.462 282.091 533.774 281.747 533.774C281.371 533.757 281.076 533.446 281.092 533.052Z" fill="white" stroke="#5A5A5A" stroke-width="0.5"/>
<path d="M244.333 535.305L244.333 522.997C244.333 522.141 245.017 521.457 245.872 521.457L264.391 521.457C265.246 521.457 265.93 522.141 265.93 522.997L265.93 535.305C265.93 536.161 265.246 536.845 264.391 536.845L245.872 536.845C245.031 536.845 244.333 536.161 244.333 535.305Z" fill="white" stroke="#5A5A5A" stroke-width="0.5"/>
<path d="M246.256 530.613L246.256 528.716C246.256 526.22 248.279 524.195 250.772 524.195L259.491 524.195C261.984 524.195 264.007 526.22 264.007 528.716L264.007 530.613C264.007 533.109 261.984 535.134 259.491 535.134L250.772 535.134C248.279 535.134 246.256 533.109 246.256 530.613Z" fill="white" stroke="#5A5A5A" stroke-width="0.5"/>
<path d="M254.177 532.724C254.177 532.18 254.604 531.74 255.131 531.74C255.658 531.74 256.086 532.18 256.086 532.724C256.086 533.267 255.658 533.708 255.131 533.708C254.604 533.708 254.177 533.267 254.177 532.724Z" fill="white" stroke="#5A5A5A" stroke-width="0.5"/>
<path d="M229.635 535.506L229.635 475.386C229.635 474.616 229.02 474 228.251 474L204.384 474C203.615 474 203 474.616 203 475.386L203 535.506C203 536.276 203.615 536.892 204.384 536.892L228.251 536.892C229.02 536.892 229.635 536.262 229.635 535.506Z" fill="white" stroke="#5A5A5A" stroke-width="0.5"/>
<path d="M219.554 477.696L213.066 477.696C209.305 477.696 206.271 480.747 206.271 484.499L206.271 531.839C206.271 532.763 207.012 533.505 207.935 533.505L224.713 533.505C225.636 533.505 226.377 532.763 226.377 531.839L226.377 484.513C226.363 480.747 223.315 477.696 219.554 477.696Z" fill="white" stroke="#5A5A5A" stroke-width="0.5"/>
<path d="M216.786 527.892C217.535 527.892 218.142 528.525 218.142 529.305C218.142 530.086 217.535 530.719 216.786 530.719C216.037 530.719 215.43 530.086 215.43 529.305C215.43 528.525 216.037 527.892 216.786 527.892Z" fill="white" stroke="#5A5A5A" stroke-width="0.5"/>
<path d="M285 467L307.01 467L307.024 488.587L285.014 488.573L285 467Z" fill="white" stroke="#5A5A5A" stroke-width="0.5"/>
<path d="M296.019 483.33C299.133 483.33 301.647 480.856 301.647 477.794C301.647 474.732 299.133 472.257 296.005 472.257C292.891 472.257 290.349 474.732 290.349 477.794C290.363 480.856 292.904 483.33 296.019 483.33Z" stroke="#5A5A5A" stroke-width="0.5"/>
<path d="M291.899 477.794C291.885 478.912 292.346 479.919 293.1 480.646C293.854 481.373 294.888 481.82 296.005 481.834M300.139 477.808C300.139 478.912 299.678 479.919 298.938 480.66C298.183 481.387 297.164 481.848 296.019 481.848L300.139 477.808ZM291.899 477.794C291.899 476.689 292.36 475.682 293.1 474.941C293.854 474.214 294.888 473.767 296.019 473.767L291.899 477.794ZM300.139 477.808C300.139 476.675 299.678 475.668 298.938 474.955L298.924 474.941C298.183 474.228 297.164 473.767 296.033 473.767L300.139 477.808Z" stroke="#5A5A5A" stroke-width="0.5"/>
<circle cx="147.5" cy="104.5" r="39.5" fill="#5A5A5A"/>
<path d="M124.72 108.58C124.72 107.488 125.14 106.618 125.98 105.97C126.34 105.718 126.76 105.526 127.24 105.394V105.286C126.868 105.142 126.538 104.944 126.25 104.692C125.59 104.128 125.26 103.384 125.26 102.46C125.26 101.512 125.662 100.708 126.466 100.048C127.282 99.376 128.38 99.04 129.76 99.04C131.14 99.04 132.232 99.376 133.036 100.048C133.852 100.708 134.26 101.512 134.26 102.46C134.26 103.36 133.93 104.104 133.27 104.692C132.958 104.944 132.628 105.142 132.28 105.286V105.394C132.736 105.514 133.156 105.712 133.54 105.988C134.38 106.636 134.8 107.5 134.8 108.58C134.8 109.624 134.344 110.518 133.432 111.262C132.532 111.994 131.308 112.36 129.76 112.36C128.212 112.36 126.982 111.994 126.07 111.262C125.17 110.518 124.72 109.624 124.72 108.58ZM127.42 102.64C127.42 103.168 127.624 103.6 128.032 103.936C128.44 104.272 129.016 104.44 129.76 104.44C130.504 104.44 131.08 104.272 131.488 103.936C131.896 103.6 132.1 103.168 132.1 102.64C132.1 102.16 131.89 101.758 131.47 101.434C131.062 101.098 130.492 100.93 129.76 100.93C129.028 100.93 128.452 101.098 128.032 101.434C127.624 101.758 127.42 102.16 127.42 102.64ZM127.636 106.942C127.132 107.338 126.88 107.824 126.88 108.4C126.88 108.976 127.132 109.468 127.636 109.876C128.152 110.272 128.86 110.47 129.76 110.47C130.66 110.47 131.362 110.272 131.866 109.876C132.382 109.468 132.64 108.976 132.64 108.4C132.64 107.824 132.382 107.338 131.866 106.942C131.362 106.534 130.66 106.33 129.76 106.33C128.86 106.33 128.152 106.534 127.636 106.942ZM135.694 101.38V99.4H144.244V101.38L139.204 112H136.954L141.904 101.56V101.38H135.694ZM143.529 111.01C143.529 110.65 143.643 110.35 143.871 110.11C144.111 109.87 144.405 109.75 144.753 109.75C145.149 109.75 145.461 109.894 145.689 110.182C145.929 110.47 146.049 110.896 146.049 111.46C146.049 112.384 145.827 113.092 145.383 113.584C144.951 114.088 144.363 114.34 143.619 114.34V113.44C143.979 113.44 144.261 113.338 144.465 113.134C144.681 112.942 144.789 112.684 144.789 112.36V112.252C144.777 112.24 144.771 112.216 144.771 112.18V112.126L144.663 112.162C144.627 112.174 144.549 112.18 144.429 112.18C144.189 112.18 143.979 112.072 143.799 111.856C143.619 111.64 143.529 111.358 143.529 111.01ZM147.304 112V110.02L151.606 106.978C152.542 106.306 153.214 105.682 153.622 105.106C154.03 104.53 154.234 103.918 154.234 103.27C154.234 102.586 154.024 102.04 153.604 101.632C153.184 101.224 152.614 101.02 151.894 101.02C151.006 101.02 150.34 101.38 149.896 102.1C149.704 102.412 149.56 102.772 149.464 103.18H147.304C147.412 102.412 147.646 101.722 148.006 101.11C148.858 99.73 150.154 99.04 151.894 99.04C153.226 99.04 154.306 99.436 155.134 100.228C155.974 101.008 156.394 101.992 156.394 103.18C156.394 104.212 156.13 105.142 155.602 105.97C155.074 106.786 154.228 107.596 153.064 108.4L151.264 109.66L150.454 110.02V110.11L151.534 110.02H156.394V112H147.304ZM157.747 107.86C157.747 107.284 157.873 106.684 158.125 106.06C158.389 105.424 158.641 104.926 158.881 104.566C159.133 104.194 159.475 103.732 159.907 103.18L162.787 99.4H165.217L162.499 102.946L161.707 103.63V103.72L162.067 103.594C162.427 103.498 162.817 103.45 163.237 103.45C164.413 103.45 165.409 103.876 166.225 104.728C167.053 105.568 167.467 106.612 167.467 107.86C167.467 109.132 167.011 110.2 166.099 111.064C165.187 111.928 164.023 112.36 162.607 112.36C161.191 112.36 160.027 111.928 159.115 111.064C158.203 110.2 157.747 109.132 157.747 107.86ZM160.645 105.988C160.153 106.468 159.907 107.092 159.907 107.86C159.907 108.628 160.153 109.258 160.645 109.75C161.137 110.23 161.791 110.47 162.607 110.47C163.423 110.47 164.077 110.23 164.569 109.75C165.061 109.258 165.307 108.628 165.307 107.86C165.307 107.092 165.061 106.468 164.569 105.988C164.077 105.496 163.423 105.25 162.607 105.25C161.791 105.25 161.137 105.496 160.645 105.988Z" fill="white"/>
<path d="M136.56 318.27H138.24C138.315 318.559 138.441 318.807 138.618 319.012C139.029 319.497 139.626 319.74 140.41 319.74C141.035 319.74 141.53 319.572 141.894 319.236C142.258 318.9 142.44 318.461 142.44 317.92C142.44 317.351 142.258 316.893 141.894 316.548C141.53 316.203 141.035 316.03 140.41 316.03C139.831 316.03 139.341 316.184 138.94 316.492C138.781 316.613 138.641 316.763 138.52 316.94H136.98L137.4 311.2H143.35V312.74H138.73L138.52 315.26H138.59C138.739 315.111 138.912 314.985 139.108 314.882C139.547 314.621 140.074 314.49 140.69 314.49C141.67 314.49 142.487 314.817 143.14 315.47C143.793 316.123 144.12 316.94 144.12 317.92C144.12 318.881 143.775 319.684 143.084 320.328C142.403 320.963 141.511 321.28 140.41 321.28C138.973 321.28 137.904 320.781 137.204 319.782C136.905 319.343 136.691 318.839 136.56 318.27ZM144.329 312.74V311.2H150.979V312.74L147.059 321H145.309L149.159 312.88V312.74H144.329ZM150.423 320.23C150.423 319.95 150.512 319.717 150.689 319.53C150.876 319.343 151.105 319.25 151.375 319.25C151.683 319.25 151.926 319.362 152.103 319.586C152.29 319.81 152.383 320.141 152.383 320.58C152.383 321.299 152.211 321.849 151.865 322.232C151.529 322.624 151.072 322.82 150.493 322.82V322.12C150.773 322.12 150.993 322.041 151.151 321.882C151.319 321.733 151.403 321.532 151.403 321.28V321.196C151.394 321.187 151.389 321.168 151.389 321.14V321.098L151.305 321.126C151.277 321.135 151.217 321.14 151.123 321.14C150.937 321.14 150.773 321.056 150.633 320.888C150.493 320.72 150.423 320.501 150.423 320.23ZM153.499 318.34C153.499 317.491 153.826 316.814 154.479 316.31C154.759 316.114 155.086 315.965 155.459 315.862V315.778C155.17 315.666 154.913 315.512 154.689 315.316C154.176 314.877 153.919 314.299 153.919 313.58C153.919 312.843 154.232 312.217 154.857 311.704C155.492 311.181 156.346 310.92 157.419 310.92C158.493 310.92 159.342 311.181 159.967 311.704C160.602 312.217 160.919 312.843 160.919 313.58C160.919 314.28 160.663 314.859 160.149 315.316C159.907 315.512 159.65 315.666 159.379 315.778V315.862C159.734 315.955 160.061 316.109 160.359 316.324C161.013 316.828 161.339 317.5 161.339 318.34C161.339 319.152 160.985 319.847 160.275 320.426C159.575 320.995 158.623 321.28 157.419 321.28C156.215 321.28 155.259 320.995 154.549 320.426C153.849 319.847 153.499 319.152 153.499 318.34ZM155.599 313.72C155.599 314.131 155.758 314.467 156.075 314.728C156.393 314.989 156.841 315.12 157.419 315.12C157.998 315.12 158.446 314.989 158.763 314.728C159.081 314.467 159.239 314.131 159.239 313.72C159.239 313.347 159.076 313.034 158.749 312.782C158.432 312.521 157.989 312.39 157.419 312.39C156.85 312.39 156.402 312.521 156.075 312.782C155.758 313.034 155.599 313.347 155.599 313.72ZM155.767 317.066C155.375 317.374 155.179 317.752 155.179 318.2C155.179 318.648 155.375 319.031 155.767 319.348C156.169 319.656 156.719 319.81 157.419 319.81C158.119 319.81 158.665 319.656 159.057 319.348C159.459 319.031 159.659 318.648 159.659 318.2C159.659 317.752 159.459 317.374 159.057 317.066C158.665 316.749 158.119 316.59 157.419 316.59C156.719 316.59 156.169 316.749 155.767 317.066ZM162.105 319.04V317.5L165.395 311.2H167.145L163.855 317.5H167.075V315.12H167.145H168.685V317.5H170.085V319.04H168.685V321H167.075V319.04H162.105Z" fill="#333333"/>
<path d="M16.21 341.04V339.5L19.5 333.2H21.25L17.96 339.5H21.18V337.12H21.25H22.79V339.5H24.19V341.04H22.79V343H21.18V341.04H16.21ZM24.7495 342.23C24.7495 341.95 24.8381 341.717 25.0155 341.53C25.2021 341.343 25.4308 341.25 25.7015 341.25C26.0095 341.25 26.2521 341.362 26.4295 341.586C26.6161 341.81 26.7095 342.141 26.7095 342.58C26.7095 343.299 26.5368 343.849 26.1915 344.232C25.8555 344.624 25.3981 344.82 24.8195 344.82V344.12C25.0995 344.12 25.3188 344.041 25.4775 343.882C25.6455 343.733 25.7295 343.532 25.7295 343.28V343.196C25.7201 343.187 25.7155 343.168 25.7155 343.14V343.098L25.6315 343.126C25.6035 343.135 25.5428 343.14 25.4495 343.14C25.2628 343.14 25.0995 343.056 24.9595 342.888C24.8195 342.72 24.7495 342.501 24.7495 342.23ZM27.4056 334.74V333.2H34.0556V334.74L30.1356 343H28.3856L32.2356 334.88V334.74H27.4056ZM34.5505 339.78C34.5505 339.332 34.6485 338.865 34.8445 338.38C35.0499 337.885 35.2459 337.498 35.4325 337.218C35.6285 336.929 35.8945 336.569 36.2305 336.14L38.4705 333.2H40.3605L38.2465 335.958L37.6305 336.49V336.56L37.9105 336.462C38.1905 336.387 38.4939 336.35 38.8205 336.35C39.7352 336.35 40.5099 336.681 41.1445 337.344C41.7885 337.997 42.1105 338.809 42.1105 339.78C42.1105 340.769 41.7559 341.6 41.0465 342.272C40.3372 342.944 39.4319 343.28 38.3305 343.28C37.2292 343.28 36.3239 342.944 35.6145 342.272C34.9052 341.6 34.5505 340.769 34.5505 339.78ZM36.8045 338.324C36.4219 338.697 36.2305 339.183 36.2305 339.78C36.2305 340.377 36.4219 340.867 36.8045 341.25C37.1872 341.623 37.6959 341.81 38.3305 341.81C38.9652 341.81 39.4739 341.623 39.8565 341.25C40.2392 340.867 40.4305 340.377 40.4305 339.78C40.4305 339.183 40.2392 338.697 39.8565 338.324C39.4739 337.941 38.9652 337.75 38.3305 337.75C37.6959 337.75 37.1872 337.941 36.8045 338.324Z" fill="#333333"/>
<path d="M262.21 310.04V308.5L265.5 302.2H267.25L263.96 308.5H267.18V306.12H267.25H268.79V308.5H270.19V310.04H268.79V312H267.18V310.04H262.21ZM270.749 311.23C270.749 310.95 270.838 310.717 271.015 310.53C271.202 310.343 271.431 310.25 271.701 310.25C272.009 310.25 272.252 310.362 272.429 310.586C272.616 310.81 272.709 311.141 272.709 311.58C272.709 312.299 272.537 312.849 272.191 313.232C271.855 313.624 271.398 313.82 270.819 313.82V313.12C271.099 313.12 271.319 313.041 271.477 312.882C271.645 312.733 271.729 312.532 271.729 312.28V312.196C271.72 312.187 271.715 312.168 271.715 312.14V312.098L271.631 312.126C271.603 312.135 271.543 312.14 271.449 312.14C271.263 312.14 271.099 312.056 270.959 311.888C270.819 311.72 270.749 311.501 270.749 311.23ZM273.756 308.78C273.756 308.332 273.854 307.865 274.05 307.38C274.255 306.885 274.451 306.498 274.638 306.218C274.834 305.929 275.1 305.569 275.436 305.14L277.676 302.2H279.566L277.452 304.958L276.836 305.49V305.56L277.116 305.462C277.396 305.387 277.699 305.35 278.026 305.35C278.94 305.35 279.715 305.681 280.35 306.344C280.994 306.997 281.316 307.809 281.316 308.78C281.316 309.769 280.961 310.6 280.252 311.272C279.542 311.944 278.637 312.28 277.536 312.28C276.434 312.28 275.529 311.944 274.82 311.272C274.11 310.6 273.756 309.769 273.756 308.78ZM276.01 307.324C275.627 307.697 275.436 308.183 275.436 308.78C275.436 309.377 275.627 309.867 276.01 310.25C276.392 310.623 276.901 310.81 277.536 310.81C278.17 310.81 278.679 310.623 279.062 310.25C279.444 309.867 279.636 309.377 279.636 308.78C279.636 308.183 279.444 307.697 279.062 307.324C278.679 306.941 278.17 306.75 277.536 306.75C276.901 306.75 276.392 306.941 276.01 307.324ZM282.369 308.78C282.369 308.332 282.467 307.865 282.663 307.38C282.868 306.885 283.064 306.498 283.251 306.218C283.447 305.929 283.713 305.569 284.049 305.14L286.289 302.2H288.179L286.065 304.958L285.449 305.49V305.56L285.729 305.462C286.009 305.387 286.312 305.35 286.639 305.35C287.554 305.35 288.328 305.681 288.963 306.344C289.607 306.997 289.929 307.809 289.929 308.78C289.929 309.769 289.574 310.6 288.865 311.272C288.156 311.944 287.25 312.28 286.149 312.28C285.048 312.28 284.142 311.944 283.433 311.272C282.724 310.6 282.369 309.769 282.369 308.78ZM284.623 307.324C284.24 307.697 284.049 308.183 284.049 308.78C284.049 309.377 284.24 309.867 284.623 310.25C285.006 310.623 285.514 310.81 286.149 310.81C286.784 310.81 287.292 310.623 287.675 310.25C288.058 309.867 288.249 309.377 288.249 308.78C288.249 308.183 288.058 307.697 287.675 307.324C287.292 306.941 286.784 306.75 286.149 306.75C285.514 306.75 285.006 306.941 284.623 307.324Z" fill="#333333"/>
<path d="M262.56 141.42C262.56 140.431 262.915 139.6 263.624 138.928C264.333 138.256 265.239 137.92 266.34 137.92C267.441 137.92 268.347 138.256 269.056 138.928C269.765 139.6 270.12 140.431 270.12 141.42C270.12 142.307 269.751 143.263 269.014 144.29C268.939 144.393 268.837 144.533 268.706 144.71C268.575 144.878 268.487 144.995 268.44 145.06L266.2 148H264.31L266.424 145.242L267.04 144.71V144.64C267.021 144.649 266.928 144.687 266.76 144.752C266.517 144.817 266.214 144.85 265.85 144.85C264.935 144.85 264.156 144.523 263.512 143.87C262.877 143.207 262.56 142.391 262.56 141.42ZM264.814 139.964C264.431 140.337 264.24 140.823 264.24 141.42C264.24 142.017 264.431 142.507 264.814 142.89C265.197 143.263 265.705 143.45 266.34 143.45C266.975 143.45 267.483 143.263 267.866 142.89C268.249 142.507 268.44 142.017 268.44 141.42C268.44 140.823 268.249 140.337 267.866 139.964C267.483 139.581 266.975 139.39 266.34 139.39C265.705 139.39 265.197 139.581 264.814 139.964ZM271.173 147.23C271.173 146.95 271.262 146.717 271.439 146.53C271.626 146.343 271.855 146.25 272.125 146.25C272.433 146.25 272.676 146.362 272.853 146.586C273.04 146.81 273.133 147.141 273.133 147.58C273.133 148.299 272.961 148.849 272.615 149.232C272.279 149.624 271.822 149.82 271.243 149.82V149.12C271.523 149.12 271.743 149.041 271.901 148.882C272.069 148.733 272.153 148.532 272.153 148.28V148.196C272.144 148.187 272.139 148.168 272.139 148.14V148.098L272.055 148.126C272.027 148.135 271.967 148.14 271.873 148.14C271.687 148.14 271.523 148.056 271.383 147.888C271.243 147.72 271.173 147.501 271.173 147.23ZM274.179 144.78C274.179 144.332 274.277 143.865 274.473 143.38C274.679 142.885 274.875 142.498 275.061 142.218C275.257 141.929 275.523 141.569 275.859 141.14L278.099 138.2H279.989L277.875 140.958L277.259 141.49V141.56L277.539 141.462C277.819 141.387 278.123 141.35 278.449 141.35C279.364 141.35 280.139 141.681 280.773 142.344C281.417 142.997 281.739 143.809 281.739 144.78C281.739 145.769 281.385 146.6 280.675 147.272C279.966 147.944 279.061 148.28 277.959 148.28C276.858 148.28 275.953 147.944 275.243 147.272C274.534 146.6 274.179 145.769 274.179 144.78ZM276.433 143.324C276.051 143.697 275.859 144.183 275.859 144.78C275.859 145.377 276.051 145.867 276.433 146.25C276.816 146.623 277.325 146.81 277.959 146.81C278.594 146.81 279.103 146.623 279.485 146.25C279.868 145.867 280.059 145.377 280.059 144.78C280.059 144.183 279.868 143.697 279.485 143.324C279.103 142.941 278.594 142.75 277.959 142.75C277.325 142.75 276.816 142.941 276.433 143.324ZM282.863 145.34C282.863 144.491 283.189 143.814 283.843 143.31C284.123 143.114 284.449 142.965 284.823 142.862V142.778C284.533 142.666 284.277 142.512 284.053 142.316C283.539 141.877 283.283 141.299 283.283 140.58C283.283 139.843 283.595 139.217 284.221 138.704C284.855 138.181 285.709 137.92 286.783 137.92C287.856 137.92 288.705 138.181 289.331 138.704C289.965 139.217 290.283 139.843 290.283 140.58C290.283 141.28 290.026 141.859 289.513 142.316C289.27 142.512 289.013 142.666 288.743 142.778V142.862C289.097 142.955 289.424 143.109 289.723 143.324C290.376 143.828 290.703 144.5 290.703 145.34C290.703 146.152 290.348 146.847 289.639 147.426C288.939 147.995 287.987 148.28 286.783 148.28C285.579 148.28 284.622 147.995 283.913 147.426C283.213 146.847 282.863 146.152 282.863 145.34ZM284.963 140.72C284.963 141.131 285.121 141.467 285.439 141.728C285.756 141.989 286.204 142.12 286.783 142.12C287.361 142.12 287.809 141.989 288.127 141.728C288.444 141.467 288.603 141.131 288.603 140.72C288.603 140.347 288.439 140.034 288.113 139.782C287.795 139.521 287.352 139.39 286.783 139.39C286.213 139.39 285.765 139.521 285.439 139.782C285.121 140.034 284.963 140.347 284.963 140.72ZM285.131 144.066C284.739 144.374 284.543 144.752 284.543 145.2C284.543 145.648 284.739 146.031 285.131 146.348C285.532 146.656 286.083 146.81 286.783 146.81C287.483 146.81 288.029 146.656 288.421 146.348C288.822 146.031 289.023 145.648 289.023 145.2C289.023 144.752 288.822 144.374 288.421 144.066C288.029 143.749 287.483 143.59 286.783 143.59C286.083 143.59 285.532 143.749 285.131 144.066Z" fill="#333333"/>
<path d="M260.56 400.42C260.56 399.431 260.915 398.6 261.624 397.928C262.333 397.256 263.239 396.92 264.34 396.92C265.441 396.92 266.347 397.256 267.056 397.928C267.765 398.6 268.12 399.431 268.12 400.42C268.12 401.307 267.751 402.263 267.014 403.29C266.939 403.393 266.837 403.533 266.706 403.71C266.575 403.878 266.487 403.995 266.44 404.06L264.2 407H262.31L264.424 404.242L265.04 403.71V403.64C265.021 403.649 264.928 403.687 264.76 403.752C264.517 403.817 264.214 403.85 263.85 403.85C262.935 403.85 262.156 403.523 261.512 402.87C260.877 402.207 260.56 401.391 260.56 400.42ZM262.814 398.964C262.431 399.337 262.24 399.823 262.24 400.42C262.24 401.017 262.431 401.507 262.814 401.89C263.197 402.263 263.705 402.45 264.34 402.45C264.975 402.45 265.483 402.263 265.866 401.89C266.249 401.507 266.44 401.017 266.44 400.42C266.44 399.823 266.249 399.337 265.866 398.964C265.483 398.581 264.975 398.39 264.34 398.39C263.705 398.39 263.197 398.581 262.814 398.964ZM269.173 406.23C269.173 405.95 269.262 405.717 269.439 405.53C269.626 405.343 269.855 405.25 270.125 405.25C270.433 405.25 270.676 405.362 270.853 405.586C271.04 405.81 271.133 406.141 271.133 406.58C271.133 407.299 270.961 407.849 270.615 408.232C270.279 408.624 269.822 408.82 269.243 408.82V408.12C269.523 408.12 269.743 408.041 269.901 407.882C270.069 407.733 270.153 407.532 270.153 407.28V407.196C270.144 407.187 270.139 407.168 270.139 407.14V407.098L270.055 407.126C270.027 407.135 269.967 407.14 269.873 407.14C269.687 407.14 269.523 407.056 269.383 406.888C269.243 406.72 269.173 406.501 269.173 406.23ZM273.649 405.824C272.763 404.853 272.319 403.612 272.319 402.1C272.319 400.588 272.763 399.347 273.649 398.376C274.536 397.405 275.609 396.92 276.869 396.92C278.129 396.92 279.203 397.405 280.089 398.376C280.976 399.347 281.419 400.588 281.419 402.1C281.419 403.612 280.976 404.853 280.089 405.824C279.203 406.795 278.129 407.28 276.869 407.28C275.609 407.28 274.536 406.795 273.649 405.824ZM274.797 399.412C274.265 400.047 273.999 400.943 273.999 402.1C273.999 403.257 274.265 404.153 274.797 404.788C275.339 405.423 276.029 405.74 276.869 405.74C277.709 405.74 278.395 405.423 278.927 404.788C279.469 404.153 279.739 403.257 279.739 402.1C279.739 400.943 279.469 400.047 278.927 399.412C278.395 398.777 277.709 398.46 276.869 398.46C276.029 398.46 275.339 398.777 274.797 399.412ZM282.543 403.78C282.543 403.332 282.641 402.865 282.837 402.38C283.042 401.885 283.238 401.498 283.425 401.218C283.621 400.929 283.887 400.569 284.223 400.14L286.463 397.2H288.353L286.239 399.958L285.623 400.49V400.56L285.903 400.462C286.183 400.387 286.486 400.35 286.813 400.35C287.727 400.35 288.502 400.681 289.137 401.344C289.781 401.997 290.103 402.809 290.103 403.78C290.103 404.769 289.748 405.6 289.039 406.272C288.329 406.944 287.424 407.28 286.323 407.28C285.221 407.28 284.316 406.944 283.607 406.272C282.897 405.6 282.543 404.769 282.543 403.78ZM284.797 402.324C284.414 402.697 284.223 403.183 284.223 403.78C284.223 404.377 284.414 404.867 284.797 405.25C285.179 405.623 285.688 405.81 286.323 405.81C286.957 405.81 287.466 405.623 287.849 405.25C288.231 404.867 288.423 404.377 288.423 403.78C288.423 403.183 288.231 402.697 287.849 402.324C287.466 401.941 286.957 401.75 286.323 401.75C285.688 401.75 285.179 401.941 284.797 402.324Z" fill="#333333"/>
<path d="M239.49 501.78C239.49 501.332 239.588 500.865 239.784 500.38C239.989 499.885 240.185 499.498 240.372 499.218C240.568 498.929 240.834 498.569 241.17 498.14L243.41 495.2H245.3L243.186 497.958L242.57 498.49V498.56L242.85 498.462C243.13 498.387 243.433 498.35 243.76 498.35C244.675 498.35 245.449 498.681 246.084 499.344C246.728 499.997 247.05 500.809 247.05 501.78C247.05 502.769 246.695 503.6 245.986 504.272C245.277 504.944 244.371 505.28 243.27 505.28C242.169 505.28 241.263 504.944 240.554 504.272C239.845 503.6 239.49 502.769 239.49 501.78ZM241.744 500.324C241.361 500.697 241.17 501.183 241.17 501.78C241.17 502.377 241.361 502.867 241.744 503.25C242.127 503.623 242.635 503.81 243.27 503.81C243.905 503.81 244.413 503.623 244.796 503.25C245.179 502.867 245.37 502.377 245.37 501.78C245.37 501.183 245.179 500.697 244.796 500.324C244.413 499.941 243.905 499.75 243.27 499.75C242.635 499.75 242.127 499.941 241.744 500.324ZM248.173 504.23C248.173 503.95 248.262 503.717 248.439 503.53C248.626 503.343 248.855 503.25 249.125 503.25C249.433 503.25 249.676 503.362 249.853 503.586C250.04 503.81 250.133 504.141 250.133 504.58C250.133 505.299 249.961 505.849 249.615 506.232C249.279 506.624 248.822 506.82 248.243 506.82V506.12C248.523 506.12 248.743 506.041 248.901 505.882C249.069 505.733 249.153 505.532 249.153 505.28V505.196C249.144 505.187 249.139 505.168 249.139 505.14V505.098L249.055 505.126C249.027 505.135 248.967 505.14 248.873 505.14C248.687 505.14 248.523 505.056 248.383 504.888C248.243 504.72 248.173 504.501 248.173 504.23ZM252.649 503.824C251.763 502.853 251.319 501.612 251.319 500.1C251.319 498.588 251.763 497.347 252.649 496.376C253.536 495.405 254.609 494.92 255.869 494.92C257.129 494.92 258.203 495.405 259.089 496.376C259.976 497.347 260.419 498.588 260.419 500.1C260.419 501.612 259.976 502.853 259.089 503.824C258.203 504.795 257.129 505.28 255.869 505.28C254.609 505.28 253.536 504.795 252.649 503.824ZM253.797 497.412C253.265 498.047 252.999 498.943 252.999 500.1C252.999 501.257 253.265 502.153 253.797 502.788C254.339 503.423 255.029 503.74 255.869 503.74C256.709 503.74 257.395 503.423 257.927 502.788C258.469 502.153 258.739 501.257 258.739 500.1C258.739 498.943 258.469 498.047 257.927 497.412C257.395 496.777 256.709 496.46 255.869 496.46C255.029 496.46 254.339 496.777 253.797 497.412ZM261.473 505V503.46L264.819 501.094C265.547 500.571 266.069 500.086 266.387 499.638C266.704 499.19 266.863 498.714 266.863 498.21C266.863 497.678 266.699 497.253 266.373 496.936C266.046 496.619 265.603 496.46 265.043 496.46C264.352 496.46 263.834 496.74 263.489 497.3C263.339 497.543 263.227 497.823 263.153 498.14H261.473C261.557 497.543 261.739 497.006 262.019 496.53C262.681 495.457 263.689 494.92 265.043 494.92C266.079 494.92 266.919 495.228 267.563 495.844C268.216 496.451 268.543 497.216 268.543 498.14C268.543 498.943 268.337 499.666 267.927 500.31C267.516 500.945 266.858 501.575 265.953 502.2L264.553 503.18L263.923 503.46V503.53L264.763 503.46H268.543V505H261.473Z" fill="#333333"/>
</svg>
