<svg width="494" height="505" viewBox="0 0 494 505" fill="none" xmlns="http://www.w3.org/2000/svg">
<path d="M158 30L411 30L411 373L158 373L158 30Z" fill="#E7FFD5"/>
<path d="M10 86L158 86L158 211H10L10 86Z" fill="#E7FFD5"/>
<path d="M212 356L402 356L275 481L212 481L212 356Z" fill="#E7FFD5"/>
<path d="M205 286V218L158 219.079V286H205Z" fill="#FDFF9F"/>
<path d="M272 482V380.364L213 381V482H272Z" fill="#FDFF9F"/>
<path d="M241.72 492L312.88 420.839L271.418 378.863L200 450.281L241.72 492Z" fill="#FDFF9F"/>
<path d="M269.896 501.896L333.444 438.349L296.418 400.863L232.64 464.64L269.896 501.896Z" fill="#FDFF9F"/>
<rect x="412" width="30" height="96" fill="#5A5A5A"/>
<rect x="389" y="30" width="30" height="47" transform="rotate(-90 389 30)" fill="#5A5A5A"/>
<rect x="253" y="30" width="30" height="73" transform="rotate(-90 253 30)" fill="#5A5A5A"/>
<rect x="128" y="30" width="30" height="68" transform="rotate(-90 128 30)" fill="#5A5A5A"/>
<rect x="158" y="68" width="30" height="12" transform="rotate(180 158 68)" fill="#5A5A5A"/>
<rect x="84" y="86" width="30" height="68" transform="rotate(-90 84 86)" fill="#5A5A5A"/>
<rect y="86" width="30" height="30" transform="rotate(-90 0 86)" fill="#5A5A5A"/>
<rect x="412" y="148" width="30" height="111" fill="#5A5A5A"/>
<rect x="200" y="504" width="25" height="88" transform="rotate(-90 200 504)" fill="#5A5A5A"/>
<rect x="412" y="313" width="30" height="38" fill="#5A5A5A"/>
<path d="M493.75 324.75L493.687 243.282L489.25 243.252L489.25 324.75L493.75 324.75Z" stroke="#5A5A5A" stroke-width="0.5" stroke-miterlimit="10"/>
<rect x="494" y="331" width="5" height="74" transform="rotate(90 494 331)" fill="#5A5A5A"/>
<rect x="494" y="232" width="5" height="74" transform="rotate(90 494 232)" fill="#5A5A5A"/>
<rect x="494" y="249" width="5" height="15" transform="rotate(-180 494 249)" fill="#5A5A5A"/>
<rect x="494" y="336" width="5" height="12" transform="rotate(-180 494 336)" fill="#5A5A5A"/>
<path d="M427.25 345.75L427.313 285.274L431.75 285.251L431.75 345.75L427.25 345.75Z" stroke="#5A5A5A" stroke-width="0.5" stroke-miterlimit="10"/>
<path d="M437.25 345.75L437.313 285.274L441.75 285.251L441.75 345.75L437.25 345.75Z" stroke="#5A5A5A" stroke-width="0.5" stroke-miterlimit="10"/>
<line y1="-0.5" x2="31.3847" y2="-0.5" transform="matrix(-0.509802 0.860292 0.860292 0.509802 427 256)" stroke="#5A5A5A"/>
<rect x="420.87" y="329.917" width="30" height="216.493" transform="rotate(45 420.87 329.917)" fill="#5A5A5A"/>
<rect x="288" y="170" width="16" height="148" transform="rotate(-180 288 170)" fill="#5A5A5A"/>
<rect x="158" y="170" width="16" height="114" transform="rotate(-180 158 170)" fill="#5A5A5A"/>
<rect x="16" y="224" width="16" height="146" transform="rotate(-180 16 224)" fill="#5A5A5A"/>
<rect x="213" y="208" width="16" height="205" transform="rotate(90 213 208)" fill="#5A5A5A"/>
<rect x="282" y="208" width="16" height="24" transform="rotate(90 282 208)" fill="#5A5A5A"/>
<rect x="258" y="208" width="16" height="62" fill="#5A5A5A"/>
<rect x="258" y="313" width="16" height="66" fill="#5A5A5A"/>
<rect x="200" y="373" width="16" height="106" fill="#5A5A5A"/>
<rect x="142" y="388" width="15" height="20" transform="rotate(-90 142 388)" fill="#5A5A5A"/>
<rect x="196" y="388" width="15" height="20" transform="rotate(-90 196 388)" fill="#5A5A5A"/>
<rect x="142" y="204" width="16" height="184" fill="#5A5A5A"/>
<rect x="272" y="204" width="16" height="20" fill="#5A5A5A"/>
<path d="M150 293L150 285L213 285L213 293L150 293Z" fill="#5A5A5A"/>
<path d="M253 381L253 373L274 373L274 381L253 381Z" fill="#5A5A5A"/>
<path d="M205 381L205 373L226 373L226 381L205 381Z" fill="#5A5A5A"/>
<path d="M262.247 372.404L267.904 366.747L329.081 427.925L323.425 433.581L262.247 372.404Z" fill="#5A5A5A"/>
<path d="M213 293L205 293L205 267L213 267L213 293Z" fill="#5A5A5A"/>
<path d="M213 240L205 240L205 214L213 214L213 240Z" fill="#5A5A5A"/>
<path d="M180.25 29.7498L399.662 29.5981L399.748 18.25L180.25 18.25L180.25 29.7498Z" stroke="#5A5A5A" stroke-width="0.5" stroke-miterlimit="10"/>
<path d="M157.749 60.75L157.599 26.2641L146.25 26.2503L146.25 60.75L157.749 60.75Z" stroke="#5A5A5A" stroke-width="0.5" stroke-miterlimit="10"/>
<path d="M20.25 85.9629L117.711 85.8116L117.749 74.4633L20.25 74.4633L20.25 85.9629Z" stroke="#5A5A5A" stroke-width="0.5" stroke-miterlimit="10"/>
<path d="M441.75 179.75L441.598 71.2937L430.25 71.2508L430.25 179.75L441.75 179.75Z" stroke="#5A5A5A" stroke-width="0.5" stroke-miterlimit="10"/>
<path d="M180.25 11.7498L399.662 11.5981L399.748 0.250005L180.25 0.249999L180.25 11.7498Z" stroke="#5A5A5A" stroke-width="0.5" stroke-miterlimit="10"/>
<path d="M139.749 60.75L139.599 26.2641L128.25 26.2503L128.25 60.75L139.749 60.75Z" stroke="#5A5A5A" stroke-width="0.5" stroke-miterlimit="10"/>
<path d="M20.25 67.9629L117.711 67.8116L117.749 56.4633L20.25 56.4633L20.25 67.9629Z" stroke="#5A5A5A" stroke-width="0.5" stroke-miterlimit="10"/>
<path d="M423.75 179.75L423.598 71.2937L412.25 71.2508L412.25 179.75L423.75 179.75Z" stroke="#5A5A5A" stroke-width="0.5" stroke-miterlimit="10"/>
<line y1="-0.5" x2="39.9625" y2="-0.5" transform="matrix(0.525493 0.850798 0.850798 -0.525493 156 166)" stroke="#5A5A5A"/>
<line y1="-0.5" x2="31.3847" y2="-0.5" transform="matrix(-0.860292 0.509802 0.509802 0.860292 259 212)" stroke="#5A5A5A"/>
<line y1="-0.5" x2="17.2047" y2="-0.5" transform="matrix(0.813733 0.581238 0.581238 -0.813733 212 211)" stroke="#5A5A5A"/>
<line y1="-0.5" x2="30.0167" y2="-0.5" transform="matrix(0.499722 0.866186 0.866186 -0.499722 211 239)" stroke="#5A5A5A"/>
<line y1="-0.5" x2="25.9422" y2="-0.5" transform="matrix(-0.462566 0.886585 0.886585 0.462566 260 267)" stroke="#5A5A5A"/>
<line y1="-0.5" x2="25.0599" y2="-0.5" transform="matrix(-0.478852 -0.877896 -0.877896 0.478852 260 317)" stroke="#5A5A5A"/>
<line y1="-0.5" x2="37.5899" y2="-0.5" transform="matrix(-0.478852 0.877896 0.877896 0.478852 269 167)" stroke="#5A5A5A"/>
<line y1="-0.5" x2="39.4462" y2="-0.5" transform="matrix(-0.861934 0.50702 0.50702 0.861934 200 385)" stroke="#5A5A5A"/>
<rect width="2" height="11" transform="matrix(1.31134e-07 1 1 -1.31134e-07 274 313)" fill="#5A5A5A"/>
<rect width="2" height="11" transform="matrix(1.31134e-07 1 1 -1.31134e-07 325 313)" fill="#5A5A5A"/>
<rect width="2" height="11" transform="matrix(1.31134e-07 1 1 -1.31134e-07 308 313)" fill="#5A5A5A"/>
<rect width="2" height="11" transform="matrix(1.31134e-07 1 1 -1.31134e-07 291 313)" fill="#5A5A5A"/>
<rect width="2" height="11" transform="matrix(1.31134e-07 1 1 -1.31134e-07 342 313)" fill="#5A5A5A"/>
<rect width="2" height="11" transform="matrix(1.31134e-07 1 1 -1.31134e-07 359 313)" fill="#5A5A5A"/>
<rect width="2" height="11" transform="matrix(1.31134e-07 1 1 -1.31134e-07 376 313)" fill="#5A5A5A"/>
<rect width="2" height="11" transform="matrix(1.31134e-07 1 1 -1.31134e-07 393 313)" fill="#5A5A5A"/>
<path d="M292.2 391.082L309.874 373.408L292.674 356.208L274.999 373.882L292.2 391.082Z" fill="white" stroke="#5A5A5A" stroke-width="0.5"/>
<path d="M307.786 374.186L294.031 387.941C293.509 388.463 292.954 388.463 292.41 387.919L278.163 373.672C277.608 373.117 277.608 372.584 278.141 372.051L291.896 358.296C292.418 357.752 292.962 357.763 293.506 358.307L307.753 372.554C308.319 373.098 308.319 373.653 307.786 374.186Z" fill="white" stroke="#5A5A5A" stroke-width="0.5"/>
<path d="M301.924 370.854C300.647 369.599 298.615 369.566 297.383 370.798C296.14 372.042 296.173 374.073 297.439 375.339C298.716 376.616 300.737 376.639 301.98 375.395C303.223 374.152 303.201 372.131 301.924 370.854Z" stroke="#5A5A5A" stroke-width="0.5"/>
<path d="M295.096 364.069C293.819 362.814 291.787 362.781 290.555 364.013C289.311 365.256 289.345 367.288 290.611 368.554C291.888 369.831 293.908 369.853 295.152 368.61C296.406 367.378 296.384 365.335 295.096 364.069Z" stroke="#5A5A5A" stroke-width="0.5"/>
<path d="M288.723 370.442C287.446 369.165 285.425 369.143 284.182 370.386C282.938 371.63 282.972 373.662 284.238 374.928C285.515 376.182 287.547 376.216 288.779 374.984C290.011 373.751 289.989 371.708 288.723 370.442Z" stroke="#5A5A5A" stroke-width="0.5"/>
<path d="M295.529 377.249C294.252 375.972 292.231 375.95 290.987 377.193C289.744 378.436 289.778 380.468 291.043 381.734C292.32 382.989 294.352 383.022 295.585 381.79C296.817 380.558 296.794 378.515 295.529 377.249Z" stroke="#5A5A5A" stroke-width="0.5"/>
<path d="M309.371 408.231L326.404 391.198L343.162 407.956L326.118 425L309.371 408.231Z" fill="white" stroke="#5A5A5A" stroke-width="0.5"/>
<path d="M315.317 404.835L324.734 395.419C325.259 394.894 325.773 394.894 326.309 395.43L338.759 407.88C339.274 408.394 339.284 408.919 338.781 409.444L329.343 418.861C328.839 419.386 328.314 419.375 327.789 418.85L315.339 406.399C314.793 405.896 314.793 405.36 315.317 404.835Z" fill="white" stroke="#5A5A5A" stroke-width="0.5"/>
<path d="M318.972 415.218C319.636 415.86 320.654 415.893 321.275 415.271L325.753 409.872L325.753 409.851C326.128 409.476 326.117 408.865 325.721 408.469C325.324 408.072 324.713 408.061 324.317 408.436L318.918 412.914C318.307 413.525 318.329 414.553 318.972 415.218Z" stroke="#5A5A5A" stroke-width="0.5"/>
<mask id="path-76-inside-1_54_13616" fill="white">
<path fill-rule="evenodd" clip-rule="evenodd" d="M320.429 415.71L322.86 412.764C323.225 412.378 323.224 411.757 322.807 411.361C322.41 410.964 321.81 410.964 321.425 411.328L318.479 413.76"/>
</mask>
<path fill-rule="evenodd" clip-rule="evenodd" d="M320.429 415.71L322.86 412.764C323.225 412.378 323.224 411.757 322.807 411.361C322.41 410.964 321.81 410.964 321.425 411.328L318.479 413.76" fill="white"/>
<path d="M322.86 412.764L322.497 412.421L322.485 412.433L322.475 412.446L322.86 412.764ZM322.807 411.361L322.453 411.714L322.462 411.723L322.807 411.361ZM321.425 411.328L321.743 411.714L321.756 411.703L321.768 411.692L321.425 411.328ZM320.814 416.028L323.246 413.082L322.475 412.446L320.043 415.392L320.814 416.028ZM323.224 413.107C323.777 412.522 323.769 411.585 323.151 410.998L322.462 411.723C322.68 411.929 322.672 412.235 322.497 412.421L323.224 413.107ZM323.16 411.007C322.574 410.421 321.665 410.413 321.081 410.965L321.768 411.692C321.955 411.515 322.247 411.508 322.453 411.714L323.16 411.007ZM321.106 410.943L318.16 413.374L318.797 414.146L321.743 411.714L321.106 410.943Z" fill="#5A5A5A" mask="url(#path-76-inside-1_54_13616)"/>
<path d="M216.001 477.678L216.001 420.322C216.001 419.588 216.587 419 217.321 419L240.091 419C240.824 419 241.411 419.588 241.411 420.322L241.411 477.678C241.411 478.412 240.824 479 240.091 479L217.321 479C216.587 479 216.001 478.399 216.001 477.678Z" fill="white" stroke="#5A5A5A" stroke-width="0.5"/>
<path d="M225.618 422.526L231.807 422.526C235.396 422.526 238.29 425.437 238.29 429.016L238.29 474.179C238.29 475.061 237.583 475.769 236.703 475.769L220.696 475.769C219.816 475.769 219.109 475.061 219.109 474.179L219.109 429.029C219.122 425.437 222.03 422.526 225.618 422.526Z" fill="white" stroke="#5A5A5A" stroke-width="0.5"/>
<path d="M228.259 470.413C227.544 470.413 226.965 471.017 226.965 471.762C226.965 472.507 227.544 473.111 228.259 473.111C228.973 473.111 229.553 472.507 229.553 471.762C229.553 471.017 228.973 470.413 228.259 470.413Z" fill="white" stroke="#5A5A5A" stroke-width="0.5"/>
<path d="M291.373 432.368L292.204 433.207L294.403 435.344L299.818 440.664L292.84 447.767L284.395 439.472C282.243 437.357 282.061 434.033 283.989 432.071C285.894 430.131 289.221 430.254 291.373 432.368Z" fill="white" stroke="#5A5A5A" stroke-width="0.5"/>
<path d="M290.617 433.232L291.284 433.887L296.676 439.184L291.293 444.663L285.901 439.366L285.246 438.7C283.55 437.034 283.363 434.463 284.855 432.944C286.348 431.448 288.933 431.577 290.617 433.232Z" fill="white" stroke="#5A5A5A" stroke-width="0.5"/>
<path d="M296.116 453.511L292.362 449.822C291.929 449.397 291.922 448.702 292.347 448.27L300.254 440.22C300.679 439.788 301.374 439.782 301.807 440.207L305.562 443.895C305.994 444.321 306.001 445.016 305.576 445.448L297.68 453.486C297.244 453.93 296.549 453.936 296.116 453.511Z" fill="white" stroke="#5A5A5A" stroke-width="0.5"/>
<path d="M298.514 447.326C298.221 447.039 298.206 446.61 298.447 446.365C298.687 446.096 299.128 446.116 299.42 446.403C299.713 446.69 299.728 447.119 299.487 447.364C299.212 447.622 298.783 447.614 298.514 447.326Z" fill="white" stroke="#5A5A5A" stroke-width="0.5"/>
<path d="M273.792 474.911L265.089 466.208C264.484 465.603 264.483 464.635 265.088 464.031L278.183 450.936C278.787 450.331 279.755 450.332 280.36 450.937L289.063 459.64C289.668 460.245 289.669 461.213 289.064 461.817L275.969 474.912C275.375 475.506 274.397 475.516 273.792 474.911Z" fill="white" stroke="#5A5A5A" stroke-width="0.5"/>
<path d="M271.834 470.233L270.493 468.892C268.728 467.127 268.726 464.265 270.489 462.502L276.654 456.337C278.417 454.574 281.279 454.576 283.044 456.341L284.385 457.682C286.15 459.447 286.152 462.309 284.389 464.072L278.224 470.237C276.461 472 273.599 471.998 271.834 470.233Z" fill="white" stroke="#5A5A5A" stroke-width="0.5"/>
<path d="M278.927 466.125C278.543 465.741 278.533 465.127 278.906 464.755C279.279 464.382 279.893 464.391 280.277 464.776C280.661 465.16 280.671 465.773 280.298 466.146C279.925 466.519 279.311 466.51 278.927 466.125Z" fill="white" stroke="#5A5A5A" stroke-width="0.5"/>
<path d="M177.298 248.28L176.118 248.264L173.052 248.28L165.46 248.28L165.46 238.323L177.298 238.323C180.315 238.323 182.774 240.567 182.774 243.318C182.774 246.037 180.315 248.28 177.298 248.28Z" fill="white" stroke="#5A5A5A" stroke-width="0.5"/>
<path d="M177.233 247.134L176.298 247.134L168.74 247.134L168.74 239.453L176.298 239.453L177.233 239.47C179.61 239.47 181.545 241.173 181.545 243.302C181.529 245.414 179.594 247.134 177.233 247.134Z" fill="white" stroke="#5A5A5A" stroke-width="0.5"/>
<path d="M159.098 236.522L164.361 236.522C164.968 236.522 165.46 237.013 165.46 237.619L165.46 248.903C165.46 249.509 164.968 250 164.361 250L159.098 250C158.492 250 158 249.509 158 248.903L158 237.635C158 237.013 158.492 236.522 159.098 236.522Z" fill="white" stroke="#5A5A5A" stroke-width="0.5"/>
<path d="M161.722 242.614C162.132 242.614 162.444 242.909 162.444 243.253C162.46 243.613 162.132 243.908 161.722 243.908C161.313 243.908 161.001 243.613 161.001 243.269C161.017 242.892 161.329 242.597 161.722 242.614Z" fill="white" stroke="#5A5A5A" stroke-width="0.5"/>
<path d="M173 283.46L173 271.152C173 270.296 173.684 269.611 174.539 269.611L193.058 269.611C193.913 269.611 194.597 270.296 194.597 271.152L194.597 283.46C194.597 284.315 193.913 285 193.058 285L174.539 285C173.698 285 173 284.315 173 283.46Z" fill="white" stroke="#5A5A5A" stroke-width="0.5"/>
<path d="M174.924 278.768L174.924 276.871C174.924 274.375 176.947 272.35 179.44 272.35L188.158 272.35C190.651 272.35 192.674 274.375 192.674 276.871L192.674 278.768C192.674 281.264 190.651 283.289 188.158 283.289L179.44 283.289C176.947 283.289 174.924 281.264 174.924 278.768Z" fill="white" stroke="#5A5A5A" stroke-width="0.5"/>
<path d="M182.844 280.878C182.844 280.335 183.271 279.894 183.799 279.894C184.326 279.894 184.753 280.335 184.753 280.878C184.753 281.422 184.326 281.862 183.799 281.862C183.271 281.862 182.844 281.422 182.844 280.878Z" fill="white" stroke="#5A5A5A" stroke-width="0.5"/>
<path d="M203.35 107.42V105.6L205.17 104.2H206.64V114H205.03V106.16L203.35 107.42ZM208.181 111.34C208.181 110.491 208.508 109.814 209.161 109.31C209.441 109.114 209.768 108.965 210.141 108.862V108.778C209.852 108.666 209.595 108.512 209.371 108.316C208.858 107.877 208.601 107.299 208.601 106.58C208.601 105.843 208.914 105.217 209.539 104.704C210.174 104.181 211.028 103.92 212.101 103.92C213.174 103.92 214.024 104.181 214.649 104.704C215.284 105.217 215.601 105.843 215.601 106.58C215.601 107.28 215.344 107.859 214.831 108.316C214.588 108.512 214.332 108.666 214.061 108.778V108.862C214.416 108.955 214.742 109.109 215.041 109.324C215.694 109.828 216.021 110.5 216.021 111.34C216.021 112.152 215.666 112.847 214.957 113.426C214.257 113.995 213.305 114.28 212.101 114.28C210.897 114.28 209.94 113.995 209.231 113.426C208.531 112.847 208.181 112.152 208.181 111.34ZM210.281 106.72C210.281 107.131 210.44 107.467 210.757 107.728C211.074 107.989 211.522 108.12 212.101 108.12C212.68 108.12 213.128 107.989 213.445 107.728C213.762 107.467 213.921 107.131 213.921 106.72C213.921 106.347 213.758 106.034 213.431 105.782C213.114 105.521 212.67 105.39 212.101 105.39C211.532 105.39 211.084 105.521 210.757 105.782C210.44 106.034 210.281 106.347 210.281 106.72ZM210.449 110.066C210.057 110.374 209.861 110.752 209.861 111.2C209.861 111.648 210.057 112.031 210.449 112.348C210.85 112.656 211.401 112.81 212.101 112.81C212.801 112.81 213.347 112.656 213.739 112.348C214.14 112.031 214.341 111.648 214.341 111.2C214.341 110.752 214.14 110.374 213.739 110.066C213.347 109.749 212.801 109.59 212.101 109.59C211.401 109.59 210.85 109.749 210.449 110.066ZM217.136 113.23C217.136 112.95 217.225 112.717 217.402 112.53C217.589 112.343 217.818 112.25 218.088 112.25C218.396 112.25 218.639 112.362 218.816 112.586C219.003 112.81 219.096 113.141 219.096 113.58C219.096 114.299 218.924 114.849 218.578 115.232C218.242 115.624 217.785 115.82 217.206 115.82V115.12C217.486 115.12 217.706 115.041 217.864 114.882C218.032 114.733 218.116 114.532 218.116 114.28V114.196C218.107 114.187 218.102 114.168 218.102 114.14V114.098L218.018 114.126C217.99 114.135 217.93 114.14 217.836 114.14C217.65 114.14 217.486 114.056 217.346 113.888C217.206 113.72 217.136 113.501 217.136 113.23ZM220.212 111.27H221.892C221.967 111.559 222.093 111.807 222.27 112.012C222.681 112.497 223.278 112.74 224.062 112.74C224.688 112.74 225.182 112.572 225.546 112.236C225.91 111.9 226.092 111.461 226.092 110.92C226.092 110.351 225.91 109.893 225.546 109.548C225.182 109.203 224.688 109.03 224.062 109.03C223.484 109.03 222.994 109.184 222.592 109.492C222.434 109.613 222.294 109.763 222.172 109.94H220.632L221.052 104.2H227.002V105.74H222.382L222.172 108.26H222.242C222.392 108.111 222.564 107.985 222.76 107.882C223.199 107.621 223.726 107.49 224.342 107.49C225.322 107.49 226.139 107.817 226.792 108.47C227.446 109.123 227.772 109.94 227.772 110.92C227.772 111.881 227.427 112.684 226.736 113.328C226.055 113.963 225.164 114.28 224.062 114.28C222.625 114.28 221.556 113.781 220.856 112.782C220.558 112.343 220.343 111.839 220.212 111.27ZM228.616 107.42V105.6L230.436 104.2H231.906V114H230.296V106.16L228.616 107.42Z" fill="#333333"/>
<path d="M340.42 212.2H342.1C342.165 212.489 342.291 212.746 342.478 212.97C342.898 213.483 343.495 213.74 344.27 213.74C344.914 213.74 345.423 213.581 345.796 213.264C346.179 212.937 346.37 212.536 346.37 212.06C346.37 211.519 346.197 211.094 345.852 210.786C345.516 210.469 345.035 210.31 344.41 210.31H342.03V208.91L344.97 206.81V206.74H340.91V205.2H347.35V206.726L344.83 208.56L344.13 208.84V208.91L344.354 208.882C344.662 208.854 344.844 208.84 344.9 208.84C345.777 208.84 346.51 209.143 347.098 209.75C347.686 210.357 347.98 211.127 347.98 212.06C347.98 212.956 347.635 213.717 346.944 214.342C346.253 214.967 345.362 215.28 344.27 215.28C342.823 215.28 341.755 214.767 341.064 213.74C340.765 213.301 340.551 212.788 340.42 212.2ZM348.827 208.42V206.6L350.647 205.2H352.117V215H350.507V207.16L348.827 208.42ZM353.658 214.23C353.658 213.95 353.746 213.717 353.924 213.53C354.11 213.343 354.339 213.25 354.61 213.25C354.918 213.25 355.16 213.362 355.338 213.586C355.524 213.81 355.618 214.141 355.618 214.58C355.618 215.299 355.445 215.849 355.1 216.232C354.764 216.624 354.306 216.82 353.728 216.82V216.12C354.008 216.12 354.227 216.041 354.386 215.882C354.554 215.733 354.638 215.532 354.638 215.28V215.196C354.628 215.187 354.624 215.168 354.624 215.14V215.098L354.54 215.126C354.512 215.135 354.451 215.14 354.358 215.14C354.171 215.14 354.008 215.056 353.868 214.888C353.728 214.72 353.658 214.501 353.658 214.23ZM356.524 208.42V206.6L358.344 205.2H359.814V215H358.204V207.16L356.524 208.42ZM361.355 212.34C361.355 211.491 361.682 210.814 362.335 210.31C362.615 210.114 362.942 209.965 363.315 209.862V209.778C363.026 209.666 362.769 209.512 362.545 209.316C362.032 208.877 361.775 208.299 361.775 207.58C361.775 206.843 362.088 206.217 362.713 205.704C363.348 205.181 364.202 204.92 365.275 204.92C366.348 204.92 367.198 205.181 367.823 205.704C368.458 206.217 368.775 206.843 368.775 207.58C368.775 208.28 368.518 208.859 368.005 209.316C367.762 209.512 367.506 209.666 367.235 209.778V209.862C367.59 209.955 367.916 210.109 368.215 210.324C368.868 210.828 369.195 211.5 369.195 212.34C369.195 213.152 368.84 213.847 368.131 214.426C367.431 214.995 366.479 215.28 365.275 215.28C364.071 215.28 363.114 214.995 362.405 214.426C361.705 213.847 361.355 213.152 361.355 212.34ZM363.455 207.72C363.455 208.131 363.614 208.467 363.931 208.728C364.248 208.989 364.696 209.12 365.275 209.12C365.854 209.12 366.302 208.989 366.619 208.728C366.936 208.467 367.095 208.131 367.095 207.72C367.095 207.347 366.932 207.034 366.605 206.782C366.288 206.521 365.844 206.39 365.275 206.39C364.706 206.39 364.258 206.521 363.931 206.782C363.614 207.034 363.455 207.347 363.455 207.72ZM363.623 211.066C363.231 211.374 363.035 211.752 363.035 212.2C363.035 212.648 363.231 213.031 363.623 213.348C364.024 213.656 364.575 213.81 365.275 213.81C365.975 213.81 366.521 213.656 366.913 213.348C367.314 213.031 367.515 212.648 367.515 212.2C367.515 211.752 367.314 211.374 366.913 211.066C366.521 210.749 365.975 210.59 365.275 210.59C364.575 210.59 364.024 210.749 363.623 211.066Z" fill="#333333"/>
<path d="M452.42 292.413H454.1C454.165 292.703 454.291 292.959 454.478 293.183C454.898 293.697 455.495 293.953 456.27 293.953C456.914 293.953 457.423 293.795 457.796 293.477C458.179 293.151 458.37 292.749 458.37 292.273C458.37 291.732 458.197 291.307 457.852 290.999C457.516 290.682 457.035 290.523 456.41 290.523H454.03V289.123L456.97 287.023V286.953H452.91V285.413H459.35V286.939L456.83 288.773L456.13 289.053V289.123L456.354 289.095C456.662 289.067 456.844 289.053 456.9 289.053C457.777 289.053 458.51 289.357 459.098 289.963C459.686 290.57 459.98 291.34 459.98 292.273C459.98 293.169 459.635 293.93 458.944 294.555C458.253 295.181 457.362 295.493 456.27 295.493C454.823 295.493 453.755 294.98 453.064 293.953C452.765 293.515 452.551 293.001 452.42 292.413ZM461.037 294.443C461.037 294.163 461.125 293.93 461.303 293.743C461.489 293.557 461.718 293.463 461.989 293.463C462.297 293.463 462.539 293.575 462.717 293.799C462.903 294.023 462.997 294.355 462.997 294.793C462.997 295.512 462.824 296.063 462.479 296.445C462.143 296.837 461.685 297.033 461.107 297.033V296.333C461.387 296.333 461.606 296.254 461.765 296.095C461.933 295.946 462.017 295.745 462.017 295.493V295.409C462.007 295.4 462.003 295.381 462.003 295.353V295.311L461.919 295.339C461.891 295.349 461.83 295.353 461.737 295.353C461.55 295.353 461.387 295.269 461.247 295.101C461.107 294.933 461.037 294.714 461.037 294.443ZM464.043 291.993C464.043 291.545 464.141 291.079 464.337 290.593C464.542 290.099 464.738 289.711 464.925 289.431C465.121 289.142 465.387 288.783 465.723 288.353L467.963 285.413H469.853L467.739 288.171L467.123 288.703V288.773L467.403 288.675C467.683 288.601 467.986 288.563 468.313 288.563C469.227 288.563 470.002 288.895 470.637 289.557C471.281 290.211 471.603 291.023 471.603 291.993C471.603 292.983 471.248 293.813 470.539 294.485C469.829 295.157 468.924 295.493 467.823 295.493C466.721 295.493 465.816 295.157 465.107 294.485C464.397 293.813 464.043 292.983 464.043 291.993ZM466.297 290.537C465.914 290.911 465.723 291.396 465.723 291.993C465.723 292.591 465.914 293.081 466.297 293.463C466.679 293.837 467.188 294.023 467.823 294.023C468.457 294.023 468.966 293.837 469.349 293.463C469.731 293.081 469.923 292.591 469.923 291.993C469.923 291.396 469.731 290.911 469.349 290.537C468.966 290.155 468.457 289.963 467.823 289.963C467.188 289.963 466.679 290.155 466.297 290.537ZM472.656 291.993C472.656 291.545 472.754 291.079 472.95 290.593C473.155 290.099 473.351 289.711 473.538 289.431C473.734 289.142 474 288.783 474.336 288.353L476.576 285.413H478.466L476.352 288.171L475.736 288.703V288.773L476.016 288.675C476.296 288.601 476.599 288.563 476.926 288.563C477.841 288.563 478.615 288.895 479.25 289.557C479.894 290.211 480.216 291.023 480.216 291.993C480.216 292.983 479.861 293.813 479.152 294.485C478.443 295.157 477.537 295.493 476.436 295.493C475.335 295.493 474.429 295.157 473.72 294.485C473.011 293.813 472.656 292.983 472.656 291.993ZM474.91 290.537C474.527 290.911 474.336 291.396 474.336 291.993C474.336 292.591 474.527 293.081 474.91 293.463C475.293 293.837 475.801 294.023 476.436 294.023C477.071 294.023 477.579 293.837 477.962 293.463C478.345 293.081 478.536 292.591 478.536 291.993C478.536 291.396 478.345 290.911 477.962 290.537C477.579 290.155 477.071 289.963 476.436 289.963C475.801 289.963 475.293 290.155 474.91 290.537Z" fill="#333333"/>
<path d="M64.35 148.42V146.6L66.17 145.2H67.64V155H66.03V147.16L64.35 148.42ZM69.0411 155V153.46L72.3871 151.094C73.1151 150.571 73.6378 150.086 73.9551 149.638C74.2724 149.19 74.4311 148.714 74.4311 148.21C74.4311 147.678 74.2678 147.253 73.9411 146.936C73.6144 146.619 73.1711 146.46 72.6111 146.46C71.9204 146.46 71.4024 146.74 71.0571 147.3C70.9078 147.543 70.7958 147.823 70.7211 148.14H69.0411C69.1251 147.543 69.3071 147.006 69.5871 146.53C70.2498 145.457 71.2578 144.92 72.6111 144.92C73.6471 144.92 74.4871 145.228 75.1311 145.844C75.7844 146.451 76.1111 147.216 76.1111 148.14C76.1111 148.943 75.9058 149.666 75.4951 150.31C75.0844 150.945 74.4264 151.575 73.5211 152.2L72.1211 153.18L71.4911 153.46V153.53L72.3311 153.46H76.1111V155H69.0411ZM77.2338 154.23C77.2338 153.95 77.3225 153.717 77.4998 153.53C77.6865 153.343 77.9152 153.25 78.1858 153.25C78.4938 153.25 78.7365 153.362 78.9138 153.586C79.1005 153.81 79.1938 154.141 79.1938 154.58C79.1938 155.299 79.0212 155.849 78.6758 156.232C78.3398 156.624 77.8825 156.82 77.3038 156.82V156.12C77.5838 156.12 77.8032 156.041 77.9618 155.882C78.1298 155.733 78.2138 155.532 78.2138 155.28V155.196C78.2045 155.187 78.1998 155.168 78.1998 155.14V155.098L78.1158 155.126C78.0878 155.135 78.0272 155.14 77.9338 155.14C77.7472 155.14 77.5838 155.056 77.4438 154.888C77.3038 154.72 77.2338 154.501 77.2338 154.23ZM80.24 151.78C80.24 151.332 80.338 150.865 80.534 150.38C80.7393 149.885 80.9353 149.498 81.122 149.218C81.318 148.929 81.584 148.569 81.92 148.14L84.16 145.2H86.05L83.936 147.958L83.32 148.49V148.56L83.6 148.462C83.88 148.387 84.1833 148.35 84.51 148.35C85.4247 148.35 86.1993 148.681 86.834 149.344C87.478 149.997 87.8 150.809 87.8 151.78C87.8 152.769 87.4453 153.6 86.736 154.272C86.0267 154.944 85.1213 155.28 84.02 155.28C82.9187 155.28 82.0133 154.944 81.304 154.272C80.5947 153.6 80.24 152.769 80.24 151.78ZM82.494 150.324C82.1113 150.697 81.92 151.183 81.92 151.78C81.92 152.377 82.1113 152.867 82.494 153.25C82.8767 153.623 83.3853 153.81 84.02 153.81C84.6547 153.81 85.1633 153.623 85.546 153.25C85.9287 152.867 86.12 152.377 86.12 151.78C86.12 151.183 85.9287 150.697 85.546 150.324C85.1633 149.941 84.6547 149.75 84.02 149.75C83.3853 149.75 82.8767 149.941 82.494 150.324ZM87.806 146.74V145.2H94.456V146.74L90.536 155H88.786L92.636 146.88V146.74H87.806Z" fill="#333333"/>
<path d="M174.42 262V260.46L177.766 258.094C178.494 257.571 179.017 257.086 179.334 256.638C179.651 256.19 179.81 255.714 179.81 255.21C179.81 254.678 179.647 254.253 179.32 253.936C178.993 253.619 178.55 253.46 177.99 253.46C177.299 253.46 176.781 253.74 176.436 254.3C176.287 254.543 176.175 254.823 176.1 255.14H174.42C174.504 254.543 174.686 254.006 174.966 253.53C175.629 252.457 176.637 251.92 177.99 251.92C179.026 251.92 179.866 252.228 180.51 252.844C181.163 253.451 181.49 254.216 181.49 255.14C181.49 255.943 181.285 256.666 180.874 257.31C180.463 257.945 179.805 258.575 178.9 259.2L177.5 260.18L176.87 260.46V260.53L177.71 260.46H181.49V262H174.42ZM182.613 261.23C182.613 260.95 182.701 260.717 182.879 260.53C183.065 260.343 183.294 260.25 183.565 260.25C183.873 260.25 184.115 260.362 184.293 260.586C184.479 260.81 184.573 261.141 184.573 261.58C184.573 262.299 184.4 262.849 184.055 263.232C183.719 263.624 183.261 263.82 182.683 263.82V263.12C182.963 263.12 183.182 263.041 183.341 262.882C183.509 262.733 183.593 262.532 183.593 262.28V262.196C183.583 262.187 183.579 262.168 183.579 262.14V262.098L183.495 262.126C183.467 262.135 183.406 262.14 183.313 262.14C183.126 262.14 182.963 262.056 182.823 261.888C182.683 261.72 182.613 261.501 182.613 261.23ZM185.339 260.04V258.5L188.629 252.2H190.379L187.089 258.5H190.309V256.12H190.379H191.919V258.5H193.319V260.04H191.919V262H190.309V260.04H185.339ZM195.278 260.824C194.392 259.853 193.948 258.612 193.948 257.1C193.948 255.588 194.392 254.347 195.278 253.376C196.165 252.405 197.238 251.92 198.498 251.92C199.758 251.92 200.832 252.405 201.718 253.376C202.605 254.347 203.048 255.588 203.048 257.1C203.048 258.612 202.605 259.853 201.718 260.824C200.832 261.795 199.758 262.28 198.498 262.28C197.238 262.28 196.165 261.795 195.278 260.824ZM196.426 254.412C195.894 255.047 195.628 255.943 195.628 257.1C195.628 258.257 195.894 259.153 196.426 259.788C196.968 260.423 197.658 260.74 198.498 260.74C199.338 260.74 200.024 260.423 200.556 259.788C201.098 259.153 201.368 258.257 201.368 257.1C201.368 255.943 201.098 255.047 200.556 254.412C200.024 253.777 199.338 253.46 198.498 253.46C197.658 253.46 196.968 253.777 196.426 254.412Z" fill="#333333"/>
<path d="M175.56 336.34C175.56 335.491 175.887 334.814 176.54 334.31C176.82 334.114 177.147 333.965 177.52 333.862V333.778C177.231 333.666 176.974 333.512 176.75 333.316C176.237 332.877 175.98 332.299 175.98 331.58C175.98 330.843 176.293 330.217 176.918 329.704C177.553 329.181 178.407 328.92 179.48 328.92C180.553 328.92 181.403 329.181 182.028 329.704C182.663 330.217 182.98 330.843 182.98 331.58C182.98 332.28 182.723 332.859 182.21 333.316C181.967 333.512 181.711 333.666 181.44 333.778V333.862C181.795 333.955 182.121 334.109 182.42 334.324C183.073 334.828 183.4 335.5 183.4 336.34C183.4 337.152 183.045 337.847 182.336 338.426C181.636 338.995 180.684 339.28 179.48 339.28C178.276 339.28 177.319 338.995 176.61 338.426C175.91 337.847 175.56 337.152 175.56 336.34ZM177.66 331.72C177.66 332.131 177.819 332.467 178.136 332.728C178.453 332.989 178.901 333.12 179.48 333.12C180.059 333.12 180.507 332.989 180.824 332.728C181.141 332.467 181.3 332.131 181.3 331.72C181.3 331.347 181.137 331.034 180.81 330.782C180.493 330.521 180.049 330.39 179.48 330.39C178.911 330.39 178.463 330.521 178.136 330.782C177.819 331.034 177.66 331.347 177.66 331.72ZM177.828 335.066C177.436 335.374 177.24 335.752 177.24 336.2C177.24 336.648 177.436 337.031 177.828 337.348C178.229 337.656 178.78 337.81 179.48 337.81C180.18 337.81 180.726 337.656 181.118 337.348C181.519 337.031 181.72 336.648 181.72 336.2C181.72 335.752 181.519 335.374 181.118 335.066C180.726 334.749 180.18 334.59 179.48 334.59C178.78 334.59 178.229 334.749 177.828 335.066ZM184.515 338.23C184.515 337.95 184.604 337.717 184.781 337.53C184.968 337.343 185.196 337.25 185.467 337.25C185.775 337.25 186.018 337.362 186.195 337.586C186.382 337.81 186.475 338.141 186.475 338.58C186.475 339.299 186.302 339.849 185.957 340.232C185.621 340.624 185.164 340.82 184.585 340.82V340.12C184.865 340.12 185.084 340.041 185.243 339.882C185.411 339.733 185.495 339.532 185.495 339.28V339.196C185.486 339.187 185.481 339.168 185.481 339.14V339.098L185.397 339.126C185.369 339.135 185.308 339.14 185.215 339.14C185.028 339.14 184.865 339.056 184.725 338.888C184.585 338.72 184.515 338.501 184.515 338.23ZM187.591 332.42C187.591 331.431 187.946 330.6 188.655 329.928C189.365 329.256 190.27 328.92 191.371 328.92C192.473 328.92 193.378 329.256 194.087 329.928C194.797 330.6 195.151 331.431 195.151 332.42C195.151 333.307 194.783 334.263 194.045 335.29C193.971 335.393 193.868 335.533 193.737 335.71C193.607 335.878 193.518 335.995 193.471 336.06L191.231 339H189.341L191.455 336.242L192.071 335.71V335.64C192.053 335.649 191.959 335.687 191.791 335.752C191.549 335.817 191.245 335.85 190.881 335.85C189.967 335.85 189.187 335.523 188.543 334.87C187.909 334.207 187.591 333.391 187.591 332.42ZM189.845 330.964C189.463 331.337 189.271 331.823 189.271 332.42C189.271 333.017 189.463 333.507 189.845 333.89C190.228 334.263 190.737 334.45 191.371 334.45C192.006 334.45 192.515 334.263 192.897 333.89C193.28 333.507 193.471 333.017 193.471 332.42C193.471 331.823 193.28 331.337 192.897 330.964C192.515 330.581 192.006 330.39 191.371 330.39C190.737 330.39 190.228 330.581 189.845 330.964ZM197.605 337.824C196.718 336.853 196.275 335.612 196.275 334.1C196.275 332.588 196.718 331.347 197.605 330.376C198.491 329.405 199.565 328.92 200.825 328.92C202.085 328.92 203.158 329.405 204.045 330.376C204.931 331.347 205.375 332.588 205.375 334.1C205.375 335.612 204.931 336.853 204.045 337.824C203.158 338.795 202.085 339.28 200.825 339.28C199.565 339.28 198.491 338.795 197.605 337.824ZM198.753 331.412C198.221 332.047 197.955 332.943 197.955 334.1C197.955 335.257 198.221 336.153 198.753 336.788C199.294 337.423 199.985 337.74 200.825 337.74C201.665 337.74 202.351 337.423 202.883 336.788C203.424 336.153 203.695 335.257 203.695 334.1C203.695 332.943 203.424 332.047 202.883 331.412C202.351 330.777 201.665 330.46 200.825 330.46C199.985 330.46 199.294 330.777 198.753 331.412Z" fill="#333333"/>
<path d="M253.49 414.78C253.49 414.332 253.588 413.865 253.784 413.38C253.989 412.885 254.185 412.498 254.372 412.218C254.568 411.929 254.834 411.569 255.17 411.14L257.41 408.2H259.3L257.186 410.958L256.57 411.49V411.56L256.85 411.462C257.13 411.387 257.433 411.35 257.76 411.35C258.675 411.35 259.449 411.681 260.084 412.344C260.728 412.997 261.05 413.809 261.05 414.78C261.05 415.769 260.695 416.6 259.986 417.272C259.277 417.944 258.371 418.28 257.27 418.28C256.169 418.28 255.263 417.944 254.554 417.272C253.845 416.6 253.49 415.769 253.49 414.78ZM255.744 413.324C255.361 413.697 255.17 414.183 255.17 414.78C255.17 415.377 255.361 415.867 255.744 416.25C256.127 416.623 256.635 416.81 257.27 416.81C257.905 416.81 258.413 416.623 258.796 416.25C259.179 415.867 259.37 415.377 259.37 414.78C259.37 414.183 259.179 413.697 258.796 413.324C258.413 412.941 257.905 412.75 257.27 412.75C256.635 412.75 256.127 412.941 255.744 413.324ZM262.173 417.23C262.173 416.95 262.262 416.717 262.439 416.53C262.626 416.343 262.855 416.25 263.125 416.25C263.433 416.25 263.676 416.362 263.853 416.586C264.04 416.81 264.133 417.141 264.133 417.58C264.133 418.299 263.961 418.849 263.615 419.232C263.279 419.624 262.822 419.82 262.243 419.82V419.12C262.523 419.12 262.743 419.041 262.901 418.882C263.069 418.733 263.153 418.532 263.153 418.28V418.196C263.144 418.187 263.139 418.168 263.139 418.14V418.098L263.055 418.126C263.027 418.135 262.967 418.14 262.873 418.14C262.687 418.14 262.523 418.056 262.383 417.888C262.243 417.72 262.173 417.501 262.173 417.23ZM265.249 415.27H266.929C267.004 415.559 267.13 415.807 267.307 416.012C267.718 416.497 268.315 416.74 269.099 416.74C269.725 416.74 270.219 416.572 270.583 416.236C270.947 415.9 271.129 415.461 271.129 414.92C271.129 414.351 270.947 413.893 270.583 413.548C270.219 413.203 269.725 413.03 269.099 413.03C268.521 413.03 268.031 413.184 267.629 413.492C267.471 413.613 267.331 413.763 267.209 413.94H265.669L266.089 408.2H272.039V409.74H267.419L267.209 412.26H267.279C267.429 412.111 267.601 411.985 267.797 411.882C268.236 411.621 268.763 411.49 269.379 411.49C270.359 411.49 271.176 411.817 271.829 412.47C272.483 413.123 272.809 413.94 272.809 414.92C272.809 415.881 272.464 416.684 271.773 417.328C271.092 417.963 270.201 418.28 269.099 418.28C267.662 418.28 266.593 417.781 265.893 416.782C265.595 416.343 265.38 415.839 265.249 415.27ZM273.863 415.27H275.543C275.617 415.559 275.743 415.807 275.921 416.012C276.331 416.497 276.929 416.74 277.713 416.74C278.338 416.74 278.833 416.572 279.197 416.236C279.561 415.9 279.743 415.461 279.743 414.92C279.743 414.351 279.561 413.893 279.197 413.548C278.833 413.203 278.338 413.03 277.713 413.03C277.134 413.03 276.644 413.184 276.243 413.492C276.084 413.613 275.944 413.763 275.823 413.94H274.283L274.703 408.2H280.653V409.74H276.033L275.823 412.26H275.893C276.042 412.111 276.215 411.985 276.411 411.882C276.849 411.621 277.377 411.49 277.993 411.49C278.973 411.49 279.789 411.817 280.443 412.47C281.096 413.123 281.423 413.94 281.423 414.92C281.423 415.881 281.077 416.684 280.387 417.328C279.705 417.963 278.814 418.28 277.713 418.28C276.275 418.28 275.207 417.781 274.507 416.782C274.208 416.343 273.993 415.839 273.863 415.27Z" fill="#333333"/>
<path d="M324.14 343.74V342.2H330.79V343.74L326.87 352H325.12L328.97 343.88V343.74H324.14ZM330.234 351.23C330.234 350.95 330.322 350.717 330.5 350.53C330.686 350.343 330.915 350.25 331.186 350.25C331.494 350.25 331.736 350.362 331.914 350.586C332.1 350.81 332.194 351.141 332.194 351.58C332.194 352.299 332.021 352.849 331.676 353.232C331.34 353.624 330.882 353.82 330.304 353.82V353.12C330.584 353.12 330.803 353.041 330.962 352.882C331.13 352.733 331.214 352.532 331.214 352.28V352.196C331.204 352.187 331.2 352.168 331.2 352.14V352.098L331.116 352.126C331.088 352.135 331.027 352.14 330.934 352.14C330.747 352.14 330.584 352.056 330.444 351.888C330.304 351.72 330.234 351.501 330.234 351.23ZM332.96 350.04V348.5L336.25 342.2H338L334.71 348.5H337.93V346.12H338H339.54V348.5H340.94V350.04H339.54V352H337.93V350.04H332.96ZM341.359 349.2H343.039C343.105 349.489 343.231 349.746 343.417 349.97C343.837 350.483 344.435 350.74 345.209 350.74C345.853 350.74 346.362 350.581 346.735 350.264C347.118 349.937 347.309 349.536 347.309 349.06C347.309 348.519 347.137 348.094 346.791 347.786C346.455 347.469 345.975 347.31 345.349 347.31H342.969V345.91L345.909 343.81V343.74H341.849V342.2H348.289V343.726L345.769 345.56L345.069 345.84V345.91L345.293 345.882C345.601 345.854 345.783 345.84 345.839 345.84C346.717 345.84 347.449 346.143 348.037 346.75C348.625 347.357 348.919 348.127 348.919 349.06C348.919 349.956 348.574 350.717 347.883 351.342C347.193 351.967 346.301 352.28 345.209 352.28C343.763 352.28 342.694 351.767 342.003 350.74C341.705 350.301 341.49 349.788 341.359 349.2Z" fill="#333333"/>
<circle cx="350.5" cy="95.5" r="39.5" fill="#5A5A5A"/>
<path d="M324.72 99.58C324.72 98.488 325.14 97.618 325.98 96.97C326.34 96.718 326.76 96.526 327.24 96.394V96.286C326.868 96.142 326.538 95.944 326.25 95.692C325.59 95.128 325.26 94.384 325.26 93.46C325.26 92.512 325.662 91.708 326.466 91.048C327.282 90.376 328.38 90.04 329.76 90.04C331.14 90.04 332.232 90.376 333.036 91.048C333.852 91.708 334.26 92.512 334.26 93.46C334.26 94.36 333.93 95.104 333.27 95.692C332.958 95.944 332.628 96.142 332.28 96.286V96.394C332.736 96.514 333.156 96.712 333.54 96.988C334.38 97.636 334.8 98.5 334.8 99.58C334.8 100.624 334.344 101.518 333.432 102.262C332.532 102.994 331.308 103.36 329.76 103.36C328.212 103.36 326.982 102.994 326.07 102.262C325.17 101.518 324.72 100.624 324.72 99.58ZM327.42 93.64C327.42 94.168 327.624 94.6 328.032 94.936C328.44 95.272 329.016 95.44 329.76 95.44C330.504 95.44 331.08 95.272 331.488 94.936C331.896 94.6 332.1 94.168 332.1 93.64C332.1 93.16 331.89 92.758 331.47 92.434C331.062 92.098 330.492 91.93 329.76 91.93C329.028 91.93 328.452 92.098 328.032 92.434C327.624 92.758 327.42 93.16 327.42 93.64ZM327.636 97.942C327.132 98.338 326.88 98.824 326.88 99.4C326.88 99.976 327.132 100.468 327.636 100.876C328.152 101.272 328.86 101.47 329.76 101.47C330.66 101.47 331.362 101.272 331.866 100.876C332.382 100.468 332.64 99.976 332.64 99.4C332.64 98.824 332.382 98.338 331.866 97.942C331.362 97.534 330.66 97.33 329.76 97.33C328.86 97.33 328.152 97.534 327.636 97.942ZM335.694 92.38V90.4H344.244V92.38L339.204 103H336.954L341.904 92.56V92.38H335.694ZM343.529 102.01C343.529 101.65 343.643 101.35 343.871 101.11C344.111 100.87 344.405 100.75 344.753 100.75C345.149 100.75 345.461 100.894 345.689 101.182C345.929 101.47 346.049 101.896 346.049 102.46C346.049 103.384 345.827 104.092 345.383 104.584C344.951 105.088 344.363 105.34 343.619 105.34V104.44C343.979 104.44 344.261 104.338 344.465 104.134C344.681 103.942 344.789 103.684 344.789 103.36V103.252C344.777 103.24 344.771 103.216 344.771 103.18V103.126L344.663 103.162C344.627 103.174 344.549 103.18 344.429 103.18C344.189 103.18 343.979 103.072 343.799 102.856C343.619 102.64 343.529 102.358 343.529 102.01ZM347.394 98.86C347.394 98.284 347.52 97.684 347.772 97.06C348.036 96.424 348.288 95.926 348.528 95.566C348.78 95.194 349.122 94.732 349.554 94.18L352.434 90.4H354.864L352.146 93.946L351.354 94.63V94.72L351.714 94.594C352.074 94.498 352.464 94.45 352.884 94.45C354.06 94.45 355.056 94.876 355.872 95.728C356.7 96.568 357.114 97.612 357.114 98.86C357.114 100.132 356.658 101.2 355.746 102.064C354.834 102.928 353.67 103.36 352.254 103.36C350.838 103.36 349.674 102.928 348.762 102.064C347.85 101.2 347.394 100.132 347.394 98.86ZM350.292 96.988C349.8 97.468 349.554 98.092 349.554 98.86C349.554 99.628 349.8 100.258 350.292 100.75C350.784 101.23 351.438 101.47 352.254 101.47C353.07 101.47 353.724 101.23 354.216 100.75C354.708 100.258 354.954 99.628 354.954 98.86C354.954 98.092 354.708 97.468 354.216 96.988C353.724 96.496 353.07 96.25 352.254 96.25C351.438 96.25 350.784 96.496 350.292 96.988ZM358.108 100.48V98.5L362.338 90.4H364.588L360.358 98.5H364.498V95.44H364.588H366.568V98.5H368.368V100.48H366.568V103H364.498V100.48H358.108Z" fill="white"/>
<line y1="-0.5" x2="30.0167" y2="-0.5" transform="matrix(-0.866186 -0.499722 -0.499722 0.866186 255 375)" stroke="#5A5A5A"/>
</svg>
