<svg width="494" height="554" viewBox="0 0 494 554" fill="none" xmlns="http://www.w3.org/2000/svg">
<path d="M158 474.213L411 474.213L411 131.213L158 131.213L158 474.213Z" fill="#FFF8BA"/>
<path d="M10 418.213L158 418.213L158 293.213H10L10 418.213Z" fill="#FFF8BA"/>
<path d="M212 148.213L402 148.213L275 23.2133L212 23.2133L212 148.213Z" fill="#FFF8BA"/>
<path d="M205 218.213V286.213L158 285.134V218.213H205Z" fill="#FFC79F"/>
<path d="M272 22.2133V123.85L213 123.213V22.2133H272Z" fill="#FFC79F"/>
<path d="M241.719 12.2133L312.88 83.3738L271.418 125.35L200 53.9326L241.719 12.2133Z" fill="#FFC79F"/>
<path d="M269.896 2.31689L333.444 65.8646L296.418 103.35L232.64 39.573L269.896 2.31689Z" fill="#FFC79F"/>
<rect width="30" height="77" transform="matrix(1 -8.74228e-08 -8.74228e-08 -1 412 504)" fill="#5A5A5A"/>
<rect width="30" height="47" transform="matrix(-4.37114e-08 1 1 4.37114e-08 389 474.213)" fill="#5A5A5A"/>
<rect width="30" height="73" transform="matrix(-4.37114e-08 1 1 4.37114e-08 253 474.213)" fill="#5A5A5A"/>
<rect width="30" height="68" transform="matrix(-4.37114e-08 1 1 4.37114e-08 128 474.213)" fill="#5A5A5A"/>
<rect width="30" height="68" transform="matrix(-1 -8.74228e-08 -8.74228e-08 1 158 436.213)" fill="#5A5A5A"/>
<rect width="30" height="68" transform="matrix(1.19249e-08 1 1 -1.19249e-08 84 418.213)" fill="#5A5A5A"/>
<rect width="30" height="30" transform="matrix(1.19249e-08 1 1 -1.19249e-08 0 418.213)" fill="#5A5A5A"/>
<rect width="30" height="98" transform="matrix(1 -8.74228e-08 -8.74228e-08 -1 412 343)" fill="#5A5A5A"/>
<rect width="25" height="88" transform="matrix(-4.37114e-08 1 1 4.37114e-08 200 0.213257)" fill="#5A5A5A"/>
<rect width="30" height="38" transform="matrix(1 -8.74228e-08 -8.74228e-08 -1 412 191.213)" fill="#5A5A5A"/>
<path d="M493.75 340.463L493.687 433.713L489.25 433.748L489.25 340.463L493.75 340.463Z" stroke="#5A5A5A" stroke-width="0.5" stroke-miterlimit="10"/>
<rect width="5" height="74" transform="matrix(-4.37114e-08 -1 -1 4.37114e-08 494 321.213)" fill="#5A5A5A"/>
<rect width="5" height="74" transform="matrix(-4.37114e-08 -1 -1 4.37114e-08 494 448.213)" fill="#5A5A5A"/>
<rect width="5" height="15" transform="matrix(-1 8.74228e-08 8.74228e-08 1 494 429.213)" fill="#5A5A5A"/>
<rect width="5" height="22" transform="matrix(-1 8.74228e-08 8.74228e-08 1 494 319)" fill="#5A5A5A"/>
<path d="M427.25 340.463L427.313 400.939L431.75 400.962L431.75 340.463L427.25 340.463Z" stroke="#5A5A5A" stroke-width="0.5" stroke-miterlimit="10"/>
<path d="M437.25 340.463L437.313 400.939L441.75 400.962L441.75 340.463L437.25 340.463Z" stroke="#5A5A5A" stroke-width="0.5" stroke-miterlimit="10"/>
<line x1="426.57" y1="429.468" x2="410.57" y2="402.468" stroke="#5A5A5A"/>
<rect width="30" height="216.493" transform="matrix(0.707107 -0.707107 -0.707107 -0.707107 420.87 174.297)" fill="#5A5A5A"/>
<rect width="16" height="148" transform="matrix(-1 8.74228e-08 8.74228e-08 1 312 334.213)" fill="#5A5A5A"/>
<rect width="16" height="148" transform="matrix(-1 8.74228e-08 8.74228e-08 1 158 334.213)" fill="#5A5A5A"/>
<rect width="16" height="146" transform="matrix(-1 8.74228e-08 8.74228e-08 1 16 280.213)" fill="#5A5A5A"/>
<rect width="16" height="205" transform="matrix(1.19249e-08 -1 -1 -1.19249e-08 213 296.213)" fill="#5A5A5A"/>
<rect width="16" height="54" transform="matrix(1.19249e-08 -1 -1 -1.19249e-08 312 296.213)" fill="#5A5A5A"/>
<rect width="16" height="54" transform="matrix(1 0 0 -1 258 296.213)" fill="#5A5A5A"/>
<rect width="16" height="74" transform="matrix(1 0 0 -1 258 199.213)" fill="#5A5A5A"/>
<rect width="16" height="106" transform="matrix(1 0 0 -1 200 131.213)" fill="#5A5A5A"/>
<rect width="15" height="20" transform="matrix(-4.37114e-08 1 1 4.37114e-08 142 116.213)" fill="#5A5A5A"/>
<rect width="15" height="20" transform="matrix(-4.37114e-08 1 1 4.37114e-08 196 116.213)" fill="#5A5A5A"/>
<rect width="16" height="184" transform="matrix(1 0 0 -1 142 300.213)" fill="#5A5A5A"/>
<rect width="16" height="20" transform="matrix(1 0 0 -1 296 300.213)" fill="#5A5A5A"/>
<path d="M150 211.213L150 219.213L213 219.213L213 211.213L150 211.213Z" fill="#5A5A5A"/>
<path d="M253 123.213L253 131.213L274 131.213L274 123.213L253 123.213Z" fill="#5A5A5A"/>
<path d="M205 123.213L205 131.213L226 131.213L226 123.213L205 123.213Z" fill="#5A5A5A"/>
<path d="M262.247 131.809L267.904 137.466L329.081 76.2887L323.425 70.6319L262.247 131.809Z" fill="#5A5A5A"/>
<path d="M213 211.213L205 211.213L205 237.213L213 237.213L213 211.213Z" fill="#5A5A5A"/>
<path d="M213 264.213L205 264.213L205 290.213L213 290.213L213 264.213Z" fill="#5A5A5A"/>
<path d="M296.25 474.25L399.708 474.402L399.749 485.75L296.25 485.75L296.25 474.25Z" stroke="#5A5A5A" stroke-width="0.5" stroke-miterlimit="10"/>
<path d="M10.25 418.25L113.708 418.402L113.749 429.75L10.25 429.75L10.25 418.25Z" stroke="#5A5A5A" stroke-width="0.5" stroke-miterlimit="10"/>
<path d="M441.75 174.463L441.598 282.92L430.25 282.962L430.25 174.463L441.75 174.463Z" stroke="#5A5A5A" stroke-width="0.5" stroke-miterlimit="10"/>
<path d="M296.25 492.25L399.708 492.402L399.749 503.75L296.25 503.75L296.25 492.25Z" stroke="#5A5A5A" stroke-width="0.5" stroke-miterlimit="10"/>
<path d="M10.25 436.25L113.708 436.402L113.749 447.75L10.25 447.75L10.25 436.25Z" stroke="#5A5A5A" stroke-width="0.5" stroke-miterlimit="10"/>
<path d="M423.75 174.463L423.598 282.92L412.25 282.962L412.25 174.463L423.75 174.463Z" stroke="#5A5A5A" stroke-width="0.5" stroke-miterlimit="10"/>
<path d="M266.75 553.75L185.282 553.687L185.252 549.25L266.75 549.25L266.75 553.75Z" stroke="#5A5A5A" stroke-width="0.5" stroke-miterlimit="10"/>
<rect width="5" height="74" transform="matrix(1 -8.74228e-08 -8.74228e-08 -1 273 554)" fill="#5A5A5A"/>
<rect width="5" height="74" transform="matrix(1 -8.74228e-08 -8.74228e-08 -1 174 554)" fill="#5A5A5A"/>
<rect width="5" height="8" transform="matrix(-1.31134e-07 -1 -1 1.31134e-07 186 554)" fill="#5A5A5A"/>
<rect width="5" height="12" transform="matrix(-1.31134e-07 -1 -1 1.31134e-07 278 554)" fill="#5A5A5A"/>
<path d="M284.75 487.25L224.274 487.313L224.251 491.75L284.75 491.75L284.75 487.25Z" stroke="#5A5A5A" stroke-width="0.5" stroke-miterlimit="10"/>
<path d="M284.75 497.25L224.274 497.313L224.251 501.75L284.75 501.75L284.75 497.25Z" stroke="#5A5A5A" stroke-width="0.5" stroke-miterlimit="10"/>
<line x1="198.745" y1="486.57" x2="225.745" y2="470.57" stroke="#5A5A5A"/>
<line x1="155.575" y1="337.951" x2="176.575" y2="303.951" stroke="#5A5A5A"/>
<line x1="258.745" y1="292.643" x2="231.745" y2="276.643" stroke="#5A5A5A"/>
<line x1="211.709" y1="292.806" x2="225.709" y2="282.806" stroke="#5A5A5A"/>
<line x1="210.567" y1="264.963" x2="225.567" y2="238.963" stroke="#5A5A5A"/>
<line x1="259.557" y1="244.445" x2="247.557" y2="221.445" stroke="#5A5A5A"/>
<line x1="260.439" y1="194.453" x2="248.439" y2="216.453" stroke="#5A5A5A"/>
<line x1="298.561" y1="337.453" x2="280.561" y2="304.453" stroke="#5A5A5A"/>
<line x1="199.746" y1="119.644" x2="165.746" y2="99.6442" stroke="#5A5A5A"/>
<rect x="274" y="185.213" width="2" height="11" transform="rotate(-90 274 185.213)" fill="#5A5A5A"/>
<rect x="325" y="185.213" width="2" height="11" transform="rotate(-90 325 185.213)" fill="#5A5A5A"/>
<rect x="308" y="185.213" width="2" height="11" transform="rotate(-90 308 185.213)" fill="#5A5A5A"/>
<rect x="291" y="185.213" width="2" height="11" transform="rotate(-90 291 185.213)" fill="#5A5A5A"/>
<rect x="342" y="185.213" width="2" height="11" transform="rotate(-90 342 185.213)" fill="#5A5A5A"/>
<rect x="359" y="185.213" width="2" height="11" transform="rotate(-90 359 185.213)" fill="#5A5A5A"/>
<rect x="376" y="185.213" width="2" height="11" transform="rotate(-90 376 185.213)" fill="#5A5A5A"/>
<rect x="393" y="185.213" width="2" height="11" transform="rotate(-90 393 185.213)" fill="#5A5A5A"/>
<path d="M292.2 113.131L309.875 130.805L292.674 148.005L275 130.331L292.2 113.131Z" fill="white" stroke="#5A5A5A" stroke-width="0.5"/>
<path d="M307.786 130.027L294.031 116.272C293.509 115.75 292.954 115.75 292.41 116.294L278.163 130.541C277.608 131.096 277.608 131.629 278.141 132.162L291.896 145.917C292.418 146.461 292.962 146.45 293.506 145.906L307.753 131.659C308.319 131.115 308.319 130.56 307.786 130.027Z" fill="white" stroke="#5A5A5A" stroke-width="0.5"/>
<path d="M301.924 133.359C300.647 134.614 298.615 134.647 297.383 133.415C296.14 132.172 296.173 130.14 297.439 128.874C298.716 127.597 300.737 127.575 301.98 128.818C303.223 130.061 303.201 132.082 301.924 133.359Z" stroke="#5A5A5A" stroke-width="0.5"/>
<path d="M295.096 140.144C293.819 141.399 291.787 141.433 290.555 140.2C289.311 138.957 289.345 136.925 290.611 135.659C291.888 134.382 293.908 134.36 295.152 135.603C296.406 136.836 296.384 138.879 295.096 140.144Z" stroke="#5A5A5A" stroke-width="0.5"/>
<path d="M288.722 133.771C287.445 135.048 285.425 135.07 284.181 133.827C282.938 132.583 282.971 130.551 284.237 129.286C285.514 128.031 287.546 127.997 288.778 129.23C290.011 130.462 289.988 132.505 288.722 133.771Z" stroke="#5A5A5A" stroke-width="0.5"/>
<path d="M295.529 126.964C294.252 128.241 292.231 128.264 290.988 127.02C289.745 125.777 289.778 123.745 291.044 122.479C292.321 121.224 294.353 121.191 295.585 122.423C296.817 123.655 296.795 125.698 295.529 126.964Z" stroke="#5A5A5A" stroke-width="0.5"/>
<path d="M309.371 95.9818L326.404 113.015L343.161 96.2572L326.118 79.2133L309.371 95.9818Z" fill="white" stroke="#5A5A5A" stroke-width="0.5"/>
<path d="M315.317 99.3781L324.733 108.795C325.258 109.319 325.773 109.319 326.308 108.784L338.759 96.3332C339.273 95.8189 339.284 95.2939 338.78 94.769L329.342 85.3526C328.839 84.8277 328.314 84.8384 327.789 85.3634L315.339 97.8139C314.792 98.3175 314.792 98.8532 315.317 99.3781Z" fill="white" stroke="#5A5A5A" stroke-width="0.5"/>
<path d="M318.971 88.9957C319.635 88.3528 320.653 88.3206 321.274 88.9419L325.752 94.3412L325.752 94.3626C326.127 94.7376 326.116 95.3482 325.72 95.7447C325.323 96.1411 324.712 96.1519 324.316 95.7769L318.917 91.2991C318.306 90.6885 318.328 89.66 318.971 88.9957Z" stroke="#5A5A5A" stroke-width="0.5"/>
<mask id="path-82-inside-1_35_8584" fill="white">
<path fill-rule="evenodd" clip-rule="evenodd" d="M320.429 88.5032L322.86 91.4492C323.225 91.8349 323.224 92.4563 322.807 92.8527C322.41 93.2491 321.81 93.2492 321.425 92.885L318.479 90.4532"/>
</mask>
<path fill-rule="evenodd" clip-rule="evenodd" d="M320.429 88.5032L322.86 91.4492C323.225 91.8349 323.224 92.4563 322.807 92.8527C322.41 93.2491 321.81 93.2492 321.425 92.885L318.479 90.4532" fill="white"/>
<path d="M322.86 91.4492L322.497 91.7925L322.485 91.7804L322.475 91.7675L322.86 91.4492ZM322.807 92.8527L322.453 92.499L322.462 92.49L322.807 92.8527ZM321.425 92.885L321.743 92.4994L321.756 92.51L321.768 92.5215L321.425 92.885ZM320.814 88.1849L323.246 91.1309L322.475 91.7675L320.043 88.8215L320.814 88.1849ZM323.224 91.1059C323.777 91.6914 323.769 92.6287 323.151 93.2154L322.462 92.49C322.68 92.2839 322.672 91.9784 322.497 91.7925L323.224 91.1059ZM323.16 93.2063C322.574 93.7927 321.665 93.7998 321.081 93.2485L321.768 92.5215C321.955 92.6986 322.247 92.7056 322.453 92.4991L323.16 93.2063ZM321.106 93.2706L318.16 90.8389L318.797 90.0676L321.743 92.4994L321.106 93.2706Z" fill="#5A5A5A" mask="url(#path-82-inside-1_35_8584)"/>
<path d="M216 26.5353L216 83.8912C216 84.6257 216.587 85.2133 217.321 85.2133L240.09 85.2133C240.824 85.2133 241.411 84.6257 241.411 83.8912L241.411 26.5353C241.411 25.8008 240.824 25.2133 240.09 25.2133L217.321 25.2133C216.587 25.2133 216 25.8142 216 26.5353Z" fill="white" stroke="#5A5A5A" stroke-width="0.5"/>
<path d="M225.618 81.6875L231.807 81.6875C235.395 81.6875 238.29 78.7763 238.29 75.1974L238.29 30.0338C238.29 29.1525 237.583 28.4447 236.702 28.4447L220.696 28.4447C219.815 28.4447 219.108 29.1525 219.108 30.0338L219.108 75.1841C219.122 78.7763 222.029 81.6875 225.618 81.6875Z" fill="white" stroke="#5A5A5A" stroke-width="0.5"/>
<path d="M228.258 33.7998C227.544 33.7998 226.965 33.196 226.965 32.4511C226.965 31.7063 227.544 31.1024 228.258 31.1024C228.973 31.1024 229.552 31.7063 229.552 32.4511C229.552 33.196 228.973 33.7998 228.258 33.7998Z" fill="white" stroke="#5A5A5A" stroke-width="0.5"/>
<path d="M291.374 71.8449L292.205 71.0059L294.403 68.869L299.819 63.5491L292.841 56.4459L284.396 64.7416C282.244 66.8558 282.062 70.1798 283.99 72.1426C285.895 74.0819 289.222 73.959 291.374 71.8449Z" fill="white" stroke="#5A5A5A" stroke-width="0.5"/>
<path d="M290.617 70.9812L291.284 70.3263L296.676 65.0294L291.293 59.5502L285.901 64.847L285.246 65.5136C283.55 67.1796 283.363 69.7505 284.855 71.2693C286.348 72.7649 288.933 72.6358 290.617 70.9812Z" fill="white" stroke="#5A5A5A" stroke-width="0.5"/>
<path d="M296.117 50.7027L292.362 54.391C291.929 54.8161 291.923 55.5113 292.347 55.9435L300.255 63.9931C300.68 64.4254 301.375 64.4312 301.808 64.0061L305.562 60.3178C305.995 59.8926 306.001 59.1975 305.577 58.7652L297.681 50.7273C297.245 50.2833 296.549 50.2776 296.117 50.7027Z" fill="white" stroke="#5A5A5A" stroke-width="0.5"/>
<path d="M298.514 56.8872C298.222 57.1744 298.206 57.603 298.447 57.8483C298.688 58.1168 299.128 58.0973 299.421 57.8101C299.713 57.5229 299.729 57.0943 299.488 56.849C299.212 56.5917 298.783 56.5998 298.514 56.8872Z" fill="white" stroke="#5A5A5A" stroke-width="0.5"/>
<path d="M273.792 29.3024L265.089 38.0055C264.484 38.6106 264.483 39.5782 265.088 40.1826L278.183 53.2778C278.787 53.8821 279.755 53.8816 280.36 53.2765L289.063 44.5734C289.668 43.9683 289.669 43.0007 289.064 42.3964L275.969 29.3012C275.375 28.7069 274.397 28.6973 273.792 29.3024Z" fill="white" stroke="#5A5A5A" stroke-width="0.5"/>
<path d="M271.834 33.9801L270.493 35.3214C268.728 37.0862 268.727 39.9486 270.49 41.7114L276.654 47.8762C278.417 49.639 281.28 49.6374 283.044 47.8726L284.386 46.5313C286.15 44.7665 286.152 41.9041 284.389 40.1413L278.225 33.9765C276.462 32.2137 273.599 32.2153 271.834 33.9801Z" fill="white" stroke="#5A5A5A" stroke-width="0.5"/>
<path d="M278.927 38.088C278.543 38.4723 278.533 39.0859 278.906 39.4587C279.279 39.8314 279.893 39.822 280.277 39.4377C280.661 39.0535 280.671 38.4398 280.298 38.0671C279.925 37.6944 279.311 37.7037 278.927 38.088Z" fill="white" stroke="#5A5A5A" stroke-width="0.5"/>
<path d="M177.298 255.933L176.118 255.949L173.052 255.933L165.46 255.933L165.46 265.89L177.298 265.89C180.315 265.89 182.774 263.647 182.774 260.895C182.774 258.177 180.315 255.933 177.298 255.933Z" fill="white" stroke="#5A5A5A" stroke-width="0.5"/>
<path d="M177.233 257.079L176.298 257.079L168.74 257.079L168.74 264.76L176.298 264.76L177.233 264.744C179.61 264.744 181.545 263.04 181.545 260.911C181.529 258.799 179.594 257.079 177.233 257.079Z" fill="white" stroke="#5A5A5A" stroke-width="0.5"/>
<path d="M159.099 267.692L164.362 267.692C164.969 267.692 165.46 267.2 165.46 266.594L165.46 255.311C165.46 254.705 164.969 254.213 164.362 254.213L159.099 254.213C158.492 254.213 158 254.705 158 255.311L158 266.578C158 267.2 158.492 267.692 159.099 267.692Z" fill="white" stroke="#5A5A5A" stroke-width="0.5"/>
<path d="M161.722 261.599C162.132 261.599 162.444 261.305 162.444 260.961C162.46 260.6 162.132 260.306 161.722 260.306C161.313 260.306 161.001 260.6 161.001 260.944C161.017 261.321 161.329 261.616 161.722 261.599Z" fill="white" stroke="#5A5A5A" stroke-width="0.5"/>
<path d="M173 220.754L173 233.062C173 233.917 173.684 234.602 174.539 234.602L193.058 234.602C193.913 234.602 194.597 233.917 194.597 233.062L194.597 220.754C194.597 219.898 193.913 219.213 193.058 219.213L174.539 219.213C173.698 219.213 173 219.898 173 220.754Z" fill="white" stroke="#5A5A5A" stroke-width="0.5"/>
<path d="M174.923 225.446L174.923 227.342C174.923 229.838 176.946 231.863 179.439 231.863L188.157 231.863C190.65 231.863 192.673 229.838 192.673 227.342L192.673 225.446C192.673 222.95 190.65 220.925 188.157 220.925L179.439 220.925C176.946 220.925 174.923 222.95 174.923 225.446Z" fill="white" stroke="#5A5A5A" stroke-width="0.5"/>
<path d="M182.844 223.335C182.844 223.878 183.271 224.319 183.798 224.319C184.325 224.319 184.752 223.878 184.752 223.335C184.752 222.791 184.325 222.351 183.798 222.351C183.271 222.351 182.844 222.791 182.844 223.335Z" fill="white" stroke="#5A5A5A" stroke-width="0.5"/>
<path d="M221.35 401.633V399.813L223.17 398.413H224.64V408.213H223.03V400.373L221.35 401.633ZM226.181 401.633C226.181 400.644 226.536 399.813 227.245 399.141C227.954 398.469 228.86 398.133 229.961 398.133C231.062 398.133 231.968 398.469 232.677 399.141C233.386 399.813 233.741 400.644 233.741 401.633C233.741 402.52 233.372 403.477 232.635 404.503C232.56 404.606 232.458 404.746 232.327 404.923C232.196 405.091 232.108 405.208 232.061 405.273L229.821 408.213H227.931L230.045 405.455L230.661 404.923V404.853C230.642 404.863 230.549 404.9 230.381 404.965C230.138 405.031 229.835 405.063 229.471 405.063C228.556 405.063 227.777 404.737 227.133 404.083C226.498 403.421 226.181 402.604 226.181 401.633ZM228.435 400.177C228.052 400.551 227.861 401.036 227.861 401.633C227.861 402.231 228.052 402.721 228.435 403.103C228.818 403.477 229.326 403.663 229.961 403.663C230.596 403.663 231.104 403.477 231.487 403.103C231.87 402.721 232.061 402.231 232.061 401.633C232.061 401.036 231.87 400.551 231.487 400.177C231.104 399.795 230.596 399.603 229.961 399.603C229.326 399.603 228.818 399.795 228.435 400.177ZM234.794 407.443C234.794 407.163 234.883 406.93 235.06 406.743C235.247 406.557 235.476 406.463 235.746 406.463C236.054 406.463 236.297 406.575 236.474 406.799C236.661 407.023 236.754 407.355 236.754 407.793C236.754 408.512 236.582 409.063 236.236 409.445C235.9 409.837 235.443 410.033 234.864 410.033V409.333C235.144 409.333 235.364 409.254 235.522 409.095C235.69 408.946 235.774 408.745 235.774 408.493V408.409C235.765 408.4 235.76 408.381 235.76 408.353V408.311L235.676 408.339C235.648 408.349 235.588 408.353 235.494 408.353C235.308 408.353 235.144 408.269 235.004 408.101C234.864 407.933 234.794 407.714 234.794 407.443ZM237.871 405.483H239.551C239.625 405.773 239.751 406.02 239.929 406.225C240.339 406.711 240.937 406.953 241.721 406.953C242.346 406.953 242.841 406.785 243.205 406.449C243.569 406.113 243.751 405.675 243.751 405.133C243.751 404.564 243.569 404.107 243.205 403.761C242.841 403.416 242.346 403.243 241.721 403.243C241.142 403.243 240.652 403.397 240.251 403.705C240.092 403.827 239.952 403.976 239.831 404.153H238.291L238.711 398.413H244.661V399.953H240.041L239.831 402.473H239.901C240.05 402.324 240.223 402.198 240.419 402.095C240.857 401.834 241.385 401.703 242.001 401.703C242.981 401.703 243.797 402.03 244.451 402.683C245.104 403.337 245.431 404.153 245.431 405.133C245.431 406.095 245.085 406.897 244.395 407.541C243.713 408.176 242.822 408.493 241.721 408.493C240.283 408.493 239.215 407.994 238.515 406.995C238.216 406.557 238.001 406.053 237.871 405.483ZM246.134 406.253V404.713L249.424 398.413H251.174L247.884 404.713H251.104V402.333H251.174H252.714V404.713H254.114V406.253H252.714V408.213H251.104V406.253H246.134Z" fill="#333333"/>
<path d="M198.42 532.2H200.1C200.165 532.489 200.291 532.746 200.478 532.97C200.898 533.483 201.495 533.74 202.27 533.74C202.914 533.74 203.423 533.581 203.796 533.264C204.179 532.937 204.37 532.536 204.37 532.06C204.37 531.519 204.197 531.094 203.852 530.786C203.516 530.469 203.035 530.31 202.41 530.31H200.03V528.91L202.97 526.81V526.74H198.91V525.2H205.35V526.726L202.83 528.56L202.13 528.84V528.91L202.354 528.882C202.662 528.854 202.844 528.84 202.9 528.84C203.777 528.84 204.51 529.143 205.098 529.75C205.686 530.357 205.98 531.127 205.98 532.06C205.98 532.956 205.635 533.717 204.944 534.342C204.253 534.967 203.362 535.28 202.27 535.28C200.823 535.28 199.755 534.767 199.064 533.74C198.765 533.301 198.551 532.788 198.42 532.2ZM207.037 534.23C207.037 533.95 207.125 533.717 207.303 533.53C207.489 533.343 207.718 533.25 207.989 533.25C208.297 533.25 208.539 533.362 208.717 533.586C208.903 533.81 208.997 534.141 208.997 534.58C208.997 535.299 208.824 535.849 208.479 536.232C208.143 536.624 207.685 536.82 207.107 536.82V536.12C207.387 536.12 207.606 536.041 207.765 535.882C207.933 535.733 208.017 535.532 208.017 535.28V535.196C208.007 535.187 208.003 535.168 208.003 535.14V535.098L207.919 535.126C207.891 535.135 207.83 535.14 207.737 535.14C207.55 535.14 207.387 535.056 207.247 534.888C207.107 534.72 207.037 534.501 207.037 534.23ZM210.043 531.78C210.043 531.332 210.141 530.865 210.337 530.38C210.542 529.885 210.738 529.498 210.925 529.218C211.121 528.929 211.387 528.569 211.723 528.14L213.963 525.2H215.853L213.739 527.958L213.123 528.49V528.56L213.403 528.462C213.683 528.387 213.986 528.35 214.313 528.35C215.227 528.35 216.002 528.681 216.637 529.344C217.281 529.997 217.603 530.809 217.603 531.78C217.603 532.769 217.248 533.6 216.539 534.272C215.829 534.944 214.924 535.28 213.823 535.28C212.721 535.28 211.816 534.944 211.107 534.272C210.397 533.6 210.043 532.769 210.043 531.78ZM212.297 530.324C211.914 530.697 211.723 531.183 211.723 531.78C211.723 532.377 211.914 532.867 212.297 533.25C212.679 533.623 213.188 533.81 213.823 533.81C214.457 533.81 214.966 533.623 215.349 533.25C215.731 532.867 215.923 532.377 215.923 531.78C215.923 531.183 215.731 530.697 215.349 530.324C214.966 529.941 214.457 529.75 213.823 529.75C213.188 529.75 212.679 529.941 212.297 530.324ZM218.656 531.78C218.656 531.332 218.754 530.865 218.95 530.38C219.155 529.885 219.351 529.498 219.538 529.218C219.734 528.929 220 528.569 220.336 528.14L222.576 525.2H224.466L222.352 527.958L221.736 528.49V528.56L222.016 528.462C222.296 528.387 222.599 528.35 222.926 528.35C223.841 528.35 224.615 528.681 225.25 529.344C225.894 529.997 226.216 530.809 226.216 531.78C226.216 532.769 225.861 533.6 225.152 534.272C224.443 534.944 223.537 535.28 222.436 535.28C221.335 535.28 220.429 534.944 219.72 534.272C219.011 533.6 218.656 532.769 218.656 531.78ZM220.91 530.324C220.527 530.697 220.336 531.183 220.336 531.78C220.336 532.377 220.527 532.867 220.91 533.25C221.293 533.623 221.801 533.81 222.436 533.81C223.071 533.81 223.579 533.623 223.962 533.25C224.345 532.867 224.536 532.377 224.536 531.78C224.536 531.183 224.345 530.697 223.962 530.324C223.579 529.941 223.071 529.75 222.436 529.75C221.801 529.75 221.293 529.941 220.91 530.324Z" fill="#333333"/>
<path d="M347.42 420.213V418.673L350.766 416.307C351.494 415.785 352.017 415.299 352.334 414.851C352.651 414.403 352.81 413.927 352.81 413.423C352.81 412.891 352.647 412.467 352.32 412.149C351.993 411.832 351.55 411.673 350.99 411.673C350.299 411.673 349.781 411.953 349.436 412.513C349.287 412.756 349.175 413.036 349.1 413.353H347.42C347.504 412.756 347.686 412.219 347.966 411.743C348.629 410.67 349.637 410.133 350.99 410.133C352.026 410.133 352.866 410.441 353.51 411.057C354.163 411.664 354.49 412.429 354.49 413.353C354.49 414.156 354.285 414.879 353.874 415.523C353.463 416.158 352.805 416.788 351.9 417.413L350.5 418.393L349.87 418.673V418.743L350.71 418.673H354.49V420.213H347.42ZM355.613 417.483H357.293C357.367 417.773 357.493 418.02 357.671 418.225C358.081 418.711 358.679 418.953 359.463 418.953C360.088 418.953 360.583 418.785 360.947 418.449C361.311 418.113 361.493 417.675 361.493 417.133C361.493 416.564 361.311 416.107 360.947 415.761C360.583 415.416 360.088 415.243 359.463 415.243C358.884 415.243 358.394 415.397 357.993 415.705C357.834 415.827 357.694 415.976 357.573 416.153H356.033L356.453 410.413H362.403V411.953H357.783L357.573 414.473H357.643C357.792 414.324 357.965 414.198 358.161 414.095C358.599 413.834 359.127 413.703 359.743 413.703C360.723 413.703 361.539 414.03 362.193 414.683C362.846 415.337 363.173 416.153 363.173 417.133C363.173 418.095 362.827 418.897 362.137 419.541C361.455 420.176 360.564 420.493 359.463 420.493C358.025 420.493 356.957 419.994 356.257 418.995C355.958 418.557 355.743 418.053 355.613 417.483ZM364.226 419.443C364.226 419.163 364.315 418.93 364.492 418.743C364.679 418.557 364.907 418.463 365.178 418.463C365.486 418.463 365.729 418.575 365.906 418.799C366.093 419.023 366.186 419.355 366.186 419.793C366.186 420.512 366.013 421.063 365.668 421.445C365.332 421.837 364.875 422.033 364.296 422.033V421.333C364.576 421.333 364.795 421.254 364.954 421.095C365.122 420.946 365.206 420.745 365.206 420.493V420.409C365.197 420.4 365.192 420.381 365.192 420.353V420.311L365.108 420.339C365.08 420.349 365.019 420.353 364.926 420.353C364.739 420.353 364.576 420.269 364.436 420.101C364.296 419.933 364.226 419.714 364.226 419.443ZM367.302 417.553C367.302 416.704 367.629 416.027 368.282 415.523C368.562 415.327 368.889 415.178 369.262 415.075V414.991C368.973 414.879 368.716 414.725 368.492 414.529C367.979 414.091 367.722 413.512 367.722 412.793C367.722 412.056 368.035 411.431 368.66 410.917C369.295 410.395 370.149 410.133 371.222 410.133C372.296 410.133 373.145 410.395 373.77 410.917C374.405 411.431 374.722 412.056 374.722 412.793C374.722 413.493 374.466 414.072 373.952 414.529C373.71 414.725 373.453 414.879 373.182 414.991V415.075C373.537 415.169 373.864 415.323 374.162 415.537C374.816 416.041 375.142 416.713 375.142 417.553C375.142 418.365 374.788 419.061 374.078 419.639C373.378 420.209 372.426 420.493 371.222 420.493C370.018 420.493 369.062 420.209 368.352 419.639C367.652 419.061 367.302 418.365 367.302 417.553ZM369.402 412.933C369.402 413.344 369.561 413.68 369.878 413.941C370.196 414.203 370.644 414.333 371.222 414.333C371.801 414.333 372.249 414.203 372.566 413.941C372.884 413.68 373.042 413.344 373.042 412.933C373.042 412.56 372.879 412.247 372.552 411.995C372.235 411.734 371.792 411.603 371.222 411.603C370.653 411.603 370.205 411.734 369.878 411.995C369.561 412.247 369.402 412.56 369.402 412.933ZM369.57 416.279C369.178 416.587 368.982 416.965 368.982 417.413C368.982 417.861 369.178 418.244 369.57 418.561C369.972 418.869 370.522 419.023 371.222 419.023C371.922 419.023 372.468 418.869 372.86 418.561C373.262 418.244 373.462 417.861 373.462 417.413C373.462 416.965 373.262 416.587 372.86 416.279C372.468 415.962 371.922 415.803 371.222 415.803C370.522 415.803 369.972 415.962 369.57 416.279ZM376.257 417.553C376.257 416.704 376.584 416.027 377.237 415.523C377.517 415.327 377.844 415.178 378.217 415.075V414.991C377.928 414.879 377.671 414.725 377.447 414.529C376.934 414.091 376.677 413.512 376.677 412.793C376.677 412.056 376.99 411.431 377.615 410.917C378.25 410.395 379.104 410.133 380.177 410.133C381.251 410.133 382.1 410.395 382.725 410.917C383.36 411.431 383.677 412.056 383.677 412.793C383.677 413.493 383.421 414.072 382.907 414.529C382.665 414.725 382.408 414.879 382.137 414.991V415.075C382.492 415.169 382.819 415.323 383.117 415.537C383.771 416.041 384.097 416.713 384.097 417.553C384.097 418.365 383.743 419.061 383.033 419.639C382.333 420.209 381.381 420.493 380.177 420.493C378.973 420.493 378.017 420.209 377.307 419.639C376.607 419.061 376.257 418.365 376.257 417.553ZM378.357 412.933C378.357 413.344 378.516 413.68 378.833 413.941C379.151 414.203 379.599 414.333 380.177 414.333C380.756 414.333 381.204 414.203 381.521 413.941C381.839 413.68 381.997 413.344 381.997 412.933C381.997 412.56 381.834 412.247 381.507 411.995C381.19 411.734 380.747 411.603 380.177 411.603C379.608 411.603 379.16 411.734 378.833 411.995C378.516 412.247 378.357 412.56 378.357 412.933ZM378.525 416.279C378.133 416.587 377.937 416.965 377.937 417.413C377.937 417.861 378.133 418.244 378.525 418.561C378.927 418.869 379.477 419.023 380.177 419.023C380.877 419.023 381.423 418.869 381.815 418.561C382.217 418.244 382.417 417.861 382.417 417.413C382.417 416.965 382.217 416.587 381.815 416.279C381.423 415.962 380.877 415.803 380.177 415.803C379.477 415.803 378.927 415.962 378.525 416.279Z" fill="#333333"/>
<path d="M452.21 382.04V380.5L455.5 374.2H457.25L453.96 380.5H457.18V378.12H457.25H458.79V380.5H460.19V382.04H458.79V384H457.18V382.04H452.21ZM460.749 383.23C460.749 382.95 460.838 382.717 461.015 382.53C461.202 382.343 461.431 382.25 461.701 382.25C462.009 382.25 462.252 382.362 462.429 382.586C462.616 382.81 462.709 383.141 462.709 383.58C462.709 384.299 462.537 384.849 462.191 385.232C461.855 385.624 461.398 385.82 460.819 385.82V385.12C461.099 385.12 461.319 385.041 461.477 384.882C461.645 384.733 461.729 384.532 461.729 384.28V384.196C461.72 384.187 461.715 384.168 461.715 384.14V384.098L461.631 384.126C461.603 384.135 461.543 384.14 461.449 384.14C461.263 384.14 461.099 384.056 460.959 383.888C460.819 383.72 460.749 383.501 460.749 383.23ZM463.406 375.74V374.2H470.056V375.74L466.136 384H464.386L468.236 375.88V375.74H463.406ZM470.551 380.78C470.551 380.332 470.649 379.865 470.845 379.38C471.05 378.885 471.246 378.498 471.433 378.218C471.629 377.929 471.895 377.569 472.231 377.14L474.471 374.2H476.361L474.247 376.958L473.631 377.49V377.56L473.911 377.462C474.191 377.387 474.494 377.35 474.821 377.35C475.735 377.35 476.51 377.681 477.145 378.344C477.789 378.997 478.111 379.809 478.111 380.78C478.111 381.769 477.756 382.6 477.047 383.272C476.337 383.944 475.432 384.28 474.331 384.28C473.229 384.28 472.324 383.944 471.615 383.272C470.905 382.6 470.551 381.769 470.551 380.78ZM472.805 379.324C472.422 379.697 472.231 380.183 472.231 380.78C472.231 381.377 472.422 381.867 472.805 382.25C473.187 382.623 473.696 382.81 474.331 382.81C474.965 382.81 475.474 382.623 475.857 382.25C476.239 381.867 476.431 381.377 476.431 380.78C476.431 380.183 476.239 379.697 475.857 379.324C475.474 378.941 474.965 378.75 474.331 378.75C473.696 378.75 473.187 378.941 472.805 379.324Z" fill="#333333"/>
<path d="M64.35 359.633V357.813L66.17 356.413H67.64V366.213H66.03V358.373L64.35 359.633ZM69.0411 366.213V364.673L72.3871 362.307C73.1151 361.785 73.6378 361.299 73.9551 360.851C74.2724 360.403 74.4311 359.927 74.4311 359.423C74.4311 358.891 74.2678 358.467 73.9411 358.149C73.6144 357.832 73.1711 357.673 72.6111 357.673C71.9204 357.673 71.4024 357.953 71.0571 358.513C70.9078 358.756 70.7958 359.036 70.7211 359.353H69.0411C69.1251 358.756 69.3071 358.219 69.5871 357.743C70.2498 356.67 71.2578 356.133 72.6111 356.133C73.6471 356.133 74.4871 356.441 75.1311 357.057C75.7844 357.664 76.1111 358.429 76.1111 359.353C76.1111 360.156 75.9058 360.879 75.4951 361.523C75.0844 362.158 74.4264 362.788 73.5211 363.413L72.1211 364.393L71.4911 364.673V364.743L72.3311 364.673H76.1111V366.213H69.0411ZM77.2338 365.443C77.2338 365.163 77.3225 364.93 77.4998 364.743C77.6865 364.557 77.9152 364.463 78.1858 364.463C78.4938 364.463 78.7365 364.575 78.9138 364.799C79.1005 365.023 79.1938 365.355 79.1938 365.793C79.1938 366.512 79.0212 367.063 78.6758 367.445C78.3398 367.837 77.8825 368.033 77.3038 368.033V367.333C77.5838 367.333 77.8032 367.254 77.9618 367.095C78.1298 366.946 78.2138 366.745 78.2138 366.493V366.409C78.2045 366.4 78.1998 366.381 78.1998 366.353V366.311L78.1158 366.339C78.0878 366.349 78.0272 366.353 77.9338 366.353C77.7472 366.353 77.5838 366.269 77.4438 366.101C77.3038 365.933 77.2338 365.714 77.2338 365.443ZM80.24 362.993C80.24 362.545 80.338 362.079 80.534 361.593C80.7393 361.099 80.9353 360.711 81.122 360.431C81.318 360.142 81.584 359.783 81.92 359.353L84.16 356.413H86.05L83.936 359.171L83.32 359.703V359.773L83.6 359.675C83.88 359.601 84.1833 359.563 84.51 359.563C85.4247 359.563 86.1993 359.895 86.834 360.557C87.478 361.211 87.8 362.023 87.8 362.993C87.8 363.983 87.4453 364.813 86.736 365.485C86.0267 366.157 85.1213 366.493 84.02 366.493C82.9187 366.493 82.0133 366.157 81.304 365.485C80.5947 364.813 80.24 363.983 80.24 362.993ZM82.494 361.537C82.1113 361.911 81.92 362.396 81.92 362.993C81.92 363.591 82.1113 364.081 82.494 364.463C82.8767 364.837 83.3853 365.023 84.02 365.023C84.6547 365.023 85.1633 364.837 85.546 364.463C85.9287 364.081 86.12 363.591 86.12 362.993C86.12 362.396 85.9287 361.911 85.546 361.537C85.1633 361.155 84.6547 360.963 84.02 360.963C83.3853 360.963 82.8767 361.155 82.494 361.537ZM87.806 357.953V356.413H94.456V357.953L90.536 366.213H88.786L92.636 358.093V357.953H87.806Z" fill="#333333"/>
<path d="M174.42 250.213V248.673L177.766 246.307C178.494 245.785 179.017 245.299 179.334 244.851C179.651 244.403 179.81 243.927 179.81 243.423C179.81 242.891 179.647 242.467 179.32 242.149C178.993 241.832 178.55 241.673 177.99 241.673C177.299 241.673 176.781 241.953 176.436 242.513C176.287 242.756 176.175 243.036 176.1 243.353H174.42C174.504 242.756 174.686 242.219 174.966 241.743C175.629 240.67 176.637 240.133 177.99 240.133C179.026 240.133 179.866 240.441 180.51 241.057C181.163 241.664 181.49 242.429 181.49 243.353C181.49 244.156 181.285 244.879 180.874 245.523C180.463 246.158 179.805 246.788 178.9 247.413L177.5 248.393L176.87 248.673V248.743L177.71 248.673H181.49V250.213H174.42ZM182.613 249.443C182.613 249.163 182.701 248.93 182.879 248.743C183.065 248.557 183.294 248.463 183.565 248.463C183.873 248.463 184.115 248.575 184.293 248.799C184.479 249.023 184.573 249.355 184.573 249.793C184.573 250.512 184.4 251.063 184.055 251.445C183.719 251.837 183.261 252.033 182.683 252.033V251.333C182.963 251.333 183.182 251.254 183.341 251.095C183.509 250.946 183.593 250.745 183.593 250.493V250.409C183.583 250.4 183.579 250.381 183.579 250.353V250.311L183.495 250.339C183.467 250.349 183.406 250.353 183.313 250.353C183.126 250.353 182.963 250.269 182.823 250.101C182.683 249.933 182.613 249.714 182.613 249.443ZM185.339 248.253V246.713L188.629 240.413H190.379L187.089 246.713H190.309V244.333H190.379H191.919V246.713H193.319V248.253H191.919V250.213H190.309V248.253H185.339ZM195.278 249.037C194.392 248.067 193.948 246.825 193.948 245.313C193.948 243.801 194.392 242.56 195.278 241.589C196.165 240.619 197.238 240.133 198.498 240.133C199.758 240.133 200.832 240.619 201.718 241.589C202.605 242.56 203.048 243.801 203.048 245.313C203.048 246.825 202.605 248.067 201.718 249.037C200.832 250.008 199.758 250.493 198.498 250.493C197.238 250.493 196.165 250.008 195.278 249.037ZM196.426 242.625C195.894 243.26 195.628 244.156 195.628 245.313C195.628 246.471 195.894 247.367 196.426 248.001C196.968 248.636 197.658 248.953 198.498 248.953C199.338 248.953 200.024 248.636 200.556 248.001C201.098 247.367 201.368 246.471 201.368 245.313C201.368 244.156 201.098 243.26 200.556 242.625C200.024 241.991 199.338 241.673 198.498 241.673C197.658 241.673 196.968 241.991 196.426 242.625Z" fill="#333333"/>
<path d="M175.56 170.553C175.56 169.704 175.887 169.027 176.54 168.523C176.82 168.327 177.147 168.178 177.52 168.075V167.991C177.231 167.879 176.974 167.725 176.75 167.529C176.237 167.091 175.98 166.512 175.98 165.793C175.98 165.056 176.293 164.431 176.918 163.917C177.553 163.395 178.407 163.133 179.48 163.133C180.553 163.133 181.403 163.395 182.028 163.917C182.663 164.431 182.98 165.056 182.98 165.793C182.98 166.493 182.723 167.072 182.21 167.529C181.967 167.725 181.711 167.879 181.44 167.991V168.075C181.795 168.169 182.121 168.323 182.42 168.537C183.073 169.041 183.4 169.713 183.4 170.553C183.4 171.365 183.045 172.061 182.336 172.639C181.636 173.209 180.684 173.493 179.48 173.493C178.276 173.493 177.319 173.209 176.61 172.639C175.91 172.061 175.56 171.365 175.56 170.553ZM177.66 165.933C177.66 166.344 177.819 166.68 178.136 166.941C178.453 167.203 178.901 167.333 179.48 167.333C180.059 167.333 180.507 167.203 180.824 166.941C181.141 166.68 181.3 166.344 181.3 165.933C181.3 165.56 181.137 165.247 180.81 164.995C180.493 164.734 180.049 164.603 179.48 164.603C178.911 164.603 178.463 164.734 178.136 164.995C177.819 165.247 177.66 165.56 177.66 165.933ZM177.828 169.279C177.436 169.587 177.24 169.965 177.24 170.413C177.24 170.861 177.436 171.244 177.828 171.561C178.229 171.869 178.78 172.023 179.48 172.023C180.18 172.023 180.726 171.869 181.118 171.561C181.519 171.244 181.72 170.861 181.72 170.413C181.72 169.965 181.519 169.587 181.118 169.279C180.726 168.962 180.18 168.803 179.48 168.803C178.78 168.803 178.229 168.962 177.828 169.279ZM184.515 172.443C184.515 172.163 184.604 171.93 184.781 171.743C184.968 171.557 185.196 171.463 185.467 171.463C185.775 171.463 186.018 171.575 186.195 171.799C186.382 172.023 186.475 172.355 186.475 172.793C186.475 173.512 186.302 174.063 185.957 174.445C185.621 174.837 185.164 175.033 184.585 175.033V174.333C184.865 174.333 185.084 174.254 185.243 174.095C185.411 173.946 185.495 173.745 185.495 173.493V173.409C185.486 173.4 185.481 173.381 185.481 173.353V173.311L185.397 173.339C185.369 173.349 185.308 173.353 185.215 173.353C185.028 173.353 184.865 173.269 184.725 173.101C184.585 172.933 184.515 172.714 184.515 172.443ZM187.591 166.633C187.591 165.644 187.946 164.813 188.655 164.141C189.365 163.469 190.27 163.133 191.371 163.133C192.473 163.133 193.378 163.469 194.087 164.141C194.797 164.813 195.151 165.644 195.151 166.633C195.151 167.52 194.783 168.477 194.045 169.503C193.971 169.606 193.868 169.746 193.737 169.923C193.607 170.091 193.518 170.208 193.471 170.273L191.231 173.213H189.341L191.455 170.455L192.071 169.923V169.853C192.053 169.863 191.959 169.9 191.791 169.965C191.549 170.031 191.245 170.063 190.881 170.063C189.967 170.063 189.187 169.737 188.543 169.083C187.909 168.421 187.591 167.604 187.591 166.633ZM189.845 165.177C189.463 165.551 189.271 166.036 189.271 166.633C189.271 167.231 189.463 167.721 189.845 168.103C190.228 168.477 190.737 168.663 191.371 168.663C192.006 168.663 192.515 168.477 192.897 168.103C193.28 167.721 193.471 167.231 193.471 166.633C193.471 166.036 193.28 165.551 192.897 165.177C192.515 164.795 192.006 164.603 191.371 164.603C190.737 164.603 190.228 164.795 189.845 165.177ZM197.605 172.037C196.718 171.067 196.275 169.825 196.275 168.313C196.275 166.801 196.718 165.56 197.605 164.589C198.491 163.619 199.565 163.133 200.825 163.133C202.085 163.133 203.158 163.619 204.045 164.589C204.931 165.56 205.375 166.801 205.375 168.313C205.375 169.825 204.931 171.067 204.045 172.037C203.158 173.008 202.085 173.493 200.825 173.493C199.565 173.493 198.491 173.008 197.605 172.037ZM198.753 165.625C198.221 166.26 197.955 167.156 197.955 168.313C197.955 169.471 198.221 170.367 198.753 171.001C199.294 171.636 199.985 171.953 200.825 171.953C201.665 171.953 202.351 171.636 202.883 171.001C203.424 170.367 203.695 169.471 203.695 168.313C203.695 167.156 203.424 166.26 202.883 165.625C202.351 164.991 201.665 164.673 200.825 164.673C199.985 164.673 199.294 164.991 198.753 165.625Z" fill="#333333"/>
<path d="M253.49 90.9933C253.49 90.5453 253.588 90.0786 253.784 89.5933C253.989 89.0986 254.185 88.7113 254.372 88.4313C254.568 88.1419 254.834 87.7826 255.17 87.3533L257.41 84.4133H259.3L257.186 87.1713L256.57 87.7033V87.7733L256.85 87.6753C257.13 87.6006 257.433 87.5633 257.76 87.5633C258.675 87.5633 259.449 87.8946 260.084 88.5573C260.728 89.2106 261.05 90.0226 261.05 90.9933C261.05 91.9826 260.695 92.8133 259.986 93.4853C259.277 94.1573 258.371 94.4933 257.27 94.4933C256.169 94.4933 255.263 94.1573 254.554 93.4853C253.845 92.8133 253.49 91.9826 253.49 90.9933ZM255.744 89.5373C255.361 89.9106 255.17 90.3959 255.17 90.9933C255.17 91.5906 255.361 92.0806 255.744 92.4633C256.127 92.8366 256.635 93.0233 257.27 93.0233C257.905 93.0233 258.413 92.8366 258.796 92.4633C259.179 92.0806 259.37 91.5906 259.37 90.9933C259.37 90.3959 259.179 89.9106 258.796 89.5373C258.413 89.1546 257.905 88.9633 257.27 88.9633C256.635 88.9633 256.127 89.1546 255.744 89.5373ZM262.173 93.4433C262.173 93.1633 262.262 92.9299 262.439 92.7433C262.626 92.5566 262.855 92.4633 263.125 92.4633C263.433 92.4633 263.676 92.5753 263.853 92.7993C264.04 93.0233 264.133 93.3546 264.133 93.7933C264.133 94.5119 263.961 95.0626 263.615 95.4453C263.279 95.8373 262.822 96.0333 262.243 96.0333V95.3333C262.523 95.3333 262.743 95.2539 262.901 95.0953C263.069 94.9459 263.153 94.7453 263.153 94.4933V94.4093C263.144 94.3999 263.139 94.3813 263.139 94.3533V94.3113L263.055 94.3393C263.027 94.3486 262.967 94.3533 262.873 94.3533C262.687 94.3533 262.523 94.2693 262.383 94.1013C262.243 93.9333 262.173 93.7139 262.173 93.4433ZM265.249 91.4833H266.929C267.004 91.7726 267.13 92.0199 267.307 92.2253C267.718 92.7106 268.315 92.9533 269.099 92.9533C269.725 92.9533 270.219 92.7853 270.583 92.4493C270.947 92.1133 271.129 91.6746 271.129 91.1333C271.129 90.5639 270.947 90.1066 270.583 89.7613C270.219 89.4159 269.725 89.2433 269.099 89.2433C268.521 89.2433 268.031 89.3973 267.629 89.7053C267.471 89.8266 267.331 89.9759 267.209 90.1533H265.669L266.089 84.4133H272.039V85.9533H267.419L267.209 88.4733H267.279C267.429 88.3239 267.601 88.1979 267.797 88.0953C268.236 87.8339 268.763 87.7033 269.379 87.7033C270.359 87.7033 271.176 88.0299 271.829 88.6833C272.483 89.3366 272.809 90.1533 272.809 91.1333C272.809 92.0946 272.464 92.8973 271.773 93.5413C271.092 94.1759 270.201 94.4933 269.099 94.4933C267.662 94.4933 266.593 93.9939 265.893 92.9953C265.595 92.5566 265.38 92.0526 265.249 91.4833ZM273.863 91.4833H275.543C275.617 91.7726 275.743 92.0199 275.921 92.2253C276.331 92.7106 276.929 92.9533 277.713 92.9533C278.338 92.9533 278.833 92.7853 279.197 92.4493C279.561 92.1133 279.743 91.6746 279.743 91.1333C279.743 90.5639 279.561 90.1066 279.197 89.7613C278.833 89.4159 278.338 89.2433 277.713 89.2433C277.134 89.2433 276.644 89.3973 276.243 89.7053C276.084 89.8266 275.944 89.9759 275.823 90.1533H274.283L274.703 84.4133H280.653V85.9533H276.033L275.823 88.4733H275.893C276.042 88.3239 276.215 88.1979 276.411 88.0953C276.849 87.8339 277.377 87.7033 277.993 87.7033C278.973 87.7033 279.789 88.0299 280.443 88.6833C281.096 89.3366 281.423 90.1533 281.423 91.1333C281.423 92.0946 281.077 92.8973 280.387 93.5413C279.705 94.1759 278.814 94.4933 277.713 94.4933C276.275 94.4933 275.207 93.9939 274.507 92.9953C274.208 92.5566 273.993 92.0526 273.863 91.4833Z" fill="#333333"/>
<path d="M324.14 151.953V150.413H330.79V151.953L326.87 160.213H325.12L328.97 152.093V151.953H324.14ZM330.234 159.443C330.234 159.163 330.322 158.93 330.5 158.743C330.686 158.557 330.915 158.463 331.186 158.463C331.494 158.463 331.736 158.575 331.914 158.799C332.1 159.023 332.194 159.355 332.194 159.793C332.194 160.512 332.021 161.063 331.676 161.445C331.34 161.837 330.882 162.033 330.304 162.033V161.333C330.584 161.333 330.803 161.254 330.962 161.095C331.13 160.946 331.214 160.745 331.214 160.493V160.409C331.204 160.4 331.2 160.381 331.2 160.353V160.311L331.116 160.339C331.088 160.349 331.027 160.353 330.934 160.353C330.747 160.353 330.584 160.269 330.444 160.101C330.304 159.933 330.234 159.714 330.234 159.443ZM332.96 158.253V156.713L336.25 150.413H338L334.71 156.713H337.93V154.333H338H339.54V156.713H340.94V158.253H339.54V160.213H337.93V158.253H332.96ZM341.359 157.413H343.039C343.105 157.703 343.231 157.959 343.417 158.183C343.837 158.697 344.435 158.953 345.209 158.953C345.853 158.953 346.362 158.795 346.735 158.477C347.118 158.151 347.309 157.749 347.309 157.273C347.309 156.732 347.137 156.307 346.791 155.999C346.455 155.682 345.975 155.523 345.349 155.523H342.969V154.123L345.909 152.023V151.953H341.849V150.413H348.289V151.939L345.769 153.773L345.069 154.053V154.123L345.293 154.095C345.601 154.067 345.783 154.053 345.839 154.053C346.717 154.053 347.449 154.357 348.037 154.963C348.625 155.57 348.919 156.34 348.919 157.273C348.919 158.169 348.574 158.93 347.883 159.555C347.193 160.181 346.301 160.493 345.209 160.493C343.763 160.493 342.694 159.98 342.003 158.953C341.705 158.515 341.49 158.001 341.359 157.413Z" fill="#333333"/>
<circle cx="342.5" cy="238.713" r="39.5" fill="#5A5A5A"/>
<path d="M316.72 242.793C316.72 241.701 317.14 240.831 317.98 240.183C318.34 239.931 318.76 239.739 319.24 239.607V239.499C318.868 239.355 318.538 239.157 318.25 238.905C317.59 238.341 317.26 237.597 317.26 236.673C317.26 235.725 317.662 234.921 318.466 234.261C319.282 233.589 320.38 233.253 321.76 233.253C323.14 233.253 324.232 233.589 325.036 234.261C325.852 234.921 326.26 235.725 326.26 236.673C326.26 237.573 325.93 238.317 325.27 238.905C324.958 239.157 324.628 239.355 324.28 239.499V239.607C324.736 239.727 325.156 239.925 325.54 240.201C326.38 240.849 326.8 241.713 326.8 242.793C326.8 243.837 326.344 244.731 325.432 245.475C324.532 246.207 323.308 246.573 321.76 246.573C320.212 246.573 318.982 246.207 318.07 245.475C317.17 244.731 316.72 243.837 316.72 242.793ZM319.42 236.853C319.42 237.381 319.624 237.813 320.032 238.149C320.44 238.485 321.016 238.653 321.76 238.653C322.504 238.653 323.08 238.485 323.488 238.149C323.896 237.813 324.1 237.381 324.1 236.853C324.1 236.373 323.89 235.971 323.47 235.647C323.062 235.311 322.492 235.143 321.76 235.143C321.028 235.143 320.452 235.311 320.032 235.647C319.624 235.971 319.42 236.373 319.42 236.853ZM319.636 241.155C319.132 241.551 318.88 242.037 318.88 242.613C318.88 243.189 319.132 243.681 319.636 244.089C320.152 244.485 320.86 244.683 321.76 244.683C322.66 244.683 323.362 244.485 323.866 244.089C324.382 243.681 324.64 243.189 324.64 242.613C324.64 242.037 324.382 241.551 323.866 241.155C323.362 240.747 322.66 240.543 321.76 240.543C320.86 240.543 320.152 240.747 319.636 241.155ZM328.054 242.613H330.214C330.298 242.985 330.46 243.315 330.7 243.603C331.24 244.263 332.008 244.593 333.004 244.593C333.832 244.593 334.486 244.389 334.966 243.981C335.458 243.561 335.704 243.045 335.704 242.433C335.704 241.737 335.482 241.191 335.038 240.795C334.606 240.387 333.988 240.183 333.184 240.183H330.124V238.383L333.904 235.683V235.593H328.684V233.613H336.964V235.575L333.724 237.933L332.824 238.293V238.383L333.112 238.347C333.508 238.311 333.742 238.293 333.814 238.293C334.942 238.293 335.884 238.683 336.64 239.463C337.396 240.243 337.774 241.233 337.774 242.433C337.774 243.585 337.33 244.563 336.442 245.367C335.554 246.171 334.408 246.573 333.004 246.573C331.144 246.573 329.77 245.913 328.882 244.593C328.498 244.029 328.222 243.369 328.054 242.613ZM339.132 245.223C339.132 244.863 339.246 244.563 339.474 244.323C339.714 244.083 340.008 243.963 340.356 243.963C340.752 243.963 341.064 244.107 341.292 244.395C341.532 244.683 341.652 245.109 341.652 245.673C341.652 246.597 341.43 247.305 340.986 247.797C340.554 248.301 339.966 248.553 339.222 248.553V247.653C339.582 247.653 339.864 247.551 340.068 247.347C340.284 247.155 340.392 246.897 340.392 246.573V246.465C340.38 246.453 340.374 246.429 340.374 246.393V246.339L340.266 246.375C340.23 246.387 340.152 246.393 340.032 246.393C339.792 246.393 339.582 246.285 339.402 246.069C339.222 245.853 339.132 245.571 339.132 245.223ZM342.907 242.613H345.067C345.151 242.985 345.313 243.315 345.553 243.603C346.093 244.263 346.861 244.593 347.857 244.593C348.685 244.593 349.339 244.389 349.819 243.981C350.311 243.561 350.557 243.045 350.557 242.433C350.557 241.737 350.335 241.191 349.891 240.795C349.459 240.387 348.841 240.183 348.037 240.183H344.977V238.383L348.757 235.683V235.593H343.537V233.613H351.817V235.575L348.577 237.933L347.677 238.293V238.383L347.965 238.347C348.361 238.311 348.595 238.293 348.667 238.293C349.795 238.293 350.737 238.683 351.493 239.463C352.249 240.243 352.627 241.233 352.627 242.433C352.627 243.585 352.183 244.563 351.295 245.367C350.407 246.171 349.261 246.573 347.857 246.573C345.997 246.573 344.623 245.913 343.735 244.593C343.351 244.029 343.075 243.369 342.907 242.613ZM353.446 235.593V233.613H361.996V235.593L356.956 246.213H354.706L359.656 235.773V235.593H353.446Z" fill="white"/>
<line x1="255.25" y1="129.646" x2="229.25" y2="144.646" stroke="#5A5A5A"/>
</svg>
