<svg width="300" height="696" viewBox="0 0 300 696" fill="none" xmlns="http://www.w3.org/2000/svg">
<rect x="48" y="57" width="30" height="48" transform="rotate(90 48 57)" fill="#5A5A5A"/>
<path d="M266 87L270 265L15 265L15 87L266 87Z" fill="#E7FFD5"/>
<path d="M292 404V666H16L16 404H292Z" fill="#E7FFD5"/>
<path d="M257 328L255 636H16L16 328L257 328Z" fill="#E7FFD5"/>
<path d="M191 245L191 555H6L6.00001 245L191 245Z" fill="#E7FFD5"/>
<path d="M15.9998 498L40.9951 498L40.9951 522.325L15.9998 522.325L15.9998 498Z" fill="white" stroke="#5A5A5A" stroke-width="0.5"/>
<path d="M38.9687 498.927L19.5157 498.927C18.7778 498.927 18.3853 499.319 18.3853 500.089L18.3853 520.236C18.3853 521.021 18.7621 521.398 19.5157 521.398L38.9687 521.398C39.7223 521.414 40.0992 521.021 40.0992 520.252L40.0992 500.104C40.1149 499.319 39.7223 498.927 38.9687 498.927Z" fill="white" stroke="#5A5A5A" stroke-width="0.5"/>
<path d="M37.1797 505.428C37.164 507.218 35.7509 508.679 34.0082 508.679C32.2497 508.679 30.8367 507.218 30.8367 505.428C30.8367 503.622 32.2497 502.177 34.0082 502.177C35.7666 502.177 37.1797 503.622 37.1797 505.428Z" stroke="#5A5A5A" stroke-width="0.5"/>
<path d="M37.1493 515.054C37.1336 516.844 35.7205 518.304 33.9778 518.304C32.2193 518.304 30.8063 516.844 30.8063 515.054C30.8063 513.248 32.2193 511.803 33.9778 511.803C35.7362 511.787 37.165 513.248 37.1493 515.054Z" stroke="#5A5A5A" stroke-width="0.5"/>
<path d="M28.1357 515.054C28.1357 516.86 26.7227 518.304 24.9642 518.304C23.2058 518.304 21.7927 516.844 21.7927 515.054C21.8084 513.263 23.2215 511.803 24.9642 511.803C26.707 511.803 28.1357 513.263 28.1357 515.054Z" stroke="#5A5A5A" stroke-width="0.5"/>
<path d="M28.1357 505.428C28.1357 507.234 26.7227 508.679 24.9642 508.679C23.2058 508.679 21.7927 507.218 21.7927 505.428C21.8084 503.638 23.2215 502.177 24.9642 502.177C26.707 502.177 28.1357 503.638 28.1357 505.428Z" stroke="#5A5A5A" stroke-width="0.5"/>
<path d="M44 461.015L44 485.104L67.699 485.104L67.699 461L44 461.015Z" fill="white" stroke="#5A5A5A" stroke-width="0.5"/>
<path d="M45.8027 467.621L45.8027 480.938C45.8027 481.68 46.1664 482.044 46.924 482.044L64.5316 482.044C65.259 482.044 65.6378 481.68 65.653 480.953L65.6378 467.621C65.653 466.894 65.2741 466.53 64.5317 466.53L46.924 466.53C46.1816 466.5 45.8027 466.879 45.8027 467.621Z" fill="white" stroke="#5A5A5A" stroke-width="0.5"/>
<path d="M55.7283 462.864C56.6527 462.879 57.3951 463.576 57.3951 464.454L56.7436 471.438L56.7284 471.454C56.7284 471.984 56.289 472.408 55.7283 472.408C55.1677 472.408 54.7283 471.984 54.7131 471.438L54.0615 464.454C54.0615 463.591 54.804 462.879 55.7283 462.864Z" stroke="#5A5A5A" stroke-width="0.5"/>
<mask id="path-12-inside-1_45_12220" fill="white">
<path fill-rule="evenodd" clip-rule="evenodd" d="M57.1074 463.546L56.7438 467.349C56.7286 467.879 56.2892 468.318 55.7134 468.303C55.1527 468.303 54.7284 467.879 54.7133 467.349L54.3496 463.546"/>
</mask>
<path fill-rule="evenodd" clip-rule="evenodd" d="M57.1074 463.546L56.7438 467.349C56.7286 467.879 56.2892 468.318 55.7134 468.303C55.1527 468.303 54.7284 467.879 54.7133 467.349L54.3496 463.546" fill="white"/>
<path d="M56.7438 467.349L56.244 467.335L56.2444 467.318L56.246 467.301L56.7438 467.349ZM55.7134 468.303L55.7134 467.803L55.7265 467.803L55.7134 468.303ZM54.7133 467.349L55.211 467.301L55.2126 467.318L55.2131 467.335L54.7133 467.349ZM57.6052 463.594L57.2415 467.396L56.246 467.301L56.6097 463.499L57.6052 463.594ZM57.2436 467.363C57.2205 468.168 56.5525 468.825 55.7002 468.803L55.7265 467.803C56.0259 467.811 56.2367 467.59 56.244 467.335L57.2436 467.363ZM55.7134 468.803C54.884 468.803 54.2364 468.166 54.2135 467.363L55.2131 467.335C55.2204 467.592 55.4214 467.803 55.7134 467.803L55.7134 468.803ZM54.2156 467.396L53.8519 463.594L54.8473 463.499L55.211 467.301L54.2156 467.396Z" fill="#5A5A5A" mask="url(#path-12-inside-1_45_12220)"/>
<path d="M123.42 182V180.46L126.766 178.094C127.494 177.571 128.017 177.086 128.334 176.638C128.651 176.19 128.81 175.714 128.81 175.21C128.81 174.678 128.647 174.253 128.32 173.936C127.993 173.619 127.55 173.46 126.99 173.46C126.299 173.46 125.781 173.74 125.436 174.3C125.287 174.543 125.175 174.823 125.1 175.14H123.42C123.504 174.543 123.686 174.006 123.966 173.53C124.629 172.457 125.637 171.92 126.99 171.92C128.026 171.92 128.866 172.228 129.51 172.844C130.163 173.451 130.49 174.216 130.49 175.14C130.49 175.943 130.285 176.666 129.874 177.31C129.463 177.945 128.805 178.575 127.9 179.2L126.5 180.18L125.87 180.46V180.53L126.71 180.46H130.49V182H123.42ZM131.193 173.74V172.2H137.843V173.74L133.923 182H132.173L136.023 173.88V173.74H131.193ZM137.287 181.23C137.287 180.95 137.375 180.717 137.553 180.53C137.739 180.343 137.968 180.25 138.239 180.25C138.547 180.25 138.789 180.362 138.967 180.586C139.153 180.81 139.247 181.141 139.247 181.58C139.247 182.299 139.074 182.849 138.729 183.232C138.393 183.624 137.935 183.82 137.357 183.82V183.12C137.637 183.12 137.856 183.041 138.015 182.882C138.183 182.733 138.267 182.532 138.267 182.28V182.196C138.257 182.187 138.253 182.168 138.253 182.14V182.098L138.169 182.126C138.141 182.135 138.08 182.14 137.987 182.14C137.8 182.14 137.637 182.056 137.497 181.888C137.357 181.72 137.287 181.501 137.287 181.23ZM140.363 175.42C140.363 174.431 140.717 173.6 141.427 172.928C142.136 172.256 143.041 171.92 144.143 171.92C145.244 171.92 146.149 172.256 146.859 172.928C147.568 173.6 147.923 174.431 147.923 175.42C147.923 176.307 147.554 177.263 146.817 178.29C146.742 178.393 146.639 178.533 146.509 178.71C146.378 178.878 146.289 178.995 146.243 179.06L144.003 182H142.113L144.227 179.242L144.843 178.71V178.64C144.824 178.649 144.731 178.687 144.563 178.752C144.32 178.817 144.017 178.85 143.653 178.85C142.738 178.85 141.959 178.523 141.315 177.87C140.68 177.207 140.363 176.391 140.363 175.42ZM142.617 173.964C142.234 174.337 142.043 174.823 142.043 175.42C142.043 176.017 142.234 176.507 142.617 176.89C142.999 177.263 143.508 177.45 144.143 177.45C144.777 177.45 145.286 177.263 145.669 176.89C146.051 176.507 146.243 176.017 146.243 175.42C146.243 174.823 146.051 174.337 145.669 173.964C145.286 173.581 144.777 173.39 144.143 173.39C143.508 173.39 142.999 173.581 142.617 173.964ZM148.906 178.78C148.906 178.332 149.004 177.865 149.2 177.38C149.405 176.885 149.601 176.498 149.788 176.218C149.984 175.929 150.25 175.569 150.586 175.14L152.826 172.2H154.716L152.602 174.958L151.986 175.49V175.56L152.266 175.462C152.546 175.387 152.849 175.35 153.176 175.35C154.091 175.35 154.865 175.681 155.5 176.344C156.144 176.997 156.466 177.809 156.466 178.78C156.466 179.769 156.111 180.6 155.402 181.272C154.693 181.944 153.787 182.28 152.686 182.28C151.585 182.28 150.679 181.944 149.97 181.272C149.261 180.6 148.906 179.769 148.906 178.78ZM151.16 177.324C150.777 177.697 150.586 178.183 150.586 178.78C150.586 179.377 150.777 179.867 151.16 180.25C151.543 180.623 152.051 180.81 152.686 180.81C153.321 180.81 153.829 180.623 154.212 180.25C154.595 179.867 154.786 179.377 154.786 178.78C154.786 178.183 154.595 177.697 154.212 177.324C153.829 176.941 153.321 176.75 152.686 176.75C152.051 176.75 151.543 176.941 151.16 177.324Z" fill="#333333"/>
<path d="M174.42 30.2H176.1C176.165 30.4893 176.291 30.746 176.478 30.97C176.898 31.4833 177.495 31.74 178.27 31.74C178.914 31.74 179.423 31.5813 179.796 31.264C180.179 30.9373 180.37 30.536 180.37 30.06C180.37 29.5187 180.197 29.094 179.852 28.786C179.516 28.4687 179.035 28.31 178.41 28.31H176.03V26.91L178.97 24.81V24.74H174.91V23.2H181.35V24.726L178.83 26.56L178.13 26.84V26.91L178.354 26.882C178.662 26.854 178.844 26.84 178.9 26.84C179.777 26.84 180.51 27.1433 181.098 27.75C181.686 28.3567 181.98 29.1267 181.98 30.06C181.98 30.956 181.635 31.7167 180.944 32.342C180.253 32.9673 179.362 33.28 178.27 33.28C176.823 33.28 175.755 32.7667 175.064 31.74C174.765 31.3013 174.551 30.788 174.42 30.2ZM183.037 32.23C183.037 31.95 183.125 31.7167 183.303 31.53C183.489 31.3433 183.718 31.25 183.989 31.25C184.297 31.25 184.539 31.362 184.717 31.586C184.903 31.81 184.997 32.1413 184.997 32.58C184.997 33.2987 184.824 33.8493 184.479 34.232C184.143 34.624 183.685 34.82 183.107 34.82V34.12C183.387 34.12 183.606 34.0407 183.765 33.882C183.933 33.7327 184.017 33.532 184.017 33.28V33.196C184.007 33.1867 184.003 33.168 184.003 33.14V33.098L183.919 33.126C183.891 33.1353 183.83 33.14 183.737 33.14C183.55 33.14 183.387 33.056 183.247 32.888C183.107 32.72 183.037 32.5007 183.037 32.23ZM186.043 29.78C186.043 29.332 186.141 28.8653 186.337 28.38C186.542 27.8853 186.738 27.498 186.925 27.218C187.121 26.9287 187.387 26.5693 187.723 26.14L189.963 23.2H191.853L189.739 25.958L189.123 26.49V26.56L189.403 26.462C189.683 26.3873 189.986 26.35 190.313 26.35C191.227 26.35 192.002 26.6813 192.637 27.344C193.281 27.9973 193.603 28.8093 193.603 29.78C193.603 30.7693 193.248 31.6 192.539 32.272C191.829 32.944 190.924 33.28 189.823 33.28C188.721 33.28 187.816 32.944 187.107 32.272C186.397 31.6 186.043 30.7693 186.043 29.78ZM188.297 28.324C187.914 28.6973 187.723 29.1827 187.723 29.78C187.723 30.3773 187.914 30.8673 188.297 31.25C188.679 31.6233 189.188 31.81 189.823 31.81C190.457 31.81 190.966 31.6233 191.349 31.25C191.731 30.8673 191.923 30.3773 191.923 29.78C191.923 29.1827 191.731 28.6973 191.349 28.324C190.966 27.9413 190.457 27.75 189.823 27.75C189.188 27.75 188.679 27.9413 188.297 28.324ZM194.656 29.78C194.656 29.332 194.754 28.8653 194.95 28.38C195.155 27.8853 195.351 27.498 195.538 27.218C195.734 26.9287 196 26.5693 196.336 26.14L198.576 23.2H200.466L198.352 25.958L197.736 26.49V26.56L198.016 26.462C198.296 26.3873 198.599 26.35 198.926 26.35C199.841 26.35 200.615 26.6813 201.25 27.344C201.894 27.9973 202.216 28.8093 202.216 29.78C202.216 30.7693 201.861 31.6 201.152 32.272C200.443 32.944 199.537 33.28 198.436 33.28C197.335 33.28 196.429 32.944 195.72 32.272C195.011 31.6 194.656 30.7693 194.656 29.78ZM196.91 28.324C196.527 28.6973 196.336 29.1827 196.336 29.78C196.336 30.3773 196.527 30.8673 196.91 31.25C197.293 31.6233 197.801 31.81 198.436 31.81C199.071 31.81 199.579 31.6233 199.962 31.25C200.345 30.8673 200.536 30.3773 200.536 29.78C200.536 29.1827 200.345 28.6973 199.962 28.324C199.579 27.9413 199.071 27.75 198.436 27.75C197.801 27.75 197.293 27.9413 196.91 28.324Z" fill="#333333"/>
<path d="M100 281L16 281L16 388L100 388L100 281Z" fill="#FDFF9F"/>
<path d="M48.56 340.27H50.24C50.3147 340.559 50.4407 340.807 50.618 341.012C51.0287 341.497 51.626 341.74 52.41 341.74C53.0353 341.74 53.53 341.572 53.894 341.236C54.258 340.9 54.44 340.461 54.44 339.92C54.44 339.351 54.258 338.893 53.894 338.548C53.53 338.203 53.0353 338.03 52.41 338.03C51.8313 338.03 51.3413 338.184 50.94 338.492C50.7813 338.613 50.6413 338.763 50.52 338.94H48.98L49.4 333.2H55.35V334.74H50.73L50.52 337.26H50.59C50.7393 337.111 50.912 336.985 51.108 336.882C51.5467 336.621 52.074 336.49 52.69 336.49C53.67 336.49 54.4867 336.817 55.14 337.47C55.7933 338.123 56.12 338.94 56.12 339.92C56.12 340.881 55.7747 341.684 55.084 342.328C54.4027 342.963 53.5113 343.28 52.41 343.28C50.9727 343.28 49.904 342.781 49.204 341.782C48.9053 341.343 48.6907 340.839 48.56 340.27ZM57.1733 342.23C57.1733 341.95 57.2619 341.717 57.4393 341.53C57.6259 341.343 57.8546 341.25 58.1253 341.25C58.4333 341.25 58.6759 341.362 58.8533 341.586C59.0399 341.81 59.1333 342.141 59.1333 342.58C59.1333 343.299 58.9606 343.849 58.6153 344.232C58.2793 344.624 57.8219 344.82 57.2433 344.82V344.12C57.5233 344.12 57.7426 344.041 57.9013 343.882C58.0693 343.733 58.1533 343.532 58.1533 343.28V343.196C58.1439 343.187 58.1393 343.168 58.1393 343.14V343.098L58.0553 343.126C58.0273 343.135 57.9666 343.14 57.8733 343.14C57.6866 343.14 57.5233 343.056 57.3833 342.888C57.2433 342.72 57.1733 342.501 57.1733 342.23ZM60.2495 336.42C60.2495 335.431 60.6041 334.6 61.3135 333.928C62.0228 333.256 62.9281 332.92 64.0295 332.92C65.1308 332.92 66.0361 333.256 66.7455 333.928C67.4548 334.6 67.8095 335.431 67.8095 336.42C67.8095 337.307 67.4408 338.263 66.7035 339.29C66.6288 339.393 66.5261 339.533 66.3955 339.71C66.2648 339.878 66.1761 339.995 66.1295 340.06L63.8895 343H61.9995L64.1135 340.242L64.7295 339.71V339.64C64.7108 339.649 64.6175 339.687 64.4495 339.752C64.2068 339.817 63.9035 339.85 63.5395 339.85C62.6248 339.85 61.8455 339.523 61.2015 338.87C60.5668 338.207 60.2495 337.391 60.2495 336.42ZM62.5035 334.964C62.1208 335.337 61.9295 335.823 61.9295 336.42C61.9295 337.017 62.1208 337.507 62.5035 337.89C62.8861 338.263 63.3948 338.45 64.0295 338.45C64.6641 338.45 65.1728 338.263 65.5555 337.89C65.9381 337.507 66.1295 337.017 66.1295 336.42C66.1295 335.823 65.9381 335.337 65.5555 334.964C65.1728 334.581 64.6641 334.39 64.0295 334.39C63.3948 334.39 62.8861 334.581 62.5035 334.964ZM70.2627 341.824C69.3761 340.853 68.9327 339.612 68.9327 338.1C68.9327 336.588 69.3761 335.347 70.2627 334.376C71.1494 333.405 72.2227 332.92 73.4827 332.92C74.7427 332.92 75.8161 333.405 76.7027 334.376C77.5894 335.347 78.0327 336.588 78.0327 338.1C78.0327 339.612 77.5894 340.853 76.7027 341.824C75.8161 342.795 74.7427 343.28 73.4827 343.28C72.2227 343.28 71.1494 342.795 70.2627 341.824ZM71.4107 335.412C70.8787 336.047 70.6127 336.943 70.6127 338.1C70.6127 339.257 70.8787 340.153 71.4107 340.788C71.9521 341.423 72.6427 341.74 73.4827 341.74C74.3227 341.74 75.0087 341.423 75.5407 340.788C76.0821 340.153 76.3527 339.257 76.3527 338.1C76.3527 336.943 76.0821 336.047 75.5407 335.412C75.0087 334.777 74.3227 334.46 73.4827 334.46C72.6427 334.46 71.9521 334.777 71.4107 335.412Z" fill="#333333"/>
<path d="M100 391L16 391L16 454L100 454L100 391Z" fill="#FDFF9F"/>
<path d="M60.42 431V429.46L63.766 427.094C64.494 426.571 65.0167 426.086 65.334 425.638C65.6513 425.19 65.81 424.714 65.81 424.21C65.81 423.678 65.6467 423.253 65.32 422.936C64.9933 422.619 64.55 422.46 63.99 422.46C63.2993 422.46 62.7813 422.74 62.436 423.3C62.2867 423.543 62.1747 423.823 62.1 424.14H60.42C60.504 423.543 60.686 423.006 60.966 422.53C61.6287 421.457 62.6367 420.92 63.99 420.92C65.026 420.92 65.866 421.228 66.51 421.844C67.1633 422.451 67.49 423.216 67.49 424.14C67.49 424.943 67.2847 425.666 66.874 426.31C66.4633 426.945 65.8053 427.575 64.9 428.2L63.5 429.18L62.87 429.46V429.53L63.71 429.46H67.49V431H60.42ZM68.6127 430.23C68.6127 429.95 68.7014 429.717 68.8787 429.53C69.0654 429.343 69.2941 429.25 69.5647 429.25C69.8727 429.25 70.1154 429.362 70.2927 429.586C70.4794 429.81 70.5727 430.141 70.5727 430.58C70.5727 431.299 70.4001 431.849 70.0547 432.232C69.7187 432.624 69.2614 432.82 68.6827 432.82V432.12C68.9627 432.12 69.1821 432.041 69.3407 431.882C69.5087 431.733 69.5927 431.532 69.5927 431.28V431.196C69.5834 431.187 69.5787 431.168 69.5787 431.14V431.098L69.4947 431.126C69.4667 431.135 69.4061 431.14 69.3127 431.14C69.1261 431.14 68.9627 431.056 68.8227 430.888C68.6827 430.72 68.6127 430.501 68.6127 430.23ZM71.6889 424.42C71.6889 423.431 72.0436 422.6 72.7529 421.928C73.4622 421.256 74.3676 420.92 75.4689 420.92C76.5702 420.92 77.4756 421.256 78.1849 421.928C78.8942 422.6 79.2489 423.431 79.2489 424.42C79.2489 425.307 78.8802 426.263 78.1429 427.29C78.0682 427.393 77.9656 427.533 77.8349 427.71C77.7042 427.878 77.6156 427.995 77.5689 428.06L75.3289 431H73.4389L75.5529 428.242L76.1689 427.71V427.64C76.1502 427.649 76.0569 427.687 75.8889 427.752C75.6462 427.817 75.3429 427.85 74.9789 427.85C74.0642 427.85 73.2849 427.523 72.6409 426.87C72.0062 426.207 71.6889 425.391 71.6889 424.42ZM73.9429 422.964C73.5602 423.337 73.3689 423.823 73.3689 424.42C73.3689 425.017 73.5602 425.507 73.9429 425.89C74.3256 426.263 74.8342 426.45 75.4689 426.45C76.1036 426.45 76.6122 426.263 76.9949 425.89C77.3776 425.507 77.5689 425.017 77.5689 424.42C77.5689 423.823 77.3776 423.337 76.9949 422.964C76.6122 422.581 76.1036 422.39 75.4689 422.39C74.8342 422.39 74.3256 422.581 73.9429 422.964ZM80.0922 424.42V422.6L81.9122 421.2H83.3822V431H81.7722V423.16L80.0922 424.42Z" fill="#333333"/>
<path d="M230.35 423.42V421.6L232.17 420.2H233.64V430H232.03V422.16L230.35 423.42ZM234.831 428.04V426.5L238.121 420.2H239.871L236.581 426.5H239.801V424.12H239.871H241.411V426.5H242.811V428.04H241.411V430H239.801V428.04H234.831ZM243.371 429.23C243.371 428.95 243.459 428.717 243.637 428.53C243.823 428.343 244.052 428.25 244.323 428.25C244.631 428.25 244.873 428.362 245.051 428.586C245.237 428.81 245.331 429.141 245.331 429.58C245.331 430.299 245.158 430.849 244.813 431.232C244.477 431.624 244.019 431.82 243.441 431.82V431.12C243.721 431.12 243.94 431.041 244.099 430.882C244.267 430.733 244.351 430.532 244.351 430.28V430.196C244.341 430.187 244.337 430.168 244.337 430.14V430.098L244.253 430.126C244.225 430.135 244.164 430.14 244.071 430.14C243.884 430.14 243.721 430.056 243.581 429.888C243.441 429.72 243.371 429.501 243.371 429.23ZM246.027 421.74V420.2H252.677V421.74L248.757 430H247.007L250.857 421.88V421.74H246.027ZM253.515 423.42C253.515 422.431 253.87 421.6 254.579 420.928C255.288 420.256 256.194 419.92 257.295 419.92C258.396 419.92 259.302 420.256 260.011 420.928C260.72 421.6 261.075 422.431 261.075 423.42C261.075 424.307 260.706 425.263 259.969 426.29C259.894 426.393 259.792 426.533 259.661 426.71C259.53 426.878 259.442 426.995 259.395 427.06L257.155 430H255.265L257.379 427.242L257.995 426.71V426.64C257.976 426.649 257.883 426.687 257.715 426.752C257.472 426.817 257.169 426.85 256.805 426.85C255.89 426.85 255.111 426.523 254.467 425.87C253.832 425.207 253.515 424.391 253.515 423.42ZM255.769 421.964C255.386 422.337 255.195 422.823 255.195 423.42C255.195 424.017 255.386 424.507 255.769 424.89C256.152 425.263 256.66 425.45 257.295 425.45C257.93 425.45 258.438 425.263 258.821 424.89C259.204 424.507 259.395 424.017 259.395 423.42C259.395 422.823 259.204 422.337 258.821 421.964C258.438 421.581 257.93 421.39 257.295 421.39C256.66 421.39 256.152 421.581 255.769 421.964Z" fill="#333333"/>
<path d="M148.42 600V598.46L151.766 596.094C152.494 595.571 153.017 595.086 153.334 594.638C153.651 594.19 153.81 593.714 153.81 593.21C153.81 592.678 153.647 592.253 153.32 591.936C152.993 591.619 152.55 591.46 151.99 591.46C151.299 591.46 150.781 591.74 150.436 592.3C150.287 592.543 150.175 592.823 150.1 593.14H148.42C148.504 592.543 148.686 592.006 148.966 591.53C149.629 590.457 150.637 589.92 151.99 589.92C153.026 589.92 153.866 590.228 154.51 590.844C155.163 591.451 155.49 592.216 155.49 593.14C155.49 593.943 155.285 594.666 154.874 595.31C154.463 595.945 153.805 596.575 152.9 597.2L151.5 598.18L150.87 598.46V598.53L151.71 598.46H155.49V600H148.42ZM156.613 597.34C156.613 596.491 156.939 595.814 157.593 595.31C157.873 595.114 158.199 594.965 158.573 594.862V594.778C158.283 594.666 158.027 594.512 157.803 594.316C157.289 593.877 157.033 593.299 157.033 592.58C157.033 591.843 157.345 591.217 157.971 590.704C158.605 590.181 159.459 589.92 160.533 589.92C161.606 589.92 162.455 590.181 163.081 590.704C163.715 591.217 164.033 591.843 164.033 592.58C164.033 593.28 163.776 593.859 163.263 594.316C163.02 594.512 162.763 594.666 162.493 594.778V594.862C162.847 594.955 163.174 595.109 163.473 595.324C164.126 595.828 164.453 596.5 164.453 597.34C164.453 598.152 164.098 598.847 163.389 599.426C162.689 599.995 161.737 600.28 160.533 600.28C159.329 600.28 158.372 599.995 157.663 599.426C156.963 598.847 156.613 598.152 156.613 597.34ZM158.713 592.72C158.713 593.131 158.871 593.467 159.189 593.728C159.506 593.989 159.954 594.12 160.533 594.12C161.111 594.12 161.559 593.989 161.877 593.728C162.194 593.467 162.353 593.131 162.353 592.72C162.353 592.347 162.189 592.034 161.863 591.782C161.545 591.521 161.102 591.39 160.533 591.39C159.963 591.39 159.515 591.521 159.189 591.782C158.871 592.034 158.713 592.347 158.713 592.72ZM158.881 596.066C158.489 596.374 158.293 596.752 158.293 597.2C158.293 597.648 158.489 598.031 158.881 598.348C159.282 598.656 159.833 598.81 160.533 598.81C161.233 598.81 161.779 598.656 162.171 598.348C162.572 598.031 162.773 597.648 162.773 597.2C162.773 596.752 162.572 596.374 162.171 596.066C161.779 595.749 161.233 595.59 160.533 595.59C159.833 595.59 159.282 595.749 158.881 596.066ZM165.568 599.23C165.568 598.95 165.656 598.717 165.834 598.53C166.02 598.343 166.249 598.25 166.52 598.25C166.828 598.25 167.07 598.362 167.248 598.586C167.434 598.81 167.528 599.141 167.528 599.58C167.528 600.299 167.355 600.849 167.01 601.232C166.674 601.624 166.216 601.82 165.638 601.82V601.12C165.918 601.12 166.137 601.041 166.296 600.882C166.464 600.733 166.548 600.532 166.548 600.28V600.196C166.538 600.187 166.534 600.168 166.534 600.14V600.098L166.45 600.126C166.422 600.135 166.361 600.14 166.268 600.14C166.081 600.14 165.918 600.056 165.778 599.888C165.638 599.72 165.568 599.501 165.568 599.23ZM168.574 596.78C168.574 596.332 168.672 595.865 168.868 595.38C169.073 594.885 169.269 594.498 169.456 594.218C169.652 593.929 169.918 593.569 170.254 593.14L172.494 590.2H174.384L172.27 592.958L171.654 593.49V593.56L171.934 593.462C172.214 593.387 172.517 593.35 172.844 593.35C173.759 593.35 174.533 593.681 175.168 594.344C175.812 594.997 176.134 595.809 176.134 596.78C176.134 597.769 175.779 598.6 175.07 599.272C174.361 599.944 173.455 600.28 172.354 600.28C171.253 600.28 170.347 599.944 169.638 599.272C168.929 598.6 168.574 597.769 168.574 596.78ZM170.828 595.324C170.445 595.697 170.254 596.183 170.254 596.78C170.254 597.377 170.445 597.867 170.828 598.25C171.211 598.623 171.719 598.81 172.354 598.81C172.989 598.81 173.497 598.623 173.88 598.25C174.263 597.867 174.454 597.377 174.454 596.78C174.454 596.183 174.263 595.697 173.88 595.324C173.497 594.941 172.989 594.75 172.354 594.75C171.719 594.75 171.211 594.941 170.828 595.324ZM177.257 593.42C177.257 592.431 177.612 591.6 178.321 590.928C179.031 590.256 179.936 589.92 181.037 589.92C182.139 589.92 183.044 590.256 183.753 590.928C184.463 591.6 184.817 592.431 184.817 593.42C184.817 594.307 184.449 595.263 183.711 596.29C183.637 596.393 183.534 596.533 183.403 596.71C183.273 596.878 183.184 596.995 183.137 597.06L180.897 600H179.007L181.121 597.242L181.737 596.71V596.64C181.719 596.649 181.625 596.687 181.457 596.752C181.215 596.817 180.911 596.85 180.547 596.85C179.633 596.85 178.853 596.523 178.209 595.87C177.575 595.207 177.257 594.391 177.257 593.42ZM179.511 591.964C179.129 592.337 178.937 592.823 178.937 593.42C178.937 594.017 179.129 594.507 179.511 594.89C179.894 595.263 180.403 595.45 181.037 595.45C181.672 595.45 182.181 595.263 182.563 594.89C182.946 594.507 183.137 594.017 183.137 593.42C183.137 592.823 182.946 592.337 182.563 591.964C182.181 591.581 181.672 591.39 181.037 591.39C180.403 591.39 179.894 591.581 179.511 591.964Z" fill="#333333"/>
<path d="M57.49 530.78C57.49 530.332 57.588 529.865 57.784 529.38C57.9893 528.885 58.1853 528.498 58.372 528.218C58.568 527.929 58.834 527.569 59.17 527.14L61.41 524.2H63.3L61.186 526.958L60.57 527.49V527.56L60.85 527.462C61.13 527.387 61.4333 527.35 61.76 527.35C62.6747 527.35 63.4493 527.681 64.084 528.344C64.728 528.997 65.05 529.809 65.05 530.78C65.05 531.769 64.6953 532.6 63.986 533.272C63.2767 533.944 62.3713 534.28 61.27 534.28C60.1687 534.28 59.2633 533.944 58.554 533.272C57.8447 532.6 57.49 531.769 57.49 530.78ZM59.744 529.324C59.3613 529.697 59.17 530.183 59.17 530.78C59.17 531.377 59.3613 531.867 59.744 532.25C60.1267 532.623 60.6353 532.81 61.27 532.81C61.9047 532.81 62.4133 532.623 62.796 532.25C63.1787 531.867 63.37 531.377 63.37 530.78C63.37 530.183 63.1787 529.697 62.796 529.324C62.4133 528.941 61.9047 528.75 61.27 528.75C60.6353 528.75 60.1267 528.941 59.744 529.324ZM66.1733 533.23C66.1733 532.95 66.2619 532.717 66.4393 532.53C66.6259 532.343 66.8546 532.25 67.1253 532.25C67.4333 532.25 67.6759 532.362 67.8533 532.586C68.0399 532.81 68.1333 533.141 68.1333 533.58C68.1333 534.299 67.9606 534.849 67.6153 535.232C67.2793 535.624 66.8219 535.82 66.2433 535.82V535.12C66.5233 535.12 66.7426 535.041 66.9013 534.882C67.0693 534.733 67.1533 534.532 67.1533 534.28V534.196C67.1439 534.187 67.1393 534.168 67.1393 534.14V534.098L67.0553 534.126C67.0273 534.135 66.9666 534.14 66.8733 534.14C66.6866 534.14 66.5233 534.056 66.3833 533.888C66.2433 533.72 66.1733 533.501 66.1733 533.23ZM70.6495 532.824C69.7628 531.853 69.3195 530.612 69.3195 529.1C69.3195 527.588 69.7628 526.347 70.6495 525.376C71.5361 524.405 72.6095 523.92 73.8695 523.92C75.1295 523.92 76.2028 524.405 77.0895 525.376C77.9761 526.347 78.4195 527.588 78.4195 529.1C78.4195 530.612 77.9761 531.853 77.0895 532.824C76.2028 533.795 75.1295 534.28 73.8695 534.28C72.6095 534.28 71.5361 533.795 70.6495 532.824ZM71.7975 526.412C71.2655 527.047 70.9995 527.943 70.9995 529.1C70.9995 530.257 71.2655 531.153 71.7975 531.788C72.3388 532.423 73.0295 532.74 73.8695 532.74C74.7095 532.74 75.3955 532.423 75.9275 531.788C76.4688 531.153 76.7395 530.257 76.7395 529.1C76.7395 527.943 76.4688 527.047 75.9275 526.412C75.3955 525.777 74.7095 525.46 73.8695 525.46C73.0295 525.46 72.3388 525.777 71.7975 526.412ZM81.0127 532.824C80.1261 531.853 79.6827 530.612 79.6827 529.1C79.6827 527.588 80.1261 526.347 81.0127 525.376C81.8994 524.405 82.9727 523.92 84.2327 523.92C85.4927 523.92 86.5661 524.405 87.4527 525.376C88.3394 526.347 88.7827 527.588 88.7827 529.1C88.7827 530.612 88.3394 531.853 87.4527 532.824C86.5661 533.795 85.4927 534.28 84.2327 534.28C82.9727 534.28 81.8994 533.795 81.0127 532.824ZM82.1607 526.412C81.6287 527.047 81.3627 527.943 81.3627 529.1C81.3627 530.257 81.6287 531.153 82.1607 531.788C82.7021 532.423 83.3927 532.74 84.2327 532.74C85.0727 532.74 85.7587 532.423 86.2907 531.788C86.8321 531.153 87.1027 530.257 87.1027 529.1C87.1027 527.943 86.8321 527.047 86.2907 526.412C85.7587 525.777 85.0727 525.46 84.2327 525.46C83.3927 525.46 82.7021 525.777 82.1607 526.412Z" fill="#333333"/>
<path d="M210.35 328.58V330.4L212.17 331.8H213.64V322H212.03V329.84L210.35 328.58ZM214.761 330.26V331.8H221.411V330.26L217.491 322H215.741L219.591 330.12V330.26H214.761ZM220.855 322.77C220.855 323.05 220.944 323.283 221.121 323.47C221.308 323.657 221.536 323.75 221.807 323.75C222.115 323.75 222.358 323.638 222.535 323.414C222.722 323.19 222.815 322.859 222.815 322.42C222.815 321.701 222.642 321.151 222.297 320.768C221.961 320.376 221.504 320.18 220.925 320.18V320.88C221.205 320.88 221.424 320.959 221.583 321.118C221.751 321.267 221.835 321.468 221.835 321.72V321.804C221.826 321.813 221.821 321.832 221.821 321.86V321.902L221.737 321.874C221.709 321.865 221.648 321.86 221.555 321.86C221.368 321.86 221.205 321.944 221.065 322.112C220.925 322.28 220.855 322.499 220.855 322.77ZM223.931 324.66C223.931 325.509 224.258 326.186 224.911 326.69C225.191 326.886 225.518 327.035 225.891 327.138V327.222C225.602 327.334 225.345 327.488 225.121 327.684C224.608 328.123 224.351 328.701 224.351 329.42C224.351 330.157 224.664 330.783 225.289 331.296C225.924 331.819 226.778 332.08 227.851 332.08C228.924 332.08 229.774 331.819 230.399 331.296C231.034 330.783 231.351 330.157 231.351 329.42C231.351 328.72 231.094 328.141 230.581 327.684C230.338 327.488 230.082 327.334 229.811 327.222V327.138C230.166 327.045 230.492 326.891 230.791 326.676C231.444 326.172 231.771 325.5 231.771 324.66C231.771 323.848 231.416 323.153 230.707 322.574C230.007 322.005 229.055 321.72 227.851 321.72C226.647 321.72 225.69 322.005 224.981 322.574C224.281 323.153 223.931 323.848 223.931 324.66ZM226.031 329.28C226.031 328.869 226.19 328.533 226.507 328.272C226.824 328.011 227.272 327.88 227.851 327.88C228.43 327.88 228.878 328.011 229.195 328.272C229.512 328.533 229.671 328.869 229.671 329.28C229.671 329.653 229.508 329.966 229.181 330.218C228.864 330.479 228.42 330.61 227.851 330.61C227.282 330.61 226.834 330.479 226.507 330.218C226.19 329.966 226.031 329.653 226.031 329.28ZM226.199 325.934C225.807 325.626 225.611 325.248 225.611 324.8C225.611 324.352 225.807 323.969 226.199 323.652C226.6 323.344 227.151 323.19 227.851 323.19C228.551 323.19 229.097 323.344 229.489 323.652C229.89 323.969 230.091 324.352 230.091 324.8C230.091 325.248 229.89 325.626 229.489 325.934C229.097 326.251 228.551 326.41 227.851 326.41C227.151 326.41 226.6 326.251 226.199 325.934ZM232.746 324.8H234.426C234.492 324.511 234.618 324.254 234.804 324.03C235.224 323.517 235.822 323.26 236.596 323.26C237.24 323.26 237.749 323.419 238.122 323.736C238.505 324.063 238.696 324.464 238.696 324.94C238.696 325.481 238.524 325.906 238.178 326.214C237.842 326.531 237.362 326.69 236.736 326.69H234.356V328.09L237.296 330.19V330.26H233.236V331.8H239.676V330.274L237.156 328.44L236.456 328.16V328.09L236.68 328.118C236.988 328.146 237.17 328.16 237.226 328.16C238.104 328.16 238.836 327.857 239.424 327.25C240.012 326.643 240.306 325.873 240.306 324.94C240.306 324.044 239.961 323.283 239.27 322.658C238.58 322.033 237.688 321.72 236.596 321.72C235.15 321.72 234.081 322.233 233.39 323.26C233.092 323.699 232.877 324.212 232.746 324.8Z" fill="#333333"/>
<path d="M278.14 553.74V552.2H284.79V553.74L280.87 562H279.12L282.97 553.88V553.74H278.14ZM284.234 561.23C284.234 560.95 284.322 560.717 284.5 560.53C284.686 560.344 284.915 560.25 285.186 560.25C285.494 560.25 285.736 560.362 285.914 560.586C286.1 560.81 286.194 561.142 286.194 561.58C286.194 562.299 286.021 562.85 285.676 563.232C285.34 563.624 284.882 563.82 284.304 563.82V563.12C284.584 563.12 284.803 563.041 284.962 562.882C285.13 562.733 285.214 562.532 285.214 562.28V562.196C285.204 562.187 285.2 562.168 285.2 562.14V562.098L285.116 562.126C285.088 562.136 285.027 562.14 284.934 562.14C284.747 562.14 284.584 562.056 284.444 561.888C284.304 561.72 284.234 561.501 284.234 561.23ZM287.1 555.42V553.6L288.92 552.2H290.39V562H288.78V554.16L287.1 555.42ZM291.861 558.78C291.861 558.332 291.959 557.866 292.155 557.38C292.36 556.886 292.556 556.498 292.743 556.218C292.939 555.929 293.205 555.57 293.541 555.14L295.781 552.2H297.671L295.557 554.958L294.941 555.49V555.56L295.221 555.462C295.501 555.388 295.804 555.35 296.131 555.35C297.046 555.35 297.82 555.682 298.455 556.344C299.099 556.998 299.421 557.81 299.421 558.78C299.421 559.77 299.066 560.6 298.357 561.272C297.648 561.944 296.742 562.28 295.641 562.28C294.54 562.28 293.634 561.944 292.925 561.272C292.216 560.6 291.861 559.77 291.861 558.78ZM294.115 557.324C293.732 557.698 293.541 558.183 293.541 558.78C293.541 559.378 293.732 559.868 294.115 560.25C294.498 560.624 295.006 560.81 295.641 560.81C296.276 560.81 296.784 560.624 297.167 560.25C297.55 559.868 297.741 559.378 297.741 558.78C297.741 558.183 297.55 557.698 297.167 557.324C296.784 556.942 296.276 556.75 295.641 556.75C295.006 556.75 294.498 556.942 294.115 557.324Z" fill="#333333"/>
<rect x="53" y="666" width="30" height="53" transform="rotate(90 53 666)" fill="#5A5A5A"/>
<rect y="82" width="16" height="592" fill="#5A5A5A"/>
<rect x="108" y="265" width="16" height="92" transform="rotate(90 108 265)" fill="#5A5A5A"/>
<path d="M35.4828 364.693L34.3023 364.676L31.2363 364.693L23.645 364.693L23.645 354.736L35.4828 354.736C38.4996 354.736 40.959 356.979 40.959 359.731C40.959 362.449 38.4996 364.693 35.4828 364.693Z" fill="white" stroke="#5A5A5A" stroke-width="0.5"/>
<path d="M35.4174 363.547L34.4829 363.547L26.9244 363.547L26.9244 355.866L34.4828 355.866L35.4174 355.882C37.7948 355.882 39.7295 357.585 39.7295 359.714C39.7131 361.827 37.7784 363.547 35.4174 363.547Z" fill="white" stroke="#5A5A5A" stroke-width="0.5"/>
<path d="M17.283 352.934L22.546 352.934C23.1527 352.934 23.6445 353.426 23.6445 354.031L23.6445 365.315C23.6445 365.921 23.1527 366.413 22.546 366.413L17.283 366.413C16.6763 366.413 16.1844 365.921 16.1844 365.315L16.1844 354.048C16.1844 353.426 16.6763 352.934 17.283 352.934Z" fill="white" stroke="#5A5A5A" stroke-width="0.5"/>
<path d="M19.907 359.027C20.3168 359.027 20.6283 359.321 20.6283 359.665C20.6447 360.026 20.3168 360.32 19.907 360.32C19.4971 360.32 19.1856 360.026 19.1856 359.682C19.202 359.305 19.5135 359.01 19.907 359.027Z" fill="white" stroke="#5A5A5A" stroke-width="0.5"/>
<path d="M17.6536 322.268L29.9616 322.268C30.8173 322.268 31.5019 322.951 31.5019 323.806L31.5019 342.325C31.5019 343.18 30.8173 343.864 29.9616 343.864L17.6536 343.864C16.7978 343.864 16.1133 343.18 16.1133 342.325L16.1133 323.806C16.1133 322.966 16.7978 322.268 17.6536 322.268Z" fill="white" stroke="#5A5A5A" stroke-width="0.5"/>
<path d="M22.3452 324.191L24.2421 324.191C26.7379 324.191 28.7631 326.213 28.7631 328.706L28.7631 337.425C28.7631 339.918 26.7379 341.941 24.2421 341.941L22.3452 341.941C19.8494 341.941 17.8242 339.918 17.8242 337.425L17.8242 328.706C17.8242 326.213 19.8494 324.191 22.3452 324.191Z" fill="white" stroke="#5A5A5A" stroke-width="0.5"/>
<path d="M20.235 332.111C20.7784 332.111 21.219 332.538 21.219 333.065C21.219 333.592 20.7784 334.02 20.235 334.02C19.6915 334.02 19.251 333.592 19.251 333.065C19.251 332.538 19.6915 332.111 20.235 332.111Z" fill="white" stroke="#5A5A5A" stroke-width="0.5"/>
<path d="M17.4522 307.569L77.5729 307.569C78.3428 307.569 78.9587 306.954 78.9587 306.185L78.9587 282.318C78.9587 281.549 78.3428 280.934 77.5729 280.934L17.4522 280.934C16.6823 280.934 16.0664 281.549 16.0664 282.318L16.0664 306.185C16.0664 306.954 16.6963 307.569 17.4522 307.569Z" fill="white" stroke="#5A5A5A" stroke-width="0.5"/>
<path d="M75.2634 297.488L75.2634 291.001C75.2634 287.239 72.2119 284.205 68.4605 284.205L21.1198 284.205C20.196 284.205 19.4541 284.946 19.4541 285.869L19.4541 302.647C19.4541 303.57 20.196 304.311 21.1198 304.311L68.4465 304.311C72.2119 304.297 75.2634 301.249 75.2634 297.488Z" fill="white" stroke="#5A5A5A" stroke-width="0.5"/>
<path d="M25.0667 294.72C25.0667 295.469 24.4337 296.076 23.653 296.076C22.8722 296.076 22.2393 295.469 22.2393 294.72C22.2393 293.971 22.8722 293.364 23.653 293.364C24.4337 293.364 25.0667 293.971 25.0667 294.72Z" fill="white" stroke="#5A5A5A" stroke-width="0.5"/>
<path d="M82.5875 362.976L82.5875 384.986L61 385L61.014 362.99L82.5875 362.976Z" fill="white" stroke="#5A5A5A" stroke-width="0.5"/>
<path d="M66.2568 373.995C66.2568 377.109 68.7316 379.623 71.7935 379.623C74.8555 379.623 77.3302 377.109 77.3302 373.981C77.3302 370.867 74.8555 368.325 71.7935 368.325C68.7316 368.339 66.2568 370.881 66.2568 373.995Z" stroke="#5A5A5A" stroke-width="0.5"/>
<path d="M71.7939 369.875C70.6754 369.861 69.6687 370.322 68.9417 371.076C68.2146 371.83 67.7672 372.864 67.7533 373.981M71.7799 378.115C70.6754 378.115 69.6687 377.654 68.9277 376.914C68.2006 376.16 67.7393 375.14 67.7393 373.995L71.7799 378.115ZM71.7939 369.875C72.8984 369.875 73.9051 370.336 74.6461 371.076C75.3732 371.83 75.8206 372.864 75.8206 373.995L71.7939 369.875ZM71.7799 378.115C72.9124 378.115 73.9191 377.654 74.6322 376.914L74.6461 376.9C75.3592 376.16 75.8206 375.14 75.8206 374.009L71.7799 378.115Z" stroke="#5A5A5A" stroke-width="0.5"/>
<rect x="108" y="317" width="8" height="49" transform="rotate(-180 108 317)" fill="#5A5A5A"/>
<rect x="12" y="393" width="8" height="96" transform="rotate(-90 12 393)" fill="#5A5A5A"/>
<rect x="59" y="273" width="8" height="58" transform="rotate(-90 59 273)" fill="#5A5A5A"/>
<rect x="177" y="273" width="8" height="58" transform="rotate(-90 177 273)" fill="#5A5A5A"/>
<rect x="273" y="399" width="16" height="16" transform="rotate(180 273 399)" fill="#5A5A5A"/>
<rect x="273" y="346" width="16" height="21" transform="rotate(180 273 346)" fill="#5A5A5A"/>
<rect x="100" y="348" width="8" height="55" fill="#5A5A5A"/>
<rect x="100" y="436" width="8" height="12" fill="#5A5A5A"/>
<rect x="273" y="265" width="16" height="87" transform="rotate(90 273 265)" fill="#5A5A5A"/>
<path d="M202.75 265.25L161.709 265.275L161.697 266.75L202.75 266.75L202.75 265.25Z" stroke="#5A5A5A" stroke-width="0.5" stroke-miterlimit="10"/>
<path d="M134.306 265.25L93.2649 265.275L93.2522 266.75L134.306 266.75L134.306 265.25Z" stroke="#5A5A5A" stroke-width="0.5" stroke-miterlimit="10"/>
<path d="M168.528 263.25L127.488 263.275L127.475 264.75L168.528 264.75L168.528 263.25Z" stroke="#5A5A5A" stroke-width="0.5" stroke-miterlimit="10"/>
<rect x="273" y="281" width="16" height="224" transform="rotate(-180 273 281)" fill="#5A5A5A"/>
<rect x="118" y="445" width="16" height="102" transform="rotate(90 118 445)" fill="#5A5A5A"/>
<rect x="298" y="393" width="16" height="46" transform="rotate(90 298 393)" fill="#5A5A5A"/>
<rect x="298" y="445" width="16" height="91" transform="rotate(90 298 445)" fill="#5A5A5A"/>
<rect x="202" y="335" width="16" height="66" transform="rotate(-180 202 335)" fill="#5A5A5A"/>
<rect x="273" y="319" width="16" height="82" transform="rotate(90 273 319)" fill="#5A5A5A"/>
<circle cx="168.5" cy="376.5" r="39.5" fill="#5A5A5A"/>
<path d="M138.72 380.58C138.72 379.488 139.14 378.618 139.98 377.97C140.34 377.718 140.76 377.526 141.24 377.394V377.286C140.868 377.142 140.538 376.944 140.25 376.692C139.59 376.128 139.26 375.384 139.26 374.46C139.26 373.512 139.662 372.708 140.466 372.048C141.282 371.376 142.38 371.04 143.76 371.04C145.14 371.04 146.232 371.376 147.036 372.048C147.852 372.708 148.26 373.512 148.26 374.46C148.26 375.36 147.93 376.104 147.27 376.692C146.958 376.944 146.628 377.142 146.28 377.286V377.394C146.736 377.514 147.156 377.712 147.54 377.988C148.38 378.636 148.8 379.5 148.8 380.58C148.8 381.624 148.344 382.518 147.432 383.262C146.532 383.994 145.308 384.36 143.76 384.36C142.212 384.36 140.982 383.994 140.07 383.262C139.17 382.518 138.72 381.624 138.72 380.58ZM141.42 374.64C141.42 375.168 141.624 375.6 142.032 375.936C142.44 376.272 143.016 376.44 143.76 376.44C144.504 376.44 145.08 376.272 145.488 375.936C145.896 375.6 146.1 375.168 146.1 374.64C146.1 374.16 145.89 373.758 145.47 373.434C145.062 373.098 144.492 372.93 143.76 372.93C143.028 372.93 142.452 373.098 142.032 373.434C141.624 373.758 141.42 374.16 141.42 374.64ZM141.636 378.942C141.132 379.338 140.88 379.824 140.88 380.4C140.88 380.976 141.132 381.468 141.636 381.876C142.152 382.272 142.86 382.47 143.76 382.47C144.66 382.47 145.362 382.272 145.866 381.876C146.382 381.468 146.64 380.976 146.64 380.4C146.64 379.824 146.382 379.338 145.866 378.942C145.362 378.534 144.66 378.33 143.76 378.33C142.86 378.33 142.152 378.534 141.636 378.942ZM150.144 379.86C150.144 379.284 150.27 378.684 150.522 378.06C150.786 377.424 151.038 376.926 151.278 376.566C151.53 376.194 151.872 375.732 152.304 375.18L155.184 371.4H157.614L154.896 374.946L154.104 375.63V375.72L154.464 375.594C154.824 375.498 155.214 375.45 155.634 375.45C156.81 375.45 157.806 375.876 158.622 376.728C159.45 377.568 159.864 378.612 159.864 379.86C159.864 381.132 159.408 382.2 158.496 383.064C157.584 383.928 156.42 384.36 155.004 384.36C153.588 384.36 152.424 383.928 151.512 383.064C150.6 382.2 150.144 381.132 150.144 379.86ZM153.042 377.988C152.55 378.468 152.304 379.092 152.304 379.86C152.304 380.628 152.55 381.258 153.042 381.75C153.534 382.23 154.188 382.47 155.004 382.47C155.82 382.47 156.474 382.23 156.966 381.75C157.458 381.258 157.704 380.628 157.704 379.86C157.704 379.092 157.458 378.468 156.966 377.988C156.474 377.496 155.82 377.25 155.004 377.25C154.188 377.25 153.534 377.496 153.042 377.988ZM161.308 383.01C161.308 382.65 161.422 382.35 161.65 382.11C161.89 381.87 162.184 381.75 162.532 381.75C162.928 381.75 163.24 381.894 163.468 382.182C163.708 382.47 163.828 382.896 163.828 383.46C163.828 384.384 163.606 385.092 163.162 385.584C162.73 386.088 162.142 386.34 161.398 386.34V385.44C161.758 385.44 162.04 385.338 162.244 385.134C162.46 384.942 162.568 384.684 162.568 384.36V384.252C162.556 384.24 162.55 384.216 162.55 384.18V384.126L162.442 384.162C162.406 384.174 162.328 384.18 162.208 384.18C161.968 384.18 161.758 384.072 161.578 383.856C161.398 383.64 161.308 383.358 161.308 383.01ZM165.083 384V382.02L169.385 378.978C170.321 378.306 170.993 377.682 171.401 377.106C171.809 376.53 172.013 375.918 172.013 375.27C172.013 374.586 171.803 374.04 171.383 373.632C170.963 373.224 170.393 373.02 169.673 373.02C168.785 373.02 168.119 373.38 167.675 374.1C167.483 374.412 167.339 374.772 167.243 375.18H165.083C165.191 374.412 165.425 373.722 165.785 373.11C166.637 371.73 167.933 371.04 169.673 371.04C171.005 371.04 172.085 371.436 172.913 372.228C173.753 373.008 174.173 373.992 174.173 375.18C174.173 376.212 173.909 377.142 173.381 377.97C172.853 378.786 172.007 379.596 170.843 380.4L169.043 381.66L168.233 382.02V382.11L169.313 382.02H174.173V384H165.083ZM175.616 380.49H177.776C177.872 380.862 178.034 381.18 178.262 381.444C178.79 382.068 179.558 382.38 180.566 382.38C181.37 382.38 182.006 382.164 182.474 381.732C182.942 381.3 183.176 380.736 183.176 380.04C183.176 379.308 182.942 378.72 182.474 378.276C182.006 377.832 181.37 377.61 180.566 377.61C179.822 377.61 179.192 377.808 178.676 378.204C178.472 378.36 178.292 378.552 178.136 378.78H176.156L176.696 371.4H184.346V373.38H178.406L178.136 376.62H178.226C178.418 376.428 178.64 376.266 178.892 376.134C179.456 375.798 180.134 375.63 180.926 375.63C182.186 375.63 183.236 376.05 184.076 376.89C184.916 377.73 185.336 378.78 185.336 380.04C185.336 381.276 184.892 382.308 184.004 383.136C183.128 383.952 181.982 384.36 180.566 384.36C178.718 384.36 177.344 383.718 176.444 382.434C176.06 381.87 175.784 381.222 175.616 380.49Z" fill="white"/>
<rect x="170" y="445" width="16" height="17" transform="rotate(90 170 445)" fill="#5A5A5A"/>
<rect x="298" y="696" width="16" height="303" transform="rotate(-180 298 696)" fill="#5A5A5A"/>
<rect x="186" y="666" width="30" height="69" transform="rotate(90 186 666)" fill="#5A5A5A"/>
<rect x="298" y="666" width="30" height="42" transform="rotate(90 298 666)" fill="#5A5A5A"/>
<rect x="157" y="57" width="30" height="45" transform="rotate(90 157 57)" fill="#5A5A5A"/>
<rect x="273" y="57" width="30" height="56" transform="rotate(90 273 57)" fill="#5A5A5A"/>
<path d="M152.25 0.249967L233.718 0.312918L233.748 4.74975L152.25 4.74977L152.25 0.249967Z" stroke="#5A5A5A" stroke-width="0.5" stroke-miterlimit="10"/>
<rect width="5.00001" height="76" transform="matrix(-1 8.74228e-08 8.74228e-08 1 136 3)" fill="#5A5A5A"/>
<rect width="5.00001" height="79" transform="matrix(-1 8.74228e-08 8.74228e-08 1 245 0)" fill="#5A5A5A"/>
<rect width="5.00001" height="98" transform="matrix(1.31134e-07 1 1 -1.31134e-07 143 0)" fill="#5A5A5A"/>
<rect width="5" height="12" transform="matrix(1.31134e-07 1 1 -1.31134e-07 131 -0.000244141)" fill="#5A5A5A"/>
<path d="M127.25 71.7495L187.726 71.6867L187.749 67.2498L127.25 67.2498L127.25 71.7495Z" stroke="#5A5A5A" stroke-width="0.5" stroke-miterlimit="10"/>
<path d="M127.25 61.7495L187.726 61.6867L187.749 57.2498L127.25 57.2498L127.25 61.7495Z" stroke="#5A5A5A" stroke-width="0.5" stroke-miterlimit="10"/>
<line x1="220.255" y1="72.4299" x2="193.255" y2="88.4299" stroke="#5A5A5A"/>
<path d="M296.75 666.251L50.3492 666.402L50.2521 677.75L296.75 677.75L296.75 666.251Z" stroke="#5A5A5A" stroke-width="0.5" stroke-miterlimit="10"/>
<path d="M152.75 57.2503L16.305 57.4018L16.2512 68.75L152.75 68.75L152.75 57.2503Z" stroke="#5A5A5A" stroke-width="0.5" stroke-miterlimit="10"/>
<path d="M296.75 684.251L50.3492 684.402L50.2521 695.75L296.75 695.75L296.75 684.251Z" stroke="#5A5A5A" stroke-width="0.5" stroke-miterlimit="10"/>
<path d="M152.75 75.2503L16.305 75.4018L16.2512 86.75L152.75 86.75L152.75 75.2503Z" stroke="#5A5A5A" stroke-width="0.5" stroke-miterlimit="10"/>
<line x1="106.465" y1="313.816" x2="121.465" y2="351.816" stroke="#5A5A5A"/>
<line x1="106.553" y1="437.776" x2="122.553" y2="405.776" stroke="#5A5A5A"/>
<line x1="174.252" y1="426.568" x2="210.252" y2="447.568" stroke="#5A5A5A"/>
<line x1="174.252" y1="426.568" x2="210.252" y2="447.568" stroke="#5A5A5A"/>
<line y1="-0.5" x2="41.6773" y2="-0.5" transform="matrix(-0.863779 0.503871 0.503871 0.863779 150 427)" stroke="#5A5A5A"/>
<line x1="268.544" y1="390.794" x2="287.544" y2="348.794" stroke="#5A5A5A"/>
<path d="M35.2982 429.759L34.1177 429.742L31.0517 429.759L23.4605 429.759L23.4605 419.802L35.2982 419.802C38.3151 419.802 40.7744 422.045 40.7744 424.797C40.7744 427.515 38.3151 429.759 35.2982 429.759Z" fill="white" stroke="#5A5A5A" stroke-width="0.5"/>
<path d="M35.2329 428.613L34.2983 428.613L26.7398 428.613L26.7398 420.932L34.2983 420.932L35.2328 420.948C37.6102 420.948 39.5449 422.651 39.5449 424.78C39.5285 426.893 37.5938 428.613 35.2329 428.613Z" fill="white" stroke="#5A5A5A" stroke-width="0.5"/>
<path d="M17.0984 418L22.3614 418C22.9681 418 23.46 418.491 23.46 419.097L23.46 430.381C23.46 430.987 22.9681 431.479 22.3614 431.479L17.0984 431.479C16.4917 431.479 15.9998 430.987 15.9998 430.381L15.9998 419.114C15.9998 418.491 16.4917 418 17.0984 418Z" fill="white" stroke="#5A5A5A" stroke-width="0.5"/>
<path d="M19.7224 424.092C20.1323 424.092 20.4437 424.387 20.4437 424.731C20.4601 425.091 20.1323 425.386 19.7224 425.386C19.3125 425.386 19.001 425.091 19.001 424.748C19.0174 424.371 19.3289 424.076 19.7224 424.092Z" fill="white" stroke="#5A5A5A" stroke-width="0.5"/>
<path d="M82.1453 394.54L82.1453 406.848C82.1453 407.704 81.4615 408.389 80.6067 408.389L62.0873 408.389C61.2326 408.389 60.5488 407.704 60.5488 406.848L60.5488 394.54C60.5488 393.685 61.2326 393 62.0874 393L80.6067 393C81.4472 393 82.1453 393.685 82.1453 394.54Z" fill="white" stroke="#5A5A5A" stroke-width="0.5"/>
<path d="M80.2218 399.232L80.2218 401.129C80.2218 403.625 78.1989 405.65 75.7059 405.65L66.9875 405.65C64.4946 405.65 62.4717 403.625 62.4717 401.129L62.4717 399.232C62.4717 396.737 64.4946 394.711 66.9875 394.711L75.7059 394.711C78.1989 394.711 80.2218 396.737 80.2218 399.232Z" fill="white" stroke="#5A5A5A" stroke-width="0.5"/>
<path d="M72.3014 397.122C72.3014 397.665 71.8741 398.106 71.347 398.106C70.8199 398.106 70.3926 397.665 70.3926 397.122C70.3926 396.578 70.8199 396.138 71.347 396.138C71.8741 396.138 72.3014 396.578 72.3014 397.122Z" fill="white" stroke="#5A5A5A" stroke-width="0.5"/>
<rect x="111" y="538" width="2" height="11" transform="rotate(180 111 538)" fill="#5A5A5A"/>
<rect x="111" y="555" width="2" height="11" transform="rotate(180 111 555)" fill="#5A5A5A"/>
<rect x="100.5" y="561.5" width="2" height="11" transform="rotate(-90 100.5 561.5)" fill="#5A5A5A"/>
<rect x="83.5" y="561.5" width="2" height="11" transform="rotate(-90 83.5 561.5)" fill="#5A5A5A"/>
<rect x="66.5" y="561.5" width="2" height="11" transform="rotate(-90 66.5 561.5)" fill="#5A5A5A"/>
<rect x="49.5" y="561.5" width="2" height="11" transform="rotate(-90 49.5 561.5)" fill="#5A5A5A"/>
<rect x="32.5" y="561.5" width="2" height="11" transform="rotate(-90 32.5 561.5)" fill="#5A5A5A"/>
<rect x="15.5" y="561.5" width="2" height="11" transform="rotate(-90 15.5 561.5)" fill="#5A5A5A"/>
<rect x="111" y="521" width="2" height="11" transform="rotate(180 111 521)" fill="#5A5A5A"/>
<rect x="111" y="504" width="2" height="11" transform="rotate(180 111 504)" fill="#5A5A5A"/>
<rect x="111" y="487" width="2" height="11" transform="rotate(180 111 487)" fill="#5A5A5A"/>
<rect x="111" y="470" width="2" height="11" transform="rotate(180 111 470)" fill="#5A5A5A"/>
</svg>
