<svg width="494" height="505" viewBox="0 0 494 505" fill="none" xmlns="http://www.w3.org/2000/svg">
<path d="M158 475L411 475L411 132L158 132L158 475Z" fill="#FFF8BA"/>
<path d="M10 419L158 419L158 294H10L10 419Z" fill="#FFF8BA"/>
<path d="M212 149L402 149L275 24L212 24L212 149Z" fill="#FFF8BA"/>
<path d="M205 219V287L158 285.921V219H205Z" fill="#FFC79F"/>
<path d="M272 23V124.636L213 124V23H272Z" fill="#FFC79F"/>
<path d="M241.719 13L312.88 84.1605L271.418 126.137L200 54.7193L241.719 13Z" fill="#FFC79F"/>
<path d="M269.896 3.10355L333.444 66.6512L296.418 104.137L232.64 40.3597L269.896 3.10355Z" fill="#FFC79F"/>
<rect width="30" height="96" transform="matrix(1 -8.74228e-08 -8.74228e-08 -1 412 505)" fill="#5A5A5A"/>
<rect width="30" height="47" transform="matrix(-4.37114e-08 1 1 4.37114e-08 389 475)" fill="#5A5A5A"/>
<rect width="30" height="73" transform="matrix(-4.37114e-08 1 1 4.37114e-08 253 475)" fill="#5A5A5A"/>
<rect width="30" height="68" transform="matrix(-4.37114e-08 1 1 4.37114e-08 128 475)" fill="#5A5A5A"/>
<rect width="30" height="68" transform="matrix(-1 -8.74228e-08 -8.74228e-08 1 158 437)" fill="#5A5A5A"/>
<rect width="30" height="68" transform="matrix(1.19249e-08 1 1 -1.19249e-08 84 419)" fill="#5A5A5A"/>
<rect width="30" height="30" transform="matrix(1.19249e-08 1 1 -1.19249e-08 0 419)" fill="#5A5A5A"/>
<rect width="30" height="111" transform="matrix(1 -8.74228e-08 -8.74228e-08 -1 412 357)" fill="#5A5A5A"/>
<rect width="25" height="88" transform="matrix(-4.37114e-08 1 1 4.37114e-08 200 0.999969)" fill="#5A5A5A"/>
<rect width="30" height="38" transform="matrix(1 -8.74228e-08 -8.74228e-08 -1 412 192)" fill="#5A5A5A"/>
<path d="M493.75 178.25L493.687 259.718L489.25 259.748L489.25 178.25L493.75 178.25Z" stroke="#5A5A5A" stroke-width="0.5" stroke-miterlimit="10"/>
<rect width="5" height="74" transform="matrix(-4.37114e-08 -1 -1 4.37114e-08 494 172)" fill="#5A5A5A"/>
<rect width="5" height="74" transform="matrix(-4.37114e-08 -1 -1 4.37114e-08 494 271)" fill="#5A5A5A"/>
<rect width="5" height="15" transform="matrix(-1 8.74228e-08 8.74228e-08 1 494 254)" fill="#5A5A5A"/>
<rect width="5" height="12" transform="matrix(-1 8.74228e-08 8.74228e-08 1 494 167)" fill="#5A5A5A"/>
<path d="M427.25 150.25L427.313 210.726L431.75 210.749L431.75 150.25L427.25 150.25Z" stroke="#5A5A5A" stroke-width="0.5" stroke-miterlimit="10"/>
<path d="M437.25 150.25L437.313 210.726L441.75 210.749L441.75 150.25L437.25 150.25Z" stroke="#5A5A5A" stroke-width="0.5" stroke-miterlimit="10"/>
<line x1="426.57" y1="247.255" x2="410.57" y2="220.255" stroke="#5A5A5A"/>
<rect width="30" height="216.493" transform="matrix(0.707107 -0.707107 -0.707107 -0.707107 420.87 175.083)" fill="#5A5A5A"/>
<rect width="16" height="148" transform="matrix(-1 8.74228e-08 8.74228e-08 1 312 335)" fill="#5A5A5A"/>
<rect width="16" height="148" transform="matrix(-1 8.74228e-08 8.74228e-08 1 158 335)" fill="#5A5A5A"/>
<rect width="16" height="146" transform="matrix(-1 8.74228e-08 8.74228e-08 1 16 281)" fill="#5A5A5A"/>
<rect width="16" height="205" transform="matrix(1.19249e-08 -1 -1 -1.19249e-08 213 297)" fill="#5A5A5A"/>
<rect width="16" height="54" transform="matrix(1.19249e-08 -1 -1 -1.19249e-08 312 297)" fill="#5A5A5A"/>
<rect width="16" height="54" transform="matrix(1 0 0 -1 258 297)" fill="#5A5A5A"/>
<rect width="16" height="74" transform="matrix(1 0 0 -1 258 200)" fill="#5A5A5A"/>
<rect width="16" height="106" transform="matrix(1 0 0 -1 200 132)" fill="#5A5A5A"/>
<rect width="15" height="20" transform="matrix(-4.37114e-08 1 1 4.37114e-08 142 117)" fill="#5A5A5A"/>
<rect width="15" height="20" transform="matrix(-4.37114e-08 1 1 4.37114e-08 196 117)" fill="#5A5A5A"/>
<rect width="16" height="184" transform="matrix(1 0 0 -1 142 301)" fill="#5A5A5A"/>
<rect width="16" height="20" transform="matrix(1 0 0 -1 296 301)" fill="#5A5A5A"/>
<path d="M150 212L150 220L213 220L213 212L150 212Z" fill="#5A5A5A"/>
<path d="M253 124L253 132L274 132L274 124L253 124Z" fill="#5A5A5A"/>
<path d="M205 124L205 132L226 132L226 124L205 124Z" fill="#5A5A5A"/>
<path d="M262.247 132.596L267.904 138.253L329.081 77.0754L323.425 71.4186L262.247 132.596Z" fill="#5A5A5A"/>
<path d="M213 212L205 212L205 238L213 238L213 212Z" fill="#5A5A5A"/>
<path d="M213 265L205 265L205 291L213 291L213 265Z" fill="#5A5A5A"/>
<path d="M180.25 475.25L399.662 475.402L399.748 486.75L180.25 486.75L180.25 475.25Z" stroke="#5A5A5A" stroke-width="0.5" stroke-miterlimit="10"/>
<path d="M441.75 335.25L441.598 443.706L430.25 443.749L430.25 335.25L441.75 335.25Z" stroke="#5A5A5A" stroke-width="0.5" stroke-miterlimit="10"/>
<path d="M180.25 493.25L399.662 493.402L399.748 504.75L180.25 504.75L180.25 493.25Z" stroke="#5A5A5A" stroke-width="0.5" stroke-miterlimit="10"/>
<path d="M423.75 335.25L423.598 443.706L412.25 443.749L412.25 335.25L423.75 335.25Z" stroke="#5A5A5A" stroke-width="0.5" stroke-miterlimit="10"/>
<path d="M97.75 500.75L16.282 500.687L16.2517 496.25L97.75 496.25L97.75 500.75Z" stroke="#5A5A5A" stroke-width="0.5" stroke-miterlimit="10"/>
<rect width="5" height="74" transform="matrix(1 -8.74228e-08 -8.74228e-08 -1 104 501)" fill="#5A5A5A"/>
<rect width="5" height="74" transform="matrix(1 -8.74228e-08 -8.74228e-08 -1 5 501)" fill="#5A5A5A"/>
<rect width="5.00001" height="94" transform="matrix(-1.31134e-07 -1 -1 1.31134e-07 101 501)" fill="#5A5A5A"/>
<rect width="5" height="12" transform="matrix(-1.31134e-07 -1 -1 1.31134e-07 109 501)" fill="#5A5A5A"/>
<path d="M115.75 434.25L55.2738 434.313L55.2513 438.75L115.75 438.75L115.75 434.25Z" stroke="#5A5A5A" stroke-width="0.5" stroke-miterlimit="10"/>
<path d="M115.75 444.25L55.2738 444.313L55.2513 448.75L115.75 448.75L115.75 444.25Z" stroke="#5A5A5A" stroke-width="0.5" stroke-miterlimit="10"/>
<line x1="29.7451" y1="433.57" x2="56.7451" y2="417.57" stroke="#5A5A5A"/>
<line x1="155.575" y1="338.737" x2="176.575" y2="304.737" stroke="#5A5A5A"/>
<line x1="258.745" y1="293.43" x2="231.745" y2="277.43" stroke="#5A5A5A"/>
<line x1="211.709" y1="293.593" x2="225.709" y2="283.593" stroke="#5A5A5A"/>
<line x1="210.567" y1="265.75" x2="225.567" y2="239.75" stroke="#5A5A5A"/>
<line x1="259.557" y1="245.231" x2="247.557" y2="222.231" stroke="#5A5A5A"/>
<line x1="260.439" y1="195.239" x2="248.439" y2="217.239" stroke="#5A5A5A"/>
<line x1="298.561" y1="338.239" x2="280.561" y2="305.239" stroke="#5A5A5A"/>
<line x1="199.746" y1="120.431" x2="165.746" y2="100.431" stroke="#5A5A5A"/>
<rect x="274" y="186" width="2" height="11" transform="rotate(-90 274 186)" fill="#5A5A5A"/>
<rect x="325" y="186" width="2" height="11" transform="rotate(-90 325 186)" fill="#5A5A5A"/>
<rect x="308" y="186" width="2" height="11" transform="rotate(-90 308 186)" fill="#5A5A5A"/>
<rect x="291" y="186" width="2" height="11" transform="rotate(-90 291 186)" fill="#5A5A5A"/>
<rect x="342" y="186" width="2" height="11" transform="rotate(-90 342 186)" fill="#5A5A5A"/>
<rect x="359" y="186" width="2" height="11" transform="rotate(-90 359 186)" fill="#5A5A5A"/>
<rect x="376" y="186" width="2" height="11" transform="rotate(-90 376 186)" fill="#5A5A5A"/>
<rect x="393" y="186" width="2" height="11" transform="rotate(-90 393 186)" fill="#5A5A5A"/>
<path d="M292.2 113.918L309.875 131.592L292.675 148.792L275 131.118L292.2 113.918Z" fill="white" stroke="#5A5A5A" stroke-width="0.5"/>
<path d="M307.787 130.814L294.031 117.059C293.509 116.537 292.954 116.537 292.41 117.081L278.164 131.327C277.608 131.883 277.608 132.416 278.141 132.949L291.897 146.704C292.418 147.248 292.962 147.237 293.507 146.693L307.753 132.446C308.319 131.902 308.319 131.347 307.787 130.814Z" fill="white" stroke="#5A5A5A" stroke-width="0.5"/>
<path d="M301.924 134.146C300.647 135.401 298.616 135.434 297.383 134.202C296.14 132.958 296.173 130.927 297.439 129.661C298.716 128.384 300.737 128.361 301.98 129.605C303.224 130.848 303.201 132.869 301.924 134.146Z" stroke="#5A5A5A" stroke-width="0.5"/>
<path d="M295.096 140.931C293.819 142.186 291.787 142.219 290.555 140.987C289.312 139.744 289.345 137.712 290.611 136.446C291.888 135.169 293.909 135.147 295.152 136.39C296.407 137.622 296.384 139.665 295.096 140.931Z" stroke="#5A5A5A" stroke-width="0.5"/>
<path d="M288.723 134.558C287.446 135.834 285.425 135.857 284.182 134.613C282.938 133.37 282.972 131.338 284.237 130.072C285.514 128.818 287.546 128.784 288.779 130.016C290.011 131.249 289.989 133.292 288.723 134.558Z" stroke="#5A5A5A" stroke-width="0.5"/>
<path d="M295.529 127.751C294.252 129.028 292.232 129.05 290.988 127.807C289.745 126.564 289.778 124.532 291.044 123.266C292.321 122.011 294.353 121.978 295.585 123.21C296.818 124.442 296.795 126.485 295.529 127.751Z" stroke="#5A5A5A" stroke-width="0.5"/>
<path d="M309.371 96.7684L326.404 113.802L343.162 97.0438L326.118 80L309.371 96.7684Z" fill="white" stroke="#5A5A5A" stroke-width="0.5"/>
<path d="M315.317 100.165L324.734 109.581C325.259 110.106 325.773 110.106 326.309 109.57L338.759 97.1199C339.273 96.6055 339.284 96.0806 338.781 95.5557L329.343 86.1392C328.839 85.6143 328.314 85.6251 327.789 86.1501L315.339 98.6005C314.792 99.1041 314.792 99.6398 315.317 100.165Z" fill="white" stroke="#5A5A5A" stroke-width="0.5"/>
<path d="M318.971 89.7824C319.635 89.1395 320.653 89.1073 321.275 89.7286L325.752 95.1279L325.752 95.1493C326.127 95.5242 326.117 96.1349 325.72 96.5314C325.324 96.9278 324.713 96.9386 324.317 96.5636L318.917 92.0858C318.307 91.4752 318.328 90.4467 318.971 89.7824Z" stroke="#5A5A5A" stroke-width="0.5"/>
<mask id="path-80-inside-1_26_4515" fill="white">
<path fill-rule="evenodd" clip-rule="evenodd" d="M320.429 89.2898L322.861 92.2359C323.225 92.6215 323.225 93.2429 322.807 93.6394C322.41 94.0358 321.81 94.0358 321.425 93.6716L318.479 91.2399"/>
</mask>
<path fill-rule="evenodd" clip-rule="evenodd" d="M320.429 89.2898L322.861 92.2359C323.225 92.6215 323.225 93.2429 322.807 93.6394C322.41 94.0358 321.81 94.0358 321.425 93.6716L318.479 91.2399" fill="white"/>
<path d="M322.861 92.2359L322.497 92.5792L322.486 92.567L322.475 92.5541L322.861 92.2359ZM322.807 93.6394L322.453 93.2857L322.463 93.2766L322.807 93.6394ZM321.425 93.6716L321.743 93.286L321.756 93.2966L321.768 93.3081L321.425 93.6716ZM320.814 88.9715L323.246 91.9176L322.475 92.5541L320.043 89.6081L320.814 88.9715ZM323.224 91.8925C323.777 92.478 323.769 93.4153 323.151 94.0021L322.463 93.2766C322.68 93.0705 322.673 92.765 322.497 92.5792L323.224 91.8925ZM323.16 93.9929C322.574 94.5793 321.665 94.5864 321.081 94.0351L321.768 93.3081C321.956 93.4853 322.247 93.4922 322.453 93.2858L323.16 93.9929ZM321.107 94.0572L318.16 91.6255L318.797 90.8543L321.743 93.286L321.107 94.0572Z" fill="#5A5A5A" mask="url(#path-80-inside-1_26_4515)"/>
<path d="M216 27.322L216 84.6779C216 85.4124 216.587 86 217.321 86L240.09 86C240.824 86 241.411 85.4124 241.411 84.6779L241.411 27.322C241.411 26.5875 240.824 26 240.09 26L217.321 26C216.587 26 216 26.6009 216 27.322Z" fill="white" stroke="#5A5A5A" stroke-width="0.5"/>
<path d="M225.618 82.4742L231.807 82.4742C235.395 82.4742 238.29 79.563 238.29 75.9841L238.29 30.8205C238.29 29.9392 237.583 29.2314 236.702 29.2314L220.696 29.2314C219.815 29.2314 219.109 29.9392 219.109 30.8205L219.109 75.9707C219.122 79.563 222.03 82.4742 225.618 82.4742Z" fill="white" stroke="#5A5A5A" stroke-width="0.5"/>
<path d="M228.258 34.5865C227.544 34.5865 226.965 33.9827 226.965 33.2378C226.965 32.4929 227.544 31.8891 228.258 31.8891C228.973 31.8891 229.552 32.4929 229.552 33.2378C229.552 33.9827 228.973 34.5865 228.258 34.5865Z" fill="white" stroke="#5A5A5A" stroke-width="0.5"/>
<path d="M291.374 72.6315L292.205 71.7926L294.403 69.6556L299.819 64.3358L292.841 57.2325L284.396 65.5283C282.244 67.6424 282.062 70.9665 283.99 72.9292C285.895 74.8686 289.222 74.7457 291.374 72.6315Z" fill="white" stroke="#5A5A5A" stroke-width="0.5"/>
<path d="M290.617 71.7679L291.284 71.113L296.676 65.8161L291.293 60.3368L285.901 65.6337L285.246 66.3003C283.55 67.9663 283.364 70.5372 284.856 72.056C286.348 73.5516 288.933 73.4225 290.617 71.7679Z" fill="white" stroke="#5A5A5A" stroke-width="0.5"/>
<path d="M296.116 51.4893L292.362 55.1776C291.929 55.6028 291.923 56.2979 292.347 56.7302L300.255 64.7798C300.679 65.2121 301.375 65.2179 301.807 64.7927L305.562 61.1044C305.995 60.6793 306.001 59.9841 305.577 59.5519L297.68 51.5139C297.244 51.07 296.549 51.0642 296.116 51.4893Z" fill="white" stroke="#5A5A5A" stroke-width="0.5"/>
<path d="M298.514 57.6738C298.222 57.961 298.206 58.3896 298.447 58.635C298.688 58.9035 299.129 58.884 299.421 58.5968C299.713 58.3095 299.729 57.8809 299.488 57.6356C299.212 57.3784 298.784 57.3864 298.514 57.6738Z" fill="white" stroke="#5A5A5A" stroke-width="0.5"/>
<path d="M273.792 30.0891L265.089 38.7922C264.484 39.3973 264.483 40.3649 265.088 40.9693L278.183 54.0645C278.787 54.6689 279.755 54.6683 280.36 54.0632L289.063 45.3601C289.668 44.755 289.669 43.7875 289.064 43.1831L275.969 30.0879C275.375 29.4936 274.397 29.484 273.792 30.0891Z" fill="white" stroke="#5A5A5A" stroke-width="0.5"/>
<path d="M271.834 34.7668L270.493 36.108C268.728 37.8729 268.727 40.7353 270.489 42.4981L276.654 48.6629C278.417 50.4257 281.279 50.4241 283.044 48.6592L284.385 47.318C286.15 45.5531 286.152 42.6907 284.389 40.9279L278.224 34.7631C276.461 33.0003 273.599 33.0019 271.834 34.7668Z" fill="white" stroke="#5A5A5A" stroke-width="0.5"/>
<path d="M278.927 38.8747C278.543 39.259 278.534 39.8727 278.906 40.2454C279.279 40.6181 279.893 40.6088 280.277 40.2245C280.661 39.8402 280.671 39.2265 280.298 38.8538C279.925 38.4811 279.312 38.4905 278.927 38.8747Z" fill="white" stroke="#5A5A5A" stroke-width="0.5"/>
<path d="M177.298 256.72L176.117 256.736L173.051 256.72L165.46 256.72L165.46 266.677L177.298 266.677C180.315 266.677 182.774 264.433 182.774 261.682C182.774 258.963 180.315 256.72 177.298 256.72Z" fill="white" stroke="#5A5A5A" stroke-width="0.5"/>
<path d="M177.232 257.866L176.298 257.866L168.739 257.866L168.739 265.547L176.298 265.547L177.232 265.53C179.61 265.53 181.544 263.827 181.544 261.698C181.528 259.585 179.593 257.866 177.232 257.866Z" fill="white" stroke="#5A5A5A" stroke-width="0.5"/>
<path d="M159.099 268.478L164.362 268.478C164.968 268.478 165.46 267.987 165.46 267.381L165.46 256.097C165.46 255.491 164.968 255 164.362 255L159.099 255C158.492 255 158 255.491 158 256.097L158 267.365C158 267.987 158.492 268.478 159.099 268.478Z" fill="white" stroke="#5A5A5A" stroke-width="0.5"/>
<path d="M161.722 262.386C162.132 262.386 162.443 262.091 162.443 261.747C162.46 261.387 162.132 261.092 161.722 261.092C161.312 261.092 161.001 261.387 161.001 261.731C161.017 262.108 161.328 262.402 161.722 262.386Z" fill="white" stroke="#5A5A5A" stroke-width="0.5"/>
<path d="M173 221.54L173 233.848C173 234.704 173.684 235.389 174.539 235.389L193.058 235.389C193.913 235.389 194.596 234.704 194.596 233.848L194.596 221.54C194.596 220.685 193.913 220 193.058 220L174.539 220C173.698 220 173 220.685 173 221.54Z" fill="white" stroke="#5A5A5A" stroke-width="0.5"/>
<path d="M174.923 226.232L174.923 228.129C174.923 230.625 176.946 232.65 179.439 232.65L188.157 232.65C190.65 232.65 192.673 230.625 192.673 228.129L192.673 226.232C192.673 223.737 190.65 221.711 188.157 221.711L179.439 221.711C176.946 221.711 174.923 223.737 174.923 226.232Z" fill="white" stroke="#5A5A5A" stroke-width="0.5"/>
<path d="M182.843 224.122C182.843 224.665 183.271 225.106 183.798 225.106C184.325 225.106 184.752 224.665 184.752 224.122C184.752 223.578 184.325 223.138 183.798 223.138C183.271 223.138 182.843 223.578 182.843 224.122Z" fill="white" stroke="#5A5A5A" stroke-width="0.5"/>
<path d="M221.35 402.42V400.6L223.17 399.2H224.64V409H223.03V401.16L221.35 402.42ZM226.181 402.42C226.181 401.431 226.536 400.6 227.245 399.928C227.954 399.256 228.86 398.92 229.961 398.92C231.062 398.92 231.968 399.256 232.677 399.928C233.386 400.6 233.741 401.431 233.741 402.42C233.741 403.307 233.372 404.263 232.635 405.29C232.56 405.393 232.458 405.533 232.327 405.71C232.196 405.878 232.108 405.995 232.061 406.06L229.821 409H227.931L230.045 406.242L230.661 405.71V405.64C230.642 405.649 230.549 405.687 230.381 405.752C230.138 405.817 229.835 405.85 229.471 405.85C228.556 405.85 227.777 405.523 227.133 404.87C226.498 404.207 226.181 403.391 226.181 402.42ZM228.435 400.964C228.052 401.337 227.861 401.823 227.861 402.42C227.861 403.017 228.052 403.507 228.435 403.89C228.818 404.263 229.326 404.45 229.961 404.45C230.596 404.45 231.104 404.263 231.487 403.89C231.87 403.507 232.061 403.017 232.061 402.42C232.061 401.823 231.87 401.337 231.487 400.964C231.104 400.581 230.596 400.39 229.961 400.39C229.326 400.39 228.818 400.581 228.435 400.964ZM234.794 408.23C234.794 407.95 234.883 407.717 235.06 407.53C235.247 407.343 235.476 407.25 235.746 407.25C236.054 407.25 236.297 407.362 236.474 407.586C236.661 407.81 236.754 408.141 236.754 408.58C236.754 409.299 236.582 409.849 236.236 410.232C235.9 410.624 235.443 410.82 234.864 410.82V410.12C235.144 410.12 235.364 410.041 235.522 409.882C235.69 409.733 235.774 409.532 235.774 409.28V409.196C235.765 409.187 235.76 409.168 235.76 409.14V409.098L235.676 409.126C235.648 409.135 235.588 409.14 235.494 409.14C235.308 409.14 235.144 409.056 235.004 408.888C234.864 408.72 234.794 408.501 234.794 408.23ZM237.871 406.27H239.551C239.625 406.559 239.751 406.807 239.929 407.012C240.339 407.497 240.937 407.74 241.721 407.74C242.346 407.74 242.841 407.572 243.205 407.236C243.569 406.9 243.751 406.461 243.751 405.92C243.751 405.351 243.569 404.893 243.205 404.548C242.841 404.203 242.346 404.03 241.721 404.03C241.142 404.03 240.652 404.184 240.251 404.492C240.092 404.613 239.952 404.763 239.831 404.94H238.291L238.711 399.2H244.661V400.74H240.041L239.831 403.26H239.901C240.05 403.111 240.223 402.985 240.419 402.882C240.857 402.621 241.385 402.49 242.001 402.49C242.981 402.49 243.797 402.817 244.451 403.47C245.104 404.123 245.431 404.94 245.431 405.92C245.431 406.881 245.085 407.684 244.395 408.328C243.713 408.963 242.822 409.28 241.721 409.28C240.283 409.28 239.215 408.781 238.515 407.782C238.216 407.343 238.001 406.839 237.871 406.27ZM246.134 407.04V405.5L249.424 399.2H251.174L247.884 405.5H251.104V403.12H251.174H252.714V405.5H254.114V407.04H252.714V409H251.104V407.04H246.134Z" fill="#333333"/>
<path d="M347.42 421V419.46L350.766 417.094C351.494 416.571 352.017 416.086 352.334 415.638C352.651 415.19 352.81 414.714 352.81 414.21C352.81 413.678 352.647 413.253 352.32 412.936C351.993 412.619 351.55 412.46 350.99 412.46C350.299 412.46 349.781 412.74 349.436 413.3C349.287 413.543 349.175 413.823 349.1 414.14H347.42C347.504 413.543 347.686 413.006 347.966 412.53C348.629 411.457 349.637 410.92 350.99 410.92C352.026 410.92 352.866 411.228 353.51 411.844C354.163 412.451 354.49 413.216 354.49 414.14C354.49 414.943 354.285 415.666 353.874 416.31C353.463 416.945 352.805 417.575 351.9 418.2L350.5 419.18L349.87 419.46V419.53L350.71 419.46H354.49V421H347.42ZM355.613 418.27H357.293C357.367 418.559 357.493 418.807 357.671 419.012C358.081 419.497 358.679 419.74 359.463 419.74C360.088 419.74 360.583 419.572 360.947 419.236C361.311 418.9 361.493 418.461 361.493 417.92C361.493 417.351 361.311 416.893 360.947 416.548C360.583 416.203 360.088 416.03 359.463 416.03C358.884 416.03 358.394 416.184 357.993 416.492C357.834 416.613 357.694 416.763 357.573 416.94H356.033L356.453 411.2H362.403V412.74H357.783L357.573 415.26H357.643C357.792 415.111 357.965 414.985 358.161 414.882C358.599 414.621 359.127 414.49 359.743 414.49C360.723 414.49 361.539 414.817 362.193 415.47C362.846 416.123 363.173 416.94 363.173 417.92C363.173 418.881 362.827 419.684 362.137 420.328C361.455 420.963 360.564 421.28 359.463 421.28C358.025 421.28 356.957 420.781 356.257 419.782C355.958 419.343 355.743 418.839 355.613 418.27ZM364.226 420.23C364.226 419.95 364.315 419.717 364.492 419.53C364.679 419.343 364.907 419.25 365.178 419.25C365.486 419.25 365.729 419.362 365.906 419.586C366.093 419.81 366.186 420.141 366.186 420.58C366.186 421.299 366.013 421.849 365.668 422.232C365.332 422.624 364.875 422.82 364.296 422.82V422.12C364.576 422.12 364.795 422.041 364.954 421.882C365.122 421.733 365.206 421.532 365.206 421.28V421.196C365.197 421.187 365.192 421.168 365.192 421.14V421.098L365.108 421.126C365.08 421.135 365.019 421.14 364.926 421.14C364.739 421.14 364.576 421.056 364.436 420.888C364.296 420.72 364.226 420.501 364.226 420.23ZM367.302 418.34C367.302 417.491 367.629 416.814 368.282 416.31C368.562 416.114 368.889 415.965 369.262 415.862V415.778C368.973 415.666 368.716 415.512 368.492 415.316C367.979 414.877 367.722 414.299 367.722 413.58C367.722 412.843 368.035 412.217 368.66 411.704C369.295 411.181 370.149 410.92 371.222 410.92C372.296 410.92 373.145 411.181 373.77 411.704C374.405 412.217 374.722 412.843 374.722 413.58C374.722 414.28 374.466 414.859 373.952 415.316C373.71 415.512 373.453 415.666 373.182 415.778V415.862C373.537 415.955 373.864 416.109 374.162 416.324C374.816 416.828 375.142 417.5 375.142 418.34C375.142 419.152 374.788 419.847 374.078 420.426C373.378 420.995 372.426 421.28 371.222 421.28C370.018 421.28 369.062 420.995 368.352 420.426C367.652 419.847 367.302 419.152 367.302 418.34ZM369.402 413.72C369.402 414.131 369.561 414.467 369.878 414.728C370.196 414.989 370.644 415.12 371.222 415.12C371.801 415.12 372.249 414.989 372.566 414.728C372.884 414.467 373.042 414.131 373.042 413.72C373.042 413.347 372.879 413.034 372.552 412.782C372.235 412.521 371.792 412.39 371.222 412.39C370.653 412.39 370.205 412.521 369.878 412.782C369.561 413.034 369.402 413.347 369.402 413.72ZM369.57 417.066C369.178 417.374 368.982 417.752 368.982 418.2C368.982 418.648 369.178 419.031 369.57 419.348C369.972 419.656 370.522 419.81 371.222 419.81C371.922 419.81 372.468 419.656 372.86 419.348C373.262 419.031 373.462 418.648 373.462 418.2C373.462 417.752 373.262 417.374 372.86 417.066C372.468 416.749 371.922 416.59 371.222 416.59C370.522 416.59 369.972 416.749 369.57 417.066ZM376.257 418.34C376.257 417.491 376.584 416.814 377.237 416.31C377.517 416.114 377.844 415.965 378.217 415.862V415.778C377.928 415.666 377.671 415.512 377.447 415.316C376.934 414.877 376.677 414.299 376.677 413.58C376.677 412.843 376.99 412.217 377.615 411.704C378.25 411.181 379.104 410.92 380.177 410.92C381.251 410.92 382.1 411.181 382.725 411.704C383.36 412.217 383.677 412.843 383.677 413.58C383.677 414.28 383.421 414.859 382.907 415.316C382.665 415.512 382.408 415.666 382.137 415.778V415.862C382.492 415.955 382.819 416.109 383.117 416.324C383.771 416.828 384.097 417.5 384.097 418.34C384.097 419.152 383.743 419.847 383.033 420.426C382.333 420.995 381.381 421.28 380.177 421.28C378.973 421.28 378.017 420.995 377.307 420.426C376.607 419.847 376.257 419.152 376.257 418.34ZM378.357 413.72C378.357 414.131 378.516 414.467 378.833 414.728C379.151 414.989 379.599 415.12 380.177 415.12C380.756 415.12 381.204 414.989 381.521 414.728C381.839 414.467 381.997 414.131 381.997 413.72C381.997 413.347 381.834 413.034 381.507 412.782C381.19 412.521 380.747 412.39 380.177 412.39C379.608 412.39 379.16 412.521 378.833 412.782C378.516 413.034 378.357 413.347 378.357 413.72ZM378.525 417.066C378.133 417.374 377.937 417.752 377.937 418.2C377.937 418.648 378.133 419.031 378.525 419.348C378.927 419.656 379.477 419.81 380.177 419.81C380.877 419.81 381.423 419.656 381.815 419.348C382.217 419.031 382.417 418.648 382.417 418.2C382.417 417.752 382.217 417.374 381.815 417.066C381.423 416.749 380.877 416.59 380.177 416.59C379.477 416.59 378.927 416.749 378.525 417.066Z" fill="#333333"/>
<path d="M446.42 231.2H448.1C448.165 231.489 448.291 231.746 448.478 231.97C448.898 232.483 449.495 232.74 450.27 232.74C450.914 232.74 451.423 232.581 451.796 232.264C452.179 231.937 452.37 231.536 452.37 231.06C452.37 230.519 452.197 230.094 451.852 229.786C451.516 229.469 451.035 229.31 450.41 229.31H448.03V227.91L450.97 225.81V225.74H446.91V224.2H453.35V225.726L450.83 227.56L450.13 227.84V227.91L450.354 227.882C450.662 227.854 450.844 227.84 450.9 227.84C451.777 227.84 452.51 228.143 453.098 228.75C453.686 229.357 453.98 230.127 453.98 231.06C453.98 231.956 453.635 232.717 452.944 233.342C452.253 233.967 451.362 234.28 450.27 234.28C448.823 234.28 447.755 233.767 447.064 232.74C446.765 232.301 446.551 231.788 446.42 231.2ZM455.037 233.23C455.037 232.95 455.125 232.717 455.303 232.53C455.489 232.343 455.718 232.25 455.989 232.25C456.297 232.25 456.539 232.362 456.717 232.586C456.903 232.81 456.997 233.141 456.997 233.58C456.997 234.299 456.824 234.849 456.479 235.232C456.143 235.624 455.685 235.82 455.107 235.82V235.12C455.387 235.12 455.606 235.041 455.765 234.882C455.933 234.733 456.017 234.532 456.017 234.28V234.196C456.007 234.187 456.003 234.168 456.003 234.14V234.098L455.919 234.126C455.891 234.135 455.83 234.14 455.737 234.14C455.55 234.14 455.387 234.056 455.247 233.888C455.107 233.72 455.037 233.501 455.037 233.23ZM458.043 230.78C458.043 230.332 458.141 229.865 458.337 229.38C458.542 228.885 458.738 228.498 458.925 228.218C459.121 227.929 459.387 227.569 459.723 227.14L461.963 224.2H463.853L461.739 226.958L461.123 227.49V227.56L461.403 227.462C461.683 227.387 461.986 227.35 462.313 227.35C463.227 227.35 464.002 227.681 464.637 228.344C465.281 228.997 465.603 229.809 465.603 230.78C465.603 231.769 465.248 232.6 464.539 233.272C463.829 233.944 462.924 234.28 461.823 234.28C460.721 234.28 459.816 233.944 459.107 233.272C458.397 232.6 458.043 231.769 458.043 230.78ZM460.297 229.324C459.914 229.697 459.723 230.183 459.723 230.78C459.723 231.377 459.914 231.867 460.297 232.25C460.679 232.623 461.188 232.81 461.823 232.81C462.457 232.81 462.966 232.623 463.349 232.25C463.731 231.867 463.923 231.377 463.923 230.78C463.923 230.183 463.731 229.697 463.349 229.324C462.966 228.941 462.457 228.75 461.823 228.75C461.188 228.75 460.679 228.941 460.297 229.324ZM466.656 230.78C466.656 230.332 466.754 229.865 466.95 229.38C467.155 228.885 467.351 228.498 467.538 228.218C467.734 227.929 468 227.569 468.336 227.14L470.576 224.2H472.466L470.352 226.958L469.736 227.49V227.56L470.016 227.462C470.296 227.387 470.599 227.35 470.926 227.35C471.841 227.35 472.615 227.681 473.25 228.344C473.894 228.997 474.216 229.809 474.216 230.78C474.216 231.769 473.861 232.6 473.152 233.272C472.443 233.944 471.537 234.28 470.436 234.28C469.335 234.28 468.429 233.944 467.72 233.272C467.011 232.6 466.656 231.769 466.656 230.78ZM468.91 229.324C468.527 229.697 468.336 230.183 468.336 230.78C468.336 231.377 468.527 231.867 468.91 232.25C469.293 232.623 469.801 232.81 470.436 232.81C471.071 232.81 471.579 232.623 471.962 232.25C472.345 231.867 472.536 231.377 472.536 230.78C472.536 230.183 472.345 229.697 471.962 229.324C471.579 228.941 471.071 228.75 470.436 228.75C469.801 228.75 469.293 228.941 468.91 229.324Z" fill="#333333"/>
<path d="M64.35 360.42V358.6L66.17 357.2H67.64V367H66.03V359.16L64.35 360.42ZM69.0411 367V365.46L72.3871 363.094C73.1151 362.571 73.6378 362.086 73.9551 361.638C74.2724 361.19 74.4311 360.714 74.4311 360.21C74.4311 359.678 74.2678 359.253 73.9411 358.936C73.6144 358.619 73.1711 358.46 72.6111 358.46C71.9204 358.46 71.4024 358.74 71.0571 359.3C70.9078 359.543 70.7958 359.823 70.7211 360.14H69.0411C69.1251 359.543 69.3071 359.006 69.5871 358.53C70.2498 357.457 71.2578 356.92 72.6111 356.92C73.6471 356.92 74.4871 357.228 75.1311 357.844C75.7844 358.451 76.1111 359.216 76.1111 360.14C76.1111 360.943 75.9058 361.666 75.4951 362.31C75.0844 362.945 74.4264 363.575 73.5211 364.2L72.1211 365.18L71.4911 365.46V365.53L72.3311 365.46H76.1111V367H69.0411ZM77.2338 366.23C77.2338 365.95 77.3225 365.717 77.4998 365.53C77.6865 365.343 77.9152 365.25 78.1858 365.25C78.4938 365.25 78.7365 365.362 78.9138 365.586C79.1005 365.81 79.1938 366.141 79.1938 366.58C79.1938 367.299 79.0212 367.849 78.6758 368.232C78.3398 368.624 77.8825 368.82 77.3038 368.82V368.12C77.5838 368.12 77.8032 368.041 77.9618 367.882C78.1298 367.733 78.2138 367.532 78.2138 367.28V367.196C78.2045 367.187 78.1998 367.168 78.1998 367.14V367.098L78.1158 367.126C78.0878 367.135 78.0272 367.14 77.9338 367.14C77.7472 367.14 77.5838 367.056 77.4438 366.888C77.3038 366.72 77.2338 366.501 77.2338 366.23ZM80.24 363.78C80.24 363.332 80.338 362.865 80.534 362.38C80.7393 361.885 80.9353 361.498 81.122 361.218C81.318 360.929 81.584 360.569 81.92 360.14L84.16 357.2H86.05L83.936 359.958L83.32 360.49V360.56L83.6 360.462C83.88 360.387 84.1833 360.35 84.51 360.35C85.4247 360.35 86.1993 360.681 86.834 361.344C87.478 361.997 87.8 362.809 87.8 363.78C87.8 364.769 87.4453 365.6 86.736 366.272C86.0267 366.944 85.1213 367.28 84.02 367.28C82.9187 367.28 82.0133 366.944 81.304 366.272C80.5947 365.6 80.24 364.769 80.24 363.78ZM82.494 362.324C82.1113 362.697 81.92 363.183 81.92 363.78C81.92 364.377 82.1113 364.867 82.494 365.25C82.8767 365.623 83.3853 365.81 84.02 365.81C84.6547 365.81 85.1633 365.623 85.546 365.25C85.9287 364.867 86.12 364.377 86.12 363.78C86.12 363.183 85.9287 362.697 85.546 362.324C85.1633 361.941 84.6547 361.75 84.02 361.75C83.3853 361.75 82.8767 361.941 82.494 362.324ZM87.806 358.74V357.2H94.456V358.74L90.536 367H88.786L92.636 358.88V358.74H87.806Z" fill="#333333"/>
<path d="M39.42 480.2H41.1C41.1653 480.489 41.2913 480.746 41.478 480.97C41.898 481.483 42.4953 481.74 43.27 481.74C43.914 481.74 44.4227 481.581 44.796 481.264C45.1787 480.937 45.37 480.536 45.37 480.06C45.37 479.519 45.1973 479.094 44.852 478.786C44.516 478.469 44.0353 478.31 43.41 478.31H41.03V476.91L43.97 474.81V474.74H39.91V473.2H46.35V474.726L43.83 476.56L43.13 476.84V476.91L43.354 476.882C43.662 476.854 43.844 476.84 43.9 476.84C44.7773 476.84 45.51 477.143 46.098 477.75C46.686 478.357 46.98 479.127 46.98 480.06C46.98 480.956 46.6347 481.717 45.944 482.342C45.2533 482.967 44.362 483.28 43.27 483.28C41.8233 483.28 40.7547 482.767 40.064 481.74C39.7653 481.301 39.5507 480.788 39.42 480.2ZM48.0366 482.23C48.0366 481.95 48.1252 481.717 48.3026 481.53C48.4892 481.343 48.7179 481.25 48.9886 481.25C49.2966 481.25 49.5392 481.362 49.7166 481.586C49.9032 481.81 49.9966 482.141 49.9966 482.58C49.9966 483.299 49.8239 483.849 49.4786 484.232C49.1426 484.624 48.6852 484.82 48.1066 484.82V484.12C48.3866 484.12 48.6059 484.041 48.7646 483.882C48.9326 483.733 49.0166 483.532 49.0166 483.28V483.196C49.0072 483.187 49.0026 483.168 49.0026 483.14V483.098L48.9186 483.126C48.8906 483.135 48.8299 483.14 48.7366 483.14C48.5499 483.14 48.3866 483.056 48.2466 482.888C48.1066 482.72 48.0366 482.501 48.0366 482.23ZM51.0427 479.78C51.0427 479.332 51.1407 478.865 51.3367 478.38C51.5421 477.885 51.7381 477.498 51.9247 477.218C52.1207 476.929 52.3867 476.569 52.7227 476.14L54.9627 473.2H56.8527L54.7387 475.958L54.1227 476.49V476.56L54.4027 476.462C54.6827 476.387 54.9861 476.35 55.3127 476.35C56.2274 476.35 57.0021 476.681 57.6367 477.344C58.2807 477.997 58.6027 478.809 58.6027 479.78C58.6027 480.769 58.2481 481.6 57.5387 482.272C56.8294 482.944 55.9241 483.28 54.8227 483.28C53.7214 483.28 52.8161 482.944 52.1067 482.272C51.3974 481.6 51.0427 480.769 51.0427 479.78ZM53.2967 478.324C52.9141 478.697 52.7227 479.183 52.7227 479.78C52.7227 480.377 52.9141 480.867 53.2967 481.25C53.6794 481.623 54.1881 481.81 54.8227 481.81C55.4574 481.81 55.9661 481.623 56.3487 481.25C56.7314 480.867 56.9227 480.377 56.9227 479.78C56.9227 479.183 56.7314 478.697 56.3487 478.324C55.9661 477.941 55.4574 477.75 54.8227 477.75C54.1881 477.75 53.6794 477.941 53.2967 478.324ZM59.656 479.78C59.656 479.332 59.754 478.865 59.95 478.38C60.1553 477.885 60.3513 477.498 60.538 477.218C60.734 476.929 61 476.569 61.336 476.14L63.576 473.2H65.466L63.352 475.958L62.736 476.49V476.56L63.016 476.462C63.296 476.387 63.5993 476.35 63.926 476.35C64.8407 476.35 65.6153 476.681 66.25 477.344C66.894 477.997 67.216 478.809 67.216 479.78C67.216 480.769 66.8613 481.6 66.152 482.272C65.4427 482.944 64.5373 483.28 63.436 483.28C62.3347 483.28 61.4293 482.944 60.72 482.272C60.0107 481.6 59.656 480.769 59.656 479.78ZM61.91 478.324C61.5273 478.697 61.336 479.183 61.336 479.78C61.336 480.377 61.5273 480.867 61.91 481.25C62.2927 481.623 62.8013 481.81 63.436 481.81C64.0707 481.81 64.5793 481.623 64.962 481.25C65.3447 480.867 65.536 480.377 65.536 479.78C65.536 479.183 65.3447 478.697 64.962 478.324C64.5793 477.941 64.0707 477.75 63.436 477.75C62.8013 477.75 62.2927 477.941 61.91 478.324Z" fill="#333333"/>
<path d="M174.42 251V249.46L177.766 247.094C178.494 246.571 179.017 246.086 179.334 245.638C179.651 245.19 179.81 244.714 179.81 244.21C179.81 243.678 179.647 243.253 179.32 242.936C178.993 242.619 178.55 242.46 177.99 242.46C177.299 242.46 176.781 242.74 176.436 243.3C176.287 243.543 176.175 243.823 176.1 244.14H174.42C174.504 243.543 174.686 243.006 174.966 242.53C175.629 241.457 176.637 240.92 177.99 240.92C179.026 240.92 179.866 241.228 180.51 241.844C181.163 242.451 181.49 243.216 181.49 244.14C181.49 244.943 181.285 245.666 180.874 246.31C180.463 246.945 179.805 247.575 178.9 248.2L177.5 249.18L176.87 249.46V249.53L177.71 249.46H181.49V251H174.42ZM182.613 250.23C182.613 249.95 182.701 249.717 182.879 249.53C183.065 249.343 183.294 249.25 183.565 249.25C183.873 249.25 184.115 249.362 184.293 249.586C184.479 249.81 184.573 250.141 184.573 250.58C184.573 251.299 184.4 251.849 184.055 252.232C183.719 252.624 183.261 252.82 182.683 252.82V252.12C182.963 252.12 183.182 252.041 183.341 251.882C183.509 251.733 183.593 251.532 183.593 251.28V251.196C183.583 251.187 183.579 251.168 183.579 251.14V251.098L183.495 251.126C183.467 251.135 183.406 251.14 183.313 251.14C183.126 251.14 182.963 251.056 182.823 250.888C182.683 250.72 182.613 250.501 182.613 250.23ZM185.339 249.04V247.5L188.629 241.2H190.379L187.089 247.5H190.309V245.12H190.379H191.919V247.5H193.319V249.04H191.919V251H190.309V249.04H185.339ZM195.278 249.824C194.392 248.853 193.948 247.612 193.948 246.1C193.948 244.588 194.392 243.347 195.278 242.376C196.165 241.405 197.238 240.92 198.498 240.92C199.758 240.92 200.832 241.405 201.718 242.376C202.605 243.347 203.048 244.588 203.048 246.1C203.048 247.612 202.605 248.853 201.718 249.824C200.832 250.795 199.758 251.28 198.498 251.28C197.238 251.28 196.165 250.795 195.278 249.824ZM196.426 243.412C195.894 244.047 195.628 244.943 195.628 246.1C195.628 247.257 195.894 248.153 196.426 248.788C196.968 249.423 197.658 249.74 198.498 249.74C199.338 249.74 200.024 249.423 200.556 248.788C201.098 248.153 201.368 247.257 201.368 246.1C201.368 244.943 201.098 244.047 200.556 243.412C200.024 242.777 199.338 242.46 198.498 242.46C197.658 242.46 196.968 242.777 196.426 243.412Z" fill="#333333"/>
<path d="M175.56 171.34C175.56 170.491 175.887 169.814 176.54 169.31C176.82 169.114 177.147 168.965 177.52 168.862V168.778C177.231 168.666 176.974 168.512 176.75 168.316C176.237 167.877 175.98 167.299 175.98 166.58C175.98 165.843 176.293 165.217 176.918 164.704C177.553 164.181 178.407 163.92 179.48 163.92C180.553 163.92 181.403 164.181 182.028 164.704C182.663 165.217 182.98 165.843 182.98 166.58C182.98 167.28 182.723 167.859 182.21 168.316C181.967 168.512 181.711 168.666 181.44 168.778V168.862C181.795 168.955 182.121 169.109 182.42 169.324C183.073 169.828 183.4 170.5 183.4 171.34C183.4 172.152 183.045 172.847 182.336 173.426C181.636 173.995 180.684 174.28 179.48 174.28C178.276 174.28 177.319 173.995 176.61 173.426C175.91 172.847 175.56 172.152 175.56 171.34ZM177.66 166.72C177.66 167.131 177.819 167.467 178.136 167.728C178.453 167.989 178.901 168.12 179.48 168.12C180.059 168.12 180.507 167.989 180.824 167.728C181.141 167.467 181.3 167.131 181.3 166.72C181.3 166.347 181.137 166.034 180.81 165.782C180.493 165.521 180.049 165.39 179.48 165.39C178.911 165.39 178.463 165.521 178.136 165.782C177.819 166.034 177.66 166.347 177.66 166.72ZM177.828 170.066C177.436 170.374 177.24 170.752 177.24 171.2C177.24 171.648 177.436 172.031 177.828 172.348C178.229 172.656 178.78 172.81 179.48 172.81C180.18 172.81 180.726 172.656 181.118 172.348C181.519 172.031 181.72 171.648 181.72 171.2C181.72 170.752 181.519 170.374 181.118 170.066C180.726 169.749 180.18 169.59 179.48 169.59C178.78 169.59 178.229 169.749 177.828 170.066ZM184.515 173.23C184.515 172.95 184.604 172.717 184.781 172.53C184.968 172.343 185.196 172.25 185.467 172.25C185.775 172.25 186.018 172.362 186.195 172.586C186.382 172.81 186.475 173.141 186.475 173.58C186.475 174.299 186.302 174.849 185.957 175.232C185.621 175.624 185.164 175.82 184.585 175.82V175.12C184.865 175.12 185.084 175.041 185.243 174.882C185.411 174.733 185.495 174.532 185.495 174.28V174.196C185.486 174.187 185.481 174.168 185.481 174.14V174.098L185.397 174.126C185.369 174.135 185.308 174.14 185.215 174.14C185.028 174.14 184.865 174.056 184.725 173.888C184.585 173.72 184.515 173.501 184.515 173.23ZM187.591 167.42C187.591 166.431 187.946 165.6 188.655 164.928C189.365 164.256 190.27 163.92 191.371 163.92C192.473 163.92 193.378 164.256 194.087 164.928C194.797 165.6 195.151 166.431 195.151 167.42C195.151 168.307 194.783 169.263 194.045 170.29C193.971 170.393 193.868 170.533 193.737 170.71C193.607 170.878 193.518 170.995 193.471 171.06L191.231 174H189.341L191.455 171.242L192.071 170.71V170.64C192.053 170.649 191.959 170.687 191.791 170.752C191.549 170.817 191.245 170.85 190.881 170.85C189.967 170.85 189.187 170.523 188.543 169.87C187.909 169.207 187.591 168.391 187.591 167.42ZM189.845 165.964C189.463 166.337 189.271 166.823 189.271 167.42C189.271 168.017 189.463 168.507 189.845 168.89C190.228 169.263 190.737 169.45 191.371 169.45C192.006 169.45 192.515 169.263 192.897 168.89C193.28 168.507 193.471 168.017 193.471 167.42C193.471 166.823 193.28 166.337 192.897 165.964C192.515 165.581 192.006 165.39 191.371 165.39C190.737 165.39 190.228 165.581 189.845 165.964ZM197.605 172.824C196.718 171.853 196.275 170.612 196.275 169.1C196.275 167.588 196.718 166.347 197.605 165.376C198.491 164.405 199.565 163.92 200.825 163.92C202.085 163.92 203.158 164.405 204.045 165.376C204.931 166.347 205.375 167.588 205.375 169.1C205.375 170.612 204.931 171.853 204.045 172.824C203.158 173.795 202.085 174.28 200.825 174.28C199.565 174.28 198.491 173.795 197.605 172.824ZM198.753 166.412C198.221 167.047 197.955 167.943 197.955 169.1C197.955 170.257 198.221 171.153 198.753 171.788C199.294 172.423 199.985 172.74 200.825 172.74C201.665 172.74 202.351 172.423 202.883 171.788C203.424 171.153 203.695 170.257 203.695 169.1C203.695 167.943 203.424 167.047 202.883 166.412C202.351 165.777 201.665 165.46 200.825 165.46C199.985 165.46 199.294 165.777 198.753 166.412Z" fill="#333333"/>
<path d="M253.49 91.78C253.49 91.332 253.588 90.8653 253.784 90.38C253.989 89.8853 254.185 89.498 254.372 89.218C254.568 88.9286 254.834 88.5693 255.17 88.14L257.41 85.2H259.3L257.186 87.958L256.57 88.49V88.56L256.85 88.462C257.13 88.3873 257.433 88.35 257.76 88.35C258.675 88.35 259.449 88.6813 260.084 89.344C260.728 89.9973 261.05 90.8093 261.05 91.78C261.05 92.7693 260.695 93.6 259.986 94.272C259.277 94.944 258.371 95.28 257.27 95.28C256.169 95.28 255.263 94.944 254.554 94.272C253.845 93.6 253.49 92.7693 253.49 91.78ZM255.744 90.324C255.361 90.6973 255.17 91.1826 255.17 91.78C255.17 92.3773 255.361 92.8673 255.744 93.25C256.127 93.6233 256.635 93.81 257.27 93.81C257.905 93.81 258.413 93.6233 258.796 93.25C259.179 92.8673 259.37 92.3773 259.37 91.78C259.37 91.1826 259.179 90.6973 258.796 90.324C258.413 89.9413 257.905 89.75 257.27 89.75C256.635 89.75 256.127 89.9413 255.744 90.324ZM262.173 94.23C262.173 93.95 262.262 93.7166 262.439 93.53C262.626 93.3433 262.855 93.25 263.125 93.25C263.433 93.25 263.676 93.362 263.853 93.586C264.04 93.81 264.133 94.1413 264.133 94.58C264.133 95.2986 263.961 95.8493 263.615 96.232C263.279 96.624 262.822 96.82 262.243 96.82V96.12C262.523 96.12 262.743 96.0406 262.901 95.882C263.069 95.7326 263.153 95.532 263.153 95.28V95.196C263.144 95.1866 263.139 95.168 263.139 95.14V95.098L263.055 95.126C263.027 95.1353 262.967 95.14 262.873 95.14C262.687 95.14 262.523 95.056 262.383 94.888C262.243 94.72 262.173 94.5006 262.173 94.23ZM265.249 92.27H266.929C267.004 92.5593 267.13 92.8066 267.307 93.012C267.718 93.4973 268.315 93.74 269.099 93.74C269.725 93.74 270.219 93.572 270.583 93.236C270.947 92.9 271.129 92.4613 271.129 91.92C271.129 91.3506 270.947 90.8933 270.583 90.548C270.219 90.2026 269.725 90.03 269.099 90.03C268.521 90.03 268.031 90.184 267.629 90.492C267.471 90.6133 267.331 90.7626 267.209 90.94H265.669L266.089 85.2H272.039V86.74H267.419L267.209 89.26H267.279C267.429 89.1106 267.601 88.9846 267.797 88.882C268.236 88.6206 268.763 88.49 269.379 88.49C270.359 88.49 271.176 88.8166 271.829 89.47C272.483 90.1233 272.809 90.94 272.809 91.92C272.809 92.8813 272.464 93.684 271.773 94.328C271.092 94.9626 270.201 95.28 269.099 95.28C267.662 95.28 266.593 94.7806 265.893 93.782C265.595 93.3433 265.38 92.8393 265.249 92.27ZM273.863 92.27H275.543C275.617 92.5593 275.743 92.8066 275.921 93.012C276.331 93.4973 276.929 93.74 277.713 93.74C278.338 93.74 278.833 93.572 279.197 93.236C279.561 92.9 279.743 92.4613 279.743 91.92C279.743 91.3506 279.561 90.8933 279.197 90.548C278.833 90.2026 278.338 90.03 277.713 90.03C277.134 90.03 276.644 90.184 276.243 90.492C276.084 90.6133 275.944 90.7626 275.823 90.94H274.283L274.703 85.2H280.653V86.74H276.033L275.823 89.26H275.893C276.042 89.1106 276.215 88.9846 276.411 88.882C276.849 88.6206 277.377 88.49 277.993 88.49C278.973 88.49 279.789 88.8166 280.443 89.47C281.096 90.1233 281.423 90.94 281.423 91.92C281.423 92.8813 281.077 93.684 280.387 94.328C279.705 94.9626 278.814 95.28 277.713 95.28C276.275 95.28 275.207 94.7806 274.507 93.782C274.208 93.3433 273.993 92.8393 273.863 92.27Z" fill="#333333"/>
<path d="M324.14 152.74V151.2H330.79V152.74L326.87 161H325.12L328.97 152.88V152.74H324.14ZM330.234 160.23C330.234 159.95 330.322 159.717 330.5 159.53C330.686 159.343 330.915 159.25 331.186 159.25C331.494 159.25 331.736 159.362 331.914 159.586C332.1 159.81 332.194 160.141 332.194 160.58C332.194 161.299 332.021 161.849 331.676 162.232C331.34 162.624 330.882 162.82 330.304 162.82V162.12C330.584 162.12 330.803 162.041 330.962 161.882C331.13 161.733 331.214 161.532 331.214 161.28V161.196C331.204 161.187 331.2 161.168 331.2 161.14V161.098L331.116 161.126C331.088 161.135 331.027 161.14 330.934 161.14C330.747 161.14 330.584 161.056 330.444 160.888C330.304 160.72 330.234 160.501 330.234 160.23ZM332.96 159.04V157.5L336.25 151.2H338L334.71 157.5H337.93V155.12H338H339.54V157.5H340.94V159.04H339.54V161H337.93V159.04H332.96ZM341.359 158.2H343.039C343.105 158.489 343.231 158.746 343.417 158.97C343.837 159.483 344.435 159.74 345.209 159.74C345.853 159.74 346.362 159.581 346.735 159.264C347.118 158.937 347.309 158.536 347.309 158.06C347.309 157.519 347.137 157.094 346.791 156.786C346.455 156.469 345.975 156.31 345.349 156.31H342.969V154.91L345.909 152.81V152.74H341.849V151.2H348.289V152.726L345.769 154.56L345.069 154.84V154.91L345.293 154.882C345.601 154.854 345.783 154.84 345.839 154.84C346.717 154.84 347.449 155.143 348.037 155.75C348.625 156.357 348.919 157.127 348.919 158.06C348.919 158.956 348.574 159.717 347.883 160.342C347.193 160.967 346.301 161.28 345.209 161.28C343.763 161.28 342.694 160.767 342.003 159.74C341.705 159.301 341.49 158.788 341.359 158.2Z" fill="#333333"/>
<circle cx="342.5" cy="239.5" r="39.5" fill="#5A5A5A"/>
<path d="M316.72 243.58C316.72 242.488 317.14 241.618 317.98 240.97C318.34 240.718 318.76 240.526 319.24 240.394V240.286C318.868 240.142 318.538 239.944 318.25 239.692C317.59 239.128 317.26 238.384 317.26 237.46C317.26 236.512 317.662 235.708 318.466 235.048C319.282 234.376 320.38 234.04 321.76 234.04C323.14 234.04 324.232 234.376 325.036 235.048C325.852 235.708 326.26 236.512 326.26 237.46C326.26 238.36 325.93 239.104 325.27 239.692C324.958 239.944 324.628 240.142 324.28 240.286V240.394C324.736 240.514 325.156 240.712 325.54 240.988C326.38 241.636 326.8 242.5 326.8 243.58C326.8 244.624 326.344 245.518 325.432 246.262C324.532 246.994 323.308 247.36 321.76 247.36C320.212 247.36 318.982 246.994 318.07 246.262C317.17 245.518 316.72 244.624 316.72 243.58ZM319.42 237.64C319.42 238.168 319.624 238.6 320.032 238.936C320.44 239.272 321.016 239.44 321.76 239.44C322.504 239.44 323.08 239.272 323.488 238.936C323.896 238.6 324.1 238.168 324.1 237.64C324.1 237.16 323.89 236.758 323.47 236.434C323.062 236.098 322.492 235.93 321.76 235.93C321.028 235.93 320.452 236.098 320.032 236.434C319.624 236.758 319.42 237.16 319.42 237.64ZM319.636 241.942C319.132 242.338 318.88 242.824 318.88 243.4C318.88 243.976 319.132 244.468 319.636 244.876C320.152 245.272 320.86 245.47 321.76 245.47C322.66 245.47 323.362 245.272 323.866 244.876C324.382 244.468 324.64 243.976 324.64 243.4C324.64 242.824 324.382 242.338 323.866 241.942C323.362 241.534 322.66 241.33 321.76 241.33C320.86 241.33 320.152 241.534 319.636 241.942ZM328.054 243.4H330.214C330.298 243.772 330.46 244.102 330.7 244.39C331.24 245.05 332.008 245.38 333.004 245.38C333.832 245.38 334.486 245.176 334.966 244.768C335.458 244.348 335.704 243.832 335.704 243.22C335.704 242.524 335.482 241.978 335.038 241.582C334.606 241.174 333.988 240.97 333.184 240.97H330.124V239.17L333.904 236.47V236.38H328.684V234.4H336.964V236.362L333.724 238.72L332.824 239.08V239.17L333.112 239.134C333.508 239.098 333.742 239.08 333.814 239.08C334.942 239.08 335.884 239.47 336.64 240.25C337.396 241.03 337.774 242.02 337.774 243.22C337.774 244.372 337.33 245.35 336.442 246.154C335.554 246.958 334.408 247.36 333.004 247.36C331.144 247.36 329.77 246.7 328.882 245.38C328.498 244.816 328.222 244.156 328.054 243.4ZM339.132 246.01C339.132 245.65 339.246 245.35 339.474 245.11C339.714 244.87 340.008 244.75 340.356 244.75C340.752 244.75 341.064 244.894 341.292 245.182C341.532 245.47 341.652 245.896 341.652 246.46C341.652 247.384 341.43 248.092 340.986 248.584C340.554 249.088 339.966 249.34 339.222 249.34V248.44C339.582 248.44 339.864 248.338 340.068 248.134C340.284 247.942 340.392 247.684 340.392 247.36V247.252C340.38 247.24 340.374 247.216 340.374 247.18V247.126L340.266 247.162C340.23 247.174 340.152 247.18 340.032 247.18C339.792 247.18 339.582 247.072 339.402 246.856C339.222 246.64 339.132 246.358 339.132 246.01ZM342.907 243.4H345.067C345.151 243.772 345.313 244.102 345.553 244.39C346.093 245.05 346.861 245.38 347.857 245.38C348.685 245.38 349.339 245.176 349.819 244.768C350.311 244.348 350.557 243.832 350.557 243.22C350.557 242.524 350.335 241.978 349.891 241.582C349.459 241.174 348.841 240.97 348.037 240.97H344.977V239.17L348.757 236.47V236.38H343.537V234.4H351.817V236.362L348.577 238.72L347.677 239.08V239.17L347.965 239.134C348.361 239.098 348.595 239.08 348.667 239.08C349.795 239.08 350.737 239.47 351.493 240.25C352.249 241.03 352.627 242.02 352.627 243.22C352.627 244.372 352.183 245.35 351.295 246.154C350.407 246.958 349.261 247.36 347.857 247.36C345.997 247.36 344.623 246.7 343.735 245.38C343.351 244.816 343.075 244.156 342.907 243.4ZM353.446 236.38V234.4H361.996V236.38L356.956 247H354.706L359.656 236.56V236.38H353.446Z" fill="white"/>
<line x1="255.25" y1="130.433" x2="229.25" y2="145.433" stroke="#5A5A5A"/>
</svg>
