<svg width="542" height="337" viewBox="0 0 542 337" fill="none" xmlns="http://www.w3.org/2000/svg">
<path d="M219 30L219 276L0 276L1.0753e-05 30L219 30Z" fill="#FFF8BA"/>
<path d="M460 30V247L170 247L170 30L460 30Z" fill="#FFF8BA"/>
<path d="M42.49 155.78C42.49 155.332 42.588 154.865 42.784 154.38C42.9893 153.885 43.1853 153.498 43.372 153.218C43.568 152.929 43.834 152.569 44.17 152.14L46.41 149.2H48.3L46.186 151.958L45.57 152.49V152.56L45.85 152.462C46.13 152.387 46.4333 152.35 46.76 152.35C47.6747 152.35 48.4493 152.681 49.084 153.344C49.728 153.997 50.05 154.809 50.05 155.78C50.05 156.769 49.6953 157.6 48.986 158.272C48.2767 158.944 47.3713 159.28 46.27 159.28C45.1687 159.28 44.2633 158.944 43.554 158.272C42.8447 157.6 42.49 156.769 42.49 155.78ZM44.744 154.324C44.3613 154.697 44.17 155.183 44.17 155.78C44.17 156.377 44.3613 156.867 44.744 157.25C45.1267 157.623 45.6353 157.81 46.27 157.81C46.9047 157.81 47.4133 157.623 47.796 157.25C48.1787 156.867 48.37 156.377 48.37 155.78C48.37 155.183 48.1787 154.697 47.796 154.324C47.4133 153.941 46.9047 153.75 46.27 153.75C45.6353 153.75 45.1267 153.941 44.744 154.324ZM51.1733 158.23C51.1733 157.95 51.2619 157.717 51.4393 157.53C51.6259 157.343 51.8546 157.25 52.1253 157.25C52.4333 157.25 52.6759 157.362 52.8533 157.586C53.0399 157.81 53.1333 158.141 53.1333 158.58C53.1333 159.299 52.9606 159.849 52.6153 160.232C52.2793 160.624 51.8219 160.82 51.2433 160.82V160.12C51.5233 160.12 51.7426 160.041 51.9013 159.882C52.0693 159.733 52.1533 159.532 52.1533 159.28V159.196C52.1439 159.187 52.1393 159.168 52.1393 159.14V159.098L52.0553 159.126C52.0273 159.135 51.9666 159.14 51.8733 159.14C51.6866 159.14 51.5233 159.056 51.3833 158.888C51.2433 158.72 51.1733 158.501 51.1733 158.23ZM53.8995 157.04V155.5L57.1895 149.2H58.9395L55.6495 155.5H58.8695V153.12H58.9395H60.4795V155.5H61.8795V157.04H60.4795V159H58.8695V157.04H53.8995ZM62.2989 159V157.46L65.6449 155.094C66.3729 154.571 66.8956 154.086 67.2129 153.638C67.5302 153.19 67.6889 152.714 67.6889 152.21C67.6889 151.678 67.5256 151.253 67.1989 150.936C66.8722 150.619 66.4289 150.46 65.8689 150.46C65.1782 150.46 64.6602 150.74 64.3149 151.3C64.1656 151.543 64.0536 151.823 63.9789 152.14H62.2989C62.3829 151.543 62.5649 151.006 62.8449 150.53C63.5076 149.457 64.5156 148.92 65.8689 148.92C66.9049 148.92 67.7449 149.228 68.3889 149.844C69.0422 150.451 69.3689 151.216 69.3689 152.14C69.3689 152.943 69.1636 153.666 68.7529 154.31C68.3422 154.945 67.6842 155.575 66.7789 156.2L65.3789 157.18L64.7489 157.46V157.53L65.5889 157.46H69.3689V159H62.2989Z" fill="#333333"/>
<path d="M500.42 121.2H502.1C502.165 121.489 502.291 121.746 502.478 121.97C502.898 122.483 503.495 122.74 504.27 122.74C504.914 122.74 505.423 122.581 505.796 122.264C506.179 121.937 506.37 121.536 506.37 121.06C506.37 120.519 506.197 120.094 505.852 119.786C505.516 119.469 505.035 119.31 504.41 119.31H502.03V117.91L504.97 115.81V115.74H500.91V114.2H507.35V115.726L504.83 117.56L504.13 117.84V117.91L504.354 117.882C504.662 117.854 504.844 117.84 504.9 117.84C505.777 117.84 506.51 118.143 507.098 118.75C507.686 119.357 507.98 120.127 507.98 121.06C507.98 121.956 507.635 122.717 506.944 123.342C506.253 123.967 505.362 124.28 504.27 124.28C502.823 124.28 501.755 123.767 501.064 122.74C500.765 122.301 500.551 121.788 500.42 121.2ZM509.037 123.23C509.037 122.95 509.125 122.717 509.303 122.53C509.489 122.343 509.718 122.25 509.989 122.25C510.297 122.25 510.539 122.362 510.717 122.586C510.903 122.81 510.997 123.141 510.997 123.58C510.997 124.299 510.824 124.849 510.479 125.232C510.143 125.624 509.685 125.82 509.107 125.82V125.12C509.387 125.12 509.606 125.041 509.765 124.882C509.933 124.733 510.017 124.532 510.017 124.28V124.196C510.007 124.187 510.003 124.168 510.003 124.14V124.098L509.919 124.126C509.891 124.135 509.83 124.14 509.737 124.14C509.55 124.14 509.387 124.056 509.247 123.888C509.107 123.72 509.037 123.501 509.037 123.23ZM512.043 120.78C512.043 120.332 512.141 119.865 512.337 119.38C512.542 118.885 512.738 118.498 512.925 118.218C513.121 117.929 513.387 117.569 513.723 117.14L515.963 114.2H517.853L515.739 116.958L515.123 117.49V117.56L515.403 117.462C515.683 117.387 515.986 117.35 516.313 117.35C517.227 117.35 518.002 117.681 518.637 118.344C519.281 118.997 519.603 119.809 519.603 120.78C519.603 121.769 519.248 122.6 518.539 123.272C517.829 123.944 516.924 124.28 515.823 124.28C514.721 124.28 513.816 123.944 513.107 123.272C512.397 122.6 512.043 121.769 512.043 120.78ZM514.297 119.324C513.914 119.697 513.723 120.183 513.723 120.78C513.723 121.377 513.914 121.867 514.297 122.25C514.679 122.623 515.188 122.81 515.823 122.81C516.457 122.81 516.966 122.623 517.349 122.25C517.731 121.867 517.923 121.377 517.923 120.78C517.923 120.183 517.731 119.697 517.349 119.324C516.966 118.941 516.457 118.75 515.823 118.75C515.188 118.75 514.679 118.941 514.297 119.324ZM520.656 120.78C520.656 120.332 520.754 119.865 520.95 119.38C521.155 118.885 521.351 118.498 521.538 118.218C521.734 117.929 522 117.569 522.336 117.14L524.576 114.2H526.466L524.352 116.958L523.736 117.49V117.56L524.016 117.462C524.296 117.387 524.599 117.35 524.926 117.35C525.841 117.35 526.615 117.681 527.25 118.344C527.894 118.997 528.216 119.809 528.216 120.78C528.216 121.769 527.861 122.6 527.152 123.272C526.443 123.944 525.537 124.28 524.436 124.28C523.335 124.28 522.429 123.944 521.72 123.272C521.011 122.6 520.656 121.769 520.656 120.78ZM522.91 119.324C522.527 119.697 522.336 120.183 522.336 120.78C522.336 121.377 522.527 121.867 522.91 122.25C523.293 122.623 523.801 122.81 524.436 122.81C525.071 122.81 525.579 122.623 525.962 122.25C526.345 121.867 526.536 121.377 526.536 120.78C526.536 120.183 526.345 119.697 525.962 119.324C525.579 118.941 525.071 118.75 524.436 118.75C523.801 118.75 523.293 118.941 522.91 119.324Z" fill="#333333"/>
<path d="M353.56 152.27H355.24C355.315 152.559 355.441 152.807 355.618 153.012C356.029 153.497 356.626 153.74 357.41 153.74C358.035 153.74 358.53 153.572 358.894 153.236C359.258 152.9 359.44 152.461 359.44 151.92C359.44 151.351 359.258 150.893 358.894 150.548C358.53 150.203 358.035 150.03 357.41 150.03C356.831 150.03 356.341 150.184 355.94 150.492C355.781 150.613 355.641 150.763 355.52 150.94H353.98L354.4 145.2H360.35V146.74H355.73L355.52 149.26H355.59C355.739 149.111 355.912 148.985 356.108 148.882C356.547 148.621 357.074 148.49 357.69 148.49C358.67 148.49 359.487 148.817 360.14 149.47C360.793 150.123 361.12 150.94 361.12 151.92C361.12 152.881 360.775 153.684 360.084 154.328C359.403 154.963 358.511 155.28 357.41 155.28C355.973 155.28 354.904 154.781 354.204 153.782C353.905 153.343 353.691 152.839 353.56 152.27ZM362.103 151.78C362.103 151.332 362.201 150.865 362.397 150.38C362.603 149.885 362.799 149.498 362.985 149.218C363.181 148.929 363.447 148.569 363.783 148.14L366.023 145.2H367.913L365.799 147.958L365.183 148.49V148.56L365.463 148.462C365.743 148.387 366.047 148.35 366.373 148.35C367.288 148.35 368.063 148.681 368.697 149.344C369.341 149.997 369.663 150.809 369.663 151.78C369.663 152.769 369.309 153.6 368.599 154.272C367.89 154.944 366.985 155.28 365.883 155.28C364.782 155.28 363.877 154.944 363.167 154.272C362.458 153.6 362.103 152.769 362.103 151.78ZM364.357 150.324C363.975 150.697 363.783 151.183 363.783 151.78C363.783 152.377 363.975 152.867 364.357 153.25C364.74 153.623 365.249 153.81 365.883 153.81C366.518 153.81 367.027 153.623 367.409 153.25C367.792 152.867 367.983 152.377 367.983 151.78C367.983 151.183 367.792 150.697 367.409 150.324C367.027 149.941 366.518 149.75 365.883 149.75C365.249 149.75 364.74 149.941 364.357 150.324ZM370.787 154.23C370.787 153.95 370.875 153.717 371.053 153.53C371.239 153.343 371.468 153.25 371.739 153.25C372.047 153.25 372.289 153.362 372.467 153.586C372.653 153.81 372.747 154.141 372.747 154.58C372.747 155.299 372.574 155.849 372.229 156.232C371.893 156.624 371.435 156.82 370.857 156.82V156.12C371.137 156.12 371.356 156.041 371.515 155.882C371.683 155.733 371.767 155.532 371.767 155.28V155.196C371.757 155.187 371.753 155.168 371.753 155.14V155.098L371.669 155.126C371.641 155.135 371.58 155.14 371.487 155.14C371.3 155.14 371.137 155.056 370.997 154.888C370.857 154.72 370.787 154.501 370.787 154.23ZM373.513 153.04V151.5L376.803 145.2H378.553L375.263 151.5H378.483V149.12H378.553H380.093V151.5H381.493V153.04H380.093V155H378.483V153.04H373.513ZM383.452 153.824C382.566 152.853 382.122 151.612 382.122 150.1C382.122 148.588 382.566 147.347 383.452 146.376C384.339 145.405 385.412 144.92 386.672 144.92C387.932 144.92 389.006 145.405 389.892 146.376C390.779 147.347 391.222 148.588 391.222 150.1C391.222 151.612 390.779 152.853 389.892 153.824C389.006 154.795 387.932 155.28 386.672 155.28C385.412 155.28 384.339 154.795 383.452 153.824ZM384.6 147.412C384.068 148.047 383.802 148.943 383.802 150.1C383.802 151.257 384.068 152.153 384.6 152.788C385.142 153.423 385.832 153.74 386.672 153.74C387.512 153.74 388.198 153.423 388.73 152.788C389.272 152.153 389.542 151.257 389.542 150.1C389.542 148.943 389.272 148.047 388.73 147.412C388.198 146.777 387.512 146.46 386.672 146.46C385.832 146.46 385.142 146.777 384.6 147.412Z" fill="#333333"/>
<path d="M158.35 225.42V223.6L160.17 222.2H161.64V232H160.03V224.16L158.35 225.42ZM164.581 230.824C163.694 229.853 163.251 228.612 163.251 227.1C163.251 225.588 163.694 224.347 164.581 223.376C165.468 222.405 166.541 221.92 167.801 221.92C169.061 221.92 170.134 222.405 171.021 223.376C171.908 224.347 172.351 225.588 172.351 227.1C172.351 228.612 171.908 229.853 171.021 230.824C170.134 231.795 169.061 232.28 167.801 232.28C166.541 232.28 165.468 231.795 164.581 230.824ZM165.729 224.412C165.197 225.047 164.931 225.943 164.931 227.1C164.931 228.257 165.197 229.153 165.729 229.788C166.27 230.423 166.961 230.74 167.801 230.74C168.641 230.74 169.327 230.423 169.859 229.788C170.4 229.153 170.671 228.257 170.671 227.1C170.671 225.943 170.4 225.047 169.859 224.412C169.327 223.777 168.641 223.46 167.801 223.46C166.961 223.46 166.27 223.777 165.729 224.412ZM173.544 231.23C173.544 230.95 173.633 230.717 173.81 230.53C173.997 230.343 174.226 230.25 174.496 230.25C174.804 230.25 175.047 230.362 175.224 230.586C175.411 230.81 175.504 231.141 175.504 231.58C175.504 232.299 175.332 232.849 174.986 233.232C174.65 233.624 174.193 233.82 173.614 233.82V233.12C173.894 233.12 174.114 233.041 174.272 232.882C174.44 232.733 174.524 232.532 174.524 232.28V232.196C174.515 232.187 174.51 232.168 174.51 232.14V232.098L174.426 232.126C174.398 232.135 174.338 232.14 174.244 232.14C174.058 232.14 173.894 232.056 173.754 231.888C173.614 231.72 173.544 231.501 173.544 231.23ZM176.481 229.2H178.161C178.226 229.489 178.352 229.746 178.539 229.97C178.959 230.483 179.556 230.74 180.331 230.74C180.975 230.74 181.483 230.581 181.857 230.264C182.239 229.937 182.431 229.536 182.431 229.06C182.431 228.519 182.258 228.094 181.913 227.786C181.577 227.469 181.096 227.31 180.471 227.31H178.091V225.91L181.031 223.81V223.74H176.971V222.2H183.411V223.726L180.891 225.56L180.191 225.84V225.91L180.415 225.882C180.723 225.854 180.905 225.84 180.961 225.84C181.838 225.84 182.571 226.143 183.159 226.75C183.747 227.357 184.041 228.127 184.041 229.06C184.041 229.956 183.695 230.717 183.005 231.342C182.314 231.967 181.423 232.28 180.331 232.28C178.884 232.28 177.815 231.767 177.125 230.74C176.826 230.301 176.611 229.788 176.481 229.2ZM184.957 232V230.46L188.303 228.094C189.031 227.571 189.554 227.086 189.871 226.638C190.188 226.19 190.347 225.714 190.347 225.21C190.347 224.678 190.184 224.253 189.857 223.936C189.53 223.619 189.087 223.46 188.527 223.46C187.836 223.46 187.318 223.74 186.973 224.3C186.824 224.543 186.712 224.823 186.637 225.14H184.957C185.041 224.543 185.223 224.006 185.503 223.53C186.166 222.457 187.174 221.92 188.527 221.92C189.563 221.92 190.403 222.228 191.047 222.844C191.7 223.451 192.027 224.216 192.027 225.14C192.027 225.943 191.822 226.666 191.411 227.31C191 227.945 190.342 228.575 189.437 229.2L188.037 230.18L187.407 230.46V230.53L188.247 230.46H192.027V232H184.957Z" fill="#333333"/>
<rect x="15" y="215" width="84" height="65" fill="#FFC79F"/>
<rect x="230" y="247" width="99" height="74" fill="#FFC79F"/>
<path d="M259.49 281.78C259.49 281.332 259.588 280.865 259.784 280.38C259.989 279.885 260.185 279.498 260.372 279.218C260.568 278.929 260.834 278.569 261.17 278.14L263.41 275.2H265.3L263.186 277.958L262.57 278.49V278.56L262.85 278.462C263.13 278.387 263.433 278.35 263.76 278.35C264.675 278.35 265.449 278.681 266.084 279.344C266.728 279.997 267.05 280.809 267.05 281.78C267.05 282.769 266.695 283.6 265.986 284.272C265.277 284.944 264.371 285.28 263.27 285.28C262.169 285.28 261.263 284.944 260.554 284.272C259.845 283.6 259.49 282.769 259.49 281.78ZM261.744 280.324C261.361 280.697 261.17 281.183 261.17 281.78C261.17 282.377 261.361 282.867 261.744 283.25C262.127 283.623 262.635 283.81 263.27 283.81C263.905 283.81 264.413 283.623 264.796 283.25C265.179 282.867 265.37 282.377 265.37 281.78C265.37 281.183 265.179 280.697 264.796 280.324C264.413 279.941 263.905 279.75 263.27 279.75C262.635 279.75 262.127 279.941 261.744 280.324ZM268.173 284.23C268.173 283.95 268.262 283.717 268.439 283.53C268.626 283.343 268.855 283.25 269.125 283.25C269.433 283.25 269.676 283.362 269.853 283.586C270.04 283.81 270.133 284.141 270.133 284.58C270.133 285.299 269.961 285.849 269.615 286.232C269.279 286.624 268.822 286.82 268.243 286.82V286.12C268.523 286.12 268.743 286.041 268.901 285.882C269.069 285.733 269.153 285.532 269.153 285.28V285.196C269.144 285.187 269.139 285.168 269.139 285.14V285.098L269.055 285.126C269.027 285.135 268.967 285.14 268.873 285.14C268.687 285.14 268.523 285.056 268.383 284.888C268.243 284.72 268.173 284.501 268.173 284.23ZM272.649 283.824C271.763 282.853 271.319 281.612 271.319 280.1C271.319 278.588 271.763 277.347 272.649 276.376C273.536 275.405 274.609 274.92 275.869 274.92C277.129 274.92 278.203 275.405 279.089 276.376C279.976 277.347 280.419 278.588 280.419 280.1C280.419 281.612 279.976 282.853 279.089 283.824C278.203 284.795 277.129 285.28 275.869 285.28C274.609 285.28 273.536 284.795 272.649 283.824ZM273.797 277.412C273.265 278.047 272.999 278.943 272.999 280.1C272.999 281.257 273.265 282.153 273.797 282.788C274.339 283.423 275.029 283.74 275.869 283.74C276.709 283.74 277.395 283.423 277.927 282.788C278.469 282.153 278.739 281.257 278.739 280.1C278.739 278.943 278.469 278.047 277.927 277.412C277.395 276.777 276.709 276.46 275.869 276.46C275.029 276.46 274.339 276.777 273.797 277.412ZM281.263 283.04V281.5L284.553 275.2H286.303L283.013 281.5H286.233V279.12H286.303H287.843V281.5H289.243V283.04H287.843V285H286.233V283.04H281.263Z" fill="#333333"/>
<rect x="86" width="30" height="30" transform="rotate(90 86 0)" fill="#5A5A5A"/>
<rect x="26" width="30" height="26" transform="rotate(90 26 0)" fill="#5A5A5A"/>
<path d="M71.21 239.04V237.5L74.5 231.2H76.25L72.96 237.5H76.18V235.12H76.25H77.79V237.5H79.19V239.04H77.79V241H76.18V239.04H71.21ZM79.7495 240.23C79.7495 239.95 79.8381 239.717 80.0155 239.53C80.2021 239.343 80.4308 239.25 80.7015 239.25C81.0095 239.25 81.2521 239.362 81.4295 239.586C81.6161 239.81 81.7095 240.141 81.7095 240.58C81.7095 241.299 81.5368 241.849 81.1915 242.232C80.8555 242.624 80.3981 242.82 79.8195 242.82V242.12C80.0995 242.12 80.3188 242.041 80.4775 241.882C80.6455 241.733 80.7295 241.532 80.7295 241.28V241.196C80.7201 241.187 80.7155 241.168 80.7155 241.14V241.098L80.6315 241.126C80.6035 241.135 80.5428 241.14 80.4495 241.14C80.2628 241.14 80.0995 241.056 79.9595 240.888C79.8195 240.72 79.7495 240.501 79.7495 240.23ZM82.6156 234.42V232.6L84.4356 231.2H85.9056V241H84.2956V233.16L82.6156 234.42ZM87.4467 234.42C87.4467 233.431 87.8014 232.6 88.5107 231.928C89.2201 231.256 90.1254 230.92 91.2267 230.92C92.3281 230.92 93.2334 231.256 93.9427 231.928C94.6521 232.6 95.0067 233.431 95.0067 234.42C95.0067 235.307 94.6381 236.263 93.9007 237.29C93.8261 237.393 93.7234 237.533 93.5927 237.71C93.4621 237.878 93.3734 237.995 93.3267 238.06L91.0867 241H89.1967L91.3107 238.242L91.9267 237.71V237.64C91.9081 237.649 91.8147 237.687 91.6467 237.752C91.4041 237.817 91.1007 237.85 90.7367 237.85C89.8221 237.85 89.0427 237.523 88.3987 236.87C87.7641 236.207 87.4467 235.391 87.4467 234.42ZM89.7007 232.964C89.3181 233.337 89.1267 233.823 89.1267 234.42C89.1267 235.017 89.3181 235.507 89.7007 235.89C90.0834 236.263 90.5921 236.45 91.2267 236.45C91.8614 236.45 92.3701 236.263 92.7527 235.89C93.1354 235.507 93.3267 235.017 93.3267 234.42C93.3267 233.823 93.1354 233.337 92.7527 232.964C92.3701 232.581 91.8614 232.39 91.2267 232.39C90.5921 232.39 90.0834 232.581 89.7007 232.964Z" fill="#333333"/>
<rect x="16" y="292" width="16" height="272" transform="rotate(-180 16 292)" fill="#5A5A5A"/>
<rect y="292" width="16" height="163" transform="rotate(-90 0 292)" fill="#5A5A5A"/>
<rect x="197" y="292" width="16" height="38" transform="rotate(-90 197 292)" fill="#5A5A5A"/>
<rect x="219" y="231" width="16" height="106" fill="#5A5A5A"/>
<rect x="341" y="321" width="16" height="106" transform="rotate(90 341 321)" fill="#5A5A5A"/>
<rect x="345" y="337" width="16" height="106" transform="rotate(-180 345 337)" fill="#5A5A5A"/>
<rect x="267" y="231" width="16" height="48" transform="rotate(90 267 231)" fill="#5A5A5A"/>
<rect x="490" y="231" width="16" height="196" transform="rotate(90 490 231)" fill="#5A5A5A"/>
<rect x="185" width="30" height="65" transform="rotate(90 185 0)" fill="#5A5A5A"/>
<path d="M63.9668 208.995L63.9668 184L88.2916 184L88.2916 208.995L63.9668 208.995Z" fill="white" stroke="#5A5A5A" stroke-width="0.5"/>
<path d="M64.8931 186.027L64.8931 205.48C64.8931 206.217 65.2857 206.61 66.0551 206.61L86.2027 206.61C86.9879 206.61 87.3648 206.233 87.3648 205.48L87.3648 186.027C87.3805 185.273 86.9879 184.896 86.2184 184.896L66.0708 184.896C65.2857 184.88 64.8931 185.273 64.8931 186.027Z" fill="white" stroke="#5A5A5A" stroke-width="0.5"/>
<path d="M71.3947 187.816C73.1849 187.831 74.6453 189.245 74.6453 190.987C74.6453 192.746 73.1849 194.159 71.3947 194.159C69.5888 194.159 68.144 192.746 68.144 190.987C68.144 189.229 69.5888 187.816 71.3947 187.816Z" stroke="#5A5A5A" stroke-width="0.5"/>
<path d="M81.0203 187.846C82.8105 187.862 84.2709 189.275 84.2709 191.017C84.2709 192.776 82.8105 194.189 81.0203 194.189C79.2144 194.189 77.7697 192.776 77.7697 191.017C77.754 189.259 79.2144 187.83 81.0203 187.846Z" stroke="#5A5A5A" stroke-width="0.5"/>
<path d="M81.0202 196.86C82.8261 196.86 84.2708 198.273 84.2708 200.031C84.2708 201.79 82.8104 203.203 81.0202 203.203C79.23 203.187 77.7695 201.774 77.7695 200.031C77.7695 198.288 79.23 196.86 81.0202 196.86Z" stroke="#5A5A5A" stroke-width="0.5"/>
<path d="M71.3947 196.86C73.2006 196.86 74.6453 198.273 74.6453 200.031C74.6453 201.79 73.1849 203.203 71.3947 203.203C69.6045 203.187 68.144 201.774 68.144 200.031C68.144 198.288 69.6045 196.86 71.3947 196.86Z" stroke="#5A5A5A" stroke-width="0.5"/>
<path d="M39.6992 208.98L39.6992 184.892L16.0002 184.892L16.0002 208.995L39.6992 208.98Z" fill="white" stroke="#5A5A5A" stroke-width="0.5"/>
<path d="M37.896 202.374L37.896 189.057C37.896 188.315 37.5323 187.951 36.7747 187.951L19.1671 187.951C18.4397 187.951 18.0609 188.315 18.0458 189.042L18.0609 202.374C18.0458 203.101 18.4246 203.465 19.1671 203.465L36.7747 203.465C37.5172 203.495 37.896 203.116 37.896 202.374Z" fill="white" stroke="#5A5A5A" stroke-width="0.5"/>
<path d="M27.9709 207.132C27.0466 207.116 26.3041 206.42 26.3041 205.541L26.9556 198.557L26.9708 198.542C26.9708 198.011 27.4102 197.587 27.9709 197.587C28.5315 197.587 28.971 198.011 28.9861 198.557L29.6377 205.541C29.6377 206.404 28.8952 207.116 27.9709 207.132Z" stroke="#5A5A5A" stroke-width="0.5"/>
<mask id="path-30-inside-1_34_7840" fill="white">
<path fill-rule="evenodd" clip-rule="evenodd" d="M26.5918 206.449L26.9555 202.646C26.9706 202.116 27.41 201.677 27.9859 201.692C28.5465 201.692 28.9708 202.116 28.9859 202.646L29.3496 206.449"/>
</mask>
<path fill-rule="evenodd" clip-rule="evenodd" d="M26.5918 206.449L26.9555 202.646C26.9706 202.116 27.41 201.677 27.9859 201.692C28.5465 201.692 28.9708 202.116 28.9859 202.646L29.3496 206.449" fill="white"/>
<path d="M26.9555 202.646L27.4553 202.661L27.4548 202.677L27.4532 202.694L26.9555 202.646ZM27.9859 201.692L27.9859 202.192L27.9727 202.192L27.9859 201.692ZM28.9859 202.646L28.4882 202.694L28.4866 202.677L28.4861 202.661L28.9859 202.646ZM26.0941 206.401L26.4577 202.599L27.4532 202.694L27.0895 206.497L26.0941 206.401ZM26.4557 202.632C26.4787 201.827 27.1467 201.17 27.999 201.192L27.9727 202.192C27.6733 202.184 27.4626 202.405 27.4553 202.661L26.4557 202.632ZM27.9859 201.192C28.8152 201.192 29.4628 201.83 29.4857 202.632L28.4861 202.661C28.4788 202.403 28.2778 202.192 27.9859 202.192L27.9859 201.192ZM29.4837 202.599L29.8473 206.401L28.8519 206.497L28.4882 202.694L29.4837 202.599Z" fill="#5A5A5A" mask="url(#path-30-inside-1_34_7840)"/>
<rect x="107" y="122" width="2" height="11" transform="rotate(90 107 122)" fill="#5A5A5A"/>
<rect x="90" y="122" width="2" height="11" transform="rotate(90 90 122)" fill="#5A5A5A"/>
<rect x="73" y="122" width="2" height="11" transform="rotate(90 73 122)" fill="#5A5A5A"/>
<rect x="56" y="122" width="2" height="11" transform="rotate(90 56 122)" fill="#5A5A5A"/>
<rect x="39" y="122" width="2" height="11" transform="rotate(90 39 122)" fill="#5A5A5A"/>
<rect x="22" y="122" width="2" height="6" transform="rotate(90 22 122)" fill="#5A5A5A"/>
<rect x="107" y="271" width="2" height="11" transform="rotate(-180 107 271)" fill="#5A5A5A"/>
<rect x="107" y="220" width="2" height="11" transform="rotate(-180 107 220)" fill="#5A5A5A"/>
<rect x="107" y="203" width="2" height="11" transform="rotate(-180 107 203)" fill="#5A5A5A"/>
<rect x="107" y="186" width="2" height="11" transform="rotate(-180 107 186)" fill="#5A5A5A"/>
<rect x="107" y="169" width="2" height="11" transform="rotate(-180 107 169)" fill="#5A5A5A"/>
<rect x="107" y="152" width="2" height="11" transform="rotate(-180 107 152)" fill="#5A5A5A"/>
<rect x="107" y="135" width="2" height="6" transform="rotate(-180 107 135)" fill="#5A5A5A"/>
<line y1="-0.5" x2="29.1548" y2="-0.5" transform="matrix(-0.514496 0.857493 0.857493 0.514496 475 90)" stroke="#5A5A5A"/>
<path d="M541.75 161.75L541.687 71.2855L537.25 71.2519L537.25 161.75L541.75 161.75Z" stroke="#5A5A5A" stroke-width="0.5" stroke-miterlimit="10"/>
<rect x="542" y="165" width="5" height="74" transform="rotate(90 542 165)" fill="#5A5A5A"/>
<rect x="542" y="66" width="5" height="74" transform="rotate(90 542 66)" fill="#5A5A5A"/>
<rect x="542" y="85" width="5" height="19" transform="rotate(-180 542 85)" fill="#5A5A5A"/>
<rect x="542" y="170" width="5" height="19" transform="rotate(-180 542 170)" fill="#5A5A5A"/>
<path d="M489.75 117.25L489.687 177.726L485.25 177.749L485.25 117.25L489.75 117.25Z" stroke="#5A5A5A" stroke-width="0.5" stroke-miterlimit="10"/>
<path d="M479.75 117.25L479.687 177.726L475.25 177.749L475.25 117.25L479.75 117.25Z" stroke="#5A5A5A" stroke-width="0.5" stroke-miterlimit="10"/>
<rect x="107" y="209" width="8" height="97" transform="rotate(90 107 209)" fill="#5A5A5A"/>
<rect x="172" y="179" width="8" height="14" transform="rotate(90 172 179)" fill="#5A5A5A"/>
<rect x="107" y="222" width="8" height="10" transform="rotate(-180 107 222)" fill="#5A5A5A"/>
<rect x="158.145" y="179.162" width="8" height="63.6756" transform="rotate(60 158.145 179.162)" fill="#5A5A5A"/>
<rect x="107" y="283" width="8" height="36" transform="rotate(-180 107 283)" fill="#5A5A5A"/>
<path d="M86.7588 256.476L86.7424 257.657L86.7588 260.723V268.314H76.8015V256.476C76.8015 253.459 79.0452 251 81.7965 251C84.5151 251 86.7588 253.459 86.7588 256.476Z" fill="white" stroke="#5A5A5A" stroke-width="0.5"/>
<path d="M85.6128 256.542V257.476V265.035H77.932V257.476L77.9483 256.542C77.9483 254.164 79.6516 252.23 81.7806 252.23C83.8932 252.246 85.6128 254.181 85.6128 256.542Z" fill="white" stroke="#5A5A5A" stroke-width="0.5"/>
<path d="M75.0001 274.676V269.412C75.0001 268.806 75.4914 268.314 76.0974 268.314H87.3813C87.9872 268.314 88.4785 268.806 88.4785 269.412V274.676C88.4785 275.282 87.9872 275.774 87.3813 275.774H76.1138C75.4914 275.774 75.0001 275.282 75.0001 274.676Z" fill="white" stroke="#5A5A5A" stroke-width="0.5"/>
<path d="M81.0925 272.052C81.0925 271.642 81.3873 271.331 81.7312 271.331C82.0915 271.314 82.3862 271.642 82.3862 272.052C82.3862 272.462 82.0914 272.774 81.7475 272.774C81.3709 272.757 81.0761 272.446 81.0925 272.052Z" fill="white" stroke="#5A5A5A" stroke-width="0.5"/>
<path d="M46.0002 274.848L46.0002 262.54C46.0002 261.685 46.684 261 47.5388 261L66.0582 261C66.9129 261 67.5967 261.685 67.5967 262.54L67.5967 274.848C67.5967 275.704 66.9129 276.389 66.0582 276.389L47.5388 276.389C46.6983 276.389 46.0002 275.704 46.0002 274.848Z" fill="white" stroke="#5A5A5A" stroke-width="0.5"/>
<path d="M47.9233 270.156L47.9233 268.26C47.9233 265.764 49.9461 263.738 52.4391 263.738L61.1575 263.738C63.6505 263.738 65.6733 265.764 65.6733 268.26L65.6733 270.156C65.6733 272.652 63.6505 274.677 61.1575 274.677L52.4391 274.677C49.9461 274.677 47.9233 272.652 47.9233 270.156Z" fill="white" stroke="#5A5A5A" stroke-width="0.5"/>
<path d="M55.8436 272.267C55.8436 271.724 56.2709 271.283 56.798 271.283C57.3251 271.283 57.7524 271.724 57.7524 272.267C57.7524 272.811 57.3251 273.251 56.798 273.251C56.2709 273.251 55.8436 272.811 55.8436 272.267Z" fill="white" stroke="#5A5A5A" stroke-width="0.5"/>
<path d="M40.9871 274.7L40.9871 218.3C40.9871 217.578 40.41 217 39.6885 217L17.2985 217C16.5771 217 16 217.578 16 218.3L16 274.7C16 275.422 16.5771 276 17.2985 276L39.6885 276C40.41 276 40.9871 275.409 40.9871 274.7Z" fill="white" stroke="#5A5A5A" stroke-width="0.5"/>
<path d="M31.5296 220.467L25.4435 220.467C21.9151 220.467 19.0688 223.33 19.0688 226.849L19.0688 271.26C19.0688 272.126 19.764 272.822 20.6297 272.822L36.3696 272.822C37.2353 272.822 37.9305 272.126 37.9305 271.26L37.9305 226.862C37.9173 223.33 35.0579 220.467 31.5296 220.467Z" fill="white" stroke="#5A5A5A" stroke-width="0.5"/>
<path d="M28.9329 267.557C29.6355 267.557 30.2051 268.15 30.2051 268.883C30.2051 269.615 29.6355 270.209 28.9329 270.209C28.2303 270.209 27.6606 269.615 27.6606 268.883C27.6606 268.15 28.2303 267.557 28.9329 267.557Z" fill="white" stroke="#5A5A5A" stroke-width="0.5"/>
<path d="M45.0002 217L67.01 217L67.0239 238.588L45.0142 238.574L45.0002 217Z" fill="white" stroke="#5A5A5A" stroke-width="0.5"/>
<path d="M56.0188 233.331C59.1332 233.331 61.647 230.856 61.647 227.794C61.647 224.732 59.1332 222.257 56.0049 222.257C52.8906 222.257 50.3488 224.732 50.3488 227.794C50.3628 230.856 52.9045 233.331 56.0188 233.331Z" stroke="#5A5A5A" stroke-width="0.5"/>
<path d="M51.899 227.794C51.885 228.912 52.3459 229.919 53.1 230.646C53.8542 231.373 54.8876 231.821 56.0049 231.835M60.1387 227.808C60.1387 228.912 59.6778 229.919 58.9376 230.66C58.1835 231.387 57.164 231.849 56.0188 231.849L60.1387 227.808ZM51.899 227.794C51.899 226.689 52.3598 225.683 53.1 224.942C53.8542 224.215 54.8876 223.767 56.0188 223.767L51.899 227.794ZM60.1387 227.808C60.1387 226.675 59.6778 225.669 58.9376 224.956L58.9237 224.942C58.1835 224.229 57.164 223.767 56.0328 223.767L60.1387 227.808Z" stroke="#5A5A5A" stroke-width="0.5"/>
<path d="M253.72 301.976L253.736 303.156L253.72 306.222V313.813H263.677V301.976C263.677 298.959 261.433 296.5 258.682 296.5C255.963 296.5 253.72 298.959 253.72 301.976Z" fill="white" stroke="#5A5A5A" stroke-width="0.5"/>
<path d="M254.866 302.041V302.976V310.534H262.547V302.976L262.53 302.041C262.53 299.664 260.827 297.729 258.698 297.729C256.585 297.746 254.866 299.68 254.866 302.041Z" fill="white" stroke="#5A5A5A" stroke-width="0.5"/>
<path d="M265.478 320.175V314.912C265.478 314.305 264.987 313.813 264.381 313.813H253.097C252.491 313.813 252 314.305 252 314.912V320.175C252 320.782 252.491 321.274 253.097 321.274H264.365C264.987 321.274 265.478 320.782 265.478 320.175Z" fill="white" stroke="#5A5A5A" stroke-width="0.5"/>
<path d="M259.386 317.552C259.386 317.142 259.091 316.83 258.747 316.83C258.387 316.814 258.092 317.142 258.092 317.552C258.092 317.962 258.387 318.273 258.731 318.273C259.108 318.257 259.402 317.945 259.386 317.552Z" fill="white" stroke="#5A5A5A" stroke-width="0.5"/>
<path d="M296.478 319.348L296.478 307.04C296.478 306.184 295.794 305.499 294.94 305.499L276.42 305.499C275.566 305.499 274.882 306.184 274.882 307.04L274.882 319.348C274.882 320.203 275.566 320.888 276.42 320.888L294.94 320.888C295.78 320.888 296.478 320.203 296.478 319.348Z" fill="white" stroke="#5A5A5A" stroke-width="0.5"/>
<path d="M294.555 314.656L294.555 312.759C294.555 310.263 292.532 308.238 290.039 308.238L281.321 308.238C278.828 308.238 276.805 310.263 276.805 312.759L276.805 314.656C276.805 317.152 278.828 319.177 281.321 319.177L290.039 319.177C292.532 319.177 294.555 317.152 294.555 314.656Z" fill="white" stroke="#5A5A5A" stroke-width="0.5"/>
<path d="M286.635 316.766C286.635 316.223 286.208 315.782 285.68 315.782C285.153 315.782 284.726 316.223 284.726 316.766C284.726 317.31 285.153 317.75 285.68 317.75C286.208 317.75 286.635 317.31 286.635 316.766Z" fill="white" stroke="#5A5A5A" stroke-width="0.5"/>
<path d="M301 320.018L301 255.737C301 254.914 301.658 254.256 302.48 254.256L327.999 254.256C328.821 254.256 329.479 254.914 329.479 255.737L329.479 320.018C329.479 320.841 328.821 321.5 327.999 321.5L302.48 321.5C301.658 321.5 301 320.826 301 320.018Z" fill="white" stroke="#5A5A5A" stroke-width="0.5"/>
<path d="M311.779 258.207L318.715 258.207C322.736 258.207 325.98 261.47 325.98 265.481L325.98 316.097C325.98 317.085 325.188 317.878 324.202 317.878L306.262 317.878C305.276 317.878 304.483 317.085 304.483 316.097L304.483 265.496C304.498 261.47 307.757 258.207 311.779 258.207Z" fill="white" stroke="#5A5A5A" stroke-width="0.5"/>
<path d="M314.738 311.876C313.938 311.876 313.288 312.553 313.288 313.388C313.288 314.223 313.938 314.899 314.738 314.899C315.539 314.899 316.188 314.223 316.188 313.388C316.188 312.553 315.539 311.876 314.738 311.876Z" fill="white" stroke="#5A5A5A" stroke-width="0.5"/>
<path d="M257.024 247L235.014 247L235 268.588L257.01 268.574L257.024 247Z" fill="white" stroke="#5A5A5A" stroke-width="0.5"/>
<path d="M246.005 263.331C242.891 263.331 240.377 260.856 240.377 257.794C240.377 254.732 242.891 252.257 246.019 252.257C249.133 252.257 251.675 254.732 251.675 257.794C251.661 260.856 249.119 263.331 246.005 263.331Z" stroke="#5A5A5A" stroke-width="0.5"/>
<path d="M250.125 257.794C250.139 258.912 249.678 259.919 248.924 260.646C248.17 261.373 247.136 261.821 246.019 261.835M241.885 257.808C241.885 258.912 242.346 259.919 243.086 260.66C243.84 261.387 244.86 261.849 246.005 261.849L241.885 257.808ZM250.125 257.794C250.125 256.689 249.664 255.683 248.924 254.942C248.17 254.215 247.136 253.767 246.005 253.767L250.125 257.794ZM241.885 257.808C241.885 256.675 242.346 255.669 243.086 254.956L243.1 254.942C243.84 254.229 244.86 253.767 245.991 253.767L241.885 257.808Z" stroke="#5A5A5A" stroke-width="0.5"/>
<rect x="302" y="235" width="8" height="56" transform="rotate(-180 302 235)" fill="#5A5A5A"/>
<rect x="277" y="187" width="8" height="25" transform="rotate(-90 277 187)" fill="#5A5A5A"/>
<rect x="282" width="30" height="43" transform="rotate(90 282 0)" fill="#5A5A5A"/>
<path d="M450.75 0.250101L12.4264 0.401964L12.2538 11.75L450.75 11.75L450.75 0.250101Z" stroke="#5A5A5A" stroke-width="0.5" stroke-miterlimit="10"/>
<path d="M450.75 18.2501L12.4264 18.402L12.2538 29.75L450.75 29.75L450.75 18.2501Z" stroke="#5A5A5A" stroke-width="0.5" stroke-miterlimit="10"/>
<rect x="386" width="30" height="43" transform="rotate(90 386 0)" fill="#5A5A5A"/>
<rect x="490" width="30" height="49" transform="rotate(90 490 0)" fill="#5A5A5A"/>
<rect x="490" y="90" width="30" height="77" transform="rotate(-180 490 90)" fill="#5A5A5A"/>
<rect x="490" y="245" width="30" height="101" transform="rotate(-180 490 245)" fill="#5A5A5A"/>
<path d="M279.75 181.25L238.709 181.275L238.697 182.75L279.75 182.75L279.75 181.25Z" stroke="#5A5A5A" stroke-width="0.5" stroke-miterlimit="10"/>
<path d="M211.306 181.25L170.265 181.275L170.252 182.75L211.306 182.75L211.306 181.25Z" stroke="#5A5A5A" stroke-width="0.5" stroke-miterlimit="10"/>
<path d="M245.528 179.25L204.487 179.275L204.474 180.75L245.528 180.75L245.528 179.25Z" stroke="#5A5A5A" stroke-width="0.5" stroke-miterlimit="10"/>
<line x1="296.734" y1="234.423" x2="269.734" y2="217.423" stroke="#5A5A5A"/>
<line x1="105.422" y1="220.732" x2="119.422" y2="242.732" stroke="#5A5A5A"/>
<line x1="199.245" y1="290.436" x2="167.245" y2="308.436" stroke="#5A5A5A"/>
<circle cx="262.5" cy="89.5" r="39.5" fill="#5A5A5A"/>
<path d="M239.72 93.58C239.72 92.488 240.14 91.618 240.98 90.97C241.34 90.718 241.76 90.526 242.24 90.394V90.286C241.868 90.142 241.538 89.944 241.25 89.692C240.59 89.128 240.26 88.384 240.26 87.46C240.26 86.512 240.662 85.708 241.466 85.048C242.282 84.376 243.38 84.04 244.76 84.04C246.14 84.04 247.232 84.376 248.036 85.048C248.852 85.708 249.26 86.512 249.26 87.46C249.26 88.36 248.93 89.104 248.27 89.692C247.958 89.944 247.628 90.142 247.28 90.286V90.394C247.736 90.514 248.156 90.712 248.54 90.988C249.38 91.636 249.8 92.5 249.8 93.58C249.8 94.624 249.344 95.518 248.432 96.262C247.532 96.994 246.308 97.36 244.76 97.36C243.212 97.36 241.982 96.994 241.07 96.262C240.17 95.518 239.72 94.624 239.72 93.58ZM242.42 87.64C242.42 88.168 242.624 88.6 243.032 88.936C243.44 89.272 244.016 89.44 244.76 89.44C245.504 89.44 246.08 89.272 246.488 88.936C246.896 88.6 247.1 88.168 247.1 87.64C247.1 87.16 246.89 86.758 246.47 86.434C246.062 86.098 245.492 85.93 244.76 85.93C244.028 85.93 243.452 86.098 243.032 86.434C242.624 86.758 242.42 87.16 242.42 87.64ZM242.636 91.942C242.132 92.338 241.88 92.824 241.88 93.4C241.88 93.976 242.132 94.468 242.636 94.876C243.152 95.272 243.86 95.47 244.76 95.47C245.66 95.47 246.362 95.272 246.866 94.876C247.382 94.468 247.64 93.976 247.64 93.4C247.64 92.824 247.382 92.338 246.866 91.942C246.362 91.534 245.66 91.33 244.76 91.33C243.86 91.33 243.152 91.534 242.636 91.942ZM251.054 93.4H253.214C253.298 93.772 253.46 94.102 253.7 94.39C254.24 95.05 255.008 95.38 256.004 95.38C256.832 95.38 257.486 95.176 257.966 94.768C258.458 94.348 258.704 93.832 258.704 93.22C258.704 92.524 258.482 91.978 258.038 91.582C257.606 91.174 256.988 90.97 256.184 90.97H253.124V89.17L256.904 86.47V86.38H251.684V84.4H259.964V86.362L256.724 88.72L255.824 89.08V89.17L256.112 89.134C256.508 89.098 256.742 89.08 256.814 89.08C257.942 89.08 258.884 89.47 259.64 90.25C260.396 91.03 260.774 92.02 260.774 93.22C260.774 94.372 260.33 95.35 259.442 96.154C258.554 96.958 257.408 97.36 256.004 97.36C254.144 97.36 252.77 96.7 251.882 95.38C251.498 94.816 251.222 94.156 251.054 93.4ZM262.132 96.01C262.132 95.65 262.246 95.35 262.474 95.11C262.714 94.87 263.008 94.75 263.356 94.75C263.752 94.75 264.064 94.894 264.292 95.182C264.532 95.47 264.652 95.896 264.652 96.46C264.652 97.384 264.43 98.092 263.986 98.584C263.554 99.088 262.966 99.34 262.222 99.34V98.44C262.582 98.44 262.864 98.338 263.068 98.134C263.284 97.942 263.392 97.684 263.392 97.36V97.252C263.38 97.24 263.374 97.216 263.374 97.18V97.126L263.266 97.162C263.23 97.174 263.152 97.18 263.032 97.18C262.792 97.18 262.582 97.072 262.402 96.856C262.222 96.64 262.132 96.358 262.132 96.01ZM265.907 93.4H268.067C268.151 93.772 268.313 94.102 268.553 94.39C269.093 95.05 269.861 95.38 270.857 95.38C271.685 95.38 272.339 95.176 272.819 94.768C273.311 94.348 273.557 93.832 273.557 93.22C273.557 92.524 273.335 91.978 272.891 91.582C272.459 91.174 271.841 90.97 271.037 90.97H267.977V89.17L271.757 86.47V86.38H266.537V84.4H274.817V86.362L271.577 88.72L270.677 89.08V89.17L270.965 89.134C271.361 89.098 271.595 89.08 271.667 89.08C272.795 89.08 273.737 89.47 274.493 90.25C275.249 91.03 275.627 92.02 275.627 93.22C275.627 94.372 275.183 95.35 274.295 96.154C273.407 96.958 272.261 97.36 270.857 97.36C268.997 97.36 267.623 96.7 266.735 95.38C266.351 94.816 266.075 94.156 265.907 93.4ZM276.446 86.38V84.4H284.996V86.38L279.956 97H277.706L282.656 86.56V86.38H276.446Z" fill="white"/>
</svg>
