<svg width="425" height="636" viewBox="0 0 425 636" fill="none" xmlns="http://www.w3.org/2000/svg">
<rect x="37.1393" y="56.1619" width="27.1751" height="37.1393" transform="rotate(90 37.1393 56.1619)" fill="#5A5A5A"/>
<path d="M409.438 82.4312V259.679L0 259.679L7.72109e-06 82.4312L409.438 82.4312Z" fill="#FFF8BA"/>
<path d="M412.155 191.507V368.755H125.911L125.911 191.507L412.155 191.507Z" fill="#FFF8BA"/>
<path d="M414.873 300.583V437.836H214.683L214.683 300.583H414.873Z" fill="#FFF8BA"/>
<path d="M417.59 409.658V608.722H274.468L274.468 409.658L417.59 409.658Z" fill="#FFF8BA"/>
<circle cx="218.056" cy="167.127" r="35.7805" fill="#5A5A5A"/>
<path d="M190.996 167.54C190.996 166.268 191.452 165.2 192.364 164.336C193.276 163.472 194.44 163.04 195.856 163.04C197.272 163.04 198.436 163.472 199.348 164.336C200.26 165.2 200.716 166.268 200.716 167.54C200.716 168.68 200.242 169.91 199.294 171.23C199.198 171.362 199.066 171.542 198.898 171.77C198.73 171.986 198.616 172.136 198.556 172.22L195.676 176H193.246L195.964 172.454L196.756 171.77V171.68C196.732 171.692 196.612 171.74 196.396 171.824C196.084 171.908 195.694 171.95 195.226 171.95C194.05 171.95 193.048 171.53 192.22 170.69C191.404 169.838 190.996 168.788 190.996 167.54ZM193.894 165.668C193.402 166.148 193.156 166.772 193.156 167.54C193.156 168.308 193.402 168.938 193.894 169.43C194.386 169.91 195.04 170.15 195.856 170.15C196.672 170.15 197.326 169.91 197.818 169.43C198.31 168.938 198.556 168.308 198.556 167.54C198.556 166.772 198.31 166.148 197.818 165.668C197.326 165.176 196.672 164.93 195.856 164.93C195.04 164.93 194.386 165.176 193.894 165.668ZM202.07 172.58C202.07 171.488 202.49 170.618 203.33 169.97C203.69 169.718 204.11 169.526 204.59 169.394V169.286C204.218 169.142 203.888 168.944 203.6 168.692C202.94 168.128 202.61 167.384 202.61 166.46C202.61 165.512 203.012 164.708 203.816 164.048C204.632 163.376 205.73 163.04 207.11 163.04C208.49 163.04 209.582 163.376 210.386 164.048C211.202 164.708 211.61 165.512 211.61 166.46C211.61 167.36 211.28 168.104 210.62 168.692C210.308 168.944 209.978 169.142 209.63 169.286V169.394C210.086 169.514 210.506 169.712 210.89 169.988C211.73 170.636 212.15 171.5 212.15 172.58C212.15 173.624 211.694 174.518 210.782 175.262C209.882 175.994 208.658 176.36 207.11 176.36C205.562 176.36 204.332 175.994 203.42 175.262C202.52 174.518 202.07 173.624 202.07 172.58ZM204.77 166.64C204.77 167.168 204.974 167.6 205.382 167.936C205.79 168.272 206.366 168.44 207.11 168.44C207.854 168.44 208.43 168.272 208.838 167.936C209.246 167.6 209.45 167.168 209.45 166.64C209.45 166.16 209.24 165.758 208.82 165.434C208.412 165.098 207.842 164.93 207.11 164.93C206.378 164.93 205.802 165.098 205.382 165.434C204.974 165.758 204.77 166.16 204.77 166.64ZM204.986 170.942C204.482 171.338 204.23 171.824 204.23 172.4C204.23 172.976 204.482 173.468 204.986 173.876C205.502 174.272 206.21 174.47 207.11 174.47C208.01 174.47 208.712 174.272 209.216 173.876C209.732 173.468 209.99 172.976 209.99 172.4C209.99 171.824 209.732 171.338 209.216 170.942C208.712 170.534 208.01 170.33 207.11 170.33C206.21 170.33 205.502 170.534 204.986 170.942ZM213.584 175.01C213.584 174.65 213.698 174.35 213.926 174.11C214.166 173.87 214.46 173.75 214.808 173.75C215.204 173.75 215.516 173.894 215.744 174.182C215.984 174.47 216.104 174.896 216.104 175.46C216.104 176.384 215.882 177.092 215.438 177.584C215.006 178.088 214.418 178.34 213.674 178.34V177.44C214.034 177.44 214.316 177.338 214.52 177.134C214.736 176.942 214.844 176.684 214.844 176.36V176.252C214.832 176.24 214.826 176.216 214.826 176.18V176.126L214.718 176.162C214.682 176.174 214.604 176.18 214.484 176.18C214.244 176.18 214.034 176.072 213.854 175.856C213.674 175.64 213.584 175.358 213.584 175.01ZM217.359 172.4H219.519C219.603 172.772 219.765 173.102 220.005 173.39C220.545 174.05 221.313 174.38 222.309 174.38C223.137 174.38 223.791 174.176 224.271 173.768C224.763 173.348 225.009 172.832 225.009 172.22C225.009 171.524 224.787 170.978 224.343 170.582C223.911 170.174 223.293 169.97 222.489 169.97H219.429V168.17L223.209 165.47V165.38H217.989V163.4H226.269V165.362L223.029 167.72L222.129 168.08V168.17L222.417 168.134C222.813 168.098 223.047 168.08 223.119 168.08C224.247 168.08 225.189 168.47 225.945 169.25C226.701 170.03 227.079 171.02 227.079 172.22C227.079 173.372 226.635 174.35 225.747 175.154C224.859 175.958 223.713 176.36 222.309 176.36C220.449 176.36 219.075 175.7 218.187 174.38C217.803 173.816 217.527 173.156 217.359 172.4ZM228.257 172.4H230.417C230.501 172.772 230.663 173.102 230.903 173.39C231.443 174.05 232.211 174.38 233.207 174.38C234.035 174.38 234.689 174.176 235.169 173.768C235.661 173.348 235.907 172.832 235.907 172.22C235.907 171.524 235.685 170.978 235.241 170.582C234.809 170.174 234.191 169.97 233.387 169.97H230.327V168.17L234.107 165.47V165.38H228.887V163.4H237.167V165.362L233.927 167.72L233.027 168.08V168.17L233.315 168.134C233.711 168.098 233.945 168.08 234.017 168.08C235.145 168.08 236.087 168.47 236.843 169.25C237.599 170.03 237.977 171.02 237.977 172.22C237.977 173.372 237.533 174.35 236.645 175.154C235.757 175.958 234.611 176.36 233.207 176.36C231.347 176.36 229.973 175.7 229.085 174.38C228.701 173.816 228.425 173.156 228.257 172.4Z" fill="white"/>
<path d="M65.7659 216.78C65.7659 216.332 65.8639 215.865 66.0599 215.38C66.2652 214.885 66.4612 214.498 66.6479 214.218C66.8439 213.929 67.1099 213.569 67.4459 213.14L69.6859 210.2H71.5759L69.4619 212.958L68.8459 213.49V213.56L69.1259 213.462C69.4059 213.387 69.7092 213.35 70.0359 213.35C70.9505 213.35 71.7252 213.681 72.3599 214.344C73.0039 214.997 73.3259 215.809 73.3259 216.78C73.3259 217.769 72.9712 218.6 72.2619 219.272C71.5525 219.944 70.6472 220.28 69.5459 220.28C68.4445 220.28 67.5392 219.944 66.8299 219.272C66.1205 218.6 65.7659 217.769 65.7659 216.78ZM68.0199 215.324C67.6372 215.697 67.4459 216.183 67.4459 216.78C67.4459 217.377 67.6372 217.867 68.0199 218.25C68.4025 218.623 68.9112 218.81 69.5459 218.81C70.1805 218.81 70.6892 218.623 71.0719 218.25C71.4545 217.867 71.6459 217.377 71.6459 216.78C71.6459 216.183 71.4545 215.697 71.0719 215.324C70.6892 214.941 70.1805 214.75 69.5459 214.75C68.9112 214.75 68.4025 214.941 68.0199 215.324ZM74.4492 219.23C74.4492 218.95 74.5378 218.717 74.7152 218.53C74.9018 218.343 75.1305 218.25 75.4012 218.25C75.7092 218.25 75.9518 218.362 76.1292 218.586C76.3158 218.81 76.4092 219.141 76.4092 219.58C76.4092 220.299 76.2365 220.849 75.8912 221.232C75.5552 221.624 75.0978 221.82 74.5192 221.82V221.12C74.7992 221.12 75.0185 221.041 75.1772 220.882C75.3452 220.733 75.4292 220.532 75.4292 220.28V220.196C75.4198 220.187 75.4152 220.168 75.4152 220.14V220.098L75.3312 220.126C75.3032 220.135 75.2425 220.14 75.1492 220.14C74.9625 220.14 74.7992 220.056 74.6592 219.888C74.5192 219.72 74.4492 219.501 74.4492 219.23ZM78.9253 218.824C78.0387 217.853 77.5953 216.612 77.5953 215.1C77.5953 213.588 78.0387 212.347 78.9253 211.376C79.812 210.405 80.8853 209.92 82.1453 209.92C83.4053 209.92 84.4787 210.405 85.3653 211.376C86.252 212.347 86.6953 213.588 86.6953 215.1C86.6953 216.612 86.252 217.853 85.3653 218.824C84.4787 219.795 83.4053 220.28 82.1453 220.28C80.8853 220.28 79.812 219.795 78.9253 218.824ZM80.0733 212.412C79.5413 213.047 79.2753 213.943 79.2753 215.1C79.2753 216.257 79.5413 217.153 80.0733 217.788C80.6147 218.423 81.3053 218.74 82.1453 218.74C82.9853 218.74 83.6713 218.423 84.2033 217.788C84.7447 217.153 85.0153 216.257 85.0153 215.1C85.0153 213.943 84.7447 213.047 84.2033 212.412C83.6713 211.777 82.9853 211.46 82.1453 211.46C81.3053 211.46 80.6147 211.777 80.0733 212.412ZM87.8886 217.27H89.5686C89.6433 217.559 89.7693 217.807 89.9466 218.012C90.3573 218.497 90.9546 218.74 91.7386 218.74C92.3639 218.74 92.8586 218.572 93.2226 218.236C93.5866 217.9 93.7686 217.461 93.7686 216.92C93.7686 216.351 93.5866 215.893 93.2226 215.548C92.8586 215.203 92.3639 215.03 91.7386 215.03C91.1599 215.03 90.6699 215.184 90.2686 215.492C90.1099 215.613 89.9699 215.763 89.8486 215.94H88.3086L88.7286 210.2H94.6786V211.74H90.0586L89.8486 214.26H89.9186C90.0679 214.111 90.2406 213.985 90.4366 213.882C90.8753 213.621 91.4026 213.49 92.0186 213.49C92.9986 213.49 93.8153 213.817 94.4686 214.47C95.1219 215.123 95.4486 215.94 95.4486 216.92C95.4486 217.881 95.1033 218.684 94.4126 219.328C93.7313 219.963 92.8399 220.28 91.7386 220.28C90.3013 220.28 89.2326 219.781 88.5326 218.782C88.2339 218.343 88.0193 217.839 87.8886 217.27Z" fill="#333333"/>
<path d="M182.696 39.2H184.376C184.441 39.4893 184.567 39.746 184.754 39.97C185.174 40.4833 185.771 40.74 186.546 40.74C187.19 40.74 187.699 40.5813 188.072 40.264C188.455 39.9373 188.646 39.536 188.646 39.06C188.646 38.5187 188.473 38.094 188.128 37.786C187.792 37.4687 187.311 37.31 186.686 37.31H184.306V35.91L187.246 33.81V33.74H183.186V32.2H189.626V33.726L187.106 35.56L186.406 35.84V35.91L186.63 35.882C186.938 35.854 187.12 35.84 187.176 35.84C188.053 35.84 188.786 36.1433 189.374 36.75C189.962 37.3567 190.256 38.1267 190.256 39.06C190.256 39.956 189.911 40.7167 189.22 41.342C188.529 41.9673 187.638 42.28 186.546 42.28C185.099 42.28 184.031 41.7667 183.34 40.74C183.041 40.3013 182.827 39.788 182.696 39.2ZM191.312 41.23C191.312 40.95 191.401 40.7167 191.578 40.53C191.765 40.3433 191.994 40.25 192.264 40.25C192.572 40.25 192.815 40.362 192.992 40.586C193.179 40.81 193.272 41.1413 193.272 41.58C193.272 42.2987 193.1 42.8493 192.754 43.232C192.418 43.624 191.961 43.82 191.382 43.82V43.12C191.662 43.12 191.882 43.0407 192.04 42.882C192.208 42.7327 192.292 42.532 192.292 42.28V42.196C192.283 42.1867 192.278 42.168 192.278 42.14V42.098L192.194 42.126C192.166 42.1353 192.106 42.14 192.012 42.14C191.826 42.14 191.662 42.056 191.522 41.888C191.382 41.72 191.312 41.5007 191.312 41.23ZM194.319 38.78C194.319 38.332 194.417 37.8653 194.613 37.38C194.818 36.8853 195.014 36.498 195.201 36.218C195.397 35.9287 195.663 35.5693 195.999 35.14L198.239 32.2H200.129L198.015 34.958L197.399 35.49V35.56L197.679 35.462C197.959 35.3873 198.262 35.35 198.589 35.35C199.503 35.35 200.278 35.6813 200.913 36.344C201.557 36.9973 201.879 37.8093 201.879 38.78C201.879 39.7693 201.524 40.6 200.815 41.272C200.105 41.944 199.2 42.28 198.099 42.28C196.997 42.28 196.092 41.944 195.383 41.272C194.673 40.6 194.319 39.7693 194.319 38.78ZM196.573 37.324C196.19 37.6973 195.999 38.1827 195.999 38.78C195.999 39.3773 196.19 39.8673 196.573 40.25C196.955 40.6233 197.464 40.81 198.099 40.81C198.733 40.81 199.242 40.6233 199.625 40.25C200.007 39.8673 200.199 39.3773 200.199 38.78C200.199 38.1827 200.007 37.6973 199.625 37.324C199.242 36.9413 198.733 36.75 198.099 36.75C197.464 36.75 196.955 36.9413 196.573 37.324ZM202.932 38.78C202.932 38.332 203.03 37.8653 203.226 37.38C203.431 36.8853 203.627 36.498 203.814 36.218C204.01 35.9287 204.276 35.5693 204.612 35.14L206.852 32.2H208.742L206.628 34.958L206.012 35.49V35.56L206.292 35.462C206.572 35.3873 206.875 35.35 207.202 35.35C208.117 35.35 208.891 35.6813 209.526 36.344C210.17 36.9973 210.492 37.8093 210.492 38.78C210.492 39.7693 210.137 40.6 209.428 41.272C208.719 41.944 207.813 42.28 206.712 42.28C205.611 42.28 204.705 41.944 203.996 41.272C203.287 40.6 202.932 39.7693 202.932 38.78ZM205.186 37.324C204.803 37.6973 204.612 38.1827 204.612 38.78C204.612 39.3773 204.803 39.8673 205.186 40.25C205.569 40.6233 206.077 40.81 206.712 40.81C207.347 40.81 207.855 40.6233 208.238 40.25C208.621 39.8673 208.812 39.3773 208.812 38.78C208.812 38.1827 208.621 37.6973 208.238 37.324C207.855 36.9413 207.347 36.75 206.712 36.75C206.077 36.75 205.569 36.9413 205.186 37.324Z" fill="#333333"/>
<path d="M151.626 310.42V308.6L153.446 307.2H154.916V317H153.306V309.16L151.626 310.42ZM156.457 314.27H158.137C158.212 314.559 158.338 314.807 158.515 315.012C158.926 315.497 159.523 315.74 160.307 315.74C160.932 315.74 161.427 315.572 161.791 315.236C162.155 314.9 162.337 314.461 162.337 313.92C162.337 313.351 162.155 312.893 161.791 312.548C161.427 312.203 160.932 312.03 160.307 312.03C159.728 312.03 159.238 312.184 158.837 312.492C158.678 312.613 158.538 312.763 158.417 312.94H156.877L157.297 307.2H163.247V308.74H158.627L158.417 311.26H158.487C158.636 311.111 158.809 310.985 159.005 310.882C159.444 310.621 159.971 310.49 160.587 310.49C161.567 310.49 162.384 310.817 163.037 311.47C163.69 312.123 164.017 312.94 164.017 313.92C164.017 314.881 163.672 315.684 162.981 316.328C162.3 316.963 161.408 317.28 160.307 317.28C158.87 317.28 157.801 316.781 157.101 315.782C156.802 315.343 156.588 314.839 156.457 314.27ZM165.07 316.23C165.07 315.95 165.159 315.717 165.336 315.53C165.523 315.343 165.752 315.25 166.022 315.25C166.33 315.25 166.573 315.362 166.75 315.586C166.937 315.81 167.03 316.141 167.03 316.58C167.03 317.299 166.858 317.849 166.512 318.232C166.176 318.624 165.719 318.82 165.14 318.82V318.12C165.42 318.12 165.64 318.041 165.798 317.882C165.966 317.733 166.05 317.532 166.05 317.28V317.196C166.041 317.187 166.036 317.168 166.036 317.14V317.098L165.952 317.126C165.924 317.135 165.864 317.14 165.77 317.14C165.584 317.14 165.42 317.056 165.28 316.888C165.14 316.72 165.07 316.501 165.07 316.23ZM167.796 315.04V313.5L171.086 307.2H172.836L169.546 313.5H172.766V311.12H172.836H174.376V313.5H175.776V315.04H174.376V317H172.766V315.04H167.796ZM176.336 314.27H178.016C178.091 314.559 178.217 314.807 178.394 315.012C178.805 315.497 179.402 315.74 180.186 315.74C180.811 315.74 181.306 315.572 181.67 315.236C182.034 314.9 182.216 314.461 182.216 313.92C182.216 313.351 182.034 312.893 181.67 312.548C181.306 312.203 180.811 312.03 180.186 312.03C179.607 312.03 179.117 312.184 178.716 312.492C178.557 312.613 178.417 312.763 178.296 312.94H176.756L177.176 307.2H183.126V308.74H178.506L178.296 311.26H178.366C178.515 311.111 178.688 310.985 178.884 310.882C179.323 310.621 179.85 310.49 180.466 310.49C181.446 310.49 182.263 310.817 182.916 311.47C183.569 312.123 183.896 312.94 183.896 313.92C183.896 314.881 183.551 315.684 182.86 316.328C182.179 316.963 181.287 317.28 180.186 317.28C178.749 317.28 177.68 316.781 176.98 315.782C176.681 315.343 176.467 314.839 176.336 314.27Z" fill="#333333"/>
<path d="M58.3126 232.898L58.3126 255.54L80.3469 255.54L80.3469 232.898L58.3126 232.898Z" fill="white" stroke="#5A5A5A" stroke-width="0.5"/>
<path d="M59.1517 253.704L59.1517 236.082C59.1517 235.414 59.5074 235.058 60.2044 235.058L78.4548 235.058C79.166 235.058 79.5074 235.4 79.5074 236.082L79.5074 253.704C79.5217 254.386 79.166 254.728 78.469 254.728L60.2186 254.728C59.5074 254.742 59.1517 254.386 59.1517 253.704Z" fill="white" stroke="#5A5A5A" stroke-width="0.5"/>
<path d="M65.0409 252.083C66.6625 252.069 67.9854 250.789 67.9854 249.21C67.9854 247.617 66.6625 246.338 65.0409 246.338C63.405 246.338 62.0963 247.618 62.0963 249.21C62.0963 250.803 63.405 252.083 65.0409 252.083Z" stroke="#5A5A5A" stroke-width="0.5"/>
<path d="M73.7606 252.056C75.3822 252.041 76.7051 250.761 76.7051 249.183C76.7051 247.59 75.3822 246.31 73.7606 246.31C72.1247 246.31 70.816 247.59 70.816 249.183C70.8018 250.776 72.1247 252.07 73.7606 252.056Z" stroke="#5A5A5A" stroke-width="0.5"/>
<path d="M73.7605 243.891C75.3963 243.891 76.705 242.611 76.705 241.018C76.705 239.425 75.3821 238.145 73.7605 238.145C72.1388 238.159 70.8159 239.439 70.8159 241.018C70.8159 242.597 72.1388 243.891 73.7605 243.891Z" stroke="#5A5A5A" stroke-width="0.5"/>
<path d="M65.0409 243.891C66.6767 243.891 67.9854 242.611 67.9854 241.018C67.9854 239.425 66.6625 238.145 65.0409 238.145C63.4192 238.159 62.0963 239.439 62.0963 241.018C62.0963 242.597 63.4192 243.891 65.0409 243.891Z" stroke="#5A5A5A" stroke-width="0.5"/>
<path d="M14.5071 213.777H36.3273L36.3273 235.245H14.4934L14.5071 213.777Z" fill="white" stroke="#5A5A5A" stroke-width="0.5"/>
<path d="M20.4913 215.411L32.5542 215.411C33.2266 215.411 33.556 215.74 33.556 216.426L33.556 232.376C33.556 233.035 33.2266 233.378 32.5679 233.392L20.4913 233.378C19.8326 233.392 19.5032 233.049 19.5032 232.376L19.5032 216.426C19.4758 215.754 19.8189 215.411 20.4913 215.411Z" fill="white" stroke="#5A5A5A" stroke-width="0.5"/>
<path d="M16.1816 224.401C16.1954 225.239 16.8266 225.911 17.6226 225.911L23.9491 225.321L23.9628 225.307C24.4431 225.307 24.8274 224.909 24.8274 224.401C24.8274 223.893 24.4431 223.495 23.9491 223.482L17.6226 222.891C16.8404 222.891 16.1954 223.564 16.1816 224.401Z" stroke="#5A5A5A" stroke-width="0.5"/>
<mask id="path-17-inside-1_33_6950" fill="white">
<path fill-rule="evenodd" clip-rule="evenodd" d="M16.7998 225.65L20.2444 225.321C20.7247 225.307 21.1227 224.909 21.109 224.387C21.109 223.88 20.7247 223.495 20.2444 223.482L16.7998 223.152"/>
</mask>
<path fill-rule="evenodd" clip-rule="evenodd" d="M16.7998 225.65L20.2444 225.321C20.7247 225.307 21.1227 224.909 21.109 224.387C21.109 223.88 20.7247 223.495 20.2444 223.482L16.7998 223.152" fill="white"/>
<path d="M20.2444 225.321L20.2301 224.821L20.2134 224.821L20.1968 224.823L20.2444 225.321ZM21.109 224.387L20.6088 224.387L20.6091 224.401L21.109 224.387ZM20.2444 223.482L20.1968 223.979L20.2134 223.981L20.2301 223.981L20.2444 223.482ZM16.8474 226.148L20.292 225.819L20.1968 224.823L16.7522 225.153L16.8474 226.148ZM20.2587 225.821C21.0137 225.799 21.6298 225.172 21.6088 224.374L20.6091 224.401C20.6156 224.646 20.4357 224.815 20.2301 224.821L20.2587 225.821ZM21.609 224.387C21.609 223.611 21.0113 223.003 20.2587 222.982L20.2301 223.981C20.4381 223.987 20.609 224.148 20.609 224.387L21.609 224.387ZM20.292 222.984L16.8474 222.654L16.7522 223.65L20.1968 223.979L20.292 222.984Z" fill="#5A5A5A" mask="url(#path-17-inside-1_33_6950)"/>
<path d="M281.715 344.218L219.212 344.218L219.212 439.33L281.715 439.33L281.715 344.218Z" fill="#FFC79F"/>
<path d="M415.779 269.939L337.877 269.939L337.877 432.084L415.779 432.084L415.779 269.939Z" fill="#FFC79F"/>
<path d="M391.752 287.802L392.822 287.817L395.599 287.802L402.475 287.802L402.475 296.821L391.752 296.821C389.02 296.821 386.792 294.789 386.792 292.297C386.792 289.834 389.02 287.802 391.752 287.802Z" fill="white" stroke="#5A5A5A" stroke-width="0.5"/>
<path d="M391.812 288.84L392.658 288.84L399.505 288.84L399.505 295.798L392.658 295.798L391.812 295.783C389.658 295.783 387.906 294.24 387.906 292.311C387.921 290.398 389.673 288.84 391.812 288.84Z" fill="white" stroke="#5A5A5A" stroke-width="0.5"/>
<path d="M408.238 298.453L403.47 298.453C402.921 298.453 402.475 298.008 402.475 297.459L402.475 287.238C402.475 286.689 402.921 286.244 403.47 286.244L408.238 286.244C408.787 286.244 409.233 286.689 409.233 287.238L409.233 297.444C409.233 298.008 408.787 298.453 408.238 298.453Z" fill="white" stroke="#5A5A5A" stroke-width="0.5"/>
<path d="M405.861 292.935C405.49 292.935 405.208 292.668 405.208 292.356C405.193 292.03 405.49 291.763 405.861 291.763C406.233 291.763 406.515 292.03 406.515 292.341C406.5 292.682 406.218 292.949 405.861 292.935Z" fill="white" stroke="#5A5A5A" stroke-width="0.5"/>
<path d="M351.464 318.717L351.464 307.568C351.464 306.793 352.084 306.172 352.858 306.172L369.633 306.172C370.408 306.172 371.027 306.793 371.027 307.568L371.027 318.717C371.027 319.492 370.408 320.112 369.633 320.112L352.858 320.112C352.096 320.112 351.464 319.492 351.464 318.717Z" fill="white" stroke="#5A5A5A" stroke-width="0.5"/>
<path d="M353.206 314.466L353.206 312.748C353.206 310.487 355.039 308.653 357.297 308.653L365.194 308.653C367.453 308.653 369.285 310.487 369.285 312.748L369.285 314.466C369.285 316.727 367.453 318.562 365.194 318.562L357.297 318.562C355.039 318.562 353.206 316.727 353.206 314.466Z" fill="white" stroke="#5A5A5A" stroke-width="0.5"/>
<path d="M360.381 316.378C360.381 315.886 360.768 315.487 361.245 315.487C361.723 315.487 362.11 315.886 362.11 316.378C362.11 316.871 361.723 317.27 361.245 317.27C360.768 317.27 360.381 316.871 360.381 316.378Z" fill="white" stroke="#5A5A5A" stroke-width="0.5"/>
<rect x="182.979" y="56.1619" width="27.1751" height="63.4085" transform="rotate(90 182.979 56.1619)" fill="#5A5A5A"/>
<line y1="-0.5" x2="26.4094" y2="-0.5" transform="matrix(0.857493 0.514496 0.514496 -0.857493 182.233 67.9375)" stroke="#5A5A5A"/>
<path d="M248.567 0.250218L180.552 0.30718L180.527 4.27916L248.567 4.27917L248.567 0.250218Z" stroke="#5A5A5A" stroke-width="0.5" stroke-miterlimit="10"/>
<rect x="263.31" width="4.52918" height="74.2785" fill="#5A5A5A"/>
<rect x="162.682" y="2.71753" width="4.52918" height="71.561" fill="#5A5A5A"/>
<rect x="181.276" width="5" height="19" transform="rotate(90 181.276 0)" fill="#5A5A5A"/>
<rect x="265.276" width="5" height="19" transform="rotate(90 265.276 0)" fill="#5A5A5A"/>
<path d="M212.658 56.4121L270.109 56.469L270.131 60.441L212.658 60.441L212.658 56.4121Z" stroke="#5A5A5A" stroke-width="0.5" stroke-miterlimit="10"/>
<path d="M212.658 65.4705L270.109 65.5274L270.131 69.4994L212.658 69.4994L212.658 65.4705Z" stroke="#5A5A5A" stroke-width="0.5" stroke-miterlimit="10"/>
<rect x="324.289" y="56.1619" width="27.1751" height="74.2785" transform="rotate(90 324.289 56.1619)" fill="#5A5A5A"/>
<rect x="423.931" y="56.1619" width="27.1751" height="40.7626" transform="rotate(90 423.931 56.1619)" fill="#5A5A5A"/>
<rect x="409.438" y="61.5969" width="14.4934" height="549.842" fill="#5A5A5A"/>
<rect y="56.1619" width="14.4934" height="213.777" fill="#5A5A5A"/>
<rect x="131.346" y="255.446" width="14.4934" height="131.346" transform="rotate(90 131.346 255.446)" fill="#5A5A5A"/>
<rect x="14.4934" y="190.225" width="1.81167" height="5.43501" transform="rotate(-90 14.4934 190.225)" fill="#5A5A5A"/>
<rect x="24.4575" y="190.225" width="1.81167" height="9.96419" transform="rotate(-90 24.4575 190.225)" fill="#5A5A5A"/>
<rect x="39.8568" y="190.225" width="1.81167" height="9.96419" transform="rotate(-90 39.8568 190.225)" fill="#5A5A5A"/>
<rect x="55.256" y="190.225" width="1.81167" height="9.96419" transform="rotate(-90 55.256 190.225)" fill="#5A5A5A"/>
<rect x="70.6552" y="190.225" width="1.81167" height="9.96419" transform="rotate(-90 70.6552 190.225)" fill="#5A5A5A"/>
<rect x="86.0543" y="190.225" width="1.81167" height="9.96419" transform="rotate(-90 86.0543 190.225)" fill="#5A5A5A"/>
<rect x="104.171" y="190.225" width="1.81167" height="9.96419" transform="rotate(-90 104.171 190.225)" fill="#5A5A5A"/>
<rect x="117.759" y="190.225" width="1.81167" height="9.96419" transform="rotate(-90 117.759 190.225)" fill="#5A5A5A"/>
<rect x="131.346" y="269.939" width="1.81167" height="5.43501" transform="rotate(180 131.346 269.939)" fill="#5A5A5A"/>
<rect x="131.346" y="259.975" width="1.81167" height="9.96419" transform="rotate(180 131.346 259.975)" fill="#5A5A5A"/>
<rect x="131.346" y="244.576" width="1.81167" height="9.96419" transform="rotate(180 131.346 244.576)" fill="#5A5A5A"/>
<rect x="131.346" y="229.177" width="1.81167" height="9.96419" transform="rotate(180 131.346 229.177)" fill="#5A5A5A"/>
<rect x="131.346" y="213.777" width="1.81167" height="9.96419" transform="rotate(180 131.346 213.777)" fill="#5A5A5A"/>
<rect x="131.346" y="198.378" width="1.81167" height="9.96419" transform="rotate(180 131.346 198.378)" fill="#5A5A5A"/>
<rect x="126.817" y="298.02" width="14.4934" height="41.6684" transform="rotate(-180 126.817 298.02)" fill="#5A5A5A"/>
<rect x="126.817" y="375.016" width="14.4934" height="41.6684" transform="rotate(-180 126.817 375.016)" fill="#5A5A5A"/>
<rect x="119.57" y="375.016" width="14.4934" height="102.359" transform="rotate(-90 119.57 375.016)" fill="#5A5A5A"/>
<rect x="207.436" y="367.769" width="14.4934" height="77.9019" fill="#5A5A5A"/>
<rect x="261.786" y="432.084" width="14.4934" height="192.037" fill="#5A5A5A"/>
<rect x="290.773" y="431.178" width="14.4934" height="76.0902" transform="rotate(90 290.773 431.178)" fill="#5A5A5A"/>
<rect x="412.155" y="431.178" width="14.4934" height="85.1485" transform="rotate(90 412.155 431.178)" fill="#5A5A5A"/>
<rect x="415.779" y="255.446" width="14.4934" height="88.7719" transform="rotate(90 415.779 255.446)" fill="#5A5A5A"/>
<rect x="290.773" y="255.446" width="14.4934" height="19.0225" transform="rotate(90 290.773 255.446)" fill="#5A5A5A"/>
<rect x="237.329" y="255.446" width="14.4934" height="70.6552" transform="rotate(90 237.329 255.446)" fill="#5A5A5A"/>
<rect x="424.276" y="609" width="27" height="41" transform="rotate(90 424.276 609)" fill="#5A5A5A"/>
<rect x="320.666" y="608.721" width="27.1751" height="58.8793" transform="rotate(90 320.666 608.721)" fill="#5A5A5A"/>
<path d="M390.165 56.4122L274.572 56.5493L274.527 66.7819L390.165 66.7819L390.165 56.4122Z" stroke="#5A5A5A" stroke-width="0.5" stroke-miterlimit="10"/>
<path d="M140.165 56.4122L24.5724 56.5425L24.527 66.2471L140.165 66.2471L140.165 56.4122Z" stroke="#5A5A5A" stroke-width="0.5" stroke-miterlimit="10"/>
<path d="M390.165 609.412L270.574 609.549L270.527 619.782L390.165 619.782L390.165 609.412Z" stroke="#5A5A5A" stroke-width="0.5" stroke-miterlimit="10"/>
<path d="M390.165 72.7171L274.572 72.8542L274.527 83.0868L390.165 83.0868L390.165 72.7171Z" stroke="#5A5A5A" stroke-width="0.5" stroke-miterlimit="10"/>
<path d="M140.165 71.9148L24.5724 72.0452L24.527 81.7498L140.165 81.7498L140.165 71.9148Z" stroke="#5A5A5A" stroke-width="0.5" stroke-miterlimit="10"/>
<path d="M390.165 624.717L270.574 624.854L270.527 635.087L390.165 635.087L390.165 624.717Z" stroke="#5A5A5A" stroke-width="0.5" stroke-miterlimit="10"/>
<rect x="279.903" y="336.971" width="7.24668" height="99.6419" fill="#5A5A5A"/>
<rect x="330.63" y="382.262" width="7.24668" height="63.4085" fill="#5A5A5A"/>
<rect x="330.63" y="308.89" width="7.24668" height="45.2918" fill="#5A5A5A"/>
<rect x="330.63" y="256.352" width="7.24668" height="23.5517" fill="#5A5A5A"/>
<rect x="412.155" y="319.76" width="7.24669" height="77.9019" transform="rotate(90 412.155 319.76)" fill="#5A5A5A"/>
<path d="M392.322 343.058L393.392 343.073L396.169 343.058L403.045 343.058L403.045 352.078L392.322 352.078C389.59 352.078 387.362 350.045 387.362 347.553C387.362 345.09 389.59 343.058 392.322 343.058Z" fill="white" stroke="#5A5A5A" stroke-width="0.5"/>
<path d="M392.382 344.096L393.228 344.096L400.075 344.096L400.075 351.054L393.228 351.054L392.382 351.039C390.228 351.039 388.476 349.496 388.476 347.568C388.491 345.654 390.243 344.096 392.382 344.096Z" fill="white" stroke="#5A5A5A" stroke-width="0.5"/>
<path d="M408.808 353.709L404.04 353.709C403.491 353.709 403.045 353.264 403.045 352.715L403.045 342.494C403.045 341.945 403.491 341.5 404.04 341.5L408.808 341.5C409.357 341.5 409.803 341.945 409.803 342.494L409.803 352.7C409.803 353.264 409.357 353.709 408.808 353.709Z" fill="white" stroke="#5A5A5A" stroke-width="0.5"/>
<path d="M406.432 348.19C406.06 348.19 405.778 347.923 405.778 347.612C405.763 347.286 406.06 347.019 406.432 347.019C406.803 347.019 407.085 347.286 407.085 347.597C407.07 347.938 406.788 348.205 406.432 348.19Z" fill="white" stroke="#5A5A5A" stroke-width="0.5"/>
<path d="M239.475 392.612L238.406 392.597L235.628 392.612L228.752 392.612L228.752 383.592L239.475 383.592C242.208 383.592 244.436 385.625 244.436 388.117C244.436 390.58 242.208 392.612 239.475 392.612Z" fill="white" stroke="#5A5A5A" stroke-width="0.5"/>
<path d="M239.416 391.574L238.569 391.574L231.722 391.574L231.722 384.616L238.569 384.616L239.416 384.631C241.569 384.631 243.322 386.174 243.322 388.102C243.307 390.016 241.554 391.574 239.416 391.574Z" fill="white" stroke="#5A5A5A" stroke-width="0.5"/>
<path d="M222.99 381.961L227.757 381.961C228.307 381.961 228.752 382.406 228.752 382.955L228.752 393.176C228.752 393.725 228.307 394.17 227.757 394.17L222.99 394.17C222.44 394.17 221.994 393.725 221.994 393.176L221.994 382.969C221.994 382.406 222.44 381.961 222.99 381.961Z" fill="white" stroke="#5A5A5A" stroke-width="0.5"/>
<path d="M225.366 387.479C225.737 387.479 226.019 387.746 226.019 388.058C226.034 388.384 225.737 388.651 225.366 388.651C224.995 388.651 224.712 388.384 224.712 388.073C224.727 387.731 225.01 387.464 225.366 387.479Z" fill="white" stroke="#5A5A5A" stroke-width="0.5"/>
<path d="M408.472 381.488L397.323 381.488C396.548 381.488 395.928 380.869 395.928 380.095L395.928 363.319C395.928 362.545 396.548 361.926 397.323 361.926L408.472 361.926C409.248 361.926 409.868 362.545 409.868 363.319L409.868 380.095C409.868 380.856 409.248 381.488 408.472 381.488Z" fill="white" stroke="#5A5A5A" stroke-width="0.5"/>
<path d="M404.222 379.746L402.504 379.746C400.243 379.746 398.409 377.914 398.409 375.656L398.409 367.758C398.409 365.5 400.243 363.668 402.504 363.668L404.222 363.668C406.483 363.668 408.318 365.5 408.318 367.758L408.318 375.656C408.318 377.914 406.483 379.746 404.222 379.746Z" fill="white" stroke="#5A5A5A" stroke-width="0.5"/>
<path d="M406.134 372.572C405.642 372.572 405.243 372.185 405.243 371.707C405.243 371.23 405.642 370.843 406.134 370.843C406.627 370.843 407.026 371.23 407.026 371.707C407.026 372.185 406.627 372.572 406.134 372.572Z" fill="white" stroke="#5A5A5A" stroke-width="0.5"/>
<path d="M223.325 354.182L234.474 354.182C235.249 354.182 235.869 354.801 235.869 355.575L235.869 372.351C235.869 373.125 235.249 373.745 234.474 373.745L223.325 373.745C222.55 373.745 221.93 373.125 221.93 372.351L221.93 355.575C221.93 354.814 222.55 354.182 223.325 354.182Z" fill="white" stroke="#5A5A5A" stroke-width="0.5"/>
<path d="M227.575 355.924L229.293 355.924C231.554 355.924 233.389 357.756 233.389 360.014L233.389 367.912C233.389 370.17 231.554 372.002 229.293 372.002L227.575 372.002C225.314 372.002 223.48 370.17 223.48 367.912L223.48 360.014C223.48 357.756 225.314 355.924 227.575 355.924Z" fill="white" stroke="#5A5A5A" stroke-width="0.5"/>
<path d="M225.663 363.098C226.155 363.098 226.555 363.485 226.555 363.963C226.555 364.44 226.155 364.827 225.663 364.827C225.171 364.827 224.772 364.44 224.772 363.963C224.772 363.485 225.171 363.098 225.663 363.098Z" fill="white" stroke="#5A5A5A" stroke-width="0.5"/>
<path d="M407.749 407.484L353.289 407.484C352.592 407.484 352.034 408.042 352.034 408.738L352.034 430.358C352.034 431.055 352.592 431.612 353.289 431.612L407.749 431.612C408.446 431.612 409.004 431.055 409.004 430.358L409.004 408.738C409.004 408.042 408.434 407.484 407.749 407.484Z" fill="white" stroke="#5A5A5A" stroke-width="0.5"/>
<path d="M355.382 416.616L355.382 422.493C355.382 425.9 358.146 428.648 361.544 428.648L404.427 428.648C405.264 428.648 405.936 427.977 405.936 427.141L405.936 411.943C405.936 411.107 405.264 410.436 404.427 410.436L361.557 410.436C358.146 410.448 355.382 413.209 355.382 416.616Z" fill="white" stroke="#5A5A5A" stroke-width="0.5"/>
<path d="M400.851 419.124C400.851 418.445 401.425 417.895 402.132 417.895C402.839 417.895 403.413 418.445 403.413 419.124C403.413 419.802 402.839 420.352 402.132 420.352C401.425 420.352 400.851 419.802 400.851 419.124Z" fill="white" stroke="#5A5A5A" stroke-width="0.5"/>
<path d="M337.877 346.957L337.877 327.019L357.431 327.007L357.419 346.944L337.877 346.957Z" fill="white" stroke="#5A5A5A" stroke-width="0.5"/>
<path d="M352.669 336.975C352.669 334.154 350.428 331.877 347.654 331.877C344.88 331.877 342.639 334.154 342.639 336.988C342.639 339.809 344.88 342.111 347.654 342.111C350.428 342.099 352.669 339.796 352.669 336.975Z" stroke="#5A5A5A" stroke-width="0.5"/>
<path d="M347.654 340.707C348.667 340.72 349.579 340.302 350.238 339.619C350.896 338.936 351.302 338 351.314 336.988M347.667 333.243C348.667 333.243 349.579 333.661 350.25 334.331C350.909 335.014 351.327 335.938 351.327 336.975L347.667 333.243ZM347.654 340.707C346.654 340.707 345.742 340.29 345.07 339.619C344.412 338.936 344.007 338 344.007 336.975L347.654 340.707ZM347.667 333.243C346.641 333.243 345.729 333.661 345.083 334.331L345.07 334.344C344.424 335.014 344.007 335.938 344.007 336.963L347.667 333.243Z" stroke="#5A5A5A" stroke-width="0.5"/>
<rect x="214.683" y="336.971" width="7.24668" height="99.6419" fill="#5A5A5A"/>
<rect x="240.046" y="336.971" width="7.24669" height="25.3634" transform="rotate(90 240.046 336.971)" fill="#5A5A5A"/>
<rect x="287.15" y="336.971" width="7.24669" height="19.9284" transform="rotate(90 287.15 336.971)" fill="#5A5A5A"/>
<line x1="288.724" y1="432.549" x2="324.052" y2="413.526" stroke="#5A5A5A"/>
<line x1="331.998" y1="385.21" x2="318.41" y2="358.94" stroke="#5A5A5A"/>
<line x1="271.539" y1="339.235" x2="242.552" y2="325.648" stroke="#5A5A5A"/>
<line x1="126.167" y1="265.886" x2="164.212" y2="288.532" stroke="#5A5A5A"/>
<line x1="114.568" y1="294.647" x2="94.6396" y2="329.069" stroke="#5A5A5A"/>
<line x1="332.889" y1="277.409" x2="319.301" y2="304.584" stroke="#5A5A5A"/>
<line x1="329.965" y1="267.66" x2="293.732" y2="287.588" stroke="#5A5A5A"/>
<line x1="274.71" y1="267.659" x2="240.288" y2="286.682" stroke="#5A5A5A"/>
<path d="M237.486 413.04V411.5L240.776 405.2H242.526L239.236 411.5H242.456V409.12H242.526H244.066V411.5H245.466V413.04H244.066V415H242.456V413.04H237.486ZM246.025 414.23C246.025 413.95 246.114 413.717 246.291 413.53C246.478 413.343 246.707 413.25 246.977 413.25C247.285 413.25 247.528 413.362 247.705 413.586C247.892 413.81 247.985 414.141 247.985 414.58C247.985 415.299 247.813 415.849 247.467 416.232C247.131 416.624 246.674 416.82 246.095 416.82V416.12C246.375 416.12 246.595 416.041 246.753 415.882C246.921 415.733 247.005 415.532 247.005 415.28V415.196C246.996 415.187 246.991 415.168 246.991 415.14V415.098L246.907 415.126C246.879 415.135 246.819 415.14 246.725 415.14C246.539 415.14 246.375 415.056 246.235 414.888C246.095 414.72 246.025 414.501 246.025 414.23ZM248.892 408.42V406.6L250.712 405.2H252.182V415H250.572V407.16L248.892 408.42ZM253.303 406.74V405.2H259.953V406.74L256.033 415H254.283L258.133 406.88V406.74H253.303Z" fill="#333333"/>
<path d="M349.766 375.78C349.766 375.332 349.864 374.865 350.06 374.38C350.265 373.885 350.461 373.498 350.648 373.218C350.844 372.929 351.11 372.569 351.446 372.14L353.686 369.2H355.576L353.462 371.958L352.846 372.49V372.56L353.126 372.462C353.406 372.387 353.709 372.35 354.036 372.35C354.951 372.35 355.725 372.681 356.36 373.344C357.004 373.997 357.326 374.809 357.326 375.78C357.326 376.769 356.971 377.6 356.262 378.272C355.553 378.944 354.647 379.28 353.546 379.28C352.445 379.28 351.539 378.944 350.83 378.272C350.121 377.6 349.766 376.769 349.766 375.78ZM352.02 374.324C351.637 374.697 351.446 375.183 351.446 375.78C351.446 376.377 351.637 376.867 352.02 377.25C352.403 377.623 352.911 377.81 353.546 377.81C354.181 377.81 354.689 377.623 355.072 377.25C355.455 376.867 355.646 376.377 355.646 375.78C355.646 375.183 355.455 374.697 355.072 374.324C354.689 373.941 354.181 373.75 353.546 373.75C352.911 373.75 352.403 373.941 352.02 374.324ZM358.449 378.23C358.449 377.95 358.538 377.717 358.715 377.53C358.902 377.343 359.13 377.25 359.401 377.25C359.709 377.25 359.952 377.362 360.129 377.586C360.316 377.81 360.409 378.141 360.409 378.58C360.409 379.299 360.236 379.849 359.891 380.232C359.555 380.624 359.098 380.82 358.519 380.82V380.12C358.799 380.12 359.018 380.041 359.177 379.882C359.345 379.733 359.429 379.532 359.429 379.28V379.196C359.42 379.187 359.415 379.168 359.415 379.14V379.098L359.331 379.126C359.303 379.135 359.242 379.14 359.149 379.14C358.962 379.14 358.799 379.056 358.659 378.888C358.519 378.72 358.449 378.501 358.449 378.23ZM362.925 377.824C362.039 376.853 361.595 375.612 361.595 374.1C361.595 372.588 362.039 371.347 362.925 370.376C363.812 369.405 364.885 368.92 366.145 368.92C367.405 368.92 368.479 369.405 369.365 370.376C370.252 371.347 370.695 372.588 370.695 374.1C370.695 375.612 370.252 376.853 369.365 377.824C368.479 378.795 367.405 379.28 366.145 379.28C364.885 379.28 363.812 378.795 362.925 377.824ZM364.073 371.412C363.541 372.047 363.275 372.943 363.275 374.1C363.275 375.257 363.541 376.153 364.073 376.788C364.615 377.423 365.305 377.74 366.145 377.74C366.985 377.74 367.671 377.423 368.203 376.788C368.745 376.153 369.015 375.257 369.015 374.1C369.015 372.943 368.745 372.047 368.203 371.412C367.671 370.777 366.985 370.46 366.145 370.46C365.305 370.46 364.615 370.777 364.073 371.412ZM371.539 377.04V375.5L374.829 369.2H376.579L373.289 375.5H376.509V373.12H376.579H378.119V375.5H379.519V377.04H378.119V379H376.509V377.04H371.539Z" fill="#333333"/>
<path d="M316.626 526.42V524.6L318.446 523.2H319.916V533H318.306V525.16L316.626 526.42ZM321.387 529.78C321.387 529.332 321.485 528.865 321.681 528.38C321.886 527.885 322.082 527.498 322.269 527.218C322.465 526.929 322.731 526.569 323.067 526.14L325.307 523.2H327.197L325.083 525.958L324.467 526.49V526.56L324.747 526.462C325.027 526.387 325.33 526.35 325.657 526.35C326.572 526.35 327.346 526.681 327.981 527.344C328.625 527.997 328.947 528.809 328.947 529.78C328.947 530.769 328.592 531.6 327.883 532.272C327.174 532.944 326.268 533.28 325.167 533.28C324.066 533.28 323.16 532.944 322.451 532.272C321.742 531.6 321.387 530.769 321.387 529.78ZM323.641 528.324C323.258 528.697 323.067 529.183 323.067 529.78C323.067 530.377 323.258 530.867 323.641 531.25C324.024 531.623 324.532 531.81 325.167 531.81C325.802 531.81 326.31 531.623 326.693 531.25C327.076 530.867 327.267 530.377 327.267 529.78C327.267 529.183 327.076 528.697 326.693 528.324C326.31 527.941 325.802 527.75 325.167 527.75C324.532 527.75 324.024 527.941 323.641 528.324ZM330.07 532.23C330.07 531.95 330.159 531.717 330.336 531.53C330.523 531.343 330.752 531.25 331.022 531.25C331.33 531.25 331.573 531.362 331.75 531.586C331.937 531.81 332.03 532.141 332.03 532.58C332.03 533.299 331.858 533.849 331.512 534.232C331.176 534.624 330.719 534.82 330.14 534.82V534.12C330.42 534.12 330.64 534.041 330.798 533.882C330.966 533.733 331.05 533.532 331.05 533.28V533.196C331.041 533.187 331.036 533.168 331.036 533.14V533.098L330.952 533.126C330.924 533.135 330.864 533.14 330.77 533.14C330.584 533.14 330.42 533.056 330.28 532.888C330.14 532.72 330.07 532.501 330.07 532.23ZM333.076 529.78C333.076 529.332 333.174 528.865 333.37 528.38C333.576 527.885 333.772 527.498 333.958 527.218C334.154 526.929 334.42 526.569 334.756 526.14L336.996 523.2H338.886L336.772 525.958L336.156 526.49V526.56L336.436 526.462C336.716 526.387 337.02 526.35 337.346 526.35C338.261 526.35 339.036 526.681 339.67 527.344C340.314 527.997 340.636 528.809 340.636 529.78C340.636 530.769 340.282 531.6 339.572 532.272C338.863 532.944 337.958 533.28 336.856 533.28C335.755 533.28 334.85 532.944 334.14 532.272C333.431 531.6 333.076 530.769 333.076 529.78ZM335.33 528.324C334.948 528.697 334.756 529.183 334.756 529.78C334.756 530.377 334.948 530.867 335.33 531.25C335.713 531.623 336.222 531.81 336.856 531.81C337.491 531.81 338 531.623 338.382 531.25C338.765 530.867 338.956 530.377 338.956 529.78C338.956 529.183 338.765 528.697 338.382 528.324C338 527.941 337.491 527.75 336.856 527.75C336.222 527.75 335.713 527.941 335.33 528.324ZM341.41 531.04V529.5L344.7 523.2H346.45L343.16 529.5H346.38V527.12H346.45H347.99V529.5H349.39V531.04H347.99V533H346.38V531.04H341.41Z" fill="#333333"/>
<path d="M347.696 296V294.46L351.042 292.094C351.77 291.571 352.293 291.086 352.61 290.638C352.927 290.19 353.086 289.714 353.086 289.21C353.086 288.678 352.923 288.253 352.596 287.936C352.269 287.619 351.826 287.46 351.266 287.46C350.575 287.46 350.057 287.74 349.712 288.3C349.563 288.543 349.451 288.823 349.376 289.14H347.696C347.78 288.543 347.962 288.006 348.242 287.53C348.905 286.457 349.913 285.92 351.266 285.92C352.302 285.92 353.142 286.228 353.786 286.844C354.439 287.451 354.766 288.216 354.766 289.14C354.766 289.943 354.561 290.666 354.15 291.31C353.739 291.945 353.081 292.575 352.176 293.2L350.776 294.18L350.146 294.46V294.53L350.986 294.46H354.766V296H347.696ZM355.889 295.23C355.889 294.95 355.977 294.717 356.155 294.53C356.341 294.343 356.57 294.25 356.841 294.25C357.149 294.25 357.391 294.362 357.569 294.586C357.755 294.81 357.849 295.141 357.849 295.58C357.849 296.299 357.676 296.849 357.331 297.232C356.995 297.624 356.537 297.82 355.959 297.82V297.12C356.239 297.12 356.458 297.041 356.617 296.882C356.785 296.733 356.869 296.532 356.869 296.28V296.196C356.859 296.187 356.855 296.168 356.855 296.14V296.098L356.771 296.126C356.743 296.135 356.682 296.14 356.589 296.14C356.402 296.14 356.239 296.056 356.099 295.888C355.959 295.72 355.889 295.501 355.889 295.23ZM358.965 289.42C358.965 288.431 359.319 287.6 360.029 286.928C360.738 286.256 361.643 285.92 362.745 285.92C363.846 285.92 364.751 286.256 365.461 286.928C366.17 287.6 366.525 288.431 366.525 289.42C366.525 290.307 366.156 291.263 365.419 292.29C365.344 292.393 365.241 292.533 365.111 292.71C364.98 292.878 364.891 292.995 364.845 293.06L362.605 296H360.715L362.829 293.242L363.445 292.71V292.64C363.426 292.649 363.333 292.687 363.165 292.752C362.922 292.817 362.619 292.85 362.255 292.85C361.34 292.85 360.561 292.523 359.917 291.87C359.282 291.207 358.965 290.391 358.965 289.42ZM361.219 287.964C360.836 288.337 360.645 288.823 360.645 289.42C360.645 290.017 360.836 290.507 361.219 290.89C361.601 291.263 362.11 291.45 362.745 291.45C363.379 291.45 363.888 291.263 364.271 290.89C364.653 290.507 364.845 290.017 364.845 289.42C364.845 288.823 364.653 288.337 364.271 287.964C363.888 287.581 363.379 287.39 362.745 287.39C362.11 287.39 361.601 287.581 361.219 287.964ZM367.578 293.34C367.578 292.491 367.905 291.814 368.558 291.31C368.838 291.114 369.165 290.965 369.538 290.862V290.778C369.249 290.666 368.992 290.512 368.768 290.316C368.255 289.877 367.998 289.299 367.998 288.58C367.998 287.843 368.311 287.217 368.936 286.704C369.571 286.181 370.425 285.92 371.498 285.92C372.571 285.92 373.421 286.181 374.046 286.704C374.681 287.217 374.998 287.843 374.998 288.58C374.998 289.28 374.741 289.859 374.228 290.316C373.985 290.512 373.729 290.666 373.458 290.778V290.862C373.813 290.955 374.139 291.109 374.438 291.324C375.091 291.828 375.418 292.5 375.418 293.34C375.418 294.152 375.063 294.847 374.354 295.426C373.654 295.995 372.702 296.28 371.498 296.28C370.294 296.28 369.337 295.995 368.628 295.426C367.928 294.847 367.578 294.152 367.578 293.34ZM369.678 288.72C369.678 289.131 369.837 289.467 370.154 289.728C370.471 289.989 370.919 290.12 371.498 290.12C372.077 290.12 372.525 289.989 372.842 289.728C373.159 289.467 373.318 289.131 373.318 288.72C373.318 288.347 373.155 288.034 372.828 287.782C372.511 287.521 372.067 287.39 371.498 287.39C370.929 287.39 370.481 287.521 370.154 287.782C369.837 288.034 369.678 288.347 369.678 288.72ZM369.846 292.066C369.454 292.374 369.258 292.752 369.258 293.2C369.258 293.648 369.454 294.031 369.846 294.348C370.247 294.656 370.798 294.81 371.498 294.81C372.198 294.81 372.744 294.656 373.136 294.348C373.537 294.031 373.738 293.648 373.738 293.2C373.738 292.752 373.537 292.374 373.136 292.066C372.744 291.749 372.198 291.59 371.498 291.59C370.798 291.59 370.247 291.749 369.846 292.066Z" fill="#333333"/>
</svg>
