<svg width="468" height="764" viewBox="0 0 468 764" fill="none" xmlns="http://www.w3.org/2000/svg">
<rect width="30" height="41" transform="matrix(4.37114e-08 1 1 -4.37114e-08 427 62)" fill="#5A5A5A"/>
<path d="M16 91V286.674L468 286.674L468 91L16 91Z" fill="#FFF8BA"/>
<path d="M13 211.415V370.088H329L329 211.415L13 211.415Z" fill="#FFF8BA"/>
<path d="M10 331.829V483.351H155V331.829H10Z" fill="#FFF8BA"/>
<path d="M7 452.244V672H152L152 452.244L7 452.244Z" fill="#FFF8BA"/>
<path d="M13 238.5V374.174H329L329 238.5L13 238.5Z" fill="#FFF8BA"/>
<rect width="42" height="95" transform="matrix(4.37114e-08 -1 -1 -4.37114e-08 336 414)" fill="#FFF8BA"/>
<circle cx="195.5" cy="186.5" r="39.5" fill="#5A5A5A"/>
<path d="M171.72 185.54C171.72 184.268 172.176 183.2 173.088 182.336C174 181.472 175.164 181.04 176.58 181.04C177.996 181.04 179.16 181.472 180.072 182.336C180.984 183.2 181.44 184.268 181.44 185.54C181.44 186.68 180.966 187.91 180.018 189.23C179.922 189.362 179.79 189.542 179.622 189.77C179.454 189.986 179.34 190.136 179.28 190.22L176.4 194H173.97L176.688 190.454L177.48 189.77V189.68C177.456 189.692 177.336 189.74 177.12 189.824C176.808 189.908 176.418 189.95 175.95 189.95C174.774 189.95 173.772 189.53 172.944 188.69C172.128 187.838 171.72 186.788 171.72 185.54ZM174.618 183.668C174.126 184.148 173.88 184.772 173.88 185.54C173.88 186.308 174.126 186.938 174.618 187.43C175.11 187.91 175.764 188.15 176.58 188.15C177.396 188.15 178.05 187.91 178.542 187.43C179.034 186.938 179.28 186.308 179.28 185.54C179.28 184.772 179.034 184.148 178.542 183.668C178.05 183.176 177.396 182.93 176.58 182.93C175.764 182.93 175.11 183.176 174.618 183.668ZM182.344 191.48V189.5L186.574 181.4H188.824L184.594 189.5H188.734V186.44H188.824H190.804V189.5H192.604V191.48H190.804V194H188.734V191.48H182.344ZM193.324 193.01C193.324 192.65 193.438 192.35 193.666 192.11C193.906 191.87 194.2 191.75 194.548 191.75C194.944 191.75 195.256 191.894 195.484 192.182C195.724 192.47 195.844 192.896 195.844 193.46C195.844 194.384 195.622 195.092 195.178 195.584C194.746 196.088 194.158 196.34 193.414 196.34V195.44C193.774 195.44 194.056 195.338 194.26 195.134C194.476 194.942 194.584 194.684 194.584 194.36V194.252C194.572 194.24 194.566 194.216 194.566 194.18V194.126L194.458 194.162C194.422 194.174 194.344 194.18 194.224 194.18C193.984 194.18 193.774 194.072 193.594 193.856C193.414 193.64 193.324 193.358 193.324 193.01ZM197.099 190.4H199.259C199.343 190.772 199.505 191.102 199.745 191.39C200.285 192.05 201.053 192.38 202.049 192.38C202.877 192.38 203.531 192.176 204.011 191.768C204.503 191.348 204.749 190.832 204.749 190.22C204.749 189.524 204.527 188.978 204.083 188.582C203.651 188.174 203.033 187.97 202.229 187.97H199.169V186.17L202.949 183.47V183.38H197.729V181.4H206.009V183.362L202.769 185.72L201.869 186.08V186.17L202.157 186.134C202.553 186.098 202.787 186.08 202.859 186.08C203.987 186.08 204.929 186.47 205.685 187.25C206.441 188.03 206.819 189.02 206.819 190.22C206.819 191.372 206.375 192.35 205.487 193.154C204.599 193.958 203.453 194.36 202.049 194.36C200.189 194.36 198.815 193.7 197.927 192.38C197.543 191.816 197.267 191.156 197.099 190.4ZM208.087 189.86C208.087 189.284 208.213 188.684 208.465 188.06C208.729 187.424 208.981 186.926 209.221 186.566C209.473 186.194 209.815 185.732 210.247 185.18L213.127 181.4H215.557L212.839 184.946L212.047 185.63V185.72L212.407 185.594C212.767 185.498 213.157 185.45 213.577 185.45C214.753 185.45 215.749 185.876 216.565 186.728C217.393 187.568 217.807 188.612 217.807 189.86C217.807 191.132 217.351 192.2 216.439 193.064C215.527 193.928 214.363 194.36 212.947 194.36C211.531 194.36 210.367 193.928 209.455 193.064C208.543 192.2 208.087 191.132 208.087 189.86ZM210.985 187.988C210.493 188.468 210.247 189.092 210.247 189.86C210.247 190.628 210.493 191.258 210.985 191.75C211.477 192.23 212.131 192.47 212.947 192.47C213.763 192.47 214.417 192.23 214.909 191.75C215.401 191.258 215.647 190.628 215.647 189.86C215.647 189.092 215.401 188.468 214.909 187.988C214.417 187.496 213.763 187.25 212.947 187.25C212.131 187.25 211.477 187.496 210.985 187.988Z" fill="white"/>
<path d="M352.49 242.78C352.49 242.332 352.588 241.865 352.784 241.38C352.989 240.885 353.185 240.498 353.372 240.218C353.568 239.929 353.834 239.569 354.17 239.14L356.41 236.2H358.3L356.186 238.958L355.57 239.49V239.56L355.85 239.462C356.13 239.387 356.433 239.35 356.76 239.35C357.675 239.35 358.449 239.681 359.084 240.344C359.728 240.997 360.05 241.809 360.05 242.78C360.05 243.769 359.695 244.6 358.986 245.272C358.277 245.944 357.371 246.28 356.27 246.28C355.169 246.28 354.263 245.944 353.554 245.272C352.845 244.6 352.49 243.769 352.49 242.78ZM354.744 241.324C354.361 241.697 354.17 242.183 354.17 242.78C354.17 243.377 354.361 243.867 354.744 244.25C355.127 244.623 355.635 244.81 356.27 244.81C356.905 244.81 357.413 244.623 357.796 244.25C358.179 243.867 358.37 243.377 358.37 242.78C358.37 242.183 358.179 241.697 357.796 241.324C357.413 240.941 356.905 240.75 356.27 240.75C355.635 240.75 355.127 240.941 354.744 241.324ZM361.173 245.23C361.173 244.95 361.262 244.717 361.439 244.53C361.626 244.343 361.855 244.25 362.125 244.25C362.433 244.25 362.676 244.362 362.853 244.586C363.04 244.81 363.133 245.141 363.133 245.58C363.133 246.299 362.961 246.849 362.615 247.232C362.279 247.624 361.822 247.82 361.243 247.82V247.12C361.523 247.12 361.743 247.041 361.901 246.882C362.069 246.733 362.153 246.532 362.153 246.28V246.196C362.144 246.187 362.139 246.168 362.139 246.14V246.098L362.055 246.126C362.027 246.135 361.967 246.14 361.873 246.14C361.687 246.14 361.523 246.056 361.383 245.888C361.243 245.72 361.173 245.501 361.173 245.23ZM365.649 244.824C364.763 243.853 364.319 242.612 364.319 241.1C364.319 239.588 364.763 238.347 365.649 237.376C366.536 236.405 367.609 235.92 368.869 235.92C370.129 235.92 371.203 236.405 372.089 237.376C372.976 238.347 373.419 239.588 373.419 241.1C373.419 242.612 372.976 243.853 372.089 244.824C371.203 245.795 370.129 246.28 368.869 246.28C367.609 246.28 366.536 245.795 365.649 244.824ZM366.797 238.412C366.265 239.047 365.999 239.943 365.999 241.1C365.999 242.257 366.265 243.153 366.797 243.788C367.339 244.423 368.029 244.74 368.869 244.74C369.709 244.74 370.395 244.423 370.927 243.788C371.469 243.153 371.739 242.257 371.739 241.1C371.739 239.943 371.469 239.047 370.927 238.412C370.395 237.777 369.709 237.46 368.869 237.46C368.029 237.46 367.339 237.777 366.797 238.412ZM374.613 243.27H376.293C376.367 243.559 376.493 243.807 376.671 244.012C377.081 244.497 377.679 244.74 378.463 244.74C379.088 244.74 379.583 244.572 379.947 244.236C380.311 243.9 380.493 243.461 380.493 242.92C380.493 242.351 380.311 241.893 379.947 241.548C379.583 241.203 379.088 241.03 378.463 241.03C377.884 241.03 377.394 241.184 376.993 241.492C376.834 241.613 376.694 241.763 376.573 241.94H375.033L375.453 236.2H381.403V237.74H376.783L376.573 240.26H376.643C376.792 240.111 376.965 239.985 377.161 239.882C377.599 239.621 378.127 239.49 378.743 239.49C379.723 239.49 380.539 239.817 381.193 240.47C381.846 241.123 382.173 241.94 382.173 242.92C382.173 243.881 381.827 244.684 381.137 245.328C380.455 245.963 379.564 246.28 378.463 246.28C377.025 246.28 375.957 245.781 375.257 244.782C374.958 244.343 374.743 243.839 374.613 243.27Z" fill="#333333"/>
<path d="M337.21 157.04V155.5L340.5 149.2H342.25L338.96 155.5H342.18V153.12H342.25H343.79V155.5H345.19V157.04H343.79V159H342.18V157.04H337.21ZM345.749 156.34C345.749 155.491 346.076 154.814 346.729 154.31C347.009 154.114 347.336 153.965 347.709 153.862V153.778C347.42 153.666 347.163 153.512 346.939 153.316C346.426 152.877 346.169 152.299 346.169 151.58C346.169 150.843 346.482 150.217 347.107 149.704C347.742 149.181 348.596 148.92 349.669 148.92C350.743 148.92 351.592 149.181 352.217 149.704C352.852 150.217 353.169 150.843 353.169 151.58C353.169 152.28 352.913 152.859 352.399 153.316C352.157 153.512 351.9 153.666 351.629 153.778V153.862C351.984 153.955 352.311 154.109 352.609 154.324C353.263 154.828 353.589 155.5 353.589 156.34C353.589 157.152 353.235 157.847 352.525 158.426C351.825 158.995 350.873 159.28 349.669 159.28C348.465 159.28 347.509 158.995 346.799 158.426C346.099 157.847 345.749 157.152 345.749 156.34ZM347.849 151.72C347.849 152.131 348.008 152.467 348.325 152.728C348.643 152.989 349.091 153.12 349.669 153.12C350.248 153.12 350.696 152.989 351.013 152.728C351.331 152.467 351.489 152.131 351.489 151.72C351.489 151.347 351.326 151.034 350.999 150.782C350.682 150.521 350.239 150.39 349.669 150.39C349.1 150.39 348.652 150.521 348.325 150.782C348.008 151.034 347.849 151.347 347.849 151.72ZM348.017 155.066C347.625 155.374 347.429 155.752 347.429 156.2C347.429 156.648 347.625 157.031 348.017 157.348C348.419 157.656 348.969 157.81 349.669 157.81C350.369 157.81 350.915 157.656 351.307 157.348C351.709 157.031 351.909 156.648 351.909 156.2C351.909 155.752 351.709 155.374 351.307 155.066C350.915 154.749 350.369 154.59 349.669 154.59C348.969 154.59 348.419 154.749 348.017 155.066ZM354.705 158.23C354.705 157.95 354.793 157.717 354.971 157.53C355.157 157.343 355.386 157.25 355.657 157.25C355.965 157.25 356.207 157.362 356.385 157.586C356.571 157.81 356.665 158.141 356.665 158.58C356.665 159.299 356.492 159.849 356.147 160.232C355.811 160.624 355.353 160.82 354.775 160.82V160.12C355.055 160.12 355.274 160.041 355.433 159.882C355.601 159.733 355.685 159.532 355.685 159.28V159.196C355.675 159.187 355.671 159.168 355.671 159.14V159.098L355.587 159.126C355.559 159.135 355.498 159.14 355.405 159.14C355.218 159.14 355.055 159.056 354.915 158.888C354.775 158.72 354.705 158.501 354.705 158.23ZM357.711 155.78C357.711 155.332 357.809 154.865 358.005 154.38C358.21 153.885 358.406 153.498 358.593 153.218C358.789 152.929 359.055 152.569 359.391 152.14L361.631 149.2H363.521L361.407 151.958L360.791 152.49V152.56L361.071 152.462C361.351 152.387 361.654 152.35 361.981 152.35C362.895 152.35 363.67 152.681 364.305 153.344C364.949 153.997 365.271 154.809 365.271 155.78C365.271 156.769 364.916 157.6 364.207 158.272C363.497 158.944 362.592 159.28 361.491 159.28C360.389 159.28 359.484 158.944 358.775 158.272C358.065 157.6 357.711 156.769 357.711 155.78ZM359.965 154.324C359.582 154.697 359.391 155.183 359.391 155.78C359.391 156.377 359.582 156.867 359.965 157.25C360.347 157.623 360.856 157.81 361.491 157.81C362.125 157.81 362.634 157.623 363.017 157.25C363.399 156.867 363.591 156.377 363.591 155.78C363.591 155.183 363.399 154.697 363.017 154.324C362.634 153.941 362.125 153.75 361.491 153.75C360.856 153.75 360.347 153.941 359.965 154.324ZM366.394 156.34C366.394 155.491 366.721 154.814 367.374 154.31C367.654 154.114 367.981 153.965 368.354 153.862V153.778C368.065 153.666 367.808 153.512 367.584 153.316C367.071 152.877 366.814 152.299 366.814 151.58C366.814 150.843 367.127 150.217 367.752 149.704C368.387 149.181 369.241 148.92 370.314 148.92C371.387 148.92 372.237 149.181 372.862 149.704C373.497 150.217 373.814 150.843 373.814 151.58C373.814 152.28 373.557 152.859 373.044 153.316C372.801 153.512 372.545 153.666 372.274 153.778V153.862C372.629 153.955 372.955 154.109 373.254 154.324C373.907 154.828 374.234 155.5 374.234 156.34C374.234 157.152 373.879 157.847 373.17 158.426C372.47 158.995 371.518 159.28 370.314 159.28C369.11 159.28 368.153 158.995 367.444 158.426C366.744 157.847 366.394 157.152 366.394 156.34ZM368.494 151.72C368.494 152.131 368.653 152.467 368.97 152.728C369.287 152.989 369.735 153.12 370.314 153.12C370.893 153.12 371.341 152.989 371.658 152.728C371.975 152.467 372.134 152.131 372.134 151.72C372.134 151.347 371.971 151.034 371.644 150.782C371.327 150.521 370.883 150.39 370.314 150.39C369.745 150.39 369.297 150.521 368.97 150.782C368.653 151.034 368.494 151.347 368.494 151.72ZM368.662 155.066C368.27 155.374 368.074 155.752 368.074 156.2C368.074 156.648 368.27 157.031 368.662 157.348C369.063 157.656 369.614 157.81 370.314 157.81C371.014 157.81 371.56 157.656 371.952 157.348C372.353 157.031 372.554 156.648 372.554 156.2C372.554 155.752 372.353 155.374 371.952 155.066C371.56 154.749 371.014 154.59 370.314 154.59C369.614 154.59 369.063 154.749 368.662 155.066Z" fill="#333333"/>
<path d="M348.21 44.04V42.5L351.5 36.2H353.25L349.96 42.5H353.18V40.12H353.25H354.79V42.5H356.19V44.04H354.79V46H353.18V44.04H348.21ZM356.749 45.23C356.749 44.95 356.838 44.7167 357.015 44.53C357.202 44.3433 357.431 44.25 357.701 44.25C358.009 44.25 358.252 44.362 358.429 44.586C358.616 44.81 358.709 45.1413 358.709 45.58C358.709 46.2987 358.537 46.8493 358.191 47.232C357.855 47.624 357.398 47.82 356.819 47.82V47.12C357.099 47.12 357.319 47.0407 357.477 46.882C357.645 46.7327 357.729 46.532 357.729 46.28V46.196C357.72 46.1867 357.715 46.168 357.715 46.14V46.098L357.631 46.126C357.603 46.1353 357.543 46.14 357.449 46.14C357.263 46.14 357.099 46.056 356.959 45.888C356.819 45.72 356.749 45.5007 356.749 45.23ZM359.406 37.74V36.2H366.056V37.74L362.136 46H360.386L364.236 37.88V37.74H359.406ZM366.551 42.78C366.551 42.332 366.649 41.8653 366.845 41.38C367.05 40.8853 367.246 40.498 367.433 40.218C367.629 39.9287 367.895 39.5693 368.231 39.14L370.471 36.2H372.361L370.247 38.958L369.631 39.49V39.56L369.911 39.462C370.191 39.3873 370.494 39.35 370.821 39.35C371.735 39.35 372.51 39.6813 373.145 40.344C373.789 40.9973 374.111 41.8093 374.111 42.78C374.111 43.7693 373.756 44.6 373.047 45.272C372.337 45.944 371.432 46.28 370.331 46.28C369.229 46.28 368.324 45.944 367.615 45.272C366.905 44.6 366.551 43.7693 366.551 42.78ZM368.805 41.324C368.422 41.6973 368.231 42.1827 368.231 42.78C368.231 43.3773 368.422 43.8673 368.805 44.25C369.187 44.6233 369.696 44.81 370.331 44.81C370.965 44.81 371.474 44.6233 371.857 44.25C372.239 43.8673 372.431 43.3773 372.431 42.78C372.431 42.1827 372.239 41.6973 371.857 41.324C371.474 40.9413 370.965 40.75 370.331 40.75C369.696 40.75 369.187 40.9413 368.805 41.324Z" fill="#333333"/>
<path d="M267.35 342.42V340.6L269.17 339.2H270.64V349H269.03V341.16L267.35 342.42ZM272.181 346.27H273.861C273.936 346.559 274.062 346.807 274.239 347.012C274.65 347.497 275.247 347.74 276.031 347.74C276.656 347.74 277.151 347.572 277.515 347.236C277.879 346.9 278.061 346.461 278.061 345.92C278.061 345.351 277.879 344.893 277.515 344.548C277.151 344.203 276.656 344.03 276.031 344.03C275.452 344.03 274.962 344.184 274.561 344.492C274.402 344.613 274.262 344.763 274.141 344.94H272.601L273.021 339.2H278.971V340.74H274.351L274.141 343.26H274.211C274.36 343.111 274.533 342.985 274.729 342.882C275.168 342.621 275.695 342.49 276.311 342.49C277.291 342.49 278.108 342.817 278.761 343.47C279.414 344.123 279.741 344.94 279.741 345.92C279.741 346.881 279.396 347.684 278.705 348.328C278.024 348.963 277.132 349.28 276.031 349.28C274.594 349.28 273.525 348.781 272.825 347.782C272.526 347.343 272.312 346.839 272.181 346.27ZM280.794 348.23C280.794 347.95 280.883 347.717 281.06 347.53C281.247 347.343 281.476 347.25 281.746 347.25C282.054 347.25 282.297 347.362 282.474 347.586C282.661 347.81 282.754 348.141 282.754 348.58C282.754 349.299 282.582 349.849 282.236 350.232C281.9 350.624 281.443 350.82 280.864 350.82V350.12C281.144 350.12 281.364 350.041 281.522 349.882C281.69 349.733 281.774 349.532 281.774 349.28V349.196C281.765 349.187 281.76 349.168 281.76 349.14V349.098L281.676 349.126C281.648 349.135 281.588 349.14 281.494 349.14C281.308 349.14 281.144 349.056 281.004 348.888C280.864 348.72 280.794 348.501 280.794 348.23ZM283.661 342.42V340.6L285.481 339.2H286.951V349H285.341V341.16L283.661 342.42ZM288.142 347.04V345.5L291.432 339.2H293.182L289.892 345.5H293.112V343.12H293.182H294.722V345.5H296.122V347.04H294.722V349H293.112V347.04H288.142Z" fill="#333333"/>
<path d="M403.625 257.108L403.625 282.104L379.301 282.104L379.301 257.108L403.625 257.108Z" fill="white" stroke="#5A5A5A" stroke-width="0.5"/>
<path d="M402.699 280.077L402.699 260.624C402.699 259.886 402.306 259.494 401.537 259.494L381.389 259.494C380.604 259.494 380.227 259.87 380.227 260.624L380.227 280.077C380.212 280.831 380.604 281.208 381.374 281.208L401.521 281.208C402.306 281.223 402.699 280.831 402.699 280.077Z" fill="white" stroke="#5A5A5A" stroke-width="0.5"/>
<path d="M396.198 278.288C394.407 278.272 392.947 276.859 392.947 275.117C392.947 273.358 394.407 271.945 396.198 271.945C398.004 271.945 399.448 273.358 399.448 275.117C399.448 276.875 398.004 278.288 396.198 278.288Z" stroke="#5A5A5A" stroke-width="0.5"/>
<path d="M386.572 278.258C384.782 278.242 383.321 276.829 383.321 275.086C383.321 273.328 384.782 271.915 386.572 271.915C388.378 271.915 389.822 273.328 389.822 275.086C389.838 276.845 388.378 278.273 386.572 278.258Z" stroke="#5A5A5A" stroke-width="0.5"/>
<path d="M386.572 269.244C384.766 269.244 383.321 267.831 383.321 266.073C383.321 264.314 384.782 262.901 386.572 262.901C388.362 262.917 389.823 264.33 389.823 266.073C389.823 267.815 388.362 269.244 386.572 269.244Z" stroke="#5A5A5A" stroke-width="0.5"/>
<path d="M396.198 269.244C394.392 269.244 392.947 267.831 392.947 266.073C392.947 264.314 394.407 262.901 396.198 262.901C397.988 262.917 399.448 264.33 399.448 266.073C399.448 267.815 397.988 269.244 396.198 269.244Z" stroke="#5A5A5A" stroke-width="0.5"/>
<path d="M451.985 236H427.896L427.896 259.699H452L451.985 236Z" fill="white" stroke="#5A5A5A" stroke-width="0.5"/>
<path d="M445.379 237.803L432.062 237.803C431.32 237.803 430.956 238.167 430.956 238.925L430.956 256.532C430.956 257.259 431.32 257.638 432.047 257.653L445.379 257.638C446.106 257.653 446.47 257.275 446.47 256.532L446.47 238.925C446.5 238.182 446.121 237.803 445.379 237.803Z" fill="white" stroke="#5A5A5A" stroke-width="0.5"/>
<path d="M450.136 247.728C450.121 248.653 449.424 249.395 448.546 249.395L441.562 248.744L441.546 248.728C441.016 248.728 440.592 248.289 440.592 247.728C440.592 247.168 441.016 246.728 441.562 246.713L448.546 246.062C449.409 246.062 450.121 246.804 450.136 247.728Z" stroke="#5A5A5A" stroke-width="0.5"/>
<mask id="path-19-inside-1_33_7097" fill="white">
<path fill-rule="evenodd" clip-rule="evenodd" d="M449.454 249.107L445.651 248.744C445.121 248.729 444.682 248.289 444.697 247.713C444.697 247.153 445.121 246.728 445.651 246.713L449.454 246.35"/>
</mask>
<path fill-rule="evenodd" clip-rule="evenodd" d="M449.454 249.107L445.651 248.744C445.121 248.729 444.682 248.289 444.697 247.713C444.697 247.153 445.121 246.728 445.651 246.713L449.454 246.35" fill="white"/>
<path d="M445.651 248.744L445.665 248.244L445.682 248.244L445.699 248.246L445.651 248.744ZM444.697 247.713L445.197 247.713L445.197 247.727L444.697 247.713ZM445.651 246.713L445.699 247.211L445.682 247.213L445.665 247.213L445.651 246.713ZM449.406 249.605L445.604 249.241L445.699 248.246L449.501 248.61L449.406 249.605ZM445.637 249.244C444.832 249.221 444.175 248.552 444.197 247.7L445.197 247.727C445.189 248.026 445.41 248.237 445.665 248.244L445.637 249.244ZM444.197 247.713C444.197 246.884 444.834 246.236 445.637 246.213L445.665 247.213C445.408 247.22 445.197 247.421 445.197 247.713H444.197ZM445.604 246.216L449.406 245.852L449.501 246.847L445.699 247.211L445.604 246.216Z" fill="#5A5A5A" mask="url(#path-19-inside-1_33_7097)"/>
<path d="M9.00001 298L95 298L95 477L9 477L9.00001 298Z" fill="#FFC79F"/>
<path d="M35.5238 317.72L34.3433 317.736L31.2773 317.72L23.686 317.72L23.6861 327.677L35.5238 327.677C38.5406 327.677 41 325.433 41 322.682C41 319.963 38.5406 317.72 35.5238 317.72Z" fill="white" stroke="#5A5A5A" stroke-width="0.5"/>
<path d="M35.4582 318.866L34.5236 318.866L26.9652 318.866L26.9652 326.547L34.5236 326.547L35.4582 326.53C37.8356 326.53 39.7703 324.827 39.7703 322.698C39.7539 320.586 37.8192 318.866 35.4582 318.866Z" fill="white" stroke="#5A5A5A" stroke-width="0.5"/>
<path d="M17.3245 329.478L22.5875 329.478C23.1942 329.478 23.686 328.987 23.686 328.381L23.686 317.097C23.686 316.491 23.1942 316 22.5875 316L17.3245 316C16.7178 316 16.2259 316.491 16.2259 317.097L16.2259 328.365C16.2259 328.987 16.7178 329.478 17.3245 329.478Z" fill="white" stroke="#5A5A5A" stroke-width="0.5"/>
<path d="M19.9479 323.386C20.3577 323.386 20.6692 323.091 20.6692 322.747C20.6856 322.387 20.3577 322.092 19.9479 322.092C19.538 322.092 19.2265 322.387 19.2265 322.731C19.2429 323.108 19.5544 323.402 19.9479 323.386Z" fill="white" stroke="#5A5A5A" stroke-width="0.5"/>
<path d="M80 351.848L80 339.54C80 338.685 79.3162 338 78.4615 338L59.9421 338C59.0873 338 58.4036 338.685 58.4036 339.54L58.4036 351.848C58.4036 352.704 59.0873 353.389 59.9421 353.389L78.4615 353.389C79.302 353.389 80 352.704 80 351.848Z" fill="white" stroke="#5A5A5A" stroke-width="0.5"/>
<path d="M78.0769 347.156L78.0769 345.259C78.0769 342.764 76.054 340.738 73.561 340.738L64.8426 340.738C62.3497 340.738 60.3268 342.764 60.3268 345.259L60.3268 347.156C60.3268 349.652 62.3497 351.677 64.8426 351.677L73.561 351.677C76.054 351.677 78.0769 349.652 78.0769 347.156Z" fill="white" stroke="#5A5A5A" stroke-width="0.5"/>
<path d="M70.1566 349.267C70.1566 348.724 69.7293 348.283 69.2022 348.283C68.6751 348.283 68.2478 348.724 68.2478 349.267C68.2478 349.81 68.6751 350.251 69.2022 350.251C69.7293 350.251 70.1566 349.81 70.1566 349.267Z" fill="white" stroke="#5A5A5A" stroke-width="0.5"/>
<rect width="30" height="70" transform="matrix(4.37114e-08 1 1 -4.37114e-08 266 62)" fill="#5A5A5A"/>
<path d="M328.25 0.250157L438.707 0.313212L438.748 4.74999L328.25 4.75L328.25 0.250157Z" stroke="#5A5A5A" stroke-width="0.5" stroke-miterlimit="10"/>
<line x1="428.257" y1="75.4287" x2="403.257" y2="90.4287" stroke="#5A5A5A"/>
<rect width="5" height="82" transform="matrix(-1 0 0 1 312 0)" fill="#5A5A5A"/>
<rect width="5" height="79" transform="matrix(-1 0 0 1 454 3)" fill="#5A5A5A"/>
<rect width="5" height="19" transform="matrix(4.37114e-08 1 1 -4.37114e-08 435 0)" fill="#5A5A5A"/>
<rect width="5.00001" height="125" transform="matrix(4.37114e-08 1 1 -4.37114e-08 310 0)" fill="#5A5A5A"/>
<path d="M397.75 62.2503L334.275 62.3131L334.251 66.75L397.75 66.75L397.75 62.2503Z" stroke="#5A5A5A" stroke-width="0.5" stroke-miterlimit="10"/>
<path d="M397.75 72.2503L334.275 72.3131L334.251 76.75L397.75 76.75L397.75 72.2503Z" stroke="#5A5A5A" stroke-width="0.5" stroke-miterlimit="10"/>
<rect width="30" height="82" transform="matrix(4.37114e-08 1 1 -4.37114e-08 110 62)" fill="#5A5A5A"/>
<rect width="30" height="45" transform="matrix(4.37114e-08 1 1 -4.37114e-08 0 62)" fill="#5A5A5A"/>
<rect width="16" height="607" transform="matrix(-1 0 0 1 16 68)" fill="#5A5A5A"/>
<rect width="16" height="236" transform="matrix(-1 0 0 1 468 62)" fill="#5A5A5A"/>
<rect width="16" height="145" transform="matrix(4.37114e-08 1 1 -4.37114e-08 323 282)" fill="#5A5A5A"/>
<rect width="2" height="6" transform="matrix(4.37114e-08 -1 -1 -4.37114e-08 452 210)" fill="#5A5A5A"/>
<rect width="2" height="11" transform="matrix(4.37114e-08 -1 -1 -4.37114e-08 441 210)" fill="#5A5A5A"/>
<rect width="2" height="11" transform="matrix(4.37114e-08 -1 -1 -4.37114e-08 424 210)" fill="#5A5A5A"/>
<rect width="2" height="11" transform="matrix(4.37114e-08 -1 -1 -4.37114e-08 407 210)" fill="#5A5A5A"/>
<rect width="2" height="11" transform="matrix(4.37114e-08 -1 -1 -4.37114e-08 390 210)" fill="#5A5A5A"/>
<rect width="2" height="11" transform="matrix(4.37114e-08 -1 -1 -4.37114e-08 373 210)" fill="#5A5A5A"/>
<rect width="2" height="11" transform="matrix(4.37114e-08 -1 -1 -4.37114e-08 353 210)" fill="#5A5A5A"/>
<rect width="2" height="11" transform="matrix(4.37114e-08 -1 -1 -4.37114e-08 338 210)" fill="#5A5A5A"/>
<rect width="2" height="6" transform="matrix(1 8.74228e-08 8.74228e-08 -1 323 298)" fill="#5A5A5A"/>
<rect width="2" height="11" transform="matrix(1 8.74228e-08 8.74228e-08 -1 323 287)" fill="#5A5A5A"/>
<rect width="2" height="11" transform="matrix(1 8.74228e-08 8.74228e-08 -1 323 270)" fill="#5A5A5A"/>
<rect width="2" height="11" transform="matrix(1 8.74228e-08 8.74228e-08 -1 323 253)" fill="#5A5A5A"/>
<rect width="2" height="11" transform="matrix(1 8.74228e-08 8.74228e-08 -1 323 236)" fill="#5A5A5A"/>
<rect width="2" height="11" transform="matrix(1 8.74228e-08 8.74228e-08 -1 323 219)" fill="#5A5A5A"/>
<rect width="16" height="46" transform="matrix(1 -8.74228e-08 -8.74228e-08 -1 328 329)" fill="#5A5A5A"/>
<rect width="16" height="46" transform="matrix(1 -8.74228e-08 -8.74228e-08 -1 328 414)" fill="#5A5A5A"/>
<rect width="16" height="46" transform="matrix(1 -8.74228e-08 -8.74228e-08 -1 241 414)" fill="#5A5A5A"/>
<rect width="16" height="97" transform="matrix(-4.37114e-08 1 1 4.37114e-08 160 360)" fill="#5A5A5A"/>
<rect width="16" height="95" transform="matrix(4.37114e-08 -1 -1 -4.37114e-08 336 414)" fill="#5A5A5A"/>
<rect width="16" height="329" transform="matrix(-1 0 0 1 164 360)" fill="#5A5A5A"/>
<rect width="16" height="94" transform="matrix(4.37114e-08 1 1 -4.37114e-08 13 476)" fill="#5A5A5A"/>
<rect width="16" height="98" transform="matrix(4.37114e-08 1 1 -4.37114e-08 9 282)" fill="#5A5A5A"/>
<rect width="16" height="21" transform="matrix(4.37114e-08 1 1 -4.37114e-08 147 282)" fill="#5A5A5A"/>
<rect width="16" height="78" transform="matrix(4.37114e-08 1 1 -4.37114e-08 206 282)" fill="#5A5A5A"/>
<rect width="30" height="45" transform="matrix(4.37114e-08 1 1 -4.37114e-08 0 672)" fill="#5A5A5A"/>
<rect width="30" height="50" transform="matrix(4.37114e-08 1 1 -4.37114e-08 114 672)" fill="#5A5A5A"/>
<path d="M37.25 62.2501L331.631 62.4019L331.747 73.75L37.25 73.75L37.25 62.2501Z" stroke="#5A5A5A" stroke-width="0.5" stroke-miterlimit="10"/>
<path d="M37.25 80.2501L331.631 80.4019L331.747 91.75L37.25 91.75L37.25 80.2501Z" stroke="#5A5A5A" stroke-width="0.5" stroke-miterlimit="10"/>
<rect width="8" height="70" transform="matrix(-1 0 0 1 103 422)" fill="#5A5A5A"/>
<rect width="8" height="50" transform="matrix(-1 0 0 1 103 341)" fill="#5A5A5A"/>
<rect width="8" height="26" transform="matrix(-1 0 0 1 103 283)" fill="#5A5A5A"/>
<rect width="8" height="86" transform="matrix(4.37114e-08 1 1 -4.37114e-08 13 353)" fill="#5A5A5A"/>
<path d="M34.8945 378.72L33.714 378.736L30.648 378.72L23.0568 378.72L23.0568 388.677L34.8945 388.677C37.9114 388.677 40.3707 386.433 40.3707 383.682C40.3707 380.963 37.9114 378.72 34.8945 378.72Z" fill="white" stroke="#5A5A5A" stroke-width="0.5"/>
<path d="M34.8289 379.866L33.8943 379.866L26.3359 379.866L26.3359 387.547L33.8943 387.547L34.8289 387.53C37.2063 387.53 39.141 385.827 39.141 383.698C39.1246 381.586 37.1899 379.866 34.8289 379.866Z" fill="white" stroke="#5A5A5A" stroke-width="0.5"/>
<path d="M16.6952 390.478L21.9582 390.478C22.5649 390.478 23.0568 389.987 23.0568 389.381L23.0568 378.097C23.0568 377.491 22.5649 377 21.9582 377L16.6952 377C16.0885 377 15.5966 377.491 15.5966 378.097L15.5966 389.365C15.5966 389.987 16.0885 390.478 16.6952 390.478Z" fill="white" stroke="#5A5A5A" stroke-width="0.5"/>
<path d="M19.3186 384.386C19.7285 384.386 20.0399 384.091 20.0399 383.747C20.0563 383.387 19.7285 383.092 19.3186 383.092C18.9087 383.092 18.5972 383.387 18.5972 383.731C18.6136 384.108 18.9251 384.402 19.3186 384.386Z" fill="white" stroke="#5A5A5A" stroke-width="0.5"/>
<path d="M17.0656 421.145L29.3736 421.145C30.2293 421.145 30.9139 420.461 30.9139 419.607L30.9139 401.087C30.9139 400.233 30.2293 399.549 29.3736 399.549L17.0655 399.549C16.2098 399.549 15.5253 400.233 15.5253 401.087L15.5253 419.607C15.5253 420.447 16.2098 421.145 17.0656 421.145Z" fill="white" stroke="#5A5A5A" stroke-width="0.5"/>
<path d="M21.7576 419.222L23.6544 419.222C26.1503 419.222 28.1755 417.199 28.1755 414.706L28.1755 405.988C28.1755 403.495 26.1503 401.472 23.6544 401.472L21.7576 401.472C19.2618 401.472 17.2366 403.495 17.2366 405.988L17.2366 414.706C17.2366 417.199 19.2618 419.222 21.7576 419.222Z" fill="white" stroke="#5A5A5A" stroke-width="0.5"/>
<path d="M19.6468 411.302C20.1903 411.302 20.6308 410.875 20.6308 410.347C20.6308 409.82 20.1903 409.393 19.6468 409.393C19.1034 409.393 18.6628 409.82 18.6628 410.347C18.6628 410.875 19.1034 411.302 19.6468 411.302Z" fill="white" stroke="#5A5A5A" stroke-width="0.5"/>
<path d="M17.8643 449.844L77.985 449.844C78.7549 449.844 79.3708 450.459 79.3708 451.228L79.3708 475.095C79.3708 475.864 78.7549 476.479 77.985 476.479L17.8643 476.479C17.0944 476.479 16.4785 475.864 16.4785 475.095L16.4785 451.228C16.4785 450.459 17.1084 449.844 17.8643 449.844Z" fill="white" stroke="#5A5A5A" stroke-width="0.5"/>
<path d="M75.6751 459.925L75.6751 466.412C75.6751 470.173 72.6235 473.208 68.8721 473.208L21.5315 473.208C20.6076 473.208 19.8657 472.466 19.8657 471.544L19.8657 454.765C19.8657 453.843 20.6076 453.102 21.5315 453.102L68.8581 453.102C72.6235 453.116 75.6751 456.164 75.6751 459.925Z" fill="white" stroke="#5A5A5A" stroke-width="0.5"/>
<path d="M25.4789 462.693C25.4789 461.944 24.846 461.336 24.0652 461.336C23.2844 461.336 22.6515 461.944 22.6515 462.693C22.6515 463.442 23.2844 464.049 24.0652 464.049C24.846 464.049 25.4789 463.442 25.4789 462.693Z" fill="white" stroke="#5A5A5A" stroke-width="0.5"/>
<path d="M95.0001 383.024L95.0001 361.014L73.4126 361L73.4266 383.01L95.0001 383.024Z" fill="white" stroke="#5A5A5A" stroke-width="0.5"/>
<path d="M78.6696 372.005C78.6696 368.891 81.1443 366.377 84.2062 366.377C87.2682 366.377 89.743 368.891 89.743 372.019C89.743 375.133 87.2682 377.675 84.2062 377.675C81.1443 377.661 78.6696 375.119 78.6696 372.005Z" stroke="#5A5A5A" stroke-width="0.5"/>
<path d="M84.2063 376.125C83.0877 376.139 82.0811 375.678 81.354 374.924C80.627 374.17 80.1796 373.136 80.1656 372.019M84.1923 367.885C83.0877 367.885 82.0811 368.346 81.34 369.086C80.613 369.84 80.1516 370.86 80.1516 372.005L84.1923 367.885ZM84.2063 376.125C85.3108 376.125 86.3175 375.664 87.0585 374.924C87.7855 374.17 88.2329 373.136 88.2329 372.005L84.2063 376.125ZM84.1923 367.885C85.3248 367.885 86.3314 368.346 87.0445 369.086L87.0585 369.1C87.7715 369.84 88.2329 370.86 88.2329 371.991L84.1923 367.885Z" stroke="#5A5A5A" stroke-width="0.5"/>
<line y1="-0.5" x2="44.2945" y2="-0.5" transform="matrix(-0.880471 -0.4741 -0.4741 0.880471 149 478)" stroke="#5A5A5A"/>
<line y1="-0.5" x2="32.6497" y2="-0.5" transform="matrix(0.459423 -0.888218 -0.888218 -0.459423 101 425)" stroke="#5A5A5A"/>
<line y1="-0.5" x2="48.8774" y2="-0.5" transform="matrix(-0.859293 0.511484 0.511484 0.859293 329 294)" stroke="#5A5A5A"/>
<line y1="-0.5" x2="43.909" y2="-0.5" transform="matrix(0.501036 0.865426 0.865426 -0.501036 342 325)" stroke="#5A5A5A"/>
<line y1="-0.5" x2="33.541" y2="-0.5" transform="matrix(0.447214 0.894427 0.894427 -0.447214 101 306)" stroke="#5A5A5A"/>
<line y1="-0.5" x2="45.6508" y2="-0.5" transform="matrix(0.876216 0.481919 0.481919 -0.876216 104 295)" stroke="#5A5A5A"/>
<line y1="-0.5" x2="43.4166" y2="-0.5" transform="matrix(0.875242 0.483686 0.483686 -0.875242 165 295)" stroke="#5A5A5A"/>
<path d="M49.49 406.78C49.49 406.332 49.588 405.865 49.784 405.38C49.9893 404.885 50.1853 404.498 50.372 404.218C50.568 403.929 50.834 403.569 51.17 403.14L53.41 400.2H55.3L53.186 402.958L52.57 403.49V403.56L52.85 403.462C53.13 403.387 53.4333 403.35 53.76 403.35C54.6747 403.35 55.4493 403.681 56.084 404.344C56.728 404.997 57.05 405.809 57.05 406.78C57.05 407.769 56.6953 408.6 55.986 409.272C55.2767 409.944 54.3713 410.28 53.27 410.28C52.1687 410.28 51.2633 409.944 50.554 409.272C49.8447 408.6 49.49 407.769 49.49 406.78ZM51.744 405.324C51.3613 405.697 51.17 406.183 51.17 406.78C51.17 407.377 51.3613 407.867 51.744 408.25C52.1267 408.623 52.6353 408.81 53.27 408.81C53.9047 408.81 54.4133 408.623 54.796 408.25C55.1787 407.867 55.37 407.377 55.37 406.78C55.37 406.183 55.1787 405.697 54.796 405.324C54.4133 404.941 53.9047 404.75 53.27 404.75C52.6353 404.75 52.1267 404.941 51.744 405.324ZM58.1733 409.23C58.1733 408.95 58.2619 408.717 58.4393 408.53C58.6259 408.343 58.8546 408.25 59.1253 408.25C59.4333 408.25 59.6759 408.362 59.8533 408.586C60.0399 408.81 60.1333 409.141 60.1333 409.58C60.1333 410.299 59.9606 410.849 59.6153 411.232C59.2793 411.624 58.8219 411.82 58.2433 411.82V411.12C58.5233 411.12 58.7426 411.041 58.9013 410.882C59.0693 410.733 59.1533 410.532 59.1533 410.28V410.196C59.1439 410.187 59.1393 410.168 59.1393 410.14V410.098L59.0553 410.126C59.0273 410.135 58.9666 410.14 58.8733 410.14C58.6866 410.14 58.5233 410.056 58.3833 409.888C58.2433 409.72 58.1733 409.501 58.1733 409.23ZM62.6495 408.824C61.7628 407.853 61.3195 406.612 61.3195 405.1C61.3195 403.588 61.7628 402.347 62.6495 401.376C63.5361 400.405 64.6095 399.92 65.8695 399.92C67.1295 399.92 68.2028 400.405 69.0895 401.376C69.9761 402.347 70.4195 403.588 70.4195 405.1C70.4195 406.612 69.9761 407.853 69.0895 408.824C68.2028 409.795 67.1295 410.28 65.8695 410.28C64.6095 410.28 63.5361 409.795 62.6495 408.824ZM63.7975 402.412C63.2655 403.047 62.9995 403.943 62.9995 405.1C62.9995 406.257 63.2655 407.153 63.7975 407.788C64.3388 408.423 65.0295 408.74 65.8695 408.74C66.7095 408.74 67.3955 408.423 67.9275 407.788C68.4688 407.153 68.7395 406.257 68.7395 405.1C68.7395 403.943 68.4688 403.047 67.9275 402.412C67.3955 401.777 66.7095 401.46 65.8695 401.46C65.0295 401.46 64.3388 401.777 63.7975 402.412ZM71.2627 408.04V406.5L74.5527 400.2H76.3027L73.0127 406.5H76.2327V404.12H76.3027H77.8427V406.5H79.2427V408.04H77.8427V410H76.2327V408.04H71.2627Z" fill="#333333"/>
<path d="M71.35 580.42V578.6L73.17 577.2H74.64V587H73.03V579.16L71.35 580.42ZM76.1811 584.27H77.8611C77.9358 584.559 78.0618 584.807 78.2391 585.012C78.6498 585.497 79.2471 585.74 80.0311 585.74C80.6564 585.74 81.1511 585.572 81.5151 585.236C81.8791 584.9 82.0611 584.461 82.0611 583.92C82.0611 583.351 81.8791 582.893 81.5151 582.548C81.1511 582.203 80.6564 582.03 80.0311 582.03C79.4524 582.03 78.9624 582.184 78.5611 582.492C78.4024 582.613 78.2624 582.763 78.1411 582.94H76.6011L77.0211 577.2H82.9711V578.74H78.3511L78.1411 581.26H78.2111C78.3604 581.111 78.5331 580.985 78.7291 580.882C79.1678 580.621 79.6951 580.49 80.3111 580.49C81.2911 580.49 82.1078 580.817 82.7611 581.47C83.4144 582.123 83.7411 582.94 83.7411 583.92C83.7411 584.881 83.3958 585.684 82.7051 586.328C82.0238 586.963 81.1324 587.28 80.0311 587.28C78.5938 587.28 77.5251 586.781 76.8251 585.782C76.5264 585.343 76.3118 584.839 76.1811 584.27ZM84.7944 586.23C84.7944 585.95 84.883 585.717 85.0604 585.53C85.247 585.343 85.4757 585.25 85.7464 585.25C86.0544 585.25 86.297 585.362 86.4744 585.586C86.661 585.81 86.7544 586.141 86.7544 586.58C86.7544 587.299 86.5817 587.849 86.2364 588.232C85.9004 588.624 85.443 588.82 84.8644 588.82V588.12C85.1444 588.12 85.3637 588.041 85.5224 587.882C85.6904 587.733 85.7744 587.532 85.7744 587.28V587.196C85.765 587.187 85.7604 587.168 85.7604 587.14V587.098L85.6764 587.126C85.6484 587.135 85.5877 587.14 85.4944 587.14C85.3077 587.14 85.1444 587.056 85.0044 586.888C84.8644 586.72 84.7944 586.501 84.7944 586.23ZM87.5205 585.04V583.5L90.8105 577.2H92.5605L89.2705 583.5H92.4905V581.12H92.5605H94.1005V583.5H95.5005V585.04H94.1005V587H92.4905V585.04H87.5205ZM95.2162 578.74V577.2H101.866V578.74L97.9462 587H96.1962L100.046 578.88V578.74H95.2162Z" fill="#333333"/>
<path d="M69.42 732.2H71.1C71.1653 732.489 71.2913 732.746 71.478 732.97C71.898 733.483 72.4953 733.74 73.27 733.74C73.914 733.74 74.4227 733.581 74.796 733.264C75.1787 732.937 75.37 732.536 75.37 732.06C75.37 731.519 75.1973 731.094 74.852 730.786C74.516 730.469 74.0353 730.31 73.41 730.31H71.03V728.91L73.97 726.81V726.74H69.91V725.2H76.35V726.726L73.83 728.56L73.13 728.84V728.91L73.354 728.882C73.662 728.854 73.844 728.84 73.9 728.84C74.7773 728.84 75.51 729.143 76.098 729.75C76.686 730.357 76.98 731.127 76.98 732.06C76.98 732.956 76.6347 733.717 75.944 734.342C75.2533 734.967 74.362 735.28 73.27 735.28C71.8233 735.28 70.7547 734.767 70.064 733.74C69.7653 733.301 69.5507 732.788 69.42 732.2ZM78.0366 734.23C78.0366 733.95 78.1252 733.717 78.3026 733.53C78.4892 733.343 78.7179 733.25 78.9886 733.25C79.2966 733.25 79.5392 733.362 79.7166 733.586C79.9032 733.81 79.9966 734.141 79.9966 734.58C79.9966 735.299 79.8239 735.849 79.4786 736.232C79.1426 736.624 78.6852 736.82 78.1066 736.82V736.12C78.3866 736.12 78.6059 736.041 78.7646 735.882C78.9326 735.733 79.0166 735.532 79.0166 735.28V735.196C79.0072 735.187 79.0026 735.168 79.0026 735.14V735.098L78.9186 735.126C78.8906 735.135 78.8299 735.14 78.7366 735.14C78.5499 735.14 78.3866 735.056 78.2466 734.888C78.1066 734.72 78.0366 734.501 78.0366 734.23ZM81.0427 731.78C81.0427 731.332 81.1407 730.865 81.3367 730.38C81.5421 729.885 81.7381 729.498 81.9247 729.218C82.1207 728.929 82.3867 728.569 82.7227 728.14L84.9627 725.2H86.8527L84.7387 727.958L84.1227 728.49V728.56L84.4027 728.462C84.6827 728.387 84.9861 728.35 85.3127 728.35C86.2274 728.35 87.0021 728.681 87.6367 729.344C88.2807 729.997 88.6027 730.809 88.6027 731.78C88.6027 732.769 88.2481 733.6 87.5387 734.272C86.8294 734.944 85.9241 735.28 84.8227 735.28C83.7214 735.28 82.8161 734.944 82.1067 734.272C81.3974 733.6 81.0427 732.769 81.0427 731.78ZM83.2967 730.324C82.9141 730.697 82.7227 731.183 82.7227 731.78C82.7227 732.377 82.9141 732.867 83.2967 733.25C83.6794 733.623 84.1881 733.81 84.8227 733.81C85.4574 733.81 85.9661 733.623 86.3487 733.25C86.7314 732.867 86.9227 732.377 86.9227 731.78C86.9227 731.183 86.7314 730.697 86.3487 730.324C85.9661 729.941 85.4574 729.75 84.8227 729.75C84.1881 729.75 83.6794 729.941 83.2967 730.324ZM89.656 731.78C89.656 731.332 89.754 730.865 89.95 730.38C90.1553 729.885 90.3513 729.498 90.538 729.218C90.734 728.929 91 728.569 91.336 728.14L93.576 725.2H95.466L93.352 727.958L92.736 728.49V728.56L93.016 728.462C93.296 728.387 93.5993 728.35 93.926 728.35C94.8407 728.35 95.6153 728.681 96.25 729.344C96.894 729.997 97.216 730.809 97.216 731.78C97.216 732.769 96.8613 733.6 96.152 734.272C95.4427 734.944 94.5373 735.28 93.436 735.28C92.3347 735.28 91.4293 734.944 90.72 734.272C90.0107 733.6 89.656 732.769 89.656 731.78ZM91.91 730.324C91.5273 730.697 91.336 731.183 91.336 731.78C91.336 732.377 91.5273 732.867 91.91 733.25C92.2927 733.623 92.8013 733.81 93.436 733.81C94.0707 733.81 94.5793 733.623 94.962 733.25C95.3447 732.867 95.536 732.377 95.536 731.78C95.536 731.183 95.3447 730.697 94.962 730.324C94.5793 729.941 94.0707 729.75 93.436 729.75C92.8013 729.75 92.2927 729.941 91.91 730.324Z" fill="#333333"/>
<path d="M56.42 327V325.46L59.766 323.094C60.494 322.571 61.0167 322.086 61.334 321.638C61.6513 321.19 61.81 320.714 61.81 320.21C61.81 319.678 61.6467 319.253 61.32 318.936C60.9933 318.619 60.55 318.46 59.99 318.46C59.2993 318.46 58.7813 318.74 58.436 319.3C58.2867 319.543 58.1747 319.823 58.1 320.14H56.42C56.504 319.543 56.686 319.006 56.966 318.53C57.6287 317.457 58.6367 316.92 59.99 316.92C61.026 316.92 61.866 317.228 62.51 317.844C63.1633 318.451 63.49 319.216 63.49 320.14C63.49 320.943 63.2847 321.666 62.874 322.31C62.4633 322.945 61.8053 323.575 60.9 324.2L59.5 325.18L58.87 325.46V325.53L59.71 325.46H63.49V327H56.42ZM64.6127 326.23C64.6127 325.95 64.7014 325.717 64.8787 325.53C65.0654 325.343 65.2941 325.25 65.5647 325.25C65.8727 325.25 66.1154 325.362 66.2927 325.586C66.4794 325.81 66.5727 326.141 66.5727 326.58C66.5727 327.299 66.4001 327.849 66.0547 328.232C65.7187 328.624 65.2614 328.82 64.6827 328.82V328.12C64.9627 328.12 65.1821 328.041 65.3407 327.882C65.5087 327.733 65.5927 327.532 65.5927 327.28V327.196C65.5834 327.187 65.5787 327.168 65.5787 327.14V327.098L65.4947 327.126C65.4667 327.135 65.4061 327.14 65.3127 327.14C65.1261 327.14 64.9627 327.056 64.8227 326.888C64.6827 326.72 64.6127 326.501 64.6127 326.23ZM67.6889 320.42C67.6889 319.431 68.0436 318.6 68.7529 317.928C69.4622 317.256 70.3676 316.92 71.4689 316.92C72.5702 316.92 73.4756 317.256 74.1849 317.928C74.8942 318.6 75.2489 319.431 75.2489 320.42C75.2489 321.307 74.8802 322.263 74.1429 323.29C74.0682 323.393 73.9656 323.533 73.8349 323.71C73.7042 323.878 73.6156 323.995 73.5689 324.06L71.3289 327H69.4389L71.5529 324.242L72.1689 323.71V323.64C72.1502 323.649 72.0569 323.687 71.8889 323.752C71.6462 323.817 71.3429 323.85 70.9789 323.85C70.0642 323.85 69.2849 323.523 68.6409 322.87C68.0062 322.207 67.6889 321.391 67.6889 320.42ZM69.9429 318.964C69.5602 319.337 69.3689 319.823 69.3689 320.42C69.3689 321.017 69.5602 321.507 69.9429 321.89C70.3256 322.263 70.8342 322.45 71.4689 322.45C72.1036 322.45 72.6122 322.263 72.9949 321.89C73.3776 321.507 73.5689 321.017 73.5689 320.42C73.5689 319.823 73.3776 319.337 72.9949 318.964C72.6122 318.581 72.1036 318.39 71.4689 318.39C70.8342 318.39 70.3256 318.581 69.9429 318.964ZM76.3022 324.34C76.3022 323.491 76.6289 322.814 77.2822 322.31C77.5622 322.114 77.8889 321.965 78.2622 321.862V321.778C77.9729 321.666 77.7162 321.512 77.4922 321.316C76.9789 320.877 76.7222 320.299 76.7222 319.58C76.7222 318.843 77.0349 318.217 77.6602 317.704C78.2949 317.181 79.1489 316.92 80.2222 316.92C81.2955 316.92 82.1449 317.181 82.7702 317.704C83.4049 318.217 83.7222 318.843 83.7222 319.58C83.7222 320.28 83.4655 320.859 82.9522 321.316C82.7095 321.512 82.4529 321.666 82.1822 321.778V321.862C82.5369 321.955 82.8635 322.109 83.1622 322.324C83.8155 322.828 84.1422 323.5 84.1422 324.34C84.1422 325.152 83.7875 325.847 83.0782 326.426C82.3782 326.995 81.4262 327.28 80.2222 327.28C79.0182 327.28 78.0615 326.995 77.3522 326.426C76.6522 325.847 76.3022 325.152 76.3022 324.34ZM78.4022 319.72C78.4022 320.131 78.5609 320.467 78.8782 320.728C79.1955 320.989 79.6435 321.12 80.2222 321.12C80.8009 321.12 81.2489 320.989 81.5662 320.728C81.8835 320.467 82.0422 320.131 82.0422 319.72C82.0422 319.347 81.8789 319.034 81.5522 318.782C81.2349 318.521 80.7915 318.39 80.2222 318.39C79.6529 318.39 79.2049 318.521 78.8782 318.782C78.5609 319.034 78.4022 319.347 78.4022 319.72ZM78.5702 323.066C78.1782 323.374 77.9822 323.752 77.9822 324.2C77.9822 324.648 78.1782 325.031 78.5702 325.348C78.9715 325.656 79.5222 325.81 80.2222 325.81C80.9222 325.81 81.4682 325.656 81.8602 325.348C82.2615 325.031 82.4622 324.648 82.4622 324.2C82.4622 323.752 82.2615 323.374 81.8602 323.066C81.4682 322.749 80.9222 322.59 80.2222 322.59C79.5222 322.59 78.9715 322.749 78.5702 323.066Z" fill="#333333"/>
<line y1="-0.5" x2="29.1548" y2="-0.5" transform="matrix(-0.857493 -0.514496 -0.514496 0.857493 116 689)" stroke="#5A5A5A"/>
<rect x="30" y="764" width="5" height="82" transform="rotate(-180 30 764)" fill="#5A5A5A"/>
<rect x="132" y="761" width="5" height="79" transform="rotate(-180 132 761)" fill="#5A5A5A"/>
<rect x="113" y="764" width="5" height="19" transform="rotate(-90 113 764)" fill="#5A5A5A"/>
<rect x="28" y="764" width="5" height="19" transform="rotate(-90 28 764)" fill="#5A5A5A"/>
<path d="M85.75 701.75L22.2749 701.687L22.2513 697.25L85.75 697.25L85.75 701.75Z" stroke="#5A5A5A" stroke-width="0.5" stroke-miterlimit="10"/>
<path d="M115.75 763.75L42.2788 763.687L42.2515 759.25L115.75 759.25L115.75 763.75Z" stroke="#5A5A5A" stroke-width="0.5" stroke-miterlimit="10"/>
<path d="M85.75 691.75L22.2749 691.687L22.2513 687.25L85.75 687.25L85.75 691.75Z" stroke="#5A5A5A" stroke-width="0.5" stroke-miterlimit="10"/>
</svg>
