<svg width="350" height="677" viewBox="0 0 350 677" fill="none" xmlns="http://www.w3.org/2000/svg">
<path d="M275 590.001L276 431.001L15 431.001L15 590.001L275 590.001Z" fill="#E7FFD5"/>
<path d="M335 252.001V30.001H16L16 252.001H335Z" fill="#E7FFD5"/>
<path d="M257 368.001L255 60.001H16L16 368.001L257 368.001Z" fill="#E7FFD5"/>
<path d="M276 451.001V141.001H6L6.00001 451.001L276 451.001Z" fill="#E7FFD5"/>
<path d="M333.995 99.3247L309 99.3247L309 74.9999L333.995 74.9999L333.995 99.3247Z" fill="white" stroke="#5A5A5A" stroke-width="0.5"/>
<path d="M311.026 98.3984L330.479 98.3984C331.217 98.3984 331.61 98.0059 331.61 97.2364L331.61 77.0888C331.61 76.3036 331.233 75.9267 330.479 75.9267L311.026 75.9267C310.273 75.911 309.896 76.3036 309.896 77.0731L309.896 97.2207C309.88 98.0058 310.273 98.3984 311.026 98.3984Z" fill="white" stroke="#5A5A5A" stroke-width="0.5"/>
<path d="M312.815 91.8968C312.831 90.1066 314.244 88.6462 315.987 88.6462C317.745 88.6462 319.158 90.1066 319.158 91.8968C319.158 93.7027 317.745 95.1475 315.987 95.1475C314.228 95.1475 312.815 93.7027 312.815 91.8968Z" stroke="#5A5A5A" stroke-width="0.5"/>
<path d="M312.846 82.2707C312.862 80.4805 314.275 79.0201 316.017 79.0201C317.776 79.0201 319.189 80.4805 319.189 82.2707C319.189 84.0766 317.776 85.5214 316.017 85.5214C314.259 85.5371 312.83 84.0766 312.846 82.2707Z" stroke="#5A5A5A" stroke-width="0.5"/>
<path d="M321.859 82.2709C321.859 80.465 323.272 79.0202 325.031 79.0202C326.789 79.0202 328.202 80.4807 328.202 82.2709C328.187 84.0611 326.774 85.5215 325.031 85.5215C323.288 85.5215 321.859 84.0611 321.859 82.2709Z" stroke="#5A5A5A" stroke-width="0.5"/>
<path d="M321.859 91.8968C321.859 90.0909 323.272 88.6462 325.031 88.6462C326.789 88.6462 328.202 90.1066 328.202 91.8968C328.187 93.687 326.774 95.1475 325.031 95.1475C323.288 95.1475 321.859 93.687 321.859 91.8968Z" stroke="#5A5A5A" stroke-width="0.5"/>
<path d="M334.088 145.699L310 145.699L310 122L334.104 122L334.088 145.699Z" fill="white" stroke="#5A5A5A" stroke-width="0.5"/>
<path d="M327.482 143.896L314.165 143.896C313.423 143.896 313.059 143.532 313.059 142.775L313.059 125.167C313.059 124.44 313.423 124.061 314.15 124.046L327.482 124.061C328.209 124.046 328.573 124.425 328.573 125.167L328.573 142.775C328.603 143.517 328.224 143.896 327.482 143.896Z" fill="white" stroke="#5A5A5A" stroke-width="0.5"/>
<path d="M332.24 133.971C332.225 133.047 331.528 132.304 330.649 132.304L323.665 132.956L323.65 132.971C323.12 132.971 322.696 133.41 322.696 133.971C322.696 134.532 323.12 134.971 323.665 134.986L330.649 135.638C331.513 135.638 332.225 134.895 332.24 133.971Z" stroke="#5A5A5A" stroke-width="0.5"/>
<mask id="path-11-inside-1_67_23" fill="white">
<path fill-rule="evenodd" clip-rule="evenodd" d="M331.558 132.592L327.755 132.955C327.225 132.971 326.785 133.41 326.801 133.986C326.801 134.547 327.225 134.971 327.755 134.986L331.558 135.35"/>
</mask>
<path fill-rule="evenodd" clip-rule="evenodd" d="M331.558 132.592L327.755 132.955C327.225 132.971 326.785 133.41 326.801 133.986C326.801 134.547 327.225 134.971 327.755 134.986L331.558 135.35" fill="white"/>
<path d="M327.755 132.955L327.769 133.455L327.786 133.455L327.803 133.453L327.755 132.955ZM326.801 133.986L327.301 133.986L327.3 133.973L326.801 133.986ZM327.755 134.986L327.803 134.488L327.786 134.487L327.769 134.486L327.755 134.986ZM331.51 132.094L327.707 132.458L327.803 133.453L331.605 133.09L331.51 132.094ZM327.741 132.456C326.936 132.479 326.278 133.147 326.301 133.999L327.3 133.973C327.292 133.673 327.514 133.463 327.769 133.455L327.741 132.456ZM326.301 133.986C326.301 134.815 326.938 135.463 327.741 135.486L327.769 134.486C327.511 134.479 327.301 134.278 327.301 133.986L326.301 133.986ZM327.707 135.484L331.51 135.847L331.605 134.852L327.803 134.488L327.707 135.484Z" fill="#5A5A5A" mask="url(#path-11-inside-1_67_23)"/>
<path d="M124.42 495.2H126.1C126.165 495.489 126.291 495.746 126.478 495.97C126.898 496.483 127.495 496.74 128.27 496.74C128.914 496.74 129.423 496.581 129.796 496.264C130.179 495.937 130.37 495.536 130.37 495.06C130.37 494.519 130.197 494.094 129.852 493.786C129.516 493.469 129.035 493.31 128.41 493.31H126.03V491.91L128.97 489.81V489.74H124.91V488.2H131.35V489.726L128.83 491.56L128.13 491.84V491.91L128.354 491.882C128.662 491.854 128.844 491.84 128.9 491.84C129.777 491.84 130.51 492.143 131.098 492.75C131.686 493.357 131.98 494.127 131.98 495.06C131.98 495.956 131.635 496.717 130.944 497.342C130.253 497.967 129.362 498.28 128.27 498.28C126.823 498.28 125.755 497.767 125.064 496.74C124.765 496.301 124.551 495.788 124.42 495.2ZM132.687 496.04V494.5L135.977 488.2H137.727L134.437 494.5H137.657V492.12H137.727H139.267V494.5H140.667V496.04H139.267V498H137.657V496.04H132.687ZM141.226 497.23C141.226 496.95 141.315 496.717 141.492 496.53C141.679 496.343 141.907 496.25 142.178 496.25C142.486 496.25 142.729 496.362 142.906 496.586C143.093 496.81 143.186 497.141 143.186 497.58C143.186 498.299 143.013 498.849 142.668 499.232C142.332 499.624 141.875 499.82 141.296 499.82V499.12C141.576 499.12 141.795 499.041 141.954 498.882C142.122 498.733 142.206 498.532 142.206 498.28V498.196C142.197 498.187 142.192 498.168 142.192 498.14V498.098L142.108 498.126C142.08 498.135 142.019 498.14 141.926 498.14C141.739 498.14 141.576 498.056 141.436 497.888C141.296 497.72 141.226 497.501 141.226 497.23ZM144.302 495.27H145.982C146.057 495.559 146.183 495.807 146.36 496.012C146.771 496.497 147.368 496.74 148.152 496.74C148.778 496.74 149.272 496.572 149.636 496.236C150 495.9 150.182 495.461 150.182 494.92C150.182 494.351 150 493.893 149.636 493.548C149.272 493.203 148.778 493.03 148.152 493.03C147.574 493.03 147.084 493.184 146.682 493.492C146.524 493.613 146.384 493.763 146.262 493.94H144.722L145.142 488.2H151.092V489.74H146.472L146.262 492.26H146.332C146.482 492.111 146.654 491.985 146.85 491.882C147.289 491.621 147.816 491.49 148.432 491.49C149.412 491.49 150.229 491.817 150.882 492.47C151.536 493.123 151.862 493.94 151.862 494.92C151.862 495.881 151.517 496.684 150.826 497.328C150.145 497.963 149.254 498.28 148.152 498.28C146.715 498.28 145.646 497.781 144.946 496.782C144.648 496.343 144.433 495.839 144.302 495.27ZM152.565 496.04V494.5L155.855 488.2H157.605L154.315 494.5H157.535V492.12H157.605H159.145V494.5H160.545V496.04H159.145V498H157.535V496.04H152.565Z" fill="#333333"/>
<path d="M204.42 646.2H206.1C206.165 646.489 206.291 646.746 206.478 646.97C206.898 647.483 207.495 647.74 208.27 647.74C208.914 647.74 209.423 647.581 209.796 647.264C210.179 646.937 210.37 646.536 210.37 646.06C210.37 645.519 210.197 645.094 209.852 644.786C209.516 644.469 209.035 644.31 208.41 644.31H206.03V642.91L208.97 640.81V640.74H204.91V639.2H211.35V640.726L208.83 642.56L208.13 642.84V642.91L208.354 642.882C208.662 642.854 208.844 642.84 208.9 642.84C209.777 642.84 210.51 643.143 211.098 643.75C211.686 644.357 211.98 645.127 211.98 646.06C211.98 646.956 211.635 647.717 210.944 648.342C210.253 648.967 209.362 649.28 208.27 649.28C206.823 649.28 205.755 648.767 205.064 647.74C204.765 647.301 204.551 646.788 204.42 646.2ZM213.037 648.23C213.037 647.95 213.125 647.717 213.303 647.53C213.489 647.343 213.718 647.25 213.989 647.25C214.297 647.25 214.539 647.362 214.717 647.586C214.903 647.81 214.997 648.141 214.997 648.58C214.997 649.299 214.824 649.849 214.479 650.232C214.143 650.624 213.685 650.82 213.107 650.82V650.12C213.387 650.12 213.606 650.041 213.765 649.882C213.933 649.733 214.017 649.532 214.017 649.28V649.196C214.007 649.187 214.003 649.168 214.003 649.14V649.098L213.919 649.126C213.891 649.135 213.83 649.14 213.737 649.14C213.55 649.14 213.387 649.056 213.247 648.888C213.107 648.72 213.037 648.501 213.037 648.23ZM216.043 645.78C216.043 645.332 216.141 644.865 216.337 644.38C216.542 643.885 216.738 643.498 216.925 643.218C217.121 642.929 217.387 642.569 217.723 642.14L219.963 639.2H221.853L219.739 641.958L219.123 642.49V642.56L219.403 642.462C219.683 642.387 219.986 642.35 220.313 642.35C221.227 642.35 222.002 642.681 222.637 643.344C223.281 643.997 223.603 644.809 223.603 645.78C223.603 646.769 223.248 647.6 222.539 648.272C221.829 648.944 220.924 649.28 219.823 649.28C218.721 649.28 217.816 648.944 217.107 648.272C216.397 647.6 216.043 646.769 216.043 645.78ZM218.297 644.324C217.914 644.697 217.723 645.183 217.723 645.78C217.723 646.377 217.914 646.867 218.297 647.25C218.679 647.623 219.188 647.81 219.823 647.81C220.457 647.81 220.966 647.623 221.349 647.25C221.731 646.867 221.923 646.377 221.923 645.78C221.923 645.183 221.731 644.697 221.349 644.324C220.966 643.941 220.457 643.75 219.823 643.75C219.188 643.75 218.679 643.941 218.297 644.324ZM224.656 645.78C224.656 645.332 224.754 644.865 224.95 644.38C225.155 643.885 225.351 643.498 225.538 643.218C225.734 642.929 226 642.569 226.336 642.14L228.576 639.2H230.466L228.352 641.958L227.736 642.49V642.56L228.016 642.462C228.296 642.387 228.599 642.35 228.926 642.35C229.841 642.35 230.615 642.681 231.25 643.344C231.894 643.997 232.216 644.809 232.216 645.78C232.216 646.769 231.861 647.6 231.152 648.272C230.443 648.944 229.537 649.28 228.436 649.28C227.335 649.28 226.429 648.944 225.72 648.272C225.011 647.6 224.656 646.769 224.656 645.78ZM226.91 644.324C226.527 644.697 226.336 645.183 226.336 645.78C226.336 646.377 226.527 646.867 226.91 647.25C227.293 647.623 227.801 647.81 228.436 647.81C229.071 647.81 229.579 647.623 229.962 647.25C230.345 646.867 230.536 646.377 230.536 645.78C230.536 645.183 230.345 644.697 229.962 644.324C229.579 643.941 229.071 643.75 228.436 643.75C227.801 643.75 227.293 643.941 226.91 644.324Z" fill="#333333"/>
<path opacity="0.63" d="M100 383.001L16 383.001L16 276.001L100 276.001L100 383.001Z" fill="#FDFF9F"/>
<path d="M48.49 327.781C48.49 327.333 48.588 326.866 48.784 326.381C48.9893 325.886 49.1853 325.499 49.372 325.219C49.568 324.93 49.834 324.57 50.17 324.141L52.41 321.201H54.3L52.186 323.959L51.57 324.491V324.561L51.85 324.463C52.13 324.388 52.4333 324.351 52.76 324.351C53.6747 324.351 54.4493 324.682 55.084 325.345C55.728 325.998 56.05 326.81 56.05 327.781C56.05 328.77 55.6953 329.601 54.986 330.273C54.2767 330.945 53.3713 331.281 52.27 331.281C51.1687 331.281 50.2633 330.945 49.554 330.273C48.8447 329.601 48.49 328.77 48.49 327.781ZM50.744 326.325C50.3613 326.698 50.17 327.184 50.17 327.781C50.17 328.378 50.3613 328.868 50.744 329.251C51.1267 329.624 51.6353 329.811 52.27 329.811C52.9047 329.811 53.4133 329.624 53.796 329.251C54.1787 328.868 54.37 328.378 54.37 327.781C54.37 327.184 54.1787 326.698 53.796 326.325C53.4133 325.942 52.9047 325.751 52.27 325.751C51.6353 325.751 51.1267 325.942 50.744 326.325ZM57.1733 330.231C57.1733 329.951 57.2619 329.718 57.4393 329.531C57.6259 329.344 57.8546 329.251 58.1253 329.251C58.4333 329.251 58.6759 329.363 58.8533 329.587C59.0399 329.811 59.1333 330.142 59.1333 330.581C59.1333 331.3 58.9606 331.85 58.6153 332.233C58.2793 332.625 57.8219 332.821 57.2433 332.821V332.121C57.5233 332.121 57.7426 332.042 57.9013 331.883C58.0693 331.734 58.1533 331.533 58.1533 331.281V331.197C58.1439 331.188 58.1393 331.169 58.1393 331.141V331.099L58.0553 331.127C58.0273 331.136 57.9666 331.141 57.8733 331.141C57.6866 331.141 57.5233 331.057 57.3833 330.889C57.2433 330.721 57.1733 330.502 57.1733 330.231ZM61.6495 329.825C60.7628 328.854 60.3195 327.613 60.3195 326.101C60.3195 324.589 60.7628 323.348 61.6495 322.377C62.5361 321.406 63.6095 320.921 64.8695 320.921C66.1295 320.921 67.2028 321.406 68.0895 322.377C68.9761 323.348 69.4195 324.589 69.4195 326.101C69.4195 327.613 68.9761 328.854 68.0895 329.825C67.2028 330.796 66.1295 331.281 64.8695 331.281C63.6095 331.281 62.5361 330.796 61.6495 329.825ZM62.7975 323.413C62.2655 324.048 61.9995 324.944 61.9995 326.101C61.9995 327.258 62.2655 328.154 62.7975 328.789C63.3388 329.424 64.0295 329.741 64.8695 329.741C65.7095 329.741 66.3955 329.424 66.9275 328.789C67.4688 328.154 67.7395 327.258 67.7395 326.101C67.7395 324.944 67.4688 324.048 66.9275 323.413C66.3955 322.778 65.7095 322.461 64.8695 322.461C64.0295 322.461 63.3388 322.778 62.7975 323.413ZM70.2627 329.041V327.501L73.5527 321.201H75.3027L72.0127 327.501H75.2327V325.121H75.3027H76.8427V327.501H78.2427V329.041H76.8427V331.001H75.2327V329.041H70.2627Z" fill="#333333"/>
<path opacity="0.63" d="M100 282L10 282L10 219L100 219L100 282Z" fill="#FDFF9F"/>
<path opacity="0.63" d="M347 249L257 249L257 169L347 169L347 249Z" fill="#FDFF9F"/>
<path d="M59.42 247V245.46L62.766 243.094C63.494 242.571 64.0167 242.086 64.334 241.638C64.6513 241.19 64.81 240.714 64.81 240.21C64.81 239.678 64.6467 239.253 64.32 238.936C63.9933 238.619 63.55 238.46 62.99 238.46C62.2993 238.46 61.7813 238.74 61.436 239.3C61.2867 239.543 61.1747 239.823 61.1 240.14H59.42C59.504 239.543 59.686 239.006 59.966 238.53C60.6287 237.457 61.6367 236.92 62.99 236.92C64.026 236.92 64.866 237.228 65.51 237.844C66.1633 238.451 66.49 239.216 66.49 240.14C66.49 240.943 66.2847 241.666 65.874 242.31C65.4633 242.945 64.8053 243.575 63.9 244.2L62.5 245.18L61.87 245.46V245.53L62.71 245.46H66.49V247H59.42ZM67.6127 246.23C67.6127 245.95 67.7014 245.717 67.8787 245.53C68.0654 245.343 68.2941 245.25 68.5647 245.25C68.8727 245.25 69.1154 245.362 69.2927 245.586C69.4794 245.81 69.5727 246.141 69.5727 246.58C69.5727 247.299 69.4001 247.849 69.0547 248.232C68.7187 248.624 68.2614 248.82 67.6827 248.82V248.12C67.9627 248.12 68.1821 248.041 68.3407 247.882C68.5087 247.733 68.5927 247.532 68.5927 247.28V247.196C68.5834 247.187 68.5787 247.168 68.5787 247.14V247.098L68.4947 247.126C68.4667 247.135 68.4061 247.14 68.3127 247.14C68.1261 247.14 67.9627 247.056 67.8227 246.888C67.6827 246.72 67.6127 246.501 67.6127 246.23ZM70.6889 240.42C70.6889 239.431 71.0436 238.6 71.7529 237.928C72.4622 237.256 73.3676 236.92 74.4689 236.92C75.5702 236.92 76.4756 237.256 77.1849 237.928C77.8942 238.6 78.2489 239.431 78.2489 240.42C78.2489 241.307 77.8802 242.263 77.1429 243.29C77.0682 243.393 76.9656 243.533 76.8349 243.71C76.7042 243.878 76.6156 243.995 76.5689 244.06L74.3289 247H72.4389L74.5529 244.242L75.1689 243.71V243.64C75.1502 243.649 75.0569 243.687 74.8889 243.752C74.6462 243.817 74.3429 243.85 73.9789 243.85C73.0642 243.85 72.2849 243.523 71.6409 242.87C71.0062 242.207 70.6889 241.391 70.6889 240.42ZM72.9429 238.964C72.5602 239.337 72.3689 239.823 72.3689 240.42C72.3689 241.017 72.5602 241.507 72.9429 241.89C73.3256 242.263 73.8342 242.45 74.4689 242.45C75.1036 242.45 75.6122 242.263 75.9949 241.89C76.3776 241.507 76.5689 241.017 76.5689 240.42C76.5689 239.823 76.3776 239.337 75.9949 238.964C75.6122 238.581 75.1036 238.39 74.4689 238.39C73.8342 238.39 73.3256 238.581 72.9429 238.964ZM78.8822 238.74V237.2H85.5322V238.74L81.6122 247H79.8622L83.7122 238.88V238.74H78.8822Z" fill="#333333"/>
<path d="M146.42 186V184.46L149.766 182.094C150.494 181.571 151.017 181.086 151.334 180.638C151.651 180.19 151.81 179.714 151.81 179.21C151.81 178.678 151.647 178.253 151.32 177.936C150.993 177.619 150.55 177.46 149.99 177.46C149.299 177.46 148.781 177.74 148.436 178.3C148.287 178.543 148.175 178.823 148.1 179.14H146.42C146.504 178.543 146.686 178.006 146.966 177.53C147.629 176.457 148.637 175.92 149.99 175.92C151.026 175.92 151.866 176.228 152.51 176.844C153.163 177.451 153.49 178.216 153.49 179.14C153.49 179.943 153.285 180.666 152.874 181.31C152.463 181.945 151.805 182.575 150.9 183.2L149.5 184.18L148.87 184.46V184.53L149.71 184.46H153.49V186H146.42ZM154.613 183.34C154.613 182.491 154.939 181.814 155.593 181.31C155.873 181.114 156.199 180.965 156.573 180.862V180.778C156.283 180.666 156.027 180.512 155.803 180.316C155.289 179.877 155.033 179.299 155.033 178.58C155.033 177.843 155.345 177.217 155.971 176.704C156.605 176.181 157.459 175.92 158.533 175.92C159.606 175.92 160.455 176.181 161.081 176.704C161.715 177.217 162.033 177.843 162.033 178.58C162.033 179.28 161.776 179.859 161.263 180.316C161.02 180.512 160.763 180.666 160.493 180.778V180.862C160.847 180.955 161.174 181.109 161.473 181.324C162.126 181.828 162.453 182.5 162.453 183.34C162.453 184.152 162.098 184.847 161.389 185.426C160.689 185.995 159.737 186.28 158.533 186.28C157.329 186.28 156.372 185.995 155.663 185.426C154.963 184.847 154.613 184.152 154.613 183.34ZM156.713 178.72C156.713 179.131 156.871 179.467 157.189 179.728C157.506 179.989 157.954 180.12 158.533 180.12C159.111 180.12 159.559 179.989 159.877 179.728C160.194 179.467 160.353 179.131 160.353 178.72C160.353 178.347 160.189 178.034 159.863 177.782C159.545 177.521 159.102 177.39 158.533 177.39C157.963 177.39 157.515 177.521 157.189 177.782C156.871 178.034 156.713 178.347 156.713 178.72ZM156.881 182.066C156.489 182.374 156.293 182.752 156.293 183.2C156.293 183.648 156.489 184.031 156.881 184.348C157.282 184.656 157.833 184.81 158.533 184.81C159.233 184.81 159.779 184.656 160.171 184.348C160.572 184.031 160.773 183.648 160.773 183.2C160.773 182.752 160.572 182.374 160.171 182.066C159.779 181.749 159.233 181.59 158.533 181.59C157.833 181.59 157.282 181.749 156.881 182.066ZM163.568 185.23C163.568 184.95 163.656 184.717 163.834 184.53C164.02 184.343 164.249 184.25 164.52 184.25C164.828 184.25 165.07 184.362 165.248 184.586C165.434 184.81 165.528 185.141 165.528 185.58C165.528 186.299 165.355 186.849 165.01 187.232C164.674 187.624 164.216 187.82 163.638 187.82V187.12C163.918 187.12 164.137 187.041 164.296 186.882C164.464 186.733 164.548 186.532 164.548 186.28V186.196C164.538 186.187 164.534 186.168 164.534 186.14V186.098L164.45 186.126C164.422 186.135 164.361 186.14 164.268 186.14C164.081 186.14 163.918 186.056 163.778 185.888C163.638 185.72 163.568 185.501 163.568 185.23ZM166.574 182.78C166.574 182.332 166.672 181.865 166.868 181.38C167.073 180.885 167.269 180.498 167.456 180.218C167.652 179.929 167.918 179.569 168.254 179.14L170.494 176.2H172.384L170.27 178.958L169.654 179.49V179.56L169.934 179.462C170.214 179.387 170.517 179.35 170.844 179.35C171.759 179.35 172.533 179.681 173.168 180.344C173.812 180.997 174.134 181.809 174.134 182.78C174.134 183.769 173.779 184.6 173.07 185.272C172.361 185.944 171.455 186.28 170.354 186.28C169.253 186.28 168.347 185.944 167.638 185.272C166.929 184.6 166.574 183.769 166.574 182.78ZM168.828 181.324C168.445 181.697 168.254 182.183 168.254 182.78C168.254 183.377 168.445 183.867 168.828 184.25C169.211 184.623 169.719 184.81 170.354 184.81C170.989 184.81 171.497 184.623 171.88 184.25C172.263 183.867 172.454 183.377 172.454 182.78C172.454 182.183 172.263 181.697 171.88 181.324C171.497 180.941 170.989 180.75 170.354 180.75C169.719 180.75 169.211 180.941 168.828 181.324ZM175.257 179.42C175.257 178.431 175.612 177.6 176.321 176.928C177.031 176.256 177.936 175.92 179.037 175.92C180.139 175.92 181.044 176.256 181.753 176.928C182.463 177.6 182.817 178.431 182.817 179.42C182.817 180.307 182.449 181.263 181.711 182.29C181.637 182.393 181.534 182.533 181.403 182.71C181.273 182.878 181.184 182.995 181.137 183.06L178.897 186H177.007L179.121 183.242L179.737 182.71V182.64C179.719 182.649 179.625 182.687 179.457 182.752C179.215 182.817 178.911 182.85 178.547 182.85C177.633 182.85 176.853 182.523 176.209 181.87C175.575 181.207 175.257 180.391 175.257 179.42ZM177.511 177.964C177.129 178.337 176.937 178.823 176.937 179.42C176.937 180.017 177.129 180.507 177.511 180.89C177.894 181.263 178.403 181.45 179.037 181.45C179.672 181.45 180.181 181.263 180.563 180.89C180.946 180.507 181.137 180.017 181.137 179.42C181.137 178.823 180.946 178.337 180.563 177.964C180.181 177.581 179.672 177.39 179.037 177.39C178.403 177.39 177.894 177.581 177.511 177.964Z" fill="#333333"/>
<path d="M275.21 211.04V209.5L278.5 203.2H280.25L276.96 209.5H280.18V207.12H280.25H281.79V209.5H283.19V211.04H281.79V213H280.18V211.04H275.21ZM283.749 212.23C283.749 211.95 283.838 211.717 284.015 211.53C284.202 211.343 284.431 211.25 284.701 211.25C285.009 211.25 285.252 211.362 285.429 211.586C285.616 211.81 285.709 212.141 285.709 212.58C285.709 213.299 285.537 213.849 285.191 214.232C284.855 214.624 284.398 214.82 283.819 214.82V214.12C284.099 214.12 284.319 214.041 284.477 213.882C284.645 213.733 284.729 213.532 284.729 213.28V213.196C284.72 213.187 284.715 213.168 284.715 213.14V213.098L284.631 213.126C284.603 213.135 284.543 213.14 284.449 213.14C284.263 213.14 284.099 213.056 283.959 212.888C283.819 212.72 283.749 212.501 283.749 212.23ZM286.616 206.42V204.6L288.436 203.2H289.906V213H288.296V205.16L286.616 206.42ZM291.377 209.78C291.377 209.332 291.475 208.865 291.671 208.38C291.876 207.885 292.072 207.498 292.259 207.218C292.455 206.929 292.721 206.569 293.057 206.14L295.297 203.2H297.187L295.073 205.958L294.457 206.49V206.56L294.737 206.462C295.017 206.387 295.32 206.35 295.647 206.35C296.561 206.35 297.336 206.681 297.971 207.344C298.615 207.997 298.937 208.809 298.937 209.78C298.937 210.769 298.582 211.6 297.873 212.272C297.163 212.944 296.258 213.28 295.157 213.28C294.055 213.28 293.15 212.944 292.441 212.272C291.731 211.6 291.377 210.769 291.377 209.78ZM293.631 208.324C293.248 208.697 293.057 209.183 293.057 209.78C293.057 210.377 293.248 210.867 293.631 211.25C294.013 211.623 294.522 211.81 295.157 211.81C295.791 211.81 296.3 211.623 296.683 211.25C297.065 210.867 297.257 210.377 297.257 209.78C297.257 209.183 297.065 208.697 296.683 208.324C296.3 207.941 295.791 207.75 295.157 207.75C294.522 207.75 294.013 207.941 293.631 208.324Z" fill="#333333"/>
<path d="M225.35 354.42V352.6L227.17 351.2H228.64V361H227.03V353.16L225.35 354.42ZM229.761 352.74V351.2H236.411V352.74L232.491 361H230.741L234.591 352.88V352.74H229.761ZM235.855 360.23C235.855 359.95 235.944 359.717 236.121 359.53C236.308 359.343 236.536 359.25 236.807 359.25C237.115 359.25 237.358 359.362 237.535 359.586C237.722 359.81 237.815 360.141 237.815 360.58C237.815 361.299 237.642 361.849 237.297 362.232C236.961 362.624 236.504 362.82 235.925 362.82V362.12C236.205 362.12 236.424 362.041 236.583 361.882C236.751 361.733 236.835 361.532 236.835 361.28V361.196C236.826 361.187 236.821 361.168 236.821 361.14V361.098L236.737 361.126C236.709 361.135 236.648 361.14 236.555 361.14C236.368 361.14 236.205 361.056 236.065 360.888C235.925 360.72 235.855 360.501 235.855 360.23ZM238.931 358.34C238.931 357.491 239.258 356.814 239.911 356.31C240.191 356.114 240.518 355.965 240.891 355.862V355.778C240.602 355.666 240.345 355.512 240.121 355.316C239.608 354.877 239.351 354.299 239.351 353.58C239.351 352.843 239.664 352.217 240.289 351.704C240.924 351.181 241.778 350.92 242.851 350.92C243.924 350.92 244.774 351.181 245.399 351.704C246.034 352.217 246.351 352.843 246.351 353.58C246.351 354.28 246.094 354.859 245.581 355.316C245.338 355.512 245.082 355.666 244.811 355.778V355.862C245.166 355.955 245.492 356.109 245.791 356.324C246.444 356.828 246.771 357.5 246.771 358.34C246.771 359.152 246.416 359.847 245.707 360.426C245.007 360.995 244.055 361.28 242.851 361.28C241.647 361.28 240.69 360.995 239.981 360.426C239.281 359.847 238.931 359.152 238.931 358.34ZM241.031 353.72C241.031 354.131 241.19 354.467 241.507 354.728C241.824 354.989 242.272 355.12 242.851 355.12C243.43 355.12 243.878 354.989 244.195 354.728C244.512 354.467 244.671 354.131 244.671 353.72C244.671 353.347 244.508 353.034 244.181 352.782C243.864 352.521 243.42 352.39 242.851 352.39C242.282 352.39 241.834 352.521 241.507 352.782C241.19 353.034 241.031 353.347 241.031 353.72ZM241.199 357.066C240.807 357.374 240.611 357.752 240.611 358.2C240.611 358.648 240.807 359.031 241.199 359.348C241.6 359.656 242.151 359.81 242.851 359.81C243.551 359.81 244.097 359.656 244.489 359.348C244.89 359.031 245.091 358.648 245.091 358.2C245.091 357.752 244.89 357.374 244.489 357.066C244.097 356.749 243.551 356.59 242.851 356.59C242.151 356.59 241.6 356.749 241.199 357.066ZM247.746 358.2H249.426C249.492 358.489 249.618 358.746 249.804 358.97C250.224 359.483 250.822 359.74 251.596 359.74C252.24 359.74 252.749 359.581 253.122 359.264C253.505 358.937 253.696 358.536 253.696 358.06C253.696 357.519 253.524 357.094 253.178 356.786C252.842 356.469 252.362 356.31 251.736 356.31H249.356V354.91L252.296 352.81V352.74H248.236V351.2H254.676V352.726L252.156 354.56L251.456 354.84V354.91L251.68 354.882C251.988 354.854 252.17 354.84 252.226 354.84C253.104 354.84 253.836 355.143 254.424 355.75C255.012 356.357 255.306 357.127 255.306 358.06C255.306 358.956 254.961 359.717 254.27 360.342C253.58 360.967 252.688 361.28 251.596 361.28C250.15 361.28 249.081 360.767 248.39 359.74C248.092 359.301 247.877 358.788 247.746 358.2Z" fill="#333333"/>
<path d="M275.14 104.74V103.2H281.79V104.74L277.87 113H276.12L279.97 104.88V104.74H275.14ZM281.234 112.23C281.234 111.95 281.322 111.717 281.5 111.53C281.686 111.343 281.915 111.25 282.186 111.25C282.494 111.25 282.736 111.362 282.914 111.586C283.1 111.81 283.194 112.141 283.194 112.58C283.194 113.299 283.021 113.849 282.676 114.232C282.34 114.624 281.882 114.82 281.304 114.82V114.12C281.584 114.12 281.803 114.041 281.962 113.882C282.13 113.733 282.214 113.532 282.214 113.28V113.196C282.204 113.187 282.2 113.168 282.2 113.14V113.098L282.116 113.126C282.088 113.135 282.027 113.14 281.934 113.14C281.747 113.14 281.584 113.056 281.444 112.888C281.304 112.72 281.234 112.501 281.234 112.23ZM284.1 106.42V104.6L285.92 103.2H287.39V113H285.78V105.16L284.1 106.42ZM288.861 109.78C288.861 109.332 288.959 108.865 289.155 108.38C289.36 107.885 289.556 107.498 289.743 107.218C289.939 106.929 290.205 106.569 290.541 106.14L292.781 103.2H294.671L292.557 105.958L291.941 106.49V106.56L292.221 106.462C292.501 106.387 292.804 106.35 293.131 106.35C294.046 106.35 294.82 106.681 295.455 107.344C296.099 107.997 296.421 108.809 296.421 109.78C296.421 110.769 296.066 111.6 295.357 112.272C294.648 112.944 293.742 113.28 292.641 113.28C291.54 113.28 290.634 112.944 289.925 112.272C289.216 111.6 288.861 110.769 288.861 109.78ZM291.115 108.324C290.732 108.697 290.541 109.183 290.541 109.78C290.541 110.377 290.732 110.867 291.115 111.25C291.498 111.623 292.006 111.81 292.641 111.81C293.276 111.81 293.784 111.623 294.167 111.25C294.55 110.867 294.741 110.377 294.741 109.78C294.741 109.183 294.55 108.697 294.167 108.324C293.784 107.941 293.276 107.75 292.641 107.75C292.006 107.75 291.498 107.941 291.115 108.324Z" fill="#333333"/>
<rect width="30" height="53" transform="matrix(-4.37114e-08 -1 -1 4.37114e-08 53 30.0005)" fill="#5A5A5A"/>
<rect width="16" height="592" transform="matrix(1 0 0 -1 0 614.001)" fill="#5A5A5A"/>
<rect width="16" height="92" transform="matrix(-4.37114e-08 -1 -1 4.37114e-08 108 394.001)" fill="#5A5A5A"/>
<path d="M35.4828 299.308L34.3023 299.324L31.2363 299.308L23.645 299.308L23.645 309.265L35.4828 309.265C38.4996 309.265 40.959 307.022 40.959 304.27C40.959 301.552 38.4996 299.308 35.4828 299.308Z" fill="white" stroke="#5A5A5A" stroke-width="0.5"/>
<path d="M35.4174 300.454L34.4829 300.454L26.9244 300.454L26.9244 308.135L34.4828 308.135L35.4174 308.119C37.7948 308.119 39.7295 306.415 39.7295 304.286C39.7131 302.174 37.7784 300.454 35.4174 300.454Z" fill="white" stroke="#5A5A5A" stroke-width="0.5"/>
<path d="M17.283 311.067L22.546 311.067C23.1527 311.067 23.6445 310.575 23.6445 309.969L23.6445 298.686C23.6445 298.08 23.1527 297.588 22.546 297.588L17.283 297.588C16.6763 297.588 16.1844 298.08 16.1844 298.686L16.1844 309.953C16.1844 310.575 16.6763 311.067 17.283 311.067Z" fill="white" stroke="#5A5A5A" stroke-width="0.5"/>
<path d="M19.907 304.974C20.3168 304.974 20.6283 304.68 20.6283 304.336C20.6447 303.975 20.3168 303.681 19.907 303.681C19.4971 303.681 19.1856 303.975 19.1856 304.319C19.202 304.696 19.5135 304.991 19.907 304.974Z" fill="white" stroke="#5A5A5A" stroke-width="0.5"/>
<path d="M17.6536 341.733L29.9616 341.733C30.8173 341.733 31.5019 341.049 31.5019 340.195L31.5019 321.675C31.5019 320.821 30.8173 320.137 29.9616 320.137L17.6536 320.137C16.7978 320.137 16.1133 320.821 16.1133 321.675L16.1133 340.195C16.1133 341.035 16.7978 341.733 17.6536 341.733Z" fill="white" stroke="#5A5A5A" stroke-width="0.5"/>
<path d="M22.3452 339.81L24.2421 339.81C26.7379 339.81 28.7631 337.787 28.7631 335.294L28.7631 326.576C28.7631 324.083 26.7379 322.06 24.2421 322.06L22.3452 322.06C19.8494 322.06 17.8242 324.083 17.8242 326.576L17.8242 335.294C17.8242 337.787 19.8494 339.81 22.3452 339.81Z" fill="white" stroke="#5A5A5A" stroke-width="0.5"/>
<path d="M20.235 331.89C20.7784 331.89 21.219 331.462 21.219 330.935C21.219 330.408 20.7784 329.981 20.235 329.981C19.6915 329.981 19.251 330.408 19.251 330.935C19.251 331.462 19.6915 331.89 20.235 331.89Z" fill="white" stroke="#5A5A5A" stroke-width="0.5"/>
<path d="M17.5412 348.72L81.5252 348.72C82.3445 348.72 83 349.375 83 350.193L83 375.594C83 376.412 82.3445 377.067 81.5252 377.067L17.5412 377.067C16.7219 377.067 16.0664 376.412 16.0664 375.594L16.0664 350.193C16.0664 349.375 16.7368 348.72 17.5412 348.72Z" fill="white" stroke="#5A5A5A" stroke-width="0.5"/>
<path d="M79.0674 359.449L79.0674 366.353C79.0674 370.356 75.8198 373.585 71.8273 373.585L21.4447 373.585C20.4614 373.585 19.6719 372.796 19.6719 371.814L19.6719 353.958C19.6719 352.976 20.4614 352.187 21.4447 352.187L71.8124 352.187C75.8198 352.202 79.0674 355.446 79.0674 359.449Z" fill="white" stroke="#5A5A5A" stroke-width="0.5"/>
<path d="M25.6449 362.395C25.6449 361.597 24.9712 360.951 24.1403 360.951C23.3094 360.951 22.6357 361.597 22.6357 362.395C22.6357 363.192 23.3094 363.838 24.1403 363.838C24.9712 363.838 25.6449 363.192 25.6449 362.395Z" fill="white" stroke="#5A5A5A" stroke-width="0.5"/>
<path d="M82.5875 301.025L82.5875 279.015L61 279.001L61.014 301.011L82.5875 301.025Z" fill="white" stroke="#5A5A5A" stroke-width="0.5"/>
<path d="M66.2568 290.006C66.2568 286.892 68.7316 284.378 71.7935 284.378C74.8555 284.378 77.3302 286.892 77.3302 290.02C77.3302 293.134 74.8555 295.676 71.7935 295.676C68.7316 295.662 66.2568 293.12 66.2568 290.006Z" stroke="#5A5A5A" stroke-width="0.5"/>
<path d="M71.7939 294.126C70.6754 294.14 69.6687 293.679 68.9417 292.925C68.2146 292.171 67.7672 291.137 67.7533 290.02M71.7799 285.886C70.6754 285.886 69.6687 286.347 68.9277 287.087C68.2006 287.841 67.7393 288.861 67.7393 290.006L71.7799 285.886ZM71.7939 294.126C72.8984 294.126 73.9051 293.665 74.6461 292.925C75.3732 292.171 75.8206 291.137 75.8206 290.006L71.7939 294.126ZM71.7799 285.886C72.9124 285.886 73.9191 286.347 74.6322 287.087L74.6461 287.101C75.3592 287.841 75.8206 288.861 75.8206 289.992L71.7799 285.886Z" stroke="#5A5A5A" stroke-width="0.5"/>
<rect width="8" height="47" transform="matrix(-1 8.74228e-08 8.74228e-08 1 108 347.001)" fill="#5A5A5A"/>
<rect width="8" height="96" transform="matrix(-4.37114e-08 1 1 4.37114e-08 12 271.001)" fill="#5A5A5A"/>
<rect width="8" height="55" transform="matrix(-1 -8.74228e-08 -8.74228e-08 1 257 164)" fill="#5A5A5A"/>
<rect width="8" height="85" transform="matrix(-4.37114e-08 -1 -1 4.37114e-08 334 172)" fill="#5A5A5A"/>
<rect width="16" height="16" transform="matrix(-1 -8.74228e-08 -8.74228e-08 1 292 310)" fill="#5A5A5A"/>
<rect width="16" height="310" transform="matrix(-1 -8.74228e-08 -8.74228e-08 1 292 310)" fill="#5A5A5A"/>
<rect width="16" height="22" transform="matrix(-1 -8.74228e-08 -8.74228e-08 1 292 253)" fill="#5A5A5A"/>
<rect width="8" height="60" transform="matrix(1 0 0 -1 100 316)" fill="#5A5A5A"/>
<rect width="8" height="28" transform="matrix(1 0 0 -1 100 231.001)" fill="#5A5A5A"/>
<rect width="16" height="102" transform="matrix(-4.37114e-08 -1 -1 4.37114e-08 118 219.001)" fill="#5A5A5A"/>
<rect width="16" height="25" transform="matrix(-4.37114e-08 -1 -1 4.37114e-08 174 219)" fill="#5A5A5A"/>
<rect width="16" height="52" transform="matrix(-4.37114e-08 -1 -1 4.37114e-08 257 219)" fill="#5A5A5A"/>
<rect width="16" height="98" transform="matrix(-4.37114e-08 -1 -1 4.37114e-08 350 264)" fill="#5A5A5A"/>
<rect width="16" height="90" transform="matrix(1.19249e-08 -1 -1 -1.19249e-08 292 394)" fill="#5A5A5A"/>
<rect width="16" height="11" transform="matrix(1.19249e-08 -1 -1 -1.19249e-08 113 394)" fill="#5A5A5A"/>
<rect width="16" height="19" transform="matrix(1.19249e-08 -1 -1 -1.19249e-08 168 394)" fill="#5A5A5A"/>
<circle cx="174.5" cy="307.5" r="39.5" fill="#5A5A5A"/>
<path d="M144.45 306.54V304.2L146.79 302.4H148.68V315H146.61V304.92L144.45 306.54ZM152.461 313.488C151.321 312.24 150.751 310.644 150.751 308.7C150.751 306.756 151.321 305.16 152.461 303.912C153.601 302.664 154.981 302.04 156.601 302.04C158.221 302.04 159.601 302.664 160.741 303.912C161.881 305.16 162.451 306.756 162.451 308.7C162.451 310.644 161.881 312.24 160.741 313.488C159.601 314.736 158.221 315.36 156.601 315.36C154.981 315.36 153.601 314.736 152.461 313.488ZM153.937 305.244C153.253 306.06 152.911 307.212 152.911 308.7C152.911 310.188 153.253 311.34 153.937 312.156C154.633 312.972 155.521 313.38 156.601 313.38C157.681 313.38 158.563 312.972 159.247 312.156C159.943 311.34 160.291 310.188 160.291 308.7C160.291 307.212 159.943 306.06 159.247 305.244C158.563 304.428 157.681 304.02 156.601 304.02C155.521 304.02 154.633 304.428 153.937 305.244ZM165.786 313.488C164.646 312.24 164.076 310.644 164.076 308.7C164.076 306.756 164.646 305.16 165.786 303.912C166.926 302.664 168.306 302.04 169.926 302.04C171.546 302.04 172.926 302.664 174.066 303.912C175.206 305.16 175.776 306.756 175.776 308.7C175.776 310.644 175.206 312.24 174.066 313.488C172.926 314.736 171.546 315.36 169.926 315.36C168.306 315.36 166.926 314.736 165.786 313.488ZM167.262 305.244C166.578 306.06 166.236 307.212 166.236 308.7C166.236 310.188 166.578 311.34 167.262 312.156C167.958 312.972 168.846 313.38 169.926 313.38C171.006 313.38 171.888 312.972 172.572 312.156C173.268 311.34 173.616 310.188 173.616 308.7C173.616 307.212 173.268 306.06 172.572 305.244C171.888 304.428 171.006 304.02 169.926 304.02C168.846 304.02 167.958 304.428 167.262 305.244ZM177.31 314.01C177.31 313.65 177.424 313.35 177.652 313.11C177.892 312.87 178.186 312.75 178.534 312.75C178.93 312.75 179.242 312.894 179.47 313.182C179.71 313.47 179.83 313.896 179.83 314.46C179.83 315.384 179.608 316.092 179.164 316.584C178.732 317.088 178.144 317.34 177.4 317.34V316.44C177.76 316.44 178.042 316.338 178.246 316.134C178.462 315.942 178.57 315.684 178.57 315.36V315.252C178.558 315.24 178.552 315.216 178.552 315.18V315.126L178.444 315.162C178.408 315.174 178.33 315.18 178.21 315.18C177.97 315.18 177.76 315.072 177.58 314.856C177.4 314.64 177.31 314.358 177.31 314.01ZM181.175 310.86C181.175 310.284 181.301 309.684 181.553 309.06C181.817 308.424 182.069 307.926 182.309 307.566C182.561 307.194 182.903 306.732 183.335 306.18L186.215 302.4H188.645L185.927 305.946L185.135 306.63V306.72L185.495 306.594C185.855 306.498 186.245 306.45 186.665 306.45C187.841 306.45 188.837 306.876 189.653 307.728C190.481 308.568 190.895 309.612 190.895 310.86C190.895 312.132 190.439 313.2 189.527 314.064C188.615 314.928 187.451 315.36 186.035 315.36C184.619 315.36 183.455 314.928 182.543 314.064C181.631 313.2 181.175 312.132 181.175 310.86ZM184.073 308.988C183.581 309.468 183.335 310.092 183.335 310.86C183.335 311.628 183.581 312.258 184.073 312.75C184.565 313.23 185.219 313.47 186.035 313.47C186.851 313.47 187.505 313.23 187.997 312.75C188.489 312.258 188.735 311.628 188.735 310.86C188.735 310.092 188.489 309.468 187.997 308.988C187.505 308.496 186.851 308.25 186.035 308.25C185.219 308.25 184.565 308.496 184.073 308.988ZM192.339 311.49H194.499C194.595 311.862 194.757 312.18 194.985 312.444C195.513 313.068 196.281 313.38 197.289 313.38C198.093 313.38 198.729 313.164 199.197 312.732C199.665 312.3 199.899 311.736 199.899 311.04C199.899 310.308 199.665 309.72 199.197 309.276C198.729 308.832 198.093 308.61 197.289 308.61C196.545 308.61 195.915 308.808 195.399 309.204C195.195 309.36 195.015 309.552 194.859 309.78H192.879L193.419 302.4H201.069V304.38H195.129L194.859 307.62H194.949C195.141 307.428 195.363 307.266 195.615 307.134C196.179 306.798 196.857 306.63 197.649 306.63C198.909 306.63 199.959 307.05 200.799 307.89C201.639 308.73 202.059 309.78 202.059 311.04C202.059 312.276 201.615 313.308 200.727 314.136C199.851 314.952 198.705 315.36 197.289 315.36C195.441 315.36 194.067 314.718 193.167 313.434C192.783 312.87 192.507 312.222 192.339 311.49Z" fill="white"/>
<rect width="16" height="261" transform="matrix(-1 8.74228e-08 8.74228e-08 1 350 0)" fill="#5A5A5A"/>
<rect width="30" height="101" transform="matrix(-4.37114e-08 -1 -1 4.37114e-08 214 30)" fill="#5A5A5A"/>
<rect width="30" height="68" transform="matrix(-4.37114e-08 -1 -1 4.37114e-08 350 30)" fill="#5A5A5A"/>
<rect width="30" height="71" transform="matrix(-4.37114e-08 -1 -1 4.37114e-08 191 620)" fill="#5A5A5A"/>
<rect width="30" height="51" transform="matrix(-4.37114e-08 -1 -1 4.37114e-08 51 620)" fill="#5A5A5A"/>
<rect width="30" height="41" transform="matrix(-4.37114e-08 -1 -1 4.37114e-08 290 620)" fill="#5A5A5A"/>
<path d="M258.75 676.75L177.282 676.687L177.252 672.25L258.75 672.25L258.75 676.75Z" stroke="#5A5A5A" stroke-width="0.5" stroke-miterlimit="10"/>
<rect width="5.00001" height="76" transform="matrix(1 -8.74228e-08 -8.74228e-08 -1 275 674)" fill="#5A5A5A"/>
<rect width="5.00001" height="79" transform="matrix(1 -8.74228e-08 -8.74228e-08 -1 166 677)" fill="#5A5A5A"/>
<rect width="5.00001" height="98" transform="matrix(-1.31134e-07 -1 -1 1.31134e-07 268 677)" fill="#5A5A5A"/>
<rect width="5" height="12" transform="matrix(-1.31134e-07 -1 -1 1.31134e-07 280 677)" fill="#5A5A5A"/>
<path d="M283.75 605.25L223.274 605.313L223.251 609.75L283.75 609.75L283.75 605.25Z" stroke="#5A5A5A" stroke-width="0.5" stroke-miterlimit="10"/>
<path d="M283.75 615.25L223.274 615.313L223.251 619.75L283.75 619.75L283.75 615.25Z" stroke="#5A5A5A" stroke-width="0.5" stroke-miterlimit="10"/>
<line x1="190.745" y1="604.57" x2="217.745" y2="588.57" stroke="#5A5A5A"/>
<path d="M296.75 29.7503L50.3492 29.5986L50.2521 18.2505L296.75 18.2505L296.75 29.7503Z" stroke="#5A5A5A" stroke-width="0.5" stroke-miterlimit="10"/>
<path d="M152.75 619.75L16.305 619.598L16.2512 608.25L152.75 608.25L152.75 619.75Z" stroke="#5A5A5A" stroke-width="0.5" stroke-miterlimit="10"/>
<path d="M296.75 11.7503L50.3492 11.5986L50.2521 0.250496L296.75 0.250485L296.75 11.7503Z" stroke="#5A5A5A" stroke-width="0.5" stroke-miterlimit="10"/>
<path d="M152.75 601.75L16.305 601.598L16.2512 590.25L152.75 590.25L152.75 601.75Z" stroke="#5A5A5A" stroke-width="0.5" stroke-miterlimit="10"/>
<line y1="-0.5" x2="40.8534" y2="-0.5" transform="matrix(0.367167 -0.930155 -0.930155 -0.367167 104 354)" stroke="#5A5A5A"/>
<line x1="110.751" y1="379.567" x2="143.751" y2="360.567" stroke="#5A5A5A"/>
<line y1="-0.5" x2="38.0789" y2="-0.5" transform="matrix(-0.866623 -0.498964 -0.498964 0.866623 205 380)" stroke="#5A5A5A"/>
<line y1="-0.5" x2="41.6773" y2="-0.5" transform="matrix(0.863779 -0.503871 -0.503871 -0.863779 179 235)" stroke="#5A5A5A"/>
<line x1="239.562" y1="244.76" x2="256.562" y2="213.76" stroke="#5A5A5A"/>
<line x1="305.545" y1="308.208" x2="289.545" y2="273.208" stroke="#5A5A5A"/>
<line x1="145.748" y1="235.432" x2="109.748" y2="214.432" stroke="#5A5A5A"/>
<line x1="120.576" y1="253.265" x2="105.576" y2="229.265" stroke="#5A5A5A"/>
<path d="M35.2982 236.72L34.1177 236.736L31.0517 236.72L23.4605 236.72L23.4605 246.677L35.2982 246.677C38.3151 246.677 40.7744 244.433 40.7744 241.682C40.7744 238.963 38.3151 236.72 35.2982 236.72Z" fill="white" stroke="#5A5A5A" stroke-width="0.5"/>
<path d="M35.2329 237.866L34.2983 237.866L26.7398 237.866L26.7398 245.547L34.2983 245.547L35.2328 245.53C37.6102 245.53 39.5449 243.827 39.5449 241.698C39.5285 239.585 37.5938 237.866 35.2329 237.866Z" fill="white" stroke="#5A5A5A" stroke-width="0.5"/>
<path d="M17.0984 248.478L22.3614 248.478C22.9681 248.478 23.46 247.987 23.46 247.381L23.46 236.097C23.46 235.491 22.9681 235 22.3614 235L17.0984 235C16.4917 235 15.9998 235.491 15.9998 236.097L15.9998 247.365C15.9998 247.987 16.4917 248.478 17.0984 248.478Z" fill="white" stroke="#5A5A5A" stroke-width="0.5"/>
<path d="M19.7224 242.386C20.1323 242.386 20.4437 242.091 20.4437 241.747C20.4601 241.387 20.1323 241.092 19.7224 241.092C19.3125 241.092 19.001 241.387 19.001 241.731C19.0174 242.108 19.3289 242.402 19.7224 242.386Z" fill="white" stroke="#5A5A5A" stroke-width="0.5"/>
<path d="M314.476 223.72L315.657 223.736L318.723 223.72L326.314 223.72L326.314 233.677L314.476 233.677C311.459 233.677 309 231.433 309 228.682C309 225.963 311.459 223.72 314.476 223.72Z" fill="white" stroke="#5A5A5A" stroke-width="0.5"/>
<path d="M314.542 224.866L315.476 224.866L323.035 224.866L323.035 232.547L315.476 232.547L314.542 232.53C312.164 232.53 310.229 230.827 310.229 228.698C310.246 226.585 312.181 224.866 314.542 224.866Z" fill="white" stroke="#5A5A5A" stroke-width="0.5"/>
<path d="M332.676 235.478L327.413 235.478C326.806 235.478 326.314 234.987 326.314 234.381L326.314 223.097C326.314 222.491 326.806 222 327.413 222L332.676 222C333.283 222 333.775 222.491 333.775 223.097L333.775 234.365C333.775 234.987 333.283 235.478 332.676 235.478Z" fill="white" stroke="#5A5A5A" stroke-width="0.5"/>
<path d="M330.052 229.386C329.642 229.386 329.331 229.091 329.331 228.747C329.314 228.387 329.642 228.092 330.052 228.092C330.462 228.092 330.773 228.387 330.773 228.731C330.757 229.108 330.445 229.402 330.052 229.386Z" fill="white" stroke="#5A5A5A" stroke-width="0.5"/>
<path d="M82.5964 257.54L82.5964 269.848C82.5964 270.704 81.9126 271.389 81.0579 271.389L62.5385 271.389C61.6838 271.389 61 270.704 61 269.848L61 257.54C61 256.685 61.6838 256 62.5385 256L81.0579 256C81.8984 256 82.5964 256.685 82.5964 257.54Z" fill="white" stroke="#5A5A5A" stroke-width="0.5"/>
<path d="M80.6729 262.232L80.6729 264.129C80.6729 266.625 78.65 268.65 76.1571 268.65L67.4387 268.65C64.9457 268.65 62.9229 266.625 62.9229 264.129L62.9229 262.232C62.9229 259.737 64.9457 257.711 67.4387 257.711L76.1571 257.711C78.65 257.711 80.6729 259.737 80.6729 262.232Z" fill="white" stroke="#5A5A5A" stroke-width="0.5"/>
<path d="M72.7526 260.122C72.7526 260.665 72.3253 261.106 71.7982 261.106C71.271 261.106 70.8437 260.665 70.8437 260.122C70.8437 259.578 71.271 259.138 71.7982 259.138C72.3253 259.138 72.7526 259.578 72.7526 260.122Z" fill="white" stroke="#5A5A5A" stroke-width="0.5"/>
<path d="M320.54 205.596L332.848 205.596C333.704 205.596 334.389 204.913 334.389 204.058L334.389 185.539C334.389 184.684 333.704 184 332.848 184L320.54 184C319.685 184 319 184.684 319 185.539L319 204.058C319 204.898 319.685 205.596 320.54 205.596Z" fill="white" stroke="#5A5A5A" stroke-width="0.5"/>
<path d="M325.232 203.673L327.129 203.673C329.625 203.673 331.65 201.651 331.65 199.158L331.65 190.439C331.65 187.946 329.625 185.923 327.129 185.923L325.232 185.923C322.736 185.923 320.711 187.946 320.711 190.439L320.711 199.158C320.711 201.651 322.736 203.673 325.232 203.673Z" fill="white" stroke="#5A5A5A" stroke-width="0.5"/>
<path d="M323.122 195.753C323.665 195.753 324.106 195.326 324.106 194.799C324.106 194.272 323.665 193.844 323.122 193.844C322.578 193.844 322.138 194.272 322.138 194.799C322.138 195.326 322.578 195.753 323.122 195.753Z" fill="white" stroke="#5A5A5A" stroke-width="0.5"/>
<rect width="2" height="11" transform="matrix(-1 8.74228e-08 8.74228e-08 1 255 154)" fill="#5A5A5A"/>
<rect width="2" height="11" transform="matrix(-1 8.74228e-08 8.74228e-08 1 255 137)" fill="#5A5A5A"/>
<rect width="2" height="11" transform="matrix(-1 8.74228e-08 8.74228e-08 1 255 120)" fill="#5A5A5A"/>
<rect width="2" height="11" transform="matrix(-1 8.74228e-08 8.74228e-08 1 255 103)" fill="#5A5A5A"/>
<rect width="2" height="11" transform="matrix(-1 8.74228e-08 8.74228e-08 1 255 86)" fill="#5A5A5A"/>
<rect width="2" height="11" transform="matrix(-1 8.74228e-08 8.74228e-08 1 255 69)" fill="#5A5A5A"/>
<rect width="2" height="11" transform="matrix(-1 8.74228e-08 8.74228e-08 1 255 51)" fill="#5A5A5A"/>
<rect width="2" height="11" transform="matrix(-1 8.74228e-08 8.74228e-08 1 255 33)" fill="#5A5A5A"/>
</svg>
