<svg width="360" height="556" viewBox="0 0 360 556" fill="none" xmlns="http://www.w3.org/2000/svg">
<path d="M346 474.213L81.9999 474.213L82 131.213L346 117.213L346 474.213Z" fill="#FFF8BA"/>
<path d="M278 148.213L86.9999 148.213L215 23.2133L278 23.2133L278 148.213Z" fill="#FFF8BA"/>
<path d="M283 120V300L344 297.143V120H283Z" fill="#FFC79F"/>
<path d="M342.678 300.411L285.322 300.411C284.588 300.411 284 299.824 284 299.09L284 276.321C284 275.587 284.588 275 285.322 275L342.678 275C343.412 275 344 275.587 344 276.321L344 299.09C344 299.824 343.399 300.411 342.678 300.411Z" fill="white" stroke="#5A5A5A" stroke-width="0.5"/>
<path d="M287.526 290.793L287.526 284.604C287.526 281.016 290.437 278.121 294.016 278.121L339.179 278.121C340.061 278.121 340.769 278.828 340.769 279.708L340.769 295.715C340.769 296.595 340.061 297.302 339.179 297.302L294.029 297.302C290.437 297.289 287.526 294.381 287.526 290.793Z" fill="white" stroke="#5A5A5A" stroke-width="0.5"/>
<path d="M335.413 288.152C335.413 288.867 336.017 289.446 336.762 289.446C337.507 289.446 338.111 288.867 338.111 288.152C338.111 287.438 337.507 286.858 336.762 286.858C336.017 286.858 335.413 287.438 335.413 288.152Z" fill="white" stroke="#5A5A5A" stroke-width="0.5"/>
<rect x="82" y="504" width="30" height="88" transform="rotate(-180 82 504)" fill="#5A5A5A"/>
<rect x="117" y="474" width="30" height="59" transform="rotate(90 117 474)" fill="#5A5A5A"/>
<rect x="241" y="474.213" width="30" height="73" transform="rotate(90 241 474.213)" fill="#5A5A5A"/>
<rect x="360" y="474" width="30" height="62" transform="rotate(90 360 474)" fill="#5A5A5A"/>
<rect x="82" y="334" width="30" height="89" transform="rotate(-180 82 334)" fill="#5A5A5A"/>
<rect x="294" y="0.213257" width="25" height="88" transform="rotate(90 294 0.213257)" fill="#5A5A5A"/>
<rect x="82" y="191.213" width="30" height="38" transform="rotate(-180 82 191.213)" fill="#5A5A5A"/>
<path d="M309.75 555.75L228.282 555.687L228.252 551.25L309.75 551.25L309.75 555.75Z" stroke="#5A5A5A" stroke-width="0.5" stroke-miterlimit="10"/>
<rect width="5" height="74" transform="matrix(1 -8.74228e-08 -8.74228e-08 -1 316 556)" fill="#5A5A5A"/>
<rect width="5" height="74" transform="matrix(1 -8.74228e-08 -8.74228e-08 -1 217 556)" fill="#5A5A5A"/>
<rect width="5" height="15" transform="matrix(-1.31134e-07 -1 -1 1.31134e-07 234 556)" fill="#5A5A5A"/>
<rect width="5" height="12" transform="matrix(-1.31134e-07 -1 -1 1.31134e-07 321 556)" fill="#5A5A5A"/>
<path d="M330.75 489.25L270.274 489.313L270.251 493.75L330.75 493.75L330.75 489.25Z" stroke="#5A5A5A" stroke-width="0.5" stroke-miterlimit="10"/>
<path d="M330.75 499.25L270.274 499.313L270.251 503.75L330.75 503.75L330.75 499.25Z" stroke="#5A5A5A" stroke-width="0.5" stroke-miterlimit="10"/>
<line x1="240.745" y1="488.57" x2="267.745" y2="472.57" stroke="#5A5A5A"/>
<path d="M0.250169 319.25L0.313208 426.708L4.74999 426.748L4.75002 319.25L0.250169 319.25Z" stroke="#5A5A5A" stroke-width="0.5" stroke-miterlimit="10"/>
<rect y="316" width="5" height="74" transform="rotate(-90 0 316)" fill="#5A5A5A"/>
<rect y="442" width="5" height="74" transform="rotate(-90 0 442)" fill="#5A5A5A"/>
<rect y="426" width="5" height="15" fill="#5A5A5A"/>
<rect y="313" width="5" height="12" fill="#5A5A5A"/>
<path d="M66.7497 329.25L66.6869 389.726L62.25 389.749L62.25 329.25L66.7497 329.25Z" stroke="#5A5A5A" stroke-width="0.5" stroke-miterlimit="10"/>
<path d="M56.7497 329.25L56.6869 389.726L52.25 389.749L52.25 329.25L56.7497 329.25Z" stroke="#5A5A5A" stroke-width="0.5" stroke-miterlimit="10"/>
<line y1="-0.5" x2="31.3847" y2="-0.5" transform="matrix(0.509802 -0.860292 -0.860292 -0.509802 67 419)" stroke="#5A5A5A"/>
<rect x="73.1299" y="174.297" width="30" height="216.493" transform="rotate(-135 73.1299 174.297)" fill="#5A5A5A"/>
<rect x="344" y="296" width="16" height="186" fill="#5A5A5A"/>
<rect x="294" y="66" width="16" height="41" transform="rotate(-180 294 66)" fill="#5A5A5A"/>
<rect x="352" y="112" width="11" height="76" transform="rotate(90 352 112)" fill="#5A5A5A"/>
<rect x="293" y="120" width="17" height="20" transform="rotate(-180 293 120)" fill="#5A5A5A"/>
<rect x="360" y="300.213" width="16" height="184" transform="rotate(-180 360 300.213)" fill="#5A5A5A"/>
<path d="M344 195.213L344 203.213L281 203.213L281 195.213L344 195.213Z" fill="#5A5A5A"/>
<path d="M231.753 131.809L226.096 137.466L164.919 76.2887L170.575 70.6319L231.753 131.809Z" fill="#5A5A5A"/>
<path d="M276 163L284 163L284 237L276 237L276 163Z" fill="#5A5A5A"/>
<path d="M224 132L232 132L232 168L224 168L224 132Z" fill="#5A5A5A"/>
<path d="M224.25 265.75L224.275 224.709L225.75 224.697L225.75 265.75L224.25 265.75Z" stroke="#5A5A5A" stroke-width="0.5" stroke-miterlimit="10"/>
<path d="M224.25 197.306L224.275 156.265L225.75 156.252L225.75 197.306L224.25 197.306Z" stroke="#5A5A5A" stroke-width="0.5" stroke-miterlimit="10"/>
<path d="M222.25 231.528L222.275 190.487L223.75 190.474L223.75 231.528L222.25 231.528Z" stroke="#5A5A5A" stroke-width="0.5" stroke-miterlimit="10"/>
<path d="M276 103L284 103L284 136L276 136L276 103Z" fill="#5A5A5A"/>
<path d="M276 266L284 266L284 308L276 308L276 266Z" fill="#5A5A5A"/>
<path d="M284 266L284 274L224 274L224 266L284 266Z" fill="#5A5A5A"/>
<path d="M232 268L224 268L224 250L232 250L232 268Z" fill="#5A5A5A"/>
<path d="M346 300L346 308L283 308L283 300L346 300Z" fill="#5A5A5A"/>
<path d="M223.75 474.25L99.3002 474.402L99.2511 485.75L223.75 485.75L223.75 474.25Z" stroke="#5A5A5A" stroke-width="0.5" stroke-miterlimit="10"/>
<path d="M52.2505 174.25L52.4016 257.716L63.75 257.749L63.75 174.25L52.2505 174.25Z" stroke="#5A5A5A" stroke-width="0.5" stroke-miterlimit="10"/>
<path d="M223.75 492.25L99.3002 492.402L99.2511 503.75L223.75 503.75L223.75 492.25Z" stroke="#5A5A5A" stroke-width="0.5" stroke-miterlimit="10"/>
<path d="M70.2505 174.25L70.4016 257.716L81.75 257.749L81.75 174.25L70.2505 174.25Z" stroke="#5A5A5A" stroke-width="0.5" stroke-miterlimit="10"/>
<line y1="-0.5" x2="30.0167" y2="-0.5" transform="matrix(-0.499722 -0.866186 -0.866186 0.499722 278 267.213)" stroke="#5A5A5A"/>
<line x1="286.571" y1="102.743" x2="307.571" y2="67.7428" stroke="#5A5A5A"/>
<rect width="2" height="11" transform="matrix(-1.31134e-07 -1 -1 1.31134e-07 220 189.213)" fill="#5A5A5A"/>
<rect width="2" height="11" transform="matrix(-1.31134e-07 -1 -1 1.31134e-07 169 189.213)" fill="#5A5A5A"/>
<rect width="2" height="11" transform="matrix(-1.31134e-07 -1 -1 1.31134e-07 186 189.213)" fill="#5A5A5A"/>
<rect width="2" height="11" transform="matrix(-1.31134e-07 -1 -1 1.31134e-07 203 189.213)" fill="#5A5A5A"/>
<rect width="2" height="11" transform="matrix(-1.31134e-07 -1 -1 1.31134e-07 152 189.213)" fill="#5A5A5A"/>
<rect width="2" height="11" transform="matrix(-1.31134e-07 -1 -1 1.31134e-07 135 189.213)" fill="#5A5A5A"/>
<rect width="2" height="11" transform="matrix(-1.31134e-07 -1 -1 1.31134e-07 118 189.213)" fill="#5A5A5A"/>
<rect width="2" height="11" transform="matrix(-1.31134e-07 -1 -1 1.31134e-07 101 189.213)" fill="#5A5A5A"/>
<path d="M201.799 113.131L184.125 130.805L201.325 148.005L219 130.331L201.799 113.131Z" fill="white" stroke="#5A5A5A" stroke-width="0.5"/>
<path d="M186.213 130.027L199.969 116.272C200.49 115.75 201.046 115.75 201.59 116.294L215.836 130.541C216.391 131.096 216.391 131.629 215.859 132.162L202.103 145.917C201.581 146.461 201.037 146.45 200.493 145.906L186.247 131.659C185.68 131.115 185.68 130.56 186.213 130.027Z" fill="white" stroke="#5A5A5A" stroke-width="0.5"/>
<path d="M192.075 133.359C193.352 134.614 195.384 134.647 196.617 133.415C197.86 132.172 197.826 130.14 196.561 128.874C195.284 127.597 193.263 127.575 192.019 128.818C190.776 130.061 190.798 132.082 192.075 133.359Z" stroke="#5A5A5A" stroke-width="0.5"/>
<path d="M198.904 140.144C200.181 141.399 202.213 141.433 203.445 140.2C204.688 138.957 204.655 136.925 203.389 135.659C202.112 134.382 200.091 134.36 198.848 135.603C197.593 136.836 197.616 138.879 198.904 140.144Z" stroke="#5A5A5A" stroke-width="0.5"/>
<path d="M205.277 133.771C206.554 135.048 208.575 135.07 209.818 133.827C211.062 132.583 211.028 130.551 209.762 129.286C208.485 128.031 206.453 127.997 205.221 129.23C203.989 130.462 204.011 132.505 205.277 133.771Z" stroke="#5A5A5A" stroke-width="0.5"/>
<path d="M198.47 126.964C199.747 128.241 201.768 128.264 203.012 127.02C204.255 125.777 204.221 123.745 202.956 122.479C201.679 121.224 199.647 121.191 198.414 122.423C197.182 123.655 197.205 125.698 198.47 126.964Z" stroke="#5A5A5A" stroke-width="0.5"/>
<path d="M184.629 95.9818L167.596 113.015L150.838 96.2572L167.882 79.2133L184.629 95.9818Z" fill="white" stroke="#5A5A5A" stroke-width="0.5"/>
<path d="M178.683 99.3781L169.266 108.795C168.741 109.319 168.227 109.319 167.691 108.784L155.241 96.3332C154.726 95.8189 154.716 95.2939 155.219 94.769L164.657 85.3526C165.161 84.8277 165.686 84.8384 166.211 85.3634L178.661 97.8139C179.207 98.3175 179.207 98.8532 178.683 99.3781Z" fill="white" stroke="#5A5A5A" stroke-width="0.5"/>
<path d="M175.029 88.9957C174.365 88.3528 173.347 88.3206 172.725 88.9419L168.248 94.3412L168.248 94.3626C167.873 94.7376 167.883 95.3482 168.28 95.7447C168.676 96.1411 169.287 96.1519 169.683 95.7769L175.083 91.2991C175.693 90.6885 175.672 89.66 175.029 88.9957Z" stroke="#5A5A5A" stroke-width="0.5"/>
<mask id="path-70-inside-1_35_10268" fill="white">
<path fill-rule="evenodd" clip-rule="evenodd" d="M173.571 88.5032L171.139 91.4492C170.775 91.8349 170.775 92.4563 171.193 92.8527C171.589 93.2491 172.189 93.2492 172.575 92.885L175.521 90.4532"/>
</mask>
<path fill-rule="evenodd" clip-rule="evenodd" d="M173.571 88.5032L171.139 91.4492C170.775 91.8349 170.775 92.4563 171.193 92.8527C171.589 93.2491 172.189 93.2492 172.575 92.885L175.521 90.4532" fill="white"/>
<path d="M171.139 91.4492L171.503 91.7925L171.514 91.7804L171.525 91.7675L171.139 91.4492ZM171.193 92.8527L171.547 92.499L171.537 92.49L171.193 92.8527ZM172.575 92.885L172.257 92.4994L172.244 92.51L172.232 92.5215L172.575 92.885ZM173.185 88.1849L170.754 91.1309L171.525 91.7675L173.957 88.8215L173.185 88.1849ZM170.776 91.1059C170.223 91.6914 170.23 92.6287 170.849 93.2154L171.537 92.49C171.32 92.2839 171.327 91.9784 171.503 91.7925L170.776 91.1059ZM170.839 93.2063C171.426 93.7927 172.335 93.7998 172.918 93.2485L172.232 92.5215C172.044 92.6986 171.753 92.7056 171.546 92.4991L170.839 93.2063ZM172.893 93.2706L175.839 90.8389L175.203 90.0676L172.257 92.4994L172.893 93.2706Z" fill="#5A5A5A" mask="url(#path-70-inside-1_35_10268)"/>
<path d="M325.476 181.877L326.657 181.86L329.723 181.877L337.314 181.877L337.314 171.919L325.476 171.919C322.459 171.919 320 174.163 320 176.914C320 179.633 322.459 181.877 325.476 181.877Z" fill="white" stroke="#5A5A5A" stroke-width="0.5"/>
<path d="M325.542 180.73L326.476 180.73L334.035 180.73L334.035 173.05L326.476 173.05L325.542 173.066C323.164 173.066 321.229 174.769 321.229 176.898C321.246 179.011 323.181 180.73 325.542 180.73Z" fill="white" stroke="#5A5A5A" stroke-width="0.5"/>
<path d="M343.676 170.118L338.412 170.118C337.806 170.118 337.314 170.609 337.314 171.215L337.314 182.499C337.314 183.105 337.806 183.596 338.412 183.596L343.676 183.596C344.282 183.596 344.774 183.105 344.774 182.499L344.774 171.232C344.774 170.609 344.282 170.118 343.676 170.118Z" fill="white" stroke="#5A5A5A" stroke-width="0.5"/>
<path d="M341.052 176.21C340.642 176.21 340.331 176.505 340.331 176.849C340.314 177.209 340.642 177.504 341.052 177.504C341.462 177.504 341.773 177.209 341.773 176.865C341.757 176.489 341.445 176.194 341.052 176.21Z" fill="white" stroke="#5A5A5A" stroke-width="0.5"/>
<path d="M325.476 255.877L326.657 255.86L329.723 255.877L337.314 255.877L337.314 245.919L325.476 245.919C322.459 245.919 320 248.163 320 250.914C320 253.633 322.459 255.877 325.476 255.877Z" fill="white" stroke="#5A5A5A" stroke-width="0.5"/>
<path d="M325.542 254.73L326.476 254.73L334.035 254.73L334.035 247.05L326.476 247.05L325.542 247.066C323.164 247.066 321.229 248.769 321.229 250.898C321.246 253.011 323.181 254.73 325.542 254.73Z" fill="white" stroke="#5A5A5A" stroke-width="0.5"/>
<path d="M343.676 244.118L338.412 244.118C337.806 244.118 337.314 244.609 337.314 245.215L337.314 256.499C337.314 257.105 337.806 257.596 338.412 257.596L343.676 257.596C344.282 257.596 344.774 257.105 344.774 256.499L344.774 245.232C344.774 244.609 344.282 244.118 343.676 244.118Z" fill="white" stroke="#5A5A5A" stroke-width="0.5"/>
<path d="M341.052 250.21C340.642 250.21 340.331 250.505 340.331 250.849C340.314 251.209 340.642 251.504 341.052 251.504C341.462 251.504 341.773 251.209 341.773 250.865C341.757 250.489 341.445 250.194 341.052 250.21Z" fill="white" stroke="#5A5A5A" stroke-width="0.5"/>
<path d="M330.54 139L342.848 139C343.704 139 344.389 139.684 344.389 140.539L344.389 159.058C344.389 159.913 343.704 160.596 342.848 160.596L330.54 160.596C329.685 160.596 329 159.913 329 159.058L329 140.539C329 139.698 329.685 139 330.54 139Z" fill="white" stroke="#5A5A5A" stroke-width="0.5"/>
<path d="M335.232 140.923L337.129 140.923C339.625 140.923 341.65 142.946 341.65 145.439L341.65 154.157C341.65 156.65 339.625 158.673 337.129 158.673L335.232 158.673C332.737 158.673 330.711 156.65 330.711 154.157L330.711 145.439C330.711 142.946 332.737 140.923 335.232 140.923Z" fill="white" stroke="#5A5A5A" stroke-width="0.5"/>
<path d="M333.122 148.843C333.665 148.843 334.106 149.271 334.106 149.798C334.106 150.325 333.665 150.752 333.122 150.752C332.578 150.752 332.138 150.325 332.138 149.798C332.138 149.271 332.578 148.843 333.122 148.843Z" fill="white" stroke="#5A5A5A" stroke-width="0.5"/>
<path d="M330.54 213L342.848 213C343.704 213 344.389 213.684 344.389 214.539L344.389 233.058C344.389 233.913 343.704 234.596 342.848 234.596L330.54 234.596C329.685 234.596 329 233.913 329 233.058L329 214.539C329 213.698 329.685 213 330.54 213Z" fill="white" stroke="#5A5A5A" stroke-width="0.5"/>
<path d="M335.232 214.923L337.129 214.923C339.625 214.923 341.65 216.946 341.65 219.439L341.65 228.157C341.65 230.65 339.625 232.673 337.129 232.673L335.232 232.673C332.737 232.673 330.711 230.65 330.711 228.157L330.711 219.439C330.711 216.946 332.737 214.923 335.232 214.923Z" fill="white" stroke="#5A5A5A" stroke-width="0.5"/>
<path d="M333.122 222.843C333.665 222.843 334.106 223.271 334.106 223.798C334.106 224.325 333.665 224.752 333.122 224.752C332.578 224.752 332.138 224.325 332.138 223.798C332.138 223.271 332.578 222.843 333.122 222.843Z" fill="white" stroke="#5A5A5A" stroke-width="0.5"/>
<path d="M239.21 406.253V404.713L242.5 398.413H244.25L240.96 404.713H244.18V402.333H244.25H245.79V404.713H247.19V406.253H245.79V408.213H244.18V406.253H239.21ZM246.906 399.953V398.413H253.556V399.953L249.636 408.213H247.886L251.736 400.093V399.953H246.906ZM252.999 407.443C252.999 407.163 253.088 406.93 253.265 406.743C253.452 406.557 253.681 406.463 253.951 406.463C254.259 406.463 254.502 406.575 254.679 406.799C254.866 407.023 254.959 407.355 254.959 407.793C254.959 408.512 254.787 409.063 254.441 409.445C254.105 409.837 253.648 410.033 253.069 410.033V409.333C253.349 409.333 253.569 409.254 253.727 409.095C253.895 408.946 253.979 408.745 253.979 408.493V408.409C253.97 408.4 253.965 408.381 253.965 408.353V408.311L253.881 408.339C253.853 408.349 253.793 408.353 253.699 408.353C253.513 408.353 253.349 408.269 253.209 408.101C253.069 407.933 252.999 407.714 252.999 407.443ZM255.866 401.633V399.813L257.686 398.413H259.156V408.213H257.546V400.373L255.866 401.633ZM260.627 404.993C260.627 404.545 260.725 404.079 260.921 403.593C261.126 403.099 261.322 402.711 261.509 402.431C261.705 402.142 261.971 401.783 262.307 401.353L264.547 398.413H266.437L264.323 401.171L263.707 401.703V401.773L263.987 401.675C264.267 401.601 264.57 401.563 264.897 401.563C265.811 401.563 266.586 401.895 267.221 402.557C267.865 403.211 268.187 404.023 268.187 404.993C268.187 405.983 267.832 406.813 267.123 407.485C266.413 408.157 265.508 408.493 264.407 408.493C263.305 408.493 262.4 408.157 261.691 407.485C260.981 406.813 260.627 405.983 260.627 404.993ZM262.881 403.537C262.498 403.911 262.307 404.396 262.307 404.993C262.307 405.591 262.498 406.081 262.881 406.463C263.263 406.837 263.772 407.023 264.407 407.023C265.041 407.023 265.55 406.837 265.933 406.463C266.315 406.081 266.507 405.591 266.507 404.993C266.507 404.396 266.315 403.911 265.933 403.537C265.55 403.155 265.041 402.963 264.407 402.963C263.772 402.963 263.263 403.155 262.881 403.537Z" fill="#333333"/>
<path d="M245.42 532.2H247.1C247.165 532.489 247.291 532.746 247.478 532.97C247.898 533.483 248.495 533.74 249.27 533.74C249.914 533.74 250.423 533.581 250.796 533.264C251.179 532.937 251.37 532.536 251.37 532.06C251.37 531.519 251.197 531.094 250.852 530.786C250.516 530.469 250.035 530.31 249.41 530.31H247.03V528.91L249.97 526.81V526.74H245.91V525.2H252.35V526.726L249.83 528.56L249.13 528.84V528.91L249.354 528.882C249.662 528.854 249.844 528.84 249.9 528.84C250.777 528.84 251.51 529.143 252.098 529.75C252.686 530.357 252.98 531.127 252.98 532.06C252.98 532.956 252.635 533.717 251.944 534.342C251.253 534.967 250.362 535.28 249.27 535.28C247.823 535.28 246.755 534.767 246.064 533.74C245.765 533.301 245.551 532.788 245.42 532.2ZM254.037 534.23C254.037 533.95 254.125 533.717 254.303 533.53C254.489 533.343 254.718 533.25 254.989 533.25C255.297 533.25 255.539 533.362 255.717 533.586C255.903 533.81 255.997 534.141 255.997 534.58C255.997 535.299 255.824 535.849 255.479 536.232C255.143 536.624 254.685 536.82 254.107 536.82V536.12C254.387 536.12 254.606 536.041 254.765 535.882C254.933 535.733 255.017 535.532 255.017 535.28V535.196C255.007 535.187 255.003 535.168 255.003 535.14V535.098L254.919 535.126C254.891 535.135 254.83 535.14 254.737 535.14C254.55 535.14 254.387 535.056 254.247 534.888C254.107 534.72 254.037 534.501 254.037 534.23ZM257.043 531.78C257.043 531.332 257.141 530.865 257.337 530.38C257.542 529.885 257.738 529.498 257.925 529.218C258.121 528.929 258.387 528.569 258.723 528.14L260.963 525.2H262.853L260.739 527.958L260.123 528.49V528.56L260.403 528.462C260.683 528.387 260.986 528.35 261.313 528.35C262.227 528.35 263.002 528.681 263.637 529.344C264.281 529.997 264.603 530.809 264.603 531.78C264.603 532.769 264.248 533.6 263.539 534.272C262.829 534.944 261.924 535.28 260.823 535.28C259.721 535.28 258.816 534.944 258.107 534.272C257.397 533.6 257.043 532.769 257.043 531.78ZM259.297 530.324C258.914 530.697 258.723 531.183 258.723 531.78C258.723 532.377 258.914 532.867 259.297 533.25C259.679 533.623 260.188 533.81 260.823 533.81C261.457 533.81 261.966 533.623 262.349 533.25C262.731 532.867 262.923 532.377 262.923 531.78C262.923 531.183 262.731 530.697 262.349 530.324C261.966 529.941 261.457 529.75 260.823 529.75C260.188 529.75 259.679 529.941 259.297 530.324ZM265.656 531.78C265.656 531.332 265.754 530.865 265.95 530.38C266.155 529.885 266.351 529.498 266.538 529.218C266.734 528.929 267 528.569 267.336 528.14L269.576 525.2H271.466L269.352 527.958L268.736 528.49V528.56L269.016 528.462C269.296 528.387 269.599 528.35 269.926 528.35C270.841 528.35 271.615 528.681 272.25 529.344C272.894 529.997 273.216 530.809 273.216 531.78C273.216 532.769 272.861 533.6 272.152 534.272C271.443 534.944 270.537 535.28 269.436 535.28C268.335 535.28 267.429 534.944 266.72 534.272C266.011 533.6 265.656 532.769 265.656 531.78ZM267.91 530.324C267.527 530.697 267.336 531.183 267.336 531.78C267.336 532.377 267.527 532.867 267.91 533.25C268.293 533.623 268.801 533.81 269.436 533.81C270.071 533.81 270.579 533.623 270.962 533.25C271.345 532.867 271.536 532.377 271.536 531.78C271.536 531.183 271.345 530.697 270.962 530.324C270.579 529.941 270.071 529.75 269.436 529.75C268.801 529.75 268.293 529.941 267.91 530.324Z" fill="#333333"/>
<path d="M16.42 387.2H18.1C18.1653 387.489 18.2913 387.746 18.478 387.97C18.898 388.483 19.4953 388.74 20.27 388.74C20.914 388.74 21.4227 388.581 21.796 388.264C22.1787 387.937 22.37 387.536 22.37 387.06C22.37 386.519 22.1973 386.094 21.852 385.786C21.516 385.469 21.0353 385.31 20.41 385.31H18.03V383.91L20.97 381.81V381.74H16.91V380.2H23.35V381.726L20.83 383.56L20.13 383.84V383.91L20.354 383.882C20.662 383.854 20.844 383.84 20.9 383.84C21.7773 383.84 22.51 384.143 23.098 384.75C23.686 385.357 23.98 386.127 23.98 387.06C23.98 387.956 23.6347 388.717 22.944 389.342C22.2533 389.967 21.362 390.28 20.27 390.28C18.8233 390.28 17.7547 389.767 17.064 388.74C16.7653 388.301 16.5507 387.788 16.42 387.2ZM25.0366 389.23C25.0366 388.95 25.1252 388.717 25.3026 388.53C25.4892 388.343 25.7179 388.25 25.9886 388.25C26.2966 388.25 26.5392 388.362 26.7166 388.586C26.9032 388.81 26.9966 389.141 26.9966 389.58C26.9966 390.299 26.8239 390.849 26.4786 391.232C26.1426 391.624 25.6852 391.82 25.1066 391.82V391.12C25.3866 391.12 25.6059 391.041 25.7646 390.882C25.9326 390.733 26.0166 390.532 26.0166 390.28V390.196C26.0072 390.187 26.0026 390.168 26.0026 390.14V390.098L25.9186 390.126C25.8906 390.135 25.8299 390.14 25.7366 390.14C25.5499 390.14 25.3866 390.056 25.2466 389.888C25.1066 389.72 25.0366 389.501 25.0366 389.23ZM28.0427 386.78C28.0427 386.332 28.1407 385.865 28.3367 385.38C28.5421 384.885 28.7381 384.498 28.9247 384.218C29.1207 383.929 29.3867 383.569 29.7227 383.14L31.9627 380.2H33.8527L31.7387 382.958L31.1227 383.49V383.56L31.4027 383.462C31.6827 383.387 31.9861 383.35 32.3127 383.35C33.2274 383.35 34.0021 383.681 34.6367 384.344C35.2807 384.997 35.6027 385.809 35.6027 386.78C35.6027 387.769 35.2481 388.6 34.5387 389.272C33.8294 389.944 32.9241 390.28 31.8227 390.28C30.7214 390.28 29.8161 389.944 29.1067 389.272C28.3974 388.6 28.0427 387.769 28.0427 386.78ZM30.2967 385.324C29.9141 385.697 29.7227 386.183 29.7227 386.78C29.7227 387.377 29.9141 387.867 30.2967 388.25C30.6794 388.623 31.1881 388.81 31.8227 388.81C32.4574 388.81 32.9661 388.623 33.3487 388.25C33.7314 387.867 33.9227 387.377 33.9227 386.78C33.9227 386.183 33.7314 385.697 33.3487 385.324C32.9661 384.941 32.4574 384.75 31.8227 384.75C31.1881 384.75 30.6794 384.941 30.2967 385.324ZM36.656 386.78C36.656 386.332 36.754 385.865 36.95 385.38C37.1553 384.885 37.3513 384.498 37.538 384.218C37.734 383.929 38 383.569 38.336 383.14L40.576 380.2H42.466L40.352 382.958L39.736 383.49V383.56L40.016 383.462C40.296 383.387 40.5993 383.35 40.926 383.35C41.8407 383.35 42.6153 383.681 43.25 384.344C43.894 384.997 44.216 385.809 44.216 386.78C44.216 387.769 43.8613 388.6 43.152 389.272C42.4427 389.944 41.5373 390.28 40.436 390.28C39.3347 390.28 38.4293 389.944 37.72 389.272C37.0107 388.6 36.656 387.769 36.656 386.78ZM38.91 385.324C38.5273 385.697 38.336 386.183 38.336 386.78C38.336 387.377 38.5273 387.867 38.91 388.25C39.2927 388.623 39.8013 388.81 40.436 388.81C41.0707 388.81 41.5793 388.623 41.962 388.25C42.3447 387.867 42.536 387.377 42.536 386.78C42.536 386.183 42.3447 385.697 41.962 385.324C41.5793 384.941 41.0707 384.75 40.436 384.75C39.8013 384.75 39.2927 384.941 38.91 385.324Z" fill="#333333"/>
<path d="M290.21 248.253V246.713L293.5 240.413H295.25L291.96 246.713H295.18V244.333H295.25H296.79V246.713H298.19V248.253H296.79V250.213H295.18V248.253H290.21ZM298.749 249.443C298.749 249.163 298.838 248.93 299.015 248.743C299.202 248.557 299.431 248.463 299.701 248.463C300.009 248.463 300.252 248.575 300.429 248.799C300.616 249.023 300.709 249.355 300.709 249.793C300.709 250.512 300.537 251.063 300.191 251.445C299.855 251.837 299.398 252.033 298.819 252.033V251.333C299.099 251.333 299.319 251.254 299.477 251.095C299.645 250.946 299.729 250.745 299.729 250.493V250.409C299.72 250.4 299.715 250.381 299.715 250.353V250.311L299.631 250.339C299.603 250.349 299.543 250.353 299.449 250.353C299.263 250.353 299.099 250.269 298.959 250.101C298.819 249.933 298.749 249.714 298.749 249.443ZM301.826 243.633C301.826 242.644 302.18 241.813 302.89 241.141C303.599 240.469 304.504 240.133 305.606 240.133C306.707 240.133 307.612 240.469 308.322 241.141C309.031 241.813 309.386 242.644 309.386 243.633C309.386 244.52 309.017 245.477 308.28 246.503C308.205 246.606 308.102 246.746 307.972 246.923C307.841 247.091 307.752 247.208 307.706 247.273L305.466 250.213H303.576L305.69 247.455L306.306 246.923V246.853C306.287 246.863 306.194 246.9 306.026 246.965C305.783 247.031 305.48 247.063 305.116 247.063C304.201 247.063 303.422 246.737 302.778 246.083C302.143 245.421 301.826 244.604 301.826 243.633ZM304.08 242.177C303.697 242.551 303.506 243.036 303.506 243.633C303.506 244.231 303.697 244.721 304.08 245.103C304.462 245.477 304.971 245.663 305.606 245.663C306.24 245.663 306.749 245.477 307.132 245.103C307.514 244.721 307.706 244.231 307.706 243.633C307.706 243.036 307.514 242.551 307.132 242.177C306.749 241.795 306.24 241.603 305.606 241.603C304.971 241.603 304.462 241.795 304.08 242.177ZM310.369 246.993C310.369 246.545 310.467 246.079 310.663 245.593C310.868 245.099 311.064 244.711 311.251 244.431C311.447 244.142 311.713 243.783 312.049 243.353L314.289 240.413H316.179L314.065 243.171L313.449 243.703V243.773L313.729 243.675C314.009 243.601 314.312 243.563 314.639 243.563C315.554 243.563 316.328 243.895 316.963 244.557C317.607 245.211 317.929 246.023 317.929 246.993C317.929 247.983 317.574 248.813 316.865 249.485C316.156 250.157 315.25 250.493 314.149 250.493C313.048 250.493 312.142 250.157 311.433 249.485C310.724 248.813 310.369 247.983 310.369 246.993ZM312.623 245.537C312.24 245.911 312.049 246.396 312.049 246.993C312.049 247.591 312.24 248.081 312.623 248.463C313.006 248.837 313.514 249.023 314.149 249.023C314.784 249.023 315.292 248.837 315.675 248.463C316.058 248.081 316.249 247.591 316.249 246.993C316.249 246.396 316.058 245.911 315.675 245.537C315.292 245.155 314.784 244.963 314.149 244.963C313.514 244.963 313.006 245.155 312.623 245.537Z" fill="#333333"/>
<path d="M287.42 170.413H289.1C289.165 170.703 289.291 170.959 289.478 171.183C289.898 171.697 290.495 171.953 291.27 171.953C291.914 171.953 292.423 171.795 292.796 171.477C293.179 171.151 293.37 170.749 293.37 170.273C293.37 169.732 293.197 169.307 292.852 168.999C292.516 168.682 292.035 168.523 291.41 168.523H289.03V167.123L291.97 165.023V164.953H287.91V163.413H294.35V164.939L291.83 166.773L291.13 167.053V167.123L291.354 167.095C291.662 167.067 291.844 167.053 291.9 167.053C292.777 167.053 293.51 167.357 294.098 167.963C294.686 168.57 294.98 169.34 294.98 170.273C294.98 171.169 294.635 171.93 293.944 172.555C293.253 173.181 292.362 173.493 291.27 173.493C289.823 173.493 288.755 172.98 288.064 171.953C287.765 171.515 287.551 171.001 287.42 170.413ZM296.037 172.443C296.037 172.163 296.125 171.93 296.303 171.743C296.489 171.557 296.718 171.463 296.989 171.463C297.297 171.463 297.539 171.575 297.717 171.799C297.903 172.023 297.997 172.355 297.997 172.793C297.997 173.512 297.824 174.063 297.479 174.445C297.143 174.837 296.685 175.033 296.107 175.033V174.333C296.387 174.333 296.606 174.254 296.765 174.095C296.933 173.946 297.017 173.745 297.017 173.493V173.409C297.007 173.4 297.003 173.381 297.003 173.353V173.311L296.919 173.339C296.891 173.349 296.83 173.353 296.737 173.353C296.55 173.353 296.387 173.269 296.247 173.101C296.107 172.933 296.037 172.714 296.037 172.443ZM298.693 164.953V163.413H305.343V164.953L301.423 173.213H299.673L303.523 165.093V164.953H298.693ZM307.581 172.037C306.694 171.067 306.251 169.825 306.251 168.313C306.251 166.801 306.694 165.56 307.581 164.589C308.468 163.619 309.541 163.133 310.801 163.133C312.061 163.133 313.134 163.619 314.021 164.589C314.908 165.56 315.351 166.801 315.351 168.313C315.351 169.825 314.908 171.067 314.021 172.037C313.134 173.008 312.061 173.493 310.801 173.493C309.541 173.493 308.468 173.008 307.581 172.037ZM308.729 165.625C308.197 166.26 307.931 167.156 307.931 168.313C307.931 169.471 308.197 170.367 308.729 171.001C309.27 171.636 309.961 171.953 310.801 171.953C311.641 171.953 312.327 171.636 312.859 171.001C313.4 170.367 313.671 169.471 313.671 168.313C313.671 167.156 313.4 166.26 312.859 165.625C312.327 164.991 311.641 164.673 310.801 164.673C309.961 164.673 309.27 164.991 308.729 165.625Z" fill="#333333"/>
<path d="M144.14 151.953V150.413H150.79V151.953L146.87 160.213H145.12L148.97 152.093V151.953H144.14ZM150.234 159.443C150.234 159.163 150.322 158.93 150.5 158.743C150.686 158.557 150.915 158.463 151.186 158.463C151.494 158.463 151.736 158.575 151.914 158.799C152.1 159.023 152.194 159.355 152.194 159.793C152.194 160.512 152.021 161.063 151.676 161.445C151.34 161.837 150.882 162.033 150.304 162.033V161.333C150.584 161.333 150.803 161.254 150.962 161.095C151.13 160.946 151.214 160.745 151.214 160.493V160.409C151.204 160.4 151.2 160.381 151.2 160.353V160.311L151.116 160.339C151.088 160.349 151.027 160.353 150.934 160.353C150.747 160.353 150.584 160.269 150.444 160.101C150.304 159.933 150.234 159.714 150.234 159.443ZM153.1 153.633V151.813L154.92 150.413H156.39V160.213H154.78V152.373L153.1 153.633ZM159.331 159.037C158.444 158.067 158.001 156.825 158.001 155.313C158.001 153.801 158.444 152.56 159.331 151.589C160.218 150.619 161.291 150.133 162.551 150.133C163.811 150.133 164.884 150.619 165.771 151.589C166.658 152.56 167.101 153.801 167.101 155.313C167.101 156.825 166.658 158.067 165.771 159.037C164.884 160.008 163.811 160.493 162.551 160.493C161.291 160.493 160.218 160.008 159.331 159.037ZM160.479 152.625C159.947 153.26 159.681 154.156 159.681 155.313C159.681 156.471 159.947 157.367 160.479 158.001C161.02 158.636 161.711 158.953 162.551 158.953C163.391 158.953 164.077 158.636 164.609 158.001C165.15 157.367 165.421 156.471 165.421 155.313C165.421 154.156 165.15 153.26 164.609 152.625C164.077 151.991 163.391 151.673 162.551 151.673C161.711 151.673 161.02 151.991 160.479 152.625Z" fill="#333333"/>
<circle cx="186.5" cy="339.5" r="39.5" fill="#5A5A5A"/>
<path d="M160.18 336.38V334.4H168.73V336.38L163.69 347H161.44L166.39 336.56V336.38H160.18ZM169.628 343.4H171.788C171.872 343.772 172.034 344.102 172.274 344.39C172.814 345.05 173.582 345.38 174.578 345.38C175.406 345.38 176.06 345.176 176.54 344.768C177.032 344.348 177.278 343.832 177.278 343.22C177.278 342.524 177.056 341.978 176.612 341.582C176.18 341.174 175.562 340.97 174.758 340.97H171.698V339.17L175.478 336.47V336.38H170.258V334.4H178.538V336.362L175.298 338.72L174.398 339.08V339.17L174.686 339.134C175.082 339.098 175.316 339.08 175.388 339.08C176.516 339.08 177.458 339.47 178.214 340.25C178.97 341.03 179.348 342.02 179.348 343.22C179.348 344.372 178.904 345.35 178.016 346.154C177.128 346.958 175.982 347.36 174.578 347.36C172.718 347.36 171.344 346.7 170.456 345.38C170.072 344.816 169.796 344.156 169.628 343.4ZM180.706 346.01C180.706 345.65 180.82 345.35 181.048 345.11C181.288 344.87 181.582 344.75 181.93 344.75C182.326 344.75 182.638 344.894 182.866 345.182C183.106 345.47 183.226 345.896 183.226 346.46C183.226 347.384 183.004 348.092 182.56 348.584C182.128 349.088 181.54 349.34 180.796 349.34V348.44C181.156 348.44 181.438 348.338 181.642 348.134C181.858 347.942 181.966 347.684 181.966 347.36V347.252C181.954 347.24 181.948 347.216 181.948 347.18V347.126L181.84 347.162C181.804 347.174 181.726 347.18 181.606 347.18C181.366 347.18 181.156 347.072 180.976 346.856C180.796 346.64 180.706 346.358 180.706 346.01ZM184.121 336.38V334.4H192.671V336.38L187.631 347H185.381L190.331 336.56V336.38H184.121ZM192.948 344.48V342.5L197.178 334.4H199.428L195.198 342.5H199.338V339.44H199.428H201.408V342.5H203.208V344.48H201.408V347H199.338V344.48H192.948Z" fill="white"/>
<line x1="263.426" y1="138.738" x2="279.426" y2="164.738" stroke="#5A5A5A"/>
</svg>
