<svg width="350" height="677" viewBox="0 0 350 677" fill="none" xmlns="http://www.w3.org/2000/svg">
<path d="M276 590.001V431.001L15 431.001L15 590.001L276 590.001Z" fill="#E7FFD5"/>
<path d="M335 252.001V30.001H16L16 252.001H335Z" fill="#E7FFD5"/>
<path d="M257 368.001L255 60.001H16L16 368.001L257 368.001Z" fill="#E7FFD5"/>
<path d="M276 451.001V141.001H6L6.00001 451.001L276 451.001Z" fill="#E7FFD5"/>
<path d="M333.995 99.3247L309 99.3247L309 74.9999L333.995 74.9999L333.995 99.3247Z" fill="white" stroke="#5A5A5A" stroke-width="0.5"/>
<path d="M311.027 98.3982L330.48 98.3982C331.218 98.3982 331.611 98.0056 331.611 97.2361L331.611 77.0885C331.611 76.3033 331.234 75.9265 330.48 75.9265L311.027 75.9265C310.274 75.9108 309.897 76.3033 309.897 77.0728L309.897 97.2204C309.881 98.0056 310.274 98.3982 311.027 98.3982Z" fill="white" stroke="#5A5A5A" stroke-width="0.5"/>
<path d="M312.816 91.8968C312.832 90.1066 314.245 88.6462 315.988 88.6462C317.746 88.6462 319.159 90.1066 319.159 91.8968C319.159 93.7027 317.746 95.1475 315.988 95.1475C314.229 95.1475 312.816 93.7027 312.816 91.8968Z" stroke="#5A5A5A" stroke-width="0.5"/>
<path d="M312.846 82.271C312.862 80.4808 314.275 79.0203 316.017 79.0203C317.776 79.0203 319.189 80.4808 319.189 82.271C319.189 84.0769 317.776 85.5216 316.017 85.5216C314.259 85.5373 312.83 84.0769 312.846 82.271Z" stroke="#5A5A5A" stroke-width="0.5"/>
<path d="M321.859 82.2711C321.859 80.4652 323.272 79.0205 325.031 79.0205C326.789 79.0205 328.202 80.4809 328.202 82.2711C328.187 84.0613 326.774 85.5217 325.031 85.5217C323.288 85.5217 321.859 84.0613 321.859 82.2711Z" stroke="#5A5A5A" stroke-width="0.5"/>
<path d="M321.859 91.8968C321.859 90.0909 323.272 88.6462 325.031 88.6462C326.789 88.6462 328.202 90.1066 328.202 91.8968C328.187 93.687 326.774 95.1475 325.031 95.1475C323.288 95.1475 321.859 93.687 321.859 91.8968Z" stroke="#5A5A5A" stroke-width="0.5"/>
<path d="M334.088 145.699L310 145.699L310 122L334.104 122L334.088 145.699Z" fill="white" stroke="#5A5A5A" stroke-width="0.5"/>
<path d="M327.482 143.896L314.165 143.896C313.423 143.896 313.059 143.532 313.059 142.775L313.059 125.167C313.059 124.44 313.423 124.061 314.15 124.046L327.482 124.061C328.209 124.046 328.573 124.425 328.573 125.167L328.573 142.775C328.603 143.517 328.224 143.896 327.482 143.896Z" fill="white" stroke="#5A5A5A" stroke-width="0.5"/>
<path d="M332.24 133.971C332.225 133.047 331.528 132.304 330.649 132.304L323.665 132.956L323.65 132.971C323.12 132.971 322.696 133.41 322.696 133.971C322.696 134.532 323.12 134.971 323.665 134.986L330.649 135.638C331.513 135.638 332.225 134.895 332.24 133.971Z" stroke="#5A5A5A" stroke-width="0.5"/>
<mask id="path-11-inside-1_69_685" fill="white">
<path fill-rule="evenodd" clip-rule="evenodd" d="M331.557 132.592L327.754 132.955C327.224 132.971 326.784 133.41 326.8 133.986C326.8 134.547 327.224 134.971 327.754 134.986L331.557 135.35"/>
</mask>
<path fill-rule="evenodd" clip-rule="evenodd" d="M331.557 132.592L327.754 132.955C327.224 132.971 326.784 133.41 326.8 133.986C326.8 134.547 327.224 134.971 327.754 134.986L331.557 135.35" fill="white"/>
<path d="M327.754 132.955L327.768 133.455L327.785 133.455L327.802 133.453L327.754 132.955ZM326.8 133.986L327.3 133.986L327.299 133.973L326.8 133.986ZM327.754 134.986L327.802 134.488L327.785 134.487L327.768 134.486L327.754 134.986ZM331.509 132.094L327.706 132.458L327.802 133.453L331.604 133.09L331.509 132.094ZM327.74 132.456C326.935 132.479 326.277 133.147 326.3 133.999L327.299 133.973C327.291 133.673 327.513 133.463 327.768 133.455L327.74 132.456ZM326.3 133.986C326.3 134.815 326.937 135.463 327.74 135.486L327.768 134.486C327.51 134.479 327.3 134.278 327.3 133.986L326.3 133.986ZM327.706 135.484L331.509 135.847L331.604 134.852L327.802 134.488L327.706 135.484Z" fill="#5A5A5A" mask="url(#path-11-inside-1_69_685)"/>
<path d="M124.42 495.2H126.1C126.165 495.489 126.291 495.746 126.478 495.97C126.898 496.483 127.495 496.74 128.27 496.74C128.914 496.74 129.423 496.581 129.796 496.264C130.179 495.937 130.37 495.536 130.37 495.06C130.37 494.519 130.197 494.094 129.852 493.786C129.516 493.469 129.035 493.31 128.41 493.31H126.03V491.91L128.97 489.81V489.74H124.91V488.2H131.35V489.726L128.83 491.56L128.13 491.84V491.91L128.354 491.882C128.662 491.854 128.844 491.84 128.9 491.84C129.777 491.84 130.51 492.143 131.098 492.75C131.686 493.357 131.98 494.127 131.98 495.06C131.98 495.956 131.635 496.717 130.944 497.342C130.253 497.967 129.362 498.28 128.27 498.28C126.823 498.28 125.755 497.767 125.064 496.74C124.765 496.301 124.551 495.788 124.42 495.2ZM132.687 496.04V494.5L135.977 488.2H137.727L134.437 494.5H137.657V492.12H137.727H139.267V494.5H140.667V496.04H139.267V498H137.657V496.04H132.687ZM141.226 497.23C141.226 496.95 141.315 496.717 141.492 496.53C141.679 496.343 141.907 496.25 142.178 496.25C142.486 496.25 142.729 496.362 142.906 496.586C143.093 496.81 143.186 497.141 143.186 497.58C143.186 498.299 143.013 498.849 142.668 499.232C142.332 499.624 141.875 499.82 141.296 499.82V499.12C141.576 499.12 141.795 499.041 141.954 498.882C142.122 498.733 142.206 498.532 142.206 498.28V498.196C142.197 498.187 142.192 498.168 142.192 498.14V498.098L142.108 498.126C142.08 498.135 142.019 498.14 141.926 498.14C141.739 498.14 141.576 498.056 141.436 497.888C141.296 497.72 141.226 497.501 141.226 497.23ZM144.302 495.27H145.982C146.057 495.559 146.183 495.807 146.36 496.012C146.771 496.497 147.368 496.74 148.152 496.74C148.778 496.74 149.272 496.572 149.636 496.236C150 495.9 150.182 495.461 150.182 494.92C150.182 494.351 150 493.893 149.636 493.548C149.272 493.203 148.778 493.03 148.152 493.03C147.574 493.03 147.084 493.184 146.682 493.492C146.524 493.613 146.384 493.763 146.262 493.94H144.722L145.142 488.2H151.092V489.74H146.472L146.262 492.26H146.332C146.482 492.111 146.654 491.985 146.85 491.882C147.289 491.621 147.816 491.49 148.432 491.49C149.412 491.49 150.229 491.817 150.882 492.47C151.536 493.123 151.862 493.94 151.862 494.92C151.862 495.881 151.517 496.684 150.826 497.328C150.145 497.963 149.254 498.28 148.152 498.28C146.715 498.28 145.646 497.781 144.946 496.782C144.648 496.343 144.433 495.839 144.302 495.27ZM152.565 496.04V494.5L155.855 488.2H157.605L154.315 494.5H157.535V492.12H157.605H159.145V494.5H160.545V496.04H159.145V498H157.535V496.04H152.565Z" fill="#333333"/>
<path d="M67.42 646.2H69.1C69.1653 646.489 69.2913 646.746 69.478 646.97C69.898 647.483 70.4953 647.74 71.27 647.74C71.914 647.74 72.4227 647.581 72.796 647.264C73.1787 646.937 73.37 646.536 73.37 646.06C73.37 645.519 73.1973 645.094 72.852 644.786C72.516 644.469 72.0353 644.31 71.41 644.31H69.03V642.91L71.97 640.81V640.74H67.91V639.2H74.35V640.726L71.83 642.56L71.13 642.84V642.91L71.354 642.882C71.662 642.854 71.844 642.84 71.9 642.84C72.7773 642.84 73.51 643.143 74.098 643.75C74.686 644.357 74.98 645.127 74.98 646.06C74.98 646.956 74.6347 647.717 73.944 648.342C73.2533 648.967 72.362 649.28 71.27 649.28C69.8233 649.28 68.7547 648.767 68.064 647.74C67.7653 647.301 67.5507 646.788 67.42 646.2ZM76.0366 648.23C76.0366 647.95 76.1252 647.717 76.3026 647.53C76.4892 647.343 76.7179 647.25 76.9886 647.25C77.2966 647.25 77.5392 647.362 77.7166 647.586C77.9032 647.81 77.9966 648.141 77.9966 648.58C77.9966 649.299 77.8239 649.849 77.4786 650.232C77.1426 650.624 76.6852 650.82 76.1066 650.82V650.12C76.3866 650.12 76.6059 650.041 76.7646 649.882C76.9326 649.733 77.0166 649.532 77.0166 649.28V649.196C77.0072 649.187 77.0026 649.168 77.0026 649.14V649.098L76.9186 649.126C76.8906 649.135 76.8299 649.14 76.7366 649.14C76.5499 649.14 76.3866 649.056 76.2466 648.888C76.1066 648.72 76.0366 648.501 76.0366 648.23ZM79.0427 645.78C79.0427 645.332 79.1407 644.865 79.3367 644.38C79.5421 643.885 79.7381 643.498 79.9247 643.218C80.1207 642.929 80.3867 642.569 80.7227 642.14L82.9627 639.2H84.8527L82.7387 641.958L82.1227 642.49V642.56L82.4027 642.462C82.6827 642.387 82.9861 642.35 83.3127 642.35C84.2274 642.35 85.0021 642.681 85.6367 643.344C86.2807 643.997 86.6027 644.809 86.6027 645.78C86.6027 646.769 86.2481 647.6 85.5387 648.272C84.8294 648.944 83.9241 649.28 82.8227 649.28C81.7214 649.28 80.8161 648.944 80.1067 648.272C79.3974 647.6 79.0427 646.769 79.0427 645.78ZM81.2967 644.324C80.9141 644.697 80.7227 645.183 80.7227 645.78C80.7227 646.377 80.9141 646.867 81.2967 647.25C81.6794 647.623 82.1881 647.81 82.8227 647.81C83.4574 647.81 83.9661 647.623 84.3487 647.25C84.7314 646.867 84.9227 646.377 84.9227 645.78C84.9227 645.183 84.7314 644.697 84.3487 644.324C83.9661 643.941 83.4574 643.75 82.8227 643.75C82.1881 643.75 81.6794 643.941 81.2967 644.324ZM87.656 645.78C87.656 645.332 87.754 644.865 87.95 644.38C88.1553 643.885 88.3513 643.498 88.538 643.218C88.734 642.929 89 642.569 89.336 642.14L91.576 639.2H93.466L91.352 641.958L90.736 642.49V642.56L91.016 642.462C91.296 642.387 91.5993 642.35 91.926 642.35C92.8407 642.35 93.6153 642.681 94.25 643.344C94.894 643.997 95.216 644.809 95.216 645.78C95.216 646.769 94.8613 647.6 94.152 648.272C93.4427 648.944 92.5373 649.28 91.436 649.28C90.3347 649.28 89.4293 648.944 88.72 648.272C88.0107 647.6 87.656 646.769 87.656 645.78ZM89.91 644.324C89.5273 644.697 89.336 645.183 89.336 645.78C89.336 646.377 89.5273 646.867 89.91 647.25C90.2927 647.623 90.8013 647.81 91.436 647.81C92.0707 647.81 92.5793 647.623 92.962 647.25C93.3447 646.867 93.536 646.377 93.536 645.78C93.536 645.183 93.3447 644.697 92.962 644.324C92.5793 643.941 92.0707 643.75 91.436 643.75C90.8013 643.75 90.2927 643.941 89.91 644.324Z" fill="#333333"/>
<path opacity="0.63" d="M100 383.001L16 383.001L16 276.001L100 276.001L100 383.001Z" fill="#FDFF9F"/>
<path d="M48.49 327.781C48.49 327.333 48.588 326.866 48.784 326.381C48.9893 325.886 49.1853 325.499 49.372 325.219C49.568 324.929 49.834 324.57 50.17 324.141L52.41 321.201H54.3L52.186 323.959L51.57 324.491V324.561L51.85 324.463C52.13 324.388 52.4333 324.351 52.76 324.351C53.6747 324.351 54.4493 324.682 55.084 325.345C55.728 325.998 56.05 326.81 56.05 327.781C56.05 328.77 55.6953 329.601 54.986 330.273C54.2767 330.945 53.3713 331.281 52.27 331.281C51.1687 331.281 50.2633 330.945 49.554 330.273C48.8447 329.601 48.49 328.77 48.49 327.781ZM50.744 326.325C50.3613 326.698 50.17 327.183 50.17 327.781C50.17 328.378 50.3613 328.868 50.744 329.251C51.1267 329.624 51.6353 329.811 52.27 329.811C52.9047 329.811 53.4133 329.624 53.796 329.251C54.1787 328.868 54.37 328.378 54.37 327.781C54.37 327.183 54.1787 326.698 53.796 326.325C53.4133 325.942 52.9047 325.751 52.27 325.751C51.6353 325.751 51.1267 325.942 50.744 326.325ZM57.1733 330.231C57.1733 329.951 57.2619 329.717 57.4393 329.531C57.6259 329.344 57.8546 329.251 58.1253 329.251C58.4333 329.251 58.6759 329.363 58.8533 329.587C59.0399 329.811 59.1333 330.142 59.1333 330.581C59.1333 331.299 58.9606 331.85 58.6153 332.233C58.2793 332.625 57.8219 332.821 57.2433 332.821V332.121C57.5233 332.121 57.7426 332.041 57.9013 331.883C58.0693 331.733 58.1533 331.533 58.1533 331.281V331.197C58.1439 331.187 58.1393 331.169 58.1393 331.141V331.099L58.0553 331.127C58.0273 331.136 57.9666 331.141 57.8733 331.141C57.6866 331.141 57.5233 331.057 57.3833 330.889C57.2433 330.721 57.1733 330.501 57.1733 330.231ZM61.6495 329.825C60.7628 328.854 60.3195 327.613 60.3195 326.101C60.3195 324.589 60.7628 323.347 61.6495 322.377C62.5361 321.406 63.6095 320.921 64.8695 320.921C66.1295 320.921 67.2028 321.406 68.0895 322.377C68.9761 323.347 69.4195 324.589 69.4195 326.101C69.4195 327.613 68.9761 328.854 68.0895 329.825C67.2028 330.795 66.1295 331.281 64.8695 331.281C63.6095 331.281 62.5361 330.795 61.6495 329.825ZM62.7975 323.413C62.2655 324.047 61.9995 324.943 61.9995 326.101C61.9995 327.258 62.2655 328.154 62.7975 328.789C63.3388 329.423 64.0295 329.741 64.8695 329.741C65.7095 329.741 66.3955 329.423 66.9275 328.789C67.4688 328.154 67.7395 327.258 67.7395 326.101C67.7395 324.943 67.4688 324.047 66.9275 323.413C66.3955 322.778 65.7095 322.461 64.8695 322.461C64.0295 322.461 63.3388 322.778 62.7975 323.413ZM70.2627 329.041V327.501L73.5527 321.201H75.3027L72.0127 327.501H75.2327V325.121H75.3027H76.8427V327.501H78.2427V329.041H76.8427V331.001H75.2327V329.041H70.2627Z" fill="#333333"/>
<path opacity="0.63" d="M100 282L10 282L10 219L100 219L100 282Z" fill="#FDFF9F"/>
<path opacity="0.63" d="M347 249L257 249L257 169L347 169L347 249Z" fill="#FDFF9F"/>
<path d="M59.42 247V245.46L62.766 243.094C63.494 242.571 64.0167 242.086 64.334 241.638C64.6513 241.19 64.81 240.714 64.81 240.21C64.81 239.678 64.6467 239.253 64.32 238.936C63.9933 238.619 63.55 238.46 62.99 238.46C62.2993 238.46 61.7813 238.74 61.436 239.3C61.2867 239.543 61.1747 239.823 61.1 240.14H59.42C59.504 239.543 59.686 239.006 59.966 238.53C60.6287 237.457 61.6367 236.92 62.99 236.92C64.026 236.92 64.866 237.228 65.51 237.844C66.1633 238.451 66.49 239.216 66.49 240.14C66.49 240.943 66.2847 241.666 65.874 242.31C65.4633 242.945 64.8053 243.575 63.9 244.2L62.5 245.18L61.87 245.46V245.53L62.71 245.46H66.49V247H59.42ZM67.6127 246.23C67.6127 245.95 67.7014 245.717 67.8787 245.53C68.0654 245.343 68.2941 245.25 68.5647 245.25C68.8727 245.25 69.1154 245.362 69.2927 245.586C69.4794 245.81 69.5727 246.141 69.5727 246.58C69.5727 247.299 69.4001 247.849 69.0547 248.232C68.7187 248.624 68.2614 248.82 67.6827 248.82V248.12C67.9627 248.12 68.1821 248.041 68.3407 247.882C68.5087 247.733 68.5927 247.532 68.5927 247.28V247.196C68.5834 247.187 68.5787 247.168 68.5787 247.14V247.098L68.4947 247.126C68.4667 247.135 68.4061 247.14 68.3127 247.14C68.1261 247.14 67.9627 247.056 67.8227 246.888C67.6827 246.72 67.6127 246.501 67.6127 246.23ZM70.6889 240.42C70.6889 239.431 71.0436 238.6 71.7529 237.928C72.4622 237.256 73.3676 236.92 74.4689 236.92C75.5702 236.92 76.4756 237.256 77.1849 237.928C77.8942 238.6 78.2489 239.431 78.2489 240.42C78.2489 241.307 77.8802 242.263 77.1429 243.29C77.0682 243.393 76.9656 243.533 76.8349 243.71C76.7042 243.878 76.6156 243.995 76.5689 244.06L74.3289 247H72.4389L74.5529 244.242L75.1689 243.71V243.64C75.1502 243.649 75.0569 243.687 74.8889 243.752C74.6462 243.817 74.3429 243.85 73.9789 243.85C73.0642 243.85 72.2849 243.523 71.6409 242.87C71.0062 242.207 70.6889 241.391 70.6889 240.42ZM72.9429 238.964C72.5602 239.337 72.3689 239.823 72.3689 240.42C72.3689 241.017 72.5602 241.507 72.9429 241.89C73.3256 242.263 73.8342 242.45 74.4689 242.45C75.1036 242.45 75.6122 242.263 75.9949 241.89C76.3776 241.507 76.5689 241.017 76.5689 240.42C76.5689 239.823 76.3776 239.337 75.9949 238.964C75.6122 238.581 75.1036 238.39 74.4689 238.39C73.8342 238.39 73.3256 238.581 72.9429 238.964ZM78.8822 238.74V237.2H85.5322V238.74L81.6122 247H79.8622L83.7122 238.88V238.74H78.8822Z" fill="#333333"/>
<path d="M131.42 134V132.46L134.766 130.094C135.494 129.571 136.017 129.086 136.334 128.638C136.651 128.19 136.81 127.714 136.81 127.21C136.81 126.678 136.647 126.253 136.32 125.936C135.993 125.619 135.55 125.46 134.99 125.46C134.299 125.46 133.781 125.74 133.436 126.3C133.287 126.543 133.175 126.823 133.1 127.14H131.42C131.504 126.543 131.686 126.006 131.966 125.53C132.629 124.457 133.637 123.92 134.99 123.92C136.026 123.92 136.866 124.228 137.51 124.844C138.163 125.451 138.49 126.216 138.49 127.14C138.49 127.943 138.285 128.666 137.874 129.31C137.463 129.945 136.805 130.575 135.9 131.2L134.5 132.18L133.87 132.46V132.53L134.71 132.46H138.49V134H131.42ZM139.193 125.74V124.2H145.843V125.74L141.923 134H140.173L144.023 125.88V125.74H139.193ZM145.287 133.23C145.287 132.95 145.375 132.717 145.553 132.53C145.739 132.343 145.968 132.25 146.239 132.25C146.547 132.25 146.789 132.362 146.967 132.586C147.153 132.81 147.247 133.141 147.247 133.58C147.247 134.299 147.074 134.849 146.729 135.232C146.393 135.624 145.935 135.82 145.357 135.82V135.12C145.637 135.12 145.856 135.041 146.015 134.882C146.183 134.733 146.267 134.532 146.267 134.28V134.196C146.257 134.187 146.253 134.168 146.253 134.14V134.098L146.169 134.126C146.141 134.135 146.08 134.14 145.987 134.14C145.8 134.14 145.637 134.056 145.497 133.888C145.357 133.72 145.287 133.501 145.287 133.23ZM148.363 127.42C148.363 126.431 148.717 125.6 149.427 124.928C150.136 124.256 151.041 123.92 152.143 123.92C153.244 123.92 154.149 124.256 154.859 124.928C155.568 125.6 155.923 126.431 155.923 127.42C155.923 128.307 155.554 129.263 154.817 130.29C154.742 130.393 154.639 130.533 154.509 130.71C154.378 130.878 154.289 130.995 154.243 131.06L152.003 134H150.113L152.227 131.242L152.843 130.71V130.64C152.824 130.649 152.731 130.687 152.563 130.752C152.32 130.817 152.017 130.85 151.653 130.85C150.738 130.85 149.959 130.523 149.315 129.87C148.68 129.207 148.363 128.391 148.363 127.42ZM150.617 125.964C150.234 126.337 150.043 126.823 150.043 127.42C150.043 128.017 150.234 128.507 150.617 128.89C150.999 129.263 151.508 129.45 152.143 129.45C152.777 129.45 153.286 129.263 153.669 128.89C154.051 128.507 154.243 128.017 154.243 127.42C154.243 126.823 154.051 126.337 153.669 125.964C153.286 125.581 152.777 125.39 152.143 125.39C151.508 125.39 150.999 125.581 150.617 125.964ZM156.976 131.27H158.656C158.731 131.559 158.857 131.807 159.034 132.012C159.445 132.497 160.042 132.74 160.826 132.74C161.451 132.74 161.946 132.572 162.31 132.236C162.674 131.9 162.856 131.461 162.856 130.92C162.856 130.351 162.674 129.893 162.31 129.548C161.946 129.203 161.451 129.03 160.826 129.03C160.247 129.03 159.757 129.184 159.356 129.492C159.197 129.613 159.057 129.763 158.936 129.94H157.396L157.816 124.2H163.766V125.74H159.146L158.936 128.26H159.006C159.155 128.111 159.328 127.985 159.524 127.882C159.963 127.621 160.49 127.49 161.106 127.49C162.086 127.49 162.903 127.817 163.556 128.47C164.209 129.123 164.536 129.94 164.536 130.92C164.536 131.881 164.191 132.684 163.5 133.328C162.819 133.963 161.927 134.28 160.826 134.28C159.389 134.28 158.32 133.781 157.62 132.782C157.321 132.343 157.107 131.839 156.976 131.27Z" fill="#333333"/>
<path d="M275.21 211.04V209.5L278.5 203.2H280.25L276.96 209.5H280.18V207.12H280.25H281.79V209.5H283.19V211.04H281.79V213H280.18V211.04H275.21ZM283.749 212.23C283.749 211.95 283.838 211.717 284.015 211.53C284.202 211.343 284.431 211.25 284.701 211.25C285.009 211.25 285.252 211.362 285.429 211.586C285.616 211.81 285.709 212.141 285.709 212.58C285.709 213.299 285.537 213.849 285.191 214.232C284.855 214.624 284.398 214.82 283.819 214.82V214.12C284.099 214.12 284.319 214.041 284.477 213.882C284.645 213.733 284.729 213.532 284.729 213.28V213.196C284.72 213.187 284.715 213.168 284.715 213.14V213.098L284.631 213.126C284.603 213.135 284.543 213.14 284.449 213.14C284.263 213.14 284.099 213.056 283.959 212.888C283.819 212.72 283.749 212.501 283.749 212.23ZM286.616 206.42V204.6L288.436 203.2H289.906V213H288.296V205.16L286.616 206.42ZM291.377 209.78C291.377 209.332 291.475 208.865 291.671 208.38C291.876 207.885 292.072 207.498 292.259 207.218C292.455 206.929 292.721 206.569 293.057 206.14L295.297 203.2H297.187L295.073 205.958L294.457 206.49V206.56L294.737 206.462C295.017 206.387 295.32 206.35 295.647 206.35C296.561 206.35 297.336 206.681 297.971 207.344C298.615 207.997 298.937 208.809 298.937 209.78C298.937 210.769 298.582 211.6 297.873 212.272C297.163 212.944 296.258 213.28 295.157 213.28C294.055 213.28 293.15 212.944 292.441 212.272C291.731 211.6 291.377 210.769 291.377 209.78ZM293.631 208.324C293.248 208.697 293.057 209.183 293.057 209.78C293.057 210.377 293.248 210.867 293.631 211.25C294.013 211.623 294.522 211.81 295.157 211.81C295.791 211.81 296.3 211.623 296.683 211.25C297.065 210.867 297.257 210.377 297.257 209.78C297.257 209.183 297.065 208.697 296.683 208.324C296.3 207.941 295.791 207.75 295.157 207.75C294.522 207.75 294.013 207.941 293.631 208.324Z" fill="#333333"/>
<path d="M225.35 354.42V352.6L227.17 351.2H228.64V361H227.03V353.16L225.35 354.42ZM229.761 352.74V351.2H236.411V352.74L232.491 361H230.741L234.591 352.88V352.74H229.761ZM235.855 360.23C235.855 359.95 235.944 359.717 236.121 359.53C236.308 359.343 236.536 359.25 236.807 359.25C237.115 359.25 237.358 359.362 237.535 359.586C237.722 359.81 237.815 360.141 237.815 360.58C237.815 361.299 237.642 361.849 237.297 362.232C236.961 362.624 236.504 362.82 235.925 362.82V362.12C236.205 362.12 236.424 362.041 236.583 361.882C236.751 361.733 236.835 361.532 236.835 361.28V361.196C236.826 361.187 236.821 361.168 236.821 361.14V361.098L236.737 361.126C236.709 361.135 236.648 361.14 236.555 361.14C236.368 361.14 236.205 361.056 236.065 360.888C235.925 360.72 235.855 360.501 235.855 360.23ZM238.931 358.34C238.931 357.491 239.258 356.814 239.911 356.31C240.191 356.114 240.518 355.965 240.891 355.862V355.778C240.602 355.666 240.345 355.512 240.121 355.316C239.608 354.877 239.351 354.299 239.351 353.58C239.351 352.843 239.664 352.217 240.289 351.704C240.924 351.181 241.778 350.92 242.851 350.92C243.924 350.92 244.774 351.181 245.399 351.704C246.034 352.217 246.351 352.843 246.351 353.58C246.351 354.28 246.094 354.859 245.581 355.316C245.338 355.512 245.082 355.666 244.811 355.778V355.862C245.166 355.955 245.492 356.109 245.791 356.324C246.444 356.828 246.771 357.5 246.771 358.34C246.771 359.152 246.416 359.847 245.707 360.426C245.007 360.995 244.055 361.28 242.851 361.28C241.647 361.28 240.69 360.995 239.981 360.426C239.281 359.847 238.931 359.152 238.931 358.34ZM241.031 353.72C241.031 354.131 241.19 354.467 241.507 354.728C241.824 354.989 242.272 355.12 242.851 355.12C243.43 355.12 243.878 354.989 244.195 354.728C244.512 354.467 244.671 354.131 244.671 353.72C244.671 353.347 244.508 353.034 244.181 352.782C243.864 352.521 243.42 352.39 242.851 352.39C242.282 352.39 241.834 352.521 241.507 352.782C241.19 353.034 241.031 353.347 241.031 353.72ZM241.199 357.066C240.807 357.374 240.611 357.752 240.611 358.2C240.611 358.648 240.807 359.031 241.199 359.348C241.6 359.656 242.151 359.81 242.851 359.81C243.551 359.81 244.097 359.656 244.489 359.348C244.89 359.031 245.091 358.648 245.091 358.2C245.091 357.752 244.89 357.374 244.489 357.066C244.097 356.749 243.551 356.59 242.851 356.59C242.151 356.59 241.6 356.749 241.199 357.066ZM247.746 358.2H249.426C249.492 358.489 249.618 358.746 249.804 358.97C250.224 359.483 250.822 359.74 251.596 359.74C252.24 359.74 252.749 359.581 253.122 359.264C253.505 358.937 253.696 358.536 253.696 358.06C253.696 357.519 253.524 357.094 253.178 356.786C252.842 356.469 252.362 356.31 251.736 356.31H249.356V354.91L252.296 352.81V352.74H248.236V351.2H254.676V352.726L252.156 354.56L251.456 354.84V354.91L251.68 354.882C251.988 354.854 252.17 354.84 252.226 354.84C253.104 354.84 253.836 355.143 254.424 355.75C255.012 356.357 255.306 357.127 255.306 358.06C255.306 358.956 254.961 359.717 254.27 360.342C253.58 360.967 252.688 361.28 251.596 361.28C250.15 361.28 249.081 360.767 248.39 359.74C248.092 359.301 247.877 358.788 247.746 358.2Z" fill="#333333"/>
<path d="M275.14 104.74V103.2H281.79V104.74L277.87 113H276.12L279.97 104.88V104.74H275.14ZM281.234 112.23C281.234 111.95 281.322 111.717 281.5 111.53C281.686 111.343 281.915 111.25 282.186 111.25C282.494 111.25 282.736 111.362 282.914 111.586C283.1 111.81 283.194 112.141 283.194 112.58C283.194 113.299 283.021 113.849 282.676 114.232C282.34 114.624 281.882 114.82 281.304 114.82V114.12C281.584 114.12 281.803 114.041 281.962 113.882C282.13 113.733 282.214 113.532 282.214 113.28V113.196C282.204 113.187 282.2 113.168 282.2 113.14V113.098L282.116 113.126C282.088 113.135 282.027 113.14 281.934 113.14C281.747 113.14 281.584 113.056 281.444 112.888C281.304 112.72 281.234 112.501 281.234 112.23ZM284.1 106.42V104.6L285.92 103.2H287.39V113H285.78V105.16L284.1 106.42ZM288.861 109.78C288.861 109.332 288.959 108.865 289.155 108.38C289.36 107.885 289.556 107.498 289.743 107.218C289.939 106.929 290.205 106.569 290.541 106.14L292.781 103.2H294.671L292.557 105.958L291.941 106.49V106.56L292.221 106.462C292.501 106.387 292.804 106.35 293.131 106.35C294.046 106.35 294.82 106.681 295.455 107.344C296.099 107.997 296.421 108.809 296.421 109.78C296.421 110.769 296.066 111.6 295.357 112.272C294.648 112.944 293.742 113.28 292.641 113.28C291.54 113.28 290.634 112.944 289.925 112.272C289.216 111.6 288.861 110.769 288.861 109.78ZM291.115 108.324C290.732 108.697 290.541 109.183 290.541 109.78C290.541 110.377 290.732 110.867 291.115 111.25C291.498 111.623 292.006 111.81 292.641 111.81C293.276 111.81 293.784 111.623 294.167 111.25C294.55 110.867 294.741 110.377 294.741 109.78C294.741 109.183 294.55 108.697 294.167 108.324C293.784 107.941 293.276 107.75 292.641 107.75C292.006 107.75 291.498 107.941 291.115 108.324Z" fill="#333333"/>
<rect width="30" height="53" transform="matrix(-4.37114e-08 -1 -1 4.37114e-08 53 30.0005)" fill="#5A5A5A"/>
<rect width="16" height="592" transform="matrix(1 0 0 -1 0 614.001)" fill="#5A5A5A"/>
<rect width="16" height="92" transform="matrix(-4.37114e-08 -1 -1 4.37114e-08 108 394.001)" fill="#5A5A5A"/>
<path d="M35.4828 299.308L34.3023 299.324L31.2363 299.308L23.645 299.308L23.645 309.265L35.4828 309.265C38.4996 309.265 40.959 307.021 40.959 304.27C40.959 301.551 38.4996 299.308 35.4828 299.308Z" fill="white" stroke="#5A5A5A" stroke-width="0.5"/>
<path d="M35.4164 300.454L34.4819 300.454L26.9234 300.454L26.9234 308.135L34.4819 308.135L35.4164 308.118C37.7938 308.118 39.7285 306.415 39.7285 304.286C39.7121 302.173 37.7774 300.454 35.4164 300.454Z" fill="white" stroke="#5A5A5A" stroke-width="0.5"/>
<path d="M17.283 311.066L22.546 311.066C23.1527 311.066 23.6445 310.575 23.6445 309.969L23.6445 298.685C23.6445 298.079 23.1527 297.588 22.546 297.588L17.283 297.588C16.6763 297.588 16.1844 298.079 16.1844 298.685L16.1844 309.953C16.1844 310.575 16.6763 311.066 17.283 311.066Z" fill="white" stroke="#5A5A5A" stroke-width="0.5"/>
<path d="M19.907 304.974C20.3168 304.974 20.6283 304.679 20.6283 304.335C20.6447 303.975 20.3168 303.68 19.907 303.68C19.4971 303.68 19.1856 303.975 19.1856 304.319C19.202 304.696 19.5135 304.99 19.907 304.974Z" fill="white" stroke="#5A5A5A" stroke-width="0.5"/>
<path d="M17.6536 341.733L29.9616 341.733C30.8173 341.733 31.5019 341.049 31.5019 340.195L31.5019 321.675C31.5019 320.821 30.8173 320.137 29.9616 320.137L17.6536 320.137C16.7978 320.137 16.1133 320.821 16.1133 321.675L16.1133 340.195C16.1133 341.035 16.7978 341.733 17.6536 341.733Z" fill="white" stroke="#5A5A5A" stroke-width="0.5"/>
<path d="M22.3452 339.81L24.2421 339.81C26.7379 339.81 28.7631 337.787 28.7631 335.294L28.7631 326.576C28.7631 324.083 26.7379 322.06 24.2421 322.06L22.3452 322.06C19.8494 322.06 17.8242 324.083 17.8242 326.576L17.8242 335.294C17.8242 337.787 19.8494 339.81 22.3452 339.81Z" fill="white" stroke="#5A5A5A" stroke-width="0.5"/>
<path d="M20.234 331.89C20.7774 331.89 21.218 331.462 21.218 330.935C21.218 330.408 20.7774 329.981 20.234 329.981C19.6905 329.981 19.25 330.408 19.25 330.935C19.25 331.462 19.6905 331.89 20.234 331.89Z" fill="white" stroke="#5A5A5A" stroke-width="0.5"/>
<path d="M17.5412 348.72L81.5252 348.72C82.3445 348.72 83 349.374 83 350.193L83 375.593C83 376.412 82.3445 377.067 81.5252 377.067L17.5412 377.067C16.7219 377.067 16.0664 376.412 16.0664 375.593L16.0664 350.193C16.0664 349.374 16.7368 348.72 17.5412 348.72Z" fill="white" stroke="#5A5A5A" stroke-width="0.5"/>
<path d="M79.0674 359.449L79.0674 366.353C79.0674 370.356 75.8198 373.585 71.8273 373.585L21.4447 373.585C20.4614 373.585 19.6719 372.796 19.6719 371.814L19.6719 353.958C19.6719 352.976 20.4614 352.187 21.4447 352.187L71.8124 352.187C75.8198 352.202 79.0674 355.446 79.0674 359.449Z" fill="white" stroke="#5A5A5A" stroke-width="0.5"/>
<path d="M25.6458 362.394C25.6458 361.597 24.9722 360.951 24.1413 360.951C23.3103 360.951 22.6367 361.597 22.6367 362.394C22.6367 363.191 23.3103 363.838 24.1413 363.838C24.9722 363.838 25.6458 363.191 25.6458 362.394Z" fill="white" stroke="#5A5A5A" stroke-width="0.5"/>
<path d="M82.5875 301.024L82.5875 279.015L61 279.001L61.014 301.01L82.5875 301.024Z" fill="white" stroke="#5A5A5A" stroke-width="0.5"/>
<path d="M66.2578 290.006C66.2578 286.891 68.7325 284.377 71.7945 284.377C74.8565 284.377 77.3312 286.891 77.3312 290.02C77.3312 293.134 74.8565 295.676 71.7945 295.676C68.7325 295.662 66.2578 293.12 66.2578 290.006Z" stroke="#5A5A5A" stroke-width="0.5"/>
<path d="M71.7929 294.125C70.6744 294.139 69.6677 293.679 68.9407 292.924C68.2137 292.17 67.7663 291.137 67.7523 290.02M71.7789 285.886C70.6744 285.886 69.6677 286.347 68.9267 287.087C68.1997 287.841 67.7383 288.86 67.7383 290.006L71.7789 285.886ZM71.7929 294.125C72.8975 294.125 73.9041 293.665 74.6452 292.924C75.3722 292.17 75.8196 291.137 75.8196 290.006L71.7929 294.125ZM71.7789 285.886C72.9114 285.886 73.9181 286.347 74.6312 287.087L74.6452 287.101C75.3582 287.841 75.8196 288.86 75.8196 289.992L71.7789 285.886Z" stroke="#5A5A5A" stroke-width="0.5"/>
<rect width="8" height="47" transform="matrix(-1 8.74228e-08 8.74228e-08 1 108 347.001)" fill="#5A5A5A"/>
<rect width="8" height="96" transform="matrix(-4.37114e-08 1 1 4.37114e-08 12 271.001)" fill="#5A5A5A"/>
<rect width="8" height="55" transform="matrix(-1 -8.74228e-08 -8.74228e-08 1 257 164)" fill="#5A5A5A"/>
<rect width="8" height="85" transform="matrix(-4.37114e-08 -1 -1 4.37114e-08 334 172)" fill="#5A5A5A"/>
<rect width="16" height="16" transform="matrix(-1 -8.74228e-08 -8.74228e-08 1 292 310)" fill="#5A5A5A"/>
<rect width="16" height="310" transform="matrix(-1 -8.74228e-08 -8.74228e-08 1 292 310)" fill="#5A5A5A"/>
<rect width="16" height="22" transform="matrix(-1 -8.74228e-08 -8.74228e-08 1 292 253)" fill="#5A5A5A"/>
<rect width="8" height="60" transform="matrix(1 0 0 -1 100 316)" fill="#5A5A5A"/>
<rect width="8" height="28" transform="matrix(1 0 0 -1 100 231.001)" fill="#5A5A5A"/>
<rect width="16" height="102" transform="matrix(-4.37114e-08 -1 -1 4.37114e-08 118 219.001)" fill="#5A5A5A"/>
<rect width="16" height="25" transform="matrix(-4.37114e-08 -1 -1 4.37114e-08 174 219)" fill="#5A5A5A"/>
<rect width="16" height="52" transform="matrix(-4.37114e-08 -1 -1 4.37114e-08 257 219)" fill="#5A5A5A"/>
<rect width="16" height="98" transform="matrix(-4.37114e-08 -1 -1 4.37114e-08 350 264)" fill="#5A5A5A"/>
<rect width="16" height="90" transform="matrix(1.19249e-08 -1 -1 -1.19249e-08 292 394)" fill="#5A5A5A"/>
<rect width="16" height="11" transform="matrix(1.19249e-08 -1 -1 -1.19249e-08 113 394)" fill="#5A5A5A"/>
<rect width="16" height="19" transform="matrix(1.19249e-08 -1 -1 -1.19249e-08 168 394)" fill="#5A5A5A"/>
<circle cx="174.5" cy="307.5" r="39.5" fill="#5A5A5A"/>
<path d="M144.45 306.54V304.2L146.79 302.4H148.68V315H146.61V304.92L144.45 306.54ZM152.461 313.488C151.321 312.24 150.751 310.644 150.751 308.7C150.751 306.756 151.321 305.16 152.461 303.912C153.601 302.664 154.981 302.04 156.601 302.04C158.221 302.04 159.601 302.664 160.741 303.912C161.881 305.16 162.451 306.756 162.451 308.7C162.451 310.644 161.881 312.24 160.741 313.488C159.601 314.736 158.221 315.36 156.601 315.36C154.981 315.36 153.601 314.736 152.461 313.488ZM153.937 305.244C153.253 306.06 152.911 307.212 152.911 308.7C152.911 310.188 153.253 311.34 153.937 312.156C154.633 312.972 155.521 313.38 156.601 313.38C157.681 313.38 158.563 312.972 159.247 312.156C159.943 311.34 160.291 310.188 160.291 308.7C160.291 307.212 159.943 306.06 159.247 305.244C158.563 304.428 157.681 304.02 156.601 304.02C155.521 304.02 154.633 304.428 153.937 305.244ZM165.786 313.488C164.646 312.24 164.076 310.644 164.076 308.7C164.076 306.756 164.646 305.16 165.786 303.912C166.926 302.664 168.306 302.04 169.926 302.04C171.546 302.04 172.926 302.664 174.066 303.912C175.206 305.16 175.776 306.756 175.776 308.7C175.776 310.644 175.206 312.24 174.066 313.488C172.926 314.736 171.546 315.36 169.926 315.36C168.306 315.36 166.926 314.736 165.786 313.488ZM167.262 305.244C166.578 306.06 166.236 307.212 166.236 308.7C166.236 310.188 166.578 311.34 167.262 312.156C167.958 312.972 168.846 313.38 169.926 313.38C171.006 313.38 171.888 312.972 172.572 312.156C173.268 311.34 173.616 310.188 173.616 308.7C173.616 307.212 173.268 306.06 172.572 305.244C171.888 304.428 171.006 304.02 169.926 304.02C168.846 304.02 167.958 304.428 167.262 305.244ZM177.31 314.01C177.31 313.65 177.424 313.35 177.652 313.11C177.892 312.87 178.186 312.75 178.534 312.75C178.93 312.75 179.242 312.894 179.47 313.182C179.71 313.47 179.83 313.896 179.83 314.46C179.83 315.384 179.608 316.092 179.164 316.584C178.732 317.088 178.144 317.34 177.4 317.34V316.44C177.76 316.44 178.042 316.338 178.246 316.134C178.462 315.942 178.57 315.684 178.57 315.36V315.252C178.558 315.24 178.552 315.216 178.552 315.18V315.126L178.444 315.162C178.408 315.174 178.33 315.18 178.21 315.18C177.97 315.18 177.76 315.072 177.58 314.856C177.4 314.64 177.31 314.358 177.31 314.01ZM181.175 310.86C181.175 310.284 181.301 309.684 181.553 309.06C181.817 308.424 182.069 307.926 182.309 307.566C182.561 307.194 182.903 306.732 183.335 306.18L186.215 302.4H188.645L185.927 305.946L185.135 306.63V306.72L185.495 306.594C185.855 306.498 186.245 306.45 186.665 306.45C187.841 306.45 188.837 306.876 189.653 307.728C190.481 308.568 190.895 309.612 190.895 310.86C190.895 312.132 190.439 313.2 189.527 314.064C188.615 314.928 187.451 315.36 186.035 315.36C184.619 315.36 183.455 314.928 182.543 314.064C181.631 313.2 181.175 312.132 181.175 310.86ZM184.073 308.988C183.581 309.468 183.335 310.092 183.335 310.86C183.335 311.628 183.581 312.258 184.073 312.75C184.565 313.23 185.219 313.47 186.035 313.47C186.851 313.47 187.505 313.23 187.997 312.75C188.489 312.258 188.735 311.628 188.735 310.86C188.735 310.092 188.489 309.468 187.997 308.988C187.505 308.496 186.851 308.25 186.035 308.25C185.219 308.25 184.565 308.496 184.073 308.988ZM192.339 311.49H194.499C194.595 311.862 194.757 312.18 194.985 312.444C195.513 313.068 196.281 313.38 197.289 313.38C198.093 313.38 198.729 313.164 199.197 312.732C199.665 312.3 199.899 311.736 199.899 311.04C199.899 310.308 199.665 309.72 199.197 309.276C198.729 308.832 198.093 308.61 197.289 308.61C196.545 308.61 195.915 308.808 195.399 309.204C195.195 309.36 195.015 309.552 194.859 309.78H192.879L193.419 302.4H201.069V304.38H195.129L194.859 307.62H194.949C195.141 307.428 195.363 307.266 195.615 307.134C196.179 306.798 196.857 306.63 197.649 306.63C198.909 306.63 199.959 307.05 200.799 307.89C201.639 308.73 202.059 309.78 202.059 311.04C202.059 312.276 201.615 313.308 200.727 314.136C199.851 314.952 198.705 315.36 197.289 315.36C195.441 315.36 194.067 314.718 193.167 313.434C192.783 312.87 192.507 312.222 192.339 311.49Z" fill="white"/>
<rect width="16" height="261" transform="matrix(-1 8.74228e-08 8.74228e-08 1 350 0.000244141)" fill="#5A5A5A"/>
<rect width="30" height="101" transform="matrix(-4.37114e-08 -1 -1 4.37114e-08 214 30)" fill="#5A5A5A"/>
<rect width="30" height="68" transform="matrix(-4.37114e-08 -1 -1 4.37114e-08 350 30)" fill="#5A5A5A"/>
<rect width="30" height="71" transform="matrix(-4.37114e-08 -1 -1 4.37114e-08 191 620)" fill="#5A5A5A"/>
<rect width="30" height="51" transform="matrix(-4.37114e-08 -1 -1 4.37114e-08 51 620)" fill="#5A5A5A"/>
<rect width="30" height="41" transform="matrix(-4.37114e-08 -1 -1 4.37114e-08 290 620)" fill="#5A5A5A"/>
<path d="M121.75 676.75L40.282 676.687L40.2517 672.25L121.75 672.25L121.75 676.75Z" stroke="#5A5A5A" stroke-width="0.5" stroke-miterlimit="10"/>
<rect width="5.00001" height="76" transform="matrix(1 -8.74228e-08 -8.74228e-08 -1 138 674)" fill="#5A5A5A"/>
<rect width="5.00001" height="79" transform="matrix(1 -8.74228e-08 -8.74228e-08 -1 29 677)" fill="#5A5A5A"/>
<rect width="5.00001" height="98" transform="matrix(-1.31134e-07 -1 -1 1.31134e-07 131 677)" fill="#5A5A5A"/>
<rect width="5" height="12" transform="matrix(-1.31134e-07 -1 -1 1.31134e-07 143 677)" fill="#5A5A5A"/>
<path d="M146.75 605.25L86.2738 605.313L86.2513 609.75L146.75 609.75L146.75 605.25Z" stroke="#5A5A5A" stroke-width="0.5" stroke-miterlimit="10"/>
<path d="M146.75 615.25L86.2738 615.313L86.2513 619.75L146.75 619.75L146.75 615.25Z" stroke="#5A5A5A" stroke-width="0.5" stroke-miterlimit="10"/>
<line x1="53.7451" y1="604.57" x2="80.7451" y2="588.57" stroke="#5A5A5A"/>
<path d="M296.75 29.7503L50.3492 29.5986L50.2521 18.2505L296.75 18.2505L296.75 29.7503Z" stroke="#5A5A5A" stroke-width="0.5" stroke-miterlimit="10"/>
<path d="M282.75 619.75L146.305 619.598L146.251 608.25L282.75 608.25L282.75 619.75Z" stroke="#5A5A5A" stroke-width="0.5" stroke-miterlimit="10"/>
<path d="M296.75 11.7503L50.3492 11.5986L50.2521 0.250496L296.75 0.250485L296.75 11.7503Z" stroke="#5A5A5A" stroke-width="0.5" stroke-miterlimit="10"/>
<path d="M282.75 601.75L146.305 601.598L146.251 590.25L282.75 590.25L282.75 601.75Z" stroke="#5A5A5A" stroke-width="0.5" stroke-miterlimit="10"/>
<line y1="-0.5" x2="40.8534" y2="-0.5" transform="matrix(0.367167 -0.930155 -0.930155 -0.367167 104 354)" stroke="#5A5A5A"/>
<line x1="110.751" y1="379.567" x2="143.751" y2="360.567" stroke="#5A5A5A"/>
<line y1="-0.5" x2="38.0789" y2="-0.5" transform="matrix(-0.866623 -0.498964 -0.498964 0.866623 205 380)" stroke="#5A5A5A"/>
<line y1="-0.5" x2="41.6773" y2="-0.5" transform="matrix(0.863779 -0.503871 -0.503871 -0.863779 179 235)" stroke="#5A5A5A"/>
<line x1="239.562" y1="244.76" x2="256.562" y2="213.76" stroke="#5A5A5A"/>
<line x1="305.545" y1="308.208" x2="289.545" y2="273.208" stroke="#5A5A5A"/>
<line x1="145.748" y1="235.432" x2="109.748" y2="214.432" stroke="#5A5A5A"/>
<line x1="120.576" y1="253.265" x2="105.576" y2="229.265" stroke="#5A5A5A"/>
<path d="M35.2973 236.72L34.1168 236.736L31.0507 236.72L23.4595 236.72L23.4595 246.677L35.2973 246.677C38.3141 246.677 40.7734 244.433 40.7734 241.682C40.7734 238.963 38.3141 236.72 35.2973 236.72Z" fill="white" stroke="#5A5A5A" stroke-width="0.5"/>
<path d="M35.2309 237.866L34.2963 237.866L26.7379 237.866L26.7379 245.547L34.2963 245.547L35.2309 245.53C37.6083 245.53 39.543 243.827 39.543 241.698C39.5266 239.586 37.5919 237.866 35.2309 237.866Z" fill="white" stroke="#5A5A5A" stroke-width="0.5"/>
<path d="M17.0974 248.478L22.3605 248.478C22.9671 248.478 23.459 247.987 23.459 247.381L23.459 236.097C23.459 235.491 22.9671 235 22.3605 235L17.0974 235C16.4908 235 15.9989 235.491 15.9989 236.097L15.9989 247.365C15.9989 247.987 16.4908 248.478 17.0974 248.478Z" fill="white" stroke="#5A5A5A" stroke-width="0.5"/>
<path d="M19.7214 242.386C20.1313 242.386 20.4428 242.091 20.4428 241.747C20.4592 241.387 20.1313 241.092 19.7214 241.092C19.3115 241.092 19 241.387 19 241.731C19.0164 242.108 19.3279 242.402 19.7214 242.386Z" fill="white" stroke="#5A5A5A" stroke-width="0.5"/>
<path d="M314.476 223.72L315.657 223.736L318.723 223.72L326.314 223.72L326.314 233.677L314.476 233.677C311.459 233.677 309 231.433 309 228.682C309 225.963 311.459 223.72 314.476 223.72Z" fill="white" stroke="#5A5A5A" stroke-width="0.5"/>
<path d="M314.543 224.866L315.477 224.866L323.036 224.866L323.036 232.547L315.477 232.547L314.543 232.53C312.165 232.53 310.23 230.827 310.23 228.698C310.247 226.586 312.182 224.866 314.543 224.866Z" fill="white" stroke="#5A5A5A" stroke-width="0.5"/>
<path d="M332.676 235.478L327.413 235.478C326.806 235.478 326.314 234.987 326.314 234.381L326.314 223.097C326.314 222.491 326.806 222 327.413 222L332.676 222C333.283 222 333.775 222.491 333.775 223.097L333.775 234.365C333.775 234.987 333.283 235.478 332.676 235.478Z" fill="white" stroke="#5A5A5A" stroke-width="0.5"/>
<path d="M330.052 229.386C329.642 229.386 329.331 229.091 329.331 228.747C329.314 228.387 329.642 228.092 330.052 228.092C330.462 228.092 330.773 228.387 330.773 228.731C330.757 229.108 330.445 229.402 330.052 229.386Z" fill="white" stroke="#5A5A5A" stroke-width="0.5"/>
<path d="M82.5964 257.54L82.5964 269.848C82.5964 270.704 81.9126 271.389 81.0579 271.389L62.5385 271.389C61.6838 271.389 61 270.704 61 269.848L61 257.54C61 256.685 61.6838 256 62.5385 256L81.0579 256C81.8984 256 82.5964 256.685 82.5964 257.54Z" fill="white" stroke="#5A5A5A" stroke-width="0.5"/>
<path d="M80.6739 262.232L80.6739 264.129C80.6739 266.625 78.651 268.65 76.158 268.65L67.4397 268.65C64.9467 268.65 62.9238 266.625 62.9238 264.129L62.9238 262.232C62.9238 259.737 64.9467 257.711 67.4397 257.711L76.158 257.711C78.651 257.711 80.6739 259.737 80.6739 262.232Z" fill="white" stroke="#5A5A5A" stroke-width="0.5"/>
<path d="M72.7526 260.122C72.7526 260.665 72.3253 261.106 71.7982 261.106C71.271 261.106 70.8437 260.665 70.8437 260.122C70.8437 259.578 71.271 259.138 71.7982 259.138C72.3253 259.138 72.7526 259.578 72.7526 260.122Z" fill="white" stroke="#5A5A5A" stroke-width="0.5"/>
<path d="M320.54 205.596L332.848 205.596C333.704 205.596 334.389 204.913 334.389 204.058L334.389 185.539C334.389 184.684 333.704 184 332.848 184L320.54 184C319.685 184 319 184.684 319 185.539L319 204.058C319 204.898 319.685 205.596 320.54 205.596Z" fill="white" stroke="#5A5A5A" stroke-width="0.5"/>
<path d="M325.232 203.673L327.129 203.673C329.625 203.673 331.65 201.651 331.65 199.158L331.65 190.439C331.65 187.946 329.625 185.923 327.129 185.923L325.232 185.923C322.736 185.923 320.711 187.946 320.711 190.439L320.711 199.158C320.711 201.651 322.736 203.673 325.232 203.673Z" fill="white" stroke="#5A5A5A" stroke-width="0.5"/>
<path d="M323.121 195.753C323.664 195.753 324.105 195.326 324.105 194.799C324.105 194.272 323.664 193.844 323.121 193.844C322.577 193.844 322.137 194.272 322.137 194.799C322.137 195.326 322.577 195.753 323.121 195.753Z" fill="white" stroke="#5A5A5A" stroke-width="0.5"/>
<rect width="2" height="11" transform="matrix(-1 8.74228e-08 8.74228e-08 1 255 154)" fill="#5A5A5A"/>
<rect width="2" height="11" transform="matrix(-1 8.74228e-08 8.74228e-08 1 255 137)" fill="#5A5A5A"/>
<rect width="2" height="11" transform="matrix(-1 8.74228e-08 8.74228e-08 1 255 120)" fill="#5A5A5A"/>
<rect width="2" height="11" transform="matrix(-1 8.74228e-08 8.74228e-08 1 255 103)" fill="#5A5A5A"/>
<rect width="2" height="11" transform="matrix(-1 8.74228e-08 8.74228e-08 1 255 86)" fill="#5A5A5A"/>
<rect width="2" height="11" transform="matrix(-1 8.74228e-08 8.74228e-08 1 255 69)" fill="#5A5A5A"/>
<rect width="2" height="11" transform="matrix(-1 8.74228e-08 8.74228e-08 1 255 51)" fill="#5A5A5A"/>
<rect width="2" height="11" transform="matrix(-1 8.74228e-08 8.74228e-08 1 255 33)" fill="#5A5A5A"/>
</svg>
