<svg width="343" height="605" viewBox="0 0 343 605" fill="none" xmlns="http://www.w3.org/2000/svg">
<rect x="82" y="82" width="225" height="507" fill="#FFF8BA"/>
<path d="M307 591L307 519L203 519L203 591L307 591Z" fill="#FFC79F"/>
<path d="M307.497 294L252 294L252 397.871L307.497 397.871L307.497 294Z" fill="#FFC79F"/>
<line x1="342.433" y1="438.25" x2="322.433" y2="472.854" stroke="#5A5A5A"/>
<line x1="261.218" y1="499.45" x2="235.218" y2="512.053" stroke="#5A5A5A"/>
<line y1="-0.5" x2="28.8938" y2="-0.5" transform="matrix(-0.899848 -0.436203 -0.436203 0.899848 288 418.604)" stroke="#5A5A5A"/>
<path d="M197.25 414.25L197.275 447.738L198.75 447.748L198.75 414.25L197.25 414.25Z" stroke="#5A5A5A" stroke-width="0.5" stroke-miterlimit="10"/>
<path d="M197.25 470.25L197.275 503.738L198.75 503.748L198.75 470.25L197.25 470.25Z" stroke="#5A5A5A" stroke-width="0.5" stroke-miterlimit="10"/>
<path d="M195.25 442.25L195.275 475.738L196.75 475.748L196.75 442.25L195.25 442.25Z" stroke="#5A5A5A" stroke-width="0.5" stroke-miterlimit="10"/>
<path d="M285.75 52.2503L102.324 52.4019L102.252 63.7501L285.75 63.7501L285.75 52.2503Z" stroke="#5A5A5A" stroke-width="0.5" stroke-miterlimit="10"/>
<path d="M83.7498 458.75L83.5981 139.379L72.25 139.253L72.25 458.75L83.7498 458.75Z" stroke="#5A5A5A" stroke-width="0.5" stroke-miterlimit="10"/>
<path d="M285.75 70.2503L102.324 70.4019L102.252 81.7501L285.75 81.7501L285.75 70.2503Z" stroke="#5A5A5A" stroke-width="0.5" stroke-miterlimit="10"/>
<path d="M65.7498 458.75L65.5981 139.379L54.25 139.253L54.25 458.75L65.7498 458.75Z" stroke="#5A5A5A" stroke-width="0.5" stroke-miterlimit="10"/>
<path d="M67.1123 575.96L64.0842 576L64.0842 479L67.1511 479L67.1123 575.96Z" stroke="#5A5A5A" stroke-width="0.5" stroke-miterlimit="10"/>
<path d="M64.0844 576L61.095 575.96L61.0562 479L64.0844 479L64.0844 576Z" stroke="#5A5A5A" stroke-width="0.5" stroke-miterlimit="10"/>
<rect x="54" y="52.0001" width="30" height="99" fill="#5A5A5A"/>
<rect x="106" y="52.0001" width="30" height="30" transform="rotate(90 106 52.0001)" fill="#5A5A5A"/>
<rect x="209" y="52.0001" width="30" height="45" transform="rotate(90 209 52.0001)" fill="#5A5A5A"/>
<rect x="323" y="52.0001" width="30" height="50" transform="rotate(90 323 52.0001)" fill="#5A5A5A"/>
<rect x="84" y="605" width="16" height="239" transform="rotate(-90 84 605)" fill="#5A5A5A"/>
<rect x="307" y="53.0001" width="16" height="381" fill="#5A5A5A"/>
<rect x="307" y="472" width="16" height="133" fill="#5A5A5A"/>
<rect x="307" y="511" width="8" height="44" transform="rotate(90 307 511)" fill="#5A5A5A"/>
<rect x="236" y="511" width="8" height="35" transform="rotate(90 236 511)" fill="#5A5A5A"/>
<rect x="263" y="398" width="8" height="68" transform="rotate(90 263 398)" fill="#5A5A5A"/>
<rect x="316" y="286" width="8" height="68" transform="rotate(90 316 286)" fill="#5A5A5A"/>
<rect x="320" y="398" width="8" height="30" transform="rotate(90 320 398)" fill="#5A5A5A"/>
<rect x="203" y="418" width="8" height="20" transform="rotate(-180 203 418)" fill="#5A5A5A"/>
<rect x="254" y="400" width="8.00001" height="114" transform="rotate(-180 254 400)" fill="#5A5A5A"/>
<line y1="-0.5" x2="33.121" y2="-0.5" transform="matrix(-0.483077 -0.875578 -0.875578 0.483077 82 515)" stroke="#5A5A5A"/>
<path d="M0.250192 563.75L0.313171 478.284L4.74999 478.252L4.75 563.75L0.250192 563.75Z" stroke="#5A5A5A" stroke-width="0.5" stroke-miterlimit="10"/>
<path d="M54.2503 572.75L54.3131 513.273L58.75 513.251L58.75 572.75L54.2503 572.75Z" stroke="#5A5A5A" stroke-width="0.5" stroke-miterlimit="10"/>
<path d="M64.2503 572.75L64.3131 513.273L68.75 513.251L68.75 572.75L64.2503 572.75Z" stroke="#5A5A5A" stroke-width="0.5" stroke-miterlimit="10"/>
<rect width="5" height="74" transform="matrix(-4.37114e-08 1 1 4.37114e-08 0 562)" fill="#5A5A5A"/>
<rect width="5" height="74" transform="matrix(-4.37114e-08 1 1 4.37114e-08 0 461)" fill="#5A5A5A"/>
<rect width="5" height="88" transform="matrix(1 0 0 -1 0 549)" fill="#5A5A5A"/>
<rect width="5" height="19" transform="matrix(1 0 0 -1 0 564)" fill="#5A5A5A"/>
<line y1="-0.5" x2="33.121" y2="-0.5" transform="matrix(0.875578 -0.483077 -0.483077 -0.875578 134 82)" stroke="#5A5A5A"/>
<path d="M85.25 0.250188L170.716 0.313171L170.748 4.74999L85.25 4.75L85.25 0.250188Z" stroke="#5A5A5A" stroke-width="0.5" stroke-miterlimit="10"/>
<path d="M76.25 54.2503L135.727 54.3131L135.749 58.75L76.25 58.75L76.25 54.2503Z" stroke="#5A5A5A" stroke-width="0.5" stroke-miterlimit="10"/>
<path d="M76.25 64.2503L135.727 64.3131L135.749 68.75L76.25 68.75L76.25 64.2503Z" stroke="#5A5A5A" stroke-width="0.5" stroke-miterlimit="10"/>
<rect width="5" height="74" transform="matrix(-1 -8.74228e-08 -8.74228e-08 1 87 0)" fill="#5A5A5A"/>
<rect width="5" height="74" transform="matrix(-1 -8.74228e-08 -8.74228e-08 1 188 0)" fill="#5A5A5A"/>
<rect width="5" height="19" transform="matrix(-4.37114e-08 1 1 4.37114e-08 169 0)" fill="#5A5A5A"/>
<rect width="5" height="19" transform="matrix(-4.37114e-08 1 1 4.37114e-08 85 0)" fill="#5A5A5A"/>
<rect x="203" y="591" width="8.00001" height="92" transform="rotate(-180 203 591)" fill="#5A5A5A"/>
<rect x="54" y="205" width="30" height="138" fill="#5A5A5A"/>
<rect x="54" y="406" width="30" height="80" fill="#5A5A5A"/>
<rect x="54" y="544" width="30" height="61" fill="#5A5A5A"/>
<rect x="246" y="82" width="2" height="6" fill="#5A5A5A"/>
<rect x="246" y="93" width="2" height="11" fill="#5A5A5A"/>
<rect x="246" y="110" width="2" height="11" fill="#5A5A5A"/>
<rect x="246" y="127" width="2" height="11" fill="#5A5A5A"/>
<rect x="246" y="144" width="2" height="11" fill="#5A5A5A"/>
<rect x="246" y="161" width="2" height="11" fill="#5A5A5A"/>
<rect x="246" y="178" width="2" height="11" fill="#5A5A5A"/>
<rect x="246" y="195" width="2" height="11" fill="#5A5A5A"/>
<rect x="246" y="212" width="2" height="11" fill="#5A5A5A"/>
<rect x="246" y="229" width="2" height="11" fill="#5A5A5A"/>
<rect x="246" y="246" width="2" height="11" fill="#5A5A5A"/>
<rect x="246" y="263" width="2" height="11" fill="#5A5A5A"/>
<rect x="246" y="280" width="2" height="6" fill="#5A5A5A"/>
<path d="M306.995 244.137L282 244.137L282 219.812L306.995 219.812L306.995 244.137Z" fill="white" stroke="#5A5A5A" stroke-width="0.5"/>
<path d="M284.027 243.211L303.48 243.211C304.217 243.211 304.61 242.818 304.61 242.049L304.61 221.901C304.61 221.116 304.233 220.739 303.48 220.739L284.027 220.739C283.273 220.723 282.896 221.116 282.896 221.885L282.896 242.033C282.88 242.818 283.273 243.211 284.027 243.211Z" fill="white" stroke="#5A5A5A" stroke-width="0.5"/>
<path d="M285.816 236.709C285.831 234.919 287.244 233.459 288.987 233.459C290.746 233.459 292.159 234.919 292.159 236.709C292.159 238.515 290.746 239.96 288.987 239.96C287.229 239.96 285.816 238.515 285.816 236.709Z" stroke="#5A5A5A" stroke-width="0.5"/>
<path d="M285.846 227.083C285.862 225.293 287.275 223.833 289.017 223.833C290.776 223.833 292.189 225.293 292.189 227.083C292.189 228.889 290.776 230.334 289.017 230.334C287.259 230.35 285.83 228.889 285.846 227.083Z" stroke="#5A5A5A" stroke-width="0.5"/>
<path d="M294.859 227.083C294.859 225.277 296.273 223.833 298.031 223.833C299.789 223.833 301.203 225.293 301.203 227.083C301.187 228.874 299.774 230.334 298.031 230.334C296.288 230.334 294.859 228.874 294.859 227.083Z" stroke="#5A5A5A" stroke-width="0.5"/>
<path d="M294.859 236.709C294.859 234.903 296.273 233.459 298.031 233.459C299.789 233.459 301.203 234.919 301.203 236.709C301.187 238.499 299.774 239.96 298.031 239.96C296.288 239.96 294.859 238.499 294.859 236.709Z" stroke="#5A5A5A" stroke-width="0.5"/>
<path d="M275.699 286.089L275.699 262L252 262L252 286.104L275.699 286.089Z" fill="white" stroke="#5A5A5A" stroke-width="0.5"/>
<path d="M273.896 279.482L273.896 266.166C273.896 265.423 273.532 265.06 272.775 265.06L255.167 265.06C254.44 265.06 254.061 265.423 254.046 266.15L254.061 279.482C254.046 280.21 254.425 280.573 255.167 280.573L272.775 280.573C273.517 280.603 273.896 280.225 273.896 279.482Z" fill="white" stroke="#5A5A5A" stroke-width="0.5"/>
<path d="M263.971 284.24C263.047 284.225 262.304 283.528 262.304 282.649L262.956 275.665L262.971 275.65C262.971 275.12 263.41 274.696 263.971 274.696C264.532 274.696 264.971 275.12 264.986 275.665L265.638 282.649C265.638 283.513 264.895 284.225 263.971 284.24Z" stroke="#5A5A5A" stroke-width="0.5"/>
<mask id="path-72-inside-1_33_6111" fill="white">
<path fill-rule="evenodd" clip-rule="evenodd" d="M262.592 283.558L262.955 279.755C262.971 279.225 263.41 278.785 263.986 278.801C264.547 278.801 264.971 279.225 264.986 279.755L265.35 283.558"/>
</mask>
<path fill-rule="evenodd" clip-rule="evenodd" d="M262.592 283.558L262.955 279.755C262.971 279.225 263.41 278.785 263.986 278.801C264.547 278.801 264.971 279.225 264.986 279.755L265.35 283.558" fill="white"/>
<path d="M262.955 279.755L263.455 279.769L263.455 279.786L263.453 279.803L262.955 279.755ZM263.986 278.801L263.986 279.301L263.973 279.3L263.986 278.801ZM264.986 279.755L264.488 279.803L264.487 279.786L264.486 279.769L264.986 279.755ZM262.094 283.51L262.458 279.707L263.453 279.803L263.09 283.605L262.094 283.51ZM262.456 279.741C262.479 278.936 263.147 278.278 263.999 278.301L263.973 279.3C263.673 279.292 263.463 279.514 263.455 279.769L262.456 279.741ZM263.986 278.301C264.815 278.301 265.463 278.938 265.486 279.741L264.486 279.769C264.479 279.511 264.278 279.301 263.986 279.301L263.986 278.301ZM265.484 279.707L265.847 283.51L264.852 283.605L264.488 279.803L265.484 279.707Z" fill="#5A5A5A" mask="url(#path-72-inside-1_33_6111)"/>
<path d="M285.759 313.298L285.742 312.117L285.759 309.051V301.46H275.801V313.298C275.801 316.315 278.045 318.774 280.796 318.774C283.515 318.774 285.759 316.315 285.759 313.298Z" fill="white" stroke="#5A5A5A" stroke-width="0.5"/>
<path d="M284.612 313.232V312.298V304.739H276.931V312.298L276.948 313.232C276.948 315.61 278.651 317.544 280.78 317.544C282.893 317.528 284.612 315.593 284.612 313.232Z" fill="white" stroke="#5A5A5A" stroke-width="0.5"/>
<path d="M274 295.099V300.362C274 300.968 274.491 301.46 275.097 301.46H286.381C286.987 301.46 287.478 300.968 287.478 300.362V295.099C287.478 294.492 286.987 294 286.381 294H275.114C274.491 294 274 294.492 274 295.099Z" fill="white" stroke="#5A5A5A" stroke-width="0.5"/>
<path d="M280.092 297.722C280.092 298.132 280.387 298.443 280.731 298.443C281.091 298.46 281.386 298.132 281.386 297.722C281.386 297.312 281.091 297.001 280.747 297.001C280.371 297.017 280.076 297.329 280.092 297.722Z" fill="white" stroke="#5A5A5A" stroke-width="0.5"/>
<path d="M305.848 356.596L293.54 356.596C292.684 356.596 292 355.913 292 355.058L292 336.539C292 335.684 292.684 335 293.54 335L305.848 335C306.704 335 307.389 335.684 307.389 336.539L307.389 355.058C307.389 355.898 306.704 356.596 305.848 356.596Z" fill="white" stroke="#5A5A5A" stroke-width="0.5"/>
<path d="M301.156 354.673L299.259 354.673C296.764 354.673 294.738 352.65 294.738 350.157L294.738 341.439C294.738 338.946 296.764 336.923 299.259 336.923L301.156 336.923C303.652 336.923 305.677 338.946 305.677 341.439L305.677 350.157C305.677 352.65 303.652 354.673 301.156 354.673Z" fill="white" stroke="#5A5A5A" stroke-width="0.5"/>
<path d="M303.267 346.753C302.724 346.753 302.283 346.326 302.283 345.799C302.283 345.272 302.724 344.844 303.267 344.844C303.81 344.844 304.251 345.272 304.251 345.799C304.251 346.326 303.81 346.753 303.267 346.753Z" fill="white" stroke="#5A5A5A" stroke-width="0.5"/>
<path d="M286.759 569.476L286.742 570.657L286.759 573.723V581.314H276.801V569.476C276.801 566.459 279.045 564 281.796 564C284.515 564 286.759 566.459 286.759 569.476Z" fill="white" stroke="#5A5A5A" stroke-width="0.5"/>
<path d="M285.612 569.542V570.476V578.035H277.931V570.476L277.948 569.542C277.948 567.164 279.651 565.23 281.78 565.23C283.893 565.246 285.612 567.181 285.612 569.542Z" fill="white" stroke="#5A5A5A" stroke-width="0.5"/>
<path d="M275 587.676V582.412C275 581.806 275.491 581.314 276.097 581.314H287.381C287.987 581.314 288.478 581.806 288.478 582.412V587.676C288.478 588.282 287.987 588.774 287.381 588.774H276.114C275.491 588.774 275 588.282 275 587.676Z" fill="white" stroke="#5A5A5A" stroke-width="0.5"/>
<path d="M281.092 585.052C281.092 584.642 281.387 584.331 281.731 584.331C282.091 584.314 282.386 584.642 282.386 585.052C282.386 585.462 282.091 585.774 281.747 585.774C281.371 585.757 281.076 585.446 281.092 585.052Z" fill="white" stroke="#5A5A5A" stroke-width="0.5"/>
<path d="M244.333 587.305L244.333 574.997C244.333 574.141 245.017 573.457 245.872 573.457L264.391 573.457C265.246 573.457 265.93 574.141 265.93 574.997L265.93 587.305C265.93 588.161 265.246 588.845 264.391 588.845L245.872 588.845C245.031 588.845 244.333 588.161 244.333 587.305Z" fill="white" stroke="#5A5A5A" stroke-width="0.5"/>
<path d="M246.256 582.613L246.256 580.716C246.256 578.22 248.279 576.195 250.772 576.195L259.49 576.195C261.983 576.195 264.006 578.22 264.006 580.716L264.006 582.613C264.006 585.109 261.983 587.134 259.49 587.134L250.772 587.134C248.279 587.134 246.256 585.109 246.256 582.613Z" fill="white" stroke="#5A5A5A" stroke-width="0.5"/>
<path d="M254.177 584.724C254.177 584.18 254.604 583.74 255.131 583.74C255.658 583.74 256.085 584.18 256.085 584.724C256.085 585.267 255.658 585.708 255.131 585.708C254.604 585.708 254.177 585.267 254.177 584.724Z" fill="white" stroke="#5A5A5A" stroke-width="0.5"/>
<path d="M229.635 587.506L229.635 527.386C229.635 526.616 229.02 526 228.251 526L204.384 526C203.615 526 202.999 526.616 202.999 527.386L202.999 587.506C202.999 588.276 203.615 588.892 204.384 588.892L228.251 588.892C229.02 588.892 229.635 588.262 229.635 587.506Z" fill="white" stroke="#5A5A5A" stroke-width="0.5"/>
<path d="M219.554 529.696L213.066 529.696C209.305 529.696 206.271 532.747 206.271 536.499L206.271 583.839C206.271 584.763 207.012 585.505 207.935 585.505L224.713 585.505C225.636 585.505 226.377 584.763 226.377 583.839L226.377 536.513C226.363 532.747 223.315 529.696 219.554 529.696Z" fill="white" stroke="#5A5A5A" stroke-width="0.5"/>
<path d="M216.786 579.892C217.535 579.892 218.142 580.525 218.142 581.306C218.142 582.086 217.535 582.719 216.786 582.719C216.037 582.719 215.429 582.086 215.429 581.306C215.429 580.525 216.037 579.892 216.786 579.892Z" fill="white" stroke="#5A5A5A" stroke-width="0.5"/>
<path d="M285 519L307.01 519L307.024 540.587L285.014 540.573L285 519Z" fill="white" stroke="#5A5A5A" stroke-width="0.5"/>
<path d="M296.019 535.33C299.133 535.33 301.647 532.856 301.647 529.794C301.647 526.732 299.133 524.257 296.005 524.257C292.89 524.257 290.349 526.732 290.349 529.794C290.363 532.856 292.904 535.33 296.019 535.33Z" stroke="#5A5A5A" stroke-width="0.5"/>
<path d="M291.899 529.794C291.885 530.912 292.346 531.919 293.1 532.646C293.854 533.373 294.887 533.82 296.005 533.834M300.139 529.808C300.139 530.912 299.678 531.919 298.938 532.66C298.183 533.387 297.164 533.848 296.019 533.848L300.139 529.808ZM291.899 529.794C291.899 528.689 292.36 527.683 293.1 526.942C293.854 526.214 294.887 525.767 296.019 525.767L291.899 529.794ZM300.139 529.808C300.139 528.675 299.678 527.669 298.938 526.955L298.924 526.942C298.183 526.228 297.164 525.767 296.033 525.767L300.139 529.808Z" stroke="#5A5A5A" stroke-width="0.5"/>
<circle cx="161.5" cy="218.5" r="39.5" fill="#5A5A5A"/>
<path d="M138.72 222.58C138.72 221.488 139.14 220.618 139.98 219.97C140.34 219.718 140.76 219.526 141.24 219.394V219.286C140.868 219.142 140.538 218.944 140.25 218.692C139.59 218.128 139.26 217.384 139.26 216.46C139.26 215.512 139.662 214.708 140.466 214.048C141.282 213.376 142.38 213.04 143.76 213.04C145.14 213.04 146.232 213.376 147.036 214.048C147.852 214.708 148.26 215.512 148.26 216.46C148.26 217.36 147.93 218.104 147.27 218.692C146.958 218.944 146.628 219.142 146.28 219.286V219.394C146.736 219.514 147.156 219.712 147.54 219.988C148.38 220.636 148.8 221.5 148.8 222.58C148.8 223.624 148.344 224.518 147.432 225.262C146.532 225.994 145.308 226.36 143.76 226.36C142.212 226.36 140.982 225.994 140.07 225.262C139.17 224.518 138.72 223.624 138.72 222.58ZM141.42 216.64C141.42 217.168 141.624 217.6 142.032 217.936C142.44 218.272 143.016 218.44 143.76 218.44C144.504 218.44 145.08 218.272 145.488 217.936C145.896 217.6 146.1 217.168 146.1 216.64C146.1 216.16 145.89 215.758 145.47 215.434C145.062 215.098 144.492 214.93 143.76 214.93C143.028 214.93 142.452 215.098 142.032 215.434C141.624 215.758 141.42 216.16 141.42 216.64ZM141.636 220.942C141.132 221.338 140.88 221.824 140.88 222.4C140.88 222.976 141.132 223.468 141.636 223.876C142.152 224.272 142.86 224.47 143.76 224.47C144.66 224.47 145.362 224.272 145.866 223.876C146.382 223.468 146.64 222.976 146.64 222.4C146.64 221.824 146.382 221.338 145.866 220.942C145.362 220.534 144.66 220.33 143.76 220.33C142.86 220.33 142.152 220.534 141.636 220.942ZM149.694 215.38V213.4H158.244V215.38L153.204 226H150.954L155.904 215.56V215.38H149.694ZM157.529 225.01C157.529 224.65 157.643 224.35 157.871 224.11C158.111 223.87 158.405 223.75 158.753 223.75C159.149 223.75 159.461 223.894 159.689 224.182C159.929 224.47 160.049 224.896 160.049 225.46C160.049 226.384 159.827 227.092 159.383 227.584C158.951 228.088 158.363 228.34 157.619 228.34V227.44C157.979 227.44 158.261 227.338 158.465 227.134C158.681 226.942 158.789 226.684 158.789 226.36V226.252C158.777 226.24 158.771 226.216 158.771 226.18V226.126L158.663 226.162C158.627 226.174 158.549 226.18 158.429 226.18C158.189 226.18 157.979 226.072 157.799 225.856C157.619 225.64 157.529 225.358 157.529 225.01ZM161.304 226V224.02L165.606 220.978C166.542 220.306 167.214 219.682 167.622 219.106C168.03 218.53 168.234 217.918 168.234 217.27C168.234 216.586 168.024 216.04 167.604 215.632C167.184 215.224 166.614 215.02 165.894 215.02C165.006 215.02 164.34 215.38 163.896 216.1C163.704 216.412 163.56 216.772 163.464 217.18H161.304C161.412 216.412 161.646 215.722 162.006 215.11C162.858 213.73 164.154 213.04 165.894 213.04C167.226 213.04 168.306 213.436 169.134 214.228C169.974 215.008 170.394 215.992 170.394 217.18C170.394 218.212 170.13 219.142 169.602 219.97C169.074 220.786 168.228 221.596 167.064 222.4L165.264 223.66L164.454 224.02V224.11L165.534 224.02H170.394V226H161.304ZM171.747 221.86C171.747 221.284 171.873 220.684 172.125 220.06C172.389 219.424 172.641 218.926 172.881 218.566C173.133 218.194 173.475 217.732 173.907 217.18L176.787 213.4H179.217L176.499 216.946L175.707 217.63V217.72L176.067 217.594C176.427 217.498 176.817 217.45 177.237 217.45C178.413 217.45 179.409 217.876 180.225 218.728C181.053 219.568 181.467 220.612 181.467 221.86C181.467 223.132 181.011 224.2 180.099 225.064C179.187 225.928 178.023 226.36 176.607 226.36C175.191 226.36 174.027 225.928 173.115 225.064C172.203 224.2 171.747 223.132 171.747 221.86ZM174.645 219.988C174.153 220.468 173.907 221.092 173.907 221.86C173.907 222.628 174.153 223.258 174.645 223.75C175.137 224.23 175.791 224.47 176.607 224.47C177.423 224.47 178.077 224.23 178.569 223.75C179.061 223.258 179.307 222.628 179.307 221.86C179.307 221.092 179.061 220.468 178.569 219.988C178.077 219.496 177.423 219.25 176.607 219.25C175.791 219.25 175.137 219.496 174.645 219.988Z" fill="white"/>
<path d="M136.56 370.27H138.24C138.315 370.559 138.441 370.807 138.618 371.012C139.029 371.497 139.626 371.74 140.41 371.74C141.035 371.74 141.53 371.572 141.894 371.236C142.258 370.9 142.44 370.461 142.44 369.92C142.44 369.351 142.258 368.893 141.894 368.548C141.53 368.203 141.035 368.03 140.41 368.03C139.831 368.03 139.341 368.184 138.94 368.492C138.781 368.613 138.641 368.763 138.52 368.94H136.98L137.4 363.2H143.35V364.74H138.73L138.52 367.26H138.59C138.739 367.111 138.912 366.985 139.108 366.882C139.547 366.621 140.074 366.49 140.69 366.49C141.67 366.49 142.487 366.817 143.14 367.47C143.793 368.123 144.12 368.94 144.12 369.92C144.12 370.881 143.775 371.684 143.084 372.328C142.403 372.963 141.511 373.28 140.41 373.28C138.973 373.28 137.904 372.781 137.204 371.782C136.905 371.343 136.691 370.839 136.56 370.27ZM144.329 364.74V363.2H150.979V364.74L147.059 373H145.309L149.159 364.88V364.74H144.329ZM150.423 372.23C150.423 371.95 150.512 371.717 150.689 371.53C150.876 371.343 151.105 371.25 151.375 371.25C151.683 371.25 151.926 371.362 152.103 371.586C152.29 371.81 152.383 372.141 152.383 372.58C152.383 373.299 152.211 373.849 151.865 374.232C151.529 374.624 151.072 374.82 150.493 374.82V374.12C150.773 374.12 150.993 374.041 151.151 373.882C151.319 373.733 151.403 373.532 151.403 373.28V373.196C151.394 373.187 151.389 373.168 151.389 373.14V373.098L151.305 373.126C151.277 373.135 151.217 373.14 151.123 373.14C150.937 373.14 150.773 373.056 150.633 372.888C150.493 372.72 150.423 372.501 150.423 372.23ZM153.499 370.34C153.499 369.491 153.826 368.814 154.479 368.31C154.759 368.114 155.086 367.965 155.459 367.862V367.778C155.17 367.666 154.913 367.512 154.689 367.316C154.176 366.877 153.919 366.299 153.919 365.58C153.919 364.843 154.232 364.217 154.857 363.704C155.492 363.181 156.346 362.92 157.419 362.92C158.493 362.92 159.342 363.181 159.967 363.704C160.602 364.217 160.919 364.843 160.919 365.58C160.919 366.28 160.663 366.859 160.149 367.316C159.907 367.512 159.65 367.666 159.379 367.778V367.862C159.734 367.955 160.061 368.109 160.359 368.324C161.013 368.828 161.339 369.5 161.339 370.34C161.339 371.152 160.985 371.847 160.275 372.426C159.575 372.995 158.623 373.28 157.419 373.28C156.215 373.28 155.259 372.995 154.549 372.426C153.849 371.847 153.499 371.152 153.499 370.34ZM155.599 365.72C155.599 366.131 155.758 366.467 156.075 366.728C156.393 366.989 156.841 367.12 157.419 367.12C157.998 367.12 158.446 366.989 158.763 366.728C159.081 366.467 159.239 366.131 159.239 365.72C159.239 365.347 159.076 365.034 158.749 364.782C158.432 364.521 157.989 364.39 157.419 364.39C156.85 364.39 156.402 364.521 156.075 364.782C155.758 365.034 155.599 365.347 155.599 365.72ZM155.767 369.066C155.375 369.374 155.179 369.752 155.179 370.2C155.179 370.648 155.375 371.031 155.767 371.348C156.169 371.656 156.719 371.81 157.419 371.81C158.119 371.81 158.665 371.656 159.057 371.348C159.459 371.031 159.659 370.648 159.659 370.2C159.659 369.752 159.459 369.374 159.057 369.066C158.665 368.749 158.119 368.59 157.419 368.59C156.719 368.59 156.169 368.749 155.767 369.066ZM162.105 371.04V369.5L165.395 363.2H167.145L163.855 369.5H167.075V367.12H167.145H168.685V369.5H170.085V371.04H168.685V373H167.075V371.04H162.105Z" fill="#333333"/>
<path d="M16.42 522.2H18.1C18.1653 522.489 18.2913 522.746 18.478 522.97C18.898 523.483 19.4953 523.74 20.27 523.74C20.914 523.74 21.4227 523.581 21.796 523.264C22.1787 522.937 22.37 522.536 22.37 522.06C22.37 521.519 22.1973 521.094 21.852 520.786C21.516 520.469 21.0353 520.31 20.41 520.31H18.03V518.91L20.97 516.81V516.74H16.91V515.2H23.35V516.726L20.83 518.56L20.13 518.84V518.91L20.354 518.882C20.662 518.854 20.844 518.84 20.9 518.84C21.7773 518.84 22.51 519.143 23.098 519.75C23.686 520.357 23.98 521.127 23.98 522.06C23.98 522.956 23.6347 523.717 22.944 524.342C22.2533 524.967 21.362 525.28 20.27 525.28C18.8233 525.28 17.7547 524.767 17.064 523.74C16.7653 523.301 16.5507 522.788 16.42 522.2ZM25.0366 524.23C25.0366 523.95 25.1252 523.717 25.3026 523.53C25.4892 523.343 25.7179 523.25 25.9886 523.25C26.2966 523.25 26.5392 523.362 26.7166 523.586C26.9032 523.81 26.9966 524.141 26.9966 524.58C26.9966 525.299 26.8239 525.849 26.4786 526.232C26.1426 526.624 25.6852 526.82 25.1066 526.82V526.12C25.3866 526.12 25.6059 526.041 25.7646 525.882C25.9326 525.733 26.0166 525.532 26.0166 525.28V525.196C26.0072 525.187 26.0026 525.168 26.0026 525.14V525.098L25.9186 525.126C25.8906 525.135 25.8299 525.14 25.7366 525.14C25.5499 525.14 25.3866 525.056 25.2466 524.888C25.1066 524.72 25.0366 524.501 25.0366 524.23ZM28.0427 521.78C28.0427 521.332 28.1407 520.865 28.3367 520.38C28.5421 519.885 28.7381 519.498 28.9247 519.218C29.1207 518.929 29.3867 518.569 29.7227 518.14L31.9627 515.2H33.8527L31.7387 517.958L31.1227 518.49V518.56L31.4027 518.462C31.6827 518.387 31.9861 518.35 32.3127 518.35C33.2274 518.35 34.0021 518.681 34.6367 519.344C35.2807 519.997 35.6027 520.809 35.6027 521.78C35.6027 522.769 35.2481 523.6 34.5387 524.272C33.8294 524.944 32.9241 525.28 31.8227 525.28C30.7214 525.28 29.8161 524.944 29.1067 524.272C28.3974 523.6 28.0427 522.769 28.0427 521.78ZM30.2967 520.324C29.9141 520.697 29.7227 521.183 29.7227 521.78C29.7227 522.377 29.9141 522.867 30.2967 523.25C30.6794 523.623 31.1881 523.81 31.8227 523.81C32.4574 523.81 32.9661 523.623 33.3487 523.25C33.7314 522.867 33.9227 522.377 33.9227 521.78C33.9227 521.183 33.7314 520.697 33.3487 520.324C32.9661 519.941 32.4574 519.75 31.8227 519.75C31.1881 519.75 30.6794 519.941 30.2967 520.324ZM36.656 521.78C36.656 521.332 36.754 520.865 36.95 520.38C37.1553 519.885 37.3513 519.498 37.538 519.218C37.734 518.929 38 518.569 38.336 518.14L40.576 515.2H42.466L40.352 517.958L39.736 518.49V518.56L40.016 518.462C40.296 518.387 40.5993 518.35 40.926 518.35C41.8407 518.35 42.6153 518.681 43.25 519.344C43.894 519.997 44.216 520.809 44.216 521.78C44.216 522.769 43.8613 523.6 43.152 524.272C42.4427 524.944 41.5373 525.28 40.436 525.28C39.3347 525.28 38.4293 524.944 37.72 524.272C37.0107 523.6 36.656 522.769 36.656 521.78ZM38.91 520.324C38.5273 520.697 38.336 521.183 38.336 521.78C38.336 522.377 38.5273 522.867 38.91 523.25C39.2927 523.623 39.8013 523.81 40.436 523.81C41.0707 523.81 41.5793 523.623 41.962 523.25C42.3447 522.867 42.536 522.377 42.536 521.78C42.536 521.183 42.3447 520.697 41.962 520.324C41.5793 519.941 41.0707 519.75 40.436 519.75C39.8013 519.75 39.2927 519.941 38.91 520.324Z" fill="#333333"/>
<path d="M262.21 362.04V360.5L265.5 354.2H267.25L263.96 360.5H267.18V358.12H267.25H268.79V360.5H270.19V362.04H268.79V364H267.18V362.04H262.21ZM270.749 363.23C270.749 362.95 270.838 362.717 271.015 362.53C271.202 362.343 271.431 362.25 271.701 362.25C272.009 362.25 272.252 362.362 272.429 362.586C272.616 362.81 272.709 363.141 272.709 363.58C272.709 364.299 272.537 364.849 272.191 365.232C271.855 365.624 271.398 365.82 270.819 365.82V365.12C271.099 365.12 271.319 365.041 271.477 364.882C271.645 364.733 271.729 364.532 271.729 364.28V364.196C271.72 364.187 271.715 364.168 271.715 364.14V364.098L271.631 364.126C271.603 364.135 271.543 364.14 271.449 364.14C271.263 364.14 271.099 364.056 270.959 363.888C270.819 363.72 270.749 363.501 270.749 363.23ZM273.756 360.78C273.756 360.332 273.854 359.865 274.05 359.38C274.255 358.885 274.451 358.498 274.638 358.218C274.834 357.929 275.1 357.569 275.436 357.14L277.676 354.2H279.566L277.452 356.958L276.836 357.49V357.56L277.116 357.462C277.396 357.387 277.699 357.35 278.026 357.35C278.94 357.35 279.715 357.681 280.35 358.344C280.994 358.997 281.316 359.809 281.316 360.78C281.316 361.769 280.961 362.6 280.252 363.272C279.542 363.944 278.637 364.28 277.536 364.28C276.434 364.28 275.529 363.944 274.82 363.272C274.11 362.6 273.756 361.769 273.756 360.78ZM276.01 359.324C275.627 359.697 275.436 360.183 275.436 360.78C275.436 361.377 275.627 361.867 276.01 362.25C276.392 362.623 276.901 362.81 277.536 362.81C278.17 362.81 278.679 362.623 279.062 362.25C279.444 361.867 279.636 361.377 279.636 360.78C279.636 360.183 279.444 359.697 279.062 359.324C278.679 358.941 278.17 358.75 277.536 358.75C276.901 358.75 276.392 358.941 276.01 359.324ZM282.369 360.78C282.369 360.332 282.467 359.865 282.663 359.38C282.868 358.885 283.064 358.498 283.251 358.218C283.447 357.929 283.713 357.569 284.049 357.14L286.289 354.2H288.179L286.065 356.958L285.449 357.49V357.56L285.729 357.462C286.009 357.387 286.312 357.35 286.639 357.35C287.554 357.35 288.328 357.681 288.963 358.344C289.607 358.997 289.929 359.809 289.929 360.78C289.929 361.769 289.574 362.6 288.865 363.272C288.156 363.944 287.25 364.28 286.149 364.28C285.048 364.28 284.142 363.944 283.433 363.272C282.724 362.6 282.369 361.769 282.369 360.78ZM284.623 359.324C284.24 359.697 284.049 360.183 284.049 360.78C284.049 361.377 284.24 361.867 284.623 362.25C285.006 362.623 285.514 362.81 286.149 362.81C286.784 362.81 287.292 362.623 287.675 362.25C288.058 361.867 288.249 361.377 288.249 360.78C288.249 360.183 288.058 359.697 287.675 359.324C287.292 358.941 286.784 358.75 286.149 358.75C285.514 358.75 285.006 358.941 284.623 359.324Z" fill="#333333"/>
<path d="M262.56 193.42C262.56 192.431 262.915 191.6 263.624 190.928C264.333 190.256 265.239 189.92 266.34 189.92C267.441 189.92 268.347 190.256 269.056 190.928C269.765 191.6 270.12 192.431 270.12 193.42C270.12 194.307 269.751 195.263 269.014 196.29C268.939 196.393 268.837 196.533 268.706 196.71C268.575 196.878 268.487 196.995 268.44 197.06L266.2 200H264.31L266.424 197.242L267.04 196.71V196.64C267.021 196.649 266.928 196.687 266.76 196.752C266.517 196.817 266.214 196.85 265.85 196.85C264.935 196.85 264.156 196.523 263.512 195.87C262.877 195.207 262.56 194.391 262.56 193.42ZM264.814 191.964C264.431 192.337 264.24 192.823 264.24 193.42C264.24 194.017 264.431 194.507 264.814 194.89C265.197 195.263 265.705 195.45 266.34 195.45C266.975 195.45 267.483 195.263 267.866 194.89C268.249 194.507 268.44 194.017 268.44 193.42C268.44 192.823 268.249 192.337 267.866 191.964C267.483 191.581 266.975 191.39 266.34 191.39C265.705 191.39 265.197 191.581 264.814 191.964ZM271.173 199.23C271.173 198.95 271.262 198.717 271.439 198.53C271.626 198.343 271.855 198.25 272.125 198.25C272.433 198.25 272.676 198.362 272.853 198.586C273.04 198.81 273.133 199.141 273.133 199.58C273.133 200.299 272.961 200.849 272.615 201.232C272.279 201.624 271.822 201.82 271.243 201.82V201.12C271.523 201.12 271.743 201.041 271.901 200.882C272.069 200.733 272.153 200.532 272.153 200.28V200.196C272.144 200.187 272.139 200.168 272.139 200.14V200.098L272.055 200.126C272.027 200.135 271.967 200.14 271.873 200.14C271.687 200.14 271.523 200.056 271.383 199.888C271.243 199.72 271.173 199.501 271.173 199.23ZM274.179 196.78C274.179 196.332 274.277 195.865 274.473 195.38C274.679 194.885 274.875 194.498 275.061 194.218C275.257 193.929 275.523 193.569 275.859 193.14L278.099 190.2H279.989L277.875 192.958L277.259 193.49V193.56L277.539 193.462C277.819 193.387 278.123 193.35 278.449 193.35C279.364 193.35 280.139 193.681 280.773 194.344C281.417 194.997 281.739 195.809 281.739 196.78C281.739 197.769 281.385 198.6 280.675 199.272C279.966 199.944 279.061 200.28 277.959 200.28C276.858 200.28 275.953 199.944 275.243 199.272C274.534 198.6 274.179 197.769 274.179 196.78ZM276.433 195.324C276.051 195.697 275.859 196.183 275.859 196.78C275.859 197.377 276.051 197.867 276.433 198.25C276.816 198.623 277.325 198.81 277.959 198.81C278.594 198.81 279.103 198.623 279.485 198.25C279.868 197.867 280.059 197.377 280.059 196.78C280.059 196.183 279.868 195.697 279.485 195.324C279.103 194.941 278.594 194.75 277.959 194.75C277.325 194.75 276.816 194.941 276.433 195.324ZM282.863 197.34C282.863 196.491 283.189 195.814 283.843 195.31C284.123 195.114 284.449 194.965 284.823 194.862V194.778C284.533 194.666 284.277 194.512 284.053 194.316C283.539 193.877 283.283 193.299 283.283 192.58C283.283 191.843 283.595 191.217 284.221 190.704C284.855 190.181 285.709 189.92 286.783 189.92C287.856 189.92 288.705 190.181 289.331 190.704C289.965 191.217 290.283 191.843 290.283 192.58C290.283 193.28 290.026 193.859 289.513 194.316C289.27 194.512 289.013 194.666 288.743 194.778V194.862C289.097 194.955 289.424 195.109 289.723 195.324C290.376 195.828 290.703 196.5 290.703 197.34C290.703 198.152 290.348 198.847 289.639 199.426C288.939 199.995 287.987 200.28 286.783 200.28C285.579 200.28 284.622 199.995 283.913 199.426C283.213 198.847 282.863 198.152 282.863 197.34ZM284.963 192.72C284.963 193.131 285.121 193.467 285.439 193.728C285.756 193.989 286.204 194.12 286.783 194.12C287.361 194.12 287.809 193.989 288.127 193.728C288.444 193.467 288.603 193.131 288.603 192.72C288.603 192.347 288.439 192.034 288.113 191.782C287.795 191.521 287.352 191.39 286.783 191.39C286.213 191.39 285.765 191.521 285.439 191.782C285.121 192.034 284.963 192.347 284.963 192.72ZM285.131 196.066C284.739 196.374 284.543 196.752 284.543 197.2C284.543 197.648 284.739 198.031 285.131 198.348C285.532 198.656 286.083 198.81 286.783 198.81C287.483 198.81 288.029 198.656 288.421 198.348C288.822 198.031 289.023 197.648 289.023 197.2C289.023 196.752 288.822 196.374 288.421 196.066C288.029 195.749 287.483 195.59 286.783 195.59C286.083 195.59 285.532 195.749 285.131 196.066Z" fill="#333333"/>
<path d="M114.42 38.2H116.1C116.165 38.4893 116.291 38.746 116.478 38.97C116.898 39.4833 117.495 39.74 118.27 39.74C118.914 39.74 119.423 39.5813 119.796 39.264C120.179 38.9373 120.37 38.536 120.37 38.06C120.37 37.5187 120.197 37.094 119.852 36.786C119.516 36.4687 119.035 36.31 118.41 36.31H116.03V34.91L118.97 32.81V32.74H114.91V31.2H121.35V32.726L118.83 34.56L118.13 34.84V34.91L118.354 34.882C118.662 34.854 118.844 34.84 118.9 34.84C119.777 34.84 120.51 35.1433 121.098 35.75C121.686 36.3567 121.98 37.1267 121.98 38.06C121.98 38.956 121.635 39.7167 120.944 40.342C120.253 40.9673 119.362 41.28 118.27 41.28C116.823 41.28 115.755 40.7667 115.064 39.74C114.765 39.3013 114.551 38.788 114.42 38.2ZM123.037 40.23C123.037 39.95 123.125 39.7167 123.303 39.53C123.489 39.3433 123.718 39.25 123.989 39.25C124.297 39.25 124.539 39.362 124.717 39.586C124.903 39.81 124.997 40.1413 124.997 40.58C124.997 41.2987 124.824 41.8493 124.479 42.232C124.143 42.624 123.685 42.82 123.107 42.82V42.12C123.387 42.12 123.606 42.0407 123.765 41.882C123.933 41.7327 124.017 41.532 124.017 41.28V41.196C124.007 41.1867 124.003 41.168 124.003 41.14V41.098L123.919 41.126C123.891 41.1353 123.83 41.14 123.737 41.14C123.55 41.14 123.387 41.056 123.247 40.888C123.107 40.72 123.037 40.5007 123.037 40.23ZM126.043 37.78C126.043 37.332 126.141 36.8653 126.337 36.38C126.542 35.8853 126.738 35.498 126.925 35.218C127.121 34.9287 127.387 34.5693 127.723 34.14L129.963 31.2H131.853L129.739 33.958L129.123 34.49V34.56L129.403 34.462C129.683 34.3873 129.986 34.35 130.313 34.35C131.227 34.35 132.002 34.6813 132.637 35.344C133.281 35.9973 133.603 36.8093 133.603 37.78C133.603 38.7693 133.248 39.6 132.539 40.272C131.829 40.944 130.924 41.28 129.823 41.28C128.721 41.28 127.816 40.944 127.107 40.272C126.397 39.6 126.043 38.7693 126.043 37.78ZM128.297 36.324C127.914 36.6973 127.723 37.1827 127.723 37.78C127.723 38.3773 127.914 38.8673 128.297 39.25C128.679 39.6233 129.188 39.81 129.823 39.81C130.457 39.81 130.966 39.6233 131.349 39.25C131.731 38.8673 131.923 38.3773 131.923 37.78C131.923 37.1827 131.731 36.6973 131.349 36.324C130.966 35.9413 130.457 35.75 129.823 35.75C129.188 35.75 128.679 35.9413 128.297 36.324ZM134.656 37.78C134.656 37.332 134.754 36.8653 134.95 36.38C135.155 35.8853 135.351 35.498 135.538 35.218C135.734 34.9287 136 34.5693 136.336 34.14L138.576 31.2H140.466L138.352 33.958L137.736 34.49V34.56L138.016 34.462C138.296 34.3873 138.599 34.35 138.926 34.35C139.841 34.35 140.615 34.6813 141.25 35.344C141.894 35.9973 142.216 36.8093 142.216 37.78C142.216 38.7693 141.861 39.6 141.152 40.272C140.443 40.944 139.537 41.28 138.436 41.28C137.335 41.28 136.429 40.944 135.72 40.272C135.011 39.6 134.656 38.7693 134.656 37.78ZM136.91 36.324C136.527 36.6973 136.336 37.1827 136.336 37.78C136.336 38.3773 136.527 38.8673 136.91 39.25C137.293 39.6233 137.801 39.81 138.436 39.81C139.071 39.81 139.579 39.6233 139.962 39.25C140.345 38.8673 140.536 38.3773 140.536 37.78C140.536 37.1827 140.345 36.6973 139.962 36.324C139.579 35.9413 139.071 35.75 138.436 35.75C137.801 35.75 137.293 35.9413 136.91 36.324Z" fill="#333333"/>
<path d="M260.56 452.42C260.56 451.431 260.915 450.6 261.624 449.928C262.333 449.256 263.239 448.92 264.34 448.92C265.441 448.92 266.347 449.256 267.056 449.928C267.765 450.6 268.12 451.431 268.12 452.42C268.12 453.307 267.751 454.263 267.014 455.29C266.939 455.393 266.837 455.533 266.706 455.71C266.575 455.878 266.487 455.995 266.44 456.06L264.2 459H262.31L264.424 456.242L265.04 455.71V455.64C265.021 455.649 264.928 455.687 264.76 455.752C264.517 455.817 264.214 455.85 263.85 455.85C262.935 455.85 262.156 455.523 261.512 454.87C260.877 454.207 260.56 453.391 260.56 452.42ZM262.814 450.964C262.431 451.337 262.24 451.823 262.24 452.42C262.24 453.017 262.431 453.507 262.814 453.89C263.197 454.263 263.705 454.45 264.34 454.45C264.975 454.45 265.483 454.263 265.866 453.89C266.249 453.507 266.44 453.017 266.44 452.42C266.44 451.823 266.249 451.337 265.866 450.964C265.483 450.581 264.975 450.39 264.34 450.39C263.705 450.39 263.197 450.581 262.814 450.964ZM269.173 458.23C269.173 457.95 269.262 457.717 269.439 457.53C269.626 457.343 269.855 457.25 270.125 457.25C270.433 457.25 270.676 457.362 270.853 457.586C271.04 457.81 271.133 458.141 271.133 458.58C271.133 459.299 270.961 459.849 270.615 460.232C270.279 460.624 269.822 460.82 269.243 460.82V460.12C269.523 460.12 269.743 460.041 269.901 459.882C270.069 459.733 270.153 459.532 270.153 459.28V459.196C270.144 459.187 270.139 459.168 270.139 459.14V459.098L270.055 459.126C270.027 459.135 269.967 459.14 269.873 459.14C269.687 459.14 269.523 459.056 269.383 458.888C269.243 458.72 269.173 458.501 269.173 458.23ZM273.649 457.824C272.763 456.853 272.319 455.612 272.319 454.1C272.319 452.588 272.763 451.347 273.649 450.376C274.536 449.405 275.609 448.92 276.869 448.92C278.129 448.92 279.203 449.405 280.089 450.376C280.976 451.347 281.419 452.588 281.419 454.1C281.419 455.612 280.976 456.853 280.089 457.824C279.203 458.795 278.129 459.28 276.869 459.28C275.609 459.28 274.536 458.795 273.649 457.824ZM274.797 451.412C274.265 452.047 273.999 452.943 273.999 454.1C273.999 455.257 274.265 456.153 274.797 456.788C275.339 457.423 276.029 457.74 276.869 457.74C277.709 457.74 278.395 457.423 278.927 456.788C279.469 456.153 279.739 455.257 279.739 454.1C279.739 452.943 279.469 452.047 278.927 451.412C278.395 450.777 277.709 450.46 276.869 450.46C276.029 450.46 275.339 450.777 274.797 451.412ZM282.543 455.78C282.543 455.332 282.641 454.865 282.837 454.38C283.042 453.885 283.238 453.498 283.425 453.218C283.621 452.929 283.887 452.569 284.223 452.14L286.463 449.2H288.353L286.239 451.958L285.623 452.49V452.56L285.903 452.462C286.183 452.387 286.486 452.35 286.813 452.35C287.727 452.35 288.502 452.681 289.137 453.344C289.781 453.997 290.103 454.809 290.103 455.78C290.103 456.769 289.748 457.6 289.039 458.272C288.329 458.944 287.424 459.28 286.323 459.28C285.221 459.28 284.316 458.944 283.607 458.272C282.897 457.6 282.543 456.769 282.543 455.78ZM284.797 454.324C284.414 454.697 284.223 455.183 284.223 455.78C284.223 456.377 284.414 456.867 284.797 457.25C285.179 457.623 285.688 457.81 286.323 457.81C286.957 457.81 287.466 457.623 287.849 457.25C288.231 456.867 288.423 456.377 288.423 455.78C288.423 455.183 288.231 454.697 287.849 454.324C287.466 453.941 286.957 453.75 286.323 453.75C285.688 453.75 285.179 453.941 284.797 454.324Z" fill="#333333"/>
<path d="M239.49 553.78C239.49 553.332 239.588 552.865 239.784 552.38C239.989 551.885 240.185 551.498 240.372 551.218C240.568 550.929 240.834 550.569 241.17 550.14L243.41 547.2H245.3L243.186 549.958L242.57 550.49V550.56L242.85 550.462C243.13 550.387 243.433 550.35 243.76 550.35C244.675 550.35 245.449 550.681 246.084 551.344C246.728 551.997 247.05 552.809 247.05 553.78C247.05 554.769 246.695 555.6 245.986 556.272C245.277 556.944 244.371 557.28 243.27 557.28C242.169 557.28 241.263 556.944 240.554 556.272C239.845 555.6 239.49 554.769 239.49 553.78ZM241.744 552.324C241.361 552.697 241.17 553.183 241.17 553.78C241.17 554.377 241.361 554.867 241.744 555.25C242.127 555.623 242.635 555.81 243.27 555.81C243.905 555.81 244.413 555.623 244.796 555.25C245.179 554.867 245.37 554.377 245.37 553.78C245.37 553.183 245.179 552.697 244.796 552.324C244.413 551.941 243.905 551.75 243.27 551.75C242.635 551.75 242.127 551.941 241.744 552.324ZM248.173 556.23C248.173 555.95 248.262 555.717 248.439 555.53C248.626 555.343 248.855 555.25 249.125 555.25C249.433 555.25 249.676 555.362 249.853 555.586C250.04 555.81 250.133 556.141 250.133 556.58C250.133 557.299 249.961 557.849 249.615 558.232C249.279 558.624 248.822 558.82 248.243 558.82V558.12C248.523 558.12 248.743 558.041 248.901 557.882C249.069 557.733 249.153 557.532 249.153 557.28V557.196C249.144 557.187 249.139 557.168 249.139 557.14V557.098L249.055 557.126C249.027 557.135 248.967 557.14 248.873 557.14C248.687 557.14 248.523 557.056 248.383 556.888C248.243 556.72 248.173 556.501 248.173 556.23ZM252.649 555.824C251.763 554.853 251.319 553.612 251.319 552.1C251.319 550.588 251.763 549.347 252.649 548.376C253.536 547.405 254.609 546.92 255.869 546.92C257.129 546.92 258.203 547.405 259.089 548.376C259.976 549.347 260.419 550.588 260.419 552.1C260.419 553.612 259.976 554.853 259.089 555.824C258.203 556.795 257.129 557.28 255.869 557.28C254.609 557.28 253.536 556.795 252.649 555.824ZM253.797 549.412C253.265 550.047 252.999 550.943 252.999 552.1C252.999 553.257 253.265 554.153 253.797 554.788C254.339 555.423 255.029 555.74 255.869 555.74C256.709 555.74 257.395 555.423 257.927 554.788C258.469 554.153 258.739 553.257 258.739 552.1C258.739 550.943 258.469 550.047 257.927 549.412C257.395 548.777 256.709 548.46 255.869 548.46C255.029 548.46 254.339 548.777 253.797 549.412ZM261.473 557V555.46L264.819 553.094C265.547 552.571 266.069 552.086 266.387 551.638C266.704 551.19 266.863 550.714 266.863 550.21C266.863 549.678 266.699 549.253 266.373 548.936C266.046 548.619 265.603 548.46 265.043 548.46C264.352 548.46 263.834 548.74 263.489 549.3C263.339 549.543 263.227 549.823 263.153 550.14H261.473C261.557 549.543 261.739 549.006 262.019 548.53C262.681 547.457 263.689 546.92 265.043 546.92C266.079 546.92 266.919 547.228 267.563 547.844C268.216 548.451 268.543 549.216 268.543 550.14C268.543 550.943 268.337 551.666 267.927 552.31C267.516 552.945 266.858 553.575 265.953 554.2L264.553 555.18L263.923 555.46V555.53L264.763 555.46H268.543V557H261.473Z" fill="#333333"/>
</svg>
