<svg width="494" height="557" viewBox="0 0 494 557" fill="none" xmlns="http://www.w3.org/2000/svg">
<path d="M158 82L412 82L412 425L158 425L158 82Z" fill="#E7FFD5"/>
<path d="M10 138L158 138L158 263H10L10 138Z" fill="#E7FFD5"/>
<path d="M212 408L403 408L275 533L212 533L212 408Z" fill="#E7FFD5"/>
<path d="M205 338V270L158 271.079V338H205Z" fill="#FDFF9F"/>
<path d="M272 534V432.364L213 433V534H272Z" fill="#FDFF9F"/>
<path d="M241.719 544L312.879 472.839L271.417 430.863L199.999 502.281L241.719 544Z" fill="#FDFF9F"/>
<path d="M269.896 553.896L333.444 490.349L296.418 452.863L232.64 516.64L269.896 553.896Z" fill="#FDFF9F"/>
<rect x="412" y="52" width="30" height="96" fill="#5A5A5A"/>
<rect x="389" y="82" width="30" height="47" transform="rotate(-90 389 82)" fill="#5A5A5A"/>
<rect x="253" y="82" width="30" height="73" transform="rotate(-90 253 82)" fill="#5A5A5A"/>
<rect x="128" y="82" width="30" height="68" transform="rotate(-90 128 82)" fill="#5A5A5A"/>
<rect x="158" y="120" width="30" height="12" transform="rotate(180 158 120)" fill="#5A5A5A"/>
<rect x="84" y="138" width="30" height="68" transform="rotate(-90 84 138)" fill="#5A5A5A"/>
<rect x="128" y="58" width="30" height="68" fill="#5A5A5A"/>
<rect y="138" width="30" height="30" transform="rotate(-90 0 138)" fill="#5A5A5A"/>
<rect x="412" y="200" width="30" height="111" fill="#5A5A5A"/>
<rect x="200" y="556" width="25" height="88" transform="rotate(-90 200 556)" fill="#5A5A5A"/>
<rect x="412" y="365" width="30" height="38" fill="#5A5A5A"/>
<path d="M493.75 210.75L493.687 129.282L489.25 129.252L489.25 210.75L493.75 210.75Z" stroke="#5A5A5A" stroke-width="0.5" stroke-miterlimit="10"/>
<rect x="494" y="217" width="5" height="74" transform="rotate(90 494 217)" fill="#5A5A5A"/>
<rect x="494" y="118" width="5" height="74" transform="rotate(90 494 118)" fill="#5A5A5A"/>
<rect x="494" y="135" width="5" height="15" transform="rotate(-180 494 135)" fill="#5A5A5A"/>
<rect x="494" y="222" width="5" height="12" transform="rotate(-180 494 222)" fill="#5A5A5A"/>
<path d="M427.25 231.75L427.313 171.274L431.75 171.251L431.75 231.75L427.25 231.75Z" stroke="#5A5A5A" stroke-width="0.5" stroke-miterlimit="10"/>
<path d="M437.25 231.75L437.313 171.274L441.75 171.251L441.75 231.75L437.25 231.75Z" stroke="#5A5A5A" stroke-width="0.5" stroke-miterlimit="10"/>
<line y1="-0.5" x2="31.3847" y2="-0.5" transform="matrix(-0.509802 0.860292 0.860292 0.509802 427 142)" stroke="#5A5A5A"/>
<path d="M261.75 0.250204L180.282 0.313162L180.252 4.74999L261.75 4.75001L261.75 0.250204Z" stroke="#5A5A5A" stroke-width="0.5" stroke-miterlimit="10"/>
<rect x="268" y="6.10352e-05" width="5" height="74" fill="#5A5A5A"/>
<rect x="169" y="6.10352e-05" width="5" height="74" fill="#5A5A5A"/>
<rect x="186" width="5" height="15" transform="rotate(90 186 0)" fill="#5A5A5A"/>
<rect x="273" y="6.10352e-05" width="5" height="12" transform="rotate(90 273 6.10352e-05)" fill="#5A5A5A"/>
<path d="M282.75 66.7497L222.274 66.6869L222.251 62.25L282.75 62.25L282.75 66.7497Z" stroke="#5A5A5A" stroke-width="0.5" stroke-miterlimit="10"/>
<path d="M282.75 56.7497L222.274 56.6869L222.251 52.25L282.75 52.25L282.75 56.7497Z" stroke="#5A5A5A" stroke-width="0.5" stroke-miterlimit="10"/>
<line y1="-0.5" x2="31.3847" y2="-0.5" transform="matrix(0.860292 0.509802 0.509802 -0.860292 193 67)" stroke="#5A5A5A"/>
<rect x="420.871" y="381.917" width="30" height="216.493" transform="rotate(45 420.871 381.917)" fill="#5A5A5A"/>
<rect x="288" y="222" width="16" height="148" transform="rotate(-180 288 222)" fill="#5A5A5A"/>
<rect x="158" y="222" width="16" height="114" transform="rotate(-180 158 222)" fill="#5A5A5A"/>
<rect x="16" y="276" width="16" height="146" transform="rotate(-180 16 276)" fill="#5A5A5A"/>
<rect x="213" y="260" width="16" height="205" transform="rotate(90 213 260)" fill="#5A5A5A"/>
<rect x="282" y="260" width="16" height="24" transform="rotate(90 282 260)" fill="#5A5A5A"/>
<rect x="258" y="260" width="16" height="62" fill="#5A5A5A"/>
<rect x="258" y="365" width="16" height="66" fill="#5A5A5A"/>
<rect x="200" y="425" width="16" height="106" fill="#5A5A5A"/>
<rect x="142" y="440" width="15" height="20" transform="rotate(-90 142 440)" fill="#5A5A5A"/>
<rect x="196" y="440" width="15" height="20" transform="rotate(-90 196 440)" fill="#5A5A5A"/>
<rect x="142" y="256" width="16" height="184" fill="#5A5A5A"/>
<rect x="272" y="256" width="16" height="20" fill="#5A5A5A"/>
<path d="M150 345L150 337L213 337L213 345L150 345Z" fill="#5A5A5A"/>
<path d="M253 433L253 425L274 425L274 433L253 433Z" fill="#5A5A5A"/>
<path d="M205 433L205 425L226 425L226 433L205 433Z" fill="#5A5A5A"/>
<path d="M262.246 424.404L267.903 418.747L329.081 479.925L323.424 485.581L262.246 424.404Z" fill="#5A5A5A"/>
<path d="M213 345L205 345L205 319L213 319L213 345Z" fill="#5A5A5A"/>
<path d="M213 292L205 292L205 266L213 266L213 292Z" fill="#5A5A5A"/>
<path d="M296.25 81.7496L399.708 81.5983L399.749 70.25L296.25 70.25L296.25 81.7496Z" stroke="#5A5A5A" stroke-width="0.5" stroke-miterlimit="10"/>
<path d="M16.25 137.75L119.708 137.598L119.749 126.25L16.25 126.25L16.25 137.75Z" stroke="#5A5A5A" stroke-width="0.5" stroke-miterlimit="10"/>
<path d="M157.749 112.75L157.599 78.2641L146.25 78.2503L146.25 112.75L157.749 112.75Z" stroke="#5A5A5A" stroke-width="0.5" stroke-miterlimit="10"/>
<path d="M441.75 391.75L441.598 283.294L430.25 283.251L430.25 391.75L441.75 391.75Z" stroke="#5A5A5A" stroke-width="0.5" stroke-miterlimit="10"/>
<path d="M296.25 63.7496L399.708 63.5983L399.749 52.25L296.25 52.25L296.25 63.7496Z" stroke="#5A5A5A" stroke-width="0.5" stroke-miterlimit="10"/>
<path d="M16.25 119.75L119.708 119.598L119.749 108.25L16.25 108.25L16.25 119.75Z" stroke="#5A5A5A" stroke-width="0.5" stroke-miterlimit="10"/>
<path d="M139.749 112.75L139.599 78.2641L128.25 78.2503L128.25 112.75L139.749 112.75Z" stroke="#5A5A5A" stroke-width="0.5" stroke-miterlimit="10"/>
<path d="M423.75 391.75L423.598 283.294L412.25 283.251L412.25 391.75L423.75 391.75Z" stroke="#5A5A5A" stroke-width="0.5" stroke-miterlimit="10"/>
<line y1="-0.5" x2="39.9625" y2="-0.5" transform="matrix(0.525493 0.850798 0.850798 -0.525493 156 218)" stroke="#5A5A5A"/>
<line y1="-0.5" x2="31.3847" y2="-0.5" transform="matrix(-0.860292 0.509802 0.509802 0.860292 259 264)" stroke="#5A5A5A"/>
<line y1="-0.5" x2="17.2047" y2="-0.5" transform="matrix(0.813733 0.581238 0.581238 -0.813733 212 263)" stroke="#5A5A5A"/>
<line y1="-0.5" x2="30.0167" y2="-0.5" transform="matrix(0.499722 0.866186 0.866186 -0.499722 211 291)" stroke="#5A5A5A"/>
<line y1="-0.5" x2="25.9422" y2="-0.5" transform="matrix(-0.462566 0.886585 0.886585 0.462566 260 319)" stroke="#5A5A5A"/>
<line y1="-0.5" x2="25.0599" y2="-0.5" transform="matrix(-0.478852 -0.877896 -0.877896 0.478852 260 369)" stroke="#5A5A5A"/>
<line y1="-0.5" x2="37.5899" y2="-0.5" transform="matrix(-0.478852 0.877896 0.877896 0.478852 269 219)" stroke="#5A5A5A"/>
<line y1="-0.5" x2="39.4462" y2="-0.5" transform="matrix(-0.861934 0.50702 0.50702 0.861934 200 437)" stroke="#5A5A5A"/>
<rect width="2" height="11" transform="matrix(1.31134e-07 1 1 -1.31134e-07 274 365)" fill="#5A5A5A"/>
<rect width="2" height="11" transform="matrix(1.31134e-07 1 1 -1.31134e-07 325 365)" fill="#5A5A5A"/>
<rect width="2" height="11" transform="matrix(1.31134e-07 1 1 -1.31134e-07 308 365)" fill="#5A5A5A"/>
<rect width="2" height="11" transform="matrix(1.31134e-07 1 1 -1.31134e-07 291 365)" fill="#5A5A5A"/>
<rect width="2" height="11" transform="matrix(1.31134e-07 1 1 -1.31134e-07 342 365)" fill="#5A5A5A"/>
<rect width="2" height="11" transform="matrix(1.31134e-07 1 1 -1.31134e-07 359 365)" fill="#5A5A5A"/>
<rect width="2" height="11" transform="matrix(1.31134e-07 1 1 -1.31134e-07 376 365)" fill="#5A5A5A"/>
<rect width="2" height="11" transform="matrix(1.31134e-07 1 1 -1.31134e-07 393 365)" fill="#5A5A5A"/>
<path d="M292.201 443.082L309.875 425.408L292.675 408.208L275 425.882L292.201 443.082Z" fill="white" stroke="#5A5A5A" stroke-width="0.5"/>
<path d="M307.788 426.186L294.033 439.941C293.511 440.463 292.956 440.463 292.412 439.919L278.165 425.672C277.61 425.117 277.61 424.584 278.143 424.051L291.898 410.296C292.42 409.752 292.964 409.763 293.508 410.307L307.755 424.554C308.321 425.098 308.321 425.653 307.788 426.186Z" fill="white" stroke="#5A5A5A" stroke-width="0.5"/>
<path d="M301.924 422.854C300.647 421.599 298.615 421.566 297.383 422.798C296.14 424.042 296.173 426.073 297.439 427.339C298.716 428.616 300.737 428.639 301.98 427.395C303.223 426.152 303.201 424.131 301.924 422.854Z" stroke="#5A5A5A" stroke-width="0.5"/>
<path d="M295.098 416.069C293.821 414.814 291.789 414.781 290.557 416.013C289.313 417.256 289.347 419.288 290.613 420.554C291.89 421.831 293.91 421.853 295.154 420.61C296.408 419.378 296.386 417.335 295.098 416.069Z" stroke="#5A5A5A" stroke-width="0.5"/>
<path d="M288.723 422.442C287.446 421.165 285.425 421.143 284.182 422.386C282.938 423.63 282.972 425.662 284.238 426.928C285.515 428.182 287.547 428.216 288.779 426.984C290.011 425.751 289.989 423.708 288.723 422.442Z" stroke="#5A5A5A" stroke-width="0.5"/>
<path d="M295.53 429.249C294.253 427.972 292.232 427.95 290.988 429.193C289.745 430.436 289.779 432.468 291.044 433.734C292.321 434.989 294.353 435.022 295.586 433.79C296.818 432.558 296.795 430.515 295.53 429.249Z" stroke="#5A5A5A" stroke-width="0.5"/>
<path d="M309.372 460.231L326.405 443.198L343.163 459.956L326.119 477L309.372 460.231Z" fill="white" stroke="#5A5A5A" stroke-width="0.5"/>
<path d="M315.317 456.835L324.734 447.419C325.259 446.894 325.773 446.894 326.309 447.43L338.759 459.88C339.274 460.394 339.284 460.919 338.781 461.444L329.343 470.861C328.839 471.386 328.314 471.375 327.789 470.85L315.339 458.399C314.793 457.896 314.793 457.36 315.317 456.835Z" fill="white" stroke="#5A5A5A" stroke-width="0.5"/>
<path d="M318.972 467.218C319.636 467.86 320.654 467.893 321.275 467.271L325.753 461.872L325.753 461.851C326.128 461.476 326.117 460.865 325.721 460.469C325.324 460.072 324.713 460.061 324.317 460.436L318.918 464.914C318.307 465.525 318.329 466.553 318.972 467.218Z" stroke="#5A5A5A" stroke-width="0.5"/>
<mask id="path-85-inside-1_69_1570" fill="white">
<path fill-rule="evenodd" clip-rule="evenodd" d="M320.431 467.71L322.862 464.764C323.226 464.378 323.226 463.757 322.809 463.361C322.412 462.964 321.812 462.964 321.427 463.328L318.48 465.76"/>
</mask>
<path fill-rule="evenodd" clip-rule="evenodd" d="M320.431 467.71L322.862 464.764C323.226 464.378 323.226 463.757 322.809 463.361C322.412 462.964 321.812 462.964 321.427 463.328L318.48 465.76" fill="white"/>
<path d="M322.862 464.764L322.499 464.421L322.487 464.433L322.477 464.446L322.862 464.764ZM322.809 463.361L322.455 463.714L322.464 463.723L322.809 463.361ZM321.427 463.328L321.745 463.714L321.758 463.703L321.77 463.692L321.427 463.328ZM320.816 468.028L323.248 465.082L322.477 464.446L320.045 467.392L320.816 468.028ZM323.226 465.107C323.779 464.522 323.771 463.585 323.153 462.998L322.464 463.723C322.682 463.929 322.674 464.235 322.499 464.421L323.226 465.107ZM323.162 463.007C322.576 462.421 321.667 462.413 321.083 462.965L321.77 463.692C321.957 463.515 322.249 463.508 322.455 463.714L323.162 463.007ZM321.108 462.943L318.162 465.374L318.799 466.146L321.745 463.714L321.108 462.943Z" fill="#5A5A5A" mask="url(#path-85-inside-1_69_1570)"/>
<path d="M216 529.678L216 472.322C216 471.588 216.586 471 217.32 471L240.09 471C240.823 471 241.41 471.588 241.41 472.322L241.41 529.678C241.41 530.412 240.823 531 240.09 531L217.32 531C216.586 531 216 530.399 216 529.678Z" fill="white" stroke="#5A5A5A" stroke-width="0.5"/>
<path d="M225.617 474.526L231.806 474.526C235.395 474.526 238.289 477.437 238.289 481.016L238.289 526.179C238.289 527.061 237.582 527.769 236.702 527.769L220.695 527.769C219.815 527.769 219.108 527.061 219.108 526.179L219.108 481.029C219.121 477.437 222.029 474.526 225.617 474.526Z" fill="white" stroke="#5A5A5A" stroke-width="0.5"/>
<path d="M228.257 522.413C227.542 522.413 226.963 523.017 226.963 523.762C226.963 524.507 227.542 525.111 228.257 525.111C228.972 525.111 229.551 524.507 229.551 523.762C229.551 523.017 228.972 522.413 228.257 522.413Z" fill="white" stroke="#5A5A5A" stroke-width="0.5"/>
<path d="M291.373 484.368L292.204 485.207L294.403 487.344L299.818 492.664L292.84 499.767L284.395 491.472C282.243 489.357 282.061 486.033 283.989 484.071C285.894 482.131 289.221 482.254 291.373 484.368Z" fill="white" stroke="#5A5A5A" stroke-width="0.5"/>
<path d="M290.617 485.232L291.284 485.887L296.676 491.184L291.293 496.663L285.901 491.366L285.246 490.7C283.55 489.034 283.363 486.463 284.855 484.944C286.348 483.448 288.933 483.577 290.617 485.232Z" fill="white" stroke="#5A5A5A" stroke-width="0.5"/>
<path d="M296.116 505.511L292.362 501.822C291.929 501.397 291.922 500.702 292.347 500.27L300.254 492.22C300.679 491.788 301.374 491.782 301.807 492.207L305.562 495.895C305.994 496.321 306.001 497.016 305.576 497.448L297.68 505.486C297.244 505.93 296.549 505.936 296.116 505.511Z" fill="white" stroke="#5A5A5A" stroke-width="0.5"/>
<path d="M298.515 499.326C298.222 499.039 298.207 498.61 298.448 498.365C298.688 498.096 299.129 498.116 299.421 498.403C299.714 498.69 299.729 499.119 299.488 499.364C299.213 499.622 298.784 499.614 298.515 499.326Z" fill="white" stroke="#5A5A5A" stroke-width="0.5"/>
<path d="M273.792 526.911L265.089 518.208C264.484 517.603 264.483 516.635 265.088 516.031L278.183 502.936C278.787 502.331 279.755 502.332 280.36 502.937L289.063 511.64C289.668 512.245 289.669 513.213 289.064 513.817L275.969 526.912C275.375 527.506 274.397 527.516 273.792 526.911Z" fill="white" stroke="#5A5A5A" stroke-width="0.5"/>
<path d="M271.834 522.233L270.493 520.892C268.728 519.127 268.726 516.265 270.489 514.502L276.654 508.337C278.417 506.574 281.279 506.576 283.044 508.341L284.385 509.682C286.15 511.447 286.152 514.309 284.389 516.072L278.224 522.237C276.461 524 273.599 523.998 271.834 522.233Z" fill="white" stroke="#5A5A5A" stroke-width="0.5"/>
<path d="M278.927 518.125C278.543 517.741 278.533 517.127 278.906 516.755C279.279 516.382 279.893 516.391 280.277 516.776C280.661 517.16 280.671 517.773 280.298 518.146C279.925 518.519 279.311 518.51 278.927 518.125Z" fill="white" stroke="#5A5A5A" stroke-width="0.5"/>
<path d="M177.297 300.28L176.117 300.264L173.051 300.28L165.459 300.28L165.459 290.323L177.297 290.323C180.314 290.323 182.773 292.567 182.773 295.318C182.773 298.037 180.314 300.28 177.297 300.28Z" fill="white" stroke="#5A5A5A" stroke-width="0.5"/>
<path d="M177.231 299.134L176.296 299.134L168.738 299.134L168.738 291.453L176.296 291.453L177.231 291.47C179.608 291.47 181.543 293.173 181.543 295.302C181.527 297.414 179.592 299.134 177.231 299.134Z" fill="white" stroke="#5A5A5A" stroke-width="0.5"/>
<path d="M159.097 288.522L164.36 288.522C164.967 288.522 165.459 289.013 165.459 289.619L165.459 300.903C165.459 301.509 164.967 302 164.36 302L159.097 302C158.491 302 157.999 301.509 157.999 300.903L157.999 289.635C157.999 289.013 158.491 288.522 159.097 288.522Z" fill="white" stroke="#5A5A5A" stroke-width="0.5"/>
<path d="M161.721 294.614C162.131 294.614 162.443 294.909 162.443 295.253C162.459 295.613 162.131 295.908 161.721 295.908C161.312 295.908 161 295.613 161 295.269C161.016 294.892 161.328 294.597 161.721 294.614Z" fill="white" stroke="#5A5A5A" stroke-width="0.5"/>
<path d="M172.999 335.46L172.999 323.152C172.999 322.296 173.683 321.611 174.538 321.611L193.057 321.611C193.912 321.611 194.596 322.296 194.596 323.152L194.596 335.46C194.596 336.315 193.912 337 193.057 337L174.538 337C173.697 337 172.999 336.315 172.999 335.46Z" fill="white" stroke="#5A5A5A" stroke-width="0.5"/>
<path d="M174.922 330.768L174.922 328.871C174.922 326.375 176.945 324.35 179.438 324.35L188.156 324.35C190.649 324.35 192.672 326.375 192.672 328.871L192.672 330.768C192.672 333.264 190.649 335.289 188.156 335.289L179.438 335.289C176.945 335.289 174.922 333.264 174.922 330.768Z" fill="white" stroke="#5A5A5A" stroke-width="0.5"/>
<path d="M182.843 332.878C182.843 332.335 183.27 331.894 183.798 331.894C184.325 331.894 184.752 332.335 184.752 332.878C184.752 333.422 184.325 333.862 183.798 333.862C183.27 333.862 182.843 333.422 182.843 332.878Z" fill="white" stroke="#5A5A5A" stroke-width="0.5"/>
<path d="M203.35 159.42V157.6L205.17 156.2H206.64V166H205.03V158.16L203.35 159.42ZM208.181 163.34C208.181 162.491 208.508 161.814 209.161 161.31C209.441 161.114 209.768 160.965 210.141 160.862V160.778C209.852 160.666 209.595 160.512 209.371 160.316C208.858 159.877 208.601 159.299 208.601 158.58C208.601 157.843 208.914 157.217 209.539 156.704C210.174 156.181 211.028 155.92 212.101 155.92C213.174 155.92 214.024 156.181 214.649 156.704C215.284 157.217 215.601 157.843 215.601 158.58C215.601 159.28 215.344 159.859 214.831 160.316C214.588 160.512 214.332 160.666 214.061 160.778V160.862C214.416 160.955 214.742 161.109 215.041 161.324C215.694 161.828 216.021 162.5 216.021 163.34C216.021 164.152 215.666 164.847 214.957 165.426C214.257 165.995 213.305 166.28 212.101 166.28C210.897 166.28 209.94 165.995 209.231 165.426C208.531 164.847 208.181 164.152 208.181 163.34ZM210.281 158.72C210.281 159.131 210.44 159.467 210.757 159.728C211.074 159.989 211.522 160.12 212.101 160.12C212.68 160.12 213.128 159.989 213.445 159.728C213.762 159.467 213.921 159.131 213.921 158.72C213.921 158.347 213.758 158.034 213.431 157.782C213.114 157.521 212.67 157.39 212.101 157.39C211.532 157.39 211.084 157.521 210.757 157.782C210.44 158.034 210.281 158.347 210.281 158.72ZM210.449 162.066C210.057 162.374 209.861 162.752 209.861 163.2C209.861 163.648 210.057 164.031 210.449 164.348C210.85 164.656 211.401 164.81 212.101 164.81C212.801 164.81 213.347 164.656 213.739 164.348C214.14 164.031 214.341 163.648 214.341 163.2C214.341 162.752 214.14 162.374 213.739 162.066C213.347 161.749 212.801 161.59 212.101 161.59C211.401 161.59 210.85 161.749 210.449 162.066ZM217.136 165.23C217.136 164.95 217.225 164.717 217.402 164.53C217.589 164.343 217.818 164.25 218.088 164.25C218.396 164.25 218.639 164.362 218.816 164.586C219.003 164.81 219.096 165.141 219.096 165.58C219.096 166.299 218.924 166.849 218.578 167.232C218.242 167.624 217.785 167.82 217.206 167.82V167.12C217.486 167.12 217.706 167.041 217.864 166.882C218.032 166.733 218.116 166.532 218.116 166.28V166.196C218.107 166.187 218.102 166.168 218.102 166.14V166.098L218.018 166.126C217.99 166.135 217.93 166.14 217.836 166.14C217.65 166.14 217.486 166.056 217.346 165.888C217.206 165.72 217.136 165.501 217.136 165.23ZM220.212 163.27H221.892C221.967 163.559 222.093 163.807 222.27 164.012C222.681 164.497 223.278 164.74 224.062 164.74C224.688 164.74 225.182 164.572 225.546 164.236C225.91 163.9 226.092 163.461 226.092 162.92C226.092 162.351 225.91 161.893 225.546 161.548C225.182 161.203 224.688 161.03 224.062 161.03C223.484 161.03 222.994 161.184 222.592 161.492C222.434 161.613 222.294 161.763 222.172 161.94H220.632L221.052 156.2H227.002V157.74H222.382L222.172 160.26H222.242C222.392 160.111 222.564 159.985 222.76 159.882C223.199 159.621 223.726 159.49 224.342 159.49C225.322 159.49 226.139 159.817 226.792 160.47C227.446 161.123 227.772 161.94 227.772 162.92C227.772 163.881 227.427 164.684 226.736 165.328C226.055 165.963 225.164 166.28 224.062 166.28C222.625 166.28 221.556 165.781 220.856 164.782C220.558 164.343 220.343 163.839 220.212 163.27ZM228.616 159.42V157.6L230.436 156.2H231.906V166H230.296V158.16L228.616 159.42Z" fill="#333333"/>
<path d="M340.42 264.2H342.1C342.165 264.489 342.291 264.746 342.478 264.97C342.898 265.483 343.495 265.74 344.27 265.74C344.914 265.74 345.423 265.581 345.796 265.264C346.179 264.937 346.37 264.536 346.37 264.06C346.37 263.519 346.197 263.094 345.852 262.786C345.516 262.469 345.035 262.31 344.41 262.31H342.03V260.91L344.97 258.81V258.74H340.91V257.2H347.35V258.726L344.83 260.56L344.13 260.84V260.91L344.354 260.882C344.662 260.854 344.844 260.84 344.9 260.84C345.777 260.84 346.51 261.143 347.098 261.75C347.686 262.357 347.98 263.127 347.98 264.06C347.98 264.956 347.635 265.717 346.944 266.342C346.253 266.967 345.362 267.28 344.27 267.28C342.823 267.28 341.755 266.767 341.064 265.74C340.765 265.301 340.551 264.788 340.42 264.2ZM348.827 260.42V258.6L350.647 257.2H352.117V267H350.507V259.16L348.827 260.42ZM353.658 266.23C353.658 265.95 353.746 265.717 353.924 265.53C354.11 265.343 354.339 265.25 354.61 265.25C354.918 265.25 355.16 265.362 355.338 265.586C355.524 265.81 355.618 266.141 355.618 266.58C355.618 267.299 355.445 267.849 355.1 268.232C354.764 268.624 354.306 268.82 353.728 268.82V268.12C354.008 268.12 354.227 268.041 354.386 267.882C354.554 267.733 354.638 267.532 354.638 267.28V267.196C354.628 267.187 354.624 267.168 354.624 267.14V267.098L354.54 267.126C354.512 267.135 354.451 267.14 354.358 267.14C354.171 267.14 354.008 267.056 353.868 266.888C353.728 266.72 353.658 266.501 353.658 266.23ZM356.524 260.42V258.6L358.344 257.2H359.814V267H358.204V259.16L356.524 260.42ZM361.355 264.34C361.355 263.491 361.682 262.814 362.335 262.31C362.615 262.114 362.942 261.965 363.315 261.862V261.778C363.026 261.666 362.769 261.512 362.545 261.316C362.032 260.877 361.775 260.299 361.775 259.58C361.775 258.843 362.088 258.217 362.713 257.704C363.348 257.181 364.202 256.92 365.275 256.92C366.348 256.92 367.198 257.181 367.823 257.704C368.458 258.217 368.775 258.843 368.775 259.58C368.775 260.28 368.518 260.859 368.005 261.316C367.762 261.512 367.506 261.666 367.235 261.778V261.862C367.59 261.955 367.916 262.109 368.215 262.324C368.868 262.828 369.195 263.5 369.195 264.34C369.195 265.152 368.84 265.847 368.131 266.426C367.431 266.995 366.479 267.28 365.275 267.28C364.071 267.28 363.114 266.995 362.405 266.426C361.705 265.847 361.355 265.152 361.355 264.34ZM363.455 259.72C363.455 260.131 363.614 260.467 363.931 260.728C364.248 260.989 364.696 261.12 365.275 261.12C365.854 261.12 366.302 260.989 366.619 260.728C366.936 260.467 367.095 260.131 367.095 259.72C367.095 259.347 366.932 259.034 366.605 258.782C366.288 258.521 365.844 258.39 365.275 258.39C364.706 258.39 364.258 258.521 363.931 258.782C363.614 259.034 363.455 259.347 363.455 259.72ZM363.623 263.066C363.231 263.374 363.035 263.752 363.035 264.2C363.035 264.648 363.231 265.031 363.623 265.348C364.024 265.656 364.575 265.81 365.275 265.81C365.975 265.81 366.521 265.656 366.913 265.348C367.314 265.031 367.515 264.648 367.515 264.2C367.515 263.752 367.314 263.374 366.913 263.066C366.521 262.749 365.975 262.59 365.275 262.59C364.575 262.59 364.024 262.749 363.623 263.066Z" fill="#333333"/>
<path d="M452.42 174.413H454.1C454.165 174.703 454.291 174.959 454.478 175.183C454.898 175.697 455.495 175.953 456.27 175.953C456.914 175.953 457.423 175.795 457.796 175.477C458.179 175.151 458.37 174.749 458.37 174.273C458.37 173.732 458.197 173.307 457.852 172.999C457.516 172.682 457.035 172.523 456.41 172.523H454.03V171.123L456.97 169.023V168.953H452.91V167.413H459.35V168.939L456.83 170.773L456.13 171.053V171.123L456.354 171.095C456.662 171.067 456.844 171.053 456.9 171.053C457.777 171.053 458.51 171.357 459.098 171.963C459.686 172.57 459.98 173.34 459.98 174.273C459.98 175.169 459.635 175.93 458.944 176.555C458.253 177.181 457.362 177.493 456.27 177.493C454.823 177.493 453.755 176.98 453.064 175.953C452.765 175.515 452.551 175.001 452.42 174.413ZM461.037 176.443C461.037 176.163 461.125 175.93 461.303 175.743C461.489 175.557 461.718 175.463 461.989 175.463C462.297 175.463 462.539 175.575 462.717 175.799C462.903 176.023 462.997 176.355 462.997 176.793C462.997 177.512 462.824 178.063 462.479 178.445C462.143 178.837 461.685 179.033 461.107 179.033V178.333C461.387 178.333 461.606 178.254 461.765 178.095C461.933 177.946 462.017 177.745 462.017 177.493V177.409C462.007 177.4 462.003 177.381 462.003 177.353V177.311L461.919 177.339C461.891 177.349 461.83 177.353 461.737 177.353C461.55 177.353 461.387 177.269 461.247 177.101C461.107 176.933 461.037 176.714 461.037 176.443ZM464.043 173.993C464.043 173.545 464.141 173.079 464.337 172.593C464.542 172.099 464.738 171.711 464.925 171.431C465.121 171.142 465.387 170.783 465.723 170.353L467.963 167.413H469.853L467.739 170.171L467.123 170.703V170.773L467.403 170.675C467.683 170.601 467.986 170.563 468.313 170.563C469.227 170.563 470.002 170.895 470.637 171.557C471.281 172.211 471.603 173.023 471.603 173.993C471.603 174.983 471.248 175.813 470.539 176.485C469.829 177.157 468.924 177.493 467.823 177.493C466.721 177.493 465.816 177.157 465.107 176.485C464.397 175.813 464.043 174.983 464.043 173.993ZM466.297 172.537C465.914 172.911 465.723 173.396 465.723 173.993C465.723 174.591 465.914 175.081 466.297 175.463C466.679 175.837 467.188 176.023 467.823 176.023C468.457 176.023 468.966 175.837 469.349 175.463C469.731 175.081 469.923 174.591 469.923 173.993C469.923 173.396 469.731 172.911 469.349 172.537C468.966 172.155 468.457 171.963 467.823 171.963C467.188 171.963 466.679 172.155 466.297 172.537ZM472.656 173.993C472.656 173.545 472.754 173.079 472.95 172.593C473.155 172.099 473.351 171.711 473.538 171.431C473.734 171.142 474 170.783 474.336 170.353L476.576 167.413H478.466L476.352 170.171L475.736 170.703V170.773L476.016 170.675C476.296 170.601 476.599 170.563 476.926 170.563C477.841 170.563 478.615 170.895 479.25 171.557C479.894 172.211 480.216 173.023 480.216 173.993C480.216 174.983 479.861 175.813 479.152 176.485C478.443 177.157 477.537 177.493 476.436 177.493C475.335 177.493 474.429 177.157 473.72 176.485C473.011 175.813 472.656 174.983 472.656 173.993ZM474.91 172.537C474.527 172.911 474.336 173.396 474.336 173.993C474.336 174.591 474.527 175.081 474.91 175.463C475.293 175.837 475.801 176.023 476.436 176.023C477.071 176.023 477.579 175.837 477.962 175.463C478.345 175.081 478.536 174.591 478.536 173.993C478.536 173.396 478.345 172.911 477.962 172.537C477.579 172.155 477.071 171.963 476.436 171.963C475.801 171.963 475.293 172.155 474.91 172.537Z" fill="#333333"/>
<path d="M210.42 26.2H212.1C212.165 26.4893 212.291 26.746 212.478 26.97C212.898 27.4833 213.495 27.74 214.27 27.74C214.914 27.74 215.423 27.5813 215.796 27.264C216.179 26.9373 216.37 26.536 216.37 26.06C216.37 25.5187 216.197 25.094 215.852 24.786C215.516 24.4687 215.035 24.31 214.41 24.31H212.03V22.91L214.97 20.81V20.74H210.91V19.2H217.35V20.726L214.83 22.56L214.13 22.84V22.91L214.354 22.882C214.662 22.854 214.844 22.84 214.9 22.84C215.777 22.84 216.51 23.1433 217.098 23.75C217.686 24.3567 217.98 25.1267 217.98 26.06C217.98 26.956 217.635 27.7167 216.944 28.342C216.253 28.9673 215.362 29.28 214.27 29.28C212.823 29.28 211.755 28.7667 211.064 27.74C210.765 27.3013 210.551 26.788 210.42 26.2ZM219.037 28.23C219.037 27.95 219.125 27.7167 219.303 27.53C219.489 27.3433 219.718 27.25 219.989 27.25C220.297 27.25 220.539 27.362 220.717 27.586C220.903 27.81 220.997 28.1413 220.997 28.58C220.997 29.2987 220.824 29.8493 220.479 30.232C220.143 30.624 219.685 30.82 219.107 30.82V30.12C219.387 30.12 219.606 30.0407 219.765 29.882C219.933 29.7327 220.017 29.532 220.017 29.28V29.196C220.007 29.1867 220.003 29.168 220.003 29.14V29.098L219.919 29.126C219.891 29.1353 219.83 29.14 219.737 29.14C219.55 29.14 219.387 29.056 219.247 28.888C219.107 28.72 219.037 28.5007 219.037 28.23ZM222.043 25.78C222.043 25.332 222.141 24.8653 222.337 24.38C222.542 23.8853 222.738 23.498 222.925 23.218C223.121 22.9287 223.387 22.5693 223.723 22.14L225.963 19.2H227.853L225.739 21.958L225.123 22.49V22.56L225.403 22.462C225.683 22.3873 225.986 22.35 226.313 22.35C227.227 22.35 228.002 22.6813 228.637 23.344C229.281 23.9973 229.603 24.8093 229.603 25.78C229.603 26.7693 229.248 27.6 228.539 28.272C227.829 28.944 226.924 29.28 225.823 29.28C224.721 29.28 223.816 28.944 223.107 28.272C222.397 27.6 222.043 26.7693 222.043 25.78ZM224.297 24.324C223.914 24.6973 223.723 25.1827 223.723 25.78C223.723 26.3773 223.914 26.8673 224.297 27.25C224.679 27.6233 225.188 27.81 225.823 27.81C226.457 27.81 226.966 27.6233 227.349 27.25C227.731 26.8673 227.923 26.3773 227.923 25.78C227.923 25.1827 227.731 24.6973 227.349 24.324C226.966 23.9413 226.457 23.75 225.823 23.75C225.188 23.75 224.679 23.9413 224.297 24.324ZM230.656 25.78C230.656 25.332 230.754 24.8653 230.95 24.38C231.155 23.8853 231.351 23.498 231.538 23.218C231.734 22.9287 232 22.5693 232.336 22.14L234.576 19.2H236.466L234.352 21.958L233.736 22.49V22.56L234.016 22.462C234.296 22.3873 234.599 22.35 234.926 22.35C235.841 22.35 236.615 22.6813 237.25 23.344C237.894 23.9973 238.216 24.8093 238.216 25.78C238.216 26.7693 237.861 27.6 237.152 28.272C236.443 28.944 235.537 29.28 234.436 29.28C233.335 29.28 232.429 28.944 231.72 28.272C231.011 27.6 230.656 26.7693 230.656 25.78ZM232.91 24.324C232.527 24.6973 232.336 25.1827 232.336 25.78C232.336 26.3773 232.527 26.8673 232.91 27.25C233.293 27.6233 233.801 27.81 234.436 27.81C235.071 27.81 235.579 27.6233 235.962 27.25C236.345 26.8673 236.536 26.3773 236.536 25.78C236.536 25.1827 236.345 24.6973 235.962 24.324C235.579 23.9413 235.071 23.75 234.436 23.75C233.801 23.75 233.293 23.9413 232.91 24.324Z" fill="#333333"/>
<path d="M64.35 200.42V198.6L66.17 197.2H67.64V207H66.03V199.16L64.35 200.42ZM69.0411 207V205.46L72.3871 203.094C73.1151 202.571 73.6378 202.086 73.9551 201.638C74.2724 201.19 74.4311 200.714 74.4311 200.21C74.4311 199.678 74.2678 199.253 73.9411 198.936C73.6144 198.619 73.1711 198.46 72.6111 198.46C71.9204 198.46 71.4024 198.74 71.0571 199.3C70.9078 199.543 70.7958 199.823 70.7211 200.14H69.0411C69.1251 199.543 69.3071 199.006 69.5871 198.53C70.2498 197.457 71.2578 196.92 72.6111 196.92C73.6471 196.92 74.4871 197.228 75.1311 197.844C75.7844 198.451 76.1111 199.216 76.1111 200.14C76.1111 200.943 75.9058 201.666 75.4951 202.31C75.0844 202.945 74.4264 203.575 73.5211 204.2L72.1211 205.18L71.4911 205.46V205.53L72.3311 205.46H76.1111V207H69.0411ZM77.2338 206.23C77.2338 205.95 77.3225 205.717 77.4998 205.53C77.6865 205.343 77.9152 205.25 78.1858 205.25C78.4938 205.25 78.7365 205.362 78.9138 205.586C79.1005 205.81 79.1938 206.141 79.1938 206.58C79.1938 207.299 79.0212 207.849 78.6758 208.232C78.3398 208.624 77.8825 208.82 77.3038 208.82V208.12C77.5838 208.12 77.8032 208.041 77.9618 207.882C78.1298 207.733 78.2138 207.532 78.2138 207.28V207.196C78.2045 207.187 78.1998 207.168 78.1998 207.14V207.098L78.1158 207.126C78.0878 207.135 78.0272 207.14 77.9338 207.14C77.7472 207.14 77.5838 207.056 77.4438 206.888C77.3038 206.72 77.2338 206.501 77.2338 206.23ZM80.24 203.78C80.24 203.332 80.338 202.865 80.534 202.38C80.7393 201.885 80.9353 201.498 81.122 201.218C81.318 200.929 81.584 200.569 81.92 200.14L84.16 197.2H86.05L83.936 199.958L83.32 200.49V200.56L83.6 200.462C83.88 200.387 84.1833 200.35 84.51 200.35C85.4247 200.35 86.1993 200.681 86.834 201.344C87.478 201.997 87.8 202.809 87.8 203.78C87.8 204.769 87.4453 205.6 86.736 206.272C86.0267 206.944 85.1213 207.28 84.02 207.28C82.9187 207.28 82.0133 206.944 81.304 206.272C80.5947 205.6 80.24 204.769 80.24 203.78ZM82.494 202.324C82.1113 202.697 81.92 203.183 81.92 203.78C81.92 204.377 82.1113 204.867 82.494 205.25C82.8767 205.623 83.3853 205.81 84.02 205.81C84.6547 205.81 85.1633 205.623 85.546 205.25C85.9287 204.867 86.12 204.377 86.12 203.78C86.12 203.183 85.9287 202.697 85.546 202.324C85.1633 201.941 84.6547 201.75 84.02 201.75C83.3853 201.75 82.8767 201.941 82.494 202.324ZM87.806 198.74V197.2H94.456V198.74L90.536 207H88.786L92.636 198.88V198.74H87.806Z" fill="#333333"/>
<path d="M174.42 314V312.46L177.766 310.094C178.494 309.571 179.017 309.086 179.334 308.638C179.651 308.19 179.81 307.714 179.81 307.21C179.81 306.678 179.647 306.253 179.32 305.936C178.993 305.619 178.55 305.46 177.99 305.46C177.299 305.46 176.781 305.74 176.436 306.3C176.287 306.543 176.175 306.823 176.1 307.14H174.42C174.504 306.543 174.686 306.006 174.966 305.53C175.629 304.457 176.637 303.92 177.99 303.92C179.026 303.92 179.866 304.228 180.51 304.844C181.163 305.451 181.49 306.216 181.49 307.14C181.49 307.943 181.285 308.666 180.874 309.31C180.463 309.945 179.805 310.575 178.9 311.2L177.5 312.18L176.87 312.46V312.53L177.71 312.46H181.49V314H174.42ZM182.613 313.23C182.613 312.95 182.701 312.717 182.879 312.53C183.065 312.343 183.294 312.25 183.565 312.25C183.873 312.25 184.115 312.362 184.293 312.586C184.479 312.81 184.573 313.141 184.573 313.58C184.573 314.299 184.4 314.849 184.055 315.232C183.719 315.624 183.261 315.82 182.683 315.82V315.12C182.963 315.12 183.182 315.041 183.341 314.882C183.509 314.733 183.593 314.532 183.593 314.28V314.196C183.583 314.187 183.579 314.168 183.579 314.14V314.098L183.495 314.126C183.467 314.135 183.406 314.14 183.313 314.14C183.126 314.14 182.963 314.056 182.823 313.888C182.683 313.72 182.613 313.501 182.613 313.23ZM185.339 312.04V310.5L188.629 304.2H190.379L187.089 310.5H190.309V308.12H190.379H191.919V310.5H193.319V312.04H191.919V314H190.309V312.04H185.339ZM195.278 312.824C194.392 311.853 193.948 310.612 193.948 309.1C193.948 307.588 194.392 306.347 195.278 305.376C196.165 304.405 197.238 303.92 198.498 303.92C199.758 303.92 200.832 304.405 201.718 305.376C202.605 306.347 203.048 307.588 203.048 309.1C203.048 310.612 202.605 311.853 201.718 312.824C200.832 313.795 199.758 314.28 198.498 314.28C197.238 314.28 196.165 313.795 195.278 312.824ZM196.426 306.412C195.894 307.047 195.628 307.943 195.628 309.1C195.628 310.257 195.894 311.153 196.426 311.788C196.968 312.423 197.658 312.74 198.498 312.74C199.338 312.74 200.024 312.423 200.556 311.788C201.098 311.153 201.368 310.257 201.368 309.1C201.368 307.943 201.098 307.047 200.556 306.412C200.024 305.777 199.338 305.46 198.498 305.46C197.658 305.46 196.968 305.777 196.426 306.412Z" fill="#333333"/>
<path d="M175.56 388.34C175.56 387.491 175.887 386.814 176.54 386.31C176.82 386.114 177.147 385.965 177.52 385.862V385.778C177.231 385.666 176.974 385.512 176.75 385.316C176.237 384.877 175.98 384.299 175.98 383.58C175.98 382.843 176.293 382.217 176.918 381.704C177.553 381.181 178.407 380.92 179.48 380.92C180.553 380.92 181.403 381.181 182.028 381.704C182.663 382.217 182.98 382.843 182.98 383.58C182.98 384.28 182.723 384.859 182.21 385.316C181.967 385.512 181.711 385.666 181.44 385.778V385.862C181.795 385.955 182.121 386.109 182.42 386.324C183.073 386.828 183.4 387.5 183.4 388.34C183.4 389.152 183.045 389.847 182.336 390.426C181.636 390.995 180.684 391.28 179.48 391.28C178.276 391.28 177.319 390.995 176.61 390.426C175.91 389.847 175.56 389.152 175.56 388.34ZM177.66 383.72C177.66 384.131 177.819 384.467 178.136 384.728C178.453 384.989 178.901 385.12 179.48 385.12C180.059 385.12 180.507 384.989 180.824 384.728C181.141 384.467 181.3 384.131 181.3 383.72C181.3 383.347 181.137 383.034 180.81 382.782C180.493 382.521 180.049 382.39 179.48 382.39C178.911 382.39 178.463 382.521 178.136 382.782C177.819 383.034 177.66 383.347 177.66 383.72ZM177.828 387.066C177.436 387.374 177.24 387.752 177.24 388.2C177.24 388.648 177.436 389.031 177.828 389.348C178.229 389.656 178.78 389.81 179.48 389.81C180.18 389.81 180.726 389.656 181.118 389.348C181.519 389.031 181.72 388.648 181.72 388.2C181.72 387.752 181.519 387.374 181.118 387.066C180.726 386.749 180.18 386.59 179.48 386.59C178.78 386.59 178.229 386.749 177.828 387.066ZM184.515 390.23C184.515 389.95 184.604 389.717 184.781 389.53C184.968 389.343 185.196 389.25 185.467 389.25C185.775 389.25 186.018 389.362 186.195 389.586C186.382 389.81 186.475 390.141 186.475 390.58C186.475 391.299 186.302 391.849 185.957 392.232C185.621 392.624 185.164 392.82 184.585 392.82V392.12C184.865 392.12 185.084 392.041 185.243 391.882C185.411 391.733 185.495 391.532 185.495 391.28V391.196C185.486 391.187 185.481 391.168 185.481 391.14V391.098L185.397 391.126C185.369 391.135 185.308 391.14 185.215 391.14C185.028 391.14 184.865 391.056 184.725 390.888C184.585 390.72 184.515 390.501 184.515 390.23ZM187.591 384.42C187.591 383.431 187.946 382.6 188.655 381.928C189.365 381.256 190.27 380.92 191.371 380.92C192.473 380.92 193.378 381.256 194.087 381.928C194.797 382.6 195.151 383.431 195.151 384.42C195.151 385.307 194.783 386.263 194.045 387.29C193.971 387.393 193.868 387.533 193.737 387.71C193.607 387.878 193.518 387.995 193.471 388.06L191.231 391H189.341L191.455 388.242L192.071 387.71V387.64C192.053 387.649 191.959 387.687 191.791 387.752C191.549 387.817 191.245 387.85 190.881 387.85C189.967 387.85 189.187 387.523 188.543 386.87C187.909 386.207 187.591 385.391 187.591 384.42ZM189.845 382.964C189.463 383.337 189.271 383.823 189.271 384.42C189.271 385.017 189.463 385.507 189.845 385.89C190.228 386.263 190.737 386.45 191.371 386.45C192.006 386.45 192.515 386.263 192.897 385.89C193.28 385.507 193.471 385.017 193.471 384.42C193.471 383.823 193.28 383.337 192.897 382.964C192.515 382.581 192.006 382.39 191.371 382.39C190.737 382.39 190.228 382.581 189.845 382.964ZM197.605 389.824C196.718 388.853 196.275 387.612 196.275 386.1C196.275 384.588 196.718 383.347 197.605 382.376C198.491 381.405 199.565 380.92 200.825 380.92C202.085 380.92 203.158 381.405 204.045 382.376C204.931 383.347 205.375 384.588 205.375 386.1C205.375 387.612 204.931 388.853 204.045 389.824C203.158 390.795 202.085 391.28 200.825 391.28C199.565 391.28 198.491 390.795 197.605 389.824ZM198.753 383.412C198.221 384.047 197.955 384.943 197.955 386.1C197.955 387.257 198.221 388.153 198.753 388.788C199.294 389.423 199.985 389.74 200.825 389.74C201.665 389.74 202.351 389.423 202.883 388.788C203.424 388.153 203.695 387.257 203.695 386.1C203.695 384.943 203.424 384.047 202.883 383.412C202.351 382.777 201.665 382.46 200.825 382.46C199.985 382.46 199.294 382.777 198.753 383.412Z" fill="#333333"/>
<path d="M253.49 466.78C253.49 466.332 253.588 465.865 253.784 465.38C253.989 464.885 254.185 464.498 254.372 464.218C254.568 463.929 254.834 463.569 255.17 463.14L257.41 460.2H259.3L257.186 462.958L256.57 463.49V463.56L256.85 463.462C257.13 463.387 257.433 463.35 257.76 463.35C258.675 463.35 259.449 463.681 260.084 464.344C260.728 464.997 261.05 465.809 261.05 466.78C261.05 467.769 260.695 468.6 259.986 469.272C259.277 469.944 258.371 470.28 257.27 470.28C256.169 470.28 255.263 469.944 254.554 469.272C253.845 468.6 253.49 467.769 253.49 466.78ZM255.744 465.324C255.361 465.697 255.17 466.183 255.17 466.78C255.17 467.377 255.361 467.867 255.744 468.25C256.127 468.623 256.635 468.81 257.27 468.81C257.905 468.81 258.413 468.623 258.796 468.25C259.179 467.867 259.37 467.377 259.37 466.78C259.37 466.183 259.179 465.697 258.796 465.324C258.413 464.941 257.905 464.75 257.27 464.75C256.635 464.75 256.127 464.941 255.744 465.324ZM262.173 469.23C262.173 468.95 262.262 468.717 262.439 468.53C262.626 468.343 262.855 468.25 263.125 468.25C263.433 468.25 263.676 468.362 263.853 468.586C264.04 468.81 264.133 469.141 264.133 469.58C264.133 470.299 263.961 470.849 263.615 471.232C263.279 471.624 262.822 471.82 262.243 471.82V471.12C262.523 471.12 262.743 471.041 262.901 470.882C263.069 470.733 263.153 470.532 263.153 470.28V470.196C263.144 470.187 263.139 470.168 263.139 470.14V470.098L263.055 470.126C263.027 470.135 262.967 470.14 262.873 470.14C262.687 470.14 262.523 470.056 262.383 469.888C262.243 469.72 262.173 469.501 262.173 469.23ZM265.249 467.27H266.929C267.004 467.559 267.13 467.807 267.307 468.012C267.718 468.497 268.315 468.74 269.099 468.74C269.725 468.74 270.219 468.572 270.583 468.236C270.947 467.9 271.129 467.461 271.129 466.92C271.129 466.351 270.947 465.893 270.583 465.548C270.219 465.203 269.725 465.03 269.099 465.03C268.521 465.03 268.031 465.184 267.629 465.492C267.471 465.613 267.331 465.763 267.209 465.94H265.669L266.089 460.2H272.039V461.74H267.419L267.209 464.26H267.279C267.429 464.111 267.601 463.985 267.797 463.882C268.236 463.621 268.763 463.49 269.379 463.49C270.359 463.49 271.176 463.817 271.829 464.47C272.483 465.123 272.809 465.94 272.809 466.92C272.809 467.881 272.464 468.684 271.773 469.328C271.092 469.963 270.201 470.28 269.099 470.28C267.662 470.28 266.593 469.781 265.893 468.782C265.595 468.343 265.38 467.839 265.249 467.27ZM273.863 467.27H275.543C275.617 467.559 275.743 467.807 275.921 468.012C276.331 468.497 276.929 468.74 277.713 468.74C278.338 468.74 278.833 468.572 279.197 468.236C279.561 467.9 279.743 467.461 279.743 466.92C279.743 466.351 279.561 465.893 279.197 465.548C278.833 465.203 278.338 465.03 277.713 465.03C277.134 465.03 276.644 465.184 276.243 465.492C276.084 465.613 275.944 465.763 275.823 465.94H274.283L274.703 460.2H280.653V461.74H276.033L275.823 464.26H275.893C276.042 464.111 276.215 463.985 276.411 463.882C276.849 463.621 277.377 463.49 277.993 463.49C278.973 463.49 279.789 463.817 280.443 464.47C281.096 465.123 281.423 465.94 281.423 466.92C281.423 467.881 281.077 468.684 280.387 469.328C279.705 469.963 278.814 470.28 277.713 470.28C276.275 470.28 275.207 469.781 274.507 468.782C274.208 468.343 273.993 467.839 273.863 467.27Z" fill="#333333"/>
<path d="M324.14 395.74V394.2H330.79V395.74L326.87 404H325.12L328.97 395.88V395.74H324.14ZM330.234 403.23C330.234 402.95 330.322 402.717 330.5 402.53C330.686 402.343 330.915 402.25 331.186 402.25C331.494 402.25 331.736 402.362 331.914 402.586C332.1 402.81 332.194 403.141 332.194 403.58C332.194 404.299 332.021 404.849 331.676 405.232C331.34 405.624 330.882 405.82 330.304 405.82V405.12C330.584 405.12 330.803 405.041 330.962 404.882C331.13 404.733 331.214 404.532 331.214 404.28V404.196C331.204 404.187 331.2 404.168 331.2 404.14V404.098L331.116 404.126C331.088 404.135 331.027 404.14 330.934 404.14C330.747 404.14 330.584 404.056 330.444 403.888C330.304 403.72 330.234 403.501 330.234 403.23ZM332.96 402.04V400.5L336.25 394.2H338L334.71 400.5H337.93V398.12H338H339.54V400.5H340.94V402.04H339.54V404H337.93V402.04H332.96ZM341.359 401.2H343.039C343.105 401.489 343.231 401.746 343.417 401.97C343.837 402.483 344.435 402.74 345.209 402.74C345.853 402.74 346.362 402.581 346.735 402.264C347.118 401.937 347.309 401.536 347.309 401.06C347.309 400.519 347.137 400.094 346.791 399.786C346.455 399.469 345.975 399.31 345.349 399.31H342.969V397.91L345.909 395.81V395.74H341.849V394.2H348.289V395.726L345.769 397.56L345.069 397.84V397.91L345.293 397.882C345.601 397.854 345.783 397.84 345.839 397.84C346.717 397.84 347.449 398.143 348.037 398.75C348.625 399.357 348.919 400.127 348.919 401.06C348.919 401.956 348.574 402.717 347.883 403.342C347.193 403.967 346.301 404.28 345.209 404.28C343.763 404.28 342.694 403.767 342.003 402.74C341.705 402.301 341.49 401.788 341.359 401.2Z" fill="#333333"/>
<circle cx="350.5" cy="147.5" r="39.5" fill="#5A5A5A"/>
<path d="M324.72 151.58C324.72 150.488 325.14 149.618 325.98 148.97C326.34 148.718 326.76 148.526 327.24 148.394V148.286C326.868 148.142 326.538 147.944 326.25 147.692C325.59 147.128 325.26 146.384 325.26 145.46C325.26 144.512 325.662 143.708 326.466 143.048C327.282 142.376 328.38 142.04 329.76 142.04C331.14 142.04 332.232 142.376 333.036 143.048C333.852 143.708 334.26 144.512 334.26 145.46C334.26 146.36 333.93 147.104 333.27 147.692C332.958 147.944 332.628 148.142 332.28 148.286V148.394C332.736 148.514 333.156 148.712 333.54 148.988C334.38 149.636 334.8 150.5 334.8 151.58C334.8 152.624 334.344 153.518 333.432 154.262C332.532 154.994 331.308 155.36 329.76 155.36C328.212 155.36 326.982 154.994 326.07 154.262C325.17 153.518 324.72 152.624 324.72 151.58ZM327.42 145.64C327.42 146.168 327.624 146.6 328.032 146.936C328.44 147.272 329.016 147.44 329.76 147.44C330.504 147.44 331.08 147.272 331.488 146.936C331.896 146.6 332.1 146.168 332.1 145.64C332.1 145.16 331.89 144.758 331.47 144.434C331.062 144.098 330.492 143.93 329.76 143.93C329.028 143.93 328.452 144.098 328.032 144.434C327.624 144.758 327.42 145.16 327.42 145.64ZM327.636 149.942C327.132 150.338 326.88 150.824 326.88 151.4C326.88 151.976 327.132 152.468 327.636 152.876C328.152 153.272 328.86 153.47 329.76 153.47C330.66 153.47 331.362 153.272 331.866 152.876C332.382 152.468 332.64 151.976 332.64 151.4C332.64 150.824 332.382 150.338 331.866 149.942C331.362 149.534 330.66 149.33 329.76 149.33C328.86 149.33 328.152 149.534 327.636 149.942ZM335.694 144.38V142.4H344.244V144.38L339.204 155H336.954L341.904 144.56V144.38H335.694ZM343.529 154.01C343.529 153.65 343.643 153.35 343.871 153.11C344.111 152.87 344.405 152.75 344.753 152.75C345.149 152.75 345.461 152.894 345.689 153.182C345.929 153.47 346.049 153.896 346.049 154.46C346.049 155.384 345.827 156.092 345.383 156.584C344.951 157.088 344.363 157.34 343.619 157.34V156.44C343.979 156.44 344.261 156.338 344.465 156.134C344.681 155.942 344.789 155.684 344.789 155.36V155.252C344.777 155.24 344.771 155.216 344.771 155.18V155.126L344.663 155.162C344.627 155.174 344.549 155.18 344.429 155.18C344.189 155.18 343.979 155.072 343.799 154.856C343.619 154.64 343.529 154.358 343.529 154.01ZM347.394 150.86C347.394 150.284 347.52 149.684 347.772 149.06C348.036 148.424 348.288 147.926 348.528 147.566C348.78 147.194 349.122 146.732 349.554 146.18L352.434 142.4H354.864L352.146 145.946L351.354 146.63V146.72L351.714 146.594C352.074 146.498 352.464 146.45 352.884 146.45C354.06 146.45 355.056 146.876 355.872 147.728C356.7 148.568 357.114 149.612 357.114 150.86C357.114 152.132 356.658 153.2 355.746 154.064C354.834 154.928 353.67 155.36 352.254 155.36C350.838 155.36 349.674 154.928 348.762 154.064C347.85 153.2 347.394 152.132 347.394 150.86ZM350.292 148.988C349.8 149.468 349.554 150.092 349.554 150.86C349.554 151.628 349.8 152.258 350.292 152.75C350.784 153.23 351.438 153.47 352.254 153.47C353.07 153.47 353.724 153.23 354.216 152.75C354.708 152.258 354.954 151.628 354.954 150.86C354.954 150.092 354.708 149.468 354.216 148.988C353.724 148.496 353.07 148.25 352.254 148.25C351.438 148.25 350.784 148.496 350.292 148.988ZM358.108 152.48V150.5L362.338 142.4H364.588L360.358 150.5H364.498V147.44H364.588H366.568V150.5H368.368V152.48H366.568V155H364.498V152.48H358.108Z" fill="white"/>
<line y1="-0.5" x2="30.0167" y2="-0.5" transform="matrix(-0.866186 -0.499722 -0.499722 0.866186 255 427)" stroke="#5A5A5A"/>
</svg>
