<svg width="341" height="553" viewBox="0 0 341 553" fill="none" xmlns="http://www.w3.org/2000/svg">
<rect x="80" y="30" width="225" height="507" fill="#FFF8BA"/>
<path d="M305 539L305 467L201 467L201 539L305 539Z" fill="#FFC79F"/>
<path d="M305.497 242L250 242L250 345.871L305.497 345.871L305.497 242Z" fill="#FFC79F"/>
<line x1="340.433" y1="386.25" x2="320.433" y2="420.854" stroke="#5A5A5A"/>
<line x1="259.218" y1="447.45" x2="233.218" y2="460.053" stroke="#5A5A5A"/>
<line y1="-0.5" x2="28.8938" y2="-0.5" transform="matrix(-0.899848 -0.436203 -0.436203 0.899848 286 366.604)" stroke="#5A5A5A"/>
<path d="M195.25 362.25L195.275 395.738L196.75 395.748L196.75 362.25L195.25 362.25Z" stroke="#5A5A5A" stroke-width="0.5" stroke-miterlimit="10"/>
<path d="M195.25 418.25L195.275 451.738L196.75 451.748L196.75 418.25L195.25 418.25Z" stroke="#5A5A5A" stroke-width="0.5" stroke-miterlimit="10"/>
<path d="M193.25 390.25L193.275 423.738L194.75 423.748L194.75 390.25L193.25 390.25Z" stroke="#5A5A5A" stroke-width="0.5" stroke-miterlimit="10"/>
<path d="M283.75 0.250215L100.324 0.401844L100.252 11.75L283.75 11.75L283.75 0.250215Z" stroke="#5A5A5A" stroke-width="0.5" stroke-miterlimit="10"/>
<path d="M81.7498 406.75L81.5981 178.342L70.25 178.252L70.25 406.75L81.7498 406.75Z" stroke="#5A5A5A" stroke-width="0.5" stroke-miterlimit="10"/>
<path d="M283.75 18.2502L100.324 18.4018L100.252 29.75L283.75 29.75L283.75 18.2502Z" stroke="#5A5A5A" stroke-width="0.5" stroke-miterlimit="10"/>
<path d="M63.7498 406.75L63.5981 178.342L52.25 178.252L52.25 406.75L63.7498 406.75Z" stroke="#5A5A5A" stroke-width="0.5" stroke-miterlimit="10"/>
<path d="M65.1125 523.96L62.0845 524L62.0845 427L65.1514 427L65.1125 523.96Z" stroke="#5A5A5A" stroke-width="0.5" stroke-miterlimit="10"/>
<path d="M62.0847 524L59.0953 523.96L59.0566 427L62.0847 427L62.0847 524Z" stroke="#5A5A5A" stroke-width="0.5" stroke-miterlimit="10"/>
<path d="M53.0388 524L53 427" stroke="#5A5A5A" stroke-width="0.5" stroke-miterlimit="10"/>
<path d="M82 524L82 427" stroke="#5A5A5A" stroke-width="0.5" stroke-miterlimit="10"/>
<rect x="52" width="30" height="95" fill="#5A5A5A"/>
<rect x="104" width="30" height="30" transform="rotate(90 104 0)" fill="#5A5A5A"/>
<rect x="207" width="30" height="45" transform="rotate(90 207 0)" fill="#5A5A5A"/>
<rect x="321" width="30" height="50" transform="rotate(90 321 0)" fill="#5A5A5A"/>
<rect x="82" y="553" width="16" height="239" transform="rotate(-90 82 553)" fill="#5A5A5A"/>
<rect x="305" y="1" width="16" height="381" fill="#5A5A5A"/>
<rect x="305" y="420" width="16" height="133" fill="#5A5A5A"/>
<rect x="305" y="459" width="8" height="44" transform="rotate(90 305 459)" fill="#5A5A5A"/>
<rect x="234" y="459" width="8" height="35" transform="rotate(90 234 459)" fill="#5A5A5A"/>
<rect x="261" y="346" width="8" height="68" transform="rotate(90 261 346)" fill="#5A5A5A"/>
<rect x="314" y="234" width="8" height="68" transform="rotate(90 314 234)" fill="#5A5A5A"/>
<rect x="318" y="346" width="8" height="30" transform="rotate(90 318 346)" fill="#5A5A5A"/>
<rect x="201" y="366" width="8" height="20" transform="rotate(-180 201 366)" fill="#5A5A5A"/>
<rect x="252" y="348" width="8.00001" height="114" transform="rotate(-180 252 348)" fill="#5A5A5A"/>
<line x1="82.4378" y1="137.242" x2="66.4378" y2="166.242" stroke="#5A5A5A"/>
<path d="M0.250175 79.25L0.313188 173.713L4.74999 173.748L4.75 79.25L0.250175 79.25Z" stroke="#5A5A5A" stroke-width="0.5" stroke-miterlimit="10"/>
<path d="M54.2503 79.25L54.3131 138.727L58.75 138.749L58.75 79.25L54.2503 79.25Z" stroke="#5A5A5A" stroke-width="0.5" stroke-miterlimit="10"/>
<path d="M64.2503 79.25L64.3131 138.727L68.75 138.749L68.75 79.25L64.2503 79.25Z" stroke="#5A5A5A" stroke-width="0.5" stroke-miterlimit="10"/>
<rect y="63" width="5" height="74" transform="rotate(-90 0 63)" fill="#5A5A5A"/>
<rect y="191" width="5" height="74" transform="rotate(-90 0 191)" fill="#5A5A5A"/>
<rect y="73" width="5" height="118" fill="#5A5A5A"/>
<rect y="61" width="5" height="19" fill="#5A5A5A"/>
<rect x="201" y="539" width="8.00001" height="92" transform="rotate(-180 201 539)" fill="#5A5A5A"/>
<rect x="52" y="165" width="30" height="118" fill="#5A5A5A"/>
<rect x="52" y="366" width="30" height="68" fill="#5A5A5A"/>
<rect x="52" y="492" width="30" height="61" fill="#5A5A5A"/>
<rect x="244" y="30" width="2" height="6" fill="#5A5A5A"/>
<rect x="244" y="41" width="2" height="11" fill="#5A5A5A"/>
<rect x="244" y="58" width="2" height="11" fill="#5A5A5A"/>
<rect x="244" y="75" width="2" height="11" fill="#5A5A5A"/>
<rect x="244" y="92" width="2" height="11" fill="#5A5A5A"/>
<rect x="244" y="109" width="2" height="11" fill="#5A5A5A"/>
<rect x="244" y="126" width="2" height="11" fill="#5A5A5A"/>
<rect x="244" y="143" width="2" height="11" fill="#5A5A5A"/>
<rect x="244" y="160" width="2" height="11" fill="#5A5A5A"/>
<rect x="244" y="177" width="2" height="11" fill="#5A5A5A"/>
<rect x="244" y="194" width="2" height="11" fill="#5A5A5A"/>
<rect x="244" y="211" width="2" height="11" fill="#5A5A5A"/>
<rect x="244" y="228" width="2" height="6" fill="#5A5A5A"/>
<path d="M304.995 192.137L280 192.137L280 167.812L304.995 167.812L304.995 192.137Z" fill="white" stroke="#5A5A5A" stroke-width="0.5"/>
<path d="M282.026 191.21L301.479 191.21C302.217 191.21 302.61 190.818 302.61 190.048L302.61 169.901C302.61 169.116 302.233 168.739 301.479 168.739L282.026 168.739C281.273 168.723 280.896 169.116 280.896 169.885L280.896 190.033C280.88 190.818 281.273 191.21 282.026 191.21Z" fill="white" stroke="#5A5A5A" stroke-width="0.5"/>
<path d="M283.816 184.709C283.831 182.919 285.244 181.458 286.987 181.458C288.746 181.458 290.159 182.919 290.159 184.709C290.159 186.515 288.746 187.96 286.987 187.96C285.229 187.96 283.816 186.515 283.816 184.709Z" stroke="#5A5A5A" stroke-width="0.5"/>
<path d="M283.846 175.083C283.862 173.293 285.275 171.832 287.017 171.832C288.776 171.832 290.189 173.293 290.189 175.083C290.189 176.889 288.776 178.334 287.017 178.334C285.259 178.349 283.83 176.889 283.846 175.083Z" stroke="#5A5A5A" stroke-width="0.5"/>
<path d="M292.86 175.083C292.86 173.277 294.273 171.833 296.031 171.833C297.79 171.833 299.203 173.293 299.203 175.083C299.187 176.873 297.774 178.334 296.031 178.334C294.288 178.334 292.86 176.873 292.86 175.083Z" stroke="#5A5A5A" stroke-width="0.5"/>
<path d="M292.86 184.709C292.86 182.903 294.273 181.458 296.031 181.458C297.79 181.458 299.203 182.919 299.203 184.709C299.187 186.499 297.774 187.96 296.031 187.96C294.288 187.96 292.86 186.499 292.86 184.709Z" stroke="#5A5A5A" stroke-width="0.5"/>
<path d="M273.699 234.088L273.699 210L250 210L250 234.104L273.699 234.088Z" fill="white" stroke="#5A5A5A" stroke-width="0.5"/>
<path d="M271.896 227.482L271.896 214.165C271.896 213.423 271.532 213.059 270.774 213.059L253.167 213.059C252.439 213.059 252.061 213.423 252.046 214.15L252.061 227.482C252.046 228.209 252.424 228.573 253.167 228.573L270.774 228.573C271.517 228.603 271.896 228.225 271.896 227.482Z" fill="white" stroke="#5A5A5A" stroke-width="0.5"/>
<path d="M261.971 232.24C261.046 232.225 260.304 231.528 260.304 230.649L260.955 223.665L260.971 223.65C260.971 223.12 261.41 222.696 261.971 222.696C262.531 222.696 262.971 223.12 262.986 223.665L263.637 230.649C263.637 231.513 262.895 232.225 261.971 232.24Z" stroke="#5A5A5A" stroke-width="0.5"/>
<mask id="path-66-inside-1_26_4516" fill="white">
<path fill-rule="evenodd" clip-rule="evenodd" d="M260.592 231.557L260.955 227.755C260.97 227.225 261.41 226.785 261.986 226.8C262.546 226.8 262.971 227.225 262.986 227.755L263.349 231.557"/>
</mask>
<path fill-rule="evenodd" clip-rule="evenodd" d="M260.592 231.557L260.955 227.755C260.97 227.225 261.41 226.785 261.986 226.8C262.546 226.8 262.971 227.225 262.986 227.755L263.349 231.557" fill="white"/>
<path d="M260.955 227.755L261.455 227.769L261.455 227.786L261.453 227.802L260.955 227.755ZM261.986 226.8L261.986 227.301L261.972 227.3L261.986 226.8ZM262.986 227.755L262.488 227.802L262.486 227.786L262.486 227.769L262.986 227.755ZM260.094 231.51L260.457 227.707L261.453 227.802L261.089 231.605L260.094 231.51ZM260.455 227.741C260.478 226.936 261.147 226.278 261.999 226.301L261.972 227.3C261.673 227.292 261.462 227.514 261.455 227.769L260.455 227.741ZM261.986 226.3C262.815 226.3 263.463 226.938 263.485 227.741L262.486 227.769C262.479 227.511 262.278 227.3 261.986 227.3L261.986 226.3ZM263.483 227.707L263.847 231.51L262.852 231.605L262.488 227.802L263.483 227.707Z" fill="#5A5A5A" mask="url(#path-66-inside-1_26_4516)"/>
<path d="M283.759 261.298L283.742 260.117L283.759 257.051V249.46H273.802V261.298C273.802 264.315 276.045 266.774 278.797 266.774C281.515 266.774 283.759 264.315 283.759 261.298Z" fill="white" stroke="#5A5A5A" stroke-width="0.5"/>
<path d="M282.613 261.232V260.298V252.739H274.932V260.298L274.948 261.232C274.948 263.61 276.651 265.544 278.78 265.544C280.893 265.528 282.613 263.593 282.613 261.232Z" fill="white" stroke="#5A5A5A" stroke-width="0.5"/>
<path d="M272 243.099V248.362C272 248.968 272.491 249.46 273.097 249.46H284.381C284.987 249.46 285.479 248.968 285.479 248.362V243.099C285.479 242.492 284.987 242 284.381 242H273.114C272.491 242 272 242.492 272 243.099Z" fill="white" stroke="#5A5A5A" stroke-width="0.5"/>
<path d="M278.092 245.722C278.092 246.132 278.387 246.443 278.731 246.443C279.091 246.46 279.386 246.132 279.386 245.722C279.386 245.312 279.091 245.001 278.748 245.001C278.371 245.017 278.076 245.328 278.092 245.722Z" fill="white" stroke="#5A5A5A" stroke-width="0.5"/>
<path d="M303.848 304.596L291.54 304.596C290.685 304.596 290 303.913 290 303.058L290 284.539C290 283.684 290.685 283 291.54 283L303.848 283C304.704 283 305.389 283.684 305.389 284.539L305.389 303.058C305.389 303.898 304.704 304.596 303.848 304.596Z" fill="white" stroke="#5A5A5A" stroke-width="0.5"/>
<path d="M299.156 302.673L297.259 302.673C294.764 302.673 292.738 300.65 292.738 298.157L292.738 289.439C292.738 286.946 294.764 284.923 297.259 284.923L299.156 284.923C301.652 284.923 303.677 286.946 303.677 289.439L303.677 298.157C303.677 300.65 301.652 302.673 299.156 302.673Z" fill="white" stroke="#5A5A5A" stroke-width="0.5"/>
<path d="M301.267 294.753C300.724 294.753 300.283 294.326 300.283 293.799C300.283 293.272 300.724 292.844 301.267 292.844C301.81 292.844 302.251 293.272 302.251 293.799C302.251 294.326 301.81 294.753 301.267 294.753Z" fill="white" stroke="#5A5A5A" stroke-width="0.5"/>
<path d="M284.759 517.476L284.742 518.657L284.759 521.723V529.314H274.801V517.476C274.801 514.459 277.045 512 279.796 512C282.515 512 284.759 514.459 284.759 517.476Z" fill="white" stroke="#5A5A5A" stroke-width="0.5"/>
<path d="M283.612 517.542V518.476V526.035H275.931V518.476L275.948 517.542C275.948 515.164 277.651 513.23 279.78 513.23C281.893 513.246 283.612 515.181 283.612 517.542Z" fill="white" stroke="#5A5A5A" stroke-width="0.5"/>
<path d="M273 535.676V530.413C273 529.806 273.491 529.314 274.097 529.314H285.381C285.987 529.314 286.478 529.806 286.478 530.413V535.676C286.478 536.282 285.987 536.774 285.381 536.774H274.114C273.491 536.774 273 536.282 273 535.676Z" fill="white" stroke="#5A5A5A" stroke-width="0.5"/>
<path d="M279.092 533.052C279.092 532.642 279.387 532.331 279.731 532.331C280.091 532.314 280.386 532.642 280.386 533.052C280.386 533.462 280.091 533.774 279.747 533.774C279.371 533.757 279.076 533.446 279.092 533.052Z" fill="white" stroke="#5A5A5A" stroke-width="0.5"/>
<path d="M242.333 535.305L242.333 522.997C242.333 522.141 243.017 521.457 243.872 521.457L262.391 521.457C263.246 521.457 263.93 522.141 263.93 522.997L263.93 535.305C263.93 536.161 263.246 536.845 262.391 536.845L243.872 536.845C243.031 536.845 242.333 536.161 242.333 535.305Z" fill="white" stroke="#5A5A5A" stroke-width="0.5"/>
<path d="M244.256 530.613L244.256 528.716C244.256 526.22 246.279 524.195 248.772 524.195L257.49 524.195C259.983 524.195 262.006 526.22 262.006 528.716L262.006 530.613C262.006 533.109 259.983 535.134 257.49 535.134L248.772 535.134C246.279 535.134 244.256 533.109 244.256 530.613Z" fill="white" stroke="#5A5A5A" stroke-width="0.5"/>
<path d="M252.177 532.724C252.177 532.18 252.604 531.74 253.131 531.74C253.658 531.74 254.085 532.18 254.085 532.724C254.085 533.267 253.658 533.708 253.131 533.708C252.604 533.708 252.177 533.267 252.177 532.724Z" fill="white" stroke="#5A5A5A" stroke-width="0.5"/>
<path d="M227.635 535.506L227.635 475.386C227.635 474.616 227.02 474 226.251 474L202.384 474C201.615 474 201 474.616 201 475.386L201 535.506C201 536.276 201.615 536.892 202.384 536.892L226.251 536.892C227.02 536.892 227.635 536.262 227.635 535.506Z" fill="white" stroke="#5A5A5A" stroke-width="0.5"/>
<path d="M217.554 477.696L211.066 477.696C207.305 477.696 204.271 480.747 204.271 484.499L204.271 531.839C204.271 532.763 205.012 533.505 205.935 533.505L222.713 533.505C223.636 533.505 224.377 532.763 224.377 531.839L224.377 484.513C224.363 480.747 221.315 477.696 217.554 477.696Z" fill="white" stroke="#5A5A5A" stroke-width="0.5"/>
<path d="M214.786 527.892C215.535 527.892 216.142 528.525 216.142 529.305C216.142 530.086 215.535 530.719 214.786 530.719C214.037 530.719 213.43 530.086 213.43 529.305C213.43 528.525 214.037 527.892 214.786 527.892Z" fill="white" stroke="#5A5A5A" stroke-width="0.5"/>
<path d="M283 467L305.01 467L305.024 488.587L283.014 488.573L283 467Z" fill="white" stroke="#5A5A5A" stroke-width="0.5"/>
<path d="M294.019 483.33C297.133 483.33 299.647 480.856 299.647 477.794C299.647 474.732 297.133 472.257 294.005 472.257C290.891 472.257 288.349 474.732 288.349 477.794C288.363 480.856 290.905 483.33 294.019 483.33Z" stroke="#5A5A5A" stroke-width="0.5"/>
<path d="M289.899 477.794C289.885 478.912 290.346 479.919 291.1 480.646C291.854 481.373 292.888 481.82 294.005 481.834M298.139 477.808C298.139 478.912 297.678 479.919 296.938 480.66C296.183 481.387 295.164 481.848 294.019 481.848L298.139 477.808ZM289.899 477.794C289.899 476.689 290.36 475.682 291.1 474.941C291.854 474.214 292.888 473.767 294.019 473.767L289.899 477.794ZM298.139 477.808C298.139 476.675 297.678 475.668 296.938 474.955L296.924 474.941C296.183 474.228 295.164 473.767 294.033 473.767L298.139 477.808Z" stroke="#5A5A5A" stroke-width="0.5"/>
<circle cx="159.5" cy="166.5" r="39.5" fill="#5A5A5A"/>
<path d="M136.72 170.58C136.72 169.488 137.14 168.618 137.98 167.97C138.34 167.718 138.76 167.526 139.24 167.394V167.286C138.868 167.142 138.538 166.944 138.25 166.692C137.59 166.128 137.26 165.384 137.26 164.46C137.26 163.512 137.662 162.708 138.466 162.048C139.282 161.376 140.38 161.04 141.76 161.04C143.14 161.04 144.232 161.376 145.036 162.048C145.852 162.708 146.26 163.512 146.26 164.46C146.26 165.36 145.93 166.104 145.27 166.692C144.958 166.944 144.628 167.142 144.28 167.286V167.394C144.736 167.514 145.156 167.712 145.54 167.988C146.38 168.636 146.8 169.5 146.8 170.58C146.8 171.624 146.344 172.518 145.432 173.262C144.532 173.994 143.308 174.36 141.76 174.36C140.212 174.36 138.982 173.994 138.07 173.262C137.17 172.518 136.72 171.624 136.72 170.58ZM139.42 164.64C139.42 165.168 139.624 165.6 140.032 165.936C140.44 166.272 141.016 166.44 141.76 166.44C142.504 166.44 143.08 166.272 143.488 165.936C143.896 165.6 144.1 165.168 144.1 164.64C144.1 164.16 143.89 163.758 143.47 163.434C143.062 163.098 142.492 162.93 141.76 162.93C141.028 162.93 140.452 163.098 140.032 163.434C139.624 163.758 139.42 164.16 139.42 164.64ZM139.636 168.942C139.132 169.338 138.88 169.824 138.88 170.4C138.88 170.976 139.132 171.468 139.636 171.876C140.152 172.272 140.86 172.47 141.76 172.47C142.66 172.47 143.362 172.272 143.866 171.876C144.382 171.468 144.64 170.976 144.64 170.4C144.64 169.824 144.382 169.338 143.866 168.942C143.362 168.534 142.66 168.33 141.76 168.33C140.86 168.33 140.152 168.534 139.636 168.942ZM147.694 163.38V161.4H156.244V163.38L151.204 174H148.954L153.904 163.56V163.38H147.694ZM155.529 173.01C155.529 172.65 155.643 172.35 155.871 172.11C156.111 171.87 156.405 171.75 156.753 171.75C157.149 171.75 157.461 171.894 157.689 172.182C157.929 172.47 158.049 172.896 158.049 173.46C158.049 174.384 157.827 175.092 157.383 175.584C156.951 176.088 156.363 176.34 155.619 176.34V175.44C155.979 175.44 156.261 175.338 156.465 175.134C156.681 174.942 156.789 174.684 156.789 174.36V174.252C156.777 174.24 156.771 174.216 156.771 174.18V174.126L156.663 174.162C156.627 174.174 156.549 174.18 156.429 174.18C156.189 174.18 155.979 174.072 155.799 173.856C155.619 173.64 155.529 173.358 155.529 173.01ZM159.304 174V172.02L163.606 168.978C164.542 168.306 165.214 167.682 165.622 167.106C166.03 166.53 166.234 165.918 166.234 165.27C166.234 164.586 166.024 164.04 165.604 163.632C165.184 163.224 164.614 163.02 163.894 163.02C163.006 163.02 162.34 163.38 161.896 164.1C161.704 164.412 161.56 164.772 161.464 165.18H159.304C159.412 164.412 159.646 163.722 160.006 163.11C160.858 161.73 162.154 161.04 163.894 161.04C165.226 161.04 166.306 161.436 167.134 162.228C167.974 163.008 168.394 163.992 168.394 165.18C168.394 166.212 168.13 167.142 167.602 167.97C167.074 168.786 166.228 169.596 165.064 170.4L163.264 171.66L162.454 172.02V172.11L163.534 172.02H168.394V174H159.304ZM169.747 169.86C169.747 169.284 169.873 168.684 170.125 168.06C170.389 167.424 170.641 166.926 170.881 166.566C171.133 166.194 171.475 165.732 171.907 165.18L174.787 161.4H177.217L174.499 164.946L173.707 165.63V165.72L174.067 165.594C174.427 165.498 174.817 165.45 175.237 165.45C176.413 165.45 177.409 165.876 178.225 166.728C179.053 167.568 179.467 168.612 179.467 169.86C179.467 171.132 179.011 172.2 178.099 173.064C177.187 173.928 176.023 174.36 174.607 174.36C173.191 174.36 172.027 173.928 171.115 173.064C170.203 172.2 169.747 171.132 169.747 169.86ZM172.645 167.988C172.153 168.468 171.907 169.092 171.907 169.86C171.907 170.628 172.153 171.258 172.645 171.75C173.137 172.23 173.791 172.47 174.607 172.47C175.423 172.47 176.077 172.23 176.569 171.75C177.061 171.258 177.307 170.628 177.307 169.86C177.307 169.092 177.061 168.468 176.569 167.988C176.077 167.496 175.423 167.25 174.607 167.25C173.791 167.25 173.137 167.496 172.645 167.988Z" fill="white"/>
<path d="M134.56 318.27H136.24C136.315 318.559 136.441 318.807 136.618 319.012C137.029 319.497 137.626 319.74 138.41 319.74C139.035 319.74 139.53 319.572 139.894 319.236C140.258 318.9 140.44 318.461 140.44 317.92C140.44 317.351 140.258 316.893 139.894 316.548C139.53 316.203 139.035 316.03 138.41 316.03C137.831 316.03 137.341 316.184 136.94 316.492C136.781 316.613 136.641 316.763 136.52 316.94H134.98L135.4 311.2H141.35V312.74H136.73L136.52 315.26H136.59C136.739 315.111 136.912 314.985 137.108 314.882C137.547 314.621 138.074 314.49 138.69 314.49C139.67 314.49 140.487 314.817 141.14 315.47C141.793 316.123 142.12 316.94 142.12 317.92C142.12 318.881 141.775 319.684 141.084 320.328C140.403 320.963 139.511 321.28 138.41 321.28C136.973 321.28 135.904 320.781 135.204 319.782C134.905 319.343 134.691 318.839 134.56 318.27ZM142.329 312.74V311.2H148.979V312.74L145.059 321H143.309L147.159 312.88V312.74H142.329ZM148.423 320.23C148.423 319.95 148.512 319.717 148.689 319.53C148.876 319.343 149.105 319.25 149.375 319.25C149.683 319.25 149.926 319.362 150.103 319.586C150.29 319.81 150.383 320.141 150.383 320.58C150.383 321.299 150.211 321.849 149.865 322.232C149.529 322.624 149.072 322.82 148.493 322.82V322.12C148.773 322.12 148.993 322.041 149.151 321.882C149.319 321.733 149.403 321.532 149.403 321.28V321.196C149.394 321.187 149.389 321.168 149.389 321.14V321.098L149.305 321.126C149.277 321.135 149.217 321.14 149.123 321.14C148.937 321.14 148.773 321.056 148.633 320.888C148.493 320.72 148.423 320.501 148.423 320.23ZM151.499 318.34C151.499 317.491 151.826 316.814 152.479 316.31C152.759 316.114 153.086 315.965 153.459 315.862V315.778C153.17 315.666 152.913 315.512 152.689 315.316C152.176 314.877 151.919 314.299 151.919 313.58C151.919 312.843 152.232 312.217 152.857 311.704C153.492 311.181 154.346 310.92 155.419 310.92C156.493 310.92 157.342 311.181 157.967 311.704C158.602 312.217 158.919 312.843 158.919 313.58C158.919 314.28 158.663 314.859 158.149 315.316C157.907 315.512 157.65 315.666 157.379 315.778V315.862C157.734 315.955 158.061 316.109 158.359 316.324C159.013 316.828 159.339 317.5 159.339 318.34C159.339 319.152 158.985 319.847 158.275 320.426C157.575 320.995 156.623 321.28 155.419 321.28C154.215 321.28 153.259 320.995 152.549 320.426C151.849 319.847 151.499 319.152 151.499 318.34ZM153.599 313.72C153.599 314.131 153.758 314.467 154.075 314.728C154.393 314.989 154.841 315.12 155.419 315.12C155.998 315.12 156.446 314.989 156.763 314.728C157.081 314.467 157.239 314.131 157.239 313.72C157.239 313.347 157.076 313.034 156.749 312.782C156.432 312.521 155.989 312.39 155.419 312.39C154.85 312.39 154.402 312.521 154.075 312.782C153.758 313.034 153.599 313.347 153.599 313.72ZM153.767 317.066C153.375 317.374 153.179 317.752 153.179 318.2C153.179 318.648 153.375 319.031 153.767 319.348C154.169 319.656 154.719 319.81 155.419 319.81C156.119 319.81 156.665 319.656 157.057 319.348C157.459 319.031 157.659 318.648 157.659 318.2C157.659 317.752 157.459 317.374 157.057 317.066C156.665 316.749 156.119 316.59 155.419 316.59C154.719 316.59 154.169 316.749 153.767 317.066ZM160.105 319.04V317.5L163.395 311.2H165.145L161.855 317.5H165.075V315.12H165.145H166.685V317.5H168.085V319.04H166.685V321H165.075V319.04H160.105Z" fill="#333333"/>
<path d="M260.21 310.04V308.5L263.5 302.2H265.25L261.96 308.5H265.18V306.12H265.25H266.79V308.5H268.19V310.04H266.79V312H265.18V310.04H260.21ZM268.749 311.23C268.749 310.95 268.838 310.717 269.015 310.53C269.202 310.343 269.431 310.25 269.701 310.25C270.009 310.25 270.252 310.362 270.429 310.586C270.616 310.81 270.709 311.141 270.709 311.58C270.709 312.299 270.537 312.849 270.191 313.232C269.855 313.624 269.398 313.82 268.819 313.82V313.12C269.099 313.12 269.319 313.041 269.477 312.882C269.645 312.733 269.729 312.532 269.729 312.28V312.196C269.72 312.187 269.715 312.168 269.715 312.14V312.098L269.631 312.126C269.603 312.135 269.543 312.14 269.449 312.14C269.263 312.14 269.099 312.056 268.959 311.888C268.819 311.72 268.749 311.501 268.749 311.23ZM271.756 308.78C271.756 308.332 271.854 307.865 272.05 307.38C272.255 306.885 272.451 306.498 272.638 306.218C272.834 305.929 273.1 305.569 273.436 305.14L275.676 302.2H277.566L275.452 304.958L274.836 305.49V305.56L275.116 305.462C275.396 305.387 275.699 305.35 276.026 305.35C276.94 305.35 277.715 305.681 278.35 306.344C278.994 306.997 279.316 307.809 279.316 308.78C279.316 309.769 278.961 310.6 278.252 311.272C277.542 311.944 276.637 312.28 275.536 312.28C274.434 312.28 273.529 311.944 272.82 311.272C272.11 310.6 271.756 309.769 271.756 308.78ZM274.01 307.324C273.627 307.697 273.436 308.183 273.436 308.78C273.436 309.377 273.627 309.867 274.01 310.25C274.392 310.623 274.901 310.81 275.536 310.81C276.17 310.81 276.679 310.623 277.062 310.25C277.444 309.867 277.636 309.377 277.636 308.78C277.636 308.183 277.444 307.697 277.062 307.324C276.679 306.941 276.17 306.75 275.536 306.75C274.901 306.75 274.392 306.941 274.01 307.324ZM280.369 308.78C280.369 308.332 280.467 307.865 280.663 307.38C280.868 306.885 281.064 306.498 281.251 306.218C281.447 305.929 281.713 305.569 282.049 305.14L284.289 302.2H286.179L284.065 304.958L283.449 305.49V305.56L283.729 305.462C284.009 305.387 284.312 305.35 284.639 305.35C285.554 305.35 286.328 305.681 286.963 306.344C287.607 306.997 287.929 307.809 287.929 308.78C287.929 309.769 287.574 310.6 286.865 311.272C286.156 311.944 285.25 312.28 284.149 312.28C283.048 312.28 282.142 311.944 281.433 311.272C280.724 310.6 280.369 309.769 280.369 308.78ZM282.623 307.324C282.24 307.697 282.049 308.183 282.049 308.78C282.049 309.377 282.24 309.867 282.623 310.25C283.006 310.623 283.514 310.81 284.149 310.81C284.784 310.81 285.292 310.623 285.675 310.25C286.058 309.867 286.249 309.377 286.249 308.78C286.249 308.183 286.058 307.697 285.675 307.324C285.292 306.941 284.784 306.75 284.149 306.75C283.514 306.75 283.006 306.941 282.623 307.324Z" fill="#333333"/>
<path d="M260.56 141.42C260.56 140.431 260.915 139.6 261.624 138.928C262.333 138.256 263.239 137.92 264.34 137.92C265.441 137.92 266.347 138.256 267.056 138.928C267.765 139.6 268.12 140.431 268.12 141.42C268.12 142.307 267.751 143.263 267.014 144.29C266.939 144.393 266.837 144.533 266.706 144.71C266.575 144.878 266.487 144.995 266.44 145.06L264.2 148H262.31L264.424 145.242L265.04 144.71V144.64C265.021 144.649 264.928 144.687 264.76 144.752C264.517 144.817 264.214 144.85 263.85 144.85C262.935 144.85 262.156 144.523 261.512 143.87C260.877 143.207 260.56 142.391 260.56 141.42ZM262.814 139.964C262.431 140.337 262.24 140.823 262.24 141.42C262.24 142.017 262.431 142.507 262.814 142.89C263.197 143.263 263.705 143.45 264.34 143.45C264.975 143.45 265.483 143.263 265.866 142.89C266.249 142.507 266.44 142.017 266.44 141.42C266.44 140.823 266.249 140.337 265.866 139.964C265.483 139.581 264.975 139.39 264.34 139.39C263.705 139.39 263.197 139.581 262.814 139.964ZM269.173 147.23C269.173 146.95 269.262 146.717 269.439 146.53C269.626 146.343 269.855 146.25 270.125 146.25C270.433 146.25 270.676 146.362 270.853 146.586C271.04 146.81 271.133 147.141 271.133 147.58C271.133 148.299 270.961 148.849 270.615 149.232C270.279 149.624 269.822 149.82 269.243 149.82V149.12C269.523 149.12 269.743 149.041 269.901 148.882C270.069 148.733 270.153 148.532 270.153 148.28V148.196C270.144 148.187 270.139 148.168 270.139 148.14V148.098L270.055 148.126C270.027 148.135 269.967 148.14 269.873 148.14C269.687 148.14 269.523 148.056 269.383 147.888C269.243 147.72 269.173 147.501 269.173 147.23ZM272.179 144.78C272.179 144.332 272.277 143.865 272.473 143.38C272.679 142.885 272.875 142.498 273.061 142.218C273.257 141.929 273.523 141.569 273.859 141.14L276.099 138.2H277.989L275.875 140.958L275.259 141.49V141.56L275.539 141.462C275.819 141.387 276.123 141.35 276.449 141.35C277.364 141.35 278.139 141.681 278.773 142.344C279.417 142.997 279.739 143.809 279.739 144.78C279.739 145.769 279.385 146.6 278.675 147.272C277.966 147.944 277.061 148.28 275.959 148.28C274.858 148.28 273.953 147.944 273.243 147.272C272.534 146.6 272.179 145.769 272.179 144.78ZM274.433 143.324C274.051 143.697 273.859 144.183 273.859 144.78C273.859 145.377 274.051 145.867 274.433 146.25C274.816 146.623 275.325 146.81 275.959 146.81C276.594 146.81 277.103 146.623 277.485 146.25C277.868 145.867 278.059 145.377 278.059 144.78C278.059 144.183 277.868 143.697 277.485 143.324C277.103 142.941 276.594 142.75 275.959 142.75C275.325 142.75 274.816 142.941 274.433 143.324ZM280.863 145.34C280.863 144.491 281.189 143.814 281.843 143.31C282.123 143.114 282.449 142.965 282.823 142.862V142.778C282.533 142.666 282.277 142.512 282.053 142.316C281.539 141.877 281.283 141.299 281.283 140.58C281.283 139.843 281.595 139.217 282.221 138.704C282.855 138.181 283.709 137.92 284.783 137.92C285.856 137.92 286.705 138.181 287.331 138.704C287.965 139.217 288.283 139.843 288.283 140.58C288.283 141.28 288.026 141.859 287.513 142.316C287.27 142.512 287.013 142.666 286.743 142.778V142.862C287.097 142.955 287.424 143.109 287.723 143.324C288.376 143.828 288.703 144.5 288.703 145.34C288.703 146.152 288.348 146.847 287.639 147.426C286.939 147.995 285.987 148.28 284.783 148.28C283.579 148.28 282.622 147.995 281.913 147.426C281.213 146.847 280.863 146.152 280.863 145.34ZM282.963 140.72C282.963 141.131 283.121 141.467 283.439 141.728C283.756 141.989 284.204 142.12 284.783 142.12C285.361 142.12 285.809 141.989 286.127 141.728C286.444 141.467 286.603 141.131 286.603 140.72C286.603 140.347 286.439 140.034 286.113 139.782C285.795 139.521 285.352 139.39 284.783 139.39C284.213 139.39 283.765 139.521 283.439 139.782C283.121 140.034 282.963 140.347 282.963 140.72ZM283.131 144.066C282.739 144.374 282.543 144.752 282.543 145.2C282.543 145.648 282.739 146.031 283.131 146.348C283.532 146.656 284.083 146.81 284.783 146.81C285.483 146.81 286.029 146.656 286.421 146.348C286.822 146.031 287.023 145.648 287.023 145.2C287.023 144.752 286.822 144.374 286.421 144.066C286.029 143.749 285.483 143.59 284.783 143.59C284.083 143.59 283.532 143.749 283.131 144.066Z" fill="#333333"/>
<path d="M12.21 140.04V138.5L15.5 132.2H17.25L13.96 138.5H17.18V136.12H17.25H18.79V138.5H20.19V140.04H18.79V142H17.18V140.04H12.21ZM20.7495 141.23C20.7495 140.95 20.8381 140.717 21.0155 140.53C21.2021 140.343 21.4308 140.25 21.7015 140.25C22.0095 140.25 22.2521 140.362 22.4295 140.586C22.6161 140.81 22.7095 141.141 22.7095 141.58C22.7095 142.299 22.5368 142.849 22.1915 143.232C21.8555 143.624 21.3981 143.82 20.8195 143.82V143.12C21.0995 143.12 21.3188 143.041 21.4775 142.882C21.6455 142.733 21.7295 142.532 21.7295 142.28V142.196C21.7201 142.187 21.7155 142.168 21.7155 142.14V142.098L21.6315 142.126C21.6035 142.135 21.5428 142.14 21.4495 142.14C21.2628 142.14 21.0995 142.056 20.9595 141.888C20.8195 141.72 20.7495 141.501 20.7495 141.23ZM23.4056 133.74V132.2H30.0556V133.74L26.1356 142H24.3856L28.2356 133.88V133.74H23.4056ZM30.5505 138.78C30.5505 138.332 30.6485 137.865 30.8445 137.38C31.0499 136.885 31.2459 136.498 31.4325 136.218C31.6285 135.929 31.8945 135.569 32.2305 135.14L34.4705 132.2H36.3605L34.2465 134.958L33.6305 135.49V135.56L33.9105 135.462C34.1905 135.387 34.4939 135.35 34.8205 135.35C35.7352 135.35 36.5099 135.681 37.1445 136.344C37.7885 136.997 38.1105 137.809 38.1105 138.78C38.1105 139.769 37.7559 140.6 37.0465 141.272C36.3372 141.944 35.4319 142.28 34.3305 142.28C33.2292 142.28 32.3239 141.944 31.6145 141.272C30.9052 140.6 30.5505 139.769 30.5505 138.78ZM32.8045 137.324C32.4219 137.697 32.2305 138.183 32.2305 138.78C32.2305 139.377 32.4219 139.867 32.8045 140.25C33.1872 140.623 33.6959 140.81 34.3305 140.81C34.9652 140.81 35.4739 140.623 35.8565 140.25C36.2392 139.867 36.4305 139.377 36.4305 138.78C36.4305 138.183 36.2392 137.697 35.8565 137.324C35.4739 136.941 34.9652 136.75 34.3305 136.75C33.6959 136.75 33.1872 136.941 32.8045 137.324Z" fill="#333333"/>
<path d="M258.56 400.42C258.56 399.431 258.915 398.6 259.624 397.928C260.333 397.256 261.239 396.92 262.34 396.92C263.441 396.92 264.347 397.256 265.056 397.928C265.765 398.6 266.12 399.431 266.12 400.42C266.12 401.307 265.751 402.263 265.014 403.29C264.939 403.393 264.837 403.533 264.706 403.71C264.575 403.878 264.487 403.995 264.44 404.06L262.2 407H260.31L262.424 404.242L263.04 403.71V403.64C263.021 403.649 262.928 403.687 262.76 403.752C262.517 403.817 262.214 403.85 261.85 403.85C260.935 403.85 260.156 403.523 259.512 402.87C258.877 402.207 258.56 401.391 258.56 400.42ZM260.814 398.964C260.431 399.337 260.24 399.823 260.24 400.42C260.24 401.017 260.431 401.507 260.814 401.89C261.197 402.263 261.705 402.45 262.34 402.45C262.975 402.45 263.483 402.263 263.866 401.89C264.249 401.507 264.44 401.017 264.44 400.42C264.44 399.823 264.249 399.337 263.866 398.964C263.483 398.581 262.975 398.39 262.34 398.39C261.705 398.39 261.197 398.581 260.814 398.964ZM267.173 406.23C267.173 405.95 267.262 405.717 267.439 405.53C267.626 405.343 267.855 405.25 268.125 405.25C268.433 405.25 268.676 405.362 268.853 405.586C269.04 405.81 269.133 406.141 269.133 406.58C269.133 407.299 268.961 407.849 268.615 408.232C268.279 408.624 267.822 408.82 267.243 408.82V408.12C267.523 408.12 267.743 408.041 267.901 407.882C268.069 407.733 268.153 407.532 268.153 407.28V407.196C268.144 407.187 268.139 407.168 268.139 407.14V407.098L268.055 407.126C268.027 407.135 267.967 407.14 267.873 407.14C267.687 407.14 267.523 407.056 267.383 406.888C267.243 406.72 267.173 406.501 267.173 406.23ZM271.649 405.824C270.763 404.853 270.319 403.612 270.319 402.1C270.319 400.588 270.763 399.347 271.649 398.376C272.536 397.405 273.609 396.92 274.869 396.92C276.129 396.92 277.203 397.405 278.089 398.376C278.976 399.347 279.419 400.588 279.419 402.1C279.419 403.612 278.976 404.853 278.089 405.824C277.203 406.795 276.129 407.28 274.869 407.28C273.609 407.28 272.536 406.795 271.649 405.824ZM272.797 399.412C272.265 400.047 271.999 400.943 271.999 402.1C271.999 403.257 272.265 404.153 272.797 404.788C273.339 405.423 274.029 405.74 274.869 405.74C275.709 405.74 276.395 405.423 276.927 404.788C277.469 404.153 277.739 403.257 277.739 402.1C277.739 400.943 277.469 400.047 276.927 399.412C276.395 398.777 275.709 398.46 274.869 398.46C274.029 398.46 273.339 398.777 272.797 399.412ZM280.543 403.78C280.543 403.332 280.641 402.865 280.837 402.38C281.042 401.885 281.238 401.498 281.425 401.218C281.621 400.929 281.887 400.569 282.223 400.14L284.463 397.2H286.353L284.239 399.958L283.623 400.49V400.56L283.903 400.462C284.183 400.387 284.486 400.35 284.813 400.35C285.727 400.35 286.502 400.681 287.137 401.344C287.781 401.997 288.103 402.809 288.103 403.78C288.103 404.769 287.748 405.6 287.039 406.272C286.329 406.944 285.424 407.28 284.323 407.28C283.221 407.28 282.316 406.944 281.607 406.272C280.897 405.6 280.543 404.769 280.543 403.78ZM282.797 402.324C282.414 402.697 282.223 403.183 282.223 403.78C282.223 404.377 282.414 404.867 282.797 405.25C283.179 405.623 283.688 405.81 284.323 405.81C284.957 405.81 285.466 405.623 285.849 405.25C286.231 404.867 286.423 404.377 286.423 403.78C286.423 403.183 286.231 402.697 285.849 402.324C285.466 401.941 284.957 401.75 284.323 401.75C283.688 401.75 283.179 401.941 282.797 402.324Z" fill="#333333"/>
<path d="M237.49 501.78C237.49 501.332 237.588 500.865 237.784 500.38C237.989 499.885 238.185 499.498 238.372 499.218C238.568 498.929 238.834 498.569 239.17 498.14L241.41 495.2H243.3L241.186 497.958L240.57 498.49V498.56L240.85 498.462C241.13 498.387 241.433 498.35 241.76 498.35C242.675 498.35 243.449 498.681 244.084 499.344C244.728 499.997 245.05 500.809 245.05 501.78C245.05 502.769 244.695 503.6 243.986 504.272C243.277 504.944 242.371 505.28 241.27 505.28C240.169 505.28 239.263 504.944 238.554 504.272C237.845 503.6 237.49 502.769 237.49 501.78ZM239.744 500.324C239.361 500.697 239.17 501.183 239.17 501.78C239.17 502.377 239.361 502.867 239.744 503.25C240.127 503.623 240.635 503.81 241.27 503.81C241.905 503.81 242.413 503.623 242.796 503.25C243.179 502.867 243.37 502.377 243.37 501.78C243.37 501.183 243.179 500.697 242.796 500.324C242.413 499.941 241.905 499.75 241.27 499.75C240.635 499.75 240.127 499.941 239.744 500.324ZM246.173 504.23C246.173 503.95 246.262 503.717 246.439 503.53C246.626 503.343 246.855 503.25 247.125 503.25C247.433 503.25 247.676 503.362 247.853 503.586C248.04 503.81 248.133 504.141 248.133 504.58C248.133 505.299 247.961 505.849 247.615 506.232C247.279 506.624 246.822 506.82 246.243 506.82V506.12C246.523 506.12 246.743 506.041 246.901 505.882C247.069 505.733 247.153 505.532 247.153 505.28V505.196C247.144 505.187 247.139 505.168 247.139 505.14V505.098L247.055 505.126C247.027 505.135 246.967 505.14 246.873 505.14C246.687 505.14 246.523 505.056 246.383 504.888C246.243 504.72 246.173 504.501 246.173 504.23ZM250.649 503.824C249.763 502.853 249.319 501.612 249.319 500.1C249.319 498.588 249.763 497.347 250.649 496.376C251.536 495.405 252.609 494.92 253.869 494.92C255.129 494.92 256.203 495.405 257.089 496.376C257.976 497.347 258.419 498.588 258.419 500.1C258.419 501.612 257.976 502.853 257.089 503.824C256.203 504.795 255.129 505.28 253.869 505.28C252.609 505.28 251.536 504.795 250.649 503.824ZM251.797 497.412C251.265 498.047 250.999 498.943 250.999 500.1C250.999 501.257 251.265 502.153 251.797 502.788C252.339 503.423 253.029 503.74 253.869 503.74C254.709 503.74 255.395 503.423 255.927 502.788C256.469 502.153 256.739 501.257 256.739 500.1C256.739 498.943 256.469 498.047 255.927 497.412C255.395 496.777 254.709 496.46 253.869 496.46C253.029 496.46 252.339 496.777 251.797 497.412ZM259.473 505V503.46L262.819 501.094C263.547 500.571 264.069 500.086 264.387 499.638C264.704 499.19 264.863 498.714 264.863 498.21C264.863 497.678 264.699 497.253 264.373 496.936C264.046 496.619 263.603 496.46 263.043 496.46C262.352 496.46 261.834 496.74 261.489 497.3C261.339 497.543 261.227 497.823 261.153 498.14H259.473C259.557 497.543 259.739 497.006 260.019 496.53C260.681 495.457 261.689 494.92 263.043 494.92C264.079 494.92 264.919 495.228 265.563 495.844C266.216 496.451 266.543 497.216 266.543 498.14C266.543 498.943 266.337 499.666 265.927 500.31C265.516 500.945 264.858 501.575 263.953 502.2L262.553 503.18L261.923 503.46V503.53L262.763 503.46H266.543V505H259.473Z" fill="#333333"/>
</svg>
