<svg width="468" height="695" viewBox="0 0 468 695" fill="none" xmlns="http://www.w3.org/2000/svg">
<rect x="41" y="55" width="30" height="41" transform="rotate(90 41 55)" fill="#5A5A5A"/>
<path d="M452 84V279.674L0 279.674L8.52372e-06 84L452 84Z" fill="#E7FFD5"/>
<path d="M455 204.415V400.088H139L139 204.415L455 204.415Z" fill="#E7FFD5"/>
<path d="M458 324.829V476.351H237L237 324.829H458Z" fill="#E7FFD5"/>
<path d="M461 445.244V665H303L303 445.244L461 445.244Z" fill="#E7FFD5"/>
<circle cx="240.5" cy="177.5" r="39.5" fill="#5A5A5A"/>
<path d="M216.72 176.54C216.72 175.268 217.176 174.2 218.088 173.336C219 172.472 220.164 172.04 221.58 172.04C222.996 172.04 224.16 172.472 225.072 173.336C225.984 174.2 226.44 175.268 226.44 176.54C226.44 177.68 225.966 178.91 225.018 180.23C224.922 180.362 224.79 180.542 224.622 180.77C224.454 180.986 224.34 181.136 224.28 181.22L221.4 185H218.97L221.688 181.454L222.48 180.77V180.68C222.456 180.692 222.336 180.74 222.12 180.824C221.808 180.908 221.418 180.95 220.95 180.95C219.774 180.95 218.772 180.53 217.944 179.69C217.128 178.838 216.72 177.788 216.72 176.54ZM219.618 174.668C219.126 175.148 218.88 175.772 218.88 176.54C218.88 177.308 219.126 177.938 219.618 178.43C220.11 178.91 220.764 179.15 221.58 179.15C222.396 179.15 223.05 178.91 223.542 178.43C224.034 177.938 224.28 177.308 224.28 176.54C224.28 175.772 224.034 175.148 223.542 174.668C223.05 174.176 222.396 173.93 221.58 173.93C220.764 173.93 220.11 174.176 219.618 174.668ZM227.794 181.58C227.794 180.488 228.214 179.618 229.054 178.97C229.414 178.718 229.834 178.526 230.314 178.394V178.286C229.942 178.142 229.612 177.944 229.324 177.692C228.664 177.128 228.334 176.384 228.334 175.46C228.334 174.512 228.736 173.708 229.54 173.048C230.356 172.376 231.454 172.04 232.834 172.04C234.214 172.04 235.306 172.376 236.11 173.048C236.926 173.708 237.334 174.512 237.334 175.46C237.334 176.36 237.004 177.104 236.344 177.692C236.032 177.944 235.702 178.142 235.354 178.286V178.394C235.81 178.514 236.23 178.712 236.614 178.988C237.454 179.636 237.874 180.5 237.874 181.58C237.874 182.624 237.418 183.518 236.506 184.262C235.606 184.994 234.382 185.36 232.834 185.36C231.286 185.36 230.056 184.994 229.144 184.262C228.244 183.518 227.794 182.624 227.794 181.58ZM230.494 175.64C230.494 176.168 230.698 176.6 231.106 176.936C231.514 177.272 232.09 177.44 232.834 177.44C233.578 177.44 234.154 177.272 234.562 176.936C234.97 176.6 235.174 176.168 235.174 175.64C235.174 175.16 234.964 174.758 234.544 174.434C234.136 174.098 233.566 173.93 232.834 173.93C232.102 173.93 231.526 174.098 231.106 174.434C230.698 174.758 230.494 175.16 230.494 175.64ZM230.71 179.942C230.206 180.338 229.954 180.824 229.954 181.4C229.954 181.976 230.206 182.468 230.71 182.876C231.226 183.272 231.934 183.47 232.834 183.47C233.734 183.47 234.436 183.272 234.94 182.876C235.456 182.468 235.714 181.976 235.714 181.4C235.714 180.824 235.456 180.338 234.94 179.942C234.436 179.534 233.734 179.33 232.834 179.33C231.934 179.33 231.226 179.534 230.71 179.942ZM239.308 184.01C239.308 183.65 239.422 183.35 239.65 183.11C239.89 182.87 240.184 182.75 240.532 182.75C240.928 182.75 241.24 182.894 241.468 183.182C241.708 183.47 241.828 183.896 241.828 184.46C241.828 185.384 241.606 186.092 241.162 186.584C240.73 187.088 240.142 187.34 239.398 187.34V186.44C239.758 186.44 240.04 186.338 240.244 186.134C240.46 185.942 240.568 185.684 240.568 185.36V185.252C240.556 185.24 240.55 185.216 240.55 185.18V185.126L240.442 185.162C240.406 185.174 240.328 185.18 240.208 185.18C239.968 185.18 239.758 185.072 239.578 184.856C239.398 184.64 239.308 184.358 239.308 184.01ZM243.083 181.4H245.243C245.327 181.772 245.489 182.102 245.729 182.39C246.269 183.05 247.037 183.38 248.033 183.38C248.861 183.38 249.515 183.176 249.995 182.768C250.487 182.348 250.733 181.832 250.733 181.22C250.733 180.524 250.511 179.978 250.067 179.582C249.635 179.174 249.017 178.97 248.213 178.97H245.153V177.17L248.933 174.47V174.38H243.713V172.4H251.993V174.362L248.753 176.72L247.853 177.08V177.17L248.141 177.134C248.537 177.098 248.771 177.08 248.843 177.08C249.971 177.08 250.913 177.47 251.669 178.25C252.425 179.03 252.803 180.02 252.803 181.22C252.803 182.372 252.359 183.35 251.471 184.154C250.583 184.958 249.437 185.36 248.033 185.36C246.173 185.36 244.799 184.7 243.911 183.38C243.527 182.816 243.251 182.156 243.083 181.4ZM253.711 182.48V180.5L257.941 172.4H260.191L255.961 180.5H260.101V177.44H260.191H262.171V180.5H263.971V182.48H262.171V185H260.101V182.48H253.711Z" fill="white"/>
<path d="M85.49 235.78C85.49 235.332 85.588 234.865 85.784 234.38C85.9893 233.885 86.1853 233.498 86.372 233.218C86.568 232.929 86.834 232.569 87.17 232.14L89.41 229.2H91.3L89.186 231.958L88.57 232.49V232.56L88.85 232.462C89.13 232.387 89.4333 232.35 89.76 232.35C90.6747 232.35 91.4493 232.681 92.084 233.344C92.728 233.997 93.05 234.809 93.05 235.78C93.05 236.769 92.6953 237.6 91.986 238.272C91.2767 238.944 90.3713 239.28 89.27 239.28C88.1687 239.28 87.2633 238.944 86.554 238.272C85.8447 237.6 85.49 236.769 85.49 235.78ZM87.744 234.324C87.3613 234.697 87.17 235.183 87.17 235.78C87.17 236.377 87.3613 236.867 87.744 237.25C88.1267 237.623 88.6353 237.81 89.27 237.81C89.9047 237.81 90.4133 237.623 90.796 237.25C91.1787 236.867 91.37 236.377 91.37 235.78C91.37 235.183 91.1787 234.697 90.796 234.324C90.4133 233.941 89.9047 233.75 89.27 233.75C88.6353 233.75 88.1267 233.941 87.744 234.324ZM94.1733 238.23C94.1733 237.95 94.2619 237.717 94.4393 237.53C94.6259 237.343 94.8546 237.25 95.1253 237.25C95.4333 237.25 95.6759 237.362 95.8533 237.586C96.0399 237.81 96.1333 238.141 96.1333 238.58C96.1333 239.299 95.9606 239.849 95.6153 240.232C95.2793 240.624 94.8219 240.82 94.2433 240.82V240.12C94.5233 240.12 94.7426 240.041 94.9013 239.882C95.0693 239.733 95.1533 239.532 95.1533 239.28V239.196C95.1439 239.187 95.1393 239.168 95.1393 239.14V239.098L95.0553 239.126C95.0273 239.135 94.9666 239.14 94.8733 239.14C94.6866 239.14 94.5233 239.056 94.3833 238.888C94.2433 238.72 94.1733 238.501 94.1733 238.23ZM98.6495 237.824C97.7628 236.853 97.3195 235.612 97.3195 234.1C97.3195 232.588 97.7628 231.347 98.6495 230.376C99.5361 229.405 100.609 228.92 101.869 228.92C103.129 228.92 104.203 229.405 105.089 230.376C105.976 231.347 106.419 232.588 106.419 234.1C106.419 235.612 105.976 236.853 105.089 237.824C104.203 238.795 103.129 239.28 101.869 239.28C100.609 239.28 99.5361 238.795 98.6495 237.824ZM99.7975 231.412C99.2655 232.047 98.9995 232.943 98.9995 234.1C98.9995 235.257 99.2655 236.153 99.7975 236.788C100.339 237.423 101.029 237.74 101.869 237.74C102.709 237.74 103.395 237.423 103.927 236.788C104.469 236.153 104.739 235.257 104.739 234.1C104.739 232.943 104.469 232.047 103.927 231.412C103.395 230.777 102.709 230.46 101.869 230.46C101.029 230.46 100.339 230.777 99.7975 231.412ZM109.013 237.824C108.126 236.853 107.683 235.612 107.683 234.1C107.683 232.588 108.126 231.347 109.013 230.376C109.899 229.405 110.973 228.92 112.233 228.92C113.493 228.92 114.566 229.405 115.453 230.376C116.339 231.347 116.783 232.588 116.783 234.1C116.783 235.612 116.339 236.853 115.453 237.824C114.566 238.795 113.493 239.28 112.233 239.28C110.973 239.28 109.899 238.795 109.013 237.824ZM110.161 231.412C109.629 232.047 109.363 232.943 109.363 234.1C109.363 235.257 109.629 236.153 110.161 236.788C110.702 237.423 111.393 237.74 112.233 237.74C113.073 237.74 113.759 237.423 114.291 236.788C114.832 236.153 115.103 235.257 115.103 234.1C115.103 232.943 114.832 232.047 114.291 231.412C113.759 230.777 113.073 230.46 112.233 230.46C111.393 230.46 110.702 230.777 110.161 231.412Z" fill="#333333"/>
<path d="M73.21 37.04V35.5L76.5 29.2H78.25L74.96 35.5H78.18V33.12H78.25H79.79V35.5H81.19V37.04H79.79V39H78.18V37.04H73.21ZM81.7495 38.23C81.7495 37.95 81.8381 37.7167 82.0155 37.53C82.2021 37.3433 82.4308 37.25 82.7015 37.25C83.0095 37.25 83.2521 37.362 83.4295 37.586C83.6161 37.81 83.7095 38.1413 83.7095 38.58C83.7095 39.2987 83.5368 39.8493 83.1915 40.232C82.8555 40.624 82.3981 40.82 81.8195 40.82V40.12C82.0995 40.12 82.3188 40.0407 82.4775 39.882C82.6455 39.7327 82.7295 39.532 82.7295 39.28V39.196C82.7201 39.1867 82.7155 39.168 82.7155 39.14V39.098L82.6315 39.126C82.6035 39.1353 82.5428 39.14 82.4495 39.14C82.2628 39.14 82.0995 39.056 81.9595 38.888C81.8195 38.72 81.7495 38.5007 81.7495 38.23ZM84.4056 30.74V29.2H91.0556V30.74L87.1356 39H85.3856L89.2356 30.88V30.74H84.4056ZM91.5505 35.78C91.5505 35.332 91.6485 34.8653 91.8445 34.38C92.0499 33.8853 92.2459 33.498 92.4325 33.218C92.6285 32.9287 92.8945 32.5693 93.2305 32.14L95.4705 29.2H97.3605L95.2465 31.958L94.6305 32.49V32.56L94.9105 32.462C95.1905 32.3873 95.4939 32.35 95.8205 32.35C96.7352 32.35 97.5099 32.6813 98.1445 33.344C98.7885 33.9973 99.1105 34.8093 99.1105 35.78C99.1105 36.7693 98.7559 37.6 98.0465 38.272C97.3372 38.944 96.4319 39.28 95.3305 39.28C94.2292 39.28 93.3239 38.944 92.6145 38.272C91.9052 37.6 91.5505 36.7693 91.5505 35.78ZM93.8045 34.324C93.4219 34.6973 93.2305 35.1827 93.2305 35.78C93.2305 36.3773 93.4219 36.8673 93.8045 37.25C94.1872 37.6233 94.6959 37.81 95.3305 37.81C95.9652 37.81 96.4739 37.6233 96.8565 37.25C97.2392 36.8673 97.4305 36.3773 97.4305 35.78C97.4305 35.1827 97.2392 34.6973 96.8565 34.324C96.4739 33.9413 95.9652 33.75 95.3305 33.75C94.6959 33.75 94.1872 33.9413 93.8045 34.324Z" fill="#333333"/>
<path d="M167.35 335.42V333.6L169.17 332.2H170.64V342H169.03V334.16L167.35 335.42ZM172.181 339.27H173.861C173.936 339.559 174.062 339.807 174.239 340.012C174.65 340.497 175.247 340.74 176.031 340.74C176.656 340.74 177.151 340.572 177.515 340.236C177.879 339.9 178.061 339.461 178.061 338.92C178.061 338.351 177.879 337.893 177.515 337.548C177.151 337.203 176.656 337.03 176.031 337.03C175.452 337.03 174.962 337.184 174.561 337.492C174.402 337.613 174.262 337.763 174.141 337.94H172.601L173.021 332.2H178.971V333.74H174.351L174.141 336.26H174.211C174.36 336.111 174.533 335.985 174.729 335.882C175.168 335.621 175.695 335.49 176.311 335.49C177.291 335.49 178.108 335.817 178.761 336.47C179.414 337.123 179.741 337.94 179.741 338.92C179.741 339.881 179.396 340.684 178.705 341.328C178.024 341.963 177.132 342.28 176.031 342.28C174.594 342.28 173.525 341.781 172.825 340.782C172.526 340.343 172.312 339.839 172.181 339.27ZM180.794 341.23C180.794 340.95 180.883 340.717 181.06 340.53C181.247 340.343 181.476 340.25 181.746 340.25C182.054 340.25 182.297 340.362 182.474 340.586C182.661 340.81 182.754 341.141 182.754 341.58C182.754 342.299 182.582 342.849 182.236 343.232C181.9 343.624 181.443 343.82 180.864 343.82V343.12C181.144 343.12 181.364 343.041 181.522 342.882C181.69 342.733 181.774 342.532 181.774 342.28V342.196C181.765 342.187 181.76 342.168 181.76 342.14V342.098L181.676 342.126C181.648 342.135 181.588 342.14 181.494 342.14C181.308 342.14 181.144 342.056 181.004 341.888C180.864 341.72 180.794 341.501 180.794 341.23ZM183.521 340.04V338.5L186.811 332.2H188.561L185.271 338.5H188.491V336.12H188.561H190.101V338.5H191.501V340.04H190.101V342H188.491V340.04H183.521ZM192.06 339.27H193.74C193.815 339.559 193.941 339.807 194.118 340.012C194.529 340.497 195.126 340.74 195.91 340.74C196.535 340.74 197.03 340.572 197.394 340.236C197.758 339.9 197.94 339.461 197.94 338.92C197.94 338.351 197.758 337.893 197.394 337.548C197.03 337.203 196.535 337.03 195.91 337.03C195.331 337.03 194.841 337.184 194.44 337.492C194.281 337.613 194.141 337.763 194.02 337.94H192.48L192.9 332.2H198.85V333.74H194.23L194.02 336.26H194.09C194.239 336.111 194.412 335.985 194.608 335.882C195.047 335.621 195.574 335.49 196.19 335.49C197.17 335.49 197.987 335.817 198.64 336.47C199.293 337.123 199.62 337.94 199.62 338.92C199.62 339.881 199.275 340.684 198.584 341.328C197.903 341.963 197.011 342.28 195.91 342.28C194.473 342.28 193.404 341.781 192.704 340.782C192.405 340.343 192.191 339.839 192.06 339.27Z" fill="#333333"/>
<path d="M367.21 189.04V187.5L370.5 181.2H372.25L368.96 187.5H372.18V185.12H372.25H373.79V187.5H375.19V189.04H373.79V191H372.18V189.04H367.21ZM374.906 182.74V181.2H381.556V182.74L377.636 191H375.886L379.736 182.88V182.74H374.906ZM380.999 190.23C380.999 189.95 381.088 189.717 381.265 189.53C381.452 189.343 381.681 189.25 381.951 189.25C382.259 189.25 382.502 189.362 382.679 189.586C382.866 189.81 382.959 190.141 382.959 190.58C382.959 191.299 382.787 191.849 382.441 192.232C382.105 192.624 381.648 192.82 381.069 192.82V192.12C381.349 192.12 381.569 192.041 381.727 191.882C381.895 191.733 381.979 191.532 381.979 191.28V191.196C381.97 191.187 381.965 191.168 381.965 191.14V191.098L381.881 191.126C381.853 191.135 381.793 191.14 381.699 191.14C381.513 191.14 381.349 191.056 381.209 190.888C381.069 190.72 380.999 190.501 380.999 190.23ZM385.476 189.824C384.589 188.853 384.146 187.612 384.146 186.1C384.146 184.588 384.589 183.347 385.476 182.376C386.362 181.405 387.436 180.92 388.696 180.92C389.956 180.92 391.029 181.405 391.916 182.376C392.802 183.347 393.246 184.588 393.246 186.1C393.246 187.612 392.802 188.853 391.916 189.824C391.029 190.795 389.956 191.28 388.696 191.28C387.436 191.28 386.362 190.795 385.476 189.824ZM386.624 183.412C386.092 184.047 385.826 184.943 385.826 186.1C385.826 187.257 386.092 188.153 386.624 188.788C387.165 189.423 387.856 189.74 388.696 189.74C389.536 189.74 390.222 189.423 390.754 188.788C391.295 188.153 391.566 187.257 391.566 186.1C391.566 184.943 391.295 184.047 390.754 183.412C390.222 182.777 389.536 182.46 388.696 182.46C387.856 182.46 387.165 182.777 386.624 183.412ZM394.439 188.27H396.119C396.194 188.559 396.32 188.807 396.497 189.012C396.908 189.497 397.505 189.74 398.289 189.74C398.914 189.74 399.409 189.572 399.773 189.236C400.137 188.9 400.319 188.461 400.319 187.92C400.319 187.351 400.137 186.893 399.773 186.548C399.409 186.203 398.914 186.03 398.289 186.03C397.71 186.03 397.22 186.184 396.819 186.492C396.66 186.613 396.52 186.763 396.399 186.94H394.859L395.279 181.2H401.229V182.74H396.609L396.399 185.26H396.469C396.618 185.111 396.791 184.985 396.987 184.882C397.426 184.621 397.953 184.49 398.569 184.49C399.549 184.49 400.366 184.817 401.019 185.47C401.672 186.123 401.999 186.94 401.999 187.92C401.999 188.881 401.654 189.684 400.963 190.328C400.282 190.963 399.39 191.28 398.289 191.28C396.852 191.28 395.783 190.781 395.083 189.782C394.784 189.343 394.57 188.839 394.439 188.27Z" fill="#333333"/>
<path d="M64.374 250.108L64.374 275.104L88.6988 275.104L88.6988 250.108L64.374 250.108Z" fill="white" stroke="#5A5A5A" stroke-width="0.5"/>
<path d="M65.3008 273.077L65.3008 253.624C65.3008 252.886 65.6934 252.494 66.4628 252.494L86.6105 252.494C87.3956 252.494 87.7725 252.87 87.7725 253.624L87.7725 273.077C87.7882 273.831 87.3956 274.208 86.6262 274.208L66.4785 274.208C65.6934 274.223 65.3008 273.831 65.3008 273.077Z" fill="white" stroke="#5A5A5A" stroke-width="0.5"/>
<path d="M71.8014 271.288C73.5916 271.272 75.052 269.859 75.052 268.117C75.052 266.358 73.5916 264.945 71.8014 264.945C69.9955 264.945 68.5508 266.358 68.5508 268.117C68.5508 269.875 69.9955 271.288 71.8014 271.288Z" stroke="#5A5A5A" stroke-width="0.5"/>
<path d="M81.4275 271.258C83.2177 271.242 84.6781 269.829 84.6781 268.086C84.6781 266.328 83.2177 264.915 81.4275 264.915C79.6216 264.915 78.1769 266.328 78.1769 268.086C78.1612 269.845 79.6216 271.273 81.4275 271.258Z" stroke="#5A5A5A" stroke-width="0.5"/>
<path d="M81.4274 262.244C83.2333 262.244 84.678 260.831 84.678 259.073C84.678 257.314 83.2176 255.901 81.4274 255.901C79.6372 255.917 78.1768 257.33 78.1768 259.073C78.1768 260.815 79.6372 262.244 81.4274 262.244Z" stroke="#5A5A5A" stroke-width="0.5"/>
<path d="M71.8014 262.244C73.6073 262.244 75.052 260.831 75.052 259.073C75.052 257.314 73.5916 255.901 71.8014 255.901C70.0112 255.917 68.5508 257.33 68.5508 259.073C68.5508 260.815 70.0112 262.244 71.8014 262.244Z" stroke="#5A5A5A" stroke-width="0.5"/>
<path d="M16.0151 229H40.1036L40.1036 252.699H16L16.0151 229Z" fill="white" stroke="#5A5A5A" stroke-width="0.5"/>
<path d="M22.6218 230.803L35.9386 230.803C36.681 230.803 37.0446 231.167 37.0446 231.925L37.0446 249.532C37.0446 250.259 36.681 250.638 35.9538 250.653L22.6218 250.638C21.8946 250.653 21.531 250.275 21.531 249.532L21.531 231.925C21.5007 231.182 21.8794 230.803 22.6218 230.803Z" fill="white" stroke="#5A5A5A" stroke-width="0.5"/>
<path d="M17.8633 240.728C17.8784 241.653 18.5753 242.395 19.454 242.395L26.4382 241.744L26.4533 241.728C26.9836 241.728 27.4078 241.289 27.4078 240.728C27.4078 240.168 26.9836 239.728 26.4382 239.713L19.454 239.062C18.5905 239.062 17.8784 239.804 17.8633 240.728Z" stroke="#5A5A5A" stroke-width="0.5"/>
<mask id="path-18-inside-1_43_11838" fill="white">
<path fill-rule="evenodd" clip-rule="evenodd" d="M18.5459 242.107L22.3485 241.744C22.8788 241.729 23.3181 241.289 23.303 240.713C23.303 240.153 22.8788 239.728 22.3485 239.713L18.5459 239.35"/>
</mask>
<path fill-rule="evenodd" clip-rule="evenodd" d="M18.5459 242.107L22.3485 241.744C22.8788 241.729 23.3181 241.289 23.303 240.713C23.303 240.153 22.8788 239.728 22.3485 239.713L18.5459 239.35" fill="white"/>
<path d="M22.3485 241.744L22.3343 241.244L22.3176 241.244L22.3009 241.246L22.3485 241.744ZM23.303 240.713H22.8028L22.8032 240.727L23.303 240.713ZM22.3485 239.713L22.3009 240.211L22.3176 240.213L22.3343 240.213L22.3485 239.713ZM18.5935 242.605L22.3961 242.241L22.3009 241.246L18.4983 241.61L18.5935 242.605ZM22.3628 242.244C23.1678 242.221 23.8252 241.552 23.8028 240.7L22.8032 240.727C22.811 241.026 22.5898 241.237 22.3343 241.244L22.3628 242.244ZM23.803 240.713C23.803 239.884 23.1654 239.236 22.3628 239.213L22.3343 240.213C22.5922 240.22 22.803 240.421 22.803 240.713H23.803ZM22.3961 239.216L18.5935 238.852L18.4983 239.847L22.3009 240.211L22.3961 239.216Z" fill="#5A5A5A" mask="url(#path-18-inside-1_43_11838)"/>
<path d="M311 373L242 373L242 478L311 478L311 373Z" fill="#FDFF9F"/>
<path d="M459 291L373 291L373 470L459 470L459 291Z" fill="#FDFF9F"/>
<path d="M432.476 310.72L433.657 310.736L436.723 310.72L444.314 310.72L444.314 320.677L432.476 320.677C429.459 320.677 427 318.433 427 315.682C427 312.963 429.459 310.72 432.476 310.72Z" fill="white" stroke="#5A5A5A" stroke-width="0.5"/>
<path d="M432.542 311.866L433.476 311.866L441.035 311.866L441.035 319.547L433.476 319.547L432.542 319.53C430.164 319.53 428.229 317.827 428.229 315.698C428.246 313.586 430.181 311.866 432.542 311.866Z" fill="white" stroke="#5A5A5A" stroke-width="0.5"/>
<path d="M450.676 322.478L445.413 322.478C444.806 322.478 444.314 321.987 444.314 321.381L444.314 310.097C444.314 309.491 444.806 309 445.413 309L450.676 309C451.283 309 451.775 309.491 451.775 310.097L451.775 321.365C451.775 321.987 451.283 322.478 450.676 322.478Z" fill="white" stroke="#5A5A5A" stroke-width="0.5"/>
<path d="M448.052 316.386C447.642 316.386 447.331 316.091 447.331 315.747C447.314 315.387 447.642 315.092 448.052 315.092C448.462 315.092 448.773 315.387 448.773 315.731C448.757 316.108 448.445 316.402 448.052 316.386Z" fill="white" stroke="#5A5A5A" stroke-width="0.5"/>
<path d="M388 344.848L388 332.54C388 331.685 388.684 331 389.539 331L408.058 331C408.913 331 409.597 331.685 409.597 332.54L409.597 344.848C409.597 345.704 408.913 346.389 408.058 346.389L389.539 346.389C388.698 346.389 388 345.704 388 344.848Z" fill="white" stroke="#5A5A5A" stroke-width="0.5"/>
<path d="M389.924 340.156L389.924 338.259C389.924 335.764 391.947 333.738 394.44 333.738L403.158 333.738C405.651 333.738 407.674 335.764 407.674 338.259L407.674 340.156C407.674 342.652 405.651 344.677 403.158 344.677L394.44 344.677C391.947 344.677 389.924 342.652 389.924 340.156Z" fill="white" stroke="#5A5A5A" stroke-width="0.5"/>
<path d="M397.844 342.267C397.844 341.724 398.271 341.283 398.799 341.283C399.326 341.283 399.753 341.724 399.753 342.267C399.753 342.81 399.326 343.251 398.799 343.251C398.271 343.251 397.844 342.81 397.844 342.267Z" fill="white" stroke="#5A5A5A" stroke-width="0.5"/>
<rect x="202" y="55" width="30" height="70" transform="rotate(90 202 55)" fill="#5A5A5A"/>
<line x1="133.218" y1="75.4499" x2="100.218" y2="91.4499" stroke="#5A5A5A"/>
<path d="M145.75 0.250157L35.2933 0.313212L35.2523 4.74999L145.75 4.75L145.75 0.250157Z" stroke="#5A5A5A" stroke-width="0.5" stroke-miterlimit="10"/>
<rect x="162" width="5" height="82" fill="#5A5A5A"/>
<rect x="20" y="3" width="5" height="79" fill="#5A5A5A"/>
<rect x="39" width="5" height="19" transform="rotate(90 39 0)" fill="#5A5A5A"/>
<rect x="164" width="5.00001" height="134" transform="rotate(90 164 0)" fill="#5A5A5A"/>
<path d="M99.75 55.2503L36.2749 55.3131L36.2513 59.75L99.75 59.75L99.75 55.2503Z" stroke="#5A5A5A" stroke-width="0.5" stroke-miterlimit="10"/>
<path d="M99.75 65.2503L36.2749 65.3131L36.2513 69.75L99.75 69.75L99.75 65.2503Z" stroke="#5A5A5A" stroke-width="0.5" stroke-miterlimit="10"/>
<rect x="358" y="55" width="30" height="82" transform="rotate(90 358 55)" fill="#5A5A5A"/>
<rect x="468" y="55" width="30" height="45" transform="rotate(90 468 55)" fill="#5A5A5A"/>
<rect x="452" y="61" width="16" height="607" fill="#5A5A5A"/>
<rect y="55" width="16" height="236" fill="#5A5A5A"/>
<rect x="145" y="275" width="16" height="145" transform="rotate(90 145 275)" fill="#5A5A5A"/>
<rect x="16" y="203" width="2" height="6" transform="rotate(-90 16 203)" fill="#5A5A5A"/>
<rect x="27" y="203" width="2" height="11" transform="rotate(-90 27 203)" fill="#5A5A5A"/>
<rect x="44" y="203" width="2" height="11" transform="rotate(-90 44 203)" fill="#5A5A5A"/>
<rect x="61" y="203" width="2" height="11" transform="rotate(-90 61 203)" fill="#5A5A5A"/>
<rect x="78" y="203" width="2" height="11" transform="rotate(-90 78 203)" fill="#5A5A5A"/>
<rect x="95" y="203" width="2" height="11" transform="rotate(-90 95 203)" fill="#5A5A5A"/>
<rect x="115" y="203" width="2" height="11" transform="rotate(-90 115 203)" fill="#5A5A5A"/>
<rect x="130" y="203" width="2" height="11" transform="rotate(-90 130 203)" fill="#5A5A5A"/>
<rect x="145" y="291" width="2" height="6" transform="rotate(180 145 291)" fill="#5A5A5A"/>
<rect x="145" y="280" width="2" height="11" transform="rotate(180 145 280)" fill="#5A5A5A"/>
<rect x="145" y="263" width="2" height="11" transform="rotate(180 145 263)" fill="#5A5A5A"/>
<rect x="145" y="246" width="2" height="11" transform="rotate(180 145 246)" fill="#5A5A5A"/>
<rect x="145" y="229" width="2" height="11" transform="rotate(180 145 229)" fill="#5A5A5A"/>
<rect x="145" y="212" width="2" height="11" transform="rotate(180 145 212)" fill="#5A5A5A"/>
<rect x="140" y="322" width="16" height="46" transform="rotate(-180 140 322)" fill="#5A5A5A"/>
<rect x="140" y="407" width="16" height="46" transform="rotate(-180 140 407)" fill="#5A5A5A"/>
<rect x="132" y="407" width="16" height="113" transform="rotate(-90 132 407)" fill="#5A5A5A"/>
<rect x="229" y="399" width="16" height="86" fill="#5A5A5A"/>
<rect x="289" y="470" width="16" height="212" fill="#5A5A5A"/>
<rect x="321" y="469" width="16" height="84" transform="rotate(90 321 469)" fill="#5A5A5A"/>
<rect x="455" y="469" width="16" height="94" transform="rotate(90 455 469)" fill="#5A5A5A"/>
<rect x="459" y="275" width="16" height="98" transform="rotate(90 459 275)" fill="#5A5A5A"/>
<rect x="321" y="275" width="16" height="21" transform="rotate(90 321 275)" fill="#5A5A5A"/>
<rect x="262" y="275" width="16" height="78" transform="rotate(90 262 275)" fill="#5A5A5A"/>
<rect x="468" y="665" width="30" height="45" transform="rotate(90 468 665)" fill="#5A5A5A"/>
<rect x="354" y="665" width="30" height="65" transform="rotate(90 354 665)" fill="#5A5A5A"/>
<path d="M430.75 55.2501L136.369 55.4019L136.253 66.75L430.75 66.75L430.75 55.2501Z" stroke="#5A5A5A" stroke-width="0.5" stroke-miterlimit="10"/>
<path d="M437.75 665.25L298.306 665.402L298.251 676.75L437.75 676.75L437.75 665.25Z" stroke="#5A5A5A" stroke-width="0.5" stroke-miterlimit="10"/>
<path d="M430.75 73.2501L136.369 73.4019L136.253 84.75L430.75 84.75L430.75 73.2501Z" stroke="#5A5A5A" stroke-width="0.5" stroke-miterlimit="10"/>
<path d="M437.75 683.25L298.306 683.402L298.251 694.75L437.75 694.75L437.75 683.25Z" stroke="#5A5A5A" stroke-width="0.5" stroke-miterlimit="10"/>
<rect x="309" y="365" width="8" height="110" fill="#5A5A5A"/>
<rect x="365" y="415" width="8" height="70" fill="#5A5A5A"/>
<rect x="365" y="334" width="8" height="50" fill="#5A5A5A"/>
<rect x="365" y="276" width="8" height="26" fill="#5A5A5A"/>
<rect x="455" y="346" width="8" height="86" transform="rotate(90 455 346)" fill="#5A5A5A"/>
<path d="M433.105 371.72L434.286 371.736L437.352 371.72L444.943 371.72L444.943 381.677L433.105 381.677C430.088 381.677 427.629 379.433 427.629 376.682C427.629 373.963 430.088 371.72 433.105 371.72Z" fill="white" stroke="#5A5A5A" stroke-width="0.5"/>
<path d="M433.17 372.866L434.105 372.866L441.663 372.866L441.663 380.547L434.105 380.547L433.17 380.53C430.793 380.53 428.858 378.827 428.858 376.698C428.875 374.586 430.809 372.866 433.17 372.866Z" fill="white" stroke="#5A5A5A" stroke-width="0.5"/>
<path d="M451.305 383.478L446.042 383.478C445.435 383.478 444.943 382.987 444.943 382.381L444.943 371.097C444.943 370.491 445.435 370 446.042 370L451.305 370C451.912 370 452.403 370.491 452.403 371.097L452.403 382.365C452.403 382.987 451.912 383.478 451.305 383.478Z" fill="white" stroke="#5A5A5A" stroke-width="0.5"/>
<path d="M448.681 377.386C448.271 377.386 447.96 377.091 447.96 376.747C447.943 376.387 448.271 376.092 448.681 376.092C449.091 376.092 449.402 376.387 449.402 376.731C449.386 377.108 449.074 377.402 448.681 377.386Z" fill="white" stroke="#5A5A5A" stroke-width="0.5"/>
<path d="M264.37 426.425L263.189 426.409L260.123 426.425L252.532 426.425L252.532 416.468L264.37 416.468C267.386 416.468 269.846 418.712 269.846 421.463C269.846 424.182 267.386 426.425 264.37 426.425Z" fill="white" stroke="#5A5A5A" stroke-width="0.5"/>
<path d="M264.304 425.279L263.37 425.279L255.811 425.279L255.811 417.598L263.37 417.598L264.304 417.615C266.682 417.615 268.616 419.318 268.616 421.447C268.6 423.559 266.665 425.279 264.304 425.279Z" fill="white" stroke="#5A5A5A" stroke-width="0.5"/>
<path d="M246.17 414.667L251.433 414.667C252.039 414.667 252.531 415.158 252.531 415.764L252.531 427.048C252.531 427.654 252.039 428.145 251.433 428.145L246.17 428.145C245.563 428.145 245.071 427.654 245.071 427.048L245.071 415.78C245.071 415.158 245.563 414.667 246.17 414.667Z" fill="white" stroke="#5A5A5A" stroke-width="0.5"/>
<path d="M248.794 420.759C249.204 420.759 249.515 421.054 249.515 421.398C249.531 421.758 249.204 422.053 248.794 422.053C248.384 422.053 248.072 421.758 248.072 421.414C248.089 421.037 248.4 420.743 248.794 420.759Z" fill="white" stroke="#5A5A5A" stroke-width="0.5"/>
<path d="M450.934 414.145L438.626 414.145C437.771 414.145 437.086 413.461 437.086 412.607L437.086 394.087C437.086 393.233 437.771 392.549 438.626 392.549L450.934 392.549C451.79 392.549 452.475 393.233 452.475 394.087L452.475 412.607C452.475 413.447 451.79 414.145 450.934 414.145Z" fill="white" stroke="#5A5A5A" stroke-width="0.5"/>
<path d="M446.243 412.222L444.346 412.222C441.85 412.222 439.825 410.199 439.825 407.706L439.825 398.988C439.825 396.495 441.85 394.472 444.346 394.472L446.243 394.472C448.738 394.472 450.764 396.495 450.764 398.988L450.764 407.706C450.764 410.199 448.738 412.222 446.243 412.222Z" fill="white" stroke="#5A5A5A" stroke-width="0.5"/>
<path d="M448.353 404.302C447.809 404.302 447.369 403.875 447.369 403.347C447.369 402.82 447.809 402.393 448.353 402.393C448.896 402.393 449.337 402.82 449.337 403.347C449.337 403.875 448.896 404.302 448.353 404.302Z" fill="white" stroke="#5A5A5A" stroke-width="0.5"/>
<path d="M246.54 384L258.848 384C259.704 384 260.389 384.684 260.389 385.539L260.389 404.058C260.389 404.913 259.704 405.596 258.848 405.596L246.54 405.596C245.685 405.596 245 404.913 245 404.058L245 385.539C245 384.698 245.685 384 246.54 384Z" fill="white" stroke="#5A5A5A" stroke-width="0.5"/>
<path d="M251.232 385.923L253.129 385.923C255.625 385.923 257.65 387.946 257.65 390.439L257.65 399.157C257.65 401.65 255.625 403.673 253.129 403.673L251.232 403.673C248.736 403.673 246.711 401.65 246.711 399.157L246.711 390.439C246.711 387.946 248.736 385.923 251.232 385.923Z" fill="white" stroke="#5A5A5A" stroke-width="0.5"/>
<path d="M249.122 393.843C249.665 393.843 250.106 394.271 250.106 394.798C250.106 395.325 249.665 395.752 249.122 395.752C248.578 395.752 248.138 395.325 248.138 394.798C248.138 394.271 248.578 393.843 249.122 393.843Z" fill="white" stroke="#5A5A5A" stroke-width="0.5"/>
<path d="M450.136 442.844L390.015 442.844C389.245 442.844 388.629 443.459 388.629 444.228L388.629 468.095C388.629 468.864 389.245 469.479 390.015 469.479L450.136 469.479C450.906 469.479 451.521 468.864 451.521 468.095L451.521 444.228C451.521 443.459 450.892 442.844 450.136 442.844Z" fill="white" stroke="#5A5A5A" stroke-width="0.5"/>
<path d="M392.324 452.925L392.324 459.412C392.324 463.173 395.376 466.208 399.127 466.208L446.468 466.208C447.392 466.208 448.134 465.466 448.134 464.544L448.134 447.765C448.134 446.843 447.392 446.102 446.468 446.102L399.141 446.102C395.376 446.116 392.324 449.164 392.324 452.925Z" fill="white" stroke="#5A5A5A" stroke-width="0.5"/>
<path d="M442.521 455.693C442.521 454.944 443.154 454.336 443.935 454.336C444.716 454.336 445.349 454.944 445.349 455.693C445.349 456.442 444.716 457.049 443.935 457.049C443.154 457.049 442.521 456.442 442.521 455.693Z" fill="white" stroke="#5A5A5A" stroke-width="0.5"/>
<path d="M373 376.024L373 354.014L394.588 354L394.574 376.01L373 376.024Z" fill="white" stroke="#5A5A5A" stroke-width="0.5"/>
<path d="M389.331 365.005C389.331 361.891 386.856 359.377 383.794 359.377C380.732 359.377 378.258 361.891 378.258 365.019C378.258 368.133 380.732 370.675 383.794 370.675C386.856 370.661 389.331 368.119 389.331 365.005Z" stroke="#5A5A5A" stroke-width="0.5"/>
<path d="M383.794 369.125C384.913 369.139 385.919 368.678 386.646 367.924C387.373 367.17 387.821 366.136 387.835 365.019M383.808 360.885C384.913 360.885 385.919 361.346 386.66 362.086C387.387 362.84 387.849 363.86 387.849 365.005L383.808 360.885ZM383.794 369.125C382.689 369.125 381.683 368.664 380.942 367.924C380.215 367.17 379.767 366.136 379.767 365.005L383.794 369.125ZM383.808 360.885C382.675 360.885 381.669 361.346 380.956 362.086L380.942 362.1C380.229 362.84 379.767 363.86 379.767 364.991L383.808 360.885Z" stroke="#5A5A5A" stroke-width="0.5"/>
<rect x="237" y="365" width="8" height="110" fill="#5A5A5A"/>
<rect x="265" y="365" width="8" height="28" transform="rotate(90 265 365)" fill="#5A5A5A"/>
<rect x="317" y="365" width="8" height="22" transform="rotate(90 317 365)" fill="#5A5A5A"/>
<line x1="318.763" y1="470.56" x2="357.763" y2="449.56" stroke="#5A5A5A"/>
<line x1="366.556" y1="418.23" x2="351.556" y2="389.23" stroke="#5A5A5A"/>
<line x1="299.788" y1="367.453" x2="267.788" y2="352.453" stroke="#5A5A5A"/>
<line x1="139.256" y1="286.57" x2="181.256" y2="311.57" stroke="#5A5A5A"/>
<line x1="126.433" y1="318.251" x2="104.433" y2="356.251" stroke="#5A5A5A"/>
<line x1="367.447" y1="299.224" x2="352.447" y2="329.224" stroke="#5A5A5A"/>
<line x1="364.241" y1="288.438" x2="324.241" y2="310.438" stroke="#5A5A5A"/>
<line x1="303.242" y1="288.438" x2="265.242" y2="309.438" stroke="#5A5A5A"/>
<path d="M277.21 423.04V421.5L280.5 415.2H282.25L278.96 421.5H282.18V419.12H282.25H283.79V421.5H285.19V423.04H283.79V425H282.18V423.04H277.21ZM285.749 424.23C285.749 423.95 285.838 423.717 286.015 423.53C286.202 423.343 286.431 423.25 286.701 423.25C287.009 423.25 287.252 423.362 287.429 423.586C287.616 423.81 287.709 424.141 287.709 424.58C287.709 425.299 287.537 425.849 287.191 426.232C286.855 426.624 286.398 426.82 285.819 426.82V426.12C286.099 426.12 286.319 426.041 286.477 425.882C286.645 425.733 286.729 425.532 286.729 425.28V425.196C286.72 425.187 286.715 425.168 286.715 425.14V425.098L286.631 425.126C286.603 425.135 286.543 425.14 286.449 425.14C286.263 425.14 286.099 425.056 285.959 424.888C285.819 424.72 285.749 424.501 285.749 424.23ZM288.616 418.42V416.6L290.436 415.2H291.906V425H290.296V417.16L288.616 418.42ZM293.447 422.34C293.447 421.491 293.773 420.814 294.427 420.31C294.707 420.114 295.033 419.965 295.407 419.862V419.778C295.117 419.666 294.861 419.512 294.637 419.316C294.123 418.877 293.867 418.299 293.867 417.58C293.867 416.843 294.179 416.217 294.805 415.704C295.439 415.181 296.293 414.92 297.367 414.92C298.44 414.92 299.289 415.181 299.915 415.704C300.549 416.217 300.867 416.843 300.867 417.58C300.867 418.28 300.61 418.859 300.097 419.316C299.854 419.512 299.597 419.666 299.327 419.778V419.862C299.681 419.955 300.008 420.109 300.307 420.324C300.96 420.828 301.287 421.5 301.287 422.34C301.287 423.152 300.932 423.847 300.223 424.426C299.523 424.995 298.571 425.28 297.367 425.28C296.163 425.28 295.206 424.995 294.497 424.426C293.797 423.847 293.447 423.152 293.447 422.34ZM295.547 417.72C295.547 418.131 295.705 418.467 296.023 418.728C296.34 418.989 296.788 419.12 297.367 419.12C297.945 419.12 298.393 418.989 298.711 418.728C299.028 418.467 299.187 418.131 299.187 417.72C299.187 417.347 299.023 417.034 298.697 416.782C298.379 416.521 297.936 416.39 297.367 416.39C296.797 416.39 296.349 416.521 296.023 416.782C295.705 417.034 295.547 417.347 295.547 417.72ZM295.715 421.066C295.323 421.374 295.127 421.752 295.127 422.2C295.127 422.648 295.323 423.031 295.715 423.348C296.116 423.656 296.667 423.81 297.367 423.81C298.067 423.81 298.613 423.656 299.005 423.348C299.406 423.031 299.607 422.648 299.607 422.2C299.607 421.752 299.406 421.374 299.005 421.066C298.613 420.749 298.067 420.59 297.367 420.59C296.667 420.59 296.116 420.749 295.715 421.066Z" fill="#333333"/>
<path d="M325.35 418.42V416.6L327.17 415.2H328.64V425H327.03V417.16L325.35 418.42ZM330.181 422.27H331.861C331.936 422.559 332.062 422.807 332.239 423.012C332.65 423.497 333.247 423.74 334.031 423.74C334.656 423.74 335.151 423.572 335.515 423.236C335.879 422.9 336.061 422.461 336.061 421.92C336.061 421.351 335.879 420.893 335.515 420.548C335.151 420.203 334.656 420.03 334.031 420.03C333.452 420.03 332.962 420.184 332.561 420.492C332.402 420.613 332.262 420.763 332.141 420.94H330.601L331.021 415.2H336.971V416.74H332.351L332.141 419.26H332.211C332.36 419.111 332.533 418.985 332.729 418.882C333.168 418.621 333.695 418.49 334.311 418.49C335.291 418.49 336.108 418.817 336.761 419.47C337.414 420.123 337.741 420.94 337.741 421.92C337.741 422.881 337.396 423.684 336.705 424.328C336.024 424.963 335.132 425.28 334.031 425.28C332.594 425.28 331.525 424.781 330.825 423.782C330.526 423.343 330.312 422.839 330.181 422.27ZM338.794 424.23C338.794 423.95 338.883 423.717 339.06 423.53C339.247 423.343 339.476 423.25 339.746 423.25C340.054 423.25 340.297 423.362 340.474 423.586C340.661 423.81 340.754 424.141 340.754 424.58C340.754 425.299 340.582 425.849 340.236 426.232C339.9 426.624 339.443 426.82 338.864 426.82V426.12C339.144 426.12 339.364 426.041 339.522 425.882C339.69 425.733 339.774 425.532 339.774 425.28V425.196C339.765 425.187 339.76 425.168 339.76 425.14V425.098L339.676 425.126C339.648 425.135 339.588 425.14 339.494 425.14C339.308 425.14 339.144 425.056 339.004 424.888C338.864 424.72 338.794 424.501 338.794 424.23ZM341.521 423.04V421.5L344.811 415.2H346.561L343.271 421.5H346.491V419.12H346.561H348.101V421.5H349.501V423.04H348.101V425H346.491V423.04H341.521ZM350.06 422.27H351.74C351.815 422.559 351.941 422.807 352.118 423.012C352.529 423.497 353.126 423.74 353.91 423.74C354.535 423.74 355.03 423.572 355.394 423.236C355.758 422.9 355.94 422.461 355.94 421.92C355.94 421.351 355.758 420.893 355.394 420.548C355.03 420.203 354.535 420.03 353.91 420.03C353.331 420.03 352.841 420.184 352.44 420.492C352.281 420.613 352.141 420.763 352.02 420.94H350.48L350.9 415.2H356.85V416.74H352.23L352.02 419.26H352.09C352.239 419.111 352.412 418.985 352.608 418.882C353.047 418.621 353.574 418.49 354.19 418.49C355.17 418.49 355.987 418.817 356.64 419.47C357.293 420.123 357.62 420.94 357.62 421.92C357.62 422.881 357.275 423.684 356.584 424.328C355.903 424.963 355.011 425.28 353.91 425.28C352.473 425.28 351.404 424.781 350.704 423.782C350.405 423.343 350.191 422.839 350.06 422.27Z" fill="#333333"/>
<path d="M388.49 399.78C388.49 399.332 388.588 398.865 388.784 398.38C388.989 397.885 389.185 397.498 389.372 397.218C389.568 396.929 389.834 396.569 390.17 396.14L392.41 393.2H394.3L392.186 395.958L391.57 396.49V396.56L391.85 396.462C392.13 396.387 392.433 396.35 392.76 396.35C393.675 396.35 394.449 396.681 395.084 397.344C395.728 397.997 396.05 398.809 396.05 399.78C396.05 400.769 395.695 401.6 394.986 402.272C394.277 402.944 393.371 403.28 392.27 403.28C391.169 403.28 390.263 402.944 389.554 402.272C388.845 401.6 388.49 400.769 388.49 399.78ZM390.744 398.324C390.361 398.697 390.17 399.183 390.17 399.78C390.17 400.377 390.361 400.867 390.744 401.25C391.127 401.623 391.635 401.81 392.27 401.81C392.905 401.81 393.413 401.623 393.796 401.25C394.179 400.867 394.37 400.377 394.37 399.78C394.37 399.183 394.179 398.697 393.796 398.324C393.413 397.941 392.905 397.75 392.27 397.75C391.635 397.75 391.127 397.941 390.744 398.324ZM397.173 402.23C397.173 401.95 397.262 401.717 397.439 401.53C397.626 401.343 397.855 401.25 398.125 401.25C398.433 401.25 398.676 401.362 398.853 401.586C399.04 401.81 399.133 402.141 399.133 402.58C399.133 403.299 398.961 403.849 398.615 404.232C398.279 404.624 397.822 404.82 397.243 404.82V404.12C397.523 404.12 397.743 404.041 397.901 403.882C398.069 403.733 398.153 403.532 398.153 403.28V403.196C398.144 403.187 398.139 403.168 398.139 403.14V403.098L398.055 403.126C398.027 403.135 397.967 403.14 397.873 403.14C397.687 403.14 397.523 403.056 397.383 402.888C397.243 402.72 397.173 402.501 397.173 402.23ZM401.649 401.824C400.763 400.853 400.319 399.612 400.319 398.1C400.319 396.588 400.763 395.347 401.649 394.376C402.536 393.405 403.609 392.92 404.869 392.92C406.129 392.92 407.203 393.405 408.089 394.376C408.976 395.347 409.419 396.588 409.419 398.1C409.419 399.612 408.976 400.853 408.089 401.824C407.203 402.795 406.129 403.28 404.869 403.28C403.609 403.28 402.536 402.795 401.649 401.824ZM402.797 395.412C402.265 396.047 401.999 396.943 401.999 398.1C401.999 399.257 402.265 400.153 402.797 400.788C403.339 401.423 404.029 401.74 404.869 401.74C405.709 401.74 406.395 401.423 406.927 400.788C407.469 400.153 407.739 399.257 407.739 398.1C407.739 396.943 407.469 396.047 406.927 395.412C406.395 394.777 405.709 394.46 404.869 394.46C404.029 394.46 403.339 394.777 402.797 395.412ZM410.263 401.04V399.5L413.553 393.2H415.303L412.013 399.5H415.233V397.12H415.303H416.843V399.5H418.243V401.04H416.843V403H415.233V401.04H410.263Z" fill="#333333"/>
<path d="M363.35 573.42V571.6L365.17 570.2H366.64V580H365.03V572.16L363.35 573.42ZM368.111 576.78C368.111 576.332 368.209 575.865 368.405 575.38C368.61 574.885 368.806 574.498 368.993 574.218C369.189 573.929 369.455 573.569 369.791 573.14L372.031 570.2H373.921L371.807 572.958L371.191 573.49V573.56L371.471 573.462C371.751 573.387 372.054 573.35 372.381 573.35C373.296 573.35 374.07 573.681 374.705 574.344C375.349 574.997 375.671 575.809 375.671 576.78C375.671 577.769 375.316 578.6 374.607 579.272C373.898 579.944 372.992 580.28 371.891 580.28C370.79 580.28 369.884 579.944 369.175 579.272C368.466 578.6 368.111 577.769 368.111 576.78ZM370.365 575.324C369.982 575.697 369.791 576.183 369.791 576.78C369.791 577.377 369.982 577.867 370.365 578.25C370.748 578.623 371.256 578.81 371.891 578.81C372.526 578.81 373.034 578.623 373.417 578.25C373.8 577.867 373.991 577.377 373.991 576.78C373.991 576.183 373.8 575.697 373.417 575.324C373.034 574.941 372.526 574.75 371.891 574.75C371.256 574.75 370.748 574.941 370.365 575.324ZM376.794 579.23C376.794 578.95 376.883 578.717 377.06 578.53C377.247 578.343 377.476 578.25 377.746 578.25C378.054 578.25 378.297 578.362 378.474 578.586C378.661 578.81 378.754 579.141 378.754 579.58C378.754 580.299 378.582 580.849 378.236 581.232C377.9 581.624 377.443 581.82 376.864 581.82V581.12C377.144 581.12 377.364 581.041 377.522 580.882C377.69 580.733 377.774 580.532 377.774 580.28V580.196C377.765 580.187 377.76 580.168 377.76 580.14V580.098L377.676 580.126C377.648 580.135 377.588 580.14 377.494 580.14C377.308 580.14 377.144 580.056 377.004 579.888C376.864 579.72 376.794 579.501 376.794 579.23ZM379.801 576.78C379.801 576.332 379.899 575.865 380.095 575.38C380.3 574.885 380.496 574.498 380.683 574.218C380.879 573.929 381.145 573.569 381.481 573.14L383.721 570.2H385.611L383.497 572.958L382.881 573.49V573.56L383.161 573.462C383.441 573.387 383.744 573.35 384.071 573.35C384.985 573.35 385.76 573.681 386.395 574.344C387.039 574.997 387.361 575.809 387.361 576.78C387.361 577.769 387.006 578.6 386.297 579.272C385.587 579.944 384.682 580.28 383.581 580.28C382.479 580.28 381.574 579.944 380.865 579.272C380.155 578.6 379.801 577.769 379.801 576.78ZM382.055 575.324C381.672 575.697 381.481 576.183 381.481 576.78C381.481 577.377 381.672 577.867 382.055 578.25C382.437 578.623 382.946 578.81 383.581 578.81C384.215 578.81 384.724 578.623 385.107 578.25C385.489 577.867 385.681 577.377 385.681 576.78C385.681 576.183 385.489 575.697 385.107 575.324C384.724 574.941 384.215 574.75 383.581 574.75C382.946 574.75 382.437 574.941 382.055 575.324ZM388.134 578.04V576.5L391.424 570.2H393.174L389.884 576.5H393.104V574.12H393.174H394.714V576.5H396.114V578.04H394.714V580H393.104V578.04H388.134Z" fill="#333333"/>
<path d="M383.42 320V318.46L386.766 316.094C387.494 315.571 388.017 315.086 388.334 314.638C388.651 314.19 388.81 313.714 388.81 313.21C388.81 312.678 388.647 312.253 388.32 311.936C387.993 311.619 387.55 311.46 386.99 311.46C386.299 311.46 385.781 311.74 385.436 312.3C385.287 312.543 385.175 312.823 385.1 313.14H383.42C383.504 312.543 383.686 312.006 383.966 311.53C384.629 310.457 385.637 309.92 386.99 309.92C388.026 309.92 388.866 310.228 389.51 310.844C390.163 311.451 390.49 312.216 390.49 313.14C390.49 313.943 390.285 314.666 389.874 315.31C389.463 315.945 388.805 316.575 387.9 317.2L386.5 318.18L385.87 318.46V318.53L386.71 318.46H390.49V320H383.42ZM391.613 319.23C391.613 318.95 391.701 318.717 391.879 318.53C392.065 318.343 392.294 318.25 392.565 318.25C392.873 318.25 393.115 318.362 393.293 318.586C393.479 318.81 393.573 319.141 393.573 319.58C393.573 320.299 393.4 320.849 393.055 321.232C392.719 321.624 392.261 321.82 391.683 321.82V321.12C391.963 321.12 392.182 321.041 392.341 320.882C392.509 320.733 392.593 320.532 392.593 320.28V320.196C392.583 320.187 392.579 320.168 392.579 320.14V320.098L392.495 320.126C392.467 320.135 392.406 320.14 392.313 320.14C392.126 320.14 391.963 320.056 391.823 319.888C391.683 319.72 391.613 319.501 391.613 319.23ZM394.689 313.42C394.689 312.431 395.044 311.6 395.753 310.928C396.462 310.256 397.368 309.92 398.469 309.92C399.57 309.92 400.476 310.256 401.185 310.928C401.894 311.6 402.249 312.431 402.249 313.42C402.249 314.307 401.88 315.263 401.143 316.29C401.068 316.393 400.966 316.533 400.835 316.71C400.704 316.878 400.616 316.995 400.569 317.06L398.329 320H396.439L398.553 317.242L399.169 316.71V316.64C399.15 316.649 399.057 316.687 398.889 316.752C398.646 316.817 398.343 316.85 397.979 316.85C397.064 316.85 396.285 316.523 395.641 315.87C395.006 315.207 394.689 314.391 394.689 313.42ZM396.943 311.964C396.56 312.337 396.369 312.823 396.369 313.42C396.369 314.017 396.56 314.507 396.943 314.89C397.326 315.263 397.834 315.45 398.469 315.45C399.104 315.45 399.612 315.263 399.995 314.89C400.378 314.507 400.569 314.017 400.569 313.42C400.569 312.823 400.378 312.337 399.995 311.964C399.612 311.581 399.104 311.39 398.469 311.39C397.834 311.39 397.326 311.581 396.943 311.964ZM403.302 317.34C403.302 316.491 403.629 315.814 404.282 315.31C404.562 315.114 404.889 314.965 405.262 314.862V314.778C404.973 314.666 404.716 314.512 404.492 314.316C403.979 313.877 403.722 313.299 403.722 312.58C403.722 311.843 404.035 311.217 404.66 310.704C405.295 310.181 406.149 309.92 407.222 309.92C408.296 309.92 409.145 310.181 409.77 310.704C410.405 311.217 410.722 311.843 410.722 312.58C410.722 313.28 410.466 313.859 409.952 314.316C409.71 314.512 409.453 314.666 409.182 314.778V314.862C409.537 314.955 409.864 315.109 410.162 315.324C410.816 315.828 411.142 316.5 411.142 317.34C411.142 318.152 410.788 318.847 410.078 319.426C409.378 319.995 408.426 320.28 407.222 320.28C406.018 320.28 405.062 319.995 404.352 319.426C403.652 318.847 403.302 318.152 403.302 317.34ZM405.402 312.72C405.402 313.131 405.561 313.467 405.878 313.728C406.196 313.989 406.644 314.12 407.222 314.12C407.801 314.12 408.249 313.989 408.566 313.728C408.884 313.467 409.042 313.131 409.042 312.72C409.042 312.347 408.879 312.034 408.552 311.782C408.235 311.521 407.792 311.39 407.222 311.39C406.653 311.39 406.205 311.521 405.878 311.782C405.561 312.034 405.402 312.347 405.402 312.72ZM405.57 316.066C405.178 316.374 404.982 316.752 404.982 317.2C404.982 317.648 405.178 318.031 405.57 318.348C405.972 318.656 406.522 318.81 407.222 318.81C407.922 318.81 408.468 318.656 408.86 318.348C409.262 318.031 409.462 317.648 409.462 317.2C409.462 316.752 409.262 316.374 408.86 316.066C408.468 315.749 407.922 315.59 407.222 315.59C406.522 315.59 405.972 315.749 405.57 316.066Z" fill="#333333"/>
<line x1="351.743" y1="681.571" x2="376.743" y2="666.571" stroke="#5A5A5A"/>
</svg>
