<svg width="198" height="29" viewBox="0 0 198 29" fill="none" xmlns="http://www.w3.org/2000/svg">
<path d="M197.002 19.249H37.0034V20.2615H197.002V19.249Z" fill="white"/>
<path fill-rule="evenodd" clip-rule="evenodd" d="M180.684 16.6239V14.7976H180.825C181.217 14.7976 181.541 14.7126 181.795 14.5439C182.05 14.3753 182.18 14.0695 182.18 13.6315C182.18 13.1814 182.052 12.872 181.797 12.7048C181.542 12.5362 181.196 12.4512 180.766 12.4512H180.684V10.6227L181.368 10.6234C182.358 10.6234 183.076 10.8364 183.518 11.2644C183.959 11.6916 184.251 12.1639 184.384 12.6791C184.422 12.857 184.453 13.0342 184.472 13.205C184.49 13.3779 184.501 13.5472 184.501 13.7065C184.501 14.6368 184.247 15.357 183.742 15.8636C183.236 16.3716 182.44 16.6253 181.355 16.6253L181.239 16.6246H180.684V16.6239ZM187.223 7.20524V16.6239H187.104H185.044V7.2081H185.161L187.223 7.20524ZM194.632 7.20524L194.748 7.20739H196.81V16.6239H196.692H194.632V10.6849L191.262 16.6239H191.143H189.081V7.2081H189.2H191.262V13.0856L194.632 7.20524ZM191.922 4.89596C191.922 5.14961 191.984 5.34181 192.11 5.46685C192.236 5.59332 192.377 5.68049 192.534 5.72122C192.605 5.74622 192.678 5.76623 192.751 5.77766C192.826 5.79124 192.892 5.79767 192.947 5.79767C193.001 5.79767 193.066 5.79124 193.139 5.7798C193.214 5.76551 193.291 5.74622 193.37 5.72122C193.519 5.6712 193.656 5.58189 193.782 5.45542C193.907 5.32967 193.972 5.14104 193.972 4.89525H194.09H195.479C195.471 4.99671 195.448 5.11889 195.414 5.2575C195.381 5.39611 195.322 5.5383 195.244 5.68192C195.104 5.95129 194.861 6.19922 194.521 6.41786C194.179 6.63793 193.673 6.74796 193.005 6.74796H192.886C192.039 6.74796 191.421 6.55933 191.033 6.1835C190.644 5.80767 190.436 5.37611 190.413 4.89453H190.532H191.922V4.89596ZM180.684 10.622L179.189 10.6199V7.2081H177.126H177.007V16.6246H180.684V14.7983L179.189 14.7962V12.4504H180.684V10.622ZM141.934 13.3893V11.5623H141.944C142.407 11.5623 142.768 11.4701 143.027 11.2908C143.286 11.1086 143.419 10.7671 143.419 10.2669C143.419 9.80033 143.293 9.48023 143.047 9.30875C142.8 9.13584 142.432 9.04796 141.945 9.04796H141.934V7.20596H142.464C142.518 7.20596 142.572 7.2081 142.627 7.2081C142.681 7.2081 142.74 7.21239 142.794 7.21954C143.517 7.26241 144.179 7.49105 144.777 7.90475C145.378 8.31845 145.678 9.10369 145.678 10.2526C145.678 11.1843 145.493 11.866 145.126 12.2975C144.758 12.7291 144.352 13.022 143.914 13.1721C143.623 13.2735 143.341 13.3364 143.071 13.3564C142.8 13.3764 142.581 13.3886 142.416 13.3886H141.934V13.3893ZM153.397 10.9507L153.394 12.6784H149.119V14.7983H154.09V16.6239H153.972H146.938V7.2081H147.057H153.972V9.03438H149.119V10.9535L153.397 10.9507ZM159.496 12.4869L156.855 16.6246H156.739H154.253L157.763 11.5873L154.359 7.2081H154.475H156.903L159.495 10.9264V7.2081H159.612H161.675V10.9264L164.265 7.2081H164.383H166.81L163.404 11.5873L166.915 16.6246H166.797H164.3L161.674 12.489V16.6246H161.555H159.494V12.4869H159.496ZM169.907 16.6239H169.789H167.727V7.2081H167.845H169.907V10.7485H172.97V7.2081H173.086H175.149V16.6246H175.032H172.97V12.5769H169.907V16.6239ZM141.934 7.20596L138.388 7.2081H138.268V16.6246H140.33H140.449V13.39H141.934V11.5623L140.449 11.5602V9.04724H141.934V7.20596ZM124.672 16.6239V14.899H124.678C125.085 14.899 125.446 14.8269 125.755 14.6833C126.064 14.5397 126.221 14.2224 126.221 13.7323C126.221 13.3679 126.138 13.0978 125.974 12.927C125.809 12.7534 125.624 12.6341 125.419 12.5762C125.285 12.5355 125.156 12.509 125.031 12.5019C124.906 12.4926 124.807 12.4883 124.737 12.4883H124.672V10.7606L125.241 10.7613C126.248 10.7613 126.975 10.9528 127.421 11.3322C127.868 11.7124 128.169 12.1375 128.319 12.6005C128.388 12.8113 128.433 13.0192 128.452 13.2207C128.474 13.4229 128.484 13.6122 128.484 13.7808C128.484 13.9337 128.474 14.0988 128.455 14.2689C128.434 14.4418 128.392 14.6197 128.329 14.7976C128.189 15.2542 127.889 15.6757 127.43 16.053C126.97 16.4324 126.24 16.6239 125.241 16.6239L125.125 16.6232H124.672V16.6239ZM124.672 9.03438V7.2081H127.857V9.03438H124.672ZM136.363 10.9507L136.361 12.6784H132.087V14.7983H137.056V16.6239H136.94H129.906V7.2081H130.025H136.94V9.03438H132.087V10.9535L136.363 10.9507ZM124.672 7.2081H121.061H120.942V16.6246H124.672V14.8998L123.123 14.8976V12.489H124.672V10.7613L123.123 10.7599V9.0351H124.672V7.2081ZM115.008 16.8861V15.0641H115.008C115.603 15.0484 116.051 14.8705 116.343 14.5382C116.637 14.2053 116.845 13.8316 116.962 13.4272C117.047 13.1142 117.1 12.8155 117.115 12.5319C117.131 12.2489 117.14 12.0439 117.14 11.9181C117.14 10.9685 117.008 10.2755 116.745 9.84177C116.482 9.40592 116.192 9.11155 115.878 8.96079C115.721 8.88362 115.565 8.83289 115.413 8.80788C115.261 8.78287 115.124 8.7693 115.008 8.7693V6.94088H115.065C116.674 6.94088 117.814 7.44889 118.481 8.46349C119.15 9.48023 119.483 10.632 119.483 11.9181C119.483 13.2021 119.15 14.3517 118.481 15.3613C117.813 16.3731 116.674 16.8789 115.064 16.8789L115.008 16.8861ZM115.008 6.94016H114.948C113.347 6.94016 112.21 7.44818 111.538 8.46492C110.866 9.47952 110.53 10.6306 110.53 11.9174C110.53 13.195 110.866 14.3417 111.538 15.3563C112.21 16.3709 113.347 16.8868 114.948 16.8947V16.8918L115.008 16.8854V15.0634H115.006C114.355 15.0484 113.88 14.839 113.581 14.4403C113.285 14.0445 113.087 13.6058 112.993 13.1342C112.947 12.9156 112.913 12.6969 112.898 12.4862C112.884 12.274 112.875 12.0832 112.875 11.9167C112.875 10.9771 113.005 10.2883 113.264 9.85106C113.523 9.41736 113.811 9.12298 114.123 8.97007C114.287 8.88719 114.447 8.83075 114.602 8.80645C114.755 8.78145 114.89 8.76787 115.006 8.76787H115.008V6.94016ZM105.526 16.6239V14.899H105.972C106.026 14.899 106.103 14.8898 106.196 14.8748C106.29 14.8569 106.389 14.8255 106.492 14.7854C106.64 14.7176 106.78 14.6011 106.91 14.4368C107.04 14.2724 107.104 14.0359 107.104 13.733C107.104 13.3278 106.976 13.0442 106.721 12.8891C106.467 12.732 106.125 12.6526 105.7 12.6526H105.526V10.9257H105.736C105.79 10.9257 105.853 10.9214 105.92 10.915C105.987 10.9057 106.055 10.8878 106.126 10.8628C106.283 10.8128 106.427 10.7142 106.556 10.5706C106.686 10.4262 106.751 10.219 106.751 9.94895C106.751 9.64457 106.659 9.39806 106.475 9.21301C106.291 9.02581 106.012 8.93149 105.642 8.93149H105.526V7.20524L106.281 7.20453C107.112 7.20453 107.717 7.36458 108.093 7.67467C108.469 7.98763 108.721 8.33131 108.847 8.70499C108.892 8.86433 108.928 9.02366 108.947 9.17943C108.968 9.33662 108.979 9.4788 108.979 9.60456C108.979 10.0697 108.878 10.4441 108.678 10.7228C108.478 11.0014 108.258 11.2108 108.022 11.3458C107.937 11.3951 107.852 11.438 107.77 11.4716C107.689 11.5051 107.611 11.5366 107.541 11.5616V11.5859C107.618 11.6016 107.7 11.6245 107.78 11.6495C107.864 11.6738 107.949 11.7052 108.035 11.7395C108.373 11.8831 108.686 12.1325 108.972 12.4876C109.258 12.8434 109.402 13.3421 109.402 13.9859C109.402 14.8983 109.162 15.535 108.684 15.8951C108.204 16.2545 107.672 16.4774 107.092 16.561C106.912 16.5846 106.735 16.6039 106.563 16.6103C106.39 16.6196 106.219 16.6239 106.056 16.6239L105.937 16.6232H105.526V16.6239ZM105.526 7.20667L101.886 7.2081H101.767V16.6246H105.526V14.8998L103.948 14.8976V12.6534H105.526V10.9264H103.948V8.93292H105.526V7.20667ZM56.2487 14.8619V13.2614L57.3269 13.2593L56.2544 9.85892L56.2487 9.87821V7.20667L57.3504 7.20596L60.6357 16.6246H60.5186H58.3393L57.7734 14.8626H56.2487V14.8619ZM63.6281 16.6239H63.5088H61.4467V7.2081H61.566H63.6281V10.7485H66.6905V7.2081H66.8084H68.8697V16.6246H68.7525H66.6905V12.5769H63.6281V16.6239ZM75.819 7.20524L75.9362 7.20739H78.3633L74.8523 11.5101L78.5634 16.6232H78.4441H75.9126L72.9088 12.1432V16.6232H72.7902H70.7281V7.2081H70.8475H72.9095V11.0543L75.819 7.20524ZM82.8619 14.7962L82.9791 14.7983C83.0412 14.8047 83.0984 14.8119 83.1477 14.8162C83.1977 14.8212 83.2506 14.8233 83.2963 14.8233C84.0015 14.8069 84.4459 14.4925 84.6217 13.8852C84.7968 13.2757 84.8911 12.5462 84.8989 11.7016L84.9575 7.20667H85.0768H91.5431V16.6232H91.4259H89.3639V9.03438H87.0196L86.961 12.3225C86.9531 12.5676 86.9403 12.8491 86.926 13.1614C86.9096 13.4743 86.8653 13.798 86.796 14.1267C86.6545 14.7604 86.3644 15.3456 85.93 15.8765C85.4963 16.4088 84.7696 16.6775 83.7557 16.6775L83.6385 16.6903C83.5207 16.681 83.3963 16.671 83.2663 16.6596C83.137 16.6453 83.0019 16.6346 82.8619 16.6253V14.7962ZM99.8614 10.9507L99.8593 12.6784H95.5844V14.7983H100.554V16.6239H100.438H93.4044V7.2081H93.5237H100.439V9.03438H95.5851V10.9535L99.8614 10.9507ZM47.686 10.7606L48.2548 10.7613C49.2622 10.7613 49.9882 10.9528 50.4347 11.3322C50.8813 11.7124 51.1814 12.1375 51.3322 12.6005C51.4015 12.8113 51.4472 13.0192 51.4658 13.2207C51.4865 13.4229 51.4972 13.6122 51.4972 13.7808C51.4972 13.9337 51.4865 14.0988 51.4672 14.2689C51.4465 14.4418 51.405 14.6197 51.3422 14.7976C51.2028 15.2542 50.902 15.6757 50.4426 16.053C49.9832 16.4324 49.2522 16.6239 48.2541 16.6239L48.1369 16.6232H47.6853V14.8983H47.691C48.0976 14.8983 48.4584 14.8262 48.7678 14.6826C49.0779 14.5389 49.2336 14.2217 49.2336 13.7315C49.2336 13.3671 49.15 13.0971 48.9879 12.9263C48.8221 12.7527 48.637 12.6333 48.432 12.5755C48.2984 12.5347 48.169 12.5083 48.044 12.5012C47.919 12.4919 47.8211 12.4876 47.7496 12.4876H47.686V10.7606ZM47.686 7.2081H50.8713V9.03438H47.686V7.2081ZM56.2487 7.20667L55.2655 7.2081H55.1462L51.8716 16.6246H54.0501H54.1695L54.7218 14.8626H56.248V13.2621L55.169 13.2628L56.248 9.87821V7.20667H56.2487ZM46.137 10.7592V9.03438H47.686V7.2081H44.0749H43.9563V16.6246H47.686V14.8998L46.137 14.8976V12.489H47.686V10.7613L46.137 10.7592Z" fill="white"/>
<path fill-rule="evenodd" clip-rule="evenodd" d="M157.698 26.4376V25.423C157.953 25.4102 158.135 25.383 158.244 25.3409C158.403 25.2787 158.527 25.1815 158.617 25.0493C158.707 24.9172 158.752 24.7635 158.752 24.5885C158.752 24.372 158.689 24.1948 158.562 24.054C158.436 23.9147 158.274 23.8268 158.081 23.7918C157.999 23.7761 157.871 23.7654 157.697 23.7589V22.7508C158.239 22.7593 158.603 22.7886 158.787 22.8379C159.127 22.9265 159.413 23.1202 159.641 23.4181C159.871 23.7168 159.985 24.1012 159.985 24.5713C159.986 24.9357 159.918 25.2423 159.787 25.4895C159.654 25.7381 159.487 25.9325 159.283 26.0747C159.08 26.2154 158.874 26.309 158.664 26.3547C158.43 26.4012 158.108 26.4298 157.698 26.4376ZM160.969 28.6762V22.7486H165.364V23.7511H162.166V25.0658H165.141V26.0632H162.166V27.6766H165.477V28.6755H160.969V28.6762ZM166.513 22.7486H167.71V27.6816H169.425V22.7486H170.617V27.6816H172.389V22.7486H173.581L173.59 28.6805L166.513 28.6762V22.7486H166.513ZM174.814 28.6762V22.7486H179.209V23.7511H176.011V25.0658H178.987V26.0632H176.011V27.6766H179.322V28.6755H174.814V28.6762ZM180.342 28.6762V22.7486H181.54V25.0808H183.884V22.7479H185.082V28.6755H183.884V26.0832H181.54V28.6755H180.342V28.6762ZM186.334 22.7486H187.455V26.6941L189.856 22.7486H191.048V28.6762H189.929V24.8064L187.531 28.6762H186.334V22.7486ZM192.287 22.7486H193.407V26.6941L195.809 22.7486H197.001V28.6762H195.882V24.8064L193.484 28.6762H192.287V22.7486ZM195.362 21.2725H195.914C195.882 21.6383 195.754 21.9262 195.529 22.1349C195.303 22.3449 195.011 22.4478 194.653 22.4478C194.293 22.4478 194.003 22.3442 193.777 22.1349C193.552 21.9262 193.424 21.6383 193.39 21.2725H193.945C193.963 21.4647 194.03 21.6083 194.146 21.7069C194.263 21.8048 194.431 21.8548 194.652 21.8548C194.873 21.8548 195.041 21.8055 195.156 21.7069C195.274 21.6083 195.342 21.4647 195.362 21.2725ZM157.698 22.7508C157.593 22.7501 157.483 22.7486 157.366 22.7486H155.446V28.6762H156.642V26.4405H157.423C157.518 26.4405 157.61 26.4398 157.698 26.4376V25.4237C157.58 25.4302 157.446 25.433 157.296 25.433H156.642V23.7511L157.22 23.7518C157.406 23.7518 157.566 23.7539 157.698 23.7589V22.7508ZM129.699 27.3286V26.3312H130.508L129.699 24.1534V22.7479H130.339L132.713 28.6755H131.41L130.892 27.3279H129.699V27.3286ZM133.367 22.7486H134.563V27.6816H136.279V22.7486H137.472V27.6816H139.243V22.7486H140.435L140.444 28.6805L133.367 28.6762V22.7486H133.367ZM141.684 22.7486H142.804V26.6941L145.205 22.7486H146.398V28.6762H145.279V24.8064L142.88 28.6762H141.684V22.7486ZM147.019 28.6762L149.044 25.5831L147.209 22.7486H148.607L149.797 24.6528L150.961 22.7486H152.348L150.503 25.6274L152.53 28.6762H151.086L149.772 26.627L148.453 28.6762H147.019ZM129.699 22.7486H129.073L126.765 28.6705V28.6762H128.033L128.522 27.3286H129.698V26.3312H128.89L129.69 24.1312L129.698 24.1534V22.7486H129.699ZM126.765 27.0421L126.765 26.8742C126.767 26.9021 126.767 26.9299 126.767 26.9585C126.767 26.9871 126.767 27.0135 126.765 27.0421ZM126.765 26.8735V27.0414C126.753 27.2815 126.692 27.5158 126.58 27.7445C126.454 27.9974 126.283 28.2025 126.066 28.3546C125.849 28.5061 125.581 28.6004 125.262 28.6369C125.095 28.6533 124.725 28.6662 124.155 28.6733V27.6766C124.558 27.6759 124.815 27.6644 124.927 27.6409C125.105 27.6087 125.25 27.5294 125.361 27.4051C125.474 27.2786 125.529 27.1107 125.529 26.9013C125.529 26.7234 125.486 26.5727 125.399 26.4483C125.313 26.324 125.188 26.2333 125.026 26.1761C124.883 26.1268 124.592 26.0997 124.154 26.0939V25.1036C124.407 25.1001 124.573 25.0936 124.651 25.0851C124.855 25.0608 125.017 24.9908 125.134 24.8736C125.252 24.7564 125.31 24.6013 125.31 24.4099C125.31 24.2262 125.26 24.0769 125.16 23.9633C125.057 23.8483 124.907 23.7789 124.708 23.7554C124.627 23.7461 124.442 23.7404 124.154 23.7375V22.7486H124.17C124.638 22.7486 124.989 22.7672 125.22 22.8079C125.451 22.8458 125.656 22.928 125.838 23.0516C126.021 23.1766 126.171 23.3402 126.293 23.5475C126.415 23.7525 126.475 23.9847 126.475 24.2405C126.475 24.5177 126.4 24.7735 126.251 25.005C126.1 25.2365 125.897 25.4102 125.641 25.5259C126.002 25.6309 126.282 25.8103 126.474 26.0632C126.655 26.2962 126.75 26.5662 126.765 26.8735ZM126.765 28.6705V28.6762H126.763L126.765 28.6705ZM124.155 22.7486H121.802V28.6762H123.819L124.155 28.6733V27.6766H124.107H122.999V26.0918H123.966L124.156 26.0939V25.1036C124.048 25.1044 123.924 25.1051 123.784 25.1051H122.999V23.7354H123.687C123.865 23.7354 124.022 23.7354 124.155 23.7368V22.7486ZM115.85 27.3286V26.3312H116.659L115.85 24.1534V22.7479H116.489L118.863 28.6755H117.56L117.042 27.3279H115.85V27.3286ZM115.85 22.7486H115.223L112.916 28.6705V28.6762H114.184L114.672 27.3286H115.85V26.3312H115.04L115.841 24.1312L115.85 24.1534V22.7486ZM112.916 27.0421V26.8742C112.918 26.9021 112.918 26.9299 112.918 26.9585C112.918 26.9871 112.918 27.0135 112.916 27.0421ZM112.916 26.8735V27.0414C112.905 27.2815 112.843 27.5158 112.731 27.7445C112.605 27.9974 112.434 28.2025 112.217 28.3546C112 28.5061 111.732 28.6004 111.413 28.6369C111.246 28.6533 110.876 28.6662 110.306 28.6733V27.6766C110.709 27.6759 110.967 27.6644 111.078 27.6409C111.256 27.6087 111.401 27.5294 111.512 27.4051C111.624 27.2786 111.681 27.1107 111.681 26.9013C111.681 26.7234 111.636 26.5727 111.551 26.4483C111.464 26.324 111.34 26.2333 111.177 26.1761C111.034 26.1268 110.743 26.0997 110.305 26.0939V25.1036C110.558 25.1001 110.723 25.0936 110.803 25.0851C111.007 25.0608 111.168 24.9908 111.286 24.8736C111.403 24.7564 111.461 24.6013 111.461 24.4099C111.461 24.2262 111.411 24.0769 111.311 23.9633C111.208 23.8483 111.058 23.7789 110.859 23.7554C110.778 23.7461 110.593 23.7404 110.305 23.7375V22.7486H110.321C110.79 22.7486 111.141 22.7672 111.371 22.8079C111.601 22.8458 111.807 22.928 111.989 23.0516C112.172 23.1766 112.322 23.3402 112.444 23.5475C112.565 23.7525 112.626 23.9847 112.626 24.2405C112.626 24.5177 112.552 24.7735 112.402 25.005C112.252 25.2365 112.049 25.4102 111.794 25.5259C112.154 25.6309 112.432 25.8103 112.625 26.0632C112.805 26.2962 112.901 26.5662 112.916 26.8735ZM112.916 28.6705V28.6762H112.914L112.916 28.6705ZM110.306 22.7486H107.952V28.6762H109.969L110.306 28.6733V27.6766H110.257H109.15V26.0918H110.117L110.307 26.0939V25.1036C110.199 25.1044 110.075 25.1051 109.934 25.1051H109.15V23.7354H109.837C110.016 23.7354 110.172 23.7354 110.306 23.7368V22.7486ZM104.137 28.7769V27.7537H104.144C104.62 27.7537 105.012 27.583 105.319 27.2372C105.625 26.8935 105.777 26.379 105.777 25.6917C105.777 25.0129 105.628 24.5063 105.331 24.1705C105.034 23.8361 104.636 23.6696 104.145 23.6696H104.138V22.6465C105.009 22.6479 105.705 22.918 106.228 23.4596C106.753 24.0012 107.016 24.755 107.016 25.7188C107.016 26.677 106.755 27.4251 106.234 27.9667C105.714 28.5061 105.019 28.7769 104.148 28.7769H104.137ZM85.7348 22.6472C86.6051 22.6486 87.3018 22.9187 87.8255 23.4603C88.3499 24.0019 88.6122 24.7557 88.6122 25.7195C88.6122 26.6777 88.3514 27.4258 87.8312 27.9674C87.311 28.5068 86.6151 28.7776 85.7456 28.7776H85.7356V27.7545H85.742C86.2186 27.7545 86.6101 27.5837 86.9166 27.2379C87.2217 26.8942 87.3753 26.3798 87.3753 25.6924C87.3753 25.0136 87.226 24.507 86.9295 24.1712C86.6316 23.8368 86.235 23.6703 85.742 23.6703H85.7356V22.6472H85.7348ZM104.137 22.6472L104.131 22.6479C103.648 22.6479 103.223 22.7243 102.853 22.8815C102.575 22.998 102.32 23.1759 102.087 23.4146C101.854 23.6546 101.67 23.9269 101.535 24.2277C101.355 24.6371 101.265 25.1437 101.265 25.7488C101.265 26.6913 101.524 27.4322 102.044 27.971C102.564 28.5054 103.26 28.7748 104.138 28.7769V27.7537C103.663 27.7523 103.272 27.5794 102.962 27.235C102.654 26.8885 102.498 26.379 102.498 25.7081C102.498 25.025 102.65 24.5156 102.95 24.1769C103.252 23.8397 103.647 23.6703 104.138 23.6689V22.6472H104.137ZM93.3393 26.4969L94.499 26.8642C94.3211 27.5122 94.0253 27.9924 93.6116 28.3075C93.1986 28.6204 92.6727 28.7776 92.0368 28.7776C91.2501 28.7776 90.6028 28.5083 90.0962 27.9717C89.5903 27.4329 89.336 26.6977 89.336 25.766C89.336 24.7785 89.5918 24.0133 90.1005 23.466C90.6099 22.9201 91.2794 22.6479 92.1104 22.6479C92.8356 22.6472 93.4251 22.8615 93.8781 23.2902C94.1482 23.5432 94.3504 23.9068 94.4854 24.382L93.3 24.6649C93.2307 24.3563 93.085 24.1141 92.8613 23.9361C92.6384 23.7575 92.3683 23.6696 92.0511 23.6696C91.6117 23.6696 91.2544 23.8275 90.9808 24.1433C90.7078 24.4577 90.5706 24.9686 90.5706 25.6752C90.5706 26.4248 90.7049 26.9592 90.9743 27.2757C91.2437 27.5951 91.5945 27.7537 92.0254 27.7537C92.344 27.7537 92.6177 27.653 92.8463 27.4501C93.075 27.2493 93.2386 26.9306 93.3393 26.4969ZM95.53 28.6762V22.7486H96.7275V25.0808H99.0725V22.7479H100.269V28.6755H99.0725V26.0832H96.7275V28.6755H95.53V28.6762ZM82.8618 25.7481C82.8618 26.6913 83.1219 27.4322 83.6421 27.971C84.1601 28.5054 84.8574 28.7748 85.7348 28.7769V27.7537C85.2597 27.7523 84.8689 27.5794 84.5595 27.235C84.2501 26.8885 84.0951 26.379 84.0951 25.7081C84.0951 25.025 84.2465 24.5156 84.5473 24.1769C84.8481 23.8397 85.2433 23.6703 85.7348 23.6689V22.6457L85.7291 22.6465C85.2461 22.6465 84.821 22.7229 84.4502 22.8801C84.1729 22.9966 83.9179 23.1745 83.6842 23.4131C83.4513 23.6532 83.2677 23.9254 83.1326 24.2262C82.9518 24.6371 82.8618 25.1437 82.8618 25.7481Z" fill="white"/>
<path fill-rule="evenodd" clip-rule="evenodd" d="M4.21045 28.9999H37.0034V13.2936L36.4947 13.0878C32.9157 11.641 30.0534 11.3101 26.2587 11.3794L26.2237 11.3859C25.6799 11.4988 25.1169 11.6567 24.5767 11.7924L23.7936 11.9889C18.7406 16.3824 15.1988 19.4634 12.6716 21.6619C14.325 22.838 16.9365 23.411 18.4406 23.7082C18.6228 23.7218 18.7957 23.7826 18.9772 23.979C19.2437 24.2677 19.2558 24.6493 19.1165 24.9922C19.0565 25.1408 19.08 25.0858 19.0186 25.1908C18.9893 25.2416 18.9922 25.238 18.9543 25.2916C18.7778 25.5331 18.482 25.6638 18.1883 25.6281C16.4078 25.5067 12.7124 25.3202 9.04194 24.82C5.7445 27.6888 6.01601 27.4494 4.21045 28.9999ZM37.0034 7.3139V0.505371L26.4823 9.65248L37.0034 7.3139ZM26.7403 19.7706H21.8416V26.0182L24.3831 26.0425C25.4163 25.3766 23.5579 22.4693 23.2499 21.5283H25.3413C25.6492 21.7033 26.9325 24.835 26.9903 25.8432C27.1154 26.5763 26.766 28.1182 25.7235 28.1182H19.7009V17.7214H26.741V19.7706H26.7403ZM27.3869 17.785L34.9449 17.7435L34.9535 28.0782H32.8236V19.8249L29.7991 19.8163C31.2824 23.1145 32.4263 28.0703 27.4955 28.0617L27.4705 25.9825C30.7851 25.9825 28.2 20.8767 27.3876 19.8249V17.785H27.3869Z" fill="white"/>
<path fill-rule="evenodd" clip-rule="evenodd" d="M16.3286 13.0328C13.0804 14.6569 10.1395 17.0662 10.4475 19.9792C11.0083 22.1914 13.6406 23.5911 18.3449 24.5157C18.4849 24.5157 18.2884 24.8515 18.2884 24.8243C14.6202 24.5714 1.68189 23.8997 0.0292363 20.9038C-0.585953 18.1858 8.6276 15.2735 16.3286 13.0328ZM16.1328 13.1386C16.5808 12.9699 25.7665 10.6464 26.0744 10.5899C24.1988 10.7014 20.054 11.2051 16.1328 13.1386ZM36.7992 12.3369C32.9901 10.7971 30.0499 10.4892 26.0737 10.5728L39.4314 7.604L36.7992 12.3369Z" fill="white"/>
</svg>
