<svg width="142" height="31" viewBox="0 0 142 31" fill="none" xmlns="http://www.w3.org/2000/svg">
<path fill-rule="evenodd" clip-rule="evenodd" d="M0.501059 15.5C0.501059 7.3 7.01482 0.600006 14.9315 0.600006C22.9485 0.600006 29.362 7.3 29.362 15.5C29.362 23.7 22.8483 30.4 14.9315 30.4C7.01482 30.5 0.501059 23.8 0.501059 15.5ZM0 15.5C0 24 6.71419 31 15.0318 31C23.3493 31 30.0635 24.1 30.0635 15.5C30.0635 7 23.3493 0 15.0318 0C6.71419 0.1 0 7 0 15.5Z" fill="white"/>
<path fill-rule="evenodd" clip-rule="evenodd" d="M24.5519 14.0002C24.4517 14.1002 24.3515 14.2002 24.1511 14.3002C23.3494 15.0002 22.0466 15.5002 20.2428 16.0002C16.4348 17.0002 13.7291 17.2002 10.6225 18.0002C10.0212 18.2002 9.41996 18.4002 8.81869 18.6002C9.41996 18.9002 10.0212 19.2002 10.6225 19.4002C11.9252 19.0002 12.5265 18.9002 14.3303 18.5002C15.0318 18.4002 17.1363 18.0002 18.7397 17.7002C21.4454 17.1002 25.5541 15.7002 24.5519 14.0002ZM22.7481 10.3002C22.1469 10.0002 21.4454 9.80021 20.6437 9.50021C20.2428 9.80021 19.842 10.0002 19.2407 10.3002C20.2428 10.5002 20.9443 10.8002 21.8462 11.0002C21.9464 11.1002 22.5477 10.5002 22.7481 10.3002ZM9.01911 14.2002C12.6267 13.1002 16.535 12.8002 20.4433 11.7002C18.9401 11.3002 18.1384 11.1002 16.535 11.3002C14.2301 11.6002 11.6246 12.1002 9.41996 12.8002C8.51805 13.1002 4.00853 14.4002 5.31128 16.2002C5.21107 16.2002 6.01276 15.1002 9.01911 14.2002ZM6.4136 20.6002C6.4136 20.9002 6.61403 21.3002 7.01488 21.6002C7.11509 21.4002 7.11509 21.3002 7.31552 21.1002C7.01488 20.9002 6.71424 20.8002 6.4136 20.6002ZM8.21742 20.4002C8.51805 20.2002 8.81869 20.1002 9.21954 19.9002C8.71848 19.7002 8.21741 19.4002 7.61614 19.2002C7.41572 19.4002 7.11509 19.5002 7.01488 19.7002C7.31551 19.9002 7.71636 20.2002 8.21742 20.4002ZM22.2471 12.4002C21.5456 12.8002 20.4433 13.1002 18.9401 13.5002C17.7375 13.8002 14.631 14.3002 11.4242 15.0002C10.4221 15.2002 7.61615 15.9002 6.21318 17.1002C6.61403 17.4002 6.81445 17.5002 7.2153 17.7002C7.81657 17.3002 8.51805 17.0002 9.72059 16.7002C11.7248 16.1002 13.228 15.9002 15.0318 15.6002C16.8356 15.3002 20.1426 14.6002 22.0466 13.9002C22.6479 13.7002 23.2492 13.4002 23.65 13.1002C23.4496 12.9002 22.2471 12.3002 22.2471 12.4002ZM23.3494 11.7002C23.7502 11.9002 24.0509 12.0002 24.3515 12.3002C24.5519 11.8002 24.4517 11.6002 23.9507 11.1002C23.7502 11.3002 23.5498 11.5002 23.3494 11.7002ZM6.3134 18.5002C6.01276 18.3002 5.81234 18.2002 5.5117 18.0002C5.41149 18.3002 5.61191 18.7002 5.91254 18.9002C6.01276 18.7002 6.11298 18.6002 6.3134 18.5002ZM21.8462 8.10022C21.746 8.40022 21.5456 8.70021 21.3452 8.90021C21.8462 9.10021 22.4475 9.30021 22.9485 9.50021C22.9485 8.90021 22.3473 8.40022 21.8462 8.10022ZM4.60979 11.3002C8.41783 8.7002 12.727 7.20021 19.842 8.50021C20.2428 8.30021 20.4433 8.00022 20.5435 7.60022C18.7397 6.90022 16.8356 6.7002 14.3303 6.7002C12.0255 6.8002 8.017 7.60021 5.81234 9.00021L6.51382 8.10022C8.017 7.20022 12.0255 6.00021 14.9316 5.90021C17.0361 5.90021 18.1384 6.0002 20.6437 6.7002C20.4432 6.3002 19.9422 6.0002 19.1405 5.7002C16.7354 4.6002 12.2259 4.5002 8.51806 6.2002C9.01911 5.9002 9.41996 5.6002 10.0212 5.3002C11.2238 4.7002 13.228 4.2002 15.7333 4.2002C17.7375 4.2002 20.0424 4.90021 21.5456 6.40021C21.746 6.70021 21.9464 7.0002 21.9464 7.3002C23.0488 7.9002 23.7502 8.50022 24.1511 9.10022C24.2513 9.40022 24.3515 9.8002 24.2513 10.2002C24.7524 10.5002 24.9528 10.7002 25.1532 11.1002C25.3536 11.4002 25.4538 11.7002 25.4538 12.0002C25.4538 12.4002 25.554 12.8002 25.1532 13.3002C25.554 13.5002 25.8547 14.1002 25.8547 14.3002C26.0551 15.2002 25.4538 16.1002 24.7524 16.7002C23.9507 17.5002 22.0466 18.4002 20.5435 18.8002C17.5371 19.6002 14.9316 19.9002 12.8272 20.3002C13.7291 20.5002 15.0318 20.8002 17.1363 20.8002C21.6458 20.8002 25.5541 18.6002 25.5541 18.6002C25.5541 18.6002 25.4538 18.9002 25.3536 19.1002C22.5477 20.9002 17.938 21.6002 16.0339 21.5002C14.0297 21.4002 12.4263 21.1002 10.8229 20.6002C10.3219 20.7002 9.82081 20.9002 9.31975 21.1002C11.825 22.3002 13.6289 22.5002 15.7333 22.7002C17.8377 22.9002 21.4454 22.3002 24.4517 21.2002C24.3515 21.3002 24.2513 21.6002 24.1511 21.7002C22.6479 22.5002 19.3409 23.4002 17.7375 23.4002C16.1341 23.5002 14.1299 23.4002 12.4263 23.1002C10.9231 22.8002 9.7206 22.3002 8.51806 21.7002C8.31763 21.9002 8.21741 22.1002 8.1172 22.4002C13.0276 25.1002 17.6373 25.1002 22.9485 23.4002L22.4475 23.9002C16.6352 26.3002 12.1257 25.4002 8.61826 23.6002C8.51805 23.5002 8.31763 23.5002 8.21742 23.4002C8.51805 24.0002 11.2238 26.0002 14.2301 26.3002C16.3346 26.5002 18.8399 26.1002 20.343 25.5002L19.4411 26.0002C18.7397 26.4002 16.8356 27.2002 14.1299 27.0002C10.5223 26.7002 8.51805 25.1002 7.61614 24.3002C7.21529 23.9002 7.01487 23.4002 6.91466 22.9002C6.11297 22.5002 5.61191 22.0002 5.21106 21.3002C5.01064 20.9002 5.01063 20.5002 5.11085 20.1002C5.11085 20.0002 5.11085 19.9002 5.21106 19.8002C4.81022 19.5002 4.40938 19.2002 4.30916 18.9002C3.90832 18.2002 4.20894 17.7002 4.40937 17.2002C4.20894 17.0002 4.00852 16.7002 3.90831 16.4002C3.8081 16.1002 3.80811 15.8002 3.80811 15.5002C3.90832 14.9002 4.20895 14.4002 4.50958 14.0002C5.31128 13.1002 6.51381 12.4002 8.61826 11.6002C10.7227 10.9002 11.5244 10.8002 13.0276 10.4002C14.8314 10.0002 17.0361 9.8002 18.8399 9.2002C13.8293 8.3002 8.51805 9.1002 4.20895 12.2002L4.60979 11.3002Z" fill="white"/>
<path d="M48.803 12.8003L49.4043 16.9003H48.3019L48.803 12.8003ZM44.2935 22.3003H47.4L47.8009 20.0003H49.9053L50.3062 22.3003H53.4127L50.8072 8.80029H46.9992L44.2935 22.3003Z" fill="white"/>
<path d="M56.3191 14C56.8201 14 57.722 13.7 57.722 12.7C57.722 11.5 56.7199 11.4 56.4193 11.4C56.0184 11.4 55.4171 11.5 54.7157 11.8V8.89999C55.7178 8.59999 56.5195 8.5 57.4214 8.5C59.9267 8.5 61.029 10.3 61.029 12.1C61.029 13.8 60.0269 14.9 59.125 15.3V15.4C60.0269 15.7 61.2294 16.6 61.2294 18.6C61.2294 21.2 59.5258 22.6 57.3212 22.6C56.1186 22.6 55.3169 22.4 54.415 21.9L54.5153 19.1C55.4172 19.5 55.9182 19.5 56.5195 19.5C57.5216 19.5 57.9225 18.8 57.9225 18.2C57.9225 17.4 57.4214 16.9 56.4193 16.9H55.2167V14H56.3191Z" fill="white"/>
<path d="M62.5322 8.80029H70.8498V22.3003H67.8434V12.0003H65.5386V22.3003H62.5322V8.80029Z" fill="white"/>
<path d="M75.6599 11.7002H76.3614C77.0629 11.7002 77.4637 12.1002 77.4637 13.2002C77.4637 14.7002 76.7622 14.8002 76.3614 14.8002H75.6599V11.7002ZM72.5533 22.3002H75.5597V17.8002H76.5618C79.5682 17.8002 80.4701 15.0002 80.4701 13.2002C80.4701 11.4002 79.3677 8.7002 76.5618 8.7002H72.4531V22.3002H72.5533Z" fill="white"/>
<path d="M86.2823 19.2C85.18 19.2 84.6789 17.9 84.6789 15.5C84.6789 13.1 85.2802 11.8 86.2823 11.8C87.3846 11.8 87.8857 13.1 87.8857 15.5C87.8857 17.9 87.2844 19.2 86.2823 19.2ZM86.2823 22.5C89.8899 22.5 91.0925 19 91.0925 15.5C91.0925 12 89.8899 8.5 86.2823 8.5C82.6747 8.5 81.4721 12 81.4721 15.5C81.3719 19 82.6747 22.5 86.2823 22.5Z" fill="white"/>
<path d="M107.327 19.6003V16.5003H107.728C108.128 16.5003 109.03 16.5003 109.03 17.9003C109.03 19.3003 108.028 19.6003 107.728 19.6003H107.327ZM104.32 22.3003H107.928C108.73 22.3003 112.037 22.0003 112.037 17.9003C112.037 14.4003 109.531 13.8003 107.828 13.8003H107.327V12.0003H111.335V8.80029H104.32V22.3003Z" fill="white"/>
<path d="M123.06 8.80029H125.966V13.6003H128.171V8.80029H131.077V22.3003H128.171V16.9003H125.966V22.3003H123.06V8.80029Z" fill="white"/>
<path d="M133.081 8.80029H136.087V13.6003H136.689L138.392 8.80029H141.699L139.394 15.2003L142 22.3003H138.492L136.789 16.9003H136.087V22.3003H133.081V8.80029Z" fill="white"/>
<path d="M38.3809 8.80029H44.6942V12.1003H41.4874V22.3003H38.3809V8.80029Z" fill="white"/>
<path d="M92.4956 8.80029H95.1011L97.406 11.9003L99.7108 8.80029H102.316V22.3003H99.2098V14.0003L97.406 16.4003L95.6022 14.0003V22.3003H92.4956V8.80029Z" fill="white"/>
<path d="M117.147 12.9003L117.748 17.0003H116.546L117.147 12.9003ZM112.638 22.3003H115.744L116.145 20.0003H118.25L118.65 22.3003H121.757L119.151 8.80029H115.343L112.638 22.3003Z" fill="white"/>
</svg>
