<svg width="28" height="28" viewBox="0 0 28 28" fill="none" xmlns="http://www.w3.org/2000/svg">
<path d="M14 28C21.732 28 28 21.732 28 14C28 6.26801 21.732 0 14 0C6.26801 0 0 6.26801 0 14C0 21.732 6.26801 28 14 28Z" fill="#FFBC05"/>
<path d="M17.9219 18H10.0781C9.98259 18 9.89043 17.9698 9.81926 17.915C9.74809 17.8603 9.70291 17.785 9.69236 17.7035L9.00237 12.3701C8.99635 12.3236 9.00183 12.2764 9.01847 12.2317C9.0351 12.1871 9.06252 12.146 9.09892 12.111C9.13532 12.0761 9.1799 12.0482 9.22973 12.029C9.27956 12.0099 9.33353 12 9.38812 12H18.6119C18.6665 12 18.7204 12.0099 18.7703 12.029C18.8201 12.0482 18.8647 12.0761 18.9011 12.111C18.9375 12.146 18.9649 12.1871 18.9815 12.2317C18.9982 12.2764 19.0037 12.3236 18.9976 12.3701L18.3076 17.7035C18.2971 17.785 18.2519 17.8603 18.1807 17.915C18.1096 17.9698 18.0174 18 17.9219 18Z" stroke="white" stroke-linecap="round" stroke-linejoin="round"/>
<path d="M12 12C12 11.4696 12.2107 10.9609 12.5858 10.5858C12.9609 10.2107 13.4696 10 14 10C14.5304 10 15.0391 10.2107 15.4142 10.5858C15.7893 10.9609 16 11.4696 16 12" stroke="white" stroke-linecap="round" stroke-linejoin="round"/>
</svg>
