<svg width="28" height="28" viewBox="0 0 28 28" fill="none" xmlns="http://www.w3.org/2000/svg">
<path d="M14 28C21.732 28 28 21.732 28 14C28 6.26801 21.732 0 14 0C6.26801 0 0 6.26801 0 14C0 21.732 6.26801 28 14 28Z" fill="#21A9E1"/>
<path d="M18.4626 20.9125H9.9751C9.0126 20.9125 8.2251 20.125 8.2251 19.1625V19.075C8.2251 18.1125 9.0126 17.325 9.9751 17.325H18.4626C19.4251 17.325 20.2126 18.1125 20.2126 19.075V19.25C20.1251 20.2125 19.4251 20.9125 18.4626 20.9125V20.9125Z" stroke="white" stroke-miterlimit="10"/>
<path d="M17.1501 17.4999H11.2876C10.3251 17.4999 9.5376 16.7124 9.5376 15.7499V15.6624C9.5376 14.6999 10.3251 13.9124 11.2876 13.9124H17.1501C18.1126 13.9124 18.9001 14.6999 18.9001 15.6624V15.7499C18.8126 16.7124 18.0251 17.4999 17.1501 17.4999Z" stroke="white" stroke-miterlimit="10"/>
<path d="M15.7501 13.9125H12.6001C11.6376 13.9125 10.8501 13.125 10.8501 12.1625V12.075C10.8501 11.1125 11.6376 10.325 12.6001 10.325H15.7501C16.7126 10.325 17.5001 11.1125 17.5001 12.075V12.1625C17.5001 13.125 16.7126 13.9125 15.7501 13.9125ZM14.1751 10.325C13.2126 10.325 12.4251 9.53745 12.4251 8.57495C12.4251 7.61245 13.2126 6.82495 14.1751 6.82495H14.2626C15.2251 6.82495 16.0126 7.61245 16.0126 8.57495V8.66245C15.9251 9.53745 15.1376 10.325 14.1751 10.325Z" stroke="white" stroke-miterlimit="10"/>
</svg>
