<svg width="28" height="28" viewBox="0 0 28 28" fill="none" xmlns="http://www.w3.org/2000/svg">
<path d="M14 28C21.732 28 28 21.732 28 14C28 6.26801 21.732 0 14 0C6.26801 0 0 6.26801 0 14C0 21.732 6.26801 28 14 28Z" fill="#00858A"/>
<path d="M8.9249 15.1375H19.5124M16.7124 20.475H10.7624C9.4499 20.475 8.3999 19.425 8.3999 18.1125V10.4125C8.3999 9.10005 9.4499 8.05005 10.7624 8.05005H16.7124C18.0249 8.05005 19.0749 9.10005 19.0749 10.4125V18.1125C19.0749 19.425 18.0249 20.475 16.7124 20.475Z" stroke="white" stroke-miterlimit="10"/>
<path d="M11.9873 18.2876C12.2289 18.2876 12.4248 18.0917 12.4248 17.8501C12.4248 17.6085 12.2289 17.4126 11.9873 17.4126C11.7457 17.4126 11.5498 17.6085 11.5498 17.8501C11.5498 18.0917 11.7457 18.2876 11.9873 18.2876Z" stroke="white" stroke-miterlimit="10"/>
<path d="M15.5747 18.2876C15.8163 18.2876 16.0122 18.0917 16.0122 17.8501C16.0122 17.6085 15.8163 17.4126 15.5747 17.4126C15.3331 17.4126 15.1372 17.6085 15.1372 17.8501C15.1372 18.0917 15.3331 18.2876 15.5747 18.2876Z" stroke="white" stroke-miterlimit="10"/>
<path d="M17.2376 5.6875L14.7001 8.225M10.4126 5.6875L12.9501 8.225L10.4126 5.6875Z" stroke="white" stroke-miterlimit="10"/>
<path d="M11.5498 23.1875C11.0248 23.1875 10.6748 22.8375 10.6748 22.3125V20.5625H12.4248V22.3125C12.4248 22.75 12.0748 23.1875 11.5498 23.1875ZM16.0123 23.1875C15.4873 23.1875 15.1373 22.8375 15.1373 22.3125V20.5625H16.8873V22.3125C16.8873 22.75 16.5373 23.1875 16.0123 23.1875Z" stroke="white" stroke-miterlimit="10"/>
</svg>
