<svg width="28" height="28" viewBox="0 0 28 28" fill="none" xmlns="http://www.w3.org/2000/svg">
<path d="M14 28C21.732 28 28 21.732 28 14C28 6.26801 21.732 0 14 0C6.26801 0 0 6.26801 0 14C0 21.732 6.26801 28 14 28Z" fill="#80BF63"/>
<path d="M9 11.72C9 11.72 11.2 9.79445 14.5 12.2413C17.9697 14.8139 20 13.8051 20 13.8051M14 12C13.7051 13.5593 11.7238 19.498 7 18.9665M13 16C14.0909 16.2688 17 17.3297 17 21M17 8.5C17 9.32843 16.3284 10 15.5 10C14.6716 10 14 9.32843 14 8.5C14 7.67157 14.6716 7 15.5 7C16.3284 7 17 7.67157 17 8.5Z" stroke="white" stroke-linecap="round" stroke-linejoin="round"/>
</svg>
