<svg width="28" height="28" viewBox="0 0 28 28" fill="none" xmlns="http://www.w3.org/2000/svg">
<path d="M14 28C21.732 28 28 21.732 28 14C28 6.26801 21.732 0 14 0C6.26801 0 0 6.26801 0 14C0 21.732 6.26801 28 14 28Z" fill="#C51786"/>
<g clip-path="url(#clip0_116_1458)">
<path d="M22.3319 12.7197L14.1288 8.3447C14.0481 8.30177 13.9521 8.30177 13.8715 8.3447L5.66836 12.7197C5.57895 12.7673 5.52344 12.86 5.52344 12.9609C5.52344 13.0618 5.57895 13.1545 5.66809 13.202L7.98438 14.4374V17.8827H8.53125V14.7292L9.35156 15.1667V16.8278C8.88098 16.95 8.53125 17.3744 8.53125 17.8827C8.53125 18.1327 8.61875 18.3604 8.76039 18.545C8.61109 19.0555 8.53125 19.5819 8.53125 20.1145V20.8906C8.53125 20.9942 8.58977 21.0888 8.68246 21.1353L8.98461 21.2865C9.18258 21.3852 9.40379 21.4374 9.625 21.4374C9.84621 21.4374 10.0674 21.3852 10.2654 21.2862L10.5675 21.135C10.6602 21.0888 10.7188 20.9942 10.7188 20.8906V20.1145C10.7188 19.5819 10.6389 19.0555 10.4896 18.545C10.6313 18.3604 10.7188 18.1327 10.7188 17.8827C10.7188 17.3744 10.369 16.95 9.89844 16.8278V15.4584L13.8712 17.5773C13.9117 17.5986 13.9557 17.6093 14 17.6093C14.0443 17.6093 14.0883 17.5986 14.1288 17.5773L19.4688 14.7292V17.7477C17.9479 18.8936 16.0694 19.5234 14.1638 19.5234H13.8365C12.8978 19.5234 11.9697 19.3743 11.0778 19.0804L10.9069 19.5999C11.8535 19.9119 12.8395 20.0702 13.8362 20.0702H14.1635C16.2345 20.0702 18.2752 19.37 19.9101 18.0985C19.9765 18.0468 20.0156 17.9672 20.0156 17.8827V14.4374L22.3319 13.202C22.4211 13.1545 22.4766 13.0618 22.4766 12.9609C22.4766 12.86 22.4211 12.7673 22.3319 12.7197ZM10.1719 20.7216L10.0207 20.797C9.77594 20.9193 9.47379 20.9193 9.22906 20.797L9.07812 20.7216V20.1145C9.07812 19.7036 9.12816 19.2964 9.22687 18.8988C9.35047 18.9475 9.48418 18.9765 9.625 18.9765C9.76582 18.9765 9.89953 18.9475 10.0231 18.8988C10.1218 19.2964 10.1719 19.7036 10.1719 20.1145V20.7216ZM10.1719 17.8827C10.1719 18.1843 9.9266 18.4296 9.625 18.4296C9.3234 18.4296 9.07812 18.1843 9.07812 17.8827C9.07812 17.5811 9.3234 17.3359 9.625 17.3359C9.9266 17.3359 10.1719 17.5811 10.1719 17.8827ZM14 17.0258L10.0866 14.9386L13.4742 13.132C13.6298 13.1955 13.807 13.2343 14 13.2343C14.6133 13.2343 15.0938 12.8739 15.0938 12.414C15.0938 11.9541 14.6133 11.5937 14 11.5937C13.3867 11.5937 12.9062 11.9541 12.9062 12.414C12.9062 12.539 12.9443 12.6554 13.0082 12.7607L9.50551 14.6288L6.37793 12.9609L14 8.89567L21.6221 12.9609L14 17.0258ZM13.4531 12.414C13.4531 12.3024 13.6661 12.1406 14 12.1406C14.3339 12.1406 14.5469 12.3024 14.5469 12.414C14.5469 12.5256 14.3339 12.6874 14 12.6874C13.6661 12.6874 13.4531 12.5256 13.4531 12.414Z" fill="white"/>
</g>
<defs>
<clipPath id="clip0_116_1458">
<rect width="17.5" height="17.5" fill="white" transform="translate(5.25 6.125)"/>
</clipPath>
</defs>
</svg>
