<svg width="28" height="28" viewBox="0 0 28 28" fill="none" xmlns="http://www.w3.org/2000/svg">
<path d="M14 28C21.732 28 28 21.732 28 14C28 6.26801 21.732 0 14 0C6.26801 0 0 6.26801 0 14C0 21.732 6.26801 28 14 28Z" fill="#EE9E1D"/>
<path d="M15.8548 16.695C16.799 16.1205 17.5741 15.3061 18.1012 14.3348C18.6284 13.3634 18.8889 12.2697 18.8561 11.165H8.3561C8.32133 12.2757 8.58257 13.3756 9.11305 14.352C9.64352 15.3283 10.4241 16.1461 11.3748 16.7213L15.8548 16.695Z" stroke="white" stroke-miterlimit="10"/>
<path d="M18.856 11.165H21.481C21.481 11.165 22.356 12.915 21.481 13.79C20.606 14.665 18.3223 14.4638 18.3223 14.4638" stroke="white" stroke-miterlimit="10"/>
<path d="M7.91895 17.7275H20.1689V18.6025H7.91895V17.7275Z" fill="white"/>
</svg>
