<svg width="28" height="28" viewBox="0 0 28 28" fill="none" xmlns="http://www.w3.org/2000/svg">
<path d="M28 14C28 21.735 21.735 28 14 28C6.265 28 0 21.735 0 14C0 6.265 6.265 0 14 0C21.735 0 28 6.265 28 14Z" fill="#51A5ED"/>
<g clip-path="url(#clip0_116_1513)">
<path d="M19.3372 15.9243H8.66284C7.26349 15.9243 6.125 17.0628 6.125 18.4622C6.125 19.8616 7.26349 21 8.66284 21H19.3372C20.7365 21 21.875 19.8616 21.875 18.4622C21.875 17.0628 20.7365 15.9243 19.3372 15.9243ZM21.4004 18.2315H19.3372C18.2702 18.2315 17.389 17.4225 17.2739 16.3857H19.3372C20.4041 16.3857 21.2853 17.1947 21.4004 18.2315ZM16.8103 16.3857C16.9273 17.6773 18.0156 18.6929 19.3372 18.6929H21.4004C21.3628 19.0314 21.2437 19.3457 21.0629 19.6154C17.5954 19.6005 15.8886 18.9429 14.0829 18.2469C12.3875 17.5934 10.6371 16.9189 7.35282 16.8526C7.71046 16.561 8.1665 16.3857 8.66284 16.3857H16.8103ZM11.1897 20.5386C11.0727 19.247 9.9844 18.2315 8.66284 18.2315C8.5354 18.2315 8.43213 18.3348 8.43213 18.4622C8.43213 18.5896 8.5354 18.6929 8.66284 18.6929C9.72978 18.6929 10.611 19.5019 10.7261 20.5386H8.66284C7.5959 20.5386 6.71473 19.7296 6.59956 18.6929H7.73999C7.86744 18.6929 7.9707 18.5896 7.9707 18.4622C7.9707 18.3348 7.86744 18.2315 7.73999 18.2315H6.59956C6.63718 17.8929 6.75626 17.5787 6.93711 17.3089C10.4046 17.3238 12.1114 17.9815 13.9171 18.6774C15.6125 19.3309 17.3629 20.0054 20.6472 20.0718C20.2895 20.3633 19.8335 20.5386 19.3372 20.5386H11.1897Z" fill="white"/>
<path d="M14 15.4629C17.8334 15.4629 20.9521 12.3442 20.9521 8.51077C20.9521 8.38335 20.8489 8.28005 20.7214 8.28005C19.8972 8.28005 19.1062 8.42457 18.372 8.68903C18.3348 7.88975 18.16 7.10843 17.8508 6.36194C17.802 6.24421 17.667 6.18826 17.5493 6.23707C16.841 6.53048 16.1953 6.93207 15.6256 7.43291C15.2762 6.655 14.7848 5.93924 14.1632 5.31758C14.073 5.22747 13.927 5.22747 13.8369 5.31758C13.2152 5.93921 12.7238 6.655 12.3744 7.43291C11.8047 6.93207 11.159 6.53045 10.4507 6.23707C10.3331 6.18838 10.1981 6.24418 10.1493 6.36194C9.84003 7.10843 9.66524 7.88975 9.62802 8.68903C8.89377 8.42454 8.10276 8.28005 7.27856 8.28005C7.15112 8.28005 7.04785 8.38335 7.04785 8.51077C7.04785 12.3442 10.1666 15.4629 14 15.4629ZM13.7693 8.97219C13.7693 8.84496 13.8728 8.74148 14 8.74148C14.1272 8.74148 14.2307 8.84496 14.2307 8.97219C14.2307 9.09942 14.1272 9.2029 14 9.2029C13.8728 9.2029 13.7693 9.09942 13.7693 8.97219ZM14.2349 14.9973C14.3562 11.6047 17.0939 8.86699 20.4865 8.74566C20.3652 12.1383 17.6275 14.876 14.2349 14.9973ZM17.5105 6.7571C17.7646 7.43783 17.9008 8.14738 17.9166 8.87142C17.3044 9.14243 16.7383 9.49914 16.2339 9.92651C16.1926 9.22093 16.0492 8.53565 15.8109 7.88713C16.314 7.4222 16.8843 7.04297 17.5105 6.7571ZM14 5.81272C15.1519 7.04675 15.7817 8.64338 15.7847 10.3424C15.1131 11.0205 14.5796 11.8356 14.2307 12.7416V9.62465C14.4992 9.52941 14.6921 9.27298 14.6921 8.97219C14.6921 8.59053 14.3816 8.28005 14 8.28005C13.6184 8.28005 13.3079 8.59053 13.3079 8.97219C13.3079 9.27295 13.5008 9.52941 13.7693 9.62465V12.7417C13.4204 11.8356 12.8869 11.0205 12.2153 10.3424C12.2183 8.64338 12.8481 7.04675 14 5.81272ZM10.4895 6.7571C11.1157 7.04297 11.686 7.4222 12.1891 7.88713C11.9508 8.53565 11.8074 9.22096 11.7661 9.92651C11.2617 9.49914 10.6956 9.14243 10.0834 8.87142C10.0992 8.14738 10.2354 7.43783 10.4895 6.7571ZM13.7651 14.9973C10.3725 14.876 7.63475 12.1383 7.51349 8.74566C10.9061 8.86696 13.6438 11.6047 13.7651 14.9973Z" fill="white"/>
</g>
<defs>
<clipPath id="clip0_116_1513">
<rect width="15.75" height="15.75" fill="white" transform="translate(6.125 5.25)"/>
</clipPath>
</defs>
</svg>
