<svg width="28" height="28" viewBox="0 0 28 28" fill="none" xmlns="http://www.w3.org/2000/svg">
<path d="M14 28C21.732 28 28 21.732 28 14C28 6.26801 21.732 0 14 0C6.26801 0 0 6.26801 0 14C0 21.732 6.26801 28 14 28Z" fill="#EE731D"/>
<path d="M10.6401 14.0962H12.2939V9.06494H14.8314C17.7101 9.06494 18.5151 10.3862 18.5151 11.9262C18.5151 13.4662 17.4214 14.7349 14.8751 14.7349H13.1251V16.5549H15.8114V17.1849H13.1251V19.4249H12.3114V17.1849H10.6401V16.5549H12.2939V14.7349H10.6401V14.0962ZM13.1251 9.83494V14.0962H14.8139C16.6951 14.0962 17.6751 13.3262 17.6751 11.9524C17.6751 10.5787 16.8526 9.79994 14.8751 9.79994L13.1251 9.83494Z" fill="white"/>
</svg>
