<svg width="28" height="28" viewBox="0 0 28 28" fill="none" xmlns="http://www.w3.org/2000/svg">
<path d="M14 28C21.732 28 28 21.732 28 14C28 6.26801 21.732 0 14 0C6.26801 0 0 6.26801 0 14C0 21.732 6.26801 28 14 28Z" fill="#AA00B9"/>
<g clip-path="url(#clip0_116_1502)">
<path d="M6.34033 10.0522H10.4932C10.5503 10.0522 10.605 10.0749 10.6454 10.1153C10.6858 10.1557 10.7085 10.2105 10.7085 10.2676V13.0054H17.2915V10.2676C17.2915 10.2105 17.3142 10.1557 17.3546 10.1153C17.395 10.0749 17.4497 10.0522 17.5068 10.0522H21.6597C21.7168 10.0522 21.7715 10.0749 21.8119 10.1153C21.8523 10.1557 21.875 10.2105 21.875 10.2676V17.7323C21.875 17.7894 21.8523 17.8442 21.8119 17.8846C21.7715 17.925 21.7168 17.9477 21.6597 17.9477H17.5068C17.4497 17.9477 17.395 17.925 17.3546 17.8846C17.3142 17.8442 17.2915 17.7894 17.2915 17.7323V14.9945H10.7085V17.7323C10.7085 17.7894 10.6858 17.8442 10.6454 17.8846C10.605 17.925 10.5503 17.9477 10.4932 17.9477H6.34033C6.28322 17.9477 6.22845 17.925 6.18807 17.8846C6.14769 17.8442 6.125 17.7894 6.125 17.7323V10.2676C6.125 10.2105 6.14769 10.1557 6.18807 10.1153C6.22845 10.0749 6.28322 10.0522 6.34033 10.0522ZM21.4443 10.4829H20.4907V17.517H21.4443V10.4829ZM20.0601 10.4829H19.1064V17.517H20.0601V10.4829ZM17.7222 17.5171H18.6758V10.4829H17.7222V17.5171ZM17.2915 14.564V13.436H10.7085V14.564H17.2915ZM10.2778 10.4829H9.32422V17.517H10.2778V10.4829ZM8.89355 10.4829H7.93994V17.517H8.89355V10.4829ZM6.55566 17.5171H7.50928V10.4829H6.55566V17.5171Z" fill="white"/>
</g>
<defs>
<clipPath id="clip0_116_1502">
<rect width="15.75" height="15.75" fill="white" transform="matrix(-1 0 0 1 21.875 6.125)"/>
</clipPath>
</defs>
</svg>
