<svg width="28" height="28" viewBox="0 0 28 28" fill="none" xmlns="http://www.w3.org/2000/svg">
<path d="M14 28C21.732 28 28 21.732 28 14C28 6.26801 21.732 0 14 0C6.26801 0 0 6.26801 0 14C0 21.732 6.26801 28 14 28Z" fill="#006EB9"/>
<path d="M8 10.9114C8 10.9114 10.7273 8.86076 14 10.9114C17.2727 12.962 20 10.9114 20 10.9114M8 14.5C8 14.5 10.7273 12.4494 14 14.5C17.2727 16.5506 20 14.5 20 14.5M8 18.0886C8 18.0886 10.7273 16.038 14 18.0886C17.2727 20.1392 20 18.0886 20 18.0886" stroke="white" stroke-linecap="round" stroke-linejoin="round"/>
</svg>
