<svg width="28" height="28" viewBox="0 0 28 28" fill="none" xmlns="http://www.w3.org/2000/svg">
<path d="M14 28C21.732 28 28 21.732 28 14C28 6.26801 21.732 0 14 0C6.26801 0 0 6.26801 0 14C0 21.732 6.26801 28 14 28Z" fill="#C8D660"/>
<path d="M14 19V21" stroke="white" stroke-linecap="round" stroke-linejoin="round"/>
<path d="M11.5 17C11.7761 17 12 16.5523 12 16C12 15.4477 11.7761 15 11.5 15C11.2239 15 11 15.4477 11 16C11 16.5523 11.2239 17 11.5 17Z" fill="white"/>
<path d="M16.5 17C16.7761 17 17 16.5523 17 16C17 15.4477 16.7761 15 16.5 15C16.2239 15 16 15.4477 16 16C16 16.5523 16.2239 17 16.5 17Z" fill="white"/>
<path d="M15 18L14 19L13 18" stroke="white" stroke-linecap="round" stroke-linejoin="round"/>
<path d="M16 9.95808L19.3945 9.01614C19.4589 8.99826 19.5259 8.9952 19.5914 9.00713C19.6569 9.01907 19.7196 9.04574 19.7755 9.08553C19.8314 9.12531 19.8793 9.17736 19.9164 9.23848C19.9535 9.2996 19.979 9.3685 19.9912 9.44093L20.9907 15.3576C21.0846 15.9134 20.4438 16.2358 20.1291 15.7912L16 9.95808Z" stroke="white" stroke-linecap="round" stroke-linejoin="round"/>
<path d="M12 9.95808L8.60554 9.01614C8.54112 8.99827 8.47409 8.9952 8.40857 9.00713C8.34305 9.01906 8.28042 9.04574 8.22453 9.08553C8.16863 9.12531 8.12066 9.17736 8.08356 9.23848C8.04645 9.2996 8.021 9.3685 8.00877 9.44093L7.0093 15.3576C6.91541 15.9134 7.55615 16.2358 7.87088 15.7912L12 9.95808Z" stroke="white" stroke-linecap="round" stroke-linejoin="round"/>
<path d="M12 10H16" stroke="white" stroke-linecap="round" stroke-linejoin="round"/>
<path d="M19 15V19.015C19 19.5415 18.7893 20.0464 18.4142 20.4186C18.0391 20.7909 17.5304 21 17 21H11C10.4696 21 9.96086 20.7909 9.58579 20.4186C9.21071 20.0464 9 19.5415 9 19.015V15" stroke="white" stroke-linecap="round" stroke-linejoin="round"/>
</svg>
