<svg width="28" height="28" viewBox="0 0 28 28" fill="none" xmlns="http://www.w3.org/2000/svg">
<path d="M14 28C21.732 28 28 21.732 28 14C28 6.26801 21.732 0 14 0C6.26801 0 0 6.26801 0 14C0 21.732 6.26801 28 14 28Z" fill="#24731D"/>
<path d="M19.6096 13.1776C20.9765 11.8107 20.9765 9.59464 19.6096 8.2278C18.2428 6.86097 16.0267 6.86097 14.6599 8.2278L8.47271 14.415C7.10587 15.7818 7.10587 17.9979 8.47271 19.3647C9.83954 20.7316 12.0556 20.7316 13.4225 19.3647L19.6096 13.1776Z" stroke="white" stroke-miterlimit="10"/>
<path d="M11.5674 11.3137L16.5199 16.2575" stroke="white" stroke-miterlimit="10"/>
</svg>
