<svg width="62" height="62" viewBox="0 0 62 62" fill="none" xmlns="http://www.w3.org/2000/svg">
<circle cx="31" cy="31" r="31" fill="white"/>
<path d="M30.7388 8.92016L30.6873 5C29.1398 5 27.644 5.20632 26.1997 5.46423L26.9218 9.3328C28.1598 9.0749 29.4493 8.92016 30.7388 8.92016Z" fill="#E5E572"/>
<path d="M38.1665 10.0548L39.456 6.34102C38.0633 5.87679 36.5674 5.51572 35.0716 5.25781L34.4526 9.12639C35.7422 9.38429 36.9801 9.69378 38.1665 10.0548Z" fill="#B8D066"/>
<path d="M26.9218 9.28117L26.1996 5.4126C24.6522 5.72208 23.2079 6.13473 21.7637 6.65054L23.1564 10.3128C24.3943 9.90015 25.6322 9.53908 26.9218 9.28117Z" fill="#F9EC8A"/>
<path d="M19.2877 12.3244L17.2245 8.97168C15.7286 9.90014 14.3359 10.9833 13.0464 12.2213L15.7802 15.0582C16.8118 14.0266 17.9982 13.0982 19.2877 12.3244Z" fill="#F0DA7B"/>
<path d="M13.0468 12.2214C11.4993 13.7173 10.1582 15.3679 9.02344 17.1732L12.3762 19.288C13.3562 17.7406 14.491 16.3479 15.7806 15.11L13.0468 12.2214Z" fill="#DFA461"/>
<path d="M23.1567 10.3644L21.7641 6.70215C20.165 7.32112 18.6176 8.09483 17.1733 8.97171L19.2366 12.3245C20.4745 11.5508 21.8156 10.8802 23.1567 10.3644Z" fill="#F8E47E"/>
<path d="M42.4477 12.0665L44.4594 8.71372C42.912 7.78527 41.2098 7.01155 39.456 6.39258L38.1665 10.1064C39.6624 10.5706 41.1066 11.2412 42.4477 12.0665Z" fill="#91C274"/>
<path d="M30.7904 8.92016C32.0283 8.92016 33.2662 8.97174 34.4526 9.17807L35.0716 5.30949C33.6789 5.10317 32.2346 5 30.7388 5L30.7904 8.92016C30.7388 8.92016 30.7388 8.92016 30.7904 8.92016Z" fill="#D7E067"/>
<path d="M46.0584 14.7488L48.689 11.8603C47.3995 10.6739 45.9553 9.59074 44.4594 8.71387L42.4478 12.0666C43.7373 12.8403 44.9236 13.7172 46.0584 14.7488Z" fill="#7DB96C"/>
<path d="M35.1235 52.8671L35.8457 56.7356C37.3931 56.4262 38.8374 56.0651 40.2816 55.4977L38.8889 51.8354C37.7026 52.2997 36.4646 52.6092 35.1235 52.8671Z" fill="#70A8C7"/>
<path d="M31.3579 53.2283L31.4095 57.1485C32.9569 57.1485 34.4012 56.9937 35.8455 56.6843L35.1233 52.8157C33.937 53.0736 32.6474 53.2283 31.3579 53.2283Z" fill="#748EC7"/>
<path d="M38.8887 51.8355L40.2814 55.4977C41.8804 54.8788 43.3762 54.1566 44.8205 53.2798L42.7572 49.927C41.5709 50.6491 40.2814 51.3197 38.8887 51.8355Z" fill="#7BC2DE"/>
<path d="M27.7474 53.022L27.1284 56.8905C28.5211 57.0969 29.9138 57.2 31.3581 57.2L31.3065 53.2799C30.1201 53.2799 28.9338 53.1767 27.7474 53.022Z" fill="#888BC3"/>
<path d="M12.3244 19.2364L8.97167 17.1216C8.04321 18.6174 7.21792 20.268 6.54736 21.9702L10.2612 23.3629C10.8286 21.9186 11.4991 20.5259 12.3244 19.2364Z" fill="#E49C6D"/>
<path d="M23.9302 52.0935L22.6406 55.8073C24.0849 56.3231 25.5807 56.6842 27.1282 56.8905L27.7471 53.022C26.406 52.8156 25.1681 52.5062 23.9302 52.0935Z" fill="#9471AE"/>
<path d="M46.2648 47.2449C45.1816 48.2765 44.0468 49.1534 42.7573 49.9271L44.8206 53.2799C46.3164 52.3514 47.6575 51.2682 48.947 50.0818L46.2648 47.2449Z" fill="#8BC7D3"/>
<path d="M19.5976 50.0818L17.5859 53.4346C19.1849 54.4146 20.8871 55.1883 22.6409 55.8073L23.9304 52.0935C22.383 51.5776 20.9903 50.8555 19.5976 50.0818Z" fill="#B069A5"/>
<path d="M8.92015 31.4094L5 31.461C5.05158 33.3179 5.2579 35.0717 5.61897 36.8254L9.48755 35.9486C9.12648 34.5043 8.92015 32.9569 8.92015 31.4094Z" fill="#DD7B73"/>
<path d="M10.2612 23.3629L6.54734 21.9702C5.97995 23.5176 5.51572 25.1682 5.25781 26.8188L9.12639 27.4378C9.43588 26.0451 9.79694 24.704 10.2612 23.3629Z" fill="#E49C75"/>
<path d="M9.43596 35.9487L5.56738 36.8256C5.92845 38.373 6.39268 39.8689 7.01165 41.2616L10.6223 39.7141C10.1581 38.5278 9.74545 37.2383 9.43596 35.9487Z" fill="#D76D69"/>
<path d="M8.92015 31.358C8.92015 30.0169 9.02332 28.7273 9.22964 27.4378L5.36107 26.8188C5.10316 28.3147 5 29.8621 5 31.4096V31.4611L8.92015 31.358C8.92015 31.4096 8.92015 31.4096 8.92015 31.358Z" fill="#DD827E"/>
<path d="M12.7369 43.5825L9.4873 45.8005C10.6221 47.5027 11.9632 49.0501 13.459 50.3912L16.0897 47.5027C14.8517 46.3163 13.717 44.9752 12.7369 43.5825Z" fill="#DB7FAF"/>
<path d="M10.6224 39.7141L7.01172 41.2615C7.68227 42.8606 8.50757 44.3564 9.48761 45.8007L12.7372 43.5827C11.9119 42.3447 11.2414 41.0552 10.6224 39.7141Z" fill="#D8728F"/>
<path d="M16.1414 47.4512L13.5107 50.3397C14.8003 51.4745 16.1414 52.5061 17.6372 53.4346L19.6489 50.0818C18.3594 49.3081 17.2246 48.4312 16.1414 47.4512Z" fill="#BA6FA7"/>
<path d="M30.7905 13.0466L30.7389 8.92017C29.4493 8.92017 28.1598 9.0749 26.9219 9.33281L27.6956 13.4077C28.7272 13.1498 29.7588 13.0466 30.7905 13.0466Z" fill="#DCE266"/>
<path d="M30.8421 13.0466C31.8737 13.0466 32.8538 13.0982 33.8338 13.253L34.4528 9.17807C33.2664 8.97175 32.0285 8.92017 30.7905 8.92017L30.8421 13.0466C30.7905 13.0466 30.8421 13.0466 30.8421 13.0466Z" fill="#C8D660"/>
<path d="M27.6959 13.3561L26.9222 9.28125C25.6326 9.53916 24.3431 9.90022 23.1567 10.3129L24.601 14.1814C25.6326 13.8204 26.6642 13.5625 27.6959 13.3561Z" fill="#F9ED77"/>
<path d="M19.2878 12.3245C17.9983 13.1498 16.8119 14.0266 15.7803 15.1098L18.6172 18.1015C19.4941 17.2762 20.4741 16.5025 21.5058 15.832L19.2878 12.3245Z" fill="#F4D665"/>
<path d="M12.4791 19.3396L15.8319 21.4544C16.6056 20.2164 17.5341 19.0817 18.6173 18.0501L15.7803 15.0583C14.4908 16.2963 13.3044 17.689 12.376 19.2364L12.4791 19.3396Z" fill="#DFA358"/>
<path d="M24.6522 14.2331L23.2079 10.3645C21.8152 10.8803 20.5257 11.5509 19.3394 12.3246L21.5058 15.8321C22.4342 15.1615 23.5174 14.6457 24.6522 14.2331Z" fill="#F8E670"/>
<path d="M36.8257 13.9751L38.1668 10.0549C36.9804 9.64228 35.7425 9.33279 34.453 9.12646L33.834 13.2014C34.8656 13.4077 35.8972 13.6656 36.8257 13.9751Z" fill="#A9CA5F"/>
<path d="M40.2816 15.5741L42.3964 12.015C41.0553 11.2413 39.6626 10.5707 38.1668 10.0549L36.8257 13.9751C38.0636 14.3877 39.1984 14.9551 40.2816 15.5741Z" fill="#87BE6E"/>
<path d="M15.832 21.4543L12.4792 19.3395L12.3245 19.2363C11.4992 20.5259 10.8286 21.9185 10.2612 23.3628L14.1298 24.8071C14.594 23.6207 15.1614 22.4859 15.832 21.4543Z" fill="#E2915C"/>
<path d="M12.3247 19.2363L12.4795 19.3395L12.3247 19.2363Z" fill="#E2915C"/>
<path d="M40.2812 15.5742C41.3645 16.1931 42.3445 16.9669 43.2214 17.7921L46.0067 14.7489C44.9235 13.7172 43.6856 12.8404 42.3961 12.0667L40.2812 15.5742Z" fill="#71B463"/>
<path d="M18.927 44.408L16.1416 47.4512C17.2248 48.4313 18.3596 49.3082 19.6491 50.0303L21.7639 46.4712C20.7323 45.9038 19.8039 45.1817 18.927 44.408Z" fill="#BA65A2"/>
<path d="M37.4443 47.9671L38.8886 51.8357C40.2297 51.3199 41.5192 50.7009 42.7572 49.9272L40.5908 46.4197C39.6107 47.0387 38.5275 47.5545 37.4443 47.9671Z" fill="#6EB1D0"/>
<path d="M42.7572 49.9271C43.9952 49.1534 45.1815 48.2249 46.2647 47.2449L43.4278 44.2532C42.5509 45.0785 41.6224 45.8006 40.5908 46.4196L42.7572 49.9271Z" fill="#7CC1CB"/>
<path d="M34.4014 48.7923L35.1751 52.8672C36.4646 52.6093 37.7541 52.2998 38.9405 51.8356L37.4962 47.967C36.4646 48.3281 35.433 48.6376 34.4014 48.7923Z" fill="#618BB2"/>
<path d="M28.366 48.8955L27.7471 52.9704C28.9334 53.1251 30.1198 53.2283 31.3577 53.2283L31.3062 49.1018C30.2745 49.1534 29.2945 49.0503 28.366 48.8955Z" fill="#6D73B1"/>
<path d="M13.2531 28.1082C13.4595 26.9735 13.7174 25.8387 14.13 24.8071L10.2614 23.3628C9.7972 24.6523 9.38455 26.045 9.17822 27.4893L13.2531 28.1082Z" fill="#DD7E62"/>
<path d="M31.3062 49.1017L31.3577 53.2282C32.6473 53.2282 33.8852 53.0735 35.1231 52.8671L34.3494 48.7922C33.3694 48.9986 32.3378 49.1017 31.3062 49.1017Z" fill="#5F74B3"/>
<path d="M14.4396 38.115L10.6226 39.714C11.1899 41.0551 11.9121 42.3446 12.7374 43.5826L16.1417 41.2614C15.4712 40.2298 14.9038 39.1982 14.4396 38.115Z" fill="#D56073"/>
<path d="M13.4594 35.0203L9.43604 35.9487C9.74552 37.2382 10.1582 38.5278 10.6224 39.7141L14.4394 38.1151C14.0267 37.1351 13.7173 36.1035 13.4594 35.0203Z" fill="#D35C56"/>
<path d="M13.0464 31.3579L8.91992 31.4095C8.91992 32.9569 9.12625 34.5043 9.43573 35.9486L13.4591 35.0202C13.2011 33.8338 13.0464 32.6474 13.0464 31.3579Z" fill="#D46D5D"/>
<path d="M13.0464 31.3063C13.0464 30.2231 13.098 29.1399 13.3043 28.1083L9.22941 27.4377C9.02309 28.7273 8.91992 30.0168 8.91992 31.3579V31.4095L13.0464 31.3063C13.0464 31.3579 13.0464 31.3579 13.0464 31.3063Z" fill="#D97267"/>
<path d="M21.7638 46.5227L19.6489 50.0818C20.99 50.9071 22.4343 51.5776 23.9302 52.0935L25.2713 48.1733C24.0333 47.7606 22.847 47.1933 21.7638 46.5227Z" fill="#9D5E94"/>
<path d="M25.2713 48.1733L23.9302 52.0935C25.1681 52.5061 26.4576 52.8156 27.7472 53.022L28.3661 48.9471C27.2829 48.7407 26.2513 48.4828 25.2713 48.1733Z" fill="#8266A7"/>
<path d="M16.1416 41.21L12.7373 43.5311C13.7173 44.9754 14.8521 46.2649 16.1416 47.4513L18.927 44.408C17.8954 43.4795 16.9669 42.3963 16.1416 41.21Z" fill="#D76692"/>
<path d="M24.6523 14.2329C23.5175 14.6456 22.4859 15.213 21.5059 15.8319L23.8786 19.5973C24.6523 19.1331 25.426 18.7205 26.2513 18.411L24.6523 14.2329Z" fill="#F8E763"/>
<path d="M28.5207 17.7406L27.6954 13.3562C26.6122 13.5625 25.6322 13.8204 24.6006 14.2331L26.1996 18.4111C26.9733 18.1017 27.747 17.8953 28.5207 17.7406Z" fill="#F4EB69"/>
<path d="M30.8422 17.4826L30.7907 13.0466C29.7075 13.0466 28.6758 13.1498 27.6958 13.3561L28.5211 17.7405C29.2948 17.5858 30.0685 17.5342 30.8422 17.4826Z" fill="#D2DD63"/>
<path d="M30.8939 17.4826C31.6676 17.4826 32.4413 17.5342 33.1634 17.6373L33.834 13.253C32.8539 13.0982 31.8739 13.0466 30.8423 13.0466L30.8939 17.4826Z" fill="#B4CA5B"/>
<path d="M19.5976 23.8271L15.8322 21.4543C15.1617 22.486 14.5943 23.6207 14.1816 24.8071L18.3597 26.3545C18.6692 25.4777 19.0818 24.6008 19.5976 23.8271Z" fill="#DF8C51"/>
<path d="M15.8322 21.4543C15.1617 22.486 14.5943 23.6207 14.1816 24.8071C14.5943 23.6207 15.1617 22.486 15.8322 21.4543Z" fill="#DF8C51"/>
<path d="M23.8272 19.5974L21.4545 15.832C20.4228 16.5026 19.4428 17.2247 18.5659 18.1016L21.6608 21.3512C22.3313 20.6806 23.0535 20.0617 23.8272 19.5974Z" fill="#F4D25A"/>
<path d="M21.6605 21.2997L18.5656 18.05C17.534 19.0817 16.6056 20.2164 15.7803 21.4544L19.5457 23.8271C20.1647 22.8987 20.8868 22.0734 21.6605 21.2997Z" fill="#E6A14E"/>
<path d="M18.3079 26.3546L14.1298 24.8071C13.7172 25.8903 13.4593 26.9735 13.2529 28.1083L17.6373 28.8305C17.7921 28.0052 18.05 27.1799 18.3079 26.3546Z" fill="#D77154"/>
<path d="M35.4327 18.2047L36.8769 13.9751C35.8969 13.6656 34.8653 13.4077 33.8336 13.2529L33.1631 17.6373C33.9368 17.7921 34.6589 17.9468 35.4327 18.2047Z" fill="#A0C65D"/>
<path d="M35.4326 18.2047C36.3611 18.5142 37.238 18.9269 38.0117 19.3911L40.2812 15.5741C39.198 14.9036 38.0632 14.3877 36.8253 13.9751L35.4326 18.2047Z" fill="#7BB763"/>
<path d="M38.0117 19.391C38.837 19.8553 39.5591 20.4227 40.2297 21.0416L43.2214 17.7404C42.2929 16.9152 41.3129 16.193 40.2813 15.5225L38.0117 19.391Z" fill="#66A45E"/>
<path d="M40.591 46.4197C41.6226 45.8007 42.5511 45.0786 43.4279 44.2533L40.3331 41.0037C39.6625 41.6226 38.9404 42.19 38.2183 42.6543L40.591 46.4197Z" fill="#73BCCA"/>
<path d="M37.4442 47.9669C38.5274 47.5543 39.6106 47.0384 40.5907 46.4195L38.2179 42.6541C37.4958 43.1183 36.6705 43.4793 35.8452 43.7888L37.4442 47.9669Z" fill="#659AC0"/>
<path d="M33.5757 44.4079L34.401 48.7922C35.4326 48.5859 36.4642 48.328 37.4443 47.9154L35.8452 43.7373C35.1231 44.0468 34.3494 44.3047 33.5757 44.4079Z" fill="#57779D"/>
<path d="M13.0468 31.358L17.4828 31.3064V31.2548C17.4828 30.4295 17.5344 29.6042 17.6891 28.8305L13.3047 28.1084C13.0984 29.1916 12.9953 30.2232 13.0468 31.358Z" fill="#D46D5D"/>
<path d="M31.2549 44.6659L31.3065 49.1018C32.3381 49.1018 33.3697 48.9987 34.4013 48.7923L33.576 44.408C32.8023 44.5627 32.0286 44.6659 31.2549 44.6659Z" fill="#5468AA"/>
<path d="M17.7923 34.0918L13.4595 35.0718C13.7174 36.1035 14.0269 37.1351 14.4395 38.1151L18.566 36.3614C18.2565 35.6392 17.9986 34.8655 17.7923 34.0918Z" fill="#D3564A"/>
<path d="M19.8551 38.7339L16.1929 41.2614C16.9666 42.4477 17.895 43.4793 18.9782 44.4594L21.9699 41.1582C21.1446 40.3845 20.4225 39.6108 19.8551 38.7339Z" fill="#D55B7D"/>
<path d="M18.5659 36.3613L14.4395 38.1151C14.9037 39.1983 15.4711 40.2815 16.1416 41.2615L19.8039 38.7341C19.3397 37.9603 18.927 37.1866 18.5659 36.3613Z" fill="#D5545D"/>
<path d="M17.4824 31.3064L13.0464 31.358C13.0464 32.6475 13.2011 33.8339 13.459 35.0202L17.7918 34.0402C17.6371 33.1633 17.4824 32.2349 17.4824 31.3064Z" fill="#D56051"/>
<path d="M29.0368 44.511L28.3662 48.8954C29.2947 49.0501 30.2747 49.1017 31.3063 49.1017L31.2548 44.6657C30.481 44.6657 29.7589 44.6141 29.0368 44.511Z" fill="#626AAD"/>
<path d="M26.664 43.9436L25.2197 48.1732C26.1998 48.5343 27.283 48.7922 28.3146 48.947L28.9851 44.5626C28.2114 44.4078 27.4377 44.2015 26.664 43.9436Z" fill="#796099"/>
<path d="M21.9185 41.1067L18.9268 44.4079C19.8036 45.1816 20.7321 45.9037 21.7637 46.5227L24.0333 42.7057C23.2596 42.2415 22.589 41.7257 21.9185 41.1067Z" fill="#A95A8B"/>
<path d="M24.0332 42.7058L21.7637 46.5228C22.8469 47.1934 24.0332 47.7607 25.2712 48.1734L26.7154 43.9438C25.7354 43.6343 24.8585 43.2216 24.0332 42.7058Z" fill="#7E496D"/>
<path d="M27.5407 21.8153L26.2511 18.3594C25.4259 18.6689 24.6006 19.0815 23.8784 19.5457L25.8385 22.6406C26.3027 22.3311 26.9217 22.0732 27.5407 21.8153Z" fill="#F1DE58"/>
<path d="M28.521 17.7405L29.1916 21.3512C29.7589 21.248 30.3263 21.1964 30.8937 21.1964L30.8421 17.5342C30.0684 17.5342 29.2947 17.5858 28.521 17.7405Z" fill="#C8D660"/>
<path d="M26.1997 18.411L27.4892 21.8669C28.0566 21.6606 28.5724 21.5058 29.1914 21.4027L28.5209 17.792C27.7471 17.8952 26.9734 18.1015 26.1997 18.411Z" fill="#EDEA65"/>
<path d="M30.8936 17.4827L30.9451 21.1449C30.9967 21.1449 30.9967 21.1449 31.0483 21.1449C31.6157 21.1449 32.1315 21.1965 32.6473 21.2997L33.2147 17.6374C32.3894 17.5342 31.6673 17.4827 30.8936 17.4827Z" fill="#A2BE59"/>
<path d="M25.7871 22.6923L23.8271 19.5974C23.0533 20.1132 22.3312 20.6806 21.6606 21.2996L24.1881 23.9302C24.6523 23.466 25.1682 23.0533 25.7871 22.6923Z" fill="#F5CD53"/>
<path d="M22.692 25.7872L19.5972 23.8271L22.692 25.7872Z" fill="#C7DC93"/>
<path d="M22.6409 25.7872L19.5461 23.8271C19.0302 24.6009 18.6176 25.4777 18.3081 26.3546L21.7125 27.6441C21.9704 26.9736 22.2798 26.3546 22.6409 25.7872Z" fill="#DE824C"/>
<path d="M22.6408 25.7872C22.6923 25.7872 22.6923 25.7872 22.6408 25.7872L19.5459 23.8271L22.6408 25.7872Z" fill="#DE824C"/>
<path d="M24.1879 23.9302L21.6604 21.2996C20.8867 22.0733 20.1646 22.8986 19.5972 23.827L22.692 25.7871C23.1047 25.1166 23.6205 24.4976 24.1879 23.9302Z" fill="#E2954F"/>
<path d="M32.5957 21.2997C33.1631 21.4029 33.7305 21.506 34.2463 21.7123L35.4327 18.2048C34.7105 17.9469 33.9368 17.7922 33.1631 17.6375L32.5957 21.2997Z" fill="#98C35A"/>
<path d="M21.7639 27.644L18.3595 26.3545C18.05 27.1282 17.8437 27.9535 17.689 28.8304L21.2996 29.3978C21.3512 28.8304 21.5575 28.2114 21.7639 27.644Z" fill="#D7704D"/>
<path d="M36.1035 22.5891C36.6709 22.9501 37.2383 23.3628 37.7541 23.827L40.23 21.0932C39.5594 20.4742 38.7857 19.9069 38.012 19.4426L36.1035 22.5891Z" fill="#5E955B"/>
<path d="M34.2466 21.7123C34.9171 21.9186 35.5361 22.2281 36.1035 22.5892L38.012 19.4427C37.1867 18.9785 36.3098 18.5658 35.433 18.2563L34.2466 21.7123Z" fill="#74B55F"/>
<path d="M31.2033 44.6658L31.1518 41.0036C31.1002 41.0036 31.1002 41.0036 31.0486 41.0036C30.5328 41.0036 30.017 40.952 29.5527 40.9004L28.9854 44.5111C29.7591 44.6142 30.4812 44.6658 31.2033 44.6658Z" fill="#515D94"/>
<path d="M38.2184 42.6541C38.9921 42.1899 39.7142 41.6225 40.3332 41.0035L37.8057 38.3213C37.3415 38.7855 36.8257 39.1466 36.2583 39.5076L38.2184 42.6541Z" fill="#6BAAC3"/>
<path d="M35.8452 43.789C36.6705 43.4795 37.4442 43.0668 38.2179 42.6542L36.2578 39.5593C35.742 39.8688 35.1746 40.1783 34.5557 40.3846L35.8452 43.789Z" fill="#5E8AB7"/>
<path d="M35.8452 43.7889L34.5557 40.3845C34.0399 40.5908 33.4725 40.7456 32.8535 40.8487L33.5241 44.4594C34.3494 44.3047 35.1231 44.0468 35.8452 43.7889Z" fill="#4C6487"/>
<path d="M31.2547 44.6659C32.0284 44.6659 32.8021 44.5627 33.5759 44.4595L32.9053 40.8489C32.3379 40.952 31.7705 41.0036 31.2031 41.0036L31.2547 44.6659Z" fill="#4D609B"/>
<path d="M21.1447 31.1516C21.1447 30.5843 21.1963 30.0169 21.2994 29.4495L17.6887 28.8821C17.534 29.6558 17.4824 30.4811 17.4824 31.3064V31.358L21.1447 31.3064C21.1447 31.2032 21.1447 31.2032 21.1447 31.1516Z" fill="#D6674F"/>
<path d="M21.9187 41.1066L24.3946 38.4244C23.8272 37.9086 23.3114 37.2896 22.8472 36.6707L19.8555 38.7339C20.4229 39.6108 21.145 40.3845 21.9187 41.1066Z" fill="#CB5164"/>
<path d="M19.8554 38.734L22.8471 36.6707C22.4861 36.1034 22.1766 35.536 21.9187 34.917L18.5659 36.3613C18.927 37.1866 19.3396 37.9603 19.8554 38.734Z" fill="#C64F56"/>
<path d="M18.5659 36.3612L21.9186 34.9169C21.7123 34.4011 21.506 33.8337 21.4028 33.2664L17.8438 34.0401C17.9985 34.8654 18.2564 35.6391 18.5659 36.3612Z" fill="#C85345"/>
<path d="M21.3513 33.2663C21.1966 32.5958 21.145 31.9252 21.0934 31.2546L17.4312 31.3062C17.4312 32.2347 17.5343 33.1631 17.7406 34.0916L21.3513 33.2663Z" fill="#D35B46"/>
<path d="M29.0368 44.5111L29.6042 40.9004C28.9852 40.7973 28.4178 40.6941 27.8504 40.4878L26.6641 43.9437C27.4378 44.2016 28.2115 44.408 29.0368 44.5111Z" fill="#624E79"/>
<path d="M24.0336 42.7058L25.8905 39.5593C25.3231 39.2499 24.8589 38.8372 24.3431 38.4246L21.8672 41.1068C22.5893 41.7257 23.2599 42.2416 24.0336 42.7058Z" fill="#9F4E70"/>
<path d="M26.6638 43.9437L27.8502 40.4878C27.1796 40.2299 26.5091 39.972 25.8901 39.5593L24.0332 42.7058C24.8585 43.2216 25.7354 43.6342 26.6638 43.9437Z" fill="#6D3D58"/>
</svg>
