<svg width="201" height="53" viewBox="0 0 201 53" fill="none" xmlns="http://www.w3.org/2000/svg">
<path d="M66.2739 48.7471L64.1409 46.1459H63.1525V48.7471H62.112V46.1459H61.1235L58.9905 48.7471H57.8459L60.3431 45.6256L58.1581 42.5042H59.3026L61.1755 45.1574H62.112V42.5042H63.1525V45.1574H64.0889L65.9618 42.5042H67.1063L64.9213 45.6256L67.4185 48.7471H66.2739Z" fill="white"/>
<path d="M68.563 48.7471V42.5042H69.6035V47.0303L73.4013 42.5042H74.2857V48.7471H73.2452V44.221L69.4474 48.7471H68.563Z" fill="white"/>
<path d="M76.1588 48.8511C75.9507 48.8511 75.6905 48.7991 75.4304 48.6951V47.9147C75.5865 47.9667 75.6906 47.9667 75.8466 47.9667C76.9391 47.9667 77.3033 45.8857 77.4074 42.5042H81.9855V48.7471H80.945V43.4926H78.3958C78.2398 46.6661 77.7715 48.8511 76.1588 48.8511Z" fill="white"/>
<path d="M86.7717 42.3479C88.4885 42.3479 90.1013 43.4924 90.1013 45.6255C90.1013 47.7585 88.4885 48.903 86.7717 48.903C85.1069 48.903 83.4421 47.7585 83.4421 45.6255C83.4421 43.4924 85.1069 42.3479 86.7717 42.3479ZM86.7717 43.3364C85.5231 43.3364 84.4826 44.1688 84.4826 45.6255C84.4826 47.0821 85.4711 47.9145 86.7717 47.9145C88.0203 47.9145 89.0608 47.0821 89.0608 45.6255C89.0608 44.2208 88.0723 43.3364 86.7717 43.3364Z" fill="white"/>
<path d="M91.7141 48.7465V42.5036H92.7546V47.0297L96.5524 42.5036H97.4368V48.7465H96.3963V44.2204L92.5985 48.7465H91.7141ZM94.6275 41.5672C94.0032 41.5672 93.3789 41.4111 92.8066 41.0469V40.1105C93.4309 40.5267 94.0032 40.6827 94.6275 40.6827C95.2518 40.6827 95.772 40.5267 96.4483 40.1105V41.0469C95.8241 41.4111 95.2518 41.5672 94.6275 41.5672Z" fill="white"/>
<path d="M104.044 48.7471V42.5042H105.084V45.1054H106.333L108.31 42.5042H109.506L107.165 45.6256L109.818 48.7471H108.57L106.281 46.0938H105.084V48.7471H104.044Z" fill="white"/>
<path d="M113.824 42.3479C115.541 42.3479 117.154 43.4924 117.154 45.6255C117.154 47.7585 115.541 48.903 113.824 48.903C112.16 48.903 110.495 47.7585 110.495 45.6255C110.495 43.4924 112.108 42.3479 113.824 42.3479ZM113.824 43.3364C112.576 43.3364 111.535 44.1688 111.535 45.6255C111.535 47.0821 112.524 47.9145 113.824 47.9145C115.125 47.9145 116.114 47.0821 116.114 45.6255C116.114 44.2208 115.073 43.3364 113.824 43.3364Z" fill="white"/>
<path d="M118.559 48.7471V42.5042H119.703L121.992 45.9378L124.281 42.5042H125.426V48.7471H124.437V44.0649L122.408 47.1343H121.576L119.547 44.0649V48.7471H118.559Z" fill="white"/>
<path d="M127.455 48.7471V42.5042H133.126V48.7471H132.085V43.4926H128.495V48.7471H127.455Z" fill="white"/>
<path d="M135.102 48.8511C134.894 48.8511 134.634 48.7991 134.374 48.6951V47.9147C134.53 47.9667 134.634 47.9667 134.79 47.9667C135.883 47.9667 136.247 45.8857 136.351 42.5042H140.929V48.7471H139.889V43.4926H137.339C137.131 46.6661 136.715 48.8511 135.102 48.8511Z" fill="white"/>
<path d="M145.507 42.3479C147.901 42.3479 148.785 44.3248 148.421 46.0937H143.478C143.635 47.3943 144.779 47.9666 146.028 47.9666C146.808 47.9666 147.536 47.7585 148.057 47.4463V48.4348C147.484 48.7469 146.652 48.903 145.872 48.903C144.051 48.903 142.438 47.8625 142.438 45.6255C142.438 43.4404 144.051 42.3479 145.507 42.3479ZM145.559 43.3364C144.519 43.3364 143.531 43.9607 143.426 45.2092H147.484C147.588 44.5329 147.172 43.3364 145.559 43.3364Z" fill="white"/>
<path d="M149.929 48.7471V42.5042H150.97V45.1054H152.219L154.195 42.5042H155.392L153.051 45.6256L155.704 48.7471H154.508L152.219 46.0938H151.022V48.7471H149.929Z" fill="white"/>
<path d="M159.346 42.3479C160.022 42.3479 160.75 42.504 161.271 42.8681L160.855 43.5965C160.594 43.4404 160.23 43.2844 159.502 43.2844C158.305 43.3364 157.057 43.9607 157.057 45.5734C157.057 47.1862 158.253 47.8625 159.502 47.8625C160.178 47.8625 160.542 47.7585 160.855 47.6024L161.375 48.3827C160.803 48.6429 160.126 48.799 159.346 48.799C157.733 48.799 156.016 47.7585 156.016 45.5734C155.964 43.3884 157.733 42.3479 159.346 42.3479Z" fill="white"/>
<path d="M77.2512 33.4518V7.75171H98.8414V33.4518H94.6794V11.6015H81.4652V33.4518H77.2512Z" fill="white"/>
<path d="M122.773 7.75184V11.5496H109.246V18.573H118.871V22.3707H109.246V29.6021H122.981V33.3999H105.084V7.69983H122.773V7.75184Z" fill="white"/>
<path d="M175.161 7.75171V11.6015H166.681V33.4518H162.519V11.6015H153.987V7.75171H175.161Z" fill="white"/>
<path d="M70.8002 29.134C70.6961 29.186 70.5921 29.2381 70.488 29.2381C69.1354 29.7583 67.5746 30.0705 65.9099 30.0705C60.9675 30.0705 55.7651 27.1571 55.7651 20.8101C55.8171 14.0469 60.9155 11.1335 65.8058 11.1335C67.3665 11.1335 68.9273 11.4457 70.332 11.9659L72.2048 8.84445C70.0718 7.80396 67.6267 7.23169 65.1295 7.23169C58.3663 7.23169 51.4991 11.6538 51.4991 20.7581C51.447 29.5502 58.5224 33.8683 65.1295 33.8683C67.8348 33.8683 70.384 33.244 72.569 32.2035L72.8291 32.0474L70.8002 29.134Z" fill="white"/>
<path d="M141.345 20.2896L149.877 7.75171H145.143L137.964 18.4688H132.917V17.5323V7.75171H128.703V33.4518H132.917V23.4631V22.3186H138.016L145.767 33.4518H150.502L141.345 20.2896Z" fill="white"/>
<path d="M189.104 7.75171H179.948V33.4518H184.109V24.6597H189.104C195.191 24.6597 200.081 22.7348 200.081 16.2317C200.081 9.67663 195.191 7.75171 189.104 7.75171ZM189.312 20.8619H184.109V11.6015H189.312C192.85 11.6015 195.815 12.486 195.815 16.2317C195.815 19.9775 192.85 20.8619 189.312 20.8619Z" fill="white"/>
<path d="M25.7388 3.92016L25.6873 0C24.1398 0 22.644 0.206321 21.1997 0.464226L21.9218 4.3328C23.1598 4.0749 24.4493 3.92016 25.7388 3.92016Z" fill="#E5E572"/>
<path d="M33.1665 5.05497L34.456 1.34114C33.0633 0.87691 31.5674 0.51584 30.0716 0.257935L29.4526 4.12651C30.7422 4.38442 31.9801 4.6939 33.1665 5.05497Z" fill="#B8D066"/>
<path d="M21.922 4.28117L21.1999 0.412598C19.6524 0.722084 18.2082 1.13473 16.7639 1.65054L18.1566 5.3128C19.3945 4.90015 20.6325 4.53908 21.922 4.28117Z" fill="#F9EC8A"/>
<path d="M14.2879 7.32457L12.2247 3.9718C10.7288 4.90026 9.33616 5.98346 8.04663 7.22141L10.7804 10.0584C11.812 9.02674 12.9984 8.09828 14.2879 7.32457Z" fill="#F0DA7B"/>
<path d="M8.04651 7.22131C6.49908 8.71716 5.15798 10.3678 4.02319 12.1731L7.37596 14.2879C8.356 12.7405 9.49079 11.3478 10.7803 10.1099L8.04651 7.22131Z" fill="#DFA461"/>
<path d="M18.1565 5.3644L16.7638 1.70215C15.1648 2.32112 13.6174 3.09483 12.1731 3.97171L14.2363 7.32448C15.4743 6.55076 16.8154 5.88021 18.1565 5.3644Z" fill="#F8E47E"/>
<path d="M37.4477 7.06661L39.4594 3.71385C37.912 2.78539 36.2098 2.01167 34.456 1.3927L33.1665 5.10653C34.6624 5.57076 36.1066 6.24132 37.4477 7.06661Z" fill="#91C274"/>
<path d="M25.7906 3.92016C27.0285 3.92016 28.2665 3.97174 29.4529 4.17807L30.0718 0.309489C28.6791 0.103165 27.2349 0 25.739 0L25.7906 3.92016C25.739 3.92016 25.739 3.92016 25.7906 3.92016Z" fill="#D7E067"/>
<path d="M41.0584 9.74885L43.689 6.86031C42.3995 5.67395 40.9553 4.59074 39.4594 3.71387L37.4478 7.06663C38.7373 7.84035 39.9236 8.71723 41.0584 9.74885Z" fill="#7DB96C"/>
<path d="M30.1233 47.8672L30.8454 51.7358C32.3929 51.4263 33.8371 51.0652 35.2814 50.4978L33.8887 46.8356C32.7023 47.2998 31.4644 47.6093 30.1233 47.8672Z" fill="#70A8C7"/>
<path d="M26.3579 48.2283L26.4095 52.1485C27.9569 52.1485 29.4012 51.9937 30.8455 51.6843L30.1233 47.8157C28.937 48.0736 27.6474 48.2283 26.3579 48.2283Z" fill="#748EC7"/>
<path d="M33.8887 46.8356L35.2814 50.4979C36.8804 49.8789 38.3762 49.1568 39.8205 48.2799L37.7572 44.9271C36.5709 45.6493 35.2814 46.3198 33.8887 46.8356Z" fill="#7BC2DE"/>
<path d="M22.7471 48.022L22.1282 51.8905C23.5209 52.0969 24.9135 52.2 26.3578 52.2L26.3062 48.2799C25.1199 48.2799 23.9335 48.1767 22.7471 48.022Z" fill="#888BC3"/>
<path d="M7.32444 14.2364L3.97167 12.1216C3.04321 13.6174 2.21792 15.268 1.54736 16.9702L5.2612 18.3629C5.82859 16.9186 6.49914 15.5259 7.32444 14.2364Z" fill="#E49C6D"/>
<path d="M18.9302 47.0935L17.6406 50.8073C19.0849 51.3231 20.5807 51.6842 22.1282 51.8905L22.7471 48.022C21.406 47.8156 20.1681 47.5062 18.9302 47.0935Z" fill="#9471AE"/>
<path d="M41.2648 42.2449C40.1816 43.2765 39.0468 44.1534 37.7573 44.9271L39.8206 48.2799C41.3164 47.3514 42.6575 46.2682 43.947 45.0818L41.2648 42.2449Z" fill="#8BC7D3"/>
<path d="M14.5974 45.0818L12.5857 48.4346C14.1847 49.4146 15.8869 50.1883 17.6406 50.8073L18.9302 47.0935C17.3827 46.5776 15.99 45.8555 14.5974 45.0818Z" fill="#B069A5"/>
<path d="M3.92015 26.4095L0 26.4611C0.051581 28.318 0.257904 30.0718 0.618971 31.8256L4.48755 30.9487C4.12648 29.5044 3.92015 27.957 3.92015 26.4095Z" fill="#DD7B73"/>
<path d="M5.26117 18.3629L1.54734 16.9702C0.979947 18.5176 0.515718 20.1682 0.257812 21.8188L4.12639 22.4378C4.43588 21.0451 4.79694 19.704 5.26117 18.3629Z" fill="#E49C75"/>
<path d="M4.43596 30.9486L0.567383 31.8255C0.92845 33.3729 1.39268 34.8688 2.01165 36.2615L5.62232 34.714C5.1581 33.5277 4.74545 32.2381 4.43596 30.9486Z" fill="#D76D69"/>
<path d="M3.92015 26.3579C3.92015 25.0168 4.02332 23.7272 4.22964 22.4377L0.361066 21.8187C0.10316 23.3146 0 24.862 0 26.4094V26.461L3.92015 26.3579C3.92015 26.4094 3.92015 26.4094 3.92015 26.3579Z" fill="#DD827E"/>
<path d="M7.73715 38.5826L4.48755 40.8006C5.62233 42.5028 6.96344 44.0502 8.45929 45.3913L11.0899 42.5028C9.85198 41.3164 8.71719 39.9753 7.73715 38.5826Z" fill="#DB7FAF"/>
<path d="M5.62239 34.714L2.01172 36.2614C2.68227 37.8604 3.50757 39.3563 4.48761 40.8006L7.73722 38.5826C6.91192 37.3446 6.24136 36.0551 5.62239 34.714Z" fill="#D8728F"/>
<path d="M11.1414 42.4512L8.51074 45.3397C9.80027 46.4745 11.1414 47.5061 12.6372 48.4346L14.6489 45.0818C13.3594 44.3081 12.2246 43.4312 11.1414 42.4512Z" fill="#BA6FA7"/>
<path d="M25.7905 8.04665L25.7389 3.92017C24.4493 3.92017 23.1598 4.0749 21.9219 4.33281L22.6956 8.40771C23.7272 8.14981 24.7588 8.04665 25.7905 8.04665Z" fill="#DCE266"/>
<path d="M25.8421 8.04665C26.8737 8.04665 27.8538 8.09823 28.8338 8.25297L29.4528 4.17807C28.2664 3.97175 27.0285 3.92017 25.7905 3.92017L25.8421 8.04665C25.7905 8.04665 25.8421 8.04665 25.8421 8.04665Z" fill="#C8D660"/>
<path d="M22.6956 8.35615L21.9219 4.28125C20.6324 4.53916 19.3429 4.90022 18.1565 5.31287L19.6008 9.18145C20.6324 8.82038 21.664 8.56247 22.6956 8.35615Z" fill="#F9ED77"/>
<path d="M14.288 7.32446C12.9985 8.14976 11.8121 9.02664 10.7805 10.1098L13.6175 13.1015C14.4944 12.2762 15.4744 11.5025 16.506 10.832L14.288 7.32446Z" fill="#F4D665"/>
<path d="M7.47914 14.3396L10.8319 16.4544C11.6056 15.2164 12.5341 14.0817 13.6173 13.0501L10.7803 10.0583C9.4908 11.2963 8.30444 12.689 7.37598 14.2364L7.47914 14.3396Z" fill="#DFA358"/>
<path d="M19.6524 9.23296L18.2082 5.36438C16.8155 5.88019 15.526 6.55075 14.3396 7.32446L16.506 10.832C17.4345 10.1614 18.5177 9.64561 19.6524 9.23296Z" fill="#F8E670"/>
<path d="M31.8254 8.97508L33.1665 5.05492C31.9802 4.64228 30.7422 4.33279 29.4527 4.12646L28.8337 8.20136C29.8654 8.40769 30.897 8.66559 31.8254 8.97508Z" fill="#A9CA5F"/>
<path d="M35.2814 10.5741L37.3962 7.01501C36.0551 6.2413 34.6624 5.57074 33.1665 5.05493L31.8254 8.97508C33.0634 9.38773 34.1982 9.95513 35.2814 10.5741Z" fill="#87BE6E"/>
<path d="M10.832 16.4543L7.47922 14.3395L7.32447 14.2363C6.49918 15.5259 5.82862 16.9185 5.26123 18.3628L9.12981 19.8071C9.59404 18.6207 10.1614 17.4859 10.832 16.4543Z" fill="#E2915C"/>
<path d="M7.32446 14.2363L7.47921 14.3395L7.32446 14.2363Z" fill="#E2915C"/>
<path d="M35.2815 10.5742C36.3647 11.1931 37.3447 11.9669 38.2216 12.7921L41.007 9.74886C39.9238 8.71724 38.6858 7.84037 37.3963 7.06665L35.2815 10.5742Z" fill="#71B463"/>
<path d="M13.9267 39.408L11.1414 42.4512C12.2246 43.4313 13.3593 44.3082 14.6489 45.0303L16.7637 41.4712C15.7321 40.9038 14.8036 40.1817 13.9267 39.408Z" fill="#BA65A2"/>
<path d="M32.4443 42.967L33.8886 46.8356C35.2297 46.3198 36.5192 45.7008 37.7572 44.9271L35.5908 41.4196C34.6107 42.0385 33.5275 42.5543 32.4443 42.967Z" fill="#6EB1D0"/>
<path d="M37.7572 44.9271C38.9952 44.1534 40.1815 43.2249 41.2647 42.2449L38.4278 39.2532C37.5509 40.0785 36.6224 40.8006 35.5908 41.4196L37.7572 44.9271Z" fill="#7CC1CB"/>
<path d="M29.4011 43.7923L30.1748 47.8672C31.4644 47.6093 32.7539 47.2998 33.9402 46.8356L32.496 42.967C31.4644 43.3281 30.4327 43.6376 29.4011 43.7923Z" fill="#618BB2"/>
<path d="M23.3663 43.8955L22.7473 47.9704C23.9337 48.1251 25.12 48.2283 26.358 48.2283L26.3064 44.1018C25.2748 44.1534 24.2947 44.0503 23.3663 43.8955Z" fill="#6D73B1"/>
<path d="M8.25288 23.1082C8.45921 21.9735 8.71711 20.8387 9.12976 19.8071L5.26118 18.3628C4.79695 19.6523 4.3843 21.045 4.17798 22.4893L8.25288 23.1082Z" fill="#DD7E62"/>
<path d="M26.3064 44.1017L26.358 48.2282C27.6475 48.2282 28.8854 48.0735 30.1234 47.8671L29.3497 43.7922C28.3696 43.9986 27.338 44.1017 26.3064 44.1017Z" fill="#5F74B3"/>
<path d="M9.43931 33.115L5.62231 34.714C6.18971 36.0551 6.91184 37.3446 7.73714 38.5826L11.1415 36.2614C10.4709 35.2298 9.90354 34.1982 9.43931 33.115Z" fill="#D56073"/>
<path d="M8.45936 30.0201L4.43604 30.9486C4.74552 32.2381 5.15817 33.5277 5.6224 34.714L9.43939 33.115C9.02674 32.135 8.71726 31.1033 8.45936 30.0201Z" fill="#D35C56"/>
<path d="M8.04665 26.3579L3.92017 26.4095C3.92017 27.9569 4.12649 29.5043 4.43598 30.9486L8.4593 30.0202C8.20139 28.8338 8.04665 27.6474 8.04665 26.3579Z" fill="#D46D5D"/>
<path d="M8.04665 26.3063C8.04665 25.2231 8.09823 24.1399 8.30455 23.1083L4.22966 22.4377C4.02333 23.7273 3.92017 25.0168 3.92017 26.3579V26.4095L8.04665 26.3063C8.04665 26.3579 8.04665 26.3579 8.04665 26.3063Z" fill="#D97267"/>
<path d="M16.7638 41.5227L14.6489 45.0818C15.99 45.9071 17.4343 46.5776 18.9302 47.0935L20.2713 43.1733C19.0333 42.7606 17.847 42.1933 16.7638 41.5227Z" fill="#9D5E94"/>
<path d="M20.2713 43.1733L18.9302 47.0935C20.1681 47.5061 21.4576 47.8156 22.7472 48.022L23.3661 43.9471C22.2829 43.7407 21.2513 43.4828 20.2713 43.1733Z" fill="#8266A7"/>
<path d="M11.1414 36.2098L7.73706 38.531C8.7171 39.9753 9.85188 41.2648 11.1414 42.4511L13.9268 39.4079C12.8952 38.4794 11.9667 37.3962 11.1414 36.2098Z" fill="#D76692"/>
<path d="M19.6523 9.23303C18.5175 9.64568 17.4859 10.2131 16.5059 10.832L18.8786 14.5975C19.6523 14.1332 20.426 13.7206 21.2513 13.4111L19.6523 9.23303Z" fill="#F8E763"/>
<path d="M23.521 12.7405L22.6957 8.35608C21.6125 8.5624 20.6325 8.82031 19.6008 9.23295L21.1998 13.411C21.9736 13.1015 22.7473 12.8952 23.521 12.7405Z" fill="#F4EB69"/>
<path d="M25.842 12.4826L25.7904 8.04663C24.7072 8.04663 23.6756 8.14979 22.6956 8.35611L23.5208 12.7405C24.2946 12.5858 25.0683 12.5342 25.842 12.4826Z" fill="#D2DD63"/>
<path d="M25.8936 12.4826C26.6673 12.4826 27.4411 12.5342 28.1632 12.6373L28.8337 8.25295C27.8537 8.09821 26.8737 8.04663 25.842 8.04663L25.8936 12.4826Z" fill="#B4CA5B"/>
<path d="M14.5974 18.8271L10.832 16.4543C10.1614 17.486 9.59404 18.6207 9.1814 19.8071L13.3595 21.3545C13.6689 20.4777 14.0816 19.6008 14.5974 18.8271Z" fill="#DF8C51"/>
<path d="M10.832 16.4543C10.1614 17.486 9.59404 18.6207 9.1814 19.8071C9.59404 18.6207 10.1614 17.486 10.832 16.4543Z" fill="#DF8C51"/>
<path d="M18.8269 14.5974L16.4542 10.832C15.4226 11.5026 14.4426 12.2247 13.5657 13.1016L16.6605 16.3512C17.3311 15.6806 18.0532 15.0617 18.8269 14.5974Z" fill="#F4D25A"/>
<path d="M16.6608 16.2997L13.5659 13.05C12.5343 14.0817 11.6058 15.2164 10.7805 16.4544L14.5459 18.8271C15.1649 17.8987 15.887 17.0734 16.6608 16.2997Z" fill="#E6A14E"/>
<path d="M13.3079 21.3546L9.12981 19.8071C8.71716 20.8903 8.45925 21.9735 8.25293 23.1083L12.6373 23.8305C12.7921 23.0052 13.05 22.1799 13.3079 21.3546Z" fill="#D77154"/>
<path d="M30.4329 13.2047L31.8772 8.97506C30.8971 8.66557 29.8655 8.40767 28.8339 8.25293L28.1633 12.6373C28.937 12.7921 29.6592 12.9468 30.4329 13.2047Z" fill="#A0C65D"/>
<path d="M30.4329 13.2047C31.3613 13.5142 32.2382 13.9269 33.0119 14.3911L35.2815 10.5741C34.1983 9.90356 33.0635 9.38775 31.8255 8.9751L30.4329 13.2047Z" fill="#7BB763"/>
<path d="M33.012 14.3912C33.8373 14.8554 34.5594 15.4228 35.2299 16.0418L38.2216 12.7406C37.2932 11.9153 36.3131 11.1931 35.2815 10.5226L33.012 14.3912Z" fill="#66A45E"/>
<path d="M35.591 41.4195C36.6226 40.8006 37.5511 40.0784 38.4279 39.2531L35.3331 36.0035C34.6625 36.6225 33.9404 37.1899 33.2183 37.6541L35.591 41.4195Z" fill="#73BCCA"/>
<path d="M32.4445 42.967C33.5277 42.5544 34.6109 42.0386 35.5909 41.4196L33.2182 37.6542C32.4961 38.1184 31.6708 38.4795 30.8455 38.789L32.4445 42.967Z" fill="#659AC0"/>
<path d="M28.5759 39.4079L29.4012 43.7922C30.4328 43.5859 31.4645 43.328 32.4445 42.9154L30.8455 38.7373C30.1234 39.0468 29.3496 39.3047 28.5759 39.4079Z" fill="#57779D"/>
<path d="M8.04659 26.3579L12.4826 26.3063V26.2547C12.4826 25.4294 12.5341 24.6041 12.6889 23.8304L8.3045 23.1083C8.09817 24.1915 7.99501 25.2231 8.04659 26.3579Z" fill="#D46D5D"/>
<path d="M26.2546 39.6659L26.3062 44.1018C27.3378 44.1018 28.3695 43.9987 29.4011 43.7923L28.5758 39.408C27.8021 39.5627 27.0284 39.6659 26.2546 39.6659Z" fill="#5468AA"/>
<path d="M12.792 29.0917L8.45923 30.0717C8.71713 31.1033 9.02662 32.135 9.43926 33.115L13.5657 31.3612C13.2563 30.6391 12.9984 29.8654 12.792 29.0917Z" fill="#D3564A"/>
<path d="M14.8554 33.734L11.1931 36.2615C11.9668 37.4478 12.8953 38.4795 13.9785 39.4595L16.9702 36.1583C16.1449 35.3846 15.4228 34.6109 14.8554 33.734Z" fill="#D55B7D"/>
<path d="M13.5657 31.3612L9.43921 33.115C9.90344 34.1982 10.4708 35.2814 11.1414 36.2614L14.8036 33.7339C14.3394 32.9602 13.9268 32.1865 13.5657 31.3612Z" fill="#D5545D"/>
<path d="M12.4826 26.3063L8.04663 26.3579C8.04663 27.6474 8.20138 28.8337 8.45928 30.0201L12.7921 29.0401C12.6373 28.1632 12.4826 27.2347 12.4826 26.3063Z" fill="#D56051"/>
<path d="M24.0368 39.5111L23.3662 43.8955C24.2947 44.0502 25.2747 44.1018 26.3063 44.1018L26.2548 39.6658C25.481 39.6658 24.7589 39.6143 24.0368 39.5111Z" fill="#626AAD"/>
<path d="M21.664 38.9437L20.2197 43.1734C21.1998 43.5344 22.283 43.7923 23.3146 43.9471L23.9851 39.5627C23.2114 39.408 22.4377 39.2016 21.664 38.9437Z" fill="#796099"/>
<path d="M16.9185 36.1067L13.9268 39.4079C14.8036 40.1816 15.7321 40.9037 16.7637 41.5227L19.0333 37.7057C18.2596 37.2415 17.589 36.7257 16.9185 36.1067Z" fill="#A95A8B"/>
<path d="M19.0335 37.7057L16.7639 41.5227C17.8471 42.1932 19.0335 42.7606 20.2714 43.1733L21.7157 38.9436C20.7357 38.6341 19.8588 38.2215 19.0335 37.7057Z" fill="#7E496D"/>
<path d="M22.5409 16.8154L21.2514 13.3595C20.4261 13.669 19.6008 14.0816 18.8787 14.5459L20.8387 17.6407C21.303 17.3312 21.9219 17.0733 22.5409 16.8154Z" fill="#F1DE58"/>
<path d="M23.521 12.7405L24.1916 16.3512C24.7589 16.248 25.3263 16.1964 25.8937 16.1964L25.8421 12.5342C25.0684 12.5342 24.2947 12.5858 23.521 12.7405Z" fill="#C8D660"/>
<path d="M21.1997 13.4111L22.4892 16.867C23.0566 16.6607 23.5724 16.5059 24.1914 16.4028L23.5209 12.7921C22.7471 12.8953 21.9734 13.1016 21.1997 13.4111Z" fill="#EDEA65"/>
<path d="M25.8936 12.4827L25.9451 16.1449C25.9967 16.1449 25.9967 16.1449 26.0483 16.1449C26.6157 16.1449 27.1315 16.1965 27.6473 16.2997L28.2147 12.6374C27.3894 12.5342 26.6673 12.4827 25.8936 12.4827Z" fill="#A2BE59"/>
<path d="M20.7871 17.6923L18.8271 14.5974C18.0533 15.1132 17.3312 15.6806 16.6606 16.2996L19.1881 18.9302C19.6523 18.466 20.1682 18.0533 20.7871 17.6923Z" fill="#F5CD53"/>
<path d="M17.6923 20.7871L14.5974 18.827L17.6923 20.7871Z" fill="#C7DC93"/>
<path d="M17.6407 20.7871L14.5458 18.827C14.03 19.6007 13.6173 20.4776 13.3079 21.3545L16.7122 22.644C16.9701 21.9735 17.2796 21.3545 17.6407 20.7871Z" fill="#DE824C"/>
<path d="M17.6408 20.7871C17.6923 20.7871 17.6923 20.7871 17.6408 20.7871L14.5459 18.827L17.6408 20.7871Z" fill="#DE824C"/>
<path d="M19.1881 18.9302L16.6607 16.2996C15.8869 17.0733 15.1648 17.8986 14.5974 18.827L17.6923 20.7871C18.1049 20.1166 18.6207 19.4976 19.1881 18.9302Z" fill="#E2954F"/>
<path d="M27.5959 16.2996C28.1633 16.4027 28.7307 16.5059 29.2465 16.7122L30.4329 13.2047C29.7108 12.9468 28.937 12.7921 28.1633 12.6373L27.5959 16.2996Z" fill="#98C35A"/>
<path d="M16.7639 22.644L13.3595 21.3545C13.05 22.1282 12.8437 22.9535 12.689 23.8304L16.2996 24.3978C16.3512 23.8304 16.5575 23.2114 16.7639 22.644Z" fill="#D7704D"/>
<path d="M31.1033 17.5891C31.6707 17.9501 32.2381 18.3628 32.7539 18.827L35.2298 16.0932C34.5592 15.4742 33.7855 14.9069 33.0118 14.4426L31.1033 17.5891Z" fill="#5E955B"/>
<path d="M29.2463 16.7123C29.9169 16.9186 30.5359 17.2281 31.1033 17.5892L33.0118 14.4427C32.1865 13.9785 31.3096 13.5658 30.4327 13.2563L29.2463 16.7123Z" fill="#74B55F"/>
<path d="M26.2031 39.6658L26.1515 36.0036C26.0999 36.0036 26.0999 36.0036 26.0483 36.0036C25.5325 36.0036 25.0167 35.952 24.5525 35.9004L23.9851 39.5111C24.7588 39.6142 25.481 39.6658 26.2031 39.6658Z" fill="#515D94"/>
<path d="M33.2181 37.6541C33.9918 37.1899 34.714 36.6225 35.333 36.0035L32.8055 33.3213C32.3413 33.7855 31.8254 34.1466 31.2581 34.5076L33.2181 37.6541Z" fill="#6BAAC3"/>
<path d="M30.8454 38.789C31.6707 38.4795 32.4444 38.0668 33.2182 37.6542L31.2581 34.5593C30.7423 34.8688 30.1749 35.1783 29.5559 35.3846L30.8454 38.789Z" fill="#5E8AB7"/>
<path d="M30.8455 38.789L29.5559 35.3846C29.0401 35.591 28.4727 35.7457 27.8538 35.8489L28.5243 39.4595C29.3496 39.3048 30.1233 39.0469 30.8455 38.789Z" fill="#4C6487"/>
<path d="M26.2547 39.6657C27.0284 39.6657 27.8021 39.5626 28.5759 39.4594L27.9053 35.8488C27.3379 35.9519 26.7705 36.0035 26.2031 36.0035L26.2547 39.6657Z" fill="#4D609B"/>
<path d="M16.1449 26.1515C16.1449 25.5841 16.1965 25.0167 16.2997 24.4493L12.689 23.882C12.5342 24.6557 12.4827 25.481 12.4827 26.3063V26.3578L16.1449 26.3063C16.1449 26.2031 16.1449 26.2031 16.1449 26.1515Z" fill="#D6674F"/>
<path d="M16.9185 36.1067L19.3944 33.4245C18.827 32.9087 18.3112 32.2897 17.8469 31.6708L14.8552 33.734C15.4226 34.6109 16.1448 35.3846 16.9185 36.1067Z" fill="#CB5164"/>
<path d="M14.8552 33.734L17.8469 31.6707C17.4858 31.1034 17.1763 30.536 16.9184 29.917L13.5657 31.3613C13.9267 32.1866 14.3394 32.9603 14.8552 33.734Z" fill="#C64F56"/>
<path d="M13.5659 31.3612L16.9186 29.9169C16.7123 29.4011 16.506 28.8337 16.4028 28.2664L12.8438 29.0401C12.9985 29.8654 13.2564 30.6391 13.5659 31.3612Z" fill="#C85345"/>
<path d="M16.3511 28.2664C16.1963 27.5959 16.1447 26.9253 16.0932 26.2548L12.4309 26.3063C12.4309 27.2348 12.5341 28.1633 12.7404 29.0917L16.3511 28.2664Z" fill="#D35B46"/>
<path d="M24.0368 39.5111L24.6042 35.9004C23.9852 35.7973 23.4178 35.6941 22.8504 35.4878L21.6641 38.9437C22.4378 39.2016 23.2115 39.408 24.0368 39.5111Z" fill="#624E79"/>
<path d="M19.0333 37.7058L20.8903 34.5593C20.3229 34.2499 19.8586 33.8372 19.3428 33.4246L16.8669 36.1068C17.5891 36.7257 18.2596 37.2416 19.0333 37.7058Z" fill="#9F4E70"/>
<path d="M21.6641 38.9437L22.8504 35.4878C22.1799 35.2299 21.5093 34.972 20.8904 34.5593L19.0334 37.7058C19.8587 38.2216 20.7356 38.6342 21.6641 38.9437Z" fill="#6D3D58"/>
</svg>
