<svg width="162" height="43" viewBox="0 0 162 43" fill="none" xmlns="http://www.w3.org/2000/svg">
<path d="M53.7474 39.4374L52.0217 37.3329H51.222V39.4374H50.3802V37.3329H49.5805L47.8549 39.4374H46.929L48.9492 36.912L47.1815 34.3867H48.1074L49.6226 36.5333H50.3802V34.3867H51.222V36.5333H51.9796L53.4948 34.3867H54.4208L52.653 36.912L54.6733 39.4374H53.7474Z" fill="#000307"/>
<path d="M55.5994 39.4374V34.3867H56.4411V38.0484L59.5136 34.3867H60.2291V39.4374H59.3874V35.7756L56.3149 39.4374H55.5994Z" fill="#000307"/>
<path d="M61.7443 39.5216C61.5759 39.5216 61.3655 39.4795 61.155 39.3953V38.764C61.2813 38.806 61.3655 38.806 61.4917 38.806C62.3756 38.806 62.6702 37.1225 62.7544 34.3867H66.4582V39.4374H65.6165V35.1864H63.5541C63.4278 37.7538 63.049 39.5216 61.7443 39.5216Z" fill="#000307"/>
<path d="M70.3304 34.2607C71.7193 34.2607 73.0241 35.1867 73.0241 36.9123C73.0241 38.638 71.7193 39.5639 70.3304 39.5639C68.9836 39.5639 67.6367 38.638 67.6367 36.9123C67.6367 35.1867 68.9836 34.2607 70.3304 34.2607ZM70.3304 35.0604C69.3203 35.0604 68.4785 35.7339 68.4785 36.9123C68.4785 38.0908 69.2782 38.7643 70.3304 38.7643C71.3405 38.7643 72.1823 38.0908 72.1823 36.9123C72.1823 35.7759 71.3826 35.0604 70.3304 35.0604Z" fill="#000307"/>
<path d="M74.3289 39.4369V34.3863H75.1706V38.048L78.2431 34.3863H78.9586V39.4369H78.1169V35.7752L75.0444 39.4369H74.3289ZM76.6858 33.6287C76.1808 33.6287 75.6757 33.5024 75.2127 33.2078V32.4502C75.7178 32.7869 76.1808 32.9132 76.6858 32.9132C77.1909 32.9132 77.6118 32.7869 78.1589 32.4502V33.2078C77.6539 33.5024 77.1909 33.6287 76.6858 33.6287Z" fill="#000307"/>
<path d="M84.304 39.4374V34.3867H85.1457V36.4912H86.1559L87.7552 34.3867H88.7233L86.8293 36.912L88.9758 39.4374H87.9657L86.1138 37.2908H85.1457V39.4374H84.304Z" fill="#000307"/>
<path d="M92.2166 34.2607C93.6056 34.2607 94.9103 35.1867 94.9103 36.9123C94.9103 38.638 93.6056 39.5639 92.2166 39.5639C90.8698 39.5639 89.5229 38.638 89.5229 36.9123C89.5229 35.1867 90.8277 34.2607 92.2166 34.2607ZM92.2166 35.0604C91.2065 35.0604 90.3647 35.7339 90.3647 36.9123C90.3647 38.0908 91.1644 38.7643 92.2166 38.7643C93.2689 38.7643 94.0685 38.0908 94.0685 36.9123C94.0685 35.7759 93.2268 35.0604 92.2166 35.0604Z" fill="#000307"/>
<path d="M96.0469 39.4374V34.3867H96.9728L98.8247 37.1646L100.677 34.3867H101.603V39.4374H100.803V35.6494L99.1614 38.1326H98.488L96.8466 35.6494V39.4374H96.0469Z" fill="#000307"/>
<path d="M103.244 39.4374V34.3867H107.832V39.4374H106.99V35.1864H104.086V39.4374H103.244Z" fill="#000307"/>
<path d="M109.431 39.5216C109.263 39.5216 109.052 39.4795 108.842 39.3953V38.764C108.968 38.806 109.052 38.806 109.179 38.806C110.062 38.806 110.357 37.1225 110.441 34.3867H114.145V39.4374H113.303V35.1864H111.241C111.072 37.7538 110.736 39.5216 109.431 39.5216Z" fill="#000307"/>
<path d="M117.849 34.2607C119.785 34.2607 120.5 35.8601 120.206 37.2911H116.207C116.334 38.3434 117.259 38.8063 118.27 38.8063C118.901 38.8063 119.49 38.638 119.911 38.3855V39.1851C119.448 39.4377 118.775 39.5639 118.143 39.5639C116.67 39.5639 115.365 38.7222 115.365 36.9123C115.365 35.1446 116.67 34.2607 117.849 34.2607ZM117.891 35.0604C117.049 35.0604 116.249 35.5655 116.165 36.5756H119.448C119.532 36.0285 119.196 35.0604 117.891 35.0604Z" fill="#000307"/>
<path d="M121.426 39.4374V34.3867H122.268V36.4912H123.278L124.878 34.3867H125.846L123.952 36.912L126.098 39.4374H125.13L123.278 37.2908H122.31V39.4374H121.426Z" fill="#000307"/>
<path d="M129.044 34.2607C129.592 34.2607 130.181 34.387 130.602 34.6816L130.265 35.2709C130.055 35.1446 129.76 35.0183 129.171 35.0183C128.203 35.0604 127.193 35.5655 127.193 36.8703C127.193 38.175 128.161 38.7222 129.171 38.7222C129.718 38.7222 130.012 38.638 130.265 38.5117L130.686 39.1431C130.223 39.3535 129.676 39.4798 129.044 39.4798C127.74 39.4798 126.351 38.638 126.351 36.8703C126.309 35.1025 127.74 34.2607 129.044 34.2607Z" fill="#000307"/>
<path d="M62.6282 27.0634V6.27148H80.095V27.0634H76.7279V9.38607H66.0374V27.0634H62.6282Z" fill="#000307"/>
<path d="M99.456 6.27157V9.34406H88.5129V15.0261H96.2993V18.0985H88.5129V23.9489H99.6243V27.0214H85.1458V6.22949H99.456V6.27157Z" fill="#000307"/>
<path d="M141.839 6.27148V9.38607H134.979V27.0634H131.612V9.38607H124.709V6.27148H141.839Z" fill="#000307"/>
<path d="M57.4091 23.57C57.325 23.6121 57.2408 23.6542 57.1566 23.6542C56.0623 24.0751 54.7996 24.3276 53.4528 24.3276C49.4544 24.3276 45.2455 21.9706 45.2455 16.8358C45.2876 11.3642 49.4123 9.00725 53.3686 9.00725C54.6313 9.00725 55.8939 9.25979 57.0303 9.68067L58.5455 7.15534C56.8199 6.31357 54.8417 5.85059 52.8215 5.85059C47.3499 5.85059 41.7942 9.42814 41.7942 16.7937C41.7521 23.9067 47.4762 27.4001 52.8215 27.4001C55.0101 27.4001 57.0724 26.895 58.8402 26.0532L59.0506 25.927L57.4091 23.57Z" fill="#000307"/>
<path d="M114.481 16.4149L121.384 6.27148H117.554L111.746 14.9418H107.663V14.1842V6.27148H104.254V27.0634H107.663V18.9823V18.0564H111.788L118.059 27.0634H121.889L114.481 16.4149Z" fill="#000307"/>
<path d="M153.119 6.27148H145.711V27.0634H149.079V19.9504H153.119C158.043 19.9504 162 18.3931 162 13.132C162 7.82878 158.043 6.27148 153.119 6.27148ZM153.287 16.8779H149.079V9.38607H153.287C156.149 9.38607 158.549 10.1016 158.549 13.132C158.549 16.1624 156.149 16.8779 153.287 16.8779Z" fill="#000307"/>
<path d="M12.1215 15.6995L11.9953 15.6574L6.18701 11.9957L6.31328 11.7432L12.2478 15.4891L12.1215 15.6995Z" fill="#000307"/>
<path d="M17.9299 3.83009L17.2986 0.420889L17.4248 0.378797C18.6454 0.126264 19.9081 0 21.0866 0H21.2128L21.2549 3.49338H21.1287C20.1185 3.49338 19.0663 3.61964 18.0562 3.83009H17.9299ZM17.5932 0.631333L18.1404 3.53546C19.1084 3.36711 20.0764 3.24085 21.0024 3.24085L20.9603 0.294627C19.866 0.294627 18.7296 0.420889 17.5932 0.631333Z" fill="#000307"/>
<path d="M27.3156 4.46084L27.1894 4.41875C26.2213 4.08204 25.2112 3.82951 24.159 3.70324H24.0327L24.5378 0.251953H24.664C25.8846 0.420309 27.1052 0.714933 28.2837 1.13582L28.41 1.17791L27.3156 4.46084ZM24.3273 3.45071C25.2954 3.61906 26.2213 3.82951 27.1473 4.12413L28.0732 1.34627C26.9789 1.00956 25.8846 0.714936 24.7482 0.54658L24.3273 3.45071Z" fill="#000307"/>
<path d="M14.8995 4.71407L13.679 1.47322L13.8052 1.43113C14.9416 1.01024 16.2043 0.631442 17.467 0.420998L17.5932 0.378906L18.2246 3.78811L18.0983 3.8302C17.0461 4.04064 15.9938 4.33526 15.0258 4.67197L14.8995 4.71407ZM14.0157 1.59949L15.0679 4.37735C15.9938 4.04064 16.9198 3.78811 17.9299 3.57766L17.3828 0.673533C16.2043 0.883978 15.0679 1.22069 14.0157 1.59949Z" fill="#000307"/>
<path d="M8.92274 8.58649L6.52368 6.06116L6.60786 5.97699C7.66008 4.96685 8.79648 4.08298 10.0171 3.32538L10.1433 3.24121L11.9952 6.18743L11.869 6.2716C10.8588 6.90293 9.89079 7.66054 9.00692 8.50232L8.92274 8.58649ZM6.90248 6.06116L8.92274 8.20769C9.76452 7.408 10.6484 6.69249 11.6164 6.10325L10.0591 3.62001C8.92274 4.29343 7.87052 5.1352 6.90248 6.06116Z" fill="#000307"/>
<path d="M6.18719 11.9955L3.24097 10.1436L3.32514 10.0173C4.2511 8.54418 5.3875 7.15525 6.65017 5.97676L6.73434 5.89258L9.13341 8.41791L9.04923 8.50209C7.99701 9.51222 7.07105 10.6486 6.27136 11.8692L6.18719 11.9955ZM3.61977 10.0594L6.10301 11.6167C6.86061 10.4382 7.74448 9.34386 8.75461 8.37582L6.73434 6.2293C5.51377 7.40778 4.50364 8.67044 3.61977 10.0594Z" fill="#000307"/>
<path d="M11.7428 6.31316L9.89087 3.36694L10.0171 3.28277C11.1956 2.52517 12.4583 1.89384 13.763 1.38877L13.8893 1.34668L15.1099 4.58751L14.9836 4.62961C13.8893 5.05049 12.8371 5.59765 11.827 6.1869L11.7428 6.31316ZM10.2697 3.45112L11.827 5.93436C12.7529 5.34512 13.763 4.84005 14.7732 4.46125L13.721 1.68339C12.5425 2.18845 11.364 2.7777 10.2697 3.45112Z" fill="#000307"/>
<path d="M30.7248 6.06033L30.5985 5.97616C29.5042 5.34483 28.3678 4.79766 27.1473 4.37677L27.021 4.3347L28.1153 1.05176L28.2416 1.09385C29.6726 1.59892 31.0615 2.23025 32.3663 2.98785L32.4925 3.07203L30.7248 6.06033ZM27.3998 4.20842C28.5362 4.58722 29.6305 5.09229 30.6406 5.72362L32.1558 3.19829C30.9353 2.48278 29.6726 1.89353 28.3257 1.43055L27.3998 4.20842Z" fill="#000307"/>
<path d="M24.2854 3.70373H24.1591C23.149 3.53537 22.1809 3.49328 21.1708 3.49328H21.0445V3.36701L21.0024 0.0419922H21.1287C21.3392 0.0419922 21.5075 0.0419922 21.718 0.0419922C22.686 0.0419922 23.6961 0.126172 24.7063 0.294528H24.8325L24.2854 3.70373ZM21.6338 3.24075C22.4335 3.24075 23.2332 3.32493 24.0328 3.45119L24.4958 0.547064C23.4015 0.378708 22.3072 0.29453 21.2129 0.336619L21.255 3.28284C21.4233 3.24075 21.5075 3.24075 21.6338 3.24075Z" fill="#000307"/>
<path d="M33.629 8.29158L33.5448 8.2074C32.6609 7.36562 31.6508 6.65012 30.6407 6.01878L30.5144 5.9346L32.2821 2.94629L32.4084 3.03047C33.629 3.78807 34.8075 4.62984 35.9018 5.63997L35.986 5.72416L33.629 8.29158ZM30.8511 5.85042C31.8192 6.43966 32.7451 7.11309 33.5869 7.91278L35.5651 5.72416C34.5549 4.7982 33.4606 3.99851 32.3242 3.32509L30.8511 5.85042Z" fill="#000307"/>
<path d="M25.2534 42.51L24.6221 39.1008L24.7483 39.0587C25.8006 38.8482 26.8107 38.5957 27.7787 38.2169L27.905 38.1748L29.1256 41.4156L28.9993 41.4577C27.8208 41.8786 26.6002 42.2574 25.3797 42.4679L25.2534 42.51ZM24.9167 39.3112L25.4638 42.2153C26.6002 42.0049 27.7366 41.6682 28.7889 41.2894L27.7366 38.5115C26.8528 38.8482 25.9268 39.1428 24.9167 39.3112Z" fill="#000307"/>
<path d="M21.7599 42.8467H21.6336V42.7204L21.5916 39.3533H21.7178C22.728 39.3533 23.7802 39.227 24.7903 39.0587L24.9166 39.0166L25.5479 42.4258L25.4216 42.4679C24.2011 42.7204 22.9384 42.8467 21.7599 42.8467ZM21.802 39.6479L21.8441 42.5942C22.9384 42.5521 24.0748 42.4679 25.2112 42.2574L24.664 39.3533C23.7381 39.5217 22.77 39.6479 21.802 39.6479Z" fill="#000307"/>
<path d="M28.9152 41.5416L27.6946 38.3007L27.8209 38.2587C28.9152 37.8378 29.9674 37.3327 30.9354 36.7014L31.0617 36.6172L32.9136 39.5634L32.7873 39.6476C31.6088 40.3631 30.3462 40.9944 29.0835 41.4995L28.9152 41.5416ZM28.0313 38.427L29.0835 41.2049C30.262 40.7419 31.4405 40.1527 32.5348 39.4792L30.9775 36.996C30.0095 37.5431 29.0414 38.0482 28.0313 38.427Z" fill="#000307"/>
<path d="M21.1706 42.8464C20.2026 42.8464 19.1925 42.7622 18.2244 42.5939H18.0981L18.6032 39.1426H18.7295C19.6975 39.2688 20.6656 39.353 21.6336 39.353H21.7599L21.802 42.8464H21.6757C21.5494 42.8885 21.3811 42.8885 21.1706 42.8464ZM18.3928 42.3834C19.445 42.5518 20.4972 42.5939 21.5915 42.5939L21.5494 39.6476C20.6656 39.6476 19.7396 39.6056 18.8557 39.4793L18.3928 42.3834Z" fill="#000307"/>
<path d="M4.54553 15.3202L1.30469 14.0996L1.34677 13.9733C1.85184 12.6265 2.52526 11.2376 3.32495 9.97491L3.40913 9.84863L6.35535 11.7006L6.27117 11.8268C5.59775 12.879 5.05059 14.0154 4.6297 15.1518L4.54553 15.3202ZM1.64139 13.9733L4.41926 14.9835C4.84015 13.9313 5.34521 12.8369 5.97655 11.8268L3.49331 10.2695C2.73571 11.448 2.10437 12.7107 1.64139 13.9733Z" fill="#000307"/>
<path d="M18.3506 42.6356H18.2244C16.9617 42.4673 15.7411 42.1306 14.5206 41.7518L14.3943 41.7097L15.4886 38.4268L15.6149 38.4688C16.625 38.8055 17.6772 39.0581 18.7294 39.2264H18.8557L18.3506 42.6356ZM14.7731 41.5413C15.8674 41.9201 17.0038 42.1727 18.1823 42.341L18.6453 39.4369C17.6772 39.2685 16.7092 39.0581 15.7411 38.7214L14.7731 41.5413Z" fill="#000307"/>
<path d="M32.661 39.6899L30.8091 36.7437L30.9353 36.6595C31.9455 36.0282 32.9135 35.3127 33.7553 34.4709L33.8395 34.3867L36.2385 36.912L36.1544 36.9962C35.1021 37.9643 33.9657 38.8481 32.7873 39.6057L32.661 39.6899ZM31.1879 36.8279L32.7452 39.3111C33.8395 38.5956 34.8917 37.7959 35.8597 36.87L33.8395 34.7234C32.9977 35.5652 32.1138 36.2386 31.1879 36.8279Z" fill="#000307"/>
<path d="M14.6891 41.7938L14.5628 41.7517C13.1318 41.2467 11.7008 40.6153 10.396 39.8156L10.2698 39.7315L12.0375 36.7432L12.1638 36.8273C13.2581 37.5008 14.4366 38.0479 15.6571 38.4267L15.7834 38.4688L14.6891 41.7938ZM10.6486 39.6473C11.8692 40.3628 13.1739 40.9941 14.5208 41.4571L15.4467 38.6792C14.3103 38.3004 13.216 37.7533 12.1638 37.1641L10.6486 39.6473Z" fill="#000307"/>
<path d="M0.547156 26.3057L0.505065 26.1794C0.168354 24.7484 0 23.2753 0 21.8022V21.6759L3.49338 21.6338V21.7601C3.49338 22.9806 3.66173 24.2433 3.91426 25.4218L3.95635 25.5481L0.547156 26.3057ZM0.294621 21.9284C0.33671 23.3173 0.505064 24.6642 0.799686 26.011L3.66173 25.3797C3.4092 24.2433 3.28293 23.0648 3.24084 21.9284H0.294621Z" fill="#000307"/>
<path d="M3.70373 18.6878L0.252441 18.1406V18.0144C0.462886 16.6675 0.841685 15.3207 1.30466 14.0159L1.34675 13.8896L4.58759 15.1102L4.5455 15.2365C4.1667 16.2887 3.87208 17.4251 3.66163 18.5615L3.70373 18.6878ZM0.589147 17.8881L3.49328 18.3511C3.66164 17.2988 3.95626 16.2466 4.33506 15.2365L1.55719 14.2264C1.09421 15.4049 0.799591 16.6675 0.589147 17.8881Z" fill="#000307"/>
<path d="M1.76779 29.9248L1.72571 29.7985C1.22064 28.62 0.84184 27.3995 0.547218 26.1368L0.505127 26.0105L3.91433 25.2529L3.95641 25.3792C4.20894 26.4314 4.50357 27.4416 4.92446 28.4096L4.96655 28.5359L1.76779 29.9248ZM0.799748 26.221C1.05228 27.3574 1.43108 28.4938 1.89406 29.5881L4.58774 28.4096C4.20894 27.4836 3.91432 26.5156 3.66179 25.5476L0.799748 26.221Z" fill="#000307"/>
<path d="M0 21.9282V21.802H0.126268H0C0 20.5393 0.0841764 19.2766 0.294621 18.014V17.8877L3.74591 18.4349V18.5611C3.57755 19.6133 3.49338 20.6656 3.49338 21.7178V21.844L3.36711 21.8861L0 21.9282ZM0.547156 18.1402C0.378801 19.3187 0.294621 20.4972 0.294621 21.6336L3.24084 21.5915C3.24084 20.6235 3.32502 19.6133 3.45128 18.6032L0.547156 18.1402Z" fill="#000307"/>
<path d="M7.11291 37.3751L7.02873 37.2909C5.80815 36.1545 4.67175 34.8918 3.7458 33.5029L3.66162 33.3766L6.52366 31.3984L6.60784 31.5247C7.40753 32.6611 8.33348 33.7554 9.34362 34.6814L9.42779 34.7655L7.11291 37.3751ZM4.04042 33.5029C4.92429 34.7655 5.97651 35.9861 7.11291 37.0383L9.09109 34.8497C8.12304 33.9238 7.23917 32.9136 6.48157 31.8193L4.04042 33.5029Z" fill="#000307"/>
<path d="M3.83013 33.6284L3.74594 33.5021C2.94626 32.3236 2.27284 31.1031 1.72569 29.7983L1.68359 29.672L4.88235 28.3252L4.92443 28.4515C5.38741 29.5458 5.97666 30.598 6.60799 31.566L6.69216 31.6923L3.83013 33.6284ZM2.02031 29.8404C2.52537 31.0189 3.1567 32.1974 3.9143 33.2917L6.35546 31.6081C5.72413 30.6822 5.17697 29.7141 4.75608 28.6619L2.02031 29.8404Z" fill="#000307"/>
<path d="M10.5221 39.8578L10.3959 39.7736C9.21738 39.0581 8.08098 38.2163 7.02876 37.2483L6.94458 37.1641L9.30156 34.5967L9.38573 34.6808C10.2696 35.4805 11.1956 36.196 12.2057 36.7853L12.332 36.8695L10.5221 39.8578ZM7.28129 37.1641C8.24934 38.048 9.30155 38.8056 10.3959 39.479L11.9111 36.9537C10.9851 36.3644 10.1012 35.7331 9.25947 34.9755L7.28129 37.1641Z" fill="#000307"/>
<path d="M18.5611 7.15459L17.8877 3.57704L18.014 3.53495C19.0662 3.3245 20.1184 3.24033 21.1285 3.19824H21.2548L21.2969 6.81789H21.1706C20.3289 6.81789 19.4871 6.90207 18.6453 7.07042L18.5611 7.15459ZM18.1823 3.78748L18.7716 6.81789C19.5292 6.69162 20.2868 6.60744 21.0444 6.56535L21.0023 3.45078C20.0763 3.49287 19.1504 3.61913 18.1823 3.78748Z" fill="#000307"/>
<path d="M23.7802 7.02921H23.6539C22.8543 6.90294 22.0546 6.86085 21.2128 6.86085H21.0865V6.73458L21.0444 3.24121H21.1707C21.3391 3.24121 21.5074 3.24121 21.6758 3.24121C22.5175 3.24121 23.3593 3.32539 24.2432 3.45166H24.3695L23.7802 7.02921ZM21.5916 6.60832C22.2229 6.60832 22.8963 6.65041 23.5277 6.77667L23.9907 3.70419C23.0647 3.57792 22.1808 3.49374 21.2549 3.53583L21.297 6.65041C21.4232 6.60832 21.5074 6.60832 21.5916 6.60832Z" fill="#000307"/>
<path d="M16.0779 7.8704L14.7732 4.4612L14.8995 4.41911C15.8675 4.04031 16.9197 3.74569 18.014 3.53524L18.1403 3.49316L18.8137 7.07072L18.6875 7.11279C17.8457 7.28115 17.0039 7.4916 16.2042 7.82831L16.0779 7.8704ZM15.152 4.62956L16.2463 7.53368C16.9618 7.28115 17.7194 7.02862 18.5191 6.90235L17.9299 3.87196C16.9618 4.04032 16.0359 4.29284 15.152 4.62956Z" fill="#000307"/>
<path d="M11.2376 11.0272L8.75439 8.41771L8.83857 8.33354C9.72244 7.49176 10.6905 6.69207 11.7427 6.06073L11.869 5.97656L13.8051 9.04904L13.6788 9.13323C12.837 9.63829 12.0794 10.2696 11.3639 10.943L11.2376 11.0272ZM9.09111 8.37562L11.2376 10.6063C11.9111 9.975 12.6266 9.38576 13.3842 8.92278L11.7427 6.27118C10.8167 6.90251 9.93288 7.61802 9.09111 8.37562Z" fill="#000307"/>
<path d="M9.00705 13.7629L5.93457 11.8268L6.01875 11.7005C6.81843 10.4378 7.74439 9.30144 8.8387 8.24922L8.92288 8.16504L11.4061 10.7746L11.3219 10.8587C10.4802 11.6584 9.72257 12.5844 9.09123 13.5945L9.00705 13.7629ZM6.31337 11.7426L8.92288 13.3841C9.51212 12.4581 10.2276 11.5742 11.0273 10.8166L8.88079 8.58593C7.95484 9.55397 7.07097 10.6062 6.31337 11.7426Z" fill="#000307"/>
<path d="M13.5525 9.17509L11.6165 6.1026L11.7427 6.01843C12.7528 5.3871 13.8472 4.83993 14.9415 4.41904L15.0677 4.37695L16.3725 7.78615L16.2462 7.82824C15.3624 8.16496 14.4785 8.58585 13.6788 9.133L13.5525 9.17509ZM11.9953 6.18678L13.6367 8.83837C14.3943 8.3754 15.194 7.95451 15.9937 7.65989L14.8994 4.75576C13.8892 5.09247 12.9212 5.59754 11.9953 6.18678Z" fill="#000307"/>
<path d="M26.2213 7.66006L26.095 7.61797C25.2953 7.36543 24.4956 7.15499 23.6539 7.02872H23.5276L24.0748 3.45117H24.201C25.2532 3.61953 26.2634 3.87206 27.2735 4.20877L27.3998 4.25086L26.2213 7.66006ZM23.8222 6.77619C24.5798 6.90246 25.3374 7.07081 26.0529 7.32334L27.063 4.37712C26.1792 4.0825 25.2532 3.87206 24.2852 3.70371L23.8222 6.77619Z" fill="#000307"/>
<path d="M28.9991 8.96532L28.8729 8.88113C27.989 8.37607 27.0631 7.91309 26.095 7.57638L25.9688 7.53429L27.1472 4.08301L27.2735 4.1251C28.4941 4.54599 29.6726 5.09314 30.7669 5.72447L30.8931 5.80865L28.9991 8.96532ZM26.3055 7.40802C27.2314 7.70265 28.0732 8.12353 28.915 8.58651L30.5143 5.93491C29.5042 5.34567 28.4099 4.8406 27.3156 4.4618L26.3055 7.40802Z" fill="#000307"/>
<path d="M7.70217 16.4986L4.29297 15.236L4.33506 15.1097C4.75595 13.9733 5.34519 12.7948 6.01861 11.7005L6.10279 11.5742L9.17528 13.5103L9.0911 13.6366C8.54395 14.5204 8.08096 15.4464 7.74425 16.3723L7.70217 16.4986ZM4.62968 15.1097L7.53381 16.204C7.87052 15.3622 8.29141 14.4783 8.79647 13.6787L6.18697 12.0372C5.55563 12.9632 5.05057 14.0575 4.62968 15.1097Z" fill="#000307"/>
<path d="M6.18706 11.9948L6.06079 11.9106L6.18706 11.7002L6.31333 11.7423L6.18706 11.9948Z" fill="#000307"/>
<path d="M31.3561 10.7743L31.2719 10.6901C30.5143 10.0167 29.7146 9.42745 28.8729 8.92239L28.7466 8.83821L30.5985 5.72363L30.7248 5.80782C31.777 6.43915 32.7871 7.19674 33.671 7.99643L33.7552 8.08061L31.3561 10.7743ZM29.1254 8.75404C29.9251 9.21701 30.6406 9.76416 31.3561 10.3955L33.4605 8.08061C32.6188 7.32301 31.6928 6.64958 30.7669 6.06034L29.1254 8.75404Z" fill="#000307"/>
<path d="M12.1638 37.1219L12.0375 37.0377C11.0274 36.4063 10.0594 35.6908 9.17549 34.8911L9.09131 34.807L11.5325 32.1133L11.6166 32.1975C12.3321 32.8288 13.0897 33.418 13.8894 33.881L14.0157 33.9652L12.1638 37.1219ZM9.47011 34.807C10.2698 35.5225 11.1537 36.1959 12.0796 36.7431L13.679 34.0914C12.9214 33.6285 12.2059 33.0813 11.5745 32.5342L9.47011 34.807Z" fill="#000307"/>
<path d="M27.7786 38.511L26.4739 35.1018L26.6002 35.0597C27.484 34.723 28.3258 34.3021 29.1255 33.7971L29.2517 33.7129L31.1878 36.7854L31.0616 36.8696C30.0514 37.5009 28.9992 38.006 27.9049 38.4268L27.7786 38.511ZM26.8106 35.2702L27.9049 38.1743C28.915 37.7955 29.8831 37.2904 30.7669 36.7433L29.1255 34.0917C28.41 34.5968 27.6103 34.9756 26.8106 35.2702Z" fill="#000307"/>
<path d="M30.9354 36.9959L28.9993 33.9234L29.1255 33.8392C29.9252 33.3341 30.7249 32.7449 31.4404 32.0715L31.5246 31.9873L34.0078 34.5968L33.9237 34.681C33.0398 35.5228 32.0718 36.2383 31.0616 36.9117L30.9354 36.9959ZM29.3781 33.9655L31.0195 36.6171C31.9455 36.0278 32.8294 35.3544 33.629 34.5968L31.4825 32.3661C30.8512 32.9553 30.1357 33.5025 29.3781 33.9655Z" fill="#000307"/>
<path d="M24.6641 39.3526L23.9907 35.8172L24.117 35.7751C24.9588 35.6067 25.8005 35.3963 26.6002 35.1016L26.7265 35.0596L28.0313 38.4688L27.905 38.5108C26.9369 38.8896 25.8847 39.1843 24.8325 39.3947L24.6641 39.3526ZM24.3274 35.9855L24.9167 39.0159C25.8847 38.8476 26.8107 38.5529 27.6945 38.2162L26.6002 35.3121C25.8426 35.6488 25.085 35.8593 24.3274 35.9855Z" fill="#000307"/>
<path d="M21.2128 39.6474C20.371 39.6474 19.5292 39.5632 18.7295 39.4369H18.6033L19.1504 35.8594H19.2767C20.0764 35.9856 20.834 36.0277 21.6337 36.0277H21.7599L21.802 39.6474H21.6758C21.5074 39.6474 21.3811 39.6474 21.2128 39.6474ZM18.8979 39.2265C19.7818 39.3527 20.6656 39.3948 21.5495 39.3948L21.5074 36.2803C20.7919 36.2803 20.0764 36.2382 19.3609 36.154L18.8979 39.2265Z" fill="#000307"/>
<path d="M7.02872 19.1923L3.45117 18.603V18.4768C3.61953 17.3404 3.95624 16.204 4.33504 15.1097L4.37713 14.9834L7.78632 16.2461L7.74423 16.3723C7.40752 17.2562 7.19708 18.1401 7.02872 19.066V19.1923ZM3.74579 18.3926L6.81828 18.8977C6.94455 18.0559 7.19708 17.2141 7.4917 16.4144L4.58757 15.3201C4.20877 16.3302 3.91415 17.3825 3.74579 18.3926Z" fill="#000307"/>
<path d="M21.6757 39.6477H21.5494V39.5214L21.5073 36.028H21.6336C22.4754 36.028 23.3171 35.9438 24.1168 35.7755L24.2431 35.7334L24.9165 39.311L24.7902 39.353C23.7801 39.5214 22.7279 39.6477 21.6757 39.6477ZM21.7599 36.2806L21.8019 39.3951C22.7279 39.3951 23.6959 39.2689 24.6219 39.1005L24.0327 36.0701C23.2751 36.1964 22.5175 36.2806 21.7599 36.2806Z" fill="#000307"/>
<path d="M6.48179 31.8187L6.39761 31.6925C5.72419 30.7244 5.13495 29.6301 4.67197 28.5358L4.62988 28.4095L7.9549 26.9785L7.99699 27.1048C8.37579 27.9886 8.83877 28.8304 9.38592 29.6301L9.4701 29.7564L6.48179 31.8187ZM4.96659 28.5779C5.38748 29.588 5.93464 30.5561 6.52388 31.4399L9.0913 29.6722C8.58624 28.9146 8.16535 28.157 7.78655 27.3152L4.96659 28.5779Z" fill="#000307"/>
<path d="M4.71394 28.6628L4.67185 28.5365C4.25096 27.5264 3.91425 26.4742 3.66171 25.464L3.61963 25.3378L7.15509 24.5381L7.19718 24.6643C7.36554 25.5061 7.66016 26.3479 7.99687 27.1476L8.03896 27.2739L4.71394 28.6628ZM3.95633 25.5482C4.16678 26.5163 4.4614 27.4422 4.8402 28.3682L7.70225 27.1476C7.40762 26.39 7.15509 25.6324 6.98674 24.8748L3.95633 25.5482Z" fill="#000307"/>
<path d="M3.7038 25.5902L3.6617 25.464C3.36708 24.2434 3.24082 22.9807 3.19873 21.7601V21.6339L6.81837 21.5918V21.7181C6.81837 22.7282 6.94464 23.7383 7.15508 24.7064L7.19717 24.8326L3.7038 25.5902ZM3.49335 21.8864C3.53544 23.0228 3.66171 24.1592 3.91424 25.2956L6.94464 24.6222C6.73419 23.6962 6.65001 22.7703 6.60792 21.8443L3.49335 21.8864Z" fill="#000307"/>
<path d="M3.24097 21.8859V21.7597H3.36723H3.24097C3.24097 20.6654 3.32515 19.6131 3.4935 18.5188L3.53559 18.3926L7.11314 18.9818L7.07105 19.1081C6.94479 19.9499 6.86061 20.8337 6.86061 21.6755V21.8018L6.73434 21.8439L3.24097 21.8859ZM3.70395 18.6872C3.53559 19.6552 3.4935 20.6654 3.4935 21.6334L6.60807 21.5913C6.60807 20.7916 6.65017 19.992 6.77643 19.1923L3.70395 18.6872Z" fill="#000307"/>
<path d="M15.6991 38.7222L15.5729 38.6801C14.3523 38.2592 13.1738 37.712 12.0374 37.0386L11.9111 36.9544L13.763 33.8398L13.8893 33.924C14.7732 34.4712 15.7412 34.8921 16.7093 35.2288L16.8355 35.2709L15.6991 38.7222ZM12.2899 36.9123C13.3001 37.5016 14.3944 38.0487 15.5308 38.4275L16.5409 35.4813C15.615 35.1446 14.7311 34.7658 13.8893 34.2607L12.2899 36.9123Z" fill="#000307"/>
<path d="M18.8557 39.4795H18.7295C17.6772 39.3111 16.625 39.0586 15.5728 38.7219L15.4465 38.6798L16.625 35.2285L16.7513 35.2706C17.551 35.5652 18.4348 35.7336 19.2766 35.8598H19.4029L18.8557 39.4795ZM15.7832 38.4693C16.7092 38.764 17.6772 39.0165 18.6453 39.1428L19.1083 36.0703C18.3086 35.944 17.551 35.7757 16.7934 35.5231L15.7832 38.4693Z" fill="#000307"/>
<path d="M9.30154 35.0174L9.21736 34.9333C8.16514 33.9652 7.23919 32.913 6.4395 31.7345L6.31323 31.6082L9.30154 29.5459L9.38572 29.6722C10.0171 30.5981 10.7747 31.482 11.6164 32.2396L11.7006 32.3238L9.30154 35.0174ZM6.69203 31.6503C7.44963 32.7447 8.29141 33.7127 9.25945 34.5966L11.3639 32.2817C10.5642 31.5662 9.8487 30.7244 9.25945 29.8826L6.69203 31.6503Z" fill="#000307"/>
<path d="M15.4886 12.2472L13.4263 8.92223L13.5525 8.83805C14.3943 8.33298 15.2361 7.87 16.162 7.53329L16.2883 7.49121L17.6772 11.1529L17.551 11.195C16.8776 11.4476 16.2462 11.7843 15.6149 12.1631L15.4886 12.2472ZM13.763 9.04849L15.5728 11.9105C16.12 11.5738 16.7092 11.2792 17.2984 11.0267L16.0779 7.87001C15.2782 8.16463 14.5206 8.58551 13.763 9.04849Z" fill="#000307"/>
<path d="M17.3826 11.2798L15.9937 7.61805L16.1199 7.57595C16.9196 7.28133 17.7614 7.02881 18.6453 6.86045L18.7715 6.81836L19.487 10.6484L19.3608 10.6905C18.7294 10.8168 18.0981 10.9852 17.5089 11.1956L17.3826 11.2798ZM16.3304 7.7864L17.5509 10.9431C18.0981 10.7326 18.6453 10.6063 19.1924 10.4801L18.5611 7.15507C17.8035 7.28133 17.0459 7.49178 16.3304 7.7864Z" fill="#000307"/>
<path d="M19.2346 10.7331L18.519 6.90301L18.6453 6.86093C19.4871 6.69258 20.3709 6.6084 21.2127 6.6084H21.339L21.3811 10.5227H21.2548C20.6235 10.5227 19.9922 10.6068 19.3608 10.7331H19.2346ZM18.8137 7.07138L19.445 10.3964C19.9922 10.3122 20.5393 10.228 21.1286 10.228L21.0865 6.86093C20.3289 6.86093 19.5713 6.94511 18.8137 7.07138Z" fill="#000307"/>
<path d="M23.2331 10.6489H23.1068C22.4755 10.5648 21.8863 10.5227 21.297 10.5227H21.1708V10.3964L21.1287 6.6084H21.2549C21.3812 6.6084 21.5496 6.6084 21.6758 6.6084C22.3492 6.6084 23.0647 6.69257 23.7382 6.77675H23.8644L23.2331 10.6489ZM21.5496 10.228C22.0125 10.228 22.5176 10.2701 22.9806 10.3543L23.4856 7.02929C22.7701 6.94511 22.0125 6.86093 21.297 6.86093L21.3391 10.228C21.4654 10.228 21.5075 10.228 21.5496 10.228Z" fill="#000307"/>
<path d="M11.1114 17.7619L7.44971 16.4151L7.4918 16.2888C7.82851 15.4049 8.24939 14.5211 8.79655 13.6372L8.96491 13.4268L9.17535 13.553L12.2478 15.4891L12.1637 15.6154C11.7849 16.2467 11.4481 16.9201 11.1535 17.6777L11.1114 17.7619ZM7.78642 16.2467L10.9431 17.4252C11.1956 16.7518 11.4902 16.1625 11.869 15.5733L9.04908 13.7635C8.54402 14.6053 8.12313 15.447 7.78642 16.2467Z" fill="#000307"/>
<path d="M7.74423 16.3729L7.4917 16.2887C7.53379 16.2045 7.57588 16.0783 7.61797 15.9941C7.95468 15.1523 8.37557 14.3526 8.88063 13.5529L8.96481 13.4688L9.21734 13.595L9.13316 13.7213C8.6281 14.521 8.20721 15.3207 7.91259 16.1204C7.82841 16.1624 7.78632 16.2887 7.74423 16.3729Z" fill="#000307"/>
<path d="M13.763 13.6371L11.0693 10.8171L11.1535 10.733C11.869 10.0175 12.6687 9.38612 13.5105 8.88106L13.6368 8.79688L15.6991 12.1219L15.5728 12.2061C14.9415 12.5849 14.3523 13.0479 13.8051 13.595L13.763 13.6371ZM11.406 10.8171L13.7209 13.2583C14.226 12.7953 14.7311 12.3744 15.3203 11.9956L13.5105 9.13359C12.795 9.63866 12.0795 10.2279 11.406 10.8171Z" fill="#000307"/>
<path d="M12.1216 15.6991L8.83862 13.6367L8.9228 13.5105C9.55413 12.5003 10.3117 11.5744 11.1956 10.7326L11.2798 10.6484L13.9735 13.4684L13.8893 13.5526C13.258 14.1839 12.7108 14.8573 12.2057 15.6149L12.1216 15.6991ZM9.17534 13.5526L12.0374 15.3624C12.5004 14.689 13.0054 14.0576 13.5947 13.4684L11.2798 11.0272C10.438 11.7848 9.76458 12.6266 9.17534 13.5526Z" fill="#000307"/>
<path d="M10.6063 19.7818L6.73413 19.1504L6.77622 19.0242C6.94458 18.0982 7.15502 17.1722 7.49173 16.2884L7.53382 16.1621L11.1956 17.509L11.1535 17.6352C10.9009 18.2666 10.7326 18.94 10.6063 19.6134V19.7818ZM7.07084 18.94L10.3959 19.4871C10.5221 18.8558 10.6484 18.2666 10.8588 17.6773L7.70218 16.4988C7.40755 17.2985 7.19711 18.0982 7.07084 18.94Z" fill="#000307"/>
<path d="M25.0428 11.1116L24.9166 11.0695C24.3273 10.8591 23.696 10.7328 23.1067 10.6066H22.9805L23.5697 6.73438H23.696C24.5377 6.86064 25.3795 7.07108 26.1792 7.32362L26.3055 7.36571L25.0428 11.1116ZM23.2751 10.3961C23.8222 10.4803 24.3694 10.6066 24.8745 10.7749L25.9688 7.57615C25.2533 7.32362 24.5378 7.15527 23.7802 7.029L23.2751 10.3961Z" fill="#000307"/>
<path d="M27.1473 12.0794L27.021 11.9952C26.3476 11.6164 25.6742 11.2797 24.9166 11.0272L24.7903 10.9851L26.0529 7.28125L26.1792 7.32333C27.1894 7.66004 28.1153 8.08093 29.0413 8.62809L29.1675 8.71227L27.1473 12.0794ZM25.127 10.8588C25.8004 11.1113 26.4318 11.3639 27.021 11.7427L28.7466 8.83853C27.9469 8.37555 27.0631 7.95467 26.1792 7.66005L25.127 10.8588Z" fill="#000307"/>
<path d="M28.915 13.4682L28.8309 13.3841C28.2837 12.879 27.6524 12.416 27.021 12.0372L26.8948 11.953L28.915 8.58594L29.0413 8.67012C29.8831 9.17519 30.7249 9.80651 31.4825 10.4799L31.5666 10.5641L28.915 13.4682ZM27.2736 11.8689C27.8628 12.2056 28.41 12.6265 28.915 13.0894L31.1878 10.6062C30.5144 10.017 29.7989 9.4698 28.9992 9.00683L27.2736 11.8689Z" fill="#000307"/>
<path d="M29.1676 34.1341L27.1052 30.809L27.2315 30.7249C27.8628 30.3461 28.41 29.8831 28.9571 29.4201L29.0413 29.3359L31.735 32.1559L31.6508 32.2401C30.9353 32.9135 30.1356 33.5027 29.2938 34.0499L29.1676 34.1341ZM27.4419 30.8932L29.2518 33.7553C30.0094 33.2923 30.6828 32.7451 31.3562 32.1559L29.0413 29.7147C28.5362 30.1356 27.9891 30.5565 27.4419 30.8932Z" fill="#000307"/>
<path d="M26.5581 35.3546L25.1692 31.6928L25.2955 31.6508C25.9689 31.3982 26.6002 31.1036 27.1895 30.7248L27.3157 30.6406L29.3781 33.9656L29.2518 34.0498C28.4521 34.5549 27.5683 34.9758 26.6844 35.3125L26.5581 35.3546ZM25.5059 31.8612L26.7265 35.0179C27.5262 34.7232 28.2838 34.3444 28.9993 33.8815L27.1895 31.0194C26.6844 31.3561 26.0952 31.6508 25.5059 31.8612Z" fill="#000307"/>
<path d="M24.0327 36.0697L23.3171 32.2396L23.4434 32.1975C24.0747 32.0713 24.7061 31.9029 25.2953 31.6925L25.4216 31.6504L26.8105 35.3121L26.6842 35.3542C25.8846 35.6488 25.0428 35.9014 24.1589 36.0697H24.0327ZM23.6118 32.4501L24.2431 35.7751C25.0007 35.6067 25.7583 35.3963 26.4738 35.1438L25.2532 31.9871C24.7482 32.1555 24.201 32.3238 23.6118 32.4501Z" fill="#000307"/>
<path d="M6.60791 21.8026V21.6763H6.73418H6.60791C6.60791 20.7924 6.65 19.9086 6.81835 19.0247L6.86045 18.8984L10.7326 19.5298L10.6905 19.656C10.5643 20.3295 10.5222 20.9608 10.5222 21.5921V21.7184L10.3959 21.7605L6.60791 21.8026ZM7.0288 19.1931C6.90253 19.9928 6.86045 20.7504 6.86045 21.55L10.2276 21.508C10.2276 20.9187 10.2696 20.3295 10.3538 19.7402L7.0288 19.1931Z" fill="#000307"/>
<path d="M21.6337 36.281H21.5074V36.1547L21.4653 32.3667H21.5916C22.2229 32.3667 22.8543 32.2825 23.4856 32.1983L23.6119 32.1562L24.3274 35.9863L24.2011 36.0284C23.3172 36.1968 22.4755 36.281 21.6337 36.281ZM21.7179 32.6613L21.76 36.0284C22.5176 36.0284 23.2331 35.9443 23.9907 35.818L23.3593 32.493C22.8122 32.5771 22.265 32.6192 21.7179 32.6613Z" fill="#000307"/>
<path d="M7.82845 27.3579L7.78636 27.2317C7.44965 26.432 7.15503 25.5902 6.98667 24.7063L6.94458 24.5801L10.7326 23.7383L10.7747 23.8646C10.9009 24.4959 11.1114 25.1272 11.3639 25.7165L11.406 25.8427L7.82845 27.3579ZM7.2392 24.7905C7.40756 25.5481 7.66009 26.3057 7.95471 27.0212L11.0693 25.6744C10.8588 25.1272 10.6905 24.5801 10.5221 24.0329L7.2392 24.7905Z" fill="#000307"/>
<path d="M11.5325 32.535L11.4483 32.4508C10.6065 31.6511 9.80682 30.8093 9.17549 29.8413L9.09131 29.715L12.3321 27.5264L12.4163 27.6526C12.8793 28.3682 13.4685 28.9995 14.0999 29.5887L14.1841 29.6729L11.5325 32.535ZM9.47011 29.7571C10.0593 30.5989 10.7749 31.3986 11.5325 32.1141L13.8053 29.6308C13.216 29.0837 12.7109 28.4944 12.248 27.8631L9.47011 29.7571Z" fill="#000307"/>
<path d="M9.25943 29.925L9.17526 29.7987C8.6281 28.999 8.16512 28.1152 7.74423 27.2313L7.70215 27.105L11.2797 25.5898L11.3218 25.7161C11.6164 26.3895 11.9531 27.0209 12.374 27.6101L12.4582 27.7364L9.25943 29.925ZM8.03886 27.2313C8.37557 28.031 8.79646 28.8307 9.30153 29.5462L12.0794 27.6522C11.7006 27.105 11.406 26.5158 11.1534 25.9265L8.03886 27.2313Z" fill="#000307"/>
<path d="M6.98681 24.8319L6.94472 24.7056C6.73427 23.6955 6.60801 22.6853 6.56592 21.6752V21.5489L10.4802 21.5068V21.6331C10.4802 22.3907 10.5644 23.1483 10.7327 23.8638L10.7748 23.9901L6.98681 24.8319ZM6.86054 21.8015C6.90263 22.7274 6.98681 23.6113 7.19725 24.5372L10.4802 23.7796C10.3539 23.1062 10.2697 22.4328 10.2276 21.7594L6.86054 21.8015Z" fill="#000307"/>
<path d="M21.2549 36.2808C20.5815 36.2808 19.9081 36.1966 19.2347 36.1124H19.1084L19.6976 32.2402H19.8239C20.4132 32.3244 21.0024 32.3665 21.5916 32.3665H21.7179L21.76 36.2808H21.6337C21.5075 36.2808 21.3812 36.2808 21.2549 36.2808ZM19.403 35.902C20.1185 35.9861 20.792 36.0282 21.5075 36.0282L21.4654 32.6611C20.9603 32.6611 20.4552 32.619 19.9081 32.5769L19.403 35.902Z" fill="#000307"/>
<path d="M19.361 36.1546H19.2347C18.3508 36.0283 17.5091 35.8179 16.6673 35.5232L16.541 35.4812L17.8037 31.7773L17.9299 31.8194C18.5613 32.0299 19.1926 32.1982 19.8239 32.2824H19.9502L19.361 36.1546ZM16.8777 35.3128C17.6353 35.5653 18.3929 35.7337 19.1505 35.86L19.6556 32.535C19.0663 32.4508 18.5192 32.3245 17.972 32.1141L16.8777 35.3128Z" fill="#000307"/>
<path d="M13.8893 34.218L13.7631 34.1338C12.9213 33.6287 12.1637 33.0395 11.4482 32.4081L11.364 32.324L13.9735 29.4619L14.0577 29.5461C14.5628 30.0091 15.152 30.43 15.7413 30.8088L15.8675 30.8929L13.8893 34.218ZM11.7428 32.324C12.3741 32.9132 13.0897 33.4183 13.8052 33.8812L15.5308 30.9771C14.9837 30.6404 14.4786 30.2616 14.0156 29.8407L11.7428 32.324Z" fill="#000307"/>
<path d="M16.7934 35.5648L16.6671 35.5227C15.657 35.186 14.6889 34.7231 13.763 34.1759L13.6367 34.0917L15.657 30.7246L15.7833 30.8088C16.4567 31.2297 17.1722 31.5664 17.9298 31.8189L18.056 31.861L16.7934 35.5648ZM14.0155 34.0075C14.8573 34.5126 15.6991 34.8914 16.625 35.2281L17.7193 32.0294C17.0459 31.7768 16.3725 31.4822 15.7833 31.1034L14.0155 34.0075Z" fill="#000307"/>
<path d="M17.046 14.7727L15.3203 11.9948L15.4466 11.9106C16.0779 11.5318 16.7513 11.1951 17.4248 10.9005L17.551 10.8584L18.7295 13.8888L18.6032 13.9309C18.0982 14.0992 17.6352 14.3518 17.2143 14.6464L17.046 14.7727ZM15.6991 12.1211L17.1301 14.436C17.5089 14.1834 17.9298 14.0151 18.3507 13.8467L17.3827 11.2793C16.7934 11.4897 16.2463 11.7844 15.6991 12.1211Z" fill="#000307"/>
<path d="M19.8239 13.6368L19.2346 10.4381L19.3609 10.396C19.9922 10.2697 20.6656 10.2276 21.297 10.1855H21.4232L21.4653 13.4264H21.3391C20.8761 13.4264 20.4131 13.4685 19.9922 13.5527L19.8239 13.6368ZM19.4872 10.6485L19.9922 13.3422C20.371 13.258 20.7498 13.2159 21.1286 13.2159L21.0865 10.4802C20.5815 10.5222 20.0343 10.5643 19.4872 10.6485Z" fill="#000307"/>
<path d="M18.4771 14.0572L17.2986 11.0268L17.4248 10.9847C18.0141 10.7322 18.6875 10.5639 19.3188 10.4376L19.4451 10.3955L20.0344 13.5943L19.9081 13.6363C19.4451 13.7205 18.9821 13.8468 18.5612 14.0152L18.4771 14.0572ZM17.6353 11.1531L18.6033 13.7205C18.9821 13.5943 19.3609 13.468 19.7397 13.3838L19.2347 10.6901C18.6875 10.8164 18.1404 10.9847 17.6353 11.1531Z" fill="#000307"/>
<path d="M22.7701 13.5946H22.6439C22.223 13.5104 21.8442 13.5104 21.4654 13.5104H21.3391H21.297H21.1708L21.1287 10.2695H21.2549C21.3812 10.2695 21.4654 10.2695 21.5496 10.2695C22.0546 10.2695 22.6018 10.3116 23.1068 10.3958H23.2331L22.7701 13.5946ZM21.5075 13.2158C21.8442 13.2158 22.1809 13.2578 22.5597 13.2999L22.9806 10.6062C22.4334 10.5221 21.9284 10.48 21.3812 10.48L21.4233 13.2158H21.5075Z" fill="#000307"/>
<path d="M15.7834 15.8254L13.5527 13.4684L13.6369 13.3842C14.1841 12.8371 14.7733 12.3741 15.4467 11.9953L15.573 11.9111L17.2986 14.689L17.1724 14.7732C16.7094 15.0678 16.2885 15.4045 15.9097 15.7833L15.7834 15.8254ZM13.9315 13.4684L15.8255 15.4466C16.1622 15.1099 16.541 14.8153 16.9619 14.5627L15.5309 12.2478C14.9417 12.6266 14.3945 13.0054 13.9315 13.4684Z" fill="#000307"/>
<path d="M14.647 17.2984L14.5207 17.2563L11.8691 15.5727L12.0375 15.3623L12.1217 15.4044L14.7733 17.088L14.647 17.2984Z" fill="#000307"/>
<path d="M13.9315 18.8137L10.9011 17.6773L10.9432 17.551C11.2378 16.7934 11.5745 16.12 11.9533 15.4466L12.0375 15.3203L12.248 15.4466L14.7733 17.046L14.6891 17.1722C14.3945 17.6352 14.142 18.1403 13.9736 18.6453L13.9315 18.8137ZM11.1958 17.551L13.7632 18.477C13.9315 18.014 14.142 17.5931 14.3945 17.1722L12.0796 15.7412C11.7429 16.2884 11.4483 16.8776 11.1958 17.551Z" fill="#000307"/>
<path d="M14.6049 17.2984L14.5207 17.2563L11.8691 15.6148L11.9954 15.3623L12.1217 15.4465L14.7733 17.088L14.6049 17.2984Z" fill="#000307"/>
<path d="M14.6469 17.2983L11.9111 15.5727L11.9953 15.4464C12.4583 14.6888 13.0475 13.9733 13.6789 13.342L13.763 13.2578L15.9938 15.6148L15.9096 15.699C15.4466 16.1199 15.0678 16.6249 14.7311 17.1721L14.6469 17.2983ZM12.2478 15.4885L14.5627 16.9195C14.8574 16.4566 15.2362 15.9936 15.615 15.6148L13.721 13.6366C13.1738 14.2259 12.6687 14.8151 12.2478 15.4885Z" fill="#000307"/>
<path d="M24.0749 13.9732L23.9486 13.9311C23.5277 13.8048 23.0647 13.6785 22.6438 13.5944H22.5176L23.0226 10.3535H23.1489C23.7802 10.4377 24.4116 10.6061 25.0008 10.8165L25.1271 10.8586L24.0749 13.9732ZM22.8122 13.3418C23.191 13.426 23.5698 13.5102 23.9065 13.5944L24.7904 10.9848C24.2853 10.8165 23.7382 10.6902 23.2331 10.6061L22.8122 13.3418Z" fill="#000307"/>
<path d="M13.5525 20.2448L10.3538 19.7397L10.3958 19.6134C10.5221 18.8979 10.6905 18.2245 10.943 17.5511L10.9851 17.4248L14.0155 18.5612L13.9734 18.6875C13.805 19.1504 13.6788 19.6555 13.5946 20.1185L13.5525 20.2448ZM10.6484 19.5292L13.3421 19.9501C13.4262 19.5292 13.5104 19.1084 13.6788 18.7296L11.1114 17.8036C10.9009 18.3508 10.7746 18.94 10.6484 19.5292Z" fill="#000307"/>
<path d="M26.8948 15.6995L26.8107 15.6153C26.3898 15.2365 25.9689 14.8998 25.5059 14.6473L25.3796 14.5631L27.0632 11.7432L27.1895 11.8273C27.8629 12.2061 28.4521 12.6691 29.0414 13.2163L29.1256 13.3005L26.8948 15.6995ZM25.7164 14.4369C26.1372 14.6894 26.516 14.984 26.8527 15.2786L28.7047 13.2584C28.1996 12.7954 27.6524 12.4166 27.1053 12.0799L25.7164 14.4369Z" fill="#000307"/>
<path d="M25.59 14.6888L25.4637 14.6046C25.0008 14.31 24.4957 14.0995 23.9485 13.8891L23.8223 13.847L24.8745 10.7324L25.0007 10.7745C25.7583 11.027 26.4739 11.3638 27.1473 11.7426L27.2735 11.8267L25.59 14.6888ZM24.159 13.7207C24.6219 13.8891 25.0428 14.0995 25.4637 14.31L26.8947 11.953C26.3055 11.6163 25.6742 11.3217 25.0428 11.1112L24.159 13.7207Z" fill="#000307"/>
<path d="M21.297 32.661C20.7919 32.661 20.2869 32.6189 19.7818 32.5347H19.6555L20.1606 29.3359H20.2869C20.7077 29.378 21.0445 29.4201 21.3812 29.4201H21.5074C21.5495 29.4201 21.5495 29.4201 21.5916 29.4201H21.7179L21.76 32.661H21.6337C21.4653 32.661 21.3812 32.661 21.297 32.661ZM19.9501 32.2822C20.4552 32.3663 20.9603 32.3663 21.4653 32.3663L21.4232 29.6726H21.3812C21.0865 29.6726 20.7498 29.6306 20.371 29.5885L19.9501 32.2822Z" fill="#000307"/>
<path d="M27.2315 31.0196L25.5059 28.2839L25.6321 28.1997C26.0951 27.9051 26.516 27.6104 26.8948 27.2316L26.979 27.1475L29.2097 29.5044L29.1255 29.5886C28.5783 30.0937 27.9891 30.5567 27.3578 30.9355L27.2315 31.0196ZM25.8847 28.368L27.3157 30.6829C27.8628 30.3462 28.3679 29.9674 28.8309 29.5044L26.9369 27.5263C26.6002 27.8209 26.2635 28.1155 25.8847 28.368Z" fill="#000307"/>
<path d="M25.2953 31.9873L24.1589 28.9569L24.2852 28.9148C24.7482 28.7465 25.2112 28.4939 25.6741 28.2414L25.8004 28.1572L27.526 30.9351L27.3998 31.0193C26.7684 31.3981 26.1371 31.7348 25.4637 31.9873H25.2953ZM24.4536 29.0832L25.4216 31.6506C26.0108 31.4402 26.558 31.1455 27.0631 30.8509L25.632 28.536C25.2532 28.7465 24.8745 28.9148 24.4536 29.0832Z" fill="#000307"/>
<path d="M23.3593 32.4928L22.77 29.294L22.8963 29.2519C23.3593 29.1678 23.7802 29.0415 24.2431 28.8731L24.3694 28.8311L25.5058 31.8615L25.3795 31.9035C24.7903 32.114 24.1169 32.3244 23.4855 32.4507L23.3593 32.4928ZM23.0646 29.5045L23.5697 32.1561C24.1169 32.0298 24.664 31.9035 25.1691 31.6931L24.201 29.1678C23.8222 29.3361 23.4434 29.4203 23.0646 29.5045Z" fill="#000307"/>
<path d="M21.5917 32.6612H21.4654V32.5349L21.4233 29.4203H21.5496C22.0126 29.4203 22.4335 29.3782 22.8964 29.294L23.0227 29.252L23.612 32.4507L23.4857 32.4928C22.8544 32.577 22.223 32.6612 21.5917 32.6612ZM21.6759 29.6728L21.718 32.3665C22.2651 32.3665 22.8123 32.2824 23.3173 32.1982L22.8123 29.5466C22.4335 29.6308 22.0547 29.6728 21.6759 29.6728Z" fill="#000307"/>
<path d="M10.2275 21.7601V21.6338H10.3538H10.2275C10.2275 20.9604 10.2696 20.287 10.3959 19.6136L10.438 19.4873L13.6367 19.9924L13.5946 20.1186C13.5105 20.6237 13.4684 21.0446 13.4684 21.5076V21.5497V21.5917V21.718L10.2275 21.7601ZM10.6063 19.7819C10.5222 20.3712 10.4801 20.9183 10.4801 21.5076L13.1738 21.4655C13.1738 21.0446 13.2158 20.6658 13.2579 20.2028L10.6063 19.7819Z" fill="#000307"/>
<path d="M14.0156 29.8412L13.9314 29.757C13.3001 29.1678 12.7108 28.4944 12.2058 27.7789L12.1216 27.6526L14.7732 25.8428L14.8574 25.969C15.1941 26.4741 15.615 26.9371 16.0779 27.358L16.1621 27.4422L14.0156 29.8412ZM12.4583 27.7368C12.8792 28.3681 13.4263 28.9574 13.9735 29.4624L15.7833 27.4422C15.3624 27.0634 14.9836 26.6425 14.689 26.1795L12.4583 27.7368Z" fill="#000307"/>
<path d="M12.2478 27.8625L12.1636 27.7362C11.7428 27.1049 11.406 26.4736 11.1114 25.7581L11.0693 25.6318L14.0156 24.3691L14.0576 24.4954C14.2681 25.0005 14.5206 25.4635 14.8152 25.8843L14.8994 26.0106L12.2478 27.8625ZM11.406 25.8002C11.6586 26.3894 11.9532 26.9366 12.332 27.4837L14.5627 25.9685C14.3102 25.5897 14.0997 25.1688 13.8893 24.748L11.406 25.8002Z" fill="#000307"/>
<path d="M11.1536 25.9265L11.1116 25.8002C10.859 25.1689 10.6486 24.5376 10.5223 23.9062L10.4802 23.78L13.6369 23.0645L13.679 23.1907C13.7632 23.6537 13.9315 24.1167 14.0999 24.5376L14.142 24.6638L11.1536 25.9265ZM10.7749 23.9904C10.9011 24.5376 11.0695 25.0426 11.2799 25.5898L13.7632 24.5376C13.6369 24.1588 13.5106 23.78 13.3844 23.4012L10.7749 23.9904Z" fill="#000307"/>
<path d="M10.5223 24.0323L10.4802 23.906C10.3118 23.1484 10.2276 22.3908 10.1855 21.6332V21.5069L13.4264 21.4648V21.5911C13.4264 22.1383 13.5106 22.6854 13.6368 23.1905L13.6789 23.3168L10.5223 24.0323ZM10.4802 21.7595C10.4802 22.4329 10.5643 23.0642 10.7327 23.7376L13.3843 23.1484C13.3001 22.6854 13.2159 22.2224 13.2159 21.7174L10.4802 21.7595Z" fill="#000307"/>
<path d="M19.9081 32.5346H19.7818C19.1084 32.4504 18.4771 32.282 17.8457 32.0716L17.7195 32.0295L18.7717 28.957L18.898 28.9991C19.3609 29.1675 19.8239 29.2517 20.2869 29.3358H20.4132L19.9081 32.5346ZM18.0562 31.8612C18.6033 32.0295 19.1505 32.1558 19.6977 32.24L20.1185 29.5463C19.6977 29.4621 19.3189 29.3779 18.9401 29.2516L18.0562 31.8612Z" fill="#000307"/>
<path d="M15.7413 31.1036L15.615 31.0194C14.9837 30.6406 14.3944 30.2198 13.8894 29.7147L13.8052 29.6305L15.9938 27.2314L16.078 27.3156C16.4568 27.6523 16.8777 27.947 17.2986 28.2416L17.4248 28.3258L15.7413 31.1036ZM14.184 29.6305C14.647 30.0514 15.152 30.4302 15.6571 30.7248L17.046 28.4099C16.6672 28.1574 16.3305 27.9049 15.9938 27.6102L14.184 29.6305Z" fill="#000307"/>
<path d="M17.9719 32.1135L17.8456 32.0714C17.088 31.8189 16.3725 31.4822 15.657 31.0613L15.5308 30.9771L17.1722 28.1992L17.2985 28.2834C17.8036 28.578 18.3086 28.8305 18.8558 28.9989L18.9821 29.041L17.9719 32.1135ZM15.9096 30.8929C16.4988 31.2296 17.1301 31.5242 17.8036 31.7768L18.6874 29.2093C18.2244 29.041 17.7615 28.8305 17.2985 28.578L15.9096 30.8929Z" fill="#000307"/>
</svg>
