<svg width="16" height="18" viewBox="0 0 16 18" fill="none" xmlns="http://www.w3.org/2000/svg">
<path d="M8.35547 11.2812C9.56359 11.2812 10.543 10.3019 10.543 9.09375C10.543 7.88563 9.56359 6.90625 8.35547 6.90625C7.14735 6.90625 6.16797 7.88563 6.16797 9.09375C6.16797 10.3019 7.14735 11.2812 8.35547 11.2812Z" fill="#FFE663" stroke="#FFE663" stroke-linecap="round" stroke-linejoin="round"/>
<path d="M7.34205 7.15488C6.76975 5.95144 6.16797 4.45219 6.16797 3.46875C6.16797 2.88859 6.39844 2.33219 6.80867 1.92195C7.21891 1.51172 7.77531 1.28125 8.35547 1.28125C8.93563 1.28125 9.49203 1.51172 9.90227 1.92195C10.3125 2.33219 10.543 2.88859 10.543 3.46875C10.543 4.45219 9.94118 5.95145 9.36889 7.15488" stroke="#FFE663" stroke-linecap="round" stroke-linejoin="round"/>
<path d="M6.16941 9.00214C4.84106 8.89605 3.24178 8.66758 2.39009 8.17586C1.88783 7.88569 1.52139 7.40792 1.37134 6.84761C1.22129 6.2873 1.29992 5.69033 1.58995 5.18799C1.87998 4.68565 2.35765 4.31907 2.91791 4.16886C3.47818 4.01865 4.07517 4.09712 4.57759 4.387C5.42928 4.87872 6.42678 6.14951 7.18283 7.24685" stroke="#FFE663" stroke-linecap="round" stroke-linejoin="round"/>
<path d="M7.18283 10.9408C6.42678 12.0382 5.42928 13.309 4.57759 13.8007C4.07517 14.0906 3.47818 14.169 2.91791 14.0188C2.35765 13.8686 1.87998 13.502 1.58995 12.9997C1.29992 12.4974 1.22129 11.9004 1.37134 11.3401C1.52139 10.7798 1.88783 10.302 2.39009 10.0118C3.24178 9.52011 4.84106 9.29164 6.16941 9.18555" stroke="#FFE663" stroke-linecap="round" stroke-linejoin="round"/>
<path d="M9.36889 11.0327C9.94118 12.2362 10.543 13.7354 10.543 14.7188C10.543 15.299 10.3125 15.8554 9.90227 16.2656C9.49203 16.6759 8.93563 16.9063 8.35547 16.9063C7.77531 16.9063 7.21891 16.6759 6.80867 16.2656C6.39844 15.8554 6.16797 15.299 6.16797 14.7188C6.16797 13.7354 6.76975 12.2361 7.34205 11.0327" stroke="#FFE663" stroke-linecap="round" stroke-linejoin="round"/>
<path d="M10.5413 9.18555C11.8696 9.29164 13.4689 9.52011 14.3206 10.0118C14.8228 10.302 15.1893 10.7798 15.3393 11.3401C15.4894 11.9004 15.4107 12.4974 15.1207 12.9997C14.8307 13.502 14.353 13.8686 13.7928 14.0188C13.2325 14.169 12.6355 14.0906 12.1331 13.8007C11.2814 13.309 10.2839 12.0382 9.52783 10.9408" stroke="#FFE663" stroke-linecap="round" stroke-linejoin="round"/>
<path d="M9.52783 7.24685C10.2839 6.14951 11.2814 4.87872 12.1331 4.387C12.6355 4.09712 13.2325 4.01865 13.7927 4.16886C14.353 4.31907 14.8307 4.68565 15.1207 5.18799C15.4107 5.69033 15.4894 6.2873 15.3393 6.84761C15.1893 7.40792 14.8228 7.88569 14.3206 8.17586C13.4689 8.66758 11.8696 8.89605 10.5412 9.00214" stroke="#FFE663" stroke-linecap="round" stroke-linejoin="round"/>
</svg>
