<svg width="339" height="352" viewBox="0 0 339 352" fill="none" xmlns="http://www.w3.org/2000/svg">
<path d="M257 339H138L138 0L257 1.04033e-05L257 339Z" fill="#FFF8BA"/>
<path d="M257 288H32L32 168L257 168L257 288Z" fill="#FFF8BA"/>
<path d="M257 237L105 237L105 339H257V237Z" fill="#FFF8BA"/>
<path d="M169.35 131.42V129.6L171.17 128.2H172.64V138H171.03V130.16L169.35 131.42ZM173.831 136.04V134.5L177.121 128.2H178.871L175.581 134.5H178.801V132.12H178.871H180.411V134.5H181.811V136.04H180.411V138H178.801V136.04H173.831ZM182.371 137.23C182.371 136.95 182.459 136.717 182.637 136.53C182.823 136.343 183.052 136.25 183.323 136.25C183.631 136.25 183.873 136.362 184.051 136.586C184.237 136.81 184.331 137.141 184.331 137.58C184.331 138.299 184.158 138.849 183.813 139.232C183.477 139.624 183.019 139.82 182.441 139.82V139.12C182.721 139.12 182.94 139.041 183.099 138.882C183.267 138.733 183.351 138.532 183.351 138.28V138.196C183.341 138.187 183.337 138.168 183.337 138.14V138.098L183.253 138.126C183.225 138.135 183.164 138.14 183.071 138.14C182.884 138.14 182.721 138.056 182.581 137.888C182.441 137.72 182.371 137.501 182.371 137.23ZM185.377 134.78C185.377 134.332 185.475 133.865 185.671 133.38C185.876 132.885 186.072 132.498 186.259 132.218C186.455 131.929 186.721 131.569 187.057 131.14L189.297 128.2H191.187L189.073 130.958L188.457 131.49V131.56L188.737 131.462C189.017 131.387 189.32 131.35 189.647 131.35C190.561 131.35 191.336 131.681 191.971 132.344C192.615 132.997 192.937 133.809 192.937 134.78C192.937 135.769 192.582 136.6 191.873 137.272C191.163 137.944 190.258 138.28 189.157 138.28C188.055 138.28 187.15 137.944 186.441 137.272C185.731 136.6 185.377 135.769 185.377 134.78ZM187.631 133.324C187.248 133.697 187.057 134.183 187.057 134.78C187.057 135.377 187.248 135.867 187.631 136.25C188.013 136.623 188.522 136.81 189.157 136.81C189.791 136.81 190.3 136.623 190.683 136.25C191.065 135.867 191.257 135.377 191.257 134.78C191.257 134.183 191.065 133.697 190.683 133.324C190.3 132.941 189.791 132.75 189.157 132.75C188.522 132.75 188.013 132.941 187.631 133.324ZM194.06 131.42C194.06 130.431 194.415 129.6 195.124 128.928C195.833 128.256 196.739 127.92 197.84 127.92C198.941 127.92 199.847 128.256 200.556 128.928C201.265 129.6 201.62 130.431 201.62 131.42C201.62 132.307 201.251 133.263 200.514 134.29C200.439 134.393 200.337 134.533 200.206 134.71C200.075 134.878 199.987 134.995 199.94 135.06L197.7 138H195.81L197.924 135.242L198.54 134.71V134.64C198.521 134.649 198.428 134.687 198.26 134.752C198.017 134.817 197.714 134.85 197.35 134.85C196.435 134.85 195.656 134.523 195.012 133.87C194.377 133.207 194.06 132.391 194.06 131.42ZM196.314 129.964C195.931 130.337 195.74 130.823 195.74 131.42C195.74 132.017 195.931 132.507 196.314 132.89C196.697 133.263 197.205 133.45 197.84 133.45C198.475 133.45 198.983 133.263 199.366 132.89C199.749 132.507 199.94 132.017 199.94 131.42C199.94 130.823 199.749 130.337 199.366 129.964C198.983 129.581 198.475 129.39 197.84 129.39C197.205 129.39 196.697 129.581 196.314 129.964Z" fill="#333333"/>
<path d="M296.21 103.04V101.5L299.5 95.2H301.25L297.96 101.5H301.18V99.12H301.25H302.79V101.5H304.19V103.04H302.79V105H301.18V103.04H296.21ZM304.749 104.23C304.749 103.95 304.838 103.717 305.015 103.53C305.202 103.343 305.431 103.25 305.701 103.25C306.009 103.25 306.252 103.362 306.429 103.586C306.616 103.81 306.709 104.141 306.709 104.58C306.709 105.299 306.537 105.849 306.191 106.232C305.855 106.624 305.398 106.82 304.819 106.82V106.12C305.099 106.12 305.319 106.041 305.477 105.882C305.645 105.733 305.729 105.532 305.729 105.28V105.196C305.72 105.187 305.715 105.168 305.715 105.14V105.098L305.631 105.126C305.603 105.135 305.543 105.14 305.449 105.14C305.263 105.14 305.099 105.056 304.959 104.888C304.819 104.72 304.749 104.501 304.749 104.23ZM307.406 96.74V95.2H314.056V96.74L310.136 105H308.386L312.236 96.88V96.74H307.406ZM314.551 101.78C314.551 101.332 314.649 100.865 314.845 100.38C315.05 99.8853 315.246 99.498 315.433 99.218C315.629 98.9287 315.895 98.5693 316.231 98.14L318.471 95.2H320.361L318.247 97.958L317.631 98.49V98.56L317.911 98.462C318.191 98.3873 318.494 98.35 318.821 98.35C319.735 98.35 320.51 98.6813 321.145 99.344C321.789 99.9973 322.111 100.809 322.111 101.78C322.111 102.769 321.756 103.6 321.047 104.272C320.337 104.944 319.432 105.28 318.331 105.28C317.229 105.28 316.324 104.944 315.615 104.272C314.905 103.6 314.551 102.769 314.551 101.78ZM316.805 100.324C316.422 100.697 316.231 101.183 316.231 101.78C316.231 102.377 316.422 102.867 316.805 103.25C317.187 103.623 317.696 103.81 318.331 103.81C318.965 103.81 319.474 103.623 319.857 103.25C320.239 102.867 320.431 102.377 320.431 101.78C320.431 101.183 320.239 100.697 319.857 100.324C319.474 99.9413 318.965 99.75 318.331 99.75C317.696 99.75 317.187 99.9413 316.805 100.324Z" fill="#333333"/>
<path d="M62.49 227.78C62.49 227.332 62.588 226.865 62.784 226.38C62.9893 225.885 63.1853 225.498 63.372 225.218C63.568 224.929 63.834 224.569 64.17 224.14L66.41 221.2H68.3L66.186 223.958L65.57 224.49V224.56L65.85 224.462C66.13 224.387 66.4333 224.35 66.76 224.35C67.6747 224.35 68.4493 224.681 69.084 225.344C69.728 225.997 70.05 226.809 70.05 227.78C70.05 228.769 69.6953 229.6 68.986 230.272C68.2767 230.944 67.3713 231.28 66.27 231.28C65.1687 231.28 64.2633 230.944 63.554 230.272C62.8447 229.6 62.49 228.769 62.49 227.78ZM64.744 226.324C64.3613 226.697 64.17 227.183 64.17 227.78C64.17 228.377 64.3613 228.867 64.744 229.25C65.1267 229.623 65.6353 229.81 66.27 229.81C66.9047 229.81 67.4133 229.623 67.796 229.25C68.1787 228.867 68.37 228.377 68.37 227.78C68.37 227.183 68.1787 226.697 67.796 226.324C67.4133 225.941 66.9047 225.75 66.27 225.75C65.6353 225.75 65.1267 225.941 64.744 226.324ZM71.1733 230.23C71.1733 229.95 71.2619 229.717 71.4393 229.53C71.6259 229.343 71.8546 229.25 72.1253 229.25C72.4333 229.25 72.6759 229.362 72.8533 229.586C73.0399 229.81 73.1333 230.141 73.1333 230.58C73.1333 231.299 72.9606 231.849 72.6153 232.232C72.2793 232.624 71.8219 232.82 71.2433 232.82V232.12C71.5233 232.12 71.7426 232.041 71.9013 231.882C72.0693 231.733 72.1533 231.532 72.1533 231.28V231.196C72.1439 231.187 72.1393 231.168 72.1393 231.14V231.098L72.0553 231.126C72.0273 231.135 71.9666 231.14 71.8733 231.14C71.6866 231.14 71.5233 231.056 71.3833 230.888C71.2433 230.72 71.1733 230.501 71.1733 230.23ZM74.1095 228.2H75.7895C75.8548 228.489 75.9808 228.746 76.1675 228.97C76.5875 229.483 77.1848 229.74 77.9595 229.74C78.6035 229.74 79.1121 229.581 79.4855 229.264C79.8681 228.937 80.0595 228.536 80.0595 228.06C80.0595 227.519 79.8868 227.094 79.5415 226.786C79.2055 226.469 78.7248 226.31 78.0995 226.31H75.7195V224.91L78.6595 222.81V222.74H74.5995V221.2H81.0395V222.726L78.5195 224.56L77.8195 224.84V224.91L78.0435 224.882C78.3515 224.854 78.5335 224.84 78.5895 224.84C79.4668 224.84 80.1995 225.143 80.7875 225.75C81.3755 226.357 81.6695 227.127 81.6695 228.06C81.6695 228.956 81.3241 229.717 80.6335 230.342C79.9428 230.967 79.0515 231.28 77.9595 231.28C76.5128 231.28 75.4441 230.767 74.7535 229.74C74.4548 229.301 74.2401 228.788 74.1095 228.2ZM82.306 222.74V221.2H88.956V222.74L85.036 231H83.286L87.136 222.88V222.74H82.306Z" fill="#333333"/>
<path d="M187.35 309.42V307.6L189.17 306.2H190.64V316H189.03V308.16L187.35 309.42ZM192.181 309.42C192.181 308.431 192.536 307.6 193.245 306.928C193.954 306.256 194.86 305.92 195.961 305.92C197.062 305.92 197.968 306.256 198.677 306.928C199.386 307.6 199.741 308.431 199.741 309.42C199.741 310.307 199.372 311.263 198.635 312.29C198.56 312.393 198.458 312.533 198.327 312.71C198.196 312.878 198.108 312.995 198.061 313.06L195.821 316H193.931L196.045 313.242L196.661 312.71V312.64C196.642 312.649 196.549 312.687 196.381 312.752C196.138 312.817 195.835 312.85 195.471 312.85C194.556 312.85 193.777 312.523 193.133 311.87C192.498 311.207 192.181 310.391 192.181 309.42ZM194.435 307.964C194.052 308.337 193.861 308.823 193.861 309.42C193.861 310.017 194.052 310.507 194.435 310.89C194.818 311.263 195.326 311.45 195.961 311.45C196.596 311.45 197.104 311.263 197.487 310.89C197.87 310.507 198.061 310.017 198.061 309.42C198.061 308.823 197.87 308.337 197.487 307.964C197.104 307.581 196.596 307.39 195.961 307.39C195.326 307.39 194.818 307.581 194.435 307.964ZM200.794 315.23C200.794 314.95 200.883 314.717 201.06 314.53C201.247 314.343 201.476 314.25 201.746 314.25C202.054 314.25 202.297 314.362 202.474 314.586C202.661 314.81 202.754 315.141 202.754 315.58C202.754 316.299 202.582 316.849 202.236 317.232C201.9 317.624 201.443 317.82 200.864 317.82V317.12C201.144 317.12 201.364 317.041 201.522 316.882C201.69 316.733 201.774 316.532 201.774 316.28V316.196C201.765 316.187 201.76 316.168 201.76 316.14V316.098L201.676 316.126C201.648 316.135 201.588 316.14 201.494 316.14C201.308 316.14 201.144 316.056 201.004 315.888C200.864 315.72 200.794 315.501 200.794 315.23ZM203.801 312.78C203.801 312.332 203.899 311.865 204.095 311.38C204.3 310.885 204.496 310.498 204.683 310.218C204.879 309.929 205.145 309.569 205.481 309.14L207.721 306.2H209.611L207.497 308.958L206.881 309.49V309.56L207.161 309.462C207.441 309.387 207.744 309.35 208.071 309.35C208.985 309.35 209.76 309.681 210.395 310.344C211.039 310.997 211.361 311.809 211.361 312.78C211.361 313.769 211.006 314.6 210.297 315.272C209.587 315.944 208.682 316.28 207.581 316.28C206.479 316.28 205.574 315.944 204.865 315.272C204.155 314.6 203.801 313.769 203.801 312.78ZM206.055 311.324C205.672 311.697 205.481 312.183 205.481 312.78C205.481 313.377 205.672 313.867 206.055 314.25C206.437 314.623 206.946 314.81 207.581 314.81C208.215 314.81 208.724 314.623 209.107 314.25C209.489 313.867 209.681 313.377 209.681 312.78C209.681 312.183 209.489 311.697 209.107 311.324C208.724 310.941 208.215 310.75 207.581 310.75C206.946 310.75 206.437 310.941 206.055 311.324ZM212.484 313.27H214.164C214.238 313.559 214.364 313.807 214.542 314.012C214.952 314.497 215.55 314.74 216.334 314.74C216.959 314.74 217.454 314.572 217.818 314.236C218.182 313.9 218.364 313.461 218.364 312.92C218.364 312.351 218.182 311.893 217.818 311.548C217.454 311.203 216.959 311.03 216.334 311.03C215.755 311.03 215.265 311.184 214.864 311.492C214.705 311.613 214.565 311.763 214.444 311.94H212.904L213.324 306.2H219.274V307.74H214.654L214.444 310.26H214.514C214.663 310.111 214.836 309.985 215.032 309.882C215.47 309.621 215.998 309.49 216.614 309.49C217.594 309.49 218.41 309.817 219.064 310.47C219.717 311.123 220.044 311.94 220.044 312.92C220.044 313.881 219.698 314.684 219.008 315.328C218.326 315.963 217.435 316.28 216.334 316.28C214.896 316.28 213.828 315.781 213.128 314.782C212.829 314.343 212.614 313.839 212.484 313.27Z" fill="#333333"/>
<circle cx="163.5" cy="252.5" r="39.5" fill="#5A5A5A"/>
<path d="M140.27 257.48V255.5L144.5 247.4H146.75L142.52 255.5H146.66V252.44H146.75H148.73V255.5H150.53V257.48H148.73V260H146.66V257.48H140.27ZM151.249 256.49H153.409C153.505 256.862 153.667 257.18 153.895 257.444C154.423 258.068 155.191 258.38 156.199 258.38C157.003 258.38 157.639 258.164 158.107 257.732C158.575 257.3 158.809 256.736 158.809 256.04C158.809 255.308 158.575 254.72 158.107 254.276C157.639 253.832 157.003 253.61 156.199 253.61C155.455 253.61 154.825 253.808 154.309 254.204C154.105 254.36 153.925 254.552 153.769 254.78H151.789L152.329 247.4H159.979V249.38H154.039L153.769 252.62H153.859C154.051 252.428 154.273 252.266 154.525 252.134C155.089 251.798 155.767 251.63 156.559 251.63C157.819 251.63 158.869 252.05 159.709 252.89C160.549 253.73 160.969 254.78 160.969 256.04C160.969 257.276 160.525 258.308 159.637 259.136C158.761 259.952 157.615 260.36 156.199 260.36C154.351 260.36 152.977 259.718 152.077 258.434C151.693 257.87 151.417 257.222 151.249 256.49ZM162.324 259.01C162.324 258.65 162.438 258.35 162.666 258.11C162.906 257.87 163.2 257.75 163.548 257.75C163.944 257.75 164.256 257.894 164.484 258.182C164.724 258.47 164.844 258.896 164.844 259.46C164.844 260.384 164.622 261.092 164.178 261.584C163.746 262.088 163.158 262.34 162.414 262.34V261.44C162.774 261.44 163.056 261.338 163.26 261.134C163.476 260.942 163.584 260.684 163.584 260.36V260.252C163.572 260.24 163.566 260.216 163.566 260.18V260.126L163.458 260.162C163.422 260.174 163.344 260.18 163.224 260.18C162.984 260.18 162.774 260.072 162.594 259.856C162.414 259.64 162.324 259.358 162.324 259.01ZM166.279 256.58C166.279 255.488 166.699 254.618 167.539 253.97C167.899 253.718 168.319 253.526 168.799 253.394V253.286C168.427 253.142 168.097 252.944 167.809 252.692C167.149 252.128 166.819 251.384 166.819 250.46C166.819 249.512 167.221 248.708 168.025 248.048C168.841 247.376 169.939 247.04 171.319 247.04C172.699 247.04 173.791 247.376 174.595 248.048C175.411 248.708 175.819 249.512 175.819 250.46C175.819 251.36 175.489 252.104 174.829 252.692C174.517 252.944 174.187 253.142 173.839 253.286V253.394C174.295 253.514 174.715 253.712 175.099 253.988C175.939 254.636 176.359 255.5 176.359 256.58C176.359 257.624 175.903 258.518 174.991 259.262C174.091 259.994 172.867 260.36 171.319 260.36C169.771 260.36 168.541 259.994 167.629 259.262C166.729 258.518 166.279 257.624 166.279 256.58ZM168.979 250.64C168.979 251.168 169.183 251.6 169.591 251.936C169.999 252.272 170.575 252.44 171.319 252.44C172.063 252.44 172.639 252.272 173.047 251.936C173.455 251.6 173.659 251.168 173.659 250.64C173.659 250.16 173.449 249.758 173.029 249.434C172.621 249.098 172.051 248.93 171.319 248.93C170.587 248.93 170.011 249.098 169.591 249.434C169.183 249.758 168.979 250.16 168.979 250.64ZM169.195 254.942C168.691 255.338 168.439 255.824 168.439 256.4C168.439 256.976 168.691 257.468 169.195 257.876C169.711 258.272 170.419 258.47 171.319 258.47C172.219 258.47 172.921 258.272 173.425 257.876C173.941 257.468 174.199 256.976 174.199 256.4C174.199 255.824 173.941 255.338 173.425 254.942C172.921 254.534 172.219 254.33 171.319 254.33C170.419 254.33 169.711 254.534 169.195 254.942ZM177.792 251.54C177.792 250.268 178.248 249.2 179.16 248.336C180.072 247.472 181.236 247.04 182.652 247.04C184.068 247.04 185.232 247.472 186.144 248.336C187.056 249.2 187.512 250.268 187.512 251.54C187.512 252.68 187.038 253.91 186.09 255.23C185.994 255.362 185.862 255.542 185.694 255.77C185.526 255.986 185.412 256.136 185.352 256.22L182.472 260H180.042L182.76 256.454L183.552 255.77V255.68C183.528 255.692 183.408 255.74 183.192 255.824C182.88 255.908 182.49 255.95 182.022 255.95C180.846 255.95 179.844 255.53 179.016 254.69C178.2 253.838 177.792 252.788 177.792 251.54ZM180.69 249.668C180.198 250.148 179.952 250.772 179.952 251.54C179.952 252.308 180.198 252.938 180.69 253.43C181.182 253.91 181.836 254.15 182.652 254.15C183.468 254.15 184.122 253.91 184.614 253.43C185.106 252.938 185.352 252.308 185.352 251.54C185.352 250.772 185.106 250.148 184.614 249.668C184.122 249.176 183.468 248.93 182.652 248.93C181.836 248.93 181.182 249.176 180.69 249.668Z" fill="white"/>
<rect x="30" y="106" width="107" height="62" fill="#FFC79F"/>
<path d="M68.56 146.27H70.24C70.3147 146.559 70.4407 146.807 70.618 147.012C71.0287 147.497 71.626 147.74 72.41 147.74C73.0353 147.74 73.53 147.572 73.894 147.236C74.258 146.9 74.44 146.461 74.44 145.92C74.44 145.351 74.258 144.893 73.894 144.548C73.53 144.203 73.0353 144.03 72.41 144.03C71.8313 144.03 71.3413 144.184 70.94 144.492C70.7813 144.613 70.6413 144.763 70.52 144.94H68.98L69.4 139.2H75.35V140.74H70.73L70.52 143.26H70.59C70.7393 143.111 70.912 142.985 71.108 142.882C71.5467 142.621 72.074 142.49 72.69 142.49C73.67 142.49 74.4867 142.817 75.14 143.47C75.7933 144.123 76.12 144.94 76.12 145.92C76.12 146.881 75.7747 147.684 75.084 148.328C74.4027 148.963 73.5113 149.28 72.41 149.28C70.9727 149.28 69.904 148.781 69.204 147.782C68.9053 147.343 68.6907 146.839 68.56 146.27ZM77.1733 148.23C77.1733 147.95 77.2619 147.717 77.4393 147.53C77.6259 147.343 77.8546 147.25 78.1253 147.25C78.4333 147.25 78.6759 147.362 78.8533 147.586C79.0399 147.81 79.1333 148.141 79.1333 148.58C79.1333 149.299 78.9606 149.849 78.6153 150.232C78.2793 150.624 77.8219 150.82 77.2433 150.82V150.12C77.5233 150.12 77.7426 150.041 77.9013 149.882C78.0693 149.733 78.1533 149.532 78.1533 149.28V149.196C78.1439 149.187 78.1393 149.168 78.1393 149.14V149.098L78.0553 149.126C78.0273 149.135 77.9666 149.14 77.8733 149.14C77.6866 149.14 77.5233 149.056 77.3833 148.888C77.2433 148.72 77.1733 148.501 77.1733 148.23ZM80.0395 142.42V140.6L81.8595 139.2H83.3295V149H81.7195V141.16L80.0395 142.42ZM84.8705 146.34C84.8705 145.491 85.1972 144.814 85.8505 144.31C86.1305 144.114 86.4572 143.965 86.8305 143.862V143.778C86.5412 143.666 86.2845 143.512 86.0605 143.316C85.5472 142.877 85.2905 142.299 85.2905 141.58C85.2905 140.843 85.6032 140.217 86.2285 139.704C86.8632 139.181 87.7172 138.92 88.7905 138.92C89.8639 138.92 90.7132 139.181 91.3385 139.704C91.9732 140.217 92.2905 140.843 92.2905 141.58C92.2905 142.28 92.0339 142.859 91.5205 143.316C91.2779 143.512 91.0212 143.666 90.7505 143.778V143.862C91.1052 143.955 91.4319 144.109 91.7305 144.324C92.3839 144.828 92.7105 145.5 92.7105 146.34C92.7105 147.152 92.3559 147.847 91.6465 148.426C90.9465 148.995 89.9945 149.28 88.7905 149.28C87.5865 149.28 86.6299 148.995 85.9205 148.426C85.2205 147.847 84.8705 147.152 84.8705 146.34ZM86.9705 141.72C86.9705 142.131 87.1292 142.467 87.4465 142.728C87.7639 142.989 88.2119 143.12 88.7905 143.12C89.3692 143.12 89.8172 142.989 90.1345 142.728C90.4519 142.467 90.6105 142.131 90.6105 141.72C90.6105 141.347 90.4472 141.034 90.1205 140.782C89.8032 140.521 89.3599 140.39 88.7905 140.39C88.2212 140.39 87.7732 140.521 87.4465 140.782C87.1292 141.034 86.9705 141.347 86.9705 141.72ZM87.1385 145.066C86.7465 145.374 86.5505 145.752 86.5505 146.2C86.5505 146.648 86.7465 147.031 87.1385 147.348C87.5399 147.656 88.0905 147.81 88.7905 147.81C89.4905 147.81 90.0365 147.656 90.4285 147.348C90.8299 147.031 91.0305 146.648 91.0305 146.2C91.0305 145.752 90.8299 145.374 90.4285 145.066C90.0365 144.749 89.4905 144.59 88.7905 144.59C88.0905 144.59 87.5399 144.749 87.1385 145.066Z" fill="#333333"/>
<rect x="287" y="52" width="30" height="52" transform="rotate(-180 287 52)" fill="#5A5A5A"/>
<path d="M338.75 41.25L338.687 154.706L334.25 154.748L334.25 41.25L338.75 41.25Z" stroke="#5A5A5A" stroke-width="0.5" stroke-miterlimit="10"/>
<rect width="5" height="74" transform="matrix(-4.37114e-08 -1 -1 4.37114e-08 339 31)" fill="#5A5A5A"/>
<rect width="5" height="74" transform="matrix(-4.37114e-08 -1 -1 4.37114e-08 339 158)" fill="#5A5A5A"/>
<rect width="5" height="26" transform="matrix(-1 8.74228e-08 8.74228e-08 1 339 132)" fill="#5A5A5A"/>
<rect width="5" height="21" transform="matrix(-1 8.74228e-08 8.74228e-08 1 339 31)" fill="#5A5A5A"/>
<path d="M272.25 45.25L272.313 105.726L276.75 105.749L276.75 45.25L272.25 45.25Z" stroke="#5A5A5A" stroke-width="0.5" stroke-miterlimit="10"/>
<path d="M282.25 45.25L282.313 105.726L286.75 105.749L286.75 45.25L282.25 45.25Z" stroke="#5A5A5A" stroke-width="0.5" stroke-miterlimit="10"/>
<line x1="273.57" y1="135.255" x2="257.57" y2="108.255" stroke="#5A5A5A"/>
<rect x="287" y="184" width="30" height="52" transform="rotate(-180 287 184)" fill="#5A5A5A"/>
<rect x="287" y="259" width="30" height="52" transform="rotate(-180 287 259)" fill="#5A5A5A"/>
<path d="M286.75 140.25L286.598 338.67L275.25 338.748L275.25 140.25L286.75 140.25Z" stroke="#5A5A5A" stroke-width="0.5" stroke-miterlimit="10"/>
<path d="M268.75 140.25L268.598 338.67L257.25 338.748L257.25 140.25L268.75 140.25Z" stroke="#5A5A5A" stroke-width="0.5" stroke-miterlimit="10"/>
<rect x="287" y="352" width="30" height="36" transform="rotate(-180 287 352)" fill="#5A5A5A"/>
<rect x="287" width="16" height="161" transform="rotate(90 287 0)" fill="#5A5A5A"/>
<rect x="142" y="106" width="16" height="103" transform="rotate(-180 142 106)" fill="#5A5A5A"/>
<rect x="16" y="106" width="16" height="126" transform="rotate(-90 16 106)" fill="#5A5A5A"/>
<rect x="16" y="90" width="16" height="141" fill="#5A5A5A"/>
<rect x="16" y="264" width="16" height="35" fill="#5A5A5A"/>
<rect x="108" y="283" width="16" height="76" transform="rotate(90 108 283)" fill="#5A5A5A"/>
<rect x="108" y="352" width="16" height="61" transform="rotate(-180 108 352)" fill="#5A5A5A"/>
<rect x="108" y="352" width="16" height="152" transform="rotate(-90 108 352)" fill="#5A5A5A"/>
<path d="M108 273L100 273L100 309L108 309L108 273Z" fill="#5A5A5A"/>
<path d="M142 106L134 106L134 174L142 174L142 106Z" fill="#5A5A5A"/>
<path d="M45.7197 125.298L45.7361 124.117L45.7197 121.051V113.46H55.677V125.298C55.677 128.315 53.4333 130.774 50.682 130.774C47.9634 130.774 45.7197 128.315 45.7197 125.298Z" fill="white" stroke="#5A5A5A" stroke-width="0.5"/>
<path d="M46.866 125.232V124.298V116.739H54.5468V124.298L54.5304 125.232C54.5304 127.61 52.8272 129.544 50.6982 129.544C48.5855 129.528 46.866 127.593 46.866 125.232Z" fill="white" stroke="#5A5A5A" stroke-width="0.5"/>
<path d="M57.4784 107.099V112.362C57.4784 112.968 56.9871 113.46 56.3811 113.46H45.0973C44.4913 113.46 44 112.968 44 112.362V107.099C44 106.492 44.4913 106 45.0973 106H56.3647C56.9871 106 57.4784 106.492 57.4784 107.099Z" fill="white" stroke="#5A5A5A" stroke-width="0.5"/>
<path d="M51.3862 109.722C51.3862 110.132 51.0914 110.443 50.7475 110.443C50.3872 110.46 50.0924 110.132 50.0924 109.722C50.0924 109.312 50.3872 109.001 50.7311 109.001C51.1078 109.017 51.4025 109.328 51.3862 109.722Z" fill="white" stroke="#5A5A5A" stroke-width="0.5"/>
<path d="M93.5964 107.54L93.5964 119.848C93.5964 120.704 92.9126 121.389 92.0579 121.389L73.5385 121.389C72.6838 121.389 72 120.704 72 119.848L72 107.54C72 106.685 72.6838 106 73.5385 106L92.0579 106C92.8984 106 93.5964 106.685 93.5964 107.54Z" fill="white" stroke="#5A5A5A" stroke-width="0.5"/>
<path d="M91.6733 112.232L91.6733 114.129C91.6733 116.625 89.6504 118.65 87.1574 118.65L78.4391 118.65C75.9461 118.65 73.9232 116.625 73.9232 114.129L73.9232 112.232C73.9232 109.737 75.9461 107.711 78.4391 107.711L87.1574 107.711C89.6504 107.711 91.6733 109.737 91.6733 112.232Z" fill="white" stroke="#5A5A5A" stroke-width="0.5"/>
<path d="M83.7531 110.122C83.7531 110.665 83.3257 111.106 82.7986 111.106C82.2715 111.106 81.8442 110.665 81.8442 110.122C81.8442 109.578 82.2715 109.138 82.7986 109.138C83.3257 109.138 83.7531 109.578 83.7531 110.122Z" fill="white" stroke="#5A5A5A" stroke-width="0.5"/>
<path d="M108.221 107.366L108.221 166.634C108.221 167.393 108.827 168 109.585 168L133.114 168C133.872 168 134.478 167.393 134.478 166.634L134.478 107.366C134.478 106.607 133.872 106 133.114 106L109.585 106C108.827 106 108.221 106.621 108.221 107.366Z" fill="white" stroke="#5A5A5A" stroke-width="0.5"/>
<path d="M118.159 164.357L124.555 164.357C128.262 164.357 131.253 161.348 131.253 157.65L131.253 110.981C131.253 110.071 130.523 109.339 129.613 109.339L113.073 109.339C112.163 109.339 111.433 110.071 111.433 110.981L111.433 157.636C111.446 161.348 114.451 164.357 118.159 164.357Z" fill="white" stroke="#5A5A5A" stroke-width="0.5"/>
<path d="M120.888 114.873C120.149 114.873 119.551 114.249 119.551 113.479C119.551 112.709 120.149 112.085 120.888 112.085C121.626 112.085 122.225 112.709 122.225 113.479C122.225 114.249 121.626 114.873 120.888 114.873Z" fill="white" stroke="#5A5A5A" stroke-width="0.5"/>
<path d="M54.0237 158.587L32.014 158.587L32 137L54.0097 137.014L54.0237 158.587Z" fill="white" stroke="#5A5A5A" stroke-width="0.5"/>
<path d="M43.005 142.257C39.8906 142.257 37.3768 144.732 37.3768 147.794C37.3768 150.856 39.8906 153.33 43.0189 153.33C46.1332 153.33 48.675 150.856 48.675 147.794C48.661 144.732 46.1193 142.257 43.005 142.257Z" stroke="#5A5A5A" stroke-width="0.5"/>
<path d="M47.1247 147.794C47.1387 146.675 46.6778 145.669 45.9237 144.941C45.1695 144.214 44.1361 143.767 43.0188 143.753M38.885 147.78C38.885 146.675 39.3459 145.669 40.086 144.928C40.8402 144.2 41.8597 143.739 43.0049 143.739L38.885 147.78ZM47.1247 147.794C47.1247 148.898 46.6638 149.905 45.9237 150.646C45.1695 151.373 44.1361 151.82 43.0049 151.82L47.1247 147.794ZM38.885 147.78C38.885 148.912 39.3459 149.919 40.086 150.632L40.1 150.646C40.8402 151.359 41.8597 151.82 42.9909 151.82L38.885 147.78Z" stroke="#5A5A5A" stroke-width="0.5"/>
<path d="M142 176L142 168L78 168L78 176L142 176Z" fill="#5A5A5A"/>
<path d="M51 176L51 168L31 168L31 176L51 176Z" fill="#5A5A5A"/>
<path d="M100 188H108V168H100L100 188Z" fill="#5A5A5A"/>
<path d="M106.75 281.75L106.725 240.709L105.25 240.697L105.25 281.75L106.75 281.75Z" stroke="#5A5A5A" stroke-width="0.5" stroke-miterlimit="10"/>
<path d="M106.75 213.306L106.725 172.265L105.25 172.252L105.25 213.306L106.75 213.306Z" stroke="#5A5A5A" stroke-width="0.5" stroke-miterlimit="10"/>
<path d="M108.75 247.528L108.725 206.487L107.25 206.474L107.25 247.528L108.75 247.528Z" stroke="#5A5A5A" stroke-width="0.5" stroke-miterlimit="10"/>
<path d="M160 16L160 40.9954L184.325 40.9954L184.325 16L160 16Z" fill="white" stroke="#5A5A5A" stroke-width="0.5"/>
<path d="M160.927 38.9688L160.927 19.5158C160.927 18.7778 161.319 18.3853 162.089 18.3853L182.236 18.3853C183.021 18.3853 183.398 18.7621 183.398 19.5158L183.398 38.9688C183.414 39.7224 183.021 40.0992 182.252 40.0992L162.104 40.0992C161.319 40.1149 160.927 39.7224 160.927 38.9688Z" fill="white" stroke="#5A5A5A" stroke-width="0.5"/>
<path d="M167.428 37.1796C169.218 37.1639 170.679 35.7508 170.679 34.008C170.679 32.2496 169.218 30.8365 167.428 30.8365C165.622 30.8365 164.177 32.2496 164.177 34.008C164.177 35.7665 165.622 37.1796 167.428 37.1796Z" stroke="#5A5A5A" stroke-width="0.5"/>
<path d="M177.054 37.1494C178.844 37.1337 180.304 35.7207 180.304 33.9779C180.304 32.2194 178.844 30.8064 177.054 30.8064C175.248 30.8064 173.803 32.2194 173.803 33.9779C173.788 35.7364 175.248 37.1651 177.054 37.1494Z" stroke="#5A5A5A" stroke-width="0.5"/>
<path d="M177.054 28.1358C178.86 28.1358 180.304 26.7228 180.304 24.9643C180.304 23.2058 178.844 21.7928 177.054 21.7928C175.264 21.8085 173.803 23.2215 173.803 24.9643C173.803 26.7071 175.264 28.1358 177.054 28.1358Z" stroke="#5A5A5A" stroke-width="0.5"/>
<path d="M167.428 28.1358C169.234 28.1358 170.679 26.7228 170.679 24.9643C170.679 23.2058 169.218 21.7928 167.428 21.7928C165.638 21.8085 164.177 23.2215 164.177 24.9643C164.177 26.7071 165.638 28.1358 167.428 28.1358Z" stroke="#5A5A5A" stroke-width="0.5"/>
<path d="M142.015 53H166.104L166.104 76.699H142L142.015 53Z" fill="white" stroke="#5A5A5A" stroke-width="0.5"/>
<path d="M148.621 54.8032L161.938 54.8032C162.681 54.8032 163.044 55.1668 163.044 55.9245L163.044 73.5321C163.044 74.2594 162.681 74.6382 161.953 74.6534L148.621 74.6382C147.894 74.6534 147.531 74.2746 147.531 73.5321L147.531 55.9245C147.5 55.182 147.879 54.8032 148.621 54.8032Z" fill="white" stroke="#5A5A5A" stroke-width="0.5"/>
<path d="M143.864 64.7282C143.879 65.6525 144.576 66.395 145.454 66.395L152.439 65.7435L152.454 65.7283C152.984 65.7283 153.408 65.2889 153.408 64.7282C153.408 64.1676 152.984 63.7281 152.439 63.713L145.454 63.0614C144.591 63.0614 143.879 63.8039 143.864 64.7282Z" stroke="#5A5A5A" stroke-width="0.5"/>
<mask id="path-62-inside-1_25_4277" fill="white">
<path fill-rule="evenodd" clip-rule="evenodd" d="M144.546 66.1074L148.349 65.7437C148.879 65.7285 149.318 65.2891 149.303 64.7133C149.303 64.1526 148.879 63.7284 148.349 63.7132L144.546 63.3495"/>
</mask>
<path fill-rule="evenodd" clip-rule="evenodd" d="M144.546 66.1074L148.349 65.7437C148.879 65.7285 149.318 65.2891 149.303 64.7133C149.303 64.1526 148.879 63.7284 148.349 63.7132L144.546 63.3495" fill="white"/>
<path d="M148.349 65.7437L148.335 65.2439L148.318 65.2444L148.301 65.246L148.349 65.7437ZM149.303 64.7133H148.803L148.803 64.7265L149.303 64.7133ZM148.349 63.7132L148.301 64.2109L148.318 64.2125L148.335 64.213L148.349 63.7132ZM144.594 66.6051L148.396 66.2414L148.301 65.246L144.499 65.6096L144.594 66.6051ZM148.363 66.2435C149.168 66.2205 149.825 65.5524 149.803 64.7002L148.803 64.7265C148.811 65.0258 148.59 65.2366 148.335 65.2439L148.363 66.2435ZM149.803 64.7133C149.803 63.8839 149.166 63.2364 148.363 63.2134L148.335 64.213C148.592 64.2204 148.803 64.4213 148.803 64.7133H149.803ZM148.396 63.2155L144.594 62.8518L144.499 63.8473L148.301 64.2109L148.396 63.2155Z" fill="#5A5A5A" mask="url(#path-62-inside-1_25_4277)"/>
<line x1="20.424" y1="229.265" x2="0.423999" y2="261.265" stroke="black"/>
<line x1="81.2297" y1="174.444" x2="54.2156" y2="188.417" stroke="black"/>
<rect x="279" y="174" width="2" height="11" transform="rotate(90 279 174)" fill="#5A5A5A"/>
<rect x="262" y="174" width="2" height="11" transform="rotate(90 262 174)" fill="#5A5A5A"/>
<rect x="245" y="174" width="2" height="11" transform="rotate(90 245 174)" fill="#5A5A5A"/>
<rect x="228" y="174" width="2" height="11" transform="rotate(90 228 174)" fill="#5A5A5A"/>
<rect x="211" y="174" width="2" height="11" transform="rotate(90 211 174)" fill="#5A5A5A"/>
<rect x="194" y="174" width="2" height="11" transform="rotate(90 194 174)" fill="#5A5A5A"/>
<rect x="177" y="174" width="2" height="11" transform="rotate(90 177 174)" fill="#5A5A5A"/>
<rect x="160" y="174" width="2" height="11" transform="rotate(90 160 174)" fill="#5A5A5A"/>
<rect x="143" y="174" width="2" height="6" transform="rotate(90 143 174)" fill="#5A5A5A"/>
</svg>
