<svg width="338" height="397" viewBox="0 0 338 397" fill="none" xmlns="http://www.w3.org/2000/svg">
<rect width="30" height="43" transform="matrix(4.37114e-08 1 1 -4.37114e-08 1 312)" fill="#5A5A5A"/>
<path d="M16 54L16 312L322 312L322 54L16 54Z" fill="#E7FFD5"/>
<rect width="46" height="82" transform="matrix(4.37114e-08 1 1 -4.37114e-08 13 8)" fill="#E7FFD5"/>
<rect width="103" height="82" transform="matrix(4.37114e-08 1 1 -4.37114e-08 11 13)" fill="#FDFF9F"/>
<rect width="30" height="105" transform="matrix(4.37114e-08 1 1 -4.37114e-08 106 312)" fill="#5A5A5A"/>
<rect width="30" height="55" transform="matrix(4.37114e-08 1 1 -4.37114e-08 283 312)" fill="#5A5A5A"/>
<rect width="16" height="341" transform="matrix(-1 0 0 1 16 0)" fill="#5A5A5A"/>
<rect width="16" height="304" transform="matrix(-1 0 0 1 338 38)" fill="#5A5A5A"/>
<rect width="16" height="109" transform="matrix(1.19249e-08 -1 -1 -1.19249e-08 109 16)" fill="#5A5A5A"/>
<rect width="16" height="109" transform="matrix(1.19249e-08 -1 -1 -1.19249e-08 109 132)" fill="#5A5A5A"/>
<rect width="16" height="21" transform="matrix(1.19249e-08 -1 -1 -1.19249e-08 165 132)" fill="#5A5A5A"/>
<rect width="16" height="103" transform="matrix(1.19249e-08 -1 -1 -1.19249e-08 196 54)" fill="#5A5A5A"/>
<rect width="16" height="54" transform="matrix(1 0 0 -1 93 54)" fill="#5A5A5A"/>
<rect width="16" height="46" transform="matrix(-1 8.74228e-08 8.74228e-08 1 209 8)" fill="#5A5A5A"/>
<rect width="16" height="53" transform="matrix(1.19249e-08 -1 -1 -1.19249e-08 338 54)" fill="#5A5A5A"/>
<rect width="16" height="53" transform="matrix(1.19249e-08 -1 -1 -1.19249e-08 246 54)" fill="#5A5A5A"/>
<rect width="16" height="46" transform="matrix(-4.37114e-08 1 1 4.37114e-08 165 38)" fill="#5A5A5A"/>
<rect width="8" height="46" transform="matrix(1 0 0 -1 93 131)" fill="#5A5A5A"/>
<rect width="8" height="38" transform="matrix(-4.37114e-08 1 1 4.37114e-08 158 116)" fill="#5A5A5A"/>
<rect width="8" height="24" transform="matrix(-4.37114e-08 1 1 4.37114e-08 300 116)" fill="#5A5A5A"/>
<line x1="291.764" y1="42.4409" x2="248.764" y2="19.4409" stroke="#5A5A5A"/>
<line y1="-0.5" x2="34.1321" y2="-0.5" transform="matrix(-0.527363 0.84964 0.84964 0.527363 113 65)" stroke="#5A5A5A"/>
<line x1="108.741" y1="117.573" x2="136.741" y2="100.573" stroke="#5A5A5A"/>
<path d="M10.25 312.25L172.685 312.402L172.749 323.75L10.25 323.75L10.25 312.25Z" stroke="#5A5A5A" stroke-width="0.5" stroke-miterlimit="10"/>
<path d="M10.25 330.25L172.685 330.402L172.749 341.75L10.25 341.75L10.25 330.25Z" stroke="#5A5A5A" stroke-width="0.5" stroke-miterlimit="10"/>
<path d="M307.75 396.75L184.298 396.687L184.253 392.25L307.75 392.25L307.75 396.75Z" stroke="#5A5A5A" stroke-width="0.5" stroke-miterlimit="10"/>
<rect width="5.00001" height="71" transform="matrix(1 -8.74228e-08 -8.74228e-08 -1 315 397)" fill="#5A5A5A"/>
<rect width="5.00001" height="71" transform="matrix(1 -8.74228e-08 -8.74228e-08 -1 175 397)" fill="#5A5A5A"/>
<rect width="5" height="12" transform="matrix(-1.31134e-07 -1 -1 1.31134e-07 188 397)" fill="#5A5A5A"/>
<rect width="5" height="12" transform="matrix(-1.31134e-07 -1 -1 1.31134e-07 317 397)" fill="#5A5A5A"/>
<path d="M302.75 327.25L242.274 327.313L242.251 331.75L302.75 331.75L302.75 327.25Z" stroke="#5A5A5A" stroke-width="0.5" stroke-miterlimit="10"/>
<path d="M302.75 337.25L242.274 337.313L242.251 341.75L302.75 341.75L302.75 337.25Z" stroke="#5A5A5A" stroke-width="0.5" stroke-miterlimit="10"/>
<line x1="208.749" y1="328.568" x2="239.749" y2="310.568" stroke="#5A5A5A"/>
<path d="M72.7197 96.4762L72.7361 97.6567L72.7197 100.723V108.314H82.677V96.4762C82.677 93.4594 80.4333 91 77.682 91C74.9634 91 72.7197 93.4594 72.7197 96.4762Z" fill="white" stroke="#5A5A5A" stroke-width="0.5"/>
<path d="M73.8662 96.5418V97.4764V105.035H81.547V97.4764L81.5307 96.5418C81.5307 94.1644 79.8274 92.2297 77.6984 92.2297C75.5858 92.2461 73.8662 94.1808 73.8662 96.5418Z" fill="white" stroke="#5A5A5A" stroke-width="0.5"/>
<path d="M84.4784 114.676V109.412C84.4784 108.806 83.9871 108.314 83.3811 108.314H72.0973C71.4913 108.314 71 108.806 71 109.412V114.676C71 115.282 71.4913 115.774 72.0973 115.774H83.3647C83.9871 115.774 84.4784 115.282 84.4784 114.676Z" fill="white" stroke="#5A5A5A" stroke-width="0.5"/>
<path d="M78.3865 112.052C78.3865 111.642 78.0918 111.331 77.7478 111.331C77.3876 111.315 77.0928 111.642 77.0928 112.052C77.0928 112.462 77.3876 112.774 77.7315 112.774C78.1081 112.757 78.4029 112.446 78.3865 112.052Z" fill="white" stroke="#5A5A5A" stroke-width="0.5"/>
<path d="M45.0002 102.54L45.0002 114.848C45.0002 115.704 45.684 116.389 46.5388 116.389L65.0582 116.389C65.9129 116.389 66.5967 115.704 66.5967 114.848L66.5967 102.54C66.5967 101.685 65.9129 101 65.0582 101L46.5388 101C45.6983 101 45.0002 101.685 45.0002 102.54Z" fill="white" stroke="#5A5A5A" stroke-width="0.5"/>
<path d="M46.9237 107.232L46.9237 109.129C46.9237 111.625 48.9466 113.65 51.4396 113.65L60.158 113.65C62.651 113.65 64.6738 111.625 64.6738 109.129L64.6738 107.232C64.6738 104.737 62.651 102.711 60.158 102.711L51.4396 102.711C48.9466 102.711 46.9237 104.737 46.9237 107.232Z" fill="white" stroke="#5A5A5A" stroke-width="0.5"/>
<path d="M54.8441 105.122C54.8441 105.665 55.2714 106.106 55.7985 106.106C56.3256 106.106 56.7529 105.665 56.7529 105.122C56.7529 104.578 56.3256 104.138 55.7985 104.138C55.2714 104.138 54.8441 104.578 54.8441 105.122Z" fill="white" stroke="#5A5A5A" stroke-width="0.5"/>
<path d="M16.0002 114.507L16.0002 54.3859C16.0002 53.616 16.6154 53.0001 17.3844 53.0001L41.2515 53.0001C42.0205 53.0001 42.6357 53.616 42.6357 54.3859L42.6357 114.507C42.6357 115.276 42.0205 115.892 41.2515 115.892L17.3845 115.892C16.6155 115.892 16.0002 115.262 16.0002 114.507Z" fill="white" stroke="#5A5A5A" stroke-width="0.5"/>
<path d="M26.0815 56.6958L32.5691 56.6958C36.3302 56.6958 39.3643 59.7473 39.3643 63.4987L39.3643 110.839C39.3643 111.763 38.6232 112.505 37.7004 112.505L20.9222 112.505C19.9994 112.505 19.2583 111.763 19.2583 110.839L19.2583 63.5127C19.2723 59.7473 22.3204 56.6958 26.0815 56.6958Z" fill="white" stroke="#5A5A5A" stroke-width="0.5"/>
<path d="M28.8499 106.892C28.1009 106.892 27.4937 107.525 27.4937 108.306C27.4937 109.086 28.1009 109.719 28.8499 109.719C29.5989 109.719 30.2061 109.086 30.2061 108.306C30.2061 107.525 29.5989 106.892 28.8499 106.892Z" fill="white" stroke="#5A5A5A" stroke-width="0.5"/>
<path d="M37.5875 38.0237L37.5875 16.014L16 16L16.014 38.0097L37.5875 38.0237Z" fill="white" stroke="#5A5A5A" stroke-width="0.5"/>
<path d="M21.2568 27.0048C21.2568 23.8905 23.7316 21.3767 26.7935 21.3767C29.8555 21.3767 32.3302 23.8905 32.3302 27.0188C32.3302 30.1331 29.8555 32.6748 26.7935 32.6748C23.7316 32.6609 21.2568 30.1192 21.2568 27.0048Z" stroke="#5A5A5A" stroke-width="0.5"/>
<path d="M26.7939 31.1247C25.6754 31.1387 24.6687 30.6778 23.9417 29.9237C23.2146 29.1695 22.7672 28.1361 22.7533 27.0188M26.7799 22.885C25.6754 22.885 24.6687 23.3459 23.9277 24.086C23.2006 24.8402 22.7393 25.8597 22.7393 27.0049L26.7799 22.885ZM26.7939 31.1247C27.8984 31.1247 28.9051 30.6638 29.6461 29.9237C30.3732 29.1695 30.8206 28.1361 30.8206 27.0049L26.7939 31.1247ZM26.7799 22.885C27.9124 22.885 28.9191 23.3459 29.6322 24.086L29.6461 24.1C30.3592 24.8402 30.8206 25.8597 30.8206 26.9909L26.7799 22.885Z" stroke="#5A5A5A" stroke-width="0.5"/>
<path d="M15.9998 175L40.9951 175L40.9951 199.325L15.9998 199.325L15.9998 175Z" fill="white" stroke="#5A5A5A" stroke-width="0.5"/>
<path d="M38.9687 175.927L19.5157 175.927C18.7778 175.927 18.3853 176.319 18.3853 177.089L18.3853 197.236C18.3853 198.021 18.7621 198.398 19.5157 198.398L38.9687 198.398C39.7223 198.414 40.0992 198.021 40.0992 197.252L40.0992 177.104C40.1149 176.319 39.7223 175.927 38.9687 175.927Z" fill="white" stroke="#5A5A5A" stroke-width="0.5"/>
<path d="M37.1797 182.428C37.164 184.218 35.7509 185.679 34.0082 185.679C32.2497 185.679 30.8367 184.218 30.8367 182.428C30.8367 180.622 32.2497 179.177 34.0082 179.177C35.7666 179.177 37.1797 180.622 37.1797 182.428Z" stroke="#5A5A5A" stroke-width="0.5"/>
<path d="M37.1493 192.054C37.1336 193.844 35.7205 195.304 33.9778 195.304C32.2193 195.304 30.8063 193.844 30.8063 192.054C30.8063 190.248 32.2193 188.803 33.9778 188.803C35.7362 188.787 37.165 190.248 37.1493 192.054Z" stroke="#5A5A5A" stroke-width="0.5"/>
<path d="M28.1357 192.054C28.1357 193.86 26.7227 195.304 24.9642 195.304C23.2058 195.304 21.7927 193.844 21.7927 192.054C21.8084 190.263 23.2215 188.803 24.9642 188.803C26.707 188.803 28.1357 190.263 28.1357 192.054Z" stroke="#5A5A5A" stroke-width="0.5"/>
<path d="M28.1357 182.428C28.1357 184.234 26.7227 185.679 24.9642 185.679C23.2058 185.679 21.7927 184.218 21.7927 182.428C21.8084 180.638 23.2215 179.177 24.9642 179.177C26.707 179.177 28.1357 180.638 28.1357 182.428Z" stroke="#5A5A5A" stroke-width="0.5"/>
<path d="M65.6992 132.015L65.6992 156.104L42.0002 156.104L42.0002 132L65.6992 132.015Z" fill="white" stroke="#5A5A5A" stroke-width="0.5"/>
<path d="M63.8965 138.621L63.8965 151.938C63.8965 152.68 63.5328 153.044 62.7752 153.044L45.1676 153.044C44.4402 153.044 44.0614 152.68 44.0463 151.953L44.0614 138.621C44.0463 137.894 44.4251 137.53 45.1676 137.53L62.7752 137.53C63.5177 137.5 63.8965 137.879 63.8965 138.621Z" fill="white" stroke="#5A5A5A" stroke-width="0.5"/>
<path d="M53.9709 133.864C53.0466 133.879 52.3041 134.576 52.3041 135.454L52.9556 142.438L52.9708 142.454C52.9708 142.984 53.4102 143.408 53.9709 143.408C54.5315 143.408 54.971 142.984 54.9861 142.438L55.6377 135.454C55.6377 134.591 54.8952 133.879 53.9709 133.864Z" stroke="#5A5A5A" stroke-width="0.5"/>
<mask id="path-56-inside-1_69_1166" fill="white">
<path fill-rule="evenodd" clip-rule="evenodd" d="M52.5918 134.546L52.9555 138.349C52.9706 138.879 53.41 139.318 53.9859 139.303C54.5465 139.303 54.9708 138.879 54.9859 138.349L55.3496 134.546"/>
</mask>
<path fill-rule="evenodd" clip-rule="evenodd" d="M52.5918 134.546L52.9555 138.349C52.9706 138.879 53.41 139.318 53.9859 139.303C54.5465 139.303 54.9708 138.879 54.9859 138.349L55.3496 134.546" fill="white"/>
<path d="M52.9555 138.349L53.4553 138.335L53.4548 138.318L53.4532 138.301L52.9555 138.349ZM53.9859 139.303L53.9859 138.803L53.9727 138.803L53.9859 139.303ZM54.9859 138.349L54.4882 138.301L54.4866 138.318L54.4861 138.335L54.9859 138.349ZM52.0941 134.594L52.4577 138.396L53.4532 138.301L53.0895 134.499L52.0941 134.594ZM52.4557 138.363C52.4787 139.168 53.1467 139.825 53.999 139.803L53.9727 138.803C53.6733 138.811 53.4626 138.59 53.4553 138.335L52.4557 138.363ZM53.9859 139.803C54.8152 139.803 55.4628 139.166 55.4857 138.363L54.4861 138.335C54.4788 138.592 54.2778 138.803 53.9859 138.803L53.9859 139.803ZM55.4837 138.396L55.8473 134.594L54.8519 134.499L54.4882 138.301L55.4837 138.396Z" fill="#5A5A5A" mask="url(#path-56-inside-1_69_1166)"/>
<path d="M303.75 116.25L262.709 116.275L262.697 117.75L303.75 117.75L303.75 116.25Z" stroke="#5A5A5A" stroke-width="0.5" stroke-miterlimit="10"/>
<path d="M235.306 116.25L194.265 116.275L194.252 117.75L235.306 117.75L235.306 116.25Z" stroke="#5A5A5A" stroke-width="0.5" stroke-miterlimit="10"/>
<path d="M269.528 114.25L228.488 114.275L228.475 115.75L269.528 115.75L269.528 114.25Z" stroke="#5A5A5A" stroke-width="0.5" stroke-miterlimit="10"/>
<rect width="2" height="11" transform="matrix(1 0 0 -1 104 228)" fill="#5A5A5A"/>
<rect width="2" height="11" transform="matrix(1 0 0 -1 104 211)" fill="#5A5A5A"/>
<rect width="2" height="11" transform="matrix(1 0 0 -1 104 194)" fill="#5A5A5A"/>
<rect width="2" height="11" transform="matrix(1 0 0 -1 104 177)" fill="#5A5A5A"/>
<rect width="2" height="11" transform="matrix(1 0 0 -1 104 157)" fill="#5A5A5A"/>
<rect width="2" height="11" transform="matrix(1 0 0 -1 104 142)" fill="#5A5A5A"/>
<rect width="2" height="11" transform="matrix(-4.37114e-08 1 1 4.37114e-08 9 231)" fill="#5A5A5A"/>
<rect width="2" height="11" transform="matrix(-4.37114e-08 1 1 4.37114e-08 26 231)" fill="#5A5A5A"/>
<rect width="2" height="11" transform="matrix(-4.37114e-08 1 1 4.37114e-08 43 231)" fill="#5A5A5A"/>
<rect width="2" height="11" transform="matrix(-4.37114e-08 1 1 4.37114e-08 60 231)" fill="#5A5A5A"/>
<rect width="2" height="11" transform="matrix(-4.37114e-08 1 1 4.37114e-08 80 231)" fill="#5A5A5A"/>
<rect width="2" height="11" transform="matrix(-4.37114e-08 1 1 4.37114e-08 95 231)" fill="#5A5A5A"/>
<path d="M55.49 211.78C55.49 211.332 55.588 210.865 55.784 210.38C55.9893 209.885 56.1853 209.498 56.372 209.218C56.568 208.929 56.834 208.569 57.17 208.14L59.41 205.2H61.3L59.186 207.958L58.57 208.49V208.56L58.85 208.462C59.13 208.387 59.4333 208.35 59.76 208.35C60.6747 208.35 61.4493 208.681 62.084 209.344C62.728 209.997 63.05 210.809 63.05 211.78C63.05 212.769 62.6953 213.6 61.986 214.272C61.2767 214.944 60.3713 215.28 59.27 215.28C58.1687 215.28 57.2633 214.944 56.554 214.272C55.8447 213.6 55.49 212.769 55.49 211.78ZM57.744 210.324C57.3613 210.697 57.17 211.183 57.17 211.78C57.17 212.377 57.3613 212.867 57.744 213.25C58.1267 213.623 58.6353 213.81 59.27 213.81C59.9047 213.81 60.4133 213.623 60.796 213.25C61.1787 212.867 61.37 212.377 61.37 211.78C61.37 211.183 61.1787 210.697 60.796 210.324C60.4133 209.941 59.9047 209.75 59.27 209.75C58.6353 209.75 58.1267 209.941 57.744 210.324ZM64.1733 214.23C64.1733 213.95 64.2619 213.717 64.4393 213.53C64.6259 213.343 64.8546 213.25 65.1253 213.25C65.4333 213.25 65.6759 213.362 65.8533 213.586C66.0399 213.81 66.1333 214.141 66.1333 214.58C66.1333 215.299 65.9606 215.849 65.6153 216.232C65.2793 216.624 64.8219 216.82 64.2433 216.82V216.12C64.5233 216.12 64.7426 216.041 64.9013 215.882C65.0693 215.733 65.1533 215.532 65.1533 215.28V215.196C65.1439 215.187 65.1393 215.168 65.1393 215.14V215.098L65.0553 215.126C65.0273 215.135 64.9666 215.14 64.8733 215.14C64.6866 215.14 64.5233 215.056 64.3833 214.888C64.2433 214.72 64.1733 214.501 64.1733 214.23ZM68.6495 213.824C67.7628 212.853 67.3195 211.612 67.3195 210.1C67.3195 208.588 67.7628 207.347 68.6495 206.376C69.5361 205.405 70.6095 204.92 71.8695 204.92C73.1295 204.92 74.2028 205.405 75.0895 206.376C75.9761 207.347 76.4195 208.588 76.4195 210.1C76.4195 211.612 75.9761 212.853 75.0895 213.824C74.2028 214.795 73.1295 215.28 71.8695 215.28C70.6095 215.28 69.5361 214.795 68.6495 213.824ZM69.7975 207.412C69.2655 208.047 68.9995 208.943 68.9995 210.1C68.9995 211.257 69.2655 212.153 69.7975 212.788C70.3388 213.423 71.0295 213.74 71.8695 213.74C72.7095 213.74 73.3955 213.423 73.9275 212.788C74.4688 212.153 74.7395 211.257 74.7395 210.1C74.7395 208.943 74.4688 208.047 73.9275 207.412C73.3955 206.777 72.7095 206.46 71.8695 206.46C71.0295 206.46 70.3388 206.777 69.7975 207.412ZM79.0127 213.824C78.1261 212.853 77.6827 211.612 77.6827 210.1C77.6827 208.588 78.1261 207.347 79.0127 206.376C79.8994 205.405 80.9727 204.92 82.2327 204.92C83.4927 204.92 84.5661 205.405 85.4527 206.376C86.3394 207.347 86.7827 208.588 86.7827 210.1C86.7827 211.612 86.3394 212.853 85.4527 213.824C84.5661 214.795 83.4927 215.28 82.2327 215.28C80.9727 215.28 79.8994 214.795 79.0127 213.824ZM80.1607 207.412C79.6287 208.047 79.3627 208.943 79.3627 210.1C79.3627 211.257 79.6287 212.153 80.1607 212.788C80.7021 213.423 81.3927 213.74 82.2327 213.74C83.0727 213.74 83.7587 213.423 84.2907 212.788C84.8321 212.153 85.1027 211.257 85.1027 210.1C85.1027 208.943 84.8321 208.047 84.2907 207.412C83.7587 206.777 83.0727 206.46 82.2327 206.46C81.3927 206.46 80.7021 206.777 80.1607 207.412Z" fill="#333333"/>
<path d="M132.42 278.2H134.1C134.165 278.489 134.291 278.746 134.478 278.97C134.898 279.483 135.495 279.74 136.27 279.74C136.914 279.74 137.423 279.581 137.796 279.264C138.179 278.937 138.37 278.536 138.37 278.06C138.37 277.519 138.197 277.094 137.852 276.786C137.516 276.469 137.035 276.31 136.41 276.31H134.03V274.91L136.97 272.81V272.74H132.91V271.2H139.35V272.726L136.83 274.56L136.13 274.84V274.91L136.354 274.882C136.662 274.854 136.844 274.84 136.9 274.84C137.777 274.84 138.51 275.143 139.098 275.75C139.686 276.357 139.98 277.127 139.98 278.06C139.98 278.956 139.635 279.717 138.944 280.342C138.253 280.967 137.362 281.28 136.27 281.28C134.823 281.28 133.755 280.767 133.064 279.74C132.765 279.301 132.551 278.788 132.42 278.2ZM142.437 279.824C141.55 278.853 141.107 277.612 141.107 276.1C141.107 274.588 141.55 273.347 142.437 272.376C143.323 271.405 144.397 270.92 145.657 270.92C146.917 270.92 147.99 271.405 148.877 272.376C149.763 273.347 150.207 274.588 150.207 276.1C150.207 277.612 149.763 278.853 148.877 279.824C147.99 280.795 146.917 281.28 145.657 281.28C144.397 281.28 143.323 280.795 142.437 279.824ZM143.585 273.412C143.053 274.047 142.787 274.943 142.787 276.1C142.787 277.257 143.053 278.153 143.585 278.788C144.126 279.423 144.817 279.74 145.657 279.74C146.497 279.74 147.183 279.423 147.715 278.788C148.256 278.153 148.527 277.257 148.527 276.1C148.527 274.943 148.256 274.047 147.715 273.412C147.183 272.777 146.497 272.46 145.657 272.46C144.817 272.46 144.126 272.777 143.585 273.412ZM151.4 280.23C151.4 279.95 151.489 279.717 151.666 279.53C151.853 279.343 152.081 279.25 152.352 279.25C152.66 279.25 152.903 279.362 153.08 279.586C153.267 279.81 153.36 280.141 153.36 280.58C153.36 281.299 153.187 281.849 152.842 282.232C152.506 282.624 152.049 282.82 151.47 282.82V282.12C151.75 282.12 151.969 282.041 152.128 281.882C152.296 281.733 152.38 281.532 152.38 281.28V281.196C152.371 281.187 152.366 281.168 152.366 281.14V281.098L152.282 281.126C152.254 281.135 152.193 281.14 152.1 281.14C151.913 281.14 151.75 281.056 151.61 280.888C151.47 280.72 151.4 280.501 151.4 280.23ZM154.476 274.42C154.476 273.431 154.831 272.6 155.54 271.928C156.249 271.256 157.155 270.92 158.256 270.92C159.357 270.92 160.263 271.256 160.972 271.928C161.681 272.6 162.036 273.431 162.036 274.42C162.036 275.307 161.667 276.263 160.93 277.29C160.855 277.393 160.753 277.533 160.622 277.71C160.491 277.878 160.403 277.995 160.356 278.06L158.116 281H156.226L158.34 278.242L158.956 277.71V277.64C158.937 277.649 158.844 277.687 158.676 277.752C158.433 277.817 158.13 277.85 157.766 277.85C156.851 277.85 156.072 277.523 155.428 276.87C154.793 276.207 154.476 275.391 154.476 274.42ZM156.73 272.964C156.347 273.337 156.156 273.823 156.156 274.42C156.156 275.017 156.347 275.507 156.73 275.89C157.113 276.263 157.621 276.45 158.256 276.45C158.891 276.45 159.399 276.263 159.782 275.89C160.165 275.507 160.356 275.017 160.356 274.42C160.356 273.823 160.165 273.337 159.782 272.964C159.399 272.581 158.891 272.39 158.256 272.39C157.621 272.39 157.113 272.581 156.73 272.964ZM164.489 279.824C163.603 278.853 163.159 277.612 163.159 276.1C163.159 274.588 163.603 273.347 164.489 272.376C165.376 271.405 166.449 270.92 167.709 270.92C168.969 270.92 170.043 271.405 170.929 272.376C171.816 273.347 172.259 274.588 172.259 276.1C172.259 277.612 171.816 278.853 170.929 279.824C170.043 280.795 168.969 281.28 167.709 281.28C166.449 281.28 165.376 280.795 164.489 279.824ZM165.637 273.412C165.105 274.047 164.839 274.943 164.839 276.1C164.839 277.257 165.105 278.153 165.637 278.788C166.179 279.423 166.869 279.74 167.709 279.74C168.549 279.74 169.235 279.423 169.767 278.788C170.309 278.153 170.579 277.257 170.579 276.1C170.579 274.943 170.309 274.047 169.767 273.412C169.235 272.777 168.549 272.46 167.709 272.46C166.869 272.46 166.179 272.777 165.637 273.412Z" fill="#333333"/>
<path d="M239.42 369.2H241.1C241.165 369.489 241.291 369.746 241.478 369.97C241.898 370.483 242.495 370.74 243.27 370.74C243.914 370.74 244.423 370.581 244.796 370.264C245.179 369.937 245.37 369.536 245.37 369.06C245.37 368.519 245.197 368.094 244.852 367.786C244.516 367.469 244.035 367.31 243.41 367.31H241.03V365.91L243.97 363.81V363.74H239.91V362.2H246.35V363.726L243.83 365.56L243.13 365.84V365.91L243.354 365.882C243.662 365.854 243.844 365.84 243.9 365.84C244.777 365.84 245.51 366.143 246.098 366.75C246.686 367.357 246.98 368.127 246.98 369.06C246.98 369.956 246.635 370.717 245.944 371.342C245.253 371.967 244.362 372.28 243.27 372.28C241.823 372.28 240.755 371.767 240.064 370.74C239.765 370.301 239.551 369.788 239.42 369.2ZM248.037 371.23C248.037 370.95 248.125 370.717 248.303 370.53C248.489 370.343 248.718 370.25 248.989 370.25C249.297 370.25 249.539 370.362 249.717 370.586C249.903 370.81 249.997 371.141 249.997 371.58C249.997 372.299 249.824 372.849 249.479 373.232C249.143 373.624 248.685 373.82 248.107 373.82V373.12C248.387 373.12 248.606 373.041 248.765 372.882C248.933 372.733 249.017 372.532 249.017 372.28V372.196C249.007 372.187 249.003 372.168 249.003 372.14V372.098L248.919 372.126C248.891 372.135 248.83 372.14 248.737 372.14C248.55 372.14 248.387 372.056 248.247 371.888C248.107 371.72 248.037 371.501 248.037 371.23ZM251.043 368.78C251.043 368.332 251.141 367.865 251.337 367.38C251.542 366.885 251.738 366.498 251.925 366.218C252.121 365.929 252.387 365.569 252.723 365.14L254.963 362.2H256.853L254.739 364.958L254.123 365.49V365.56L254.403 365.462C254.683 365.387 254.986 365.35 255.313 365.35C256.227 365.35 257.002 365.681 257.637 366.344C258.281 366.997 258.603 367.809 258.603 368.78C258.603 369.769 258.248 370.6 257.539 371.272C256.829 371.944 255.924 372.28 254.823 372.28C253.721 372.28 252.816 371.944 252.107 371.272C251.397 370.6 251.043 369.769 251.043 368.78ZM253.297 367.324C252.914 367.697 252.723 368.183 252.723 368.78C252.723 369.377 252.914 369.867 253.297 370.25C253.679 370.623 254.188 370.81 254.823 370.81C255.457 370.81 255.966 370.623 256.349 370.25C256.731 369.867 256.923 369.377 256.923 368.78C256.923 368.183 256.731 367.697 256.349 367.324C255.966 366.941 255.457 366.75 254.823 366.75C254.188 366.75 253.679 366.941 253.297 367.324ZM259.656 368.78C259.656 368.332 259.754 367.865 259.95 367.38C260.155 366.885 260.351 366.498 260.538 366.218C260.734 365.929 261 365.569 261.336 365.14L263.576 362.2H265.466L263.352 364.958L262.736 365.49V365.56L263.016 365.462C263.296 365.387 263.599 365.35 263.926 365.35C264.841 365.35 265.615 365.681 266.25 366.344C266.894 366.997 267.216 367.809 267.216 368.78C267.216 369.769 266.861 370.6 266.152 371.272C265.443 371.944 264.537 372.28 263.436 372.28C262.335 372.28 261.429 371.944 260.72 371.272C260.011 370.6 259.656 369.769 259.656 368.78ZM261.91 367.324C261.527 367.697 261.336 368.183 261.336 368.78C261.336 369.377 261.527 369.867 261.91 370.25C262.293 370.623 262.801 370.81 263.436 370.81C264.071 370.81 264.579 370.623 264.962 370.25C265.345 369.867 265.536 369.377 265.536 368.78C265.536 368.183 265.345 367.697 264.962 367.324C264.579 366.941 264.071 366.75 263.436 366.75C262.801 366.75 262.293 366.941 261.91 367.324Z" fill="#333333"/>
<path d="M55.56 69.27H57.24C57.3147 69.5593 57.4407 69.8067 57.618 70.012C58.0287 70.4973 58.626 70.74 59.41 70.74C60.0353 70.74 60.53 70.572 60.894 70.236C61.258 69.9 61.44 69.4613 61.44 68.92C61.44 68.3507 61.258 67.8933 60.894 67.548C60.53 67.2027 60.0353 67.03 59.41 67.03C58.8313 67.03 58.3413 67.184 57.94 67.492C57.7813 67.6133 57.6413 67.7627 57.52 67.94H55.98L56.4 62.2H62.35V63.74H57.73L57.52 66.26H57.59C57.7393 66.1107 57.912 65.9847 58.108 65.882C58.5467 65.6207 59.074 65.49 59.69 65.49C60.67 65.49 61.4867 65.8167 62.14 66.47C62.7933 67.1233 63.12 67.94 63.12 68.92C63.12 69.8813 62.7747 70.684 62.084 71.328C61.4027 71.9627 60.5113 72.28 59.41 72.28C57.9727 72.28 56.904 71.7807 56.204 70.782C55.9053 70.3433 55.6907 69.8393 55.56 69.27ZM64.1733 71.23C64.1733 70.95 64.2619 70.7167 64.4393 70.53C64.6259 70.3433 64.8546 70.25 65.1253 70.25C65.4333 70.25 65.6759 70.362 65.8533 70.586C66.0399 70.81 66.1333 71.1413 66.1333 71.58C66.1333 72.2987 65.9606 72.8493 65.6153 73.232C65.2793 73.624 64.8219 73.82 64.2433 73.82V73.12C64.5233 73.12 64.7426 73.0407 64.9013 72.882C65.0693 72.7327 65.1533 72.532 65.1533 72.28V72.196C65.1439 72.1867 65.1393 72.168 65.1393 72.14V72.098L65.0553 72.126C65.0273 72.1353 64.9666 72.14 64.8733 72.14C64.6866 72.14 64.5233 72.056 64.3833 71.888C64.2433 71.72 64.1733 71.5007 64.1733 71.23ZM66.8995 70.04V68.5L70.1895 62.2H71.9395L68.6495 68.5H71.8695V66.12H71.9395H73.4795V68.5H74.8795V70.04H73.4795V72H71.8695V70.04H66.8995ZM75.2989 72V70.46L78.6449 68.094C79.3729 67.5713 79.8956 67.086 80.2129 66.638C80.5302 66.19 80.6889 65.714 80.6889 65.21C80.6889 64.678 80.5256 64.2533 80.1989 63.936C79.8722 63.6187 79.4289 63.46 78.8689 63.46C78.1782 63.46 77.6602 63.74 77.3149 64.3C77.1656 64.5427 77.0536 64.8227 76.9789 65.14H75.2989C75.3829 64.5427 75.5649 64.006 75.8449 63.53C76.5076 62.4567 77.5156 61.92 78.8689 61.92C79.9049 61.92 80.7449 62.228 81.3889 62.844C82.0422 63.4507 82.3689 64.216 82.3689 65.14C82.3689 65.9427 82.1636 66.666 81.7529 67.31C81.3422 67.9447 80.6842 68.5747 79.7789 69.2L78.3789 70.18L77.7489 70.46V70.53L78.5889 70.46H82.3689V72H75.2989Z" fill="#333333"/>
<path d="M189.14 80.74V79.2H195.79V80.74L191.87 89H190.12L193.97 80.88V80.74H189.14ZM195.234 88.23C195.234 87.95 195.322 87.7167 195.5 87.53C195.686 87.3433 195.915 87.25 196.186 87.25C196.494 87.25 196.736 87.362 196.914 87.586C197.1 87.81 197.194 88.1413 197.194 88.58C197.194 89.2987 197.021 89.8493 196.676 90.232C196.34 90.624 195.882 90.82 195.304 90.82V90.12C195.584 90.12 195.803 90.0407 195.962 89.882C196.13 89.7327 196.214 89.532 196.214 89.28V89.196C196.204 89.1867 196.2 89.168 196.2 89.14V89.098L196.116 89.126C196.088 89.1353 196.027 89.14 195.934 89.14C195.747 89.14 195.584 89.056 195.444 88.888C195.304 88.72 195.234 88.5007 195.234 88.23ZM198.1 82.42V80.6L199.92 79.2H201.39V89H199.78V81.16L198.1 82.42ZM202.791 86.2H204.471C204.536 86.4893 204.662 86.746 204.849 86.97C205.269 87.4833 205.866 87.74 206.641 87.74C207.285 87.74 207.794 87.5813 208.167 87.264C208.55 86.9373 208.741 86.536 208.741 86.06C208.741 85.5187 208.568 85.094 208.223 84.786C207.887 84.4687 207.406 84.31 206.781 84.31H204.401V82.91L207.341 80.81V80.74H203.281V79.2H209.721V80.726L207.201 82.56L206.501 82.84V82.91L206.725 82.882C207.033 82.854 207.215 82.84 207.271 82.84C208.148 82.84 208.881 83.1433 209.469 83.75C210.057 84.3567 210.351 85.1267 210.351 86.06C210.351 86.956 210.006 87.7167 209.315 88.342C208.624 88.9673 207.733 89.28 206.641 89.28C205.194 89.28 204.126 88.7667 203.435 87.74C203.136 87.3013 202.922 86.788 202.791 86.2Z" fill="#333333"/>
<circle cx="208.5" cy="205.5" r="39.5" fill="#5A5A5A"/>
<path d="M188.72 209.49H190.88C190.976 209.862 191.138 210.18 191.366 210.444C191.894 211.068 192.662 211.38 193.67 211.38C194.474 211.38 195.11 211.164 195.578 210.732C196.046 210.3 196.28 209.736 196.28 209.04C196.28 208.308 196.046 207.72 195.578 207.276C195.11 206.832 194.474 206.61 193.67 206.61C192.926 206.61 192.296 206.808 191.78 207.204C191.576 207.36 191.396 207.552 191.24 207.78H189.26L189.8 200.4H197.45V202.38H191.51L191.24 205.62H191.33C191.522 205.428 191.744 205.266 191.996 205.134C192.56 204.798 193.238 204.63 194.03 204.63C195.29 204.63 196.34 205.05 197.18 205.89C198.02 206.73 198.44 207.78 198.44 209.04C198.44 210.276 197.996 211.308 197.108 212.136C196.232 212.952 195.086 213.36 193.67 213.36C191.822 213.36 190.448 212.718 189.548 211.434C189.164 210.87 188.888 210.222 188.72 209.49ZM199.524 204.54V202.2L201.864 200.4H203.754V213H201.684V202.92L199.524 204.54ZM205.736 212.01C205.736 211.65 205.85 211.35 206.078 211.11C206.318 210.87 206.612 210.75 206.96 210.75C207.356 210.75 207.668 210.894 207.896 211.182C208.136 211.47 208.256 211.896 208.256 212.46C208.256 213.384 208.034 214.092 207.59 214.584C207.158 215.088 206.57 215.34 205.826 215.34V214.44C206.186 214.44 206.468 214.338 206.672 214.134C206.888 213.942 206.996 213.684 206.996 213.36V213.252C206.984 213.24 206.978 213.216 206.978 213.18V213.126L206.87 213.162C206.834 213.174 206.756 213.18 206.636 213.18C206.396 213.18 206.186 213.072 206.006 212.856C205.826 212.64 205.736 212.358 205.736 212.01ZM209.601 208.86C209.601 208.284 209.727 207.684 209.979 207.06C210.243 206.424 210.495 205.926 210.735 205.566C210.987 205.194 211.329 204.732 211.761 204.18L214.641 200.4H217.071L214.353 203.946L213.561 204.63V204.72L213.921 204.594C214.281 204.498 214.671 204.45 215.091 204.45C216.267 204.45 217.263 204.876 218.079 205.728C218.907 206.568 219.321 207.612 219.321 208.86C219.321 210.132 218.865 211.2 217.953 212.064C217.041 212.928 215.877 213.36 214.461 213.36C213.045 213.36 211.881 212.928 210.969 212.064C210.057 211.2 209.601 210.132 209.601 208.86ZM212.499 206.988C212.007 207.468 211.761 208.092 211.761 208.86C211.761 209.628 212.007 210.258 212.499 210.75C212.991 211.23 213.645 211.47 214.461 211.47C215.277 211.47 215.931 211.23 216.423 210.75C216.915 210.258 217.161 209.628 217.161 208.86C217.161 208.092 216.915 207.468 216.423 206.988C215.931 206.496 215.277 206.25 214.461 206.25C213.645 206.25 212.991 206.496 212.499 206.988ZM220.495 204.54V202.2L222.835 200.4H224.725V213H222.655V202.92L220.495 204.54Z" fill="white"/>
</svg>
