<svg width="281" height="397" viewBox="0 0 281 397" fill="none" xmlns="http://www.w3.org/2000/svg">
<rect width="30" height="43" transform="matrix(4.37114e-08 1 1 -4.37114e-08 1 312)" fill="#5A5A5A"/>
<rect width="258" height="249" transform="matrix(4.37114e-08 1 1 -4.37114e-08 16 54)" fill="#E7FFD5"/>
<rect width="46" height="82" transform="matrix(4.37114e-08 1 1 -4.37114e-08 13 8)" fill="#E7FFD5"/>
<rect width="103" height="82" transform="matrix(4.37114e-08 1 1 -4.37114e-08 11 13)" fill="#FDFF9F"/>
<rect width="30" height="83" transform="matrix(4.37114e-08 1 1 -4.37114e-08 106 312)" fill="#5A5A5A"/>
<rect width="16" height="341" transform="matrix(-1 0 0 1 16 0)" fill="#5A5A5A"/>
<rect width="16" height="304" transform="matrix(-1 0 0 1 281 38)" fill="#5A5A5A"/>
<rect width="16" height="109" transform="matrix(1.19249e-08 -1 -1 -1.19249e-08 109 16)" fill="#5A5A5A"/>
<rect width="16" height="109" transform="matrix(1.19249e-08 -1 -1 -1.19249e-08 109 132)" fill="#5A5A5A"/>
<rect width="16" height="21" transform="matrix(1.19249e-08 -1 -1 -1.19249e-08 165 132)" fill="#5A5A5A"/>
<rect width="16" height="103" transform="matrix(1.19249e-08 -1 -1 -1.19249e-08 196 54)" fill="#5A5A5A"/>
<rect width="16" height="54" transform="matrix(1 0 0 -1 93 54)" fill="#5A5A5A"/>
<rect width="16" height="46" transform="matrix(-1 8.74228e-08 8.74228e-08 1 196 8)" fill="#5A5A5A"/>
<rect width="16" height="29" transform="matrix(1.19249e-08 -1 -1 -1.19249e-08 281 54)" fill="#5A5A5A"/>
<rect width="16" height="46" transform="matrix(-4.37114e-08 1 1 4.37114e-08 165 38)" fill="#5A5A5A"/>
<rect width="8" height="46" transform="matrix(1 0 0 -1 93 131)" fill="#5A5A5A"/>
<rect width="8" height="24" transform="matrix(-4.37114e-08 1 1 4.37114e-08 158 116)" fill="#5A5A5A"/>
<rect width="8" height="24" transform="matrix(-4.37114e-08 1 1 4.37114e-08 250 116)" fill="#5A5A5A"/>
<line x1="260.764" y1="42.4409" x2="217.764" y2="19.4409" stroke="#5A5A5A"/>
<line x1="112.575" y1="82.2637" x2="94.5752" y2="53.2637" stroke="#5A5A5A"/>
<line x1="108.741" y1="117.573" x2="136.741" y2="100.573" stroke="#5A5A5A"/>
<path d="M110.25 312.25L272.685 312.402L272.749 323.75L110.25 323.75L110.25 312.25Z" stroke="#5A5A5A" stroke-width="0.5" stroke-miterlimit="10"/>
<path d="M110.25 330.25L272.685 330.402L272.749 341.75L110.25 341.75L110.25 330.25Z" stroke="#5A5A5A" stroke-width="0.5" stroke-miterlimit="10"/>
<path d="M114.75 396.75L33.282 396.687L33.2517 392.25L114.75 392.25L114.75 396.75Z" stroke="#5A5A5A" stroke-width="0.5" stroke-miterlimit="10"/>
<rect width="5.00001" height="71" transform="matrix(1 -8.74228e-08 -8.74228e-08 -1 125 397)" fill="#5A5A5A"/>
<rect width="5.00001" height="71" transform="matrix(1 -8.74228e-08 -8.74228e-08 -1 22 397)" fill="#5A5A5A"/>
<rect width="5" height="8" transform="matrix(-1.31134e-07 -1 -1 1.31134e-07 34 397)" fill="#5A5A5A"/>
<rect width="5" height="12" transform="matrix(-1.31134e-07 -1 -1 1.31134e-07 126 397)" fill="#5A5A5A"/>
<path d="M132.75 327.25L72.2738 327.313L72.2513 331.75L132.75 331.75L132.75 327.25Z" stroke="#5A5A5A" stroke-width="0.5" stroke-miterlimit="10"/>
<path d="M132.75 337.25L72.2738 337.313L72.2513 341.75L132.75 341.75L132.75 337.25Z" stroke="#5A5A5A" stroke-width="0.5" stroke-miterlimit="10"/>
<line x1="38.7489" y1="328.568" x2="69.7489" y2="310.568" stroke="#5A5A5A"/>
<path d="M72.7197 96.4762L72.7361 97.6567L72.7197 100.723V108.314H82.677V96.4762C82.677 93.4594 80.4333 91 77.682 91C74.9634 91 72.7197 93.4594 72.7197 96.4762Z" fill="white" stroke="#5A5A5A" stroke-width="0.5"/>
<path d="M73.8662 96.5418V97.4764V105.035H81.547V97.4764L81.5307 96.5418C81.5307 94.1644 79.8274 92.2297 77.6984 92.2297C75.5858 92.2461 73.8662 94.1808 73.8662 96.5418Z" fill="white" stroke="#5A5A5A" stroke-width="0.5"/>
<path d="M84.4784 114.676V109.412C84.4784 108.806 83.9871 108.314 83.3811 108.314H72.0973C71.4913 108.314 71 108.806 71 109.412V114.676C71 115.282 71.4913 115.774 72.0973 115.774H83.3647C83.9871 115.774 84.4784 115.282 84.4784 114.676Z" fill="white" stroke="#5A5A5A" stroke-width="0.5"/>
<path d="M78.3865 112.052C78.3865 111.642 78.0918 111.331 77.7478 111.331C77.3876 111.315 77.0928 111.642 77.0928 112.052C77.0928 112.462 77.3876 112.774 77.7315 112.774C78.1081 112.757 78.4029 112.446 78.3865 112.052Z" fill="white" stroke="#5A5A5A" stroke-width="0.5"/>
<path d="M45.0002 102.54L45.0002 114.848C45.0002 115.704 45.684 116.389 46.5388 116.389L65.0582 116.389C65.9129 116.389 66.5967 115.704 66.5967 114.848L66.5967 102.54C66.5967 101.685 65.9129 101 65.0582 101L46.5388 101C45.6983 101 45.0002 101.685 45.0002 102.54Z" fill="white" stroke="#5A5A5A" stroke-width="0.5"/>
<path d="M46.9237 107.232L46.9237 109.129C46.9237 111.625 48.9466 113.65 51.4396 113.65L60.158 113.65C62.651 113.65 64.6738 111.625 64.6738 109.129L64.6738 107.232C64.6738 104.737 62.651 102.711 60.158 102.711L51.4396 102.711C48.9466 102.711 46.9237 104.737 46.9237 107.232Z" fill="white" stroke="#5A5A5A" stroke-width="0.5"/>
<path d="M54.8441 105.122C54.8441 105.665 55.2714 106.106 55.7985 106.106C56.3256 106.106 56.7529 105.665 56.7529 105.122C56.7529 104.578 56.3256 104.138 55.7985 104.138C55.2714 104.138 54.8441 104.578 54.8441 105.122Z" fill="white" stroke="#5A5A5A" stroke-width="0.5"/>
<path d="M16.0002 114.507L16.0002 54.3859C16.0002 53.616 16.6154 53.0001 17.3844 53.0001L41.2515 53.0001C42.0205 53.0001 42.6357 53.616 42.6357 54.3859L42.6357 114.507C42.6357 115.276 42.0205 115.892 41.2515 115.892L17.3845 115.892C16.6155 115.892 16.0002 115.262 16.0002 114.507Z" fill="white" stroke="#5A5A5A" stroke-width="0.5"/>
<path d="M26.0815 56.6958L32.5691 56.6958C36.3302 56.6958 39.3643 59.7473 39.3643 63.4987L39.3643 110.839C39.3643 111.763 38.6232 112.505 37.7004 112.505L20.9222 112.505C19.9994 112.505 19.2583 111.763 19.2583 110.839L19.2583 63.5127C19.2723 59.7473 22.3204 56.6958 26.0815 56.6958Z" fill="white" stroke="#5A5A5A" stroke-width="0.5"/>
<path d="M28.8499 106.892C28.1009 106.892 27.4937 107.525 27.4937 108.306C27.4937 109.086 28.1009 109.719 28.8499 109.719C29.5989 109.719 30.2061 109.086 30.2061 108.306C30.2061 107.525 29.5989 106.892 28.8499 106.892Z" fill="white" stroke="#5A5A5A" stroke-width="0.5"/>
<path d="M37.5875 38.0237L37.5875 16.014L16 16L16.014 38.0097L37.5875 38.0237Z" fill="white" stroke="#5A5A5A" stroke-width="0.5"/>
<path d="M21.2568 27.0048C21.2568 23.8905 23.7316 21.3767 26.7935 21.3767C29.8555 21.3767 32.3302 23.8905 32.3302 27.0188C32.3302 30.1331 29.8555 32.6748 26.7935 32.6748C23.7316 32.6609 21.2568 30.1192 21.2568 27.0048Z" stroke="#5A5A5A" stroke-width="0.5"/>
<path d="M26.7939 31.1247C25.6754 31.1387 24.6687 30.6778 23.9417 29.9237C23.2146 29.1695 22.7672 28.1361 22.7533 27.0188M26.7799 22.885C25.6754 22.885 24.6687 23.3459 23.9277 24.086C23.2006 24.8402 22.7393 25.8597 22.7393 27.0049L26.7799 22.885ZM26.7939 31.1247C27.8984 31.1247 28.9051 30.6638 29.6461 29.9237C30.3732 29.1695 30.8206 28.1361 30.8206 27.0049L26.7939 31.1247ZM26.7799 22.885C27.9124 22.885 28.9191 23.3459 29.6322 24.086L29.6461 24.1C30.3592 24.8402 30.8206 25.8597 30.8206 26.9909L26.7799 22.885Z" stroke="#5A5A5A" stroke-width="0.5"/>
<path d="M15.9998 175L40.9951 175L40.9951 199.325L15.9998 199.325L15.9998 175Z" fill="white" stroke="#5A5A5A" stroke-width="0.5"/>
<path d="M38.9687 175.927L19.5157 175.927C18.7778 175.927 18.3853 176.319 18.3853 177.089L18.3853 197.236C18.3853 198.021 18.7621 198.398 19.5157 198.398L38.9687 198.398C39.7223 198.414 40.0992 198.021 40.0992 197.252L40.0992 177.104C40.1149 176.319 39.7223 175.927 38.9687 175.927Z" fill="white" stroke="#5A5A5A" stroke-width="0.5"/>
<path d="M37.1797 182.428C37.164 184.218 35.7509 185.679 34.0082 185.679C32.2497 185.679 30.8367 184.218 30.8367 182.428C30.8367 180.622 32.2497 179.177 34.0082 179.177C35.7666 179.177 37.1797 180.622 37.1797 182.428Z" stroke="#5A5A5A" stroke-width="0.5"/>
<path d="M37.1493 192.054C37.1336 193.844 35.7205 195.304 33.9778 195.304C32.2193 195.304 30.8063 193.844 30.8063 192.054C30.8063 190.248 32.2193 188.803 33.9778 188.803C35.7362 188.787 37.165 190.248 37.1493 192.054Z" stroke="#5A5A5A" stroke-width="0.5"/>
<path d="M28.1357 192.054C28.1357 193.86 26.7227 195.304 24.9642 195.304C23.2058 195.304 21.7927 193.844 21.7927 192.054C21.8084 190.263 23.2215 188.803 24.9642 188.803C26.707 188.803 28.1357 190.263 28.1357 192.054Z" stroke="#5A5A5A" stroke-width="0.5"/>
<path d="M28.1357 182.428C28.1357 184.234 26.7227 185.679 24.9642 185.679C23.2058 185.679 21.7927 184.218 21.7927 182.428C21.8084 180.638 23.2215 179.177 24.9642 179.177C26.707 179.177 28.1357 180.638 28.1357 182.428Z" stroke="#5A5A5A" stroke-width="0.5"/>
<path d="M65.6992 132.015L65.6992 156.104L42.0002 156.104L42.0002 132L65.6992 132.015Z" fill="white" stroke="#5A5A5A" stroke-width="0.5"/>
<path d="M63.8965 138.621L63.8965 151.938C63.8965 152.68 63.5328 153.044 62.7752 153.044L45.1676 153.044C44.4402 153.044 44.0614 152.68 44.0463 151.953L44.0614 138.621C44.0463 137.894 44.4251 137.53 45.1676 137.53L62.7752 137.53C63.5177 137.5 63.8965 137.879 63.8965 138.621Z" fill="white" stroke="#5A5A5A" stroke-width="0.5"/>
<path d="M53.9709 133.864C53.0466 133.879 52.3041 134.576 52.3041 135.454L52.9556 142.438L52.9708 142.454C52.9708 142.984 53.4102 143.408 53.9709 143.408C54.5315 143.408 54.971 142.984 54.9861 142.438L55.6377 135.454C55.6377 134.591 54.8952 133.879 53.9709 133.864Z" stroke="#5A5A5A" stroke-width="0.5"/>
<mask id="path-54-inside-1_49_12939" fill="white">
<path fill-rule="evenodd" clip-rule="evenodd" d="M52.5918 134.546L52.9555 138.349C52.9706 138.879 53.41 139.318 53.9859 139.303C54.5465 139.303 54.9708 138.879 54.9859 138.349L55.3496 134.546"/>
</mask>
<path fill-rule="evenodd" clip-rule="evenodd" d="M52.5918 134.546L52.9555 138.349C52.9706 138.879 53.41 139.318 53.9859 139.303C54.5465 139.303 54.9708 138.879 54.9859 138.349L55.3496 134.546" fill="white"/>
<path d="M52.9555 138.349L53.4553 138.335L53.4548 138.318L53.4532 138.301L52.9555 138.349ZM53.9859 139.303L53.9859 138.803L53.9727 138.803L53.9859 139.303ZM54.9859 138.349L54.4882 138.301L54.4866 138.318L54.4861 138.335L54.9859 138.349ZM52.0941 134.594L52.4577 138.396L53.4532 138.301L53.0895 134.499L52.0941 134.594ZM52.4557 138.363C52.4787 139.168 53.1467 139.825 53.999 139.803L53.9727 138.803C53.6733 138.811 53.4626 138.59 53.4553 138.335L52.4557 138.363ZM53.9859 139.803C54.8152 139.803 55.4628 139.166 55.4857 138.363L54.4861 138.335C54.4788 138.592 54.2778 138.803 53.9859 138.803L53.9859 139.803ZM55.4837 138.396L55.8473 134.594L54.8519 134.499L54.4882 138.301L55.4837 138.396Z" fill="#5A5A5A" mask="url(#path-54-inside-1_49_12939)"/>
<path d="M271.75 116.25L230.709 116.275L230.697 117.75L271.75 117.75L271.75 116.25Z" stroke="#5A5A5A" stroke-width="0.5" stroke-miterlimit="10"/>
<path d="M203.306 116.25L162.265 116.275L162.252 117.75L203.306 117.75L203.306 116.25Z" stroke="#5A5A5A" stroke-width="0.5" stroke-miterlimit="10"/>
<path d="M237.528 114.25L196.488 114.275L196.475 115.75L237.528 115.75L237.528 114.25Z" stroke="#5A5A5A" stroke-width="0.5" stroke-miterlimit="10"/>
<rect width="2" height="11" transform="matrix(1 0 0 -1 104 228)" fill="#5A5A5A"/>
<rect width="2" height="11" transform="matrix(1 0 0 -1 104 211)" fill="#5A5A5A"/>
<rect width="2" height="11" transform="matrix(1 0 0 -1 104 194)" fill="#5A5A5A"/>
<rect width="2" height="11" transform="matrix(1 0 0 -1 104 177)" fill="#5A5A5A"/>
<rect width="2" height="11" transform="matrix(1 0 0 -1 104 157)" fill="#5A5A5A"/>
<rect width="2" height="11" transform="matrix(1 0 0 -1 104 142)" fill="#5A5A5A"/>
<rect width="2" height="11" transform="matrix(-4.37114e-08 1 1 4.37114e-08 9 231)" fill="#5A5A5A"/>
<rect width="2" height="11" transform="matrix(-4.37114e-08 1 1 4.37114e-08 26 231)" fill="#5A5A5A"/>
<rect width="2" height="11" transform="matrix(-4.37114e-08 1 1 4.37114e-08 43 231)" fill="#5A5A5A"/>
<rect width="2" height="11" transform="matrix(-4.37114e-08 1 1 4.37114e-08 60 231)" fill="#5A5A5A"/>
<rect width="2" height="11" transform="matrix(-4.37114e-08 1 1 4.37114e-08 80 231)" fill="#5A5A5A"/>
<rect width="2" height="11" transform="matrix(-4.37114e-08 1 1 4.37114e-08 95 231)" fill="#5A5A5A"/>
<path d="M55.49 211.78C55.49 211.332 55.588 210.865 55.784 210.38C55.9893 209.885 56.1853 209.498 56.372 209.218C56.568 208.929 56.834 208.569 57.17 208.14L59.41 205.2H61.3L59.186 207.958L58.57 208.49V208.56L58.85 208.462C59.13 208.387 59.4333 208.35 59.76 208.35C60.6747 208.35 61.4493 208.681 62.084 209.344C62.728 209.997 63.05 210.809 63.05 211.78C63.05 212.769 62.6953 213.6 61.986 214.272C61.2767 214.944 60.3713 215.28 59.27 215.28C58.1687 215.28 57.2633 214.944 56.554 214.272C55.8447 213.6 55.49 212.769 55.49 211.78ZM57.744 210.324C57.3613 210.697 57.17 211.183 57.17 211.78C57.17 212.377 57.3613 212.867 57.744 213.25C58.1267 213.623 58.6353 213.81 59.27 213.81C59.9047 213.81 60.4133 213.623 60.796 213.25C61.1787 212.867 61.37 212.377 61.37 211.78C61.37 211.183 61.1787 210.697 60.796 210.324C60.4133 209.941 59.9047 209.75 59.27 209.75C58.6353 209.75 58.1267 209.941 57.744 210.324ZM64.1733 214.23C64.1733 213.95 64.2619 213.717 64.4393 213.53C64.6259 213.343 64.8546 213.25 65.1253 213.25C65.4333 213.25 65.6759 213.362 65.8533 213.586C66.0399 213.81 66.1333 214.141 66.1333 214.58C66.1333 215.299 65.9606 215.849 65.6153 216.232C65.2793 216.624 64.8219 216.82 64.2433 216.82V216.12C64.5233 216.12 64.7426 216.041 64.9013 215.882C65.0693 215.733 65.1533 215.532 65.1533 215.28V215.196C65.1439 215.187 65.1393 215.168 65.1393 215.14V215.098L65.0553 215.126C65.0273 215.135 64.9666 215.14 64.8733 215.14C64.6866 215.14 64.5233 215.056 64.3833 214.888C64.2433 214.72 64.1733 214.501 64.1733 214.23ZM68.6495 213.824C67.7628 212.853 67.3195 211.612 67.3195 210.1C67.3195 208.588 67.7628 207.347 68.6495 206.376C69.5361 205.405 70.6095 204.92 71.8695 204.92C73.1295 204.92 74.2028 205.405 75.0895 206.376C75.9761 207.347 76.4195 208.588 76.4195 210.1C76.4195 211.612 75.9761 212.853 75.0895 213.824C74.2028 214.795 73.1295 215.28 71.8695 215.28C70.6095 215.28 69.5361 214.795 68.6495 213.824ZM69.7975 207.412C69.2655 208.047 68.9995 208.943 68.9995 210.1C68.9995 211.257 69.2655 212.153 69.7975 212.788C70.3388 213.423 71.0295 213.74 71.8695 213.74C72.7095 213.74 73.3955 213.423 73.9275 212.788C74.4688 212.153 74.7395 211.257 74.7395 210.1C74.7395 208.943 74.4688 208.047 73.9275 207.412C73.3955 206.777 72.7095 206.46 71.8695 206.46C71.0295 206.46 70.3388 206.777 69.7975 207.412ZM79.0127 213.824C78.1261 212.853 77.6827 211.612 77.6827 210.1C77.6827 208.588 78.1261 207.347 79.0127 206.376C79.8994 205.405 80.9727 204.92 82.2327 204.92C83.4927 204.92 84.5661 205.405 85.4527 206.376C86.3394 207.347 86.7827 208.588 86.7827 210.1C86.7827 211.612 86.3394 212.853 85.4527 213.824C84.5661 214.795 83.4927 215.28 82.2327 215.28C80.9727 215.28 79.8994 214.795 79.0127 213.824ZM80.1607 207.412C79.6287 208.047 79.3627 208.943 79.3627 210.1C79.3627 211.257 79.6287 212.153 80.1607 212.788C80.7021 213.423 81.3927 213.74 82.2327 213.74C83.0727 213.74 83.7587 213.423 84.2907 212.788C84.8321 212.153 85.1027 211.257 85.1027 210.1C85.1027 208.943 84.8321 208.047 84.2907 207.412C83.7587 206.777 83.0727 206.46 82.2327 206.46C81.3927 206.46 80.7021 206.777 80.1607 207.412Z" fill="#333333"/>
<path d="M132.42 281V279.46L135.766 277.094C136.494 276.571 137.017 276.086 137.334 275.638C137.651 275.19 137.81 274.714 137.81 274.21C137.81 273.678 137.647 273.253 137.32 272.936C136.993 272.619 136.55 272.46 135.99 272.46C135.299 272.46 134.781 272.74 134.436 273.3C134.287 273.543 134.175 273.823 134.1 274.14H132.42C132.504 273.543 132.686 273.006 132.966 272.53C133.629 271.457 134.637 270.92 135.99 270.92C137.026 270.92 137.866 271.228 138.51 271.844C139.163 272.451 139.49 273.216 139.49 274.14C139.49 274.943 139.285 275.666 138.874 276.31C138.463 276.945 137.805 277.575 136.9 278.2L135.5 279.18L134.87 279.46V279.53L135.71 279.46H139.49V281H132.42ZM140.263 279.04V277.5L143.553 271.2H145.303L142.013 277.5H145.233V275.12H145.303H146.843V277.5H148.243V279.04H146.843V281H145.233V279.04H140.263ZM148.802 280.23C148.802 279.95 148.891 279.717 149.068 279.53C149.255 279.343 149.484 279.25 149.754 279.25C150.062 279.25 150.305 279.362 150.482 279.586C150.669 279.81 150.762 280.141 150.762 280.58C150.762 281.299 150.59 281.849 150.244 282.232C149.908 282.624 149.451 282.82 148.872 282.82V282.12C149.152 282.12 149.372 282.041 149.53 281.882C149.698 281.733 149.782 281.532 149.782 281.28V281.196C149.773 281.187 149.768 281.168 149.768 281.14V281.098L149.684 281.126C149.656 281.135 149.596 281.14 149.502 281.14C149.316 281.14 149.152 281.056 149.012 280.888C148.872 280.72 148.802 280.501 148.802 280.23ZM151.528 279.04V277.5L154.818 271.2H156.568L153.278 277.5H156.498V275.12H156.568H158.108V277.5H159.508V279.04H158.108V281H156.498V279.04H151.528ZM159.928 281V279.46L163.274 277.094C164.002 276.571 164.524 276.086 164.842 275.638C165.159 275.19 165.318 274.714 165.318 274.21C165.318 273.678 165.154 273.253 164.828 272.936C164.501 272.619 164.058 272.46 163.498 272.46C162.807 272.46 162.289 272.74 161.944 273.3C161.794 273.543 161.682 273.823 161.608 274.14H159.928C160.012 273.543 160.194 273.006 160.474 272.53C161.136 271.457 162.144 270.92 163.498 270.92C164.534 270.92 165.374 271.228 166.018 271.844C166.671 272.451 166.998 273.216 166.998 274.14C166.998 274.943 166.792 275.666 166.382 276.31C165.971 276.945 165.313 277.575 164.408 278.2L163.008 279.18L162.378 279.46V279.53L163.218 279.46H166.998V281H159.928Z" fill="#333333"/>
<path d="M55.56 69.27H57.24C57.3147 69.5593 57.4407 69.8067 57.618 70.012C58.0287 70.4973 58.626 70.74 59.41 70.74C60.0353 70.74 60.53 70.572 60.894 70.236C61.258 69.9 61.44 69.4613 61.44 68.92C61.44 68.3507 61.258 67.8933 60.894 67.548C60.53 67.2027 60.0353 67.03 59.41 67.03C58.8313 67.03 58.3413 67.184 57.94 67.492C57.7813 67.6133 57.6413 67.7627 57.52 67.94H55.98L56.4 62.2H62.35V63.74H57.73L57.52 66.26H57.59C57.7393 66.1107 57.912 65.9847 58.108 65.882C58.5467 65.6207 59.074 65.49 59.69 65.49C60.67 65.49 61.4867 65.8167 62.14 66.47C62.7933 67.1233 63.12 67.94 63.12 68.92C63.12 69.8813 62.7747 70.684 62.084 71.328C61.4027 71.9627 60.5113 72.28 59.41 72.28C57.9727 72.28 56.904 71.7807 56.204 70.782C55.9053 70.3433 55.6907 69.8393 55.56 69.27ZM64.1733 71.23C64.1733 70.95 64.2619 70.7167 64.4393 70.53C64.6259 70.3433 64.8546 70.25 65.1253 70.25C65.4333 70.25 65.6759 70.362 65.8533 70.586C66.0399 70.81 66.1333 71.1413 66.1333 71.58C66.1333 72.2987 65.9606 72.8493 65.6153 73.232C65.2793 73.624 64.8219 73.82 64.2433 73.82V73.12C64.5233 73.12 64.7426 73.0407 64.9013 72.882C65.0693 72.7327 65.1533 72.532 65.1533 72.28V72.196C65.1439 72.1867 65.1393 72.168 65.1393 72.14V72.098L65.0553 72.126C65.0273 72.1353 64.9666 72.14 64.8733 72.14C64.6866 72.14 64.5233 72.056 64.3833 71.888C64.2433 71.72 64.1733 71.5007 64.1733 71.23ZM66.8995 70.04V68.5L70.1895 62.2H71.9395L68.6495 68.5H71.8695V66.12H71.9395H73.4795V68.5H74.8795V70.04H73.4795V72H71.8695V70.04H66.8995ZM75.2989 72V70.46L78.6449 68.094C79.3729 67.5713 79.8956 67.086 80.2129 66.638C80.5302 66.19 80.6889 65.714 80.6889 65.21C80.6889 64.678 80.5256 64.2533 80.1989 63.936C79.8722 63.6187 79.4289 63.46 78.8689 63.46C78.1782 63.46 77.6602 63.74 77.3149 64.3C77.1656 64.5427 77.0536 64.8227 76.9789 65.14H75.2989C75.3829 64.5427 75.5649 64.006 75.8449 63.53C76.5076 62.4567 77.5156 61.92 78.8689 61.92C79.9049 61.92 80.7449 62.228 81.3889 62.844C82.0422 63.4507 82.3689 64.216 82.3689 65.14C82.3689 65.9427 82.1636 66.666 81.7529 67.31C81.3422 67.9447 80.6842 68.5747 79.7789 69.2L78.3789 70.18L77.7489 70.46V70.53L78.5889 70.46H82.3689V72H75.2989Z" fill="#333333"/>
<path d="M189.14 80.74V79.2H195.79V80.74L191.87 89H190.12L193.97 80.88V80.74H189.14ZM195.234 88.23C195.234 87.95 195.322 87.7167 195.5 87.53C195.686 87.3433 195.915 87.25 196.186 87.25C196.494 87.25 196.736 87.362 196.914 87.586C197.1 87.81 197.194 88.1413 197.194 88.58C197.194 89.2987 197.021 89.8493 196.676 90.232C196.34 90.624 195.882 90.82 195.304 90.82V90.12C195.584 90.12 195.803 90.0407 195.962 89.882C196.13 89.7327 196.214 89.532 196.214 89.28V89.196C196.204 89.1867 196.2 89.168 196.2 89.14V89.098L196.116 89.126C196.088 89.1353 196.027 89.14 195.934 89.14C195.747 89.14 195.584 89.056 195.444 88.888C195.304 88.72 195.234 88.5007 195.234 88.23ZM198.1 82.42V80.6L199.92 79.2H201.39V89H199.78V81.16L198.1 82.42ZM202.791 86.2H204.471C204.536 86.4893 204.662 86.746 204.849 86.97C205.269 87.4833 205.866 87.74 206.641 87.74C207.285 87.74 207.794 87.5813 208.167 87.264C208.55 86.9373 208.741 86.536 208.741 86.06C208.741 85.5187 208.568 85.094 208.223 84.786C207.887 84.4687 207.406 84.31 206.781 84.31H204.401V82.91L207.341 80.81V80.74H203.281V79.2H209.721V80.726L207.201 82.56L206.501 82.84V82.91L206.725 82.882C207.033 82.854 207.215 82.84 207.271 82.84C208.148 82.84 208.881 83.1433 209.469 83.75C210.057 84.3567 210.351 85.1267 210.351 86.06C210.351 86.956 210.006 87.7167 209.315 88.342C208.624 88.9673 207.733 89.28 206.641 89.28C205.194 89.28 204.126 88.7667 203.435 87.74C203.136 87.3013 202.922 86.788 202.791 86.2Z" fill="#333333"/>
<circle cx="173.5" cy="199.5" r="39.5" fill="#5A5A5A"/>
<path d="M149.27 204.48V202.5L153.5 194.4H155.75L151.52 202.5H155.66V199.44H155.75H157.73V202.5H159.53V204.48H157.73V207H155.66V204.48H149.27ZM160.069 207V205.02L164.371 201.978C165.307 201.306 165.979 200.682 166.387 200.106C166.795 199.53 166.999 198.918 166.999 198.27C166.999 197.586 166.789 197.04 166.369 196.632C165.949 196.224 165.379 196.02 164.659 196.02C163.771 196.02 163.105 196.38 162.661 197.1C162.469 197.412 162.325 197.772 162.229 198.18H160.069C160.177 197.412 160.411 196.722 160.771 196.11C161.623 194.73 162.919 194.04 164.659 194.04C165.991 194.04 167.071 194.436 167.899 195.228C168.739 196.008 169.159 196.992 169.159 198.18C169.159 199.212 168.895 200.142 168.367 200.97C167.839 201.786 166.993 202.596 165.829 203.4L164.029 204.66L163.219 205.02V205.11L164.299 205.02H169.159V207H160.069ZM170.603 206.01C170.603 205.65 170.717 205.35 170.945 205.11C171.185 204.87 171.479 204.75 171.827 204.75C172.223 204.75 172.535 204.894 172.763 205.182C173.003 205.47 173.123 205.896 173.123 206.46C173.123 207.384 172.901 208.092 172.457 208.584C172.025 209.088 171.437 209.34 170.693 209.34V208.44C171.053 208.44 171.335 208.338 171.539 208.134C171.755 207.942 171.863 207.684 171.863 207.36V207.252C171.851 207.24 171.845 207.216 171.845 207.18V207.126L171.737 207.162C171.701 207.174 171.623 207.18 171.503 207.18C171.263 207.18 171.053 207.072 170.873 206.856C170.693 206.64 170.603 206.358 170.603 206.01ZM174.558 198.54C174.558 197.268 175.014 196.2 175.926 195.336C176.838 194.472 178.002 194.04 179.418 194.04C180.834 194.04 181.998 194.472 182.91 195.336C183.822 196.2 184.278 197.268 184.278 198.54C184.278 199.68 183.804 200.91 182.856 202.23C182.76 202.362 182.628 202.542 182.46 202.77C182.292 202.986 182.178 203.136 182.118 203.22L179.238 207H176.808L179.526 203.454L180.318 202.77V202.68C180.294 202.692 180.174 202.74 179.958 202.824C179.646 202.908 179.256 202.95 178.788 202.95C177.612 202.95 176.61 202.53 175.782 201.69C174.966 200.838 174.558 199.788 174.558 198.54ZM177.456 196.668C176.964 197.148 176.718 197.772 176.718 198.54C176.718 199.308 176.964 199.938 177.456 200.43C177.948 200.91 178.602 201.15 179.418 201.15C180.234 201.15 180.888 200.91 181.38 200.43C181.872 199.938 182.118 199.308 182.118 198.54C182.118 197.772 181.872 197.148 181.38 196.668C180.888 196.176 180.234 195.93 179.418 195.93C178.602 195.93 177.948 196.176 177.456 196.668ZM185.092 196.38V194.4H193.642V196.38L188.602 207H186.352L191.302 196.56V196.38H185.092Z" fill="white"/>
</svg>
