<svg width="338" height="397" viewBox="0 0 338 397" fill="none" xmlns="http://www.w3.org/2000/svg">
<rect width="30" height="43" transform="matrix(4.37114e-08 1 1 -4.37114e-08 1 312)" fill="#5A5A5A"/>
<path d="M16 54L16 312L322 312L322 54L16 54Z" fill="#E7FFD5"/>
<rect width="46" height="82" transform="matrix(4.37114e-08 1 1 -4.37114e-08 13 8)" fill="#E7FFD5"/>
<rect width="103" height="82" transform="matrix(4.37114e-08 1 1 -4.37114e-08 11 13)" fill="#FDFF9F"/>
<rect width="30" height="99" transform="matrix(4.37114e-08 1 1 -4.37114e-08 106 312)" fill="#5A5A5A"/>
<rect width="30" height="49" transform="matrix(4.37114e-08 1 1 -4.37114e-08 289 312)" fill="#5A5A5A"/>
<rect width="16" height="341" transform="matrix(-1 0 0 1 16 0)" fill="#5A5A5A"/>
<rect width="16" height="304" transform="matrix(-1 0 0 1 338 38)" fill="#5A5A5A"/>
<rect width="16" height="109" transform="matrix(1.19249e-08 -1 -1 -1.19249e-08 109 16)" fill="#5A5A5A"/>
<rect width="16" height="109" transform="matrix(1.19249e-08 -1 -1 -1.19249e-08 109 132)" fill="#5A5A5A"/>
<rect width="16" height="21" transform="matrix(1.19249e-08 -1 -1 -1.19249e-08 165 132)" fill="#5A5A5A"/>
<rect width="16" height="103" transform="matrix(1.19249e-08 -1 -1 -1.19249e-08 196 54)" fill="#5A5A5A"/>
<rect width="16" height="54" transform="matrix(1 0 0 -1 93 54)" fill="#5A5A5A"/>
<rect width="16" height="46" transform="matrix(-1 8.74228e-08 8.74228e-08 1 209 8)" fill="#5A5A5A"/>
<rect width="16" height="53" transform="matrix(1.19249e-08 -1 -1 -1.19249e-08 338 54)" fill="#5A5A5A"/>
<rect width="16" height="53" transform="matrix(1.19249e-08 -1 -1 -1.19249e-08 246 54)" fill="#5A5A5A"/>
<rect width="16" height="46" transform="matrix(-4.37114e-08 1 1 4.37114e-08 165 38)" fill="#5A5A5A"/>
<rect width="8" height="46" transform="matrix(1 0 0 -1 93 131)" fill="#5A5A5A"/>
<rect width="8" height="38" transform="matrix(-4.37114e-08 1 1 4.37114e-08 158 116)" fill="#5A5A5A"/>
<rect width="8" height="24" transform="matrix(-4.37114e-08 1 1 4.37114e-08 300 116)" fill="#5A5A5A"/>
<line x1="291.764" y1="42.4409" x2="248.764" y2="19.4409" stroke="#5A5A5A"/>
<line y1="-0.5" x2="34.1321" y2="-0.5" transform="matrix(-0.527363 0.84964 0.84964 0.527363 113 65)" stroke="#5A5A5A"/>
<line x1="108.741" y1="117.573" x2="136.741" y2="100.573" stroke="#5A5A5A"/>
<path d="M10.25 312.25L172.685 312.402L172.749 323.75L10.25 323.75L10.25 312.25Z" stroke="#5A5A5A" stroke-width="0.5" stroke-miterlimit="10"/>
<path d="M10.25 330.25L172.685 330.402L172.749 341.75L10.25 341.75L10.25 330.25Z" stroke="#5A5A5A" stroke-width="0.5" stroke-miterlimit="10"/>
<path d="M307.75 396.75L184.298 396.687L184.253 392.25L307.75 392.25L307.75 396.75Z" stroke="#5A5A5A" stroke-width="0.5" stroke-miterlimit="10"/>
<rect width="5.00001" height="71" transform="matrix(1 -8.74228e-08 -8.74228e-08 -1 315 397)" fill="#5A5A5A"/>
<rect width="5.00001" height="71" transform="matrix(1 -8.74228e-08 -8.74228e-08 -1 175 397)" fill="#5A5A5A"/>
<rect width="5" height="12" transform="matrix(-1.31134e-07 -1 -1 1.31134e-07 188 397)" fill="#5A5A5A"/>
<rect width="5" height="12" transform="matrix(-1.31134e-07 -1 -1 1.31134e-07 317 397)" fill="#5A5A5A"/>
<path d="M302.75 327.25L242.274 327.313L242.251 331.75L302.75 331.75L302.75 327.25Z" stroke="#5A5A5A" stroke-width="0.5" stroke-miterlimit="10"/>
<path d="M302.75 337.25L242.274 337.313L242.251 341.75L302.75 341.75L302.75 337.25Z" stroke="#5A5A5A" stroke-width="0.5" stroke-miterlimit="10"/>
<line x1="208.749" y1="328.568" x2="239.749" y2="310.568" stroke="#5A5A5A"/>
<path d="M72.7188 96.4762L72.7351 97.6567L72.7188 100.723V108.314H82.676V96.4762C82.676 93.4594 80.4324 91 77.681 91C74.9624 91 72.7188 93.4594 72.7188 96.4762Z" fill="white" stroke="#5A5A5A" stroke-width="0.5"/>
<path d="M73.8652 96.5418V97.4764V105.035H81.5461V97.4764L81.5297 96.5418C81.5297 94.1644 79.8265 92.2297 77.6974 92.2297C75.5848 92.2461 73.8652 94.1808 73.8652 96.5418Z" fill="white" stroke="#5A5A5A" stroke-width="0.5"/>
<path d="M84.4784 114.676V109.412C84.4784 108.806 83.9871 108.314 83.3811 108.314H72.0973C71.4913 108.314 71 108.806 71 109.412V114.676C71 115.282 71.4913 115.774 72.0973 115.774H83.3647C83.9871 115.774 84.4784 115.282 84.4784 114.676Z" fill="white" stroke="#5A5A5A" stroke-width="0.5"/>
<path d="M78.3856 112.052C78.3856 111.642 78.0908 111.331 77.7469 111.331C77.3866 111.315 77.0918 111.642 77.0918 112.052C77.0918 112.462 77.3866 112.774 77.7305 112.774C78.1072 112.757 78.4019 112.446 78.3856 112.052Z" fill="white" stroke="#5A5A5A" stroke-width="0.5"/>
<path d="M45.0012 102.54L45.0012 114.848C45.0012 115.704 45.685 116.389 46.5398 116.389L65.0591 116.389C65.9139 116.389 66.5977 115.704 66.5977 114.848L66.5977 102.54C66.5977 101.685 65.9139 101 65.0591 101L46.5398 101C45.6993 101 45.0012 101.685 45.0012 102.54Z" fill="white" stroke="#5A5A5A" stroke-width="0.5"/>
<path d="M46.9237 107.232L46.9237 109.129C46.9237 111.625 48.9466 113.65 51.4396 113.65L60.158 113.65C62.651 113.65 64.6738 111.625 64.6738 109.129L64.6738 107.232C64.6738 104.737 62.651 102.711 60.158 102.711L51.4396 102.711C48.9466 102.711 46.9237 104.737 46.9237 107.232Z" fill="white" stroke="#5A5A5A" stroke-width="0.5"/>
<path d="M54.8451 105.122C54.8451 105.665 55.2724 106.106 55.7995 106.106C56.3266 106.106 56.7539 105.665 56.7539 105.122C56.7539 104.578 56.3266 104.138 55.7995 104.138C55.2724 104.138 54.8451 104.578 54.8451 105.122Z" fill="white" stroke="#5A5A5A" stroke-width="0.5"/>
<path d="M16.0012 114.507L16.0012 54.3859C16.0012 53.616 16.6164 53.0001 17.3854 53.0001L41.2525 53.0001C42.0215 53.0001 42.6367 53.616 42.6367 54.3859L42.6367 114.507C42.6367 115.276 42.0215 115.892 41.2525 115.892L17.3854 115.892C16.6164 115.892 16.0012 115.262 16.0012 114.507Z" fill="white" stroke="#5A5A5A" stroke-width="0.5"/>
<path d="M26.0825 56.6958L32.57 56.6958C36.3312 56.6958 39.3652 59.7473 39.3652 63.4987L39.3652 110.839C39.3652 111.763 38.6242 112.505 37.7014 112.505L20.9232 112.505C20.0004 112.505 19.2593 111.763 19.2593 110.839L19.2593 63.5127C19.2733 59.7473 22.3213 56.6958 26.0825 56.6958Z" fill="white" stroke="#5A5A5A" stroke-width="0.5"/>
<path d="M28.8508 106.892C28.1018 106.892 27.4947 107.525 27.4947 108.306C27.4947 109.086 28.1018 109.719 28.8508 109.719C29.5998 109.719 30.207 109.086 30.207 108.306C30.207 107.525 29.5998 106.892 28.8508 106.892Z" fill="white" stroke="#5A5A5A" stroke-width="0.5"/>
<path d="M37.5875 38.0237L37.5875 16.014L16 16L16.014 38.0097L37.5875 38.0237Z" fill="white" stroke="#5A5A5A" stroke-width="0.5"/>
<path d="M21.2578 27.0048C21.2578 23.8905 23.7325 21.3767 26.7945 21.3767C29.8565 21.3767 32.3312 23.8905 32.3312 27.0188C32.3312 30.1331 29.8565 32.6748 26.7945 32.6748C23.7325 32.6609 21.2578 30.1192 21.2578 27.0048Z" stroke="#5A5A5A" stroke-width="0.5"/>
<path d="M26.7929 31.1247C25.6744 31.1387 24.6677 30.6778 23.9407 29.9237C23.2137 29.1695 22.7663 28.1361 22.7523 27.0188M26.7789 22.885C25.6744 22.885 24.6677 23.3459 23.9267 24.086C23.1997 24.8402 22.7383 25.8597 22.7383 27.0049L26.7789 22.885ZM26.7929 31.1247C27.8975 31.1247 28.9041 30.6638 29.6452 29.9237C30.3722 29.1695 30.8196 28.1361 30.8196 27.0049L26.7929 31.1247ZM26.7789 22.885C27.9114 22.885 28.9181 23.3459 29.6312 24.086L29.6452 24.1C30.3582 24.8402 30.8196 25.8597 30.8196 26.9909L26.7789 22.885Z" stroke="#5A5A5A" stroke-width="0.5"/>
<path d="M16.0008 175L40.9961 175L40.9961 199.325L16.0008 199.325L16.0008 175Z" fill="white" stroke="#5A5A5A" stroke-width="0.5"/>
<path d="M38.9687 175.927L19.5157 175.927C18.7778 175.927 18.3853 176.319 18.3853 177.089L18.3853 197.236C18.3853 198.021 18.7621 198.398 19.5157 198.398L38.9687 198.398C39.7223 198.414 40.0992 198.021 40.0992 197.252L40.0992 177.104C40.1149 176.319 39.7223 175.927 38.9687 175.927Z" fill="white" stroke="#5A5A5A" stroke-width="0.5"/>
<path d="M37.1797 182.428C37.164 184.218 35.7509 185.679 34.0082 185.679C32.2497 185.679 30.8367 184.218 30.8367 182.428C30.8367 180.622 32.2497 179.177 34.0082 179.177C35.7666 179.177 37.1797 180.622 37.1797 182.428Z" stroke="#5A5A5A" stroke-width="0.5"/>
<path d="M37.1503 192.054C37.1346 193.844 35.7215 195.304 33.9787 195.304C32.2203 195.304 30.8072 193.844 30.8072 192.054C30.8072 190.248 32.2203 188.803 33.9787 188.803C35.7372 188.787 37.166 190.248 37.1503 192.054Z" stroke="#5A5A5A" stroke-width="0.5"/>
<path d="M28.1367 192.054C28.1367 193.86 26.7237 195.304 24.9652 195.304C23.2067 195.304 21.7937 193.844 21.7937 192.054C21.8094 190.263 23.2224 188.803 24.9652 188.803C26.708 188.803 28.1367 190.263 28.1367 192.054Z" stroke="#5A5A5A" stroke-width="0.5"/>
<path d="M28.1367 182.428C28.1367 184.234 26.7237 185.679 24.9652 185.679C23.2067 185.679 21.7937 184.218 21.7937 182.428C21.8094 180.638 23.2224 179.177 24.9652 179.177C26.708 179.177 28.1367 180.638 28.1367 182.428Z" stroke="#5A5A5A" stroke-width="0.5"/>
<path d="M65.6992 132.015L65.6992 156.104L42.0002 156.104L42.0002 132L65.6992 132.015Z" fill="white" stroke="#5A5A5A" stroke-width="0.5"/>
<path d="M63.8965 138.621L63.8965 151.938C63.8965 152.68 63.5328 153.044 62.7752 153.044L45.1676 153.044C44.4402 153.044 44.0614 152.68 44.0463 151.953L44.0614 138.621C44.0463 137.894 44.4251 137.53 45.1676 137.53L62.7752 137.53C63.5177 137.5 63.8965 137.879 63.8965 138.621Z" fill="white" stroke="#5A5A5A" stroke-width="0.5"/>
<path d="M53.9719 133.864C53.0475 133.879 52.305 134.576 52.305 135.454L52.9566 142.438L52.9718 142.454C52.9718 142.984 53.4112 143.408 53.9719 143.408C54.5325 143.408 54.9719 142.984 54.9871 142.438L55.6387 135.454C55.6387 134.591 54.8962 133.879 53.9719 133.864Z" stroke="#5A5A5A" stroke-width="0.5"/>
<mask id="path-56-inside-1_69_2144" fill="white">
<path fill-rule="evenodd" clip-rule="evenodd" d="M52.5918 134.546L52.9555 138.349C52.9706 138.879 53.41 139.318 53.9859 139.303C54.5465 139.303 54.9708 138.879 54.9859 138.349L55.3496 134.546"/>
</mask>
<path fill-rule="evenodd" clip-rule="evenodd" d="M52.5918 134.546L52.9555 138.349C52.9706 138.879 53.41 139.318 53.9859 139.303C54.5465 139.303 54.9708 138.879 54.9859 138.349L55.3496 134.546" fill="white"/>
<path d="M52.9555 138.349L53.4553 138.335L53.4548 138.318L53.4532 138.301L52.9555 138.349ZM53.9859 139.303L53.9859 138.803L53.9727 138.803L53.9859 139.303ZM54.9859 138.349L54.4882 138.301L54.4866 138.318L54.4861 138.335L54.9859 138.349ZM52.0941 134.594L52.4577 138.396L53.4532 138.301L53.0895 134.499L52.0941 134.594ZM52.4557 138.363C52.4787 139.168 53.1467 139.825 53.999 139.803L53.9727 138.803C53.6733 138.811 53.4626 138.59 53.4553 138.335L52.4557 138.363ZM53.9859 139.803C54.8152 139.803 55.4628 139.166 55.4857 138.363L54.4861 138.335C54.4788 138.592 54.2778 138.803 53.9859 138.803L53.9859 139.803ZM55.4837 138.396L55.8473 134.594L54.8519 134.499L54.4882 138.301L55.4837 138.396Z" fill="#5A5A5A" mask="url(#path-56-inside-1_69_2144)"/>
<path d="M303.751 116.25L262.71 116.275L262.697 117.75L303.751 117.75L303.751 116.25Z" stroke="#5A5A5A" stroke-width="0.5" stroke-miterlimit="10"/>
<path d="M235.306 116.25L194.265 116.275L194.252 117.75L235.306 117.75L235.306 116.25Z" stroke="#5A5A5A" stroke-width="0.5" stroke-miterlimit="10"/>
<path d="M269.528 114.25L228.488 114.275L228.475 115.75L269.528 115.75L269.528 114.25Z" stroke="#5A5A5A" stroke-width="0.5" stroke-miterlimit="10"/>
<rect width="2" height="11" transform="matrix(1 0 0 -1 104 228)" fill="#5A5A5A"/>
<rect width="2" height="11" transform="matrix(1 0 0 -1 104 211)" fill="#5A5A5A"/>
<rect width="2" height="11" transform="matrix(1 0 0 -1 104 194)" fill="#5A5A5A"/>
<rect width="2" height="11" transform="matrix(1 0 0 -1 104 177)" fill="#5A5A5A"/>
<rect width="2" height="11" transform="matrix(1 0 0 -1 104 157)" fill="#5A5A5A"/>
<rect width="2" height="11" transform="matrix(1 0 0 -1 104 142)" fill="#5A5A5A"/>
<rect width="2" height="11" transform="matrix(-4.37114e-08 1 1 4.37114e-08 9 231)" fill="#5A5A5A"/>
<rect width="2" height="11" transform="matrix(-4.37114e-08 1 1 4.37114e-08 26 231)" fill="#5A5A5A"/>
<rect width="2" height="11" transform="matrix(-4.37114e-08 1 1 4.37114e-08 43 231)" fill="#5A5A5A"/>
<rect width="2" height="11" transform="matrix(-4.37114e-08 1 1 4.37114e-08 60 231)" fill="#5A5A5A"/>
<rect width="2" height="11" transform="matrix(-4.37114e-08 1 1 4.37114e-08 80 231)" fill="#5A5A5A"/>
<rect width="2" height="11" transform="matrix(-4.37114e-08 1 1 4.37114e-08 95 231)" fill="#5A5A5A"/>
<path d="M55.49 211.78C55.49 211.332 55.588 210.865 55.784 210.38C55.9893 209.885 56.1853 209.498 56.372 209.218C56.568 208.929 56.834 208.569 57.17 208.14L59.41 205.2H61.3L59.186 207.958L58.57 208.49V208.56L58.85 208.462C59.13 208.387 59.4333 208.35 59.76 208.35C60.6747 208.35 61.4493 208.681 62.084 209.344C62.728 209.997 63.05 210.809 63.05 211.78C63.05 212.769 62.6953 213.6 61.986 214.272C61.2767 214.944 60.3713 215.28 59.27 215.28C58.1687 215.28 57.2633 214.944 56.554 214.272C55.8447 213.6 55.49 212.769 55.49 211.78ZM57.744 210.324C57.3613 210.697 57.17 211.183 57.17 211.78C57.17 212.377 57.3613 212.867 57.744 213.25C58.1267 213.623 58.6353 213.81 59.27 213.81C59.9047 213.81 60.4133 213.623 60.796 213.25C61.1787 212.867 61.37 212.377 61.37 211.78C61.37 211.183 61.1787 210.697 60.796 210.324C60.4133 209.941 59.9047 209.75 59.27 209.75C58.6353 209.75 58.1267 209.941 57.744 210.324ZM64.1733 214.23C64.1733 213.95 64.2619 213.717 64.4393 213.53C64.6259 213.343 64.8546 213.25 65.1253 213.25C65.4333 213.25 65.6759 213.362 65.8533 213.586C66.0399 213.81 66.1333 214.141 66.1333 214.58C66.1333 215.299 65.9606 215.849 65.6153 216.232C65.2793 216.624 64.8219 216.82 64.2433 216.82V216.12C64.5233 216.12 64.7426 216.041 64.9013 215.882C65.0693 215.733 65.1533 215.532 65.1533 215.28V215.196C65.1439 215.187 65.1393 215.168 65.1393 215.14V215.098L65.0553 215.126C65.0273 215.135 64.9666 215.14 64.8733 215.14C64.6866 215.14 64.5233 215.056 64.3833 214.888C64.2433 214.72 64.1733 214.501 64.1733 214.23ZM68.6495 213.824C67.7628 212.853 67.3195 211.612 67.3195 210.1C67.3195 208.588 67.7628 207.347 68.6495 206.376C69.5361 205.405 70.6095 204.92 71.8695 204.92C73.1295 204.92 74.2028 205.405 75.0895 206.376C75.9761 207.347 76.4195 208.588 76.4195 210.1C76.4195 211.612 75.9761 212.853 75.0895 213.824C74.2028 214.795 73.1295 215.28 71.8695 215.28C70.6095 215.28 69.5361 214.795 68.6495 213.824ZM69.7975 207.412C69.2655 208.047 68.9995 208.943 68.9995 210.1C68.9995 211.257 69.2655 212.153 69.7975 212.788C70.3388 213.423 71.0295 213.74 71.8695 213.74C72.7095 213.74 73.3955 213.423 73.9275 212.788C74.4688 212.153 74.7395 211.257 74.7395 210.1C74.7395 208.943 74.4688 208.047 73.9275 207.412C73.3955 206.777 72.7095 206.46 71.8695 206.46C71.0295 206.46 70.3388 206.777 69.7975 207.412ZM79.0127 213.824C78.1261 212.853 77.6827 211.612 77.6827 210.1C77.6827 208.588 78.1261 207.347 79.0127 206.376C79.8994 205.405 80.9727 204.92 82.2327 204.92C83.4927 204.92 84.5661 205.405 85.4527 206.376C86.3394 207.347 86.7827 208.588 86.7827 210.1C86.7827 211.612 86.3394 212.853 85.4527 213.824C84.5661 214.795 83.4927 215.28 82.2327 215.28C80.9727 215.28 79.8994 214.795 79.0127 213.824ZM80.1607 207.412C79.6287 208.047 79.3627 208.943 79.3627 210.1C79.3627 211.257 79.6287 212.153 80.1607 212.788C80.7021 213.423 81.3927 213.74 82.2327 213.74C83.0727 213.74 83.7587 213.423 84.2907 212.788C84.8321 212.153 85.1027 211.257 85.1027 210.1C85.1027 208.943 84.8321 208.047 84.2907 207.412C83.7587 206.777 83.0727 206.46 82.2327 206.46C81.3927 206.46 80.7021 206.777 80.1607 207.412Z" fill="#333333"/>
<path d="M132.42 278.2H134.1C134.165 278.489 134.291 278.746 134.478 278.97C134.898 279.483 135.495 279.74 136.27 279.74C136.914 279.74 137.423 279.581 137.796 279.264C138.179 278.937 138.37 278.536 138.37 278.06C138.37 277.519 138.197 277.094 137.852 276.786C137.516 276.469 137.035 276.31 136.41 276.31H134.03V274.91L136.97 272.81V272.74H132.91V271.2H139.35V272.726L136.83 274.56L136.13 274.84V274.91L136.354 274.882C136.662 274.854 136.844 274.84 136.9 274.84C137.777 274.84 138.51 275.143 139.098 275.75C139.686 276.357 139.98 277.127 139.98 278.06C139.98 278.956 139.635 279.717 138.944 280.342C138.253 280.967 137.362 281.28 136.27 281.28C134.823 281.28 133.755 280.767 133.064 279.74C132.765 279.301 132.551 278.788 132.42 278.2ZM142.437 279.824C141.55 278.853 141.107 277.612 141.107 276.1C141.107 274.588 141.55 273.347 142.437 272.376C143.323 271.405 144.397 270.92 145.657 270.92C146.917 270.92 147.99 271.405 148.877 272.376C149.763 273.347 150.207 274.588 150.207 276.1C150.207 277.612 149.763 278.853 148.877 279.824C147.99 280.795 146.917 281.28 145.657 281.28C144.397 281.28 143.323 280.795 142.437 279.824ZM143.585 273.412C143.053 274.047 142.787 274.943 142.787 276.1C142.787 277.257 143.053 278.153 143.585 278.788C144.126 279.423 144.817 279.74 145.657 279.74C146.497 279.74 147.183 279.423 147.715 278.788C148.256 278.153 148.527 277.257 148.527 276.1C148.527 274.943 148.256 274.047 147.715 273.412C147.183 272.777 146.497 272.46 145.657 272.46C144.817 272.46 144.126 272.777 143.585 273.412ZM151.4 280.23C151.4 279.95 151.489 279.717 151.666 279.53C151.853 279.343 152.081 279.25 152.352 279.25C152.66 279.25 152.903 279.362 153.08 279.586C153.267 279.81 153.36 280.141 153.36 280.58C153.36 281.299 153.187 281.849 152.842 282.232C152.506 282.624 152.049 282.82 151.47 282.82V282.12C151.75 282.12 151.969 282.041 152.128 281.882C152.296 281.733 152.38 281.532 152.38 281.28V281.196C152.371 281.187 152.366 281.168 152.366 281.14V281.098L152.282 281.126C152.254 281.135 152.193 281.14 152.1 281.14C151.913 281.14 151.75 281.056 151.61 280.888C151.47 280.72 151.4 280.501 151.4 280.23ZM154.476 274.42C154.476 273.431 154.831 272.6 155.54 271.928C156.249 271.256 157.155 270.92 158.256 270.92C159.357 270.92 160.263 271.256 160.972 271.928C161.681 272.6 162.036 273.431 162.036 274.42C162.036 275.307 161.667 276.263 160.93 277.29C160.855 277.393 160.753 277.533 160.622 277.71C160.491 277.878 160.403 277.995 160.356 278.06L158.116 281H156.226L158.34 278.242L158.956 277.71V277.64C158.937 277.649 158.844 277.687 158.676 277.752C158.433 277.817 158.13 277.85 157.766 277.85C156.851 277.85 156.072 277.523 155.428 276.87C154.793 276.207 154.476 275.391 154.476 274.42ZM156.73 272.964C156.347 273.337 156.156 273.823 156.156 274.42C156.156 275.017 156.347 275.507 156.73 275.89C157.113 276.263 157.621 276.45 158.256 276.45C158.891 276.45 159.399 276.263 159.782 275.89C160.165 275.507 160.356 275.017 160.356 274.42C160.356 273.823 160.165 273.337 159.782 272.964C159.399 272.581 158.891 272.39 158.256 272.39C157.621 272.39 157.113 272.581 156.73 272.964ZM164.489 279.824C163.603 278.853 163.159 277.612 163.159 276.1C163.159 274.588 163.603 273.347 164.489 272.376C165.376 271.405 166.449 270.92 167.709 270.92C168.969 270.92 170.043 271.405 170.929 272.376C171.816 273.347 172.259 274.588 172.259 276.1C172.259 277.612 171.816 278.853 170.929 279.824C170.043 280.795 168.969 281.28 167.709 281.28C166.449 281.28 165.376 280.795 164.489 279.824ZM165.637 273.412C165.105 274.047 164.839 274.943 164.839 276.1C164.839 277.257 165.105 278.153 165.637 278.788C166.179 279.423 166.869 279.74 167.709 279.74C168.549 279.74 169.235 279.423 169.767 278.788C170.309 278.153 170.579 277.257 170.579 276.1C170.579 274.943 170.309 274.047 169.767 273.412C169.235 272.777 168.549 272.46 167.709 272.46C166.869 272.46 166.179 272.777 165.637 273.412Z" fill="#333333"/>
<path d="M239.21 370.04V368.5L242.5 362.2H244.25L240.96 368.5H244.18V366.12H244.25H245.79V368.5H247.19V370.04H245.79V372H244.18V370.04H239.21ZM247.749 371.23C247.749 370.95 247.838 370.717 248.015 370.53C248.202 370.343 248.431 370.25 248.701 370.25C249.009 370.25 249.252 370.362 249.429 370.586C249.616 370.81 249.709 371.141 249.709 371.58C249.709 372.299 249.537 372.849 249.191 373.232C248.855 373.624 248.398 373.82 247.819 373.82V373.12C248.099 373.12 248.319 373.041 248.477 372.882C248.645 372.733 248.729 372.532 248.729 372.28V372.196C248.72 372.187 248.715 372.168 248.715 372.14V372.098L248.631 372.126C248.603 372.135 248.543 372.14 248.449 372.14C248.263 372.14 248.099 372.056 247.959 371.888C247.819 371.72 247.749 371.501 247.749 371.23ZM250.406 363.74V362.2H257.056V363.74L253.136 372H251.386L255.236 363.88V363.74H250.406ZM257.551 368.78C257.551 368.332 257.649 367.865 257.845 367.38C258.05 366.885 258.246 366.498 258.433 366.218C258.629 365.929 258.895 365.569 259.231 365.14L261.471 362.2H263.361L261.247 364.958L260.631 365.49V365.56L260.911 365.462C261.191 365.387 261.494 365.35 261.821 365.35C262.735 365.35 263.51 365.681 264.145 366.344C264.789 366.997 265.111 367.809 265.111 368.78C265.111 369.769 264.756 370.6 264.047 371.272C263.337 371.944 262.432 372.28 261.331 372.28C260.229 372.28 259.324 371.944 258.615 371.272C257.905 370.6 257.551 369.769 257.551 368.78ZM259.805 367.324C259.422 367.697 259.231 368.183 259.231 368.78C259.231 369.377 259.422 369.867 259.805 370.25C260.187 370.623 260.696 370.81 261.331 370.81C261.965 370.81 262.474 370.623 262.857 370.25C263.239 369.867 263.431 369.377 263.431 368.78C263.431 368.183 263.239 367.697 262.857 367.324C262.474 366.941 261.965 366.75 261.331 366.75C260.696 366.75 260.187 366.941 259.805 367.324Z" fill="#333333"/>
<path d="M55.56 69.27H57.24C57.3147 69.5593 57.4407 69.8067 57.618 70.012C58.0287 70.4973 58.626 70.74 59.41 70.74C60.0353 70.74 60.53 70.572 60.894 70.236C61.258 69.9 61.44 69.4613 61.44 68.92C61.44 68.3507 61.258 67.8933 60.894 67.548C60.53 67.2027 60.0353 67.03 59.41 67.03C58.8313 67.03 58.3413 67.184 57.94 67.492C57.7813 67.6133 57.6413 67.7627 57.52 67.94H55.98L56.4 62.2H62.35V63.74H57.73L57.52 66.26H57.59C57.7393 66.1107 57.912 65.9847 58.108 65.882C58.5467 65.6207 59.074 65.49 59.69 65.49C60.67 65.49 61.4867 65.8167 62.14 66.47C62.7933 67.1233 63.12 67.94 63.12 68.92C63.12 69.8813 62.7747 70.684 62.084 71.328C61.4027 71.9627 60.5113 72.28 59.41 72.28C57.9727 72.28 56.904 71.7807 56.204 70.782C55.9053 70.3433 55.6907 69.8393 55.56 69.27ZM64.1733 71.23C64.1733 70.95 64.2619 70.7167 64.4393 70.53C64.6259 70.3433 64.8546 70.25 65.1253 70.25C65.4333 70.25 65.6759 70.362 65.8533 70.586C66.0399 70.81 66.1333 71.1413 66.1333 71.58C66.1333 72.2987 65.9606 72.8493 65.6153 73.232C65.2793 73.624 64.8219 73.82 64.2433 73.82V73.12C64.5233 73.12 64.7426 73.0407 64.9013 72.882C65.0693 72.7327 65.1533 72.532 65.1533 72.28V72.196C65.1439 72.1867 65.1393 72.168 65.1393 72.14V72.098L65.0553 72.126C65.0273 72.1353 64.9666 72.14 64.8733 72.14C64.6866 72.14 64.5233 72.056 64.3833 71.888C64.2433 71.72 64.1733 71.5007 64.1733 71.23ZM66.8995 70.04V68.5L70.1895 62.2H71.9395L68.6495 68.5H71.8695V66.12H71.9395H73.4795V68.5H74.8795V70.04H73.4795V72H71.8695V70.04H66.8995ZM75.2989 72V70.46L78.6449 68.094C79.3729 67.5713 79.8956 67.086 80.2129 66.638C80.5302 66.19 80.6889 65.714 80.6889 65.21C80.6889 64.678 80.5256 64.2533 80.1989 63.936C79.8722 63.6187 79.4289 63.46 78.8689 63.46C78.1782 63.46 77.6602 63.74 77.3149 64.3C77.1656 64.5427 77.0536 64.8227 76.9789 65.14H75.2989C75.3829 64.5427 75.5649 64.006 75.8449 63.53C76.5076 62.4567 77.5156 61.92 78.8689 61.92C79.9049 61.92 80.7449 62.228 81.3889 62.844C82.0422 63.4507 82.3689 64.216 82.3689 65.14C82.3689 65.9427 82.1636 66.666 81.7529 67.31C81.3422 67.9447 80.6842 68.5747 79.7789 69.2L78.3789 70.18L77.7489 70.46V70.53L78.5889 70.46H82.3689V72H75.2989Z" fill="#333333"/>
<path d="M189.56 82.42C189.56 81.4307 189.915 80.6 190.624 79.928C191.333 79.256 192.239 78.92 193.34 78.92C194.441 78.92 195.347 79.256 196.056 79.928C196.765 80.6 197.12 81.4307 197.12 82.42C197.12 83.3067 196.751 84.2633 196.014 85.29C195.939 85.3927 195.837 85.5327 195.706 85.71C195.575 85.878 195.487 85.9947 195.44 86.06L193.2 89H191.31L193.424 86.242L194.04 85.71V85.64C194.021 85.6493 193.928 85.6867 193.76 85.752C193.517 85.8173 193.214 85.85 192.85 85.85C191.935 85.85 191.156 85.5233 190.512 84.87C189.877 84.2073 189.56 83.3907 189.56 82.42ZM191.814 80.964C191.431 81.3373 191.24 81.8227 191.24 82.42C191.24 83.0173 191.431 83.5073 191.814 83.89C192.197 84.2633 192.705 84.45 193.34 84.45C193.975 84.45 194.483 84.2633 194.866 83.89C195.249 83.5073 195.44 83.0173 195.44 82.42C195.44 81.8227 195.249 81.3373 194.866 80.964C194.483 80.5813 193.975 80.39 193.34 80.39C192.705 80.39 192.197 80.5813 191.814 80.964ZM198.173 88.23C198.173 87.95 198.262 87.7167 198.439 87.53C198.626 87.3433 198.855 87.25 199.125 87.25C199.433 87.25 199.676 87.362 199.853 87.586C200.04 87.81 200.133 88.1413 200.133 88.58C200.133 89.2987 199.961 89.8493 199.615 90.232C199.279 90.624 198.822 90.82 198.243 90.82V90.12C198.523 90.12 198.743 90.0407 198.901 89.882C199.069 89.7327 199.153 89.532 199.153 89.28V89.196C199.144 89.1867 199.139 89.168 199.139 89.14V89.098L199.055 89.126C199.027 89.1353 198.967 89.14 198.873 89.14C198.687 89.14 198.523 89.056 198.383 88.888C198.243 88.72 198.173 88.5007 198.173 88.23ZM201.109 89V87.46L204.455 85.094C205.183 84.5713 205.706 84.086 206.023 83.638C206.341 83.19 206.499 82.714 206.499 82.21C206.499 81.678 206.336 81.2533 206.009 80.936C205.683 80.6187 205.239 80.46 204.679 80.46C203.989 80.46 203.471 80.74 203.125 81.3C202.976 81.5427 202.864 81.8227 202.789 82.14H201.109C201.193 81.5427 201.375 81.006 201.655 80.53C202.318 79.4567 203.326 78.92 204.679 78.92C205.715 78.92 206.555 79.228 207.199 79.844C207.853 80.4507 208.179 81.216 208.179 82.14C208.179 82.9427 207.974 83.666 207.563 84.31C207.153 84.9447 206.495 85.5747 205.589 86.2L204.189 87.18L203.559 87.46V87.53L204.399 87.46H208.179V89H201.109ZM209.302 82.42C209.302 81.4307 209.657 80.6 210.366 79.928C211.076 79.256 211.981 78.92 213.082 78.92C214.184 78.92 215.089 79.256 215.798 79.928C216.508 80.6 216.862 81.4307 216.862 82.42C216.862 83.3067 216.494 84.2633 215.756 85.29C215.682 85.3927 215.579 85.5327 215.448 85.71C215.318 85.878 215.229 85.9947 215.182 86.06L212.942 89H211.052L213.166 86.242L213.782 85.71V85.64C213.764 85.6493 213.67 85.6867 213.502 85.752C213.26 85.8173 212.956 85.85 212.592 85.85C211.678 85.85 210.898 85.5233 210.254 84.87C209.62 84.2073 209.302 83.3907 209.302 82.42ZM211.556 80.964C211.174 81.3373 210.982 81.8227 210.982 82.42C210.982 83.0173 211.174 83.5073 211.556 83.89C211.939 84.2633 212.448 84.45 213.082 84.45C213.717 84.45 214.226 84.2633 214.608 83.89C214.991 83.5073 215.182 83.0173 215.182 82.42C215.182 81.8227 214.991 81.3373 214.608 80.964C214.226 80.5813 213.717 80.39 213.082 80.39C212.448 80.39 211.939 80.5813 211.556 80.964Z" fill="#333333"/>
<circle cx="208.5" cy="205.5" r="39.5" fill="#5A5A5A"/>
<path d="M188.72 209.49H190.88C190.976 209.862 191.138 210.18 191.366 210.444C191.894 211.068 192.662 211.38 193.67 211.38C194.474 211.38 195.11 211.164 195.578 210.732C196.046 210.3 196.28 209.736 196.28 209.04C196.28 208.308 196.046 207.72 195.578 207.276C195.11 206.832 194.474 206.61 193.67 206.61C192.926 206.61 192.296 206.808 191.78 207.204C191.576 207.36 191.396 207.552 191.24 207.78H189.26L189.8 200.4H197.45V202.38H191.51L191.24 205.62H191.33C191.522 205.428 191.744 205.266 191.996 205.134C192.56 204.798 193.238 204.63 194.03 204.63C195.29 204.63 196.34 205.05 197.18 205.89C198.02 206.73 198.44 207.78 198.44 209.04C198.44 210.276 197.996 211.308 197.108 212.136C196.232 212.952 195.086 213.36 193.67 213.36C191.822 213.36 190.448 212.718 189.548 211.434C189.164 210.87 188.888 210.222 188.72 209.49ZM199.524 204.54V202.2L201.864 200.4H203.754V213H201.684V202.92L199.524 204.54ZM205.736 212.01C205.736 211.65 205.85 211.35 206.078 211.11C206.318 210.87 206.612 210.75 206.96 210.75C207.356 210.75 207.668 210.894 207.896 211.182C208.136 211.47 208.256 211.896 208.256 212.46C208.256 213.384 208.034 214.092 207.59 214.584C207.158 215.088 206.57 215.34 205.826 215.34V214.44C206.186 214.44 206.468 214.338 206.672 214.134C206.888 213.942 206.996 213.684 206.996 213.36V213.252C206.984 213.24 206.978 213.216 206.978 213.18V213.126L206.87 213.162C206.834 213.174 206.756 213.18 206.636 213.18C206.396 213.18 206.186 213.072 206.006 212.856C205.826 212.64 205.736 212.358 205.736 212.01ZM209.601 208.86C209.601 208.284 209.727 207.684 209.979 207.06C210.243 206.424 210.495 205.926 210.735 205.566C210.987 205.194 211.329 204.732 211.761 204.18L214.641 200.4H217.071L214.353 203.946L213.561 204.63V204.72L213.921 204.594C214.281 204.498 214.671 204.45 215.091 204.45C216.267 204.45 217.263 204.876 218.079 205.728C218.907 206.568 219.321 207.612 219.321 208.86C219.321 210.132 218.865 211.2 217.953 212.064C217.041 212.928 215.877 213.36 214.461 213.36C213.045 213.36 211.881 212.928 210.969 212.064C210.057 211.2 209.601 210.132 209.601 208.86ZM212.499 206.988C212.007 207.468 211.761 208.092 211.761 208.86C211.761 209.628 212.007 210.258 212.499 210.75C212.991 211.23 213.645 211.47 214.461 211.47C215.277 211.47 215.931 211.23 216.423 210.75C216.915 210.258 217.161 209.628 217.161 208.86C217.161 208.092 216.915 207.468 216.423 206.988C215.931 206.496 215.277 206.25 214.461 206.25C213.645 206.25 212.991 206.496 212.499 206.988ZM220.495 204.54V202.2L222.835 200.4H224.725V213H222.655V202.92L220.495 204.54Z" fill="white"/>
</svg>
