<svg width="286" height="631" viewBox="0 0 286 631" fill="none" xmlns="http://www.w3.org/2000/svg">
<path d="M7 547H144V30H7V547Z" fill="#E7FFD5"/>
<path d="M0 292H267V231H0V292Z" fill="#E7FFD5"/>
<path d="M83.42 596.2H85.1C85.1653 596.489 85.2913 596.746 85.478 596.97C85.898 597.483 86.4953 597.74 87.27 597.74C87.914 597.74 88.4227 597.581 88.796 597.264C89.1787 596.937 89.37 596.536 89.37 596.06C89.37 595.519 89.1973 595.094 88.852 594.786C88.516 594.469 88.0353 594.31 87.41 594.31H85.03V592.91L87.97 590.81V590.74H83.91V589.2H90.35V590.726L87.83 592.56L87.13 592.84V592.91L87.354 592.882C87.662 592.854 87.844 592.84 87.9 592.84C88.7773 592.84 89.51 593.143 90.098 593.75C90.686 594.357 90.98 595.127 90.98 596.06C90.98 596.956 90.6347 597.717 89.944 598.342C89.2533 598.967 88.362 599.28 87.27 599.28C85.8233 599.28 84.7547 598.767 84.064 597.74C83.7653 597.301 83.5507 596.788 83.42 596.2ZM92.0366 598.23C92.0366 597.95 92.1252 597.717 92.3026 597.53C92.4892 597.343 92.7179 597.25 92.9886 597.25C93.2966 597.25 93.5392 597.362 93.7166 597.586C93.9032 597.81 93.9966 598.141 93.9966 598.58C93.9966 599.299 93.8239 599.849 93.4786 600.232C93.1426 600.624 92.6852 600.82 92.1066 600.82V600.12C92.3866 600.12 92.6059 600.041 92.7646 599.882C92.9326 599.733 93.0166 599.532 93.0166 599.28V599.196C93.0072 599.187 93.0026 599.168 93.0026 599.14V599.098L92.9186 599.126C92.8906 599.135 92.8299 599.14 92.7366 599.14C92.5499 599.14 92.3866 599.056 92.2466 598.888C92.1066 598.72 92.0366 598.501 92.0366 598.23ZM95.0427 595.78C95.0427 595.332 95.1407 594.865 95.3367 594.38C95.5421 593.885 95.7381 593.498 95.9247 593.218C96.1207 592.929 96.3867 592.569 96.7227 592.14L98.9627 589.2H100.853L98.7387 591.958L98.1227 592.49V592.56L98.4027 592.462C98.6827 592.387 98.9861 592.35 99.3127 592.35C100.227 592.35 101.002 592.681 101.637 593.344C102.281 593.997 102.603 594.809 102.603 595.78C102.603 596.769 102.248 597.6 101.539 598.272C100.829 598.944 99.9241 599.28 98.8227 599.28C97.7214 599.28 96.8161 598.944 96.1067 598.272C95.3974 597.6 95.0427 596.769 95.0427 595.78ZM97.2967 594.324C96.9141 594.697 96.7227 595.183 96.7227 595.78C96.7227 596.377 96.9141 596.867 97.2967 597.25C97.6794 597.623 98.1881 597.81 98.8227 597.81C99.4574 597.81 99.9661 597.623 100.349 597.25C100.731 596.867 100.923 596.377 100.923 595.78C100.923 595.183 100.731 594.697 100.349 594.324C99.9661 593.941 99.4574 593.75 98.8227 593.75C98.1881 593.75 97.6794 593.941 97.2967 594.324ZM103.656 595.78C103.656 595.332 103.754 594.865 103.95 594.38C104.155 593.885 104.351 593.498 104.538 593.218C104.734 592.929 105 592.569 105.336 592.14L107.576 589.2H109.466L107.352 591.958L106.736 592.49V592.56L107.016 592.462C107.296 592.387 107.599 592.35 107.926 592.35C108.841 592.35 109.615 592.681 110.25 593.344C110.894 593.997 111.216 594.809 111.216 595.78C111.216 596.769 110.861 597.6 110.152 598.272C109.443 598.944 108.537 599.28 107.436 599.28C106.335 599.28 105.429 598.944 104.72 598.272C104.011 597.6 103.656 596.769 103.656 595.78ZM105.91 594.324C105.527 594.697 105.336 595.183 105.336 595.78C105.336 596.377 105.527 596.867 105.91 597.25C106.293 597.623 106.801 597.81 107.436 597.81C108.071 597.81 108.579 597.623 108.962 597.25C109.345 596.867 109.536 596.377 109.536 595.78C109.536 595.183 109.345 594.697 108.962 594.324C108.579 593.941 108.071 593.75 107.436 593.75C106.801 593.75 106.293 593.941 105.91 594.324Z" fill="#333333"/>
<path d="M72.35 518.42V516.6L74.17 515.2H75.64V525H74.03V517.16L72.35 518.42ZM76.8311 523.04V521.5L80.1211 515.2H81.8711L78.5811 521.5H81.8011V519.12H81.8711H83.4111V521.5H84.8111V523.04H83.4111V525H81.8011V523.04H76.8311ZM85.3705 524.23C85.3705 523.95 85.4592 523.717 85.6365 523.53C85.8232 523.343 86.0519 523.25 86.3225 523.25C86.6305 523.25 86.8732 523.362 87.0505 523.586C87.2372 523.81 87.3305 524.141 87.3305 524.58C87.3305 525.299 87.1579 525.849 86.8125 526.232C86.4765 526.624 86.0192 526.82 85.4405 526.82V526.12C85.7205 526.12 85.9399 526.041 86.0985 525.882C86.2665 525.733 86.3505 525.532 86.3505 525.28V525.196C86.3412 525.187 86.3365 525.168 86.3365 525.14V525.098L86.2525 525.126C86.2245 525.135 86.1639 525.14 86.0705 525.14C85.8839 525.14 85.7205 525.056 85.5805 524.888C85.4405 524.72 85.3705 524.501 85.3705 524.23ZM88.3067 522.2H89.9867C90.0521 522.489 90.1781 522.746 90.3647 522.97C90.7847 523.483 91.3821 523.74 92.1567 523.74C92.8007 523.74 93.3094 523.581 93.6827 523.264C94.0654 522.937 94.2567 522.536 94.2567 522.06C94.2567 521.519 94.0841 521.094 93.7387 520.786C93.4027 520.469 92.9221 520.31 92.2967 520.31H89.9167V518.91L92.8567 516.81V516.74H88.7967V515.2H95.2367V516.726L92.7167 518.56L92.0167 518.84V518.91L92.2407 518.882C92.5487 518.854 92.7307 518.84 92.7867 518.84C93.6641 518.84 94.3967 519.143 94.9847 519.75C95.5727 520.357 95.8667 521.127 95.8667 522.06C95.8667 522.956 95.5214 523.717 94.8307 524.342C94.1401 524.967 93.2487 525.28 92.1567 525.28C90.7101 525.28 89.6414 524.767 88.9507 523.74C88.6521 523.301 88.4374 522.788 88.3067 522.2ZM96.7833 525V523.46L100.129 521.094C100.857 520.571 101.38 520.086 101.697 519.638C102.015 519.19 102.173 518.714 102.173 518.21C102.173 517.678 102.01 517.253 101.683 516.936C101.357 516.619 100.913 516.46 100.353 516.46C99.6626 516.46 99.1446 516.74 98.7993 517.3C98.6499 517.543 98.5379 517.823 98.4633 518.14H96.7833C96.8673 517.543 97.0493 517.006 97.3293 516.53C97.9919 515.457 98.9999 514.92 100.353 514.92C101.389 514.92 102.229 515.228 102.873 515.844C103.527 516.451 103.853 517.216 103.853 518.14C103.853 518.943 103.648 519.666 103.237 520.31C102.827 520.945 102.169 521.575 101.263 522.2L99.8633 523.18L99.2333 523.46V523.53L100.073 523.46H103.853V525H96.7833Z" fill="#333333"/>
<path d="M185.35 259.42V257.6L187.17 256.2H188.64V266H187.03V258.16L185.35 259.42ZM190.041 266V264.46L193.387 262.094C194.115 261.571 194.638 261.086 194.955 260.638C195.272 260.19 195.431 259.714 195.431 259.21C195.431 258.678 195.268 258.253 194.941 257.936C194.614 257.619 194.171 257.46 193.611 257.46C192.92 257.46 192.402 257.74 192.057 258.3C191.908 258.543 191.796 258.823 191.721 259.14H190.041C190.125 258.543 190.307 258.006 190.587 257.53C191.25 256.457 192.258 255.92 193.611 255.92C194.647 255.92 195.487 256.228 196.131 256.844C196.784 257.451 197.111 258.216 197.111 259.14C197.111 259.943 196.906 260.666 196.495 261.31C196.084 261.945 195.426 262.575 194.521 263.2L193.121 264.18L192.491 264.46V264.53L193.331 264.46H197.111V266H190.041ZM198.234 265.23C198.234 264.95 198.322 264.717 198.5 264.53C198.686 264.343 198.915 264.25 199.186 264.25C199.494 264.25 199.736 264.362 199.914 264.586C200.1 264.81 200.194 265.141 200.194 265.58C200.194 266.299 200.021 266.849 199.676 267.232C199.34 267.624 198.882 267.82 198.304 267.82V267.12C198.584 267.12 198.803 267.041 198.962 266.882C199.13 266.733 199.214 266.532 199.214 266.28V266.196C199.204 266.187 199.2 266.168 199.2 266.14V266.098L199.116 266.126C199.088 266.135 199.027 266.14 198.934 266.14C198.747 266.14 198.584 266.056 198.444 265.888C198.304 265.72 198.234 265.501 198.234 265.23ZM202.71 264.824C201.823 263.853 201.38 262.612 201.38 261.1C201.38 259.588 201.823 258.347 202.71 257.376C203.597 256.405 204.67 255.92 205.93 255.92C207.19 255.92 208.263 256.405 209.15 257.376C210.037 258.347 210.48 259.588 210.48 261.1C210.48 262.612 210.037 263.853 209.15 264.824C208.263 265.795 207.19 266.28 205.93 266.28C204.67 266.28 203.597 265.795 202.71 264.824ZM203.858 258.412C203.326 259.047 203.06 259.943 203.06 261.1C203.06 262.257 203.326 263.153 203.858 263.788C204.399 264.423 205.09 264.74 205.93 264.74C206.77 264.74 207.456 264.423 207.988 263.788C208.529 263.153 208.8 262.257 208.8 261.1C208.8 259.943 208.529 259.047 207.988 258.412C207.456 257.777 206.77 257.46 205.93 257.46C205.09 257.46 204.399 257.777 203.858 258.412ZM213.073 264.824C212.187 263.853 211.743 262.612 211.743 261.1C211.743 259.588 212.187 258.347 213.073 257.376C213.96 256.405 215.033 255.92 216.293 255.92C217.553 255.92 218.627 256.405 219.513 257.376C220.4 258.347 220.843 259.588 220.843 261.1C220.843 262.612 220.4 263.853 219.513 264.824C218.627 265.795 217.553 266.28 216.293 266.28C215.033 266.28 213.96 265.795 213.073 264.824ZM214.221 258.412C213.689 259.047 213.423 259.943 213.423 261.1C213.423 262.257 213.689 263.153 214.221 263.788C214.763 264.423 215.453 264.74 216.293 264.74C217.133 264.74 217.819 264.423 218.351 263.788C218.893 263.153 219.163 262.257 219.163 261.1C219.163 259.943 218.893 259.047 218.351 258.412C217.819 257.777 217.133 257.46 216.293 257.46C215.453 257.46 214.763 257.777 214.221 258.412Z" fill="#333333"/>
<path d="M80.35 143.42V141.6L82.17 140.2H83.64V150H82.03V142.16L80.35 143.42ZM85.1811 147.34C85.1811 146.491 85.5078 145.814 86.1611 145.31C86.4411 145.114 86.7678 144.965 87.1411 144.862V144.778C86.8518 144.666 86.5951 144.512 86.3711 144.316C85.8578 143.877 85.6011 143.299 85.6011 142.58C85.6011 141.843 85.9138 141.217 86.5391 140.704C87.1738 140.181 88.0278 139.92 89.1011 139.92C90.1744 139.92 91.0238 140.181 91.6491 140.704C92.2838 141.217 92.6011 141.843 92.6011 142.58C92.6011 143.28 92.3444 143.859 91.8311 144.316C91.5884 144.512 91.3318 144.666 91.0611 144.778V144.862C91.4158 144.955 91.7424 145.109 92.0411 145.324C92.6944 145.828 93.0211 146.5 93.0211 147.34C93.0211 148.152 92.6664 148.847 91.9571 149.426C91.2571 149.995 90.3051 150.28 89.1011 150.28C87.8971 150.28 86.9404 149.995 86.2311 149.426C85.5311 148.847 85.1811 148.152 85.1811 147.34ZM87.2811 142.72C87.2811 143.131 87.4398 143.467 87.7571 143.728C88.0744 143.989 88.5224 144.12 89.1011 144.12C89.6798 144.12 90.1278 143.989 90.4451 143.728C90.7624 143.467 90.9211 143.131 90.9211 142.72C90.9211 142.347 90.7578 142.034 90.4311 141.782C90.1138 141.521 89.6704 141.39 89.1011 141.39C88.5318 141.39 88.0838 141.521 87.7571 141.782C87.4398 142.034 87.2811 142.347 87.2811 142.72ZM87.4491 146.066C87.0571 146.374 86.8611 146.752 86.8611 147.2C86.8611 147.648 87.0571 148.031 87.4491 148.348C87.8504 148.656 88.4011 148.81 89.1011 148.81C89.8011 148.81 90.3471 148.656 90.7391 148.348C91.1404 148.031 91.3411 147.648 91.3411 147.2C91.3411 146.752 91.1404 146.374 90.7391 146.066C90.3471 145.749 89.8011 145.59 89.1011 145.59C88.4011 145.59 87.8504 145.749 87.4491 146.066ZM94.1362 149.23C94.1362 148.95 94.2248 148.717 94.4022 148.53C94.5888 148.343 94.8175 148.25 95.0882 148.25C95.3962 148.25 95.6388 148.362 95.8162 148.586C96.0028 148.81 96.0962 149.141 96.0962 149.58C96.0962 150.299 95.9235 150.849 95.5782 151.232C95.2422 151.624 94.7848 151.82 94.2062 151.82V151.12C94.4862 151.12 94.7055 151.041 94.8642 150.882C95.0322 150.733 95.1162 150.532 95.1162 150.28V150.196C95.1068 150.187 95.1022 150.168 95.1022 150.14V150.098L95.0182 150.126C94.9902 150.135 94.9295 150.14 94.8362 150.14C94.6495 150.14 94.4862 150.056 94.3462 149.888C94.2062 149.72 94.1362 149.501 94.1362 149.23ZM98.6123 148.824C97.7257 147.853 97.2823 146.612 97.2823 145.1C97.2823 143.588 97.7257 142.347 98.6123 141.376C99.499 140.405 100.572 139.92 101.832 139.92C103.092 139.92 104.166 140.405 105.052 141.376C105.939 142.347 106.382 143.588 106.382 145.1C106.382 146.612 105.939 147.853 105.052 148.824C104.166 149.795 103.092 150.28 101.832 150.28C100.572 150.28 99.499 149.795 98.6123 148.824ZM99.7603 142.412C99.2283 143.047 98.9623 143.943 98.9623 145.1C98.9623 146.257 99.2283 147.153 99.7603 147.788C100.302 148.423 100.992 148.74 101.832 148.74C102.672 148.74 103.358 148.423 103.89 147.788C104.432 147.153 104.702 146.257 104.702 145.1C104.702 143.943 104.432 143.047 103.89 142.412C103.358 141.777 102.672 141.46 101.832 141.46C100.992 141.46 100.302 141.777 99.7603 142.412ZM107.436 150V148.46L110.782 146.094C111.51 145.571 112.032 145.086 112.35 144.638C112.667 144.19 112.826 143.714 112.826 143.21C112.826 142.678 112.662 142.253 112.336 141.936C112.009 141.619 111.566 141.46 111.006 141.46C110.315 141.46 109.797 141.74 109.452 142.3C109.302 142.543 109.19 142.823 109.116 143.14H107.436C107.52 142.543 107.702 142.006 107.982 141.53C108.644 140.457 109.652 139.92 111.006 139.92C112.042 139.92 112.882 140.228 113.526 140.844C114.179 141.451 114.506 142.216 114.506 143.14C114.506 143.943 114.3 144.666 113.89 145.31C113.479 145.945 112.821 146.575 111.916 147.2L110.516 148.18L109.886 148.46V148.53L110.726 148.46H114.506V150H107.436Z" fill="#333333"/>
<circle cx="86.5" cy="453.5" r="39.5" fill="#5A5A5A"/>
<path d="M63.27 458.48V456.5L67.5 448.4H69.75L65.52 456.5H69.66V453.44H69.75H71.73V456.5H73.53V458.48H71.73V461H69.66V458.48H63.27ZM74.2493 452.54C74.2493 451.268 74.7053 450.2 75.6173 449.336C76.5293 448.472 77.6933 448.04 79.1093 448.04C80.5253 448.04 81.6893 448.472 82.6013 449.336C83.5133 450.2 83.9693 451.268 83.9693 452.54C83.9693 453.68 83.4953 454.91 82.5473 456.23C82.4513 456.362 82.3193 456.542 82.1513 456.77C81.9833 456.986 81.8693 457.136 81.8093 457.22L78.9293 461H76.4993L79.2173 457.454L80.0093 456.77V456.68C79.9853 456.692 79.8653 456.74 79.6493 456.824C79.3373 456.908 78.9473 456.95 78.4793 456.95C77.3033 456.95 76.3013 456.53 75.4733 455.69C74.6573 454.838 74.2493 453.788 74.2493 452.54ZM77.1473 450.668C76.6553 451.148 76.4093 451.772 76.4093 452.54C76.4093 453.308 76.6553 453.938 77.1473 454.43C77.6393 454.91 78.2933 455.15 79.1093 455.15C79.9253 455.15 80.5793 454.91 81.0713 454.43C81.5633 453.938 81.8093 453.308 81.8093 452.54C81.8093 451.772 81.5633 451.148 81.0713 450.668C80.5793 450.176 79.9253 449.93 79.1093 449.93C78.2933 449.93 77.6393 450.176 77.1473 450.668ZM85.3235 460.01C85.3235 459.65 85.4375 459.35 85.6655 459.11C85.9055 458.87 86.1995 458.75 86.5475 458.75C86.9435 458.75 87.2555 458.894 87.4835 459.182C87.7235 459.47 87.8435 459.896 87.8435 460.46C87.8435 461.384 87.6215 462.092 87.1775 462.584C86.7455 463.088 86.1575 463.34 85.4135 463.34V462.44C85.7735 462.44 86.0555 462.338 86.2595 462.134C86.4755 461.942 86.5835 461.684 86.5835 461.36V461.252C86.5715 461.24 86.5655 461.216 86.5655 461.18V461.126L86.4575 461.162C86.4215 461.174 86.3435 461.18 86.2235 461.18C85.9835 461.18 85.7735 461.072 85.5935 460.856C85.4135 460.64 85.3235 460.358 85.3235 460.01ZM89.0086 452.54V450.2L91.3486 448.4H93.2386V461H91.1686V450.92L89.0086 452.54ZM95.04 457.4H97.2C97.284 457.772 97.446 458.102 97.686 458.39C98.226 459.05 98.994 459.38 99.99 459.38C100.818 459.38 101.472 459.176 101.952 458.768C102.444 458.348 102.69 457.832 102.69 457.22C102.69 456.524 102.468 455.978 102.024 455.582C101.592 455.174 100.974 454.97 100.17 454.97H97.11V453.17L100.89 450.47V450.38H95.67V448.4H103.95V450.362L100.71 452.72L99.81 453.08V453.17L100.098 453.134C100.494 453.098 100.728 453.08 100.8 453.08C101.928 453.08 102.87 453.47 103.626 454.25C104.382 455.03 104.76 456.02 104.76 457.22C104.76 458.372 104.316 459.35 103.428 460.154C102.54 460.958 101.394 461.36 99.99 461.36C98.13 461.36 96.756 460.7 95.868 459.38C95.484 458.816 95.208 458.156 95.04 457.4Z" fill="white"/>
<rect width="84" height="99" transform="matrix(1 0 0 -1 7 384)" fill="#FDFF9F"/>
<rect width="30" height="577" transform="matrix(1 0 0 -1 0 577)" fill="#5A5A5A"/>
<path d="M54.21 342.04V340.5L57.5 334.2H59.25L55.96 340.5H59.18V338.12H59.25H60.79V340.5H62.19V342.04H60.79V344H59.18V342.04H54.21ZM62.7495 343.23C62.7495 342.95 62.8381 342.717 63.0155 342.53C63.2021 342.343 63.4308 342.25 63.7015 342.25C64.0095 342.25 64.2521 342.362 64.4295 342.586C64.6161 342.81 64.7095 343.141 64.7095 343.58C64.7095 344.299 64.5368 344.849 64.1915 345.232C63.8555 345.624 63.3981 345.82 62.8195 345.82V345.12C63.0995 345.12 63.3188 345.041 63.4775 344.882C63.6455 344.733 63.7295 344.532 63.7295 344.28V344.196C63.7201 344.187 63.7155 344.168 63.7155 344.14V344.098L63.6315 344.126C63.6035 344.135 63.5428 344.14 63.4495 344.14C63.2628 344.14 63.0995 344.056 62.9595 343.888C62.8195 343.72 62.7495 343.501 62.7495 343.23ZM65.4056 335.74V334.2H72.0556V335.74L68.1356 344H66.3856L70.2356 335.88V335.74H65.4056ZM72.894 337.42C72.894 336.431 73.2487 335.6 73.958 334.928C74.6673 334.256 75.5727 333.92 76.674 333.92C77.7753 333.92 78.6807 334.256 79.39 334.928C80.0993 335.6 80.454 336.431 80.454 337.42C80.454 338.307 80.0853 339.263 79.348 340.29C79.2733 340.393 79.1707 340.533 79.04 340.71C78.9093 340.878 78.8207 340.995 78.774 341.06L76.534 344H74.644L76.758 341.242L77.374 340.71V340.64C77.3553 340.649 77.262 340.687 77.094 340.752C76.8513 340.817 76.548 340.85 76.184 340.85C75.2693 340.85 74.49 340.523 73.846 339.87C73.2113 339.207 72.894 338.391 72.894 337.42ZM75.148 335.964C74.7653 336.337 74.574 336.823 74.574 337.42C74.574 338.017 74.7653 338.507 75.148 338.89C75.5307 339.263 76.0393 339.45 76.674 339.45C77.3087 339.45 77.8173 339.263 78.2 338.89C78.5827 338.507 78.774 338.017 78.774 337.42C78.774 336.823 78.5827 336.337 78.2 335.964C77.8173 335.581 77.3087 335.39 76.674 335.39C76.0393 335.39 75.5307 335.581 75.148 335.964Z" fill="#333333"/>
<path d="M29.9998 115.033L54.9951 115.033L54.9951 90.7086L29.9998 90.7086L29.9998 115.033Z" fill="white" stroke="#5A5A5A" stroke-width="0.5"/>
<path d="M52.9687 114.107L33.5157 114.107C32.7778 114.107 32.3853 113.714 32.3853 112.945L32.3853 92.7971C32.3853 92.012 32.7621 91.6351 33.5157 91.6351L52.9687 91.6351C53.7223 91.6194 54.0992 92.012 54.0992 92.7814L54.0992 112.929C54.1149 113.714 53.7223 114.107 52.9687 114.107Z" fill="white" stroke="#5A5A5A" stroke-width="0.5"/>
<path d="M51.1797 107.605C51.164 105.815 49.7509 104.355 48.0082 104.355C46.2497 104.355 44.8367 105.815 44.8367 107.605C44.8367 109.411 46.2497 110.856 48.0082 110.856C49.7666 110.856 51.1797 109.411 51.1797 107.605Z" stroke="#5A5A5A" stroke-width="0.5"/>
<path d="M51.1493 97.9795C51.1336 96.1893 49.7205 94.7288 47.9778 94.7288C46.2193 94.7288 44.8063 96.1893 44.8063 97.9795C44.8063 99.7854 46.2193 101.23 47.9778 101.23C49.7362 101.246 51.165 99.7854 51.1493 97.9795Z" stroke="#5A5A5A" stroke-width="0.5"/>
<path d="M42.1357 97.9796C42.1357 96.1737 40.7227 94.729 38.9642 94.729C37.2058 94.729 35.7927 96.1894 35.7927 97.9796C35.8084 99.7698 37.2215 101.23 38.9642 101.23C40.707 101.23 42.1357 99.7698 42.1357 97.9796Z" stroke="#5A5A5A" stroke-width="0.5"/>
<path d="M42.1357 107.605C42.1357 105.8 40.7227 104.355 38.9642 104.355C37.2058 104.355 35.7927 105.815 35.7927 107.605C35.8084 109.396 37.2215 110.856 38.9642 110.856C40.707 110.856 42.1357 109.396 42.1357 107.605Z" stroke="#5A5A5A" stroke-width="0.5"/>
<path d="M30.0151 139.301H54.1036L54.1036 163H30L30.0151 139.301Z" fill="white" stroke="#5A5A5A" stroke-width="0.5"/>
<path d="M36.6218 141.104L49.9386 141.104C50.681 141.104 51.0446 141.468 51.0446 142.225L51.0446 159.833C51.0446 160.56 50.681 160.939 49.9538 160.954L36.6218 160.939C35.8946 160.954 35.531 160.576 35.531 159.833L35.531 142.225C35.5007 141.483 35.8794 141.104 36.6218 141.104Z" fill="white" stroke="#5A5A5A" stroke-width="0.5"/>
<path d="M31.8633 151.029C31.8784 151.954 32.5753 152.696 33.454 152.696L40.4382 152.044L40.4533 152.029C40.9836 152.029 41.4078 151.59 41.4078 151.029C41.4078 150.469 40.9836 150.029 40.4382 150.014L33.454 149.362C32.5905 149.362 31.8784 150.105 31.8633 151.029Z" stroke="#5A5A5A" stroke-width="0.5"/>
<mask id="path-20-inside-1_50_13164" fill="white">
<path fill-rule="evenodd" clip-rule="evenodd" d="M32.5459 152.408L36.3485 152.045C36.8788 152.03 37.3181 151.59 37.303 151.014C37.303 150.454 36.8788 150.029 36.3485 150.014L32.5459 149.651"/>
</mask>
<path fill-rule="evenodd" clip-rule="evenodd" d="M32.5459 152.408L36.3485 152.045C36.8788 152.03 37.3181 151.59 37.303 151.014C37.303 150.454 36.8788 150.029 36.3485 150.014L32.5459 149.651" fill="white"/>
<path d="M36.3485 152.045L36.3343 151.545L36.3176 151.545L36.3009 151.547L36.3485 152.045ZM37.303 151.014H36.8028L36.8032 151.027L37.303 151.014ZM36.3485 150.014L36.3009 150.512L36.3176 150.514L36.3343 150.514L36.3485 150.014ZM32.5935 152.906L36.3961 152.542L36.3009 151.547L32.4983 151.911L32.5935 152.906ZM36.3628 152.544C37.1678 152.521 37.8252 151.853 37.8028 151.001L36.8032 151.027C36.811 151.327 36.5898 151.538 36.3343 151.545L36.3628 152.544ZM37.803 151.014C37.803 150.185 37.1654 149.537 36.3628 149.514L36.3343 150.514C36.5922 150.521 36.803 150.722 36.803 151.014H37.803ZM36.3961 149.516L32.5935 149.153L32.4983 150.148L36.3009 150.512L36.3961 149.516Z" fill="#5A5A5A" mask="url(#path-20-inside-1_50_13164)"/>
<rect width="8" height="71" transform="matrix(-4.37114e-08 -1 -1 4.37114e-08 101 392)" fill="#5A5A5A"/>
<rect width="8" height="71" transform="matrix(-4.37114e-08 -1 -1 4.37114e-08 101 286)" fill="#5A5A5A"/>
<rect width="8" height="9" transform="matrix(-4.37114e-08 -1 -1 4.37114e-08 144 235)" fill="#5A5A5A"/>
<rect width="8" height="9" transform="matrix(-4.37114e-08 -1 -1 4.37114e-08 38 235)" fill="#5A5A5A"/>
<rect width="8" height="34" transform="matrix(-1 8.74228e-08 8.74228e-08 1 98 352)" fill="#5A5A5A"/>
<path d="M49.2982 365.28L48.1177 365.264L45.0517 365.28L37.4605 365.28L37.4605 355.323L49.2982 355.323C52.3151 355.323 54.7744 357.567 54.7744 360.318C54.7744 363.037 52.3151 365.28 49.2982 365.28Z" fill="white" stroke="#5A5A5A" stroke-width="0.5"/>
<path d="M49.2329 364.134L48.2983 364.134L40.7398 364.134L40.7398 356.453L48.2983 356.453L49.2329 356.47C51.6102 356.47 53.5449 358.173 53.5449 360.302C53.5285 362.414 51.5938 364.134 49.2329 364.134Z" fill="white" stroke="#5A5A5A" stroke-width="0.5"/>
<path d="M31.0984 353.522L36.3614 353.522C36.9681 353.522 37.46 354.013 37.46 354.619L37.46 365.903C37.46 366.509 36.9681 367 36.3614 367L31.0984 367C30.4917 367 29.9998 366.509 29.9998 365.903L29.9998 354.635C29.9998 354.013 30.4917 353.522 31.0984 353.522Z" fill="white" stroke="#5A5A5A" stroke-width="0.5"/>
<path d="M33.7224 359.614C34.1323 359.614 34.4437 359.909 34.4437 360.253C34.4601 360.613 34.1323 360.908 33.7224 360.908C33.3125 360.908 33.001 360.613 33.001 360.269C33.0174 359.892 33.3289 359.597 33.7224 359.614Z" fill="white" stroke="#5A5A5A" stroke-width="0.5"/>
<path d="M31.5403 320.404L43.8483 320.404C44.7041 320.404 45.3886 321.087 45.3886 321.942L45.3886 340.461C45.3886 341.316 44.7041 342 43.8483 342L31.5403 342C30.6846 342 30 341.316 30 340.461L30 321.942C30 321.102 30.6846 320.404 31.5403 320.404Z" fill="white" stroke="#5A5A5A" stroke-width="0.5"/>
<path d="M36.232 322.327L38.1288 322.327C40.6246 322.327 42.6498 324.35 42.6498 326.843L42.6498 335.561C42.6498 338.054 40.6246 340.077 38.1288 340.077L36.232 340.077C33.7361 340.077 31.7109 338.054 31.7109 335.561L31.7109 326.843C31.7109 324.35 33.7361 322.327 36.232 322.327Z" fill="white" stroke="#5A5A5A" stroke-width="0.5"/>
<path d="M34.1217 330.247C34.6651 330.247 35.1057 330.674 35.1057 331.201C35.1057 331.728 34.6651 332.156 34.1217 332.156C33.5782 332.156 33.1377 331.728 33.1377 331.201C33.1377 330.674 33.5782 330.247 34.1217 330.247Z" fill="white" stroke="#5A5A5A" stroke-width="0.5"/>
<path d="M31.3858 312.611L91.5065 312.611C92.2764 312.611 92.8923 311.996 92.8923 311.227L92.8923 287.36C92.8923 286.591 92.2764 285.976 91.5065 285.976L31.3858 285.976C30.6159 285.976 30 286.591 30 287.36L30 311.227C30 311.996 30.6299 312.611 31.3858 312.611Z" fill="white" stroke="#5A5A5A" stroke-width="0.5"/>
<path d="M89.197 302.53L89.197 296.042C89.197 292.281 86.1455 289.247 82.3941 289.247L35.0534 289.247C34.1296 289.247 33.3877 289.988 33.3877 290.911L33.3877 307.689C33.3877 308.612 34.1296 309.353 35.0534 309.353L82.3801 309.353C86.1455 309.339 89.197 306.291 89.197 302.53Z" fill="white" stroke="#5A5A5A" stroke-width="0.5"/>
<path d="M39.0003 299.762C39.0003 300.511 38.3673 301.118 37.5866 301.118C36.8058 301.118 36.1729 300.511 36.1729 299.762C36.1729 299.013 36.8058 298.406 37.5866 298.406C38.3673 298.406 39.0003 299.013 39.0003 299.762Z" fill="white" stroke="#5A5A5A" stroke-width="0.5"/>
<path d="M90.5875 361.976L90.5875 383.986L69 384L69.014 361.99L90.5875 361.976Z" fill="white" stroke="#5A5A5A" stroke-width="0.5"/>
<path d="M74.2568 372.995C74.2568 376.109 76.7316 378.623 79.7935 378.623C82.8555 378.623 85.3302 376.109 85.3302 372.981C85.3302 369.867 82.8555 367.325 79.7935 367.325C76.7316 367.339 74.2568 369.881 74.2568 372.995Z" stroke="#5A5A5A" stroke-width="0.5"/>
<path d="M79.7939 368.875C78.6754 368.861 77.6687 369.322 76.9417 370.076C76.2146 370.83 75.7672 371.864 75.7533 372.981M79.7799 377.115C78.6754 377.115 77.6687 376.654 76.9277 375.914C76.2006 375.16 75.7393 374.14 75.7393 372.995L79.7799 377.115ZM79.7939 368.875C80.8984 368.875 81.9051 369.336 82.6461 370.076C83.3732 370.83 83.8206 371.864 83.8206 372.995L79.7939 368.875ZM79.7799 377.115C80.9124 377.115 81.9191 376.654 82.6322 375.914L82.6461 375.9C83.3592 375.16 83.8206 374.14 83.8206 373.009L79.7799 377.115Z" stroke="#5A5A5A" stroke-width="0.5"/>
<rect width="8" height="40" transform="matrix(-1 8.74228e-08 8.74228e-08 1 98 285)" fill="#5A5A5A"/>
<rect width="30" height="70" transform="matrix(-4.37114e-08 -1 -1 4.37114e-08 70 577)" fill="#5A5A5A"/>
<line x1="69.7428" y1="563.571" x2="94.7428" y2="548.571" stroke="#5A5A5A"/>
<path d="M132.75 630.75L51.282 630.687L51.2517 626.25L132.75 626.25L132.75 630.75Z" stroke="#5A5A5A" stroke-width="0.5" stroke-miterlimit="10"/>
<rect width="5" height="74" transform="matrix(1 0 0 -1 149 631)" fill="#5A5A5A"/>
<rect width="5" height="74" transform="matrix(1 0 0 -1 46 631)" fill="#5A5A5A"/>
<rect width="5" height="19" transform="matrix(-4.37114e-08 -1 -1 4.37114e-08 65 631)" fill="#5A5A5A"/>
<rect width="5" height="86" transform="matrix(-4.37114e-08 -1 -1 4.37114e-08 151 631)" fill="#5A5A5A"/>
<path d="M97.25 576.75L157.726 576.687L157.749 572.25L97.25 572.25L97.25 576.75Z" stroke="#5A5A5A" stroke-width="0.5" stroke-miterlimit="10"/>
<path d="M97.25 566.75L157.726 566.687L157.749 562.25L97.25 562.25L97.25 566.75Z" stroke="#5A5A5A" stroke-width="0.5" stroke-miterlimit="10"/>
<rect width="30" height="35" transform="matrix(-4.37114e-08 -1 -1 4.37114e-08 160 577)" fill="#5A5A5A"/>
<rect width="30" height="43" transform="matrix(-4.37114e-08 -1 -1 4.37114e-08 160 30)" fill="#5A5A5A"/>
<rect width="30" height="43" transform="matrix(-4.37114e-08 -1 -1 4.37114e-08 52 30)" fill="#5A5A5A"/>
<rect width="16" height="235" transform="matrix(1 0 0 -1 144 235)" fill="#5A5A5A"/>
<rect width="16" height="139" transform="matrix(-4.37114e-08 -1 -1 4.37114e-08 283 235)" fill="#5A5A5A"/>
<rect width="16" height="139" transform="matrix(-4.37114e-08 -1 -1 4.37114e-08 283 301)" fill="#5A5A5A"/>
<rect width="16" height="26" transform="matrix(-1 8.74228e-08 8.74228e-08 1 267 275)" fill="#5A5A5A"/>
<rect width="16" height="20" transform="matrix(-1 8.74228e-08 8.74228e-08 1 267 220)" fill="#5A5A5A"/>
<rect width="16" height="266" transform="matrix(-1 8.74228e-08 8.74228e-08 1 160 285)" fill="#5A5A5A"/>
<path d="M139.75 29.7497L7.30344 29.5982L7.25115 18.25L139.75 18.25L139.75 29.7497Z" stroke="#5A5A5A" stroke-width="0.5" stroke-miterlimit="10"/>
<path d="M139.75 11.7497L7.30344 11.5982L7.25115 0.250008L139.75 0.250002L139.75 11.7497Z" stroke="#5A5A5A" stroke-width="0.5" stroke-miterlimit="10"/>
<line x1="146.277" y1="390.416" x2="125.277" y2="404.416" stroke="#5A5A5A"/>
<line y1="-0.5" x2="25.2389" y2="-0.5" transform="matrix(0.83205 0.5547 0.5547 -0.83205 99 390)" stroke="#5A5A5A"/>
<line x1="95.5695" y1="352.746" x2="108.57" y2="330.746" stroke="#5A5A5A"/>
<line y1="-0.5" x2="36.8917" y2="-0.5" transform="matrix(0.542127 0.840297 0.840297 -0.542127 266 238)" stroke="#5A5A5A"/>
<path d="M35.2497 227.25L72.8916 227.275L72.9033 228.75L35.2497 228.75L35.2497 227.25Z" stroke="#5A5A5A" stroke-width="0.5" stroke-miterlimit="10"/>
<path d="M98.0944 227.25L135.736 227.275L135.748 228.75L98.0944 228.75L98.0944 227.25Z" stroke="#5A5A5A" stroke-width="0.5" stroke-miterlimit="10"/>
<path d="M66.6716 225.25L104.313 225.275L104.325 226.75L66.6716 226.75L66.6716 225.25Z" stroke="#5A5A5A" stroke-width="0.5" stroke-miterlimit="10"/>
</svg>
