<svg width="300" height="631" viewBox="0 0 300 631" fill="none" xmlns="http://www.w3.org/2000/svg">
<path d="M7 84H144V601H7V84Z" fill="#FFF8BA"/>
<path d="M0 345H267V400H0V345Z" fill="#FFF8BA"/>
<path d="M105.35 209.42V207.6L107.17 206.2H108.64V216H107.03V208.16L105.35 209.42ZM110.041 216V214.46L113.387 212.094C114.115 211.571 114.638 211.086 114.955 210.638C115.272 210.19 115.431 209.714 115.431 209.21C115.431 208.678 115.268 208.253 114.941 207.936C114.614 207.619 114.171 207.46 113.611 207.46C112.92 207.46 112.402 207.74 112.057 208.3C111.908 208.543 111.796 208.823 111.721 209.14H110.041C110.125 208.543 110.307 208.006 110.587 207.53C111.25 206.457 112.258 205.92 113.611 205.92C114.647 205.92 115.487 206.228 116.131 206.844C116.784 207.451 117.111 208.216 117.111 209.14C117.111 209.943 116.906 210.666 116.495 211.31C116.084 211.945 115.426 212.575 114.521 213.2L113.121 214.18L112.491 214.46V214.53L113.331 214.46H117.111V216H110.041ZM118.234 215.23C118.234 214.95 118.322 214.717 118.5 214.53C118.686 214.343 118.915 214.25 119.186 214.25C119.494 214.25 119.736 214.362 119.914 214.586C120.1 214.81 120.194 215.141 120.194 215.58C120.194 216.299 120.021 216.849 119.676 217.232C119.34 217.624 118.882 217.82 118.304 217.82V217.12C118.584 217.12 118.803 217.041 118.962 216.882C119.13 216.733 119.214 216.532 119.214 216.28V216.196C119.204 216.187 119.2 216.168 119.2 216.14V216.098L119.116 216.126C119.088 216.135 119.027 216.14 118.934 216.14C118.747 216.14 118.584 216.056 118.444 215.888C118.304 215.72 118.234 215.501 118.234 215.23ZM121.31 209.42C121.31 208.431 121.665 207.6 122.374 206.928C123.083 206.256 123.989 205.92 125.09 205.92C126.191 205.92 127.097 206.256 127.806 206.928C128.515 207.6 128.87 208.431 128.87 209.42C128.87 210.307 128.501 211.263 127.764 212.29C127.689 212.393 127.587 212.533 127.456 212.71C127.325 212.878 127.237 212.995 127.19 213.06L124.95 216H123.06L125.174 213.242L125.79 212.71V212.64C125.771 212.649 125.678 212.687 125.51 212.752C125.267 212.817 124.964 212.85 124.6 212.85C123.685 212.85 122.906 212.523 122.262 211.87C121.627 211.207 121.31 210.391 121.31 209.42ZM123.564 207.964C123.181 208.337 122.99 208.823 122.99 209.42C122.99 210.017 123.181 210.507 123.564 210.89C123.947 211.263 124.455 211.45 125.09 211.45C125.725 211.45 126.233 211.263 126.616 210.89C126.999 210.507 127.19 210.017 127.19 209.42C127.19 208.823 126.999 208.337 126.616 207.964C126.233 207.581 125.725 207.39 125.09 207.39C124.455 207.39 123.947 207.581 123.564 207.964ZM129.783 213.2H131.463C131.529 213.489 131.655 213.746 131.841 213.97C132.261 214.483 132.859 214.74 133.633 214.74C134.277 214.74 134.786 214.581 135.159 214.264C135.542 213.937 135.733 213.536 135.733 213.06C135.733 212.519 135.561 212.094 135.215 211.786C134.879 211.469 134.399 211.31 133.773 211.31H131.393V209.91L134.333 207.81V207.74H130.273V206.2H136.713V207.726L134.193 209.56L133.493 209.84V209.91L133.717 209.882C134.025 209.854 134.207 209.84 134.263 209.84C135.141 209.84 135.873 210.143 136.461 210.75C137.049 211.357 137.343 212.127 137.343 213.06C137.343 213.956 136.998 214.717 136.307 215.342C135.617 215.967 134.725 216.28 133.633 216.28C132.187 216.28 131.118 215.767 130.427 214.74C130.129 214.301 129.914 213.788 129.783 213.2Z" fill="#333333"/>
<path d="M83.42 37.2H85.1C85.1653 37.4893 85.2913 37.746 85.478 37.97C85.898 38.4833 86.4953 38.74 87.27 38.74C87.914 38.74 88.4227 38.5813 88.796 38.264C89.1787 37.9373 89.37 37.536 89.37 37.06C89.37 36.5187 89.1973 36.094 88.852 35.786C88.516 35.4687 88.0353 35.31 87.41 35.31H85.03V33.91L87.97 31.81V31.74H83.91V30.2H90.35V31.726L87.83 33.56L87.13 33.84V33.91L87.354 33.882C87.662 33.854 87.844 33.84 87.9 33.84C88.7773 33.84 89.51 34.1433 90.098 34.75C90.686 35.3567 90.98 36.1267 90.98 37.06C90.98 37.956 90.6347 38.7167 89.944 39.342C89.2533 39.9673 88.362 40.28 87.27 40.28C85.8233 40.28 84.7547 39.7667 84.064 38.74C83.7653 38.3013 83.5507 37.788 83.42 37.2ZM92.0366 39.23C92.0366 38.95 92.1252 38.7167 92.3026 38.53C92.4892 38.3433 92.7179 38.25 92.9886 38.25C93.2966 38.25 93.5392 38.362 93.7166 38.586C93.9032 38.81 93.9966 39.1413 93.9966 39.58C93.9966 40.2987 93.8239 40.8493 93.4786 41.232C93.1426 41.624 92.6852 41.82 92.1066 41.82V41.12C92.3866 41.12 92.6059 41.0407 92.7646 40.882C92.9326 40.7327 93.0166 40.532 93.0166 40.28V40.196C93.0072 40.1867 93.0026 40.168 93.0026 40.14V40.098L92.9186 40.126C92.8906 40.1353 92.8299 40.14 92.7366 40.14C92.5499 40.14 92.3866 40.056 92.2466 39.888C92.1066 39.72 92.0366 39.5007 92.0366 39.23ZM95.0427 36.78C95.0427 36.332 95.1407 35.8653 95.3367 35.38C95.5421 34.8853 95.7381 34.498 95.9247 34.218C96.1207 33.9287 96.3867 33.5693 96.7227 33.14L98.9627 30.2H100.853L98.7387 32.958L98.1227 33.49V33.56L98.4027 33.462C98.6827 33.3873 98.9861 33.35 99.3127 33.35C100.227 33.35 101.002 33.6813 101.637 34.344C102.281 34.9973 102.603 35.8093 102.603 36.78C102.603 37.7693 102.248 38.6 101.539 39.272C100.829 39.944 99.9241 40.28 98.8227 40.28C97.7214 40.28 96.8161 39.944 96.1067 39.272C95.3974 38.6 95.0427 37.7693 95.0427 36.78ZM97.2967 35.324C96.9141 35.6973 96.7227 36.1827 96.7227 36.78C96.7227 37.3773 96.9141 37.8673 97.2967 38.25C97.6794 38.6233 98.1881 38.81 98.8227 38.81C99.4574 38.81 99.9661 38.6233 100.349 38.25C100.731 37.8673 100.923 37.3773 100.923 36.78C100.923 36.1827 100.731 35.6973 100.349 35.324C99.9661 34.9413 99.4574 34.75 98.8227 34.75C98.1881 34.75 97.6794 34.9413 97.2967 35.324ZM103.656 36.78C103.656 36.332 103.754 35.8653 103.95 35.38C104.155 34.8853 104.351 34.498 104.538 34.218C104.734 33.9287 105 33.5693 105.336 33.14L107.576 30.2H109.466L107.352 32.958L106.736 33.49V33.56L107.016 33.462C107.296 33.3873 107.599 33.35 107.926 33.35C108.841 33.35 109.615 33.6813 110.25 34.344C110.894 34.9973 111.216 35.8093 111.216 36.78C111.216 37.7693 110.861 38.6 110.152 39.272C109.443 39.944 108.537 40.28 107.436 40.28C106.335 40.28 105.429 39.944 104.72 39.272C104.011 38.6 103.656 37.7693 103.656 36.78ZM105.91 35.324C105.527 35.6973 105.336 36.1827 105.336 36.78C105.336 37.3773 105.527 37.8673 105.91 38.25C106.293 38.6233 106.801 38.81 107.436 38.81C108.071 38.81 108.579 38.6233 108.962 38.25C109.345 37.8673 109.536 37.3773 109.536 36.78C109.536 36.1827 109.345 35.6973 108.962 35.324C108.579 34.9413 108.071 34.75 107.436 34.75C106.801 34.75 106.293 34.9413 105.91 35.324Z" fill="#333333"/>
<path d="M85.56 288.42C85.56 287.431 85.9147 286.6 86.624 285.928C87.3333 285.256 88.2387 284.92 89.34 284.92C90.4413 284.92 91.3467 285.256 92.056 285.928C92.7653 286.6 93.12 287.431 93.12 288.42C93.12 289.307 92.7513 290.263 92.014 291.29C91.9393 291.393 91.8367 291.533 91.706 291.71C91.5753 291.878 91.4867 291.995 91.44 292.06L89.2 295H87.31L89.424 292.242L90.04 291.71V291.64C90.0213 291.649 89.928 291.687 89.76 291.752C89.5173 291.817 89.214 291.85 88.85 291.85C87.9353 291.85 87.156 291.523 86.512 290.87C85.8773 290.207 85.56 289.391 85.56 288.42ZM87.814 286.964C87.4313 287.337 87.24 287.823 87.24 288.42C87.24 289.017 87.4313 289.507 87.814 289.89C88.1967 290.263 88.7053 290.45 89.34 290.45C89.9747 290.45 90.4833 290.263 90.866 289.89C91.2487 289.507 91.44 289.017 91.44 288.42C91.44 287.823 91.2487 287.337 90.866 286.964C90.4833 286.581 89.9747 286.39 89.34 286.39C88.7053 286.39 88.1967 286.581 87.814 286.964ZM94.1733 294.23C94.1733 293.95 94.2619 293.717 94.4393 293.53C94.6259 293.343 94.8546 293.25 95.1253 293.25C95.4333 293.25 95.6759 293.362 95.8533 293.586C96.0399 293.81 96.1333 294.141 96.1333 294.58C96.1333 295.299 95.9606 295.849 95.6153 296.232C95.2793 296.624 94.8219 296.82 94.2433 296.82V296.12C94.5233 296.12 94.7426 296.041 94.9013 295.882C95.0693 295.733 95.1533 295.532 95.1533 295.28V295.196C95.1439 295.187 95.1393 295.168 95.1393 295.14V295.098L95.0553 295.126C95.0273 295.135 94.9666 295.14 94.8733 295.14C94.6866 295.14 94.5233 295.056 94.3833 294.888C94.2433 294.72 94.1733 294.501 94.1733 294.23ZM97.2495 292.27H98.9295C99.0041 292.559 99.1301 292.807 99.3075 293.012C99.7181 293.497 100.315 293.74 101.099 293.74C101.725 293.74 102.219 293.572 102.583 293.236C102.947 292.9 103.129 292.461 103.129 291.92C103.129 291.351 102.947 290.893 102.583 290.548C102.219 290.203 101.725 290.03 101.099 290.03C100.521 290.03 100.031 290.184 99.6295 290.492C99.4708 290.613 99.3308 290.763 99.2095 290.94H97.6695L98.0895 285.2H104.039V286.74H99.4195L99.2095 289.26H99.2795C99.4288 289.111 99.6015 288.985 99.7975 288.882C100.236 288.621 100.763 288.49 101.379 288.49C102.359 288.49 103.176 288.817 103.829 289.47C104.483 290.123 104.809 290.94 104.809 291.92C104.809 292.881 104.464 293.684 103.773 294.328C103.092 294.963 102.201 295.28 101.099 295.28C99.6621 295.28 98.5935 294.781 97.8935 293.782C97.5948 293.343 97.3801 292.839 97.2495 292.27ZM105.723 295V293.46L109.069 291.094C109.797 290.571 110.319 290.086 110.637 289.638C110.954 289.19 111.113 288.714 111.113 288.21C111.113 287.678 110.949 287.253 110.623 286.936C110.296 286.619 109.853 286.46 109.293 286.46C108.602 286.46 108.084 286.74 107.739 287.3C107.589 287.543 107.477 287.823 107.403 288.14H105.723C105.807 287.543 105.989 287.006 106.269 286.53C106.931 285.457 107.939 284.92 109.293 284.92C110.329 284.92 111.169 285.228 111.813 285.844C112.466 286.451 112.793 287.216 112.793 288.14C112.793 288.943 112.587 289.666 112.177 290.31C111.766 290.945 111.108 291.575 110.203 292.2L108.803 293.18L108.173 293.46V293.53L109.013 293.46H112.793V295H105.723Z" fill="#333333"/>
<path d="M195.56 378.34C195.56 377.491 195.887 376.814 196.54 376.31C196.82 376.114 197.147 375.965 197.52 375.862V375.778C197.231 375.666 196.974 375.512 196.75 375.316C196.237 374.877 195.98 374.299 195.98 373.58C195.98 372.843 196.293 372.217 196.918 371.704C197.553 371.181 198.407 370.92 199.48 370.92C200.553 370.92 201.403 371.181 202.028 371.704C202.663 372.217 202.98 372.843 202.98 373.58C202.98 374.28 202.723 374.859 202.21 375.316C201.967 375.512 201.711 375.666 201.44 375.778V375.862C201.795 375.955 202.121 376.109 202.42 376.324C203.073 376.828 203.4 377.5 203.4 378.34C203.4 379.152 203.045 379.847 202.336 380.426C201.636 380.995 200.684 381.28 199.48 381.28C198.276 381.28 197.319 380.995 196.61 380.426C195.91 379.847 195.56 379.152 195.56 378.34ZM197.66 373.72C197.66 374.131 197.819 374.467 198.136 374.728C198.453 374.989 198.901 375.12 199.48 375.12C200.059 375.12 200.507 374.989 200.824 374.728C201.141 374.467 201.3 374.131 201.3 373.72C201.3 373.347 201.137 373.034 200.81 372.782C200.493 372.521 200.049 372.39 199.48 372.39C198.911 372.39 198.463 372.521 198.136 372.782C197.819 373.034 197.66 373.347 197.66 373.72ZM197.828 377.066C197.436 377.374 197.24 377.752 197.24 378.2C197.24 378.648 197.436 379.031 197.828 379.348C198.229 379.656 198.78 379.81 199.48 379.81C200.18 379.81 200.726 379.656 201.118 379.348C201.519 379.031 201.72 378.648 201.72 378.2C201.72 377.752 201.519 377.374 201.118 377.066C200.726 376.749 200.18 376.59 199.48 376.59C198.78 376.59 198.229 376.749 197.828 377.066ZM204.515 380.23C204.515 379.95 204.604 379.717 204.781 379.53C204.968 379.343 205.196 379.25 205.467 379.25C205.775 379.25 206.018 379.362 206.195 379.586C206.382 379.81 206.475 380.141 206.475 380.58C206.475 381.299 206.302 381.849 205.957 382.232C205.621 382.624 205.164 382.82 204.585 382.82V382.12C204.865 382.12 205.084 382.041 205.243 381.882C205.411 381.733 205.495 381.532 205.495 381.28V381.196C205.486 381.187 205.481 381.168 205.481 381.14V381.098L205.397 381.126C205.369 381.135 205.308 381.14 205.215 381.14C205.028 381.14 204.865 381.056 204.725 380.888C204.585 380.72 204.515 380.501 204.515 380.23ZM207.171 372.74V371.2H213.821V372.74L209.901 381H208.151L212.001 372.88V372.74H207.171ZM214.24 372.74V371.2H220.89V372.74L216.97 381H215.22L219.07 372.88V372.74H214.24Z" fill="#333333"/>
<path d="M67.35 527.42V525.6L69.17 524.2H70.64V534H69.03V526.16L67.35 527.42ZM71.8311 532.04V530.5L75.1211 524.2H76.8711L73.5811 530.5H76.8011V528.12H76.8711H78.4111V530.5H79.8111V532.04H78.4111V534H76.8011V532.04H71.8311ZM80.3705 533.23C80.3705 532.95 80.4592 532.717 80.6365 532.53C80.8232 532.343 81.0519 532.25 81.3225 532.25C81.6305 532.25 81.8732 532.362 82.0505 532.586C82.2372 532.81 82.3305 533.141 82.3305 533.58C82.3305 534.299 82.1579 534.849 81.8125 535.232C81.4765 535.624 81.0192 535.82 80.4405 535.82V535.12C80.7205 535.12 80.9399 535.041 81.0985 534.882C81.2665 534.733 81.3505 534.532 81.3505 534.28V534.196C81.3412 534.187 81.3365 534.168 81.3365 534.14V534.098L81.2525 534.126C81.2245 534.135 81.1639 534.14 81.0705 534.14C80.8839 534.14 80.7205 534.056 80.5805 533.888C80.4405 533.72 80.3705 533.501 80.3705 533.23ZM83.3067 531.2H84.9867C85.0521 531.489 85.1781 531.746 85.3647 531.97C85.7847 532.483 86.3821 532.74 87.1567 532.74C87.8007 532.74 88.3094 532.581 88.6827 532.264C89.0654 531.937 89.2567 531.536 89.2567 531.06C89.2567 530.519 89.0841 530.094 88.7387 529.786C88.4027 529.469 87.9221 529.31 87.2967 529.31H84.9167V527.91L87.8567 525.81V525.74H83.7967V524.2H90.2367V525.726L87.7167 527.56L87.0167 527.84V527.91L87.2407 527.882C87.5487 527.854 87.7307 527.84 87.7867 527.84C88.6641 527.84 89.3967 528.143 89.9847 528.75C90.5727 529.357 90.8667 530.127 90.8667 531.06C90.8667 531.956 90.5214 532.717 89.8307 533.342C89.1401 533.967 88.2487 534.28 87.1567 534.28C85.7101 534.28 84.6414 533.767 83.9507 532.74C83.6521 532.301 83.4374 531.788 83.3067 531.2ZM91.7833 534V532.46L95.1293 530.094C95.8573 529.571 96.3799 529.086 96.6973 528.638C97.0146 528.19 97.1733 527.714 97.1733 527.21C97.1733 526.678 97.0099 526.253 96.6833 525.936C96.3566 525.619 95.9133 525.46 95.3533 525.46C94.6626 525.46 94.1446 525.74 93.7993 526.3C93.6499 526.543 93.5379 526.823 93.4633 527.14H91.7833C91.8673 526.543 92.0493 526.006 92.3293 525.53C92.9919 524.457 93.9999 523.92 95.3533 523.92C96.3893 523.92 97.2293 524.228 97.8733 524.844C98.5266 525.451 98.8533 526.216 98.8533 527.14C98.8533 527.943 98.6479 528.666 98.2373 529.31C97.8266 529.945 97.1686 530.575 96.2633 531.2L94.8633 532.18L94.2333 532.46V532.53L95.0733 532.46H98.8533V534H91.7833Z" fill="#333333"/>
<circle cx="87.5" cy="158.5" r="39.5" fill="#5A5A5A"/>
<path d="M64.72 162.49H66.88C66.976 162.862 67.138 163.18 67.366 163.444C67.894 164.068 68.662 164.38 69.67 164.38C70.474 164.38 71.11 164.164 71.578 163.732C72.046 163.3 72.28 162.736 72.28 162.04C72.28 161.308 72.046 160.72 71.578 160.276C71.11 159.832 70.474 159.61 69.67 159.61C68.926 159.61 68.296 159.808 67.78 160.204C67.576 160.36 67.396 160.552 67.24 160.78H65.26L65.8 153.4H73.45V155.38H67.51L67.24 158.62H67.33C67.522 158.428 67.744 158.266 67.996 158.134C68.56 157.798 69.238 157.63 70.03 157.63C71.29 157.63 72.34 158.05 73.18 158.89C74.02 159.73 74.44 160.78 74.44 162.04C74.44 163.276 73.996 164.308 73.108 165.136C72.232 165.952 71.086 166.36 69.67 166.36C67.822 166.36 66.448 165.718 65.548 164.434C65.164 163.87 64.888 163.222 64.72 162.49ZM77.5942 164.488C76.4542 163.24 75.8842 161.644 75.8842 159.7C75.8842 157.756 76.4542 156.16 77.5942 154.912C78.7342 153.664 80.1142 153.04 81.7342 153.04C83.3542 153.04 84.7342 153.664 85.8742 154.912C87.0142 156.16 87.5842 157.756 87.5842 159.7C87.5842 161.644 87.0142 163.24 85.8742 164.488C84.7342 165.736 83.3542 166.36 81.7342 166.36C80.1142 166.36 78.7342 165.736 77.5942 164.488ZM79.0702 156.244C78.3862 157.06 78.0442 158.212 78.0442 159.7C78.0442 161.188 78.3862 162.34 79.0702 163.156C79.7662 163.972 80.6542 164.38 81.7342 164.38C82.8142 164.38 83.6962 163.972 84.3802 163.156C85.0762 162.34 85.4242 161.188 85.4242 159.7C85.4242 158.212 85.0762 157.06 84.3802 156.244C83.6962 155.428 82.8142 155.02 81.7342 155.02C80.6542 155.02 79.7662 155.428 79.0702 156.244ZM89.1184 165.01C89.1184 164.65 89.2324 164.35 89.4604 164.11C89.7004 163.87 89.9944 163.75 90.3424 163.75C90.7384 163.75 91.0504 163.894 91.2784 164.182C91.5184 164.47 91.6384 164.896 91.6384 165.46C91.6384 166.384 91.4164 167.092 90.9724 167.584C90.5404 168.088 89.9524 168.34 89.2084 168.34V167.44C89.5684 167.44 89.8504 167.338 90.0544 167.134C90.2704 166.942 90.3784 166.684 90.3784 166.36V166.252C90.3664 166.24 90.3604 166.216 90.3604 166.18V166.126L90.2524 166.162C90.2164 166.174 90.1384 166.18 90.0184 166.18C89.7784 166.18 89.5684 166.072 89.3884 165.856C89.2084 165.64 89.1184 165.358 89.1184 165.01ZM92.8935 162.4H95.0535C95.1375 162.772 95.2995 163.102 95.5395 163.39C96.0795 164.05 96.8475 164.38 97.8435 164.38C98.6715 164.38 99.3255 164.176 99.8055 163.768C100.298 163.348 100.544 162.832 100.544 162.22C100.544 161.524 100.322 160.978 99.8775 160.582C99.4455 160.174 98.8275 159.97 98.0235 159.97H94.9635V158.17L98.7435 155.47V155.38H93.5235V153.4H101.804V155.362L98.5635 157.72L97.6635 158.08V158.17L97.9515 158.134C98.3475 158.098 98.5815 158.08 98.6535 158.08C99.7815 158.08 100.724 158.47 101.48 159.25C102.236 160.03 102.614 161.02 102.614 162.22C102.614 163.372 102.17 164.35 101.282 165.154C100.394 165.958 99.2475 166.36 97.8435 166.36C95.9835 166.36 94.6095 165.7 93.7215 164.38C93.3375 163.816 93.0615 163.156 92.8935 162.4ZM103.792 162.4H105.952C106.036 162.772 106.198 163.102 106.438 163.39C106.978 164.05 107.746 164.38 108.742 164.38C109.57 164.38 110.224 164.176 110.704 163.768C111.196 163.348 111.442 162.832 111.442 162.22C111.442 161.524 111.22 160.978 110.776 160.582C110.344 160.174 109.726 159.97 108.922 159.97H105.862V158.17L109.642 155.47V155.38H104.422V153.4H112.702V155.362L109.462 157.72L108.562 158.08V158.17L108.85 158.134C109.246 158.098 109.48 158.08 109.552 158.08C110.68 158.08 111.622 158.47 112.378 159.25C113.134 160.03 113.512 161.02 113.512 162.22C113.512 163.372 113.068 164.35 112.18 165.154C111.292 165.958 110.146 166.36 108.742 166.36C106.882 166.36 105.508 165.7 104.62 164.38C104.236 163.816 103.96 163.156 103.792 162.4Z" fill="white"/>
<rect x="7" y="338" width="84" height="99" fill="#FFC79F"/>
<path d="M53.21 385.04V383.5L56.5 377.2H58.25L54.96 383.5H58.18V381.12H58.25H59.79V383.5H61.19V385.04H59.79V387H58.18V385.04H53.21ZM61.7495 386.23C61.7495 385.95 61.8381 385.717 62.0155 385.53C62.2021 385.343 62.4308 385.25 62.7015 385.25C63.0095 385.25 63.2521 385.362 63.4295 385.586C63.6161 385.81 63.7095 386.141 63.7095 386.58C63.7095 387.299 63.5368 387.849 63.1915 388.232C62.8555 388.624 62.3981 388.82 61.8195 388.82V388.12C62.0995 388.12 62.3188 388.041 62.4775 387.882C62.6455 387.733 62.7295 387.532 62.7295 387.28V387.196C62.7201 387.187 62.7155 387.168 62.7155 387.14V387.098L62.6315 387.126C62.6035 387.135 62.5428 387.14 62.4495 387.14C62.2628 387.14 62.0995 387.056 61.9595 386.888C61.8195 386.72 61.7495 386.501 61.7495 386.23ZM64.4056 378.74V377.2H71.0556V378.74L67.1356 387H65.3856L69.2356 378.88V378.74H64.4056ZM71.894 380.42C71.894 379.431 72.2487 378.6 72.958 377.928C73.6673 377.256 74.5727 376.92 75.674 376.92C76.7753 376.92 77.6807 377.256 78.39 377.928C79.0993 378.6 79.454 379.431 79.454 380.42C79.454 381.307 79.0853 382.263 78.348 383.29C78.2733 383.393 78.1707 383.533 78.04 383.71C77.9093 383.878 77.8207 383.995 77.774 384.06L75.534 387H73.644L75.758 384.242L76.374 383.71V383.64C76.3553 383.649 76.262 383.687 76.094 383.752C75.8513 383.817 75.548 383.85 75.184 383.85C74.2693 383.85 73.49 383.523 72.846 382.87C72.2113 382.207 71.894 381.391 71.894 380.42ZM74.148 378.964C73.7653 379.337 73.574 379.823 73.574 380.42C73.574 381.017 73.7653 381.507 74.148 381.89C74.5307 382.263 75.0393 382.45 75.674 382.45C76.3087 382.45 76.8173 382.263 77.2 381.89C77.5827 381.507 77.774 381.017 77.774 380.42C77.774 379.823 77.5827 379.337 77.2 378.964C76.8173 378.581 76.3087 378.39 75.674 378.39C75.0393 378.39 74.5307 378.581 74.148 378.964Z" fill="#333333"/>
<rect y="54" width="30" height="577" fill="#5A5A5A"/>
<path d="M29.9999 305.967L54.9952 305.967L54.9952 330.291L29.9999 330.291L29.9999 305.967Z" fill="white" stroke="#5A5A5A" stroke-width="0.5"/>
<path d="M52.9687 306.893L33.5157 306.893C32.7778 306.893 32.3853 307.286 32.3853 308.055L32.3853 328.203C32.3853 328.988 32.7621 329.365 33.5157 329.365L52.9687 329.365C53.7223 329.381 54.0992 328.988 54.0992 328.219L54.0992 308.071C54.1149 307.286 53.7223 306.893 52.9687 306.893Z" fill="white" stroke="#5A5A5A" stroke-width="0.5"/>
<path d="M51.1794 313.394C51.1637 315.185 49.7507 316.645 48.0079 316.645C46.2495 316.645 44.8364 315.185 44.8364 313.394C44.8364 311.589 46.2495 310.144 48.0079 310.144C49.7664 310.144 51.1794 311.589 51.1794 313.394Z" stroke="#5A5A5A" stroke-width="0.5"/>
<path d="M51.1493 323.02C51.1336 324.811 49.7205 326.271 47.9778 326.271C46.2193 326.271 44.8063 324.811 44.8063 323.02C44.8063 321.215 46.2193 319.77 47.9778 319.77C49.7362 319.754 51.165 321.215 51.1493 323.02Z" stroke="#5A5A5A" stroke-width="0.5"/>
<path d="M42.1356 323.02C42.1356 324.826 40.7226 326.271 38.9641 326.271C37.2056 326.271 35.7926 324.811 35.7926 323.02C35.8083 321.23 37.2213 319.77 38.9641 319.77C40.7069 319.77 42.1356 321.23 42.1356 323.02Z" stroke="#5A5A5A" stroke-width="0.5"/>
<path d="M42.1356 313.394C42.1356 315.2 40.7226 316.645 38.9641 316.645C37.2056 316.645 35.7926 315.185 35.7926 313.394C35.8083 311.604 37.2213 310.144 38.9641 310.144C40.7069 310.144 42.1356 311.604 42.1356 313.394Z" stroke="#5A5A5A" stroke-width="0.5"/>
<path d="M30.0151 281.699H54.1036L54.1036 258H30L30.0151 281.699Z" fill="white" stroke="#5A5A5A" stroke-width="0.5"/>
<path d="M36.6214 279.896L49.9383 279.896C50.6806 279.896 51.0442 279.532 51.0442 278.775L51.0442 261.167C51.0442 260.44 50.6806 260.061 49.9534 260.046L36.6214 260.061C35.8942 260.046 35.5306 260.424 35.5306 261.167L35.5306 278.775C35.5003 279.517 35.8791 279.896 36.6214 279.896Z" fill="white" stroke="#5A5A5A" stroke-width="0.5"/>
<path d="M31.8636 269.971C31.8788 269.046 32.5757 268.304 33.4544 268.304L40.4385 268.956L40.4537 268.971C40.9839 268.971 41.4081 269.41 41.4081 269.971C41.4081 270.531 40.9839 270.971 40.4385 270.986L33.4544 271.638C32.5908 271.638 31.8788 270.895 31.8636 269.971Z" stroke="#5A5A5A" stroke-width="0.5"/>
<mask id="path-21-inside-1_18_3664" fill="white">
<path fill-rule="evenodd" clip-rule="evenodd" d="M32.5461 268.592L36.3488 268.955C36.879 268.97 37.3184 269.41 37.3032 269.986C37.3032 270.546 36.879 270.971 36.3488 270.986L32.5461 271.349"/>
</mask>
<path fill-rule="evenodd" clip-rule="evenodd" d="M32.5461 268.592L36.3488 268.955C36.879 268.97 37.3184 269.41 37.3032 269.986C37.3032 270.546 36.879 270.971 36.3488 270.986L32.5461 271.349" fill="white"/>
<path d="M36.3488 268.955L36.3345 269.455L36.3178 269.455L36.3012 269.453L36.3488 268.955ZM37.3032 269.986H36.8031L36.8034 269.973L37.3032 269.986ZM36.3488 270.986L36.3012 270.488L36.3178 270.486L36.3345 270.486L36.3488 270.986ZM32.5937 268.094L36.3964 268.458L36.3012 269.453L32.4985 269.089L32.5937 268.094ZM36.3631 268.456C37.1681 268.479 37.8255 269.147 37.8031 269.999L36.8034 269.973C36.8113 269.673 36.59 269.462 36.3345 269.455L36.3631 268.456ZM37.8032 269.986C37.8032 270.815 37.1657 271.463 36.3631 271.486L36.3345 270.486C36.5924 270.479 36.8032 270.278 36.8032 269.986H37.8032ZM36.3964 271.484L32.5937 271.847L32.4985 270.852L36.3012 270.488L36.3964 271.484Z" fill="#5A5A5A" mask="url(#path-21-inside-1_18_3664)"/>
<rect x="159" y="226" width="2" height="11" transform="rotate(90 159 226)" fill="#5A5A5A"/>
<rect x="142" y="226" width="2" height="11" transform="rotate(90 142 226)" fill="#5A5A5A"/>
<rect x="125" y="226" width="2" height="11" transform="rotate(90 125 226)" fill="#5A5A5A"/>
<rect x="108" y="226" width="2" height="11" transform="rotate(90 108 226)" fill="#5A5A5A"/>
<rect x="91" y="226" width="2" height="11" transform="rotate(90 91 226)" fill="#5A5A5A"/>
<rect x="74" y="226" width="2" height="11" transform="rotate(90 74 226)" fill="#5A5A5A"/>
<rect x="57" y="226" width="2" height="11" transform="rotate(90 57 226)" fill="#5A5A5A"/>
<rect x="40" y="226" width="2" height="11" transform="rotate(90 40 226)" fill="#5A5A5A"/>
<rect x="23" y="226" width="2" height="6" transform="rotate(90 23 226)" fill="#5A5A5A"/>
<rect x="101" y="330" width="8" height="71" transform="rotate(90 101 330)" fill="#5A5A5A"/>
<rect x="101" y="436" width="8" height="71" transform="rotate(90 101 436)" fill="#5A5A5A"/>
<rect x="144" y="436" width="8" height="9" transform="rotate(90 144 436)" fill="#5A5A5A"/>
<rect x="144" y="330" width="8" height="9" transform="rotate(90 144 330)" fill="#5A5A5A"/>
<rect x="98" y="370" width="8" height="34" transform="rotate(-180 98 370)" fill="#5A5A5A"/>
<path d="M49.298 356.72L48.1175 356.736L45.0515 356.72L37.4602 356.72L37.4602 366.677L49.298 366.677C52.3148 366.677 54.7742 364.433 54.7742 361.682C54.7742 358.963 52.3148 356.72 49.298 356.72Z" fill="white" stroke="#5A5A5A" stroke-width="0.5"/>
<path d="M49.2324 357.866L48.2978 357.866L40.7394 357.866L40.7394 365.547L48.2978 365.547L49.2324 365.53C51.6097 365.53 53.5444 363.827 53.5444 361.698C53.528 359.585 51.5934 357.866 49.2324 357.866Z" fill="white" stroke="#5A5A5A" stroke-width="0.5"/>
<path d="M31.0986 368.478L36.3617 368.478C36.9683 368.478 37.4602 367.987 37.4602 367.381L37.4602 356.097C37.4602 355.491 36.9683 355 36.3617 355L31.0986 355C30.492 355 30.0001 355.491 30.0001 356.097L30.0001 367.365C30.0001 367.987 30.492 368.478 31.0986 368.478Z" fill="white" stroke="#5A5A5A" stroke-width="0.5"/>
<path d="M33.722 362.386C34.1319 362.386 34.4434 362.091 34.4434 361.747C34.4598 361.387 34.1319 361.092 33.722 361.092C33.3122 361.092 33.0007 361.387 33.0007 361.731C33.0171 362.108 33.3286 362.402 33.722 362.386Z" fill="white" stroke="#5A5A5A" stroke-width="0.5"/>
<path d="M31.5403 401.596L43.8483 401.596C44.7041 401.596 45.3886 400.913 45.3886 400.058L45.3886 381.539C45.3886 380.684 44.7041 380 43.8483 380L31.5403 380C30.6846 380 30 380.684 30 381.539L30 400.058C30 400.898 30.6846 401.596 31.5403 401.596Z" fill="white" stroke="#5A5A5A" stroke-width="0.5"/>
<path d="M36.2323 399.673L38.1292 399.673C40.625 399.673 42.6502 397.65 42.6502 395.157L42.6502 386.439C42.6502 383.946 40.625 381.923 38.1292 381.923L36.2323 381.923C33.7365 381.923 31.7113 383.946 31.7113 386.439L31.7113 395.157C31.7113 397.65 33.7365 399.673 36.2323 399.673Z" fill="white" stroke="#5A5A5A" stroke-width="0.5"/>
<path d="M34.1216 391.753C34.665 391.753 35.1056 391.326 35.1056 390.799C35.1056 390.272 34.665 389.844 34.1216 389.844C33.5781 389.844 33.1376 390.272 33.1376 390.799C33.1376 391.326 33.5781 391.753 34.1216 391.753Z" fill="white" stroke="#5A5A5A" stroke-width="0.5"/>
<path d="M31.3858 409.389L91.5065 409.389C92.2764 409.389 92.8923 410.004 92.8923 410.773L92.8923 434.64C92.8923 435.409 92.2764 436.024 91.5065 436.024L31.3858 436.024C30.6159 436.024 30 435.409 30 434.64L30 410.773C30 410.004 30.6299 409.389 31.3858 409.389Z" fill="white" stroke="#5A5A5A" stroke-width="0.5"/>
<path d="M89.1965 419.47L89.1965 425.958C89.1965 429.719 86.145 432.753 82.3936 432.753L35.0529 432.753C34.1291 432.753 33.3872 432.012 33.3872 431.089L33.3872 414.311C33.3872 413.388 34.1291 412.647 35.0529 412.647L82.3796 412.647C86.145 412.661 89.1965 415.709 89.1965 419.47Z" fill="white" stroke="#5A5A5A" stroke-width="0.5"/>
<path d="M39.0004 422.238C39.0004 421.489 38.3675 420.882 37.5867 420.882C36.8059 420.882 36.173 421.489 36.173 422.238C36.173 422.987 36.8059 423.594 37.5867 423.594C38.3675 423.594 39.0004 422.987 39.0004 422.238Z" fill="white" stroke="#5A5A5A" stroke-width="0.5"/>
<path d="M90.5875 360.024L90.5875 338.014L69 338L69.014 360.01L90.5875 360.024Z" fill="white" stroke="#5A5A5A" stroke-width="0.5"/>
<path d="M74.257 349.005C74.257 345.891 76.7317 343.377 79.7936 343.377C82.8556 343.377 85.3304 345.891 85.3304 349.019C85.3304 352.133 82.8556 354.675 79.7936 354.675C76.7317 354.661 74.257 352.119 74.257 349.005Z" stroke="#5A5A5A" stroke-width="0.5"/>
<path d="M79.7937 353.125C78.6751 353.139 77.6685 352.678 76.9414 351.924C76.2144 351.17 75.767 350.136 75.753 349.019M79.7797 344.885C78.6751 344.885 77.6685 345.346 76.9274 346.086C76.2004 346.84 75.739 347.86 75.739 349.005L79.7797 344.885ZM79.7937 353.125C80.8982 353.125 81.9049 352.664 82.6459 351.924C83.3729 351.17 83.8203 350.136 83.8203 349.005L79.7937 353.125ZM79.7797 344.885C80.9122 344.885 81.9189 345.346 82.6319 346.086L82.6459 346.1C83.3589 346.84 83.8203 347.86 83.8203 348.991L79.7797 344.885Z" stroke="#5A5A5A" stroke-width="0.5"/>
<rect x="98" y="437" width="8" height="40" transform="rotate(-180 98 437)" fill="#5A5A5A"/>
<rect x="70" y="54" width="30" height="70" transform="rotate(90 70 54)" fill="#5A5A5A"/>
<line y1="-0.5" x2="29.1548" y2="-0.5" transform="matrix(0.857493 0.514496 0.514496 -0.857493 70 67)" stroke="#5A5A5A"/>
<path d="M132.75 0.250204L51.282 0.313162L51.2517 4.74999L132.75 4.75001L132.75 0.250204Z" stroke="#5A5A5A" stroke-width="0.5" stroke-miterlimit="10"/>
<rect x="149" y="6.10352e-05" width="5" height="74" fill="#5A5A5A"/>
<rect x="46" y="6.10352e-05" width="5" height="74" fill="#5A5A5A"/>
<rect x="65" width="5" height="19" transform="rotate(90 65 0)" fill="#5A5A5A"/>
<rect x="151" width="5" height="86" transform="rotate(90 151 0)" fill="#5A5A5A"/>
<path d="M97.25 54.2503L157.726 54.3131L157.749 58.75L97.25 58.75L97.25 54.2503Z" stroke="#5A5A5A" stroke-width="0.5" stroke-miterlimit="10"/>
<path d="M97.25 64.2503L157.726 64.3131L157.749 68.75L97.25 68.75L97.25 64.2503Z" stroke="#5A5A5A" stroke-width="0.5" stroke-miterlimit="10"/>
<rect x="160" y="54" width="30" height="35" transform="rotate(90 160 54)" fill="#5A5A5A"/>
<rect x="160" y="601" width="30" height="43" transform="rotate(90 160 601)" fill="#5A5A5A"/>
<rect x="52" y="601" width="30" height="43" transform="rotate(90 52 601)" fill="#5A5A5A"/>
<rect x="144" y="396" width="16" height="235" fill="#5A5A5A"/>
<rect x="283" y="396" width="16" height="139" transform="rotate(90 283 396)" fill="#5A5A5A"/>
<rect x="283" y="330" width="16" height="139" transform="rotate(90 283 330)" fill="#5A5A5A"/>
<rect x="283" y="356" width="16" height="26" transform="rotate(-180 283 356)" fill="#5A5A5A"/>
<rect x="283" y="411" width="16" height="20" transform="rotate(-180 283 411)" fill="#5A5A5A"/>
<rect x="160" y="346" width="16" height="266" transform="rotate(-180 160 346)" fill="#5A5A5A"/>
<path d="M139.75 601.25L7.30344 601.402L7.25115 612.75L139.75 612.75L139.75 601.25Z" stroke="#5A5A5A" stroke-width="0.5" stroke-miterlimit="10"/>
<path d="M139.75 619.25L7.30344 619.402L7.25115 630.75L139.75 630.75L139.75 619.25Z" stroke="#5A5A5A" stroke-width="0.5" stroke-miterlimit="10"/>
<line x1="136.755" y1="337.436" x2="104.755" y2="319.436" stroke="#5A5A5A"/>
<line x1="96.5681" y1="397.748" x2="110.568" y2="373.748" stroke="#5A5A5A"/>
<line x1="99.2451" y1="441.564" x2="131.245" y2="459.564" stroke="#5A5A5A"/>
<line x1="279.58" y1="392.729" x2="299.58" y2="361.729" stroke="#5A5A5A"/>
</svg>
