<svg width="351" height="441" viewBox="0 0 351 441" fill="none" xmlns="http://www.w3.org/2000/svg">
<path d="M82 359L277 359L277 115L82 115L82 359Z" fill="#FFF8BA"/>
<path d="M235 359L277 359L277 22L235 22L235 359Z" fill="#FFF8BA"/>
<path d="M91.8795 150.733L168.267 227.121L268 87.3874L231.613 11L91.8795 150.733Z" fill="#FFF8BA"/>
<path d="M255 359L338 359L338 193L255 193L255 359Z" fill="#FFF8BA"/>
<path d="M106.325 125L106.325 149.995L82.0001 149.995L82.0001 125L106.325 125Z" fill="white" stroke="#5A5A5A" stroke-width="0.5"/>
<path d="M105.398 147.969L105.398 128.516C105.398 127.778 105.006 127.385 104.236 127.385L84.0886 127.385C83.3035 127.385 82.9266 127.762 82.9266 128.516L82.9266 147.969C82.9109 148.722 83.3035 149.099 84.0729 149.099L104.221 149.099C105.006 149.115 105.398 148.722 105.398 147.969Z" fill="white" stroke="#5A5A5A" stroke-width="0.5"/>
<path d="M98.897 146.18C97.1068 146.164 95.6463 144.751 95.6463 143.008C95.6463 141.25 97.1067 139.836 98.897 139.836C100.703 139.836 102.148 141.25 102.148 143.008C102.148 144.766 100.703 146.18 98.897 146.18Z" stroke="#5A5A5A" stroke-width="0.5"/>
<path d="M89.271 146.149C87.4808 146.134 86.0203 144.721 86.0203 142.978C86.0203 141.219 87.4808 139.806 89.271 139.806C91.0769 139.806 92.5216 141.219 92.5216 142.978C92.5373 144.736 91.0769 146.165 89.271 146.149Z" stroke="#5A5A5A" stroke-width="0.5"/>
<path d="M89.2711 137.136C87.4652 137.136 86.0205 135.723 86.0205 133.964C86.0205 132.206 87.4809 130.793 89.2711 130.793C91.0613 130.808 92.5217 132.221 92.5217 133.964C92.5217 135.707 91.0613 137.136 89.2711 137.136Z" stroke="#5A5A5A" stroke-width="0.5"/>
<path d="M98.897 137.136C97.091 137.136 95.6463 135.723 95.6463 133.964C95.6463 132.206 97.1067 130.793 98.897 130.793C100.687 130.808 102.148 132.221 102.148 133.964C102.148 135.707 100.687 137.136 98.897 137.136Z" stroke="#5A5A5A" stroke-width="0.5"/>
<path d="M130.592 125.015L130.592 149.104L154.291 149.104L154.291 125L130.592 125.015Z" fill="white" stroke="#5A5A5A" stroke-width="0.5"/>
<path d="M132.396 131.621L132.396 144.938C132.396 145.681 132.759 146.044 133.517 146.044L151.124 146.044C151.852 146.044 152.231 145.681 152.246 144.953L152.231 131.621C152.246 130.894 151.867 130.531 151.124 130.531L133.517 130.531C132.774 130.5 132.396 130.879 132.396 131.621Z" fill="white" stroke="#5A5A5A" stroke-width="0.5"/>
<path d="M142.321 126.864C143.245 126.879 143.987 127.576 143.987 128.454L143.336 135.439L143.321 135.454C143.321 135.984 142.881 136.408 142.321 136.408C141.76 136.408 141.321 135.984 141.305 135.439L140.654 128.454C140.654 127.591 141.396 126.879 142.321 126.864Z" stroke="#5A5A5A" stroke-width="0.5"/>
<mask id="path-12-inside-1_19_3811" fill="white">
<path fill-rule="evenodd" clip-rule="evenodd" d="M143.7 127.546L143.336 131.349C143.321 131.879 142.881 132.318 142.306 132.303C141.745 132.303 141.321 131.879 141.306 131.349L140.942 127.546"/>
</mask>
<path fill-rule="evenodd" clip-rule="evenodd" d="M143.7 127.546L143.336 131.349C143.321 131.879 142.881 132.318 142.306 132.303C141.745 132.303 141.321 131.879 141.306 131.349L140.942 127.546" fill="white"/>
<path d="M143.336 131.349L142.836 131.335L142.837 131.318L142.838 131.301L143.336 131.349ZM142.306 132.303L142.306 131.803L142.319 131.803L142.306 132.303ZM141.306 131.349L141.803 131.301L141.805 131.318L141.805 131.335L141.306 131.349ZM144.197 127.594L143.834 131.396L142.838 131.301L143.202 127.499L144.197 127.594ZM143.836 131.363C143.813 132.168 143.145 132.826 142.292 132.803L142.319 131.803C142.618 131.811 142.829 131.59 142.836 131.335L143.836 131.363ZM142.306 132.803C141.476 132.803 140.829 132.166 140.806 131.363L141.805 131.335C141.813 131.592 142.014 131.803 142.306 131.803L142.306 132.803ZM140.808 131.396L140.444 127.594L141.44 127.499L141.803 131.301L140.808 131.396Z" fill="#5A5A5A" mask="url(#path-12-inside-1_19_3811)"/>
<rect x="210" y="193" width="2" height="11" transform="rotate(-180 210 193)" fill="#5A5A5A"/>
<rect x="210" y="176" width="2" height="11" transform="rotate(-180 210 176)" fill="#5A5A5A"/>
<rect x="210" y="159" width="2" height="11" transform="rotate(-180 210 159)" fill="#5A5A5A"/>
<rect x="210" y="142" width="2" height="11" transform="rotate(-180 210 142)" fill="#5A5A5A"/>
<rect x="74" y="193" width="2" height="11" transform="rotate(-90 74 193)" fill="#5A5A5A"/>
<rect x="125" y="193" width="2" height="11" transform="rotate(-90 125 193)" fill="#5A5A5A"/>
<rect x="108" y="193" width="2" height="11" transform="rotate(-90 108 193)" fill="#5A5A5A"/>
<rect x="91" y="193" width="2" height="11" transform="rotate(-90 91 193)" fill="#5A5A5A"/>
<rect x="142" y="193" width="2" height="11" transform="rotate(-90 142 193)" fill="#5A5A5A"/>
<rect x="159" y="193" width="2" height="11" transform="rotate(-90 159 193)" fill="#5A5A5A"/>
<rect x="176" y="193" width="2" height="11" transform="rotate(-90 176 193)" fill="#5A5A5A"/>
<rect x="193" y="193" width="2" height="11" transform="rotate(-90 193 193)" fill="#5A5A5A"/>
<path d="M336 90V188L275 186.444V90H336Z" fill="#FFC79F"/>
<path d="M333.678 160.225L276.322 160.225C275.588 160.225 275 160.812 275 161.545L275 184.315C275 185.049 275.588 185.635 276.322 185.635L333.678 185.635C334.412 185.635 335 185.049 335 184.315L335 161.545C335 160.812 334.399 160.225 333.678 160.225Z" fill="white" stroke="#5A5A5A" stroke-width="0.5"/>
<path d="M278.526 169.843L278.526 176.032C278.526 179.62 281.437 182.515 285.016 182.515L330.179 182.515C331.061 182.515 331.769 181.808 331.769 180.927L331.769 164.921C331.769 164.04 331.061 163.333 330.179 163.333L285.029 163.333C281.437 163.347 278.526 166.254 278.526 169.843Z" fill="white" stroke="#5A5A5A" stroke-width="0.5"/>
<path d="M326.413 172.483C326.413 171.769 327.017 171.189 327.762 171.189C328.507 171.189 329.111 171.769 329.111 172.483C329.111 173.198 328.507 173.777 327.762 173.777C327.017 173.777 326.413 173.198 326.413 172.483Z" fill="white" stroke="#5A5A5A" stroke-width="0.5"/>
<rect width="30" height="134" transform="matrix(1 -8.74228e-08 -8.74228e-08 -1 52 240)" fill="#5A5A5A"/>
<rect width="30" height="91" transform="matrix(1 -8.74228e-08 -8.74228e-08 -1 52 389)" fill="#5A5A5A"/>
<path d="M0.250167 209.25L0.313211 318.707L4.74999 318.748L4.75002 209.25L0.250167 209.25Z" stroke="#5A5A5A" stroke-width="0.5" stroke-miterlimit="10"/>
<rect y="197" width="5" height="74" transform="rotate(-90 0 197)" fill="#5A5A5A"/>
<rect y="324" width="5" height="74" transform="rotate(-90 0 324)" fill="#5A5A5A"/>
<rect y="305" width="5" height="19" fill="#5A5A5A"/>
<rect y="193" width="5" height="19" fill="#5A5A5A"/>
<path d="M66.7497 209.25L66.6869 269.726L62.25 269.749L62.25 209.25L66.7497 209.25Z" stroke="#5A5A5A" stroke-width="0.5" stroke-miterlimit="10"/>
<path d="M56.7497 209.25L56.6869 269.726L52.25 269.749L52.25 209.25L56.7497 209.25Z" stroke="#5A5A5A" stroke-width="0.5" stroke-miterlimit="10"/>
<line y1="-0.5" x2="31.3847" y2="-0.5" transform="matrix(0.509802 -0.860292 -0.860292 -0.509802 65 299)" stroke="#5A5A5A"/>
<rect width="30" height="38" transform="matrix(4.37114e-08 -1 -1 -4.37114e-08 105 389)" fill="#5A5A5A"/>
<rect width="30" height="75" transform="matrix(4.37114e-08 -1 -1 -4.37114e-08 239 389)" fill="#5A5A5A"/>
<rect width="30" height="54" transform="matrix(4.37114e-08 -1 -1 -4.37114e-08 351 389)" fill="#5A5A5A"/>
<rect width="20" height="52" transform="matrix(4.37114e-08 1 1 -4.37114e-08 67 105)" fill="#5A5A5A"/>
<rect width="20" height="74" transform="matrix(4.37114e-08 1 1 -4.37114e-08 223 2)" fill="#5A5A5A"/>
<rect width="20" height="35" transform="matrix(-1 -8.74228e-08 -8.74228e-08 1 297 11)" fill="#5A5A5A"/>
<rect width="16" height="141" transform="matrix(-1 0 0 1 351 82)" fill="#5A5A5A"/>
<path d="M234 13.3137L222.686 2L107.411 113.276L118.724 124.589L234 13.3137Z" fill="#5A5A5A"/>
<rect width="16" height="171" transform="matrix(-1 0 0 1 351 218)" fill="#5A5A5A"/>
<path d="M84.25 359.25L238.688 359.402L238.749 370.75L84.25 370.75L84.25 359.25Z" stroke="#5A5A5A" stroke-width="0.5" stroke-miterlimit="10"/>
<path d="M84.2502 377.25L238.688 377.402L238.749 388.75L84.2502 388.75L84.2502 377.25Z" stroke="#5A5A5A" stroke-width="0.5" stroke-miterlimit="10"/>
<path d="M102 117L102 125L210 125L210 117L102 117Z" fill="#5A5A5A"/>
<rect width="8" height="83" transform="matrix(4.37114e-08 1 1 -4.37114e-08 267 82)" fill="#5A5A5A"/>
<rect width="8.00001" height="71" transform="matrix(1 -8.74228e-08 -8.74228e-08 -1 267 188)" fill="#5A5A5A"/>
<rect width="8.00001" height="71" transform="matrix(-4.37114e-08 1 1 4.37114e-08 267 185)" fill="#5A5A5A"/>
<line y1="-0.5" x2="31.3847" y2="-0.5" transform="matrix(-0.509802 -0.860292 -0.860292 0.509802 269 121)" stroke="#5A5A5A"/>
<line x1="278.6" y1="81.7" x2="299.6" y2="53.7" stroke="#5A5A5A"/>
<path d="M300.75 440.75L219.282 440.687L219.252 436.25L300.75 436.25L300.75 440.75Z" stroke="#5A5A5A" stroke-width="0.5" stroke-miterlimit="10"/>
<rect width="5" height="74" transform="matrix(1 -8.74228e-08 -8.74228e-08 -1 307 441)" fill="#5A5A5A"/>
<rect width="5" height="74" transform="matrix(1 -8.74228e-08 -8.74228e-08 -1 208 441)" fill="#5A5A5A"/>
<rect width="5.00001" height="94" transform="matrix(-1.31134e-07 -1 -1 1.31134e-07 304 441)" fill="#5A5A5A"/>
<rect width="5" height="12" transform="matrix(-1.31134e-07 -1 -1 1.31134e-07 312 441)" fill="#5A5A5A"/>
<path d="M328.75 374.25L268.274 374.313L268.251 378.75L328.75 378.75L328.75 374.25Z" stroke="#5A5A5A" stroke-width="0.5" stroke-miterlimit="10"/>
<path d="M328.75 384.25L268.274 384.313L268.251 388.75L328.75 388.75L328.75 384.25Z" stroke="#5A5A5A" stroke-width="0.5" stroke-miterlimit="10"/>
<line x1="238.745" y1="375.57" x2="265.745" y2="359.57" stroke="#5A5A5A"/>
<path d="M315.491 115.807L316.672 115.801L319.738 115.845L327.329 115.912L327.417 105.955L315.58 105.85C312.563 105.823 310.084 108.045 310.059 110.796C310.035 113.515 312.475 115.78 315.491 115.807Z" fill="white" stroke="#5A5A5A" stroke-width="0.5"/>
<path d="M315.567 114.661L316.502 114.67L324.06 114.737L324.128 107.056L316.57 106.989L315.635 106.997C313.258 106.976 311.308 108.662 311.289 110.791C311.287 112.904 313.206 114.64 315.567 114.661Z" fill="white" stroke="#5A5A5A" stroke-width="0.5"/>
<path d="M333.795 104.211L328.532 104.164C327.925 104.158 327.429 104.645 327.424 105.251L327.323 116.535C327.318 117.141 327.805 117.636 328.412 117.642L333.675 117.689C334.281 117.694 334.778 117.207 334.783 116.601L334.883 105.334C334.889 104.712 334.401 104.216 333.795 104.211Z" fill="white" stroke="#5A5A5A" stroke-width="0.5"/>
<path d="M331.117 110.279C330.707 110.276 330.393 110.568 330.39 110.912C330.37 111.272 330.696 111.569 331.106 111.573C331.515 111.577 331.83 111.285 331.833 110.941C331.82 110.564 331.511 110.266 331.117 110.279Z" fill="white" stroke="#5A5A5A" stroke-width="0.5"/>
<path d="M333.848 125L321.54 125C320.685 125 320 125.684 320 126.539L320 145.058C320 145.913 320.685 146.596 321.54 146.596L333.848 146.596C334.704 146.596 335.389 145.913 335.389 145.058L335.389 126.539C335.389 125.698 334.704 125 333.848 125Z" fill="white" stroke="#5A5A5A" stroke-width="0.5"/>
<path d="M329.156 126.923L327.26 126.923C324.764 126.923 322.738 128.946 322.738 131.439L322.738 140.157C322.738 142.65 324.764 144.673 327.26 144.673L329.156 144.673C331.652 144.673 333.677 142.65 333.677 140.157L333.677 131.439C333.677 128.946 331.652 126.923 329.156 126.923Z" fill="white" stroke="#5A5A5A" stroke-width="0.5"/>
<path d="M331.267 134.843C330.724 134.843 330.283 135.271 330.283 135.798C330.283 136.325 330.724 136.752 331.267 136.752C331.811 136.752 332.251 136.325 332.251 135.798C332.251 135.271 331.811 134.843 331.267 134.843Z" fill="white" stroke="#5A5A5A" stroke-width="0.5"/>
<path d="M286.42 327.2H288.1C288.165 327.489 288.291 327.746 288.478 327.97C288.898 328.483 289.495 328.74 290.27 328.74C290.914 328.74 291.423 328.581 291.796 328.264C292.179 327.937 292.37 327.536 292.37 327.06C292.37 326.519 292.197 326.094 291.852 325.786C291.516 325.469 291.035 325.31 290.41 325.31H288.03V323.91L290.97 321.81V321.74H286.91V320.2H293.35V321.726L290.83 323.56L290.13 323.84V323.91L290.354 323.882C290.662 323.854 290.844 323.84 290.9 323.84C291.777 323.84 292.51 324.143 293.098 324.75C293.686 325.357 293.98 326.127 293.98 327.06C293.98 327.956 293.635 328.717 292.944 329.342C292.253 329.967 291.362 330.28 290.27 330.28C288.823 330.28 287.755 329.767 287.064 328.74C286.765 328.301 286.551 327.788 286.42 327.2ZM294.967 326.78C294.967 326.332 295.065 325.865 295.261 325.38C295.466 324.885 295.662 324.498 295.849 324.218C296.045 323.929 296.311 323.569 296.647 323.14L298.887 320.2H300.777L298.663 322.958L298.047 323.49V323.56L298.327 323.462C298.607 323.387 298.91 323.35 299.237 323.35C300.151 323.35 300.926 323.681 301.561 324.344C302.205 324.997 302.527 325.809 302.527 326.78C302.527 327.769 302.172 328.6 301.463 329.272C300.753 329.944 299.848 330.28 298.747 330.28C297.645 330.28 296.74 329.944 296.031 329.272C295.321 328.6 294.967 327.769 294.967 326.78ZM297.221 325.324C296.838 325.697 296.647 326.183 296.647 326.78C296.647 327.377 296.838 327.867 297.221 328.25C297.603 328.623 298.112 328.81 298.747 328.81C299.381 328.81 299.89 328.623 300.273 328.25C300.655 327.867 300.847 327.377 300.847 326.78C300.847 326.183 300.655 325.697 300.273 325.324C299.89 324.941 299.381 324.75 298.747 324.75C298.112 324.75 297.603 324.941 297.221 325.324ZM303.65 329.23C303.65 328.95 303.739 328.717 303.916 328.53C304.103 328.343 304.331 328.25 304.602 328.25C304.91 328.25 305.153 328.362 305.33 328.586C305.517 328.81 305.61 329.141 305.61 329.58C305.61 330.299 305.437 330.849 305.092 331.232C304.756 331.624 304.299 331.82 303.72 331.82V331.12C304 331.12 304.219 331.041 304.378 330.882C304.546 330.733 304.63 330.532 304.63 330.28V330.196C304.621 330.187 304.616 330.168 304.616 330.14V330.098L304.532 330.126C304.504 330.135 304.443 330.14 304.35 330.14C304.163 330.14 304 330.056 303.86 329.888C303.72 329.72 303.65 329.501 303.65 329.23ZM306.306 321.74V320.2H312.956V321.74L309.036 330H307.286L311.136 321.88V321.74H306.306ZM313.451 326.78C313.451 326.332 313.549 325.865 313.745 325.38C313.95 324.885 314.146 324.498 314.333 324.218C314.529 323.929 314.795 323.569 315.131 323.14L317.371 320.2H319.261L317.147 322.958L316.531 323.49V323.56L316.811 323.462C317.091 323.387 317.394 323.35 317.721 323.35C318.636 323.35 319.41 323.681 320.045 324.344C320.689 324.997 321.011 325.809 321.011 326.78C321.011 327.769 320.656 328.6 319.947 329.272C319.238 329.944 318.332 330.28 317.231 330.28C316.13 330.28 315.224 329.944 314.515 329.272C313.806 328.6 313.451 327.769 313.451 326.78ZM315.705 325.324C315.322 325.697 315.131 326.183 315.131 326.78C315.131 327.377 315.322 327.867 315.705 328.25C316.088 328.623 316.596 328.81 317.231 328.81C317.866 328.81 318.374 328.623 318.757 328.25C319.14 327.867 319.331 327.377 319.331 326.78C319.331 326.183 319.14 325.697 318.757 325.324C318.374 324.941 317.866 324.75 317.231 324.75C316.596 324.75 316.088 324.941 315.705 325.324Z" fill="#333333"/>
<path d="M248.42 413.2H250.1C250.165 413.489 250.291 413.746 250.478 413.97C250.898 414.483 251.495 414.74 252.27 414.74C252.914 414.74 253.423 414.581 253.796 414.264C254.179 413.937 254.37 413.536 254.37 413.06C254.37 412.519 254.197 412.094 253.852 411.786C253.516 411.469 253.035 411.31 252.41 411.31H250.03V409.91L252.97 407.81V407.74H248.91V406.2H255.35V407.726L252.83 409.56L252.13 409.84V409.91L252.354 409.882C252.662 409.854 252.844 409.84 252.9 409.84C253.777 409.84 254.51 410.143 255.098 410.75C255.686 411.357 255.98 412.127 255.98 413.06C255.98 413.956 255.635 414.717 254.944 415.342C254.253 415.967 253.362 416.28 252.27 416.28C250.823 416.28 249.755 415.767 249.064 414.74C248.765 414.301 248.551 413.788 248.42 413.2ZM257.037 415.23C257.037 414.95 257.125 414.717 257.303 414.53C257.489 414.343 257.718 414.25 257.989 414.25C258.297 414.25 258.539 414.362 258.717 414.586C258.903 414.81 258.997 415.141 258.997 415.58C258.997 416.299 258.824 416.849 258.479 417.232C258.143 417.624 257.685 417.82 257.107 417.82V417.12C257.387 417.12 257.606 417.041 257.765 416.882C257.933 416.733 258.017 416.532 258.017 416.28V416.196C258.007 416.187 258.003 416.168 258.003 416.14V416.098L257.919 416.126C257.891 416.135 257.83 416.14 257.737 416.14C257.55 416.14 257.387 416.056 257.247 415.888C257.107 415.72 257.037 415.501 257.037 415.23ZM260.043 412.78C260.043 412.332 260.141 411.865 260.337 411.38C260.542 410.885 260.738 410.498 260.925 410.218C261.121 409.929 261.387 409.569 261.723 409.14L263.963 406.2H265.853L263.739 408.958L263.123 409.49V409.56L263.403 409.462C263.683 409.387 263.986 409.35 264.313 409.35C265.227 409.35 266.002 409.681 266.637 410.344C267.281 410.997 267.603 411.809 267.603 412.78C267.603 413.769 267.248 414.6 266.539 415.272C265.829 415.944 264.924 416.28 263.823 416.28C262.721 416.28 261.816 415.944 261.107 415.272C260.397 414.6 260.043 413.769 260.043 412.78ZM262.297 411.324C261.914 411.697 261.723 412.183 261.723 412.78C261.723 413.377 261.914 413.867 262.297 414.25C262.679 414.623 263.188 414.81 263.823 414.81C264.457 414.81 264.966 414.623 265.349 414.25C265.731 413.867 265.923 413.377 265.923 412.78C265.923 412.183 265.731 411.697 265.349 411.324C264.966 410.941 264.457 410.75 263.823 410.75C263.188 410.75 262.679 410.941 262.297 411.324ZM268.656 412.78C268.656 412.332 268.754 411.865 268.95 411.38C269.155 410.885 269.351 410.498 269.538 410.218C269.734 409.929 270 409.569 270.336 409.14L272.576 406.2H274.466L272.352 408.958L271.736 409.49V409.56L272.016 409.462C272.296 409.387 272.599 409.35 272.926 409.35C273.841 409.35 274.615 409.681 275.25 410.344C275.894 410.997 276.216 411.809 276.216 412.78C276.216 413.769 275.861 414.6 275.152 415.272C274.443 415.944 273.537 416.28 272.436 416.28C271.335 416.28 270.429 415.944 269.72 415.272C269.011 414.6 268.656 413.769 268.656 412.78ZM270.91 411.324C270.527 411.697 270.336 412.183 270.336 412.78C270.336 413.377 270.527 413.867 270.91 414.25C271.293 414.623 271.801 414.81 272.436 414.81C273.071 414.81 273.579 414.623 273.962 414.25C274.345 413.867 274.536 413.377 274.536 412.78C274.536 412.183 274.345 411.697 273.962 411.324C273.579 410.941 273.071 410.75 272.436 410.75C271.801 410.75 271.293 410.941 270.91 411.324Z" fill="#333333"/>
<path d="M19.21 287.04V285.5L22.5 279.2H24.25L20.96 285.5H24.18V283.12H24.25H25.79V285.5H27.19V287.04H25.79V289H24.18V287.04H19.21ZM27.7495 288.23C27.7495 287.95 27.8381 287.717 28.0155 287.53C28.2021 287.343 28.4308 287.25 28.7015 287.25C29.0095 287.25 29.2521 287.362 29.4295 287.586C29.6161 287.81 29.7095 288.141 29.7095 288.58C29.7095 289.299 29.5368 289.849 29.1915 290.232C28.8555 290.624 28.3981 290.82 27.8195 290.82V290.12C28.0995 290.12 28.3188 290.041 28.4775 289.882C28.6455 289.733 28.7295 289.532 28.7295 289.28V289.196C28.7201 289.187 28.7155 289.168 28.7155 289.14V289.098L28.6315 289.126C28.6035 289.135 28.5428 289.14 28.4495 289.14C28.2628 289.14 28.0995 289.056 27.9595 288.888C27.8195 288.72 27.7495 288.501 27.7495 288.23ZM30.4056 280.74V279.2H37.0556V280.74L33.1356 289H31.3856L35.2356 280.88V280.74H30.4056ZM37.5505 285.78C37.5505 285.332 37.6485 284.865 37.8445 284.38C38.0499 283.885 38.2459 283.498 38.4325 283.218C38.6285 282.929 38.8945 282.569 39.2305 282.14L41.4705 279.2H43.3605L41.2465 281.958L40.6305 282.49V282.56L40.9105 282.462C41.1905 282.387 41.4939 282.35 41.8205 282.35C42.7352 282.35 43.5099 282.681 44.1445 283.344C44.7885 283.997 45.1105 284.809 45.1105 285.78C45.1105 286.769 44.7559 287.6 44.0465 288.272C43.3372 288.944 42.4319 289.28 41.3305 289.28C40.2292 289.28 39.3239 288.944 38.6145 288.272C37.9052 287.6 37.5505 286.769 37.5505 285.78ZM39.8045 284.324C39.4219 284.697 39.2305 285.183 39.2305 285.78C39.2305 286.377 39.4219 286.867 39.8045 287.25C40.1872 287.623 40.6959 287.81 41.3305 287.81C41.9652 287.81 42.4739 287.623 42.8565 287.25C43.2392 286.867 43.4305 286.377 43.4305 285.78C43.4305 285.183 43.2392 284.697 42.8565 284.324C42.4739 283.941 41.9652 283.75 41.3305 283.75C40.6959 283.75 40.1872 283.941 39.8045 284.324Z" fill="#333333"/>
<path d="M140.49 171.78C140.49 171.332 140.588 170.865 140.784 170.38C140.989 169.885 141.185 169.498 141.372 169.218C141.568 168.929 141.834 168.569 142.17 168.14L144.41 165.2H146.3L144.186 167.958L143.57 168.49V168.56L143.85 168.462C144.13 168.387 144.433 168.35 144.76 168.35C145.675 168.35 146.449 168.681 147.084 169.344C147.728 169.997 148.05 170.809 148.05 171.78C148.05 172.769 147.695 173.6 146.986 174.272C146.277 174.944 145.371 175.28 144.27 175.28C143.169 175.28 142.263 174.944 141.554 174.272C140.845 173.6 140.49 172.769 140.49 171.78ZM142.744 170.324C142.361 170.697 142.17 171.183 142.17 171.78C142.17 172.377 142.361 172.867 142.744 173.25C143.127 173.623 143.635 173.81 144.27 173.81C144.905 173.81 145.413 173.623 145.796 173.25C146.179 172.867 146.37 172.377 146.37 171.78C146.37 171.183 146.179 170.697 145.796 170.324C145.413 169.941 144.905 169.75 144.27 169.75C143.635 169.75 143.127 169.941 142.744 170.324ZM149.173 174.23C149.173 173.95 149.262 173.717 149.439 173.53C149.626 173.343 149.855 173.25 150.125 173.25C150.433 173.25 150.676 173.362 150.853 173.586C151.04 173.81 151.133 174.141 151.133 174.58C151.133 175.299 150.961 175.849 150.615 176.232C150.279 176.624 149.822 176.82 149.243 176.82V176.12C149.523 176.12 149.743 176.041 149.901 175.882C150.069 175.733 150.153 175.532 150.153 175.28V175.196C150.144 175.187 150.139 175.168 150.139 175.14V175.098L150.055 175.126C150.027 175.135 149.967 175.14 149.873 175.14C149.687 175.14 149.523 175.056 149.383 174.888C149.243 174.72 149.173 174.501 149.173 174.23ZM152.039 168.42V166.6L153.859 165.2H155.329V175H153.719V167.16L152.039 168.42ZM156.731 175V173.46L160.077 171.094C160.805 170.571 161.327 170.086 161.645 169.638C161.962 169.19 162.121 168.714 162.121 168.21C162.121 167.678 161.957 167.253 161.631 166.936C161.304 166.619 160.861 166.46 160.301 166.46C159.61 166.46 159.092 166.74 158.747 167.3C158.597 167.543 158.485 167.823 158.411 168.14H156.731C156.815 167.543 156.997 167.006 157.277 166.53C157.939 165.457 158.947 164.92 160.301 164.92C161.337 164.92 162.177 165.228 162.821 165.844C163.474 166.451 163.801 167.216 163.801 168.14C163.801 168.943 163.595 169.666 163.185 170.31C162.774 170.945 162.116 171.575 161.211 172.2L159.811 173.18L159.181 173.46V173.53L160.021 173.46H163.801V175H156.731Z" fill="#333333"/>
<path d="M195.14 81.74V80.2H201.79V81.74L197.87 90H196.12L199.97 81.88V81.74H195.14ZM201.234 89.23C201.234 88.95 201.322 88.7167 201.5 88.53C201.686 88.3433 201.915 88.25 202.186 88.25C202.494 88.25 202.736 88.362 202.914 88.586C203.1 88.81 203.194 89.1413 203.194 89.58C203.194 90.2987 203.021 90.8493 202.676 91.232C202.34 91.624 201.882 91.82 201.304 91.82V91.12C201.584 91.12 201.803 91.0407 201.962 90.882C202.13 90.7327 202.214 90.532 202.214 90.28V90.196C202.204 90.1867 202.2 90.168 202.2 90.14V90.098L202.116 90.126C202.088 90.1353 202.027 90.14 201.934 90.14C201.747 90.14 201.584 90.056 201.444 89.888C201.304 89.72 201.234 89.5007 201.234 89.23ZM203.89 81.74V80.2H210.54V81.74L206.62 90H204.87L208.72 81.88V81.74H203.89ZM210.755 88.04V86.5L214.045 80.2H215.795L212.505 86.5H215.725V84.12H215.795H217.335V86.5H218.735V88.04H217.335V90H215.725V88.04H210.755Z" fill="#333333"/>
<path d="M279.21 137.04V135.5L282.5 129.2H284.25L280.96 135.5H284.18V133.12H284.25H285.79V135.5H287.19V137.04H285.79V139H284.18V137.04H279.21ZM287.749 138.23C287.749 137.95 287.838 137.717 288.015 137.53C288.202 137.343 288.431 137.25 288.701 137.25C289.009 137.25 289.252 137.362 289.429 137.586C289.616 137.81 289.709 138.141 289.709 138.58C289.709 139.299 289.537 139.849 289.191 140.232C288.855 140.624 288.398 140.82 287.819 140.82V140.12C288.099 140.12 288.319 140.041 288.477 139.882C288.645 139.733 288.729 139.532 288.729 139.28V139.196C288.72 139.187 288.715 139.168 288.715 139.14V139.098L288.631 139.126C288.603 139.135 288.543 139.14 288.449 139.14C288.263 139.14 288.099 139.056 287.959 138.888C287.819 138.72 287.749 138.501 287.749 138.23ZM290.826 132.42C290.826 131.431 291.18 130.6 291.89 129.928C292.599 129.256 293.504 128.92 294.606 128.92C295.707 128.92 296.612 129.256 297.322 129.928C298.031 130.6 298.386 131.431 298.386 132.42C298.386 133.307 298.017 134.263 297.28 135.29C297.205 135.393 297.102 135.533 296.972 135.71C296.841 135.878 296.752 135.995 296.706 136.06L294.466 139H292.576L294.69 136.242L295.306 135.71V135.64C295.287 135.649 295.194 135.687 295.026 135.752C294.783 135.817 294.48 135.85 294.116 135.85C293.201 135.85 292.422 135.523 291.778 134.87C291.143 134.207 290.826 133.391 290.826 132.42ZM293.08 130.964C292.697 131.337 292.506 131.823 292.506 132.42C292.506 133.017 292.697 133.507 293.08 133.89C293.462 134.263 293.971 134.45 294.606 134.45C295.24 134.45 295.749 134.263 296.132 133.89C296.514 133.507 296.706 133.017 296.706 132.42C296.706 131.823 296.514 131.337 296.132 130.964C295.749 130.581 295.24 130.39 294.606 130.39C293.971 130.39 293.462 130.581 293.08 130.964ZM299.369 135.78C299.369 135.332 299.467 134.865 299.663 134.38C299.868 133.885 300.064 133.498 300.251 133.218C300.447 132.929 300.713 132.569 301.049 132.14L303.289 129.2H305.179L303.065 131.958L302.449 132.49V132.56L302.729 132.462C303.009 132.387 303.312 132.35 303.639 132.35C304.554 132.35 305.328 132.681 305.963 133.344C306.607 133.997 306.929 134.809 306.929 135.78C306.929 136.769 306.574 137.6 305.865 138.272C305.156 138.944 304.25 139.28 303.149 139.28C302.048 139.28 301.142 138.944 300.433 138.272C299.724 137.6 299.369 136.769 299.369 135.78ZM301.623 134.324C301.24 134.697 301.049 135.183 301.049 135.78C301.049 136.377 301.24 136.867 301.623 137.25C302.006 137.623 302.514 137.81 303.149 137.81C303.784 137.81 304.292 137.623 304.675 137.25C305.058 136.867 305.249 136.377 305.249 135.78C305.249 135.183 305.058 134.697 304.675 134.324C304.292 133.941 303.784 133.75 303.149 133.75C302.514 133.75 302.006 133.941 301.623 134.324Z" fill="#333333"/>
<circle cx="174.5" cy="272.5" r="39.5" fill="#5A5A5A"/>
<path d="M148.72 276.49H150.88C150.976 276.862 151.138 277.18 151.366 277.444C151.894 278.068 152.662 278.38 153.67 278.38C154.474 278.38 155.11 278.164 155.578 277.732C156.046 277.3 156.28 276.736 156.28 276.04C156.28 275.308 156.046 274.72 155.578 274.276C155.11 273.832 154.474 273.61 153.67 273.61C152.926 273.61 152.296 273.808 151.78 274.204C151.576 274.36 151.396 274.552 151.24 274.78H149.26L149.8 267.4H157.45V269.38H151.51L151.24 272.62H151.33C151.522 272.428 151.744 272.266 151.996 272.134C152.56 271.798 153.238 271.63 154.03 271.63C155.29 271.63 156.34 272.05 157.18 272.89C158.02 273.73 158.44 274.78 158.44 276.04C158.44 277.276 157.996 278.308 157.108 279.136C156.232 279.952 155.086 280.36 153.67 280.36C151.822 280.36 150.448 279.718 149.548 278.434C149.164 277.87 148.888 277.222 148.72 276.49ZM159.794 276.49H161.954C162.05 276.862 162.212 277.18 162.44 277.444C162.968 278.068 163.736 278.38 164.744 278.38C165.548 278.38 166.184 278.164 166.652 277.732C167.12 277.3 167.354 276.736 167.354 276.04C167.354 275.308 167.12 274.72 166.652 274.276C166.184 273.832 165.548 273.61 164.744 273.61C164 273.61 163.37 273.808 162.854 274.204C162.65 274.36 162.47 274.552 162.314 274.78H160.334L160.874 267.4H168.524V269.38H162.584L162.314 272.62H162.404C162.596 272.428 162.818 272.266 163.07 272.134C163.634 271.798 164.312 271.63 165.104 271.63C166.364 271.63 167.414 272.05 168.254 272.89C169.094 273.73 169.514 274.78 169.514 276.04C169.514 277.276 169.07 278.308 168.182 279.136C167.306 279.952 166.16 280.36 164.744 280.36C162.896 280.36 161.522 279.718 160.622 278.434C160.238 277.87 159.962 277.222 159.794 276.49ZM170.868 279.01C170.868 278.65 170.982 278.35 171.21 278.11C171.45 277.87 171.744 277.75 172.092 277.75C172.488 277.75 172.8 277.894 173.028 278.182C173.268 278.47 173.388 278.896 173.388 279.46C173.388 280.384 173.166 281.092 172.722 281.584C172.29 282.088 171.702 282.34 170.958 282.34V281.44C171.318 281.44 171.6 281.338 171.804 281.134C172.02 280.942 172.128 280.684 172.128 280.36V280.252C172.116 280.24 172.11 280.216 172.11 280.18V280.126L172.002 280.162C171.966 280.174 171.888 280.18 171.768 280.18C171.528 280.18 171.318 280.072 171.138 279.856C170.958 279.64 170.868 279.358 170.868 279.01ZM174.824 276.49H176.984C177.08 276.862 177.242 277.18 177.47 277.444C177.998 278.068 178.766 278.38 179.774 278.38C180.578 278.38 181.214 278.164 181.682 277.732C182.15 277.3 182.384 276.736 182.384 276.04C182.384 275.308 182.15 274.72 181.682 274.276C181.214 273.832 180.578 273.61 179.774 273.61C179.03 273.61 178.4 273.808 177.884 274.204C177.68 274.36 177.5 274.552 177.344 274.78H175.364L175.904 267.4H183.554V269.38H177.614L177.344 272.62H177.434C177.626 272.428 177.848 272.266 178.1 272.134C178.664 271.798 179.342 271.63 180.134 271.63C181.394 271.63 182.444 272.05 183.284 272.89C184.124 273.73 184.544 274.78 184.544 276.04C184.544 277.276 184.1 278.308 183.212 279.136C182.336 279.952 181.19 280.36 179.774 280.36C177.926 280.36 176.552 279.718 175.652 278.434C175.268 277.87 174.992 277.222 174.824 276.49ZM185.898 276.58C185.898 275.488 186.318 274.618 187.158 273.97C187.518 273.718 187.938 273.526 188.418 273.394V273.286C188.046 273.142 187.716 272.944 187.428 272.692C186.768 272.128 186.438 271.384 186.438 270.46C186.438 269.512 186.84 268.708 187.644 268.048C188.46 267.376 189.558 267.04 190.938 267.04C192.318 267.04 193.41 267.376 194.214 268.048C195.03 268.708 195.438 269.512 195.438 270.46C195.438 271.36 195.108 272.104 194.448 272.692C194.136 272.944 193.806 273.142 193.458 273.286V273.394C193.914 273.514 194.334 273.712 194.718 273.988C195.558 274.636 195.978 275.5 195.978 276.58C195.978 277.624 195.522 278.518 194.61 279.262C193.71 279.994 192.486 280.36 190.938 280.36C189.39 280.36 188.16 279.994 187.248 279.262C186.348 278.518 185.898 277.624 185.898 276.58ZM188.598 270.64C188.598 271.168 188.802 271.6 189.21 271.936C189.618 272.272 190.194 272.44 190.938 272.44C191.682 272.44 192.258 272.272 192.666 271.936C193.074 271.6 193.278 271.168 193.278 270.64C193.278 270.16 193.068 269.758 192.648 269.434C192.24 269.098 191.67 268.93 190.938 268.93C190.206 268.93 189.63 269.098 189.21 269.434C188.802 269.758 188.598 270.16 188.598 270.64ZM188.814 274.942C188.31 275.338 188.058 275.824 188.058 276.4C188.058 276.976 188.31 277.468 188.814 277.876C189.33 278.272 190.038 278.47 190.938 278.47C191.838 278.47 192.54 278.272 193.044 277.876C193.56 277.468 193.818 276.976 193.818 276.4C193.818 275.824 193.56 275.338 193.044 274.942C192.54 274.534 191.838 274.33 190.938 274.33C190.038 274.33 189.33 274.534 188.814 274.942Z" fill="white"/>
</svg>
