<svg width="300" height="631" viewBox="0 0 300 631" fill="none" xmlns="http://www.w3.org/2000/svg">
<path d="M293 547H156V30H293V547Z" fill="#E7FFD5"/>
<path d="M300 286H33V231H300V286Z" fill="#E7FFD5"/>
<path d="M219.35 514.42V512.6L221.17 511.2H222.64V521H221.03V513.16L219.35 514.42ZM224.111 517.78C224.111 517.332 224.209 516.865 224.405 516.38C224.61 515.885 224.806 515.498 224.993 515.218C225.189 514.929 225.455 514.569 225.791 514.14L228.031 511.2H229.921L227.807 513.958L227.191 514.49V514.56L227.471 514.462C227.751 514.387 228.054 514.35 228.381 514.35C229.296 514.35 230.07 514.681 230.705 515.344C231.349 515.997 231.671 516.809 231.671 517.78C231.671 518.769 231.316 519.6 230.607 520.272C229.898 520.944 228.992 521.28 227.891 521.28C226.79 521.28 225.884 520.944 225.175 520.272C224.466 519.6 224.111 518.769 224.111 517.78ZM226.365 516.324C225.982 516.697 225.791 517.183 225.791 517.78C225.791 518.377 225.982 518.867 226.365 519.25C226.748 519.623 227.256 519.81 227.891 519.81C228.526 519.81 229.034 519.623 229.417 519.25C229.8 518.867 229.991 518.377 229.991 517.78C229.991 517.183 229.8 516.697 229.417 516.324C229.034 515.941 228.526 515.75 227.891 515.75C227.256 515.75 226.748 515.941 226.365 516.324ZM232.794 520.23C232.794 519.95 232.883 519.717 233.06 519.53C233.247 519.343 233.476 519.25 233.746 519.25C234.054 519.25 234.297 519.362 234.474 519.586C234.661 519.81 234.754 520.141 234.754 520.58C234.754 521.299 234.582 521.849 234.236 522.232C233.9 522.624 233.443 522.82 232.864 522.82V522.12C233.144 522.12 233.364 522.041 233.522 521.882C233.69 521.733 233.774 521.532 233.774 521.28V521.196C233.765 521.187 233.76 521.168 233.76 521.14V521.098L233.676 521.126C233.648 521.135 233.588 521.14 233.494 521.14C233.308 521.14 233.144 521.056 233.004 520.888C232.864 520.72 232.794 520.501 232.794 520.23ZM235.871 514.42C235.871 513.431 236.225 512.6 236.935 511.928C237.644 511.256 238.549 510.92 239.651 510.92C240.752 510.92 241.657 511.256 242.367 511.928C243.076 512.6 243.431 513.431 243.431 514.42C243.431 515.307 243.062 516.263 242.325 517.29C242.25 517.393 242.147 517.533 242.017 517.71C241.886 517.878 241.797 517.995 241.751 518.06L239.511 521H237.621L239.735 518.242L240.351 517.71V517.64C240.332 517.649 240.239 517.687 240.071 517.752C239.828 517.817 239.525 517.85 239.161 517.85C238.246 517.85 237.467 517.523 236.823 516.87C236.188 516.207 235.871 515.391 235.871 514.42ZM238.125 512.964C237.742 513.337 237.551 513.823 237.551 514.42C237.551 515.017 237.742 515.507 238.125 515.89C238.507 516.263 239.016 516.45 239.651 516.45C240.285 516.45 240.794 516.263 241.177 515.89C241.559 515.507 241.751 515.017 241.751 514.42C241.751 513.823 241.559 513.337 241.177 512.964C240.794 512.581 240.285 512.39 239.651 512.39C239.016 512.39 238.507 512.581 238.125 512.964ZM244.274 514.42V512.6L246.094 511.2H247.564V521H245.954V513.16L244.274 514.42Z" fill="#333333"/>
<path d="M194.42 600.2H196.1C196.165 600.489 196.291 600.746 196.478 600.97C196.898 601.483 197.495 601.74 198.27 601.74C198.914 601.74 199.423 601.581 199.796 601.264C200.179 600.937 200.37 600.536 200.37 600.06C200.37 599.519 200.197 599.094 199.852 598.786C199.516 598.469 199.035 598.31 198.41 598.31H196.03V596.91L198.97 594.81V594.74H194.91V593.2H201.35V594.726L198.83 596.56L198.13 596.84V596.91L198.354 596.882C198.662 596.854 198.844 596.84 198.9 596.84C199.777 596.84 200.51 597.143 201.098 597.75C201.686 598.357 201.98 599.127 201.98 600.06C201.98 600.956 201.635 601.717 200.944 602.342C200.253 602.967 199.362 603.28 198.27 603.28C196.823 603.28 195.755 602.767 195.064 601.74C194.765 601.301 194.551 600.788 194.42 600.2ZM203.037 602.23C203.037 601.95 203.125 601.717 203.303 601.53C203.489 601.343 203.718 601.25 203.989 601.25C204.297 601.25 204.539 601.362 204.717 601.586C204.903 601.81 204.997 602.141 204.997 602.58C204.997 603.299 204.824 603.849 204.479 604.232C204.143 604.624 203.685 604.82 203.107 604.82V604.12C203.387 604.12 203.606 604.041 203.765 603.882C203.933 603.733 204.017 603.532 204.017 603.28V603.196C204.007 603.187 204.003 603.168 204.003 603.14V603.098L203.919 603.126C203.891 603.135 203.83 603.14 203.737 603.14C203.55 603.14 203.387 603.056 203.247 602.888C203.107 602.72 203.037 602.501 203.037 602.23ZM206.043 599.78C206.043 599.332 206.141 598.865 206.337 598.38C206.542 597.885 206.738 597.498 206.925 597.218C207.121 596.929 207.387 596.569 207.723 596.14L209.963 593.2H211.853L209.739 595.958L209.123 596.49V596.56L209.403 596.462C209.683 596.387 209.986 596.35 210.313 596.35C211.227 596.35 212.002 596.681 212.637 597.344C213.281 597.997 213.603 598.809 213.603 599.78C213.603 600.769 213.248 601.6 212.539 602.272C211.829 602.944 210.924 603.28 209.823 603.28C208.721 603.28 207.816 602.944 207.107 602.272C206.397 601.6 206.043 600.769 206.043 599.78ZM208.297 598.324C207.914 598.697 207.723 599.183 207.723 599.78C207.723 600.377 207.914 600.867 208.297 601.25C208.679 601.623 209.188 601.81 209.823 601.81C210.457 601.81 210.966 601.623 211.349 601.25C211.731 600.867 211.923 600.377 211.923 599.78C211.923 599.183 211.731 598.697 211.349 598.324C210.966 597.941 210.457 597.75 209.823 597.75C209.188 597.75 208.679 597.941 208.297 598.324ZM214.656 599.78C214.656 599.332 214.754 598.865 214.95 598.38C215.155 597.885 215.351 597.498 215.538 597.218C215.734 596.929 216 596.569 216.336 596.14L218.576 593.2H220.466L218.352 595.958L217.736 596.49V596.56L218.016 596.462C218.296 596.387 218.599 596.35 218.926 596.35C219.841 596.35 220.615 596.681 221.25 597.344C221.894 597.997 222.216 598.809 222.216 599.78C222.216 600.769 221.861 601.6 221.152 602.272C220.443 602.944 219.537 603.28 218.436 603.28C217.335 603.28 216.429 602.944 215.72 602.272C215.011 601.6 214.656 600.769 214.656 599.78ZM216.91 598.324C216.527 598.697 216.336 599.183 216.336 599.78C216.336 600.377 216.527 600.867 216.91 601.25C217.293 601.623 217.801 601.81 218.436 601.81C219.071 601.81 219.579 601.623 219.962 601.25C220.345 600.867 220.536 600.377 220.536 599.78C220.536 599.183 220.345 598.697 219.962 598.324C219.579 597.941 219.071 597.75 218.436 597.75C217.801 597.75 217.293 597.941 216.91 598.324Z" fill="#333333"/>
<path d="M78.56 257.42C78.56 256.431 78.9147 255.6 79.624 254.928C80.3333 254.256 81.2387 253.92 82.34 253.92C83.4413 253.92 84.3467 254.256 85.056 254.928C85.7653 255.6 86.12 256.431 86.12 257.42C86.12 258.307 85.7513 259.263 85.014 260.29C84.9393 260.393 84.8367 260.533 84.706 260.71C84.5753 260.878 84.4867 260.995 84.44 261.06L82.2 264H80.31L82.424 261.242L83.04 260.71V260.64C83.0213 260.649 82.928 260.687 82.76 260.752C82.5173 260.817 82.214 260.85 81.85 260.85C80.9353 260.85 80.156 260.523 79.512 259.87C78.8773 259.207 78.56 258.391 78.56 257.42ZM80.814 255.964C80.4313 256.337 80.24 256.823 80.24 257.42C80.24 258.017 80.4313 258.507 80.814 258.89C81.1967 259.263 81.7053 259.45 82.34 259.45C82.9747 259.45 83.4833 259.263 83.866 258.89C84.2487 258.507 84.44 258.017 84.44 257.42C84.44 256.823 84.2487 256.337 83.866 255.964C83.4833 255.581 82.9747 255.39 82.34 255.39C81.7053 255.39 81.1967 255.581 80.814 255.964ZM87.1733 263.23C87.1733 262.95 87.2619 262.717 87.4393 262.53C87.6259 262.343 87.8546 262.25 88.1253 262.25C88.4333 262.25 88.6759 262.362 88.8533 262.586C89.0399 262.81 89.1333 263.141 89.1333 263.58C89.1333 264.299 88.9606 264.849 88.6153 265.232C88.2793 265.624 87.8219 265.82 87.2433 265.82V265.12C87.5233 265.12 87.7426 265.041 87.9013 264.882C88.0693 264.733 88.1533 264.532 88.1533 264.28V264.196C88.1439 264.187 88.1393 264.168 88.1393 264.14V264.098L88.0553 264.126C88.0273 264.135 87.9666 264.14 87.8733 264.14C87.6866 264.14 87.5233 264.056 87.3833 263.888C87.2433 263.72 87.1733 263.501 87.1733 263.23ZM90.1095 261.2H91.7895C91.8548 261.489 91.9808 261.746 92.1675 261.97C92.5875 262.483 93.1848 262.74 93.9595 262.74C94.6035 262.74 95.1121 262.581 95.4855 262.264C95.8681 261.937 96.0595 261.536 96.0595 261.06C96.0595 260.519 95.8868 260.094 95.5415 259.786C95.2055 259.469 94.7248 259.31 94.0995 259.31H91.7195V257.91L94.6595 255.81V255.74H90.5995V254.2H97.0395V255.726L94.5195 257.56L93.8195 257.84V257.91L94.0435 257.882C94.3515 257.854 94.5335 257.84 94.5895 257.84C95.4668 257.84 96.1995 258.143 96.7875 258.75C97.3755 259.357 97.6695 260.127 97.6695 261.06C97.6695 261.956 97.3241 262.717 96.6335 263.342C95.9428 263.967 95.0515 264.28 93.9595 264.28C92.5128 264.28 91.4441 263.767 90.7535 262.74C90.4548 262.301 90.2401 261.788 90.1095 261.2ZM98.376 262.04V260.5L101.666 254.2H103.416L100.126 260.5H103.346V258.12H103.416H104.956V260.5H106.356V262.04H104.956V264H103.346V262.04H98.376Z" fill="#333333"/>
<path d="M200.35 98.42V96.6L202.17 95.2H203.64V105H202.03V97.16L200.35 98.42ZM205.181 102.34C205.181 101.491 205.508 100.814 206.161 100.31C206.441 100.114 206.768 99.9647 207.141 99.862V99.778C206.852 99.666 206.595 99.512 206.371 99.316C205.858 98.8773 205.601 98.2987 205.601 97.58C205.601 96.8427 205.914 96.2173 206.539 95.704C207.174 95.1813 208.028 94.92 209.101 94.92C210.174 94.92 211.024 95.1813 211.649 95.704C212.284 96.2173 212.601 96.8427 212.601 97.58C212.601 98.28 212.344 98.8587 211.831 99.316C211.588 99.512 211.332 99.666 211.061 99.778V99.862C211.416 99.9553 211.742 100.109 212.041 100.324C212.694 100.828 213.021 101.5 213.021 102.34C213.021 103.152 212.666 103.847 211.957 104.426C211.257 104.995 210.305 105.28 209.101 105.28C207.897 105.28 206.94 104.995 206.231 104.426C205.531 103.847 205.181 103.152 205.181 102.34ZM207.281 97.72C207.281 98.1307 207.44 98.4667 207.757 98.728C208.074 98.9893 208.522 99.12 209.101 99.12C209.68 99.12 210.128 98.9893 210.445 98.728C210.762 98.4667 210.921 98.1307 210.921 97.72C210.921 97.3467 210.758 97.034 210.431 96.782C210.114 96.5207 209.67 96.39 209.101 96.39C208.532 96.39 208.084 96.5207 207.757 96.782C207.44 97.034 207.281 97.3467 207.281 97.72ZM207.449 101.066C207.057 101.374 206.861 101.752 206.861 102.2C206.861 102.648 207.057 103.031 207.449 103.348C207.85 103.656 208.401 103.81 209.101 103.81C209.801 103.81 210.347 103.656 210.739 103.348C211.14 103.031 211.341 102.648 211.341 102.2C211.341 101.752 211.14 101.374 210.739 101.066C210.347 100.749 209.801 100.59 209.101 100.59C208.401 100.59 207.85 100.749 207.449 101.066ZM214.136 104.23C214.136 103.95 214.225 103.717 214.402 103.53C214.589 103.343 214.818 103.25 215.088 103.25C215.396 103.25 215.639 103.362 215.816 103.586C216.003 103.81 216.096 104.141 216.096 104.58C216.096 105.299 215.924 105.849 215.578 106.232C215.242 106.624 214.785 106.82 214.206 106.82V106.12C214.486 106.12 214.706 106.041 214.864 105.882C215.032 105.733 215.116 105.532 215.116 105.28V105.196C215.107 105.187 215.102 105.168 215.102 105.14V105.098L215.018 105.126C214.99 105.135 214.93 105.14 214.836 105.14C214.65 105.14 214.486 105.056 214.346 104.888C214.206 104.72 214.136 104.501 214.136 104.23ZM218.612 103.824C217.726 102.853 217.282 101.612 217.282 100.1C217.282 98.588 217.726 97.3467 218.612 96.376C219.499 95.4053 220.572 94.92 221.832 94.92C223.092 94.92 224.166 95.4053 225.052 96.376C225.939 97.3467 226.382 98.588 226.382 100.1C226.382 101.612 225.939 102.853 225.052 103.824C224.166 104.795 223.092 105.28 221.832 105.28C220.572 105.28 219.499 104.795 218.612 103.824ZM219.76 97.412C219.228 98.0467 218.962 98.9427 218.962 100.1C218.962 101.257 219.228 102.153 219.76 102.788C220.302 103.423 220.992 103.74 221.832 103.74C222.672 103.74 223.358 103.423 223.89 102.788C224.432 102.153 224.702 101.257 224.702 100.1C224.702 98.9427 224.432 98.0467 223.89 97.412C223.358 96.7773 222.672 96.46 221.832 96.46C220.992 96.46 220.302 96.7773 219.76 97.412ZM227.436 105V103.46L230.782 101.094C231.51 100.571 232.032 100.086 232.35 99.638C232.667 99.19 232.826 98.714 232.826 98.21C232.826 97.678 232.662 97.2533 232.336 96.936C232.009 96.6187 231.566 96.46 231.006 96.46C230.315 96.46 229.797 96.74 229.452 97.3C229.302 97.5427 229.19 97.8227 229.116 98.14H227.436C227.52 97.5427 227.702 97.006 227.982 96.53C228.644 95.4567 229.652 94.92 231.006 94.92C232.042 94.92 232.882 95.228 233.526 95.844C234.179 96.4507 234.506 97.216 234.506 98.14C234.506 98.9427 234.3 99.666 233.89 100.31C233.479 100.945 232.821 101.575 231.916 102.2L230.516 103.18L229.886 103.46V103.53L230.726 103.46H234.506V105H227.436Z" fill="#333333"/>
<circle cx="210.5" cy="428.5" r="39.5" fill="#5A5A5A"/>
<path d="M187.72 432.49H189.88C189.976 432.862 190.138 433.18 190.366 433.444C190.894 434.068 191.662 434.38 192.67 434.38C193.474 434.38 194.11 434.164 194.578 433.732C195.046 433.3 195.28 432.736 195.28 432.04C195.28 431.308 195.046 430.72 194.578 430.276C194.11 429.832 193.474 429.61 192.67 429.61C191.926 429.61 191.296 429.808 190.78 430.204C190.576 430.36 190.396 430.552 190.24 430.78H188.26L188.8 423.4H196.45V425.38H190.51L190.24 428.62H190.33C190.522 428.428 190.744 428.266 190.996 428.134C191.56 427.798 192.238 427.63 193.03 427.63C194.29 427.63 195.34 428.05 196.18 428.89C197.02 429.73 197.44 430.78 197.44 432.04C197.44 433.276 196.996 434.308 196.108 435.136C195.232 435.952 194.086 436.36 192.67 436.36C190.822 436.36 189.448 435.718 188.548 434.434C188.164 433.87 187.888 433.222 187.72 432.49ZM200.594 434.488C199.454 433.24 198.884 431.644 198.884 429.7C198.884 427.756 199.454 426.16 200.594 424.912C201.734 423.664 203.114 423.04 204.734 423.04C206.354 423.04 207.734 423.664 208.874 424.912C210.014 426.16 210.584 427.756 210.584 429.7C210.584 431.644 210.014 433.24 208.874 434.488C207.734 435.736 206.354 436.36 204.734 436.36C203.114 436.36 201.734 435.736 200.594 434.488ZM202.07 426.244C201.386 427.06 201.044 428.212 201.044 429.7C201.044 431.188 201.386 432.34 202.07 433.156C202.766 433.972 203.654 434.38 204.734 434.38C205.814 434.38 206.696 433.972 207.38 433.156C208.076 432.34 208.424 431.188 208.424 429.7C208.424 428.212 208.076 427.06 207.38 426.244C206.696 425.428 205.814 425.02 204.734 425.02C203.654 425.02 202.766 425.428 202.07 426.244ZM212.118 435.01C212.118 434.65 212.232 434.35 212.46 434.11C212.7 433.87 212.994 433.75 213.342 433.75C213.738 433.75 214.05 433.894 214.278 434.182C214.518 434.47 214.638 434.896 214.638 435.46C214.638 436.384 214.416 437.092 213.972 437.584C213.54 438.088 212.952 438.34 212.208 438.34V437.44C212.568 437.44 212.85 437.338 213.054 437.134C213.27 436.942 213.378 436.684 213.378 436.36V436.252C213.366 436.24 213.36 436.216 213.36 436.18V436.126L213.252 436.162C213.216 436.174 213.138 436.18 213.018 436.18C212.778 436.18 212.568 436.072 212.388 435.856C212.208 435.64 212.118 435.358 212.118 435.01ZM215.624 433.48V431.5L219.854 423.4H222.104L217.874 431.5H222.014V428.44H222.104H224.084V431.5H225.884V433.48H224.084V436H222.014V433.48H215.624ZM226.513 431.86C226.513 431.284 226.639 430.684 226.891 430.06C227.155 429.424 227.407 428.926 227.647 428.566C227.899 428.194 228.241 427.732 228.673 427.18L231.553 423.4H233.983L231.265 426.946L230.473 427.63V427.72L230.833 427.594C231.193 427.498 231.583 427.45 232.003 427.45C233.179 427.45 234.175 427.876 234.991 428.728C235.819 429.568 236.233 430.612 236.233 431.86C236.233 433.132 235.777 434.2 234.865 435.064C233.953 435.928 232.789 436.36 231.373 436.36C229.957 436.36 228.793 435.928 227.881 435.064C226.969 434.2 226.513 433.132 226.513 431.86ZM229.411 429.988C228.919 430.468 228.673 431.092 228.673 431.86C228.673 432.628 228.919 433.258 229.411 433.75C229.903 434.23 230.557 434.47 231.373 434.47C232.189 434.47 232.843 434.23 233.335 433.75C233.827 433.258 234.073 432.628 234.073 431.86C234.073 431.092 233.827 430.468 233.335 429.988C232.843 429.496 232.189 429.25 231.373 429.25C230.557 429.25 229.903 429.496 229.411 429.988Z" fill="white"/>
<rect x="283" y="351" width="84" height="116" transform="rotate(-180 283 351)" fill="#FDFF9F"/>
<path d="M211.49 295.78C211.49 295.332 211.588 294.865 211.784 294.38C211.989 293.885 212.185 293.498 212.372 293.218C212.568 292.929 212.834 292.569 213.17 292.14L215.41 289.2H217.3L215.186 291.958L214.57 292.49V292.56L214.85 292.462C215.13 292.387 215.433 292.35 215.76 292.35C216.675 292.35 217.449 292.681 218.084 293.344C218.728 293.997 219.05 294.809 219.05 295.78C219.05 296.769 218.695 297.6 217.986 298.272C217.277 298.944 216.371 299.28 215.27 299.28C214.169 299.28 213.263 298.944 212.554 298.272C211.845 297.6 211.49 296.769 211.49 295.78ZM213.744 294.324C213.361 294.697 213.17 295.183 213.17 295.78C213.17 296.377 213.361 296.867 213.744 297.25C214.127 297.623 214.635 297.81 215.27 297.81C215.905 297.81 216.413 297.623 216.796 297.25C217.179 296.867 217.37 296.377 217.37 295.78C217.37 295.183 217.179 294.697 216.796 294.324C216.413 293.941 215.905 293.75 215.27 293.75C214.635 293.75 214.127 293.941 213.744 294.324ZM220.173 298.23C220.173 297.95 220.262 297.717 220.439 297.53C220.626 297.343 220.855 297.25 221.125 297.25C221.433 297.25 221.676 297.362 221.853 297.586C222.04 297.81 222.133 298.141 222.133 298.58C222.133 299.299 221.961 299.849 221.615 300.232C221.279 300.624 220.822 300.82 220.243 300.82V300.12C220.523 300.12 220.743 300.041 220.901 299.882C221.069 299.733 221.153 299.532 221.153 299.28V299.196C221.144 299.187 221.139 299.168 221.139 299.14V299.098L221.055 299.126C221.027 299.135 220.967 299.14 220.873 299.14C220.687 299.14 220.523 299.056 220.383 298.888C220.243 298.72 220.173 298.501 220.173 298.23ZM223.039 292.42V290.6L224.859 289.2H226.329V299H224.719V291.16L223.039 292.42ZM227.871 292.42C227.871 291.431 228.225 290.6 228.935 289.928C229.644 289.256 230.549 288.92 231.651 288.92C232.752 288.92 233.657 289.256 234.367 289.928C235.076 290.6 235.431 291.431 235.431 292.42C235.431 293.307 235.062 294.263 234.325 295.29C234.25 295.393 234.147 295.533 234.017 295.71C233.886 295.878 233.797 295.995 233.751 296.06L231.511 299H229.621L231.735 296.242L232.351 295.71V295.64C232.332 295.649 232.239 295.687 232.071 295.752C231.828 295.817 231.525 295.85 231.161 295.85C230.246 295.85 229.467 295.523 228.823 294.87C228.188 294.207 227.871 293.391 227.871 292.42ZM230.125 290.964C229.742 291.337 229.551 291.823 229.551 292.42C229.551 293.017 229.742 293.507 230.125 293.89C230.507 294.263 231.016 294.45 231.651 294.45C232.285 294.45 232.794 294.263 233.177 293.89C233.559 293.507 233.751 293.017 233.751 292.42C233.751 291.823 233.559 291.337 233.177 290.964C232.794 290.581 232.285 290.39 231.651 290.39C231.016 290.39 230.507 290.581 230.125 290.964Z" fill="#333333"/>
<rect x="295" y="577" width="30" height="577" transform="rotate(-180 295 577)" fill="#5A5A5A"/>
<path d="M265 180.033L240.005 180.033L240.005 155.709L265 155.709L265 180.033Z" fill="white" stroke="#5A5A5A" stroke-width="0.5"/>
<path d="M242.031 179.107L261.484 179.107C262.222 179.107 262.615 178.714 262.615 177.945L262.615 157.797C262.615 157.012 262.238 156.635 261.484 156.635L242.031 156.635C241.278 156.619 240.901 157.012 240.901 157.781L240.901 177.929C240.885 178.714 241.278 179.107 242.031 179.107Z" fill="white" stroke="#5A5A5A" stroke-width="0.5"/>
<path d="M243.82 172.605C243.836 170.815 245.249 169.355 246.992 169.355C248.75 169.355 250.163 170.815 250.163 172.605C250.163 174.411 248.75 175.856 246.992 175.856C245.233 175.856 243.82 174.411 243.82 172.605Z" stroke="#5A5A5A" stroke-width="0.5"/>
<path d="M243.851 162.979C243.866 161.189 245.279 159.729 247.022 159.729C248.781 159.729 250.194 161.189 250.194 162.979C250.194 164.785 248.781 166.23 247.022 166.23C245.264 166.246 243.835 164.785 243.851 162.979Z" stroke="#5A5A5A" stroke-width="0.5"/>
<path d="M252.864 162.98C252.864 161.174 254.277 159.729 256.036 159.729C257.794 159.729 259.207 161.189 259.207 162.98C259.192 164.77 257.779 166.23 256.036 166.23C254.293 166.23 252.864 164.77 252.864 162.98Z" stroke="#5A5A5A" stroke-width="0.5"/>
<path d="M252.864 172.605C252.864 170.8 254.277 169.355 256.036 169.355C257.794 169.355 259.207 170.815 259.207 172.605C259.192 174.396 257.779 175.856 256.036 175.856C254.293 175.856 252.864 174.396 252.864 172.605Z" stroke="#5A5A5A" stroke-width="0.5"/>
<path d="M264.985 204.301H240.896L240.896 228H265L264.985 204.301Z" fill="white" stroke="#5A5A5A" stroke-width="0.5"/>
<path d="M258.378 206.104L245.061 206.104C244.319 206.104 243.955 206.468 243.955 207.225L243.955 224.833C243.955 225.56 244.319 225.939 245.046 225.954L258.378 225.939C259.105 225.954 259.469 225.576 259.469 224.833L259.469 207.225C259.499 206.483 259.121 206.104 258.378 206.104Z" fill="white" stroke="#5A5A5A" stroke-width="0.5"/>
<path d="M263.137 216.029C263.122 216.954 262.425 217.696 261.546 217.696L254.562 217.044L254.547 217.029C254.016 217.029 253.592 216.59 253.592 216.029C253.592 215.469 254.016 215.029 254.562 215.014L261.546 214.362C262.41 214.362 263.122 215.105 263.137 216.029Z" stroke="#5A5A5A" stroke-width="0.5"/>
<mask id="path-20-inside-1_58_14289" fill="white">
<path fill-rule="evenodd" clip-rule="evenodd" d="M262.454 217.408L258.651 217.045C258.121 217.03 257.682 216.59 257.697 216.014C257.697 215.454 258.121 215.029 258.651 215.014L262.454 214.651"/>
</mask>
<path fill-rule="evenodd" clip-rule="evenodd" d="M262.454 217.408L258.651 217.045C258.121 217.03 257.682 216.59 257.697 216.014C257.697 215.454 258.121 215.029 258.651 215.014L262.454 214.651" fill="white"/>
<path d="M258.651 217.045L258.666 216.545L258.682 216.545L258.699 216.547L258.651 217.045ZM257.697 216.014H258.197L258.197 216.027L257.697 216.014ZM258.651 215.014L258.699 215.512L258.682 215.514L258.666 215.514L258.651 215.014ZM262.407 217.906L258.604 217.542L258.699 216.547L262.502 216.911L262.407 217.906ZM258.637 217.544C257.832 217.521 257.175 216.853 257.197 216.001L258.197 216.027C258.189 216.327 258.41 216.538 258.666 216.545L258.637 217.544ZM257.197 216.014C257.197 215.185 257.835 214.537 258.637 214.514L258.666 215.514C258.408 215.521 258.197 215.722 258.197 216.014H257.197ZM258.604 214.516L262.407 214.153L262.502 215.148L258.699 215.512L258.604 214.516Z" fill="#5A5A5A" mask="url(#path-20-inside-1_58_14289)"/>
<rect x="192" y="359" width="8" height="78" transform="rotate(-90 192 359)" fill="#5A5A5A"/>
<rect x="192" y="239" width="8" height="78" transform="rotate(-90 192 239)" fill="#5A5A5A"/>
<rect x="194" y="299" width="8" height="53" fill="#5A5A5A"/>
<path d="M245.702 335.28L246.882 335.264L249.948 335.28L257.54 335.28L257.54 325.323L245.702 325.323C242.685 325.323 240.226 327.567 240.226 330.318C240.226 333.037 242.685 335.28 245.702 335.28Z" fill="white" stroke="#5A5A5A" stroke-width="0.5"/>
<path d="M245.767 334.134L246.702 334.134L254.26 334.134L254.26 326.453L246.702 326.453L245.767 326.47C243.39 326.47 241.455 328.173 241.455 330.302C241.471 332.414 243.406 334.134 245.767 334.134Z" fill="white" stroke="#5A5A5A" stroke-width="0.5"/>
<path d="M263.902 323.522L258.639 323.522C258.032 323.522 257.54 324.013 257.54 324.619L257.54 335.903C257.54 336.509 258.032 337 258.639 337L263.902 337C264.508 337 265 336.509 265 335.903L265 324.635C265 324.013 264.508 323.522 263.902 323.522Z" fill="white" stroke="#5A5A5A" stroke-width="0.5"/>
<path d="M261.278 329.614C260.868 329.614 260.556 329.909 260.556 330.253C260.54 330.613 260.868 330.908 261.278 330.908C261.687 330.908 261.999 330.613 261.999 330.269C261.983 329.892 261.671 329.597 261.278 329.614Z" fill="white" stroke="#5A5A5A" stroke-width="0.5"/>
<path d="M263.46 275.404L251.152 275.404C250.296 275.404 249.611 276.087 249.611 276.942L249.611 295.461C249.611 296.316 250.296 297 251.152 297L263.46 297C264.315 297 265 296.316 265 295.461L265 276.942C265 276.102 264.315 275.404 263.46 275.404Z" fill="white" stroke="#5A5A5A" stroke-width="0.5"/>
<path d="M258.768 277.327L256.871 277.327C254.375 277.327 252.35 279.35 252.35 281.843L252.35 290.561C252.35 293.054 254.375 295.077 256.871 295.077L258.768 295.077C261.264 295.077 263.289 293.054 263.289 290.561L263.289 281.843C263.289 279.35 261.264 277.327 258.768 277.327Z" fill="white" stroke="#5A5A5A" stroke-width="0.5"/>
<path d="M260.878 285.247C260.335 285.247 259.894 285.674 259.894 286.201C259.894 286.728 260.335 287.156 260.878 287.156C261.422 287.156 261.862 286.728 261.862 286.201C261.862 285.674 261.422 285.247 260.878 285.247Z" fill="white" stroke="#5A5A5A" stroke-width="0.5"/>
<path d="M263.548 266.882L200.558 266.882C199.752 266.882 199.106 266.238 199.106 265.432L199.106 240.426C199.106 239.62 199.752 238.976 200.558 238.976L263.548 238.976C264.355 238.976 265 239.62 265 240.426L265 265.432C265 266.238 264.34 266.882 263.548 266.882Z" fill="white" stroke="#5A5A5A" stroke-width="0.5"/>
<path d="M202.978 256.32L202.978 249.523C202.978 245.582 206.176 242.403 210.106 242.403L259.706 242.403C260.674 242.403 261.451 243.18 261.451 244.146L261.451 261.725C261.451 262.692 260.674 263.469 259.706 263.469L210.121 263.469C206.176 263.454 202.978 260.26 202.978 256.32Z" fill="white" stroke="#5A5A5A" stroke-width="0.5"/>
<path d="M255.571 253.42C255.571 254.205 256.234 254.841 257.052 254.841C257.87 254.841 258.533 254.205 258.533 253.42C258.533 252.635 257.87 251.999 257.052 251.999C256.234 251.999 255.571 252.635 255.571 253.42Z" fill="white" stroke="#5A5A5A" stroke-width="0.5"/>
<path d="M199 329L199 351.01L220.588 351.024L220.574 329.014L199 329Z" fill="white" stroke="#5A5A5A" stroke-width="0.5"/>
<path d="M215.331 340.019C215.331 343.133 212.856 345.647 209.794 345.647C206.732 345.647 204.258 343.133 204.258 340.005C204.258 336.89 206.732 334.349 209.794 334.349C212.856 334.363 215.331 336.904 215.331 340.019Z" stroke="#5A5A5A" stroke-width="0.5"/>
<path d="M209.794 335.899C210.913 335.885 211.919 336.346 212.646 337.1C213.373 337.854 213.821 338.888 213.835 340.005M209.808 344.139C210.913 344.139 211.919 343.678 212.66 342.938C213.387 342.183 213.849 341.164 213.849 340.019L209.808 344.139ZM209.794 335.899C208.689 335.899 207.683 336.36 206.942 337.1C206.215 337.854 205.767 338.888 205.767 340.019L209.794 335.899ZM209.808 344.139C208.675 344.139 207.669 343.678 206.956 342.938L206.942 342.924C206.229 342.183 205.767 341.164 205.767 340.033L209.808 344.139Z" stroke="#5A5A5A" stroke-width="0.5"/>
<rect x="194" y="232" width="8" height="40" fill="#5A5A5A"/>
<rect x="240" y="577" width="30" height="55" transform="rotate(-90 240 577)" fill="#5A5A5A"/>
<rect x="140" y="577" width="30" height="47" transform="rotate(-90 140 577)" fill="#5A5A5A"/>
<line x1="214.242" y1="548.562" x2="243.242" y2="564.562" stroke="#5A5A5A"/>
<path d="M172.25 630.75L244.722 630.687L244.748 626.25L172.25 626.25L172.25 630.75Z" stroke="#5A5A5A" stroke-width="0.5" stroke-miterlimit="10"/>
<path d="M150.25 576.75L209.727 576.687L209.749 572.25L150.25 572.25L150.25 576.75Z" stroke="#5A5A5A" stroke-width="0.5" stroke-miterlimit="10"/>
<path d="M150.25 566.75L209.727 566.687L209.749 562.25L150.25 562.25L150.25 566.75Z" stroke="#5A5A5A" stroke-width="0.5" stroke-miterlimit="10"/>
<rect x="166" y="631" width="5" height="74" transform="rotate(180 166 631)" fill="#5A5A5A"/>
<rect x="262" y="631" width="5" height="74" transform="rotate(180 262 631)" fill="#5A5A5A"/>
<rect x="245" y="631" width="5" height="17" transform="rotate(-90 245 631)" fill="#5A5A5A"/>
<rect x="161" y="631" width="5" height="19" transform="rotate(-90 161 631)" fill="#5A5A5A"/>
<rect x="140" y="30" width="30" height="48" transform="rotate(-90 140 30)" fill="#5A5A5A"/>
<rect x="243" y="30" width="30" height="48" transform="rotate(-90 243 30)" fill="#5A5A5A"/>
<rect x="156" y="235" width="16" height="235" transform="rotate(-180 156 235)" fill="#5A5A5A"/>
<rect x="17" y="235" width="16" height="139" transform="rotate(-90 17 235)" fill="#5A5A5A"/>
<rect x="17" y="301" width="16" height="139" transform="rotate(-90 17 301)" fill="#5A5A5A"/>
<rect x="17" y="275" width="16" height="26" fill="#5A5A5A"/>
<rect x="17" y="220" width="16" height="20" fill="#5A5A5A"/>
<rect x="140" y="285" width="16" height="266" fill="#5A5A5A"/>
<path d="M160.25 29.7497L292.697 29.5982L292.749 18.25L160.25 18.25L160.25 29.7497Z" stroke="#5A5A5A" stroke-width="0.5" stroke-miterlimit="10"/>
<path d="M160.25 11.7497L292.697 11.5982L292.749 0.250008L160.25 0.250002L160.25 11.7497Z" stroke="#5A5A5A" stroke-width="0.5" stroke-miterlimit="10"/>
<line x1="195.432" y1="270.252" x2="181.432" y2="294.252" stroke="#5A5A5A"/>
<line x1="192.245" y1="233.436" x2="160.245" y2="251.436" stroke="#5A5A5A"/>
<line x1="191.755" y1="355.436" x2="159.755" y2="337.436" stroke="#5A5A5A"/>
<line x1="20.4201" y1="238.271" x2="0.420147" y2="269.271" stroke="#5A5A5A"/>
</svg>
