<svg width="343" height="467" viewBox="0 0 343 467" fill="none" xmlns="http://www.w3.org/2000/svg">
<rect width="288" height="116" transform="matrix(-1.19249e-08 -1 -1 1.19249e-08 329 369)" fill="#E7FFD5"/>
<rect width="85" height="57" transform="matrix(-1.19249e-08 -1 -1 1.19249e-08 262 435)" fill="#E7FFD5"/>
<rect width="102" height="115" transform="matrix(-1.19249e-08 -1 -1 1.19249e-08 329 183)" fill="#E7FFD5"/>
<rect width="98" height="59" transform="matrix(-1.19249e-08 -1 -1 1.19249e-08 329 370)" fill="#FDFF9F"/>
<rect width="55.9047" height="29.6454" transform="matrix(0.707107 -0.707107 -0.707107 -0.707107 164.796 395.493)" fill="#FDFF9F"/>
<path d="M222 286L222 81L82 81L82 338L222 286Z" fill="#E7FFD5"/>
<path d="M214 301.817L214 201L104 334L144 368L214 301.817Z" fill="#E7FFD5"/>
<path d="M228 321.817L228 221L118 354L158 388L228 321.817Z" fill="#E7FFD5"/>
<path d="M205 430L205 337L185 337L154 373.5L205 430Z" fill="#FDFF9F"/>
<rect width="30" height="60" transform="matrix(-1.19249e-08 -1 -1 1.19249e-08 343 81)" fill="#5A5A5A"/>
<rect width="12" height="301" transform="matrix(-1 0 0 1 341 76)" fill="#5A5A5A"/>
<rect width="2" height="11" transform="matrix(1 -8.74228e-08 -8.74228e-08 -1 262 235)" fill="#5A5A5A"/>
<rect width="2" height="11" transform="matrix(1 -8.74228e-08 -8.74228e-08 -1 262 252)" fill="#5A5A5A"/>
<rect width="2" height="11" transform="matrix(1 -8.74228e-08 -8.74228e-08 -1 262 269)" fill="#5A5A5A"/>
<rect width="2" height="11" transform="matrix(1 -8.74228e-08 -8.74228e-08 -1 262 218)" fill="#5A5A5A"/>
<rect width="2" height="11" transform="matrix(1 -8.74228e-08 -8.74228e-08 -1 262 201)" fill="#5A5A5A"/>
<rect width="2" height="11" transform="matrix(1 -8.74228e-08 -8.74228e-08 -1 262 184)" fill="#5A5A5A"/>
<rect width="2" height="11" transform="matrix(1 -8.74228e-08 -8.74228e-08 -1 262 167)" fill="#5A5A5A"/>
<rect width="2" height="11" transform="matrix(4.37114e-08 1 1 -4.37114e-08 273 156)" fill="#5A5A5A"/>
<rect width="2" height="11" transform="matrix(4.37114e-08 1 1 -4.37114e-08 290 156)" fill="#5A5A5A"/>
<rect width="2" height="11" transform="matrix(4.37114e-08 1 1 -4.37114e-08 307 156)" fill="#5A5A5A"/>
<rect width="2" height="6" transform="matrix(4.37114e-08 1 1 -4.37114e-08 324 156)" fill="#5A5A5A"/>
<rect width="16" height="160.009" transform="matrix(-0.707107 0.707107 0.707107 0.707107 113.856 326.203)" fill="#5A5A5A"/>
<rect width="16" height="61" transform="matrix(4.37114e-08 1 1 -4.37114e-08 216 435)" fill="#5A5A5A"/>
<rect width="16" height="34" transform="matrix(-1 -8.74228e-08 -8.74228e-08 1 278 417)" fill="#5A5A5A"/>
<rect width="16" height="14" transform="matrix(-1 -8.74228e-08 -8.74228e-08 1 278 369)" fill="#5A5A5A"/>
<rect width="16" height="62" transform="matrix(4.37114e-08 1 1 -4.37114e-08 52 326)" fill="#5A5A5A"/>
<path d="M193.191 335.657L187.535 330L145 372.535L150.656 378.192L193.191 335.657Z" fill="#5A5A5A"/>
<path d="M213 392H205V430H213L213 392Z" fill="#5A5A5A"/>
<path d="M213 330H205V366H213L213 330Z" fill="#5A5A5A"/>
<path d="M213 338L213 330L188 330L188 338L213 338Z" fill="#5A5A5A"/>
<path d="M270 267H262V340H270L270 267Z" fill="#5A5A5A"/>
<path d="M335 272L335 264L262 264L262 272L335 272Z" fill="#5A5A5A"/>
<path d="M262 369L262 377L335 377L335 369L262 369Z" fill="#5A5A5A"/>
<rect width="30" height="70" transform="matrix(-1.19249e-08 -1 -1 1.19249e-08 229 81)" fill="#5A5A5A"/>
<path d="M193.75 80.7496L90.2918 80.5983L90.2509 69.25L193.75 69.25L193.75 80.7496Z" stroke="#5A5A5A" stroke-width="0.5" stroke-miterlimit="10"/>
<path d="M193.75 62.7497L90.2918 62.5984L90.2509 51.2501L193.75 51.2501L193.75 62.7497Z" stroke="#5A5A5A" stroke-width="0.5" stroke-miterlimit="10"/>
<path d="M338.75 57.25L338.598 141.716L327.25 141.749L327.25 57.25L338.75 57.25Z" stroke="#5A5A5A" stroke-width="0.5" stroke-miterlimit="10"/>
<path d="M295.75 0.25015L214.282 0.313101L214.252 4.74993L295.75 4.74995L295.75 0.25015Z" stroke="#5A5A5A" stroke-width="0.5" stroke-miterlimit="10"/>
<rect x="302" width="5" height="74" fill="#5A5A5A"/>
<rect x="203" width="5" height="74" fill="#5A5A5A"/>
<rect x="296" width="5.00001" height="89" transform="rotate(90 296 0)" fill="#5A5A5A"/>
<rect x="307" width="5" height="12" transform="rotate(90 307 0)" fill="#5A5A5A"/>
<path d="M313.75 65.7497L253.274 65.6869L253.251 61.25L313.75 61.25L313.75 65.7497Z" stroke="#5A5A5A" stroke-width="0.5" stroke-miterlimit="10"/>
<path d="M313.75 55.7497L253.274 55.6869L253.251 51.25L313.75 51.25L313.75 55.7497Z" stroke="#5A5A5A" stroke-width="0.5" stroke-miterlimit="10"/>
<line y1="-0.5" x2="31.3847" y2="-0.5" transform="matrix(0.860292 0.509802 0.509802 -0.860292 228 67)" stroke="#5A5A5A"/>
<path d="M0.250212 127.25L0.313162 208.718L4.74999 208.748L4.75001 127.25L0.250212 127.25Z" stroke="#5A5A5A" stroke-width="0.5" stroke-miterlimit="10"/>
<rect y="121" width="5" height="74" transform="rotate(-90 0 121)" fill="#5A5A5A"/>
<rect y="218" width="5" height="74" transform="rotate(-90 0 218)" fill="#5A5A5A"/>
<rect y="206" width="5" height="8" fill="#5A5A5A"/>
<rect y="116" width="5.00001" height="93" fill="#5A5A5A"/>
<path d="M66.7497 106.25L66.6869 166.726L62.25 166.749L62.25 106.25L66.7497 106.25Z" stroke="#5A5A5A" stroke-width="0.5" stroke-miterlimit="10"/>
<path d="M56.7497 106.25L56.6869 166.726L52.25 166.749L52.25 106.25L56.7497 106.25Z" stroke="#5A5A5A" stroke-width="0.5" stroke-miterlimit="10"/>
<line y1="-0.5" x2="31.3847" y2="-0.5" transform="matrix(0.509802 -0.860292 -0.860292 -0.509802 67 195)" stroke="#5A5A5A"/>
<rect width="30" height="55" transform="matrix(-1.19249e-08 -1 -1 1.19249e-08 107 81)" fill="#5A5A5A"/>
<rect width="30" height="63" transform="matrix(-1 0 0 1 82 75)" fill="#5A5A5A"/>
<rect width="30" height="148" transform="matrix(-1 0 0 1 82 192)" fill="#5A5A5A"/>
<path d="M328.995 201H304V225.325H328.995V201Z" fill="white" stroke="#5A5A5A" stroke-width="0.5"/>
<path d="M306.026 201.926L325.479 201.926C326.217 201.926 326.61 202.319 326.61 203.088L326.61 223.236C326.61 224.021 326.233 224.398 325.479 224.398L306.026 224.398C305.273 224.414 304.896 224.021 304.896 223.252L304.896 203.104C304.88 202.319 305.273 201.926 306.026 201.926Z" fill="white" stroke="#5A5A5A" stroke-width="0.5"/>
<path d="M307.815 208.428C307.831 210.218 309.244 211.678 310.987 211.678C312.745 211.678 314.158 210.218 314.158 208.428C314.158 206.622 312.745 205.177 310.987 205.177C309.228 205.177 307.815 206.622 307.815 208.428Z" stroke="#5A5A5A" stroke-width="0.5"/>
<path d="M307.846 218.054C307.862 219.844 309.275 221.304 311.017 221.304C312.776 221.304 314.189 219.844 314.189 218.054C314.189 216.248 312.776 214.803 311.017 214.803C309.259 214.787 307.83 216.248 307.846 218.054Z" stroke="#5A5A5A" stroke-width="0.5"/>
<path d="M316.859 218.054C316.859 219.86 318.272 221.304 320.031 221.304C321.789 221.304 323.202 219.844 323.202 218.054C323.187 216.263 321.774 214.803 320.031 214.803C318.288 214.803 316.859 216.263 316.859 218.054Z" stroke="#5A5A5A" stroke-width="0.5"/>
<path d="M316.859 208.428C316.859 210.234 318.272 211.678 320.031 211.678C321.789 211.678 323.202 210.218 323.202 208.428C323.187 206.638 321.774 205.177 320.031 205.177C318.288 205.177 316.859 206.638 316.859 208.428Z" stroke="#5A5A5A" stroke-width="0.5"/>
<path d="M306.698 264.088L306.698 240L282.999 240L282.999 264.104L306.698 264.088Z" fill="white" stroke="#5A5A5A" stroke-width="0.5"/>
<path d="M304.896 257.482L304.896 244.165C304.896 243.423 304.532 243.059 303.774 243.059L286.167 243.059C285.439 243.059 285.06 243.423 285.045 244.15L285.06 257.482C285.045 258.209 285.424 258.573 286.167 258.573L303.774 258.573C304.517 258.603 304.896 258.225 304.896 257.482Z" fill="white" stroke="#5A5A5A" stroke-width="0.5"/>
<path d="M294.97 262.24C294.046 262.225 293.303 261.528 293.303 260.649L293.955 253.665L293.97 253.65C293.97 253.12 294.409 252.695 294.97 252.695C295.531 252.695 295.97 253.12 295.985 253.665L296.637 260.649C296.637 261.513 295.894 262.225 294.97 262.24Z" stroke="#5A5A5A" stroke-width="0.5"/>
<mask id="path-67-inside-1_47_12562" fill="white">
<path fill-rule="evenodd" clip-rule="evenodd" d="M293.591 261.557L293.954 257.755C293.97 257.225 294.409 256.785 294.985 256.8C295.546 256.8 295.97 257.225 295.985 257.755L296.349 261.557"/>
</mask>
<path fill-rule="evenodd" clip-rule="evenodd" d="M293.591 261.557L293.954 257.755C293.97 257.225 294.409 256.785 294.985 256.8C295.546 256.8 295.97 257.225 295.985 257.755L296.349 261.557" fill="white"/>
<path d="M293.954 257.755L294.454 257.769L294.454 257.786L294.452 257.802L293.954 257.755ZM294.985 256.8L294.985 257.301L294.972 257.3L294.985 256.8ZM295.985 257.755L295.487 257.802L295.486 257.786L295.485 257.769L295.985 257.755ZM293.093 261.51L293.457 257.707L294.452 257.802L294.089 261.605L293.093 261.51ZM293.455 257.741C293.478 256.936 294.146 256.278 294.998 256.301L294.972 257.3C294.672 257.292 294.462 257.514 294.454 257.769L293.455 257.741ZM294.985 256.3C295.814 256.3 296.462 256.938 296.485 257.741L295.485 257.769C295.478 257.511 295.277 257.3 294.985 257.3L294.985 256.3ZM296.483 257.707L296.846 261.51L295.851 261.605L295.487 257.802L296.483 257.707Z" fill="#5A5A5A" mask="url(#path-67-inside-1_47_12562)"/>
<line x1="277.451" y1="343.217" x2="264.451" y2="370.217" stroke="#5A5A5A"/>
<line x1="208.571" y1="396.743" x2="226.571" y2="366.743" stroke="#5A5A5A"/>
<line x1="295.58" y1="411.271" x2="275.58" y2="380.271" stroke="#5A5A5A"/>
<line y1="-0.5" x2="34.4819" y2="-0.5" transform="matrix(0.870022 0.493013 0.493013 -0.870022 290 449)" stroke="#5A5A5A"/>
<path d="M309.476 358.759L310.657 358.742L313.723 358.759L321.314 358.759L321.314 348.801L309.476 348.801C306.459 348.801 304 351.045 304 353.796C304 356.515 306.459 358.759 309.476 358.759Z" fill="white" stroke="#5A5A5A" stroke-width="0.5"/>
<path d="M309.542 357.612L310.476 357.612L318.035 357.612L318.035 349.932L310.476 349.932L309.542 349.948C307.164 349.948 305.229 351.651 305.229 353.78C305.246 355.893 307.181 357.612 309.542 357.612Z" fill="white" stroke="#5A5A5A" stroke-width="0.5"/>
<path d="M327.676 347L322.413 347C321.806 347 321.314 347.491 321.314 348.097L321.314 359.381C321.314 359.987 321.806 360.478 322.413 360.478L327.676 360.478C328.283 360.478 328.775 359.987 328.775 359.381L328.775 348.114C328.775 347.491 328.283 347 327.676 347Z" fill="white" stroke="#5A5A5A" stroke-width="0.5"/>
<path d="M325.052 353.092C324.642 353.092 324.331 353.387 324.331 353.731C324.314 354.091 324.642 354.386 325.052 354.386C325.462 354.386 325.773 354.091 325.773 353.747C325.757 353.371 325.445 353.076 325.052 353.092Z" fill="white" stroke="#5A5A5A" stroke-width="0.5"/>
<path d="M315.54 340.596L327.848 340.596C328.704 340.596 329.389 339.913 329.389 339.058L329.389 320.539C329.389 319.684 328.704 319 327.848 319L315.54 319C314.685 319 314 319.684 314 320.539L314 339.058C314 339.898 314.685 340.596 315.54 340.596Z" fill="white" stroke="#5A5A5A" stroke-width="0.5"/>
<path d="M320.232 338.673L322.129 338.673C324.625 338.673 326.65 336.65 326.65 334.157L326.65 325.439C326.65 322.946 324.625 320.923 322.129 320.923L320.232 320.923C317.736 320.923 315.711 322.946 315.711 325.439L315.711 334.157C315.711 336.65 317.736 338.673 320.232 338.673Z" fill="white" stroke="#5A5A5A" stroke-width="0.5"/>
<path d="M318.122 330.753C318.665 330.753 319.106 330.326 319.106 329.799C319.106 329.272 318.665 328.844 318.122 328.844C317.578 328.844 317.138 329.272 317.138 329.799C317.138 330.326 317.578 330.753 318.122 330.753Z" fill="white" stroke="#5A5A5A" stroke-width="0.5"/>
<path d="M327.73 296L271.3 296C270.578 296 270 295.423 270 294.701L270 272.299C270 271.577 270.578 271 271.3 271L327.73 271C328.452 271 329.03 271.577 329.03 272.299L329.03 294.701C329.03 295.423 328.439 296 327.73 296Z" fill="white" stroke="#5A5A5A" stroke-width="0.5"/>
<path d="M273.468 286.538L273.468 280.448C273.468 276.918 276.332 274.071 279.853 274.071L324.287 274.071C325.154 274.071 325.851 274.766 325.851 275.632L325.851 291.38C325.851 292.246 325.154 292.942 324.287 292.942L279.866 292.942C276.332 292.929 273.468 290.068 273.468 286.538Z" fill="white" stroke="#5A5A5A" stroke-width="0.5"/>
<path d="M320.583 283.94C320.583 284.643 321.178 285.213 321.91 285.213C322.643 285.213 323.237 284.643 323.237 283.94C323.237 283.237 322.643 282.667 321.91 282.667C321.178 282.667 320.583 283.237 320.583 283.94Z" fill="white" stroke="#5A5A5A" stroke-width="0.5"/>
<path d="M179.971 365.064L179.141 365.903L176.942 368.04L171.527 373.36L178.505 380.463L186.949 372.168C189.101 370.054 189.284 366.729 187.355 364.767C185.45 362.827 182.123 362.95 179.971 365.064Z" fill="white" stroke="#5A5A5A" stroke-width="0.5"/>
<path d="M180.728 365.928L180.061 366.583L174.669 371.88L180.052 377.359L185.444 372.062L186.099 371.396C187.795 369.73 187.981 367.159 186.489 365.64C184.997 364.144 182.412 364.274 180.728 365.928Z" fill="white" stroke="#5A5A5A" stroke-width="0.5"/>
<path d="M175.229 386.207L178.983 382.518C179.416 382.093 179.422 381.398 178.998 380.966L171.09 372.916C170.666 372.484 169.97 372.478 169.538 372.903L165.783 376.592C165.35 377.017 165.344 377.712 165.768 378.144L173.664 386.182C174.101 386.626 174.796 386.632 175.229 386.207Z" fill="white" stroke="#5A5A5A" stroke-width="0.5"/>
<path d="M172.831 380.022C173.123 379.735 173.139 379.306 172.898 379.061C172.657 378.792 172.217 378.812 171.924 379.099C171.632 379.386 171.616 379.815 171.857 380.06C172.133 380.318 172.562 380.31 172.831 380.022Z" fill="white" stroke="#5A5A5A" stroke-width="0.5"/>
<path d="M205.493 347.935L205.493 339.105C205.493 338.491 205.002 338 204.389 338L191.104 338C190.491 338 190 338.491 190 339.105L190 347.935C190 348.548 190.491 349.04 191.104 349.04L204.389 349.04C204.992 349.04 205.493 348.548 205.493 347.935Z" fill="white" stroke="#5A5A5A" stroke-width="0.5"/>
<path d="M204.113 344.569L204.113 343.208C204.113 341.417 202.662 339.965 200.874 339.965L194.619 339.965C192.831 339.965 191.38 341.417 191.38 343.208L191.38 344.569C191.38 346.359 192.831 347.812 194.619 347.812L200.874 347.812C202.662 347.812 204.113 346.359 204.113 344.569Z" fill="white" stroke="#5A5A5A" stroke-width="0.5"/>
<path d="M198.431 346.083C198.431 345.693 198.124 345.377 197.746 345.377C197.368 345.377 197.062 345.693 197.062 346.083C197.062 346.473 197.368 346.789 197.746 346.789C198.124 346.789 198.431 346.473 198.431 346.083Z" fill="white" stroke="#5A5A5A" stroke-width="0.5"/>
<circle cx="180.5" cy="149.5" r="39.5" fill="#5A5A5A"/>
<path d="M156.72 153.49H158.88C158.976 153.862 159.138 154.18 159.366 154.444C159.894 155.068 160.662 155.38 161.67 155.38C162.474 155.38 163.11 155.164 163.578 154.732C164.046 154.3 164.28 153.736 164.28 153.04C164.28 152.308 164.046 151.72 163.578 151.276C163.11 150.832 162.474 150.61 161.67 150.61C160.926 150.61 160.296 150.808 159.78 151.204C159.576 151.36 159.396 151.552 159.24 151.78H157.26L157.8 144.4H165.45V146.38H159.51L159.24 149.62H159.33C159.522 149.428 159.744 149.266 159.996 149.134C160.56 148.798 161.238 148.63 162.03 148.63C163.29 148.63 164.34 149.05 165.18 149.89C166.02 150.73 166.44 151.78 166.44 153.04C166.44 154.276 165.996 155.308 165.108 156.136C164.232 156.952 163.086 157.36 161.67 157.36C159.822 157.36 158.448 156.718 157.548 155.434C157.164 154.87 156.888 154.222 156.72 153.49ZM167.794 148.54C167.794 147.268 168.25 146.2 169.162 145.336C170.074 144.472 171.238 144.04 172.654 144.04C174.07 144.04 175.234 144.472 176.146 145.336C177.058 146.2 177.514 147.268 177.514 148.54C177.514 149.68 177.04 150.91 176.092 152.23C175.996 152.362 175.864 152.542 175.696 152.77C175.528 152.986 175.414 153.136 175.354 153.22L172.474 157H170.044L172.762 153.454L173.554 152.77V152.68C173.53 152.692 173.41 152.74 173.194 152.824C172.882 152.908 172.492 152.95 172.024 152.95C170.848 152.95 169.846 152.53 169.018 151.69C168.202 150.838 167.794 149.788 167.794 148.54ZM170.692 146.668C170.2 147.148 169.954 147.772 169.954 148.54C169.954 149.308 170.2 149.938 170.692 150.43C171.184 150.91 171.838 151.15 172.654 151.15C173.47 151.15 174.124 150.91 174.616 150.43C175.108 149.938 175.354 149.308 175.354 148.54C175.354 147.772 175.108 147.148 174.616 146.668C174.124 146.176 173.47 145.93 172.654 145.93C171.838 145.93 171.184 146.176 170.692 146.668ZM178.868 156.01C178.868 155.65 178.982 155.35 179.21 155.11C179.45 154.87 179.744 154.75 180.092 154.75C180.488 154.75 180.8 154.894 181.028 155.182C181.268 155.47 181.388 155.896 181.388 156.46C181.388 157.384 181.166 158.092 180.722 158.584C180.29 159.088 179.702 159.34 178.958 159.34V158.44C179.318 158.44 179.6 158.338 179.804 158.134C180.02 157.942 180.128 157.684 180.128 157.36V157.252C180.116 157.24 180.11 157.216 180.11 157.18V157.126L180.002 157.162C179.966 157.174 179.888 157.18 179.768 157.18C179.528 157.18 179.318 157.072 179.138 156.856C178.958 156.64 178.868 156.358 178.868 156.01ZM182.824 153.49H184.984C185.08 153.862 185.242 154.18 185.47 154.444C185.998 155.068 186.766 155.38 187.774 155.38C188.578 155.38 189.214 155.164 189.682 154.732C190.15 154.3 190.384 153.736 190.384 153.04C190.384 152.308 190.15 151.72 189.682 151.276C189.214 150.832 188.578 150.61 187.774 150.61C187.03 150.61 186.4 150.808 185.884 151.204C185.68 151.36 185.5 151.552 185.344 151.78H183.364L183.904 144.4H191.554V146.38H185.614L185.344 149.62H185.434C185.626 149.428 185.848 149.266 186.1 149.134C186.664 148.798 187.342 148.63 188.134 148.63C189.394 148.63 190.444 149.05 191.284 149.89C192.124 150.73 192.544 151.78 192.544 153.04C192.544 154.276 192.1 155.308 191.212 156.136C190.336 156.952 189.19 157.36 187.774 157.36C185.926 157.36 184.552 156.718 183.652 155.434C183.268 154.87 182.992 154.222 182.824 153.49ZM192.813 146.38V144.4H201.363V146.38L196.323 157H194.073L199.023 146.56V146.38H192.813Z" fill="white"/>
<path d="M279.21 328.04V326.5L282.5 320.2H284.25L280.96 326.5H284.18V324.12H284.25H285.79V326.5H287.19V328.04H285.79V330H284.18V328.04H279.21ZM287.749 329.23C287.749 328.95 287.838 328.717 288.015 328.53C288.202 328.343 288.431 328.25 288.701 328.25C289.009 328.25 289.252 328.362 289.429 328.586C289.616 328.81 289.709 329.141 289.709 329.58C289.709 330.299 289.537 330.849 289.191 331.232C288.855 331.624 288.398 331.82 287.819 331.82V331.12C288.099 331.12 288.319 331.041 288.477 330.882C288.645 330.733 288.729 330.532 288.729 330.28V330.196C288.72 330.187 288.715 330.168 288.715 330.14V330.098L288.631 330.126C288.603 330.135 288.543 330.14 288.449 330.14C288.263 330.14 288.099 330.056 287.959 329.888C287.819 329.72 287.749 329.501 287.749 329.23ZM290.826 323.42C290.826 322.431 291.18 321.6 291.89 320.928C292.599 320.256 293.504 319.92 294.606 319.92C295.707 319.92 296.612 320.256 297.322 320.928C298.031 321.6 298.386 322.431 298.386 323.42C298.386 324.307 298.017 325.263 297.28 326.29C297.205 326.393 297.102 326.533 296.972 326.71C296.841 326.878 296.752 326.995 296.706 327.06L294.466 330H292.576L294.69 327.242L295.306 326.71V326.64C295.287 326.649 295.194 326.687 295.026 326.752C294.783 326.817 294.48 326.85 294.116 326.85C293.201 326.85 292.422 326.523 291.778 325.87C291.143 325.207 290.826 324.391 290.826 323.42ZM293.08 321.964C292.697 322.337 292.506 322.823 292.506 323.42C292.506 324.017 292.697 324.507 293.08 324.89C293.462 325.263 293.971 325.45 294.606 325.45C295.24 325.45 295.749 325.263 296.132 324.89C296.514 324.507 296.706 324.017 296.706 323.42C296.706 322.823 296.514 322.337 296.132 321.964C295.749 321.581 295.24 321.39 294.606 321.39C293.971 321.39 293.462 321.581 293.08 321.964ZM299.369 326.78C299.369 326.332 299.467 325.865 299.663 325.38C299.868 324.885 300.064 324.498 300.251 324.218C300.447 323.929 300.713 323.569 301.049 323.14L303.289 320.2H305.179L303.065 322.958L302.449 323.49V323.56L302.729 323.462C303.009 323.387 303.312 323.35 303.639 323.35C304.554 323.35 305.328 323.681 305.963 324.344C306.607 324.997 306.929 325.809 306.929 326.78C306.929 327.769 306.574 328.6 305.865 329.272C305.156 329.944 304.25 330.28 303.149 330.28C302.048 330.28 301.142 329.944 300.433 329.272C299.724 328.6 299.369 327.769 299.369 326.78ZM301.623 325.324C301.24 325.697 301.049 326.183 301.049 326.78C301.049 327.377 301.24 327.867 301.623 328.25C302.006 328.623 302.514 328.81 303.149 328.81C303.784 328.81 304.292 328.623 304.675 328.25C305.058 327.867 305.249 327.377 305.249 326.78C305.249 326.183 305.058 325.697 304.675 325.324C304.292 324.941 303.784 324.75 303.149 324.75C302.514 324.75 302.006 324.941 301.623 325.324Z" fill="#333333"/>
<path d="M150.21 277.04V275.5L153.5 269.2H155.25L151.96 275.5H155.18V273.12H155.25H156.79V275.5H158.19V277.04H156.79V279H155.18V277.04H150.21ZM158.609 279V277.46L161.955 275.094C162.683 274.571 163.206 274.086 163.523 273.638C163.841 273.19 163.999 272.714 163.999 272.21C163.999 271.678 163.836 271.253 163.509 270.936C163.183 270.619 162.739 270.46 162.179 270.46C161.489 270.46 160.971 270.74 160.625 271.3C160.476 271.543 160.364 271.823 160.289 272.14H158.609C158.693 271.543 158.875 271.006 159.155 270.53C159.818 269.457 160.826 268.92 162.179 268.92C163.215 268.92 164.055 269.228 164.699 269.844C165.353 270.451 165.679 271.216 165.679 272.14C165.679 272.943 165.474 273.666 165.063 274.31C164.653 274.945 163.995 275.575 163.089 276.2L161.689 277.18L161.059 277.46V277.53L161.899 277.46H165.679V279H158.609ZM166.802 278.23C166.802 277.95 166.891 277.717 167.068 277.53C167.255 277.343 167.484 277.25 167.754 277.25C168.062 277.25 168.305 277.362 168.482 277.586C168.669 277.81 168.762 278.141 168.762 278.58C168.762 279.299 168.59 279.849 168.244 280.232C167.908 280.624 167.451 280.82 166.872 280.82V280.12C167.152 280.12 167.372 280.041 167.53 279.882C167.698 279.733 167.782 279.532 167.782 279.28V279.196C167.773 279.187 167.768 279.168 167.768 279.14V279.098L167.684 279.126C167.656 279.135 167.596 279.14 167.502 279.14C167.316 279.14 167.152 279.056 167.012 278.888C166.872 278.72 166.802 278.501 166.802 278.23ZM169.738 279V277.46L173.084 275.094C173.812 274.571 174.335 274.086 174.652 273.638C174.97 273.19 175.128 272.714 175.128 272.21C175.128 271.678 174.965 271.253 174.638 270.936C174.312 270.619 173.868 270.46 173.308 270.46C172.618 270.46 172.1 270.74 171.754 271.3C171.605 271.543 171.493 271.823 171.418 272.14H169.738C169.822 271.543 170.004 271.006 170.284 270.53C170.947 269.457 171.955 268.92 173.308 268.92C174.344 268.92 175.184 269.228 175.828 269.844C176.482 270.451 176.808 271.216 176.808 272.14C176.808 272.943 176.603 273.666 176.192 274.31C175.782 274.945 175.124 275.575 174.218 276.2L172.818 277.18L172.188 277.46V277.53L173.028 277.46H176.808V279H169.738ZM177.721 272.42V270.6L179.541 269.2H181.011V279H179.401V271.16L177.721 272.42Z" fill="#333333"/>
<path d="M237.42 32.2H239.1C239.165 32.4893 239.291 32.746 239.478 32.97C239.898 33.4833 240.495 33.74 241.27 33.74C241.914 33.74 242.423 33.5813 242.796 33.264C243.179 32.9373 243.37 32.536 243.37 32.06C243.37 31.5187 243.197 31.094 242.852 30.786C242.516 30.4687 242.035 30.31 241.41 30.31H239.03V28.91L241.97 26.81V26.74H237.91V25.2H244.35V26.726L241.83 28.56L241.13 28.84V28.91L241.354 28.882C241.662 28.854 241.844 28.84 241.9 28.84C242.777 28.84 243.51 29.1433 244.098 29.75C244.686 30.3567 244.98 31.1267 244.98 32.06C244.98 32.956 244.635 33.7167 243.944 34.342C243.253 34.9673 242.362 35.28 241.27 35.28C239.823 35.28 238.755 34.7667 238.064 33.74C237.765 33.3013 237.551 32.788 237.42 32.2ZM246.037 34.23C246.037 33.95 246.125 33.7167 246.303 33.53C246.489 33.3433 246.718 33.25 246.989 33.25C247.297 33.25 247.539 33.362 247.717 33.586C247.903 33.81 247.997 34.1413 247.997 34.58C247.997 35.2987 247.824 35.8493 247.479 36.232C247.143 36.624 246.685 36.82 246.107 36.82V36.12C246.387 36.12 246.606 36.0407 246.765 35.882C246.933 35.7327 247.017 35.532 247.017 35.28V35.196C247.007 35.1867 247.003 35.168 247.003 35.14V35.098L246.919 35.126C246.891 35.1353 246.83 35.14 246.737 35.14C246.55 35.14 246.387 35.056 246.247 34.888C246.107 34.72 246.037 34.5007 246.037 34.23ZM249.043 31.78C249.043 31.332 249.141 30.8653 249.337 30.38C249.542 29.8853 249.738 29.498 249.925 29.218C250.121 28.9287 250.387 28.5693 250.723 28.14L252.963 25.2H254.853L252.739 27.958L252.123 28.49V28.56L252.403 28.462C252.683 28.3873 252.986 28.35 253.313 28.35C254.227 28.35 255.002 28.6813 255.637 29.344C256.281 29.9973 256.603 30.8093 256.603 31.78C256.603 32.7693 256.248 33.6 255.539 34.272C254.829 34.944 253.924 35.28 252.823 35.28C251.721 35.28 250.816 34.944 250.107 34.272C249.397 33.6 249.043 32.7693 249.043 31.78ZM251.297 30.324C250.914 30.6973 250.723 31.1827 250.723 31.78C250.723 32.3773 250.914 32.8673 251.297 33.25C251.679 33.6233 252.188 33.81 252.823 33.81C253.457 33.81 253.966 33.6233 254.349 33.25C254.731 32.8673 254.923 32.3773 254.923 31.78C254.923 31.1827 254.731 30.6973 254.349 30.324C253.966 29.9413 253.457 29.75 252.823 29.75C252.188 29.75 251.679 29.9413 251.297 30.324ZM257.656 31.78C257.656 31.332 257.754 30.8653 257.95 30.38C258.155 29.8853 258.351 29.498 258.538 29.218C258.734 28.9287 259 28.5693 259.336 28.14L261.576 25.2H263.466L261.352 27.958L260.736 28.49V28.56L261.016 28.462C261.296 28.3873 261.599 28.35 261.926 28.35C262.841 28.35 263.615 28.6813 264.25 29.344C264.894 29.9973 265.216 30.8093 265.216 31.78C265.216 32.7693 264.861 33.6 264.152 34.272C263.443 34.944 262.537 35.28 261.436 35.28C260.335 35.28 259.429 34.944 258.72 34.272C258.011 33.6 257.656 32.7693 257.656 31.78ZM259.91 30.324C259.527 30.6973 259.336 31.1827 259.336 31.78C259.336 32.3773 259.527 32.8673 259.91 33.25C260.293 33.6233 260.801 33.81 261.436 33.81C262.071 33.81 262.579 33.6233 262.962 33.25C263.345 32.8673 263.536 32.3773 263.536 31.78C263.536 31.1827 263.345 30.6973 262.962 30.324C262.579 29.9413 262.071 29.75 261.436 29.75C260.801 29.75 260.293 29.9413 259.91 30.324Z" fill="#333333"/>
<path d="M15.42 164.2H17.1C17.1653 164.489 17.2913 164.746 17.478 164.97C17.898 165.483 18.4953 165.74 19.27 165.74C19.914 165.74 20.4227 165.581 20.796 165.264C21.1787 164.937 21.37 164.536 21.37 164.06C21.37 163.519 21.1973 163.094 20.852 162.786C20.516 162.469 20.0353 162.31 19.41 162.31H17.03V160.91L19.97 158.81V158.74H15.91V157.2H22.35V158.726L19.83 160.56L19.13 160.84V160.91L19.354 160.882C19.662 160.854 19.844 160.84 19.9 160.84C20.7773 160.84 21.51 161.143 22.098 161.75C22.686 162.357 22.98 163.127 22.98 164.06C22.98 164.956 22.6347 165.717 21.944 166.342C21.2533 166.967 20.362 167.28 19.27 167.28C17.8233 167.28 16.7547 166.767 16.064 165.74C15.7653 165.301 15.5507 164.788 15.42 164.2ZM24.0366 166.23C24.0366 165.95 24.1252 165.717 24.3026 165.53C24.4892 165.343 24.7179 165.25 24.9886 165.25C25.2966 165.25 25.5392 165.362 25.7166 165.586C25.9032 165.81 25.9966 166.141 25.9966 166.58C25.9966 167.299 25.8239 167.849 25.4786 168.232C25.1426 168.624 24.6852 168.82 24.1066 168.82V168.12C24.3866 168.12 24.6059 168.041 24.7646 167.882C24.9326 167.733 25.0166 167.532 25.0166 167.28V167.196C25.0072 167.187 25.0026 167.168 25.0026 167.14V167.098L24.9186 167.126C24.8906 167.135 24.8299 167.14 24.7366 167.14C24.5499 167.14 24.3866 167.056 24.2466 166.888C24.1066 166.72 24.0366 166.501 24.0366 166.23ZM27.0427 163.78C27.0427 163.332 27.1407 162.865 27.3367 162.38C27.5421 161.885 27.7381 161.498 27.9247 161.218C28.1207 160.929 28.3867 160.569 28.7227 160.14L30.9627 157.2H32.8527L30.7387 159.958L30.1227 160.49V160.56L30.4027 160.462C30.6827 160.387 30.9861 160.35 31.3127 160.35C32.2274 160.35 33.0021 160.681 33.6367 161.344C34.2807 161.997 34.6027 162.809 34.6027 163.78C34.6027 164.769 34.2481 165.6 33.5387 166.272C32.8294 166.944 31.9241 167.28 30.8227 167.28C29.7214 167.28 28.8161 166.944 28.1067 166.272C27.3974 165.6 27.0427 164.769 27.0427 163.78ZM29.2967 162.324C28.9141 162.697 28.7227 163.183 28.7227 163.78C28.7227 164.377 28.9141 164.867 29.2967 165.25C29.6794 165.623 30.1881 165.81 30.8227 165.81C31.4574 165.81 31.9661 165.623 32.3487 165.25C32.7314 164.867 32.9227 164.377 32.9227 163.78C32.9227 163.183 32.7314 162.697 32.3487 162.324C31.9661 161.941 31.4574 161.75 30.8227 161.75C30.1881 161.75 29.6794 161.941 29.2967 162.324ZM35.656 163.78C35.656 163.332 35.754 162.865 35.95 162.38C36.1553 161.885 36.3513 161.498 36.538 161.218C36.734 160.929 37 160.569 37.336 160.14L39.576 157.2H41.466L39.352 159.958L38.736 160.49V160.56L39.016 160.462C39.296 160.387 39.5993 160.35 39.926 160.35C40.8407 160.35 41.6153 160.681 42.25 161.344C42.894 161.997 43.216 162.809 43.216 163.78C43.216 164.769 42.8613 165.6 42.152 166.272C41.4427 166.944 40.5373 167.28 39.436 167.28C38.3347 167.28 37.4293 166.944 36.72 166.272C36.0107 165.6 35.656 164.769 35.656 163.78ZM37.91 162.324C37.5273 162.697 37.336 163.183 37.336 163.78C37.336 164.377 37.5273 164.867 37.91 165.25C38.2927 165.623 38.8013 165.81 39.436 165.81C40.0707 165.81 40.5793 165.623 40.962 165.25C41.3447 164.867 41.536 164.377 41.536 163.78C41.536 163.183 41.3447 162.697 40.962 162.324C40.5793 161.941 40.0707 161.75 39.436 161.75C38.8013 161.75 38.2927 161.941 37.91 162.324Z" fill="#333333"/>
<path d="M231.21 403.04V401.5L234.5 395.2H236.25L232.96 401.5H236.18V399.12H236.25H237.79V401.5H239.19V403.04H237.79V405H236.18V403.04H231.21ZM239.749 404.23C239.749 403.95 239.838 403.717 240.015 403.53C240.202 403.343 240.431 403.25 240.701 403.25C241.009 403.25 241.252 403.362 241.429 403.586C241.616 403.81 241.709 404.141 241.709 404.58C241.709 405.299 241.537 405.849 241.191 406.232C240.855 406.624 240.398 406.82 239.819 406.82V406.12C240.099 406.12 240.319 406.041 240.477 405.882C240.645 405.733 240.729 405.532 240.729 405.28V405.196C240.72 405.187 240.715 405.168 240.715 405.14V405.098L240.631 405.126C240.603 405.135 240.543 405.14 240.449 405.14C240.263 405.14 240.099 405.056 239.959 404.888C239.819 404.72 239.749 404.501 239.749 404.23ZM242.686 402.2H244.366C244.431 402.489 244.557 402.746 244.744 402.97C245.164 403.483 245.761 403.74 246.536 403.74C247.18 403.74 247.688 403.581 248.062 403.264C248.444 402.937 248.636 402.536 248.636 402.06C248.636 401.519 248.463 401.094 248.118 400.786C247.782 400.469 247.301 400.31 246.676 400.31H244.296V398.91L247.236 396.81V396.74H243.176V395.2H249.616V396.726L247.096 398.56L246.396 398.84V398.91L246.62 398.882C246.928 398.854 247.11 398.84 247.166 398.84C248.043 398.84 248.776 399.143 249.364 399.75C249.952 400.357 250.246 401.127 250.246 402.06C250.246 402.956 249.9 403.717 249.21 404.342C248.519 404.967 247.628 405.28 246.536 405.28C245.089 405.28 244.02 404.767 243.33 403.74C243.031 403.301 242.816 402.788 242.686 402.2ZM251.302 402.34C251.302 401.491 251.629 400.814 252.282 400.31C252.562 400.114 252.889 399.965 253.262 399.862V399.778C252.973 399.666 252.716 399.512 252.492 399.316C251.979 398.877 251.722 398.299 251.722 397.58C251.722 396.843 252.035 396.217 252.66 395.704C253.295 395.181 254.149 394.92 255.222 394.92C256.296 394.92 257.145 395.181 257.77 395.704C258.405 396.217 258.722 396.843 258.722 397.58C258.722 398.28 258.466 398.859 257.952 399.316C257.71 399.512 257.453 399.666 257.182 399.778V399.862C257.537 399.955 257.864 400.109 258.162 400.324C258.816 400.828 259.142 401.5 259.142 402.34C259.142 403.152 258.788 403.847 258.078 404.426C257.378 404.995 256.426 405.28 255.222 405.28C254.018 405.28 253.062 404.995 252.352 404.426C251.652 403.847 251.302 403.152 251.302 402.34ZM253.402 397.72C253.402 398.131 253.561 398.467 253.878 398.728C254.196 398.989 254.644 399.12 255.222 399.12C255.801 399.12 256.249 398.989 256.566 398.728C256.884 398.467 257.042 398.131 257.042 397.72C257.042 397.347 256.879 397.034 256.552 396.782C256.235 396.521 255.792 396.39 255.222 396.39C254.653 396.39 254.205 396.521 253.878 396.782C253.561 397.034 253.402 397.347 253.402 397.72ZM253.57 401.066C253.178 401.374 252.982 401.752 252.982 402.2C252.982 402.648 253.178 403.031 253.57 403.348C253.972 403.656 254.522 403.81 255.222 403.81C255.922 403.81 256.468 403.656 256.86 403.348C257.262 403.031 257.462 402.648 257.462 402.2C257.462 401.752 257.262 401.374 256.86 401.066C256.468 400.749 255.922 400.59 255.222 400.59C254.522 400.59 253.972 400.749 253.57 401.066Z" fill="#333333"/>
</svg>
