<svg width="493" height="376" fill="none" xmlns="http://www.w3.org/2000/svg"><path fill="#FFF8BA" d="M432.055 115.896V37.538H16.324v78.358z"/><path fill="#FFC79F" d="M432.055 115.896V21.214h-76.181v94.682z"/><path fill="#FFF8BA" d="M479.94 290.024V109.366H16.324v180.658z"/><path d="M476.363 161.605h-24.718v24.056h24.718v-24.056Z" fill="#fff" stroke="#5A5A5A" stroke-width=".5"/><path d="M453.649 162.521h19.238c.729 0 1.117.389 1.117 1.15v19.924c0 .777-.372 1.15-1.117 1.15h-19.238c-.746.015-1.118-.373-1.118-1.134v-19.925c-.016-.776.372-1.165 1.118-1.165Z" fill="#fff" stroke="#5A5A5A" stroke-width=".5"/><path d="M455.418 168.951c.016 1.77 1.413 3.215 3.137 3.215 1.739 0 3.136-1.445 3.136-3.215 0-1.786-1.397-3.215-3.136-3.215s-3.137 1.429-3.137 3.215Zm.03 9.519c.016 1.771 1.413 3.215 3.136 3.215 1.739 0 3.137-1.444 3.137-3.215 0-1.786-1.398-3.214-3.137-3.214-1.739-.016-3.152 1.428-3.136 3.214Zm8.914 0c0 1.786 1.397 3.215 3.136 3.215s3.137-1.444 3.137-3.215c-.016-1.77-1.413-3.214-3.137-3.214-1.723 0-3.136 1.444-3.136 3.214Zm0-9.519c0 1.786 1.397 3.215 3.136 3.215s3.137-1.445 3.137-3.215c-.016-1.771-1.413-3.215-3.137-3.215-1.723 0-3.136 1.444-3.136 3.215Z" stroke="#5A5A5A" stroke-width=".5"/><path d="M457.669 117v23.822h-23.437v-23.837l23.437.015Z" fill="#fff" stroke="#5A5A5A" stroke-width=".5"/><path d="M455.886 123.533v13.169c0 .734-.36 1.094-1.109 1.094h-17.413c-.719 0-1.094-.36-1.109-1.079l.015-13.184c-.015-.719.36-1.079 1.094-1.079h17.413c.734-.03 1.109.345 1.109 1.079Z" fill="#fff" stroke="#5A5A5A" stroke-width=".5"/><path d="M446.07 118.828c-.914.014-1.648.704-1.648 1.573l.644 6.907.015.015c0 .524.435.943.989.943a.985.985 0 0 0 1.004-.958l.645-6.907c0-.854-.735-1.559-1.649-1.573Z" stroke="#5A5A5A" stroke-width=".5"/><mask id="a" fill="#fff"><path fill-rule="evenodd" clip-rule="evenodd" d="m444.706 119.503.36 3.76a.977.977 0 0 0 1.019.944.97.97 0 0 0 .989-.944l.36-3.76"/></mask><path fill-rule="evenodd" clip-rule="evenodd" d="m444.706 119.503.36 3.76a.977.977 0 0 0 1.019.944.97.97 0 0 0 .989-.944l.36-3.76" fill="#fff"/><path d="m445.066 123.263.5-.014-.001-.017-.001-.016-.498.047Zm1.019.944v-.5h-.013l.013.5Zm.989-.944-.498-.047-.001.016-.001.017.5.014Zm-2.865-3.713.359 3.761.996-.095-.36-3.761-.995.095Zm.357 3.727c.023.8.686 1.452 1.532 1.43l-.026-1a.477.477 0 0 1-.506-.458l-1 .028Zm1.519 1.43a1.47 1.47 0 0 0 1.489-1.43l-1-.028a.47.47 0 0 1-.489.458v1Zm1.487-1.396.359-3.761-.995-.095-.36 3.761.996.095Z" fill="#5A5A5A" mask="url(#a)"/><circle cx="247.894" cy="189.662" r="38.94" fill="#5A5A5A"/><path d="M217.84 187.198v-1.98h8.55v1.98l-5.04 10.62h-2.25l4.95-10.44v-.18h-6.21Zm9.448 10.62v-1.98l4.302-3.042c.936-.672 1.608-1.296 2.016-1.872.408-.576.612-1.188.612-1.836 0-.684-.21-1.23-.63-1.638-.42-.408-.99-.612-1.71-.612-.888 0-1.554.36-1.998 1.08a3.633 3.633 0 0 0-.432 1.08h-2.16a5.567 5.567 0 0 1 .702-2.07c.852-1.38 2.148-2.07 3.888-2.07 1.332 0 2.412.396 3.24 1.188.84.78 1.26 1.764 1.26 2.952 0 1.032-.264 1.962-.792 2.79-.528.816-1.374 1.626-2.538 2.43l-1.8 1.26-.81.36v.09l1.08-.09h4.86v1.98h-9.09Zm10.533-.99c0-.36.114-.66.342-.9a1.2 1.2 0 0 1 .882-.36c.396 0 .708.144.936.432.24.288.36.714.36 1.278 0 .924-.222 1.632-.666 2.124-.432.504-1.02.756-1.764.756v-.9c.36 0 .642-.102.846-.306.216-.192.324-.45.324-.774v-.108c-.012-.012-.018-.036-.018-.072v-.054l-.108.036a.932.932 0 0 1-.234.018c-.24 0-.45-.108-.63-.324-.18-.216-.27-.498-.27-.846Zm3.956-2.52h2.16c.096.372.258.69.486.954.528.624 1.296.936 2.304.936.804 0 1.44-.216 1.908-.648.468-.432.702-.996.702-1.692 0-.732-.234-1.32-.702-1.764-.468-.444-1.104-.666-1.908-.666-.744 0-1.374.198-1.89.594a2.481 2.481 0 0 0-.54.576h-1.98l.54-7.38h7.65v1.98h-5.94l-.27 3.24h.09c.192-.192.414-.354.666-.486.564-.336 1.242-.504 2.034-.504 1.26 0 2.31.42 3.15 1.26.84.84 1.26 1.89 1.26 3.15 0 1.236-.444 2.268-1.332 3.096-.876.816-2.022 1.224-3.438 1.224-1.848 0-3.222-.642-4.122-1.926a5.672 5.672 0 0 1-.828-1.944Zm10.984-.63c0-.576.126-1.176.378-1.8.264-.636.516-1.134.756-1.494.252-.372.594-.834 1.026-1.386l2.88-3.78h2.43l-2.718 3.546-.792.684v.09l.36-.126a4.53 4.53 0 0 1 1.17-.144c1.176 0 2.172.426 2.988 1.278.828.84 1.242 1.884 1.242 3.132 0 1.272-.456 2.34-1.368 3.204-.912.864-2.076 1.296-3.492 1.296s-2.58-.432-3.492-1.296c-.912-.864-1.368-1.932-1.368-3.204Zm2.898-1.872c-.492.48-.738 1.104-.738 1.872s.246 1.398.738 1.89c.492.48 1.146.72 1.962.72.816 0 1.47-.24 1.962-.72.492-.492.738-1.122.738-1.89 0-.768-.246-1.392-.738-1.872-.492-.492-1.146-.738-1.962-.738-.816 0-1.47.246-1.962.738Z" fill="#fff"/><path d="M280.991 255.356v-1.54l3.29-6.3h1.75l-3.29 6.3h3.22v-2.38h1.61v2.38h1.4v1.54h-1.4v1.96h-1.61v-1.96h-4.97Zm8.614 0v-1.54l3.29-6.3h1.75l-3.29 6.3h3.22v-2.38h1.61v2.38h1.4v1.54h-1.4v1.96h-1.61v-1.96h-4.97Zm8.539 1.19c0-.28.089-.514.266-.7a.933.933 0 0 1 .686-.28c.308 0 .551.112.728.336.187.224.28.555.28.994 0 .718-.172 1.269-.518 1.652-.336.392-.793.588-1.372.588v-.7c.28 0 .5-.08.658-.238a.766.766 0 0 0 .252-.602v-.084c-.009-.01-.014-.028-.014-.056v-.042l-.084.028a.738.738 0 0 1-.182.014c-.186 0-.35-.084-.49-.252-.14-.168-.21-.388-.21-.658Zm2.866-5.81v-1.82l1.82-1.4h1.47v9.8h-1.61v-7.84l-1.68 1.26Zm4.691 6.58v-1.54l3.346-2.366c.728-.523 1.251-1.008 1.568-1.456.318-.448.476-.924.476-1.428 0-.532-.163-.957-.49-1.274-.326-.318-.77-.476-1.33-.476-.69 0-1.208.28-1.554.84a2.83 2.83 0 0 0-.336.84h-1.68a4.326 4.326 0 0 1 .546-1.61c.663-1.074 1.671-1.61 3.024-1.61 1.036 0 1.876.308 2.52.924.654.606.98 1.372.98 2.296a3.95 3.95 0 0 1-.616 2.17c-.41.634-1.068 1.264-1.974 1.89l-1.4.98-.63.28v.07l.84-.07h3.78v1.54h-7.07Zm-75.65 91.882h1.68c.066.289.192.546.378.77.42.513 1.018.77 1.792.77.644 0 1.153-.159 1.526-.476.383-.327.574-.728.574-1.204 0-.541-.172-.966-.518-1.274-.336-.317-.816-.476-1.442-.476h-2.38v-1.4l2.94-2.1v-.07h-4.06v-1.54h6.44v1.526l-2.52 1.834-.7.28v.07l.224-.028c.308-.028.49-.042.546-.042.878 0 1.61.303 2.198.91.588.607.882 1.377.882 2.31 0 .896-.345 1.657-1.036 2.282-.69.625-1.582.938-2.674.938-1.446 0-2.515-.513-3.206-1.54a4.425 4.425 0 0 1-.644-1.54Zm8.617 2.03c0-.28.089-.513.266-.7a.932.932 0 0 1 .686-.28c.308 0 .551.112.728.336.187.224.28.555.28.994 0 .719-.173 1.269-.518 1.652-.336.392-.793.588-1.372.588v-.7c.28 0 .499-.079.658-.238a.765.765 0 0 0 .252-.602v-.084c-.009-.009-.014-.028-.014-.056v-.042l-.084.028a.743.743 0 0 1-.182.014c-.187 0-.35-.084-.49-.252-.14-.168-.21-.387-.21-.658Zm3.006-2.45c0-.448.098-.915.294-1.4.206-.495.402-.882.588-1.162.196-.289.462-.649.798-1.078l2.24-2.94h1.89l-2.114 2.758-.616.532v.07l.28-.098c.28-.075.584-.112.91-.112.915 0 1.69.331 2.324.994.644.653.966 1.465.966 2.436 0 .989-.354 1.82-1.064 2.492-.709.672-1.614 1.008-2.716 1.008-1.101 0-2.006-.336-2.716-1.008-.709-.672-1.064-1.503-1.064-2.492Zm2.254-1.456c-.382.373-.574.859-.574 1.456s.192 1.087.574 1.47c.383.373.892.56 1.526.56.635 0 1.144-.187 1.526-.56.383-.383.574-.873.574-1.47s-.191-1.083-.574-1.456c-.382-.383-.891-.574-1.526-.574-.634 0-1.143.191-1.526.574Zm6.359 1.456c0-.448.098-.915.294-1.4.206-.495.402-.882.588-1.162.196-.289.462-.649.798-1.078l2.24-2.94h1.89l-2.114 2.758-.616.532v.07l.28-.098c.28-.075.584-.112.91-.112.915 0 1.69.331 2.324.994.644.653.966 1.465.966 2.436 0 .989-.354 1.82-1.064 2.492-.709.672-1.614 1.008-2.716 1.008-1.101 0-2.006-.336-2.716-1.008-.709-.672-1.064-1.503-1.064-2.492Zm2.254-1.456c-.382.373-.574.859-.574 1.456s.192 1.087.574 1.47c.383.373.892.56 1.526.56.635 0 1.144-.187 1.526-.56.383-.383.574-.873.574-1.47s-.191-1.083-.574-1.456c-.382-.383-.891-.574-1.526-.574-.634 0-1.143.191-1.526.574Zm169.191-98.108c0-.849.327-1.526.98-2.03a3.16 3.16 0 0 1 .98-.448v-.084a2.568 2.568 0 0 1-.77-.462c-.513-.438-.77-1.017-.77-1.736 0-.737.313-1.362.938-1.876.635-.522 1.489-.784 2.562-.784 1.073 0 1.923.262 2.548.784.635.514.952 1.139.952 1.876 0 .7-.257 1.279-.77 1.736-.243.196-.499.35-.77.462v.084c.355.094.681.248.98.462.653.504.98 1.176.98 2.016 0 .812-.355 1.508-1.064 2.086-.7.57-1.652.854-2.856.854s-2.161-.284-2.87-.854c-.7-.578-1.05-1.274-1.05-2.086Zm2.1-4.62c0 .411.159.747.476 1.008.317.262.765.392 1.344.392.579 0 1.027-.13 1.344-.392.317-.261.476-.597.476-1.008 0-.373-.163-.686-.49-.938-.317-.261-.761-.392-1.33-.392-.569 0-1.017.131-1.344.392-.317.252-.476.565-.476.938Zm.168 3.346c-.392.308-.588.686-.588 1.134 0 .448.196.831.588 1.148.401.308.952.462 1.652.462s1.246-.154 1.638-.462c.401-.317.602-.7.602-1.148 0-.448-.201-.826-.602-1.134-.392-.317-.938-.476-1.638-.476s-1.251.159-1.652.476Zm6.687 3.164c0-.28.089-.513.266-.7a.937.937 0 0 1 .686-.28c.308 0 .551.112.728.336.187.224.28.556.28.994 0 .719-.172 1.27-.518 1.652-.336.392-.793.588-1.372.588v-.7c.28 0 .5-.079.658-.238a.765.765 0 0 0 .252-.602v-.084c-.009-.009-.014-.028-.014-.056v-.042l-.084.028a.69.69 0 0 1-.182.014c-.186 0-.35-.084-.49-.252-.14-.168-.21-.387-.21-.658Zm3.076-5.81c0-.989.355-1.82 1.064-2.492.71-.672 1.615-1.008 2.716-1.008 1.102 0 2.007.336 2.716 1.008.71.672 1.064 1.503 1.064 2.492 0 .887-.368 1.844-1.106 2.87-.074.103-.177.243-.308.42-.13.168-.219.285-.266.35l-2.24 2.94h-1.89l2.114-2.758.616-.532v-.07c-.018.01-.112.047-.28.112a3.533 3.533 0 0 1-.91.098 3.16 3.16 0 0 1-2.338-.98c-.634-.662-.952-1.479-.952-2.45Zm2.254-1.456c-.382.374-.574.859-.574 1.456 0 .598.192 1.088.574 1.47.383.374.892.56 1.526.56.635 0 1.144-.186 1.526-.56.383-.382.574-.872.574-1.47 0-.597-.191-1.082-.574-1.456-.382-.382-.891-.574-1.526-.574-.634 0-1.143.192-1.526.574Zm6.36 5.306h1.68c.074.29.2.537.378.742.41.486 1.008.728 1.792.728.625 0 1.12-.168 1.484-.504.364-.336.546-.774.546-1.316 0-.569-.182-1.026-.546-1.372-.364-.345-.859-.518-1.484-.518-.579 0-1.069.154-1.47.462a1.936 1.936 0 0 0-.42.448h-1.54l.42-5.74h5.95v1.54h-4.62l-.21 2.52h.07c.149-.149.322-.275.518-.378.438-.261.966-.392 1.582-.392.98 0 1.796.327 2.45.98.653.654.98 1.47.98 2.45 0 .962-.346 1.764-1.036 2.408-.682.635-1.573.952-2.674.952-1.438 0-2.506-.499-3.206-1.498a4.381 4.381 0 0 1-.644-1.512ZM363.912 74.946h1.68c.066.29.192.546.378.77.42.514 1.018.77 1.792.77.644 0 1.153-.159 1.526-.476.383-.327.574-.728.574-1.204 0-.541-.172-.966-.518-1.274-.336-.317-.816-.476-1.442-.476h-2.38v-1.4l2.94-2.1v-.07h-4.06v-1.54h6.44v1.526l-2.52 1.834-.7.28v.07l.224-.028c.308-.028.49-.042.546-.042.878 0 1.61.303 2.198.91.588.607.882 1.377.882 2.31 0 .896-.345 1.657-1.036 2.282-.69.626-1.582.938-2.674.938-1.446 0-2.515-.513-3.206-1.54a4.423 4.423 0 0 1-.644-1.54Zm8.617 2.03c0-.28.088-.513.266-.7a.931.931 0 0 1 .686-.28c.308 0 .55.112.728.336.186.224.28.556.28.994 0 .719-.173 1.27-.518 1.652-.336.392-.794.588-1.372.588v-.7c.28 0 .499-.08.658-.238a.765.765 0 0 0 .252-.602v-.084c-.01-.01-.014-.028-.014-.056v-.042l-.084.028a.728.728 0 0 1-.182.014c-.187 0-.35-.084-.49-.252-.14-.168-.21-.387-.21-.658Zm2.936.77v-1.54l3.346-2.366c.728-.523 1.251-1.008 1.568-1.456.317-.448.476-.924.476-1.428 0-.532-.163-.957-.49-1.274-.327-.317-.77-.476-1.33-.476-.691 0-1.209.28-1.554.84a2.845 2.845 0 0 0-.336.84h-1.68a4.33 4.33 0 0 1 .546-1.61c.663-1.073 1.671-1.61 3.024-1.61 1.036 0 1.876.308 2.52.924.653.607.98 1.372.98 2.296 0 .803-.205 1.526-.616 2.17-.411.635-1.069 1.265-1.974 1.89l-1.4.98-.63.28v.07l.84-.07h3.78v1.54h-7.07Zm7.843-1.96v-1.54l3.29-6.3h1.75l-3.29 6.3h3.22v-2.38h1.61v2.38h1.4v1.54h-1.4v1.96h-1.61v-1.96h-4.97Zm-171.828-4.62v-1.82l1.82-1.4h1.47v9.8h-1.61v-7.84l-1.68 1.26Zm4.621 0v-1.82l1.82-1.4h1.47v9.8h-1.61v-7.84l-1.68 1.26Zm4.831 5.81c0-.28.089-.513.266-.7a.934.934 0 0 1 .686-.28c.308 0 .551.112.728.336.187.224.28.556.28.994 0 .719-.172 1.27-.518 1.652-.336.392-.793.588-1.372.588v-.7c.28 0 .5-.08.658-.238a.765.765 0 0 0 .252-.602v-.084c-.009-.01-.014-.028-.014-.056v-.042l-.084.028a.722.722 0 0 1-.182.014c-.186 0-.35-.084-.49-.252-.14-.168-.21-.387-.21-.658Zm4.476-.406c-.886-.97-1.33-2.212-1.33-3.724s.444-2.753 1.33-3.724c.887-.97 1.96-1.456 3.22-1.456 1.26 0 2.334.486 3.22 1.456.887.97 1.33 2.212 1.33 3.724s-.443 2.754-1.33 3.724c-.886.97-1.96 1.456-3.22 1.456-1.26 0-2.333-.485-3.22-1.456Zm1.148-6.412c-.532.635-.798 1.53-.798 2.688 0 1.157.266 2.053.798 2.688.542.635 1.232.952 2.072.952.84 0 1.526-.317 2.058-.952.542-.635.812-1.53.812-2.688 0-1.157-.27-2.053-.812-2.688-.532-.635-1.218-.952-2.058-.952-.84 0-1.53.317-2.072.952Zm7.466 5.628v-1.54l3.29-6.3h1.75l-3.29 6.3h3.22v-2.38h1.61v2.38h1.4v1.54h-1.4v1.96h-1.61v-1.96h-4.97Z" fill="#333"/><path fill="#FFC79F" d="M112.095 120.25V35.363h-95.77v84.887z"/><path fill="#5A5A5A" d="M56.592 319.408v-29.384H15.237v29.384z"/><path d="m164.624 319.158-124.057-.148-.049-11.105h124.106v11.253Zm287.311 0-124.057-.148-.049-11.105h124.106v11.253Zm-287.311-17.63-124.057-.149-.049-11.105h124.106v11.254Zm287.311 0-124.057-.149-.049-11.104h124.106v11.253Z" stroke="#5A5A5A" stroke-width=".5" stroke-miterlimit="10"/><path d="M63.681 76.105h1.68c.075.289.201.536.379.742.41.485 1.008.728 1.791.728.626 0 1.12-.168 1.484-.504.364-.336.546-.775.546-1.316 0-.57-.182-1.027-.546-1.372-.364-.346-.858-.518-1.484-.518-.578 0-1.068.154-1.47.462-.158.12-.298.27-.42.448h-1.54l.42-5.74h5.95v1.54h-4.62l-.21 2.52h.07c.15-.15.323-.276.519-.378.438-.262.965-.392 1.581-.392.98 0 1.797.326 2.45.98.654.653.98 1.47.98 2.45 0 .96-.345 1.764-1.035 2.408-.682.634-1.573.952-2.675.952-1.437 0-2.506-.5-3.206-1.498a4.41 4.41 0 0 1-.644-1.512Zm8.614 1.96c0-.28.088-.514.266-.7a.933.933 0 0 1 .686-.28c.308 0 .55.112.728.336.186.224.28.555.28.994 0 .718-.173 1.269-.518 1.652-.336.392-.794.588-1.372.588v-.7c.28 0 .5-.08.658-.238a.765.765 0 0 0 .252-.602v-.084c-.01-.01-.014-.028-.014-.056v-.042l-.084.028a.726.726 0 0 1-.182.014c-.187 0-.35-.084-.49-.252-.14-.168-.21-.388-.21-.658Zm2.936.77v-1.54l3.346-2.366c.728-.523 1.25-1.008 1.568-1.456.317-.448.476-.924.476-1.428 0-.532-.163-.957-.49-1.274-.327-.318-.77-.476-1.33-.476-.69 0-1.209.28-1.554.84-.15.242-.261.522-.336.84h-1.68a4.33 4.33 0 0 1 .546-1.61c.663-1.074 1.67-1.61 3.024-1.61 1.036 0 1.876.308 2.52.924.653.606.98 1.372.98 2.296a3.95 3.95 0 0 1-.616 2.17c-.41.634-1.069 1.264-1.974 1.89l-1.4.98-.63.28v.07l.84-.07h3.78v1.54h-7.07Zm7.983-6.58v-1.82l1.82-1.4h1.47v9.8h-1.61v-7.84l-1.68 1.26Z" fill="#333"/><path fill="#5A5A5A" d="M16.325 24.48H0v294.928h16.325z"/><path fill="#5A5A5A" d="M14.148 120.25v7.618h103.389v-7.618zm98.317-10.877.005 7.618 61.66-.042-.005-7.618zm174.128 0 .005 7.618 194.06-.134-.005-7.618zm-166.88-76.188h-7.618v39.18h7.618zm236.161-9.795h-7.618v30.473h7.618z"/><path fill="#5A5A5A" d="M119.713 99.572h-7.618v28.296h7.618z"/><path stroke="#5A5A5A" d="m131.05 73.663-14.148 30.473m233.984-53.327-14.148 30.472M286.497.955l-34.825 22.854"/><path fill="#5A5A5A" d="M355.874 84.336h-7.618v28.296h7.618zM252.486 37.539V21.214H0v16.325z"/><path d="m96.98 55.652-.016-1.168.016-3.032v-7.507h-9.847v11.707c0 2.983 2.219 5.416 4.94 5.416 2.689 0 4.907-2.433 4.907-5.416Z" fill="#fff" stroke="#5A5A5A" stroke-width=".5"/><path d="M95.847 55.587v-8.399H88.25v7.475l.016.924c0 2.351 1.684 4.264 3.79 4.264 2.09-.016 3.79-1.93 3.79-4.264ZM85.352 37.654v5.205c0 .6.486 1.086 1.085 1.086h11.159c.599 0 1.085-.486 1.085-1.086v-5.205c0-.6-.486-1.087-1.085-1.087H86.453a1.09 1.09 0 0 0-1.101 1.087Z" fill="#fff" stroke="#5A5A5A" stroke-width=".5"/><path d="M91.377 40.248c0 .406.291.714.631.714.357.016.648-.309.648-.714 0-.405-.291-.713-.632-.713a.676.676 0 0 0-.647.713ZM52.848 38.02v12.172c0 .846.676 1.523 1.521 1.523h18.315c.845 0 1.521-.677 1.521-1.523V38.02c0-.846-.676-1.523-1.521-1.523H54.369c-.83 0-1.521.677-1.521 1.523Z" fill="#fff" stroke="#5A5A5A" stroke-width=".5"/><path d="M54.75 42.66v1.876c0 2.468 2 4.471 4.465 4.471h8.622a4.47 4.47 0 0 0 4.466-4.47V42.66c0-2.468-2-4.47-4.466-4.47h-8.622a4.47 4.47 0 0 0-4.465 4.47Z" fill="#fff" stroke="#5A5A5A" stroke-width=".5"/><path d="M62.582 40.573c0 .537.423.973.944.973.521 0 .944-.436.944-.973 0-.538-.422-.973-.944-.973-.521 0-.944.435-.944.973ZM96.98 55.652l-.016-1.168.016-3.032v-7.507h-9.847v11.707c0 2.983 2.219 5.416 4.94 5.416 2.689 0 4.907-2.433 4.907-5.416Z" fill="#fff" stroke="#5A5A5A" stroke-width=".5"/><path d="M95.847 55.587v-8.399H88.25v7.475l.016.924c0 2.351 1.684 4.264 3.79 4.264 2.09-.016 3.79-1.93 3.79-4.264ZM85.352 37.654v5.205c0 .6.486 1.086 1.085 1.086h11.159c.599 0 1.085-.486 1.085-1.086v-5.205c0-.6-.486-1.087-1.085-1.087H86.453a1.09 1.09 0 0 0-1.101 1.087Z" fill="#fff" stroke="#5A5A5A" stroke-width=".5"/><path d="M91.377 40.248c0 .406.291.714.631.714.357.016.648-.309.648-.714 0-.405-.291-.713-.632-.713a.676.676 0 0 0-.647.713ZM52.848 38.02v12.172c0 .846.676 1.523 1.521 1.523h18.315c.845 0 1.521-.677 1.521-1.523V38.02c0-.846-.676-1.523-1.521-1.523H54.369c-.83 0-1.521.677-1.521 1.523Z" fill="#fff" stroke="#5A5A5A" stroke-width=".5"/><path d="M54.75 42.66v1.876c0 2.468 2 4.471 4.465 4.471h8.622a4.47 4.47 0 0 0 4.466-4.47V42.66c0-2.468-2-4.47-4.466-4.47h-8.622a4.47 4.47 0 0 0-4.465 4.47Z" fill="#fff" stroke="#5A5A5A" stroke-width=".5"/><path d="M62.582 40.573c0 .537.423.973.944.973.521 0 .944-.436.944-.973 0-.538-.422-.973-.944-.973-.521 0-.944.435-.944.973Zm-14.697-2.48v71.237c0 .913-.729 1.643-1.64 1.643h-28.28c-.912 0-1.64-.73-1.64-1.643V38.093c0-.913.728-1.643 1.64-1.643h28.28c.911 0 1.64.747 1.64 1.642Z" fill="#fff" stroke="#5A5A5A" stroke-width=".5"/><path d="M35.94 106.594h-7.687c-4.457 0-8.052-3.616-8.052-8.061V42.438c0-1.095.878-1.974 1.971-1.974h19.881c1.094 0 1.972.88 1.972 1.974v56.078c-.017 4.462-3.628 8.078-8.085 8.078Z" fill="#fff" stroke="#5A5A5A" stroke-width=".5"/><path d="M32.66 47.115c.888 0 1.607-.75 1.607-1.675s-.72-1.675-1.607-1.675-1.607.75-1.607 1.675.72 1.675 1.607 1.675Zm58.757 73.805h20.679l.013-20.281-20.679.013-.013 20.268Z" fill="#fff" stroke="#5A5A5A" stroke-width=".5"/><path d="M101.77 105.578c2.926 0 5.287 2.325 5.287 5.202 0 2.876-2.361 5.201-5.3 5.201-2.927 0-5.315-2.325-5.315-5.201.014-2.877 2.402-5.202 5.328-5.202Z" stroke="#5A5A5A" stroke-width=".5"/><path d="M97.899 110.78a3.64 3.64 0 0 1 1.128-2.68 4.008 4.008 0 0 1 2.729-1.117m3.884 3.783a3.789 3.789 0 0 0-1.128-2.679 3.935 3.935 0 0 0-2.742-1.117l3.87 3.796Zm-7.741.014c0 1.037.433 1.983 1.128 2.679a3.946 3.946 0 0 0 2.743 1.104l-3.871-3.783Zm7.741-.014c0 1.064-.433 2.01-1.128 2.68l-.013.013a3.918 3.918 0 0 1-2.716 1.104l3.857-3.797Z" stroke="#5A5A5A" stroke-width=".5"/><path fill="#5A5A5A" d="M432.055 37.539V21.214H287.311v16.325z"/><path fill="#5A5A5A" d="M423.349 114.808h16.325V20.126h-16.325z"/><path fill="#5A5A5A" d="M493 114.808V98.483h-69.651v16.325z"/><path fill="#5A5A5A" d="M476.675 317.232H493V97.395h-16.325zm-269.898 2.176v-29.384h-89.241v29.384z"/><path d="m281.62 375.75-88.706-.069-.033-4.872h88.739v4.941Z" stroke="#5A5A5A" stroke-width=".5" stroke-miterlimit="10"/><path fill="#5A5A5A" d="M288.4 376h5.441v-80.534H288.4zm-107.742 0h5.441v-80.534h-5.441z"/><path fill="#5A5A5A" d="M199.159 376v-5.441h-16.325V376zm94.682 0v-5.441h-13.06V376z"/><path d="m301.209 303.334-65.86.069-.025 4.872h65.885v-4.941Zm0 10.883-65.86.069-.025 4.873h65.885v-4.942Z" stroke="#5A5A5A" stroke-width=".5" stroke-miterlimit="10"/><path stroke="#5A5A5A" d="m205.434 307.007 29.384-17.413"/><path fill="#5A5A5A" d="M356.963 319.408v-29.384h-89.241v29.384zm136.037 0v-29.384h-68.563v29.384z"/><path d="m403.733 52.299 1.168.016 3.032-.016h7.507v9.847h-11.707c-2.983 0-5.415-2.219-5.415-4.94 0-2.688 2.432-4.907 5.415-4.907Z" fill="#fff" stroke="#5A5A5A" stroke-width=".5"/><path d="M403.798 53.432h8.4v7.596h-7.475l-.925-.016c-2.351 0-4.264-1.684-4.264-3.79.016-2.089 1.93-3.79 4.264-3.79Zm17.934 10.496h-5.205c-.6 0-1.087-.486-1.087-1.085v-11.16c0-.599.487-1.085 1.087-1.085h5.205c.6 0 1.086.486 1.086 1.085v11.143a1.09 1.09 0 0 1-1.086 1.102Z" fill="#fff" stroke="#5A5A5A" stroke-width=".5"/><path d="M419.137 57.903c-.405 0-.713-.292-.713-.632-.016-.356.308-.648.713-.648.406 0 .714.292.714.632a.677.677 0 0 1-.714.648Zm2.228 38.529h-12.172a1.516 1.516 0 0 1-1.523-1.522V76.596c0-.846.677-1.522 1.523-1.522h12.172c.847 0 1.524.676 1.524 1.522V94.91c0 .832-.677 1.522-1.524 1.522Z" fill="#fff" stroke="#5A5A5A" stroke-width=".5"/><path d="M416.725 94.53h-1.876a4.47 4.47 0 0 1-4.471-4.466v-8.622a4.47 4.47 0 0 1 4.471-4.466h1.876c2.468 0 4.471 2 4.471 4.466v8.622a4.47 4.47 0 0 1-4.471 4.466Z" fill="#fff" stroke="#5A5A5A" stroke-width=".5"/><path d="M418.813 86.697c-.538 0-.974-.422-.974-.944 0-.521.436-.944.974-.944.537 0 .973.423.973.944 0 .522-.436.944-.973.944Z" fill="#fff" stroke="#5A5A5A" stroke-width=".5"/><path d="m170.025 116.734 44.708-.027.014-1.649h-44.722v1.676Zm74.488 0 44.708-.027.015-1.649h-44.723v1.676Zm-37.244 2.177 44.708-.027.015-1.649h-44.723v1.676Z" stroke="#5A5A5A" stroke-width=".5" stroke-miterlimit="10"/><path fill="#5A5A5A" d="M399.625 114.486h1.972v5.915h-1.972zm.001 10.844h1.972v10.844h-1.972zm0 16.759h1.972v10.844h-1.972zm0 16.759h1.972v10.844h-1.972zm0 16.759h1.972v10.844h-1.972zm0 16.759h1.972v10.844h-1.972zm0 19.717h1.972v10.844h-1.972zm0 18.052h1.972v10.844h-1.972zm0 17.413h1.972v10.844h-1.972zm0 17.412h1.972v10.844h-1.972zm-.22 17.446h2.177v7.618h-2.177z"/></svg>