<svg width="439" height="460" fill="none" xmlns="http://www.w3.org/2000/svg"><path d="M409 378H156V134h253v244Z" fill="#FFF8BA"/><path d="M256 378H156V41h100v337Z" fill="#FFF8BA"/><path d="m399.12 169.733-76.387 76.388L183 106.387 259.387 30 399.12 169.733ZM267 322H16V197h251v125Z" fill="#FFF8BA"/><path d="M272 46.5V181h33l52-52.5-85-82Zm-117 73v63l46.5-1v-62H155Z" fill="#FFC79F"/><path fill="#5A5A5A" d="M439 259h-30V125h30zm0 149h-30v-91h30z"/><path fill="#5A5A5A" d="M386 408v-30h38v30zm-134 0v-30h75v30zm-126 0v-30h68v30z"/><path fill="#5A5A5A" d="M126 322h30v75h-30z"/><path fill="#5A5A5A" d="M156 322v30H81v-30zm-134 0v30H0v-30zm273-49h16v135h-16zm0-90h16v56h-16z"/><path fill="#5A5A5A" d="M311 181v16h-55v-16zm113-57v20h-52v-20zM268 21v20h-74V21zm-128 0h16v180h-16z"/><path fill="#5A5A5A" d="M256 143h16v54h-16zm0-109h16v81h-16z"/><path d="M257 32.314 268.314 21l115.275 111.276-11.313 11.313L257 32.314ZM140 237h16v171h-16zM0 181h16v171H0z" fill="#5A5A5A"/><path fill="#5A5A5A" d="M209 181v16H4v-16z"/><path d="m409.25 228.25.152 111.455 11.348.044V228.25h-11.5Zm-2.5 150-154.438.152-.061 11.348H406.75v-11.5Zm-298-56-100.46.152-.04 11.348h100.5v-11.5Zm318.5-94 .152 111.455 11.348.044V228.25h-11.5Zm-20.5 168-154.438.152-.061 11.348H406.75v-11.5Zm-216.5 63.5 81.468-.063.03-4.437H190.25v4.5Z" stroke="#5A5A5A" stroke-width=".5" stroke-miterlimit="10"/><path fill="#5A5A5A" d="M174 460h-5v-74h5zm103 0h-5v-74h5z"/><path fill="#5A5A5A" d="M258 460v-5h19v5zm-86 0v-5h19v5z"/><path d="m108.75 340.25-100.46.152-.04 11.348h100.5v-11.5Z" stroke="#5A5A5A" stroke-width=".5" stroke-miterlimit="10"/><path d="m362.874 122 5.657 5.657-66.874 66.873-5.657-5.656L362.874 122ZM209 113v8h-68v-8z" fill="#5A5A5A"/><path fill="#5A5A5A" d="M209 139h-8v-23h8zm0 52h-8v-23h8z"/><path d="m281.75 393.25-60.476.063-.023 4.437h60.499v-4.5Zm0 10-60.476.063-.023 4.437h60.499v-4.5Z" stroke="#5A5A5A" stroke-width=".5" stroke-miterlimit="10"/><path stroke="#5A5A5A" d="m296.572 275.259-20-33m-122.004-4.51 18-31m35.167-10.173 16-10m4.518-8.007 29 17m-49.683-25.824 16-27m18-3 16-27M161.266.577l35 22m-4.521 371.993 27-16"/><path d="m285.616 86.123.839-.831 2.137-2.199 5.32-5.415 7.103 6.978-8.296 8.444c-2.114 2.153-5.438 2.335-7.401.407-1.939-1.906-1.816-5.232.298-7.384Z" fill="#fff" stroke="#5A5A5A" stroke-width=".5"/><path d="m286.48 86.88.655-.668 5.296-5.392 5.48 5.383-5.297 5.392-.667.655c-1.666 1.696-4.237 1.883-5.755.39-1.496-1.492-1.367-4.077.288-5.76Zm20.278-5.5-3.688 3.755a1.099 1.099 0 0 1-1.553.014l-8.049-7.907a1.098 1.098 0 0 1-.013-1.553l3.688-3.754a1.098 1.098 0 0 1 1.553-.015l8.038 7.896c.444.436.449 1.131.024 1.564Z" fill="#fff" stroke="#5A5A5A" stroke-width=".5"/><path d="M300.574 78.982c-.287.292-.716.308-.961.067-.269-.24-.249-.681.038-.974.287-.292.716-.308.961-.067a.684.684 0 0 1-.038.974Zm27.355 23.468-8.625 8.78c-.6.611-1.567.62-2.177.021l-13.211-12.978a1.533 1.533 0 0 1-.018-2.177l8.625-8.78c.6-.611 1.567-.62 2.177-.021l13.211 12.978c.6.589.618 1.567.018 2.177Z" fill="#fff" stroke="#5A5A5A" stroke-width=".5"/><path d="m323.269 104.449-1.329 1.354a4.52 4.52 0 0 1-6.39.06l-6.219-6.11a4.52 4.52 0 0 1-.053-6.39l1.329-1.353a4.52 4.52 0 0 1 6.39-.06l6.219 6.11a4.519 4.519 0 0 1 .053 6.389Z" fill="#fff" stroke="#5A5A5A" stroke-width=".5"/><path d="M319.098 97.393c-.38.388-.994.403-1.37.033-.376-.369-.372-.983.009-1.37.381-.388.994-.403 1.37-.034.376.37.372.984-.009 1.371Zm17.318 13.111-42.132 42.889a1.379 1.379 0 0 0 .016 1.958l17.026 16.726a1.38 1.38 0 0 0 1.959-.018l42.132-42.889a1.379 1.379 0 0 0-.017-1.958l-17.026-16.726a1.388 1.388 0 0 0-1.958.018Z" fill="#fff" stroke="#5A5A5A" stroke-width=".5"/><path d="m303.094 158.81 4.629 4.546c2.683 2.636 6.985 2.585 9.614-.091l33.176-33.771a1.66 1.66 0 0 0-.02-2.355l-11.969-11.758a1.66 1.66 0 0 0-2.354.023l-33.166 33.761c-2.629 2.696-2.593 7.009.09 9.645Z" fill="#fff" stroke="#5A5A5A" stroke-width=".5"/><path d="M340.246 124.941c-.535-.525-.524-1.402.023-1.959.547-.557 1.424-.583 1.958-.058.534.525.524 1.402-.023 1.959-.547.557-1.424.583-1.958.058Zm-46.222 55.646h-22.01L272 159l22.01.014.014 21.573Z" fill="#fff" stroke="#5A5A5A" stroke-width=".5"/><path d="M283.005 164.257c-3.114 0-5.628 2.475-5.628 5.537s2.514 5.536 5.642 5.536c3.114 0 5.656-2.474 5.656-5.536-.014-3.062-2.556-5.537-5.67-5.537Z" stroke="#5A5A5A" stroke-width=".5"/><path d="M287.125 169.794a3.876 3.876 0 0 0-1.201-2.853 4.267 4.267 0 0 0-2.905-1.188m-4.134 4.027c0-1.105.461-2.111 1.201-2.853a4.186 4.186 0 0 1 2.919-1.188l-4.12 4.041Zm8.24.014a4.033 4.033 0 0 1-1.201 2.852 4.2 4.2 0 0 1-2.919 1.174l4.12-4.026Zm-8.24-.014c0 1.132.461 2.139 1.201 2.852l.014.014a4.167 4.167 0 0 0 2.891 1.174l-4.106-4.04Z" stroke="#5A5A5A" stroke-width=".5"/><path d="m362.2 134 17.675 17.674-17.201 17.201L345 151.2l17.2-17.2Z" fill="#fff" stroke="#5A5A5A" stroke-width=".5"/><path d="m377.786 150.896-13.755-13.755c-.522-.522-1.077-.522-1.621.022l-14.246 14.247c-.556.555-.556 1.088-.023 1.621l13.756 13.755c.521.544 1.065.533 1.609-.011l14.247-14.246c.566-.545.566-1.1.033-1.633Z" fill="#fff" stroke="#5A5A5A" stroke-width=".5"/><path d="M371.924 154.228c-1.277 1.255-3.309 1.289-4.541.056-1.243-1.243-1.21-3.275.056-4.541 1.277-1.277 3.298-1.299 4.541-.056 1.243 1.244 1.221 3.264-.056 4.541Zm-6.828 6.786c-1.277 1.254-3.309 1.288-4.541.056-1.243-1.244-1.21-3.276.056-4.542 1.277-1.277 3.298-1.299 4.541-.056 1.255 1.233 1.232 3.276-.056 4.542Zm-6.373-6.374c-1.277 1.277-3.298 1.299-4.541.056-1.244-1.244-1.21-3.275.055-4.541 1.277-1.255 3.309-1.289 4.542-.056 1.232 1.232 1.21 3.275-.056 4.541Zm6.806-6.807c-1.277 1.277-3.298 1.3-4.541.056-1.243-1.243-1.21-3.275.056-4.541 1.277-1.255 3.309-1.288 4.541-.056 1.232 1.233 1.21 3.276-.056 4.541Z" stroke="#5A5A5A" stroke-width=".5"/><path d="m311.582 184.769 17.034 17.033 16.757-16.758L328.329 168l-16.747 16.769Z" fill="#fff" stroke="#5A5A5A" stroke-width=".5"/><path d="m317.529 188.165 9.416 9.416c.525.525 1.039.525 1.575-.011l12.451-12.45c.514-.514.525-1.039.021-1.564l-9.438-9.417c-.503-.525-1.028-.514-1.553.011l-12.451 12.451c-.546.503-.546 1.039-.021 1.564Z" fill="#fff" stroke="#5A5A5A" stroke-width=".5"/><path d="M321.183 177.782c.664-.642 1.682-.675 2.303-.053l4.478 5.399v.021c.375.375.364.986-.032 1.382a.997.997 0 0 1-1.404.033l-5.399-4.478c-.611-.611-.589-1.639.054-2.304Z" stroke="#5A5A5A" stroke-width=".5"/><mask id="a" fill="#fff"><path fill-rule="evenodd" clip-rule="evenodd" d="m322.64 177.29 2.432 2.946a.988.988 0 0 1-.054 1.403.98.98 0 0 1-1.382.033l-2.946-2.432"/></mask><path fill-rule="evenodd" clip-rule="evenodd" d="m322.64 177.29 2.432 2.946a.988.988 0 0 1-.054 1.403.98.98 0 0 1-1.382.033l-2.946-2.432" fill="#fff"/><path d="m325.072 180.236-.363.343-.012-.012-.011-.013.386-.318Zm-.054 1.403-.353-.353.009-.009.344.362Zm-1.382.033.319-.386.012.011.013.011-.344.364Zm-.61-4.7 2.432 2.946-.772.636-2.431-2.946.771-.636Zm2.41 2.921a1.487 1.487 0 0 1-.074 2.109l-.688-.725a.49.49 0 0 0 .035-.698l.727-.686Zm-.064 2.1a1.48 1.48 0 0 1-2.079.042l.687-.727a.481.481 0 0 0 .685-.022l.707.707Zm-2.054.064-2.946-2.431.637-.772 2.946 2.432-.637.771Z" fill="#5A5A5A" mask="url(#a)"/><path d="m174.915 168.588-1.181-.005-3.065.043-7.591.068-.089-9.957 11.837-.105c3.017-.027 5.496 2.194 5.521 4.946.024 2.718-2.415 4.984-5.432 5.01Z" fill="#fff" stroke="#5A5A5A" stroke-width=".5"/><path d="m174.839 167.443-.934.008-7.558.068-.069-7.681 7.558-.067.935.008c2.377-.021 4.327 1.665 4.346 3.793.003 2.113-1.917 3.85-4.278 3.871Zm-18.227-10.451 5.263-.047a1.1 1.1 0 0 1 1.108 1.088l.1 11.283a1.097 1.097 0 0 1-1.088 1.107l-5.263.047a1.098 1.098 0 0 1-1.109-1.087l-.1-11.267a1.103 1.103 0 0 1 1.089-1.124Z" fill="#fff" stroke="#5A5A5A" stroke-width=".5"/><path d="M159.289 163.061c.41-.004.724.288.727.632.02.36-.305.658-.715.662-.41.003-.724-.289-.727-.633a.683.683 0 0 1 .715-.661Zm31.307-40.521v12.308c0 .856-.683 1.541-1.538 1.541h-18.519a1.534 1.534 0 0 1-1.539-1.541V122.54c0-.855.684-1.54 1.539-1.54h18.519c.84 0 1.538.685 1.538 1.54Z" fill="#fff" stroke="#5A5A5A" stroke-width=".5"/><path d="M188.673 127.232v1.897a4.52 4.52 0 0 1-4.516 4.521h-8.718a4.52 4.52 0 0 1-4.516-4.521v-1.897a4.52 4.52 0 0 1 4.516-4.521h8.718a4.52 4.52 0 0 1 4.516 4.521Z" fill="#fff" stroke="#5A5A5A" stroke-width=".5"/><path d="M180.753 125.122c0 .543-.427.984-.954.984-.527 0-.955-.441-.955-.984 0-.544.428-.984.955-.984.527 0 .954.44.954.984Z" fill="#fff" stroke="#5A5A5A" stroke-width=".5"/><path d="M66.35 257.42v-1.82l1.82-1.4h1.47v9.8h-1.61v-7.84l-1.68 1.26Zm4.691 6.58v-1.54l3.346-2.366c.728-.523 1.25-1.008 1.568-1.456.317-.448.476-.924.476-1.428 0-.532-.163-.957-.49-1.274-.327-.317-.77-.476-1.33-.476-.69 0-1.209.28-1.554.84-.15.243-.261.523-.336.84h-1.68a4.332 4.332 0 0 1 .546-1.61c.663-1.073 1.67-1.61 3.024-1.61 1.036 0 1.876.308 2.52.924.653.607.98 1.372.98 2.296a3.95 3.95 0 0 1-.616 2.17c-.41.635-1.069 1.265-1.974 1.89l-1.4.98-.63.28v.07l.84-.07h3.78V264h-7.07Zm8.193-.77c0-.28.089-.513.266-.7a.932.932 0 0 1 .686-.28c.308 0 .55.112.728.336.186.224.28.555.28.994 0 .719-.173 1.269-.518 1.652-.336.392-.794.588-1.372.588v-.7c.28 0 .5-.079.658-.238a.765.765 0 0 0 .252-.602v-.084c-.01-.009-.014-.028-.014-.056v-.042l-.084.028a.741.741 0 0 1-.182.014c-.187 0-.35-.084-.49-.252-.14-.168-.21-.387-.21-.658Zm3.006-2.45c0-.448.098-.915.294-1.4.205-.495.401-.882.588-1.162.196-.289.462-.649.798-1.078l2.24-2.94h1.89l-2.114 2.758-.616.532v.07l.28-.098c.28-.075.583-.112.91-.112.915 0 1.69.331 2.324.994.644.653.966 1.465.966 2.436 0 .989-.355 1.82-1.064 2.492-.71.672-1.615 1.008-2.716 1.008-1.101 0-2.007-.336-2.716-1.008-.71-.672-1.064-1.503-1.064-2.492Zm2.254-1.456c-.383.373-.574.859-.574 1.456s.191 1.087.574 1.47c.383.373.891.56 1.526.56s1.143-.187 1.526-.56c.383-.383.574-.873.574-1.47s-.191-1.083-.574-1.456c-.383-.383-.891-.574-1.526-.574s-1.143.191-1.526.574Zm5.312-3.584v-1.54h6.65v1.54l-3.92 8.26h-1.75l3.85-8.12v-.14h-4.83Zm111.544 86.68v-1.82l1.82-1.4h1.47v9.8h-1.61v-7.84l-1.68 1.26Zm4.831 0c0-.989.355-1.82 1.064-2.492.709-.672 1.615-1.008 2.716-1.008 1.101 0 2.007.336 2.716 1.008.709.672 1.064 1.503 1.064 2.492 0 .887-.369 1.843-1.106 2.87l-.308.42a13.42 13.42 0 0 0-.266.35l-2.24 2.94h-1.89l2.114-2.758.616-.532v-.07a7.65 7.65 0 0 1-.28.112 3.583 3.583 0 0 1-.91.098 3.163 3.163 0 0 1-2.338-.98c-.635-.663-.952-1.479-.952-2.45Zm2.254-1.456c-.383.373-.574.859-.574 1.456s.191 1.087.574 1.47c.383.373.891.56 1.526.56s1.143-.187 1.526-.56c.383-.383.574-.873.574-1.47s-.191-1.083-.574-1.456c-.383-.383-.891-.574-1.526-.574s-1.143.191-1.526.574Zm6.359 7.266c0-.28.089-.513.266-.7a.933.933 0 0 1 .686-.28c.308 0 .551.112.728.336.187.224.28.555.28.994 0 .719-.172 1.269-.518 1.652-.336.392-.793.588-1.372.588v-.7c.28 0 .5-.079.658-.238a.765.765 0 0 0 .252-.602v-.084c-.009-.009-.014-.028-.014-.056v-.042l-.084.028a.738.738 0 0 1-.182.014c-.186 0-.35-.084-.49-.252-.14-.168-.21-.387-.21-.658Zm3.077-1.96h1.68c.074.289.2.537.378.742.41.485 1.008.728 1.792.728.625 0 1.12-.168 1.484-.504.364-.336.546-.775.546-1.316 0-.569-.182-1.027-.546-1.372-.364-.345-.859-.518-1.484-.518-.579 0-1.069.154-1.47.462a1.916 1.916 0 0 0-.42.448h-1.54l.42-5.74h5.95v1.54h-4.62l-.21 2.52h.07c.149-.149.322-.275.518-.378.438-.261.966-.392 1.582-.392.98 0 1.796.327 2.45.98.653.653.98 1.47.98 2.45 0 .961-.346 1.764-1.036 2.408-.682.635-1.573.952-2.674.952-1.438 0-2.506-.499-3.206-1.498a4.397 4.397 0 0 1-.644-1.512Zm8.263.77v-1.54l3.29-6.3h1.75l-3.29 6.3h3.22v-2.38h1.61v2.38h1.4v1.54h-1.4V349h-1.61v-1.96h-4.97Zm124.216-76.62v-1.82l1.82-1.4h1.47v9.8h-1.61v-7.84l-1.68 1.26Zm4.411-1.68v-1.54h6.65v1.54l-3.92 8.26h-1.75l3.85-8.12v-.14h-4.83Zm6.094 7.49c0-.28.089-.513.266-.7a.932.932 0 0 1 .686-.28c.308 0 .551.112.728.336.187.224.28.555.28.994 0 .719-.173 1.269-.518 1.652-.336.392-.793.588-1.372.588v-.7c.28 0 .499-.079.658-.238a.765.765 0 0 0 .252-.602v-.084c-.009-.009-.014-.028-.014-.056v-.042l-.084.028a.743.743 0 0 1-.182.014c-.187 0-.35-.084-.49-.252-.14-.168-.21-.387-.21-.658Zm3.076-1.89c0-.849.327-1.526.98-2.03a3.16 3.16 0 0 1 .98-.448v-.084a2.568 2.568 0 0 1-.77-.462c-.513-.439-.77-1.017-.77-1.736 0-.737.313-1.363.938-1.876.635-.523 1.489-.784 2.562-.784 1.073 0 1.923.261 2.548.784.635.513.952 1.139.952 1.876 0 .7-.257 1.279-.77 1.736-.243.196-.499.35-.77.462v.084c.355.093.681.247.98.462.653.504.98 1.176.98 2.016 0 .812-.355 1.507-1.064 2.086-.7.569-1.652.854-2.856.854s-2.161-.285-2.87-.854c-.7-.579-1.05-1.274-1.05-2.086Zm2.1-4.62c0 .411.159.747.476 1.008.317.261.765.392 1.344.392.579 0 1.027-.131 1.344-.392.317-.261.476-.597.476-1.008 0-.373-.163-.686-.49-.938-.317-.261-.761-.392-1.33-.392-.569 0-1.017.131-1.344.392-.317.252-.476.565-.476.938Zm.168 3.346c-.392.308-.588.686-.588 1.134 0 .448.196.831.588 1.148.401.308.952.462 1.652.462s1.246-.154 1.638-.462c.401-.317.602-.7.602-1.148 0-.448-.201-.826-.602-1.134-.392-.317-.938-.476-1.638-.476s-1.251.159-1.652.476Zm6.547 3.934v-1.54l3.346-2.366c.728-.523 1.251-1.008 1.568-1.456.318-.448.476-.924.476-1.428 0-.532-.163-.957-.49-1.274-.326-.317-.77-.476-1.33-.476-.69 0-1.208.28-1.554.84a2.851 2.851 0 0 0-.336.84h-1.68a4.332 4.332 0 0 1 .546-1.61c.663-1.073 1.671-1.61 3.024-1.61 1.036 0 1.876.308 2.52.924.654.607.98 1.372.98 2.296 0 .803-.205 1.526-.616 2.17-.41.635-1.068 1.265-1.974 1.89l-1.4.98-.63.28v.07l.84-.07h3.78V277h-7.07ZM276.56 124.27h1.68c.075.289.201.537.378.742.411.485 1.008.728 1.792.728.625 0 1.12-.168 1.484-.504.364-.336.546-.775.546-1.316 0-.569-.182-1.027-.546-1.372-.364-.345-.859-.518-1.484-.518-.579 0-1.069.154-1.47.462a1.916 1.916 0 0 0-.42.448h-1.54l.42-5.74h5.95v1.54h-4.62l-.21 2.52h.07c.149-.149.322-.275.518-.378.439-.261.966-.392 1.582-.392.98 0 1.797.327 2.45.98.653.653.98 1.47.98 2.45 0 .961-.345 1.764-1.036 2.408-.681.635-1.573.952-2.674.952-1.437 0-2.506-.499-3.206-1.498a4.417 4.417 0 0 1-.644-1.512Zm8.613 1.96c0-.28.089-.513.266-.7a.933.933 0 0 1 .686-.28c.308 0 .551.112.728.336.187.224.28.555.28.994 0 .719-.172 1.269-.518 1.652-.336.392-.793.588-1.372.588v-.7c.28 0 .5-.079.658-.238a.765.765 0 0 0 .252-.602v-.084c-.009-.009-.014-.028-.014-.056v-.042l-.084.028a.738.738 0 0 1-.182.014c-.186 0-.35-.084-.49-.252-.14-.168-.21-.387-.21-.658Zm3.006-2.45c0-.448.098-.915.294-1.4.206-.495.402-.882.588-1.162.196-.289.462-.649.798-1.078l2.24-2.94h1.89l-2.114 2.758-.616.532v.07l.28-.098c.28-.075.584-.112.91-.112.915 0 1.69.331 2.324.994.644.653.966 1.465.966 2.436 0 .989-.354 1.82-1.064 2.492-.709.672-1.614 1.008-2.716 1.008-1.101 0-2.006-.336-2.716-1.008-.709-.672-1.064-1.503-1.064-2.492Zm2.254-1.456c-.382.373-.574.859-.574 1.456s.192 1.087.574 1.47c.383.373.892.56 1.526.56.635 0 1.144-.187 1.526-.56.383-.383.574-.873.574-1.47s-.191-1.083-.574-1.456c-.382-.383-.891-.574-1.526-.574-.634 0-1.143.191-1.526.574Zm6.36 1.456c0-.448.098-.915.294-1.4.205-.495.401-.882.588-1.162.196-.289.462-.649.798-1.078l2.24-2.94h1.89l-2.114 2.758-.616.532v.07l.28-.098c.28-.075.583-.112.91-.112.914 0 1.689.331 2.324.994.644.653.966 1.465.966 2.436 0 .989-.355 1.82-1.064 2.492-.71.672-1.615 1.008-2.716 1.008-1.102 0-2.007-.336-2.716-1.008-.71-.672-1.064-1.503-1.064-2.492Zm2.254-1.456c-.383.373-.574.859-.574 1.456s.191 1.087.574 1.47c.382.373.891.56 1.526.56.634 0 1.143-.187 1.526-.56.382-.383.574-.873.574-1.47s-.192-1.083-.574-1.456c-.383-.383-.892-.574-1.526-.574-.635 0-1.144.191-1.526.574ZM179.42 155v-1.54l3.346-2.366c.728-.523 1.251-1.008 1.568-1.456.317-.448.476-.924.476-1.428 0-.532-.163-.957-.49-1.274-.327-.317-.77-.476-1.33-.476-.691 0-1.209.28-1.554.84a2.851 2.851 0 0 0-.336.84h-1.68a4.332 4.332 0 0 1 .546-1.61c.663-1.073 1.671-1.61 3.024-1.61 1.036 0 1.876.308 2.52.924.653.607.98 1.372.98 2.296 0 .803-.205 1.526-.616 2.17-.411.635-1.069 1.265-1.974 1.89l-1.4.98-.63.28v.07l.84-.07h3.78V155h-7.07Zm8.193-.77c0-.28.088-.513.266-.7a.93.93 0 0 1 .686-.28c.308 0 .55.112.728.336.186.224.28.555.28.994 0 .719-.173 1.269-.518 1.652-.336.392-.794.588-1.372.588v-.7c.28 0 .499-.079.658-.238a.765.765 0 0 0 .252-.602v-.084c-.01-.009-.014-.028-.014-.056v-.042l-.084.028a.743.743 0 0 1-.182.014c-.187 0-.35-.084-.49-.252-.14-.168-.21-.387-.21-.658Zm2.726-1.19v-1.54l3.29-6.3h1.75l-3.29 6.3h3.22v-2.38h1.61v2.38h1.4v1.54h-1.4V155h-1.61v-1.96h-4.97Zm9.939.784c-.886-.971-1.33-2.212-1.33-3.724s.444-2.753 1.33-3.724c.887-.971 1.96-1.456 3.22-1.456 1.26 0 2.334.485 3.22 1.456.887.971 1.33 2.212 1.33 3.724s-.443 2.753-1.33 3.724c-.886.971-1.96 1.456-3.22 1.456-1.26 0-2.333-.485-3.22-1.456Zm1.148-6.412c-.532.635-.798 1.531-.798 2.688 0 1.157.266 2.053.798 2.688.542.635 1.232.952 2.072.952.84 0 1.526-.317 2.058-.952.542-.635.812-1.531.812-2.688 0-1.157-.27-2.053-.812-2.688-.532-.635-1.218-.952-2.058-.952-.84 0-1.53.317-2.072.952Z" fill="#333"/><circle cx="221.5" cy="262.5" r="39.5" fill="#5A5A5A"/><path d="M197.63 265.86c0-.576.126-1.176.378-1.8.264-.636.516-1.134.756-1.494.252-.372.594-.834 1.026-1.386l2.88-3.78h2.43l-2.718 3.546-.792.684v.09l.36-.126a4.53 4.53 0 0 1 1.17-.144c1.176 0 2.172.426 2.988 1.278.828.84 1.242 1.884 1.242 3.132 0 1.272-.456 2.34-1.368 3.204-.912.864-2.076 1.296-3.492 1.296s-2.58-.432-3.492-1.296c-.912-.864-1.368-1.932-1.368-3.204Zm2.898-1.872c-.492.48-.738 1.104-.738 1.872s.246 1.398.738 1.89c.492.48 1.146.72 1.962.72.816 0 1.47-.24 1.962-.72.492-.492.738-1.122.738-1.89 0-.768-.246-1.392-.738-1.872-.492-.492-1.146-.738-1.962-.738-.816 0-1.47.246-1.962.738Zm8.176 1.872c0-.576.126-1.176.378-1.8.264-.636.516-1.134.756-1.494.252-.372.594-.834 1.026-1.386l2.88-3.78h2.43l-2.718 3.546-.792.684v.09l.36-.126a4.53 4.53 0 0 1 1.17-.144c1.176 0 2.172.426 2.988 1.278.828.84 1.242 1.884 1.242 3.132 0 1.272-.456 2.34-1.368 3.204-.912.864-2.076 1.296-3.492 1.296s-2.58-.432-3.492-1.296c-.912-.864-1.368-1.932-1.368-3.204Zm2.898-1.872c-.492.48-.738 1.104-.738 1.872s.246 1.398.738 1.89c.492.48 1.146.72 1.962.72.816 0 1.47-.24 1.962-.72.492-.492.738-1.122.738-1.89 0-.768-.246-1.392-.738-1.872-.492-.492-1.146-.738-1.962-.738-.816 0-1.47.246-1.962.738Zm8.266 5.022c0-.36.114-.66.342-.9a1.2 1.2 0 0 1 .882-.36c.396 0 .708.144.936.432.24.288.36.714.36 1.278 0 .924-.222 1.632-.666 2.124-.432.504-1.02.756-1.764.756v-.9c.36 0 .642-.102.846-.306.216-.192.324-.45.324-.774v-.108c-.012-.012-.018-.036-.018-.072v-.054l-.108.036a.932.932 0 0 1-.234.018c-.24 0-.45-.108-.63-.324-.18-.216-.27-.498-.27-.846Zm3.956-7.47c0-1.272.456-2.34 1.368-3.204.912-.864 2.076-1.296 3.492-1.296s2.58.432 3.492 1.296c.912.864 1.368 1.932 1.368 3.204 0 1.14-.474 2.37-1.422 3.69l-.396.54c-.168.216-.282.366-.342.45l-2.88 3.78h-2.43l2.718-3.546.792-.684v-.09c-.024.012-.144.06-.36.144-.312.084-.702.126-1.17.126-1.176 0-2.178-.42-3.006-1.26-.816-.852-1.224-1.902-1.224-3.15Zm2.898-1.872c-.492.48-.738 1.104-.738 1.872s.246 1.398.738 1.89c.492.48 1.146.72 1.962.72.816 0 1.47-.24 1.962-.72.492-.492.738-1.122.738-1.89 0-.768-.246-1.392-.738-1.872-.492-.492-1.146-.738-1.962-.738-.816 0-1.47.246-1.962.738Zm8.176 1.872c0-1.272.456-2.34 1.368-3.204.912-.864 2.076-1.296 3.492-1.296s2.58.432 3.492 1.296c.912.864 1.368 1.932 1.368 3.204 0 1.14-.474 2.37-1.422 3.69l-.396.54c-.168.216-.282.366-.342.45l-2.88 3.78h-2.43l2.718-3.546.792-.684v-.09c-.024.012-.144.06-.36.144-.312.084-.702.126-1.17.126-1.176 0-2.178-.42-3.006-1.26-.816-.852-1.224-1.902-1.224-3.15Zm2.898-1.872c-.492.48-.738 1.104-.738 1.872s.246 1.398.738 1.89c.492.48 1.146.72 1.962.72.816 0 1.47-.24 1.962-.72.492-.492.738-1.122.738-1.89 0-.768-.246-1.392-.738-1.872-.492-.492-1.146-.738-1.962-.738-.816 0-1.47.246-1.962.738Z" fill="#fff"/></svg>