<svg width="346" height="693" fill="none" xmlns="http://www.w3.org/2000/svg"><path d="M197 663V90h138v573H197Z" fill="#E7FFD5"/><path d="M103 392V90h138v302H103Z" fill="#E7FFD5"/><path d="M16 307V90h225v217H16Z" fill="#E7FFD5"/><path d="M252 293h78v179h-78V293Z" fill="#FDFF9F"/><path fill="#5A5A5A" d="M298 693v-30h48v30z"/><path d="M241.35 573.42v-1.82l1.82-1.4h1.47v9.8h-1.61v-7.84l-1.68 1.26Zm4.831 3.85h1.68c.075.289.201.537.378.742.411.485 1.008.728 1.792.728.625 0 1.12-.168 1.484-.504.364-.336.546-.775.546-1.316 0-.569-.182-1.027-.546-1.372-.364-.345-.859-.518-1.484-.518-.579 0-1.069.154-1.47.462a1.916 1.916 0 0 0-.42.448h-1.54l.42-5.74h5.95v1.54h-4.62l-.21 2.52h.07c.149-.149.322-.275.518-.378.439-.261.966-.392 1.582-.392.98 0 1.797.327 2.45.98.653.653.98 1.47.98 2.45 0 .961-.345 1.764-1.036 2.408-.681.635-1.573.952-2.674.952-1.437 0-2.506-.499-3.206-1.498a4.417 4.417 0 0 1-.644-1.512Zm8.613 1.96c0-.28.089-.513.266-.7a.933.933 0 0 1 .686-.28c.308 0 .551.112.728.336.187.224.28.555.28.994 0 .719-.172 1.269-.518 1.652-.336.392-.793.588-1.372.588v-.7c.28 0 .5-.079.658-.238a.765.765 0 0 0 .252-.602v-.084c-.009-.009-.014-.028-.014-.056v-.042l-.084.028a.738.738 0 0 1-.182.014c-.186 0-.35-.084-.49-.252-.14-.168-.21-.387-.21-.658Zm4.477-.406c-.887-.971-1.33-2.212-1.33-3.724s.443-2.753 1.33-3.724c.886-.971 1.96-1.456 3.22-1.456 1.26 0 2.333.485 3.22 1.456.886.971 1.33 2.212 1.33 3.724s-.444 2.753-1.33 3.724c-.887.971-1.96 1.456-3.22 1.456-1.26 0-2.334-.485-3.22-1.456Zm1.148-6.412c-.532.635-.798 1.531-.798 2.688 0 1.157.266 2.053.798 2.688.541.635 1.232.952 2.072.952.84 0 1.526-.317 2.058-.952.541-.635.812-1.531.812-2.688 0-1.157-.271-2.053-.812-2.688-.532-.635-1.218-.952-2.058-.952-.84 0-1.531.317-2.072.952Zm7.745 4.368c0-.448.098-.915.294-1.4.205-.495.401-.882.588-1.162.196-.289.462-.649.798-1.078l2.24-2.94h1.89l-2.114 2.758-.616.532v.07l.28-.098c.28-.075.583-.112.91-.112.914 0 1.689.331 2.324.994.644.653.966 1.465.966 2.436 0 .989-.355 1.82-1.064 2.492-.71.672-1.615 1.008-2.716 1.008-1.102 0-2.007-.336-2.716-1.008-.71-.672-1.064-1.503-1.064-2.492Zm2.254-1.456c-.383.373-.574.859-.574 1.456s.191 1.087.574 1.47c.382.373.891.56 1.526.56.634 0 1.143-.187 1.526-.56.382-.383.574-.873.574-1.47s-.192-1.083-.574-1.456c-.383-.383-.892-.574-1.526-.574-.635 0-1.144.191-1.526.574ZM134.35 350.42v-1.82l1.82-1.4h1.47v9.8h-1.61v-7.84l-1.68 1.26Zm4.621 0v-1.82l1.82-1.4h1.47v9.8h-1.61v-7.84l-1.68 1.26Zm4.831 5.81c0-.28.089-.513.266-.7a.933.933 0 0 1 .686-.28c.308 0 .551.112.728.336.187.224.28.555.28.994 0 .719-.172 1.269-.518 1.652-.336.392-.793.588-1.372.588v-.7c.28 0 .5-.079.658-.238a.765.765 0 0 0 .252-.602v-.084c-.009-.009-.014-.028-.014-.056v-.042l-.084.028a.738.738 0 0 1-.182.014c-.186 0-.35-.084-.49-.252-.14-.168-.21-.387-.21-.658Zm3.076-1.96h1.68c.075.289.201.537.378.742.411.485 1.008.728 1.792.728.626 0 1.12-.168 1.484-.504.364-.336.546-.775.546-1.316 0-.569-.182-1.027-.546-1.372-.364-.345-.858-.518-1.484-.518-.578 0-1.068.154-1.47.462a1.958 1.958 0 0 0-.42.448h-1.54l.42-5.74h5.95v1.54h-4.62l-.21 2.52h.07c.15-.149.322-.275.518-.378.439-.261.966-.392 1.582-.392.98 0 1.797.327 2.45.98.654.653.98 1.47.98 2.45 0 .961-.345 1.764-1.036 2.408-.681.635-1.572.952-2.674.952-1.437 0-2.506-.499-3.206-1.498a4.436 4.436 0 0 1-.644-1.512Zm8.474-.07h1.68c.065.289.191.546.378.77.42.513 1.017.77 1.792.77.644 0 1.152-.159 1.526-.476.382-.327.574-.728.574-1.204 0-.541-.173-.966-.518-1.274-.336-.317-.817-.476-1.442-.476h-2.38v-1.4l2.94-2.1v-.07h-4.06v-1.54h6.44v1.526l-2.52 1.834-.7.28v.07l.224-.028c.308-.028.49-.042.546-.042.877 0 1.61.303 2.198.91.588.607.882 1.377.882 2.31 0 .896-.346 1.657-1.036 2.282-.691.625-1.582.938-2.674.938-1.447 0-2.516-.513-3.206-1.54a4.388 4.388 0 0 1-.644-1.54Zm113.208 56.07h1.68c.075.289.201.537.378.742.411.485 1.008.728 1.792.728.625 0 1.12-.168 1.484-.504.364-.336.546-.775.546-1.316 0-.569-.182-1.027-.546-1.372-.364-.345-.859-.518-1.484-.518-.579 0-1.069.154-1.47.462a1.916 1.916 0 0 0-.42.448h-1.54l.42-5.74h5.95v1.54h-4.62l-.21 2.52h.07c.149-.149.322-.275.518-.378.439-.261.966-.392 1.582-.392.98 0 1.797.327 2.45.98.653.653.98 1.47.98 2.45 0 .961-.345 1.764-1.036 2.408-.681.635-1.573.952-2.674.952-1.437 0-2.506-.499-3.206-1.498a4.417 4.417 0 0 1-.644-1.512Zm8.613 1.96c0-.28.089-.513.266-.7a.933.933 0 0 1 .686-.28c.308 0 .551.112.728.336.187.224.28.555.28.994 0 .719-.172 1.269-.518 1.652-.336.392-.793.588-1.372.588v-.7c.28 0 .5-.079.658-.238a.765.765 0 0 0 .252-.602v-.084c-.009-.009-.014-.028-.014-.056v-.042l-.084.028a.738.738 0 0 1-.182.014c-.186 0-.35-.084-.49-.252-.14-.168-.21-.387-.21-.658Zm4.476-.406c-.886-.971-1.33-2.212-1.33-3.724s.444-2.753 1.33-3.724c.887-.971 1.96-1.456 3.22-1.456 1.26 0 2.334.485 3.22 1.456.887.971 1.33 2.212 1.33 3.724s-.443 2.753-1.33 3.724c-.886.971-1.96 1.456-3.22 1.456-1.26 0-2.333-.485-3.22-1.456Zm1.148-6.412c-.532.635-.798 1.531-.798 2.688 0 1.157.266 2.053.798 2.688.542.635 1.232.952 2.072.952.84 0 1.526-.317 2.058-.952.542-.635.812-1.531.812-2.688 0-1.157-.27-2.053-.812-2.688-.532-.635-1.218-.952-2.058-.952-.84 0-1.53.317-2.072.952Zm7.676 4.788h1.68c.065.289.191.546.378.77.42.513 1.017.77 1.792.77.644 0 1.152-.159 1.526-.476.382-.327.574-.728.574-1.204 0-.541-.173-.966-.518-1.274-.336-.317-.817-.476-1.442-.476h-2.38v-1.4l2.94-2.1v-.07h-4.06v-1.54h6.44v1.526l-2.52 1.834-.7.28v.07l.224-.028c.308-.028.49-.042.546-.042.877 0 1.61.303 2.198.91.588.607.882 1.377.882 2.31 0 .896-.346 1.657-1.036 2.282-.691.625-1.582.938-2.674.938-1.447 0-2.516-.513-3.206-1.54a4.388 4.388 0 0 1-.644-1.54Zm-22.053-77h1.68c.065.289.191.546.378.77.42.513 1.017.77 1.792.77.644 0 1.153-.159 1.526-.476.383-.327.574-.728.574-1.204 0-.541-.173-.966-.518-1.274-.336-.317-.817-.476-1.442-.476h-2.38v-1.4l2.94-2.1v-.07h-4.06v-1.54h6.44v1.526l-2.52 1.834-.7.28v.07l.224-.028c.308-.028.49-.042.546-.042.877 0 1.61.303 2.198.91.588.607.882 1.377.882 2.31 0 .896-.345 1.657-1.036 2.282-.691.625-1.582.938-2.674.938-1.447 0-2.515-.513-3.206-1.54a4.406 4.406 0 0 1-.644-1.54Zm8.617 2.03c0-.28.088-.513.266-.7a.93.93 0 0 1 .686-.28c.308 0 .55.112.728.336.186.224.28.555.28.994 0 .719-.173 1.269-.518 1.652-.336.392-.794.588-1.372.588v-.7c.28 0 .499-.079.658-.238a.765.765 0 0 0 .252-.602v-.084c-.01-.009-.014-.028-.014-.056v-.042l-.084.028a.743.743 0 0 1-.182.014c-.187 0-.35-.084-.49-.252-.14-.168-.21-.387-.21-.658Zm2.936-2.03h1.68c.065.289.191.546.378.77.42.513 1.017.77 1.792.77.644 0 1.152-.159 1.526-.476.382-.327.574-.728.574-1.204 0-.541-.173-.966-.518-1.274-.336-.317-.817-.476-1.442-.476h-2.38v-1.4l2.94-2.1v-.07h-4.06v-1.54h6.44v1.526l-2.52 1.834-.7.28v.07l.224-.028c.308-.028.49-.042.546-.042.877 0 1.61.303 2.198.91.588.607.882 1.377.882 2.31 0 .896-.346 1.657-1.036 2.282-.691.625-1.582.938-2.674.938-1.447 0-2.516-.513-3.206-1.54a4.388 4.388 0 0 1-.644-1.54Zm8.266.84v-1.54l3.29-6.3h1.75l-3.29 6.3h3.22v-2.38h1.61v2.38h1.4v1.54h-1.4V336h-1.61v-1.96h-4.97ZM215.42 241.2h1.68c.065.289.191.546.378.77.42.513 1.017.77 1.792.77.644 0 1.153-.159 1.526-.476.383-.327.574-.728.574-1.204 0-.541-.173-.966-.518-1.274-.336-.317-.817-.476-1.442-.476h-2.38v-1.4l2.94-2.1v-.07h-4.06v-1.54h6.44v1.526l-2.52 1.834-.7.28v.07l.224-.028c.308-.028.49-.042.546-.042.877 0 1.61.303 2.198.91.588.607.882 1.377.882 2.31 0 .896-.345 1.657-1.036 2.282-.691.625-1.582.938-2.674.938-1.447 0-2.515-.513-3.206-1.54a4.406 4.406 0 0 1-.644-1.54Zm8.267.84v-1.54l3.29-6.3h1.75l-3.29 6.3h3.22v-2.38h1.61v2.38h1.4v1.54h-1.4V244h-1.61v-1.96h-4.97Zm8.539 1.19c0-.28.089-.513.266-.7a.932.932 0 0 1 .686-.28c.308 0 .551.112.728.336.187.224.28.555.28.994 0 .719-.173 1.269-.518 1.652-.336.392-.793.588-1.372.588v-.7c.28 0 .499-.079.658-.238a.765.765 0 0 0 .252-.602v-.084c-.009-.009-.014-.028-.014-.056v-.042l-.084.028a.743.743 0 0 1-.182.014c-.187 0-.35-.084-.49-.252-.14-.168-.21-.387-.21-.658Zm4.476-.406c-.886-.971-1.33-2.212-1.33-3.724s.444-2.753 1.33-3.724c.887-.971 1.96-1.456 3.22-1.456 1.26 0 2.334.485 3.22 1.456.887.971 1.33 2.212 1.33 3.724s-.443 2.753-1.33 3.724c-.886.971-1.96 1.456-3.22 1.456-1.26 0-2.333-.485-3.22-1.456Zm1.148-6.412c-.532.635-.798 1.531-.798 2.688 0 1.157.266 2.053.798 2.688.542.635 1.232.952 2.072.952.84 0 1.526-.317 2.058-.952.542-.635.812-1.531.812-2.688 0-1.157-.27-2.053-.812-2.688-.532-.635-1.218-.952-2.058-.952-.84 0-1.53.317-2.072.952Zm7.395-.672v-1.54h6.65v1.54l-3.92 8.26h-1.75l3.85-8.12v-.14h-4.83ZM73.21 46.04V44.5l3.29-6.3h1.75l-3.29 6.3h3.22v-2.38h1.61v2.38h1.4v1.54h-1.4V48h-1.61v-1.96h-4.97Zm8.54 1.19c0-.28.088-.513.266-.7a.933.933 0 0 1 .685-.28c.309 0 .551.112.729.336.186.224.28.555.28.994 0 .719-.173 1.27-.518 1.652-.336.392-.794.588-1.372.588v-.7c.28 0 .499-.08.658-.238a.765.765 0 0 0 .252-.602v-.084c-.01-.01-.014-.028-.014-.056v-.042l-.084.028a.726.726 0 0 1-.183.014c-.186 0-.35-.084-.49-.252-.14-.168-.21-.387-.21-.658Zm2.656-7.49V38.2h6.65v1.54L87.136 48h-1.75l3.85-8.12v-.14h-4.83Zm7.144 5.04c0-.448.099-.915.294-1.4.206-.495.402-.882.589-1.162.195-.29.461-.649.797-1.078l2.24-2.94h1.89l-2.114 2.758-.615.532v.07l.28-.098c.28-.075.583-.112.91-.112.914 0 1.689.331 2.323.994.644.653.966 1.465.966 2.436 0 .99-.354 1.82-1.064 2.492-.709.672-1.614 1.008-2.716 1.008-1.1 0-2.006-.336-2.715-1.008-.71-.672-1.064-1.503-1.064-2.492Zm2.255-1.456c-.383.373-.575.859-.575 1.456s.192 1.087.575 1.47c.382.373.89.56 1.525.56.635 0 1.144-.187 1.526-.56.383-.383.575-.873.575-1.47s-.192-1.083-.575-1.456c-.382-.383-.89-.574-1.525-.574-.635 0-1.144.191-1.526.574ZM37.49 214.78c0-.448.098-.915.294-1.4.205-.495.401-.882.588-1.162.196-.289.462-.649.798-1.078l2.24-2.94h1.89l-2.114 2.758-.616.532v.07l.28-.098c.28-.075.583-.112.91-.112.915 0 1.69.331 2.324.994.644.653.966 1.465.966 2.436 0 .989-.355 1.82-1.064 2.492-.71.672-1.615 1.008-2.716 1.008-1.101 0-2.007-.336-2.716-1.008-.71-.672-1.064-1.503-1.064-2.492Zm2.254-1.456c-.383.373-.574.859-.574 1.456s.191 1.087.574 1.47c.383.373.891.56 1.526.56s1.143-.187 1.526-.56c.383-.383.574-.873.574-1.47s-.191-1.083-.574-1.456c-.383-.383-.891-.574-1.526-.574s-1.143.191-1.526.574Zm6.43 3.906c0-.28.088-.513.265-.7a.931.931 0 0 1 .686-.28c.308 0 .55.112.728.336.187.224.28.555.28.994 0 .719-.172 1.269-.518 1.652-.336.392-.793.588-1.372.588v-.7c.28 0 .5-.079.658-.238a.765.765 0 0 0 .252-.602v-.084c-.01-.009-.014-.028-.014-.056v-.042l-.084.028a.742.742 0 0 1-.182.014c-.186 0-.35-.084-.49-.252-.14-.168-.21-.387-.21-.658Zm4.476-.406c-.887-.971-1.33-2.212-1.33-3.724s.443-2.753 1.33-3.724c.886-.971 1.96-1.456 3.22-1.456 1.26 0 2.333.485 3.22 1.456.886.971 1.33 2.212 1.33 3.724s-.444 2.753-1.33 3.724c-.887.971-1.96 1.456-3.22 1.456-1.26 0-2.334-.485-3.22-1.456Zm1.148-6.412c-.532.635-.799 1.531-.799 2.688 0 1.157.267 2.053.798 2.688.542.635 1.233.952 2.073.952.84 0 1.526-.317 2.058-.952.54-.635.812-1.531.812-2.688 0-1.157-.271-2.053-.813-2.688-.532-.635-1.218-.952-2.057-.952-.84 0-1.531.317-2.072.952Zm9.215 6.412c-.887-.971-1.33-2.212-1.33-3.724s.443-2.753 1.33-3.724c.886-.971 1.96-1.456 3.22-1.456 1.26 0 2.333.485 3.22 1.456.886.971 1.33 2.212 1.33 3.724s-.444 2.753-1.33 3.724c-.887.971-1.96 1.456-3.22 1.456-1.26 0-2.334-.485-3.22-1.456Zm1.148-6.412c-.532.635-.798 1.531-.798 2.688 0 1.157.266 2.053.798 2.688.541.635 1.232.952 2.072.952.84 0 1.526-.317 2.058-.952.541-.635.812-1.531.812-2.688 0-1.157-.27-2.053-.812-2.688-.532-.635-1.218-.952-2.058-.952-.84 0-1.53.317-2.072.952ZM135.65 427.42v-1.82l-1.82-1.4h-1.47v9.8h1.61v-7.84l1.68 1.26Zm-4.411-1.68v-1.54h-6.65v1.54l3.92 8.26h1.75l-3.85-8.12v-.14h4.83Zm-6.094 7.49a.978.978 0 0 0-.266-.7.932.932 0 0 0-.686-.28c-.308 0-.551.112-.728.336-.187.224-.28.555-.28.994 0 .719.173 1.269.518 1.652.336.392.793.588 1.372.588v-.7c-.28 0-.499-.079-.658-.238a.765.765 0 0 1-.252-.602v-.084c.009-.009.014-.028.014-.056v-.042l.084.028a.743.743 0 0 0 .182.014c.187 0 .35-.084.49-.252.14-.168.21-.387.21-.658Zm-3.076-1.89c0-.849-.327-1.526-.98-2.03a3.16 3.16 0 0 0-.98-.448v-.084c.289-.112.546-.266.77-.462.513-.439.77-1.017.77-1.736 0-.737-.313-1.363-.938-1.876-.635-.523-1.489-.784-2.562-.784-1.073 0-1.923.261-2.548.784-.635.513-.952 1.139-.952 1.876 0 .7.257 1.279.77 1.736.243.196.499.35.77.462v.084a2.94 2.94 0 0 0-.98.462c-.653.504-.98 1.176-.98 2.016 0 .812.355 1.507 1.064 2.086.7.569 1.652.854 2.856.854s2.161-.285 2.87-.854c.7-.579 1.05-1.274 1.05-2.086Zm-2.1-4.62c0 .411-.159.747-.476 1.008-.317.261-.765.392-1.344.392-.579 0-1.027-.131-1.344-.392a1.247 1.247 0 0 1-.476-1.008c0-.373.163-.686.49-.938.317-.261.761-.392 1.33-.392.569 0 1.017.131 1.344.392.317.252.476.565.476.938Zm-.168 3.346c.392.308.588.686.588 1.134 0 .448-.196.831-.588 1.148-.401.308-.952.462-1.652.462s-1.246-.154-1.638-.462c-.401-.317-.602-.7-.602-1.148 0-.448.201-.826.602-1.134.392-.317.938-.476 1.638-.476s1.251.159 1.652.476Zm-6.547 1.134h-1.68a1.824 1.824 0 0 1-.378.77c-.42.513-1.018.77-1.792.77-.644 0-1.153-.159-1.526-.476-.383-.327-.574-.728-.574-1.204 0-.541.172-.966.518-1.274.336-.317.816-.476 1.442-.476h2.38v-1.4l-2.94-2.1v-.07h4.06v-1.54h-6.44v1.526l2.52 1.834.7.28v.07l-.224-.028c-.308-.028-.49-.042-.546-.042-.878 0-1.61.303-2.198.91-.588.607-.882 1.377-.882 2.31 0 .896.345 1.657 1.036 2.282.69.625 1.582.938 2.674.938 1.446 0 2.515-.513 3.206-1.54.298-.439.513-.952.644-1.54Z" fill="#333"/><path fill="#5A5A5A" d="M275 90V60h68v30z"/><path fill="#5A5A5A" d="M343 674h-16V82h16z"/><path fill="#5A5A5A" d="M234 487v-16h96v16z"/><path d="m307.517 381.307 1.181.017 3.066-.017h7.591v9.957h-11.838c-3.017 0-5.476-2.243-5.476-4.995 0-2.718 2.459-4.962 5.476-4.962Z" fill="#fff" stroke="#5A5A5A" stroke-width=".5"/><path d="M307.583 382.453h8.493v7.681h-7.559l-.934-.016c-2.378 0-4.312-1.704-4.312-3.833.016-2.112 1.951-3.832 4.312-3.832Zm18.134 10.613h-5.263a1.099 1.099 0 0 1-1.099-1.097v-11.284c0-.606.492-1.098 1.099-1.098h5.263c.607 0 1.099.492 1.099 1.098v11.267c0 .622-.492 1.114-1.099 1.114Z" fill="#fff" stroke="#5A5A5A" stroke-width=".5"/><path d="M323.093 386.973c-.41 0-.721-.294-.721-.638-.017-.361.311-.655.721-.655s.721.294.721.638a.682.682 0 0 1-.721.655Zm2.253 44.759h-12.308c-.855 0-1.54-.684-1.54-1.538v-18.52c0-.854.685-1.538 1.54-1.538h12.308c.856 0 1.541.684 1.541 1.538v18.52c0 .84-.685 1.538-1.541 1.538Z" fill="#fff" stroke="#5A5A5A" stroke-width=".5"/><path d="M320.655 429.809h-1.897a4.52 4.52 0 0 1-4.521-4.516v-8.718a4.52 4.52 0 0 1 4.521-4.516h1.897a4.52 4.52 0 0 1 4.521 4.516v8.718a4.52 4.52 0 0 1-4.521 4.516Z" fill="#fff" stroke="#5A5A5A" stroke-width=".5"/><path d="M322.765 421.889c-.543 0-.984-.428-.984-.955 0-.527.441-.954.984-.954.543 0 .984.427.984.954 0 .527-.441.955-.984.955Zm2.628 19.56h-66.852c-.856 0-1.541.684-1.541 1.539v26.539c0 .855.685 1.539 1.541 1.539h66.852c.856 0 1.541-.684 1.541-1.539v-26.539c0-.855-.701-1.539-1.541-1.539Z" fill="#fff" stroke="#5A5A5A" stroke-width=".5"/><path d="M261.109 452.659v7.214c0 4.182 3.393 7.556 7.565 7.556h52.641a1.846 1.846 0 0 0 1.852-1.85v-18.657c0-1.026-.825-1.85-1.852-1.85h-52.626c-4.187.015-7.58 3.405-7.58 7.587Z" fill="#fff" stroke="#5A5A5A" stroke-width=".5"/><path d="M316.925 455.737c0-.833.704-1.508 1.572-1.508.869 0 1.572.675 1.572 1.508 0 .832-.703 1.508-1.572 1.508-.868 0-1.572-.676-1.572-1.508Zm-64.926-63.713v-22.01l21.588-.014-.014 22.01-21.574.014Z" fill="#fff" stroke="#5A5A5A" stroke-width=".5"/><path d="M268.33 381.005c0-3.114-2.475-5.628-5.537-5.628s-5.536 2.514-5.536 5.642c0 3.114 2.474 5.656 5.536 5.656 3.062-.014 5.537-2.556 5.537-5.67Z" stroke="#5A5A5A" stroke-width=".5"/><path d="M262.793 385.125a3.872 3.872 0 0 0 2.852-1.201 4.267 4.267 0 0 0 1.189-2.905m-4.027-4.134c1.105 0 2.111.461 2.852 1.201a4.187 4.187 0 0 1 1.189 2.919l-4.041-4.12Zm-.014 8.24a4.031 4.031 0 0 1-2.852-1.201 4.2 4.2 0 0 1-1.175-2.919l4.027 4.12Zm.014-8.24a3.934 3.934 0 0 0-2.852 1.201l-.014.014a4.168 4.168 0 0 0-1.175 2.891l4.041-4.106Z" stroke="#5A5A5A" stroke-width=".5"/><path fill="#5A5A5A" d="M244 435h8v52h-8zm90-73v8h-90v-8z"/><path fill="#5A5A5A" d="M252 408h-8v-65h8zm-.01-96.155-8-.006.015-20.842 8 .006zM87 408v-16h107v16z"/><path fill="#5A5A5A" d="M181 392h16v301h-16zm58-98v-16h91v16zM0 323v-16h103v16z"/><path fill="#5A5A5A" d="M87 278h16v51H87z"/><path fill="#5A5A5A" d="M138 278v16H87v-16zm-51 84h16v46H87z"/><circle cx="245.5" cy="151.5" r="39.5" fill="#5A5A5A"/><path d="M222.18 148.38v-1.98h8.55v1.98L225.69 159h-2.25l4.95-10.44v-.18h-6.21Zm8.826 8.1v-1.98l4.23-8.1h2.25l-4.23 8.1h4.14v-3.06h2.07v3.06h1.8v1.98h-1.8V159h-2.07v-2.52h-6.39Zm10.98 1.53c0-.36.114-.66.342-.9a1.2 1.2 0 0 1 .882-.36c.396 0 .708.144.936.432.24.288.36.714.36 1.278 0 .924-.222 1.632-.666 2.124-.432.504-1.02.756-1.764.756v-.9c.36 0 .642-.102.846-.306.216-.192.324-.45.324-.774v-.108c-.012-.012-.018-.036-.018-.072v-.054l-.108.036a.932.932 0 0 1-.234.018c-.24 0-.45-.108-.63-.324-.18-.216-.27-.498-.27-.846Zm3.775-2.61h2.16c.084.372.246.702.486.99.54.66 1.308.99 2.304.99.828 0 1.482-.204 1.962-.612.492-.42.738-.936.738-1.548 0-.696-.222-1.242-.666-1.638-.432-.408-1.05-.612-1.854-.612h-3.06v-1.8l3.78-2.7v-.09h-5.22v-1.98h8.28v1.962l-3.24 2.358-.9.36v.09l.288-.036c.396-.036.63-.054.702-.054 1.128 0 2.07.39 2.826 1.17.756.78 1.134 1.77 1.134 2.97 0 1.152-.444 2.13-1.332 2.934-.888.804-2.034 1.206-3.438 1.206-1.86 0-3.234-.66-4.122-1.98-.384-.564-.66-1.224-.828-1.98Zm11.078.18c0-1.092.42-1.962 1.26-2.61.36-.252.78-.444 1.26-.576v-.108a3.296 3.296 0 0 1-.99-.594c-.66-.564-.99-1.308-.99-2.232 0-.948.402-1.752 1.206-2.412.816-.672 1.914-1.008 3.294-1.008 1.38 0 2.472.336 3.276 1.008.816.66 1.224 1.464 1.224 2.412 0 .9-.33 1.644-.99 2.232-.312.252-.642.45-.99.594v.108c.456.12.876.318 1.26.594.84.648 1.26 1.512 1.26 2.592 0 1.044-.456 1.938-1.368 2.682-.9.732-2.124 1.098-3.672 1.098s-2.778-.366-3.69-1.098c-.9-.744-1.35-1.638-1.35-2.682Zm2.7-5.94c0 .528.204.96.612 1.296.408.336.984.504 1.728.504s1.32-.168 1.728-.504c.408-.336.612-.768.612-1.296 0-.48-.21-.882-.63-1.206-.408-.336-.978-.504-1.71-.504s-1.308.168-1.728.504c-.408.324-.612.726-.612 1.206Zm.216 4.302c-.504.396-.756.882-.756 1.458s.252 1.068.756 1.476c.516.396 1.224.594 2.124.594.9 0 1.602-.198 2.106-.594.516-.408.774-.9.774-1.476s-.258-1.062-.774-1.458c-.504-.408-1.206-.612-2.106-.612-.9 0-1.608.204-2.124.612Z" fill="#fff"/><path fill="#5A5A5A" d="M176 294v-16h26v16zM0 60h16v252H0zm127 30V60h86v30z"/><path fill="#5A5A5A" d="M0 90V60h41v30zm189 603v-30h57v30z"/><path d="m138.25 89.75 157.437-.152.062-11.348H138.25v11.5Zm66 603 125.449-.152.05-11.348H204.25v11.5Zm-66-621 157.437-.152.062-11.348H138.25v11.5Zm66 603 125.449-.152.05-11.348H204.25v11.5Z" stroke="#5A5A5A" stroke-width=".5" stroke-miterlimit="10"/><path stroke="#5A5A5A" d="m246.45 310.217-14 29m-1.006 69.553 14 27m-50.663 35.781 39-19m6.491-160.131-34 22m-72.518-22.985 39 22m-83.329 12.828-21 34"/><path d="m307.702 316.241 1.18.017 3.066-.017h7.592v9.957h-11.838c-3.017 0-5.476-2.243-5.476-4.995 0-2.718 2.459-4.962 5.476-4.962Z" fill="#fff" stroke="#5A5A5A" stroke-width=".5"/><path d="M307.767 317.387h8.493v7.681h-7.558l-.935-.016c-2.377 0-4.312-1.704-4.312-3.833.016-2.112 1.951-3.832 4.312-3.832ZM325.902 328h-5.263a1.098 1.098 0 0 1-1.099-1.097v-11.284c0-.606.492-1.098 1.099-1.098h5.263c.606 0 1.098.492 1.098 1.098v11.267c0 .623-.492 1.114-1.098 1.114Z" fill="#fff" stroke="#5A5A5A" stroke-width=".5"/><path d="M323.278 321.908c-.41 0-.722-.295-.722-.639-.016-.36.312-.655.722-.655.409 0 .721.295.721.638a.684.684 0 0 1-.721.656Zm-51.423-14.448v-12.308c0-.856.684-1.541 1.538-1.541h18.52c.854 0 1.538.685 1.538 1.541v12.308c0 .855-.684 1.54-1.538 1.54h-18.52c-.84 0-1.538-.685-1.538-1.54Z" fill="#fff" stroke="#5A5A5A" stroke-width=".5"/><path d="M273.778 302.768v-1.897a4.52 4.52 0 0 1 4.516-4.521h8.718a4.52 4.52 0 0 1 4.516 4.521v1.897a4.52 4.52 0 0 1-4.516 4.521h-8.718a4.52 4.52 0 0 1-4.516-4.521Z" fill="#fff" stroke="#5A5A5A" stroke-width=".5"/><path d="M281.699 304.878c0-.543.427-.984.954-.984.527 0 .954.441.954.984 0 .544-.427.984-.954.984-.527 0-.954-.44-.954-.984ZM16 258.325h24.995V234H16v24.325Z" fill="#fff" stroke="#5A5A5A" stroke-width=".5"/><path d="M38.969 257.398H19.516c-.738 0-1.13-.392-1.13-1.162v-20.147c0-.785.376-1.162 1.13-1.162h19.453c.753-.016 1.13.377 1.13 1.146v20.148c.016.785-.377 1.177-1.13 1.177Z" fill="#fff" stroke="#5A5A5A" stroke-width=".5"/><path d="M37.18 250.897c-.016-1.79-1.43-3.251-3.172-3.251-1.758 0-3.171 1.461-3.171 3.251 0 1.806 1.413 3.25 3.171 3.25 1.759 0 3.172-1.444 3.172-3.25Zm-.03-9.626c-.016-1.79-1.43-3.251-3.172-3.251-1.759 0-3.172 1.461-3.172 3.251 0 1.806 1.413 3.25 3.172 3.25 1.758.016 3.187-1.444 3.171-3.25Zm-9.014 0c0-1.806-1.413-3.251-3.172-3.251-1.758 0-3.171 1.461-3.171 3.251.015 1.79 1.428 3.25 3.171 3.25 1.743 0 3.172-1.46 3.172-3.25Zm0 9.626c0-1.806-1.413-3.251-3.172-3.251-1.758 0-3.171 1.461-3.171 3.251.015 1.79 1.428 3.25 3.171 3.25 1.743 0 3.172-1.46 3.172-3.25Z" stroke="#5A5A5A" stroke-width=".5"/><path d="M37 307.088V283h23.699v24.104L37 307.088Z" fill="#fff" stroke="#5A5A5A" stroke-width=".5"/><path d="M38.803 300.482v-13.317c0-.742.363-1.106 1.121-1.106h17.608c.727 0 1.106.364 1.121 1.091l-.015 13.332c.015.727-.364 1.091-1.106 1.091H39.924c-.742.03-1.121-.348-1.121-1.091Z" fill="#fff" stroke="#5A5A5A" stroke-width=".5"/><path d="M48.728 305.24c.925-.015 1.667-.712 1.667-1.591l-.651-6.984-.016-.015c0-.531-.439-.955-1-.955-.56 0-1 .424-1.015.97l-.651 6.984c0 .864.742 1.576 1.666 1.591Z" stroke="#5A5A5A" stroke-width=".5"/><mask id="a" fill="#fff"><path fill-rule="evenodd" clip-rule="evenodd" d="m50.107 304.558-.363-3.803a.987.987 0 0 0-1.03-.954.98.98 0 0 0-1 .954l-.364 3.803"/></mask><path fill-rule="evenodd" clip-rule="evenodd" d="m50.107 304.558-.363-3.803a.987.987 0 0 0-1.03-.954.98.98 0 0 0-1 .954l-.364 3.803" fill="#fff"/><path d="m49.744 300.755-.5.014v.017l.002.017.498-.048Zm-1.03-.954v.5l.013-.001-.014-.499Zm-1 .954.497.048.002-.017v-.017l-.5-.014Zm2.891 3.755-.363-3.803-.996.096.364 3.802.995-.095Zm-.361-3.769a1.488 1.488 0 0 0-1.544-1.44l.026.999a.49.49 0 0 1 .518.469l1-.028Zm-1.53-1.44a1.48 1.48 0 0 0-1.5 1.44l1 .028a.48.48 0 0 1 .5-.468v-1Zm-1.498 1.406-.364 3.803.995.095.364-3.802-.995-.096Z" fill="#5A5A5A" mask="url(#a)"/><path fill="#5A5A5A" d="M87 207h2v11h-2zm0-17h2v11h-2zm-17 2v-2h11v2zm-17 0v-2h11v2zm-17 0v-2h11v2zm-18 0v-2h11v2zm69 32h2v11h-2zm0 17h2v11h-2zm0 17h2v11h-2zm0 17h2v11h-2z"/><path stroke="#5A5A5A" d="m129.257 75.429-25 15"/><path d="m32.25.25 110.457.063.041 4.437H32.25V.25Z" stroke="#5A5A5A" stroke-width=".5" stroke-miterlimit="10"/><path fill="#5A5A5A" d="M16 0h-5v82h5zm142 3h-5v79h5z"/><path fill="#5A5A5A" d="M139 0v5h19V0zM14 0v5h19V0z"/><path d="m101.75 60.25-63.475.063-.024 4.437h63.499v-4.5Zm0 10-63.475.063-.024 4.437h63.499v-4.5Z" stroke="#5A5A5A" stroke-width=".5" stroke-miterlimit="10"/></svg>