<svg width="339" height="589" fill="none" xmlns="http://www.w3.org/2000/svg"><path fill="#E7FFD5" d="M328 462V203H199v259z"/><path fill="#E7FFD5" d="M257 557v-96h-66v96zm70-252V81H68v224h259Z"/><path fill="#FDFF9F" d="M328 466v-83h-63v83zm-177.203 51.493 39.53-39.53L169.367 457l-39.531 39.53z"/><path d="M208 408V203H68v227l140-22Z" fill="#E7FFD5"/><path d="M200 423.817V323L70 426l60 64 70-66.183Z" fill="#E7FFD5"/><path d="M214 443.817V343L104 476l40 34 70-66.183Z" fill="#E7FFD5"/><path d="M191 552v-93h-20l-31 36.5 51 56.5Z" fill="#E7FFD5"/><path fill="#5A5A5A" d="M329 81V51h-50v30z"/><path fill="#5A5A5A" d="M339 51h-12v419h12zM96 416v2h11v-2zm-17 0v2h11v-2zm-17 0v2h11v-2zm51 0v2h11v-2zm17 0v2h11v-2zm17 0v2h11v-2zm17 0v2h11v-2zm17 0v2h11v-2zm17 0v2h11v-2z"/><path fill="#5A5A5A" d="M47.783 396.131 36.47 407.445 201.686 572.66l11.313-11.314z"/><path fill="#5A5A5A" d="M202 557v16h61v-16z"/><path fill="#5A5A5A" d="M273 519h-16v54h16zm0-58h-16v23h16zm-62.039-15.112-5.657-5.656-64.303 64.303 5.656 5.657 64.304-64.304Z"/><path d="M265 439h-8v23h8v-23Zm-54-23h-8v30h8v-30Zm119-30v-8h-73v8h73Z" fill="#5A5A5A"/><path d="M257 413h8v-51h-8v51Zm0-81h8v-61h-8v61Z" fill="#5A5A5A"/><path d="M257 267v8h71v-8h-71Zm-51 53v8h59v-8h-59Z" fill="#5A5A5A"/><path d="M211 320h-7v18h7v-18Zm46 141v8h73v-8h-73ZM223 81V51h-71v30z" fill="#5A5A5A"/><path d="m282.75 80.75-93.462-.152-.037-11.348h93.499v11.5Zm-215 139.5-.152 173.43-11.348.068V220.25h11.5Z" stroke="#5A5A5A" stroke-width=".5" stroke-miterlimit="10"/><path d="m67.75 87.25-.152 206.417-11.348.081V87.25h11.5Zm215-24.5-93.462-.152-.037-11.348h93.499v11.5Zm-233 157.5-.152 173.43-11.348.068V220.25h11.5Z" stroke="#5A5A5A" stroke-width=".5" stroke-miterlimit="10"/><path d="m49.75 87.25-.152 206.417-11.348.081V87.25h11.5Zm37.5-87 81.468.063.03 4.437H87.25V.25Z" stroke="#5A5A5A" stroke-width=".5" stroke-miterlimit="10"/><path fill="#5A5A5A" d="M81 0h-5v74h5zm97 0h-5v74h5z"/><path fill="#5A5A5A" d="M166 0v5h8V0z"/><path fill="#5A5A5A" d="M76 0v5h93V0z"/><path d="m168.75 66.75-43.483-.063-.016-4.437h43.499v4.5Zm0-10-43.483-.063-.016-4.437h43.499v4.5Z" stroke="#5A5A5A" stroke-width=".5" stroke-miterlimit="10"/><path stroke="#5A5A5A" d="m96.745 67.43 27 16"/><path fill="#5A5A5A" d="M100 81V51H38v30z"/><path fill="#5A5A5A" d="M38 147h30V79H38zm30 59H38v123h30zm0 178H38v22l30 14v-36Z"/><path d="m115.199 462.875 17.674-17.675-17.2-17.2-17.674 17.674 17.2 17.201Z" fill="#fff" stroke="#5A5A5A" stroke-width=".5"/><path d="m130.784 445.978-13.755 13.755c-.522.522-1.077.522-1.621-.022l-14.247-14.247c-.555-.555-.555-1.088-.022-1.621l13.755-13.755c.522-.544 1.066-.533 1.61.011l14.247 14.247c.566.544.566 1.099.033 1.632Z" fill="#fff" stroke="#5A5A5A" stroke-width=".5"/><path d="M124.922 442.646c-1.277-1.255-3.309-1.288-4.541-.056-1.243 1.243-1.21 3.275.056 4.541 1.277 1.277 3.298 1.299 4.541.056 1.244-1.243 1.221-3.264-.056-4.541Zm-6.828-6.785c-1.277-1.255-3.309-1.288-4.541-.056-1.244 1.243-1.21 3.275.056 4.541 1.277 1.277 3.297 1.299 4.541.056 1.254-1.232 1.232-3.275-.056-4.541Zm-6.373 6.373c-1.277-1.277-3.298-1.299-4.541-.056-1.244 1.244-1.21 3.276.056 4.542 1.277 1.254 3.309 1.288 4.541.056 1.232-1.233 1.21-3.276-.056-4.542Zm6.807 6.807c-1.277-1.277-3.298-1.299-4.542-.056-1.243 1.243-1.209 3.275.056 4.541 1.277 1.255 3.309 1.288 4.542.056 1.232-1.232 1.209-3.275-.056-4.541Z" stroke="#5A5A5A" stroke-width=".5"/><path d="M178.79 467.033 161.757 450l-16.758 16.758 17.044 17.044 16.747-16.769Z" fill="#fff" stroke="#5A5A5A" stroke-width=".5"/><path d="m172.845 463.637-9.417-9.417c-.525-.524-1.039-.524-1.575.011l-12.45 12.451c-.514.514-.525 1.039-.022 1.564l9.438 9.416c.504.525 1.029.515 1.554-.01l12.45-12.451c.547-.503.547-1.039.022-1.564Z" fill="#fff" stroke="#5A5A5A" stroke-width=".5"/><path d="M169.191 474.019c-.665.643-1.683.675-2.304.054l-4.478-5.399v-.022c-.375-.375-.364-.985.033-1.382a.996.996 0 0 1 1.403-.032l5.399 4.478c.611.61.589 1.639-.053 2.303Z" stroke="#5A5A5A" stroke-width=".5"/><mask id="a" fill="#fff"><path fill-rule="evenodd" clip-rule="evenodd" d="m167.732 474.512-2.432-2.946a.989.989 0 0 1 .054-1.404.98.98 0 0 1 1.382-.032l2.946 2.432"/></mask><path fill-rule="evenodd" clip-rule="evenodd" d="m167.732 474.512-2.432-2.946a.989.989 0 0 1 .054-1.404.98.98 0 0 1 1.382-.032l2.946 2.432" fill="#fff"/><path d="m165.3 471.566.363-.344.012.013.01.013-.385.318Zm.054-1.404.353.354-.009.009-.344-.363Zm1.382-.032-.319.386-.013-.011-.012-.011.344-.364Zm.61 4.7-2.432-2.946.771-.636 2.432 2.946-.771.636Zm-2.41-2.921a1.488 1.488 0 0 1 .073-2.109l.689.725a.488.488 0 0 0-.035.697l-.727.687Zm.064-2.1a1.48 1.48 0 0 1 2.079-.042l-.687.727a.48.48 0 0 0-.685.022l-.707-.707Zm2.054-.065 2.946 2.432-.637.771-2.946-2.431.637-.772Z" fill="#5A5A5A" mask="url(#a)"/><path stroke="#5A5A5A" d="m259.451 408.217-13 27m13-107-13 27m41.129 159.054-20-31m8.173 88.164 30 17"/><path d="m307.476 407.759 1.181-.017 3.066.017h7.591v-9.957h-11.838c-3.017 0-5.476 2.243-5.476 4.995 0 2.718 2.459 4.962 5.476 4.962Z" fill="#fff" stroke="#5A5A5A" stroke-width=".5"/><path d="M307.543 406.613h8.493v-7.681h-7.559l-.934.016c-2.378 0-4.313 1.703-4.313 3.832.017 2.113 1.952 3.833 4.313 3.833ZM325.676 396h-5.263c-.607 0-1.099.491-1.099 1.097v11.284c0 .606.492 1.098 1.099 1.098h5.263c.607 0 1.099-.492 1.099-1.098v-11.267c0-.623-.492-1.114-1.099-1.114Z" fill="#fff" stroke="#5A5A5A" stroke-width=".5"/><path d="M323.052 402.092c-.41 0-.721.295-.721.639-.017.36.311.655.721.655s.721-.295.721-.639a.684.684 0 0 0-.721-.655Zm-15.576-49.254 1.181.016 3.066-.016h7.591v9.957h-11.838c-3.017 0-5.476-2.243-5.476-4.995 0-2.718 2.459-4.962 5.476-4.962Z" fill="#fff" stroke="#5A5A5A" stroke-width=".5"/><path d="M307.543 353.984h8.493v7.681h-7.559l-.934-.016c-2.378 0-4.313-1.704-4.313-3.833.017-2.112 1.952-3.832 4.313-3.832Zm18.133 10.613h-5.263a1.099 1.099 0 0 1-1.099-1.098v-11.284c0-.606.492-1.097 1.099-1.097h5.263c.607 0 1.099.491 1.099 1.097v11.268c0 .622-.492 1.114-1.099 1.114Z" fill="#fff" stroke="#5A5A5A" stroke-width=".5"/><path d="M323.052 358.504c-.41 0-.721-.294-.721-.638-.017-.361.311-.655.721-.655s.721.294.721.638a.682.682 0 0 1-.721.655Zm-9.512 88.093h12.308c.856 0 1.541-.684 1.541-1.539v-18.519c0-.855-.685-1.539-1.541-1.539H313.54c-.855 0-1.54.684-1.54 1.539v18.519c0 .841.685 1.539 1.54 1.539Z" fill="#fff" stroke="#5A5A5A" stroke-width=".5"/><path d="M318.232 444.673h1.897a4.519 4.519 0 0 0 4.521-4.515v-8.719a4.52 4.52 0 0 0-4.521-4.516h-1.897a4.52 4.52 0 0 0-4.521 4.516v8.719a4.519 4.519 0 0 0 4.521 4.515Z" fill="#fff" stroke="#5A5A5A" stroke-width=".5"/><path d="M316.121 436.753c.543 0 .984-.427.984-.954 0-.527-.441-.955-.984-.955-.544 0-.984.428-.984.955 0 .527.44.954.984.954ZM313.54 319h12.308c.856 0 1.541.684 1.541 1.539v18.519c0 .855-.685 1.539-1.541 1.539H313.54c-.855 0-1.54-.684-1.54-1.539v-18.519c0-.841.685-1.539 1.54-1.539Z" fill="#fff" stroke="#5A5A5A" stroke-width=".5"/><path d="M318.232 320.923h1.897a4.52 4.52 0 0 1 4.521 4.516v8.718a4.52 4.52 0 0 1-4.521 4.516h-1.897a4.52 4.52 0 0 1-4.521-4.516v-8.718a4.52 4.52 0 0 1 4.521-4.516Z" fill="#fff" stroke="#5A5A5A" stroke-width=".5"/><path d="M316.121 328.843c.543 0 .984.428.984.955 0 .527-.441.954-.984.954-.544 0-.984-.427-.984-.954 0-.527.44-.954.984-.955Zm9.505-27.432h-59.613c-.764 0-1.374-.61-1.374-1.373v-23.665c0-.763.61-1.373 1.374-1.373h59.613c.763 0 1.374.61 1.374 1.373v23.665c0 .763-.625 1.373-1.374 1.373Z" fill="#fff" stroke="#5A5A5A" stroke-width=".5"/><path d="M268.302 291.415v-6.433c0-3.73 3.026-6.738 6.746-6.738h46.941c.916 0 1.652.735 1.652 1.65v16.636c0 .915-.736 1.65-1.652 1.65h-46.927c-3.734-.014-6.76-3.036-6.76-6.765Z" fill="#fff" stroke="#5A5A5A" stroke-width=".5"/><path d="M318.077 288.67c0 .743.628 1.345 1.402 1.345.774 0 1.402-.602 1.402-1.345s-.628-1.345-1.402-1.345c-.774 0-1.402.602-1.402 1.345Z" fill="#fff" stroke="#5A5A5A" stroke-width=".5"/><circle cx="186.5" cy="183.5" r="39.5" fill="#5A5A5A"/><path d="M162.18 180.38v-1.98h8.55v1.98L165.69 191h-2.25l4.95-10.44v-.18h-6.21Zm9.628 7.2c0-1.092.42-1.962 1.26-2.61.36-.252.78-.444 1.26-.576v-.108a3.296 3.296 0 0 1-.99-.594c-.66-.564-.99-1.308-.99-2.232 0-.948.402-1.752 1.206-2.412.816-.672 1.914-1.008 3.294-1.008 1.38 0 2.472.336 3.276 1.008.816.66 1.224 1.464 1.224 2.412 0 .9-.33 1.644-.99 2.232-.312.252-.642.45-.99.594v.108c.456.12.876.318 1.26.594.84.648 1.26 1.512 1.26 2.592 0 1.044-.456 1.938-1.368 2.682-.9.732-2.124 1.098-3.672 1.098s-2.778-.366-3.69-1.098c-.9-.744-1.35-1.638-1.35-2.682Zm2.7-5.94c0 .528.204.96.612 1.296.408.336.984.504 1.728.504s1.32-.168 1.728-.504c.408-.336.612-.768.612-1.296 0-.48-.21-.882-.63-1.206-.408-.336-.978-.504-1.71-.504s-1.308.168-1.728.504c-.408.324-.612.726-.612 1.206Zm.216 4.302c-.504.396-.756.882-.756 1.458s.252 1.068.756 1.476c.516.396 1.224.594 2.124.594.9 0 1.602-.198 2.106-.594.516-.408.774-.9.774-1.476s-.258-1.062-.774-1.458c-.504-.408-1.206-.612-2.106-.612-.9 0-1.608.204-2.124.612Zm8.598 4.068c0-.36.114-.66.342-.9a1.2 1.2 0 0 1 .882-.36c.396 0 .708.144.936.432.24.288.36.714.36 1.278 0 .924-.222 1.632-.666 2.124-.432.504-1.02.756-1.764.756v-.9c.36 0 .642-.102.846-.306.216-.192.324-.45.324-.774v-.108c-.012-.012-.018-.036-.018-.072v-.054l-.108.036a.932.932 0 0 1-.234.018c-.24 0-.45-.108-.63-.324-.18-.216-.27-.498-.27-.846Zm5.755-.522c-1.14-1.248-1.71-2.844-1.71-4.788 0-1.944.57-3.54 1.71-4.788 1.14-1.248 2.52-1.872 4.14-1.872 1.62 0 3 .624 4.14 1.872 1.14 1.248 1.71 2.844 1.71 4.788 0 1.944-.57 3.54-1.71 4.788-1.14 1.248-2.52 1.872-4.14 1.872-1.62 0-3-.624-4.14-1.872Zm1.476-8.244c-.684.816-1.026 1.968-1.026 3.456s.342 2.64 1.026 3.456c.696.816 1.584 1.224 2.664 1.224s1.962-.408 2.646-1.224c.696-.816 1.044-1.968 1.044-3.456s-.348-2.64-1.044-3.456c-.684-.816-1.566-1.224-2.646-1.224-1.08 0-1.968.408-2.664 1.224Zm9.958 5.616c0-.576.126-1.176.378-1.8.264-.636.516-1.134.756-1.494.252-.372.594-.834 1.026-1.386l2.88-3.78h2.43l-2.718 3.546-.792.684v.09l.36-.126a4.53 4.53 0 0 1 1.17-.144c1.176 0 2.172.426 2.988 1.278.828.84 1.242 1.884 1.242 3.132 0 1.272-.456 2.34-1.368 3.204-.912.864-2.076 1.296-3.492 1.296s-2.58-.432-3.492-1.296c-.912-.864-1.368-1.932-1.368-3.204Zm2.898-1.872c-.492.48-.738 1.104-.738 1.872s.246 1.398.738 1.89c.492.48 1.146.72 1.962.72.816 0 1.47-.24 1.962-.72.492-.492.738-1.122.738-1.89 0-.768-.246-1.392-.738-1.872-.492-.492-1.146-.738-1.962-.738-.816 0-1.47.246-1.962.738Z" fill="#fff"/><path d="M271.42 433.2h1.68c.065.289.191.546.378.77.42.513 1.017.77 1.792.77.644 0 1.153-.159 1.526-.476.383-.327.574-.728.574-1.204 0-.541-.173-.966-.518-1.274-.336-.317-.817-.476-1.442-.476h-2.38v-1.4l2.94-2.1v-.07h-4.06v-1.54h6.44v1.526l-2.52 1.834-.7.28v.07l.224-.028c.308-.028.49-.042.546-.042.877 0 1.61.303 2.198.91.588.607.882 1.377.882 2.31 0 .896-.345 1.657-1.036 2.282-.691.625-1.582.938-2.674.938-1.447 0-2.515-.513-3.206-1.54a4.406 4.406 0 0 1-.644-1.54Zm8.617 2.03c0-.28.088-.513.266-.7a.93.93 0 0 1 .686-.28c.308 0 .55.112.728.336.186.224.28.555.28.994 0 .719-.173 1.269-.518 1.652-.336.392-.794.588-1.372.588v-.7c.28 0 .499-.079.658-.238a.765.765 0 0 0 .252-.602v-.084c-.01-.009-.014-.028-.014-.056v-.042l-.084.028a.743.743 0 0 1-.182.014c-.187 0-.35-.084-.49-.252-.14-.168-.21-.387-.21-.658Zm2.656-7.49v-1.54h6.65v1.54l-3.92 8.26h-1.75l3.85-8.12v-.14h-4.83Zm8.888 7.084c-.887-.971-1.33-2.212-1.33-3.724s.443-2.753 1.33-3.724c.887-.971 1.96-1.456 3.22-1.456 1.26 0 2.333.485 3.22 1.456s1.33 2.212 1.33 3.724-.443 2.753-1.33 3.724c-.887.971-1.96 1.456-3.22 1.456-1.26 0-2.333-.485-3.22-1.456Zm1.148-6.412c-.532.635-.798 1.531-.798 2.688 0 1.157.266 2.053.798 2.688.541.635 1.232.952 2.072.952.84 0 1.526-.317 2.058-.952.541-.635.812-1.531.812-2.688 0-1.157-.271-2.053-.812-2.688-.532-.635-1.218-.952-2.058-.952-.84 0-1.531.317-2.072.952ZM125.56 315.27h1.68c.075.289.201.537.378.742.411.485 1.008.728 1.792.728.625 0 1.12-.168 1.484-.504.364-.336.546-.775.546-1.316 0-.569-.182-1.027-.546-1.372-.364-.345-.859-.518-1.484-.518-.579 0-1.069.154-1.47.462a1.916 1.916 0 0 0-.42.448h-1.54l.42-5.74h5.95v1.54h-4.62l-.21 2.52h.07c.149-.149.322-.275.518-.378.439-.261.966-.392 1.582-.392.98 0 1.797.327 2.45.98.653.653.98 1.47.98 2.45 0 .961-.345 1.764-1.036 2.408-.681.635-1.573.952-2.674.952-1.437 0-2.506-.499-3.206-1.498a4.417 4.417 0 0 1-.644-1.512Zm8.263.77v-1.54l3.29-6.3h1.75l-3.29 6.3h3.22v-2.38h1.61v2.38h1.4v1.54h-1.4V318h-1.61v-1.96h-4.97Zm8.54 1.19c0-.28.088-.513.266-.7a.93.93 0 0 1 .686-.28c.308 0 .55.112.728.336.186.224.28.555.28.994 0 .719-.173 1.269-.518 1.652-.336.392-.794.588-1.372.588v-.7c.28 0 .499-.079.658-.238a.765.765 0 0 0 .252-.602v-.084c-.01-.009-.014-.028-.014-.056v-.042l-.084.028a.743.743 0 0 1-.182.014c-.187 0-.35-.084-.49-.252-.14-.168-.21-.387-.21-.658Zm3.076-1.96h1.68c.075.289.201.537.378.742.411.485 1.008.728 1.792.728.625 0 1.12-.168 1.484-.504.364-.336.546-.775.546-1.316 0-.569-.182-1.027-.546-1.372-.364-.345-.859-.518-1.484-.518-.579 0-1.069.154-1.47.462a1.916 1.916 0 0 0-.42.448h-1.54l.42-5.74h5.95v1.54h-4.62l-.21 2.52h.07c.149-.149.322-.275.518-.378.439-.261.966-.392 1.582-.392.98 0 1.797.327 2.45.98.653.653.98 1.47.98 2.45 0 .961-.345 1.764-1.036 2.408-.681.635-1.573.952-2.674.952-1.437 0-2.506-.499-3.206-1.498a4.417 4.417 0 0 1-.644-1.512Zm8.473-.07h1.68c.066.289.192.546.378.77.42.513 1.018.77 1.792.77.644 0 1.153-.159 1.526-.476.383-.327.574-.728.574-1.204 0-.541-.172-.966-.518-1.274-.336-.317-.816-.476-1.442-.476h-2.38v-1.4l2.94-2.1v-.07h-4.06v-1.54h6.44v1.526l-2.52 1.834-.7.28v.07l.224-.028c.308-.028.49-.042.546-.042.878 0 1.61.303 2.198.91.588.607.882 1.377.882 2.31 0 .896-.345 1.657-1.036 2.282-.69.625-1.582.938-2.674.938-1.446 0-2.515-.513-3.206-1.54a4.425 4.425 0 0 1-.644-1.54ZM142.21 431.04v-1.54l3.29-6.3h1.75l-3.29 6.3h3.22v-2.38h1.61v2.38h1.4v1.54h-1.4V433h-1.61v-1.96h-4.97Zm8.539 1.19c0-.28.089-.513.266-.7a.933.933 0 0 1 .686-.28c.308 0 .551.112.728.336.187.224.28.555.28.994 0 .719-.172 1.269-.518 1.652-.336.392-.793.588-1.372.588v-.7c.28 0 .5-.079.658-.238a.765.765 0 0 0 .252-.602v-.084c-.009-.009-.014-.028-.014-.056v-.042l-.084.028a.738.738 0 0 1-.182.014c-.186 0-.35-.084-.49-.252-.14-.168-.21-.387-.21-.658Zm2.727-1.19v-1.54l3.29-6.3h1.75l-3.29 6.3h3.22v-2.38h1.61v2.38h1.4v1.54h-1.4V433h-1.61v-1.96h-4.97Zm8.469-1.26c0-.448.098-.915.294-1.4.205-.495.401-.882.588-1.162.196-.289.462-.649.798-1.078l2.24-2.94h1.89l-2.114 2.758-.616.532v.07l.28-.098c.28-.075.583-.112.91-.112.915 0 1.689.331 2.324.994.644.653.966 1.465.966 2.436 0 .989-.355 1.82-1.064 2.492-.709.672-1.615 1.008-2.716 1.008-1.101 0-2.007-.336-2.716-1.008-.709-.672-1.064-1.503-1.064-2.492Zm2.254-1.456c-.383.373-.574.859-.574 1.456s.191 1.087.574 1.47c.383.373.891.56 1.526.56s1.143-.187 1.526-.56c.383-.383.574-.873.574-1.47s-.191-1.083-.574-1.456c-.383-.383-.891-.574-1.526-.574s-1.143.191-1.526.574ZM271.21 331.04v-1.54l3.29-6.3h1.75l-3.29 6.3h3.22v-2.38h1.61v2.38h1.4v1.54h-1.4V333h-1.61v-1.96h-4.97Zm8.539 1.19c0-.28.089-.513.266-.7a.933.933 0 0 1 .686-.28c.308 0 .551.112.728.336.187.224.28.555.28.994 0 .719-.172 1.269-.518 1.652-.336.392-.793.588-1.372.588v-.7c.28 0 .5-.079.658-.238a.765.765 0 0 0 .252-.602v-.084c-.009-.009-.014-.028-.014-.056v-.042l-.084.028a.738.738 0 0 1-.182.014c-.186 0-.35-.084-.49-.252-.14-.168-.21-.387-.21-.658Zm3.077-5.81c0-.989.354-1.82 1.064-2.492.709-.672 1.614-1.008 2.716-1.008 1.101 0 2.006.336 2.716 1.008.709.672 1.064 1.503 1.064 2.492 0 .887-.369 1.843-1.106 2.87l-.308.42c-.131.168-.22.285-.266.35l-2.24 2.94h-1.89l2.114-2.758.616-.532v-.07a7.65 7.65 0 0 1-.28.112 3.583 3.583 0 0 1-.91.098 3.163 3.163 0 0 1-2.338-.98c-.635-.663-.952-1.479-.952-2.45Zm2.254-1.456c-.383.373-.574.859-.574 1.456s.191 1.087.574 1.47c.382.373.891.56 1.526.56.634 0 1.143-.187 1.526-.56.382-.383.574-.873.574-1.47s-.192-1.083-.574-1.456c-.383-.383-.892-.574-1.526-.574-.635 0-1.144.191-1.526.574Zm6.289 4.816c0-.448.098-.915.294-1.4.205-.495.401-.882.588-1.162.196-.289.462-.649.798-1.078l2.24-2.94h1.89l-2.114 2.758-.616.532v.07l.28-.098c.28-.075.583-.112.91-.112.915 0 1.689.331 2.324.994.644.653.966 1.465.966 2.436 0 .989-.355 1.82-1.064 2.492-.709.672-1.615 1.008-2.716 1.008-1.101 0-2.007-.336-2.716-1.008-.709-.672-1.064-1.503-1.064-2.492Zm2.254-1.456c-.383.373-.574.859-.574 1.456s.191 1.087.574 1.47c.383.373.891.56 1.526.56s1.143-.187 1.526-.56c.383-.383.574-.873.574-1.47s-.191-1.083-.574-1.456c-.383-.383-.891-.574-1.526-.574s-1.143.191-1.526.574ZM.42 354.2H2.1c.065.289.191.546.378.77.42.513 1.017.77 1.792.77.644 0 1.153-.159 1.526-.476.383-.327.574-.728.574-1.204 0-.541-.173-.966-.518-1.274-.336-.317-.817-.476-1.442-.476H2.03v-1.4l2.94-2.1v-.07H.91v-1.54h6.44v1.526l-2.52 1.834-.7.28v.07l.224-.028c.308-.028.49-.042.546-.042.877 0 1.61.303 2.198.91.588.607.882 1.377.882 2.31 0 .896-.345 1.657-1.036 2.282-.69.625-1.582.938-2.674.938-1.447 0-2.515-.513-3.206-1.54a4.406 4.406 0 0 1-.644-1.54Zm8.617 2.03c0-.28.088-.513.266-.7a.932.932 0 0 1 .686-.28c.308 0 .55.112.728.336.186.224.28.555.28.994 0 .719-.173 1.269-.518 1.652-.336.392-.794.588-1.372.588v-.7c.28 0 .499-.079.658-.238a.765.765 0 0 0 .252-.602v-.084c-.01-.009-.014-.028-.014-.056v-.042l-.084.028a.742.742 0 0 1-.182.014c-.187 0-.35-.084-.49-.252-.14-.168-.21-.387-.21-.658Zm3.006-2.45c0-.448.098-.915.294-1.4.205-.495.401-.882.588-1.162.196-.289.462-.649.798-1.078l2.24-2.94h1.89l-2.114 2.758-.616.532v.07l.28-.098c.28-.075.583-.112.91-.112.914 0 1.69.331 2.324.994.644.653.966 1.465.966 2.436 0 .989-.355 1.82-1.064 2.492-.71.672-1.615 1.008-2.716 1.008-1.102 0-2.007-.336-2.716-1.008-.71-.672-1.064-1.503-1.064-2.492Zm2.254-1.456c-.383.373-.574.859-.574 1.456s.191 1.087.574 1.47c.382.373.891.56 1.526.56.634 0 1.143-.187 1.526-.56.382-.383.574-.873.574-1.47s-.192-1.083-.574-1.456c-.383-.383-.892-.574-1.526-.574-.635 0-1.144.191-1.526.574Zm6.359 1.456c0-.448.098-.915.294-1.4.205-.495.401-.882.588-1.162.196-.289.462-.649.798-1.078l2.24-2.94h1.89l-2.114 2.758-.616.532v.07l.28-.098c.28-.075.583-.112.91-.112.915 0 1.69.331 2.324.994.644.653.966 1.465.966 2.436 0 .989-.355 1.82-1.064 2.492-.71.672-1.615 1.008-2.716 1.008-1.101 0-2.007-.336-2.716-1.008-.71-.672-1.064-1.503-1.064-2.492Zm2.254-1.456c-.383.373-.574.859-.574 1.456s.191 1.087.574 1.47c.383.373.891.56 1.526.56s1.143-.187 1.526-.56c.383-.383.574-.873.574-1.47s-.191-1.083-.574-1.456c-.383-.383-.891-.574-1.526-.574s-1.143.191-1.526.574ZM214.35 486.42v-1.82l1.82-1.4h1.47v9.8h-1.61v-7.84l-1.68 1.26Zm6.231 5.404c-.887-.971-1.33-2.212-1.33-3.724s.443-2.753 1.33-3.724c.887-.971 1.96-1.456 3.22-1.456 1.26 0 2.333.485 3.22 1.456s1.33 2.212 1.33 3.724-.443 2.753-1.33 3.724c-.887.971-1.96 1.456-3.22 1.456-1.26 0-2.333-.485-3.22-1.456Zm1.148-6.412c-.532.635-.798 1.531-.798 2.688 0 1.157.266 2.053.798 2.688.541.635 1.232.952 2.072.952.84 0 1.526-.317 2.058-.952.541-.635.812-1.531.812-2.688 0-1.157-.271-2.053-.812-2.688-.532-.635-1.218-.952-2.058-.952-.84 0-1.531.317-2.072.952Zm7.815 6.818c0-.28.089-.513.266-.7a.933.933 0 0 1 .686-.28c.308 0 .551.112.728.336.187.224.28.555.28.994 0 .719-.172 1.269-.518 1.652-.336.392-.793.588-1.372.588v-.7c.28 0 .5-.079.658-.238a.765.765 0 0 0 .252-.602v-.084c-.009-.009-.014-.028-.014-.056v-.042l-.084.028a.738.738 0 0 1-.182.014c-.186 0-.35-.084-.49-.252-.14-.168-.21-.387-.21-.658Zm2.727-1.19v-1.54l3.29-6.3h1.75l-3.29 6.3h3.22v-2.38h1.61v2.38h1.4v1.54h-1.4V493h-1.61v-1.96h-4.97Zm8.329-4.62v-1.82l1.82-1.4h1.47v9.8h-1.61v-7.84l-1.68 1.26Z" fill="#333"/></svg>