<svg width="493" height="376" fill="none" xmlns="http://www.w3.org/2000/svg"><path fill="#E7FFD5" d="M432.055 115.36V37.002H16.324v78.358z"/><path fill="#FDFF9F" d="M432.055 115.36V20.678h-76.181v94.682z"/><path fill="#E7FFD5" d="M479.939 289.488V108.83H16.323v180.658z"/><path d="M476.363 161.068h-24.718v24.056h24.718v-24.056Z" fill="#fff" stroke="#5A5A5A" stroke-width=".5"/><path d="M453.648 161.985h19.238c.729 0 1.117.388 1.117 1.149v19.925c0 .776-.372 1.149-1.117 1.149h-19.238c-.746.016-1.118-.373-1.118-1.134V163.15c-.016-.777.372-1.165 1.118-1.165Z" fill="#fff" stroke="#5A5A5A" stroke-width=".5"/><path d="M455.418 168.414c.015 1.771 1.413 3.215 3.136 3.215 1.739 0 3.137-1.444 3.137-3.215 0-1.786-1.398-3.214-3.137-3.214s-3.136 1.428-3.136 3.214Zm.029 9.52c.016 1.77 1.413 3.214 3.137 3.214 1.739 0 3.136-1.444 3.136-3.214 0-1.786-1.397-3.215-3.136-3.215-1.739-.015-3.152 1.429-3.137 3.215Zm8.914 0c0 1.786 1.398 3.214 3.137 3.214s3.136-1.444 3.136-3.214c-.015-1.771-1.413-3.215-3.136-3.215-1.724 0-3.137 1.444-3.137 3.215Zm0-9.52c0 1.786 1.398 3.215 3.137 3.215s3.136-1.444 3.136-3.215c-.015-1.77-1.413-3.214-3.136-3.214-1.724 0-3.137 1.444-3.137 3.214Z" stroke="#5A5A5A" stroke-width=".5"/><path d="M457.668 116.463v23.822h-23.437v-23.837l23.437.015Z" fill="#fff" stroke="#5A5A5A" stroke-width=".5"/><path d="M455.885 122.996v13.17c0 .734-.36 1.093-1.109 1.093h-17.413c-.719 0-1.094-.359-1.109-1.078l.015-13.185c-.015-.719.36-1.079 1.094-1.079h17.413c.734-.03 1.109.345 1.109 1.079Z" fill="#fff" stroke="#5A5A5A" stroke-width=".5"/><path d="M446.07 118.291c-.914.015-1.648.704-1.648 1.573l.644 6.907.015.015c0 .524.435.944.989.944a.985.985 0 0 0 1.004-.959l.645-6.907c0-.854-.735-1.558-1.649-1.573Z" stroke="#5A5A5A" stroke-width=".5"/><mask id="a" fill="#fff"><path fill-rule="evenodd" clip-rule="evenodd" d="m444.706 118.966.36 3.76a.976.976 0 0 0 1.019.944.97.97 0 0 0 .989-.944l.36-3.76"/></mask><path fill-rule="evenodd" clip-rule="evenodd" d="m444.706 118.966.36 3.76a.976.976 0 0 0 1.019.944.97.97 0 0 0 .989-.944l.36-3.76" fill="#fff"/><path d="m445.066 122.726.5-.014-.001-.017-.001-.016-.498.047Zm1.019.944v-.5h-.013l.013.5Zm.989-.944-.498-.047-.001.016-.001.017.5.014Zm-2.865-3.713.359 3.761.996-.095-.36-3.761-.995.095Zm.357 3.728a1.477 1.477 0 0 0 1.532 1.429l-.026-1a.477.477 0 0 1-.506-.458l-1 .029Zm1.519 1.429a1.47 1.47 0 0 0 1.489-1.429l-1-.029a.47.47 0 0 1-.489.458v1Zm1.487-1.396.359-3.761-.995-.095-.36 3.761.996.095Z" fill="#5A5A5A" mask="url(#a)"/><circle cx="247.893" cy="189.125" r="38.94" fill="#5A5A5A"/><path d="M226.84 186.661v-1.98h8.55v1.98l-5.04 10.62h-2.25l4.95-10.44v-.18h-6.21Zm9.448 10.62v-1.98l4.302-3.042c.936-.672 1.608-1.296 2.016-1.872.408-.576.612-1.188.612-1.836 0-.684-.21-1.23-.63-1.638-.42-.408-.99-.612-1.71-.612-.888 0-1.554.36-1.998 1.08a3.633 3.633 0 0 0-.432 1.08h-2.16a5.567 5.567 0 0 1 .702-2.07c.852-1.38 2.148-2.07 3.888-2.07 1.332 0 2.412.396 3.24 1.188.84.78 1.26 1.764 1.26 2.952 0 1.032-.264 1.962-.792 2.79-.528.816-1.374 1.626-2.538 2.43l-1.8 1.26-.81.36v.09l1.08-.09h4.86v1.98h-9.09Zm10.534-.99c0-.36.114-.66.342-.9a1.2 1.2 0 0 1 .882-.36c.396 0 .708.144.936.432.24.288.36.714.36 1.278 0 .924-.222 1.632-.666 2.124-.432.504-1.02.756-1.764.756v-.9c.36 0 .642-.102.846-.306.216-.192.324-.45.324-.774v-.108c-.012-.012-.018-.036-.018-.072v-.054l-.108.036a.932.932 0 0 1-.234.018c-.24 0-.45-.108-.63-.324-.18-.216-.27-.498-.27-.846Zm3.955-2.52h2.16c.096.372.258.69.486.954.528.624 1.296.936 2.304.936.804 0 1.44-.216 1.908-.648.468-.432.702-.996.702-1.692 0-.732-.234-1.32-.702-1.764-.468-.444-1.104-.666-1.908-.666-.744 0-1.374.198-1.89.594a2.481 2.481 0 0 0-.54.576h-1.98l.54-7.38h7.65v1.98h-5.94l-.27 3.24h.09c.192-.192.414-.354.666-.486.564-.336 1.242-.504 2.034-.504 1.26 0 2.31.42 3.15 1.26.84.84 1.26 1.89 1.26 3.15 0 1.236-.444 2.268-1.332 3.096-.876.816-2.022 1.224-3.438 1.224-1.848 0-3.222-.642-4.122-1.926a5.672 5.672 0 0 1-.828-1.944Zm9.989-7.11v-1.98h8.55v1.98l-5.04 10.62h-2.25l4.95-10.44v-.18h-6.21Z" fill="#fff"/><path d="M280.991 254.819v-1.54l3.29-6.3h1.75l-3.29 6.3h3.22v-2.38h1.61v2.38h1.4v1.54h-1.4v1.96h-1.61v-1.96h-4.97Zm8.614 0v-1.54l3.29-6.3h1.75l-3.29 6.3h3.22v-2.38h1.61v2.38h1.4v1.54h-1.4v1.96h-1.61v-1.96h-4.97Zm8.539 1.19c0-.28.089-.513.266-.7a.935.935 0 0 1 .686-.28c.308 0 .551.112.728.336.187.224.28.556.28.994 0 .719-.173 1.27-.518 1.652-.336.392-.793.588-1.372.588v-.7c.28 0 .499-.079.658-.238a.765.765 0 0 0 .252-.602v-.084c-.009-.009-.014-.028-.014-.056v-.042l-.084.028a.694.694 0 0 1-.182.014c-.187 0-.35-.084-.49-.252-.14-.168-.21-.387-.21-.658Zm2.866-5.81v-1.82l1.82-1.4h1.47v9.8h-1.61v-7.84l-1.68 1.26Zm4.691 6.58v-1.54l3.346-2.366c.728-.522 1.251-1.008 1.568-1.456.318-.448.476-.924.476-1.428 0-.532-.163-.956-.49-1.274-.326-.317-.77-.476-1.33-.476-.69 0-1.208.28-1.554.84a2.851 2.851 0 0 0-.336.84h-1.68a4.332 4.332 0 0 1 .546-1.61c.663-1.073 1.671-1.61 3.024-1.61 1.036 0 1.876.308 2.52.924.654.607.98 1.372.98 2.296 0 .803-.205 1.526-.616 2.17-.41.635-1.068 1.265-1.974 1.89l-1.4.98-.63.28v.07l.84-.07h3.78v1.54h-7.07ZM85.21 350.04v-1.54l3.29-6.3h1.75l-3.29 6.3h3.22v-2.38h1.61v2.38h1.4v1.54h-1.4V352h-1.61v-1.96h-4.97Zm8.54 1.19c0-.28.088-.513.266-.7a.931.931 0 0 1 .685-.28c.309 0 .551.112.729.336.186.224.28.555.28.994 0 .719-.173 1.269-.518 1.652-.336.392-.794.588-1.372.588v-.7c.28 0 .499-.079.658-.238a.765.765 0 0 0 .252-.602v-.084c-.01-.009-.014-.028-.014-.056v-.042l-.084.028a.742.742 0 0 1-.183.014c-.186 0-.35-.084-.49-.252-.14-.168-.21-.387-.21-.658Zm2.656-7.49v-1.54h6.65v1.54l-3.92 8.26h-1.75l3.85-8.12v-.14h-4.83Zm7.145 5.04c0-.448.098-.915.294-1.4.205-.495.401-.882.588-1.162.196-.289.462-.649.798-1.078l2.24-2.94h1.89l-2.114 2.758-.616.532v.07l.28-.098c.28-.075.583-.112.91-.112.914 0 1.689.331 2.324.994.644.653.966 1.465.966 2.436 0 .989-.355 1.82-1.064 2.492-.71.672-1.615 1.008-2.716 1.008-1.102 0-2.007-.336-2.716-1.008-.71-.672-1.064-1.503-1.064-2.492Zm2.254-1.456c-.383.373-.574.859-.574 1.456s.191 1.087.574 1.47c.382.373.891.56 1.526.56.634 0 1.143-.187 1.526-.56.382-.383.574-.873.574-1.47s-.192-1.083-.574-1.456c-.383-.383-.892-.574-1.526-.574-.635 0-1.144.191-1.526.574Zm279.405 2.716v-1.54l3.29-6.3h1.75l-3.29 6.3h3.22v-2.38h1.61v2.38h1.4v1.54h-1.4V352h-1.61v-1.96h-4.97Zm8.539 1.19c0-.28.089-.513.266-.7a.933.933 0 0 1 .686-.28c.308 0 .551.112.728.336.187.224.28.555.28.994 0 .719-.172 1.269-.518 1.652-.336.392-.793.588-1.372.588v-.7c.28 0 .5-.079.658-.238a.765.765 0 0 0 .252-.602v-.084c-.009-.009-.014-.028-.014-.056v-.042l-.084.028a.738.738 0 0 1-.182.014c-.186 0-.35-.084-.49-.252-.14-.168-.21-.387-.21-.658Zm2.657-7.49v-1.54h6.65v1.54l-3.92 8.26h-1.75l3.85-8.12v-.14h-4.83Zm7.145 5.04c0-.448.098-.915.294-1.4.205-.495.401-.882.588-1.162.196-.289.462-.649.798-1.078l2.24-2.94h1.89l-2.114 2.758-.616.532v.07l.28-.098c.28-.075.583-.112.91-.112.914 0 1.689.331 2.324.994.644.653.966 1.465.966 2.436 0 .989-.355 1.82-1.064 2.492-.71.672-1.615 1.008-2.716 1.008-1.102 0-2.007-.336-2.716-1.008-.71-.672-1.064-1.503-1.064-2.492Zm2.254-1.456c-.383.373-.574.859-.574 1.456s.191 1.087.574 1.47c.382.373.891.56 1.526.56.634 0 1.143-.187 1.526-.56.382-.383.574-.873.574-1.47s-.192-1.083-.574-1.456c-.383-.383-.892-.574-1.526-.574-.635 0-1.144.191-1.526.574Zm15.927-98.646c0-.849.327-1.526.98-2.03a3.16 3.16 0 0 1 .98-.448v-.084a2.568 2.568 0 0 1-.77-.462c-.513-.439-.77-1.017-.77-1.736 0-.737.313-1.363.938-1.876.635-.523 1.489-.784 2.562-.784 1.073 0 1.923.261 2.548.784.635.513.952 1.139.952 1.876 0 .7-.257 1.279-.77 1.736-.243.196-.499.35-.77.462v.084c.355.093.681.247.98.462.653.504.98 1.176.98 2.016 0 .812-.355 1.507-1.064 2.086-.7.569-1.652.854-2.856.854s-2.161-.285-2.87-.854c-.7-.579-1.05-1.274-1.05-2.086Zm2.1-4.62c0 .411.159.747.476 1.008.317.261.765.392 1.344.392.579 0 1.027-.131 1.344-.392.317-.261.476-.597.476-1.008 0-.373-.163-.686-.49-.938-.317-.261-.761-.392-1.33-.392-.569 0-1.017.131-1.344.392-.317.252-.476.565-.476.938Zm.168 3.346c-.392.308-.588.686-.588 1.134 0 .448.196.831.588 1.148.401.308.952.462 1.652.462s1.246-.154 1.638-.462c.401-.317.602-.7.602-1.148 0-.448-.201-.826-.602-1.134-.392-.317-.938-.476-1.638-.476s-1.251.159-1.652.476Zm6.687 3.164c0-.28.089-.513.266-.7a.932.932 0 0 1 .686-.28c.308 0 .551.112.728.336.187.224.28.555.28.994 0 .719-.173 1.269-.518 1.652-.336.392-.793.588-1.372.588v-.7c.28 0 .499-.079.658-.238a.765.765 0 0 0 .252-.602v-.084c-.009-.009-.014-.028-.014-.056v-.042l-.084.028a.743.743 0 0 1-.182.014c-.187 0-.35-.084-.49-.252-.14-.168-.21-.387-.21-.658Zm3.076-5.81c0-.989.355-1.82 1.064-2.492.709-.672 1.615-1.008 2.716-1.008 1.101 0 2.007.336 2.716 1.008.709.672 1.064 1.503 1.064 2.492 0 .887-.369 1.843-1.106 2.87l-.308.42a13.42 13.42 0 0 0-.266.35l-2.24 2.94h-1.89l2.114-2.758.616-.532v-.07a7.65 7.65 0 0 1-.28.112 3.583 3.583 0 0 1-.91.098 3.163 3.163 0 0 1-2.338-.98c-.635-.663-.952-1.479-.952-2.45Zm2.254-1.456c-.383.373-.574.859-.574 1.456s.191 1.087.574 1.47c.383.373.891.56 1.526.56s1.143-.187 1.526-.56c.383-.383.574-.873.574-1.47s-.191-1.083-.574-1.456c-.383-.383-.891-.574-1.526-.574s-1.143.191-1.526.574Zm6.359 5.306h1.68c.075.289.201.537.378.742.411.485 1.008.728 1.792.728.626 0 1.12-.168 1.484-.504.364-.336.546-.775.546-1.316 0-.569-.182-1.027-.546-1.372-.364-.345-.858-.518-1.484-.518-.578 0-1.068.154-1.47.462a1.958 1.958 0 0 0-.42.448h-1.54l.42-5.74h5.95v1.54h-4.62l-.21 2.52h.07c.15-.149.322-.275.518-.378.439-.261.966-.392 1.582-.392.98 0 1.797.327 2.45.98.654.653.98 1.47.98 2.45 0 .961-.345 1.764-1.036 2.408-.681.635-1.572.952-2.674.952-1.437 0-2.506-.499-3.206-1.498a4.436 4.436 0 0 1-.644-1.512ZM363.912 74.41h1.68c.066.289.192.546.378.77.42.513 1.018.77 1.792.77.644 0 1.153-.159 1.526-.476.383-.327.574-.728.574-1.204 0-.542-.172-.966-.518-1.274-.336-.318-.816-.476-1.442-.476h-2.38v-1.4l2.94-2.1v-.07h-4.06v-1.54h6.44v1.526l-2.52 1.834-.7.28v.07l.224-.028c.308-.028.49-.042.546-.042.878 0 1.61.303 2.198.91.588.606.882 1.376.882 2.31 0 .896-.345 1.656-1.036 2.282-.69.625-1.582.938-2.674.938-1.446 0-2.515-.514-3.206-1.54a4.422 4.422 0 0 1-.644-1.54Zm8.617 2.03c0-.28.088-.514.266-.7a.932.932 0 0 1 .686-.28c.308 0 .55.112.728.336.186.224.28.555.28.994 0 .718-.173 1.27-.518 1.652-.336.392-.794.588-1.372.588v-.7c.28 0 .499-.08.658-.238a.765.765 0 0 0 .252-.602v-.084c-.01-.01-.014-.028-.014-.056v-.042l-.084.028a.723.723 0 0 1-.182.014c-.187 0-.35-.084-.49-.252-.14-.168-.21-.388-.21-.658Zm2.936.77v-1.54l3.346-2.366c.728-.523 1.251-1.008 1.568-1.456.317-.448.476-.924.476-1.428 0-.532-.163-.957-.49-1.274-.327-.318-.77-.476-1.33-.476-.691 0-1.209.28-1.554.84a2.845 2.845 0 0 0-.336.84h-1.68a4.33 4.33 0 0 1 .546-1.61c.663-1.074 1.671-1.61 3.024-1.61 1.036 0 1.876.308 2.52.924.653.606.98 1.372.98 2.296a3.95 3.95 0 0 1-.616 2.17c-.411.634-1.069 1.264-1.974 1.89l-1.4.98-.63.28v.07l.84-.07h3.78v1.54h-7.07Zm7.843-1.96v-1.54l3.29-6.3h1.75l-3.29 6.3h3.22v-2.38h1.61v2.38h1.4v1.54h-1.4v1.96h-1.61v-1.96h-4.97Zm-171.827-4.62v-1.82l1.82-1.4h1.47v9.8h-1.61v-7.84l-1.68 1.26Zm4.621 0v-1.82l1.82-1.4h1.47v9.8h-1.61v-7.84l-1.68 1.26Zm4.831 5.81c0-.28.089-.514.266-.7a.933.933 0 0 1 .686-.28c.308 0 .551.112.728.336.187.224.28.555.28.994 0 .718-.173 1.27-.518 1.652-.336.392-.793.588-1.372.588v-.7c.28 0 .499-.08.658-.238a.765.765 0 0 0 .252-.602v-.084c-.009-.01-.014-.028-.014-.056v-.042l-.084.028a.723.723 0 0 1-.182.014c-.187 0-.35-.084-.49-.252-.14-.168-.21-.388-.21-.658Zm4.476-.406c-.886-.97-1.33-2.212-1.33-3.724s.444-2.754 1.33-3.724c.887-.971 1.96-1.456 3.22-1.456 1.26 0 2.334.485 3.22 1.456.887.97 1.33 2.212 1.33 3.724s-.443 2.753-1.33 3.724c-.886.97-1.96 1.456-3.22 1.456-1.26 0-2.333-.486-3.22-1.456Zm1.148-6.412c-.532.634-.798 1.53-.798 2.688 0 1.157.266 2.053.798 2.688.542.634 1.232.952 2.072.952.84 0 1.526-.318 2.058-.952.542-.635.812-1.531.812-2.688 0-1.158-.27-2.054-.812-2.688-.532-.635-1.218-.952-2.058-.952-.84 0-1.53.317-2.072.952Zm7.466 5.628v-1.54l3.289-6.3h1.751l-3.29 6.3h3.22v-2.38h1.61v2.38h1.4v1.54h-1.4v1.96h-1.61v-1.96h-4.97Z" fill="#333"/><path fill="#FDFF9F" d="M112.096 119.713V34.826h-95.77v84.887z"/><path fill="#5A5A5A" d="M56.592 318.872v-29.384H15.237v29.384z"/><path d="m324.624 318.622-124.056-.149-.049-11.105h124.105v11.254Zm127.311 0-124.057-.148-.049-11.105h124.106v11.253Zm-127.311-17.631-124.056-.148-.049-11.105h124.105v11.253Zm127.311 0-124.057-.148-.049-11.105h124.106v11.253Z" stroke="#5A5A5A" stroke-width=".5" stroke-miterlimit="10"/><path d="M63.681 75.568h1.68c.075.29.2.537.378.742.41.485 1.008.728 1.792.728.625 0 1.12-.168 1.484-.504.364-.336.546-.775.546-1.316 0-.57-.182-1.027-.546-1.372-.364-.345-.859-.518-1.484-.518-.579 0-1.069.154-1.47.462-.159.121-.299.27-.42.448h-1.54l.42-5.74h5.95v1.54h-4.62l-.21 2.52h.07c.15-.15.322-.275.518-.378.439-.261.966-.392 1.582-.392.98 0 1.797.327 2.45.98.653.653.98 1.47.98 2.45 0 .961-.345 1.764-1.036 2.408-.681.635-1.573.952-2.674.952-1.437 0-2.506-.5-3.206-1.498a4.412 4.412 0 0 1-.644-1.512Zm8.613 1.96c0-.28.089-.513.266-.7a.933.933 0 0 1 .686-.28c.308 0 .551.112.728.336.187.224.28.555.28.994 0 .719-.172 1.27-.518 1.652-.336.392-.793.588-1.372.588v-.7c.28 0 .5-.08.658-.238a.765.765 0 0 0 .252-.602v-.084c-.009-.01-.014-.028-.014-.056v-.042l-.084.028a.726.726 0 0 1-.182.014c-.186 0-.35-.084-.49-.252-.14-.168-.21-.387-.21-.658Zm2.937.77v-1.54l3.346-2.366c.728-.523 1.25-1.008 1.567-1.456.318-.448.477-.924.477-1.428 0-.532-.164-.957-.49-1.274-.327-.317-.77-.476-1.33-.476-.691 0-1.21.28-1.555.84a2.85 2.85 0 0 0-.335.84h-1.68a4.33 4.33 0 0 1 .546-1.61c.662-1.073 1.67-1.61 3.023-1.61 1.037 0 1.877.308 2.52.924.654.607.98 1.372.98 2.296a3.95 3.95 0 0 1-.615 2.17c-.411.635-1.07 1.265-1.975 1.89l-1.4.98-.63.28v.07l.84-.07h3.78v1.54h-7.07Zm7.982-6.58v-1.82l1.82-1.4h1.47v9.8h-1.61v-7.84l-1.68 1.26Z" fill="#333"/><path fill="#5A5A5A" d="M16.324 23.943H0v294.929h16.325z"/><path fill="#5A5A5A" d="M14.148 119.713v7.618h103.39v-7.618zm98.317-10.876.005 7.618 61.66-.042-.005-7.618zm174.129 0 .005 7.618 194.06-.134-.005-7.618zM119.713 32.649h-7.618v39.179h7.618zm236.162-9.795h-7.618v30.472h7.618z"/><path fill="#5A5A5A" d="M119.713 99.035h-7.618v28.296h7.618z"/><path stroke="#5A5A5A" d="m131.049 73.127-14.148 30.472m233.986-53.327-14.148 30.473M255.124.418l34.825 22.854"/><path fill="#5A5A5A" d="M355.875 83.8h-7.618v28.295h7.618zM252.486 37.002V20.677H0v16.325z"/><path d="m96.98 55.115-.016-1.167.017-3.032v-7.508h-9.848v11.707c0 2.984 2.22 5.416 4.94 5.416 2.689 0 4.908-2.432 4.908-5.416Z" fill="#fff" stroke="#5A5A5A" stroke-width=".5"/><path d="M95.848 55.05v-8.399h-7.596v7.475l.016.924c0 2.351 1.684 4.265 3.79 4.265 2.09-.017 3.79-1.93 3.79-4.265ZM85.352 37.117v5.205c0 .6.486 1.086 1.085 1.086h11.16c.599 0 1.085-.486 1.085-1.086v-5.205c0-.6-.486-1.086-1.085-1.086H86.454a1.09 1.09 0 0 0-1.102 1.086Z" fill="#fff" stroke="#5A5A5A" stroke-width=".5"/><path d="M91.377 39.711c0 .406.291.714.631.714.357.016.648-.308.648-.714 0-.405-.291-.713-.631-.713a.676.676 0 0 0-.648.713Zm-38.53-2.228v12.172c0 .847.677 1.524 1.522 1.524h18.315c.845 0 1.521-.677 1.521-1.524V37.483c0-.846-.676-1.523-1.521-1.523H54.369c-.831 0-1.522.677-1.522 1.523Z" fill="#fff" stroke="#5A5A5A" stroke-width=".5"/><path d="M54.749 42.124V44c0 2.468 2 4.47 4.466 4.47h8.622A4.47 4.47 0 0 0 72.303 44v-1.876c0-2.468-2-4.471-4.466-4.471h-8.622a4.47 4.47 0 0 0-4.466 4.47Z" fill="#fff" stroke="#5A5A5A" stroke-width=".5"/><path d="M62.583 40.036c0 .538.423.974.944.974.521 0 .944-.436.944-.974 0-.537-.423-.973-.944-.973-.521 0-.944.436-.944.973ZM96.98 55.115l-.016-1.167.017-3.032v-7.508h-9.848v11.707c0 2.984 2.22 5.416 4.94 5.416 2.689 0 4.908-2.432 4.908-5.416Z" fill="#fff" stroke="#5A5A5A" stroke-width=".5"/><path d="M95.848 55.05v-8.399h-7.596v7.475l.016.924c0 2.351 1.684 4.265 3.79 4.265 2.09-.017 3.79-1.93 3.79-4.265ZM85.352 37.117v5.205c0 .6.486 1.086 1.085 1.086h11.16c.599 0 1.085-.486 1.085-1.086v-5.205c0-.6-.486-1.086-1.085-1.086H86.454a1.09 1.09 0 0 0-1.102 1.086Z" fill="#fff" stroke="#5A5A5A" stroke-width=".5"/><path d="M91.377 39.711c0 .406.291.714.631.714.357.016.648-.308.648-.714 0-.405-.291-.713-.631-.713a.676.676 0 0 0-.648.713Zm-38.53-2.228v12.172c0 .847.677 1.524 1.522 1.524h18.315c.845 0 1.521-.677 1.521-1.524V37.483c0-.846-.676-1.523-1.521-1.523H54.369c-.831 0-1.522.677-1.522 1.523Z" fill="#fff" stroke="#5A5A5A" stroke-width=".5"/><path d="M54.749 42.124V44c0 2.468 2 4.47 4.466 4.47h8.622A4.47 4.47 0 0 0 72.303 44v-1.876c0-2.468-2-4.471-4.466-4.471h-8.622a4.47 4.47 0 0 0-4.466 4.47Z" fill="#fff" stroke="#5A5A5A" stroke-width=".5"/><path d="M62.583 40.036c0 .538.423.974.944.974.521 0 .944-.436.944-.974 0-.537-.423-.973-.944-.973-.521 0-.944.436-.944.973Zm-14.698-2.48v71.238c0 .912-.729 1.642-1.64 1.642h-28.28c-.912 0-1.64-.73-1.64-1.642V37.556c0-.912.728-1.642 1.64-1.642h28.28c.911 0 1.64.746 1.64 1.642Z" fill="#fff" stroke="#5A5A5A" stroke-width=".5"/><path d="M35.94 106.057h-7.687c-4.457 0-8.052-3.616-8.052-8.061V41.901c0-1.094.878-1.974 1.972-1.974h19.88c1.094 0 1.972.88 1.972 1.974V97.98c-.017 4.462-3.628 8.078-8.085 8.078Z" fill="#fff" stroke="#5A5A5A" stroke-width=".5"/><path d="M32.66 46.578c.887 0 1.607-.75 1.607-1.675s-.72-1.675-1.607-1.675c-.888 0-1.607.75-1.607 1.675 0 .926.72 1.675 1.607 1.675Zm58.758 73.806h20.678l.013-20.282-20.678.013-.013 20.269Z" fill="#fff" stroke="#5A5A5A" stroke-width=".5"/><path d="M101.771 105.041c2.926 0 5.288 2.325 5.288 5.202s-2.362 5.202-5.301 5.202c-2.926 0-5.314-2.325-5.314-5.202.013-2.877 2.4-5.202 5.327-5.202Z" stroke="#5A5A5A" stroke-width=".5"/><path d="M97.9 110.243a3.64 3.64 0 0 1 1.128-2.68 4.007 4.007 0 0 1 2.729-1.116m3.884 3.783a3.786 3.786 0 0 0-1.129-2.68 3.93 3.93 0 0 0-2.742-1.116l3.871 3.796Zm-7.742.013c0 1.038.433 1.984 1.129 2.68a3.945 3.945 0 0 0 2.742 1.103l-3.87-3.783Zm7.742-.013c0 1.064-.433 2.01-1.129 2.68l-.013.013a3.913 3.913 0 0 1-2.716 1.103l3.858-3.796Z" stroke="#5A5A5A" stroke-width=".5"/><path fill="#5A5A5A" d="M432.055 37.002V20.677H287.311v16.325z"/><path fill="#5A5A5A" d="M423.35 114.271h16.325V19.589H423.35z"/><path fill="#5A5A5A" d="M493 114.271V97.946h-69.651v16.325z"/><path fill="#5A5A5A" d="M476.676 316.695h16.325V96.858h-16.325zM207 319v-30h-62v30z"/><path d="m164.75 375.213-121.823-.068-.046-4.873H164.75v4.941Z" stroke="#5A5A5A" stroke-width=".5" stroke-miterlimit="10"/><path fill="#5A5A5A" d="M168.4 375.464h5.441V294.93H168.4zm-137.742 0H36.1V294.93h-5.44z"/><path fill="#5A5A5A" d="M168 375v-5H33v5z"/><path fill="#5A5A5A" d="M173.84 375.464v-5.441h-13.06v5.441z"/><path d="m151.209 302.798-65.86.068-.026 4.873h65.886v-4.941Zm0 10.883-65.86.068-.026 4.873h65.886v-4.941Z" stroke="#5A5A5A" stroke-width=".5" stroke-miterlimit="10"/><path stroke="#5A5A5A" d="m55.433 306.471 29.384-17.413"/><path d="m459.75 375.213-121.823-.068-.046-4.873H459.75v4.941Z" stroke="#5A5A5A" stroke-width=".5" stroke-miterlimit="10"/><path fill="#5A5A5A" d="M463.4 375.464h5.441V294.93H463.4zm-137.742 0h5.441V294.93h-5.441z"/><path fill="#5A5A5A" d="M463 375v-5H328v5z"/><path fill="#5A5A5A" d="M468.84 375.464v-5.441h-13.06v5.441z"/><path d="m446.209 302.798-65.861.068-.024 4.873h65.885v-4.941Zm0 10.883-65.861.068-.024 4.873h65.885v-4.941Z" stroke="#5A5A5A" stroke-width=".5" stroke-miterlimit="10"/><path stroke="#5A5A5A" d="m350.433 306.471 29.384-17.413"/><path fill="#5A5A5A" d="M351 319v-30h-83v30zm142 0v-30h-53v30z"/><path d="m403.734 51.763 1.167.016 3.033-.017h7.507v9.848h-11.707c-2.983 0-5.416-2.22-5.416-4.94 0-2.689 2.433-4.907 5.416-4.907Z" fill="#fff" stroke="#5A5A5A" stroke-width=".5"/><path d="M403.8 52.896h8.399v7.596h-7.475l-.924-.016c-2.352 0-4.265-1.685-4.265-3.79.016-2.09 1.93-3.79 4.265-3.79Zm17.933 10.495h-5.205c-.6 0-1.087-.486-1.087-1.085v-11.16c0-.598.487-1.084 1.087-1.084h5.205c.6 0 1.086.486 1.086 1.085V62.29c0 .615-.486 1.101-1.086 1.101Z" fill="#fff" stroke="#5A5A5A" stroke-width=".5"/><path d="M419.138 57.366c-.406 0-.714-.291-.714-.632-.016-.356.308-.647.714-.647.405 0 .713.291.713.631a.675.675 0 0 1-.713.648Zm2.227 38.529h-12.172a1.516 1.516 0 0 1-1.523-1.521V76.059c0-.845.677-1.521 1.523-1.521h12.172c.847 0 1.524.676 1.524 1.521v18.315c0 .83-.677 1.521-1.524 1.521Z" fill="#fff" stroke="#5A5A5A" stroke-width=".5"/><path d="M416.724 93.993h-1.876a4.47 4.47 0 0 1-4.471-4.465v-8.622a4.47 4.47 0 0 1 4.471-4.466h1.876c2.469 0 4.471 2 4.471 4.466v8.621a4.47 4.47 0 0 1-4.471 4.466Z" fill="#fff" stroke="#5A5A5A" stroke-width=".5"/><path d="M418.812 86.16c-.537 0-.973-.422-.973-.943 0-.522.436-.944.973-.944.537 0 .973.422.973.944 0 .52-.436.943-.973.943Z" fill="#fff" stroke="#5A5A5A" stroke-width=".5"/><path d="m170.025 116.198 44.709-.027.014-1.649h-44.723v1.676Zm74.488 0 44.709-.027.014-1.649h-44.723v1.676Zm-37.244 2.177 44.709-.028.014-1.649h-44.723v1.677Z" stroke="#5A5A5A" stroke-width=".5" stroke-miterlimit="10"/><path fill="#5A5A5A" d="M399.625 113.95h1.972v5.915h-1.972zm.002 10.844h1.972v10.844h-1.972zm0 16.759h1.972v10.844h-1.972zm0 16.759h1.972v10.844h-1.972zm0 16.759h1.972v10.844h-1.972zm0 16.759h1.972v10.844h-1.972zm0 19.716h1.972v10.844h-1.972zm0 18.052h1.972v10.844h-1.972zm0 17.413h1.972v10.844h-1.972zm0 17.413h1.972v10.844h-1.972zm-.221 17.446h2.177v7.618h-2.177z"/></svg>