<svg width="351" height="519" fill="none" xmlns="http://www.w3.org/2000/svg"><path fill="#FFF8BA" d="M84 351h223V16H84z"/><path d="M306.995 40.325H282V16h24.995v24.325Z" fill="#fff" stroke="#5A5A5A" stroke-width=".5"/><path d="M284.027 39.398h19.453c.738 0 1.13-.392 1.13-1.162V18.09c0-.785-.376-1.162-1.13-1.162h-19.453c-.754-.016-1.131.377-1.131 1.146v20.148c-.015.785.377 1.177 1.131 1.177Z" fill="#fff" stroke="#5A5A5A" stroke-width=".5"/><path d="M285.815 32.897c.016-1.79 1.429-3.25 3.172-3.25 1.758 0 3.171 1.46 3.171 3.25 0 1.806-1.413 3.25-3.171 3.25-1.759 0-3.172-1.444-3.172-3.25Zm.031-9.626c.016-1.79 1.429-3.25 3.171-3.25 1.759 0 3.172 1.46 3.172 3.25 0 1.806-1.413 3.25-3.172 3.25-1.758.016-3.187-1.444-3.171-3.25Zm9.014 0c0-1.806 1.413-3.25 3.171-3.25 1.759 0 3.172 1.46 3.172 3.25-.016 1.79-1.429 3.25-3.172 3.25-1.742 0-3.171-1.46-3.171-3.25Zm0 9.626c0-1.806 1.413-3.25 3.171-3.25 1.759 0 3.172 1.46 3.172 3.25-.016 1.79-1.429 3.25-3.172 3.25-1.742 0-3.171-1.46-3.171-3.25Z" stroke="#5A5A5A" stroke-width=".5"/><path d="M283.015 73h24.089v23.699H283L283.015 73Z" fill="#fff" stroke="#5A5A5A" stroke-width=".5"/><path d="M289.621 74.803h13.317c.742 0 1.106.364 1.106 1.121v17.608c0 .727-.364 1.106-1.091 1.121l-13.332-.015c-.727.015-1.091-.364-1.091-1.106V75.924c-.03-.742.349-1.12 1.091-1.12Z" fill="#fff" stroke="#5A5A5A" stroke-width=".5"/><path d="M284.864 84.728c.015.925.712 1.667 1.591 1.667l6.984-.651.015-.016c.53 0 .954-.44.954-1s-.424-1-.969-1.015l-6.984-.652c-.864 0-1.576.743-1.591 1.667Z" stroke="#5A5A5A" stroke-width=".5"/><mask id="a" fill="#fff"><path fill-rule="evenodd" clip-rule="evenodd" d="m285.546 86.107 3.803-.363a.988.988 0 0 0 .954-1.03.98.98 0 0 0-.954-1l-3.803-.364"/></mask><path fill-rule="evenodd" clip-rule="evenodd" d="m285.546 86.107 3.803-.363a.988.988 0 0 0 .954-1.03.98.98 0 0 0-.954-1l-3.803-.364" fill="#fff"/><path d="m289.349 85.744-.015-.5h-.016l-.017.002.048.498Zm.954-1.03h-.5v.012l.5-.013Zm-.954-1-.048.497.017.002h.016l.015-.5Zm-3.756 2.891 3.803-.364-.095-.995-3.803.364.095.995Zm3.77-.362a1.488 1.488 0 0 0 1.44-1.543l-1 .026c.008.3-.213.51-.469.518l.029 1Zm1.44-1.53a1.48 1.48 0 0 0-1.44-1.5l-.029 1a.48.48 0 0 1 .469.5h1Zm-1.407-1.498-3.803-.363-.095.995 3.803.364.095-.996Z" fill="#5A5A5A" mask="url(#a)"/><path d="M335 202v152l-70-2.413V202h70Z" fill="#FFC79F"/><path d="m315.477 267.265 1.18.017 3.066-.017h7.591v9.957h-11.837c-3.017 0-5.477-2.243-5.477-4.995 0-2.718 2.46-4.962 5.477-4.962Z" fill="#fff" stroke="#5A5A5A" stroke-width=".5"/><path d="M315.542 268.411h8.493v7.681h-7.558l-.935-.016c-2.377 0-4.312-1.703-4.312-3.832.016-2.113 1.951-3.833 4.312-3.833Zm18.134 10.613h-5.263a1.099 1.099 0 0 1-1.099-1.097v-11.284c0-.606.492-1.098 1.099-1.098h5.263c.607 0 1.099.492 1.099 1.098v11.267c0 .622-.492 1.114-1.099 1.114Z" fill="#fff" stroke="#5A5A5A" stroke-width=".5"/><path d="M331.053 272.932c-.41 0-.722-.295-.722-.639-.016-.36.312-.655.722-.655.409 0 .721.295.721.639a.684.684 0 0 1-.721.655Zm2.252 36.758h-12.308c-.855 0-1.54-.683-1.54-1.538v-18.519c0-.855.685-1.539 1.54-1.539h12.308c.856 0 1.541.684 1.541 1.539v18.519c0 .84-.685 1.538-1.541 1.538Z" fill="#fff" stroke="#5A5A5A" stroke-width=".5"/><path d="M328.613 307.767h-1.897a4.52 4.52 0 0 1-4.521-4.516v-8.718a4.52 4.52 0 0 1 4.521-4.516h1.897a4.52 4.52 0 0 1 4.521 4.516v8.718a4.52 4.52 0 0 1-4.521 4.516Z" fill="#fff" stroke="#5A5A5A" stroke-width=".5"/><path d="M330.724 299.847c-.543 0-.984-.427-.984-.954 0-.527.441-.955.984-.955.543 0 .984.428.984.955 0 .527-.441.954-.984.954Zm2.783 24.542h-60.121a1.38 1.38 0 0 0-1.386 1.384v23.867a1.38 1.38 0 0 0 1.386 1.384h60.121a1.38 1.38 0 0 0 1.386-1.384v-23.867c0-.769-.63-1.384-1.386-1.384Z" fill="#fff" stroke="#5A5A5A" stroke-width=".5"/><path d="M275.696 334.47v6.488c0 3.761 3.052 6.795 6.803 6.795h47.341a1.66 1.66 0 0 0 1.665-1.664v-16.778a1.66 1.66 0 0 0-1.665-1.664h-47.327c-3.765.014-6.817 3.062-6.817 6.823Z" fill="#fff" stroke="#5A5A5A" stroke-width=".5"/><path d="M325.892 337.238c0-.749.633-1.356 1.414-1.356.781 0 1.414.607 1.414 1.356 0 .749-.633 1.356-1.414 1.356-.781 0-1.414-.607-1.414-1.356ZM265 274.024v-22.01l21.588-.014-.014 22.01-21.574.014Z" fill="#fff" stroke="#5A5A5A" stroke-width=".5"/><path d="M281.331 263.005c0-3.114-2.475-5.628-5.537-5.628s-5.536 2.514-5.536 5.642c0 3.114 2.474 5.656 5.536 5.656 3.062-.014 5.537-2.556 5.537-5.67Z" stroke="#5A5A5A" stroke-width=".5"/><path d="M275.794 267.125a3.872 3.872 0 0 0 2.852-1.201 4.267 4.267 0 0 0 1.189-2.905m-4.027-4.134c1.105 0 2.111.461 2.852 1.201a4.187 4.187 0 0 1 1.189 2.919l-4.041-4.12Zm-.014 8.24a4.031 4.031 0 0 1-2.852-1.201 4.2 4.2 0 0 1-1.175-2.919l4.027 4.12Zm.014-8.24a3.934 3.934 0 0 0-2.852 1.201l-.014.014a4.168 4.168 0 0 0-1.175 2.891l4.041-4.106Z" stroke="#5A5A5A" stroke-width=".5"/><path d="m316.298 226.759 1.181-.017 3.066.017h7.591v-9.958h-11.838c-3.016 0-5.476 2.244-5.476 4.995 0 2.719 2.46 4.963 5.476 4.963Z" fill="#fff" stroke="#5A5A5A" stroke-width=".5"/><path d="M316.364 225.612h8.493v-7.68h-7.559l-.934.016c-2.378 0-4.312 1.703-4.312 3.832.016 2.113 1.951 3.832 4.312 3.832ZM334.498 215h-5.263c-.607 0-1.099.491-1.099 1.097v11.284c0 .606.492 1.097 1.099 1.097h5.263c.606 0 1.098-.491 1.098-1.097v-11.267c0-.623-.492-1.114-1.098-1.114Z" fill="#fff" stroke="#5A5A5A" stroke-width=".5"/><path d="M331.874 221.092c-.41 0-.721.295-.721.639-.016.36.311.655.721.655s.722-.295.722-.639a.685.685 0 0 0-.722-.655Zm-25.278 22.756V231.54c0-.855-.683-1.54-1.538-1.54h-18.519c-.855 0-1.539.685-1.539 1.54v12.308c0 .856.684 1.541 1.539 1.541h18.519c.84 0 1.538-.685 1.538-1.541Z" fill="#fff" stroke="#5A5A5A" stroke-width=".5"/><path d="M304.673 239.156v-1.896a4.52 4.52 0 0 0-4.515-4.522h-8.719a4.52 4.52 0 0 0-4.516 4.522v1.896a4.52 4.52 0 0 0 4.516 4.521h8.719a4.519 4.519 0 0 0 4.515-4.521Z" fill="#fff" stroke="#5A5A5A" stroke-width=".5"/><path d="M296.753 241.267c0-.543-.427-.984-.954-.984-.527 0-.955.441-.955.984 0 .544.428.984.955.984.527 0 .954-.44.954-.984Z" fill="#fff" stroke="#5A5A5A" stroke-width=".5"/><path fill="#FFF8BA" d="M84 489h111V16H84z"/><path d="M113.35 417.42v-1.82l1.82-1.4h1.47v9.8h-1.61v-7.84l-1.68 1.26Zm4.761 3.36c0-.448.098-.915.294-1.4.205-.495.401-.882.588-1.162.196-.289.462-.649.798-1.078l2.24-2.94h1.89l-2.114 2.758-.616.532v.07l.28-.098c.28-.075.583-.112.91-.112.915 0 1.689.331 2.324.994.644.653.966 1.465.966 2.436 0 .989-.355 1.82-1.064 2.492-.709.672-1.615 1.008-2.716 1.008-1.101 0-2.007-.336-2.716-1.008-.709-.672-1.064-1.503-1.064-2.492Zm2.254-1.456c-.383.373-.574.859-.574 1.456s.191 1.087.574 1.47c.383.373.891.56 1.526.56s1.143-.187 1.526-.56c.383-.383.574-.873.574-1.47s-.191-1.083-.574-1.456c-.383-.383-.891-.574-1.526-.574s-1.143.191-1.526.574Zm6.429 3.906c0-.28.089-.513.266-.7a.933.933 0 0 1 .686-.28c.308 0 .551.112.728.336.187.224.28.555.28.994 0 .719-.172 1.269-.518 1.652-.336.392-.793.588-1.372.588v-.7c.28 0 .5-.079.658-.238a.765.765 0 0 0 .252-.602v-.084c-.009-.009-.014-.028-.014-.056v-.042l-.084.028a.738.738 0 0 1-.182.014c-.186 0-.35-.084-.49-.252-.14-.168-.21-.387-.21-.658Zm3.007-2.45c0-.448.098-.915.294-1.4.205-.495.401-.882.588-1.162.196-.289.462-.649.798-1.078l2.24-2.94h1.89l-2.114 2.758-.616.532v.07l.28-.098c.28-.075.583-.112.91-.112.914 0 1.689.331 2.324.994.644.653.966 1.465.966 2.436 0 .989-.355 1.82-1.064 2.492-.71.672-1.615 1.008-2.716 1.008-1.102 0-2.007-.336-2.716-1.008-.71-.672-1.064-1.503-1.064-2.492Zm2.254-1.456c-.383.373-.574.859-.574 1.456s.191 1.087.574 1.47c.382.373.891.56 1.526.56.634 0 1.143-.187 1.526-.56.382-.383.574-.873.574-1.47s-.192-1.083-.574-1.456c-.383-.383-.892-.574-1.526-.574-.635 0-1.144.191-1.526.574Zm5.312-3.584v-1.54h6.65v1.54l-3.92 8.26h-1.75l3.85-8.12v-.14h-4.83ZM121.42 241.2h1.68c.065.289.191.546.378.77.42.513 1.017.77 1.792.77.644 0 1.153-.159 1.526-.476.383-.327.574-.728.574-1.204 0-.541-.173-.966-.518-1.274-.336-.317-.817-.476-1.442-.476h-2.38v-1.4l2.94-2.1v-.07h-4.06v-1.54h6.44v1.526l-2.52 1.834-.7.28v.07l.224-.028c.308-.028.49-.042.546-.042.877 0 1.61.303 2.198.91.588.607.882 1.377.882 2.31 0 .896-.345 1.657-1.036 2.282-.691.625-1.582.938-2.674.938-1.447 0-2.515-.513-3.206-1.54a4.406 4.406 0 0 1-.644-1.54Zm10.017 1.624c-.887-.971-1.33-2.212-1.33-3.724s.443-2.753 1.33-3.724c.886-.971 1.96-1.456 3.22-1.456 1.26 0 2.333.485 3.22 1.456.886.971 1.33 2.212 1.33 3.724s-.444 2.753-1.33 3.724c-.887.971-1.96 1.456-3.22 1.456-1.26 0-2.334-.485-3.22-1.456Zm1.148-6.412c-.532.635-.798 1.531-.798 2.688 0 1.157.266 2.053.798 2.688.541.635 1.232.952 2.072.952.84 0 1.526-.317 2.058-.952.541-.635.812-1.531.812-2.688 0-1.157-.271-2.053-.812-2.688-.532-.635-1.218-.952-2.058-.952-.84 0-1.531.317-2.072.952Zm7.815 6.818c0-.28.089-.513.266-.7a.932.932 0 0 1 .686-.28c.308 0 .551.112.728.336.187.224.28.555.28.994 0 .719-.173 1.269-.518 1.652-.336.392-.793.588-1.372.588v-.7c.28 0 .499-.079.658-.238a.765.765 0 0 0 .252-.602v-.084c-.009-.009-.014-.028-.014-.056v-.042l-.084.028a.743.743 0 0 1-.182.014c-.187 0-.35-.084-.49-.252-.14-.168-.21-.387-.21-.658Zm2.866-5.81v-1.82l1.82-1.4h1.47v9.8h-1.61v-7.84l-1.68 1.26Zm4.831 0c0-.989.355-1.82 1.064-2.492.709-.672 1.615-1.008 2.716-1.008 1.101 0 2.007.336 2.716 1.008.709.672 1.064 1.503 1.064 2.492 0 .887-.369 1.843-1.106 2.87l-.308.42a13.42 13.42 0 0 0-.266.35l-2.24 2.94h-1.89l2.114-2.758.616-.532v-.07a7.65 7.65 0 0 1-.28.112 3.583 3.583 0 0 1-.91.098 3.163 3.163 0 0 1-2.338-.98c-.635-.663-.952-1.479-.952-2.45Zm2.254-1.456c-.383.373-.574.859-.574 1.456s.191 1.087.574 1.47c.383.373.891.56 1.526.56s1.143-.187 1.526-.56c.383-.383.574-.873.574-1.47s-.191-1.083-.574-1.456c-.383-.383-.891-.574-1.526-.574s-1.143.191-1.526.574ZM18.42 389.2h1.68c.065.289.191.546.378.77.42.513 1.017.77 1.792.77.644 0 1.153-.159 1.526-.476.383-.327.574-.728.574-1.204 0-.541-.173-.966-.518-1.274-.336-.317-.817-.476-1.442-.476h-2.38v-1.4l2.94-2.1v-.07h-4.06v-1.54h6.44v1.526l-2.52 1.834-.7.28v.07l.224-.028c.308-.028.49-.042.546-.042.877 0 1.61.303 2.198.91.588.607.882 1.377.882 2.31 0 .896-.345 1.657-1.036 2.282-.69.625-1.582.938-2.674.938-1.447 0-2.515-.513-3.206-1.54a4.406 4.406 0 0 1-.644-1.54Zm8.617 2.03c0-.28.088-.513.266-.7a.931.931 0 0 1 .686-.28c.308 0 .55.112.728.336.186.224.28.555.28.994 0 .719-.173 1.269-.518 1.652-.336.392-.794.588-1.372.588v-.7c.28 0 .499-.079.658-.238a.765.765 0 0 0 .252-.602v-.084c-.01-.009-.014-.028-.014-.056v-.042l-.084.028a.742.742 0 0 1-.182.014c-.187 0-.35-.084-.49-.252-.14-.168-.21-.387-.21-.658Zm3.006-2.45c0-.448.098-.915.294-1.4.205-.495.401-.882.588-1.162.196-.289.462-.649.798-1.078l2.24-2.94h1.89l-2.114 2.758-.616.532v.07l.28-.098c.28-.075.583-.112.91-.112.914 0 1.69.331 2.324.994.644.653.966 1.465.966 2.436 0 .989-.355 1.82-1.064 2.492-.71.672-1.615 1.008-2.716 1.008-1.102 0-2.007-.336-2.716-1.008-.71-.672-1.064-1.503-1.064-2.492Zm2.254-1.456c-.383.373-.574.859-.574 1.456s.191 1.087.574 1.47c.382.373.891.56 1.526.56.634 0 1.143-.187 1.526-.56.382-.383.574-.873.574-1.47s-.192-1.083-.574-1.456c-.383-.383-.892-.574-1.526-.574-.635 0-1.144.191-1.526.574Zm6.359 1.456c0-.448.098-.915.294-1.4.205-.495.401-.882.588-1.162.196-.289.462-.649.798-1.078l2.24-2.94h1.89l-2.114 2.758-.616.532v.07l.28-.098c.28-.075.583-.112.91-.112.915 0 1.69.331 2.324.994.644.653.966 1.465.966 2.436 0 .989-.355 1.82-1.064 2.492-.71.672-1.615 1.008-2.716 1.008-1.101 0-2.007-.336-2.716-1.008-.71-.672-1.064-1.503-1.064-2.492Zm2.254-1.456c-.383.373-.574.859-.574 1.456s.191 1.087.574 1.47c.383.373.891.56 1.526.56s1.143-.187 1.526-.56c.383-.383.574-.873.574-1.47s-.191-1.083-.574-1.456c-.383-.383-.891-.574-1.526-.574s-1.143.191-1.526.574ZM217.35 256.42v-1.82l1.82-1.4h1.47v9.8h-1.61v-7.84l-1.68 1.26Zm4.621 0v-1.82l1.82-1.4h1.47v9.8h-1.61v-7.84l-1.68 1.26Zm4.831 5.81c0-.28.089-.513.266-.7a.933.933 0 0 1 .686-.28c.308 0 .551.112.728.336.187.224.28.555.28.994 0 .719-.172 1.269-.518 1.652-.336.392-.793.588-1.372.588v-.7c.28 0 .5-.079.658-.238a.765.765 0 0 0 .252-.602v-.084c-.009-.009-.014-.028-.014-.056v-.042l-.084.028a.738.738 0 0 1-.182.014c-.186 0-.35-.084-.49-.252-.14-.168-.21-.387-.21-.658Zm3.076-1.89c0-.849.327-1.526.98-2.03a3.16 3.16 0 0 1 .98-.448v-.084a2.568 2.568 0 0 1-.77-.462c-.513-.439-.77-1.017-.77-1.736 0-.737.313-1.363.938-1.876.635-.523 1.489-.784 2.562-.784 1.074 0 1.923.261 2.548.784.635.513.952 1.139.952 1.876 0 .7-.256 1.279-.77 1.736-.242.196-.499.35-.77.462v.084c.355.093.682.247.98.462.654.504.98 1.176.98 2.016 0 .812-.354 1.507-1.064 2.086-.7.569-1.652.854-2.856.854s-2.16-.285-2.87-.854c-.7-.579-1.05-1.274-1.05-2.086Zm2.1-4.62c0 .411.159.747.476 1.008.318.261.766.392 1.344.392.579 0 1.027-.131 1.344-.392.318-.261.476-.597.476-1.008 0-.373-.163-.686-.49-.938-.317-.261-.76-.392-1.33-.392-.569 0-1.017.131-1.344.392-.317.252-.476.565-.476.938Zm.168 3.346c-.392.308-.588.686-.588 1.134 0 .448.196.831.588 1.148.402.308.952.462 1.652.462s1.246-.154 1.638-.462c.402-.317.602-.7.602-1.148 0-.448-.2-.826-.602-1.134-.392-.317-.938-.476-1.638-.476s-1.25.159-1.652.476Zm6.687 1.274c0-.849.327-1.526.98-2.03a3.16 3.16 0 0 1 .98-.448v-.084a2.568 2.568 0 0 1-.77-.462c-.513-.439-.77-1.017-.77-1.736 0-.737.313-1.363.938-1.876.635-.523 1.489-.784 2.562-.784 1.074 0 1.923.261 2.548.784.635.513.952 1.139.952 1.876 0 .7-.256 1.279-.77 1.736-.242.196-.499.35-.77.462v.084c.355.093.682.247.98.462.654.504.98 1.176.98 2.016 0 .812-.354 1.507-1.064 2.086-.7.569-1.652.854-2.856.854s-2.16-.285-2.87-.854c-.7-.579-1.05-1.274-1.05-2.086Zm2.1-4.62c0 .411.159.747.476 1.008.318.261.766.392 1.344.392.579 0 1.027-.131 1.344-.392.318-.261.476-.597.476-1.008 0-.373-.163-.686-.49-.938-.317-.261-.76-.392-1.33-.392-.569 0-1.017.131-1.344.392-.317.252-.476.565-.476.938Zm.168 3.346c-.392.308-.588.686-.588 1.134 0 .448.196.831.588 1.148.402.308.952.462 1.652.462s1.246-.154 1.638-.462c.402-.317.602-.7.602-1.148 0-.448-.2-.826-.602-1.134-.392-.317-.938-.476-1.638-.476s-1.25.159-1.652.476Zm35.459 35.204h1.68c.075.289.201.537.378.742.411.485 1.008.728 1.792.728.625 0 1.12-.168 1.484-.504.364-.336.546-.775.546-1.316 0-.569-.182-1.027-.546-1.372-.364-.345-.859-.518-1.484-.518-.579 0-1.069.154-1.47.462a1.916 1.916 0 0 0-.42.448h-1.54l.42-5.74h5.95v1.54h-4.62l-.21 2.52h.07c.149-.149.322-.275.518-.378.439-.261.966-.392 1.582-.392.98 0 1.797.327 2.45.98.653.653.98 1.47.98 2.45 0 .961-.345 1.764-1.036 2.408-.681.635-1.573.952-2.674.952-1.437 0-2.506-.499-3.206-1.498a4.417 4.417 0 0 1-.644-1.512Zm8.613 1.96c0-.28.089-.513.266-.7a.933.933 0 0 1 .686-.28c.308 0 .551.112.728.336.187.224.28.555.28.994 0 .719-.172 1.269-.518 1.652-.336.392-.793.588-1.372.588v-.7c.28 0 .5-.079.658-.238a.765.765 0 0 0 .252-.602v-.084c-.009-.009-.014-.028-.014-.056v-.042l-.084.028a.738.738 0 0 1-.182.014c-.186 0-.35-.084-.49-.252-.14-.168-.21-.387-.21-.658Zm3.076-1.89c0-.849.327-1.526.98-2.03a3.16 3.16 0 0 1 .98-.448v-.084a2.568 2.568 0 0 1-.77-.462c-.513-.439-.77-1.017-.77-1.736 0-.737.313-1.363.938-1.876.635-.523 1.489-.784 2.562-.784 1.074 0 1.923.261 2.548.784.635.513.952 1.139.952 1.876 0 .7-.256 1.279-.77 1.736-.242.196-.499.35-.77.462v.084c.355.093.682.247.98.462.654.504.98 1.176.98 2.016 0 .812-.354 1.507-1.064 2.086-.7.569-1.652.854-2.856.854s-2.16-.285-2.87-.854c-.7-.579-1.05-1.274-1.05-2.086Zm2.1-4.62c0 .411.159.747.476 1.008.318.261.766.392 1.344.392.579 0 1.027-.131 1.344-.392.318-.261.476-.597.476-1.008 0-.373-.163-.686-.49-.938-.317-.261-.76-.392-1.33-.392-.569 0-1.017.131-1.344.392-.317.252-.476.565-.476.938Zm.168 3.346c-.392.308-.588.686-.588 1.134 0 .448.196.831.588 1.148.402.308.952.462 1.652.462s1.246-.154 1.638-.462c.402-.317.602-.7.602-1.148 0-.448-.2-.826-.602-1.134-.392-.317-.938-.476-1.638-.476s-1.25.159-1.652.476Zm6.688-2.646c0-.989.354-1.82 1.064-2.492.709-.672 1.614-1.008 2.716-1.008 1.101 0 2.006.336 2.716 1.008.709.672 1.064 1.503 1.064 2.492 0 .887-.369 1.843-1.106 2.87l-.308.42c-.131.168-.22.285-.266.35l-2.24 2.94h-1.89l2.114-2.758.616-.532v-.07a7.65 7.65 0 0 1-.28.112 3.583 3.583 0 0 1-.91.098 3.163 3.163 0 0 1-2.338-.98c-.635-.663-.952-1.479-.952-2.45Zm2.254-1.456c-.383.373-.574.859-.574 1.456s.191 1.087.574 1.47c.382.373.891.56 1.526.56.634 0 1.143-.187 1.526-.56.382-.383.574-.873.574-1.47s-.192-1.083-.574-1.456c-.383-.383-.892-.574-1.526-.574-.635 0-1.144.191-1.526.574ZM273.42 220v-1.54l3.346-2.366c.728-.523 1.251-1.008 1.568-1.456.317-.448.476-.924.476-1.428 0-.532-.163-.957-.49-1.274-.327-.317-.77-.476-1.33-.476-.691 0-1.209.28-1.554.84a2.851 2.851 0 0 0-.336.84h-1.68a4.332 4.332 0 0 1 .546-1.61c.663-1.073 1.671-1.61 3.024-1.61 1.036 0 1.876.308 2.52.924.653.607.98 1.372.98 2.296 0 .803-.205 1.526-.616 2.17-.411.635-1.069 1.265-1.974 1.89l-1.4.98-.63.28v.07l.84-.07h3.78V220h-7.07Zm8.193-.77c0-.28.088-.513.266-.7a.93.93 0 0 1 .686-.28c.308 0 .55.112.728.336.186.224.28.555.28.994 0 .719-.173 1.269-.518 1.652-.336.392-.794.588-1.372.588v-.7c.28 0 .499-.079.658-.238a.765.765 0 0 0 .252-.602v-.084c-.01-.009-.014-.028-.014-.056v-.042l-.084.028a.743.743 0 0 1-.182.014c-.187 0-.35-.084-.49-.252-.14-.168-.21-.387-.21-.658Zm3.076-1.96h1.68c.075.289.201.537.378.742.411.485 1.008.728 1.792.728.625 0 1.12-.168 1.484-.504.364-.336.546-.775.546-1.316 0-.569-.182-1.027-.546-1.372-.364-.345-.859-.518-1.484-.518-.579 0-1.069.154-1.47.462a1.916 1.916 0 0 0-.42.448h-1.54l.42-5.74h5.95v1.54h-4.62l-.21 2.52h.07c.149-.149.322-.275.518-.378.439-.261.966-.392 1.582-.392.98 0 1.797.327 2.45.98.653.653.98 1.47.98 2.45 0 .961-.345 1.764-1.036 2.408-.681.635-1.573.952-2.674.952-1.437 0-2.506-.499-3.206-1.498a4.417 4.417 0 0 1-.644-1.512Zm8.613-3.85c0-.989.355-1.82 1.064-2.492.71-.672 1.615-1.008 2.716-1.008 1.102 0 2.007.336 2.716 1.008.71.672 1.064 1.503 1.064 2.492 0 .887-.368 1.843-1.106 2.87-.074.103-.177.243-.308.42-.13.168-.219.285-.266.35l-2.24 2.94h-1.89l2.114-2.758.616-.532v-.07a6.87 6.87 0 0 1-.28.112 3.578 3.578 0 0 1-.91.098 3.164 3.164 0 0 1-2.338-.98c-.634-.663-.952-1.479-.952-2.45Zm2.254-1.456c-.382.373-.574.859-.574 1.456s.192 1.087.574 1.47c.383.373.892.56 1.526.56.635 0 1.144-.187 1.526-.56.383-.383.574-.873.574-1.47s-.191-1.083-.574-1.456c-.382-.383-.891-.574-1.526-.574-.634 0-1.143.191-1.526.574ZM254.21 59.04V57.5l3.29-6.3h1.75l-3.29 6.3h3.22v-2.38h1.61v2.38h1.4v1.54h-1.4V61h-1.61v-1.96h-4.97Zm8.539 1.19c0-.28.089-.513.266-.7a.934.934 0 0 1 .686-.28c.308 0 .551.112.728.336.187.224.28.555.28.994 0 .719-.172 1.27-.518 1.652-.336.392-.793.588-1.372.588v-.7c.28 0 .5-.08.658-.238a.765.765 0 0 0 .252-.602v-.084c-.009-.01-.014-.028-.014-.056v-.042l-.084.028a.722.722 0 0 1-.182.014c-.186 0-.35-.084-.49-.252-.14-.168-.21-.387-.21-.658Zm3.077-1.96h1.68c.074.29.2.537.378.742.41.485 1.008.728 1.792.728.625 0 1.12-.168 1.484-.504.364-.336.546-.775.546-1.316 0-.57-.182-1.027-.546-1.372-.364-.345-.859-.518-1.484-.518-.579 0-1.069.154-1.47.462-.159.121-.299.27-.42.448h-1.54l.42-5.74h5.95v1.54h-4.62l-.21 2.52h.07a2.11 2.11 0 0 1 .518-.378c.438-.261.966-.392 1.582-.392.98 0 1.796.327 2.45.98.653.653.98 1.47.98 2.45 0 .961-.346 1.764-1.036 2.408-.682.635-1.573.952-2.674.952-1.438 0-2.506-.5-3.206-1.498a4.393 4.393 0 0 1-.644-1.512Zm8.613 0h1.68c.075.29.201.537.378.742.411.485 1.008.728 1.792.728.625 0 1.12-.168 1.484-.504.364-.336.546-.775.546-1.316 0-.57-.182-1.027-.546-1.372-.364-.345-.859-.518-1.484-.518-.579 0-1.069.154-1.47.462-.159.121-.299.27-.42.448h-1.54l.42-5.74h5.95v1.54h-4.62l-.21 2.52h.07a2.11 2.11 0 0 1 .518-.378c.439-.261.966-.392 1.582-.392.98 0 1.797.327 2.45.98.653.653.98 1.47.98 2.45 0 .961-.345 1.764-1.036 2.408-.681.635-1.573.952-2.674.952-1.437 0-2.506-.5-3.206-1.498a4.412 4.412 0 0 1-.644-1.512ZM18.21 109.04v-1.54l3.29-6.3h1.75l-3.29 6.3h3.22v-2.38h1.61v2.38h1.4v1.54h-1.4V111h-1.61v-1.96h-4.97Zm8.54 1.19c0-.28.088-.513.265-.7a.931.931 0 0 1 .686-.28c.308 0 .551.112.729.336.186.224.28.555.28.994 0 .719-.173 1.269-.518 1.652-.337.392-.794.588-1.372.588v-.7c.28 0 .499-.079.657-.238a.765.765 0 0 0 .253-.602v-.084c-.01-.009-.015-.028-.015-.056v-.042l-.084.028a.742.742 0 0 1-.181.014c-.187 0-.35-.084-.49-.252-.14-.168-.21-.387-.21-.658Zm2.656-7.49v-1.54h6.65v1.54l-3.92 8.26h-1.75l3.85-8.12v-.14h-4.83Zm7.145 5.04c0-.448.097-.915.293-1.4.206-.495.402-.882.588-1.162.197-.289.462-.649.798-1.078l2.24-2.94h1.89l-2.114 2.758-.616.532v.07l.28-.098c.28-.075.584-.112.91-.112.915 0 1.69.331 2.325.994.643.653.965 1.465.965 2.436 0 .989-.354 1.82-1.063 2.492-.71.672-1.615 1.008-2.716 1.008-1.102 0-2.007-.336-2.717-1.008-.709-.672-1.063-1.503-1.063-2.492Zm2.253-1.456c-.382.373-.574.859-.574 1.456s.192 1.087.575 1.47c.382.373.89.56 1.526.56.634 0 1.143-.187 1.525-.56.383-.383.575-.873.575-1.47s-.192-1.083-.575-1.456c-.382-.383-.89-.574-1.526-.574-.634 0-1.143.191-1.526.574Z" fill="#333"/><circle cx="144.5" cy="128.5" r="39.5" fill="#5A5A5A"/><path d="M125.18 125.38v-1.98h8.55v1.98L128.69 136h-2.25l4.95-10.44v-.18h-6.21Zm9.358 2.16v-2.34l2.34-1.8h1.89V136h-2.07v-10.08l-2.16 1.62Zm6.211 7.47c0-.36.114-.66.342-.9a1.2 1.2 0 0 1 .882-.36c.396 0 .708.144.936.432.24.288.36.714.36 1.278 0 .924-.222 1.632-.666 2.124-.432.504-1.02.756-1.764.756v-.9c.36 0 .642-.102.846-.306.216-.192.324-.45.324-.774v-.108c-.012-.012-.018-.036-.018-.072v-.054l-.108.036a.932.932 0 0 1-.234.018c-.24 0-.45-.108-.63-.324-.18-.216-.27-.498-.27-.846Zm3.415-9.63v-1.98h8.55v1.98l-5.04 10.62h-2.25l4.95-10.44v-.18h-6.21Zm9.088 0v-1.98h8.55v1.98l-5.04 10.62h-2.25l4.95-10.44v-.18h-6.21Z" fill="#fff"/><path fill="#5A5A5A" d="M246 95h-2V84h2zm0-17h-2V67h2zm0-17h-2V50h2zm0-17h-2V33h2zm0-17h-2V16h2zM54 60h30V0H54zm0 165h30V111H54z"/><path d="m83.75 159.25-.152 154.438-11.348.061V159.25h11.5Zm0 160-.152 154.438-11.348.061V319.25h11.5Zm100 199.5-86.465-.152-.034-11.348h86.499v11.5Zm-118-359.5-.152 154.438-11.348.061V159.25h11.5Zm0 160-.152 154.438-11.348.061V319.25h11.5Zm118 181.5-86.465-.152-.034-11.348h86.499v11.5Z" stroke="#5A5A5A" stroke-width=".5" stroke-miterlimit="10"/><path fill="#5A5A5A" d="M54 357h30v-79H54zm0 162h30V409H54z"/><path fill="#5A5A5A" d="M74 489v30h37v-30zm94 0v30h41v-30z"/><path fill="#5A5A5A" d="M209 351h-16v166h16z"/><path fill="#5A5A5A" d="M351 367v-16H198v16z"/><path fill="#5A5A5A" d="M335 367h16V187h-16zM76 290v16h137v-16z"/><path fill="#5A5A5A" d="M213 202h-16v101h16zm0 140h-16v21h16zm31-246v8h69v-8h-69Zm-38 23v8h44v-8h-44Z"/><path d="M252 96h-8v31h8V96Zm-38 23h-8v16h8v-16Zm-1 68h-8v16h8v-16Zm97 16v-8h-53v8h53Z" fill="#5A5A5A"/><path d="M257 210h8v-8h-8v8Zm0 65h8v-35h-8v35Zm0 79h8v-52h-8v52Z" fill="#5A5A5A"/><path d="M261 245v8h77v-8h-77Zm90-42v-16h-44v16z" fill="#5A5A5A"/><path fill="#5A5A5A" d="M307 202h16v-43h-16zm0-77h16V0h-16z"/><path fill="#5A5A5A" d="M55 0v16h268V0z"/><path d="m206.25 123.25.025 28.201 1.475.009v-28.21h-1.5Zm0 47.289.025 28.201 1.475.009v-28.21h-1.5Zm-2-23.645.025 28.201 1.475.009v-28.21h-1.5Z" stroke="#5A5A5A" stroke-width=".5" stroke-miterlimit="10"/><path stroke="#000" d="m201.428 304.259-20 33m77.135-33.016-15-27m15.004-35.993-15-26"/><path stroke="#5A5A5A" d="m82.438 384.758-16-29"/><path d="m.25 430.75.063-82.468 4.437-.03v82.498H.25Zm54 12 .063-59.477 4.437-.022v59.499h-4.5Zm10 0 .063-59.477 4.437-.022v59.499h-4.5Z" stroke="#5A5A5A" stroke-width=".5" stroke-miterlimit="10"/><path fill="#5A5A5A" d="M0 431v5h74v-5zm0-100v5h74v-5z"/><path fill="#5A5A5A" d="M0 424h5v-93H0z"/><path fill="#5A5A5A" d="M0 433h5v-19H0z"/><path stroke="#5A5A5A" d="m82.438 86.758-16-29"/><path d="m.25 135.75.063-96.462 4.437-.036v96.498H.25Zm54 9 .063-59.477 4.437-.022v59.499h-4.5Zm10 0 .063-59.477 4.437-.022v59.499h-4.5Z" stroke="#5A5A5A" stroke-width=".5" stroke-miterlimit="10"/><path fill="#5A5A5A" d="M0 148v5h74v-5zM0 20v5h74v-5z"/><path fill="#5A5A5A" d="M0 40h5V21H0zm0 112h5v-19H0z"/><path stroke="#000" d="m320.574 160.739 19-31"/></svg>