<svg width="342" height="406" fill="none" xmlns="http://www.w3.org/2000/svg"><path fill="#5A5A5A" d="M83 30V0H0v30z"/><path fill="#E7FFD5" d="M262 318V30H12v288z"/><path fill="#E7FFD5" d="M262 396V108H43v288z"/><path fill="#FDFF9F" d="M75 321V169H11v152z"/><path d="M226.324 393.995V369h-24.325v24.995h24.325Z" fill="#fff" stroke="#5A5A5A" stroke-width=".5"/><path d="M225.397 371.026v19.453c0 .738-.392 1.131-1.162 1.131h-20.147c-.785 0-1.162-.377-1.162-1.131v-19.453c-.016-.753.377-1.13 1.146-1.13h20.148c.785-.016 1.177.377 1.177 1.13Z" fill="#fff" stroke="#5A5A5A" stroke-width=".5"/><path d="M218.897 372.815c-1.79.016-3.251 1.429-3.251 3.172 0 1.758 1.461 3.171 3.251 3.171 1.806 0 3.25-1.413 3.25-3.171 0-1.759-1.444-3.172-3.25-3.172Zm-9.626.031c-1.79.016-3.251 1.429-3.251 3.171 0 1.759 1.461 3.172 3.251 3.172 1.806 0 3.25-1.413 3.25-3.172.016-1.758-1.444-3.187-3.25-3.171Zm0 9.013c-1.806 0-3.251 1.413-3.251 3.172 0 1.758 1.461 3.171 3.251 3.171 1.79-.015 3.25-1.428 3.25-3.171 0-1.743-1.46-3.172-3.25-3.172Zm9.626 0c-1.806 0-3.251 1.413-3.251 3.172 0 1.758 1.461 3.171 3.251 3.171 1.79-.015 3.25-1.428 3.25-3.171 0-1.743-1.46-3.172-3.25-3.172Z" stroke="#5A5A5A" stroke-width=".5"/><path d="M163.699 394.088V370H140v24.104l23.699-.016Z" fill="#fff" stroke="#5A5A5A" stroke-width=".5"/><path d="M161.896 387.482v-13.317c0-.742-.363-1.106-1.121-1.106h-17.607c-.728 0-1.107.364-1.122 1.091l.015 13.332c-.015.727.364 1.091 1.107 1.091h17.607c.743.03 1.121-.348 1.121-1.091Z" fill="#fff" stroke="#5A5A5A" stroke-width=".5"/><path d="M151.971 392.24c-.924-.015-1.667-.712-1.667-1.591l.652-6.984.015-.015c0-.53.439-.955 1-.955.561 0 1 .425 1.015.97l.652 6.984c0 .864-.743 1.576-1.667 1.591Z" stroke="#5A5A5A" stroke-width=".5"/><mask id="a" fill="#fff"><path fill-rule="evenodd" clip-rule="evenodd" d="m150.592 391.557.363-3.802a.99.99 0 0 1 1.031-.955.98.98 0 0 1 1 .955l.364 3.802"/></mask><path fill-rule="evenodd" clip-rule="evenodd" d="m150.592 391.557.363-3.802a.99.99 0 0 1 1.031-.955.98.98 0 0 1 1 .955l.364 3.802" fill="#fff"/><path d="m150.955 387.755.5.014v.017l-.002.016-.498-.047Zm1.031-.955v.501l-.013-.001.013-.5Zm1 .955-.498.047-.001-.016-.001-.017.5-.014Zm-2.892 3.755.364-3.803.995.095-.363 3.803-.996-.095Zm.362-3.769a1.487 1.487 0 0 1 1.543-1.44l-.026.999a.49.49 0 0 0-.518.469l-.999-.028Zm1.53-1.441c.829 0 1.477.638 1.5 1.441l-1 .028a.48.48 0 0 0-.5-.469v-1Zm1.498 1.407.363 3.803-.995.095-.364-3.803.996-.095Z" fill="#5A5A5A" mask="url(#a)"/><path fill="#5A5A5A" d="M187 30V0h-50v30zm105 0V0h-45v30z"/><path fill="#5A5A5A" d="M262 105h30V15h-30zm0 177h30V160h-30zm0 124h30v-69h-30zM12 0H0v330h12z"/><path fill="#5A5A5A" d="M83 330v-12H0v12zm-54 74h12v-36H29z"/><path fill="#5A5A5A" d="M29 334h12v-11H29zm54-165v-12H0v12z"/><path d="m30.913 256.759-1.181-.017-3.066.017h-7.591v-9.958h11.838c3.016 0 5.476 2.244 5.476 4.995 0 2.719-2.46 4.963-5.477 4.963Z" fill="#fff" stroke="#5A5A5A" stroke-width=".5"/><path d="M30.847 255.612h-8.493v-7.68h7.559l.934.016c2.377 0 4.312 1.703 4.312 3.832-.016 2.113-1.95 3.832-4.312 3.832ZM12.713 245h5.263c.606 0 1.098.491 1.098 1.097v11.284c0 .606-.492 1.097-1.098 1.097h-5.263a1.098 1.098 0 0 1-1.099-1.097v-11.267c0-.623.492-1.114 1.099-1.114Z" fill="#fff" stroke="#5A5A5A" stroke-width=".5"/><path d="M15.337 251.092c.41 0 .721.295.721.639.016.36-.312.655-.721.655-.41 0-.722-.295-.722-.639a.684.684 0 0 1 .722-.655Zm15.961 58.667-1.18-.017-3.066.017H19.46v-9.958h11.837c3.017 0 5.476 2.244 5.476 4.995 0 2.719-2.459 4.963-5.476 4.963Z" fill="#fff" stroke="#5A5A5A" stroke-width=".5"/><path d="M31.233 308.612H22.74v-7.68h7.558l.935.016c2.377 0 4.312 1.703 4.312 3.832-.017 2.113-1.951 3.832-4.312 3.832ZM13.098 298h5.263c.607 0 1.099.491 1.099 1.097v11.284c0 .606-.492 1.097-1.099 1.097h-5.263A1.098 1.098 0 0 1 12 310.381v-11.267c0-.623.492-1.114 1.098-1.114Z" fill="#fff" stroke="#5A5A5A" stroke-width=".5"/><path d="M15.722 304.092c.41 0 .722.295.722.639.016.36-.312.655-.722.655s-.721-.295-.721-.639a.684.684 0 0 1 .721-.655Zm10.126-65.496H13.54c-.855 0-1.54-.683-1.54-1.538v-18.519c0-.855.685-1.539 1.54-1.539h12.308c.856 0 1.54.684 1.54 1.539v18.519c0 .84-.684 1.538-1.54 1.538Z" fill="#fff" stroke="#5A5A5A" stroke-width=".5"/><path d="M21.157 236.673H19.26a4.52 4.52 0 0 1-4.521-4.516v-8.718a4.52 4.52 0 0 1 4.52-4.516h1.898a4.52 4.52 0 0 1 4.52 4.516v8.718a4.52 4.52 0 0 1-4.52 4.516Z" fill="#fff" stroke="#5A5A5A" stroke-width=".5"/><path d="M23.267 228.753c-.543 0-.984-.427-.984-.954 0-.527.44-.955.984-.955.543 0 .984.428.984.955 0 .527-.44.954-.984.954ZM43 287.848V275.54c0-.855.684-1.54 1.539-1.54h18.52c.854 0 1.538.685 1.538 1.54v12.308c0 .856-.684 1.541-1.539 1.541h-18.52c-.84 0-1.538-.685-1.538-1.541Z" fill="#fff" stroke="#5A5A5A" stroke-width=".5"/><path d="M44.924 283.156v-1.896a4.52 4.52 0 0 1 4.516-4.522h8.718a4.52 4.52 0 0 1 4.516 4.522v1.896a4.52 4.52 0 0 1-4.516 4.521H49.44a4.52 4.52 0 0 1-4.516-4.521Z" fill="#fff" stroke="#5A5A5A" stroke-width=".5"/><path d="M52.844 285.267c0-.543.427-.984.954-.984.528 0 .955.441.955.984 0 .544-.427.984-.955.984-.527 0-.954-.44-.954-.984ZM13.66 194h56.428c.723 0 1.3-.577 1.3-1.299v-22.402c0-.722-.577-1.299-1.3-1.299H13.66c-.723 0-1.3.577-1.3 1.299v22.402c0 .722.59 1.299 1.3 1.299Z" fill="#fff" stroke="#5A5A5A" stroke-width=".5"/><path d="M67.92 184.538v-6.09a6.38 6.38 0 0 0-6.385-6.377H17.102c-.868 0-1.564.695-1.564 1.561v15.748c0 .866.696 1.562 1.564 1.562h44.42c3.534-.013 6.399-2.874 6.399-6.404Z" fill="#fff" stroke="#5A5A5A" stroke-width=".5"/><path d="M20.805 181.94c0 .703-.594 1.273-1.327 1.273s-1.327-.57-1.327-1.273.594-1.273 1.327-1.273 1.327.57 1.327 1.273Z" fill="#fff" stroke="#5A5A5A" stroke-width=".5"/><path fill="#5A5A5A" d="M134 169v-12h-17v12zm131 52v-12H127v12z"/><path fill="#5A5A5A" d="M127 330h12V209h-12zm-98 64v12h236v-12zm54-234h-8v56h8v-56Zm0 84h-8v38h8v-38Z"/><path d="M77 274v-8H9v8h68Zm-2 56h8v-23h-8v23Zm52 65h8v-23h-8v23Z" fill="#5A5A5A"/><path d="m248.75 29.75-188.424-.152-.074-11.348H248.75v11.5Z" stroke="#5A5A5A" stroke-width=".5" stroke-miterlimit="10"/><path d="M172.42 179.2h1.68c.065.289.191.546.378.77.42.513 1.017.77 1.792.77.644 0 1.153-.159 1.526-.476.383-.327.574-.728.574-1.204 0-.541-.173-.966-.518-1.274-.336-.317-.817-.476-1.442-.476h-2.38v-1.4l2.94-2.1v-.07h-4.06v-1.54h6.44v1.526l-2.52 1.834-.7.28v.07l.224-.028c.308-.028.49-.042.546-.042.877 0 1.61.303 2.198.91.588.607.882 1.377.882 2.31 0 .896-.345 1.657-1.036 2.282-.691.625-1.582.938-2.674.938-1.447 0-2.515-.513-3.206-1.54a4.406 4.406 0 0 1-.644-1.54Zm8.407-3.78v-1.82l1.82-1.4h1.47v9.8h-1.61v-7.84l-1.68 1.26Zm4.831 5.81c0-.28.088-.513.266-.7a.93.93 0 0 1 .686-.28c.308 0 .55.112.728.336.186.224.28.555.28.994 0 .719-.173 1.269-.518 1.652-.336.392-.794.588-1.372.588v-.7c.28 0 .499-.079.658-.238a.765.765 0 0 0 .252-.602v-.084c-.01-.009-.014-.028-.014-.056v-.042l-.084.028a.743.743 0 0 1-.182.014c-.187 0-.35-.084-.49-.252-.14-.168-.21-.387-.21-.658Zm2.866-5.81v-1.82l1.82-1.4h1.47v9.8h-1.61v-7.84l-1.68 1.26Zm4.691 3.78h1.68c.065.289.191.546.378.77.42.513 1.017.77 1.792.77.644 0 1.153-.159 1.526-.476.383-.327.574-.728.574-1.204 0-.541-.173-.966-.518-1.274-.336-.317-.817-.476-1.442-.476h-2.38v-1.4l2.94-2.1v-.07h-4.06v-1.54h6.44v1.526l-2.52 1.834-.7.28v.07l.224-.028c.308-.028.49-.042.546-.042.877 0 1.61.303 2.198.91.588.607.882 1.377.882 2.31 0 .896-.345 1.657-1.036 2.282-.691.625-1.582.938-2.674.938-1.447 0-2.515-.513-3.206-1.54a4.406 4.406 0 0 1-.644-1.54Zm-1.865 120.22v-1.82l1.82-1.4h1.47v9.8h-1.61v-7.84l-1.68 1.26Zm4.411-1.68v-1.54h6.65v1.54l-3.92 8.26h-1.75l3.85-8.12v-.14h-4.83Zm6.094 7.49c0-.28.089-.513.266-.7a.932.932 0 0 1 .686-.28c.308 0 .551.112.728.336.187.224.28.555.28.994 0 .719-.173 1.269-.518 1.652-.336.392-.793.588-1.372.588v-.7c.28 0 .499-.079.658-.238a.765.765 0 0 0 .252-.602v-.084c-.009-.009-.014-.028-.014-.056v-.042l-.084.028a.743.743 0 0 1-.182.014c-.187 0-.35-.084-.49-.252-.14-.168-.21-.387-.21-.658Zm2.656-7.49v-1.54h6.65v1.54l-3.92 8.26h-1.75l3.85-8.12v-.14h-4.83Zm7.278 1.68v-1.82l1.82-1.4h1.47v9.8h-1.61v-7.84l-1.68 1.26Zm88.631 10.78h1.68c.065.289.191.546.378.77.42.513 1.017.77 1.792.77.644 0 1.153-.159 1.526-.476.383-.327.574-.728.574-1.204 0-.541-.173-.966-.518-1.274-.336-.317-.817-.476-1.442-.476h-2.38v-1.4l2.94-2.1v-.07h-4.06v-1.54h6.44v1.526l-2.52 1.834-.7.28v.07l.224-.028c.308-.028.49-.042.546-.042.877 0 1.61.303 2.198.91.588.607.882 1.377.882 2.31 0 .896-.345 1.657-1.036 2.282-.691.625-1.582.938-2.674.938-1.447 0-2.515-.513-3.206-1.54a4.406 4.406 0 0 1-.644-1.54Zm8.617 2.03c0-.28.088-.513.266-.7a.93.93 0 0 1 .686-.28c.308 0 .55.112.728.336.186.224.28.555.28.994 0 .719-.173 1.269-.518 1.652-.336.392-.794.588-1.372.588v-.7c.28 0 .499-.079.658-.238a.765.765 0 0 0 .252-.602v-.084c-.01-.009-.014-.028-.014-.056v-.042l-.084.028a.743.743 0 0 1-.182.014c-.187 0-.35-.084-.49-.252-.14-.168-.21-.387-.21-.658Zm3.006-2.45c0-.448.098-.915.294-1.4.205-.495.401-.882.588-1.162.196-.289.462-.649.798-1.078l2.24-2.94h1.89l-2.114 2.758-.616.532v.07l.28-.098c.28-.075.583-.112.91-.112.914 0 1.689.331 2.324.994.644.653.966 1.465.966 2.436 0 .989-.355 1.82-1.064 2.492-.71.672-1.615 1.008-2.716 1.008-1.102 0-2.007-.336-2.716-1.008-.71-.672-1.064-1.503-1.064-2.492Zm2.254-1.456c-.383.373-.574.859-.574 1.456s.191 1.087.574 1.47c.382.373.891.56 1.526.56.634 0 1.143-.187 1.526-.56.382-.383.574-.873.574-1.47s-.192-1.083-.574-1.456c-.383-.383-.892-.574-1.526-.574-.635 0-1.144.191-1.526.574Zm6.359 1.456c0-.448.098-.915.294-1.4.205-.495.401-.882.588-1.162.196-.289.462-.649.798-1.078l2.24-2.94h1.89l-2.114 2.758-.616.532v.07l.28-.098c.28-.075.583-.112.91-.112.915 0 1.689.331 2.324.994.644.653.966 1.465.966 2.436 0 .989-.355 1.82-1.064 2.492-.709.672-1.615 1.008-2.716 1.008-1.101 0-2.007-.336-2.716-1.008-.709-.672-1.064-1.503-1.064-2.492Zm2.254-1.456c-.383.373-.574.859-.574 1.456s.191 1.087.574 1.47c.383.373.891.56 1.526.56s1.143-.187 1.526-.56c.383-.383.574-.873.574-1.47s-.191-1.083-.574-1.456c-.383-.383-.891-.574-1.526-.574s-1.143.191-1.526.574ZM66.35 350.42v-1.82l1.82-1.4h1.47v9.8h-1.61v-7.84l-1.68 1.26Zm6.231 5.404c-.887-.971-1.33-2.212-1.33-3.724s.443-2.753 1.33-3.724c.887-.971 1.96-1.456 3.22-1.456 1.26 0 2.333.485 3.22 1.456s1.33 2.212 1.33 3.724-.443 2.753-1.33 3.724c-.887.971-1.96 1.456-3.22 1.456-1.26 0-2.333-.485-3.22-1.456Zm1.148-6.412c-.532.635-.798 1.531-.798 2.688 0 1.157.266 2.053.798 2.688.541.635 1.232.952 2.072.952.84 0 1.526-.317 2.058-.952.541-.635.812-1.531.812-2.688 0-1.157-.27-2.053-.812-2.688-.532-.635-1.218-.952-2.058-.952-.84 0-1.53.317-2.072.952Zm7.815 6.818c0-.28.089-.513.266-.7a.931.931 0 0 1 .686-.28c.308 0 .551.112.728.336.187.224.28.555.28.994 0 .719-.172 1.269-.518 1.652-.336.392-.793.588-1.372.588v-.7c.28 0 .5-.079.658-.238a.765.765 0 0 0 .252-.602v-.084c-.009-.009-.014-.028-.014-.056v-.042l-.084.028a.742.742 0 0 1-.182.014c-.186 0-.35-.084-.49-.252-.14-.168-.21-.387-.21-.658Zm2.867-5.81v-1.82l1.82-1.4h1.47v9.8h-1.61v-7.84l-1.68 1.26Zm6.23 5.404c-.886-.971-1.33-2.212-1.33-3.724s.444-2.753 1.33-3.724c.887-.971 1.96-1.456 3.22-1.456 1.26 0 2.334.485 3.22 1.456.887.971 1.33 2.212 1.33 3.724s-.443 2.753-1.33 3.724c-.886.971-1.96 1.456-3.22 1.456-1.26 0-2.333-.485-3.22-1.456Zm1.149-6.412c-.532.635-.798 1.531-.798 2.688 0 1.157.266 2.053.798 2.688.541.635 1.232.952 2.072.952.84 0 1.526-.317 2.058-.952.541-.635.812-1.531.812-2.688 0-1.157-.271-2.053-.812-2.688-.532-.635-1.218-.952-2.058-.952-.84 0-1.531.317-2.072.952ZM41.56 231.27h1.68c.075.289.2.537.378.742.41.485 1.008.728 1.792.728.625 0 1.12-.168 1.484-.504.364-.336.546-.775.546-1.316 0-.569-.182-1.027-.546-1.372-.364-.345-.859-.518-1.484-.518-.579 0-1.069.154-1.47.462a1.928 1.928 0 0 0-.42.448h-1.54l.42-5.74h5.95v1.54h-4.62l-.21 2.52h.07a2.13 2.13 0 0 1 .518-.378c.439-.261.966-.392 1.582-.392.98 0 1.797.327 2.45.98.653.653.98 1.47.98 2.45 0 .961-.345 1.764-1.036 2.408-.681.635-1.573.952-2.674.952-1.437 0-2.506-.499-3.206-1.498a4.417 4.417 0 0 1-.644-1.512Zm8.613 1.96c0-.28.089-.513.266-.7a.931.931 0 0 1 .686-.28c.308 0 .55.112.728.336.187.224.28.555.28.994 0 .719-.172 1.269-.518 1.652-.336.392-.793.588-1.372.588v-.7c.28 0 .5-.079.658-.238a.765.765 0 0 0 .252-.602v-.084c-.01-.009-.014-.028-.014-.056v-.042l-.084.028a.742.742 0 0 1-.182.014c-.186 0-.35-.084-.49-.252-.14-.168-.21-.387-.21-.658Zm4.477-.406c-.887-.971-1.33-2.212-1.33-3.724s.443-2.753 1.33-3.724c.886-.971 1.96-1.456 3.22-1.456 1.26 0 2.333.485 3.22 1.456.886.971 1.33 2.212 1.33 3.724s-.444 2.753-1.33 3.724c-.887.971-1.96 1.456-3.22 1.456-1.26 0-2.334-.485-3.22-1.456Zm1.148-6.412c-.532.635-.799 1.531-.799 2.688 0 1.157.267 2.053.798 2.688.542.635 1.233.952 2.073.952.84 0 1.526-.317 2.058-.952.54-.635.812-1.531.812-2.688 0-1.157-.271-2.053-.813-2.688-.532-.635-1.218-.952-2.057-.952-.84 0-1.531.317-2.072.952Zm7.815 4.928c0-.849.326-1.526.98-2.03a3.15 3.15 0 0 1 .98-.448v-.084a2.564 2.564 0 0 1-.77-.462c-.514-.439-.77-1.017-.77-1.736 0-.737.312-1.363.938-1.876.634-.523 1.488-.784 2.562-.784 1.073 0 1.922.261 2.548.784.634.513.952 1.139.952 1.876 0 .7-.257 1.279-.77 1.736-.243.196-.5.35-.77.462v.084c.354.093.681.247.98.462.653.504.98 1.176.98 2.016 0 .812-.355 1.507-1.064 2.086-.7.569-1.652.854-2.856.854s-2.16-.285-2.87-.854c-.7-.579-1.05-1.274-1.05-2.086Zm2.1-4.62c0 .411.158.747.476 1.008.317.261.765.392 1.344.392.578 0 1.026-.131 1.344-.392.317-.261.476-.597.476-1.008 0-.373-.164-.686-.49-.938-.318-.261-.76-.392-1.33-.392-.57 0-1.018.131-1.344.392-.318.252-.476.565-.476.938Zm.168 3.346c-.392.308-.588.686-.588 1.134 0 .448.196.831.588 1.148.401.308.952.462 1.652.462s1.246-.154 1.638-.462c.401-.317.602-.7.602-1.148 0-.448-.2-.826-.602-1.134-.392-.317-.938-.476-1.638-.476s-1.25.159-1.652.476Z" fill="#333"/><path d="m262.25 175.75.152-82.467 11.348-.032v82.499h-11.5Zm-13.5-164-188.424-.152L60.252.25H248.75v11.5Zm31.5 164 .152-82.467 11.348-.032v82.499h-11.5Zm61.5 92.5-.063 81.468-4.437.03V268.25h4.5Z" stroke="#5A5A5A" stroke-width=".5" stroke-miterlimit="10"/><path fill="#5A5A5A" d="M342 262v-5h-74v5zm0 97v-5h-74v5z"/><path fill="#5A5A5A" d="M342 347h-5v8h5z"/><path fill="#5A5A5A" d="M342 257h-5v93h5z"/><path d="m275.25 247.25.063 60.476 4.437.023V247.25h-4.5Zm10 0 .063 60.476 4.437.023V247.25h-4.5Z" stroke="#5A5A5A" stroke-width=".5" stroke-miterlimit="10"/><path stroke="#5A5A5A" d="m274.57 336.255-16-27"/><path stroke="#000" d="m33.418 333.274-21 32m116.143 6.965-18-33M79.6 309.7l18-24m-18-38 18-24m31.97-12.956 22-37m-71.794-15.191 36-18"/><circle cx="92.5" cy="97.5" r="39.5" fill="#5A5A5A"/><path d="M68.63 100.86c0-.576.126-1.176.378-1.8.264-.636.516-1.134.756-1.494.252-.372.594-.834 1.026-1.386l2.88-3.78h2.43l-2.718 3.546-.792.684v.09l.36-.126a4.53 4.53 0 0 1 1.17-.144c1.176 0 2.172.426 2.988 1.278.828.84 1.242 1.884 1.242 3.132 0 1.272-.456 2.34-1.368 3.204-.912.864-2.076 1.296-3.492 1.296s-2.58-.432-3.492-1.296c-.912-.864-1.368-1.932-1.368-3.204Zm2.898-1.872c-.492.48-.738 1.104-.738 1.872s.246 1.398.738 1.89c.492.48 1.146.72 1.962.72.816 0 1.47-.24 1.962-.72.492-.492.738-1.122.738-1.89 0-.768-.246-1.392-.738-1.872-.492-.492-1.146-.738-1.962-.738-.816 0-1.47.246-1.962.738Zm8.176 1.872c0-.576.126-1.176.378-1.8.264-.636.516-1.134.756-1.494.252-.372.594-.834 1.026-1.386l2.88-3.78h2.43l-2.718 3.546-.792.684v.09l.36-.126a4.53 4.53 0 0 1 1.17-.144c1.176 0 2.172.426 2.988 1.278.828.84 1.242 1.884 1.242 3.132 0 1.272-.456 2.34-1.368 3.204-.912.864-2.076 1.296-3.492 1.296s-2.58-.432-3.492-1.296c-.912-.864-1.368-1.932-1.368-3.204Zm2.898-1.872c-.492.48-.738 1.104-.738 1.872s.246 1.398.738 1.89c.492.48 1.146.72 1.962.72.816 0 1.47-.24 1.962-.72.492-.492.738-1.122.738-1.89 0-.768-.246-1.392-.738-1.872-.492-.492-1.146-.738-1.962-.738-.816 0-1.47.246-1.962.738Zm8.266 5.022c0-.36.114-.66.342-.9a1.2 1.2 0 0 1 .882-.36c.396 0 .708.144.936.432.24.288.36.714.36 1.278 0 .924-.222 1.632-.666 2.124-.432.504-1.02.756-1.764.756v-.9c.36 0 .642-.102.846-.306.216-.192.324-.45.324-.774v-.108c-.012-.012-.018-.036-.018-.072v-.054l-.108.036a.932.932 0 0 1-.234.018c-.24 0-.45-.108-.63-.324-.18-.216-.27-.498-.27-.846Zm3.776.99v-1.98l4.301-3.042c.937-.672 1.609-1.296 2.017-1.872.408-.576.612-1.188.612-1.836 0-.684-.21-1.23-.63-1.638-.42-.408-.99-.612-1.71-.612-.888 0-1.554.36-1.998 1.08a3.633 3.633 0 0 0-.433 1.08h-2.16a5.567 5.567 0 0 1 .703-2.07c.852-1.38 2.147-2.07 3.888-2.07 1.332 0 2.412.396 3.24 1.188.84.78 1.26 1.764 1.26 2.952 0 1.032-.264 1.962-.792 2.79-.528.816-1.374 1.626-2.538 2.43l-1.8 1.26-.81.36v.09l1.08-.09h4.86V105h-9.09Zm10.533-3.51h2.16c.096.372.258.69.486.954.528.624 1.296.936 2.304.936.804 0 1.44-.216 1.908-.648.468-.432.702-.996.702-1.692 0-.732-.234-1.32-.702-1.764-.468-.444-1.104-.666-1.908-.666-.744 0-1.374.198-1.89.594a2.481 2.481 0 0 0-.54.576h-1.98l.54-7.38h7.65v1.98h-5.94l-.27 3.24h.09c.192-.192.414-.354.666-.486.564-.336 1.242-.504 2.034-.504 1.26 0 2.31.42 3.15 1.26.84.84 1.26 1.89 1.26 3.15 0 1.236-.444 2.268-1.332 3.096-.876.816-2.022 1.224-3.438 1.224-1.848 0-3.222-.642-4.122-1.926a5.672 5.672 0 0 1-.828-1.944Z" fill="#fff"/></svg>