<svg width="494" height="505" fill="none" xmlns="http://www.w3.org/2000/svg"><path d="M158 30h253v343H158V30ZM10 86h148v125H10V86Z" fill="#E7FFD5"/><path d="M212 356h190L275 481h-63V356Z" fill="#E7FFD5"/><path d="M205 286v-68l-47 1.079V286h47Zm67 196V380.364L213 381v101h59Z" fill="#FDFF9F"/><path d="m241.719 492 71.16-71.161-41.462-41.976-71.418 71.418L241.719 492Z" fill="#FDFF9F"/><path d="m269.896 501.896 63.548-63.547-37.026-37.486-63.778 63.777 37.256 37.256Z" fill="#FDFF9F"/><path fill="#5A5A5A" d="M412 0h30v96h-30z"/><path fill="#5A5A5A" d="M389 30V0h47v30zm-136 0V0h73v30zm-125 0V0h68v30zm30 38h-30V56h30z"/><path fill="#5A5A5A" d="M84 86V56h68v30z"/><path fill="#5A5A5A" d="M128 6h30v68h-30zM0 86V56h30v30zm412 62h30v111h-30zM200 504v-25h88v25zm212-191h30v38h-30z"/><path d="m493.75 158.75-.063-81.468-4.437-.03v81.498h4.5Z" stroke="#5A5A5A" stroke-width=".5" stroke-miterlimit="10"/><path fill="#5A5A5A" d="M494 165v5h-74v-5zm0-99v5h-74v-5z"/><path fill="#5A5A5A" d="M494 83h-5V68h5zm0 87h-5v-12h5z"/><path d="m427.25 179.75.063-60.476 4.437-.023v60.499h-4.5Zm10 0 .063-60.476 4.437-.023v60.499h-4.5Z" stroke="#5A5A5A" stroke-width=".5" stroke-miterlimit="10"/><path stroke="#5A5A5A" d="m426.57 89.745-16 27"/><path d="m92.75 6.25-81.468.063-.03 4.437H92.75v-4.5Z" stroke="#5A5A5A" stroke-width=".5" stroke-miterlimit="10"/><path fill="#5A5A5A" d="M99 6h5v74h-5zM0 6h5v74H0z"/><path fill="#5A5A5A" d="M17 6v5H2V6zm87 0v5H92V6z"/><path d="m113.75 72.75-60.476-.063-.023-4.437h60.499v4.5Zm0-10-60.476-.063-.023-4.437h60.499v4.5Z" stroke="#5A5A5A" stroke-width=".5" stroke-miterlimit="10"/><path stroke="#5A5A5A" d="m23.745 73.43 27 16"/><path fill="#5A5A5A" d="m420.871 329.917 21.213 21.213-153.083 153.084L267.787 483zM288 170h-16V22h16zm-130 0h-16V56h16zM16 224H0V78h16z"/><path fill="#5A5A5A" d="M213 208v16H8v-16zm69 0v16h-24v-16z"/><path fill="#5A5A5A" d="M258 208h16v62h-16zm0 105h16v66h-16zm-58 60h16v106h-16zm-58 15v-15h20v15z"/><path fill="#5A5A5A" d="M196 388v-15h20v15zm-54-184h16v184h-16zm130 0h16v20h-16z"/><path d="M150 293v-8h63v8h-63Zm103 88v-8h21v8h-21Zm-48 0v-8h21v8h-21Z" fill="#5A5A5A"/><path d="m262.246 372.404 5.657-5.657 61.178 61.178-5.657 5.656-61.178-61.177ZM213 293h-8v-26h8v26Zm0-53h-8v-26h8v26Z" fill="#5A5A5A"/><path d="m180.25 29.75 219.412-.152.086-11.348H180.25v11.5Zm-22.501 31-.15-34.486-11.349-.014v34.5h11.499Zm284.001 279-.152-108.456-11.348-.043V339.75h11.5Zm-261.5-328 219.412-.152.086-11.348H180.25v11.5Zm-40.501 49-.15-34.486-11.349-.014v34.5h11.499Zm284.001 279-.152-108.456-11.348-.043V339.75h11.5Z" stroke="#5A5A5A" stroke-width=".5" stroke-miterlimit="10"/><path stroke="#5A5A5A" d="m155.575 166.263 21 34m82.17 11.307-27 16m-20.035-16.163 14 10m-15.143 17.843 15 26m33.99 1.519-12 23m12.882 26.991-12-22m20.122-128-18 33m-50.815 184.809-34 20"/><path fill="#5A5A5A" d="M274 313v2h11v-2zm51 0v2h11v-2zm-17 0v2h11v-2zm-17 0v2h11v-2zm51 0v2h11v-2zm17 0v2h11v-2zm17 0v2h11v-2zm17 0v2h11v-2z"/><path d="m292.201 391.082 17.674-17.674-17.2-17.2L275 373.882l17.201 17.2Z" fill="#fff" stroke="#5A5A5A" stroke-width=".5"/><path d="m307.788 374.186-13.755 13.755c-.522.522-1.077.522-1.621-.022l-14.247-14.247c-.555-.555-.555-1.088-.022-1.621l13.755-13.755c.522-.544 1.066-.533 1.61.011l14.247 14.247c.566.544.566 1.099.033 1.632Z" fill="#fff" stroke="#5A5A5A" stroke-width=".5"/><path d="M301.924 370.854c-1.277-1.255-3.309-1.288-4.541-.056-1.243 1.244-1.21 3.275.056 4.541 1.277 1.277 3.298 1.3 4.541.056 1.243-1.243 1.221-3.264-.056-4.541Zm-6.826-6.785c-1.277-1.255-3.309-1.288-4.541-.056-1.244 1.243-1.21 3.275.056 4.541 1.277 1.277 3.297 1.299 4.541.056 1.254-1.232 1.232-3.275-.056-4.541Zm-6.375 6.373c-1.277-1.277-3.298-1.299-4.541-.056-1.244 1.244-1.21 3.276.056 4.542 1.277 1.254 3.309 1.288 4.541.056 1.232-1.233 1.21-3.276-.056-4.542Zm6.807 6.807c-1.277-1.277-3.298-1.299-4.542-.056-1.243 1.243-1.209 3.275.056 4.541 1.277 1.255 3.309 1.288 4.542.056 1.232-1.232 1.209-3.275-.056-4.541Z" stroke="#5A5A5A" stroke-width=".5"/><path d="m309.372 408.231 17.033-17.033 16.758 16.758L326.119 425l-16.747-16.769Z" fill="#fff" stroke="#5A5A5A" stroke-width=".5"/><path d="m315.317 404.835 9.417-9.416c.525-.525 1.039-.525 1.575.011l12.45 12.45c.515.514.525 1.039.022 1.564l-9.438 9.417c-.504.525-1.029.514-1.554-.011l-12.45-12.451c-.546-.503-.546-1.039-.022-1.564Z" fill="#fff" stroke="#5A5A5A" stroke-width=".5"/><path d="M318.972 415.218c.664.642 1.682.675 2.303.053l4.478-5.399v-.021c.375-.375.364-.986-.032-1.382a.997.997 0 0 0-1.404-.033l-5.399 4.478c-.611.611-.589 1.639.054 2.304Z" stroke="#5A5A5A" stroke-width=".5"/><mask id="a" fill="#fff"><path fill-rule="evenodd" clip-rule="evenodd" d="m320.431 415.71 2.431-2.946a.988.988 0 0 0-.053-1.403.98.98 0 0 0-1.382-.033l-2.947 2.432"/></mask><path fill-rule="evenodd" clip-rule="evenodd" d="m320.431 415.71 2.431-2.946a.988.988 0 0 0-.053-1.403.98.98 0 0 0-1.382-.033l-2.947 2.432" fill="#fff"/><path d="m322.862 412.764-.363-.343-.012.012-.01.013.385.318Zm-.053-1.403-.354.353.009.009.345-.362Zm-1.382-.033.318.386.013-.011.012-.011-.343-.364Zm-.611 4.7 2.432-2.946-.771-.636-2.432 2.946.771.636Zm2.41-2.921a1.488 1.488 0 0 0-.073-2.109l-.689.725c.218.206.21.512.035.698l.727.686Zm-.064-2.1a1.48 1.48 0 0 0-2.079-.042l.687.727a.481.481 0 0 1 .685.022l.707-.707Zm-2.054-.064-2.946 2.431.637.772 2.946-2.432-.637-.771Z" fill="#5A5A5A" mask="url(#a)"/><path d="M216 477.678v-57.356c0-.734.586-1.322 1.32-1.322h22.77c.733 0 1.32.588 1.32 1.322v57.356c0 .734-.587 1.322-1.32 1.322h-22.77c-.734 0-1.32-.601-1.32-1.322Z" fill="#fff" stroke="#5A5A5A" stroke-width=".5"/><path d="M225.617 422.526h6.189a6.484 6.484 0 0 1 6.483 6.49v45.163c0 .882-.707 1.59-1.587 1.59h-16.007c-.88 0-1.587-.708-1.587-1.59v-45.15c.013-3.592 2.921-6.503 6.509-6.503Z" fill="#fff" stroke="#5A5A5A" stroke-width=".5"/><path d="M228.257 470.413c-.715 0-1.294.604-1.294 1.349s.579 1.349 1.294 1.349c.715 0 1.294-.604 1.294-1.349s-.579-1.349-1.294-1.349Zm63.116-38.045.831.839 2.199 2.137 5.415 5.32-6.978 7.103-8.445-8.295c-2.152-2.115-2.334-5.439-.406-7.401 1.905-1.94 5.232-1.817 7.384.297Z" fill="#fff" stroke="#5A5A5A" stroke-width=".5"/><path d="m290.617 433.232.667.655 5.392 5.297-5.383 5.479-5.392-5.297-.655-.666c-1.696-1.666-1.883-4.237-.391-5.756 1.493-1.496 4.078-1.367 5.762.288Zm5.499 20.279-3.754-3.689a1.097 1.097 0 0 1-.015-1.552l7.907-8.05a1.099 1.099 0 0 1 1.553-.013l3.755 3.688c.432.426.439 1.121.014 1.553l-7.896 8.038a1.102 1.102 0 0 1-1.564.025Z" fill="#fff" stroke="#5A5A5A" stroke-width=".5"/><path d="M298.515 447.326c-.293-.287-.308-.716-.067-.961.24-.269.681-.249.973.038.293.287.308.716.067.961a.681.681 0 0 1-.973-.038Zm-24.723 27.585-8.703-8.703a1.532 1.532 0 0 1-.001-2.177l13.095-13.095a1.532 1.532 0 0 1 2.177.001l8.703 8.703c.605.605.606 1.573.001 2.177l-13.095 13.095a1.542 1.542 0 0 1-2.177-.001Z" fill="#fff" stroke="#5A5A5A" stroke-width=".5"/><path d="m271.834 470.233-1.341-1.341a4.52 4.52 0 0 1-.004-6.39l6.165-6.165a4.52 4.52 0 0 1 6.39.004l1.341 1.341a4.52 4.52 0 0 1 .004 6.39l-6.165 6.165a4.52 4.52 0 0 1-6.39-.004Z" fill="#fff" stroke="#5A5A5A" stroke-width=".5"/><path d="M278.927 466.125c-.384-.384-.394-.998-.021-1.37.373-.373.987-.364 1.371.021.384.384.394.997.021 1.37-.373.373-.987.364-1.371-.021ZM177.297 248.28l-1.18-.016-3.066.016h-7.592v-9.957h11.838c3.017 0 5.476 2.244 5.476 4.995 0 2.719-2.459 4.962-5.476 4.962Z" fill="#fff" stroke="#5A5A5A" stroke-width=".5"/><path d="M177.231 247.134h-8.493v-7.681h7.558l.935.017c2.377 0 4.312 1.703 4.312 3.832-.016 2.112-1.951 3.832-4.312 3.832Zm-18.134-10.612h5.263c.607 0 1.099.491 1.099 1.097v11.284c0 .606-.492 1.097-1.099 1.097h-5.263a1.098 1.098 0 0 1-1.098-1.097v-11.268c0-.622.492-1.113 1.098-1.113Z" fill="#fff" stroke="#5A5A5A" stroke-width=".5"/><path d="M161.721 242.614c.41 0 .722.295.722.639.016.36-.312.655-.722.655-.409 0-.721-.295-.721-.639a.682.682 0 0 1 .721-.655Zm11.278 40.846v-12.308c0-.856.684-1.541 1.539-1.541h18.519c.855 0 1.539.685 1.539 1.541v12.308c0 .855-.684 1.54-1.539 1.54h-18.519a1.542 1.542 0 0 1-1.539-1.54Z" fill="#fff" stroke="#5A5A5A" stroke-width=".5"/><path d="M174.922 278.768v-1.897a4.52 4.52 0 0 1 4.516-4.521h8.718a4.52 4.52 0 0 1 4.516 4.521v1.897a4.52 4.52 0 0 1-4.516 4.521h-8.718a4.52 4.52 0 0 1-4.516-4.521Z" fill="#fff" stroke="#5A5A5A" stroke-width=".5"/><path d="M182.843 280.878c0-.543.427-.984.955-.984.527 0 .954.441.954.984 0 .544-.427.984-.954.984-.528 0-.955-.44-.955-.984Z" fill="#fff" stroke="#5A5A5A" stroke-width=".5"/><path d="M203.35 107.42v-1.82l1.82-1.4h1.47v9.8h-1.61v-7.84l-1.68 1.26Zm4.831 3.92c0-.849.327-1.526.98-2.03a3.16 3.16 0 0 1 .98-.448v-.084a2.568 2.568 0 0 1-.77-.462c-.513-.439-.77-1.017-.77-1.736 0-.737.313-1.363.938-1.876.635-.523 1.489-.784 2.562-.784 1.073 0 1.923.261 2.548.784.635.513.952 1.139.952 1.876 0 .7-.257 1.279-.77 1.736-.243.196-.499.35-.77.462v.084c.355.093.681.247.98.462.653.504.98 1.176.98 2.016 0 .812-.355 1.507-1.064 2.086-.7.569-1.652.854-2.856.854s-2.161-.285-2.87-.854c-.7-.579-1.05-1.274-1.05-2.086Zm2.1-4.62c0 .411.159.747.476 1.008.317.261.765.392 1.344.392.579 0 1.027-.131 1.344-.392.317-.261.476-.597.476-1.008 0-.373-.163-.686-.49-.938-.317-.261-.761-.392-1.33-.392-.569 0-1.017.131-1.344.392-.317.252-.476.565-.476.938Zm.168 3.346c-.392.308-.588.686-.588 1.134 0 .448.196.831.588 1.148.401.308.952.462 1.652.462s1.246-.154 1.638-.462c.401-.317.602-.7.602-1.148 0-.448-.201-.826-.602-1.134-.392-.317-.938-.476-1.638-.476s-1.251.159-1.652.476Zm6.687 3.164c0-.28.089-.513.266-.7a.933.933 0 0 1 .686-.28c.308 0 .551.112.728.336.187.224.28.555.28.994 0 .719-.172 1.269-.518 1.652-.336.392-.793.588-1.372.588v-.7c.28 0 .5-.079.658-.238a.765.765 0 0 0 .252-.602v-.084c-.009-.009-.014-.028-.014-.056v-.042l-.084.028a.738.738 0 0 1-.182.014c-.186 0-.35-.084-.49-.252-.14-.168-.21-.387-.21-.658Zm3.076-1.96h1.68c.075.289.201.537.378.742.411.485 1.008.728 1.792.728.626 0 1.12-.168 1.484-.504.364-.336.546-.775.546-1.316 0-.569-.182-1.027-.546-1.372-.364-.345-.858-.518-1.484-.518-.578 0-1.068.154-1.47.462a1.958 1.958 0 0 0-.42.448h-1.54l.42-5.74h5.95v1.54h-4.62l-.21 2.52h.07c.15-.149.322-.275.518-.378.439-.261.966-.392 1.582-.392.98 0 1.797.327 2.45.98.654.653.98 1.47.98 2.45 0 .961-.345 1.764-1.036 2.408-.681.635-1.572.952-2.674.952-1.437 0-2.506-.499-3.206-1.498a4.436 4.436 0 0 1-.644-1.512Zm8.404-3.85v-1.82l1.82-1.4h1.47v9.8h-1.61v-7.84l-1.68 1.26ZM340.42 212.2h1.68c.065.289.191.546.378.77.42.513 1.017.77 1.792.77.644 0 1.153-.159 1.526-.476.383-.327.574-.728.574-1.204 0-.541-.173-.966-.518-1.274-.336-.317-.817-.476-1.442-.476h-2.38v-1.4l2.94-2.1v-.07h-4.06v-1.54h6.44v1.526l-2.52 1.834-.7.28v.07l.224-.028c.308-.028.49-.042.546-.042.877 0 1.61.303 2.198.91.588.607.882 1.377.882 2.31 0 .896-.345 1.657-1.036 2.282-.691.625-1.582.938-2.674.938-1.447 0-2.515-.513-3.206-1.54a4.406 4.406 0 0 1-.644-1.54Zm8.407-3.78v-1.82l1.82-1.4h1.47v9.8h-1.61v-7.84l-1.68 1.26Zm4.831 5.81c0-.28.088-.513.266-.7a.93.93 0 0 1 .686-.28c.308 0 .55.112.728.336.186.224.28.555.28.994 0 .719-.173 1.269-.518 1.652-.336.392-.794.588-1.372.588v-.7c.28 0 .499-.079.658-.238a.765.765 0 0 0 .252-.602v-.084c-.01-.009-.014-.028-.014-.056v-.042l-.084.028a.743.743 0 0 1-.182.014c-.187 0-.35-.084-.49-.252-.14-.168-.21-.387-.21-.658Zm2.866-5.81v-1.82l1.82-1.4h1.47v9.8h-1.61v-7.84l-1.68 1.26Zm4.831 3.92c0-.849.327-1.526.98-2.03a3.16 3.16 0 0 1 .98-.448v-.084a2.568 2.568 0 0 1-.77-.462c-.513-.439-.77-1.017-.77-1.736 0-.737.313-1.363.938-1.876.635-.523 1.489-.784 2.562-.784 1.073 0 1.923.261 2.548.784.635.513.952 1.139.952 1.876 0 .7-.257 1.279-.77 1.736-.243.196-.499.35-.77.462v.084c.355.093.681.247.98.462.653.504.98 1.176.98 2.016 0 .812-.355 1.507-1.064 2.086-.7.569-1.652.854-2.856.854s-2.161-.285-2.87-.854c-.7-.579-1.05-1.274-1.05-2.086Zm2.1-4.62c0 .411.159.747.476 1.008.317.261.765.392 1.344.392.579 0 1.027-.131 1.344-.392.317-.261.476-.597.476-1.008 0-.373-.163-.686-.49-.938-.317-.261-.761-.392-1.33-.392-.569 0-1.017.131-1.344.392-.317.252-.476.565-.476.938Zm.168 3.346c-.392.308-.588.686-.588 1.134 0 .448.196.831.588 1.148.401.308.952.462 1.652.462s1.246-.154 1.638-.462c.401-.317.602-.7.602-1.148 0-.448-.201-.826-.602-1.134-.392-.317-.938-.476-1.638-.476s-1.251.159-1.652.476Zm88.797-88.653h1.68c.065.29.191.546.378.77.42.514 1.017.77 1.792.77.644 0 1.153-.158 1.526-.476.383-.326.574-.728.574-1.204 0-.541-.173-.966-.518-1.274-.336-.317-.817-.476-1.442-.476h-2.38v-1.4l2.94-2.1v-.07h-4.06v-1.54h6.44v1.526l-2.52 1.834-.7.28v.07l.224-.028c.308-.028.49-.042.546-.042.877 0 1.61.304 2.198.91.588.607.882 1.377.882 2.31 0 .896-.345 1.657-1.036 2.282-.691.626-1.582.938-2.674.938-1.447 0-2.515-.513-3.206-1.54a4.398 4.398 0 0 1-.644-1.54Zm8.617 2.03c0-.28.088-.513.266-.7a.934.934 0 0 1 .686-.28c.308 0 .55.112.728.336.186.224.28.556.28.994 0 .719-.173 1.27-.518 1.652-.336.392-.794.588-1.372.588v-.7c.28 0 .499-.079.658-.238a.765.765 0 0 0 .252-.602v-.084c-.01-.009-.014-.028-.014-.056v-.042l-.084.028a.694.694 0 0 1-.182.014c-.187 0-.35-.084-.49-.252-.14-.168-.21-.387-.21-.658Zm3.006-2.45c0-.448.098-.914.294-1.4.205-.494.401-.882.588-1.162.196-.289.462-.648.798-1.078l2.24-2.94h1.89l-2.114 2.758-.616.532v.07l.28-.098a3.55 3.55 0 0 1 .91-.112 3.1 3.1 0 0 1 2.324.994c.644.654.966 1.466.966 2.436 0 .99-.355 1.82-1.064 2.492-.71.672-1.615 1.008-2.716 1.008-1.102 0-2.007-.336-2.716-1.008-.71-.672-1.064-1.502-1.064-2.492Zm2.254-1.456c-.383.374-.574.859-.574 1.456 0 .598.191 1.088.574 1.47.382.374.891.56 1.526.56.634 0 1.143-.186 1.526-.56.382-.382.574-.872.574-1.47 0-.597-.192-1.082-.574-1.456-.383-.382-.892-.574-1.526-.574-.635 0-1.144.192-1.526.574Zm6.359 1.456c0-.448.098-.914.294-1.4.205-.494.401-.882.588-1.162.196-.289.462-.648.798-1.078l2.24-2.94h1.89l-2.114 2.758-.616.532v.07l.28-.098a3.55 3.55 0 0 1 .91-.112c.915 0 1.689.332 2.324.994.644.654.966 1.466.966 2.436 0 .99-.355 1.82-1.064 2.492-.709.672-1.615 1.008-2.716 1.008-1.101 0-2.007-.336-2.716-1.008-.709-.672-1.064-1.502-1.064-2.492Zm2.254-1.456c-.383.374-.574.859-.574 1.456 0 .598.191 1.088.574 1.47.383.374.891.56 1.526.56s1.143-.186 1.526-.56c.383-.382.574-.872.574-1.47 0-.597-.191-1.082-.574-1.456-.383-.382-.891-.574-1.526-.574s-1.143.192-1.526.574ZM30.42 32.2h1.68c.065.29.191.546.378.77.42.513 1.017.77 1.792.77.644 0 1.153-.159 1.526-.476.383-.327.574-.728.574-1.204 0-.541-.173-.966-.518-1.274-.336-.317-.817-.476-1.442-.476h-2.38v-1.4l2.94-2.1v-.07h-4.06V25.2h6.44v1.526l-2.52 1.834-.7.28v.07l.224-.028c.308-.028.49-.042.546-.042.877 0 1.61.303 2.198.91.588.607.882 1.377.882 2.31 0 .896-.345 1.657-1.036 2.282-.69.625-1.582.938-2.674.938-1.447 0-2.515-.513-3.206-1.54a4.404 4.404 0 0 1-.644-1.54Zm8.617 2.03c0-.28.088-.513.266-.7a.933.933 0 0 1 .686-.28c.308 0 .55.112.728.336.186.224.28.555.28.994 0 .719-.173 1.27-.518 1.652-.336.392-.794.588-1.372.588v-.7c.28 0 .499-.08.658-.238a.765.765 0 0 0 .252-.602v-.084c-.01-.01-.014-.028-.014-.056v-.042l-.084.028a.726.726 0 0 1-.182.014c-.187 0-.35-.084-.49-.252-.14-.168-.21-.387-.21-.658Zm3.006-2.45c0-.448.098-.915.294-1.4.205-.495.401-.882.588-1.162.196-.29.462-.649.798-1.078l2.24-2.94h1.89l-2.114 2.758-.616.532v.07l.28-.098c.28-.075.583-.112.91-.112.914 0 1.69.331 2.324.994.644.653.966 1.465.966 2.436 0 .99-.355 1.82-1.064 2.492-.71.672-1.615 1.008-2.716 1.008-1.102 0-2.007-.336-2.716-1.008-.71-.672-1.064-1.503-1.064-2.492Zm2.254-1.456c-.383.373-.574.859-.574 1.456s.191 1.087.574 1.47c.382.373.891.56 1.526.56.634 0 1.143-.187 1.526-.56.382-.383.574-.873.574-1.47s-.192-1.083-.574-1.456c-.383-.383-.892-.574-1.526-.574-.635 0-1.144.191-1.526.574Zm6.359 1.456c0-.448.098-.915.294-1.4.205-.495.401-.882.588-1.162.196-.29.462-.649.798-1.078l2.24-2.94h1.89l-2.114 2.758-.616.532v.07l.28-.098c.28-.075.583-.112.91-.112.915 0 1.69.331 2.324.994.644.653.966 1.465.966 2.436 0 .99-.355 1.82-1.064 2.492-.71.672-1.615 1.008-2.716 1.008-1.101 0-2.007-.336-2.716-1.008-.71-.672-1.064-1.503-1.064-2.492Zm2.254-1.456c-.383.373-.574.859-.574 1.456s.191 1.087.574 1.47c.383.373.891.56 1.526.56s1.143-.187 1.526-.56c.383-.383.574-.873.574-1.47s-.191-1.083-.574-1.456c-.383-.383-.891-.574-1.526-.574s-1.143.191-1.526.574ZM64.35 148.42v-1.82l1.82-1.4h1.47v9.8h-1.61v-7.84l-1.68 1.26Zm4.691 6.58v-1.54l3.346-2.366c.728-.523 1.25-1.008 1.568-1.456.317-.448.476-.924.476-1.428 0-.532-.163-.957-.49-1.274-.327-.317-.77-.476-1.33-.476-.69 0-1.209.28-1.554.84-.15.243-.261.523-.336.84h-1.68a4.332 4.332 0 0 1 .546-1.61c.663-1.073 1.67-1.61 3.024-1.61 1.036 0 1.876.308 2.52.924.653.607.98 1.372.98 2.296a3.95 3.95 0 0 1-.616 2.17c-.41.635-1.069 1.265-1.974 1.89l-1.4.98-.63.28v.07l.84-.07h3.78V155h-7.07Zm8.193-.77c0-.28.089-.513.266-.7a.932.932 0 0 1 .686-.28c.308 0 .55.112.728.336.186.224.28.555.28.994 0 .719-.173 1.269-.518 1.652-.336.392-.794.588-1.372.588v-.7c.28 0 .5-.079.658-.238a.765.765 0 0 0 .252-.602v-.084c-.01-.009-.014-.028-.014-.056v-.042l-.084.028a.741.741 0 0 1-.182.014c-.187 0-.35-.084-.49-.252-.14-.168-.21-.387-.21-.658Zm3.006-2.45c0-.448.098-.915.294-1.4.205-.495.401-.882.588-1.162.196-.289.462-.649.798-1.078l2.24-2.94h1.89l-2.114 2.758-.616.532v.07l.28-.098c.28-.075.583-.112.91-.112.915 0 1.69.331 2.324.994.644.653.966 1.465.966 2.436 0 .989-.355 1.82-1.064 2.492-.71.672-1.615 1.008-2.716 1.008-1.101 0-2.007-.336-2.716-1.008-.71-.672-1.064-1.503-1.064-2.492Zm2.254-1.456c-.383.373-.574.859-.574 1.456s.191 1.087.574 1.47c.383.373.891.56 1.526.56s1.143-.187 1.526-.56c.383-.383.574-.873.574-1.47s-.191-1.083-.574-1.456c-.383-.383-.891-.574-1.526-.574s-1.143.191-1.526.574Zm5.312-3.584v-1.54h6.65v1.54l-3.92 8.26h-1.75l3.85-8.12v-.14h-4.83ZM174.42 262v-1.54l3.346-2.366c.728-.523 1.251-1.008 1.568-1.456.317-.448.476-.924.476-1.428 0-.532-.163-.957-.49-1.274-.327-.317-.77-.476-1.33-.476-.691 0-1.209.28-1.554.84a2.851 2.851 0 0 0-.336.84h-1.68a4.332 4.332 0 0 1 .546-1.61c.663-1.073 1.671-1.61 3.024-1.61 1.036 0 1.876.308 2.52.924.653.607.98 1.372.98 2.296 0 .803-.205 1.526-.616 2.17-.411.635-1.069 1.265-1.974 1.89l-1.4.98-.63.28v.07l.84-.07h3.78V262h-7.07Zm8.193-.77c0-.28.088-.513.266-.7a.93.93 0 0 1 .686-.28c.308 0 .55.112.728.336.186.224.28.555.28.994 0 .719-.173 1.269-.518 1.652-.336.392-.794.588-1.372.588v-.7c.28 0 .499-.079.658-.238a.765.765 0 0 0 .252-.602v-.084c-.01-.009-.014-.028-.014-.056v-.042l-.084.028a.743.743 0 0 1-.182.014c-.187 0-.35-.084-.49-.252-.14-.168-.21-.387-.21-.658Zm2.726-1.19v-1.54l3.29-6.3h1.75l-3.29 6.3h3.22v-2.38h1.61v2.38h1.4v1.54h-1.4V262h-1.61v-1.96h-4.97Zm9.939.784c-.886-.971-1.33-2.212-1.33-3.724s.444-2.753 1.33-3.724c.887-.971 1.96-1.456 3.22-1.456 1.26 0 2.334.485 3.22 1.456.887.971 1.33 2.212 1.33 3.724s-.443 2.753-1.33 3.724c-.886.971-1.96 1.456-3.22 1.456-1.26 0-2.333-.485-3.22-1.456Zm1.148-6.412c-.532.635-.798 1.531-.798 2.688 0 1.157.266 2.053.798 2.688.542.635 1.232.952 2.072.952.84 0 1.526-.317 2.058-.952.542-.635.812-1.531.812-2.688 0-1.157-.27-2.053-.812-2.688-.532-.635-1.218-.952-2.058-.952-.84 0-1.53.317-2.072.952ZM175.56 336.34c0-.849.327-1.526.98-2.03a3.16 3.16 0 0 1 .98-.448v-.084a2.568 2.568 0 0 1-.77-.462c-.513-.439-.77-1.017-.77-1.736 0-.737.313-1.363.938-1.876.635-.523 1.489-.784 2.562-.784 1.073 0 1.923.261 2.548.784.635.513.952 1.139.952 1.876 0 .7-.257 1.279-.77 1.736-.243.196-.499.35-.77.462v.084c.355.093.681.247.98.462.653.504.98 1.176.98 2.016 0 .812-.355 1.507-1.064 2.086-.7.569-1.652.854-2.856.854s-2.161-.285-2.87-.854c-.7-.579-1.05-1.274-1.05-2.086Zm2.1-4.62c0 .411.159.747.476 1.008.317.261.765.392 1.344.392.579 0 1.027-.131 1.344-.392.317-.261.476-.597.476-1.008 0-.373-.163-.686-.49-.938-.317-.261-.761-.392-1.33-.392-.569 0-1.017.131-1.344.392-.317.252-.476.565-.476.938Zm.168 3.346c-.392.308-.588.686-.588 1.134 0 .448.196.831.588 1.148.401.308.952.462 1.652.462s1.246-.154 1.638-.462c.401-.317.602-.7.602-1.148 0-.448-.201-.826-.602-1.134-.392-.317-.938-.476-1.638-.476s-1.251.159-1.652.476Zm6.687 3.164c0-.28.089-.513.266-.7a.932.932 0 0 1 .686-.28c.308 0 .551.112.728.336.187.224.28.555.28.994 0 .719-.173 1.269-.518 1.652-.336.392-.793.588-1.372.588v-.7c.28 0 .499-.079.658-.238a.765.765 0 0 0 .252-.602v-.084c-.009-.009-.014-.028-.014-.056v-.042l-.084.028a.743.743 0 0 1-.182.014c-.187 0-.35-.084-.49-.252-.14-.168-.21-.387-.21-.658Zm3.076-5.81c0-.989.355-1.82 1.064-2.492.71-.672 1.615-1.008 2.716-1.008 1.102 0 2.007.336 2.716 1.008.71.672 1.064 1.503 1.064 2.492 0 .887-.368 1.843-1.106 2.87-.074.103-.177.243-.308.42-.13.168-.219.285-.266.35l-2.24 2.94h-1.89l2.114-2.758.616-.532v-.07a6.87 6.87 0 0 1-.28.112 3.578 3.578 0 0 1-.91.098 3.164 3.164 0 0 1-2.338-.98c-.634-.663-.952-1.479-.952-2.45Zm2.254-1.456c-.382.373-.574.859-.574 1.456s.192 1.087.574 1.47c.383.373.892.56 1.526.56.635 0 1.144-.187 1.526-.56.383-.383.574-.873.574-1.47s-.191-1.083-.574-1.456c-.382-.383-.891-.574-1.526-.574-.634 0-1.143.191-1.526.574Zm7.76 6.86c-.887-.971-1.33-2.212-1.33-3.724s.443-2.753 1.33-3.724c.886-.971 1.96-1.456 3.22-1.456 1.26 0 2.333.485 3.22 1.456.886.971 1.33 2.212 1.33 3.724s-.444 2.753-1.33 3.724c-.887.971-1.96 1.456-3.22 1.456-1.26 0-2.334-.485-3.22-1.456Zm1.148-6.412c-.532.635-.798 1.531-.798 2.688 0 1.157.266 2.053.798 2.688.541.635 1.232.952 2.072.952.84 0 1.526-.317 2.058-.952.541-.635.812-1.531.812-2.688 0-1.157-.271-2.053-.812-2.688-.532-.635-1.218-.952-2.058-.952-.84 0-1.531.317-2.072.952Zm54.737 83.368c0-.448.098-.915.294-1.4.205-.495.401-.882.588-1.162.196-.289.462-.649.798-1.078l2.24-2.94h1.89l-2.114 2.758-.616.532v.07l.28-.098c.28-.075.583-.112.91-.112.915 0 1.689.331 2.324.994.644.653.966 1.465.966 2.436 0 .989-.355 1.82-1.064 2.492-.709.672-1.615 1.008-2.716 1.008-1.101 0-2.007-.336-2.716-1.008-.709-.672-1.064-1.503-1.064-2.492Zm2.254-1.456c-.383.373-.574.859-.574 1.456s.191 1.087.574 1.47c.383.373.891.56 1.526.56s1.143-.187 1.526-.56c.383-.383.574-.873.574-1.47s-.191-1.083-.574-1.456c-.383-.383-.891-.574-1.526-.574s-1.143.191-1.526.574Zm6.429 3.906c0-.28.089-.513.266-.7a.933.933 0 0 1 .686-.28c.308 0 .551.112.728.336.187.224.28.555.28.994 0 .719-.172 1.269-.518 1.652-.336.392-.793.588-1.372.588v-.7c.28 0 .5-.079.658-.238a.765.765 0 0 0 .252-.602v-.084c-.009-.009-.014-.028-.014-.056v-.042l-.084.028a.738.738 0 0 1-.182.014c-.186 0-.35-.084-.49-.252-.14-.168-.21-.387-.21-.658Zm3.076-1.96h1.68c.075.289.201.537.378.742.411.485 1.008.728 1.792.728.626 0 1.12-.168 1.484-.504.364-.336.546-.775.546-1.316 0-.569-.182-1.027-.546-1.372-.364-.345-.858-.518-1.484-.518-.578 0-1.068.154-1.47.462a1.958 1.958 0 0 0-.42.448h-1.54l.42-5.74h5.95v1.54h-4.62l-.21 2.52h.07c.15-.149.322-.275.518-.378.439-.261.966-.392 1.582-.392.98 0 1.797.327 2.45.98.654.653.98 1.47.98 2.45 0 .961-.345 1.764-1.036 2.408-.681.635-1.572.952-2.674.952-1.437 0-2.506-.499-3.206-1.498a4.436 4.436 0 0 1-.644-1.512Zm8.614 0h1.68c.074.289.2.537.378.742.41.485 1.008.728 1.792.728.625 0 1.12-.168 1.484-.504.364-.336.546-.775.546-1.316 0-.569-.182-1.027-.546-1.372-.364-.345-.859-.518-1.484-.518-.579 0-1.069.154-1.47.462a1.916 1.916 0 0 0-.42.448h-1.54l.42-5.74h5.95v1.54h-4.62l-.21 2.52h.07c.149-.149.322-.275.518-.378.438-.261.966-.392 1.582-.392.98 0 1.796.327 2.45.98.653.653.98 1.47.98 2.45 0 .961-.346 1.764-1.036 2.408-.682.635-1.573.952-2.674.952-1.438 0-2.506-.499-3.206-1.498a4.397 4.397 0 0 1-.644-1.512Zm50.277-71.53v-1.54h6.65v1.54l-3.92 8.26h-1.75l3.85-8.12v-.14h-4.83Zm6.094 7.49c0-.28.088-.513.266-.7a.93.93 0 0 1 .686-.28c.308 0 .55.112.728.336.186.224.28.555.28.994 0 .719-.173 1.269-.518 1.652-.336.392-.794.588-1.372.588v-.7c.28 0 .499-.079.658-.238a.765.765 0 0 0 .252-.602v-.084c-.01-.009-.014-.028-.014-.056v-.042l-.084.028a.743.743 0 0 1-.182.014c-.187 0-.35-.084-.49-.252-.14-.168-.21-.387-.21-.658Zm2.726-1.19v-1.54l3.29-6.3H338l-3.29 6.3h3.22v-2.38h1.61v2.38h1.4v1.54h-1.4V352h-1.61v-1.96h-4.97Zm8.399-.84h1.68c.066.289.192.546.378.77.42.513 1.018.77 1.792.77.644 0 1.153-.159 1.526-.476.383-.327.574-.728.574-1.204 0-.541-.172-.966-.518-1.274-.336-.317-.816-.476-1.442-.476h-2.38v-1.4l2.94-2.1v-.07h-4.06v-1.54h6.44v1.526l-2.52 1.834-.7.28v.07l.224-.028c.308-.028.49-.042.546-.042.878 0 1.61.303 2.198.91.588.607.882 1.377.882 2.31 0 .896-.345 1.657-1.036 2.282-.69.625-1.582.938-2.674.938-1.446 0-2.515-.513-3.206-1.54a4.425 4.425 0 0 1-.644-1.54Z" fill="#333"/><circle cx="350.5" cy="95.5" r="39.5" fill="#5A5A5A"/><path d="M324.72 99.58c0-1.092.42-1.962 1.26-2.61.36-.252.78-.444 1.26-.576v-.108a3.296 3.296 0 0 1-.99-.594c-.66-.564-.99-1.308-.99-2.232 0-.948.402-1.752 1.206-2.412.816-.672 1.914-1.008 3.294-1.008 1.38 0 2.472.336 3.276 1.008.816.66 1.224 1.464 1.224 2.412 0 .9-.33 1.644-.99 2.232-.312.252-.642.45-.99.594v.108c.456.12.876.318 1.26.594.84.648 1.26 1.512 1.26 2.592 0 1.044-.456 1.938-1.368 2.682-.9.732-2.124 1.098-3.672 1.098s-2.778-.366-3.69-1.098c-.9-.744-1.35-1.638-1.35-2.682Zm2.7-5.94c0 .528.204.96.612 1.296.408.336.984.504 1.728.504s1.32-.168 1.728-.504c.408-.336.612-.768.612-1.296 0-.48-.21-.882-.63-1.206-.408-.336-.978-.504-1.71-.504s-1.308.168-1.728.504c-.408.324-.612.726-.612 1.206Zm.216 4.302c-.504.396-.756.882-.756 1.458s.252 1.068.756 1.476c.516.396 1.224.594 2.124.594.9 0 1.602-.198 2.106-.594.516-.408.774-.9.774-1.476s-.258-1.062-.774-1.458c-.504-.408-1.206-.612-2.106-.612-.9 0-1.608.204-2.124.612Zm8.058-5.562V90.4h8.55v1.98l-5.04 10.62h-2.25l4.95-10.44v-.18h-6.21Zm7.835 9.63c0-.36.114-.66.342-.9a1.2 1.2 0 0 1 .882-.36c.396 0 .708.144.936.432.24.288.36.714.36 1.278 0 .924-.222 1.632-.666 2.124-.432.504-1.02.756-1.764.756v-.9c.36 0 .642-.102.846-.306.216-.192.324-.45.324-.774v-.108c-.012-.012-.018-.036-.018-.072v-.054l-.108.036a.932.932 0 0 1-.234.018c-.24 0-.45-.108-.63-.324-.18-.216-.27-.498-.27-.846Zm3.865-3.15c0-.576.126-1.176.378-1.8.264-.636.516-1.134.756-1.494.252-.372.594-.834 1.026-1.386l2.88-3.78h2.43l-2.718 3.546-.792.684v.09l.36-.126a4.53 4.53 0 0 1 1.17-.144c1.176 0 2.172.426 2.988 1.278.828.84 1.242 1.884 1.242 3.132 0 1.272-.456 2.34-1.368 3.204-.912.864-2.076 1.296-3.492 1.296s-2.58-.432-3.492-1.296c-.912-.864-1.368-1.932-1.368-3.204Zm2.898-1.872c-.492.48-.738 1.104-.738 1.872s.246 1.398.738 1.89c.492.48 1.146.72 1.962.72.816 0 1.47-.24 1.962-.72.492-.492.738-1.122.738-1.89 0-.768-.246-1.392-.738-1.872-.492-.492-1.146-.738-1.962-.738-.816 0-1.47.246-1.962.738Zm7.816 3.492V98.5l4.23-8.1h2.25l-4.23 8.1h4.14v-3.06h2.07v3.06h1.8v1.98h-1.8V103h-2.07v-2.52h-6.39Z" fill="#fff"/><path stroke="#5A5A5A" d="m255.25 374.567-26-15"/></svg>