<svg width="300" height="696" fill="none" xmlns="http://www.w3.org/2000/svg"><path fill="#5A5A5A" d="M48 57v30H0V57z"/><path d="m266 87 4 178H15V87h251Zm26 317v262H16V404h276Z" fill="#E7FFD5"/><path d="m257 328-2 308H16V328h241Z" fill="#E7FFD5"/><path d="M191 245v310H6V245h185Z" fill="#E7FFD5"/><path d="M16 498h24.995v24.325H16V498Z" fill="#fff" stroke="#5A5A5A" stroke-width=".5"/><path d="M38.969 498.927H19.516c-.738 0-1.13.392-1.13 1.162v20.147c0 .785.376 1.162 1.13 1.162h19.453c.753.016 1.13-.377 1.13-1.146v-20.148c.016-.785-.377-1.177-1.13-1.177Z" fill="#fff" stroke="#5A5A5A" stroke-width=".5"/><path d="M37.18 505.428c-.016 1.79-1.43 3.251-3.172 3.251-1.758 0-3.171-1.461-3.171-3.251 0-1.806 1.413-3.251 3.171-3.251 1.759 0 3.172 1.445 3.172 3.251Zm-.03 9.626c-.016 1.79-1.43 3.25-3.172 3.25-1.759 0-3.172-1.46-3.172-3.25 0-1.806 1.413-3.251 3.172-3.251 1.758-.016 3.187 1.445 3.171 3.251Zm-9.014 0c0 1.806-1.413 3.25-3.172 3.25-1.758 0-3.171-1.46-3.171-3.25.015-1.791 1.428-3.251 3.171-3.251 1.743 0 3.172 1.46 3.172 3.251Zm0-9.626c0 1.806-1.413 3.251-3.172 3.251-1.758 0-3.171-1.461-3.171-3.251.015-1.79 1.428-3.251 3.171-3.251 1.743 0 3.172 1.461 3.172 3.251Z" stroke="#5A5A5A" stroke-width=".5"/><path d="M44 461.015v24.089h23.699V461L44 461.015Z" fill="#fff" stroke="#5A5A5A" stroke-width=".5"/><path d="M45.803 467.621v13.317c0 .742.363 1.106 1.121 1.106h17.608c.727 0 1.106-.364 1.121-1.091l-.015-13.332c.015-.727-.364-1.091-1.106-1.091H46.924c-.742-.03-1.121.349-1.121 1.091Z" fill="#fff" stroke="#5A5A5A" stroke-width=".5"/><path d="M55.728 462.864c.925.015 1.667.712 1.667 1.59l-.651 6.984-.016.016c0 .53-.439.954-1 .954-.56 0-1-.424-1.015-.97l-.651-6.984c0-.863.742-1.575 1.666-1.59Z" stroke="#5A5A5A" stroke-width=".5"/><mask id="a" fill="#fff"><path fill-rule="evenodd" clip-rule="evenodd" d="m57.107 463.546-.363 3.803a.988.988 0 0 1-1.03.954.98.98 0 0 1-1-.954l-.364-3.803"/></mask><path fill-rule="evenodd" clip-rule="evenodd" d="m57.107 463.546-.363 3.803a.988.988 0 0 1-1.03.954.98.98 0 0 1-1-.954l-.364-3.803" fill="#fff"/><path d="m56.744 467.349-.5-.014v-.017l.002-.017.498.048Zm-1.03.954v-.5h.013l-.014.5Zm-1-.954.497-.048.002.017v.017l-.5.014Zm2.891-3.755-.363 3.802-.996-.095.364-3.802.995.095Zm-.361 3.769a1.488 1.488 0 0 1-1.544 1.44l.026-1c.3.008.51-.213.518-.468l1 .028Zm-1.53 1.44a1.48 1.48 0 0 1-1.5-1.44l1-.028a.48.48 0 0 0 .5.468v1Zm-1.498-1.407-.364-3.802.995-.095.364 3.802-.995.095Z" fill="#5A5A5A" mask="url(#a)"/><path d="M123.42 182v-1.54l3.346-2.366c.728-.523 1.251-1.008 1.568-1.456.317-.448.476-.924.476-1.428 0-.532-.163-.957-.49-1.274-.327-.317-.77-.476-1.33-.476-.691 0-1.209.28-1.554.84a2.851 2.851 0 0 0-.336.84h-1.68a4.332 4.332 0 0 1 .546-1.61c.663-1.073 1.671-1.61 3.024-1.61 1.036 0 1.876.308 2.52.924.653.607.98 1.372.98 2.296 0 .803-.205 1.526-.616 2.17-.411.635-1.069 1.265-1.974 1.89l-1.4.98-.63.28v.07l.84-.07h3.78V182h-7.07Zm7.773-8.26v-1.54h6.65v1.54l-3.92 8.26h-1.75l3.85-8.12v-.14h-4.83Zm6.094 7.49c0-.28.088-.513.266-.7a.93.93 0 0 1 .686-.28c.308 0 .55.112.728.336.186.224.28.555.28.994 0 .719-.173 1.269-.518 1.652-.336.392-.794.588-1.372.588v-.7c.28 0 .499-.079.658-.238a.765.765 0 0 0 .252-.602v-.084c-.01-.009-.014-.028-.014-.056v-.042l-.084.028a.743.743 0 0 1-.182.014c-.187 0-.35-.084-.49-.252-.14-.168-.21-.387-.21-.658Zm3.076-5.81c0-.989.354-1.82 1.064-2.492.709-.672 1.614-1.008 2.716-1.008 1.101 0 2.006.336 2.716 1.008.709.672 1.064 1.503 1.064 2.492 0 .887-.369 1.843-1.106 2.87l-.308.42c-.131.168-.22.285-.266.35l-2.24 2.94h-1.89l2.114-2.758.616-.532v-.07a7.65 7.65 0 0 1-.28.112 3.583 3.583 0 0 1-.91.098 3.163 3.163 0 0 1-2.338-.98c-.635-.663-.952-1.479-.952-2.45Zm2.254-1.456c-.383.373-.574.859-.574 1.456s.191 1.087.574 1.47c.382.373.891.56 1.526.56.634 0 1.143-.187 1.526-.56.382-.383.574-.873.574-1.47s-.192-1.083-.574-1.456c-.383-.383-.892-.574-1.526-.574-.635 0-1.144.191-1.526.574Zm6.289 4.816c0-.448.098-.915.294-1.4.205-.495.401-.882.588-1.162.196-.289.462-.649.798-1.078l2.24-2.94h1.89l-2.114 2.758-.616.532v.07l.28-.098c.28-.075.583-.112.91-.112.915 0 1.689.331 2.324.994.644.653.966 1.465.966 2.436 0 .989-.355 1.82-1.064 2.492-.709.672-1.615 1.008-2.716 1.008-1.101 0-2.007-.336-2.716-1.008-.709-.672-1.064-1.503-1.064-2.492Zm2.254-1.456c-.383.373-.574.859-.574 1.456s.191 1.087.574 1.47c.383.373.891.56 1.526.56s1.143-.187 1.526-.56c.383-.383.574-.873.574-1.47s-.191-1.083-.574-1.456c-.383-.383-.891-.574-1.526-.574s-1.143.191-1.526.574ZM174.42 30.2h1.68a1.8 1.8 0 0 0 .378.77c.42.513 1.017.77 1.792.77.644 0 1.153-.159 1.526-.476.383-.327.574-.728.574-1.204 0-.541-.173-.966-.518-1.274-.336-.317-.817-.476-1.442-.476h-2.38v-1.4l2.94-2.1v-.07h-4.06V23.2h6.44v1.526l-2.52 1.834-.7.28v.07l.224-.028c.308-.028.49-.042.546-.042.877 0 1.61.303 2.198.91.588.607.882 1.377.882 2.31 0 .896-.345 1.657-1.036 2.282-.691.625-1.582.938-2.674.938-1.447 0-2.515-.513-3.206-1.54a4.404 4.404 0 0 1-.644-1.54Zm8.617 2.03c0-.28.088-.513.266-.7a.931.931 0 0 1 .686-.28c.308 0 .55.112.728.336.186.224.28.555.28.994 0 .719-.173 1.27-.518 1.652-.336.392-.794.588-1.372.588v-.7c.28 0 .499-.08.658-.238a.765.765 0 0 0 .252-.602v-.084c-.01-.01-.014-.028-.014-.056v-.042l-.084.028a.728.728 0 0 1-.182.014c-.187 0-.35-.084-.49-.252-.14-.168-.21-.387-.21-.658Zm3.006-2.45c0-.448.098-.915.294-1.4.205-.495.401-.882.588-1.162.196-.29.462-.649.798-1.078l2.24-2.94h1.89l-2.114 2.758-.616.532v.07l.28-.098a3.52 3.52 0 0 1 .91-.112c.914 0 1.689.331 2.324.994.644.653.966 1.465.966 2.436 0 .99-.355 1.82-1.064 2.492-.71.672-1.615 1.008-2.716 1.008-1.102 0-2.007-.336-2.716-1.008-.71-.672-1.064-1.503-1.064-2.492Zm2.254-1.456c-.383.373-.574.859-.574 1.456s.191 1.087.574 1.47c.382.373.891.56 1.526.56.634 0 1.143-.187 1.526-.56.382-.383.574-.873.574-1.47s-.192-1.083-.574-1.456c-.383-.383-.892-.574-1.526-.574-.635 0-1.144.191-1.526.574Zm6.359 1.456c0-.448.098-.915.294-1.4.205-.495.401-.882.588-1.162.196-.29.462-.649.798-1.078l2.24-2.94h1.89l-2.114 2.758-.616.532v.07l.28-.098a3.52 3.52 0 0 1 .91-.112c.915 0 1.689.331 2.324.994.644.653.966 1.465.966 2.436 0 .99-.355 1.82-1.064 2.492-.709.672-1.615 1.008-2.716 1.008-1.101 0-2.007-.336-2.716-1.008-.709-.672-1.064-1.503-1.064-2.492Zm2.254-1.456c-.383.373-.574.859-.574 1.456s.191 1.087.574 1.47c.383.373.891.56 1.526.56s1.143-.187 1.526-.56c.383-.383.574-.873.574-1.47s-.191-1.083-.574-1.456c-.383-.383-.891-.574-1.526-.574s-1.143.191-1.526.574Z" fill="#333"/><path d="M100 281H16v107h84V281Z" fill="#FDFF9F"/><path d="M48.56 340.27h1.68c.075.289.2.537.378.742.41.485 1.008.728 1.792.728.625 0 1.12-.168 1.484-.504.364-.336.546-.775.546-1.316 0-.569-.182-1.027-.546-1.372-.364-.345-.859-.518-1.484-.518-.579 0-1.069.154-1.47.462a1.928 1.928 0 0 0-.42.448h-1.54l.42-5.74h5.95v1.54h-4.62l-.21 2.52h.07a2.13 2.13 0 0 1 .518-.378c.439-.261.966-.392 1.582-.392.98 0 1.797.327 2.45.98.653.653.98 1.47.98 2.45 0 .961-.345 1.764-1.036 2.408-.681.635-1.573.952-2.674.952-1.437 0-2.506-.499-3.206-1.498a4.417 4.417 0 0 1-.644-1.512Zm8.613 1.96c0-.28.089-.513.266-.7a.931.931 0 0 1 .686-.28c.308 0 .55.112.728.336.187.224.28.555.28.994 0 .719-.172 1.269-.518 1.652-.336.392-.793.588-1.372.588v-.7c.28 0 .5-.079.658-.238a.765.765 0 0 0 .252-.602v-.084c-.01-.009-.014-.028-.014-.056v-.042l-.084.028a.742.742 0 0 1-.182.014c-.186 0-.35-.084-.49-.252-.14-.168-.21-.387-.21-.658Zm3.076-5.81c0-.989.355-1.82 1.064-2.492.71-.672 1.615-1.008 2.716-1.008 1.102 0 2.007.336 2.717 1.008.709.672 1.064 1.503 1.064 2.492 0 .887-.37 1.843-1.106 2.87l-.308.42c-.131.168-.22.285-.267.35L63.89 343H62l2.114-2.758.617-.532v-.07a7.398 7.398 0 0 1-.28.112 3.581 3.581 0 0 1-.91.098 3.163 3.163 0 0 1-2.338-.98c-.635-.663-.953-1.479-.953-2.45Zm2.255-1.456c-.383.373-.575.859-.575 1.456s.192 1.087.575 1.47c.382.373.89.56 1.526.56.634 0 1.143-.187 1.525-.56.383-.383.574-.873.574-1.47s-.19-1.083-.574-1.456c-.382-.383-.89-.574-1.526-.574-.634 0-1.143.191-1.525.574Zm7.759 6.86c-.887-.971-1.33-2.212-1.33-3.724s.443-2.753 1.33-3.724c.886-.971 1.96-1.456 3.22-1.456 1.26 0 2.333.485 3.22 1.456.886.971 1.33 2.212 1.33 3.724s-.444 2.753-1.33 3.724c-.887.971-1.96 1.456-3.22 1.456-1.26 0-2.334-.485-3.22-1.456Zm1.148-6.412c-.532.635-.798 1.531-.798 2.688 0 1.157.266 2.053.798 2.688.541.635 1.232.952 2.072.952.84 0 1.526-.317 2.058-.952.541-.635.812-1.531.812-2.688 0-1.157-.27-2.053-.812-2.688-.532-.635-1.218-.952-2.058-.952-.84 0-1.53.317-2.072.952Z" fill="#333"/><path d="M100 391H16v63h84v-63Z" fill="#FDFF9F"/><path d="M60.42 431v-1.54l3.346-2.366c.728-.523 1.25-1.008 1.568-1.456.317-.448.476-.924.476-1.428 0-.532-.163-.957-.49-1.274-.327-.317-.77-.476-1.33-.476-.69 0-1.209.28-1.554.84-.15.243-.261.523-.336.84h-1.68a4.332 4.332 0 0 1 .546-1.61c.663-1.073 1.67-1.61 3.024-1.61 1.036 0 1.876.308 2.52.924.653.607.98 1.372.98 2.296a3.95 3.95 0 0 1-.616 2.17c-.41.635-1.069 1.265-1.974 1.89l-1.4.98-.63.28v.07l.84-.07h3.78V431h-7.07Zm8.193-.77c0-.28.088-.513.266-.7a.932.932 0 0 1 .686-.28c.308 0 .55.112.728.336.186.224.28.555.28.994 0 .719-.173 1.269-.518 1.652-.336.392-.794.588-1.372.588v-.7c.28 0 .5-.079.658-.238a.765.765 0 0 0 .252-.602v-.084c-.01-.009-.014-.028-.014-.056v-.042l-.084.028a.741.741 0 0 1-.182.014c-.187 0-.35-.084-.49-.252-.14-.168-.21-.387-.21-.658Zm3.076-5.81c0-.989.355-1.82 1.064-2.492.71-.672 1.615-1.008 2.716-1.008 1.101 0 2.007.336 2.716 1.008.71.672 1.064 1.503 1.064 2.492 0 .887-.369 1.843-1.106 2.87l-.308.42c-.13.168-.22.285-.266.35l-2.24 2.94h-1.89l2.114-2.758.616-.532v-.07a7.398 7.398 0 0 1-.28.112 3.581 3.581 0 0 1-.91.098 3.163 3.163 0 0 1-2.338-.98c-.635-.663-.952-1.479-.952-2.45Zm2.254-1.456c-.383.373-.574.859-.574 1.456s.191 1.087.574 1.47c.383.373.891.56 1.526.56s1.143-.187 1.526-.56c.383-.383.574-.873.574-1.47s-.191-1.083-.574-1.456c-.383-.383-.891-.574-1.526-.574s-1.143.191-1.526.574Zm6.15 1.456v-1.82l1.82-1.4h1.47v9.8h-1.61v-7.84l-1.68 1.26Zm150.257-1v-1.82l1.82-1.4h1.47v9.8h-1.61v-7.84l-1.68 1.26Zm4.481 4.62v-1.54l3.29-6.3h1.75l-3.29 6.3h3.22v-2.38h1.61v2.38h1.4v1.54h-1.4V430h-1.61v-1.96h-4.97Zm8.54 1.19c0-.28.088-.513.266-.7a.93.93 0 0 1 .686-.28c.308 0 .55.112.728.336.186.224.28.555.28.994 0 .719-.173 1.269-.518 1.652-.336.392-.794.588-1.372.588v-.7c.28 0 .499-.079.658-.238a.765.765 0 0 0 .252-.602v-.084c-.01-.009-.014-.028-.014-.056v-.042l-.084.028a.743.743 0 0 1-.182.014c-.187 0-.35-.084-.49-.252-.14-.168-.21-.387-.21-.658Zm2.656-7.49v-1.54h6.65v1.54l-3.92 8.26h-1.75l3.85-8.12v-.14h-4.83Zm7.488 1.68c0-.989.355-1.82 1.064-2.492.709-.672 1.615-1.008 2.716-1.008 1.101 0 2.007.336 2.716 1.008.709.672 1.064 1.503 1.064 2.492 0 .887-.369 1.843-1.106 2.87l-.308.42a13.42 13.42 0 0 0-.266.35l-2.24 2.94h-1.89l2.114-2.758.616-.532v-.07a7.65 7.65 0 0 1-.28.112 3.583 3.583 0 0 1-.91.098 3.163 3.163 0 0 1-2.338-.98c-.635-.663-.952-1.479-.952-2.45Zm2.254-1.456c-.383.373-.574.859-.574 1.456s.191 1.087.574 1.47c.383.373.891.56 1.526.56s1.143-.187 1.526-.56c.383-.383.574-.873.574-1.47s-.191-1.083-.574-1.456c-.383-.383-.891-.574-1.526-.574s-1.143.191-1.526.574ZM148.42 600v-1.54l3.346-2.366c.728-.523 1.251-1.008 1.568-1.456.317-.448.476-.924.476-1.428 0-.532-.163-.957-.49-1.274-.327-.317-.77-.476-1.33-.476-.691 0-1.209.28-1.554.84a2.851 2.851 0 0 0-.336.84h-1.68a4.332 4.332 0 0 1 .546-1.61c.663-1.073 1.671-1.61 3.024-1.61 1.036 0 1.876.308 2.52.924.653.607.98 1.372.98 2.296 0 .803-.205 1.526-.616 2.17-.411.635-1.069 1.265-1.974 1.89l-1.4.98-.63.28v.07l.84-.07h3.78V600h-7.07Zm8.193-2.66c0-.849.326-1.526.98-2.03a3.15 3.15 0 0 1 .98-.448v-.084a2.556 2.556 0 0 1-.77-.462c-.514-.439-.77-1.017-.77-1.736 0-.737.312-1.363.938-1.876.634-.523 1.488-.784 2.562-.784 1.073 0 1.922.261 2.548.784.634.513.952 1.139.952 1.876 0 .7-.257 1.279-.77 1.736-.243.196-.5.35-.77.462v.084c.354.093.681.247.98.462.653.504.98 1.176.98 2.016 0 .812-.355 1.507-1.064 2.086-.7.569-1.652.854-2.856.854s-2.161-.285-2.87-.854c-.7-.579-1.05-1.274-1.05-2.086Zm2.1-4.62c0 .411.158.747.476 1.008.317.261.765.392 1.344.392.578 0 1.026-.131 1.344-.392.317-.261.476-.597.476-1.008 0-.373-.164-.686-.49-.938-.318-.261-.761-.392-1.33-.392-.57 0-1.018.131-1.344.392-.318.252-.476.565-.476.938Zm.168 3.346c-.392.308-.588.686-.588 1.134 0 .448.196.831.588 1.148.401.308.952.462 1.652.462s1.246-.154 1.638-.462c.401-.317.602-.7.602-1.148 0-.448-.201-.826-.602-1.134-.392-.317-.938-.476-1.638-.476s-1.251.159-1.652.476Zm6.687 3.164c0-.28.088-.513.266-.7a.93.93 0 0 1 .686-.28c.308 0 .55.112.728.336.186.224.28.555.28.994 0 .719-.173 1.269-.518 1.652-.336.392-.794.588-1.372.588v-.7c.28 0 .499-.079.658-.238a.765.765 0 0 0 .252-.602v-.084c-.01-.009-.014-.028-.014-.056v-.042l-.084.028a.743.743 0 0 1-.182.014c-.187 0-.35-.084-.49-.252-.14-.168-.21-.387-.21-.658Zm3.006-2.45c0-.448.098-.915.294-1.4.205-.495.401-.882.588-1.162.196-.289.462-.649.798-1.078l2.24-2.94h1.89l-2.114 2.758-.616.532v.07l.28-.098c.28-.075.583-.112.91-.112.915 0 1.689.331 2.324.994.644.653.966 1.465.966 2.436 0 .989-.355 1.82-1.064 2.492-.709.672-1.615 1.008-2.716 1.008-1.101 0-2.007-.336-2.716-1.008-.709-.672-1.064-1.503-1.064-2.492Zm2.254-1.456c-.383.373-.574.859-.574 1.456s.191 1.087.574 1.47c.383.373.891.56 1.526.56s1.143-.187 1.526-.56c.383-.383.574-.873.574-1.47s-.191-1.083-.574-1.456c-.383-.383-.891-.574-1.526-.574s-1.143.191-1.526.574Zm6.429-1.904c0-.989.355-1.82 1.064-2.492.71-.672 1.615-1.008 2.716-1.008 1.102 0 2.007.336 2.716 1.008.71.672 1.064 1.503 1.064 2.492 0 .887-.368 1.843-1.106 2.87-.074.103-.177.243-.308.42-.13.168-.219.285-.266.35l-2.24 2.94h-1.89l2.114-2.758.616-.532v-.07a6.87 6.87 0 0 1-.28.112 3.578 3.578 0 0 1-.91.098 3.164 3.164 0 0 1-2.338-.98c-.634-.663-.952-1.479-.952-2.45Zm2.254-1.456c-.382.373-.574.859-.574 1.456s.192 1.087.574 1.47c.383.373.892.56 1.526.56.635 0 1.144-.187 1.526-.56.383-.383.574-.873.574-1.47s-.191-1.083-.574-1.456c-.382-.383-.891-.574-1.526-.574-.634 0-1.143.191-1.526.574ZM57.49 530.78c0-.448.098-.915.294-1.4.205-.495.401-.882.588-1.162.196-.289.462-.649.798-1.078l2.24-2.94h1.89l-2.114 2.758-.616.532v.07l.28-.098c.28-.075.583-.112.91-.112.915 0 1.69.331 2.324.994.644.653.966 1.465.966 2.436 0 .989-.355 1.82-1.064 2.492-.71.672-1.615 1.008-2.716 1.008-1.101 0-2.007-.336-2.716-1.008-.71-.672-1.064-1.503-1.064-2.492Zm2.254-1.456c-.383.373-.574.859-.574 1.456s.191 1.087.574 1.47c.383.373.891.56 1.526.56s1.143-.187 1.526-.56c.383-.383.574-.873.574-1.47s-.191-1.083-.574-1.456c-.383-.383-.891-.574-1.526-.574s-1.143.191-1.526.574Zm6.43 3.906c0-.28.088-.513.265-.7a.931.931 0 0 1 .686-.28c.308 0 .55.112.728.336.187.224.28.555.28.994 0 .719-.172 1.269-.518 1.652-.336.392-.793.588-1.372.588v-.7c.28 0 .5-.079.658-.238a.765.765 0 0 0 .252-.602v-.084c-.01-.009-.014-.028-.014-.056v-.042l-.084.028a.742.742 0 0 1-.182.014c-.186 0-.35-.084-.49-.252-.14-.168-.21-.387-.21-.658Zm4.475-.406c-.886-.971-1.33-2.212-1.33-3.724s.444-2.753 1.33-3.724c.887-.971 1.96-1.456 3.22-1.456 1.26 0 2.334.485 3.22 1.456.887.971 1.33 2.212 1.33 3.724s-.443 2.753-1.33 3.724c-.886.971-1.96 1.456-3.22 1.456-1.26 0-2.333-.485-3.22-1.456Zm1.148-6.412c-.531.635-.797 1.531-.797 2.688 0 1.157.266 2.053.797 2.688.542.635 1.233.952 2.073.952.84 0 1.525-.317 2.057-.952.542-.635.813-1.531.813-2.688 0-1.157-.271-2.053-.813-2.688-.532-.635-1.218-.952-2.058-.952-.84 0-1.53.317-2.072.952Zm9.216 6.412c-.887-.971-1.33-2.212-1.33-3.724s.443-2.753 1.33-3.724c.886-.971 1.96-1.456 3.22-1.456 1.26 0 2.333.485 3.22 1.456.886.971 1.33 2.212 1.33 3.724s-.444 2.753-1.33 3.724c-.887.971-1.96 1.456-3.22 1.456-1.26 0-2.334-.485-3.22-1.456Zm1.148-6.412c-.532.635-.798 1.531-.798 2.688 0 1.157.266 2.053.798 2.688.541.635 1.232.952 2.072.952.84 0 1.526-.317 2.058-.952.541-.635.812-1.531.812-2.688 0-1.157-.27-2.053-.812-2.688-.532-.635-1.218-.952-2.058-.952-.84 0-1.53.317-2.072.952ZM210.35 328.58v1.82l1.82 1.4h1.47V322h-1.61v7.84l-1.68-1.26Zm4.411 1.68v1.54h6.65v-1.54l-3.92-8.26h-1.75l3.85 8.12v.14h-4.83Zm6.094-7.49c0 .28.089.513.266.7.187.187.415.28.686.28.308 0 .551-.112.728-.336.187-.224.28-.555.28-.994 0-.719-.173-1.269-.518-1.652-.336-.392-.793-.588-1.372-.588v.7c.28 0 .499.079.658.238.168.149.252.35.252.602v.084c-.009.009-.014.028-.014.056v.042l-.084-.028a.743.743 0 0 0-.182-.014c-.187 0-.35.084-.49.252-.14.168-.21.387-.21.658Zm3.076 1.89c0 .849.327 1.526.98 2.03.28.196.607.345.98.448v.084a2.568 2.568 0 0 0-.77.462c-.513.439-.77 1.017-.77 1.736 0 .737.313 1.363.938 1.876.635.523 1.489.784 2.562.784 1.073 0 1.923-.261 2.548-.784.635-.513.952-1.139.952-1.876 0-.7-.257-1.279-.77-1.736a3.125 3.125 0 0 0-.77-.462v-.084a2.94 2.94 0 0 0 .98-.462c.653-.504.98-1.176.98-2.016 0-.812-.355-1.507-1.064-2.086-.7-.569-1.652-.854-2.856-.854s-2.161.285-2.87.854c-.7.579-1.05 1.274-1.05 2.086Zm2.1 4.62c0-.411.159-.747.476-1.008.317-.261.765-.392 1.344-.392.579 0 1.027.131 1.344.392.317.261.476.597.476 1.008 0 .373-.163.686-.49.938-.317.261-.761.392-1.33.392-.569 0-1.017-.131-1.344-.392-.317-.252-.476-.565-.476-.938Zm.168-3.346c-.392-.308-.588-.686-.588-1.134 0-.448.196-.831.588-1.148.401-.308.952-.462 1.652-.462s1.246.154 1.638.462c.401.317.602.7.602 1.148 0 .448-.201.826-.602 1.134-.392.317-.938.476-1.638.476s-1.251-.159-1.652-.476Zm6.547-1.134h1.68c.066-.289.192-.546.378-.77.42-.513 1.018-.77 1.792-.77.644 0 1.153.159 1.526.476.383.327.574.728.574 1.204 0 .541-.172.966-.518 1.274-.336.317-.816.476-1.442.476h-2.38v1.4l2.94 2.1v.07h-4.06v1.54h6.44v-1.526l-2.52-1.834-.7-.28v-.07l.224.028c.308.028.49.042.546.042.878 0 1.61-.303 2.198-.91.588-.607.882-1.377.882-2.31 0-.896-.345-1.657-1.036-2.282-.69-.625-1.582-.938-2.674-.938-1.446 0-2.515.513-3.206 1.54a4.425 4.425 0 0 0-.644 1.54Zm45.394 228.94v-1.54h6.65v1.54l-3.92 8.26h-1.75l3.85-8.12v-.14h-4.83Zm6.094 7.49c0-.28.088-.513.266-.7a.934.934 0 0 1 .686-.28c.308 0 .55.112.728.336.186.224.28.556.28.994 0 .719-.173 1.27-.518 1.652-.336.392-.794.588-1.372.588v-.7c.28 0 .499-.079.658-.238a.765.765 0 0 0 .252-.602v-.084c-.01-.009-.014-.028-.014-.056v-.042l-.084.028a.694.694 0 0 1-.182.014c-.187 0-.35-.084-.49-.252-.14-.168-.21-.387-.21-.658Zm2.866-5.81v-1.82l1.82-1.4h1.47v9.8h-1.61v-7.84l-1.68 1.26Zm4.761 3.36c0-.448.098-.914.294-1.4.205-.494.401-.882.588-1.162.196-.289.462-.648.798-1.078l2.24-2.94h1.89l-2.114 2.758-.616.532v.07l.28-.098a3.55 3.55 0 0 1 .91-.112c.915 0 1.689.332 2.324.994.644.654.966 1.466.966 2.436 0 .99-.355 1.82-1.064 2.492-.709.672-1.615 1.008-2.716 1.008-1.101 0-2.007-.336-2.716-1.008-.709-.672-1.064-1.502-1.064-2.492Zm2.254-1.456c-.383.374-.574.859-.574 1.456 0 .598.191 1.088.574 1.47.383.374.891.56 1.526.56s1.143-.186 1.526-.56c.383-.382.574-.872.574-1.47 0-.597-.191-1.082-.574-1.456-.383-.382-.891-.574-1.526-.574s-1.143.192-1.526.574Z" fill="#333"/><path fill="#5A5A5A" d="M53 666v30H0v-30z"/><path fill="#5A5A5A" d="M0 82h16v592H0zm108 183v16H16v-16z"/><path d="m35.483 364.693-1.18-.017-3.067.017h-7.591v-9.957h11.838c3.017 0 5.476 2.243 5.476 4.995 0 2.718-2.46 4.962-5.476 4.962Z" fill="#fff" stroke="#5A5A5A" stroke-width=".5"/><path d="M35.417 363.547h-8.493v-7.681h7.559l.934.016c2.378 0 4.313 1.703 4.313 3.832-.017 2.113-1.952 3.833-4.313 3.833Zm-18.134-10.613h5.263c.607 0 1.099.492 1.099 1.097v11.284c0 .606-.492 1.098-1.099 1.098h-5.263a1.099 1.099 0 0 1-1.099-1.098v-11.267c0-.622.492-1.114 1.099-1.114Z" fill="#fff" stroke="#5A5A5A" stroke-width=".5"/><path d="M19.907 359.027c.41 0 .721.294.721.638.017.361-.311.655-.721.655s-.721-.294-.721-.638a.683.683 0 0 1 .721-.655Zm-2.253-36.759h12.308c.855 0 1.54.683 1.54 1.538v18.519c0 .855-.685 1.539-1.54 1.539H17.654c-.856 0-1.54-.684-1.54-1.539v-18.519c0-.84.684-1.538 1.54-1.538Z" fill="#fff" stroke="#5A5A5A" stroke-width=".5"/><path d="M22.345 324.191h1.897a4.52 4.52 0 0 1 4.521 4.515v8.719a4.52 4.52 0 0 1-4.52 4.516h-1.898a4.52 4.52 0 0 1-4.52-4.516v-8.719a4.52 4.52 0 0 1 4.52-4.515Z" fill="#fff" stroke="#5A5A5A" stroke-width=".5"/><path d="M20.235 332.111c.543 0 .984.427.984.954 0 .527-.44.955-.984.955-.543 0-.984-.428-.984-.955 0-.527.44-.954.984-.954Zm-2.783-24.542h60.12a1.38 1.38 0 0 0 1.387-1.384v-23.867a1.38 1.38 0 0 0-1.386-1.384h-60.12a1.38 1.38 0 0 0-1.387 1.384v23.867c0 .769.63 1.384 1.386 1.384Z" fill="#fff" stroke="#5A5A5A" stroke-width=".5"/><path d="M75.263 297.488v-6.487a6.798 6.798 0 0 0-6.803-6.796H21.12a1.66 1.66 0 0 0-1.666 1.664v16.778a1.66 1.66 0 0 0 1.666 1.664h47.327c3.765-.014 6.816-3.062 6.816-6.823Z" fill="#fff" stroke="#5A5A5A" stroke-width=".5"/><path d="M25.067 294.72c0 .749-.633 1.356-1.414 1.356-.78 0-1.414-.607-1.414-1.356 0-.749.633-1.356 1.414-1.356.78 0 1.414.607 1.414 1.356Zm57.521 68.256v22.01L61 385l.014-22.01 21.574-.014Z" fill="#fff" stroke="#5A5A5A" stroke-width=".5"/><path d="M66.257 373.995c0 3.114 2.475 5.628 5.536 5.628 3.063 0 5.537-2.514 5.537-5.642 0-3.114-2.474-5.656-5.537-5.656-3.061.014-5.536 2.556-5.536 5.67Z" stroke="#5A5A5A" stroke-width=".5"/><path d="M71.794 369.875a3.874 3.874 0 0 0-2.852 1.201 4.266 4.266 0 0 0-1.189 2.905m4.027 4.134a4.033 4.033 0 0 1-2.852-1.201 4.186 4.186 0 0 1-1.189-2.919l4.04 4.12Zm.014-8.24c1.104 0 2.111.461 2.852 1.201a4.2 4.2 0 0 1 1.175 2.919l-4.027-4.12Zm-.014 8.24c1.132 0 2.14-.461 2.852-1.201l.014-.014a4.167 4.167 0 0 0 1.175-2.891l-4.041 4.106Z" stroke="#5A5A5A" stroke-width=".5"/><path fill="#5A5A5A" d="M108 317h-8v-49h8zm-96 76v-8h96v8z"/><path fill="#5A5A5A" d="M59 273v-8h58v8zm118 0v-8h58v8zm96 126h-16v-16h16zm0-53h-16v-21h16zm-173 2h8v55h-8zm0 88h8v12h-8z"/><path fill="#5A5A5A" d="M273 265v16h-87v-16z"/><path d="m202.75 265.25-41.041.025-.012 1.475h41.053v-1.5Zm-68.444 0-41.041.025-.013 1.475h41.054v-1.5Zm34.222-2-41.04.025-.013 1.475h41.053v-1.5Z" stroke="#5A5A5A" stroke-width=".5" stroke-miterlimit="10"/><path fill="#5A5A5A" d="M273 281h-16V57h16zM118 445v16H16v-16zm180-52v16h-46v-16zm0 52v16h-91v-16zm-96-110h-16v-66h16z"/><path fill="#5A5A5A" d="M273 319v16h-82v-16z"/><circle cx="168.5" cy="376.5" r="39.5" fill="#5A5A5A"/><path d="M138.72 380.58c0-1.092.42-1.962 1.26-2.61.36-.252.78-.444 1.26-.576v-.108a3.296 3.296 0 0 1-.99-.594c-.66-.564-.99-1.308-.99-2.232 0-.948.402-1.752 1.206-2.412.816-.672 1.914-1.008 3.294-1.008 1.38 0 2.472.336 3.276 1.008.816.66 1.224 1.464 1.224 2.412 0 .9-.33 1.644-.99 2.232-.312.252-.642.45-.99.594v.108c.456.12.876.318 1.26.594.84.648 1.26 1.512 1.26 2.592 0 1.044-.456 1.938-1.368 2.682-.9.732-2.124 1.098-3.672 1.098s-2.778-.366-3.69-1.098c-.9-.744-1.35-1.638-1.35-2.682Zm2.7-5.94c0 .528.204.96.612 1.296.408.336.984.504 1.728.504s1.32-.168 1.728-.504c.408-.336.612-.768.612-1.296 0-.48-.21-.882-.63-1.206-.408-.336-.978-.504-1.71-.504s-1.308.168-1.728.504c-.408.324-.612.726-.612 1.206Zm.216 4.302c-.504.396-.756.882-.756 1.458s.252 1.068.756 1.476c.516.396 1.224.594 2.124.594.9 0 1.602-.198 2.106-.594.516-.408.774-.9.774-1.476s-.258-1.062-.774-1.458c-.504-.408-1.206-.612-2.106-.612-.9 0-1.608.204-2.124.612Zm8.508.918c0-.576.126-1.176.378-1.8.264-.636.516-1.134.756-1.494.252-.372.594-.834 1.026-1.386l2.88-3.78h2.43l-2.718 3.546-.792.684v.09l.36-.126a4.53 4.53 0 0 1 1.17-.144c1.176 0 2.172.426 2.988 1.278.828.84 1.242 1.884 1.242 3.132 0 1.272-.456 2.34-1.368 3.204-.912.864-2.076 1.296-3.492 1.296s-2.58-.432-3.492-1.296c-.912-.864-1.368-1.932-1.368-3.204Zm2.898-1.872c-.492.48-.738 1.104-.738 1.872s.246 1.398.738 1.89c.492.48 1.146.72 1.962.72.816 0 1.47-.24 1.962-.72.492-.492.738-1.122.738-1.89 0-.768-.246-1.392-.738-1.872-.492-.492-1.146-.738-1.962-.738-.816 0-1.47.246-1.962.738Zm8.266 5.022c0-.36.114-.66.342-.9a1.2 1.2 0 0 1 .882-.36c.396 0 .708.144.936.432.24.288.36.714.36 1.278 0 .924-.222 1.632-.666 2.124-.432.504-1.02.756-1.764.756v-.9c.36 0 .642-.102.846-.306.216-.192.324-.45.324-.774v-.108c-.012-.012-.018-.036-.018-.072v-.054l-.108.036a.932.932 0 0 1-.234.018c-.24 0-.45-.108-.63-.324-.18-.216-.27-.498-.27-.846Zm3.775.99v-1.98l4.302-3.042c.936-.672 1.608-1.296 2.016-1.872.408-.576.612-1.188.612-1.836 0-.684-.21-1.23-.63-1.638-.42-.408-.99-.612-1.71-.612-.888 0-1.554.36-1.998 1.08a3.633 3.633 0 0 0-.432 1.08h-2.16a5.567 5.567 0 0 1 .702-2.07c.852-1.38 2.148-2.07 3.888-2.07 1.332 0 2.412.396 3.24 1.188.84.78 1.26 1.764 1.26 2.952 0 1.032-.264 1.962-.792 2.79-.528.816-1.374 1.626-2.538 2.43l-1.8 1.26-.81.36v.09l1.08-.09h4.86V384h-9.09Zm10.533-3.51h2.16c.096.372.258.69.486.954.528.624 1.296.936 2.304.936.804 0 1.44-.216 1.908-.648.468-.432.702-.996.702-1.692 0-.732-.234-1.32-.702-1.764-.468-.444-1.104-.666-1.908-.666-.744 0-1.374.198-1.89.594a2.481 2.481 0 0 0-.54.576h-1.98l.54-7.38h7.65v1.98h-5.94l-.27 3.24h.09c.192-.192.414-.354.666-.486.564-.336 1.242-.504 2.034-.504 1.26 0 2.31.42 3.15 1.26.84.84 1.26 1.89 1.26 3.15 0 1.236-.444 2.268-1.332 3.096-.876.816-2.022 1.224-3.438 1.224-1.848 0-3.222-.642-4.122-1.926a5.672 5.672 0 0 1-.828-1.944Z" fill="#fff"/><path fill="#5A5A5A" d="M170 445v16h-17v-16zm128 251h-16V393h16zm-112-30v30h-69v-30z"/><path fill="#5A5A5A" d="M298 666v30h-42v-30zM157 57v30h-45V57zm116 0v30h-56V57z"/><path d="m152.25.25 81.468.063.03 4.437H152.25V.25Z" stroke="#5A5A5A" stroke-width=".5" stroke-miterlimit="10"/><path fill="#5A5A5A" d="M136 3h-5v76h5zm109-3h-5v79h5z"/><path fill="#5A5A5A" d="M143 0v5h98V0zm-12 0v5h12V0z"/><path d="m127.25 71.75 60.476-.063.023-4.437H127.25v4.5Zm0-10 60.476-.063.023-4.437H127.25v4.5Z" stroke="#5A5A5A" stroke-width=".5" stroke-miterlimit="10"/><path stroke="#5A5A5A" d="m220.255 72.43-27 16"/><path d="m296.75 666.251-246.4.151-.098 11.348H296.75v-11.499Zm-144-609.001-136.445.152-.054 11.348H152.75v-11.5Zm144 627.001-246.4.151-.098 11.348H296.75v-11.499Zm-144-609.001-136.445.152-.054 11.348H152.75v-11.5Z" stroke="#5A5A5A" stroke-width=".5" stroke-miterlimit="10"/><path stroke="#5A5A5A" d="m106.465 313.816 15 38m-14.912 85.96 16-32m51.699 20.792 36 21m-36-21 36 21m-60.504-21-36 21m154.796-56.774 19-42"/><path d="m35.298 429.759-1.18-.017-3.066.017H23.46v-9.957h11.837c3.017 0 5.476 2.243 5.476 4.995 0 2.718-2.459 4.962-5.476 4.962Z" fill="#fff" stroke="#5A5A5A" stroke-width=".5"/><path d="M35.233 428.613H26.74v-7.681h7.558l.935.016c2.377 0 4.312 1.703 4.312 3.832-.017 2.113-1.951 3.833-4.312 3.833ZM17.098 418h5.263c.607 0 1.099.491 1.099 1.097v11.284c0 .606-.492 1.098-1.099 1.098h-5.263A1.099 1.099 0 0 1 16 430.381v-11.267c0-.623.492-1.114 1.098-1.114Z" fill="#fff" stroke="#5A5A5A" stroke-width=".5"/><path d="M19.722 424.092c.41 0 .722.295.722.639.016.36-.312.655-.722.655s-.721-.295-.721-.638a.684.684 0 0 1 .721-.656Zm62.423-29.552v12.308c0 .856-.683 1.541-1.538 1.541h-18.52a1.533 1.533 0 0 1-1.538-1.541V394.54c0-.855.684-1.54 1.538-1.54h18.52c.84 0 1.538.685 1.538 1.54Z" fill="#fff" stroke="#5A5A5A" stroke-width=".5"/><path d="M80.222 399.232v1.897a4.52 4.52 0 0 1-4.516 4.521h-8.719a4.52 4.52 0 0 1-4.515-4.521v-1.897a4.52 4.52 0 0 1 4.515-4.521h8.719a4.52 4.52 0 0 1 4.516 4.521Z" fill="#fff" stroke="#5A5A5A" stroke-width=".5"/><path d="M72.301 397.122c0 .543-.427.984-.954.984-.527 0-.954-.441-.954-.984 0-.544.427-.984.954-.984.527 0 .954.44.954.984Z" fill="#fff" stroke="#5A5A5A" stroke-width=".5"/><path fill="#5A5A5A" d="M111 538h-2v-11h2zm0 17h-2v-11h2zm-10.5 6.5v-2h11v2zm-17 0v-2h11v2zm-17 0v-2h11v2zm-17 0v-2h11v2zm-17 0v-2h11v2zm-17 0v-2h11v2zM111 521h-2v-11h2zm0-17h-2v-11h2zm0-17h-2v-11h2zm0-17h-2v-11h2z"/></svg>