<svg width="490" height="389" fill="none" xmlns="http://www.w3.org/2000/svg"><path d="M219 82v246H0V82h219Z" fill="#FFF8BA"/><path d="M460 82v217H170V82h290Z" fill="#FFF8BA"/><path d="M42.49 207.78c0-.448.098-.915.294-1.4.205-.495.401-.882.588-1.162.196-.289.462-.649.798-1.078l2.24-2.94h1.89l-2.114 2.758-.616.532v.07l.28-.098c.28-.075.583-.112.91-.112.915 0 1.69.331 2.324.994.644.653.966 1.465.966 2.436 0 .989-.355 1.82-1.064 2.492-.71.672-1.615 1.008-2.716 1.008-1.101 0-2.007-.336-2.716-1.008-.71-.672-1.064-1.503-1.064-2.492Zm2.254-1.456c-.383.373-.574.859-.574 1.456s.191 1.087.574 1.47c.383.373.891.56 1.526.56s1.143-.187 1.526-.56c.383-.383.574-.873.574-1.47s-.191-1.083-.574-1.456c-.383-.383-.891-.574-1.526-.574s-1.143.191-1.526.574Zm6.43 3.906c0-.28.088-.513.265-.7a.931.931 0 0 1 .686-.28c.308 0 .55.112.728.336.187.224.28.555.28.994 0 .719-.172 1.269-.518 1.652-.336.392-.793.588-1.372.588v-.7c.28 0 .5-.079.658-.238a.765.765 0 0 0 .252-.602v-.084c-.01-.009-.014-.028-.014-.056v-.042l-.084.028a.742.742 0 0 1-.182.014c-.186 0-.35-.084-.49-.252-.14-.168-.21-.387-.21-.658Zm2.726-1.19v-1.54l3.29-6.3h1.75l-3.29 6.3h3.22v-2.38h1.61v2.38h1.4v1.54h-1.4V211h-1.61v-1.96H53.9Zm8.399 1.96v-1.54l3.346-2.366c.728-.523 1.25-1.008 1.568-1.456.317-.448.476-.924.476-1.428 0-.532-.163-.957-.49-1.274-.327-.317-.77-.476-1.33-.476-.69 0-1.209.28-1.554.84-.15.243-.261.523-.336.84h-1.68a4.332 4.332 0 0 1 .546-1.61c.663-1.073 1.67-1.61 3.024-1.61 1.036 0 1.876.308 2.52.924.653.607.98 1.372.98 2.296a3.95 3.95 0 0 1-.616 2.17c-.41.635-1.069 1.265-1.974 1.89l-1.4.98-.63.28v.07l.84-.07h3.78V211h-7.07ZM191.21 35.04V33.5l3.29-6.3h1.75l-3.29 6.3h3.22v-2.38h1.61v2.38h1.4v1.54h-1.4V37h-1.61v-1.96h-4.97Zm8.539 1.19c0-.28.089-.513.266-.7a.934.934 0 0 1 .686-.28c.308 0 .551.112.728.336.187.224.28.555.28.994 0 .719-.172 1.27-.518 1.652-.336.392-.793.588-1.372.588v-.7c.28 0 .5-.08.658-.238a.765.765 0 0 0 .252-.602v-.084c-.009-.01-.014-.028-.014-.056v-.042l-.084.028a.722.722 0 0 1-.182.014c-.186 0-.35-.084-.49-.252-.14-.168-.21-.387-.21-.658Zm2.657-7.49V27.2h6.65v1.54l-3.92 8.26h-1.75l3.85-8.12v-.14h-4.83Zm7.145 5.04c0-.448.098-.915.294-1.4.205-.495.401-.882.588-1.162.196-.29.462-.649.798-1.078l2.24-2.94h1.89l-2.114 2.758-.616.532v.07l.28-.098a3.52 3.52 0 0 1 .91-.112c.914 0 1.689.331 2.324.994.644.653.966 1.465.966 2.436 0 .99-.355 1.82-1.064 2.492-.71.672-1.615 1.008-2.716 1.008-1.102 0-2.007-.336-2.716-1.008-.71-.672-1.064-1.503-1.064-2.492Zm2.254-1.456c-.383.373-.574.859-.574 1.456s.191 1.087.574 1.47c.382.373.891.56 1.526.56.634 0 1.143-.187 1.526-.56.382-.383.574-.873.574-1.47s-.192-1.083-.574-1.456c-.383-.383-.892-.574-1.526-.574-.635 0-1.144.191-1.526.574ZM392.42 34.2h1.68a1.8 1.8 0 0 0 .378.77c.42.513 1.017.77 1.792.77.644 0 1.153-.159 1.526-.476.383-.327.574-.728.574-1.204 0-.541-.173-.966-.518-1.274-.336-.317-.817-.476-1.442-.476h-2.38v-1.4l2.94-2.1v-.07h-4.06V27.2h6.44v1.526l-2.52 1.834-.7.28v.07l.224-.028c.308-.028.49-.042.546-.042.877 0 1.61.303 2.198.91.588.607.882 1.377.882 2.31 0 .896-.345 1.657-1.036 2.282-.691.625-1.582.938-2.674.938-1.447 0-2.515-.513-3.206-1.54a4.404 4.404 0 0 1-.644-1.54Zm8.617 2.03c0-.28.088-.513.266-.7a.931.931 0 0 1 .686-.28c.308 0 .55.112.728.336.186.224.28.555.28.994 0 .719-.173 1.27-.518 1.652-.336.392-.794.588-1.372.588v-.7c.28 0 .499-.08.658-.238a.765.765 0 0 0 .252-.602v-.084c-.01-.01-.014-.028-.014-.056v-.042l-.084.028a.728.728 0 0 1-.182.014c-.187 0-.35-.084-.49-.252-.14-.168-.21-.387-.21-.658Zm3.006-2.45c0-.448.098-.915.294-1.4.205-.495.401-.882.588-1.162.196-.29.462-.649.798-1.078l2.24-2.94h1.89l-2.114 2.758-.616.532v.07l.28-.098a3.52 3.52 0 0 1 .91-.112c.914 0 1.689.331 2.324.994.644.653.966 1.465.966 2.436 0 .99-.355 1.82-1.064 2.492-.71.672-1.615 1.008-2.716 1.008-1.102 0-2.007-.336-2.716-1.008-.71-.672-1.064-1.503-1.064-2.492Zm2.254-1.456c-.383.373-.574.859-.574 1.456s.191 1.087.574 1.47c.382.373.891.56 1.526.56.634 0 1.143-.187 1.526-.56.382-.383.574-.873.574-1.47s-.192-1.083-.574-1.456c-.383-.383-.892-.574-1.526-.574-.635 0-1.144.191-1.526.574Zm6.359 1.456c0-.448.098-.915.294-1.4.205-.495.401-.882.588-1.162.196-.29.462-.649.798-1.078l2.24-2.94h1.89l-2.114 2.758-.616.532v.07l.28-.098a3.52 3.52 0 0 1 .91-.112c.915 0 1.689.331 2.324.994.644.653.966 1.465.966 2.436 0 .99-.355 1.82-1.064 2.492-.709.672-1.615 1.008-2.716 1.008-1.101 0-2.007-.336-2.716-1.008-.709-.672-1.064-1.503-1.064-2.492Zm2.254-1.456c-.383.373-.574.859-.574 1.456s.191 1.087.574 1.47c.383.373.891.56 1.526.56s1.143-.187 1.526-.56c.383-.383.574-.873.574-1.47s-.191-1.083-.574-1.456c-.383-.383-.891-.574-1.526-.574s-1.143.191-1.526.574ZM353.56 204.27h1.68c.075.289.201.537.378.742.411.485 1.008.728 1.792.728.625 0 1.12-.168 1.484-.504.364-.336.546-.775.546-1.316 0-.569-.182-1.027-.546-1.372-.364-.345-.859-.518-1.484-.518-.579 0-1.069.154-1.47.462a1.916 1.916 0 0 0-.42.448h-1.54l.42-5.74h5.95v1.54h-4.62l-.21 2.52h.07c.149-.149.322-.275.518-.378.439-.261.966-.392 1.582-.392.98 0 1.797.327 2.45.98.653.653.98 1.47.98 2.45 0 .961-.345 1.764-1.036 2.408-.681.635-1.573.952-2.674.952-1.437 0-2.506-.499-3.206-1.498a4.417 4.417 0 0 1-.644-1.512Zm8.543-.49c0-.448.098-.915.294-1.4.206-.495.402-.882.588-1.162.196-.289.462-.649.798-1.078l2.24-2.94h1.89l-2.114 2.758-.616.532v.07l.28-.098c.28-.075.584-.112.91-.112.915 0 1.69.331 2.324.994.644.653.966 1.465.966 2.436 0 .989-.354 1.82-1.064 2.492-.709.672-1.614 1.008-2.716 1.008-1.101 0-2.006-.336-2.716-1.008-.709-.672-1.064-1.503-1.064-2.492Zm2.254-1.456c-.382.373-.574.859-.574 1.456s.192 1.087.574 1.47c.383.373.892.56 1.526.56.635 0 1.144-.187 1.526-.56.383-.383.574-.873.574-1.47s-.191-1.083-.574-1.456c-.382-.383-.891-.574-1.526-.574-.634 0-1.143.191-1.526.574Zm6.43 3.906c0-.28.088-.513.266-.7a.93.93 0 0 1 .686-.28c.308 0 .55.112.728.336.186.224.28.555.28.994 0 .719-.173 1.269-.518 1.652-.336.392-.794.588-1.372.588v-.7c.28 0 .499-.079.658-.238a.765.765 0 0 0 .252-.602v-.084c-.01-.009-.014-.028-.014-.056v-.042l-.084.028a.743.743 0 0 1-.182.014c-.187 0-.35-.084-.49-.252-.14-.168-.21-.387-.21-.658Zm2.726-1.19v-1.54l3.29-6.3h1.75l-3.29 6.3h3.22v-2.38h1.61v2.38h1.4v1.54h-1.4V207h-1.61v-1.96h-4.97Zm9.939.784c-.886-.971-1.33-2.212-1.33-3.724s.444-2.753 1.33-3.724c.887-.971 1.96-1.456 3.22-1.456 1.26 0 2.334.485 3.22 1.456.887.971 1.33 2.212 1.33 3.724s-.443 2.753-1.33 3.724c-.886.971-1.96 1.456-3.22 1.456-1.26 0-2.333-.485-3.22-1.456Zm1.148-6.412c-.532.635-.798 1.531-.798 2.688 0 1.157.266 2.053.798 2.688.542.635 1.232.952 2.072.952.84 0 1.526-.317 2.058-.952.542-.635.812-1.531.812-2.688 0-1.157-.27-2.053-.812-2.688-.532-.635-1.218-.952-2.058-.952-.84 0-1.53.317-2.072.952ZM158.35 277.42v-1.82l1.82-1.4h1.47v9.8h-1.61v-7.84l-1.68 1.26Zm6.231 5.404c-.887-.971-1.33-2.212-1.33-3.724s.443-2.753 1.33-3.724c.887-.971 1.96-1.456 3.22-1.456 1.26 0 2.333.485 3.22 1.456s1.33 2.212 1.33 3.724-.443 2.753-1.33 3.724c-.887.971-1.96 1.456-3.22 1.456-1.26 0-2.333-.485-3.22-1.456Zm1.148-6.412c-.532.635-.798 1.531-.798 2.688 0 1.157.266 2.053.798 2.688.541.635 1.232.952 2.072.952.84 0 1.526-.317 2.058-.952.541-.635.812-1.531.812-2.688 0-1.157-.271-2.053-.812-2.688-.532-.635-1.218-.952-2.058-.952-.84 0-1.531.317-2.072.952Zm7.815 6.818c0-.28.089-.513.266-.7a.933.933 0 0 1 .686-.28c.308 0 .551.112.728.336.187.224.28.555.28.994 0 .719-.172 1.269-.518 1.652-.336.392-.793.588-1.372.588v-.7c.28 0 .5-.079.658-.238a.765.765 0 0 0 .252-.602v-.084c-.009-.009-.014-.028-.014-.056v-.042l-.084.028a.738.738 0 0 1-.182.014c-.186 0-.35-.084-.49-.252-.14-.168-.21-.387-.21-.658Zm2.937-2.03h1.68c.065.289.191.546.378.77.42.513 1.017.77 1.792.77.644 0 1.152-.159 1.526-.476.382-.327.574-.728.574-1.204 0-.541-.173-.966-.518-1.274-.336-.317-.817-.476-1.442-.476h-2.38v-1.4l2.94-2.1v-.07h-4.06v-1.54h6.44v1.526l-2.52 1.834-.7.28v.07l.224-.028c.308-.028.49-.042.546-.042.877 0 1.61.303 2.198.91.588.607.882 1.377.882 2.31 0 .896-.346 1.657-1.036 2.282-.691.625-1.582.938-2.674.938-1.447 0-2.516-.513-3.206-1.54a4.388 4.388 0 0 1-.644-1.54Zm8.476 2.8v-1.54l3.346-2.366c.728-.523 1.251-1.008 1.568-1.456.317-.448.476-.924.476-1.428 0-.532-.163-.957-.49-1.274-.327-.317-.77-.476-1.33-.476-.691 0-1.209.28-1.554.84a2.851 2.851 0 0 0-.336.84h-1.68a4.332 4.332 0 0 1 .546-1.61c.663-1.073 1.671-1.61 3.024-1.61 1.036 0 1.876.308 2.52.924.653.607.98 1.372.98 2.296 0 .803-.205 1.526-.616 2.17-.411.635-1.069 1.265-1.974 1.89l-1.4.98-.63.28v.07l.84-.07h3.78V284h-7.07Z" fill="#333"/><path fill="#FFC79F" d="M15 267h84v65H15zm215 32h99v74h-99z"/><path d="M259.49 333.78c0-.448.098-.915.294-1.4.205-.495.401-.882.588-1.162.196-.289.462-.649.798-1.078l2.24-2.94h1.89l-2.114 2.758-.616.532v.07l.28-.098c.28-.075.583-.112.91-.112.915 0 1.689.331 2.324.994.644.653.966 1.465.966 2.436 0 .989-.355 1.82-1.064 2.492-.709.672-1.615 1.008-2.716 1.008-1.101 0-2.007-.336-2.716-1.008-.709-.672-1.064-1.503-1.064-2.492Zm2.254-1.456c-.383.373-.574.859-.574 1.456s.191 1.087.574 1.47c.383.373.891.56 1.526.56s1.143-.187 1.526-.56c.383-.383.574-.873.574-1.47s-.191-1.083-.574-1.456c-.383-.383-.891-.574-1.526-.574s-1.143.191-1.526.574Zm6.429 3.906c0-.28.089-.513.266-.7a.933.933 0 0 1 .686-.28c.308 0 .551.112.728.336.187.224.28.555.28.994 0 .719-.172 1.269-.518 1.652-.336.392-.793.588-1.372.588v-.7c.28 0 .5-.079.658-.238a.765.765 0 0 0 .252-.602v-.084c-.009-.009-.014-.028-.014-.056v-.042l-.084.028a.738.738 0 0 1-.182.014c-.186 0-.35-.084-.49-.252-.14-.168-.21-.387-.21-.658Zm4.476-.406c-.886-.971-1.33-2.212-1.33-3.724s.444-2.753 1.33-3.724c.887-.971 1.96-1.456 3.22-1.456 1.26 0 2.334.485 3.22 1.456.887.971 1.33 2.212 1.33 3.724s-.443 2.753-1.33 3.724c-.886.971-1.96 1.456-3.22 1.456-1.26 0-2.333-.485-3.22-1.456Zm1.148-6.412c-.532.635-.798 1.531-.798 2.688 0 1.157.266 2.053.798 2.688.542.635 1.232.952 2.072.952.84 0 1.526-.317 2.058-.952.542-.635.812-1.531.812-2.688 0-1.157-.27-2.053-.812-2.688-.532-.635-1.218-.952-2.058-.952-.84 0-1.53.317-2.072.952Zm7.466 5.628v-1.54l3.29-6.3h1.75l-3.29 6.3h3.22v-2.38h1.61v2.38h1.4v1.54h-1.4V337h-1.61v-1.96h-4.97Z" fill="#333"/><path fill="#5A5A5A" d="M86 52v30H56V52zm-60 0v30H0V52z"/><path d="M71.21 291.04v-1.54l3.29-6.3h1.75l-3.29 6.3h3.22v-2.38h1.61v2.38h1.4v1.54h-1.4V293h-1.61v-1.96h-4.97Zm8.54 1.19c0-.28.088-.513.266-.7a.931.931 0 0 1 .685-.28c.309 0 .551.112.729.336.186.224.28.555.28.994 0 .719-.173 1.269-.518 1.652-.336.392-.794.588-1.372.588v-.7c.28 0 .499-.079.658-.238a.765.765 0 0 0 .252-.602v-.084c-.01-.009-.014-.028-.014-.056v-.042l-.084.028a.742.742 0 0 1-.183.014c-.186 0-.35-.084-.49-.252-.14-.168-.21-.387-.21-.658Zm2.866-5.81v-1.82l1.82-1.4h1.47v9.8h-1.61v-7.84l-1.68 1.26Zm4.83 0c0-.989.355-1.82 1.065-2.492.71-.672 1.614-1.008 2.716-1.008 1.101 0 2.006.336 2.716 1.008.71.672 1.064 1.503 1.064 2.492 0 .887-.369 1.843-1.106 2.87l-.308.42c-.13.168-.22.285-.266.35l-2.24 2.94h-1.89l2.114-2.758.616-.532v-.07a7.318 7.318 0 0 1-.28.112 3.58 3.58 0 0 1-.91.098 3.163 3.163 0 0 1-2.338-.98c-.635-.663-.952-1.479-.952-2.45Zm2.255-1.456c-.383.373-.574.859-.574 1.456s.191 1.087.574 1.47c.382.373.891.56 1.526.56.634 0 1.143-.187 1.526-.56.382-.383.574-.873.574-1.47s-.192-1.083-.574-1.456c-.383-.383-.892-.574-1.526-.574-.635 0-1.144.191-1.526.574Z" fill="#333"/><path fill="#5A5A5A" d="M16 344H0V72h16z"/><path fill="#5A5A5A" d="M0 344v-16h163v16zm197 0v-16h38v16z"/><path fill="#5A5A5A" d="M219 283h16v106h-16zm122 90v16H235v-16z"/><path fill="#5A5A5A" d="M345 389h-16V283h16zm-78-106v16h-48v-16z"/><path fill="#5A5A5A" d="M490 283v16H294v-16zM185 52v30h-65V52z"/><path d="M63.967 260.995V236h24.325v24.995H63.967Z" fill="#fff" stroke="#5A5A5A" stroke-width=".5"/><path d="M64.893 238.027v19.453c0 .737.393 1.13 1.162 1.13h20.148c.785 0 1.162-.377 1.162-1.13v-19.453c.016-.754-.377-1.131-1.147-1.131H66.071c-.785-.016-1.178.377-1.178 1.131Z" fill="#fff" stroke="#5A5A5A" stroke-width=".5"/><path d="M71.395 239.816c1.79.015 3.25 1.429 3.25 3.171 0 1.759-1.46 3.172-3.25 3.172-1.806 0-3.251-1.413-3.251-3.172 0-1.758 1.445-3.171 3.25-3.171Zm9.625.03c1.79.016 3.25 1.429 3.25 3.171 0 1.759-1.46 3.172-3.25 3.172-1.806 0-3.25-1.413-3.25-3.172-.016-1.758 1.444-3.187 3.25-3.171Zm0 9.014c1.806 0 3.25 1.413 3.25 3.171 0 1.759-1.46 3.172-3.25 3.172-1.79-.016-3.25-1.429-3.25-3.172s1.46-3.171 3.25-3.171Zm-9.625 0c1.806 0 3.25 1.413 3.25 3.171 0 1.759-1.46 3.172-3.25 3.172-1.79-.016-3.251-1.429-3.251-3.172s1.46-3.171 3.25-3.171Z" stroke="#5A5A5A" stroke-width=".5"/><path d="M39.7 260.98v-24.088H16v24.103l23.7-.015Z" fill="#fff" stroke="#5A5A5A" stroke-width=".5"/><path d="M37.896 254.374v-13.317c0-.742-.364-1.106-1.121-1.106H19.167c-.727 0-1.106.364-1.121 1.091l.015 13.332c-.015.727.364 1.091 1.106 1.091h17.608c.742.03 1.121-.349 1.121-1.091Z" fill="#fff" stroke="#5A5A5A" stroke-width=".5"/><path d="M27.97 259.132c-.923-.016-1.666-.712-1.666-1.591l.652-6.984.015-.015c0-.531.44-.955 1-.955s1 .424 1.015.97l.652 6.984c0 .863-.743 1.575-1.667 1.591Z" stroke="#5A5A5A" stroke-width=".5"/><mask id="a" fill="#fff"><path fill-rule="evenodd" clip-rule="evenodd" d="m26.592 258.449.364-3.803a.988.988 0 0 1 1.03-.954.98.98 0 0 1 1 .954l.364 3.803"/></mask><path fill-rule="evenodd" clip-rule="evenodd" d="m26.592 258.449.364-3.803a.988.988 0 0 1 1.03-.954.98.98 0 0 1 1 .954l.364 3.803" fill="#fff"/><path d="m26.956 254.646.5.015-.001.016-.002.017-.497-.048Zm1.03-.954v.5h-.013l.013-.5Zm1 .954-.498.048-.001-.017v-.016l.499-.015Zm-2.892 3.755.364-3.802.995.095-.363 3.803-.996-.096Zm.362-3.769a1.488 1.488 0 0 1 1.543-1.44l-.026 1a.488.488 0 0 0-.518.469l-1-.029Zm1.53-1.44c.83 0 1.477.638 1.5 1.44l-1 .029a.48.48 0 0 0-.5-.469v-1Zm1.498 1.407.363 3.802-.995.096-.364-3.803.996-.095Z" fill="#5A5A5A" mask="url(#a)"/><path fill="#5A5A5A" d="M107 174v2H96v-2zm-17 0v2H79v-2zm-17 0v2H62v-2zm-17 0v2H45v-2zm-17 0v2H28v-2zm-17 0v2h-6v-2zm85 149h-2v-11h2zm0-51h-2v-11h2zm0-17h-2v-11h2zm0-17h-2v-11h2zm0-17h-2v-11h2zm0-17h-2v-11h2zm0-17h-2v-6h2z"/><path stroke="#5A5A5A" d="m176.743 67.429 25 15"/><path d="M261.75.25 158.291.313l-.039 4.437H261.75V.25Z" stroke="#5A5A5A" stroke-width=".5" stroke-miterlimit="10"/><path fill="#5A5A5A" d="M273 0h5v74h-5zM145 0h5v74h-5z"/><path fill="#5A5A5A" d="M168 0v5h-19V0zm107 0v5h-19V0z"/><path d="m204.25 52.25 60.476.063.023 4.437H204.25v-4.5Zm0 10 60.476.063.023 4.437H204.25v-4.5Z" stroke="#5A5A5A" stroke-width=".5" stroke-miterlimit="10"/><path stroke="#5A5A5A" d="m376.743 67.429 25 15"/><path d="m356.25.25 88.465.063.033 4.437H356.25V.25Z" stroke="#5A5A5A" stroke-width=".5" stroke-miterlimit="10"/><path fill="#5A5A5A" d="M358 0h-5v74h5zm100 0h-5v74h5z"/><path fill="#5A5A5A" d="M435 0v5h19V0zm-79 0v5h19V0z"/><path d="m404.25 52.25 60.476.063.023 4.437H404.25v-4.5Zm0 10 60.476.063.023 4.437H404.25v-4.5Z" stroke="#5A5A5A" stroke-width=".5" stroke-miterlimit="10"/><path fill="#5A5A5A" d="M107 261v8H10v-8zm65-30v8h-14v-8z"/><path fill="#5A5A5A" d="M107 274h-8v-10h8z"/><path fill="#5A5A5A" d="m158.145 231.162 4 6.928L107 269.928 103 263zM107 335h-8v-36h8z"/><path d="m86.759 308.476-.017 1.181.017 3.066v7.591h-9.957v-11.838c0-3.017 2.243-5.476 4.994-5.476 2.72 0 4.963 2.459 4.963 5.476Z" fill="#fff" stroke="#5A5A5A" stroke-width=".5"/><path d="M85.613 308.542v8.493h-7.681v-7.559l.016-.934c0-2.378 1.704-4.312 3.833-4.312 2.112.016 3.832 1.951 3.832 4.312ZM75 326.676v-5.264c0-.606.491-1.098 1.097-1.098h11.284c.606 0 1.097.492 1.097 1.098v5.264c0 .606-.49 1.098-1.097 1.098H76.114A1.102 1.102 0 0 1 75 326.676Z" fill="#fff" stroke="#5A5A5A" stroke-width=".5"/><path d="M81.093 324.052c0-.41.294-.721.638-.721.36-.017.655.311.655.721s-.295.722-.638.722a.684.684 0 0 1-.656-.722ZM46 326.848V314.54c0-.855.684-1.54 1.539-1.54h18.52c.854 0 1.538.685 1.538 1.54v12.308c0 .856-.684 1.541-1.539 1.541h-18.52c-.84 0-1.538-.685-1.538-1.541Z" fill="#fff" stroke="#5A5A5A" stroke-width=".5"/><path d="M47.923 322.156v-1.896a4.52 4.52 0 0 1 4.516-4.522h8.718a4.52 4.52 0 0 1 4.516 4.522v1.896a4.52 4.52 0 0 1-4.516 4.521H52.44a4.52 4.52 0 0 1-4.516-4.521Z" fill="#fff" stroke="#5A5A5A" stroke-width=".5"/><path d="M55.844 324.267c0-.543.427-.984.954-.984.527 0 .954.441.954.984 0 .544-.427.984-.954.984-.527 0-.954-.44-.954-.984ZM40.987 326.7v-56.4c0-.722-.577-1.3-1.299-1.3h-22.39c-.72 0-1.298.578-1.298 1.3v56.4c0 .722.577 1.3 1.299 1.3h22.39c.721 0 1.298-.591 1.298-1.3Z" fill="#fff" stroke="#5A5A5A" stroke-width=".5"/><path d="M31.53 272.467h-6.087a6.377 6.377 0 0 0-6.374 6.382v44.411c0 .866.695 1.562 1.56 1.562h15.74c.866 0 1.562-.696 1.562-1.562v-44.398c-.014-3.532-2.873-6.395-6.401-6.395Z" fill="#fff" stroke="#5A5A5A" stroke-width=".5"/><path d="M28.933 319.557c.703 0 1.272.593 1.272 1.326 0 .732-.57 1.326-1.272 1.326-.703 0-1.272-.594-1.272-1.326 0-.733.57-1.326 1.272-1.326ZM45 269h22.01l.014 21.588-22.01-.014L45 269Z" fill="#fff" stroke="#5A5A5A" stroke-width=".5"/><path d="M56.019 285.331c3.114 0 5.628-2.475 5.628-5.537s-2.514-5.537-5.642-5.537c-3.114 0-5.656 2.475-5.656 5.537.014 3.062 2.556 5.537 5.67 5.537Z" stroke="#5A5A5A" stroke-width=".5"/><path d="M51.899 279.794a3.874 3.874 0 0 0 1.201 2.852 4.267 4.267 0 0 0 2.905 1.189m4.134-4.027a4.033 4.033 0 0 1-1.201 2.852 4.186 4.186 0 0 1-2.92 1.189l4.12-4.041Zm-8.24-.014a4.03 4.03 0 0 1 1.201-2.852 4.2 4.2 0 0 1 2.919-1.175l-4.12 4.027Zm8.24.014a3.934 3.934 0 0 0-1.201-2.852l-.014-.014a4.168 4.168 0 0 0-2.891-1.175l4.106 4.041Z" stroke="#5A5A5A" stroke-width=".5"/><path d="m253.72 353.976.016 1.18-.016 3.066v7.591h9.957v-11.837c0-3.017-2.244-5.476-4.995-5.476-2.719 0-4.962 2.459-4.962 5.476Z" fill="#fff" stroke="#5A5A5A" stroke-width=".5"/><path d="M254.866 354.041v8.493h7.681v-7.558l-.017-.935c0-2.377-1.703-4.312-3.832-4.312-2.113.017-3.832 1.951-3.832 4.312Zm10.612 18.134v-5.263c0-.607-.491-1.099-1.097-1.099h-11.284c-.606 0-1.097.492-1.097 1.099v5.263c0 .607.491 1.099 1.097 1.099h11.268c.622 0 1.113-.492 1.113-1.099Z" fill="#fff" stroke="#5A5A5A" stroke-width=".5"/><path d="M259.386 369.552c0-.41-.295-.722-.639-.722-.36-.016-.655.312-.655.722s.295.721.639.721a.683.683 0 0 0 .655-.721Zm37.092 1.796V359.04c0-.856-.684-1.541-1.538-1.541h-18.52c-.854 0-1.538.685-1.538 1.541v12.308c0 .855.684 1.54 1.538 1.54h18.52c.84 0 1.538-.685 1.538-1.54Z" fill="#fff" stroke="#5A5A5A" stroke-width=".5"/><path d="M294.555 366.656v-1.897a4.52 4.52 0 0 0-4.516-4.521h-8.718a4.52 4.52 0 0 0-4.516 4.521v1.897a4.52 4.52 0 0 0 4.516 4.521h8.718a4.52 4.52 0 0 0 4.516-4.521Z" fill="#fff" stroke="#5A5A5A" stroke-width=".5"/><path d="M286.635 368.766c0-.543-.427-.984-.955-.984-.527 0-.954.441-.954.984 0 .544.427.984.954.984.528 0 .955-.44.955-.984ZM301 372.018v-64.281c0-.823.658-1.481 1.48-1.481h25.519c.822 0 1.48.658 1.48 1.481v64.281c0 .823-.658 1.482-1.48 1.482H302.48c-.822 0-1.48-.674-1.48-1.482Z" fill="#fff" stroke="#5A5A5A" stroke-width=".5"/><path d="M311.779 310.207h6.936c4.021 0 7.265 3.263 7.265 7.274v50.616c0 .988-.792 1.781-1.778 1.781h-17.94a1.775 1.775 0 0 1-1.779-1.781v-50.601c.015-4.026 3.274-7.289 7.296-7.289Z" fill="#fff" stroke="#5A5A5A" stroke-width=".5"/><path d="M314.738 363.876c-.8 0-1.45.677-1.45 1.512s.65 1.511 1.45 1.511c.801 0 1.45-.676 1.45-1.511 0-.835-.649-1.512-1.45-1.512ZM257.024 299h-22.01L235 320.588l22.01-.014.014-21.574Z" fill="#fff" stroke="#5A5A5A" stroke-width=".5"/><path d="M246.005 315.331c-3.114 0-5.628-2.475-5.628-5.537s2.514-5.537 5.642-5.537c3.114 0 5.656 2.475 5.656 5.537-.014 3.062-2.556 5.537-5.67 5.537Z" stroke="#5A5A5A" stroke-width=".5"/><path d="M250.125 309.794a3.874 3.874 0 0 1-1.201 2.852 4.267 4.267 0 0 1-2.905 1.189m-4.134-4.027c0 1.104.461 2.111 1.201 2.852a4.187 4.187 0 0 0 2.919 1.189l-4.12-4.041Zm8.24-.014a4.031 4.031 0 0 0-1.201-2.852 4.2 4.2 0 0 0-2.919-1.175l4.12 4.027Zm-8.24.014c0-1.133.461-2.139 1.201-2.852l.014-.014a4.168 4.168 0 0 1 2.891-1.175l-4.106 4.041Z" stroke="#5A5A5A" stroke-width=".5"/><path fill="#5A5A5A" d="M302 287h-8v-56h8z"/><path fill="#5A5A5A" d="M277 239v-8h25v8zm5-187v30h-43V52z"/><path d="m132.75 52.25-120.451.152-.048 11.348H132.75v-11.5Zm239 0-120.451.152-.048 11.348H371.75v-11.5Zm-239 18-120.451.152-.048 11.348H132.75v-11.5Zm239 0-120.451.152-.048 11.348H371.75v-11.5Z" stroke="#5A5A5A" stroke-width=".5" stroke-miterlimit="10"/><path fill="#5A5A5A" d="M377 52v30h-34V52zm113 0v30h-49V52z"/><path fill="#5A5A5A" d="M490 142h-30V65h30zm0 155h-30V196h30z"/><path d="m279.75 233.25-41.041.025-.012 1.475h41.053v-1.5Zm-68.444 0-41.041.025-.013 1.475h41.054v-1.5Zm34.222-2-41.041.025-.013 1.475h41.054v-1.5Z" stroke="#5A5A5A" stroke-width=".5" stroke-miterlimit="10"/><path stroke="#5A5A5A" d="m296.734 286.423-27-17m-164.312 3.309 14 22m79.823 47.704-32 18"/><circle cx="262.5" cy="141.5" r="39.5" fill="#5A5A5A"/><path d="M239.72 145.58c0-1.092.42-1.962 1.26-2.61.36-.252.78-.444 1.26-.576v-.108a3.296 3.296 0 0 1-.99-.594c-.66-.564-.99-1.308-.99-2.232 0-.948.402-1.752 1.206-2.412.816-.672 1.914-1.008 3.294-1.008 1.38 0 2.472.336 3.276 1.008.816.66 1.224 1.464 1.224 2.412 0 .9-.33 1.644-.99 2.232-.312.252-.642.45-.99.594v.108c.456.12.876.318 1.26.594.84.648 1.26 1.512 1.26 2.592 0 1.044-.456 1.938-1.368 2.682-.9.732-2.124 1.098-3.672 1.098s-2.778-.366-3.69-1.098c-.9-.744-1.35-1.638-1.35-2.682Zm2.7-5.94c0 .528.204.96.612 1.296.408.336.984.504 1.728.504s1.32-.168 1.728-.504c.408-.336.612-.768.612-1.296 0-.48-.21-.882-.63-1.206-.408-.336-.978-.504-1.71-.504s-1.308.168-1.728.504c-.408.324-.612.726-.612 1.206Zm.216 4.302c-.504.396-.756.882-.756 1.458s.252 1.068.756 1.476c.516.396 1.224.594 2.124.594.9 0 1.602-.198 2.106-.594.516-.408.774-.9.774-1.476s-.258-1.062-.774-1.458c-.504-.408-1.206-.612-2.106-.612-.9 0-1.608.204-2.124.612Zm8.418 1.458h2.16c.084.372.246.702.486.99.54.66 1.308.99 2.304.99.828 0 1.482-.204 1.962-.612.492-.42.738-.936.738-1.548 0-.696-.222-1.242-.666-1.638-.432-.408-1.05-.612-1.854-.612h-3.06v-1.8l3.78-2.7v-.09h-5.22v-1.98h8.28v1.962l-3.24 2.358-.9.36v.09l.288-.036c.396-.036.63-.054.702-.054 1.128 0 2.07.39 2.826 1.17.756.78 1.134 1.77 1.134 2.97 0 1.152-.444 2.13-1.332 2.934-.888.804-2.034 1.206-3.438 1.206-1.86 0-3.234-.66-4.122-1.98-.384-.564-.66-1.224-.828-1.98Zm11.078 2.61c0-.36.114-.66.342-.9a1.2 1.2 0 0 1 .882-.36c.396 0 .708.144.936.432.24.288.36.714.36 1.278 0 .924-.222 1.632-.666 2.124-.432.504-1.02.756-1.764.756v-.9c.36 0 .642-.102.846-.306.216-.192.324-.45.324-.774v-.108c-.012-.012-.018-.036-.018-.072v-.054l-.108.036a.932.932 0 0 1-.234.018c-.24 0-.45-.108-.63-.324-.18-.216-.27-.498-.27-.846Zm3.775-2.61h2.16c.084.372.246.702.486.99.54.66 1.308.99 2.304.99.828 0 1.482-.204 1.962-.612.492-.42.738-.936.738-1.548 0-.696-.222-1.242-.666-1.638-.432-.408-1.05-.612-1.854-.612h-3.06v-1.8l3.78-2.7v-.09h-5.22v-1.98h8.28v1.962l-3.24 2.358-.9.36v.09l.288-.036c.396-.036.63-.054.702-.054 1.128 0 2.07.39 2.826 1.17.756.78 1.134 1.77 1.134 2.97 0 1.152-.444 2.13-1.332 2.934-.888.804-2.034 1.206-3.438 1.206-1.86 0-3.234-.66-4.122-1.98-.384-.564-.66-1.224-.828-1.98Zm10.539-7.02v-1.98h8.55v1.98l-5.04 10.62h-2.25l4.95-10.44v-.18h-6.21Z" fill="#fff"/></svg>