<svg width="468" height="695" fill="none" xmlns="http://www.w3.org/2000/svg"><path fill="#5A5A5A" d="M415 55v30h53V55z"/><path d="M16 84v195.674h452V84H16Z" fill="#E7FFD5"/><path d="M13 204.415v158.673h316V204.415H13Z" fill="#E7FFD5"/><path d="M10 324.829v151.522h145V324.829H10Z" fill="#E7FFD5"/><path d="M7 445.244V665h145V445.244H7ZM13 231.5v135.674h316V231.5H13Z" fill="#E7FFD5"/><path fill="#E7FFD5" d="M336 407v-42h-95v42z"/><circle cx="195.5" cy="179.5" r="39.5" fill="#5A5A5A"/><path d="M171.72 178.54c0-1.272.456-2.34 1.368-3.204.912-.864 2.076-1.296 3.492-1.296s2.58.432 3.492 1.296c.912.864 1.368 1.932 1.368 3.204 0 1.14-.474 2.37-1.422 3.69l-.396.54c-.168.216-.282.366-.342.45L176.4 187h-2.43l2.718-3.546.792-.684v-.09c-.024.012-.144.06-.36.144-.312.084-.702.126-1.17.126-1.176 0-2.178-.42-3.006-1.26-.816-.852-1.224-1.902-1.224-3.15Zm2.898-1.872c-.492.48-.738 1.104-.738 1.872s.246 1.398.738 1.89c.492.48 1.146.72 1.962.72.816 0 1.47-.24 1.962-.72.492-.492.738-1.122.738-1.89 0-.768-.246-1.392-.738-1.872-.492-.492-1.146-.738-1.962-.738-.816 0-1.47.246-1.962.738Zm7.726 7.812v-1.98l4.23-8.1h2.25l-4.23 8.1h4.14v-3.06h2.07v3.06h1.8v1.98h-1.8V187h-2.07v-2.52h-6.39Zm10.98 1.53c0-.36.114-.66.342-.9a1.2 1.2 0 0 1 .882-.36c.396 0 .708.144.936.432.24.288.36.714.36 1.278 0 .924-.222 1.632-.666 2.124-.432.504-1.02.756-1.764.756v-.9c.36 0 .642-.102.846-.306.216-.192.324-.45.324-.774v-.108c-.012-.012-.018-.036-.018-.072v-.054l-.108.036a.932.932 0 0 1-.234.018c-.24 0-.45-.108-.63-.324-.18-.216-.27-.498-.27-.846Zm3.775-2.61h2.16c.084.372.246.702.486.99.54.66 1.308.99 2.304.99.828 0 1.482-.204 1.962-.612.492-.42.738-.936.738-1.548 0-.696-.222-1.242-.666-1.638-.432-.408-1.05-.612-1.854-.612h-3.06v-1.8l3.78-2.7v-.09h-5.22v-1.98h8.28v1.962l-3.24 2.358-.9.36v.09l.288-.036c.396-.036.63-.054.702-.054 1.128 0 2.07.39 2.826 1.17.756.78 1.134 1.77 1.134 2.97 0 1.152-.444 2.13-1.332 2.934-.888.804-2.034 1.206-3.438 1.206-1.86 0-3.234-.66-4.122-1.98-.384-.564-.66-1.224-.828-1.98Zm10.988-.54c0-.576.126-1.176.378-1.8.264-.636.516-1.134.756-1.494.252-.372.594-.834 1.026-1.386l2.88-3.78h2.43l-2.718 3.546-.792.684v.09l.36-.126a4.53 4.53 0 0 1 1.17-.144c1.176 0 2.172.426 2.988 1.278.828.84 1.242 1.884 1.242 3.132 0 1.272-.456 2.34-1.368 3.204-.912.864-2.076 1.296-3.492 1.296s-2.58-.432-3.492-1.296c-.912-.864-1.368-1.932-1.368-3.204Zm2.898-1.872c-.492.48-.738 1.104-.738 1.872s.246 1.398.738 1.89c.492.48 1.146.72 1.962.72.816 0 1.47-.24 1.962-.72.492-.492.738-1.122.738-1.89 0-.768-.246-1.392-.738-1.872-.492-.492-1.146-.738-1.962-.738-.816 0-1.47.246-1.962.738Z" fill="#fff"/><path d="M352.49 235.78c0-.448.098-.915.294-1.4.205-.495.401-.882.588-1.162.196-.289.462-.649.798-1.078l2.24-2.94h1.89l-2.114 2.758-.616.532v.07l.28-.098c.28-.075.583-.112.91-.112.915 0 1.689.331 2.324.994.644.653.966 1.465.966 2.436 0 .989-.355 1.82-1.064 2.492-.709.672-1.615 1.008-2.716 1.008-1.101 0-2.007-.336-2.716-1.008-.709-.672-1.064-1.503-1.064-2.492Zm2.254-1.456c-.383.373-.574.859-.574 1.456s.191 1.087.574 1.47c.383.373.891.56 1.526.56s1.143-.187 1.526-.56c.383-.383.574-.873.574-1.47s-.191-1.083-.574-1.456c-.383-.383-.891-.574-1.526-.574s-1.143.191-1.526.574Zm6.429 3.906c0-.28.089-.513.266-.7a.933.933 0 0 1 .686-.28c.308 0 .551.112.728.336.187.224.28.555.28.994 0 .719-.172 1.269-.518 1.652-.336.392-.793.588-1.372.588v-.7c.28 0 .5-.079.658-.238a.765.765 0 0 0 .252-.602v-.084c-.009-.009-.014-.028-.014-.056v-.042l-.084.028a.738.738 0 0 1-.182.014c-.186 0-.35-.084-.49-.252-.14-.168-.21-.387-.21-.658Zm4.476-.406c-.886-.971-1.33-2.212-1.33-3.724s.444-2.753 1.33-3.724c.887-.971 1.96-1.456 3.22-1.456 1.26 0 2.334.485 3.22 1.456.887.971 1.33 2.212 1.33 3.724s-.443 2.753-1.33 3.724c-.886.971-1.96 1.456-3.22 1.456-1.26 0-2.333-.485-3.22-1.456Zm1.148-6.412c-.532.635-.798 1.531-.798 2.688 0 1.157.266 2.053.798 2.688.542.635 1.232.952 2.072.952.84 0 1.526-.317 2.058-.952.542-.635.812-1.531.812-2.688 0-1.157-.27-2.053-.812-2.688-.532-.635-1.218-.952-2.058-.952-.84 0-1.53.317-2.072.952Zm9.216 6.412c-.887-.971-1.33-2.212-1.33-3.724s.443-2.753 1.33-3.724c.886-.971 1.96-1.456 3.22-1.456 1.26 0 2.333.485 3.22 1.456.886.971 1.33 2.212 1.33 3.724s-.444 2.753-1.33 3.724c-.887.971-1.96 1.456-3.22 1.456-1.26 0-2.334-.485-3.22-1.456Zm1.148-6.412c-.532.635-.798 1.531-.798 2.688 0 1.157.266 2.053.798 2.688.541.635 1.232.952 2.072.952.84 0 1.526-.317 2.058-.952.541-.635.812-1.531.812-2.688 0-1.157-.271-2.053-.812-2.688-.532-.635-1.218-.952-2.058-.952-.84 0-1.531.317-2.072.952ZM337.21 150.04v-1.54l3.29-6.3h1.75l-3.29 6.3h3.22v-2.38h1.61v2.38h1.4v1.54h-1.4V152h-1.61v-1.96h-4.97Zm8.539-.7c0-.849.327-1.526.98-2.03a3.16 3.16 0 0 1 .98-.448v-.084a2.568 2.568 0 0 1-.77-.462c-.513-.439-.77-1.017-.77-1.736 0-.737.313-1.363.938-1.876.635-.523 1.489-.784 2.562-.784 1.074 0 1.923.261 2.548.784.635.513.952 1.139.952 1.876 0 .7-.256 1.279-.77 1.736-.242.196-.499.35-.77.462v.084c.355.093.682.247.98.462.654.504.98 1.176.98 2.016 0 .812-.354 1.507-1.064 2.086-.7.569-1.652.854-2.856.854s-2.16-.285-2.87-.854c-.7-.579-1.05-1.274-1.05-2.086Zm2.1-4.62c0 .411.159.747.476 1.008.318.261.766.392 1.344.392.579 0 1.027-.131 1.344-.392.318-.261.476-.597.476-1.008 0-.373-.163-.686-.49-.938-.317-.261-.76-.392-1.33-.392-.569 0-1.017.131-1.344.392-.317.252-.476.565-.476.938Zm.168 3.346c-.392.308-.588.686-.588 1.134 0 .448.196.831.588 1.148.402.308.952.462 1.652.462s1.246-.154 1.638-.462c.402-.317.602-.7.602-1.148 0-.448-.2-.826-.602-1.134-.392-.317-.938-.476-1.638-.476s-1.25.159-1.652.476Zm6.688 3.164c0-.28.088-.513.266-.7a.93.93 0 0 1 .686-.28c.308 0 .55.112.728.336.186.224.28.555.28.994 0 .719-.173 1.269-.518 1.652-.336.392-.794.588-1.372.588v-.7c.28 0 .499-.079.658-.238a.765.765 0 0 0 .252-.602v-.084c-.01-.009-.014-.028-.014-.056v-.042l-.084.028a.743.743 0 0 1-.182.014c-.187 0-.35-.084-.49-.252-.14-.168-.21-.387-.21-.658Zm2.656-7.49v-1.54h6.65v1.54l-3.92 8.26h-1.75l3.85-8.12v-.14h-4.83Zm7.348 5.46h1.68c.065.289.191.546.378.77.42.513 1.017.77 1.792.77.644 0 1.153-.159 1.526-.476.383-.327.574-.728.574-1.204 0-.541-.173-.966-.518-1.274-.336-.317-.817-.476-1.442-.476h-2.38v-1.4l2.94-2.1v-.07h-4.06v-1.54h6.44v1.526l-2.52 1.834-.7.28v.07l.224-.028c.308-.028.49-.042.546-.042.877 0 1.61.303 2.198.91.588.607.882 1.377.882 2.31 0 .896-.345 1.657-1.036 2.282-.691.625-1.582.938-2.674.938-1.447 0-2.515-.513-3.206-1.54a4.406 4.406 0 0 1-.644-1.54ZM348.21 37.04V35.5l3.29-6.3h1.75l-3.29 6.3h3.22v-2.38h1.61v2.38h1.4v1.54h-1.4V39h-1.61v-1.96h-4.97Zm8.539 1.19c0-.28.089-.513.266-.7a.934.934 0 0 1 .686-.28c.308 0 .551.112.728.336.187.224.28.555.28.994 0 .719-.172 1.27-.518 1.652-.336.392-.793.588-1.372.588v-.7c.28 0 .5-.08.658-.238a.765.765 0 0 0 .252-.602v-.084c-.009-.01-.014-.028-.014-.056v-.042l-.084.028a.722.722 0 0 1-.182.014c-.186 0-.35-.084-.49-.252-.14-.168-.21-.387-.21-.658Zm2.657-7.49V29.2h6.65v1.54l-3.92 8.26h-1.75l3.85-8.12v-.14h-4.83Zm7.145 5.04c0-.448.098-.915.294-1.4.205-.495.401-.882.588-1.162.196-.29.462-.649.798-1.078l2.24-2.94h1.89l-2.114 2.758-.616.532v.07l.28-.098a3.52 3.52 0 0 1 .91-.112c.914 0 1.689.331 2.324.994.644.653.966 1.465.966 2.436 0 .99-.355 1.82-1.064 2.492-.71.672-1.615 1.008-2.716 1.008-1.102 0-2.007-.336-2.716-1.008-.71-.672-1.064-1.503-1.064-2.492Zm2.254-1.456c-.383.373-.574.859-.574 1.456s.191 1.087.574 1.47c.382.373.891.56 1.526.56.634 0 1.143-.187 1.526-.56.382-.383.574-.873.574-1.47s-.192-1.083-.574-1.456c-.383-.383-.892-.574-1.526-.574-.635 0-1.144.191-1.526.574ZM267.35 335.42v-1.82l1.82-1.4h1.47v9.8h-1.61v-7.84l-1.68 1.26Zm4.831 3.85h1.68c.075.289.201.537.378.742.411.485 1.008.728 1.792.728.625 0 1.12-.168 1.484-.504.364-.336.546-.775.546-1.316 0-.569-.182-1.027-.546-1.372-.364-.345-.859-.518-1.484-.518-.579 0-1.069.154-1.47.462a1.916 1.916 0 0 0-.42.448h-1.54l.42-5.74h5.95v1.54h-4.62l-.21 2.52h.07c.149-.149.322-.275.518-.378.439-.261.966-.392 1.582-.392.98 0 1.797.327 2.45.98.653.653.98 1.47.98 2.45 0 .961-.345 1.764-1.036 2.408-.681.635-1.573.952-2.674.952-1.437 0-2.506-.499-3.206-1.498a4.417 4.417 0 0 1-.644-1.512Zm8.613 1.96c0-.28.089-.513.266-.7a.933.933 0 0 1 .686-.28c.308 0 .551.112.728.336.187.224.28.555.28.994 0 .719-.172 1.269-.518 1.652-.336.392-.793.588-1.372.588v-.7c.28 0 .5-.079.658-.238a.765.765 0 0 0 .252-.602v-.084c-.009-.009-.014-.028-.014-.056v-.042l-.084.028a.738.738 0 0 1-.182.014c-.186 0-.35-.084-.49-.252-.14-.168-.21-.387-.21-.658Zm2.867-5.81v-1.82l1.82-1.4h1.47v9.8h-1.61v-7.84l-1.68 1.26Zm4.481 4.62v-1.54l3.29-6.3h1.75l-3.29 6.3h3.22v-2.38h1.61v2.38h1.4v1.54h-1.4V342h-1.61v-1.96h-4.97Z" fill="#333"/><path d="M403.626 250.108v24.996h-24.325v-24.996h24.325Z" fill="#fff" stroke="#5A5A5A" stroke-width=".5"/><path d="M402.699 273.077v-19.453c0-.738-.392-1.13-1.162-1.13H381.39c-.786 0-1.163.376-1.163 1.13v19.453c-.015.754.377 1.131 1.147 1.131h20.147c.786.015 1.178-.377 1.178-1.131Z" fill="#fff" stroke="#5A5A5A" stroke-width=".5"/><path d="M396.199 271.288c-1.791-.016-3.251-1.429-3.251-3.171 0-1.759 1.46-3.172 3.251-3.172 1.805 0 3.25 1.413 3.25 3.172 0 1.758-1.445 3.171-3.25 3.171Zm-9.627-.03c-1.79-.016-3.25-1.429-3.25-3.172 0-1.758 1.46-3.171 3.25-3.171 1.806 0 3.251 1.413 3.251 3.171.016 1.759-1.445 3.187-3.251 3.172Zm.001-9.014c-1.806 0-3.251-1.413-3.251-3.171 0-1.759 1.46-3.172 3.251-3.172 1.79.016 3.25 1.429 3.25 3.172 0 1.742-1.46 3.171-3.25 3.171Zm9.626 0c-1.806 0-3.251-1.413-3.251-3.171 0-1.759 1.46-3.172 3.251-3.172 1.79.016 3.25 1.429 3.25 3.172 0 1.742-1.46 3.171-3.25 3.171Z" stroke="#5A5A5A" stroke-width=".5"/><path d="M451.985 229h-24.089v23.699H452L451.985 229Z" fill="#fff" stroke="#5A5A5A" stroke-width=".5"/><path d="M445.378 230.803h-13.317c-.742 0-1.106.364-1.106 1.122v17.607c0 .727.364 1.106 1.091 1.121l13.332-.015c.727.015 1.091-.363 1.091-1.106v-17.607c.03-.743-.348-1.122-1.091-1.122Z" fill="#fff" stroke="#5A5A5A" stroke-width=".5"/><path d="M450.137 240.728c-.015.925-.712 1.667-1.591 1.667l-6.984-.651-.015-.016c-.531 0-.955-.439-.955-1 0-.56.424-1 .97-1.015l6.984-.651c.864 0 1.576.742 1.591 1.666Z" stroke="#5A5A5A" stroke-width=".5"/><mask id="a" fill="#fff"><path fill-rule="evenodd" clip-rule="evenodd" d="m449.454 242.107-3.803-.363a.988.988 0 0 1-.954-1.031.98.98 0 0 1 .954-1l3.803-.363"/></mask><path fill-rule="evenodd" clip-rule="evenodd" d="m449.454 242.107-3.803-.363a.988.988 0 0 1-.954-1.031.98.98 0 0 1 .954-1l3.803-.363" fill="#fff"/><path d="m445.651 241.744.015-.5h.016l.017.002-.048.498Zm-.954-1.031h.5v.014l-.5-.014Zm.954-1 .048.498-.017.002h-.016l-.015-.5Zm3.756 2.892-3.803-.364.095-.995 3.803.364-.095.995Zm-3.77-.361a1.489 1.489 0 0 1-1.44-1.544l1 .027a.488.488 0 0 0 .469.517l-.029 1Zm-1.44-1.531a1.48 1.48 0 0 1 1.44-1.5l.029 1a.48.48 0 0 0-.469.5h-1Zm1.407-1.497 3.803-.364.095.995-3.803.364-.095-.995Z" fill="#5A5A5A" mask="url(#a)"/><path d="M9 291h86v179H9V291Z" fill="#FDFF9F"/><path d="m35.524 310.72-1.18.016-3.067-.016h-7.591v9.957h11.838c3.017 0 5.476-2.244 5.476-4.995 0-2.719-2.46-4.962-5.476-4.962Z" fill="#fff" stroke="#5A5A5A" stroke-width=".5"/><path d="M35.458 311.866h-8.493v7.681h7.559l.934-.017c2.378 0 4.313-1.703 4.313-3.832-.017-2.112-1.952-3.832-4.313-3.832Zm-18.134 10.612h5.263c.607 0 1.099-.491 1.099-1.097v-11.284c0-.606-.492-1.097-1.099-1.097h-5.263c-.607 0-1.099.491-1.099 1.097v11.268c0 .622.492 1.113 1.099 1.113Z" fill="#fff" stroke="#5A5A5A" stroke-width=".5"/><path d="M19.948 316.386c.41 0 .721-.295.721-.639.017-.36-.311-.655-.721-.655s-.721.295-.721.639a.683.683 0 0 0 .721.655ZM80 344.848V332.54c0-.855-.684-1.54-1.539-1.54h-18.52c-.854 0-1.538.685-1.538 1.54v12.308c0 .856.684 1.541 1.539 1.541h18.52c.84 0 1.538-.685 1.538-1.541Z" fill="#fff" stroke="#5A5A5A" stroke-width=".5"/><path d="M78.076 340.156v-1.897a4.52 4.52 0 0 0-4.516-4.521h-8.718a4.52 4.52 0 0 0-4.516 4.521v1.897a4.52 4.52 0 0 0 4.516 4.521h8.718a4.52 4.52 0 0 0 4.516-4.521Z" fill="#fff" stroke="#5A5A5A" stroke-width=".5"/><path d="M70.156 342.267c0-.543-.427-.984-.955-.984-.527 0-.954.441-.954.984 0 .543.427.984.954.984.528 0 .955-.441.955-.984Z" fill="#fff" stroke="#5A5A5A" stroke-width=".5"/><path fill="#5A5A5A" d="M266 55v30h70V55z"/><path stroke="#5A5A5A" d="m418.268 75.422-30 19"/><path d="m318.25.25 110.457.063.041 4.437H318.25V.25Z" stroke="#5A5A5A" stroke-width=".5" stroke-miterlimit="10"/><path fill="#5A5A5A" d="M302 0h-5v82h5zm142 3h-5v79h5z"/><path fill="#5A5A5A" d="M425 0v5h19V0zM300 0v5h19V0z"/><path d="m387.75 55.25-63.475.063-.024 4.437h63.499v-4.5Zm0 10-63.475.063-.024 4.437h63.499v-4.5Z" stroke="#5A5A5A" stroke-width=".5" stroke-miterlimit="10"/><path fill="#5A5A5A" d="M110 55v30h82V55zM0 55v30h45V55z"/><path fill="#5A5A5A" d="M16 61H0v607h16zm452-6h-16v236h16z"/><path fill="#5A5A5A" d="M323 275v16h145v-16zm129-72v-2h-6v2zm-11 0v-2h-11v2zm-17 0v-2h-11v2zm-17 0v-2h-11v2zm-17 0v-2h-11v2zm-17 0v-2h-11v2zm-20 0v-2h-11v2zm-15 0v-2h-11v2z"/><path fill="#5A5A5A" d="M323 291h2v-6h-2zm0-11h2v-11h-2zm0-17h2v-11h-2zm0-17h2v-11h-2zm0-17h2v-11h-2zm0-17h2v-11h-2zm5 110h16v-46h-16zm0 85h16v-46h-16zm-87 0h16v-46h-16z"/><path fill="#5A5A5A" d="M160 353v16h97v-16zm176 54v-16h-95v16z"/><path fill="#5A5A5A" d="M164 353h-16v329h16zM13 469v16h94v-16zM9 275v16h98v-16zm138 0v16h21v-16zm59 0v16h78v-16zM0 665v30h45v-30z"/><path fill="#5A5A5A" d="M114 665v30h65v-30z"/><path d="m37.25 55.25 294.381.152.116 11.348H37.25v-11.5Zm-4 610 137.445.152.054 11.348H33.25v-11.5Zm4-592 294.381.152.116 11.348H37.25v-11.5Zm-4 610 137.445.152.054 11.348H33.25v-11.5Z" stroke="#5A5A5A" stroke-width=".5" stroke-miterlimit="10"/><path fill="#5A5A5A" d="M103 415h-8v70h8zm0-81h-8v50h8zm0-58h-8v26h8z"/><path fill="#5A5A5A" d="M13 346v8h86v-8z"/><path d="m34.895 371.72-1.18.016-3.067-.016h-7.59v9.957h11.837c3.017 0 5.476-2.244 5.476-4.995 0-2.719-2.46-4.962-5.476-4.962Z" fill="#fff" stroke="#5A5A5A" stroke-width=".5"/><path d="M34.83 372.866h-8.494v7.681h7.559l.934-.017c2.378 0 4.313-1.703 4.313-3.832-.017-2.112-1.952-3.832-4.313-3.832Zm-18.135 10.612h5.263c.607 0 1.099-.491 1.099-1.097v-11.284c0-.606-.492-1.097-1.099-1.097h-5.263c-.607 0-1.098.491-1.098 1.097v11.268a1.1 1.1 0 0 0 1.098 1.113Z" fill="#fff" stroke="#5A5A5A" stroke-width=".5"/><path d="M19.32 377.386c.409 0 .72-.295.72-.639.017-.36-.311-.655-.72-.655-.41 0-.722.295-.722.639a.683.683 0 0 0 .721.655Zm-2.254 36.759h12.308c.856 0 1.54-.684 1.54-1.538v-18.52c0-.854-.684-1.538-1.54-1.538H17.066c-.856 0-1.54.684-1.54 1.538v18.52c0 .84.684 1.538 1.54 1.538Z" fill="#fff" stroke="#5A5A5A" stroke-width=".5"/><path d="M21.757 412.222h1.897a4.52 4.52 0 0 0 4.521-4.516v-8.718a4.52 4.52 0 0 0-4.52-4.516h-1.898a4.52 4.52 0 0 0-4.52 4.516v8.718a4.52 4.52 0 0 0 4.52 4.516Z" fill="#fff" stroke="#5A5A5A" stroke-width=".5"/><path d="M19.647 404.302c.544 0 .984-.427.984-.955 0-.527-.44-.954-.984-.954-.543 0-.984.427-.984.954 0 .528.44.955.984.955Zm-1.783 38.542h60.121c.77 0 1.386.615 1.386 1.384v23.867a1.38 1.38 0 0 1-1.386 1.384h-60.12a1.38 1.38 0 0 1-1.386-1.384v-23.867c0-.769.63-1.384 1.385-1.384Z" fill="#fff" stroke="#5A5A5A" stroke-width=".5"/><path d="M75.676 452.925v6.487a6.798 6.798 0 0 1-6.803 6.796H21.532a1.66 1.66 0 0 1-1.666-1.664v-16.779a1.66 1.66 0 0 1 1.666-1.663h47.327c3.765.014 6.817 3.062 6.817 6.823Z" fill="#fff" stroke="#5A5A5A" stroke-width=".5"/><path d="M25.479 455.693c0-.749-.633-1.357-1.414-1.357-.78 0-1.414.608-1.414 1.357s.633 1.356 1.414 1.356c.78 0 1.414-.607 1.414-1.356ZM95 376.024v-22.01L73.412 354l.014 22.01 21.574.014Z" fill="#fff" stroke="#5A5A5A" stroke-width=".5"/><path d="M78.669 365.005c0-3.114 2.475-5.628 5.537-5.628s5.536 2.514 5.536 5.642c0 3.114-2.474 5.656-5.536 5.656-3.062-.014-5.537-2.556-5.537-5.67Z" stroke="#5A5A5A" stroke-width=".5"/><path d="M84.206 369.125a3.874 3.874 0 0 1-2.852-1.201 4.266 4.266 0 0 1-1.189-2.905m4.027-4.134a4.033 4.033 0 0 0-2.852 1.201 4.186 4.186 0 0 0-1.189 2.919l4.041-4.12Zm.014 8.24a4.033 4.033 0 0 0 2.852-1.201 4.2 4.2 0 0 0 1.175-2.919l-4.027 4.12Zm-.014-8.24c1.133 0 2.14.461 2.852 1.201l.014.014a4.167 4.167 0 0 1 1.175 2.891l-4.041-4.106Z" stroke="#5A5A5A" stroke-width=".5"/><path stroke="#5A5A5A" d="m149.237 470.56-39-21m-8.793-31.33 15-29m212.3-102.66-42 25m54.823 6.68 22 38m-263.014-57.026 15 30m-11.794-40.786 40 22m20.999-22 38 21"/><path d="M49.49 399.78c0-.448.098-.915.294-1.4.205-.495.401-.882.588-1.162.196-.289.462-.649.798-1.078l2.24-2.94h1.89l-2.114 2.758-.616.532v.07l.28-.098c.28-.075.583-.112.91-.112.915 0 1.69.331 2.324.994.644.653.966 1.465.966 2.436 0 .989-.355 1.82-1.064 2.492-.71.672-1.615 1.008-2.716 1.008-1.101 0-2.007-.336-2.716-1.008-.71-.672-1.064-1.503-1.064-2.492Zm2.254-1.456c-.383.373-.574.859-.574 1.456s.191 1.087.574 1.47c.383.373.891.56 1.526.56s1.143-.187 1.526-.56c.383-.383.574-.873.574-1.47s-.191-1.083-.574-1.456c-.383-.383-.891-.574-1.526-.574s-1.143.191-1.526.574Zm6.43 3.906c0-.28.088-.513.265-.7a.931.931 0 0 1 .686-.28c.308 0 .55.112.728.336.187.224.28.555.28.994 0 .719-.172 1.269-.518 1.652-.336.392-.793.588-1.372.588v-.7c.28 0 .5-.079.658-.238a.765.765 0 0 0 .252-.602v-.084c-.01-.009-.014-.028-.014-.056v-.042l-.084.028a.742.742 0 0 1-.182.014c-.186 0-.35-.084-.49-.252-.14-.168-.21-.387-.21-.658Zm4.476-.406c-.887-.971-1.33-2.212-1.33-3.724s.443-2.753 1.33-3.724c.886-.971 1.96-1.456 3.22-1.456 1.26 0 2.333.485 3.22 1.456.886.971 1.33 2.212 1.33 3.724s-.444 2.753-1.33 3.724c-.887.971-1.96 1.456-3.22 1.456-1.26 0-2.334-.485-3.22-1.456Zm1.148-6.412c-.532.635-.799 1.531-.799 2.688 0 1.157.267 2.053.798 2.688.542.635 1.233.952 2.073.952.84 0 1.525-.317 2.057-.952.542-.635.813-1.531.813-2.688 0-1.157-.271-2.053-.813-2.688-.532-.635-1.218-.952-2.058-.952-.84 0-1.53.317-2.072.952Zm7.465 5.628v-1.54l3.29-6.3h1.75l-3.29 6.3h3.22v-2.38h1.61v2.38h1.4v1.54h-1.4V403h-1.61v-1.96h-4.97Zm.087 172.38v-1.82l1.82-1.4h1.47v9.8h-1.61v-7.84l-1.68 1.26Zm4.831 3.85h1.68c.075.289.2.537.378.742.41.485 1.008.728 1.792.728.625 0 1.12-.168 1.484-.504.364-.336.546-.775.546-1.316 0-.569-.182-1.027-.546-1.372-.364-.345-.859-.518-1.484-.518-.579 0-1.069.154-1.47.462a1.928 1.928 0 0 0-.42.448h-1.54l.42-5.74h5.95v1.54h-4.62l-.21 2.52h.07a2.13 2.13 0 0 1 .518-.378c.439-.261.966-.392 1.582-.392.98 0 1.797.327 2.45.98.653.653.98 1.47.98 2.45 0 .961-.345 1.764-1.036 2.408-.681.635-1.573.952-2.674.952-1.437 0-2.506-.499-3.206-1.498a4.417 4.417 0 0 1-.644-1.512Zm8.613 1.96c0-.28.089-.513.266-.7a.931.931 0 0 1 .686-.28c.308 0 .551.112.728.336.187.224.28.555.28.994 0 .719-.172 1.269-.518 1.652-.336.392-.793.588-1.372.588v-.7c.28 0 .5-.079.658-.238a.765.765 0 0 0 .252-.602v-.084c-.009-.009-.014-.028-.014-.056v-.042l-.084.028a.742.742 0 0 1-.182.014c-.186 0-.35-.084-.49-.252-.14-.168-.21-.387-.21-.658Zm2.727-1.19v-1.54l3.29-6.3h1.75l-3.29 6.3h3.22v-2.38h1.61v2.38h1.4v1.54h-1.4V580h-1.61v-1.96h-4.97Zm7.695-6.3v-1.54h6.65v1.54l-3.92 8.26h-1.75l3.85-8.12v-.14h-4.83ZM56.42 320v-1.54l3.346-2.366c.728-.523 1.25-1.008 1.568-1.456.317-.448.476-.924.476-1.428 0-.532-.163-.957-.49-1.274-.327-.317-.77-.476-1.33-.476-.69 0-1.209.28-1.554.84-.15.243-.261.523-.336.84h-1.68a4.332 4.332 0 0 1 .546-1.61c.663-1.073 1.67-1.61 3.024-1.61 1.036 0 1.876.308 2.52.924.653.607.98 1.372.98 2.296a3.95 3.95 0 0 1-.616 2.17c-.41.635-1.069 1.265-1.974 1.89l-1.4.98-.63.28v.07l.84-.07h3.78V320h-7.07Zm8.193-.77c0-.28.088-.513.266-.7a.932.932 0 0 1 .686-.28c.308 0 .55.112.728.336.186.224.28.555.28.994 0 .719-.173 1.269-.518 1.652-.336.392-.794.588-1.372.588v-.7c.28 0 .5-.079.658-.238a.765.765 0 0 0 .252-.602v-.084c-.01-.009-.014-.028-.014-.056v-.042l-.084.028a.741.741 0 0 1-.182.014c-.187 0-.35-.084-.49-.252-.14-.168-.21-.387-.21-.658Zm3.076-5.81c0-.989.355-1.82 1.064-2.492.71-.672 1.615-1.008 2.716-1.008 1.101 0 2.007.336 2.716 1.008.71.672 1.064 1.503 1.064 2.492 0 .887-.369 1.843-1.106 2.87l-.308.42c-.13.168-.22.285-.266.35l-2.24 2.94h-1.89l2.114-2.758.616-.532v-.07a7.398 7.398 0 0 1-.28.112 3.581 3.581 0 0 1-.91.098 3.163 3.163 0 0 1-2.338-.98c-.635-.663-.952-1.479-.952-2.45Zm2.254-1.456c-.383.373-.574.859-.574 1.456s.191 1.087.574 1.47c.383.373.891.56 1.526.56s1.143-.187 1.526-.56c.383-.383.574-.873.574-1.47s-.191-1.083-.574-1.456c-.383-.383-.891-.574-1.526-.574s-1.143.191-1.526.574Zm6.36 5.376c0-.849.326-1.526.98-2.03a3.15 3.15 0 0 1 .98-.448v-.084a2.564 2.564 0 0 1-.77-.462c-.514-.439-.77-1.017-.77-1.736 0-.737.312-1.363.937-1.876.635-.523 1.489-.784 2.562-.784 1.074 0 1.923.261 2.548.784.635.513.952 1.139.952 1.876 0 .7-.256 1.279-.77 1.736-.242.196-.5.35-.77.462v.084c.355.093.681.247.98.462.653.504.98 1.176.98 2.016 0 .812-.355 1.507-1.064 2.086-.7.569-1.652.854-2.856.854s-2.16-.285-2.87-.854c-.7-.579-1.05-1.274-1.05-2.086Zm2.1-4.62c0 .411.158.747.475 1.008.317.261.766.392 1.344.392.579 0 1.027-.131 1.344-.392.317-.261.476-.597.476-1.008 0-.373-.163-.686-.49-.938-.317-.261-.76-.392-1.33-.392-.57 0-1.017.131-1.344.392-.317.252-.476.565-.476.938Zm.167 3.346c-.392.308-.588.686-.588 1.134 0 .448.196.831.588 1.148.402.308.952.462 1.652.462s1.246-.154 1.638-.462c.401-.317.602-.7.602-1.148 0-.448-.2-.826-.602-1.134-.392-.317-.938-.476-1.638-.476s-1.25.159-1.652.476Z" fill="#333"/></svg>