<svg width="360" height="556" fill="none" xmlns="http://www.w3.org/2000/svg"><path d="M346 474.213H82v-343l264-14v357Z" fill="#FFF8BA"/><path d="M278 148.213H87l128-125h63v125Z" fill="#FFF8BA"/><path d="M283 120v180l61-2.857V120h-61Z" fill="#FFC79F"/><path d="M342.678 300.411h-57.356A1.316 1.316 0 0 1 284 299.09v-22.769c0-.734.588-1.321 1.322-1.321h57.356c.734 0 1.322.587 1.322 1.321v22.769c0 .734-.601 1.321-1.322 1.321Z" fill="#fff" stroke="#5A5A5A" stroke-width=".5"/><path d="M287.526 290.793v-6.189a6.485 6.485 0 0 1 6.49-6.483h45.163c.882 0 1.59.707 1.59 1.587v16.007c0 .88-.708 1.587-1.59 1.587h-45.15c-3.592-.013-6.503-2.921-6.503-6.509Z" fill="#fff" stroke="#5A5A5A" stroke-width=".5"/><path d="M335.413 288.152c0 .715.604 1.294 1.349 1.294s1.349-.579 1.349-1.294c0-.714-.604-1.294-1.349-1.294s-1.349.58-1.349 1.294Z" fill="#fff" stroke="#5A5A5A" stroke-width=".5"/><path fill="#5A5A5A" d="M82 504H52v-88h30z"/><path fill="#5A5A5A" d="M117 474v30H58v-30zm124 .213v30h-73v-30zM360 474v30h-62v-30zM82 334H52v-89h30zM294 .213v25h-88v-25zm-212 191H52v-38h30z"/><path d="m309.75 555.75-81.468-.063-.03-4.437h81.498v4.5Z" stroke="#5A5A5A" stroke-width=".5" stroke-miterlimit="10"/><path fill="#5A5A5A" d="M316 556h5v-74h-5zm-99 0h5v-74h-5z"/><path fill="#5A5A5A" d="M234 556v-5h-15v5zm87 0v-5h-12v5z"/><path d="m330.75 489.25-60.476.063-.023 4.437h60.499v-4.5Zm0 10-60.476.063-.023 4.437h60.499v-4.5Z" stroke="#5A5A5A" stroke-width=".5" stroke-miterlimit="10"/><path stroke="#5A5A5A" d="m240.745 488.57 27-16"/><path d="m.25 319.25.063 107.458 4.437.04V319.25H.25Z" stroke="#5A5A5A" stroke-width=".5" stroke-miterlimit="10"/><path fill="#5A5A5A" d="M0 316v-5h74v5zm0 126v-5h74v5z"/><path fill="#5A5A5A" d="M0 426h5v15H0zm0-113h5v12H0z"/><path d="m66.75 329.25-.063 60.476-4.437.023V329.25h4.5Zm-10 0-.063 60.476-4.437.023V329.25h4.5Z" stroke="#5A5A5A" stroke-width=".5" stroke-miterlimit="10"/><path stroke="#5A5A5A" d="m67.43 419.255 16-27"/><path fill="#5A5A5A" d="m73.13 174.297-21.213-21.213L205 0l21.213 21.213zM344 296h16v186h-16zM294 66h-16V25h16zm58 46v11h-76v-11z"/><path fill="#5A5A5A" d="M293 120h-17v-20h17zm67 180.213h-16v-184h16zm-16-105v8h-63v-8h63Zm-112.247-63.404-5.657 5.657-61.177-61.177 5.656-5.657 61.178 61.177Z"/><path d="M276 163h8v74h-8v-74Zm-52-31h8v36h-8v-36Z" fill="#5A5A5A"/><path d="m224.25 265.75.025-41.041 1.475-.012v41.053h-1.5Zm0-68.444.025-41.041 1.475-.013v41.054h-1.5Zm-2 34.222.025-41.041 1.475-.013v41.054h-1.5Z" stroke="#5A5A5A" stroke-width=".5" stroke-miterlimit="10"/><path d="M276 103h8v33h-8v-33Zm0 163h8v42h-8v-42Z" fill="#5A5A5A"/><path d="M284 266v8h-60v-8h60Z" fill="#5A5A5A"/><path d="M232 268h-8v-18h8v18Zm114 32v8h-63v-8h63Z" fill="#5A5A5A"/><path d="m223.75 474.25-124.45.152-.049 11.348H223.75v-11.5Zm-171.5-300 .152 83.466 11.348.033V174.25h-11.5Zm171.5 318-124.45.152-.049 11.348H223.75v-11.5Zm-153.5-318 .152 83.466 11.348.033V174.25h-11.5Z" stroke="#5A5A5A" stroke-width=".5" stroke-miterlimit="10"/><path stroke="#5A5A5A" d="m278.433 266.963-15-26m23.138-138.22 21-35"/><path fill="#5A5A5A" d="M220 189.213v-2h-11v2zm-51 0v-2h-11v2zm17 0v-2h-11v2zm17 0v-2h-11v2zm-51 0v-2h-11v2zm-17 0v-2h-11v2zm-17 0v-2h-11v2zm-17 0v-2H90v2z"/><path d="m201.799 113.131-17.674 17.674 17.2 17.2L219 130.331l-17.201-17.2Z" fill="#fff" stroke="#5A5A5A" stroke-width=".5"/><path d="m186.213 130.027 13.756-13.755c.521-.522 1.077-.522 1.621.022l14.246 14.247c.555.555.555 1.088.023 1.621l-13.756 13.755c-.522.544-1.066.533-1.61-.011l-14.246-14.247c-.567-.544-.567-1.099-.034-1.632Z" fill="#fff" stroke="#5A5A5A" stroke-width=".5"/><path d="M192.075 133.359c1.277 1.255 3.309 1.288 4.542.056 1.243-1.243 1.209-3.275-.056-4.541-1.277-1.277-3.298-1.299-4.542-.056-1.243 1.243-1.221 3.264.056 4.541Zm6.829 6.785c1.277 1.255 3.309 1.289 4.541.056 1.243-1.243 1.21-3.275-.056-4.541-1.277-1.277-3.298-1.299-4.541-.056-1.255 1.233-1.232 3.276.056 4.541Zm6.373-6.373c1.277 1.277 3.298 1.299 4.541.056 1.244-1.244 1.21-3.276-.056-4.541-1.277-1.255-3.309-1.289-4.541-.056-1.232 1.232-1.21 3.275.056 4.541Zm-6.807-6.807c1.277 1.277 3.298 1.3 4.542.056 1.243-1.243 1.209-3.275-.056-4.541-1.277-1.255-3.309-1.288-4.542-.056-1.232 1.232-1.209 3.275.056 4.541Z" stroke="#5A5A5A" stroke-width=".5"/><path d="m184.629 95.982-17.033 17.033-16.758-16.758 17.044-17.044 16.747 16.769Z" fill="#fff" stroke="#5A5A5A" stroke-width=".5"/><path d="m178.683 99.378-9.417 9.417c-.525.524-1.039.524-1.575-.011l-12.45-12.45c-.515-.515-.525-1.04-.022-1.565l9.438-9.416c.504-.525 1.029-.515 1.554.01l12.45 12.45c.546.504.546 1.04.022 1.565Z" fill="#fff" stroke="#5A5A5A" stroke-width=".5"/><path d="M175.029 88.996c-.664-.643-1.682-.675-2.304-.054l-4.477 5.4v.02c-.375.376-.365.986.032 1.383a.996.996 0 0 0 1.403.032l5.4-4.478c.61-.61.589-1.639-.054-2.303Z" stroke="#5A5A5A" stroke-width=".5"/><mask id="a" fill="#fff"><path fill-rule="evenodd" clip-rule="evenodd" d="m173.571 88.503-2.432 2.946a.988.988 0 0 0 .054 1.404.98.98 0 0 0 1.382.032l2.946-2.432"/></mask><path fill-rule="evenodd" clip-rule="evenodd" d="m173.571 88.503-2.432 2.946a.988.988 0 0 0 .054 1.404.98.98 0 0 0 1.382.032l2.946-2.432" fill="#fff"/><path d="m171.139 91.45.364.343.011-.013.011-.013-.386-.318Zm.054 1.403.354-.354-.01-.009-.344.363Zm1.382.032-.318-.386-.013.011-.012.011.343.364Zm.61-4.7-2.431 2.946.771.636 2.432-2.945-.772-.637Zm-2.409 2.92a1.487 1.487 0 0 0 .073 2.11l.688-.725a.488.488 0 0 1-.034-.697l-.727-.687Zm.063 2.101a1.48 1.48 0 0 0 2.079.043l-.686-.727a.482.482 0 0 1-.686-.023l-.707.707Zm2.054.065 2.946-2.432-.636-.771-2.946 2.431.636.772Z" fill="#5A5A5A" mask="url(#a)"/><path d="m325.476 181.877 1.181-.017 3.066.017h7.591v-9.958h-11.838c-3.017 0-5.476 2.244-5.476 4.995 0 2.719 2.459 4.963 5.476 4.963Z" fill="#fff" stroke="#5A5A5A" stroke-width=".5"/><path d="M325.542 180.73h8.493v-7.68h-7.559l-.934.016c-2.378 0-4.313 1.703-4.313 3.832.017 2.113 1.952 3.832 4.313 3.832Zm18.134-10.612h-5.264c-.606 0-1.098.491-1.098 1.097v11.284c0 .606.492 1.097 1.098 1.097h5.264c.606 0 1.098-.491 1.098-1.097v-11.267c0-.623-.492-1.114-1.098-1.114Z" fill="#fff" stroke="#5A5A5A" stroke-width=".5"/><path d="M341.052 176.21c-.41 0-.721.295-.721.639-.017.36.311.655.721.655s.721-.295.721-.639a.684.684 0 0 0-.721-.655Zm-15.576 79.667 1.181-.017 3.066.017h7.591v-9.958h-11.838c-3.017 0-5.476 2.244-5.476 4.995 0 2.719 2.459 4.963 5.476 4.963Z" fill="#fff" stroke="#5A5A5A" stroke-width=".5"/><path d="M325.542 254.73h8.493v-7.68h-7.559l-.934.016c-2.378 0-4.313 1.703-4.313 3.832.017 2.113 1.952 3.832 4.313 3.832Zm18.134-10.612h-5.264c-.606 0-1.098.491-1.098 1.097v11.284c0 .606.492 1.097 1.098 1.097h5.264c.606 0 1.098-.491 1.098-1.097v-11.267c0-.623-.492-1.114-1.098-1.114Z" fill="#fff" stroke="#5A5A5A" stroke-width=".5"/><path d="M341.052 250.21c-.41 0-.721.295-.721.639-.017.36.311.655.721.655s.721-.295.721-.639a.684.684 0 0 0-.721-.655ZM330.54 139h12.308c.856 0 1.541.684 1.541 1.539v18.519c0 .855-.685 1.538-1.541 1.538H330.54c-.855 0-1.54-.683-1.54-1.538v-18.519c0-.841.685-1.539 1.54-1.539Z" fill="#fff" stroke="#5A5A5A" stroke-width=".5"/><path d="M335.232 140.923h1.897a4.52 4.52 0 0 1 4.521 4.516v8.718a4.52 4.52 0 0 1-4.521 4.516h-1.897a4.52 4.52 0 0 1-4.521-4.516v-8.718a4.52 4.52 0 0 1 4.521-4.516Z" fill="#fff" stroke="#5A5A5A" stroke-width=".5"/><path d="M333.122 148.843c.543 0 .984.428.984.955 0 .527-.441.954-.984.954-.544 0-.984-.427-.984-.954 0-.527.44-.955.984-.955ZM330.54 213h12.308c.856 0 1.541.684 1.541 1.539v18.519c0 .855-.685 1.538-1.541 1.538H330.54c-.855 0-1.54-.683-1.54-1.538v-18.519c0-.841.685-1.539 1.54-1.539Z" fill="#fff" stroke="#5A5A5A" stroke-width=".5"/><path d="M335.232 214.923h1.897a4.52 4.52 0 0 1 4.521 4.516v8.718a4.52 4.52 0 0 1-4.521 4.516h-1.897a4.52 4.52 0 0 1-4.521-4.516v-8.718a4.52 4.52 0 0 1 4.521-4.516Z" fill="#fff" stroke="#5A5A5A" stroke-width=".5"/><path d="M333.122 222.843c.543 0 .984.428.984.955 0 .527-.441.954-.984.954-.544 0-.984-.427-.984-.954 0-.527.44-.955.984-.955Z" fill="#fff" stroke="#5A5A5A" stroke-width=".5"/><path d="M239.21 406.253v-1.54l3.29-6.3h1.75l-3.29 6.3h3.22v-2.38h1.61v2.38h1.4v1.54h-1.4v1.96h-1.61v-1.96h-4.97Zm7.696-6.3v-1.54h6.65v1.54l-3.92 8.26h-1.75l3.85-8.12v-.14h-4.83Zm6.093 7.49c0-.28.089-.513.266-.7a.937.937 0 0 1 .686-.28c.308 0 .551.112.728.336.187.224.28.556.28.994 0 .719-.172 1.27-.518 1.652-.336.392-.793.588-1.372.588v-.7c.28 0 .5-.079.658-.238a.765.765 0 0 0 .252-.602v-.084c-.009-.009-.014-.028-.014-.056v-.042l-.084.028a.69.69 0 0 1-.182.014c-.186 0-.35-.084-.49-.252-.14-.168-.21-.387-.21-.658Zm2.867-5.81v-1.82l1.82-1.4h1.47v9.8h-1.61v-7.84l-1.68 1.26Zm4.761 3.36c0-.448.098-.914.294-1.4.205-.494.401-.882.588-1.162.196-.289.462-.648.798-1.078l2.24-2.94h1.89l-2.114 2.758-.616.532v.07l.28-.098a3.55 3.55 0 0 1 .91-.112 3.1 3.1 0 0 1 2.324.994c.644.654.966 1.466.966 2.436 0 .99-.355 1.82-1.064 2.492-.71.672-1.615 1.008-2.716 1.008-1.102 0-2.007-.336-2.716-1.008-.71-.672-1.064-1.502-1.064-2.492Zm2.254-1.456c-.383.374-.574.859-.574 1.456 0 .598.191 1.088.574 1.47.382.374.891.56 1.526.56.634 0 1.143-.186 1.526-.56.382-.382.574-.872.574-1.47 0-.597-.192-1.082-.574-1.456-.383-.382-.892-.574-1.526-.574-.635 0-1.144.192-1.526.574ZM245.42 532.2h1.68c.065.289.191.546.378.77.42.513 1.017.77 1.792.77.644 0 1.153-.159 1.526-.476.383-.327.574-.728.574-1.204 0-.541-.173-.966-.518-1.274-.336-.317-.817-.476-1.442-.476h-2.38v-1.4l2.94-2.1v-.07h-4.06v-1.54h6.44v1.526l-2.52 1.834-.7.28v.07l.224-.028c.308-.028.49-.042.546-.042.877 0 1.61.303 2.198.91.588.607.882 1.377.882 2.31 0 .896-.345 1.657-1.036 2.282-.691.625-1.582.938-2.674.938-1.447 0-2.515-.513-3.206-1.54a4.406 4.406 0 0 1-.644-1.54Zm8.617 2.03c0-.28.088-.513.266-.7a.93.93 0 0 1 .686-.28c.308 0 .55.112.728.336.186.224.28.555.28.994 0 .719-.173 1.269-.518 1.652-.336.392-.794.588-1.372.588v-.7c.28 0 .499-.079.658-.238a.765.765 0 0 0 .252-.602v-.084c-.01-.009-.014-.028-.014-.056v-.042l-.084.028a.743.743 0 0 1-.182.014c-.187 0-.35-.084-.49-.252-.14-.168-.21-.387-.21-.658Zm3.006-2.45c0-.448.098-.915.294-1.4.205-.495.401-.882.588-1.162.196-.289.462-.649.798-1.078l2.24-2.94h1.89l-2.114 2.758-.616.532v.07l.28-.098c.28-.075.583-.112.91-.112.914 0 1.689.331 2.324.994.644.653.966 1.465.966 2.436 0 .989-.355 1.82-1.064 2.492-.71.672-1.615 1.008-2.716 1.008-1.102 0-2.007-.336-2.716-1.008-.71-.672-1.064-1.503-1.064-2.492Zm2.254-1.456c-.383.373-.574.859-.574 1.456s.191 1.087.574 1.47c.382.373.891.56 1.526.56.634 0 1.143-.187 1.526-.56.382-.383.574-.873.574-1.47s-.192-1.083-.574-1.456c-.383-.383-.892-.574-1.526-.574-.635 0-1.144.191-1.526.574Zm6.359 1.456c0-.448.098-.915.294-1.4.205-.495.401-.882.588-1.162.196-.289.462-.649.798-1.078l2.24-2.94h1.89l-2.114 2.758-.616.532v.07l.28-.098c.28-.075.583-.112.91-.112.915 0 1.689.331 2.324.994.644.653.966 1.465.966 2.436 0 .989-.355 1.82-1.064 2.492-.709.672-1.615 1.008-2.716 1.008-1.101 0-2.007-.336-2.716-1.008-.709-.672-1.064-1.503-1.064-2.492Zm2.254-1.456c-.383.373-.574.859-.574 1.456s.191 1.087.574 1.47c.383.373.891.56 1.526.56s1.143-.187 1.526-.56c.383-.383.574-.873.574-1.47s-.191-1.083-.574-1.456c-.383-.383-.891-.574-1.526-.574s-1.143.191-1.526.574ZM16.42 387.2h1.68c.065.289.191.546.378.77.42.513 1.017.77 1.792.77.644 0 1.153-.159 1.526-.476.383-.327.574-.728.574-1.204 0-.541-.173-.966-.518-1.274-.336-.317-.817-.476-1.442-.476h-2.38v-1.4l2.94-2.1v-.07h-4.06v-1.54h6.44v1.526l-2.52 1.834-.7.28v.07l.224-.028c.308-.028.49-.042.546-.042.877 0 1.61.303 2.198.91.588.607.882 1.377.882 2.31 0 .896-.345 1.657-1.036 2.282-.69.625-1.582.938-2.674.938-1.447 0-2.515-.513-3.206-1.54a4.406 4.406 0 0 1-.644-1.54Zm8.617 2.03c0-.28.088-.513.266-.7a.931.931 0 0 1 .686-.28c.308 0 .55.112.728.336.186.224.28.555.28.994 0 .719-.173 1.269-.518 1.652-.336.392-.794.588-1.372.588v-.7c.28 0 .499-.079.658-.238a.765.765 0 0 0 .252-.602v-.084c-.01-.009-.014-.028-.014-.056v-.042l-.084.028a.742.742 0 0 1-.182.014c-.187 0-.35-.084-.49-.252-.14-.168-.21-.387-.21-.658Zm3.006-2.45c0-.448.098-.915.294-1.4.205-.495.401-.882.588-1.162.196-.289.462-.649.798-1.078l2.24-2.94h1.89l-2.114 2.758-.616.532v.07l.28-.098c.28-.075.583-.112.91-.112.914 0 1.69.331 2.324.994.644.653.966 1.465.966 2.436 0 .989-.355 1.82-1.064 2.492-.71.672-1.615 1.008-2.716 1.008-1.102 0-2.007-.336-2.716-1.008-.71-.672-1.064-1.503-1.064-2.492Zm2.254-1.456c-.383.373-.574.859-.574 1.456s.191 1.087.574 1.47c.382.373.891.56 1.526.56.634 0 1.143-.187 1.526-.56.382-.383.574-.873.574-1.47s-.192-1.083-.574-1.456c-.383-.383-.892-.574-1.526-.574-.635 0-1.144.191-1.526.574Zm6.359 1.456c0-.448.098-.915.294-1.4.205-.495.401-.882.588-1.162.196-.289.462-.649.798-1.078l2.24-2.94h1.89l-2.114 2.758-.616.532v.07l.28-.098c.28-.075.583-.112.91-.112.915 0 1.69.331 2.324.994.644.653.966 1.465.966 2.436 0 .989-.355 1.82-1.064 2.492-.71.672-1.615 1.008-2.716 1.008-1.101 0-2.007-.336-2.716-1.008-.71-.672-1.064-1.503-1.064-2.492Zm2.254-1.456c-.383.373-.574.859-.574 1.456s.191 1.087.574 1.47c.383.373.891.56 1.526.56s1.143-.187 1.526-.56c.383-.383.574-.873.574-1.47s-.191-1.083-.574-1.456c-.383-.383-.891-.574-1.526-.574s-1.143.191-1.526.574Zm251.3-137.071v-1.54l3.29-6.3h1.75l-3.29 6.3h3.22v-2.38h1.61v2.38h1.4v1.54h-1.4v1.96h-1.61v-1.96h-4.97Zm8.539 1.19c0-.28.089-.513.266-.7a.937.937 0 0 1 .686-.28c.308 0 .551.112.728.336.187.224.28.556.28.994 0 .719-.172 1.27-.518 1.652-.336.392-.793.588-1.372.588v-.7c.28 0 .5-.079.658-.238a.765.765 0 0 0 .252-.602v-.084c-.009-.009-.014-.028-.014-.056v-.042l-.084.028a.69.69 0 0 1-.182.014c-.186 0-.35-.084-.49-.252-.14-.168-.21-.387-.21-.658Zm3.077-5.81c0-.989.354-1.82 1.064-2.492.709-.672 1.614-1.008 2.716-1.008 1.101 0 2.006.336 2.716 1.008.709.672 1.064 1.503 1.064 2.492 0 .887-.369 1.844-1.106 2.87l-.308.42c-.131.168-.22.285-.266.35l-2.24 2.94h-1.89l2.114-2.758.616-.532v-.07c-.019.01-.112.047-.28.112a3.538 3.538 0 0 1-.91.098 3.159 3.159 0 0 1-2.338-.98c-.635-.662-.952-1.479-.952-2.45Zm2.254-1.456c-.383.374-.574.859-.574 1.456 0 .598.191 1.088.574 1.47.382.374.891.56 1.526.56.634 0 1.143-.186 1.526-.56.382-.382.574-.872.574-1.47 0-.597-.192-1.082-.574-1.456-.383-.382-.892-.574-1.526-.574-.635 0-1.144.192-1.526.574Zm6.289 4.816c0-.448.098-.914.294-1.4.205-.494.401-.882.588-1.162.196-.289.462-.648.798-1.078l2.24-2.94h1.89l-2.114 2.758-.616.532v.07l.28-.098a3.55 3.55 0 0 1 .91-.112c.915 0 1.689.332 2.324.994.644.654.966 1.466.966 2.436 0 .99-.355 1.82-1.064 2.492-.709.672-1.615 1.008-2.716 1.008-1.101 0-2.007-.336-2.716-1.008-.709-.672-1.064-1.502-1.064-2.492Zm2.254-1.456c-.383.374-.574.859-.574 1.456 0 .598.191 1.088.574 1.47.383.374.891.56 1.526.56s1.143-.186 1.526-.56c.383-.382.574-.872.574-1.47 0-.597-.191-1.082-.574-1.456-.383-.382-.891-.574-1.526-.574s-1.143.192-1.526.574Zm-25.203-75.124h1.68c.065.29.191.546.378.77.42.514 1.017.77 1.792.77.644 0 1.153-.158 1.526-.476.383-.326.574-.728.574-1.204 0-.541-.173-.966-.518-1.274-.336-.317-.817-.476-1.442-.476h-2.38v-1.4l2.94-2.1v-.07h-4.06v-1.54h6.44v1.526l-2.52 1.834-.7.28v.07l.224-.028c.308-.028.49-.042.546-.042.877 0 1.61.304 2.198.91.588.607.882 1.377.882 2.31 0 .896-.345 1.657-1.036 2.282-.691.626-1.582.938-2.674.938-1.447 0-2.515-.513-3.206-1.54a4.398 4.398 0 0 1-.644-1.54Zm8.617 2.03c0-.28.088-.513.266-.7a.934.934 0 0 1 .686-.28c.308 0 .55.112.728.336.186.224.28.556.28.994 0 .719-.173 1.27-.518 1.652-.336.392-.794.588-1.372.588v-.7c.28 0 .499-.079.658-.238a.765.765 0 0 0 .252-.602v-.084c-.01-.009-.014-.028-.014-.056v-.042l-.084.028a.694.694 0 0 1-.182.014c-.187 0-.35-.084-.49-.252-.14-.168-.21-.387-.21-.658Zm2.656-7.49v-1.54h6.65v1.54l-3.92 8.26h-1.75l3.85-8.12v-.14h-4.83Zm8.888 7.084c-.887-.97-1.33-2.212-1.33-3.724s.443-2.753 1.33-3.724c.887-.97 1.96-1.456 3.22-1.456 1.26 0 2.333.486 3.22 1.456.887.971 1.33 2.212 1.33 3.724s-.443 2.754-1.33 3.724c-.887.971-1.96 1.456-3.22 1.456-1.26 0-2.333-.485-3.22-1.456Zm1.148-6.412c-.532.635-.798 1.531-.798 2.688 0 1.158.266 2.054.798 2.688.541.635 1.232.952 2.072.952.84 0 1.526-.317 2.058-.952.541-.634.812-1.53.812-2.688 0-1.157-.271-2.053-.812-2.688-.532-.634-1.218-.952-2.058-.952-.84 0-1.531.318-2.072.952ZM144.14 151.953v-1.54h6.65v1.54l-3.92 8.26h-1.75l3.85-8.12v-.14h-4.83Zm6.094 7.49c0-.28.088-.513.266-.7a.934.934 0 0 1 .686-.28c.308 0 .55.112.728.336.186.224.28.556.28.994 0 .719-.173 1.27-.518 1.652-.336.392-.794.588-1.372.588v-.7c.28 0 .499-.079.658-.238a.765.765 0 0 0 .252-.602v-.084c-.01-.009-.014-.028-.014-.056v-.042l-.084.028a.694.694 0 0 1-.182.014c-.187 0-.35-.084-.49-.252-.14-.168-.21-.387-.21-.658Zm2.866-5.81v-1.82l1.82-1.4h1.47v9.8h-1.61v-7.84l-1.68 1.26Zm6.231 5.404c-.887-.97-1.33-2.212-1.33-3.724s.443-2.753 1.33-3.724c.887-.97 1.96-1.456 3.22-1.456 1.26 0 2.333.486 3.22 1.456.887.971 1.33 2.212 1.33 3.724s-.443 2.754-1.33 3.724c-.887.971-1.96 1.456-3.22 1.456-1.26 0-2.333-.485-3.22-1.456Zm1.148-6.412c-.532.635-.798 1.531-.798 2.688 0 1.158.266 2.054.798 2.688.541.635 1.232.952 2.072.952.84 0 1.526-.317 2.058-.952.541-.634.812-1.53.812-2.688 0-1.157-.271-2.053-.812-2.688-.532-.634-1.218-.952-2.058-.952-.84 0-1.531.318-2.072.952Z" fill="#333"/><circle cx="186.5" cy="339.5" r="39.5" fill="#5A5A5A"/><path d="M160.18 336.38v-1.98h8.55v1.98L163.69 347h-2.25l4.95-10.44v-.18h-6.21Zm9.448 7.02h2.16c.084.372.246.702.486.99.54.66 1.308.99 2.304.99.828 0 1.482-.204 1.962-.612.492-.42.738-.936.738-1.548 0-.696-.222-1.242-.666-1.638-.432-.408-1.05-.612-1.854-.612h-3.06v-1.8l3.78-2.7v-.09h-5.22v-1.98h8.28v1.962l-3.24 2.358-.9.36v.09l.288-.036c.396-.036.63-.054.702-.054 1.128 0 2.07.39 2.826 1.17.756.78 1.134 1.77 1.134 2.97 0 1.152-.444 2.13-1.332 2.934-.888.804-2.034 1.206-3.438 1.206-1.86 0-3.234-.66-4.122-1.98-.384-.564-.66-1.224-.828-1.98Zm11.078 2.61c0-.36.114-.66.342-.9a1.2 1.2 0 0 1 .882-.36c.396 0 .708.144.936.432.24.288.36.714.36 1.278 0 .924-.222 1.632-.666 2.124-.432.504-1.02.756-1.764.756v-.9c.36 0 .642-.102.846-.306.216-.192.324-.45.324-.774v-.108c-.012-.012-.018-.036-.018-.072v-.054l-.108.036a.932.932 0 0 1-.234.018c-.24 0-.45-.108-.63-.324-.18-.216-.27-.498-.27-.846Zm3.415-9.63v-1.98h8.55v1.98l-5.04 10.62h-2.25l4.95-10.44v-.18h-6.21Zm8.827 8.1v-1.98l4.23-8.1h2.25l-4.23 8.1h4.14v-3.06h2.07v3.06h1.8v1.98h-1.8V347h-2.07v-2.52h-6.39Z" fill="#fff"/><path stroke="#5A5A5A" d="m263.426 138.738 16 26"/></svg>