<svg width="468" height="754" fill="none" xmlns="http://www.w3.org/2000/svg"><path fill="#5A5A5A" d="M41 62v30H0V62z"/><path d="M452 91v195.674H0V91h452Z" fill="#FFF8BA"/><path d="M455 211.415v195.673H139V211.415h316Z" fill="#FFF8BA"/><path d="M458 331.829v151.522H237V331.829h221Z" fill="#FFF8BA"/><path d="M461 452.244V672H303V452.244h158Z" fill="#FFF8BA"/><circle cx="240.5" cy="184.5" r="39.5" fill="#5A5A5A"/><path d="M216.72 183.54c0-1.272.456-2.34 1.368-3.204.912-.864 2.076-1.296 3.492-1.296s2.58.432 3.492 1.296c.912.864 1.368 1.932 1.368 3.204 0 1.14-.474 2.37-1.422 3.69l-.396.54c-.168.216-.282.366-.342.45L221.4 192h-2.43l2.718-3.546.792-.684v-.09c-.024.012-.144.06-.36.144-.312.084-.702.126-1.17.126-1.176 0-2.178-.42-3.006-1.26-.816-.852-1.224-1.902-1.224-3.15Zm2.898-1.872c-.492.48-.738 1.104-.738 1.872s.246 1.398.738 1.89c.492.48 1.146.72 1.962.72.816 0 1.47-.24 1.962-.72.492-.492.738-1.122.738-1.89 0-.768-.246-1.392-.738-1.872-.492-.492-1.146-.738-1.962-.738-.816 0-1.47.246-1.962.738Zm8.176 6.912c0-1.092.42-1.962 1.26-2.61.36-.252.78-.444 1.26-.576v-.108a3.296 3.296 0 0 1-.99-.594c-.66-.564-.99-1.308-.99-2.232 0-.948.402-1.752 1.206-2.412.816-.672 1.914-1.008 3.294-1.008 1.38 0 2.472.336 3.276 1.008.816.66 1.224 1.464 1.224 2.412 0 .9-.33 1.644-.99 2.232-.312.252-.642.45-.99.594v.108c.456.12.876.318 1.26.594.84.648 1.26 1.512 1.26 2.592 0 1.044-.456 1.938-1.368 2.682-.9.732-2.124 1.098-3.672 1.098s-2.778-.366-3.69-1.098c-.9-.744-1.35-1.638-1.35-2.682Zm2.7-5.94c0 .528.204.96.612 1.296.408.336.984.504 1.728.504s1.32-.168 1.728-.504c.408-.336.612-.768.612-1.296 0-.48-.21-.882-.63-1.206-.408-.336-.978-.504-1.71-.504s-1.308.168-1.728.504c-.408.324-.612.726-.612 1.206Zm.216 4.302c-.504.396-.756.882-.756 1.458s.252 1.068.756 1.476c.516.396 1.224.594 2.124.594.9 0 1.602-.198 2.106-.594.516-.408.774-.9.774-1.476s-.258-1.062-.774-1.458c-.504-.408-1.206-.612-2.106-.612-.9 0-1.608.204-2.124.612Zm8.598 4.068c0-.36.114-.66.342-.9a1.2 1.2 0 0 1 .882-.36c.396 0 .708.144.936.432.24.288.36.714.36 1.278 0 .924-.222 1.632-.666 2.124-.432.504-1.02.756-1.764.756v-.9c.36 0 .642-.102.846-.306.216-.192.324-.45.324-.774v-.108c-.012-.012-.018-.036-.018-.072v-.054l-.108.036a.932.932 0 0 1-.234.018c-.24 0-.45-.108-.63-.324-.18-.216-.27-.498-.27-.846Zm3.775-2.61h2.16c.084.372.246.702.486.99.54.66 1.308.99 2.304.99.828 0 1.482-.204 1.962-.612.492-.42.738-.936.738-1.548 0-.696-.222-1.242-.666-1.638-.432-.408-1.05-.612-1.854-.612h-3.06v-1.8l3.78-2.7v-.09h-5.22v-1.98h8.28v1.962l-3.24 2.358-.9.36v.09l.288-.036c.396-.036.63-.054.702-.054 1.128 0 2.07.39 2.826 1.17.756.78 1.134 1.77 1.134 2.97 0 1.152-.444 2.13-1.332 2.934-.888.804-2.034 1.206-3.438 1.206-1.86 0-3.234-.66-4.122-1.98-.384-.564-.66-1.224-.828-1.98Zm10.898 0h2.16c.084.372.246.702.486.99.54.66 1.308.99 2.304.99.828 0 1.482-.204 1.962-.612.492-.42.738-.936.738-1.548 0-.696-.222-1.242-.666-1.638-.432-.408-1.05-.612-1.854-.612h-3.06v-1.8l3.78-2.7v-.09h-5.22v-1.98h8.28v1.962l-3.24 2.358-.9.36v.09l.288-.036c.396-.036.63-.054.702-.054 1.128 0 2.07.39 2.826 1.17.756.78 1.134 1.77 1.134 2.97 0 1.152-.444 2.13-1.332 2.934-.888.804-2.034 1.206-3.438 1.206-1.86 0-3.234-.66-4.122-1.98-.384-.564-.66-1.224-.828-1.98Z" fill="#fff"/><path d="M85.49 242.78c0-.448.098-.915.294-1.4.205-.495.401-.882.588-1.162.196-.289.462-.649.798-1.078l2.24-2.94h1.89l-2.114 2.758-.616.532v.07l.28-.098c.28-.075.583-.112.91-.112.915 0 1.69.331 2.324.994.644.653.966 1.465.966 2.436 0 .989-.355 1.82-1.064 2.492-.71.672-1.615 1.008-2.716 1.008-1.101 0-2.007-.336-2.716-1.008-.71-.672-1.064-1.503-1.064-2.492Zm2.254-1.456c-.383.373-.574.859-.574 1.456s.191 1.087.574 1.47c.383.373.891.56 1.526.56s1.143-.187 1.526-.56c.383-.383.574-.873.574-1.47s-.191-1.083-.574-1.456c-.383-.383-.891-.574-1.526-.574s-1.143.191-1.526.574Zm6.43 3.906c0-.28.088-.513.265-.7a.931.931 0 0 1 .686-.28c.308 0 .55.112.728.336.187.224.28.555.28.994 0 .719-.172 1.269-.518 1.652-.336.392-.793.588-1.372.588v-.7c.28 0 .5-.079.658-.238a.765.765 0 0 0 .252-.602v-.084c-.01-.009-.014-.028-.014-.056v-.042l-.084.028a.742.742 0 0 1-.182.014c-.186 0-.35-.084-.49-.252-.14-.168-.21-.387-.21-.658Zm4.475-.406c-.886-.971-1.33-2.212-1.33-3.724s.444-2.753 1.33-3.724c.887-.971 1.96-1.456 3.22-1.456 1.26 0 2.334.485 3.22 1.456.887.971 1.33 2.212 1.33 3.724s-.443 2.753-1.33 3.724c-.886.971-1.96 1.456-3.22 1.456-1.26 0-2.333-.485-3.22-1.456Zm1.148-6.412c-.531.635-.797 1.531-.797 2.688 0 1.157.266 2.053.797 2.688.542.635 1.232.952 2.072.952.84 0 1.526-.317 2.058-.952.542-.635.812-1.531.812-2.688 0-1.157-.27-2.053-.812-2.688-.532-.635-1.218-.952-2.058-.952-.84 0-1.53.317-2.072.952Zm7.816 4.858h1.68c.074.289.2.537.378.742.41.485 1.008.728 1.792.728.625 0 1.12-.168 1.484-.504.364-.336.546-.775.546-1.316 0-.569-.182-1.027-.546-1.372-.364-.345-.859-.518-1.484-.518-.579 0-1.069.154-1.47.462a1.916 1.916 0 0 0-.42.448h-1.54l.42-5.74h5.95v1.54h-4.62l-.21 2.52h.07c.149-.149.322-.275.518-.378.438-.261.966-.392 1.582-.392.98 0 1.796.327 2.45.98.653.653.98 1.47.98 2.45 0 .961-.346 1.764-1.036 2.408-.682.635-1.573.952-2.674.952-1.438 0-2.506-.499-3.206-1.498a4.397 4.397 0 0 1-.644-1.512ZM203.21 44.04V42.5l3.29-6.3h1.75l-3.29 6.3h3.22v-2.38h1.61v2.38h1.4v1.54h-1.4V46h-1.61v-1.96h-4.97Zm8.539 1.19c0-.28.089-.513.266-.7a.934.934 0 0 1 .686-.28c.308 0 .551.112.728.336.187.224.28.555.28.994 0 .719-.172 1.27-.518 1.652-.336.392-.793.588-1.372.588v-.7c.28 0 .5-.08.658-.238a.765.765 0 0 0 .252-.602v-.084c-.009-.01-.014-.028-.014-.056v-.042l-.084.028a.722.722 0 0 1-.182.014c-.186 0-.35-.084-.49-.252-.14-.168-.21-.387-.21-.658Zm2.657-7.49V36.2h6.65v1.54l-3.92 8.26h-1.75l3.85-8.12v-.14h-4.83Zm7.145 5.04c0-.448.098-.915.294-1.4.205-.495.401-.882.588-1.162.196-.29.462-.649.798-1.078l2.24-2.94h1.89l-2.114 2.758-.616.532v.07l.28-.098a3.52 3.52 0 0 1 .91-.112c.914 0 1.689.331 2.324.994.644.653.966 1.465.966 2.436 0 .99-.355 1.82-1.064 2.492-.71.672-1.615 1.008-2.716 1.008-1.102 0-2.007-.336-2.716-1.008-.71-.672-1.064-1.503-1.064-2.492Zm2.254-1.456c-.383.373-.574.859-.574 1.456s.191 1.087.574 1.47c.382.373.891.56 1.526.56.634 0 1.143-.187 1.526-.56.382-.383.574-.873.574-1.47s-.192-1.083-.574-1.456c-.383-.383-.892-.574-1.526-.574-.635 0-1.144.191-1.526.574ZM366.42 736.2h1.68c.065.289.191.546.378.77.42.513 1.017.77 1.792.77.644 0 1.153-.159 1.526-.476.383-.327.574-.728.574-1.204 0-.541-.173-.966-.518-1.274-.336-.317-.817-.476-1.442-.476h-2.38v-1.4l2.94-2.1v-.07h-4.06v-1.54h6.44v1.526l-2.52 1.834-.7.28v.07l.224-.028c.308-.028.49-.042.546-.042.877 0 1.61.303 2.198.91.588.607.882 1.377.882 2.31 0 .896-.345 1.657-1.036 2.282-.691.625-1.582.938-2.674.938-1.447 0-2.515-.513-3.206-1.54a4.406 4.406 0 0 1-.644-1.54Zm8.617 2.03c0-.28.088-.513.266-.7a.93.93 0 0 1 .686-.28c.308 0 .55.112.728.336.186.224.28.555.28.994 0 .719-.173 1.269-.518 1.652-.336.392-.794.588-1.372.588v-.7c.28 0 .499-.079.658-.238a.765.765 0 0 0 .252-.602v-.084c-.01-.009-.014-.028-.014-.056v-.042l-.084.028a.743.743 0 0 1-.182.014c-.187 0-.35-.084-.49-.252-.14-.168-.21-.387-.21-.658Zm3.006-2.45c0-.448.098-.915.294-1.4.205-.495.401-.882.588-1.162.196-.289.462-.649.798-1.078l2.24-2.94h1.89l-2.114 2.758-.616.532v.07l.28-.098c.28-.075.583-.112.91-.112.914 0 1.689.331 2.324.994.644.653.966 1.465.966 2.436 0 .989-.355 1.82-1.064 2.492-.71.672-1.615 1.008-2.716 1.008-1.102 0-2.007-.336-2.716-1.008-.71-.672-1.064-1.503-1.064-2.492Zm2.254-1.456c-.383.373-.574.859-.574 1.456s.191 1.087.574 1.47c.382.373.891.56 1.526.56.634 0 1.143-.187 1.526-.56.382-.383.574-.873.574-1.47s-.192-1.083-.574-1.456c-.383-.383-.892-.574-1.526-.574-.635 0-1.144.191-1.526.574Zm6.359 1.456c0-.448.098-.915.294-1.4.205-.495.401-.882.588-1.162.196-.289.462-.649.798-1.078l2.24-2.94h1.89l-2.114 2.758-.616.532v.07l.28-.098c.28-.075.583-.112.91-.112.915 0 1.689.331 2.324.994.644.653.966 1.465.966 2.436 0 .989-.355 1.82-1.064 2.492-.709.672-1.615 1.008-2.716 1.008-1.101 0-2.007-.336-2.716-1.008-.709-.672-1.064-1.503-1.064-2.492Zm2.254-1.456c-.383.373-.574.859-.574 1.456s.191 1.087.574 1.47c.383.373.891.56 1.526.56s1.143-.187 1.526-.56c.383-.383.574-.873.574-1.47s-.191-1.083-.574-1.456c-.383-.383-.891-.574-1.526-.574s-1.143.191-1.526.574ZM167.35 342.42v-1.82l1.82-1.4h1.47v9.8h-1.61v-7.84l-1.68 1.26Zm4.831 3.85h1.68c.075.289.201.537.378.742.411.485 1.008.728 1.792.728.625 0 1.12-.168 1.484-.504.364-.336.546-.775.546-1.316 0-.569-.182-1.027-.546-1.372-.364-.345-.859-.518-1.484-.518-.579 0-1.069.154-1.47.462a1.916 1.916 0 0 0-.42.448h-1.54l.42-5.74h5.95v1.54h-4.62l-.21 2.52h.07c.149-.149.322-.275.518-.378.439-.261.966-.392 1.582-.392.98 0 1.797.327 2.45.98.653.653.98 1.47.98 2.45 0 .961-.345 1.764-1.036 2.408-.681.635-1.573.952-2.674.952-1.437 0-2.506-.499-3.206-1.498a4.417 4.417 0 0 1-.644-1.512Zm8.613 1.96c0-.28.089-.513.266-.7a.933.933 0 0 1 .686-.28c.308 0 .551.112.728.336.187.224.28.555.28.994 0 .719-.172 1.269-.518 1.652-.336.392-.793.588-1.372.588v-.7c.28 0 .5-.079.658-.238a.765.765 0 0 0 .252-.602v-.084c-.009-.009-.014-.028-.014-.056v-.042l-.084.028a.738.738 0 0 1-.182.014c-.186 0-.35-.084-.49-.252-.14-.168-.21-.387-.21-.658Zm2.727-1.19v-1.54l3.29-6.3h1.75l-3.29 6.3h3.22v-2.38h1.61v2.38h1.4v1.54h-1.4V349h-1.61v-1.96h-4.97Zm8.539-.77h1.68c.075.289.201.537.378.742.411.485 1.008.728 1.792.728.625 0 1.12-.168 1.484-.504.364-.336.546-.775.546-1.316 0-.569-.182-1.027-.546-1.372-.364-.345-.859-.518-1.484-.518-.579 0-1.069.154-1.47.462a1.916 1.916 0 0 0-.42.448h-1.54l.42-5.74h5.95v1.54h-4.62l-.21 2.52h.07c.149-.149.322-.275.518-.378.439-.261.966-.392 1.582-.392.98 0 1.797.327 2.45.98.653.653.98 1.47.98 2.45 0 .961-.345 1.764-1.036 2.408-.681.635-1.573.952-2.674.952-1.437 0-2.506-.499-3.206-1.498a4.417 4.417 0 0 1-.644-1.512Z" fill="#333"/><path d="M64.374 257.108v24.996H88.7v-24.996H64.374Z" fill="#fff" stroke="#5A5A5A" stroke-width=".5"/><path d="M65.3 280.077v-19.453c0-.738.393-1.13 1.163-1.13H86.61c.785 0 1.161.376 1.161 1.13v19.453c.016.754-.376 1.131-1.146 1.131H66.478c-.785.015-1.177-.377-1.177-1.131Z" fill="#fff" stroke="#5A5A5A" stroke-width=".5"/><path d="M71.802 278.288c1.79-.016 3.25-1.429 3.25-3.171 0-1.759-1.46-3.172-3.25-3.172-1.806 0-3.25 1.413-3.25 3.172 0 1.758 1.444 3.171 3.25 3.171Zm9.626-.03c1.79-.016 3.25-1.429 3.25-3.172 0-1.758-1.46-3.171-3.25-3.171-1.806 0-3.25 1.413-3.25 3.171-.016 1.759 1.444 3.187 3.25 3.172Zm0-9.014c1.806 0 3.25-1.413 3.25-3.171 0-1.759-1.46-3.172-3.25-3.172-1.79.016-3.25 1.429-3.25 3.172 0 1.742 1.46 3.171 3.25 3.171Zm-9.626 0c1.806 0 3.25-1.413 3.25-3.171 0-1.759-1.46-3.172-3.25-3.172-1.79.016-3.25 1.429-3.25 3.172 0 1.742 1.46 3.171 3.25 3.171Z" stroke="#5A5A5A" stroke-width=".5"/><path d="M16.015 236h24.089v23.699H16L16.015 236Z" fill="#fff" stroke="#5A5A5A" stroke-width=".5"/><path d="M22.621 237.803h13.317c.743 0 1.106.364 1.106 1.122v17.607c0 .727-.363 1.106-1.09 1.121l-13.333-.015c-.727.015-1.09-.363-1.09-1.106v-17.607c-.03-.743.348-1.122 1.09-1.122Z" fill="#fff" stroke="#5A5A5A" stroke-width=".5"/><path d="M17.864 247.728c.015.925.712 1.667 1.59 1.667l6.985-.651.015-.016c.53 0 .954-.439.954-1 0-.56-.424-1-.97-1.015l-6.984-.651c-.863 0-1.575.742-1.59 1.666Z" stroke="#5A5A5A" stroke-width=".5"/><mask id="a" fill="#fff"><path fill-rule="evenodd" clip-rule="evenodd" d="m18.546 249.107 3.803-.363a.988.988 0 0 0 .954-1.031.98.98 0 0 0-.954-1l-3.803-.363"/></mask><path fill-rule="evenodd" clip-rule="evenodd" d="m18.546 249.107 3.803-.363a.988.988 0 0 0 .954-1.031.98.98 0 0 0-.954-1l-3.803-.363" fill="#fff"/><path d="m22.349 248.744-.015-.5h-.016l-.017.002.048.498Zm.954-1.031h-.5v.014l.5-.014Zm-.954-1-.048.498.017.002h.016l.015-.5Zm-3.755 2.892 3.802-.364-.095-.995-3.802.364.095.995Zm3.77-.361a1.489 1.489 0 0 0 1.44-1.544l-1 .027a.488.488 0 0 1-.47.517l.03 1Zm1.44-1.531a1.48 1.48 0 0 0-1.44-1.5l-.03 1a.48.48 0 0 1 .47.5h1Zm-1.408-1.497-3.802-.364-.096.995 3.803.364.095-.995Z" fill="#5A5A5A" mask="url(#a)"/><path d="M311 380h-69v105h69V380Zm148-82h-86v179h86V298Z" fill="#FFC79F"/><path d="m432.476 317.72 1.181.016 3.066-.016h7.591v9.957h-11.838c-3.017 0-5.476-2.244-5.476-4.995 0-2.719 2.459-4.962 5.476-4.962Z" fill="#fff" stroke="#5A5A5A" stroke-width=".5"/><path d="M432.542 318.866h8.493v7.681h-7.559l-.934-.017c-2.378 0-4.312-1.703-4.312-3.832.016-2.112 1.951-3.832 4.312-3.832Zm18.134 10.612h-5.264a1.098 1.098 0 0 1-1.098-1.097v-11.284c0-.606.492-1.097 1.098-1.097h5.264c.606 0 1.098.491 1.098 1.097v11.268c0 .622-.492 1.113-1.098 1.113Z" fill="#fff" stroke="#5A5A5A" stroke-width=".5"/><path d="M448.052 323.386c-.41 0-.721-.295-.721-.639-.017-.36.311-.655.721-.655s.722.295.722.639a.684.684 0 0 1-.722.655ZM388 351.848V339.54c0-.855.684-1.54 1.539-1.54h18.519c.855 0 1.538.685 1.538 1.54v12.308c0 .856-.683 1.541-1.538 1.541h-18.519a1.543 1.543 0 0 1-1.539-1.541Z" fill="#fff" stroke="#5A5A5A" stroke-width=".5"/><path d="M389.923 347.156v-1.897a4.52 4.52 0 0 1 4.516-4.521h8.718a4.52 4.52 0 0 1 4.516 4.521v1.897a4.52 4.52 0 0 1-4.516 4.521h-8.718a4.52 4.52 0 0 1-4.516-4.521Z" fill="#fff" stroke="#5A5A5A" stroke-width=".5"/><path d="M397.843 349.267c0-.543.428-.984.955-.984.527 0 .954.441.954.984 0 .543-.427.984-.954.984-.527 0-.955-.441-.955-.984Z" fill="#fff" stroke="#5A5A5A" stroke-width=".5"/><path fill="#5A5A5A" d="M202 62v30h-70V62z"/><path stroke="#5A5A5A" d="m200.249 74.567 33 19"/><path d="M292.75.25 176.296.313l-.044 4.437H292.75V.25Z" stroke="#5A5A5A" stroke-width=".5" stroke-miterlimit="10"/><path fill="#5A5A5A" d="M303 0h5v82h-5zM161 3h5v79h-5z"/><path fill="#5A5A5A" d="M180 0v5h-19V0zm124 0v5h-13V0z"/><path d="m235.25 62.25 63.475.063.024 4.437H235.25v-4.5Zm0 10 63.475.063.024 4.437H235.25v-4.5Z" stroke="#5A5A5A" stroke-width=".5" stroke-miterlimit="10"/><path fill="#5A5A5A" d="M358 62v30h-82V62zm110 0v30h-45V62z"/><path fill="#5A5A5A" d="M452 68h16v607h-16zM0 62h16v236H0z"/><path fill="#5A5A5A" d="M145 282v16H0v-16zM16 210v-2h6v2zm11 0v-2h11v2zm17 0v-2h11v2zm17 0v-2h11v2zm17 0v-2h11v2zm17 0v-2h11v2zm20 0v-2h11v2zm15 0v-2h11v2z"/><path fill="#5A5A5A" d="M145 298h-2v-6h2zm0-11h-2v-11h2zm0-17h-2v-11h2zm0-17h-2v-11h2zm0-17h-2v-11h2zm0-17h-2v-11h2zm-5 110h-16v-46h16zm0 85h-16v-46h16z"/><path fill="#5A5A5A" d="M132 414v-16h113v16z"/><path fill="#5A5A5A" d="M229 406h16v86h-16zm60 71h16v212h-16z"/><path fill="#5A5A5A" d="M321 476v16h-84v-16zm134 0v16h-94v-16zm4-194v16h-98v-16zm-138 0v16h-21v-16zm-59 0v16h-78v-16zm206 390v30h-45v-30zm-114 0v30h-65v-30z"/><path d="m430.75 62.25-122.451.152-.048 11.348H430.75v-11.5Zm-280 0-122.45.152-.049 11.348H150.75v-11.5Zm280 18-122.451.152-.048 11.348H430.75v-11.5Zm-280 0-122.45.152-.049 11.348H150.75v-11.5Z" stroke="#5A5A5A" stroke-width=".5" stroke-miterlimit="10"/><path fill="#5A5A5A" d="M309 372h8v110h-8zm56 50h8v70h-8zm0-81h8v50h-8zm0-58h8v26h-8z"/><path fill="#5A5A5A" d="M455 353v8h-86v-8z"/><path d="m433.105 378.72 1.181.016 3.066-.016h7.591v9.957h-11.838c-3.016 0-5.476-2.244-5.476-4.995 0-2.719 2.46-4.962 5.476-4.962Z" fill="#fff" stroke="#5A5A5A" stroke-width=".5"/><path d="M433.171 379.866h8.493v7.681h-7.558l-.935-.017c-2.377 0-4.312-1.703-4.312-3.832.016-2.113 1.951-3.832 4.312-3.832Zm18.134 10.612h-5.263a1.098 1.098 0 0 1-1.099-1.097v-11.284c0-.606.492-1.097 1.099-1.097h5.263c.606 0 1.098.491 1.098 1.097v11.268c0 .622-.492 1.113-1.098 1.113Z" fill="#fff" stroke="#5A5A5A" stroke-width=".5"/><path d="M448.681 384.386c-.409 0-.721-.295-.721-.639-.016-.36.312-.655.721-.655.41 0 .722.295.722.639a.684.684 0 0 1-.722.655Zm-184.312 49.039-1.18-.016-3.066.016h-7.591v-9.957h11.837c3.017 0 5.476 2.244 5.476 4.995 0 2.719-2.459 4.962-5.476 4.962Z" fill="#fff" stroke="#5A5A5A" stroke-width=".5"/><path d="M264.304 432.279h-8.493v-7.681h7.558l.935.017c2.377 0 4.312 1.703 4.312 3.832-.017 2.113-1.951 3.832-4.312 3.832Zm-18.134-10.612h5.263c.607 0 1.098.491 1.098 1.097v11.284c0 .606-.491 1.097-1.098 1.097h-5.263a1.098 1.098 0 0 1-1.099-1.097V422.78c0-.622.492-1.113 1.099-1.113Z" fill="#fff" stroke="#5A5A5A" stroke-width=".5"/><path d="M248.793 427.759c.41 0 .722.295.722.639.016.36-.312.655-.722.655s-.721-.295-.721-.639a.683.683 0 0 1 .721-.655Zm202.141-6.614h-12.308c-.855 0-1.54-.684-1.54-1.538v-18.52c0-.854.685-1.538 1.54-1.538h12.308c.856 0 1.541.684 1.541 1.538v18.52c0 .84-.685 1.538-1.541 1.538Z" fill="#fff" stroke="#5A5A5A" stroke-width=".5"/><path d="M446.242 419.222h-1.896a4.52 4.52 0 0 1-4.521-4.516v-8.718a4.52 4.52 0 0 1 4.521-4.516h1.896a4.52 4.52 0 0 1 4.521 4.516v8.718a4.52 4.52 0 0 1-4.521 4.516Z" fill="#fff" stroke="#5A5A5A" stroke-width=".5"/><path d="M448.353 411.302c-.543 0-.984-.427-.984-.955 0-.527.441-.954.984-.954.544 0 .984.427.984.954 0 .528-.44.955-.984.955ZM246.54 391h12.308c.856 0 1.541.684 1.541 1.539v18.519c0 .855-.685 1.539-1.541 1.539H246.54c-.855 0-1.54-.684-1.54-1.539v-18.519c0-.841.685-1.539 1.54-1.539Z" fill="#fff" stroke="#5A5A5A" stroke-width=".5"/><path d="M251.232 392.923h1.897a4.52 4.52 0 0 1 4.521 4.516v8.718a4.52 4.52 0 0 1-4.521 4.516h-1.897a4.52 4.52 0 0 1-4.521-4.516v-8.718a4.52 4.52 0 0 1 4.521-4.516Z" fill="#fff" stroke="#5A5A5A" stroke-width=".5"/><path d="M249.122 400.844c.543 0 .984.427.984.954 0 .527-.441.954-.984.954-.544 0-.984-.427-.984-.954 0-.527.44-.954.984-.954Zm201.014 49h-60.121a1.38 1.38 0 0 0-1.386 1.384v23.867a1.38 1.38 0 0 0 1.386 1.384h60.121c.77 0 1.385-.615 1.385-1.384v-23.867c0-.769-.629-1.384-1.385-1.384Z" fill="#fff" stroke="#5A5A5A" stroke-width=".5"/><path d="M392.325 459.925v6.487a6.798 6.798 0 0 0 6.803 6.796h47.341a1.66 1.66 0 0 0 1.665-1.664v-16.779a1.66 1.66 0 0 0-1.665-1.663h-47.327c-3.766.014-6.817 3.062-6.817 6.823Z" fill="#fff" stroke="#5A5A5A" stroke-width=".5"/><path d="M442.521 462.693c0-.749.633-1.357 1.414-1.357.781 0 1.414.608 1.414 1.357s-.633 1.356-1.414 1.356c-.781 0-1.414-.607-1.414-1.356ZM373 383.024v-22.01l21.587-.014-.014 22.01-21.573.014Z" fill="#fff" stroke="#5A5A5A" stroke-width=".5"/><path d="M389.33 372.005c0-3.114-2.474-5.628-5.536-5.628-3.062 0-5.537 2.514-5.537 5.642 0 3.114 2.475 5.656 5.537 5.656 3.062-.014 5.536-2.556 5.536-5.67Z" stroke="#5A5A5A" stroke-width=".5"/><path d="M383.794 376.125a3.874 3.874 0 0 0 2.852-1.201 4.267 4.267 0 0 0 1.188-2.905m-4.026-4.134c1.104 0 2.111.461 2.852 1.201a4.186 4.186 0 0 1 1.188 2.919l-4.04-4.12Zm-.014 8.24a4.031 4.031 0 0 1-2.852-1.201 4.196 4.196 0 0 1-1.175-2.919l4.027 4.12Zm.014-8.24a3.938 3.938 0 0 0-2.853 1.201l-.013.014a4.164 4.164 0 0 0-1.175 2.891l4.041-4.106Z" stroke="#5A5A5A" stroke-width=".5"/><path fill="#5A5A5A" d="M237 372h8v110h-8z"/><path fill="#5A5A5A" d="M265 372v8h-28v-8zm52 0v8h-22v-8z"/><path stroke="#5A5A5A" d="m318.763 477.56 39-21m8.793-31.33-15-29m-51.768-21.777-32-15M139.256 293.57l42 25m-54.823 6.681-22 38m263.014-57.027-15 30m11.794-40.786-40 22m-20.999-22-38 21"/><path d="M277.21 430.04v-1.54l3.29-6.3h1.75l-3.29 6.3h3.22v-2.38h1.61v2.38h1.4v1.54h-1.4V432h-1.61v-1.96h-4.97Zm8.539 1.19c0-.28.089-.513.266-.7a.933.933 0 0 1 .686-.28c.308 0 .551.112.728.336.187.224.28.555.28.994 0 .719-.172 1.269-.518 1.652-.336.392-.793.588-1.372.588v-.7c.28 0 .5-.079.658-.238a.765.765 0 0 0 .252-.602v-.084c-.009-.009-.014-.028-.014-.056v-.042l-.084.028a.738.738 0 0 1-.182.014c-.186 0-.35-.084-.49-.252-.14-.168-.21-.387-.21-.658Zm2.867-5.81v-1.82l1.82-1.4h1.47v9.8h-1.61v-7.84l-1.68 1.26Zm4.411-1.68v-1.54h6.65v1.54l-3.92 8.26h-1.75l3.85-8.12v-.14h-4.83Zm95.463-16.96c0-.448.098-.915.294-1.4.205-.495.401-.882.588-1.162.196-.289.462-.649.798-1.078l2.24-2.94h1.89l-2.114 2.758-.616.532v.07l.28-.098c.28-.075.583-.112.91-.112.915 0 1.689.331 2.324.994.644.653.966 1.465.966 2.436 0 .989-.355 1.82-1.064 2.492-.709.672-1.615 1.008-2.716 1.008-1.101 0-2.007-.336-2.716-1.008-.709-.672-1.064-1.503-1.064-2.492Zm2.254-1.456c-.383.373-.574.859-.574 1.456s.191 1.087.574 1.47c.383.373.891.56 1.526.56s1.143-.187 1.526-.56c.383-.383.574-.873.574-1.47s-.191-1.083-.574-1.456c-.383-.383-.891-.574-1.526-.574s-1.143.191-1.526.574Zm6.429 3.906c0-.28.089-.513.266-.7a.933.933 0 0 1 .686-.28c.308 0 .551.112.728.336.187.224.28.555.28.994 0 .719-.172 1.269-.518 1.652-.336.392-.793.588-1.372.588v-.7c.28 0 .5-.079.658-.238a.765.765 0 0 0 .252-.602v-.084c-.009-.009-.014-.028-.014-.056v-.042l-.084.028a.738.738 0 0 1-.182.014c-.186 0-.35-.084-.49-.252-.14-.168-.21-.387-.21-.658Zm4.476-.406c-.886-.971-1.33-2.212-1.33-3.724s.444-2.753 1.33-3.724c.887-.971 1.96-1.456 3.22-1.456 1.26 0 2.334.485 3.22 1.456.887.971 1.33 2.212 1.33 3.724s-.443 2.753-1.33 3.724c-.886.971-1.96 1.456-3.22 1.456-1.26 0-2.333-.485-3.22-1.456Zm1.148-6.412c-.532.635-.798 1.531-.798 2.688 0 1.157.266 2.053.798 2.688.542.635 1.232.952 2.072.952.84 0 1.526-.317 2.058-.952.542-.635.812-1.531.812-2.688 0-1.157-.27-2.053-.812-2.688-.532-.635-1.218-.952-2.058-.952-.84 0-1.53.317-2.072.952Zm7.466 5.628v-1.54l3.29-6.3h1.75l-3.29 6.3h3.22v-2.38h1.61v2.38h1.4v1.54h-1.4V410h-1.61v-1.96h-4.97ZM363.35 580.42v-1.82l1.82-1.4h1.47v9.8h-1.61v-7.84l-1.68 1.26Zm4.761 3.36c0-.448.098-.915.294-1.4.205-.495.401-.882.588-1.162.196-.289.462-.649.798-1.078l2.24-2.94h1.89l-2.114 2.758-.616.532v.07l.28-.098c.28-.075.583-.112.91-.112.915 0 1.689.331 2.324.994.644.653.966 1.465.966 2.436 0 .989-.355 1.82-1.064 2.492-.709.672-1.615 1.008-2.716 1.008-1.101 0-2.007-.336-2.716-1.008-.709-.672-1.064-1.503-1.064-2.492Zm2.254-1.456c-.383.373-.574.859-.574 1.456s.191 1.087.574 1.47c.383.373.891.56 1.526.56s1.143-.187 1.526-.56c.383-.383.574-.873.574-1.47s-.191-1.083-.574-1.456c-.383-.383-.891-.574-1.526-.574s-1.143.191-1.526.574Zm6.429 3.906c0-.28.089-.513.266-.7a.933.933 0 0 1 .686-.28c.308 0 .551.112.728.336.187.224.28.555.28.994 0 .719-.172 1.269-.518 1.652-.336.392-.793.588-1.372.588v-.7c.28 0 .5-.079.658-.238a.765.765 0 0 0 .252-.602v-.084c-.009-.009-.014-.028-.014-.056v-.042l-.084.028a.738.738 0 0 1-.182.014c-.186 0-.35-.084-.49-.252-.14-.168-.21-.387-.21-.658Zm3.007-2.45c0-.448.098-.915.294-1.4.205-.495.401-.882.588-1.162.196-.289.462-.649.798-1.078l2.24-2.94h1.89l-2.114 2.758-.616.532v.07l.28-.098c.28-.075.583-.112.91-.112.914 0 1.689.331 2.324.994.644.653.966 1.465.966 2.436 0 .989-.355 1.82-1.064 2.492-.71.672-1.615 1.008-2.716 1.008-1.102 0-2.007-.336-2.716-1.008-.71-.672-1.064-1.503-1.064-2.492Zm2.254-1.456c-.383.373-.574.859-.574 1.456s.191 1.087.574 1.47c.382.373.891.56 1.526.56.634 0 1.143-.187 1.526-.56.382-.383.574-.873.574-1.47s-.192-1.083-.574-1.456c-.383-.383-.892-.574-1.526-.574-.635 0-1.144.191-1.526.574Zm6.079 2.716v-1.54l3.29-6.3h1.75l-3.29 6.3h3.22v-2.38h1.61v2.38h1.4v1.54h-1.4V587h-1.61v-1.96h-4.97ZM383.42 327v-1.54l3.346-2.366c.728-.523 1.251-1.008 1.568-1.456.317-.448.476-.924.476-1.428 0-.532-.163-.957-.49-1.274-.327-.317-.77-.476-1.33-.476-.691 0-1.209.28-1.554.84a2.851 2.851 0 0 0-.336.84h-1.68a4.332 4.332 0 0 1 .546-1.61c.663-1.073 1.671-1.61 3.024-1.61 1.036 0 1.876.308 2.52.924.653.607.98 1.372.98 2.296 0 .803-.205 1.526-.616 2.17-.411.635-1.069 1.265-1.974 1.89l-1.4.98-.63.28v.07l.84-.07h3.78V327h-7.07Zm8.193-.77c0-.28.088-.513.266-.7a.93.93 0 0 1 .686-.28c.308 0 .55.112.728.336.186.224.28.555.28.994 0 .719-.173 1.269-.518 1.652-.336.392-.794.588-1.372.588v-.7c.28 0 .499-.079.658-.238a.765.765 0 0 0 .252-.602v-.084c-.01-.009-.014-.028-.014-.056v-.042l-.084.028a.743.743 0 0 1-.182.014c-.187 0-.35-.084-.49-.252-.14-.168-.21-.387-.21-.658Zm3.076-5.81c0-.989.355-1.82 1.064-2.492.709-.672 1.615-1.008 2.716-1.008 1.101 0 2.007.336 2.716 1.008.709.672 1.064 1.503 1.064 2.492 0 .887-.369 1.843-1.106 2.87l-.308.42a13.42 13.42 0 0 0-.266.35l-2.24 2.94h-1.89l2.114-2.758.616-.532v-.07a7.65 7.65 0 0 1-.28.112 3.583 3.583 0 0 1-.91.098 3.163 3.163 0 0 1-2.338-.98c-.635-.663-.952-1.479-.952-2.45Zm2.254-1.456c-.383.373-.574.859-.574 1.456s.191 1.087.574 1.47c.383.373.891.56 1.526.56s1.143-.187 1.526-.56c.383-.383.574-.873.574-1.47s-.191-1.083-.574-1.456c-.383-.383-.891-.574-1.526-.574s-1.143.191-1.526.574Zm6.359 5.376c0-.849.327-1.526.98-2.03a3.16 3.16 0 0 1 .98-.448v-.084a2.568 2.568 0 0 1-.77-.462c-.513-.439-.77-1.017-.77-1.736 0-.737.313-1.363.938-1.876.635-.523 1.489-.784 2.562-.784 1.074 0 1.923.261 2.548.784.635.513.952 1.139.952 1.876 0 .7-.256 1.279-.77 1.736-.242.196-.499.35-.77.462v.084c.355.093.682.247.98.462.654.504.98 1.176.98 2.016 0 .812-.354 1.507-1.064 2.086-.7.569-1.652.854-2.856.854s-2.16-.285-2.87-.854c-.7-.579-1.05-1.274-1.05-2.086Zm2.1-4.62c0 .411.159.747.476 1.008.318.261.766.392 1.344.392.579 0 1.027-.131 1.344-.392.318-.261.476-.597.476-1.008 0-.373-.163-.686-.49-.938-.317-.261-.76-.392-1.33-.392-.569 0-1.017.131-1.344.392-.317.252-.476.565-.476.938Zm.168 3.346c-.392.308-.588.686-.588 1.134 0 .448.196.831.588 1.148.402.308.952.462 1.652.462s1.246-.154 1.638-.462c.402-.317.602-.7.602-1.148 0-.448-.2-.826-.602-1.134-.392-.317-.938-.476-1.638-.476s-1.25.159-1.652.476Z" fill="#333"/><path fill="#5A5A5A" d="M439 754h5v-82h-5zm-109 0h5v-82h-5z"/><path fill="#5A5A5A" d="M441 754v-5H333v5z"/><path stroke="#5A5A5A" d="m351.695 688.604 26-20"/><path d="m382.25 701.75 63.475-.063.024-4.437H382.25v4.5Zm0-10 63.475-.063.024-4.437H382.25v4.5Z" stroke="#5A5A5A" stroke-width=".5" stroke-miterlimit="10"/></svg>