<svg width="494" height="505" fill="none" xmlns="http://www.w3.org/2000/svg"><path d="M158 474.213h253v-343H158v343Zm-148-56h148v-125H10v125Z" fill="#FFF8BA"/><path d="M212 148.213h190l-127-125h-63v125Z" fill="#FFF8BA"/><path d="M205 218.213v68l-47-1.079v-66.921h47Zm67-196V123.85l-59-.637v-101h59Z" fill="#FFC79F"/><path d="m241.719 12.213 71.161 71.16-41.462 41.977L200 53.933l41.719-41.72Z" fill="#FFC79F"/><path d="m269.896 2.317 63.548 63.548-37.026 37.485-63.778-63.777 37.256-37.256Z" fill="#FFC79F"/><path fill="#5A5A5A" d="M412 504.213h30v-96h-30z"/><path fill="#5A5A5A" d="M389 474.213v30h47v-30zm-136 0v30h73v-30zm-125 0v30h68v-30z"/><path fill="#5A5A5A" d="M158 436.213h-30v68h30z"/><path fill="#5A5A5A" d="M84 418.213v30h68v-30zm-84 0v30h30v-30zm412-62h30v-111h-30zm-212-356v25h88v-25zm212 191h30v-38h-30z"/><path d="m493.75 342.463-.063 81.468-4.437.031v-81.499h4.5Z" stroke="#5A5A5A" stroke-width=".5" stroke-miterlimit="10"/><path fill="#5A5A5A" d="M494 336.213v-5h-74v5zm0 99v-5h-74v5z"/><path fill="#5A5A5A" d="M494 418.213h-5v15h5zm0-87h-5v12h5z"/><path d="m427.25 321.463.063 60.476 4.437.023v-60.499h-4.5Zm10 0 .063 60.476 4.437.023v-60.499h-4.5Z" stroke="#5A5A5A" stroke-width=".5" stroke-miterlimit="10"/><path stroke="#5A5A5A" d="m426.57 411.468-16-27"/><path fill="#5A5A5A" d="m420.87 174.297 21.213-21.213L289 0l-21.213 21.213zM312 334.213h-16v148h16zm-154 0h-16v148h16zm-142-54H0v146h16z"/><path fill="#5A5A5A" d="M213 296.213v-16H8v16zm99 0v-16h-54v16z"/><path fill="#5A5A5A" d="M258 296.213h16v-54h-16zm0-97h16v-74h-16zm-58-68h16v-106h-16zm-58-15v15h20v-15z"/><path fill="#5A5A5A" d="M196 116.213v15h20v-15zm-54 184h16v-184h-16zm154 0h16v-20h-16z"/><path d="M150 211.213v8h63v-8h-63Zm103-88v8h21v-8h-21Zm-48 0v8h21v-8h-21Z" fill="#5A5A5A"/><path d="m262.247 131.809 5.657 5.657 61.177-61.177-5.656-5.657-61.178 61.177ZM213 211.213h-8v26h8v-26Zm0 53h-8v26h8v-26Z" fill="#5A5A5A"/><path d="m180.25 474.464 219.412.151.086 11.348H180.25v-11.499Zm-160-56.214 97.461.152.038 11.348H20.25v-11.5Zm421.5-243.787-.152 108.457-11.348.042V174.463h11.5Zm-261.5 318.001 219.412.151.086 11.348H180.25v-11.499Zm-160-56.214 97.461.152.038 11.348H20.25v-11.5Zm403.5-261.787-.152 108.457-11.348.042V174.463h11.5Z" stroke="#5A5A5A" stroke-width=".5" stroke-miterlimit="10"/><path stroke="#5A5A5A" d="m155.575 337.951 21-34m82.17-11.308-27-16m-20.036 16.163 14-10m-15.142-17.843 15-26m33.99 5.482-12-23m12.882-26.992-12 22m50.122 121-18-33m-80.815-184.809-34-20"/><path fill="#5A5A5A" d="M274 185.213v-2h11v2zm51 0v-2h11v2zm-17 0v-2h11v2zm-17 0v-2h11v2zm51 0v-2h11v2zm17 0v-2h11v2zm17 0v-2h11v2zm17 0v-2h11v2z"/><path d="m292.2 113.131 17.675 17.674-17.201 17.2L275 130.331l17.2-17.2Z" fill="#fff" stroke="#5A5A5A" stroke-width=".5"/><path d="m307.787 130.027-13.756-13.755c-.522-.522-1.077-.522-1.621.022l-14.246 14.247c-.556.555-.556 1.088-.023 1.621l13.756 13.755c.521.544 1.065.533 1.61-.011l14.246-14.247c.566-.544.566-1.099.034-1.632Z" fill="#fff" stroke="#5A5A5A" stroke-width=".5"/><path d="M301.924 133.359c-1.277 1.255-3.309 1.288-4.541.056-1.243-1.243-1.21-3.275.056-4.541 1.277-1.277 3.298-1.299 4.541-.056 1.244 1.243 1.221 3.264-.056 4.541Zm-6.828 6.785c-1.277 1.255-3.309 1.289-4.541.056-1.243-1.243-1.21-3.275.056-4.541 1.277-1.277 3.298-1.299 4.541-.056 1.255 1.233 1.232 3.276-.056 4.541Zm-6.373-6.373c-1.277 1.277-3.298 1.299-4.541.056-1.244-1.244-1.21-3.276.056-4.541 1.277-1.255 3.308-1.289 4.541-.056 1.232 1.232 1.21 3.275-.056 4.541Zm6.806-6.807c-1.277 1.277-3.297 1.3-4.541.056-1.243-1.243-1.21-3.275.056-4.541 1.277-1.255 3.309-1.288 4.541-.056 1.233 1.232 1.21 3.275-.056 4.541Z" stroke="#5A5A5A" stroke-width=".5"/><path d="m309.371 95.982 17.033 17.033 16.758-16.758-17.044-17.044-16.747 16.769Z" fill="#fff" stroke="#5A5A5A" stroke-width=".5"/><path d="m315.317 99.378 9.417 9.417c.525.524 1.039.524 1.575-.011l12.45-12.45c.514-.515.525-1.04.022-1.565l-9.438-9.416c-.504-.525-1.029-.515-1.554.01l-12.45 12.45c-.547.504-.547 1.04-.022 1.565Z" fill="#fff" stroke="#5A5A5A" stroke-width=".5"/><path d="M318.971 88.996c.664-.643 1.682-.675 2.304-.054l4.477 5.4v.02c.375.376.365.986-.032 1.383a.996.996 0 0 1-1.403.032l-5.4-4.478c-.61-.61-.589-1.639.054-2.303Z" stroke="#5A5A5A" stroke-width=".5"/><mask id="a" fill="#fff"><path fill-rule="evenodd" clip-rule="evenodd" d="m320.429 88.503 2.432 2.946a.988.988 0 0 1-.054 1.404.98.98 0 0 1-1.382.032l-2.946-2.432"/></mask><path fill-rule="evenodd" clip-rule="evenodd" d="m320.429 88.503 2.432 2.946a.988.988 0 0 1-.054 1.404.98.98 0 0 1-1.382.032l-2.946-2.432" fill="#fff"/><path d="m322.861 91.45-.364.343-.011-.013-.011-.013.386-.318Zm-.054 1.403-.354-.354.01-.009.344.363Zm-1.382.032.318-.386.013.011.012.011-.343.364Zm-.61-4.7 2.431 2.946-.771.636-2.432-2.945.772-.637Zm2.409 2.92a1.487 1.487 0 0 1-.073 2.11l-.688-.725a.488.488 0 0 0 .034-.697l.727-.687Zm-.063 2.101a1.48 1.48 0 0 1-2.079.043l.686-.727a.48.48 0 0 0 .685-.023l.708.707Zm-2.054.065-2.946-2.432.636-.771 2.946 2.431-.636.772Z" fill="#5A5A5A" mask="url(#a)"/><path d="M216 26.535v57.356c0 .735.587 1.322 1.321 1.322h22.769c.734 0 1.321-.587 1.321-1.322V26.535c0-.734-.587-1.322-1.321-1.322h-22.769c-.734 0-1.321.601-1.321 1.322Z" fill="#fff" stroke="#5A5A5A" stroke-width=".5"/><path d="M225.618 81.688h6.189a6.485 6.485 0 0 0 6.483-6.49V30.033c0-.881-.707-1.59-1.588-1.59h-16.006c-.881 0-1.588.709-1.588 1.59v45.15c.014 3.592 2.922 6.504 6.51 6.504Z" fill="#fff" stroke="#5A5A5A" stroke-width=".5"/><path d="M228.258 33.8c-.714 0-1.293-.604-1.293-1.349s.579-1.349 1.293-1.349c.715 0 1.294.604 1.294 1.35 0 .744-.579 1.348-1.294 1.348Zm63.116 38.045.83-.84 2.199-2.136 5.415-5.32-6.977-7.103-8.445 8.296c-2.152 2.114-2.334 5.438-.406 7.4 1.905 1.94 5.232 1.817 7.384-.297Z" fill="#fff" stroke="#5A5A5A" stroke-width=".5"/><path d="m290.617 70.981.667-.655 5.392-5.297-5.383-5.479-5.392 5.297-.655.667c-1.696 1.666-1.882 4.237-.39 5.755 1.492 1.496 4.077 1.367 5.761-.288Zm5.499-20.278-3.754 3.688a1.098 1.098 0 0 0-.015 1.553l7.908 8.05c.424.431 1.12.437 1.552.012l3.755-3.688c.433-.425.439-1.12.015-1.553l-7.897-8.038a1.101 1.101 0 0 0-1.564-.024Z" fill="#fff" stroke="#5A5A5A" stroke-width=".5"/><path d="M298.514 56.887c-.292.287-.308.716-.067.961.241.269.682.25.974-.038.292-.287.308-.716.067-.961a.684.684 0 0 0-.974.038Zm-24.722-27.585-8.703 8.703a1.533 1.533 0 0 0-.001 2.178l13.095 13.095a1.533 1.533 0 0 0 2.177-.002l8.703-8.703a1.532 1.532 0 0 0 .001-2.177l-13.095-13.095a1.542 1.542 0 0 0-2.177.001Z" fill="#fff" stroke="#5A5A5A" stroke-width=".5"/><path d="m271.834 33.98-1.341 1.341a4.52 4.52 0 0 0-.004 6.39l6.165 6.165a4.52 4.52 0 0 0 6.39-.003l1.341-1.342a4.52 4.52 0 0 0 .004-6.39l-6.165-6.164a4.52 4.52 0 0 0-6.39.003Z" fill="#fff" stroke="#5A5A5A" stroke-width=".5"/><path d="M278.927 38.088c-.384.384-.393.998-.021 1.37.373.373.987.364 1.371-.02.384-.385.394-.998.021-1.37-.373-.374-.986-.364-1.371.02ZM177.298 255.933l-1.181.016-3.066-.016h-7.591v9.957h11.838c3.017 0 5.476-2.243 5.476-4.995 0-2.718-2.459-4.962-5.476-4.962Z" fill="#fff" stroke="#5A5A5A" stroke-width=".5"/><path d="M177.232 257.079h-8.493v7.681h7.559l.934-.016c2.378 0 4.312-1.704 4.312-3.833-.016-2.112-1.951-3.832-4.312-3.832Zm-18.133 10.613h5.263c.606 0 1.098-.492 1.098-1.098v-11.283c0-.606-.492-1.098-1.098-1.098h-5.263c-.607 0-1.099.492-1.099 1.098v11.267c0 .622.492 1.114 1.099 1.114Z" fill="#fff" stroke="#5A5A5A" stroke-width=".5"/><path d="M161.722 261.599c.41 0 .721-.294.721-.638.017-.361-.311-.655-.721-.655s-.721.294-.721.638a.682.682 0 0 0 .721.655ZM173 220.754v12.308c0 .855.684 1.54 1.539 1.54h18.519c.855 0 1.538-.685 1.538-1.54v-12.308c0-.856-.683-1.541-1.538-1.541h-18.519c-.841 0-1.539.685-1.539 1.541Z" fill="#fff" stroke="#5A5A5A" stroke-width=".5"/><path d="M174.923 225.446v1.896a4.52 4.52 0 0 0 4.516 4.521h8.718a4.52 4.52 0 0 0 4.516-4.521v-1.896a4.52 4.52 0 0 0-4.516-4.521h-8.718a4.52 4.52 0 0 0-4.516 4.521Z" fill="#fff" stroke="#5A5A5A" stroke-width=".5"/><path d="M182.843 223.335c0 .543.428.984.955.984.527 0 .954-.441.954-.984 0-.544-.427-.984-.954-.984-.527 0-.955.44-.955.984Z" fill="#fff" stroke="#5A5A5A" stroke-width=".5"/><path d="M221.35 401.633v-1.82l1.82-1.4h1.47v9.8h-1.61v-7.84l-1.68 1.26Zm4.831 0c0-.989.355-1.82 1.064-2.492.709-.672 1.615-1.008 2.716-1.008 1.101 0 2.007.336 2.716 1.008.709.672 1.064 1.503 1.064 2.492 0 .887-.369 1.844-1.106 2.87l-.308.42a13.42 13.42 0 0 0-.266.35l-2.24 2.94h-1.89l2.114-2.758.616-.532v-.07c-.019.01-.112.047-.28.112a3.538 3.538 0 0 1-.91.098 3.159 3.159 0 0 1-2.338-.98c-.635-.662-.952-1.479-.952-2.45Zm2.254-1.456c-.383.374-.574.859-.574 1.456 0 .598.191 1.088.574 1.47.383.374.891.56 1.526.56s1.143-.186 1.526-.56c.383-.382.574-.872.574-1.47 0-.597-.191-1.082-.574-1.456-.383-.382-.891-.574-1.526-.574s-1.143.192-1.526.574Zm6.359 7.266c0-.28.089-.513.266-.7a.937.937 0 0 1 .686-.28c.308 0 .551.112.728.336.187.224.28.556.28.994 0 .719-.172 1.27-.518 1.652-.336.392-.793.588-1.372.588v-.7c.28 0 .5-.079.658-.238a.765.765 0 0 0 .252-.602v-.084c-.009-.009-.014-.028-.014-.056v-.042l-.084.028a.69.69 0 0 1-.182.014c-.186 0-.35-.084-.49-.252-.14-.168-.21-.387-.21-.658Zm3.077-1.96h1.68c.074.29.2.537.378.742.41.486 1.008.728 1.792.728.625 0 1.12-.168 1.484-.504.364-.336.546-.774.546-1.316 0-.569-.182-1.026-.546-1.372-.364-.345-.859-.518-1.484-.518-.579 0-1.069.154-1.47.462a1.936 1.936 0 0 0-.42.448h-1.54l.42-5.74h5.95v1.54h-4.62l-.21 2.52h.07c.149-.149.322-.275.518-.378.438-.261.966-.392 1.582-.392.98 0 1.796.327 2.45.98.653.654.98 1.47.98 2.45 0 .962-.346 1.764-1.036 2.408-.682.635-1.573.952-2.674.952-1.438 0-2.506-.499-3.206-1.498a4.381 4.381 0 0 1-.644-1.512Zm8.263.77v-1.54l3.29-6.3h1.75l-3.29 6.3h3.22v-2.38h1.61v2.38h1.4v1.54h-1.4v1.96h-1.61v-1.96h-4.97Zm101.286 13.96v-1.54l3.346-2.366c.728-.522 1.251-1.008 1.568-1.456.317-.448.476-.924.476-1.428 0-.532-.163-.956-.49-1.274-.327-.317-.77-.476-1.33-.476-.691 0-1.209.28-1.554.84a2.851 2.851 0 0 0-.336.84h-1.68a4.332 4.332 0 0 1 .546-1.61c.663-1.073 1.671-1.61 3.024-1.61 1.036 0 1.876.308 2.52.924.653.607.98 1.372.98 2.296 0 .803-.205 1.526-.616 2.17-.411.635-1.069 1.265-1.974 1.89l-1.4.98-.63.28v.07l.84-.07h3.78v1.54h-7.07Zm8.193-2.73h1.68c.074.29.2.537.378.742.41.486 1.008.728 1.792.728.625 0 1.12-.168 1.484-.504.364-.336.546-.774.546-1.316 0-.569-.182-1.026-.546-1.372-.364-.345-.859-.518-1.484-.518-.579 0-1.069.154-1.47.462a1.936 1.936 0 0 0-.42.448h-1.54l.42-5.74h5.95v1.54h-4.62l-.21 2.52h.07c.149-.149.322-.275.518-.378.438-.261.966-.392 1.582-.392.98 0 1.796.327 2.45.98.653.654.98 1.47.98 2.45 0 .962-.346 1.764-1.036 2.408-.682.635-1.573.952-2.674.952-1.438 0-2.506-.499-3.206-1.498a4.381 4.381 0 0 1-.644-1.512Zm8.613 1.96c0-.28.089-.513.266-.7a.935.935 0 0 1 .686-.28c.308 0 .551.112.728.336.187.224.28.556.28.994 0 .719-.173 1.27-.518 1.652-.336.392-.793.588-1.372.588v-.7c.28 0 .499-.079.658-.238a.765.765 0 0 0 .252-.602v-.084c-.009-.009-.014-.028-.014-.056v-.042l-.084.028a.694.694 0 0 1-.182.014c-.187 0-.35-.084-.49-.252-.14-.168-.21-.387-.21-.658Zm3.076-1.89c0-.849.327-1.526.98-2.03a3.16 3.16 0 0 1 .98-.448v-.084a2.568 2.568 0 0 1-.77-.462c-.513-.438-.77-1.017-.77-1.736 0-.737.313-1.362.938-1.876.635-.522 1.489-.784 2.562-.784 1.074 0 1.923.262 2.548.784.635.514.952 1.139.952 1.876 0 .7-.256 1.279-.77 1.736-.242.196-.499.35-.77.462v.084c.355.094.682.248.98.462.654.504.98 1.176.98 2.016 0 .812-.354 1.508-1.064 2.086-.7.57-1.652.854-2.856.854s-2.16-.284-2.87-.854c-.7-.578-1.05-1.274-1.05-2.086Zm2.1-4.62c0 .411.159.747.476 1.008.318.262.766.392 1.344.392.579 0 1.027-.13 1.344-.392.318-.261.476-.597.476-1.008 0-.373-.163-.686-.49-.938-.317-.261-.76-.392-1.33-.392-.569 0-1.017.131-1.344.392-.317.252-.476.565-.476.938Zm.168 3.346c-.392.308-.588.686-.588 1.134 0 .448.196.831.588 1.148.402.308.952.462 1.652.462s1.246-.154 1.638-.462c.402-.317.602-.7.602-1.148 0-.448-.2-.826-.602-1.134-.392-.317-.938-.476-1.638-.476s-1.25.159-1.652.476Zm6.687 1.274c0-.849.327-1.526.98-2.03a3.16 3.16 0 0 1 .98-.448v-.084a2.568 2.568 0 0 1-.77-.462c-.513-.438-.77-1.017-.77-1.736 0-.737.313-1.362.938-1.876.635-.522 1.489-.784 2.562-.784 1.074 0 1.923.262 2.548.784.635.514.952 1.139.952 1.876 0 .7-.256 1.279-.77 1.736-.242.196-.499.35-.77.462v.084c.355.094.682.248.98.462.654.504.98 1.176.98 2.016 0 .812-.354 1.508-1.064 2.086-.7.57-1.652.854-2.856.854s-2.16-.284-2.87-.854c-.7-.578-1.05-1.274-1.05-2.086Zm2.1-4.62c0 .411.159.747.476 1.008.318.262.766.392 1.344.392.579 0 1.027-.13 1.344-.392.318-.261.476-.597.476-1.008 0-.373-.163-.686-.49-.938-.317-.261-.76-.392-1.33-.392-.569 0-1.017.131-1.344.392-.317.252-.476.565-.476.938Zm.168 3.346c-.392.308-.588.686-.588 1.134 0 .448.196.831.588 1.148.402.308.952.462 1.652.462s1.246-.154 1.638-.462c.402-.317.602-.7.602-1.148 0-.448-.2-.826-.602-1.134-.392-.317-.938-.476-1.638-.476s-1.25.159-1.652.476ZM449.42 387.2h1.68c.065.289.191.546.378.77.42.513 1.017.77 1.792.77.644 0 1.153-.159 1.526-.476.383-.327.574-.728.574-1.204 0-.541-.173-.966-.518-1.274-.336-.317-.817-.476-1.442-.476h-2.38v-1.4l2.94-2.1v-.07h-4.06v-1.54h6.44v1.526l-2.52 1.834-.7.28v.07l.224-.028c.308-.028.49-.042.546-.042.877 0 1.61.303 2.198.91.588.607.882 1.377.882 2.31 0 .896-.345 1.657-1.036 2.282-.691.625-1.582.938-2.674.938-1.447 0-2.515-.513-3.206-1.54a4.406 4.406 0 0 1-.644-1.54Zm8.617 2.03c0-.28.088-.513.266-.7a.93.93 0 0 1 .686-.28c.308 0 .55.112.728.336.186.224.28.555.28.994 0 .719-.173 1.269-.518 1.652-.336.392-.794.588-1.372.588v-.7c.28 0 .499-.079.658-.238a.765.765 0 0 0 .252-.602v-.084c-.01-.009-.014-.028-.014-.056v-.042l-.084.028a.743.743 0 0 1-.182.014c-.187 0-.35-.084-.49-.252-.14-.168-.21-.387-.21-.658Zm3.006-2.45c0-.448.098-.915.294-1.4.205-.495.401-.882.588-1.162.196-.289.462-.649.798-1.078l2.24-2.94h1.89l-2.114 2.758-.616.532v.07l.28-.098c.28-.075.583-.112.91-.112.914 0 1.689.331 2.324.994.644.653.966 1.465.966 2.436 0 .989-.355 1.82-1.064 2.492-.71.672-1.615 1.008-2.716 1.008-1.102 0-2.007-.336-2.716-1.008-.71-.672-1.064-1.503-1.064-2.492Zm2.254-1.456c-.383.373-.574.859-.574 1.456s.191 1.087.574 1.47c.382.373.891.56 1.526.56.634 0 1.143-.187 1.526-.56.382-.383.574-.873.574-1.47s-.192-1.083-.574-1.456c-.383-.383-.892-.574-1.526-.574-.635 0-1.144.191-1.526.574Zm6.359 1.456c0-.448.098-.915.294-1.4.205-.495.401-.882.588-1.162.196-.289.462-.649.798-1.078l2.24-2.94h1.89l-2.114 2.758-.616.532v.07l.28-.098c.28-.075.583-.112.91-.112.915 0 1.689.331 2.324.994.644.653.966 1.465.966 2.436 0 .989-.355 1.82-1.064 2.492-.709.672-1.615 1.008-2.716 1.008-1.101 0-2.007-.336-2.716-1.008-.709-.672-1.064-1.503-1.064-2.492Zm2.254-1.456c-.383.373-.574.859-.574 1.456s.191 1.087.574 1.47c.383.373.891.56 1.526.56s1.143-.187 1.526-.56c.383-.383.574-.873.574-1.47s-.191-1.083-.574-1.456c-.383-.383-.891-.574-1.526-.574s-1.143.191-1.526.574ZM64.35 359.633v-1.82l1.82-1.4h1.47v9.8h-1.61v-7.84l-1.68 1.26Zm4.691 6.58v-1.54l3.346-2.366c.728-.522 1.25-1.008 1.568-1.456.317-.448.476-.924.476-1.428 0-.532-.163-.956-.49-1.274-.327-.317-.77-.476-1.33-.476-.69 0-1.209.28-1.554.84-.15.243-.261.523-.336.84h-1.68a4.332 4.332 0 0 1 .546-1.61c.663-1.073 1.67-1.61 3.024-1.61 1.036 0 1.876.308 2.52.924.653.607.98 1.372.98 2.296a3.95 3.95 0 0 1-.616 2.17c-.41.635-1.069 1.265-1.974 1.89l-1.4.98-.63.28v.07l.84-.07h3.78v1.54h-7.07Zm8.193-.77c0-.28.089-.513.266-.7a.936.936 0 0 1 .686-.28c.308 0 .55.112.728.336.186.224.28.556.28.994 0 .719-.173 1.27-.518 1.652-.336.392-.794.588-1.372.588v-.7c.28 0 .5-.079.658-.238a.765.765 0 0 0 .252-.602v-.084c-.01-.009-.014-.028-.014-.056v-.042l-.084.028a.692.692 0 0 1-.182.014c-.187 0-.35-.084-.49-.252-.14-.168-.21-.387-.21-.658Zm3.006-2.45c0-.448.098-.914.294-1.4.205-.494.401-.882.588-1.162.196-.289.462-.648.798-1.078l2.24-2.94h1.89l-2.114 2.758-.616.532v.07l.28-.098a3.55 3.55 0 0 1 .91-.112c.915 0 1.69.332 2.324.994.644.654.966 1.466.966 2.436 0 .99-.355 1.82-1.064 2.492-.71.672-1.615 1.008-2.716 1.008-1.101 0-2.007-.336-2.716-1.008-.71-.672-1.064-1.502-1.064-2.492Zm2.254-1.456c-.383.374-.574.859-.574 1.456 0 .598.191 1.088.574 1.47.383.374.891.56 1.526.56s1.143-.186 1.526-.56c.383-.382.574-.872.574-1.47 0-.597-.191-1.082-.574-1.456-.383-.382-.891-.574-1.526-.574s-1.143.192-1.526.574Zm5.312-3.584v-1.54h6.65v1.54l-3.92 8.26h-1.75l3.85-8.12v-.14h-4.83Zm86.614-107.74v-1.54l3.346-2.366c.728-.522 1.251-1.008 1.568-1.456.317-.448.476-.924.476-1.428 0-.532-.163-.956-.49-1.274-.327-.317-.77-.476-1.33-.476-.691 0-1.209.28-1.554.84a2.851 2.851 0 0 0-.336.84h-1.68a4.332 4.332 0 0 1 .546-1.61c.663-1.073 1.671-1.61 3.024-1.61 1.036 0 1.876.308 2.52.924.653.607.98 1.372.98 2.296 0 .803-.205 1.526-.616 2.17-.411.635-1.069 1.265-1.974 1.89l-1.4.98-.63.28v.07l.84-.07h3.78v1.54h-7.07Zm8.193-.77c0-.28.088-.513.266-.7a.934.934 0 0 1 .686-.28c.308 0 .55.112.728.336.186.224.28.556.28.994 0 .719-.173 1.27-.518 1.652-.336.392-.794.588-1.372.588v-.7c.28 0 .499-.079.658-.238a.765.765 0 0 0 .252-.602v-.084c-.01-.009-.014-.028-.014-.056v-.042l-.084.028a.694.694 0 0 1-.182.014c-.187 0-.35-.084-.49-.252-.14-.168-.21-.387-.21-.658Zm2.726-1.19v-1.54l3.29-6.3h1.75l-3.29 6.3h3.22v-2.38h1.61v2.38h1.4v1.54h-1.4v1.96h-1.61v-1.96h-4.97Zm9.939.784c-.886-.97-1.33-2.212-1.33-3.724s.444-2.753 1.33-3.724c.887-.97 1.96-1.456 3.22-1.456 1.26 0 2.334.486 3.22 1.456.887.971 1.33 2.212 1.33 3.724s-.443 2.754-1.33 3.724c-.886.971-1.96 1.456-3.22 1.456-1.26 0-2.333-.485-3.22-1.456Zm1.148-6.412c-.532.635-.798 1.531-.798 2.688 0 1.158.266 2.054.798 2.688.542.635 1.232.952 2.072.952.84 0 1.526-.317 2.058-.952.542-.634.812-1.53.812-2.688 0-1.157-.27-2.053-.812-2.688-.532-.634-1.218-.952-2.058-.952-.84 0-1.53.318-2.072.952Zm-20.866-72.072c0-.849.327-1.526.98-2.03a3.16 3.16 0 0 1 .98-.448v-.084a2.568 2.568 0 0 1-.77-.462c-.513-.438-.77-1.017-.77-1.736 0-.737.313-1.362.938-1.876.635-.522 1.489-.784 2.562-.784 1.073 0 1.923.262 2.548.784.635.514.952 1.139.952 1.876 0 .7-.257 1.279-.77 1.736-.243.196-.499.35-.77.462v.084c.355.094.681.248.98.462.653.504.98 1.176.98 2.016 0 .812-.355 1.508-1.064 2.086-.7.57-1.652.854-2.856.854s-2.161-.284-2.87-.854c-.7-.578-1.05-1.274-1.05-2.086Zm2.1-4.62c0 .411.159.747.476 1.008.317.262.765.392 1.344.392.579 0 1.027-.13 1.344-.392.317-.261.476-.597.476-1.008 0-.373-.163-.686-.49-.938-.317-.261-.761-.392-1.33-.392-.569 0-1.017.131-1.344.392-.317.252-.476.565-.476.938Zm.168 3.346c-.392.308-.588.686-.588 1.134 0 .448.196.831.588 1.148.401.308.952.462 1.652.462s1.246-.154 1.638-.462c.401-.317.602-.7.602-1.148 0-.448-.201-.826-.602-1.134-.392-.317-.938-.476-1.638-.476s-1.251.159-1.652.476Zm6.687 3.164c0-.28.089-.513.266-.7a.935.935 0 0 1 .686-.28c.308 0 .551.112.728.336.187.224.28.556.28.994 0 .719-.173 1.27-.518 1.652-.336.392-.793.588-1.372.588v-.7c.28 0 .499-.079.658-.238a.765.765 0 0 0 .252-.602v-.084c-.009-.009-.014-.028-.014-.056v-.042l-.084.028a.694.694 0 0 1-.182.014c-.187 0-.35-.084-.49-.252-.14-.168-.21-.387-.21-.658Zm3.076-5.81c0-.989.355-1.82 1.064-2.492.71-.672 1.615-1.008 2.716-1.008 1.102 0 2.007.336 2.716 1.008.71.672 1.064 1.503 1.064 2.492 0 .887-.368 1.844-1.106 2.87-.074.103-.177.243-.308.42-.13.168-.219.285-.266.35l-2.24 2.94h-1.89l2.114-2.758.616-.532v-.07c-.018.01-.112.047-.28.112a3.533 3.533 0 0 1-.91.098 3.16 3.16 0 0 1-2.338-.98c-.634-.662-.952-1.479-.952-2.45Zm2.254-1.456c-.382.374-.574.859-.574 1.456 0 .598.192 1.088.574 1.47.383.374.892.56 1.526.56.635 0 1.144-.186 1.526-.56.383-.382.574-.872.574-1.47 0-.597-.191-1.082-.574-1.456-.382-.382-.891-.574-1.526-.574-.634 0-1.143.192-1.526.574Zm7.76 6.86c-.887-.97-1.33-2.212-1.33-3.724s.443-2.753 1.33-3.724c.886-.97 1.96-1.456 3.22-1.456 1.26 0 2.333.486 3.22 1.456.886.971 1.33 2.212 1.33 3.724s-.444 2.754-1.33 3.724c-.887.971-1.96 1.456-3.22 1.456-1.26 0-2.334-.485-3.22-1.456Zm1.148-6.412c-.532.635-.798 1.531-.798 2.688 0 1.158.266 2.054.798 2.688.541.635 1.232.952 2.072.952.84 0 1.526-.317 2.058-.952.541-.634.812-1.53.812-2.688 0-1.157-.271-2.053-.812-2.688-.532-.634-1.218-.952-2.058-.952-.84 0-1.531.318-2.072.952Zm54.737-74.632c0-.448.098-.914.294-1.4.205-.494.401-.882.588-1.162.196-.29.462-.648.798-1.078l2.24-2.94h1.89l-2.114 2.758-.616.532v.07l.28-.098a3.52 3.52 0 0 1 .91-.112c.915 0 1.689.332 2.324.994.644.654.966 1.466.966 2.436 0 .99-.355 1.82-1.064 2.492-.709.672-1.615 1.008-2.716 1.008-1.101 0-2.007-.336-2.716-1.008-.709-.672-1.064-1.502-1.064-2.492Zm2.254-1.456c-.383.374-.574.859-.574 1.456 0 .598.191 1.088.574 1.47.383.374.891.56 1.526.56s1.143-.186 1.526-.56c.383-.382.574-.872.574-1.47 0-.597-.191-1.082-.574-1.456-.383-.382-.891-.574-1.526-.574s-1.143.192-1.526.574Zm6.429 3.906c0-.28.089-.513.266-.7a.934.934 0 0 1 .686-.28c.308 0 .551.112.728.336.187.224.28.556.28.994 0 .719-.172 1.27-.518 1.652-.336.392-.793.588-1.372.588v-.7c.28 0 .5-.08.658-.238a.765.765 0 0 0 .252-.602v-.084c-.009-.01-.014-.028-.014-.056v-.042l-.084.028a.722.722 0 0 1-.182.014c-.186 0-.35-.084-.49-.252-.14-.168-.21-.387-.21-.658Zm3.076-1.96h1.68c.075.29.201.537.378.742.411.486 1.008.728 1.792.728.626 0 1.12-.168 1.484-.504.364-.336.546-.774.546-1.316 0-.57-.182-1.026-.546-1.372-.364-.345-.858-.518-1.484-.518-.578 0-1.068.154-1.47.462-.158.122-.298.27-.42.448h-1.54l.42-5.74h5.95v1.54h-4.62l-.21 2.52h.07c.15-.15.322-.275.518-.378.439-.261.966-.392 1.582-.392.98 0 1.797.327 2.45.98.654.654.98 1.47.98 2.45 0 .962-.345 1.764-1.036 2.408-.681.635-1.572.952-2.674.952-1.437 0-2.506-.5-3.206-1.498a4.431 4.431 0 0 1-.644-1.512Zm8.614 0h1.68c.074.29.2.537.378.742.41.486 1.008.728 1.792.728.625 0 1.12-.168 1.484-.504.364-.336.546-.774.546-1.316 0-.57-.182-1.026-.546-1.372-.364-.345-.859-.518-1.484-.518-.579 0-1.069.154-1.47.462-.159.122-.299.27-.42.448h-1.54l.42-5.74h5.95v1.54h-4.62l-.21 2.52h.07a2.1 2.1 0 0 1 .518-.378c.438-.261.966-.392 1.582-.392.98 0 1.796.327 2.45.98.653.654.98 1.47.98 2.45 0 .962-.346 1.764-1.036 2.408-.682.635-1.573.952-2.674.952-1.438 0-2.506-.5-3.206-1.498a4.393 4.393 0 0 1-.644-1.512Zm50.277 60.47v-1.54h6.65v1.54l-3.92 8.26h-1.75l3.85-8.12v-.14h-4.83Zm6.094 7.49c0-.28.088-.513.266-.7a.934.934 0 0 1 .686-.28c.308 0 .55.112.728.336.186.224.28.556.28.994 0 .719-.173 1.27-.518 1.652-.336.392-.794.588-1.372.588v-.7c.28 0 .499-.079.658-.238a.765.765 0 0 0 .252-.602v-.084c-.01-.009-.014-.028-.014-.056v-.042l-.084.028a.694.694 0 0 1-.182.014c-.187 0-.35-.084-.49-.252-.14-.168-.21-.387-.21-.658Zm2.726-1.19v-1.54l3.29-6.3H338l-3.29 6.3h3.22v-2.38h1.61v2.38h1.4v1.54h-1.4v1.96h-1.61v-1.96h-4.97Zm8.399-.84h1.68c.066.29.192.546.378.77.42.514 1.018.77 1.792.77.644 0 1.153-.158 1.526-.476.383-.326.574-.728.574-1.204 0-.541-.172-.966-.518-1.274-.336-.317-.816-.476-1.442-.476h-2.38v-1.4l2.94-2.1v-.07h-4.06v-1.54h6.44v1.526l-2.52 1.834-.7.28v.07l.224-.028c.308-.028.49-.042.546-.042.878 0 1.61.304 2.198.91.588.607.882 1.377.882 2.31 0 .896-.345 1.657-1.036 2.282-.69.626-1.582.938-2.674.938-1.446 0-2.515-.513-3.206-1.54a4.417 4.417 0 0 1-.644-1.54Z" fill="#333"/><circle cx="342.5" cy="238.713" r="39.5" fill="#5A5A5A"/><path d="M316.72 242.793c0-1.092.42-1.962 1.26-2.61.36-.252.78-.444 1.26-.576v-.108a3.296 3.296 0 0 1-.99-.594c-.66-.564-.99-1.308-.99-2.232 0-.948.402-1.752 1.206-2.412.816-.672 1.914-1.008 3.294-1.008 1.38 0 2.472.336 3.276 1.008.816.66 1.224 1.464 1.224 2.412 0 .9-.33 1.644-.99 2.232-.312.252-.642.45-.99.594v.108c.456.12.876.318 1.26.594.84.648 1.26 1.512 1.26 2.592 0 1.044-.456 1.938-1.368 2.682-.9.732-2.124 1.098-3.672 1.098s-2.778-.366-3.69-1.098c-.9-.744-1.35-1.638-1.35-2.682Zm2.7-5.94c0 .528.204.96.612 1.296.408.336.984.504 1.728.504s1.32-.168 1.728-.504c.408-.336.612-.768.612-1.296 0-.48-.21-.882-.63-1.206-.408-.336-.978-.504-1.71-.504s-1.308.168-1.728.504c-.408.324-.612.726-.612 1.206Zm.216 4.302c-.504.396-.756.882-.756 1.458s.252 1.068.756 1.476c.516.396 1.224.594 2.124.594.9 0 1.602-.198 2.106-.594.516-.408.774-.9.774-1.476s-.258-1.062-.774-1.458c-.504-.408-1.206-.612-2.106-.612-.9 0-1.608.204-2.124.612Zm8.418 1.458h2.16c.084.372.246.702.486.99.54.66 1.308.99 2.304.99.828 0 1.482-.204 1.962-.612.492-.42.738-.936.738-1.548 0-.696-.222-1.242-.666-1.638-.432-.408-1.05-.612-1.854-.612h-3.06v-1.8l3.78-2.7v-.09h-5.22v-1.98h8.28v1.962l-3.24 2.358-.9.36v.09l.288-.036c.396-.036.63-.054.702-.054 1.128 0 2.07.39 2.826 1.17.756.78 1.134 1.77 1.134 2.97 0 1.152-.444 2.13-1.332 2.934-.888.804-2.034 1.206-3.438 1.206-1.86 0-3.234-.66-4.122-1.98-.384-.564-.66-1.224-.828-1.98Zm11.078 2.61c0-.36.114-.66.342-.9a1.2 1.2 0 0 1 .882-.36c.396 0 .708.144.936.432.24.288.36.714.36 1.278 0 .924-.222 1.632-.666 2.124-.432.504-1.02.756-1.764.756v-.9c.36 0 .642-.102.846-.306.216-.192.324-.45.324-.774v-.108c-.012-.012-.018-.036-.018-.072v-.054l-.108.036a.932.932 0 0 1-.234.018c-.24 0-.45-.108-.63-.324-.18-.216-.27-.498-.27-.846Zm3.775-2.61h2.16c.084.372.246.702.486.99.54.66 1.308.99 2.304.99.828 0 1.482-.204 1.962-.612.492-.42.738-.936.738-1.548 0-.696-.222-1.242-.666-1.638-.432-.408-1.05-.612-1.854-.612h-3.06v-1.8l3.78-2.7v-.09h-5.22v-1.98h8.28v1.962l-3.24 2.358-.9.36v.09l.288-.036c.396-.036.63-.054.702-.054 1.128 0 2.07.39 2.826 1.17.756.78 1.134 1.77 1.134 2.97 0 1.152-.444 2.13-1.332 2.934-.888.804-2.034 1.206-3.438 1.206-1.86 0-3.234-.66-4.122-1.98-.384-.564-.66-1.224-.828-1.98Zm10.539-7.02v-1.98h8.55v1.98l-5.04 10.62h-2.25l4.95-10.44v-.18h-6.21Z" fill="#fff"/><path stroke="#5A5A5A" d="m255.25 129.646-26 15"/></svg>