<svg width="142" height="31" fill="none" xmlns="http://www.w3.org/2000/svg"><path fill-rule="evenodd" clip-rule="evenodd" d="M.501 15.5C.501 7.3 7.015.6 14.931.6c8.018 0 14.431 6.7 14.431 14.9s-6.514 14.9-14.43 14.9C7.014 30.5.502 23.8.502 15.5ZM0 15.5C0 24 6.714 31 15.032 31c8.317 0 15.032-6.9 15.032-15.5C30.064 7 23.349 0 15.032 0 6.714.1 0 7 0 15.5Z" fill="#fff"/><path fill-rule="evenodd" clip-rule="evenodd" d="M24.552 14c-.1.1-.2.2-.4.3-.803.7-2.105 1.2-3.91 1.7-3.807 1-6.513 1.2-9.62 2l-1.803.6c.601.3 1.202.6 1.803.8 1.303-.4 1.905-.5 3.708-.9.702-.1 2.806-.5 4.41-.8 2.705-.6 6.814-2 5.812-3.7Zm-1.804-3.7c-.601-.3-1.303-.5-2.104-.8-.401.3-.802.5-1.403.8 1.002.2 1.703.5 2.605.7.1.1.702-.5.902-.7ZM9.02 14.2c3.608-1.1 7.516-1.4 11.424-2.5-1.503-.4-2.305-.6-3.908-.4-2.305.3-4.91.8-7.115 1.5-.902.3-5.411 1.6-4.109 3.4-.1 0 .702-1.1 3.708-2Zm-2.605 6.4c0 .3.2.7.6 1 .101-.2.101-.3.302-.5-.301-.2-.602-.3-.902-.5Zm1.803-.2c.301-.2.602-.3 1.003-.5-.502-.2-1.003-.5-1.604-.7-.2.2-.5.3-.601.5.3.2.701.5 1.202.7Zm14.03-8c-.701.4-1.804.7-3.307 1.1-1.203.3-4.309.8-7.516 1.5-1.002.2-3.808.9-5.21 2.1.4.3.6.4 1.001.6.602-.4 1.303-.7 2.506-1 2.004-.6 3.507-.8 5.31-1.1 1.805-.3 5.112-1 7.016-1.7.6-.2 1.202-.5 1.603-.8-.2-.2-1.403-.8-1.403-.7Zm1.102-.7c.401.2.702.3 1.003.6.2-.5.1-.7-.401-1.2l-.602.6ZM6.313 18.5c-.3-.2-.5-.3-.801-.5-.1.3.1.7.4.9.1-.2.201-.3.401-.4ZM21.846 8.1c-.1.3-.3.6-.5.8.5.2 1.102.4 1.602.6 0-.6-.6-1.1-1.102-1.4ZM4.61 11.3c3.808-2.6 8.117-4.1 15.232-2.8.4-.2.601-.5.702-.9-1.804-.7-3.708-.9-6.214-.9-2.305.1-6.313.9-8.518 2.3l.702-.9c1.503-.9 5.511-2.1 8.418-2.2 2.104 0 3.206.1 5.712.8-.2-.4-.702-.7-1.503-1-2.406-1.1-6.915-1.2-10.623.5.501-.3.902-.6 1.503-.9 1.203-.6 3.207-1.1 5.712-1.1 2.005 0 4.31.7 5.813 2.2.2.3.4.6.4.9 1.103.6 1.804 1.2 2.205 1.8.1.3.2.7.1 1.1.501.3.702.5.902.9.2.3.3.6.3.9 0 .4.101.8-.3 1.3.401.2.702.8.702 1 .2.9-.401 1.8-1.103 2.4-.801.8-2.705 1.7-4.208 2.1-3.007.8-5.612 1.1-7.717 1.5.902.2 2.205.5 4.31.5 4.509 0 8.417-2.2 8.417-2.2s-.1.3-.2.5c-2.806 1.8-7.416 2.5-9.32 2.4-2.004-.1-3.608-.4-5.211-.9-.501.1-1.002.3-1.503.5 2.505 1.2 4.309 1.4 6.413 1.6 2.105.2 5.712-.4 8.719-1.5-.1.1-.2.4-.3.5-1.504.8-4.811 1.7-6.415 1.7-1.603.1-3.607 0-5.31-.3-1.504-.3-2.706-.8-3.909-1.4-.2.2-.3.4-.4.7 4.91 2.7 9.52 2.7 14.83 1l-.5.5c-5.813 2.4-10.322 1.5-13.83-.3-.1-.1-.3-.1-.4-.2.3.6 3.006 2.6 6.012 2.9 2.105.2 4.61-.2 6.113-.8l-.902.5c-.701.4-2.605 1.2-5.311 1-3.608-.3-5.612-1.9-6.514-2.7-.4-.4-.601-.9-.701-1.4-.802-.4-1.303-.9-1.704-1.6-.2-.4-.2-.8-.1-1.2 0-.1 0-.2.1-.3-.4-.3-.802-.6-.902-.9-.4-.7-.1-1.2.1-1.7-.2-.2-.4-.5-.5-.8-.1-.3-.1-.6-.1-.9.1-.6.4-1.1.7-1.5.802-.9 2.005-1.6 4.11-2.4 2.104-.7 2.905-.8 4.409-1.2 1.803-.4 4.008-.6 5.812-1.2-5.01-.9-10.322-.1-14.631 3l.4-.9Z" fill="#fff"/><path d="m48.803 12.8.601 4.1h-1.102l.501-4.1Zm-4.51 9.5H47.4l.4-2.3h2.105l.401 2.3h3.107L50.807 8.8H47l-2.706 13.5ZM56.32 14c.5 0 1.402-.3 1.402-1.3 0-1.2-1.002-1.3-1.303-1.3-.4 0-1.002.1-1.703.4V8.9c1.002-.3 1.803-.4 2.705-.4 2.506 0 3.608 1.8 3.608 3.6 0 1.7-1.002 2.8-1.904 3.2v.1c.902.3 2.104 1.2 2.104 3.2 0 2.6-1.703 4-3.908 4-1.202 0-2.004-.2-2.906-.7l.1-2.8c.902.4 1.403.4 2.005.4 1.002 0 1.402-.7 1.402-1.3 0-.8-.5-1.3-1.503-1.3h-1.202V14h1.102Zm6.212-5.2h8.318v13.5h-3.007V12H65.54v10.3h-3.007V8.8Zm13.128 2.9h.701c.702 0 1.103.4 1.103 1.5 0 1.5-.702 1.6-1.103 1.6h-.701v-3.1Zm-3.107 10.6h3.007v-4.5h1.002c3.006 0 3.908-2.8 3.908-4.6 0-1.8-1.102-4.5-3.908-4.5h-4.109v13.6h.1Zm13.729-3.1c-1.102 0-1.603-1.3-1.603-3.7 0-2.4.601-3.7 1.603-3.7 1.103 0 1.604 1.3 1.604 3.7 0 2.4-.602 3.7-1.604 3.7Zm0 3.3c3.608 0 4.81-3.5 4.81-7s-1.202-7-4.81-7c-3.607 0-4.81 3.5-4.81 7-.1 3.5 1.203 7 4.81 7Zm21.045-2.9v-3.1h.401c.4 0 1.302 0 1.302 1.4s-1.002 1.7-1.302 1.7h-.401Zm-3.007 2.7h3.608c.802 0 4.109-.3 4.109-4.4 0-3.5-2.506-4.1-4.209-4.1h-.501V12h4.008V8.8h-7.015v13.5Zm18.74-13.5h2.906v4.8h2.205V8.8h2.906v13.5h-2.906v-5.4h-2.205v5.4h-2.906V8.8Zm10.021 0h3.006v4.8h.602l1.703-4.8h3.307l-2.305 6.4L142 22.3h-3.508l-1.703-5.4h-.702v5.4h-3.006V8.8Zm-94.701 0h6.314v3.3h-3.207v10.2h-3.106V8.8Zm54.116 0H95.1l2.305 3.1 2.305-3.1h2.605v13.5H99.21V14l-1.804 2.4-1.804-2.4v8.3h-3.106V8.8Zm24.651 4.1.601 4.1h-1.202l.601-4.1Zm-4.509 9.4h3.106l.401-2.3h2.105l.4 2.3h3.107l-2.606-13.5h-3.808l-2.705 13.5Z" fill="#fff"/></svg>