<svg width="28" height="28" fill="none" xmlns="http://www.w3.org/2000/svg"><path d="M14 28c7.732 0 14-6.268 14-14S21.732 0 14 0 0 6.268 0 14s6.268 14 14 14Z" fill="#AA00B9"/><g clip-path="url(#a)"><path d="M6.34 10.052h4.153a.215.215 0 0 1 .216.216v2.737h6.582v-2.737a.215.215 0 0 1 .216-.216h4.153a.215.215 0 0 1 .215.216v7.464a.215.215 0 0 1-.215.216h-4.153a.215.215 0 0 1-.216-.216v-2.737H10.71v2.737a.215.215 0 0 1-.216.216H6.34a.215.215 0 0 1-.215-.216v-7.464a.215.215 0 0 1 .215-.216Zm15.104.43h-.953v7.035h.953v-7.034Zm-1.384 0h-.954v7.035h.954v-7.034Zm-2.338 7.035h.954v-7.034h-.954v7.034Zm-.43-2.953v-1.128h-6.584v1.128h6.583Zm-7.014-4.081h-.954v7.034h.954v-7.034Zm-1.384 0H7.94v7.034h.954v-7.034Zm-2.338 7.034h.953v-7.034h-.953v7.034Z" fill="#fff"/></g><defs><clipPath id="a"><path fill="#fff" transform="matrix(-1 0 0 1 21.875 6.125)" d="M0 0h15.75v15.75H0z"/></clipPath></defs></svg>