<svg width="28" height="28" fill="none" xmlns="http://www.w3.org/2000/svg"><path d="M14 28c7.732 0 14-6.268 14-14S21.732 0 14 0 0 6.268 0 14s6.268 14 14 14Z" fill="#FFBC05"/><path d="M17.922 18h-7.844a.426.426 0 0 1-.259-.085.32.32 0 0 1-.127-.212l-.69-5.333a.29.29 0 0 1 .016-.138.326.326 0 0 1 .08-.121.393.393 0 0 1 .132-.082.444.444 0 0 1 .158-.029h9.224c.055 0 .108.01.158.029.05.02.095.047.131.082a.326.326 0 0 1 .08.12.287.287 0 0 1 .017.14l-.69 5.332a.32.32 0 0 1-.127.212.426.426 0 0 1-.26.085Z" stroke="#fff" stroke-linecap="round" stroke-linejoin="round"/><path d="M12 12a2 2 0 0 1 4 0" stroke="#fff" stroke-linecap="round" stroke-linejoin="round"/></svg>