<svg width="28" height="28" fill="none" xmlns="http://www.w3.org/2000/svg"><path d="M14 28c7.732 0 14-6.268 14-14S21.732 0 14 0 0 6.268 0 14s6.268 14 14 14Z" fill="#00858A"/><path d="M8.925 15.137h10.587m-2.8 5.338h-5.95A2.353 2.353 0 0 1 8.4 18.112v-7.7a2.353 2.353 0 0 1 2.362-2.362h5.95a2.353 2.353 0 0 1 2.363 2.362v7.7a2.353 2.353 0 0 1-2.363 2.363Z" stroke="#fff" stroke-miterlimit="10"/><path d="M11.987 18.288a.438.438 0 1 0 0-.875.438.438 0 0 0 0 .875Zm3.588 0a.438.438 0 1 0 0-.875.438.438 0 0 0 0 .875Zm1.663-12.6L14.7 8.224m-4.287-2.537 2.537 2.537-2.537-2.537Zm1.137 17.501c-.525 0-.875-.35-.875-.875v-1.75h1.75v1.75c0 .437-.35.875-.875.875Zm4.462 0c-.525 0-.875-.35-.875-.875v-1.75h1.75v1.75c0 .437-.35.875-.875.875Z" stroke="#fff" stroke-miterlimit="10"/></svg>