<svg width="28" height="28" fill="none" xmlns="http://www.w3.org/2000/svg"><path d="M14 28c7.732 0 14-6.268 14-14S21.732 0 14 0 0 6.268 0 14s6.268 14 14 14Z" fill="#21A9E1"/><path d="M18.463 20.913H9.975c-.962 0-1.75-.788-1.75-1.75v-.088c0-.962.788-1.75 1.75-1.75h8.488c.962 0 1.75.788 1.75 1.75v.175c-.088.962-.788 1.663-1.75 1.663Z" stroke="#fff" stroke-miterlimit="10"/><path d="M17.15 17.5h-5.862c-.963 0-1.75-.788-1.75-1.75v-.088c0-.962.787-1.75 1.75-1.75h5.862c.963 0 1.75.788 1.75 1.75v.088c-.087.962-.875 1.75-1.75 1.75Z" stroke="#fff" stroke-miterlimit="10"/><path d="M15.75 13.912H12.6c-.962 0-1.75-.787-1.75-1.75v-.087c0-.962.788-1.75 1.75-1.75h3.15c.963 0 1.75.788 1.75 1.75v.088c0 .962-.787 1.75-1.75 1.75Zm-1.575-3.587c-.962 0-1.75-.788-1.75-1.75 0-.963.788-1.75 1.75-1.75h.088c.962 0 1.75.787 1.75 1.75v.087c-.088.875-.875 1.663-1.838 1.663Z" stroke="#fff" stroke-miterlimit="10"/></svg>