<svg width="112" height="29" fill="none" xmlns="http://www.w3.org/2000/svg"><path d="m36.82 27.081-1.185-1.445h-.55v1.445h-.577v-1.445h-.55l-1.184 1.445h-.636l1.387-1.734-1.214-1.734h.636l1.04 1.474h.52v-1.474h.579v1.474h.52l1.04-1.474h.636l-1.214 1.734 1.388 1.734h-.636Zm1.271 0v-3.468h.578v2.515l2.11-2.515h.492v3.468h-.578v-2.514l-2.11 2.514h-.492Zm4.219.059c-.115 0-.26-.03-.404-.087v-.434a.637.637 0 0 0 .232.029c.606 0 .809-1.156.867-3.035h2.543v3.468h-.578v-2.919h-1.416c-.087 1.763-.347 2.977-1.243 2.977Zm5.897-3.613c.954 0 1.85.636 1.85 1.82 0 1.185-.896 1.821-1.85 1.821-.925 0-1.85-.636-1.85-1.82 0-1.185.925-1.821 1.85-1.821Zm0 .549c-.694 0-1.272.462-1.272 1.271 0 .81.55 1.272 1.272 1.272.694 0 1.272-.462 1.272-1.271 0-.78-.55-1.272-1.272-1.272Zm2.746 3.005v-3.468h.578v2.514l2.11-2.514h.49v3.468h-.577v-2.514l-2.11 2.514h-.491Zm1.618-3.988a1.86 1.86 0 0 1-1.011-.29v-.52c.346.232.664.318 1.011.318.347 0 .636-.086 1.012-.318v.52a1.93 1.93 0 0 1-1.012.29Zm5.232 3.988v-3.468h.578v1.445h.694l1.098-1.445h.665l-1.3 1.734 1.473 1.734h-.693l-1.272-1.474h-.665v1.474h-.578Zm5.433-3.554c.954 0 1.85.636 1.85 1.82 0 1.185-.896 1.821-1.85 1.821-.924 0-1.85-.636-1.85-1.82 0-1.185.897-1.821 1.85-1.821Zm0 .549c-.693 0-1.271.462-1.271 1.271 0 .81.549 1.272 1.271 1.272.723 0 1.272-.462 1.272-1.271 0-.78-.578-1.272-1.271-1.272Zm2.63 3.005v-3.468h.636l1.272 1.908 1.272-1.908h.635v3.468h-.549v-2.6l-1.127 1.704h-.462l-1.128-1.705v2.601h-.549Zm4.943 0v-3.468h3.15v3.468h-.578v-2.919h-1.994v2.92h-.578Zm4.249.059c-.116 0-.26-.03-.405-.087v-.434a.636.636 0 0 0 .231.029c.607 0 .81-1.156.867-3.035h2.543v3.468h-.578v-2.919H76.3c-.115 1.763-.347 2.977-1.242 2.977Zm5.78-3.613c1.33 0 1.82 1.098 1.619 2.08H79.71c.087.723.722 1.041 1.416 1.041.434 0 .838-.116 1.127-.289v.55c-.318.173-.78.26-1.214.26-1.011 0-1.907-.579-1.907-1.822 0-1.213.896-1.82 1.705-1.82Zm.029.549c-.578 0-1.127.347-1.185 1.04h2.254c.058-.375-.173-1.04-1.069-1.04Zm2.427 3.005v-3.468h.579v1.445h.693l1.098-1.445h.665l-1.3 1.734 1.474 1.734h-.665l-1.272-1.474h-.665v1.474h-.607Zm5.232-3.554c.376 0 .78.086 1.07.289l-.232.404c-.144-.086-.347-.173-.751-.173-.665.029-1.359.376-1.359 1.272s.665 1.271 1.359 1.271c.376 0 .578-.058.751-.144l.29.433a2.702 2.702 0 0 1-1.128.231c-.896 0-1.85-.578-1.85-1.791-.029-1.214.954-1.792 1.85-1.792Zm-45.608-4.943V4.307h11.995v14.277H52.6V6.445h-7.34v12.14h-2.342Zm25.29-14.277v2.11h-7.515v3.901h5.347v2.11h-5.347v4.018h7.63v2.11h-9.942V4.277h9.827v.029Zm29.104 0v2.138h-4.711v12.14h-2.312V6.444h-4.74V4.307h11.763ZM39.334 16.186a.41.41 0 0 1-.174.058 7.115 7.115 0 0 1-2.543.462c-2.746 0-5.636-1.618-5.636-5.145.029-3.757 2.861-5.375 5.578-5.375a7.32 7.32 0 0 1 2.515.462l1.04-1.734a9.015 9.015 0 0 0-3.93-.896c-3.758 0-7.573 2.457-7.573 7.515-.029 4.884 3.902 7.283 7.573 7.283a9.647 9.647 0 0 0 4.133-.925l.144-.087-1.127-1.618Zm39.192-4.914 4.74-6.965h-2.63l-3.988 5.953h-2.804V4.307h-2.341v14.277h2.341V12.4h2.833l4.306 6.185h2.63l-5.087-7.312Zm26.533-6.965h-5.087v14.277h2.312V13.7h2.775c3.382 0 6.098-1.07 6.098-4.682 0-3.642-2.716-4.711-6.098-4.711Zm.116 7.283h-2.891V6.445h2.891c1.965 0 3.612.492 3.612 2.573 0 2.08-1.647 2.572-3.612 2.572Z" fill="#333"/><path d="M14.3 2.178 14.27 0c-.859 0-1.69.115-2.492.258l.401 2.15c.688-.144 1.404-.23 2.12-.23Z" fill="#E5E572"/><path d="m18.426 2.808.716-2.063a16.805 16.805 0 0 0-2.435-.602l-.344 2.15c.716.143 1.404.315 2.063.515Z" fill="#B8D066"/><path d="m12.18 2.379-.402-2.15a17.47 17.47 0 0 0-2.465.688l.774 2.035c.688-.23 1.376-.43 2.092-.573Z" fill="#F9EC8A"/><path d="M7.938 4.07 6.792 2.206A14.024 14.024 0 0 0 4.47 4.012l1.518 1.576a10.155 10.155 0 0 1 1.95-1.519Z" fill="#F0DA7B"/><path d="M4.47 4.012a14.68 14.68 0 0 0-2.235 2.75l1.863 1.176a12.398 12.398 0 0 1 1.89-2.322L4.47 4.012Z" fill="#DFA461"/><path d="M10.087 2.98 9.313.945c-.888.344-1.748.774-2.55 1.261L7.909 4.07a12.88 12.88 0 0 1 2.178-1.089Z" fill="#F8E47E"/><path d="m20.804 3.926 1.118-1.863a15.364 15.364 0 0 0-2.78-1.29l-.716 2.064c.83.258 1.633.63 2.378 1.089Z" fill="#91C274"/><path d="M14.328 2.178c.688 0 1.376.029 2.035.143l.343-2.15A16.412 16.412 0 0 0 14.3 0l.029 2.178c-.029 0-.029 0 0 0Z" fill="#D7E067"/><path d="m22.81 5.416 1.462-1.605a13.894 13.894 0 0 0-2.35-1.748l-1.117 1.863c.716.43 1.375.917 2.006 1.49Z" fill="#7DB96C"/><path d="m16.735 26.593.401 2.15c.86-.173 1.662-.373 2.465-.688l-.774-2.035c-.66.258-1.347.43-2.092.573Z" fill="#70A8C7"/><path d="m14.643 26.793.029 2.178c.86 0 1.662-.086 2.464-.258l-.401-2.149c-.66.143-1.375.23-2.092.23Z" fill="#748EC7"/><path d="m18.827 26.02.774 2.034c.888-.343 1.72-.745 2.522-1.232l-1.147-1.863a12.49 12.49 0 0 1-2.149 1.06Z" fill="#7BC2DE"/><path d="m12.637 26.679-.344 2.15a15.92 15.92 0 0 0 2.35.171l-.028-2.178c-.66 0-1.319-.057-1.978-.143Z" fill="#888BC3"/><path d="M4.07 7.909 2.207 6.734A16.883 16.883 0 0 0 .86 9.428l2.064.773A13.04 13.04 0 0 1 4.07 7.91Z" fill="#E49C6D"/><path d="M10.517 26.163 9.8 28.226c.803.287 1.634.488 2.493.602l.344-2.15a12.733 12.733 0 0 1-2.12-.515Z" fill="#9471AE"/><path d="M22.924 23.469a10.969 10.969 0 0 1-1.948 1.49l1.146 1.863c.83-.516 1.576-1.118 2.292-1.777l-1.49-1.576Z" fill="#8BC7D3"/><path d="m8.11 25.046-1.118 1.862c.888.545 1.834.975 2.808 1.319l.716-2.064c-.86-.286-1.633-.688-2.407-1.117Z" fill="#B069A5"/><path d="M2.178 14.672 0 14.7a16.93 16.93 0 0 0 .344 2.98l2.15-.486a10.48 10.48 0 0 1-.316-2.522Z" fill="#DD7B73"/><path d="M2.923 10.202.859 9.428c-.315.86-.573 1.776-.716 2.693l2.15.344c.171-.773.372-1.518.63-2.263Z" fill="#E49C75"/><path d="m2.465 17.194-2.15.487c.201.86.459 1.69.803 2.464l2.006-.86a16.177 16.177 0 0 1-.66-2.091Z" fill="#D76D69"/><path d="M2.178 14.643c0-.745.057-1.461.172-2.178L.2 12.121c-.143.832-.2 1.691-.2 2.55v.03l2.178-.058c0 .029 0 .029 0 0Z" fill="#DD827E"/><path d="m4.298 21.435-1.805 1.232c.63.946 1.376 1.805 2.207 2.55l1.461-1.604A14.963 14.963 0 0 1 4.3 21.435Z" fill="#DB7FAF"/><path d="m3.124 19.285-2.006.86c.372.888.83 1.72 1.375 2.522L4.3 21.434a15.646 15.646 0 0 1-1.175-2.149Z" fill="#D8728F"/><path d="m6.19 23.584-1.462 1.605a17.08 17.08 0 0 0 2.293 1.72l1.117-1.864a12.348 12.348 0 0 1-1.949-1.461Z" fill="#BA6FA7"/><path d="m14.328 4.47-.029-2.292c-.716 0-1.432.086-2.12.23l.43 2.263a7.044 7.044 0 0 1 1.719-.2Z" fill="#DCE266"/><path d="M14.356 4.47c.573 0 1.118.029 1.662.115l.344-2.264c-.659-.114-1.347-.143-2.034-.143l.028 2.292c-.028 0 0 0 0 0Z" fill="#C8D660"/><path d="m12.609 4.642-.43-2.263a16.01 16.01 0 0 0-2.092.573l.802 2.149c.573-.2 1.147-.344 1.72-.459Z" fill="#F9ED77"/><path d="M7.938 4.07c-.717.458-1.376.945-1.949 1.547l1.576 1.662A11.524 11.524 0 0 1 9.17 6.018L7.938 4.069Z" fill="#F4D665"/><path d="m4.155 7.966 1.863 1.175a9.717 9.717 0 0 1 1.547-1.89L5.99 5.587c-.716.688-1.376 1.461-1.891 2.321l.057.057Z" fill="#DFA358"/><path d="m10.918 5.13-.802-2.15c-.774.287-1.49.66-2.15 1.089L9.17 6.018c.516-.373 1.118-.66 1.748-.889Z" fill="#F8E670"/><path d="m17.68 4.986.746-2.178c-.66-.23-1.347-.401-2.064-.516l-.343 2.264c.573.115 1.146.258 1.662.43Z" fill="#A9CA5F"/><path d="m19.6 5.875 1.175-1.977a13.483 13.483 0 0 0-2.35-1.09l-.744 2.178c.687.23 1.318.545 1.92.889Z" fill="#87BE6E"/><path d="M6.018 9.141 4.156 7.966 4.07 7.91c-.459.716-.831 1.49-1.147 2.292l2.15.803c.257-.66.573-1.29.945-1.863Z" fill="#E2915C"/><path d="m4.07 7.91.085.056-.086-.057Z" fill="#E2915C"/><path d="M19.601 5.874a8.723 8.723 0 0 1 1.634 1.232l1.547-1.69c-.602-.573-1.29-1.06-2.006-1.49l-1.175 1.948Z" fill="#71B463"/><path d="m7.737 21.893-1.547 1.69c.602.545 1.232 1.033 1.949 1.434l1.174-1.978c-.573-.315-1.088-.716-1.576-1.146Z" fill="#BA65A2"/><path d="m18.024 23.87.803 2.15a12.5 12.5 0 0 0 2.149-1.06l-1.204-1.95a9.886 9.886 0 0 1-1.748.86Z" fill="#6EB1D0"/><path d="M20.976 24.96c.688-.43 1.347-.947 1.949-1.49l-1.576-1.663a9.176 9.176 0 0 1-1.576 1.204l1.203 1.948Z" fill="#7CC1CB"/><path d="m16.334 24.329.43 2.264c.717-.144 1.433-.316 2.092-.573l-.802-2.15c-.573.201-1.146.373-1.72.459Z" fill="#618BB2"/><path d="m12.981 24.386-.344 2.264c.66.086 1.318.143 2.006.143l-.029-2.292a7.571 7.571 0 0 1-1.633-.115Z" fill="#6D73B1"/><path d="M4.585 12.838c.114-.63.258-1.261.487-1.834l-2.15-.803c-.257.717-.487 1.49-.601 2.293l2.264.344Z" fill="#DD7E62"/><path d="m14.615 24.501.028 2.293c.717 0 1.404-.086 2.092-.201l-.43-2.264a8.256 8.256 0 0 1-1.69.172Z" fill="#5F74B3"/><path d="m5.244 18.397-2.12.889c.315.745.716 1.461 1.174 2.149l1.892-1.29a11.52 11.52 0 0 1-.946-1.748Z" fill="#D56073"/><path d="m4.699 16.678-2.235.516c.172.716.401 1.433.659 2.092l2.12-.889a10.94 10.94 0 0 1-.544-1.72Z" fill="#D35C56"/><path d="m4.47 14.643-2.293.029c0 .86.115 1.72.287 2.522l2.235-.516a9.417 9.417 0 0 1-.23-2.035Z" fill="#D46D5D"/><path d="M4.47 14.614c0-.601.028-1.203.143-1.776l-2.264-.373a13.675 13.675 0 0 0-.172 2.178v.029l2.293-.058c0 .03 0 .03 0 0Z" fill="#D97267"/><path d="m9.314 23.068-1.175 1.977c.745.459 1.547.831 2.378 1.118l.745-2.178a9.328 9.328 0 0 1-1.948-.917Z" fill="#9D5E94"/><path d="m11.263 23.985-.745 2.178c.687.23 1.404.401 2.12.516l.344-2.264a15.077 15.077 0 0 1-1.72-.43Z" fill="#8266A7"/><path d="m6.19 20.117-1.892 1.29a12.436 12.436 0 0 0 1.892 2.177l1.547-1.69a10.281 10.281 0 0 1-1.547-1.777Z" fill="#D76692"/><path d="M10.918 5.13c-.63.228-1.204.544-1.748.887l1.318 2.092c.43-.258.86-.487 1.318-.659l-.888-2.32Z" fill="#F8E763"/><path d="m13.068 7.078-.459-2.436a9.037 9.037 0 0 0-1.72.487l.889 2.321c.43-.172.86-.286 1.29-.372Z" fill="#F4EB69"/><path d="m14.356 6.935-.028-2.464a8.33 8.33 0 0 0-1.72.172l.459 2.435c.43-.086.86-.114 1.29-.143Z" fill="#D2DD63"/><path d="M14.386 6.935c.43 0 .86.029 1.26.086l.373-2.436a10.562 10.562 0 0 0-1.662-.114l.029 2.464Z" fill="#B4CA5B"/><path d="M8.11 10.46 6.018 9.14a8.659 8.659 0 0 0-.917 1.863l2.321.86c.172-.488.401-.975.688-1.405ZM6.018 9.141Z" fill="#DF8C51"/><path d="M10.46 8.11 9.14 6.018c-.573.372-1.117.773-1.604 1.26l1.719 1.806c.373-.373.774-.716 1.204-.974Z" fill="#F4D25A"/><path d="M9.256 9.055 7.536 7.25A12.37 12.37 0 0 0 5.99 9.141l2.092 1.319a9.249 9.249 0 0 1 1.175-1.405Z" fill="#E6A14E"/><path d="m7.393 11.864-2.321-.86c-.23.602-.373 1.204-.488 1.834l2.436.401c.086-.458.23-.917.373-1.375Z" fill="#D77154"/><path d="m16.906 7.336.803-2.35a11.163 11.163 0 0 0-1.691-.4l-.373 2.435c.43.086.832.172 1.261.315Z" fill="#A0C65D"/><path d="M16.907 7.336a7.289 7.289 0 0 1 1.433.659l1.26-2.12a9.01 9.01 0 0 0-1.92-.889l-.773 2.35Z" fill="#7BB763"/><path d="M18.34 7.995c.459.258.86.573 1.233.917l1.662-1.834c-.516-.459-1.06-.86-1.634-1.232l-1.26 2.149Z" fill="#66A45E"/><path d="M19.772 23.01a9.18 9.18 0 0 0 1.576-1.203l-1.719-1.805a8.723 8.723 0 0 1-1.175.917l1.318 2.092Z" fill="#73BCCA"/><path d="M18.025 23.87a9.893 9.893 0 0 0 1.748-.86l-1.319-2.091c-.4.258-.86.458-1.318.63l.889 2.322Z" fill="#659AC0"/><path d="m15.876 21.893.458 2.436c.573-.115 1.146-.258 1.69-.487l-.888-2.321a4.905 4.905 0 0 1-1.26.372Z" fill="#57779D"/><path d="m4.47 14.643 2.465-.028v-.029c0-.459.029-.917.115-1.347l-2.436-.401a7.562 7.562 0 0 0-.143 1.805Z" fill="#D46D5D"/><path d="m14.586 22.037.029 2.464a8.75 8.75 0 0 0 1.719-.172l-.458-2.436c-.43.086-.86.143-1.29.143Z" fill="#5468AA"/><path d="m7.107 16.162-2.407.544c.143.574.315 1.147.544 1.691l2.293-.974a9.33 9.33 0 0 1-.43-1.261Z" fill="#D3564A"/><path d="m8.253 18.741-2.035 1.404a9.03 9.03 0 0 0 1.548 1.777l1.662-1.834c-.459-.43-.86-.86-1.175-1.347Z" fill="#D55B7D"/><path d="m7.537 17.423-2.293.974a10.3 10.3 0 0 0 .946 1.748l2.034-1.404a11.45 11.45 0 0 1-.687-1.318Z" fill="#D5545D"/><path d="m6.935 14.614-2.464.03c0 .716.086 1.375.229 2.034l2.407-.545c-.086-.487-.172-1.003-.172-1.518Z" fill="#D56051"/><path d="m13.354 21.95-.373 2.437c.516.085 1.06.114 1.634.114l-.029-2.464c-.43 0-.83-.029-1.232-.086Z" fill="#626AAD"/><path d="m12.036 21.636-.803 2.35c.545.2 1.147.343 1.72.43l.372-2.437c-.43-.086-.86-.2-1.29-.343Z" fill="#796099"/><path d="m9.4 20.06-1.663 1.833c.487.43 1.003.831 1.576 1.175l1.261-2.12a7.027 7.027 0 0 1-1.175-.889Z" fill="#A95A8B"/><path d="m10.574 20.948-1.26 2.12c.601.373 1.26.688 1.948.917l.803-2.35a6.434 6.434 0 0 1-1.49-.687Z" fill="#7E496D"/><path d="m12.523 9.342-.716-1.92a7.08 7.08 0 0 0-1.319.66l1.09 1.718c.257-.171.601-.315.945-.458Z" fill="#F1DE58"/><path d="m13.067 7.078.372 2.006c.316-.057.63-.086.946-.086l-.029-2.034c-.43 0-.86.028-1.29.114Z" fill="#C8D660"/><path d="m11.778 7.45.716 1.92c.316-.114.602-.2.946-.257l-.373-2.006a5.38 5.38 0 0 0-1.29.344Z" fill="#EDEA65"/><path d="m14.385 6.935.029 2.034h.057c.315 0 .602.03.889.086l.315-2.034a10.08 10.08 0 0 0-1.29-.086Z" fill="#A2BE59"/><path d="M11.548 9.83 10.46 8.11c-.43.286-.83.602-1.203.945l1.404 1.462a4.31 4.31 0 0 1 .888-.688Z" fill="#F5CD53"/><path d="M9.83 11.548 8.11 10.46l1.72 1.088Z" fill="#C7DC93"/><path d="M9.8 11.548 8.08 10.46c-.286.43-.515.916-.687 1.404l1.891.716a5.78 5.78 0 0 1 .516-1.032Zm0 0c.03 0 .03 0 0 0L8.081 10.46l1.72 1.088Z" fill="#DE824C"/><path d="M10.66 10.517 9.258 9.056c-.43.43-.831.888-1.147 1.404l1.72 1.089c.229-.373.515-.717.83-1.032Z" fill="#E2954F"/><path d="M15.331 9.055c.315.058.63.115.917.23l.66-1.95c-.402-.142-.832-.228-1.262-.314l-.315 2.034Z" fill="#98C35A"/><path d="m9.313 12.58-1.891-.716c-.172.43-.287.888-.373 1.375l2.006.316c.029-.316.144-.66.258-.975Z" fill="#D7704D"/><path d="M17.28 9.772c.314.2.63.43.916.688l1.376-1.52a7.641 7.641 0 0 0-1.232-.916l-1.06 1.748Z" fill="#5E955B"/><path d="M16.248 9.284c.372.115.716.287 1.031.488l1.06-1.748a9.224 9.224 0 0 0-1.432-.66l-.66 1.92Z" fill="#74B55F"/><path d="m14.557 22.037-.028-2.035h-.058a7.56 7.56 0 0 1-.83-.057l-.316 2.006c.43.057.831.086 1.232.086Z" fill="#515D94"/><path d="M18.454 20.919a6.16 6.16 0 0 0 1.175-.917l-1.404-1.49a4.88 4.88 0 0 1-.86.659l1.09 1.748Z" fill="#6BAAC3"/><path d="M17.136 21.55c.459-.173.889-.402 1.319-.631l-1.09-1.72a4.822 4.822 0 0 1-.945.46l.716 1.89Z" fill="#5E8AB7"/><path d="m17.136 21.55-.716-1.892c-.287.115-.602.2-.946.258l.373 2.006c.458-.086.888-.23 1.29-.372Z" fill="#4C6487"/><path d="M14.586 22.037c.43 0 .86-.058 1.29-.115l-.373-2.006c-.315.057-.63.086-.945.086l.028 2.035Z" fill="#4D609B"/><path d="M8.97 14.529c0-.316.028-.63.085-.946l-2.006-.315c-.086.43-.114.888-.114 1.346v.03l2.034-.03v-.085Z" fill="#D6674F"/><path d="m9.4 20.06 1.375-1.49a6.975 6.975 0 0 1-.86-.975l-1.662 1.146c.316.487.717.917 1.147 1.318Z" fill="#CB5164"/><path d="m8.253 18.74 1.662-1.145c-.2-.316-.372-.63-.516-.975l-1.862.803c.2.458.43.888.716 1.318Z" fill="#C64F56"/><path d="m7.536 17.423 1.863-.802a4.878 4.878 0 0 1-.286-.917l-1.978.43c.086.458.23.888.401 1.289Z" fill="#C85345"/><path d="M9.084 15.704c-.086-.373-.115-.745-.143-1.118l-2.035.029c0 .516.058 1.031.172 1.547l2.006-.458Z" fill="#D35B46"/><path d="m13.353 21.95.316-2.005c-.344-.058-.66-.115-.975-.23l-.659 1.92c.43.144.86.258 1.318.316Z" fill="#624E79"/><path d="m10.574 20.948 1.032-1.748c-.315-.172-.573-.401-.86-.63l-1.375 1.49c.4.343.773.63 1.203.888Z" fill="#9F4E70"/><path d="m12.036 21.635.659-1.92c-.373-.143-.745-.286-1.09-.515l-1.03 1.748c.458.286.945.515 1.46.687Z" fill="#6D3D58"/></svg>