<svg width="201" height="53" fill="none" xmlns="http://www.w3.org/2000/svg"><path d="m66.274 48.747-2.133-2.601h-.989v2.601h-1.04v-2.601h-.989l-2.133 2.601h-1.144l2.497-3.121-2.185-3.122h1.145l1.873 2.653h.936v-2.653h1.04v2.653h.937l1.873-2.653h1.144l-2.185 3.122 2.497 3.121h-1.144Zm2.289 0v-6.243h1.04v4.526l3.798-4.526h.885v6.243h-1.04v-4.526l-3.799 4.526h-.884Zm7.596.104c-.208 0-.469-.052-.729-.156v-.78c.156.052.26.052.417.052 1.092 0 1.456-2.081 1.56-5.463h4.579v6.243h-1.041v-5.254h-2.55c-.155 3.173-.623 5.358-2.236 5.358Zm10.613-6.503c1.716 0 3.33 1.144 3.33 3.278 0 2.133-1.614 3.277-3.33 3.277-1.665 0-3.33-1.145-3.33-3.277 0-2.134 1.665-3.278 3.33-3.278Zm0 .988c-1.249 0-2.29.833-2.29 2.29 0 1.456.99 2.288 2.29 2.288 1.248 0 2.289-.832 2.289-2.288 0-1.405-.989-2.29-2.29-2.29Zm4.942 5.41v-6.242h1.04v4.526l3.798-4.526h.885v6.242h-1.04V44.22l-3.799 4.526h-.884Zm2.913-7.179a3.347 3.347 0 0 1-1.82-.52v-.936c.624.416 1.196.572 1.82.572.625 0 1.145-.156 1.821-.572v.936c-.624.364-1.196.52-1.82.52Zm9.417 7.18v-6.243h1.04v2.601h1.249l1.977-2.6h1.196l-2.341 3.12 2.653 3.122h-1.248l-2.289-2.653h-1.197v2.653h-1.04Zm9.78-6.399c1.717 0 3.33 1.144 3.33 3.278 0 2.133-1.613 3.277-3.33 3.277-1.664 0-3.329-1.145-3.329-3.277 0-2.134 1.613-3.278 3.329-3.278Zm0 .988c-1.248 0-2.289.833-2.289 2.29 0 1.456.989 2.288 2.289 2.288 1.301 0 2.29-.832 2.29-2.288 0-1.405-1.041-2.29-2.29-2.29Zm4.735 5.411v-6.243h1.144l2.289 3.434 2.289-3.434h1.145v6.243h-.989v-4.682l-2.029 3.07h-.832l-2.029-3.07v4.682h-.988Zm8.896 0v-6.243h5.671v6.243h-1.041v-5.254h-3.59v5.254h-1.04Zm7.647.104c-.208 0-.468-.052-.728-.156v-.78c.156.052.26.052.416.052 1.093 0 1.457-2.081 1.561-5.463h4.578v6.243h-1.04v-5.254h-2.55c-.208 3.173-.624 5.358-2.237 5.358Zm10.405-6.503c2.394 0 3.278 1.977 2.914 3.746h-4.943c.157 1.3 1.301 1.873 2.55 1.873.78 0 1.508-.209 2.029-.52v.988c-.573.312-1.405.468-2.185.468-1.821 0-3.434-1.04-3.434-3.277 0-2.186 1.613-3.278 3.069-3.278Zm.052.988c-1.04 0-2.028.625-2.133 1.873h4.058c.104-.676-.312-1.873-1.925-1.873Zm4.37 5.411v-6.243h1.041v2.601h1.249l1.976-2.6h1.197l-2.341 3.12 2.653 3.122h-1.196l-2.289-2.653h-1.197v2.653h-1.093Zm9.417-6.399c.676 0 1.404.156 1.925.52l-.416.728c-.261-.156-.625-.312-1.353-.312-1.197.052-2.445.677-2.445 2.29 0 1.612 1.196 2.288 2.445 2.288.676 0 1.04-.104 1.353-.26l.52.78a4.861 4.861 0 0 1-2.029.417c-1.613 0-3.33-1.04-3.33-3.226-.052-2.185 1.717-3.225 3.33-3.225Zm-82.095-8.896v-25.7h21.59v25.7H94.68v-21.85H81.465v21.85h-4.214Zm45.522-25.7v3.798h-13.527v7.023h9.625v3.798h-9.625v7.231h13.735V33.4h-17.897V7.7h17.689v.052Zm52.388 0v3.85h-8.48v21.85h-4.162v-21.85h-8.532v-3.85h21.174ZM70.8 29.134c-.104.052-.208.104-.312.104a12.81 12.81 0 0 1-4.578.832c-4.942 0-10.145-2.913-10.145-9.26.052-6.763 5.15-9.676 10.04-9.676 1.561 0 3.122.312 4.527.832l1.873-3.122a16.228 16.228 0 0 0-7.076-1.612c-6.763 0-13.63 4.422-13.63 13.526-.052 8.792 7.023 13.11 13.63 13.11a17.35 17.35 0 0 0 7.44-1.665l.26-.156-2.029-2.913Zm70.545-8.844 8.532-12.538h-4.734l-7.179 10.717h-5.047V7.752h-4.214v25.7h4.214V22.319h5.099l7.751 11.133h4.735l-9.157-13.162Zm47.759-12.538h-9.156v25.7h4.161V24.66h4.995c6.087 0 10.977-1.925 10.977-8.428 0-6.555-4.89-8.48-10.977-8.48Zm.208 13.11h-5.203v-9.26h5.203c3.538 0 6.503.884 6.503 4.63 0 3.745-2.965 4.63-6.503 4.63Z" fill="#fff"/><path d="M25.739 3.92 25.687 0C24.14 0 22.644.206 21.2.464l.722 3.869a18.806 18.806 0 0 1 3.817-.413Z" fill="#E5E572"/><path d="m33.166 5.055 1.29-3.714A30.253 30.253 0 0 0 30.072.258l-.62 3.869c1.29.257 2.528.567 3.714.928Z" fill="#B8D066"/><path d="M21.922 4.281 21.2.413a31.26 31.26 0 0 0-4.436 1.238l1.393 3.662c1.238-.413 2.476-.774 3.765-1.032Z" fill="#F9EC8A"/><path d="m14.288 7.325-2.063-3.353a25.241 25.241 0 0 0-4.178 3.25l2.733 2.836a18.277 18.277 0 0 1 3.508-2.733Z" fill="#F0DA7B"/><path d="M8.047 7.221a26.424 26.424 0 0 0-4.024 4.952l3.353 2.115a22.316 22.316 0 0 1 3.404-4.178L8.047 7.22Z" fill="#DFA461"/><path d="m18.157 5.364-1.393-3.662a29.219 29.219 0 0 0-4.59 2.27l2.062 3.352a23.186 23.186 0 0 1 3.92-1.96Z" fill="#F8E47E"/><path d="m37.448 7.067 2.011-3.353c-1.547-.929-3.25-1.702-5.003-2.321l-1.29 3.714a18.891 18.891 0 0 1 4.282 1.96Z" fill="#91C274"/><path d="M25.79 3.92c1.239 0 2.477.052 3.663.258L30.072.31A29.54 29.54 0 0 0 25.739 0l.052 3.92c-.052 0-.052 0 0 0Z" fill="#D7E067"/><path d="M41.058 9.749 43.69 6.86a25.003 25.003 0 0 0-4.23-3.146l-2.011 3.353c1.29.773 2.476 1.65 3.61 2.682Z" fill="#7DB96C"/><path d="m30.123 47.867.722 3.869c1.548-.31 2.992-.67 4.436-1.238l-1.392-3.662c-1.187.464-2.425.773-3.766 1.031Z" fill="#70A8C7"/><path d="m26.358 48.228.052 3.92a20.88 20.88 0 0 0 4.436-.464l-.723-3.868a17.919 17.919 0 0 1-3.765.412Z" fill="#748EC7"/><path d="m33.889 46.836 1.392 3.662a28.45 28.45 0 0 0 4.54-2.218l-2.064-3.353c-1.186.722-2.476 1.393-3.868 1.909Z" fill="#7BC2DE"/><path d="m22.747 48.022-.619 3.869c1.393.206 2.785.309 4.23.309l-.052-3.92c-1.186 0-2.373-.103-3.559-.258Z" fill="#888BC3"/><path d="m7.324 14.236-3.352-2.114a30.386 30.386 0 0 0-2.425 4.848l3.714 1.393c.568-1.444 1.238-2.837 2.063-4.127Z" fill="#E49C6D"/><path d="m18.93 47.093-1.29 3.714c1.445.516 2.94.877 4.488 1.084l.62-3.869a22.916 22.916 0 0 1-3.818-.928Z" fill="#9471AE"/><path d="M41.265 42.245a19.745 19.745 0 0 1-3.508 2.682l2.064 3.353c1.495-.929 2.837-2.012 4.126-3.198l-2.682-2.837Z" fill="#8BC7D3"/><path d="m14.597 45.082-2.011 3.353c1.599.98 3.3 1.753 5.055 2.372l1.29-3.714c-1.548-.515-2.941-1.238-4.334-2.011Z" fill="#B069A5"/><path d="M3.92 26.41 0 26.46c.052 1.857.258 3.61.619 5.365l3.869-.877a18.865 18.865 0 0 1-.568-4.54Z" fill="#DD7B73"/><path d="M5.261 18.363 1.547 16.97C.98 18.518.516 20.168.257 21.82l3.87.619a36.64 36.64 0 0 1 1.134-4.075Z" fill="#E49C75"/><path d="m4.436 30.949-3.869.877c.361 1.547.826 3.043 1.445 4.435l3.61-1.547a29.12 29.12 0 0 1-1.186-3.765Z" fill="#D76D69"/><path d="M3.92 26.358c0-1.341.103-2.63.31-3.92l-3.869-.62C.103 23.316 0 24.863 0 26.41v.052l3.92-.103c0 .051 0 .051 0 0Z" fill="#DD827E"/><path d="M7.737 38.583 4.487 40.8a24.212 24.212 0 0 0 3.972 4.59l2.63-2.888a26.934 26.934 0 0 1-3.352-3.92Z" fill="#DB7FAF"/><path d="m5.622 34.714-3.61 1.547a25.837 25.837 0 0 0 2.476 4.54l3.25-2.218c-.826-1.238-1.497-2.528-2.116-3.869Z" fill="#D8728F"/><path d="m11.141 42.451-2.63 2.889c1.29 1.134 2.63 2.166 4.126 3.095l2.012-3.353c-1.29-.774-2.424-1.65-3.508-2.63Z" fill="#BA6FA7"/><path d="m25.79 8.047-.05-4.127c-1.29 0-2.58.155-3.817.413l.774 4.075a12.68 12.68 0 0 1 3.095-.361Z" fill="#DCE266"/><path d="M25.842 8.047c1.032 0 2.012.051 2.992.206l.619-4.075c-1.187-.206-2.424-.258-3.662-.258l.051 4.127c-.051 0 0 0 0 0Z" fill="#C8D660"/><path d="m22.696 8.356-.774-4.075c-1.29.258-2.58.62-3.765 1.032L19.6 9.18a22.896 22.896 0 0 1 3.095-.825Z" fill="#F9ED77"/><path d="M14.288 7.324c-1.29.826-2.476 1.703-3.508 2.786l2.838 2.992a20.74 20.74 0 0 1 2.888-2.27l-2.218-3.508Z" fill="#F4D665"/><path d="m7.48 14.34 3.352 2.114a17.488 17.488 0 0 1 2.785-3.404l-2.837-2.992c-1.29 1.238-2.476 2.631-3.404 4.178l.103.104Z" fill="#DFA358"/><path d="m19.652 9.233-1.444-3.869a19.45 19.45 0 0 0-3.868 1.96l2.166 3.508c.928-.67 2.012-1.186 3.146-1.599Z" fill="#F8E670"/><path d="m31.825 8.975 1.341-3.92a21.733 21.733 0 0 0-3.713-.929l-.62 4.075a25.33 25.33 0 0 1 2.992.774Z" fill="#A9CA5F"/><path d="m35.281 10.574 2.115-3.559c-1.34-.774-2.734-1.444-4.23-1.96l-1.34 3.92c1.237.413 2.372.98 3.455 1.6Z" fill="#87BE6E"/><path d="M10.832 16.454 7.479 14.34l-.155-.103c-.825 1.29-1.495 2.683-2.063 4.127l3.869 1.444a18.594 18.594 0 0 1 1.702-3.353Zm-3.508-2.218.155.103-.155-.103Z" fill="#E2915C"/><path d="M35.282 10.574c1.083.62 2.063 1.393 2.94 2.218l2.785-3.043c-1.083-1.032-2.321-1.909-3.61-2.682l-2.115 3.507Z" fill="#71B463"/><path d="m13.927 39.408-2.786 3.043c1.084.98 2.218 1.857 3.508 2.58l2.115-3.56c-1.032-.567-1.96-1.29-2.837-2.063Z" fill="#BA65A2"/><path d="m32.444 42.967 1.445 3.869a22.452 22.452 0 0 0 3.868-1.909l-2.166-3.507a17.82 17.82 0 0 1-3.147 1.547Z" fill="#6EB1D0"/><path d="M37.757 44.927a25.261 25.261 0 0 0 3.508-2.682l-2.837-2.992a16.52 16.52 0 0 1-2.837 2.167l2.166 3.507Z" fill="#7CC1CB"/><path d="m29.401 43.792.774 4.075c1.29-.258 2.579-.567 3.765-1.031l-1.444-3.869c-1.032.361-2.063.67-3.095.825Z" fill="#618BB2"/><path d="m23.366 43.895-.619 4.075c1.187.155 2.373.258 3.611.258l-.052-4.126c-1.031.051-2.011-.052-2.94-.206Z" fill="#6D73B1"/><path d="M8.253 23.108c.206-1.134.464-2.27.877-3.3l-3.87-1.446c-.464 1.29-.877 2.682-1.083 4.126l4.075.62Z" fill="#DD7E62"/><path d="m26.306 44.102.052 4.126c1.29 0 2.527-.154 3.765-.36l-.773-4.076c-.98.207-2.012.31-3.044.31Z" fill="#5F74B3"/><path d="m9.44 33.115-3.818 1.599c.568 1.341 1.29 2.63 2.115 3.869l3.405-2.322a20.737 20.737 0 0 1-1.703-3.146Z" fill="#D56073"/><path d="m8.46 30.02-4.024.929c.31 1.29.722 2.579 1.186 3.765l3.817-1.599c-.412-.98-.722-2.012-.98-3.095Z" fill="#D35C56"/><path d="m8.047 26.358-4.127.052c0 1.547.206 3.094.516 4.539l4.023-.929a16.951 16.951 0 0 1-.412-3.662Z" fill="#D46D5D"/><path d="M8.047 26.306c0-1.083.051-2.166.258-3.198l-4.075-.67a24.538 24.538 0 0 0-.31 3.92v.052l4.127-.104c0 .052 0 .052 0 0Z" fill="#D97267"/><path d="m16.764 41.523-2.115 3.559a21.63 21.63 0 0 0 4.281 2.011l1.341-3.92a16.793 16.793 0 0 1-3.507-1.65Z" fill="#9D5E94"/><path d="m20.271 43.173-1.34 3.92c1.237.413 2.527.723 3.816.929l.62-4.075a27.14 27.14 0 0 1-3.096-.774Z" fill="#8266A7"/><path d="m11.141 36.21-3.404 2.32a22.381 22.381 0 0 0 3.404 3.92l2.786-3.043c-1.032-.929-1.96-2.012-2.786-3.198Z" fill="#D76692"/><path d="M19.652 9.233c-1.135.413-2.166.98-3.146 1.599l2.373 3.765c.773-.464 1.547-.876 2.372-1.186l-1.599-4.178Z" fill="#F8E763"/><path d="m23.521 12.74-.825-4.384c-1.084.206-2.064.464-3.095.877L21.2 13.41c.774-.31 1.547-.516 2.321-.67Z" fill="#F4EB69"/><path d="m25.842 12.483-.052-4.436a14.94 14.94 0 0 0-3.094.31l.825 4.384c.774-.155 1.547-.207 2.321-.258Z" fill="#D2DD63"/><path d="M25.894 12.483c.773 0 1.547.051 2.27.154l.67-4.384c-.98-.155-1.96-.206-2.992-.206l.052 4.436Z" fill="#B4CA5B"/><path d="m14.597 18.827-3.765-2.373a15.586 15.586 0 0 0-1.65 3.353l4.178 1.548c.309-.877.722-1.754 1.237-2.528Zm-3.765-2.373Z" fill="#DF8C51"/><path d="m18.827 14.597-2.373-3.765c-1.031.67-2.011 1.393-2.888 2.27l3.094 3.25c.671-.671 1.393-1.29 2.167-1.755Z" fill="#F4D25A"/><path d="m16.66 16.3-3.094-3.25a22.27 22.27 0 0 0-2.786 3.404l3.766 2.373c.619-.928 1.341-1.754 2.115-2.527Z" fill="#E6A14E"/><path d="M13.308 21.355 9.13 19.807c-.413 1.083-.67 2.167-.877 3.301l4.384.723c.155-.826.413-1.651.67-2.476Z" fill="#D77154"/><path d="m30.433 13.205 1.444-4.23c-.98-.31-2.011-.567-3.043-.722l-.67 4.384c.773.155 1.495.31 2.269.568Z" fill="#A0C65D"/><path d="M30.433 13.205c.928.31 1.805.722 2.579 1.186l2.27-3.817a16.218 16.218 0 0 0-3.456-1.599l-1.393 4.23Z" fill="#7BB763"/><path d="M33.012 14.391c.825.464 1.547 1.032 2.218 1.65l2.992-3.3a24.378 24.378 0 0 0-2.94-2.218l-2.27 3.868Z" fill="#66A45E"/><path d="M35.591 41.42a16.51 16.51 0 0 0 2.837-2.167l-3.095-3.25a15.631 15.631 0 0 1-2.115 1.651l2.373 3.765Z" fill="#73BCCA"/><path d="M32.444 42.967a17.803 17.803 0 0 0 3.147-1.547l-2.373-3.766c-.722.464-1.547.825-2.373 1.135l1.6 4.178Z" fill="#659AC0"/><path d="m28.576 39.408.825 4.384c1.032-.206 2.064-.464 3.043-.877l-1.599-4.178c-.722.31-1.495.568-2.27.67Z" fill="#57779D"/><path d="m8.047 26.358 4.436-.052v-.051c0-.826.051-1.65.206-2.425l-4.384-.722c-.207 1.084-.31 2.115-.258 3.25Z" fill="#D46D5D"/><path d="m26.255 39.666.051 4.436a15.74 15.74 0 0 0 3.095-.31l-.825-4.384c-.774.155-1.548.258-2.321.258Z" fill="#5468AA"/><path d="m12.792 29.092-4.333.98c.258 1.031.568 2.063.98 3.043l4.127-1.754a16.81 16.81 0 0 1-.774-2.27Z" fill="#D3564A"/><path d="m14.855 33.734-3.662 2.527c.774 1.187 1.702 2.218 2.786 3.198l2.991-3.3c-.825-.774-1.547-1.548-2.115-2.425Z" fill="#D55B7D"/><path d="m13.566 31.361-4.127 1.754a18.54 18.54 0 0 0 1.702 3.146l3.663-2.527a20.732 20.732 0 0 1-1.238-2.373Z" fill="#D5545D"/><path d="m12.483 26.306-4.436.052c0 1.29.154 2.476.412 3.662l4.333-.98c-.155-.877-.31-1.805-.31-2.734Z" fill="#D56051"/><path d="m24.037 39.511-.67 4.384c.928.155 1.908.207 2.94.207l-.052-4.436c-.774 0-1.496-.052-2.218-.155Z" fill="#626AAD"/><path d="m21.664 38.944-1.444 4.23c.98.36 2.063.618 3.095.773l.67-4.384a19.308 19.308 0 0 1-2.321-.62Z" fill="#796099"/><path d="m16.919 36.107-2.992 3.3c.877.775 1.805 1.497 2.837 2.116l2.27-3.817a12.65 12.65 0 0 1-2.115-1.6Z" fill="#A95A8B"/><path d="m19.034 37.706-2.27 3.817a16.8 16.8 0 0 0 3.507 1.65l1.445-4.23a11.57 11.57 0 0 1-2.683-1.237Z" fill="#7E496D"/><path d="m22.54 16.815-1.289-3.456c-.825.31-1.65.723-2.372 1.187l1.96 3.095c.464-.31 1.083-.568 1.702-.826Z" fill="#F1DE58"/><path d="m23.521 12.74.67 3.611a9.492 9.492 0 0 1 1.703-.155l-.052-3.662c-.774 0-1.547.052-2.321.207Z" fill="#C8D660"/><path d="m21.2 13.411 1.29 3.456a9.192 9.192 0 0 1 1.701-.464l-.67-3.61a9.684 9.684 0 0 0-2.321.618Z" fill="#EDEA65"/><path d="m25.894 12.483.051 3.662h.103c.568 0 1.084.052 1.6.155l.567-3.663a18.134 18.134 0 0 0-2.321-.154Z" fill="#A2BE59"/><path d="m20.787 17.692-1.96-3.095a17.489 17.489 0 0 0-2.166 1.703l2.527 2.63a7.76 7.76 0 0 1 1.6-1.238Z" fill="#F5CD53"/><path d="m17.692 20.787-3.095-1.96 3.095 1.96Z" fill="#C7DC93"/><path d="m17.64 20.787-3.094-1.96a11.46 11.46 0 0 0-1.238 2.527l3.404 1.29c.258-.67.568-1.29.929-1.857Z" fill="#DE824C"/><path d="M17.64 20.787c.052 0 .052 0 0 0l-3.094-1.96 3.095 1.96Z" fill="#DE824C"/><path d="m19.188 18.93-2.527-2.63c-.774.773-1.496 1.599-2.064 2.527l3.095 1.96c.413-.67.929-1.29 1.496-1.857Z" fill="#E2954F"/><path d="M27.596 16.3c.567.103 1.135.206 1.65.412l1.187-3.507c-.722-.258-1.496-.413-2.27-.568l-.567 3.663Z" fill="#98C35A"/><path d="m16.764 22.644-3.404-1.29c-.31.774-.516 1.6-.671 2.476l3.61.568c.052-.568.259-1.187.465-1.754Z" fill="#D7704D"/><path d="M31.103 17.59a12.52 12.52 0 0 1 1.65 1.237l2.477-2.734a13.759 13.759 0 0 0-2.218-1.65l-1.909 3.146Z" fill="#5E955B"/><path d="M29.246 16.712c.67.207 1.29.516 1.857.877l1.909-3.146a16.602 16.602 0 0 0-2.58-1.187l-1.186 3.456Z" fill="#74B55F"/><path d="m26.203 39.666-.052-3.662h-.103a13.62 13.62 0 0 1-1.495-.104l-.568 3.611c.774.103 1.496.155 2.218.155Z" fill="#515D94"/><path d="M33.218 37.654a11.085 11.085 0 0 0 2.115-1.65l-2.527-2.683c-.465.465-.98.826-1.548 1.187l1.96 3.146Z" fill="#6BAAC3"/><path d="M30.845 38.789c.826-.31 1.6-.722 2.373-1.135l-1.96-3.095c-.516.31-1.083.62-1.702.826l1.29 3.404Z" fill="#5E8AB7"/><path d="m30.846 38.789-1.29-3.404a8.206 8.206 0 0 1-1.702.464l.67 3.61c.826-.154 1.6-.412 2.322-.67Z" fill="#4C6487"/><path d="M26.255 39.666c.773 0 1.547-.103 2.32-.207l-.67-3.61a9.503 9.503 0 0 1-1.702.155l.052 3.662Z" fill="#4D609B"/><path d="M16.145 26.151c0-.567.052-1.134.155-1.702l-3.611-.567c-.155.774-.206 1.599-.206 2.424v.052l3.662-.052v-.155Z" fill="#D6674F"/><path d="m16.919 36.107 2.475-2.682c-.567-.516-1.083-1.135-1.547-1.754l-2.992 2.063c.568.877 1.29 1.65 2.064 2.373Z" fill="#CB5164"/><path d="m14.855 33.734 2.992-2.063a11.396 11.396 0 0 1-.929-1.754l-3.352 1.444a15.16 15.16 0 0 0 1.29 2.373Z" fill="#C64F56"/><path d="m13.566 31.361 3.353-1.444c-.207-.516-.413-1.083-.516-1.65l-3.56.773c.155.825.413 1.6.723 2.321Z" fill="#C85345"/><path d="M16.351 28.266c-.155-.67-.206-1.34-.258-2.011l-3.662.051c0 .929.103 1.857.31 2.786l3.61-.826Z" fill="#D35B46"/><path d="m24.037 39.511.567-3.61c-.619-.104-1.186-.207-1.754-.413l-1.186 3.456c.774.258 1.547.464 2.373.567Z" fill="#624E79"/><path d="m19.033 37.706 1.857-3.147c-.567-.31-1.031-.722-1.547-1.134l-2.476 2.682c.722.619 1.393 1.135 2.166 1.599Z" fill="#9F4E70"/><path d="m21.664 38.944 1.186-3.456c-.67-.258-1.34-.516-1.96-.929l-1.857 3.147c.826.516 1.703.928 2.631 1.238Z" fill="#6D3D58"/></svg>