<svg width="162" height="43" fill="none" xmlns="http://www.w3.org/2000/svg"><path d="m53.747 39.437-1.725-2.104h-.8v2.104h-.842v-2.104h-.8l-1.725 2.104h-.926l2.02-2.525-1.767-2.525h.925l1.516 2.146h.757v-2.146h.842v2.146h.758l1.515-2.146h.926l-1.768 2.525 2.02 2.525h-.926Zm1.853 0v-5.05h.841v3.661l3.073-3.661h.715v5.05h-.842v-3.661l-3.072 3.661h-.716Zm6.144.085c-.168 0-.379-.042-.589-.127v-.631c.126.042.21.042.337.042.884 0 1.178-1.683 1.262-4.42h3.704v5.051h-.841v-4.25h-2.063c-.126 2.567-.505 4.335-1.81 4.335Zm8.586-5.262c1.39 0 2.694.927 2.694 2.652 0 1.726-1.305 2.652-2.694 2.652-1.346 0-2.693-.926-2.693-2.652 0-1.725 1.347-2.651 2.693-2.651Zm0 .8c-1.01 0-1.852.674-1.852 1.852 0 1.179.8 1.852 1.852 1.852 1.01 0 1.852-.673 1.852-1.852 0-1.136-.8-1.852-1.852-1.852Zm3.999 4.377v-5.05h.842v3.661l3.072-3.662h.716v5.05h-.842v-3.66l-3.073 3.66h-.715Zm2.357-5.808c-.505 0-1.01-.127-1.473-.421v-.758c.505.337.968.463 1.473.463.505 0 .926-.126 1.473-.463v.758c-.505.294-.968.42-1.473.42Zm7.618 5.808v-5.05h.842v2.104h1.01l1.6-2.104h.967l-1.894 2.525 2.147 2.525h-1.01l-1.852-2.146h-.968v2.146h-.842Zm7.913-5.177c1.389 0 2.693.927 2.693 2.652 0 1.726-1.304 2.652-2.693 2.652-1.347 0-2.694-.926-2.694-2.652 0-1.725 1.305-2.651 2.694-2.651Zm0 .8c-1.01 0-1.852.674-1.852 1.852 0 1.179.8 1.852 1.852 1.852s1.852-.673 1.852-1.852c0-1.136-.842-1.852-1.852-1.852Zm3.83 4.377v-5.05h.926l1.852 2.778 1.852-2.778h.926v5.05h-.8V35.65l-1.642 2.484h-.673l-1.641-2.484v3.788h-.8Zm7.197 0v-5.05h4.588v5.05h-.842v-4.25h-2.904v4.25h-.842Zm6.187.085a1.65 1.65 0 0 1-.589-.127v-.631c.126.042.21.042.337.042.883 0 1.178-1.683 1.262-4.42h3.704v5.051h-.842v-4.25h-2.062c-.169 2.567-.505 4.335-1.81 4.335Zm8.418-5.262c1.936 0 2.651 1.6 2.357 3.031h-3.999c.127 1.052 1.052 1.515 2.063 1.515.631 0 1.22-.168 1.641-.42v.8c-.463.252-1.136.378-1.768.378-1.473 0-2.778-.842-2.778-2.652 0-1.767 1.305-2.651 2.484-2.651Zm.042.8c-.842 0-1.642.505-1.726 1.516h3.283c.084-.547-.252-1.516-1.557-1.516Zm3.535 4.377v-5.05h.842v2.104h1.01l1.6-2.104h.968l-1.894 2.525 2.146 2.525h-.968l-1.852-2.146h-.968v2.146h-.884Zm7.618-5.177c.548 0 1.137.127 1.558.422l-.337.589c-.21-.126-.505-.253-1.094-.253-.968.042-1.978.547-1.978 1.852 0 1.305.968 1.852 1.978 1.852.547 0 .841-.084 1.094-.21l.421.631a3.94 3.94 0 0 1-1.642.337c-1.304 0-2.693-.842-2.693-2.61-.042-1.767 1.389-2.61 2.693-2.61Zm-66.416-7.197V6.271h17.467v20.792h-3.367V9.386h-10.69v17.677h-3.41ZM99.456 6.272v3.072H88.513v5.682h7.786V18.1h-7.786v5.85h11.111v3.072H85.146V6.23h14.31v.043Zm42.383-.001v3.115h-6.86v17.677h-3.367V9.386h-6.903V6.271h17.13ZM57.41 23.57a.598.598 0 0 1-.253.084 10.36 10.36 0 0 1-3.704.674c-3.999 0-8.208-2.357-8.208-7.492.043-5.472 4.167-7.829 8.124-7.829 1.262 0 2.525.253 3.661.674l1.515-2.526a13.128 13.128 0 0 0-5.724-1.304c-5.471 0-11.027 3.577-11.027 10.943-.042 7.113 5.682 10.606 11.028 10.606 2.188 0 4.25-.505 6.018-1.347l.21-.126-1.64-2.357Zm57.071-7.155 6.903-10.144h-3.83l-5.808 8.67h-4.083v-8.67h-3.409v20.792h3.409v-9.007h4.125l6.271 9.007h3.83l-7.408-10.648Zm38.638-10.144h-7.408v20.792h3.368V19.95h4.04c4.924 0 8.881-1.557 8.881-6.818 0-5.303-3.957-6.86-8.881-6.86Zm.168 10.607h-4.208V9.386h4.208c2.862 0 5.262.716 5.262 3.746 0 3.03-2.4 3.746-5.262 3.746ZM12.121 15.7l-.126-.043-5.808-3.661.126-.253 5.935 3.746-.127.21ZM17.93 3.83 17.299.42l.126-.041A18.342 18.342 0 0 1 21.087 0h.126l.042 3.493h-.126a15.3 15.3 0 0 0-3.073.337h-.126ZM17.593.631l.547 2.904c.968-.168 1.936-.294 2.862-.294L20.96.295c-1.094 0-2.23.126-3.367.336Zm9.723 3.829-.127-.041a14.46 14.46 0 0 0-3.03-.716h-.126l.505-3.451h.126c1.22.168 2.441.463 3.62.884l.126.042-1.094 3.283Zm-2.989-1.01c.968.17 1.894.38 2.82.674l.926-2.778c-1.094-.336-2.188-.631-3.325-.8l-.42 2.905Z" fill="#000307"/><path d="m14.9 4.714-1.221-3.24.126-.043c1.137-.42 2.4-.8 3.662-1.01l.126-.042.632 3.41-.127.041a23.4 23.4 0 0 0-3.072.842l-.127.042ZM14.015 1.6l1.052 2.778a20.61 20.61 0 0 1 2.862-.8L17.383.675a20.79 20.79 0 0 0-3.367.925ZM8.923 8.586l-2.4-2.525.085-.084a20.596 20.596 0 0 1 3.41-2.652l.125-.084 1.852 2.946-.126.085a18.06 18.06 0 0 0-2.862 2.23l-.084.084Zm-2.02-2.525 2.02 2.147c.842-.8 1.725-1.516 2.693-2.105L10.06 3.62c-1.136.673-2.188 1.515-3.157 2.441Z" fill="#000307"/><path d="m6.187 11.995-2.946-1.851.084-.127a20.493 20.493 0 0 1 3.325-4.04l.084-.084 2.4 2.525-.085.084a19.382 19.382 0 0 0-2.778 3.367l-.084.127ZM3.62 10.06l2.483 1.558a17.842 17.842 0 0 1 2.652-3.241L6.735 6.23a20.69 20.69 0 0 0-3.115 3.83Zm8.123-3.747L9.89 3.367l.126-.084a20.857 20.857 0 0 1 3.746-1.894l.126-.042 1.22 3.24-.125.043c-1.095.42-2.147.968-3.157 1.557l-.084.126ZM10.27 3.451l1.557 2.483a16.05 16.05 0 0 1 2.946-1.473l-1.052-2.778a26.663 26.663 0 0 0-3.451 1.768ZM30.725 6.06l-.127-.084a19.812 19.812 0 0 0-3.45-1.6l-.127-.041 1.094-3.283.127.042a24.39 24.39 0 0 1 4.124 1.894l.127.084-1.768 2.988ZM27.4 4.208c1.136.38 2.23.884 3.24 1.516l1.516-2.526a21.068 21.068 0 0 0-3.83-1.767L27.4 4.208Zm-3.115-.504h-.126c-1.01-.169-1.978-.21-2.988-.21h-.127v-.127L21.002.042h.716c.968 0 1.978.084 2.988.253h.127l-.548 3.409Zm-2.651-.463c.8 0 1.6.084 2.399.21l.463-2.904a17.215 17.215 0 0 0-3.283-.21l.042 2.946c.168-.042.253-.042.379-.042Z" fill="#000307"/><path d="m33.629 8.292-.084-.085C32.66 7.366 31.65 6.65 30.64 6.02l-.127-.084 1.768-2.989.126.084c1.221.758 2.4 1.6 3.494 2.61l.084.084-2.357 2.568ZM30.851 5.85c.968.59 1.894 1.263 2.736 2.063l1.978-2.189a19.541 19.541 0 0 0-3.24-2.399L30.85 5.85Zm-5.598 36.66-.63-3.41.125-.041c1.053-.21 2.063-.463 3.03-.842l.127-.042 1.22 3.24-.126.043c-1.178.42-2.399.8-3.62 1.01l-.126.042Zm-.336-3.199.547 2.904c1.136-.21 2.273-.547 3.325-.926l-1.052-2.778c-.884.337-1.81.632-2.82.8Z" fill="#000307"/><path d="M21.76 42.847h-.126v-.127l-.042-3.367h.126c1.01 0 2.062-.126 3.072-.294l.127-.042.63 3.409-.125.042c-1.22.252-2.484.379-3.662.379Zm.042-3.2.042 2.947c1.094-.042 2.23-.126 3.367-.337l-.547-2.904c-.926.169-1.894.295-2.862.295Zm7.113 1.895-1.22-3.241.126-.042c1.094-.421 2.146-.926 3.114-1.558l.127-.084 1.852 2.946-.127.085a25.351 25.351 0 0 1-3.703 1.851l-.169.043Zm-.884-3.115 1.053 2.778a22.01 22.01 0 0 0 3.45-1.726l-1.556-2.483c-.969.547-1.937 1.052-2.947 1.431Z" fill="#000307"/><path d="M21.17 42.846a17.45 17.45 0 0 1-2.946-.252h-.126l.505-3.451h.127c.968.126 1.936.21 2.904.21h.126l.042 3.493h-.126c-.127.043-.295.043-.505 0Zm-2.777-.463c1.052.169 2.104.21 3.198.21l-.042-2.945c-.883 0-1.81-.042-2.693-.169l-.463 2.904ZM4.546 15.32 1.305 14.1l.042-.127a22.066 22.066 0 0 1 1.978-3.998l.084-.126L6.355 11.7l-.084.126a17.429 17.429 0 0 0-1.641 3.325l-.084.168ZM1.64 13.973l2.778 1.01c.421-1.052.926-2.146 1.558-3.156L3.493 10.27a19.036 19.036 0 0 0-1.852 3.703Z" fill="#000307"/><path d="M18.35 42.636h-.126c-1.262-.169-2.483-.505-3.703-.884l-.127-.042 1.095-3.283.126.042c1.01.337 2.062.59 3.114.757h.127l-.505 3.41Zm-3.577-1.095c1.094.38 2.23.632 3.41.8l.462-2.904c-.968-.168-1.936-.379-2.904-.716l-.968 2.82Zm17.888-1.851-1.852-2.946.126-.084c1.01-.632 1.979-1.347 2.82-2.19l.084-.083 2.4 2.525-.085.084a24.874 24.874 0 0 1-3.367 2.61l-.126.084Zm-1.473-2.862 1.557 2.483a21.48 21.48 0 0 0 3.115-2.441l-2.02-2.147a15.317 15.317 0 0 1-2.652 2.105Z" fill="#000307"/><path d="m14.69 41.794-.127-.042c-1.431-.505-2.862-1.137-4.167-1.936l-.126-.085 1.768-2.988.126.084a15.413 15.413 0 0 0 3.493 1.6l.126.042-1.094 3.325Zm-4.041-2.147c1.22.716 2.525 1.347 3.872 1.81l.926-2.778c-1.137-.379-2.231-.926-3.283-1.515l-1.515 2.483ZM.547 26.306l-.042-.127A19.136 19.136 0 0 1 0 21.802v-.126l3.493-.042v.126c0 1.22.169 2.483.421 3.662l.042.126-3.409.758Zm-.252-4.378A22.1 22.1 0 0 0 .8 26.011l2.862-.631a19.329 19.329 0 0 1-.421-3.452H.295Zm3.409-3.24L.252 18.14v-.127c.21-1.346.59-2.693 1.053-3.998l.042-.126 3.24 1.22-.042.127a21.438 21.438 0 0 0-.883 3.324l.042.127Zm-3.115-.8 2.904.463c.169-1.052.463-2.104.842-3.114l-2.778-1.01C1.094 15.404.8 16.666.59 17.887Z" fill="#000307"/><path d="m1.768 29.925-.042-.127a21.855 21.855 0 0 1-1.179-3.661l-.042-.127 3.41-.757.041.126c.253 1.052.548 2.063.968 3.03l.043.127-3.2 1.389ZM.8 26.22a19.641 19.641 0 0 0 1.094 3.367l2.694-1.178c-.38-.926-.674-1.894-.926-2.862L.8 26.22ZM0 21.928v-.126h.126H0c0-1.263.084-2.525.295-3.788v-.126l3.45.547v.126a19.95 19.95 0 0 0-.252 3.157v.126l-.126.042L0 21.928Zm.547-3.788a24.828 24.828 0 0 0-.252 3.494l2.946-.043c0-.968.084-1.978.21-2.988L.547 18.14Zm6.566 19.235-.084-.084c-1.22-1.136-2.357-2.4-3.283-3.788l-.084-.126 2.862-1.979.084.127c.8 1.136 1.725 2.23 2.736 3.156l.084.085-2.315 2.61ZM4.04 33.503a22.315 22.315 0 0 0 3.073 3.535L9.09 34.85a19.842 19.842 0 0 1-2.61-3.03l-2.44 1.683Z" fill="#000307"/><path d="m3.83 33.628-.084-.126a21.08 21.08 0 0 1-2.02-3.704l-.042-.126 3.198-1.347.042.127a20.11 20.11 0 0 0 1.684 3.114l.084.126-2.862 1.936ZM2.02 29.84a19.773 19.773 0 0 0 1.894 3.452l2.441-1.684c-.63-.926-1.178-1.894-1.599-2.946L2.02 29.84Zm8.502 10.018-.126-.084a21.308 21.308 0 0 1-3.367-2.526l-.084-.084 2.357-2.567.084.084c.884.8 1.81 1.515 2.82 2.104l.126.085-1.81 2.988Zm-3.24-2.694c.967.884 2.02 1.642 3.114 2.315l1.515-2.525c-.926-.59-1.81-1.22-2.652-1.979l-1.978 2.19ZM18.561 7.155l-.673-3.578.126-.042c1.052-.21 2.104-.295 3.114-.337h.127l.042 3.62h-.126c-.842 0-1.684.084-2.526.252l-.084.085Zm-.379-3.368.59 3.03a20.85 20.85 0 0 1 2.272-.252l-.042-3.114c-.926.042-1.852.168-2.82.336Z" fill="#000307"/><path d="M23.78 7.03h-.126c-.8-.127-1.6-.17-2.441-.17h-.127v-.125l-.042-3.494h.632c.841 0 1.683.084 2.567.21h.127l-.59 3.578Zm-2.188-.422c.63 0 1.304.042 1.936.169l.463-3.073c-.926-.126-1.81-.21-2.736-.168l.042 3.114c.126-.042.21-.042.295-.042ZM16.078 7.87l-1.305-3.409.127-.042c.967-.379 2.02-.673 3.114-.884l.126-.042.674 3.578-.127.042c-.841.168-1.683.379-2.483.715l-.126.042Zm-.926-3.24 1.094 2.904c.716-.253 1.473-.505 2.273-.632l-.59-3.03c-.967.168-1.893.42-2.777.758Zm-3.914 6.397-2.484-2.61.085-.083c.883-.842 1.851-1.642 2.904-2.273l.126-.084 1.936 3.072-.126.084c-.842.505-1.6 1.137-2.315 1.81l-.126.084ZM9.09 8.376l2.147 2.23c.673-.631 1.389-1.22 2.146-1.683l-1.64-2.653A25.28 25.28 0 0 0 9.09 8.376Z" fill="#000307"/><path d="m9.007 13.763-3.072-1.936.084-.127a18.353 18.353 0 0 1 2.82-3.45l.084-.085 2.483 2.61-.084.084c-.842.8-1.6 1.725-2.23 2.736l-.085.168Zm-2.694-2.02 2.61 1.641a13.68 13.68 0 0 1 2.104-2.567L8.881 8.586c-.926.968-1.81 2.02-2.568 3.157Zm7.24-2.568-1.937-3.072.127-.085A18.917 18.917 0 0 1 14.94 4.42l.127-.042 1.304 3.41-.126.041c-.884.337-1.767.758-2.567 1.305l-.127.042Zm-1.558-2.988 1.642 2.651c.757-.463 1.557-.883 2.357-1.178l-1.095-2.904c-1.01.336-1.978.842-2.904 1.43ZM26.221 7.66l-.126-.042c-.8-.253-1.6-.463-2.441-.59h-.126l.547-3.577h.126c1.052.169 2.062.421 3.072.758l.127.042-1.179 3.41Zm-2.399-.884c.758.126 1.515.295 2.23.547l1.011-2.946a19.126 19.126 0 0 0-2.778-.673l-.463 3.072Z" fill="#000307"/><path d="m29 8.965-.127-.084c-.884-.505-1.81-.968-2.778-1.305l-.126-.042 1.178-3.451.127.042c1.22.421 2.399.968 3.493 1.6l.126.084L29 8.965Zm-2.695-1.557c.926.295 1.768.716 2.61 1.179l1.6-2.652a18.304 18.304 0 0 0-3.2-1.473l-1.01 2.946ZM7.702 16.499l-3.409-1.263.042-.126A19.706 19.706 0 0 1 6.02 11.7l.084-.126 3.072 1.936-.084.127a14.98 14.98 0 0 0-1.347 2.735l-.042.127Zm-3.072-1.39 2.904 1.095a15.7 15.7 0 0 1 1.262-2.525l-2.609-1.642c-.631.926-1.136 2.02-1.557 3.073Z" fill="#000307"/><path d="m6.187 11.995-.126-.084.126-.21.126.041-.126.253Zm25.169-1.221-.084-.084a15.998 15.998 0 0 0-2.4-1.768l-.125-.084 1.852-3.114.126.084a19.108 19.108 0 0 1 2.946 2.188l.084.085-2.399 2.693Zm-2.23-2.02c.8.463 1.515 1.01 2.23 1.642l2.105-2.315a20.438 20.438 0 0 0-2.694-2.02l-1.642 2.693ZM12.164 37.122l-.127-.084a20.321 20.321 0 0 1-2.862-2.147l-.084-.084 2.442-2.694.084.084c.715.632 1.473 1.221 2.272 1.684l.127.084-1.852 3.157ZM9.47 34.807a16.77 16.77 0 0 0 2.61 1.936l1.599-2.652a16.027 16.027 0 0 1-2.104-1.557L9.47 34.807Zm18.309 3.704-1.305-3.41.126-.041a14.158 14.158 0 0 0 2.525-1.263l.127-.084 1.936 3.072-.126.085a18.317 18.317 0 0 1-3.157 1.557l-.126.084Zm-.968-3.24 1.094 2.903a16.524 16.524 0 0 0 2.862-1.43l-1.642-2.652c-.715.505-1.515.884-2.314 1.178Z" fill="#000307"/><path d="M30.935 36.996 29 33.923l.127-.084c.8-.505 1.599-1.094 2.314-1.767l.085-.085 2.483 2.61-.084.084c-.884.842-1.852 1.557-2.862 2.23l-.127.085Zm-1.557-3.03 1.642 2.651a17.29 17.29 0 0 0 2.609-2.02l-2.146-2.23a13.198 13.198 0 0 1-2.105 1.599Zm-4.714 5.387-.673-3.536.126-.042a16.662 16.662 0 0 0 2.483-.673l.127-.042 1.304 3.409-.126.042c-.968.379-2.02.673-3.073.884l-.168-.042Zm-.337-3.367.59 3.03c.968-.168 1.894-.463 2.777-.8L26.6 35.312a9.315 9.315 0 0 1-2.273.674Zm-3.114 3.661c-.842 0-1.684-.084-2.483-.21h-.127l.547-3.578h.127c.8.127 1.557.169 2.357.169h.126l.042 3.62h-.589Zm-2.315-.42c.884.126 1.768.168 2.651.168l-.042-3.115a18.35 18.35 0 0 1-2.146-.126l-.463 3.072ZM7.029 19.192l-3.578-.589v-.126c.169-1.137.505-2.273.884-3.367l.042-.127 3.41 1.263-.043.126c-.336.884-.547 1.768-.715 2.694v.126Zm-3.283-.8 3.072.506c.127-.842.38-1.684.674-2.484L4.588 15.32a16.703 16.703 0 0 0-.842 3.073Z" fill="#000307"/><path d="M21.676 39.648h-.127v-.127l-.042-3.493h.127c.841 0 1.683-.084 2.483-.252l.126-.043.674 3.578-.127.042c-1.01.168-2.062.295-3.114.295Zm.084-3.367.042 3.114c.926 0 1.894-.126 2.82-.295l-.59-3.03c-.757.126-1.515.21-2.272.21ZM6.482 31.819l-.084-.127a17.642 17.642 0 0 1-1.726-3.156l-.042-.127 3.325-1.43.042.126a14.76 14.76 0 0 0 1.389 2.525l.084.126-2.988 2.063Zm-1.515-3.241c.42 1.01.968 1.978 1.557 2.862l2.567-1.768a16.024 16.024 0 0 1-1.304-2.357l-2.82 1.263Z" fill="#000307"/><path d="m4.714 28.663-.042-.127a21.825 21.825 0 0 1-1.01-3.072l-.042-.126 3.535-.8.042.126c.169.842.463 1.684.8 2.484l.042.126-3.325 1.389Zm-.758-3.115c.21.968.505 1.894.884 2.82l2.862-1.22a15.732 15.732 0 0 1-.715-2.273l-3.03.673Z" fill="#000307"/><path d="m3.704 25.59-.042-.126c-.295-1.22-.421-2.483-.463-3.704v-.126l3.62-.042v.126c0 1.01.126 2.02.336 2.988l.042.127-3.493.757Zm-.21-3.704c.041 1.137.168 2.273.42 3.41l3.03-.674c-.21-.926-.294-1.852-.336-2.778l-3.115.042Z" fill="#000307"/><path d="M3.241 21.886v-.126h.126-.126c0-1.095.084-2.147.252-3.241l.043-.126 3.577.589-.042.126c-.126.842-.21 1.726-.21 2.567v.127l-.127.042-3.493.042Zm.463-3.199c-.168.968-.21 1.978-.21 2.946l3.114-.042c0-.8.042-1.599.168-2.399l-3.072-.505ZM15.7 38.722l-.127-.042c-1.22-.42-2.4-.968-3.536-1.641l-.126-.085 1.852-3.114.126.084c.884.547 1.852.968 2.82 1.305l.127.042-1.137 3.451Zm-3.41-1.81c1.01.59 2.104 1.137 3.24 1.516l1.01-2.947c-.925-.336-1.809-.715-2.65-1.22l-1.6 2.651Z" fill="#000307"/><path d="M18.856 39.48h-.127a21.491 21.491 0 0 1-3.156-.758l-.127-.042 1.179-3.452.126.043c.8.294 1.684.463 2.526.589h.126l-.547 3.62Zm-3.073-1.01c.926.294 1.894.547 2.862.673l.463-3.073a14.18 14.18 0 0 1-2.315-.547l-1.01 2.946Zm-6.481-3.453-.085-.084a18.268 18.268 0 0 1-2.778-3.198l-.126-.127 2.989-2.062.084.126a14.4 14.4 0 0 0 2.23 2.568l.085.084-2.4 2.693Zm-2.61-3.367a17.2 17.2 0 0 0 2.567 2.947l2.105-2.315a14.101 14.101 0 0 1-2.105-2.4L6.692 31.65Zm8.797-19.403-2.063-3.325.127-.084c.841-.505 1.683-.968 2.609-1.305l.126-.042 1.39 3.662-.127.042c-.673.253-1.305.59-1.936.968l-.126.084Zm-1.726-3.199 1.81 2.863a13.334 13.334 0 0 1 1.725-.884l-1.22-3.157c-.8.295-1.557.716-2.315 1.178Z" fill="#000307"/><path d="m17.383 11.28-1.39-3.662.127-.042c.8-.295 1.641-.547 2.525-.716l.127-.042.715 3.83-.126.043a13.18 13.18 0 0 0-1.852.505l-.126.084ZM16.33 7.786l1.22 3.157c.548-.21 1.095-.337 1.642-.463l-.63-3.325a10.36 10.36 0 0 0-2.232.631Z" fill="#000307"/><path d="m19.235 10.733-.716-3.83.126-.042a13.272 13.272 0 0 1 2.568-.253h.126l.042 3.915h-.126c-.631 0-1.263.084-1.894.21h-.126Zm-.421-3.662.631 3.325c.547-.084 1.094-.168 1.684-.168l-.043-3.367c-.757 0-1.515.084-2.272.21Z" fill="#000307"/><path d="M23.233 10.649h-.126a13.559 13.559 0 0 0-1.81-.126h-.126v-.127l-.042-3.788h.546c.674 0 1.39.085 2.063.169h.126l-.63 3.872Zm-1.683-.421c.462 0 .968.042 1.43.126l.506-3.325c-.716-.084-1.474-.168-2.189-.168l.042 3.367h.21Zm-10.439 7.534L7.45 16.415l.042-.126c.337-.884.757-1.768 1.305-2.652l.168-.21.21.126 3.073 1.936-.084.126a13.417 13.417 0 0 0-1.01 2.063l-.043.084Zm-3.325-1.515 3.157 1.178a9.515 9.515 0 0 1 .926-1.852l-2.82-1.81a19.756 19.756 0 0 0-1.263 2.484Z" fill="#000307"/><path d="m7.744 16.373-.252-.084c.042-.085.084-.21.126-.295a14.94 14.94 0 0 1 1.263-2.441l.084-.084.252.126-.084.126c-.505.8-.926 1.6-1.22 2.4-.085.041-.127.168-.169.252Zm6.019-2.736-2.694-2.82.084-.084a12.345 12.345 0 0 1 2.357-1.852l.127-.084 2.062 3.325-.126.084a9.174 9.174 0 0 0-1.768 1.389l-.042.042Zm-2.357-2.82 2.315 2.441c.505-.463 1.01-.884 1.6-1.262l-1.81-2.862a26.352 26.352 0 0 0-2.105 1.683Z" fill="#000307"/><path d="m12.122 15.7-3.283-2.063.084-.127a14.27 14.27 0 0 1 2.273-2.777l.084-.085 2.694 2.82-.085.085a13.333 13.333 0 0 0-1.683 2.062l-.084.084Zm-2.947-2.147 2.862 1.81c.463-.674.968-1.305 1.558-1.895l-2.315-2.44c-.842.757-1.515 1.599-2.105 2.525Zm1.431 6.229-3.872-.632.042-.126c.169-.926.379-1.852.716-2.736l.042-.126 3.662 1.347-.043.126c-.252.632-.42 1.305-.547 1.978v.169Zm-3.535-.842 3.325.547c.126-.631.252-1.22.463-1.81L7.702 16.5c-.294.8-.505 1.6-.631 2.441Zm17.972-7.828-.126-.043c-.59-.21-1.221-.336-1.81-.462h-.127l.59-3.873h.126c.842.127 1.683.337 2.483.59l.127.042-1.263 3.746Zm-1.768-.716c.547.084 1.094.21 1.6.379l1.094-3.199a12.809 12.809 0 0 0-2.189-.547l-.505 3.367Z" fill="#000307"/><path d="m27.147 12.08-.126-.085c-.673-.379-1.347-.715-2.104-.968l-.127-.042 1.263-3.704.126.042a14.64 14.64 0 0 1 2.862 1.305l.127.084-2.02 3.367Zm-2.02-1.221c.673.252 1.305.505 1.894.884l1.726-2.904c-.8-.463-1.684-.884-2.568-1.179l-1.052 3.199Z" fill="#000307"/><path d="m28.915 13.468-.084-.084a11.22 11.22 0 0 0-1.81-1.347l-.126-.084 2.02-3.367.126.084a16.64 16.64 0 0 1 2.442 1.81l.084.084-2.652 2.904Zm-1.641-1.6a9.299 9.299 0 0 1 1.641 1.221l2.273-2.483a13.914 13.914 0 0 0-2.189-1.6l-1.725 2.863Zm1.894 22.266-2.063-3.325.127-.084c.63-.379 1.178-.842 1.725-1.305l.084-.084 2.694 2.82-.084.084c-.716.673-1.515 1.263-2.357 1.81l-.126.084Zm-1.726-3.24 1.81 2.861c.757-.463 1.43-1.01 2.104-1.6l-2.315-2.44a14.2 14.2 0 0 1-1.6 1.178Z" fill="#000307"/><path d="m26.558 35.355-1.389-3.662.127-.042a9.884 9.884 0 0 0 1.893-.926l.127-.084 2.062 3.325-.126.084c-.8.505-1.684.926-2.568 1.263l-.126.042Zm-1.052-3.494 1.22 3.157c.8-.295 1.558-.674 2.273-1.136l-1.81-2.863a7.869 7.869 0 0 1-1.683.842Z" fill="#000307"/><path d="m24.033 36.07-.716-3.83.126-.043a13.322 13.322 0 0 0 1.852-.505l.127-.042 1.389 3.662-.127.042c-.8.295-1.641.547-2.525.716h-.126Zm-.421-3.62.631 3.325a19.408 19.408 0 0 0 2.23-.631l-1.22-3.157c-.505.169-1.052.337-1.641.463ZM6.608 21.803v-.127h.126-.126c0-.884.042-1.767.21-2.651l.042-.127 3.873.632-.043.126a10.332 10.332 0 0 0-.168 1.936v.126l-.126.043-3.788.042Zm.42-2.61a14.95 14.95 0 0 0-.168 2.357l3.368-.042c0-.59.042-1.178.126-1.768l-3.325-.547Z" fill="#000307"/><path d="M21.634 36.281h-.127v-.126l-.042-3.788h.127c.63 0 1.262-.084 1.894-.169l.126-.042.715 3.83-.126.042c-.884.169-1.726.253-2.567.253Zm.084-3.62.042 3.367c.758 0 1.473-.084 2.23-.21l-.63-3.325c-.548.084-1.095.126-1.642.168Zm-13.89-5.303-.042-.126c-.336-.8-.631-1.642-.8-2.526l-.041-.126 3.788-.842.042.127a9.48 9.48 0 0 0 .589 1.852l.042.126-3.578 1.515ZM7.24 24.79c.169.757.421 1.515.716 2.23l3.114-1.347a25.038 25.038 0 0 1-.547-1.641l-3.283.758Zm4.293 7.745-.085-.084c-.841-.8-1.641-1.642-2.273-2.61l-.084-.126 3.241-2.189.084.127c.463.715 1.053 1.347 1.684 1.936l.084.084-2.651 2.862ZM9.47 29.757c.59.842 1.305 1.642 2.063 2.357l2.272-2.483a12.32 12.32 0 0 1-1.557-1.768L9.47 29.757Z" fill="#000307"/><path d="m9.26 29.925-.085-.126c-.547-.8-1.01-1.684-1.43-2.568l-.043-.126 3.578-1.515.042.126a10.37 10.37 0 0 0 1.052 1.894l.084.126-3.199 2.189Zm-1.221-2.694c.337.8.757 1.6 1.263 2.315l2.777-1.894a9.775 9.775 0 0 1-.926-1.726L8.04 27.232Zm-1.052-2.399-.042-.126a18.64 18.64 0 0 1-.38-3.03v-.127l3.915-.042v.126a9.8 9.8 0 0 0 .253 2.23l.042.127-3.788.842Zm-.126-3.03c.042.925.126 1.81.336 2.735l3.283-.757a16.553 16.553 0 0 1-.252-2.02l-3.368.04ZM21.255 36.28c-.674 0-1.347-.083-2.02-.168h-.127l.59-3.872h.126c.59.084 1.178.127 1.768.127h.126l.042 3.914h-.506Zm-1.852-.378c.716.084 1.389.126 2.105.126l-.043-3.367c-.505 0-1.01-.042-1.557-.084l-.505 3.325Z" fill="#000307"/><path d="M19.361 36.155h-.126a13.456 13.456 0 0 1-2.568-.632l-.126-.042 1.263-3.704.126.042c.631.21 1.263.38 1.894.463h.126l-.589 3.873Zm-2.483-.842c.757.252 1.515.42 2.273.547l.505-3.325a7.593 7.593 0 0 1-1.684-.42l-1.094 3.198Zm-2.988-1.095-.127-.084a15.755 15.755 0 0 1-2.315-1.726l-.084-.084 2.61-2.862.084.084c.505.463 1.094.884 1.683 1.263l.127.084-1.979 3.325Zm-2.147-1.894c.631.59 1.347 1.094 2.062 1.557l1.726-2.904a10.17 10.17 0 0 1-1.515-1.136l-2.273 2.483Z" fill="#000307"/><path d="m16.793 35.565-.126-.042c-1.01-.337-1.978-.8-2.904-1.347l-.126-.084 2.02-3.367.126.084a10.1 10.1 0 0 0 2.147 1.01l.126.042-1.263 3.704Zm-2.777-1.557c.841.505 1.683.883 2.609 1.22l1.094-3.199c-.673-.252-1.347-.547-1.936-.926l-1.768 2.904Zm3.03-19.235-1.726-2.778.127-.084a17.48 17.48 0 0 1 1.978-1.01l.126-.043 1.179 3.03-.127.043c-.505.168-.968.42-1.389.715l-.168.127Zm-1.347-2.652 1.431 2.315c.379-.253.8-.42 1.22-.59l-.967-2.567c-.59.21-1.137.505-1.684.842Zm4.125 1.516-.59-3.199.127-.042c.631-.126 1.305-.168 1.936-.21h.126l.042 3.24h-.126c-.463 0-.926.043-1.347.127l-.168.084Zm-.337-2.989.505 2.694a5.223 5.223 0 0 1 1.137-.126l-.043-2.736c-.505.042-1.052.084-1.599.168Z" fill="#000307"/><path d="m18.477 14.057-1.178-3.03.126-.042c.59-.253 1.262-.421 1.894-.547l.126-.043.59 3.2-.127.041c-.463.085-.926.21-1.347.38l-.084.041Zm-.842-2.904.968 2.567c.38-.126.758-.252 1.137-.336l-.505-2.694a17.73 17.73 0 0 0-1.6.463Zm5.135 2.442h-.126c-.421-.085-.8-.085-1.179-.085h-.294l-.042-3.24h.421a9.71 9.71 0 0 1 1.557.126h.126l-.463 3.199Zm-1.262-.38c.336 0 .673.043 1.052.085l.42-2.694a10.25 10.25 0 0 0-1.599-.126l.042 2.736h.085Zm-5.725 2.61-2.23-2.357.084-.084a8.287 8.287 0 0 1 1.81-1.389l.126-.084 1.726 2.778-.127.084a7.386 7.386 0 0 0-1.262 1.01l-.127.042Zm-1.851-2.357 1.893 1.979a5.873 5.873 0 0 1 1.137-.884l-1.431-2.315c-.59.379-1.136.757-1.6 1.22Zm.715 3.83-.126-.042-2.652-1.683.168-.21.085.041 2.651 1.684-.126.21Z" fill="#000307"/><path d="m13.931 18.814-3.03-1.137.042-.126c.295-.758.632-1.431 1.01-2.104l.085-.127.21.127 2.525 1.599-.084.126a6.804 6.804 0 0 0-.715 1.473l-.043.169Zm-2.735-1.263 2.567.926a7.41 7.41 0 0 1 .632-1.305l-2.315-1.43a10.335 10.335 0 0 0-.884 1.809Z" fill="#000307"/><path d="m14.605 17.298-.084-.042-2.652-1.641.126-.253.127.085 2.651 1.641-.168.21Z" fill="#000307"/><path d="m14.647 17.298-2.736-1.725.084-.127a11.546 11.546 0 0 1 1.684-2.104l.084-.084 2.23 2.357-.083.084c-.463.42-.842.926-1.179 1.473l-.084.126Zm-2.4-1.81 2.316 1.431a7.941 7.941 0 0 1 1.052-1.304l-1.894-1.978c-.547.589-1.052 1.178-1.473 1.851Zm11.828-1.515-.126-.042a14.82 14.82 0 0 0-1.305-.337h-.126l.505-3.24h.126a9.182 9.182 0 0 1 1.852.463l.126.042-1.052 3.114Zm-1.263-.631c.379.084.758.168 1.095.252l.883-2.61a10.48 10.48 0 0 0-1.557-.378l-.42 2.736Zm-9.259 6.903-3.2-.505.043-.127c.126-.715.294-1.389.547-2.062l.042-.126 3.03 1.136-.042.127a8.985 8.985 0 0 0-.378 1.43l-.043.127Zm-2.905-.716 2.694.421c.084-.42.168-.842.337-1.22l-2.568-.926c-.21.547-.336 1.136-.463 1.725ZM26.895 15.7l-.084-.085c-.421-.379-.842-.715-1.305-.968l-.126-.084 1.683-2.82.127.084c.673.38 1.262.842 1.851 1.39l.085.083-2.231 2.4Zm-1.179-1.263c.421.252.8.547 1.137.842l1.852-2.02a10.414 10.414 0 0 0-1.6-1.18l-1.389 2.358Z" fill="#000307"/><path d="m25.59 14.689-.126-.084c-.463-.295-.968-.505-1.515-.716l-.127-.042 1.053-3.115.126.043c.757.252 1.473.589 2.146.968l.127.084-1.684 2.862Zm-1.431-.968c.463.168.884.379 1.305.589l1.43-2.357a10.428 10.428 0 0 0-1.851-.842l-.884 2.61Zm-2.862 18.94a9.2 9.2 0 0 1-1.515-.126h-.127l.506-3.2h.126c.42.043.758.085 1.094.085h.337l.042 3.241h-.463Zm-1.347-.379c.505.084 1.01.084 1.515.084l-.042-2.693h-.042c-.294 0-.631-.042-1.01-.084l-.42 2.693Zm7.282-1.262-1.726-2.736.126-.084c.463-.295.884-.59 1.263-.968l.084-.084 2.23 2.356-.084.085a10.9 10.9 0 0 1-1.767 1.347l-.127.084Zm-1.347-2.652 1.43 2.315a8.145 8.145 0 0 0 1.516-1.179l-1.894-1.978c-.337.295-.674.59-1.052.842Z" fill="#000307"/><path d="m25.295 31.987-1.136-3.03.126-.042c.463-.168.926-.421 1.39-.674l.125-.084 1.726 2.778-.126.084c-.632.38-1.263.716-1.936.968h-.169Zm-.841-2.904.968 2.568c.589-.21 1.136-.506 1.641-.8l-1.431-2.315c-.379.21-.758.379-1.178.547Z" fill="#000307"/><path d="m23.36 32.493-.59-3.199.126-.042a7.99 7.99 0 0 0 1.347-.379l.126-.042 1.137 3.03-.127.043c-.589.21-1.262.42-1.894.547l-.126.042Zm-.295-2.989.505 2.652c.547-.126 1.094-.252 1.6-.463l-.969-2.525c-.379.168-.758.252-1.136.337Z" fill="#000307"/><path d="M21.592 32.661h-.127v-.126l-.042-3.115h.127a7.29 7.29 0 0 0 1.346-.126l.127-.042.589 3.199-.126.042c-.632.084-1.263.168-1.894.168Zm.084-2.988.042 2.694c.547 0 1.094-.085 1.6-.169l-.506-2.651a5.223 5.223 0 0 1-1.136.126ZM10.227 21.76v-.126h.127-.127c0-.674.043-1.347.169-2.02l.042-.127 3.199.505-.042.127a8.12 8.12 0 0 0-.127 1.389v.21l-3.24.042Zm.38-1.978c-.085.59-.127 1.136-.127 1.726l2.694-.043c0-.42.042-.8.084-1.262l-2.652-.421Zm3.409 10.059-.085-.084a12.922 12.922 0 0 1-1.725-1.978l-.084-.126 2.651-1.81.084.126c.337.505.758.968 1.22 1.389l.085.084-2.146 2.4Zm-1.558-2.104c.421.631.968 1.22 1.515 1.725l1.81-2.02c-.42-.379-.8-.8-1.094-1.262l-2.23 1.557Z" fill="#000307"/><path d="m12.248 27.863-.084-.127a11.113 11.113 0 0 1-1.053-1.978l-.042-.126 2.947-1.263.042.126c.21.505.463.968.757 1.39l.084.126-2.651 1.852Zm-.842-2.063c.253.59.547 1.137.926 1.684l2.23-1.516c-.252-.378-.462-.8-.673-1.22L11.406 25.8Z" fill="#000307"/><path d="m11.154 25.927-.042-.127a10.893 10.893 0 0 1-.59-1.894l-.042-.126 3.157-.716.042.127c.084.463.252.926.42 1.347l.043.126-2.988 1.262Zm-.38-1.937c.127.548.296 1.053.506 1.6l2.483-1.052-.379-1.137-2.61.59Z" fill="#000307"/><path d="m10.522 24.032-.042-.126a14.002 14.002 0 0 1-.295-2.273v-.126l3.241-.042v.126c0 .547.085 1.094.21 1.6l.043.126-3.157.715Zm-.042-2.273c0 .674.084 1.305.253 1.979l2.651-.59c-.084-.463-.168-.926-.168-1.43l-2.736.041Zm9.428 10.776h-.126a9.994 9.994 0 0 1-1.936-.463l-.127-.043 1.053-3.072.126.042c.463.169.926.253 1.389.337h.126l-.505 3.199Zm-1.852-.674a11.58 11.58 0 0 0 1.642.379l.42-2.694c-.42-.084-.8-.168-1.178-.294l-.884 2.61Zm-2.315-.757-.126-.085c-.631-.378-1.22-.8-1.726-1.304l-.084-.084 2.189-2.4.084.085c.379.336.8.631 1.22.926l.127.084-1.684 2.778Zm-1.557-1.473c.463.42.968.8 1.473 1.094l1.389-2.315a9.867 9.867 0 0 1-1.052-.8l-1.81 2.02Z" fill="#000307"/><path d="m17.972 32.114-.126-.043a11.387 11.387 0 0 1-2.189-1.01l-.126-.084 1.641-2.778.127.084c.505.295 1.01.547 1.557.716l.126.042-1.01 3.073Zm-2.062-1.221c.589.337 1.22.631 1.894.884l.883-2.568a10.133 10.133 0 0 1-1.389-.631l-1.388 2.315Z" fill="#000307"/></svg>