<svg width="16" height="18" fill="none" xmlns="http://www.w3.org/2000/svg"><path d="M8.355 11.281a2.187 2.187 0 1 0 0-4.375 2.187 2.187 0 0 0 0 4.375Z" fill="#FFE663" stroke="#FFE663" stroke-linecap="round" stroke-linejoin="round"/><path d="M7.342 7.155C6.77 5.95 6.168 4.452 6.168 3.469a2.188 2.188 0 0 1 4.375 0c0 .983-.602 2.482-1.174 3.686M6.17 9.002c-1.329-.106-2.928-.334-3.78-.826a2.187 2.187 0 0 1 2.188-3.789c.851.492 1.849 1.763 2.605 2.86m0 3.693c-.756 1.098-1.754 2.369-2.605 2.86a2.187 2.187 0 0 1-2.188-3.788c.852-.492 2.451-.72 3.78-.826m3.199 1.847c.572 1.203 1.174 2.702 1.174 3.686a2.187 2.187 0 1 1-4.375 0c0-.984.602-2.483 1.174-3.686m3.199-1.847c1.329.106 2.928.334 3.78.826a2.188 2.188 0 0 1-2.188 3.789c-.852-.492-1.85-1.763-2.605-2.86m0-3.694c.756-1.097 1.753-2.368 2.605-2.86a2.187 2.187 0 0 1 2.188 3.789c-.852.492-2.451.72-3.78.826" stroke="#FFE663" stroke-linecap="round" stroke-linejoin="round"/></svg>