<svg width="339" height="352" fill="none" xmlns="http://www.w3.org/2000/svg"><path d="M257 339H138V0h119v339Z" fill="#FFF8BA"/><path d="M257 288H32V168h225v120Z" fill="#FFF8BA"/><path d="M257 237H105v102h152V237Z" fill="#FFF8BA"/><path d="M169.35 131.42v-1.82l1.82-1.4h1.47v9.8h-1.61v-7.84l-1.68 1.26Zm4.481 4.62v-1.54l3.29-6.3h1.75l-3.29 6.3h3.22v-2.38h1.61v2.38h1.4v1.54h-1.4V138h-1.61v-1.96h-4.97Zm8.54 1.19c0-.28.088-.513.266-.7a.93.93 0 0 1 .686-.28c.308 0 .55.112.728.336.186.224.28.555.28.994 0 .719-.173 1.269-.518 1.652-.336.392-.794.588-1.372.588v-.7c.28 0 .499-.079.658-.238a.765.765 0 0 0 .252-.602v-.084c-.01-.009-.014-.028-.014-.056v-.042l-.084.028a.743.743 0 0 1-.182.014c-.187 0-.35-.084-.49-.252-.14-.168-.21-.387-.21-.658Zm3.006-2.45c0-.448.098-.915.294-1.4.205-.495.401-.882.588-1.162.196-.289.462-.649.798-1.078l2.24-2.94h1.89l-2.114 2.758-.616.532v.07l.28-.098c.28-.075.583-.112.91-.112.914 0 1.689.331 2.324.994.644.653.966 1.465.966 2.436 0 .989-.355 1.82-1.064 2.492-.71.672-1.615 1.008-2.716 1.008-1.102 0-2.007-.336-2.716-1.008-.71-.672-1.064-1.503-1.064-2.492Zm2.254-1.456c-.383.373-.574.859-.574 1.456s.191 1.087.574 1.47c.382.373.891.56 1.526.56.634 0 1.143-.187 1.526-.56.382-.383.574-.873.574-1.47s-.192-1.083-.574-1.456c-.383-.383-.892-.574-1.526-.574-.635 0-1.144.191-1.526.574Zm6.429-1.904c0-.989.355-1.82 1.064-2.492.709-.672 1.615-1.008 2.716-1.008 1.101 0 2.007.336 2.716 1.008.709.672 1.064 1.503 1.064 2.492 0 .887-.369 1.843-1.106 2.87l-.308.42a13.42 13.42 0 0 0-.266.35L197.7 138h-1.89l2.114-2.758.616-.532v-.07a7.65 7.65 0 0 1-.28.112 3.583 3.583 0 0 1-.91.098 3.163 3.163 0 0 1-2.338-.98c-.635-.663-.952-1.479-.952-2.45Zm2.254-1.456c-.383.373-.574.859-.574 1.456s.191 1.087.574 1.47c.383.373.891.56 1.526.56s1.143-.187 1.526-.56c.383-.383.574-.873.574-1.47s-.191-1.083-.574-1.456c-.383-.383-.891-.574-1.526-.574s-1.143.191-1.526.574Zm99.896-26.924v-1.54l3.29-6.3h1.75l-3.29 6.3h3.22v-2.38h1.61v2.38h1.4v1.54h-1.4V105h-1.61v-1.96h-4.97Zm8.539 1.19c0-.28.089-.513.266-.7a.933.933 0 0 1 .686-.28c.308 0 .551.112.728.336.187.224.28.555.28.994 0 .719-.172 1.269-.518 1.652-.336.392-.793.588-1.372.588v-.7c.28 0 .5-.079.658-.238a.765.765 0 0 0 .252-.602v-.084c-.009-.009-.014-.028-.014-.056v-.042l-.084.028a.738.738 0 0 1-.182.014c-.186 0-.35-.084-.49-.252-.14-.168-.21-.387-.21-.658Zm2.657-7.49V95.2h6.65v1.54l-3.92 8.26h-1.75l3.85-8.12v-.14h-4.83Zm7.145 5.04c0-.448.098-.915.294-1.4.205-.495.401-.882.588-1.162.196-.29.462-.649.798-1.078l2.24-2.94h1.89l-2.114 2.758-.616.532v.07l.28-.098a3.52 3.52 0 0 1 .91-.112c.914 0 1.689.331 2.324.994.644.653.966 1.465.966 2.436 0 .989-.355 1.82-1.064 2.492-.71.672-1.615 1.008-2.716 1.008-1.102 0-2.007-.336-2.716-1.008-.71-.672-1.064-1.503-1.064-2.492Zm2.254-1.456c-.383.373-.574.859-.574 1.456s.191 1.087.574 1.47c.382.373.891.56 1.526.56.634 0 1.143-.187 1.526-.56.382-.383.574-.873.574-1.47s-.192-1.083-.574-1.456c-.383-.383-.892-.574-1.526-.574-.635 0-1.144.191-1.526.574ZM62.49 227.78c0-.448.098-.915.294-1.4.205-.495.401-.882.588-1.162.196-.289.462-.649.798-1.078l2.24-2.94h1.89l-2.114 2.758-.616.532v.07l.28-.098c.28-.075.583-.112.91-.112.915 0 1.69.331 2.324.994.644.653.966 1.465.966 2.436 0 .989-.355 1.82-1.064 2.492-.71.672-1.615 1.008-2.716 1.008-1.101 0-2.007-.336-2.716-1.008-.71-.672-1.064-1.503-1.064-2.492Zm2.254-1.456c-.383.373-.574.859-.574 1.456s.191 1.087.574 1.47c.383.373.891.56 1.526.56s1.143-.187 1.526-.56c.383-.383.574-.873.574-1.47s-.191-1.083-.574-1.456c-.383-.383-.891-.574-1.526-.574s-1.143.191-1.526.574Zm6.43 3.906c0-.28.088-.513.265-.7a.931.931 0 0 1 .686-.28c.308 0 .55.112.728.336.187.224.28.555.28.994 0 .719-.172 1.269-.518 1.652-.336.392-.793.588-1.372.588v-.7c.28 0 .5-.079.658-.238a.765.765 0 0 0 .252-.602v-.084c-.01-.009-.014-.028-.014-.056v-.042l-.084.028a.742.742 0 0 1-.182.014c-.186 0-.35-.084-.49-.252-.14-.168-.21-.387-.21-.658Zm2.935-2.03h1.68c.066.289.192.546.379.77.42.513 1.017.77 1.791.77.644 0 1.153-.159 1.526-.476.383-.327.575-.728.575-1.204 0-.541-.173-.966-.519-1.274-.335-.317-.816-.476-1.441-.476h-2.38v-1.4l2.94-2.1v-.07H74.6v-1.54h6.44v1.526l-2.52 1.834-.7.28v.07l.224-.028c.308-.028.49-.042.546-.042.877 0 1.61.303 2.197.91.588.607.882 1.377.882 2.31 0 .896-.345 1.657-1.035 2.282-.691.625-1.582.938-2.674.938-1.447 0-2.516-.513-3.206-1.54a4.405 4.405 0 0 1-.645-1.54Zm8.197-5.46v-1.54h6.65v1.54l-3.92 8.26h-1.75l3.85-8.12v-.14h-4.83Zm105.044 86.68v-1.82l1.82-1.4h1.47v9.8h-1.61v-7.84l-1.68 1.26Zm4.831 0c0-.989.355-1.82 1.064-2.492.709-.672 1.615-1.008 2.716-1.008 1.101 0 2.007.336 2.716 1.008.709.672 1.064 1.503 1.064 2.492 0 .887-.369 1.843-1.106 2.87l-.308.42a13.42 13.42 0 0 0-.266.35l-2.24 2.94h-1.89l2.114-2.758.616-.532v-.07a7.65 7.65 0 0 1-.28.112 3.583 3.583 0 0 1-.91.098 3.163 3.163 0 0 1-2.338-.98c-.635-.663-.952-1.479-.952-2.45Zm2.254-1.456c-.383.373-.574.859-.574 1.456s.191 1.087.574 1.47c.383.373.891.56 1.526.56s1.143-.187 1.526-.56c.383-.383.574-.873.574-1.47s-.191-1.083-.574-1.456c-.383-.383-.891-.574-1.526-.574s-1.143.191-1.526.574Zm6.359 7.266c0-.28.089-.513.266-.7a.933.933 0 0 1 .686-.28c.308 0 .551.112.728.336.187.224.28.555.28.994 0 .719-.172 1.269-.518 1.652-.336.392-.793.588-1.372.588v-.7c.28 0 .5-.079.658-.238a.765.765 0 0 0 .252-.602v-.084c-.009-.009-.014-.028-.014-.056v-.042l-.084.028a.738.738 0 0 1-.182.014c-.186 0-.35-.084-.49-.252-.14-.168-.21-.387-.21-.658Zm3.007-2.45c0-.448.098-.915.294-1.4.205-.495.401-.882.588-1.162.196-.289.462-.649.798-1.078l2.24-2.94h1.89l-2.114 2.758-.616.532v.07l.28-.098c.28-.075.583-.112.91-.112.914 0 1.689.331 2.324.994.644.653.966 1.465.966 2.436 0 .989-.355 1.82-1.064 2.492-.71.672-1.615 1.008-2.716 1.008-1.102 0-2.007-.336-2.716-1.008-.71-.672-1.064-1.503-1.064-2.492Zm2.254-1.456c-.383.373-.574.859-.574 1.456s.191 1.087.574 1.47c.382.373.891.56 1.526.56.634 0 1.143-.187 1.526-.56.382-.383.574-.873.574-1.47s-.192-1.083-.574-1.456c-.383-.383-.892-.574-1.526-.574-.635 0-1.144.191-1.526.574Zm6.429 1.946h1.68c.074.289.2.537.378.742.41.485 1.008.728 1.792.728.625 0 1.12-.168 1.484-.504.364-.336.546-.775.546-1.316 0-.569-.182-1.027-.546-1.372-.364-.345-.859-.518-1.484-.518-.579 0-1.069.154-1.47.462a1.916 1.916 0 0 0-.42.448h-1.54l.42-5.74h5.95v1.54h-4.62l-.21 2.52h.07c.149-.149.322-.275.518-.378.438-.261.966-.392 1.582-.392.98 0 1.796.327 2.45.98.653.653.98 1.47.98 2.45 0 .961-.346 1.764-1.036 2.408-.682.635-1.573.952-2.674.952-1.438 0-2.506-.499-3.206-1.498a4.397 4.397 0 0 1-.644-1.512Z" fill="#333"/><circle cx="163.5" cy="252.5" r="39.5" fill="#5A5A5A"/><path d="M140.27 257.48v-1.98l4.23-8.1h2.25l-4.23 8.1h4.14v-3.06h2.07v3.06h1.8v1.98h-1.8V260h-2.07v-2.52h-6.39Zm10.979-.99h2.16c.096.372.258.69.486.954.528.624 1.296.936 2.304.936.804 0 1.44-.216 1.908-.648.468-.432.702-.996.702-1.692 0-.732-.234-1.32-.702-1.764-.468-.444-1.104-.666-1.908-.666-.744 0-1.374.198-1.89.594a2.481 2.481 0 0 0-.54.576h-1.98l.54-7.38h7.65v1.98h-5.94l-.27 3.24h.09c.192-.192.414-.354.666-.486.564-.336 1.242-.504 2.034-.504 1.26 0 2.31.42 3.15 1.26.84.84 1.26 1.89 1.26 3.15 0 1.236-.444 2.268-1.332 3.096-.876.816-2.022 1.224-3.438 1.224-1.848 0-3.222-.642-4.122-1.926a5.672 5.672 0 0 1-.828-1.944Zm11.075 2.52c0-.36.114-.66.342-.9a1.2 1.2 0 0 1 .882-.36c.396 0 .708.144.936.432.24.288.36.714.36 1.278 0 .924-.222 1.632-.666 2.124-.432.504-1.02.756-1.764.756v-.9c.36 0 .642-.102.846-.306.216-.192.324-.45.324-.774v-.108c-.012-.012-.018-.036-.018-.072v-.054l-.108.036a.932.932 0 0 1-.234.018c-.24 0-.45-.108-.63-.324-.18-.216-.27-.498-.27-.846Zm3.955-2.43c0-1.092.42-1.962 1.26-2.61.36-.252.78-.444 1.26-.576v-.108a3.296 3.296 0 0 1-.99-.594c-.66-.564-.99-1.308-.99-2.232 0-.948.402-1.752 1.206-2.412.816-.672 1.914-1.008 3.294-1.008 1.38 0 2.472.336 3.276 1.008.816.66 1.224 1.464 1.224 2.412 0 .9-.33 1.644-.99 2.232-.312.252-.642.45-.99.594v.108c.456.12.876.318 1.26.594.84.648 1.26 1.512 1.26 2.592 0 1.044-.456 1.938-1.368 2.682-.9.732-2.124 1.098-3.672 1.098s-2.778-.366-3.69-1.098c-.9-.744-1.35-1.638-1.35-2.682Zm2.7-5.94c0 .528.204.96.612 1.296.408.336.984.504 1.728.504s1.32-.168 1.728-.504c.408-.336.612-.768.612-1.296 0-.48-.21-.882-.63-1.206-.408-.336-.978-.504-1.71-.504s-1.308.168-1.728.504c-.408.324-.612.726-.612 1.206Zm.216 4.302c-.504.396-.756.882-.756 1.458s.252 1.068.756 1.476c.516.396 1.224.594 2.124.594.9 0 1.602-.198 2.106-.594.516-.408.774-.9.774-1.476s-.258-1.062-.774-1.458c-.504-.408-1.206-.612-2.106-.612-.9 0-1.608.204-2.124.612Zm8.597-3.402c0-1.272.456-2.34 1.368-3.204.912-.864 2.076-1.296 3.492-1.296s2.58.432 3.492 1.296c.912.864 1.368 1.932 1.368 3.204 0 1.14-.474 2.37-1.422 3.69l-.396.54c-.168.216-.282.366-.342.45l-2.88 3.78h-2.43l2.718-3.546.792-.684v-.09c-.024.012-.144.06-.36.144-.312.084-.702.126-1.17.126-1.176 0-2.178-.42-3.006-1.26-.816-.852-1.224-1.902-1.224-3.15Zm2.898-1.872c-.492.48-.738 1.104-.738 1.872s.246 1.398.738 1.89c.492.48 1.146.72 1.962.72.816 0 1.47-.24 1.962-.72.492-.492.738-1.122.738-1.89 0-.768-.246-1.392-.738-1.872-.492-.492-1.146-.738-1.962-.738-.816 0-1.47.246-1.962.738Z" fill="#fff"/><path fill="#FFC79F" d="M30 106h107v62H30z"/><path d="M68.56 146.27h1.68c.075.289.2.537.378.742.41.485 1.008.728 1.792.728.625 0 1.12-.168 1.484-.504.364-.336.546-.775.546-1.316 0-.569-.182-1.027-.546-1.372-.364-.345-.859-.518-1.484-.518-.579 0-1.069.154-1.47.462a1.928 1.928 0 0 0-.42.448h-1.54l.42-5.74h5.95v1.54h-4.62l-.21 2.52h.07a2.13 2.13 0 0 1 .518-.378c.439-.261.966-.392 1.582-.392.98 0 1.797.327 2.45.98.653.653.98 1.47.98 2.45 0 .961-.345 1.764-1.036 2.408-.681.635-1.573.952-2.674.952-1.437 0-2.506-.499-3.206-1.498a4.417 4.417 0 0 1-.644-1.512Zm8.613 1.96c0-.28.089-.513.266-.7a.931.931 0 0 1 .686-.28c.308 0 .55.112.728.336.187.224.28.555.28.994 0 .719-.172 1.269-.518 1.652-.336.392-.793.588-1.372.588v-.7c.28 0 .5-.079.658-.238a.765.765 0 0 0 .252-.602v-.084c-.01-.009-.014-.028-.014-.056v-.042l-.084.028a.742.742 0 0 1-.182.014c-.186 0-.35-.084-.49-.252-.14-.168-.21-.387-.21-.658Zm2.867-5.81v-1.82l1.82-1.4h1.47v9.8h-1.61v-7.84l-1.68 1.26Zm4.83 3.92c0-.849.327-1.526.98-2.03a3.16 3.16 0 0 1 .98-.448v-.084a2.564 2.564 0 0 1-.77-.462c-.513-.439-.77-1.017-.77-1.736 0-.737.313-1.363.938-1.876.635-.523 1.49-.784 2.563-.784 1.073 0 1.922.261 2.547.784.635.513.953 1.139.953 1.876 0 .7-.257 1.279-.77 1.736-.243.196-.5.35-.77.462v.084c.354.093.68.247.98.462.653.504.98 1.176.98 2.016 0 .812-.355 1.507-1.064 2.086-.7.569-1.653.854-2.857.854-1.204 0-2.16-.285-2.87-.854-.7-.579-1.05-1.274-1.05-2.086Zm2.1-4.62c0 .411.16.747.477 1.008.317.261.765.392 1.343.392.58 0 1.027-.131 1.344-.392.318-.261.477-.597.477-1.008 0-.373-.164-.686-.49-.938-.318-.261-.761-.392-1.33-.392-.57 0-1.018.131-1.344.392-.318.252-.477.565-.477.938Zm.168 3.346c-.392.308-.588.686-.588 1.134 0 .448.197.831.588 1.148.402.308.953.462 1.652.462.7 0 1.246-.154 1.638-.462.402-.317.603-.7.603-1.148 0-.448-.201-.826-.603-1.134-.391-.317-.938-.476-1.638-.476s-1.25.159-1.652.476Z" fill="#333"/><path fill="#5A5A5A" d="M287 52h-30V0h30z"/><path d="m338.75 41.25-.063 113.456-4.437.042V41.25h4.5Z" stroke="#5A5A5A" stroke-width=".5" stroke-miterlimit="10"/><path fill="#5A5A5A" d="M339 31v-5h-74v5zm0 127v-5h-74v5z"/><path fill="#5A5A5A" d="M339 132h-5v26h5zm0-101h-5v21h5z"/><path d="m272.25 45.25.063 60.476 4.437.023V45.25h-4.5Zm10 0 .063 60.476 4.437.023V45.25h-4.5Z" stroke="#5A5A5A" stroke-width=".5" stroke-miterlimit="10"/><path stroke="#5A5A5A" d="m273.57 135.255-16-27"/><path fill="#5A5A5A" d="M287 184h-30v-52h30zm0 75h-30v-52h30z"/><path d="m286.75 140.25-.152 198.42-11.348.078V140.25h11.5Zm-18 0-.152 198.42-11.348.078V140.25h11.5Z" stroke="#5A5A5A" stroke-width=".5" stroke-miterlimit="10"/><path fill="#5A5A5A" d="M287 352h-30v-36h30zm0-352v16H126V0z"/><path fill="#5A5A5A" d="M142 106h-16V3h16z"/><path fill="#5A5A5A" d="M16 106V90h126v16z"/><path fill="#5A5A5A" d="M16 90h16v141H16zm0 174h16v35H16zm92 19v16H32v-16z"/><path fill="#5A5A5A" d="M108 352H92v-61h16zm0 0v-16h152v16z"/><path d="M108 273h-8v36h8v-36Zm34-167h-8v68h8v-68Z" fill="#5A5A5A"/><path d="m45.72 125.298.016-1.181-.016-3.066v-7.591h9.957v11.838c0 3.017-2.244 5.476-4.995 5.476-2.719 0-4.962-2.459-4.962-5.476Z" fill="#fff" stroke="#5A5A5A" stroke-width=".5"/><path d="M46.866 125.232v-8.493h7.68v7.559l-.016.934c0 2.378-1.703 4.312-3.832 4.312-2.112-.016-3.832-1.951-3.832-4.312Zm10.612-18.133v5.263c0 .606-.49 1.098-1.097 1.098H45.097A1.098 1.098 0 0 1 44 112.362v-5.263c0-.607.491-1.099 1.097-1.099h11.268c.622 0 1.113.492 1.113 1.099Z" fill="#fff" stroke="#5A5A5A" stroke-width=".5"/><path d="M51.386 109.722c0 .41-.295.721-.639.721-.36.017-.655-.311-.655-.721s.295-.721.64-.721a.683.683 0 0 1 .654.721Zm42.21-2.182v12.308c0 .856-.683 1.541-1.538 1.541h-18.52A1.533 1.533 0 0 1 72 119.848V107.54c0-.855.684-1.54 1.538-1.54h18.52c.84 0 1.538.685 1.538 1.54Z" fill="#fff" stroke="#5A5A5A" stroke-width=".5"/><path d="M91.673 112.232v1.897a4.52 4.52 0 0 1-4.516 4.521H78.44a4.52 4.52 0 0 1-4.516-4.521v-1.897a4.52 4.52 0 0 1 4.516-4.521h8.718a4.52 4.52 0 0 1 4.516 4.521Z" fill="#fff" stroke="#5A5A5A" stroke-width=".5"/><path d="M83.753 110.122c0 .543-.427.984-.954.984-.528 0-.955-.441-.955-.984 0-.544.428-.984.955-.984.527 0 .954.44.954.984Zm24.468-2.756v59.268a1.36 1.36 0 0 0 1.364 1.366h23.529a1.36 1.36 0 0 0 1.364-1.366v-59.268a1.36 1.36 0 0 0-1.364-1.366h-23.529c-.758 0-1.364.621-1.364 1.366Z" fill="#fff" stroke="#5A5A5A" stroke-width=".5"/><path d="M118.159 164.357h6.396c3.707 0 6.698-3.009 6.698-6.707v-46.669c0-.91-.73-1.642-1.64-1.642h-16.54c-.91 0-1.64.732-1.64 1.642v46.655c.013 3.712 3.018 6.721 6.726 6.721Z" fill="#fff" stroke="#5A5A5A" stroke-width=".5"/><path d="M120.888 114.873c-.739 0-1.337-.624-1.337-1.394 0-.77.598-1.394 1.337-1.394.738 0 1.337.624 1.337 1.394 0 .77-.599 1.394-1.337 1.394Zm-66.864 43.714h-22.01L32 137l22.01.014.014 21.573Z" fill="#fff" stroke="#5A5A5A" stroke-width=".5"/><path d="M43.005 142.257c-3.114 0-5.628 2.475-5.628 5.537s2.514 5.536 5.642 5.536c3.114 0 5.656-2.474 5.656-5.536-.014-3.062-2.556-5.537-5.67-5.537Z" stroke="#5A5A5A" stroke-width=".5"/><path d="M47.125 147.794a3.876 3.876 0 0 0-1.201-2.853 4.266 4.266 0 0 0-2.905-1.188m-4.134 4.027a4.03 4.03 0 0 1 1.201-2.852 4.182 4.182 0 0 1 2.919-1.189l-4.12 4.041Zm8.24.014a4.033 4.033 0 0 1-1.201 2.852 4.199 4.199 0 0 1-2.92 1.174l4.12-4.026Zm-8.24-.014c0 1.132.46 2.139 1.201 2.852l.014.014a4.167 4.167 0 0 0 2.89 1.174l-4.105-4.04Z" stroke="#5A5A5A" stroke-width=".5"/><path d="M142 176v-8H78v8h64Zm-91 0v-8H31v8h20Z" fill="#5A5A5A"/><path d="M100 188h8v-20h-8v20Z" fill="#5A5A5A"/><path d="m106.75 281.75-.025-41.041-1.475-.012v41.053h1.5Zm0-68.444-.025-41.041-1.475-.013v41.054h1.5Zm2 34.222-.025-41.041-1.475-.013v41.054h1.5Z" stroke="#5A5A5A" stroke-width=".5" stroke-miterlimit="10"/><path d="M160 16v24.995h24.325V16H160Z" fill="#fff" stroke="#5A5A5A" stroke-width=".5"/><path d="M160.927 38.969V19.516c0-.738.392-1.13 1.162-1.13h20.147c.785 0 1.162.376 1.162 1.13v19.453c.016.753-.377 1.13-1.146 1.13h-20.148c-.785.016-1.177-.377-1.177-1.13Z" fill="#fff" stroke="#5A5A5A" stroke-width=".5"/><path d="M167.428 37.18c1.79-.016 3.251-1.43 3.251-3.172 0-1.758-1.461-3.172-3.251-3.172-1.806 0-3.251 1.414-3.251 3.172 0 1.758 1.445 3.172 3.251 3.172Zm9.626-.03c1.79-.016 3.25-1.43 3.25-3.172 0-1.759-1.46-3.172-3.25-3.172-1.806 0-3.251 1.413-3.251 3.172-.015 1.758 1.445 3.187 3.251 3.171Zm0-9.014c1.806 0 3.25-1.413 3.25-3.172 0-1.758-1.46-3.171-3.25-3.171-1.79.015-3.251 1.428-3.251 3.171 0 1.743 1.461 3.172 3.251 3.172Zm-9.626 0c1.806 0 3.251-1.413 3.251-3.172 0-1.758-1.461-3.171-3.251-3.171-1.79.015-3.251 1.428-3.251 3.171 0 1.743 1.461 3.172 3.251 3.172Z" stroke="#5A5A5A" stroke-width=".5"/><path d="M142.015 53h24.089v23.699H142L142.015 53Z" fill="#fff" stroke="#5A5A5A" stroke-width=".5"/><path d="M148.621 54.803h13.317c.743 0 1.106.364 1.106 1.122v17.607c0 .727-.363 1.106-1.091 1.121l-13.332-.015c-.727.015-1.09-.363-1.09-1.106V55.925c-.031-.743.348-1.122 1.09-1.122Z" fill="#fff" stroke="#5A5A5A" stroke-width=".5"/><path d="M143.864 64.728c.015.925.712 1.667 1.59 1.667l6.985-.651.015-.016c.53 0 .954-.44.954-1s-.424-1-.969-1.015l-6.985-.652c-.863 0-1.575.743-1.59 1.667Z" stroke="#5A5A5A" stroke-width=".5"/><mask id="a" fill="#fff"><path fill-rule="evenodd" clip-rule="evenodd" d="m144.546 66.107 3.803-.363a.988.988 0 0 0 .954-1.03.98.98 0 0 0-.954-1l-3.803-.364"/></mask><path fill-rule="evenodd" clip-rule="evenodd" d="m144.546 66.107 3.803-.363a.988.988 0 0 0 .954-1.03.98.98 0 0 0-.954-1l-3.803-.364" fill="#fff"/><path d="m148.349 65.744-.014-.5h-.017l-.017.002.048.498Zm.954-1.03h-.5v.013l.5-.014Zm-.954-1-.048.497.017.002h.017l.014-.5Zm-3.755 2.891 3.802-.364-.095-.995-3.802.364.095.995Zm3.769-.362a1.488 1.488 0 0 0 1.44-1.543l-1 .026c.008.3-.213.51-.468.518l.028 1Zm1.44-1.53a1.48 1.48 0 0 0-1.44-1.5l-.028 1a.48.48 0 0 1 .468.5h1Zm-1.407-1.497-3.802-.364-.095.995 3.802.364.095-.995Z" fill="#5A5A5A" mask="url(#a)"/><path stroke="#000" d="m20.424 229.265-20 32m80.806-86.821-27.014 13.973"/><path fill="#5A5A5A" d="M279 174v2h-11v-2zm-17 0v2h-11v-2zm-17 0v2h-11v-2zm-17 0v2h-11v-2zm-17 0v2h-11v-2zm-17 0v2h-11v-2zm-17 0v2h-11v-2zm-17 0v2h-11v-2zm-17 0v2h-6v-2z"/></svg>