<svg width="281" height="397" fill="none" xmlns="http://www.w3.org/2000/svg"><path fill="#5A5A5A" d="M1 312v30h43v-30z"/><path fill="#E7FFD5" d="M16 54v258h249V54zM13 8v46h82V8z"/><path fill="#FDFF9F" d="M11 13v103h82V13z"/><path fill="#5A5A5A" d="M106 312v30h83v-30zM16 0H0v341h16zm265 38h-16v304h16z"/><path fill="#5A5A5A" d="M109 16V0H0v16zm0 116v-16H0v16zm56 0v-16h-21v16zm31-78V38H93v16z"/><path fill="#5A5A5A" d="M93 54h16V0H93zM196 8h-16v46h16zm85 46V38h-29v16z"/><path fill="#5A5A5A" d="M165 38v16h46V38zm-72 93h8V85h-8zm65-15v8h24v-8zm92 0v8h24v-8z"/><path stroke="#5A5A5A" d="m260.764 42.441-43-23M112.575 82.264l-18-29m14.166 64.309 28-17"/><path d="m110.25 312.25 162.435.152.064 11.348H110.25v-11.5Zm0 18 162.435.152.064 11.348H110.25v-11.5Zm4.5 66.5-81.468-.063-.03-4.437h81.498v4.5Z" stroke="#5A5A5A" stroke-width=".5" stroke-miterlimit="10"/><path fill="#5A5A5A" d="M125 397h5v-71h-5zm-103 0h5v-71h-5z"/><path fill="#5A5A5A" d="M34 397v-5h-8v5zm92 0v-5h-12v5z"/><path d="m132.75 327.25-60.476.063-.023 4.437h60.499v-4.5Zm0 10-60.476.063-.023 4.437h60.499v-4.5Z" stroke="#5A5A5A" stroke-width=".5" stroke-miterlimit="10"/><path stroke="#5A5A5A" d="m38.749 328.568 31-18"/><path d="m72.72 96.476.016 1.18-.016 3.067v7.591h9.957V96.476c0-3.017-2.244-5.476-4.995-5.476-2.719 0-4.962 2.46-4.962 5.476Z" fill="#fff" stroke="#5A5A5A" stroke-width=".5"/><path d="M73.866 96.542v8.493h7.681v-7.559l-.016-.934c0-2.378-1.704-4.312-3.833-4.312-2.112.016-3.832 1.95-3.832 4.312Zm10.612 18.134v-5.264c0-.606-.49-1.098-1.097-1.098H72.097c-.606 0-1.097.492-1.097 1.098v5.264c0 .606.491 1.098 1.097 1.098h11.268c.622 0 1.113-.492 1.113-1.098Z" fill="#fff" stroke="#5A5A5A" stroke-width=".5"/><path d="M78.386 112.052c0-.41-.294-.721-.638-.721-.36-.016-.655.311-.655.721s.295.722.638.722a.684.684 0 0 0 .656-.722ZM45 102.54v12.308c0 .856.684 1.541 1.539 1.541h18.52c.854 0 1.538-.685 1.538-1.541V102.54c0-.855-.684-1.54-1.539-1.54h-18.52c-.84 0-1.538.685-1.538 1.54Z" fill="#fff" stroke="#5A5A5A" stroke-width=".5"/><path d="M46.924 107.232v1.897a4.52 4.52 0 0 0 4.516 4.521h8.718a4.52 4.52 0 0 0 4.516-4.521v-1.897a4.52 4.52 0 0 0-4.516-4.521H51.44a4.52 4.52 0 0 0-4.516 4.521Z" fill="#fff" stroke="#5A5A5A" stroke-width=".5"/><path d="M54.844 105.122c0 .543.427.984.954.984.528 0 .955-.441.955-.984 0-.544-.427-.984-.955-.984-.527 0-.954.44-.954.984ZM16 114.507V54.386c0-.77.615-1.386 1.384-1.386h23.867a1.38 1.38 0 0 1 1.385 1.386v60.121a1.38 1.38 0 0 1-1.385 1.385H17.386c-.77 0-1.385-.63-1.385-1.385Z" fill="#fff" stroke="#5A5A5A" stroke-width=".5"/><path d="M26.081 56.696h6.488a6.797 6.797 0 0 1 6.795 6.803v47.34a1.66 1.66 0 0 1-1.664 1.666H20.922a1.66 1.66 0 0 1-1.664-1.666V63.513c.014-3.766 3.062-6.817 6.823-6.817Z" fill="#fff" stroke="#5A5A5A" stroke-width=".5"/><path d="M28.85 106.892c-.75 0-1.356.633-1.356 1.414 0 .78.607 1.413 1.356 1.413.749 0 1.356-.633 1.356-1.413 0-.781-.607-1.414-1.356-1.414Zm8.737-68.868v-22.01L16 16l.014 22.01 21.573.014Z" fill="#fff" stroke="#5A5A5A" stroke-width=".5"/><path d="M21.257 27.005c0-3.114 2.475-5.628 5.537-5.628 3.061 0 5.536 2.514 5.536 5.642 0 3.114-2.474 5.656-5.536 5.656-3.062-.014-5.537-2.556-5.537-5.67Z" stroke="#5A5A5A" stroke-width=".5"/><path d="M26.794 31.125a3.873 3.873 0 0 1-2.852-1.201 4.266 4.266 0 0 1-1.189-2.905m4.027-4.134c-1.105 0-2.111.46-2.852 1.201a4.186 4.186 0 0 0-1.189 2.919l4.04-4.12Zm.014 8.24a4.033 4.033 0 0 0 2.852-1.201 4.199 4.199 0 0 0 1.175-2.92l-4.027 4.12Zm-.014-8.24c1.132 0 2.14.46 2.852 1.201l.014.014a4.167 4.167 0 0 1 1.175 2.89l-4.041-4.105Z" stroke="#5A5A5A" stroke-width=".5"/><path d="M16 175h24.995v24.325H16V175Z" fill="#fff" stroke="#5A5A5A" stroke-width=".5"/><path d="M38.969 175.927H19.516c-.738 0-1.13.392-1.13 1.162v20.147c0 .785.376 1.162 1.13 1.162h19.453c.753.016 1.13-.377 1.13-1.146v-20.148c.016-.785-.377-1.177-1.13-1.177Z" fill="#fff" stroke="#5A5A5A" stroke-width=".5"/><path d="M37.18 182.428c-.016 1.79-1.43 3.251-3.172 3.251-1.758 0-3.171-1.461-3.171-3.251 0-1.806 1.413-3.251 3.171-3.251 1.759 0 3.172 1.445 3.172 3.251Zm-.03 9.626c-.016 1.79-1.43 3.25-3.172 3.25-1.759 0-3.172-1.46-3.172-3.25 0-1.806 1.413-3.251 3.172-3.251 1.758-.016 3.187 1.445 3.171 3.251Zm-9.014 0c0 1.806-1.413 3.25-3.172 3.25-1.758 0-3.171-1.46-3.171-3.25.015-1.791 1.428-3.251 3.171-3.251 1.743 0 3.172 1.46 3.172 3.251Zm0-9.626c0 1.806-1.413 3.251-3.172 3.251-1.758 0-3.171-1.461-3.171-3.251.015-1.79 1.428-3.251 3.171-3.251 1.743 0 3.172 1.461 3.172 3.251Z" stroke="#5A5A5A" stroke-width=".5"/><path d="M65.7 132.015v24.089H42V132l23.7.015Z" fill="#fff" stroke="#5A5A5A" stroke-width=".5"/><path d="M63.897 138.621v13.317c0 .742-.364 1.106-1.122 1.106H45.168c-.728 0-1.107-.364-1.122-1.091l.015-13.332c-.015-.727.364-1.091 1.107-1.091h17.607c.743-.03 1.122.349 1.122 1.091Z" fill="#fff" stroke="#5A5A5A" stroke-width=".5"/><path d="M53.97 133.864c-.923.015-1.666.712-1.666 1.59l.652 6.984.015.016c0 .53.44.954 1 .954s1-.424 1.015-.97l.652-6.984c0-.863-.743-1.575-1.667-1.59Z" stroke="#5A5A5A" stroke-width=".5"/><mask id="a" fill="#fff"><path fill-rule="evenodd" clip-rule="evenodd" d="m52.592 134.546.364 3.803a.988.988 0 0 0 1.03.954.98.98 0 0 0 1-.954l.364-3.803"/></mask><path fill-rule="evenodd" clip-rule="evenodd" d="m52.592 134.546.364 3.803a.988.988 0 0 0 1.03.954.98.98 0 0 0 1-.954l.364-3.803" fill="#fff"/><path d="m52.956 138.349.5-.014-.001-.017-.002-.017-.498.048Zm1.03.954v-.5h-.013l.013.5Zm1-.954-.498-.048-.001.017v.017l.499.014Zm-2.892-3.755.364 3.802.995-.095-.364-3.802-.995.095Zm.362 3.769a1.488 1.488 0 0 0 1.543 1.44l-.026-1a.488.488 0 0 1-.518-.468l-1 .028Zm1.53 1.44a1.48 1.48 0 0 0 1.5-1.44l-1-.028a.48.48 0 0 1-.5.468v1Zm1.498-1.407.363-3.802-.995-.095-.364 3.802.996.095Z" fill="#5A5A5A" mask="url(#a)"/><path d="m271.75 116.25-41.041.025-.012 1.475h41.053v-1.5Zm-68.444 0-41.041.025-.013 1.475h41.054v-1.5Zm34.222-2-41.04.025-.013 1.475h41.053v-1.5Z" stroke="#5A5A5A" stroke-width=".5" stroke-miterlimit="10"/><path fill="#5A5A5A" d="M104 228h2v-11h-2zm0-17h2v-11h-2zm0-17h2v-11h-2zm0-17h2v-11h-2zm0-20h2v-11h-2zm0-15h2v-11h-2zM9 231v2h11v-2zm17 0v2h11v-2zm17 0v2h11v-2zm17 0v2h11v-2zm20 0v2h11v-2zm15 0v2h11v-2z"/><path d="M55.49 211.78c0-.448.098-.915.294-1.4.205-.495.401-.882.588-1.162.196-.289.462-.649.798-1.078l2.24-2.94h1.89l-2.114 2.758-.616.532v.07l.28-.098c.28-.075.583-.112.91-.112.915 0 1.69.331 2.324.994.644.653.966 1.465.966 2.436 0 .989-.355 1.82-1.064 2.492-.71.672-1.615 1.008-2.716 1.008-1.101 0-2.007-.336-2.716-1.008-.71-.672-1.064-1.503-1.064-2.492Zm2.254-1.456c-.383.373-.574.859-.574 1.456s.191 1.087.574 1.47c.383.373.891.56 1.526.56s1.143-.187 1.526-.56c.383-.383.574-.873.574-1.47s-.191-1.083-.574-1.456c-.383-.383-.891-.574-1.526-.574s-1.143.191-1.526.574Zm6.43 3.906c0-.28.088-.513.265-.7a.931.931 0 0 1 .686-.28c.308 0 .55.112.728.336.187.224.28.555.28.994 0 .719-.172 1.269-.518 1.652-.336.392-.793.588-1.372.588v-.7c.28 0 .5-.079.658-.238a.765.765 0 0 0 .252-.602v-.084c-.01-.009-.014-.028-.014-.056v-.042l-.084.028a.742.742 0 0 1-.182.014c-.186 0-.35-.084-.49-.252-.14-.168-.21-.387-.21-.658Zm4.475-.406c-.886-.971-1.33-2.212-1.33-3.724s.444-2.753 1.33-3.724c.887-.971 1.96-1.456 3.22-1.456 1.26 0 2.334.485 3.22 1.456.887.971 1.33 2.212 1.33 3.724s-.443 2.753-1.33 3.724c-.886.971-1.96 1.456-3.22 1.456-1.26 0-2.333-.485-3.22-1.456Zm1.148-6.412c-.531.635-.797 1.531-.797 2.688 0 1.157.266 2.053.797 2.688.542.635 1.233.952 2.073.952.84 0 1.525-.317 2.057-.952.542-.635.813-1.531.813-2.688 0-1.157-.271-2.053-.813-2.688-.532-.635-1.218-.952-2.058-.952-.84 0-1.53.317-2.072.952Zm9.216 6.412c-.887-.971-1.33-2.212-1.33-3.724s.443-2.753 1.33-3.724c.886-.971 1.96-1.456 3.22-1.456 1.26 0 2.333.485 3.22 1.456.886.971 1.33 2.212 1.33 3.724s-.444 2.753-1.33 3.724c-.887.971-1.96 1.456-3.22 1.456-1.26 0-2.334-.485-3.22-1.456Zm1.148-6.412c-.532.635-.798 1.531-.798 2.688 0 1.157.266 2.053.798 2.688.541.635 1.232.952 2.072.952.84 0 1.526-.317 2.058-.952.541-.635.812-1.531.812-2.688 0-1.157-.27-2.053-.812-2.688-.532-.635-1.218-.952-2.058-.952-.84 0-1.53.317-2.072.952ZM132.42 281v-1.54l3.346-2.366c.728-.523 1.251-1.008 1.568-1.456.317-.448.476-.924.476-1.428 0-.532-.163-.957-.49-1.274-.327-.317-.77-.476-1.33-.476-.691 0-1.209.28-1.554.84a2.851 2.851 0 0 0-.336.84h-1.68a4.332 4.332 0 0 1 .546-1.61c.663-1.073 1.671-1.61 3.024-1.61 1.036 0 1.876.308 2.52.924.653.607.98 1.372.98 2.296 0 .803-.205 1.526-.616 2.17-.411.635-1.069 1.265-1.974 1.89l-1.4.98-.63.28v.07l.84-.07h3.78V281h-7.07Zm7.843-1.96v-1.54l3.29-6.3h1.75l-3.29 6.3h3.22v-2.38h1.61v2.38h1.4v1.54h-1.4V281h-1.61v-1.96h-4.97Zm8.539 1.19c0-.28.089-.513.266-.7a.933.933 0 0 1 .686-.28c.308 0 .551.112.728.336.187.224.28.555.28.994 0 .719-.172 1.269-.518 1.652-.336.392-.793.588-1.372.588v-.7c.28 0 .5-.079.658-.238a.765.765 0 0 0 .252-.602v-.084c-.009-.009-.014-.028-.014-.056v-.042l-.084.028a.738.738 0 0 1-.182.014c-.186 0-.35-.084-.49-.252-.14-.168-.21-.387-.21-.658Zm2.726-1.19v-1.54l3.29-6.3h1.75l-3.29 6.3h3.22v-2.38h1.61v2.38h1.4v1.54h-1.4V281h-1.61v-1.96h-4.97Zm8.4 1.96v-1.54l3.346-2.366c.728-.523 1.25-1.008 1.568-1.456.317-.448.476-.924.476-1.428 0-.532-.164-.957-.49-1.274-.327-.317-.77-.476-1.33-.476-.691 0-1.209.28-1.554.84-.15.243-.262.523-.336.84h-1.68a4.332 4.332 0 0 1 .546-1.61c.662-1.073 1.67-1.61 3.024-1.61 1.036 0 1.876.308 2.52.924.653.607.98 1.372.98 2.296 0 .803-.206 1.526-.616 2.17-.411.635-1.069 1.265-1.974 1.89l-1.4.98-.63.28v.07l.84-.07h3.78V281h-7.07ZM55.56 69.27h1.68c.075.29.2.537.378.742.41.485 1.008.728 1.792.728.625 0 1.12-.168 1.484-.504.364-.336.546-.775.546-1.316 0-.57-.182-1.027-.546-1.372-.364-.345-.859-.518-1.484-.518-.579 0-1.069.154-1.47.462-.159.121-.299.27-.42.448h-1.54l.42-5.74h5.95v1.54h-4.62l-.21 2.52h.07c.15-.15.322-.275.518-.378.439-.261.966-.392 1.582-.392.98 0 1.797.327 2.45.98.653.653.98 1.47.98 2.45 0 .961-.345 1.764-1.036 2.408-.681.635-1.573.952-2.674.952-1.437 0-2.506-.5-3.206-1.498a4.412 4.412 0 0 1-.644-1.512Zm8.613 1.96c0-.28.089-.513.266-.7a.933.933 0 0 1 .686-.28c.308 0 .55.112.728.336.187.224.28.555.28.994 0 .719-.172 1.27-.518 1.652-.336.392-.793.588-1.372.588v-.7c.28 0 .5-.08.658-.238a.765.765 0 0 0 .252-.602v-.084c-.01-.01-.014-.028-.014-.056v-.042l-.084.028a.726.726 0 0 1-.182.014c-.186 0-.35-.084-.49-.252-.14-.168-.21-.387-.21-.658Zm2.727-1.19V68.5l3.29-6.3h1.75l-3.29 6.3h3.22v-2.38h1.61v2.38h1.4v1.54h-1.4V72h-1.61v-1.96H66.9ZM75.299 72v-1.54l3.346-2.366c.728-.523 1.25-1.008 1.568-1.456.317-.448.476-.924.476-1.428 0-.532-.163-.957-.49-1.274-.327-.317-.77-.476-1.33-.476-.69 0-1.209.28-1.554.84-.15.243-.261.523-.336.84h-1.68a4.33 4.33 0 0 1 .546-1.61c.663-1.073 1.67-1.61 3.024-1.61 1.036 0 1.876.308 2.52.924.653.607.98 1.372.98 2.296a3.95 3.95 0 0 1-.616 2.17c-.41.635-1.069 1.265-1.974 1.89l-1.4.98-.63.28v.07l.84-.07h3.78V72h-7.07Zm113.841 8.74V79.2h6.65v1.54L191.87 89h-1.75l3.85-8.12v-.14h-4.83Zm6.094 7.49c0-.28.088-.513.266-.7a.931.931 0 0 1 .686-.28c.308 0 .55.112.728.336.186.224.28.555.28.994 0 .719-.173 1.27-.518 1.652-.336.392-.794.588-1.372.588v-.7c.28 0 .499-.08.658-.238a.765.765 0 0 0 .252-.602v-.084c-.01-.01-.014-.028-.014-.056v-.042l-.084.028a.728.728 0 0 1-.182.014c-.187 0-.35-.084-.49-.252-.14-.168-.21-.387-.21-.658Zm2.866-5.81V80.6l1.82-1.4h1.47V89h-1.61v-7.84l-1.68 1.26Zm4.691 3.78h1.68a1.8 1.8 0 0 0 .378.77c.42.513 1.017.77 1.792.77.644 0 1.153-.159 1.526-.476.383-.327.574-.728.574-1.204 0-.541-.173-.966-.518-1.274-.336-.317-.817-.476-1.442-.476h-2.38v-1.4l2.94-2.1v-.07h-4.06V79.2h6.44v1.526l-2.52 1.834-.7.28v.07l.224-.028c.308-.028.49-.042.546-.042.877 0 1.61.303 2.198.91.588.607.882 1.377.882 2.31 0 .896-.345 1.657-1.036 2.282-.691.625-1.582.938-2.674.938-1.447 0-2.515-.513-3.206-1.54a4.404 4.404 0 0 1-.644-1.54Z" fill="#333"/><circle cx="173.5" cy="199.5" r="39.5" fill="#5A5A5A"/><path d="M149.27 204.48v-1.98l4.23-8.1h2.25l-4.23 8.1h4.14v-3.06h2.07v3.06h1.8v1.98h-1.8V207h-2.07v-2.52h-6.39Zm10.799 2.52v-1.98l4.302-3.042c.936-.672 1.608-1.296 2.016-1.872.408-.576.612-1.188.612-1.836 0-.684-.21-1.23-.63-1.638-.42-.408-.99-.612-1.71-.612-.888 0-1.554.36-1.998 1.08a3.633 3.633 0 0 0-.432 1.08h-2.16a5.567 5.567 0 0 1 .702-2.07c.852-1.38 2.148-2.07 3.888-2.07 1.332 0 2.412.396 3.24 1.188.84.78 1.26 1.764 1.26 2.952 0 1.032-.264 1.962-.792 2.79-.528.816-1.374 1.626-2.538 2.43l-1.8 1.26-.81.36v.09l1.08-.09h4.86V207h-9.09Zm10.534-.99c0-.36.114-.66.342-.9a1.2 1.2 0 0 1 .882-.36c.396 0 .708.144.936.432.24.288.36.714.36 1.278 0 .924-.222 1.632-.666 2.124-.432.504-1.02.756-1.764.756v-.9c.36 0 .642-.102.846-.306.216-.192.324-.45.324-.774v-.108c-.012-.012-.018-.036-.018-.072v-.054l-.108.036a.932.932 0 0 1-.234.018c-.24 0-.45-.108-.63-.324-.18-.216-.27-.498-.27-.846Zm3.955-7.47c0-1.272.456-2.34 1.368-3.204.912-.864 2.076-1.296 3.492-1.296s2.58.432 3.492 1.296c.912.864 1.368 1.932 1.368 3.204 0 1.14-.474 2.37-1.422 3.69l-.396.54c-.168.216-.282.366-.342.45l-2.88 3.78h-2.43l2.718-3.546.792-.684v-.09c-.024.012-.144.06-.36.144-.312.084-.702.126-1.17.126-1.176 0-2.178-.42-3.006-1.26-.816-.852-1.224-1.902-1.224-3.15Zm2.898-1.872c-.492.48-.738 1.104-.738 1.872s.246 1.398.738 1.89c.492.48 1.146.72 1.962.72.816 0 1.47-.24 1.962-.72.492-.492.738-1.122.738-1.89 0-.768-.246-1.392-.738-1.872-.492-.492-1.146-.738-1.962-.738-.816 0-1.47.246-1.962.738Zm7.636-.288v-1.98h8.55v1.98l-5.04 10.62h-2.25l4.95-10.44v-.18h-6.21Z" fill="#fff"/></svg>