<svg width="286" height="631" fill="none" xmlns="http://www.w3.org/2000/svg"><path d="M7 547h137V30H7v517Z" fill="#E7FFD5"/><path d="M0 292h267v-61H0v61Z" fill="#E7FFD5"/><path d="M83.42 596.2h1.68c.065.289.191.546.378.77.42.513 1.017.77 1.792.77.644 0 1.153-.159 1.526-.476.383-.327.574-.728.574-1.204 0-.541-.173-.966-.518-1.274-.336-.317-.817-.476-1.442-.476h-2.38v-1.4l2.94-2.1v-.07h-4.06v-1.54h6.44v1.526l-2.52 1.834-.7.28v.07l.224-.028c.308-.028.49-.042.546-.042.877 0 1.61.303 2.198.91.588.607.882 1.377.882 2.31 0 .896-.345 1.657-1.036 2.282-.69.625-1.582.938-2.674.938-1.447 0-2.515-.513-3.206-1.54a4.406 4.406 0 0 1-.644-1.54Zm8.617 2.03c0-.28.088-.513.266-.7a.931.931 0 0 1 .686-.28c.308 0 .55.112.728.336.186.224.28.555.28.994 0 .719-.173 1.269-.518 1.652-.336.392-.794.588-1.372.588v-.7c.28 0 .499-.079.658-.238a.765.765 0 0 0 .252-.602v-.084c-.01-.009-.014-.028-.014-.056v-.042l-.084.028a.742.742 0 0 1-.182.014c-.187 0-.35-.084-.49-.252-.14-.168-.21-.387-.21-.658Zm3.006-2.45c0-.448.098-.915.294-1.4.205-.495.401-.882.588-1.162.196-.289.462-.649.798-1.078l2.24-2.94h1.89l-2.114 2.758-.616.532v.07l.28-.098c.28-.075.583-.112.91-.112.914 0 1.689.331 2.324.994.644.653.966 1.465.966 2.436 0 .989-.355 1.82-1.064 2.492-.71.672-1.615 1.008-2.716 1.008-1.102 0-2.007-.336-2.716-1.008-.71-.672-1.064-1.503-1.064-2.492Zm2.254-1.456c-.383.373-.574.859-.574 1.456s.191 1.087.574 1.47c.382.373.891.56 1.526.56.634 0 1.143-.187 1.526-.56.382-.383.574-.873.574-1.47s-.192-1.083-.574-1.456c-.383-.383-.892-.574-1.526-.574-.635 0-1.144.191-1.526.574Zm6.359 1.456c0-.448.098-.915.294-1.4.205-.495.401-.882.588-1.162.196-.289.462-.649.798-1.078l2.24-2.94h1.89l-2.114 2.758-.616.532v.07l.28-.098c.28-.075.583-.112.91-.112.915 0 1.689.331 2.324.994.644.653.966 1.465.966 2.436 0 .989-.355 1.82-1.064 2.492-.709.672-1.615 1.008-2.716 1.008-1.101 0-2.007-.336-2.716-1.008-.709-.672-1.064-1.503-1.064-2.492Zm2.254-1.456c-.383.373-.574.859-.574 1.456s.191 1.087.574 1.47c.383.373.891.56 1.526.56s1.143-.187 1.526-.56c.383-.383.574-.873.574-1.47s-.191-1.083-.574-1.456c-.383-.383-.891-.574-1.526-.574s-1.143.191-1.526.574ZM72.35 518.42v-1.82l1.82-1.4h1.47v9.8h-1.61v-7.84l-1.68 1.26Zm4.481 4.62v-1.54l3.29-6.3h1.75l-3.29 6.3h3.22v-2.38h1.61v2.38h1.4v1.54h-1.4V525h-1.61v-1.96h-4.97Zm8.54 1.19c0-.28.088-.513.266-.7a.932.932 0 0 1 .686-.28c.308 0 .55.112.728.336.186.224.28.555.28.994 0 .719-.173 1.269-.519 1.652-.335.392-.793.588-1.371.588v-.7c.28 0 .499-.079.657-.238a.765.765 0 0 0 .252-.602v-.084c-.009-.009-.013-.028-.013-.056v-.042l-.085.028a.741.741 0 0 1-.181.014c-.187 0-.35-.084-.49-.252-.14-.168-.21-.387-.21-.658Zm2.936-2.03h1.68c.065.289.191.546.378.77.42.513 1.017.77 1.792.77.644 0 1.152-.159 1.526-.476.382-.327.574-.728.574-1.204 0-.541-.173-.966-.518-1.274-.336-.317-.817-.476-1.442-.476h-2.38v-1.4l2.94-2.1v-.07h-4.06v-1.54h6.44v1.526l-2.52 1.834-.7.28v.07l.224-.028c.308-.028.49-.042.546-.042.877 0 1.61.303 2.198.91.588.607.882 1.377.882 2.31 0 .896-.346 1.657-1.036 2.282-.69.625-1.582.938-2.674.938-1.447 0-2.516-.513-3.206-1.54a4.408 4.408 0 0 1-.644-1.54Zm8.476 2.8v-1.54l3.346-2.366c.728-.523 1.251-1.008 1.568-1.456.318-.448.476-.924.476-1.428 0-.532-.163-.957-.49-1.274-.326-.317-.77-.476-1.33-.476-.69 0-1.208.28-1.554.84a2.83 2.83 0 0 0-.336.84h-1.68a4.332 4.332 0 0 1 .546-1.61c.663-1.073 1.67-1.61 3.024-1.61 1.036 0 1.876.308 2.52.924.654.607.98 1.372.98 2.296 0 .803-.205 1.526-.616 2.17-.41.635-1.068 1.265-1.974 1.89l-1.4.98-.63.28v.07l.84-.07h3.78V525h-7.07Zm88.567-265.58v-1.82l1.82-1.4h1.47v9.8h-1.61v-7.84l-1.68 1.26Zm4.691 6.58v-1.54l3.346-2.366c.728-.523 1.251-1.008 1.568-1.456.317-.448.476-.924.476-1.428 0-.532-.163-.957-.49-1.274-.327-.317-.77-.476-1.33-.476-.691 0-1.209.28-1.554.84a2.851 2.851 0 0 0-.336.84h-1.68a4.332 4.332 0 0 1 .546-1.61c.663-1.073 1.671-1.61 3.024-1.61 1.036 0 1.876.308 2.52.924.653.607.98 1.372.98 2.296 0 .803-.205 1.526-.616 2.17-.411.635-1.069 1.265-1.974 1.89l-1.4.98-.63.28v.07l.84-.07h3.78V266h-7.07Zm8.193-.77c0-.28.088-.513.266-.7a.93.93 0 0 1 .686-.28c.308 0 .55.112.728.336.186.224.28.555.28.994 0 .719-.173 1.269-.518 1.652-.336.392-.794.588-1.372.588v-.7c.28 0 .499-.079.658-.238a.765.765 0 0 0 .252-.602v-.084c-.01-.009-.014-.028-.014-.056v-.042l-.084.028a.743.743 0 0 1-.182.014c-.187 0-.35-.084-.49-.252-.14-.168-.21-.387-.21-.658Zm4.476-.406c-.887-.971-1.33-2.212-1.33-3.724s.443-2.753 1.33-3.724c.887-.971 1.96-1.456 3.22-1.456 1.26 0 2.333.485 3.22 1.456s1.33 2.212 1.33 3.724-.443 2.753-1.33 3.724c-.887.971-1.96 1.456-3.22 1.456-1.26 0-2.333-.485-3.22-1.456Zm1.148-6.412c-.532.635-.798 1.531-.798 2.688 0 1.157.266 2.053.798 2.688.541.635 1.232.952 2.072.952.84 0 1.526-.317 2.058-.952.541-.635.812-1.531.812-2.688 0-1.157-.271-2.053-.812-2.688-.532-.635-1.218-.952-2.058-.952-.84 0-1.531.317-2.072.952Zm9.215 6.412c-.886-.971-1.33-2.212-1.33-3.724s.444-2.753 1.33-3.724c.887-.971 1.96-1.456 3.22-1.456 1.26 0 2.334.485 3.22 1.456.887.971 1.33 2.212 1.33 3.724s-.443 2.753-1.33 3.724c-.886.971-1.96 1.456-3.22 1.456-1.26 0-2.333-.485-3.22-1.456Zm1.148-6.412c-.532.635-.798 1.531-.798 2.688 0 1.157.266 2.053.798 2.688.542.635 1.232.952 2.072.952.84 0 1.526-.317 2.058-.952.542-.635.812-1.531.812-2.688 0-1.157-.27-2.053-.812-2.688-.532-.635-1.218-.952-2.058-.952-.84 0-1.53.317-2.072.952ZM80.35 143.42v-1.82l1.82-1.4h1.47v9.8h-1.61v-7.84l-1.68 1.26Zm4.831 3.92c0-.849.327-1.526.98-2.03a3.16 3.16 0 0 1 .98-.448v-.084a2.564 2.564 0 0 1-.77-.462c-.513-.439-.77-1.017-.77-1.736 0-.737.313-1.363.938-1.876.635-.523 1.489-.784 2.562-.784 1.073 0 1.923.261 2.548.784.635.513.952 1.139.952 1.876 0 .7-.257 1.279-.77 1.736-.243.196-.5.35-.77.462v.084c.355.093.681.247.98.462.653.504.98 1.176.98 2.016 0 .812-.355 1.507-1.064 2.086-.7.569-1.652.854-2.856.854s-2.16-.285-2.87-.854c-.7-.579-1.05-1.274-1.05-2.086Zm2.1-4.62c0 .411.159.747.476 1.008.317.261.765.392 1.344.392.579 0 1.027-.131 1.344-.392.317-.261.476-.597.476-1.008 0-.373-.163-.686-.49-.938-.317-.261-.76-.392-1.33-.392-.57 0-1.017.131-1.344.392-.317.252-.476.565-.476.938Zm.168 3.346c-.392.308-.588.686-.588 1.134 0 .448.196.831.588 1.148.401.308.952.462 1.652.462s1.246-.154 1.638-.462c.401-.317.602-.7.602-1.148 0-.448-.2-.826-.602-1.134-.392-.317-.938-.476-1.638-.476s-1.25.159-1.652.476Zm6.687 3.164c0-.28.089-.513.266-.7a.931.931 0 0 1 .686-.28c.308 0 .55.112.728.336.187.224.28.555.28.994 0 .719-.172 1.269-.518 1.652-.336.392-.793.588-1.372.588v-.7c.28 0 .5-.079.658-.238a.765.765 0 0 0 .252-.602v-.084c-.01-.009-.014-.028-.014-.056v-.042l-.084.028a.742.742 0 0 1-.182.014c-.186 0-.35-.084-.49-.252-.14-.168-.21-.387-.21-.658Zm4.476-.406c-.886-.971-1.33-2.212-1.33-3.724s.444-2.753 1.33-3.724c.887-.971 1.96-1.456 3.22-1.456 1.26 0 2.334.485 3.22 1.456.887.971 1.33 2.212 1.33 3.724s-.443 2.753-1.33 3.724c-.886.971-1.96 1.456-3.22 1.456-1.26 0-2.333-.485-3.22-1.456Zm1.148-6.412c-.532.635-.798 1.531-.798 2.688 0 1.157.266 2.053.798 2.688.542.635 1.232.952 2.072.952.84 0 1.526-.317 2.058-.952.542-.635.812-1.531.812-2.688 0-1.157-.27-2.053-.812-2.688-.532-.635-1.218-.952-2.058-.952-.84 0-1.53.317-2.072.952Zm7.676 7.588v-1.54l3.346-2.366c.728-.523 1.25-1.008 1.568-1.456.317-.448.476-.924.476-1.428 0-.532-.164-.957-.49-1.274-.327-.317-.77-.476-1.33-.476-.691 0-1.209.28-1.554.84-.15.243-.262.523-.336.84h-1.68a4.332 4.332 0 0 1 .546-1.61c.662-1.073 1.67-1.61 3.024-1.61 1.036 0 1.876.308 2.52.924.653.607.98 1.372.98 2.296 0 .803-.206 1.526-.616 2.17-.411.635-1.069 1.265-1.974 1.89l-1.4.98-.63.28v.07l.84-.07h3.78V150h-7.07Z" fill="#333"/><circle cx="86.5" cy="453.5" r="39.5" fill="#5A5A5A"/><path d="M63.27 458.48v-1.98l4.23-8.1h2.25l-4.23 8.1h4.14v-3.06h2.07v3.06h1.8v1.98h-1.8V461h-2.07v-2.52h-6.39Zm10.98-5.94c0-1.272.455-2.34 1.367-3.204.912-.864 2.076-1.296 3.492-1.296s2.58.432 3.492 1.296c.912.864 1.368 1.932 1.368 3.204 0 1.14-.474 2.37-1.422 3.69l-.396.54c-.168.216-.282.366-.342.45L78.93 461H76.5l2.718-3.546.792-.684v-.09c-.024.012-.144.06-.36.144-.312.084-.702.126-1.17.126-1.176 0-2.178-.42-3.006-1.26-.816-.852-1.224-1.902-1.224-3.15Zm2.897-1.872c-.492.48-.738 1.104-.738 1.872s.246 1.398.738 1.89c.492.48 1.146.72 1.962.72.816 0 1.47-.24 1.962-.72.492-.492.738-1.122.738-1.89 0-.768-.246-1.392-.738-1.872-.492-.492-1.146-.738-1.962-.738-.816 0-1.47.246-1.962.738Zm8.176 9.342c0-.36.115-.66.343-.9a1.2 1.2 0 0 1 .882-.36c.395 0 .707.144.936.432.24.288.36.714.36 1.278 0 .924-.222 1.632-.666 2.124-.432.504-1.02.756-1.764.756v-.9c.36 0 .641-.102.846-.306.215-.192.323-.45.323-.774v-.108c-.011-.012-.017-.036-.017-.072v-.054l-.109.036a.932.932 0 0 1-.233.018c-.24 0-.45-.108-.63-.324-.18-.216-.27-.498-.27-.846Zm3.686-7.47v-2.34l2.34-1.8h1.89V461h-2.07v-10.08l-2.16 1.62Zm6.031 4.86h2.16c.084.372.246.702.486.99.54.66 1.308.99 2.304.99.828 0 1.482-.204 1.962-.612.492-.42.738-.936.738-1.548 0-.696-.222-1.242-.666-1.638-.432-.408-1.05-.612-1.854-.612h-3.06v-1.8l3.78-2.7v-.09h-5.22v-1.98h8.28v1.962l-3.24 2.358-.9.36v.09l.288-.036c.396-.036.63-.054.702-.054 1.128 0 2.07.39 2.826 1.17.756.78 1.134 1.77 1.134 2.97 0 1.152-.444 2.13-1.332 2.934-.888.804-2.034 1.206-3.438 1.206-1.86 0-3.234-.66-4.122-1.98-.384-.564-.66-1.224-.828-1.98Z" fill="#fff"/><path fill="#FDFF9F" d="M7 384h84v-99H7z"/><path fill="#5A5A5A" d="M0 577h30V0H0z"/><path d="M54.21 342.04v-1.54l3.29-6.3h1.75l-3.29 6.3h3.22v-2.38h1.61v2.38h1.4v1.54h-1.4V344h-1.61v-1.96h-4.97Zm8.54 1.19c0-.28.088-.513.266-.7a.931.931 0 0 1 .686-.28c.308 0 .55.112.728.336.186.224.28.555.28.994 0 .719-.173 1.269-.518 1.652-.336.392-.794.588-1.372.588v-.7c.28 0 .499-.079.657-.238a.765.765 0 0 0 .253-.602v-.084c-.01-.009-.014-.028-.014-.056v-.042l-.084.028a.742.742 0 0 1-.182.014c-.187 0-.35-.084-.49-.252-.14-.168-.21-.387-.21-.658Zm2.656-7.49v-1.54h6.65v1.54l-3.92 8.26h-1.75l3.85-8.12v-.14h-4.83Zm7.488 1.68c0-.989.355-1.82 1.064-2.492.71-.672 1.615-1.008 2.716-1.008 1.101 0 2.007.336 2.716 1.008.71.672 1.064 1.503 1.064 2.492 0 .887-.369 1.843-1.106 2.87l-.308.42c-.13.168-.22.285-.266.35l-2.24 2.94h-1.89l2.114-2.758.616-.532v-.07a7.398 7.398 0 0 1-.28.112 3.581 3.581 0 0 1-.91.098 3.163 3.163 0 0 1-2.338-.98c-.635-.663-.952-1.479-.952-2.45Zm2.254-1.456c-.383.373-.574.859-.574 1.456s.191 1.087.574 1.47c.383.373.891.56 1.526.56s1.143-.187 1.526-.56c.383-.383.574-.873.574-1.47s-.191-1.083-.574-1.456c-.383-.383-.891-.574-1.526-.574s-1.143.191-1.526.574Z" fill="#333"/><path d="M30 115.033h24.995V90.709H30v24.324Z" fill="#fff" stroke="#5A5A5A" stroke-width=".5"/><path d="M52.969 114.107H33.516c-.738 0-1.13-.393-1.13-1.162V92.797c0-.785.376-1.162 1.13-1.162h19.453c.753-.016 1.13.377 1.13 1.146v20.148c.016.785-.377 1.178-1.13 1.178Z" fill="#fff" stroke="#5A5A5A" stroke-width=".5"/><path d="M51.18 107.605c-.016-1.79-1.43-3.25-3.172-3.25-1.758 0-3.171 1.46-3.171 3.25 0 1.806 1.413 3.251 3.171 3.251 1.759 0 3.172-1.445 3.172-3.251Zm-.03-9.625c-.016-1.79-1.43-3.251-3.172-3.251-1.759 0-3.172 1.46-3.172 3.25 0 1.806 1.413 3.251 3.172 3.251 1.758.016 3.187-1.445 3.171-3.25Zm-9.014 0c0-1.806-1.413-3.251-3.172-3.251-1.758 0-3.171 1.46-3.171 3.25.015 1.79 1.428 3.251 3.171 3.251 1.743 0 3.172-1.46 3.172-3.25Zm0 9.625c0-1.805-1.413-3.25-3.172-3.25-1.758 0-3.171 1.46-3.171 3.25.015 1.791 1.428 3.251 3.171 3.251 1.743 0 3.172-1.46 3.172-3.251Z" stroke="#5A5A5A" stroke-width=".5"/><path d="M30.015 139.301h24.089V163H30l.015-23.699Z" fill="#fff" stroke="#5A5A5A" stroke-width=".5"/><path d="M36.622 141.104h13.317c.742 0 1.106.364 1.106 1.121v17.608c0 .727-.364 1.106-1.091 1.121l-13.332-.015c-.727.015-1.091-.363-1.091-1.106v-17.608c-.03-.742.348-1.121 1.09-1.121Z" fill="#fff" stroke="#5A5A5A" stroke-width=".5"/><path d="M31.863 151.029c.015.925.712 1.667 1.591 1.667l6.984-.652.015-.015c.53 0 .955-.439.955-1 0-.56-.424-1-.97-1.015l-6.984-.652c-.864 0-1.576.743-1.59 1.667Z" stroke="#5A5A5A" stroke-width=".5"/><mask id="a" fill="#fff"><path fill-rule="evenodd" clip-rule="evenodd" d="m32.546 152.408 3.803-.363a.988.988 0 0 0 .954-1.031.98.98 0 0 0-.954-1l-3.803-.363"/></mask><path fill-rule="evenodd" clip-rule="evenodd" d="m32.546 152.408 3.803-.363a.988.988 0 0 0 .954-1.031.98.98 0 0 0-.954-1l-3.803-.363" fill="#fff"/><path d="m36.349 152.045-.015-.5h-.016l-.017.002.047.498Zm.954-1.031h-.5v.013l.5-.013Zm-.954-1-.048.498.017.002h.016l.014-.5Zm-3.755 2.892 3.802-.364-.095-.995-3.803.364.096.995Zm3.769-.362a1.488 1.488 0 0 0 1.44-1.543l-1 .026a.488.488 0 0 1-.469.518l.029.999Zm1.44-1.53a1.48 1.48 0 0 0-1.44-1.5l-.029 1a.48.48 0 0 1 .469.5h1Zm-1.407-1.498-3.803-.363-.095.995 3.803.364.095-.996Z" fill="#5A5A5A" mask="url(#a)"/><path fill="#5A5A5A" d="M101 392v-8H30v8zm0-106v-8H30v8zm43-51v-8h-9v8zm-106 0v-8h-9v8z"/><path fill="#5A5A5A" d="M98 352h-8v34h8z"/><path d="m49.298 365.28-1.18-.016-3.066.016H37.46v-9.957h11.837c3.017 0 5.476 2.244 5.476 4.995 0 2.719-2.459 4.962-5.476 4.962Z" fill="#fff" stroke="#5A5A5A" stroke-width=".5"/><path d="M49.233 364.134H40.74v-7.681h7.558l.935.017c2.377 0 4.312 1.703 4.312 3.832-.017 2.112-1.951 3.832-4.312 3.832Zm-18.135-10.612h5.263c.607 0 1.099.491 1.099 1.097v11.284c0 .606-.492 1.097-1.099 1.097h-5.263A1.098 1.098 0 0 1 30 365.903v-11.268c0-.622.492-1.113 1.098-1.113Z" fill="#fff" stroke="#5A5A5A" stroke-width=".5"/><path d="M33.722 359.614c.41 0 .722.295.722.639.016.36-.312.655-.722.655s-.721-.295-.721-.639a.683.683 0 0 1 .721-.655Zm-2.182-39.21h12.308c.856 0 1.54.683 1.54 1.538v18.519c0 .855-.684 1.539-1.54 1.539H31.54c-.855 0-1.54-.684-1.54-1.539v-18.519c0-.84.685-1.538 1.54-1.538Z" fill="#fff" stroke="#5A5A5A" stroke-width=".5"/><path d="M36.232 322.327h1.897a4.52 4.52 0 0 1 4.52 4.516v8.718a4.52 4.52 0 0 1-4.52 4.516h-1.897a4.52 4.52 0 0 1-4.521-4.516v-8.718a4.52 4.52 0 0 1 4.521-4.516Z" fill="#fff" stroke="#5A5A5A" stroke-width=".5"/><path d="M34.122 330.247c.543 0 .984.427.984.954 0 .527-.44.955-.984.955s-.984-.428-.984-.955c0-.527.44-.954.984-.954Zm-2.736-17.636h60.12a1.38 1.38 0 0 0 1.386-1.384V287.36a1.38 1.38 0 0 0-1.385-1.384H31.386A1.38 1.38 0 0 0 30 287.36v23.867c0 .769.63 1.384 1.386 1.384Z" fill="#fff" stroke="#5A5A5A" stroke-width=".5"/><path d="M89.197 302.53v-6.488c0-3.761-3.052-6.795-6.803-6.795h-47.34a1.66 1.66 0 0 0-1.666 1.664v16.778a1.66 1.66 0 0 0 1.665 1.664H82.38c3.766-.014 6.817-3.062 6.817-6.823Z" fill="#fff" stroke="#5A5A5A" stroke-width=".5"/><path d="M39 299.762c0 .749-.633 1.356-1.413 1.356-.781 0-1.414-.607-1.414-1.356 0-.749.633-1.356 1.414-1.356.78 0 1.413.607 1.413 1.356Zm51.588 62.214v22.01L69 384l.014-22.01 21.574-.014Z" fill="#fff" stroke="#5A5A5A" stroke-width=".5"/><path d="M74.257 372.995c0 3.114 2.475 5.628 5.536 5.628 3.063 0 5.537-2.514 5.537-5.642 0-3.114-2.474-5.656-5.537-5.656-3.061.014-5.536 2.556-5.536 5.67Z" stroke="#5A5A5A" stroke-width=".5"/><path d="M79.794 368.875a3.874 3.874 0 0 0-2.852 1.201 4.266 4.266 0 0 0-1.189 2.905m4.027 4.134a4.033 4.033 0 0 1-2.852-1.201 4.186 4.186 0 0 1-1.189-2.919l4.04 4.12Zm.014-8.24c1.104 0 2.111.461 2.852 1.201a4.2 4.2 0 0 1 1.175 2.919l-4.027-4.12Zm-.014 8.24c1.132 0 2.14-.461 2.852-1.201l.014-.014a4.167 4.167 0 0 0 1.175-2.891l-4.041 4.106Z" stroke="#5A5A5A" stroke-width=".5"/><path fill="#5A5A5A" d="M98 285h-8v40h8zM70 577v-30H0v30z"/><path stroke="#5A5A5A" d="m69.743 563.571 25-15"/><path d="m132.75 630.75-81.468-.063-.03-4.437h81.498v4.5Z" stroke="#5A5A5A" stroke-width=".5" stroke-miterlimit="10"/><path fill="#5A5A5A" d="M149 631h5v-74h-5zm-103 0h5v-74h-5z"/><path fill="#5A5A5A" d="M65 631v-5H46v5zm86 0v-5H65v5z"/><path d="m97.25 576.75 60.476-.063.023-4.437H97.25v4.5Zm0-10 60.476-.063.023-4.437H97.25v4.5Z" stroke="#5A5A5A" stroke-width=".5" stroke-miterlimit="10"/><path fill="#5A5A5A" d="M160 577v-30h-35v30zm0-547V0h-43v30zM52 30V0H9v30z"/><path fill="#5A5A5A" d="M144 235h16V0h-16z"/><path fill="#5A5A5A" d="M283 235v-16H144v16zm0 66v-16H144v16z"/><path fill="#5A5A5A" d="M267 275h-16v26h16zm0-55h-16v20h16zm-107 65h-16v266h16z"/><path d="M139.75 29.75 7.303 29.598 7.251 18.25H139.75v11.5Zm0-18L7.303 11.598 7.251.25H139.75v11.5Z" stroke="#5A5A5A" stroke-width=".5" stroke-miterlimit="10"/><path stroke="#5A5A5A" d="m146.277 390.416-21 14m-26.554-14 21 14m-24.153-51.67 13-22m157.01-92.475 20 31"/><path d="m35.25 227.25 37.642.025.011 1.475H35.25v-1.5Zm62.844 0 37.642.025.012 1.475H98.094v-1.5Zm-31.422-2 37.641.025.012 1.475H66.672v-1.5Z" stroke="#5A5A5A" stroke-width=".5" stroke-miterlimit="10"/></svg>