<svg width="351" height="441" fill="none" xmlns="http://www.w3.org/2000/svg"><path d="M82 359h195V115H82v244Z" fill="#FFF8BA"/><path d="M235 359h42V22h-42v337Z" fill="#FFF8BA"/><path d="m91.88 150.733 76.387 76.388L268 87.387 231.613 11 91.88 150.733ZM255 359h83V193h-83v166Z" fill="#FFF8BA"/><path d="M106.325 125v24.995H82V125h24.325Z" fill="#fff" stroke="#5A5A5A" stroke-width=".5"/><path d="M105.398 147.969v-19.453c0-.738-.392-1.131-1.162-1.131H84.089c-.785 0-1.162.377-1.162 1.131v19.453c-.016.753.376 1.13 1.146 1.13h20.148c.785.016 1.177-.377 1.177-1.13Z" fill="#fff" stroke="#5A5A5A" stroke-width=".5"/><path d="M98.897 146.18c-1.79-.016-3.25-1.429-3.25-3.172 0-1.758 1.46-3.172 3.25-3.172 1.806 0 3.251 1.414 3.251 3.172 0 1.758-1.445 3.172-3.251 3.172Zm-9.626-.031c-1.79-.015-3.25-1.428-3.25-3.171 0-1.759 1.46-3.172 3.25-3.172 1.806 0 3.25 1.413 3.25 3.172.016 1.758-1.444 3.187-3.25 3.171Zm0-9.013c-1.806 0-3.25-1.413-3.25-3.172 0-1.758 1.46-3.171 3.25-3.171 1.79.015 3.25 1.428 3.25 3.171 0 1.743-1.46 3.172-3.25 3.172Zm9.626 0c-1.806 0-3.25-1.413-3.25-3.172 0-1.758 1.46-3.171 3.25-3.171 1.79.015 3.251 1.428 3.251 3.171 0 1.743-1.461 3.172-3.251 3.172Z" stroke="#5A5A5A" stroke-width=".5"/><path d="M130.592 125.015v24.089h23.699V125l-23.699.015Z" fill="#fff" stroke="#5A5A5A" stroke-width=".5"/><path d="M132.396 131.621v13.317c0 .743.363 1.106 1.121 1.106h17.607c.728 0 1.107-.363 1.122-1.091l-.015-13.332c.015-.727-.364-1.09-1.107-1.09h-17.607c-.743-.031-1.121.348-1.121 1.09Z" fill="#fff" stroke="#5A5A5A" stroke-width=".5"/><path d="M142.321 126.864c.924.015 1.666.712 1.666 1.59l-.651 6.985-.015.015c0 .53-.44.954-1 .954-.561 0-1-.424-1.016-.969l-.651-6.985c0-.863.742-1.575 1.667-1.59Z" stroke="#5A5A5A" stroke-width=".5"/><mask id="a" fill="#fff"><path fill-rule="evenodd" clip-rule="evenodd" d="m143.7 127.546-.364 3.803a.988.988 0 0 1-1.03.954.98.98 0 0 1-1-.954l-.364-3.803"/></mask><path fill-rule="evenodd" clip-rule="evenodd" d="m143.7 127.546-.364 3.803a.988.988 0 0 1-1.03.954.98.98 0 0 1-1-.954l-.364-3.803" fill="#fff"/><path d="m143.336 131.349-.5-.014.001-.017.001-.017.498.048Zm-1.03.954v-.5h.013l-.013.5Zm-1-.954.497-.048.002.017v.017l-.499.014Zm2.891-3.755-.363 3.802-.996-.095.364-3.802.995.095Zm-.361 3.769a1.488 1.488 0 0 1-1.544 1.44l.027-1a.487.487 0 0 0 .517-.468l1 .028Zm-1.53 1.44a1.48 1.48 0 0 1-1.5-1.44l.999-.028a.482.482 0 0 0 .501.468v1Zm-1.498-1.407-.364-3.802.996-.095.363 3.802-.995.095Z" fill="#5A5A5A" mask="url(#a)"/><path fill="#5A5A5A" d="M210 193h-2v-11h2zm0-17h-2v-11h2zm0-17h-2v-11h2zm0-17h-2v-11h2zM74 193v-2h11v2zm51 0v-2h11v2zm-17 0v-2h11v2zm-17 0v-2h11v2zm51 0v-2h11v2zm17 0v-2h11v2zm17 0v-2h11v2zm17 0v-2h11v2z"/><path d="M336 90v98l-61-1.556V90h61Z" fill="#FFC79F"/><path d="M333.678 160.225h-57.356c-.734 0-1.322.587-1.322 1.32v22.77c0 .734.588 1.32 1.322 1.32h57.356c.734 0 1.322-.586 1.322-1.32v-22.77c0-.733-.601-1.32-1.322-1.32Z" fill="#fff" stroke="#5A5A5A" stroke-width=".5"/><path d="M278.526 169.843v6.189a6.485 6.485 0 0 0 6.49 6.483h45.163c.882 0 1.59-.707 1.59-1.588v-16.006c0-.881-.708-1.588-1.59-1.588h-45.15c-3.592.014-6.503 2.921-6.503 6.51Z" fill="#fff" stroke="#5A5A5A" stroke-width=".5"/><path d="M326.413 172.483c0-.714.604-1.294 1.349-1.294s1.349.58 1.349 1.294c0 .715-.604 1.294-1.349 1.294s-1.349-.579-1.349-1.294Z" fill="#fff" stroke="#5A5A5A" stroke-width=".5"/><path fill="#5A5A5A" d="M52 240h30V106H52zm0 149h30v-91H52z"/><path d="m.25 209.25.063 109.457 4.437.041V209.25H.25Z" stroke="#5A5A5A" stroke-width=".5" stroke-miterlimit="10"/><path fill="#5A5A5A" d="M0 197v-5h74v5zm0 127v-5h74v5z"/><path fill="#5A5A5A" d="M0 305h5v19H0zm0-112h5v19H0z"/><path d="m66.75 209.25-.063 60.476-4.437.023V209.25h4.5Zm-10 0-.063 60.476-4.437.023V209.25h4.5Z" stroke="#5A5A5A" stroke-width=".5" stroke-miterlimit="10"/><path stroke="#5A5A5A" d="m65.43 299.255 16-27"/><path fill="#5A5A5A" d="M105 389v-30H67v30zm134 0v-30h-75v30zm112 0v-30h-54v30zM67 105v20h52v-20zM223 2v20h74V2z"/><path fill="#5A5A5A" d="M297 11h-20v35h20zm54 71h-16v141h16zM234 13.314 222.686 2 107.411 113.276l11.313 11.313L234 13.314Z"/><path fill="#5A5A5A" d="M351 218h-16v171h16z"/><path d="m84.25 359.25 154.438.152.061 11.348H84.25v-11.5Zm0 18 154.438.152.061 11.348H84.25v-11.5Z" stroke="#5A5A5A" stroke-width=".5" stroke-miterlimit="10"/><path d="M102 117v8h108v-8H102Zm165-35v8h83v-8zm0 106h8v-71h-8z" fill="#5A5A5A"/><path fill="#5A5A5A" d="M267 185v8h71v-8z"/><path stroke="#5A5A5A" d="m269.43 120.745-16-27M278.6 81.7l21-28"/><path d="m300.75 440.75-81.468-.063-.03-4.437h81.498v4.5Z" stroke="#5A5A5A" stroke-width=".5" stroke-miterlimit="10"/><path fill="#5A5A5A" d="M307 441h5v-74h-5zm-99 0h5v-74h-5z"/><path fill="#5A5A5A" d="M304 441v-5h-94v5z"/><path fill="#5A5A5A" d="M312 441v-5h-12v5z"/><path d="m328.75 374.25-60.476.063-.023 4.437h60.499v-4.5Zm0 10-60.476.063-.023 4.437h60.499v-4.5Z" stroke="#5A5A5A" stroke-width=".5" stroke-miterlimit="10"/><path stroke="#5A5A5A" d="m238.745 375.57 27-16"/><path d="m315.491 115.807 1.181-.006 3.066.044 7.591.067.088-9.957-11.837-.105c-3.017-.027-5.496 2.195-5.521 4.946-.024 2.719 2.416 4.984 5.432 5.011Z" fill="#fff" stroke="#5A5A5A" stroke-width=".5"/><path d="m315.567 114.661.935.009 7.558.067.068-7.681-7.558-.067-.935.008c-2.377-.021-4.327 1.665-4.346 3.794-.002 2.113 1.917 3.849 4.278 3.87Zm18.228-10.45-5.263-.047a1.096 1.096 0 0 0-1.108 1.087l-.101 11.284a1.099 1.099 0 0 0 1.089 1.107l5.263.047a1.099 1.099 0 0 0 1.108-1.088l.1-11.267a1.1 1.1 0 0 0-1.088-1.123Z" fill="#fff" stroke="#5A5A5A" stroke-width=".5"/><path d="M331.117 110.279c-.41-.003-.724.289-.727.633-.02.36.306.657.716.661.409.004.724-.288.727-.632a.684.684 0 0 0-.716-.662ZM333.848 125H321.54c-.855 0-1.54.684-1.54 1.539v18.519c0 .855.685 1.538 1.54 1.538h12.308c.856 0 1.541-.683 1.541-1.538v-18.519c0-.841-.685-1.539-1.541-1.539Z" fill="#fff" stroke="#5A5A5A" stroke-width=".5"/><path d="M329.156 126.923h-1.896a4.52 4.52 0 0 0-4.522 4.516v8.718a4.52 4.52 0 0 0 4.522 4.516h1.896a4.52 4.52 0 0 0 4.521-4.516v-8.718a4.52 4.52 0 0 0-4.521-4.516Z" fill="#fff" stroke="#5A5A5A" stroke-width=".5"/><path d="M331.267 134.843c-.543 0-.984.428-.984.955 0 .527.441.954.984.954.544 0 .984-.427.984-.954 0-.527-.44-.955-.984-.955Z" fill="#fff" stroke="#5A5A5A" stroke-width=".5"/><path d="M286.42 327.2h1.68c.065.289.191.546.378.77.42.513 1.017.77 1.792.77.644 0 1.153-.159 1.526-.476.383-.327.574-.728.574-1.204 0-.541-.173-.966-.518-1.274-.336-.317-.817-.476-1.442-.476h-2.38v-1.4l2.94-2.1v-.07h-4.06v-1.54h6.44v1.526l-2.52 1.834-.7.28v.07l.224-.028c.308-.028.49-.042.546-.042.877 0 1.61.303 2.198.91.588.607.882 1.377.882 2.31 0 .896-.345 1.657-1.036 2.282-.691.625-1.582.938-2.674.938-1.447 0-2.515-.513-3.206-1.54a4.406 4.406 0 0 1-.644-1.54Zm8.547-.42c0-.448.098-.915.294-1.4.205-.495.401-.882.588-1.162.196-.289.462-.649.798-1.078l2.24-2.94h1.89l-2.114 2.758-.616.532v.07l.28-.098c.28-.075.583-.112.91-.112.914 0 1.689.331 2.324.994.644.653.966 1.465.966 2.436 0 .989-.355 1.82-1.064 2.492-.71.672-1.615 1.008-2.716 1.008-1.102 0-2.007-.336-2.716-1.008-.71-.672-1.064-1.503-1.064-2.492Zm2.254-1.456c-.383.373-.574.859-.574 1.456s.191 1.087.574 1.47c.382.373.891.56 1.526.56.634 0 1.143-.187 1.526-.56.382-.383.574-.873.574-1.47s-.192-1.083-.574-1.456c-.383-.383-.892-.574-1.526-.574-.635 0-1.144.191-1.526.574Zm6.429 3.906c0-.28.089-.513.266-.7a.932.932 0 0 1 .686-.28c.308 0 .551.112.728.336.187.224.28.555.28.994 0 .719-.173 1.269-.518 1.652-.336.392-.793.588-1.372.588v-.7c.28 0 .499-.079.658-.238a.765.765 0 0 0 .252-.602v-.084c-.009-.009-.014-.028-.014-.056v-.042l-.084.028a.743.743 0 0 1-.182.014c-.187 0-.35-.084-.49-.252-.14-.168-.21-.387-.21-.658Zm2.656-7.49v-1.54h6.65v1.54l-3.92 8.26h-1.75l3.85-8.12v-.14h-4.83Zm7.145 5.04c0-.448.098-.915.294-1.4.205-.495.401-.882.588-1.162.196-.289.462-.649.798-1.078l2.24-2.94h1.89l-2.114 2.758-.616.532v.07l.28-.098c.28-.075.583-.112.91-.112.915 0 1.689.331 2.324.994.644.653.966 1.465.966 2.436 0 .989-.355 1.82-1.064 2.492-.709.672-1.615 1.008-2.716 1.008-1.101 0-2.007-.336-2.716-1.008-.709-.672-1.064-1.503-1.064-2.492Zm2.254-1.456c-.383.373-.574.859-.574 1.456s.191 1.087.574 1.47c.383.373.891.56 1.526.56s1.143-.187 1.526-.56c.383-.383.574-.873.574-1.47s-.191-1.083-.574-1.456c-.383-.383-.891-.574-1.526-.574s-1.143.191-1.526.574ZM248.42 413.2h1.68c.065.289.191.546.378.77.42.513 1.017.77 1.792.77.644 0 1.153-.159 1.526-.476.383-.327.574-.728.574-1.204 0-.541-.173-.966-.518-1.274-.336-.317-.817-.476-1.442-.476h-2.38v-1.4l2.94-2.1v-.07h-4.06v-1.54h6.44v1.526l-2.52 1.834-.7.28v.07l.224-.028c.308-.028.49-.042.546-.042.877 0 1.61.303 2.198.91.588.607.882 1.377.882 2.31 0 .896-.345 1.657-1.036 2.282-.691.625-1.582.938-2.674.938-1.447 0-2.515-.513-3.206-1.54a4.406 4.406 0 0 1-.644-1.54Zm8.617 2.03c0-.28.088-.513.266-.7a.93.93 0 0 1 .686-.28c.308 0 .55.112.728.336.186.224.28.555.28.994 0 .719-.173 1.269-.518 1.652-.336.392-.794.588-1.372.588v-.7c.28 0 .499-.079.658-.238a.765.765 0 0 0 .252-.602v-.084c-.01-.009-.014-.028-.014-.056v-.042l-.084.028a.743.743 0 0 1-.182.014c-.187 0-.35-.084-.49-.252-.14-.168-.21-.387-.21-.658Zm3.006-2.45c0-.448.098-.915.294-1.4.205-.495.401-.882.588-1.162.196-.289.462-.649.798-1.078l2.24-2.94h1.89l-2.114 2.758-.616.532v.07l.28-.098c.28-.075.583-.112.91-.112.914 0 1.689.331 2.324.994.644.653.966 1.465.966 2.436 0 .989-.355 1.82-1.064 2.492-.71.672-1.615 1.008-2.716 1.008-1.102 0-2.007-.336-2.716-1.008-.71-.672-1.064-1.503-1.064-2.492Zm2.254-1.456c-.383.373-.574.859-.574 1.456s.191 1.087.574 1.47c.382.373.891.56 1.526.56.634 0 1.143-.187 1.526-.56.382-.383.574-.873.574-1.47s-.192-1.083-.574-1.456c-.383-.383-.892-.574-1.526-.574-.635 0-1.144.191-1.526.574Zm6.359 1.456c0-.448.098-.915.294-1.4.205-.495.401-.882.588-1.162.196-.289.462-.649.798-1.078l2.24-2.94h1.89l-2.114 2.758-.616.532v.07l.28-.098c.28-.075.583-.112.91-.112.915 0 1.689.331 2.324.994.644.653.966 1.465.966 2.436 0 .989-.355 1.82-1.064 2.492-.709.672-1.615 1.008-2.716 1.008-1.101 0-2.007-.336-2.716-1.008-.709-.672-1.064-1.503-1.064-2.492Zm2.254-1.456c-.383.373-.574.859-.574 1.456s.191 1.087.574 1.47c.383.373.891.56 1.526.56s1.143-.187 1.526-.56c.383-.383.574-.873.574-1.47s-.191-1.083-.574-1.456c-.383-.383-.891-.574-1.526-.574s-1.143.191-1.526.574ZM19.21 287.04v-1.54l3.29-6.3h1.75l-3.29 6.3h3.22v-2.38h1.61v2.38h1.4v1.54h-1.4V289h-1.61v-1.96h-4.97Zm8.54 1.19c0-.28.088-.513.265-.7a.931.931 0 0 1 .686-.28c.308 0 .551.112.729.336.186.224.28.555.28.994 0 .719-.173 1.269-.518 1.652-.337.392-.794.588-1.372.588v-.7c.28 0 .499-.079.657-.238a.765.765 0 0 0 .253-.602v-.084c-.01-.009-.015-.028-.015-.056v-.042l-.084.028a.742.742 0 0 1-.181.014c-.187 0-.35-.084-.49-.252-.14-.168-.21-.387-.21-.658Zm2.656-7.49v-1.54h6.65v1.54l-3.92 8.26h-1.75l3.85-8.12v-.14h-4.83Zm7.145 5.04c0-.448.097-.915.293-1.4.206-.495.402-.882.588-1.162.197-.289.462-.649.798-1.078l2.24-2.94h1.89l-2.114 2.758-.616.532v.07l.28-.098c.28-.075.584-.112.91-.112.915 0 1.69.331 2.325.994.643.653.965 1.465.965 2.436 0 .989-.354 1.82-1.063 2.492-.71.672-1.615 1.008-2.716 1.008-1.102 0-2.007-.336-2.717-1.008-.709-.672-1.063-1.503-1.063-2.492Zm2.253-1.456c-.382.373-.574.859-.574 1.456s.192 1.087.575 1.47c.382.373.89.56 1.526.56.634 0 1.143-.187 1.525-.56.383-.383.575-.873.575-1.47s-.192-1.083-.575-1.456c-.382-.383-.89-.574-1.526-.574-.634 0-1.143.191-1.526.574ZM140.49 171.78c0-.448.098-.915.294-1.4.205-.495.401-.882.588-1.162.196-.289.462-.649.798-1.078l2.24-2.94h1.89l-2.114 2.758-.616.532v.07l.28-.098c.28-.075.583-.112.91-.112.915 0 1.689.331 2.324.994.644.653.966 1.465.966 2.436 0 .989-.355 1.82-1.064 2.492-.709.672-1.615 1.008-2.716 1.008-1.101 0-2.007-.336-2.716-1.008-.709-.672-1.064-1.503-1.064-2.492Zm2.254-1.456c-.383.373-.574.859-.574 1.456s.191 1.087.574 1.47c.383.373.891.56 1.526.56s1.143-.187 1.526-.56c.383-.383.574-.873.574-1.47s-.191-1.083-.574-1.456c-.383-.383-.891-.574-1.526-.574s-1.143.191-1.526.574Zm6.429 3.906c0-.28.089-.513.266-.7a.933.933 0 0 1 .686-.28c.308 0 .551.112.728.336.187.224.28.555.28.994 0 .719-.172 1.269-.518 1.652-.336.392-.793.588-1.372.588v-.7c.28 0 .5-.079.658-.238a.765.765 0 0 0 .252-.602v-.084c-.009-.009-.014-.028-.014-.056v-.042l-.084.028a.738.738 0 0 1-.182.014c-.186 0-.35-.084-.49-.252-.14-.168-.21-.387-.21-.658Zm2.866-5.81v-1.82l1.82-1.4h1.47v9.8h-1.61v-7.84l-1.68 1.26Zm4.692 6.58v-1.54l3.346-2.366c.728-.523 1.25-1.008 1.568-1.456.317-.448.476-.924.476-1.428 0-.532-.164-.957-.49-1.274-.327-.317-.77-.476-1.33-.476-.691 0-1.209.28-1.554.84-.15.243-.262.523-.336.84h-1.68a4.332 4.332 0 0 1 .546-1.61c.662-1.073 1.67-1.61 3.024-1.61 1.036 0 1.876.308 2.52.924.653.607.98 1.372.98 2.296 0 .803-.206 1.526-.616 2.17-.411.635-1.069 1.265-1.974 1.89l-1.4.98-.63.28v.07l.84-.07h3.78V175h-7.07Zm38.409-93.26V80.2h6.65v1.54L197.87 90h-1.75l3.85-8.12v-.14h-4.83Zm6.094 7.49c0-.28.088-.513.266-.7a.931.931 0 0 1 .686-.28c.308 0 .55.112.728.336.186.224.28.555.28.994 0 .719-.173 1.27-.518 1.652-.336.392-.794.588-1.372.588v-.7c.28 0 .499-.08.658-.238a.765.765 0 0 0 .252-.602v-.084c-.01-.01-.014-.028-.014-.056v-.042l-.084.028a.728.728 0 0 1-.182.014c-.187 0-.35-.084-.49-.252-.14-.168-.21-.387-.21-.658Zm2.656-7.49V80.2h6.65v1.54L206.62 90h-1.75l3.85-8.12v-.14h-4.83Zm6.865 6.3V86.5l3.29-6.3h1.75l-3.29 6.3h3.22v-2.38h1.61v2.38h1.4v1.54h-1.4V90h-1.61v-1.96h-4.97Zm68.455 49v-1.54l3.29-6.3h1.75l-3.29 6.3h3.22v-2.38h1.61v2.38h1.4v1.54h-1.4V139h-1.61v-1.96h-4.97Zm8.539 1.19c0-.28.089-.513.266-.7a.933.933 0 0 1 .686-.28c.308 0 .551.112.728.336.187.224.28.555.28.994 0 .719-.172 1.269-.518 1.652-.336.392-.793.588-1.372.588v-.7c.28 0 .5-.079.658-.238a.765.765 0 0 0 .252-.602v-.084c-.009-.009-.014-.028-.014-.056v-.042l-.084.028a.738.738 0 0 1-.182.014c-.186 0-.35-.084-.49-.252-.14-.168-.21-.387-.21-.658Zm3.077-5.81c0-.989.354-1.82 1.064-2.492.709-.672 1.614-1.008 2.716-1.008 1.101 0 2.006.336 2.716 1.008.709.672 1.064 1.503 1.064 2.492 0 .887-.369 1.843-1.106 2.87l-.308.42c-.131.168-.22.285-.266.35l-2.24 2.94h-1.89l2.114-2.758.616-.532v-.07a7.65 7.65 0 0 1-.28.112 3.583 3.583 0 0 1-.91.098 3.163 3.163 0 0 1-2.338-.98c-.635-.663-.952-1.479-.952-2.45Zm2.254-1.456c-.383.373-.574.859-.574 1.456s.191 1.087.574 1.47c.382.373.891.56 1.526.56.634 0 1.143-.187 1.526-.56.382-.383.574-.873.574-1.47s-.192-1.083-.574-1.456c-.383-.383-.892-.574-1.526-.574-.635 0-1.144.191-1.526.574Zm6.289 4.816c0-.448.098-.915.294-1.4.205-.495.401-.882.588-1.162.196-.289.462-.649.798-1.078l2.24-2.94h1.89l-2.114 2.758-.616.532v.07l.28-.098c.28-.075.583-.112.91-.112.915 0 1.689.331 2.324.994.644.653.966 1.465.966 2.436 0 .989-.355 1.82-1.064 2.492-.709.672-1.615 1.008-2.716 1.008-1.101 0-2.007-.336-2.716-1.008-.709-.672-1.064-1.503-1.064-2.492Zm2.254-1.456c-.383.373-.574.859-.574 1.456s.191 1.087.574 1.47c.383.373.891.56 1.526.56s1.143-.187 1.526-.56c.383-.383.574-.873.574-1.47s-.191-1.083-.574-1.456c-.383-.383-.891-.574-1.526-.574s-1.143.191-1.526.574Z" fill="#333"/><circle cx="174.5" cy="272.5" r="39.5" fill="#5A5A5A"/><path d="M148.72 276.49h2.16c.096.372.258.69.486.954.528.624 1.296.936 2.304.936.804 0 1.44-.216 1.908-.648.468-.432.702-.996.702-1.692 0-.732-.234-1.32-.702-1.764-.468-.444-1.104-.666-1.908-.666-.744 0-1.374.198-1.89.594a2.481 2.481 0 0 0-.54.576h-1.98l.54-7.38h7.65v1.98h-5.94l-.27 3.24h.09c.192-.192.414-.354.666-.486.564-.336 1.242-.504 2.034-.504 1.26 0 2.31.42 3.15 1.26.84.84 1.26 1.89 1.26 3.15 0 1.236-.444 2.268-1.332 3.096-.876.816-2.022 1.224-3.438 1.224-1.848 0-3.222-.642-4.122-1.926a5.672 5.672 0 0 1-.828-1.944Zm11.074 0h2.16c.096.372.258.69.486.954.528.624 1.296.936 2.304.936.804 0 1.44-.216 1.908-.648.468-.432.702-.996.702-1.692 0-.732-.234-1.32-.702-1.764-.468-.444-1.104-.666-1.908-.666-.744 0-1.374.198-1.89.594a2.481 2.481 0 0 0-.54.576h-1.98l.54-7.38h7.65v1.98h-5.94l-.27 3.24h.09c.192-.192.414-.354.666-.486.564-.336 1.242-.504 2.034-.504 1.26 0 2.31.42 3.15 1.26.84.84 1.26 1.89 1.26 3.15 0 1.236-.444 2.268-1.332 3.096-.876.816-2.022 1.224-3.438 1.224-1.848 0-3.222-.642-4.122-1.926a5.672 5.672 0 0 1-.828-1.944Zm11.074 2.52c0-.36.114-.66.342-.9a1.2 1.2 0 0 1 .882-.36c.396 0 .708.144.936.432.24.288.36.714.36 1.278 0 .924-.222 1.632-.666 2.124-.432.504-1.02.756-1.764.756v-.9c.36 0 .642-.102.846-.306.216-.192.324-.45.324-.774v-.108c-.012-.012-.018-.036-.018-.072v-.054l-.108.036a.932.932 0 0 1-.234.018c-.24 0-.45-.108-.63-.324-.18-.216-.27-.498-.27-.846Zm3.956-2.52h2.16c.096.372.258.69.486.954.528.624 1.296.936 2.304.936.804 0 1.44-.216 1.908-.648.468-.432.702-.996.702-1.692 0-.732-.234-1.32-.702-1.764-.468-.444-1.104-.666-1.908-.666-.744 0-1.374.198-1.89.594a2.481 2.481 0 0 0-.54.576h-1.98l.54-7.38h7.65v1.98h-5.94l-.27 3.24h.09c.192-.192.414-.354.666-.486.564-.336 1.242-.504 2.034-.504 1.26 0 2.31.42 3.15 1.26.84.84 1.26 1.89 1.26 3.15 0 1.236-.444 2.268-1.332 3.096-.876.816-2.022 1.224-3.438 1.224-1.848 0-3.222-.642-4.122-1.926a5.672 5.672 0 0 1-.828-1.944Zm11.074.09c0-1.092.42-1.962 1.26-2.61.36-.252.78-.444 1.26-.576v-.108a3.296 3.296 0 0 1-.99-.594c-.66-.564-.99-1.308-.99-2.232 0-.948.402-1.752 1.206-2.412.816-.672 1.914-1.008 3.294-1.008 1.38 0 2.472.336 3.276 1.008.816.66 1.224 1.464 1.224 2.412 0 .9-.33 1.644-.99 2.232-.312.252-.642.45-.99.594v.108c.456.12.876.318 1.26.594.84.648 1.26 1.512 1.26 2.592 0 1.044-.456 1.938-1.368 2.682-.9.732-2.124 1.098-3.672 1.098s-2.778-.366-3.69-1.098c-.9-.744-1.35-1.638-1.35-2.682Zm2.7-5.94c0 .528.204.96.612 1.296.408.336.984.504 1.728.504s1.32-.168 1.728-.504c.408-.336.612-.768.612-1.296 0-.48-.21-.882-.63-1.206-.408-.336-.978-.504-1.71-.504s-1.308.168-1.728.504c-.408.324-.612.726-.612 1.206Zm.216 4.302c-.504.396-.756.882-.756 1.458s.252 1.068.756 1.476c.516.396 1.224.594 2.124.594.9 0 1.602-.198 2.106-.594.516-.408.774-.9.774-1.476s-.258-1.062-.774-1.458c-.504-.408-1.206-.612-2.106-.612-.9 0-1.608.204-2.124.612Z" fill="#fff"/></svg>